<?xml version="1.0" encoding="UTF-8" standalone="no"?>
<!-- Created with Inkscape (http://www.inkscape.org/) -->

<svg
   xmlns:osb="http://www.openswatchbook.org/uri/2009/osb"
   xmlns:dc="http://purl.org/dc/elements/1.1/"
   xmlns:cc="http://creativecommons.org/ns#"
   xmlns:rdf="http://www.w3.org/1999/02/22-rdf-syntax-ns#"
   xmlns:svg="http://www.w3.org/2000/svg"
   xmlns="http://www.w3.org/2000/svg"
   xmlns:xlink="http://www.w3.org/1999/xlink"
   xmlns:sodipodi="http://sodipodi.sourceforge.net/DTD/sodipodi-0.dtd"
   xmlns:inkscape="http://www.inkscape.org/namespaces/inkscape"
   width="128"
   height="128"
   viewBox="0 0 33.866665 33.866665"
   version="1.1"
   id="svg4942"
   inkscape:version="0.92.3 (2405546, 2018-03-11)"
   sodipodi:docname="audio-speakers.svg"
   inkscape:export-filename="/Users/balasakthi/Desktop/d.png"
   inkscape:export-xdpi="96"
   inkscape:export-ydpi="96"
   style="enable-background:new">
  <defs
     id="defs4936">
    <linearGradient
       inkscape:collect="always"
       id="linearGradient4719">
      <stop
         style="stop-color:#909299;stop-opacity:1"
         offset="0"
         id="stop4715" />
      <stop
         style="stop-color:#b5b7bf;stop-opacity:1"
         offset="1"
         id="stop4717" />
    </linearGradient>
    <linearGradient
       inkscape:collect="always"
       id="linearGradient4711">
      <stop
         style="stop-color:#9c9da5;stop-opacity:1"
         offset="0"
         id="stop4706" />
      <stop
         style="stop-color:#84848c;stop-opacity:1"
         offset="1"
         id="stop4709" />
    </linearGradient>
    <linearGradient
       inkscape:collect="always"
       id="linearGradient4702">
      <stop
         style="stop-color:#ffffff;stop-opacity:1"
         offset="0"
         id="stop4698" />
      <stop
         style="stop-color:#e5e5e5;stop-opacity:1"
         offset="1"
         id="stop4700" />
    </linearGradient>
    <linearGradient
       id="linearGradient4682"
       inkscape:collect="always">
      <stop
         id="stop4678"
         offset="0"
         style="stop-color:#919699;stop-opacity:1" />
      <stop
         id="stop4680"
         offset="1"
         style="stop-color:#3d4043;stop-opacity:1" />
    </linearGradient>
    <linearGradient
       inkscape:collect="always"
       id="linearGradient4664">
      <stop
         style="stop-color:#36383b;stop-opacity:1"
         offset="0"
         id="stop4660" />
      <stop
         style="stop-color:#17181a;stop-opacity:1"
         offset="1"
         id="stop4662" />
    </linearGradient>
    <linearGradient
       id="linearGradient6211"
       osb:paint="solid">
      <stop
         style="stop-color:#666666;stop-opacity:1;"
         offset="0"
         id="stop6209" />
    </linearGradient>
    <linearGradient
       id="linearGradient6987"
       osb:paint="solid">
      <stop
         style="stop-color:#77d2fb;stop-opacity:1;"
         offset="0"
         id="stop6985" />
    </linearGradient>
    <radialGradient
       inkscape:collect="always"
       xlink:href="#linearGradient4664"
       id="radialGradient4672"
       gradientUnits="userSpaceOnUse"
       gradientTransform="matrix(0.26492255,0.0573902,-0.05988907,0.27645775,-75.315287,205.34155)"
       cx="399.85486"
       cy="191.9543"
       fx="399.85486"
       fy="191.9543"
       r="49.761505" />
    <radialGradient
       inkscape:collect="always"
       xlink:href="#linearGradient4682"
       id="radialGradient4684"
       cx="451.88742"
       cy="300.02271"
       fx="451.88742"
       fy="300.02271"
       r="20.151112"
       gradientTransform="matrix(0.33225264,0.05290448,-0.05909846,0.37115235,-114.59581,146.81644)"
       gradientUnits="userSpaceOnUse" />
    <linearGradient
       inkscape:collect="always"
       xlink:href="#linearGradient4702"
       id="linearGradient4704"
       x1="422.65533"
       y1="-296.75677"
       x2="567.4826"
       y2="-251.70093"
       gradientUnits="userSpaceOnUse"
       gradientTransform="matrix(0.19502628,0,0,0.19502628,156.41816,174.72006)" />
    <radialGradient
       inkscape:collect="always"
       xlink:href="#linearGradient4719"
       id="radialGradient4723"
       cx="403.36057"
       cy="327.9978"
       fx="403.36057"
       fy="327.9978"
       r="33.476711"
       gradientTransform="matrix(0.17456274,0.03751649,-0.05021821,0.23366337,-45.66538,196.45528)"
       gradientUnits="userSpaceOnUse" />
    <radialGradient
       inkscape:collect="always"
       xlink:href="#linearGradient4711"
       id="radialGradient4725"
       cx="426.87335"
       cy="312.57993"
       fx="426.87335"
       fy="312.57993"
       r="50.458309"
       gradientTransform="matrix(0.15789467,0.02469294,-0.04313742,0.27583468,-41.056644,189.4082)"
       gradientUnits="userSpaceOnUse" />
  </defs>
  <sodipodi:namedview
     id="base"
     pagecolor="#ffffff"
     bordercolor="#666666"
     borderopacity="1.0"
     inkscape:pageopacity="0.0"
     inkscape:pageshadow="2"
     inkscape:zoom="0.90388528"
     inkscape:cx="154.55979"
     inkscape:cy="126.9021"
     inkscape:document-units="mm"
     inkscape:current-layer="layer1"
     showgrid="false"
     units="px"
     width="128px"
     inkscape:window-width="1600"
     inkscape:window-height="838"
     inkscape:window-x="-8"
     inkscape:window-y="-8"
     inkscape:window-maximized="1"
     inkscape:measure-start="-293.521,100.415"
     inkscape:measure-end="-294.709,409.978" />
  <metadata
     id="metadata4939">
    <rdf:RDF>
      <cc:Work
         rdf:about="">
        <dc:format>image/svg+xml</dc:format>
        <dc:type
           rdf:resource="http://purl.org/dc/dcmitype/StillImage" />
        <dc:title></dc:title>
      </cc:Work>
    </rdf:RDF>
  </metadata>
  <g
     inkscape:label="Layer 1"
     inkscape:groupmode="layer"
     id="layer1"
     transform="translate(0,-263.13332)">
    <g
       id="g918"
       transform="translate(-3.8229316,0.55270076)">
      <path
         inkscape:connector-curvature="0"
         id="path901"
         d="m 17.281115,263.9002 a 17.761513,8.8807561 59.30404 0 0 -2.661853,0.65732 17.761513,8.8807561 59.30404 0 0 -2.480985,3.73879 c -0.539389,1.34841 -1.537125,4.60231 -1.682585,9.49761 -0.0037,0.1241 -0.0033,0.24839 -0.0057,0.37259 l -2.5254272,1.70584 c 0,0 -3.8260054,2.66656 -0.7704957,8.6775 3.3596219,6.60924 8.1633259,4.9382 8.1633259,4.9382 l 3.086117,-1.5906 c 0.08207,0.0417 0.160722,0.0843 0.244429,0.12558 4.657448,2.29633 8.086744,3.18304 9.931175,3.52536 a 17.761513,8.8807561 59.30404 0 0 1.285711,0.19121 c 0.07858,0.008 0.107083,0.0111 0.147278,0.014 a 17.761513,8.8807561 59.30404 0 0 0.0894,0.007 c 0.0015,7e-5 0.02119,0.002 0.02119,0.002 l -0.0021,-0.003 A 17.761513,8.8807561 59.30404 0 0 32.75304,295.10346 17.761513,8.8807561 59.30404 0 0 31.322637,275.29692 17.761513,8.8807561 59.30404 0 0 17.281115,263.9002 Z"
         style="opacity:0.25;fill:#000000;fill-opacity:1;stroke:none;stroke-width:0.2;stroke-linecap:butt;stroke-linejoin:miter;stroke-miterlimit:4;stroke-dasharray:none;stroke-opacity:1" />
      <path
         sodipodi:nodetypes="ccsccc"
         inkscape:connector-curvature="0"
         id="path4639"
         d="m 11.178653,277.14538 -3.2539977,2.19788 c 0,0 -3.8261933,2.66637 -0.7706834,8.67732 3.3596221,6.60923 8.1635371,4.93809 8.1635371,4.93809 l 3.710698,-1.91244 z"
         style="fill:url(#radialGradient4723);fill-opacity:1;stroke:#808080;stroke-width:0.2;stroke-linecap:butt;stroke-linejoin:miter;stroke-miterlimit:4;stroke-dasharray:none;stroke-opacity:1" />
      <path
         sodipodi:nodetypes="csccc"
         inkscape:connector-curvature="0"
         id="path4619"
         d="m 11.281855,277.04218 c 0,0 -0.699325,0.21408 -1.156026,0.95622 -0.4567007,0.74214 -1.4961011,2.74367 -0.2116307,6.68272 1.2305847,3.39805 5.3483287,8.32229 9.2457547,6.71861 0.399613,-0.37107 -7.878098,-14.35755 -7.878098,-14.35755 z"
         style="fill:#1f1f1f;fill-opacity:1;stroke:none;stroke-width:0.0516007px;stroke-linecap:butt;stroke-linejoin:miter;stroke-opacity:1" />
      <path
         sodipodi:nodetypes="csscc"
         inkscape:connector-curvature="0"
         id="path4593"
         d="m 12.482495,267.06019 c -0.04841,-0.0968 -1.828578,3.5398 -2.026611,10.20442 -0.155725,5.24077 0.818545,10.59361 8.192081,14.2291 7.187217,3.54363 11.474622,3.73924 11.474622,3.73924 z"
         style="fill:url(#radialGradient4725);fill-opacity:1;stroke:#4d4d4d;stroke-width:0.2;stroke-linecap:butt;stroke-linejoin:miter;stroke-miterlimit:4;stroke-dasharray:none;stroke-opacity:1" />
      <ellipse
         transform="rotate(59.30404)"
         ry="8.8807564"
         rx="17.761513"
         cy="122.63509"
         cx="252.36763"
         id="ellipse4769"
         style="opacity:1;fill:#4d4d4d;fill-opacity:1;fill-rule:evenodd;stroke:none;stroke-width:0.06310395;stroke-miterlimit:4;stroke-dasharray:none;stroke-dashoffset:0;stroke-opacity:1" />
      <ellipse
         style="opacity:1;fill:url(#linearGradient4704);fill-opacity:1;fill-rule:evenodd;stroke:#808080;stroke-width:0.2;stroke-miterlimit:4;stroke-dasharray:none;stroke-dashoffset:0;stroke-opacity:1"
         id="ellipse4609"
         cx="252.25946"
         cy="122.21081"
         rx="17.761513"
         ry="8.8807564"
         transform="rotate(59.30404)" />
      <path
         style="opacity:1;fill:url(#radialGradient4684);fill-opacity:1;fill-rule:evenodd;stroke:#333333;stroke-width:0.06843843;stroke-miterlimit:4;stroke-dasharray:none;stroke-dashoffset:0;stroke-opacity:1"
         d="m 20.827592,287.4153 a 6.0102109,3.4786258 59.347936 0 0 0.08113,-0.003 6.0102109,3.4786258 59.347936 0 0 0.355662,-0.0673 6.0102109,3.4786258 59.347936 0 0 0.236537,-0.0802 6.0102109,3.4786258 59.347936 0 0 0.310006,-0.15853 6.0102109,3.4786258 59.347936 0 0 0.278964,-0.20993 6.0102109,3.4786258 59.347936 0 0 0.245103,-0.25921 6.0102109,3.4786258 59.347936 0 0 0.208928,-0.30598 6.0102109,3.4786258 59.347936 0 0 0.170523,-0.34961 6.0102109,3.4786258 59.347936 0 0 0.130513,-0.38983 6.0102109,3.4786258 59.347936 0 0 0.08909,-0.42601 6.0102109,3.4786258 59.347936 0 0 0.04686,-0.45815 6.0102109,3.4786258 59.347936 0 0 0.0041,-0.48547 6.0102109,3.4786258 59.347936 0 0 -0.0386,-0.50815 6.0102109,3.4786258 59.347936 0 0 -0.08103,-0.52568 6.0102109,3.4786258 59.347936 0 0 -0.122553,-0.53788 6.0102109,3.4786258 59.347936 0 0 -0.162966,-0.54483 6.0102109,3.4786258 59.347936 0 0 -0.201561,-0.54624 6.0102109,3.4786258 59.347936 0 0 -0.238356,-0.54221 6.0102109,3.4786258 59.347936 0 0 -0.189569,-0.37844 6.0102109,3.4786258 59.347936 0 0 -0.295291,-0.52296 6.0102109,3.4786258 59.347936 0 0 -0.324826,-0.50442 6.0102109,3.4786258 59.347936 0 0 -0.350923,-0.48093 6.0102109,3.4786258 59.347936 0 0 -0.373701,-0.45272 6.0102109,3.4786258 59.347936 0 0 -0.39275,-0.41986 6.0102109,3.4786258 59.347936 0 0 -0.407767,-0.38297 6.0102109,3.4786258 59.347936 0 0 -0.418753,-0.34206 6.0102109,3.4786258 59.347936 0 0 -0.425504,-0.29771 6.0102109,3.4786258 59.347936 0 0 -0.428124,-0.25065 6.0102109,3.4786258 59.347936 0 0 -0.426411,-0.20086 6.0102109,3.4786258 59.347936 0 0 -0.420365,-0.14916 6.0102109,3.4786258 59.347936 0 0 -0.410186,-0.0958 6.0102109,3.4786258 59.347936 0 0 -0.395973,-0.0418 6.0102109,3.4786258 59.347936 0 0 -0.377633,0.0129 6.0102109,3.4786258 59.347936 0 0 -0.355662,0.0673 6.0102109,3.4786258 59.347936 0 0 -0.236637,0.0803 6.0102109,3.4786258 59.347936 0 0 -0.309905,0.15843 6.0102109,3.4786258 59.347936 0 0 -0.278967,0.20993 6.0102109,3.4786258 59.347936 0 0 -0.192495,0.20359 15.344543,6.9853021 60.433513 0 0 2.274359,5.15462 15.344543,6.9853021 60.433513 0 0 3.424695,5.03127 z"
         id="path4611"
         inkscape:connector-curvature="0" />
      <path
         style="opacity:1;fill:url(#radialGradient4672);fill-opacity:1;fill-rule:evenodd;stroke:none;stroke-width:0.06843843;stroke-miterlimit:4;stroke-dasharray:none;stroke-dashoffset:0;stroke-opacity:1"
         d="m 17.667351,265.5238 a 15.344543,6.9853021 60.433513 0 0 -1.393722,0.3473 15.344543,6.9853021 60.433513 0 0 -1.145091,11.35831 6.0102109,3.4786258 59.347936 0 1 0.192495,-0.20359 6.0102109,3.4786258 59.347936 0 1 0.278967,-0.20993 6.0102109,3.4786258 59.347936 0 1 0.309905,-0.15843 6.0102109,3.4786258 59.347936 0 1 0.236637,-0.0803 6.0102109,3.4786258 59.347936 0 1 0.355662,-0.0673 6.0102109,3.4786258 59.347936 0 1 0.377633,-0.0129 6.0102109,3.4786258 59.347936 0 1 0.395973,0.0418 6.0102109,3.4786258 59.347936 0 1 0.410186,0.0958 6.0102109,3.4786258 59.347936 0 1 0.420365,0.14916 6.0102109,3.4786258 59.347936 0 1 0.426411,0.20086 6.0102109,3.4786258 59.347936 0 1 0.428124,0.25065 6.0102109,3.4786258 59.347936 0 1 0.425504,0.29771 6.0102109,3.4786258 59.347936 0 1 0.418753,0.34206 6.0102109,3.4786258 59.347936 0 1 0.407767,0.38297 6.0102109,3.4786258 59.347936 0 1 0.39275,0.41986 6.0102109,3.4786258 59.347936 0 1 0.373701,0.45272 6.0102109,3.4786258 59.347936 0 1 0.350923,0.48093 6.0102109,3.4786258 59.347936 0 1 0.324826,0.50442 6.0102109,3.4786258 59.347936 0 1 0.295291,0.52296 6.0102109,3.4786258 59.347936 0 1 0.189569,0.37844 6.0102109,3.4786258 59.347936 0 1 0.238356,0.54221 6.0102109,3.4786258 59.347936 0 1 0.201561,0.54624 6.0102109,3.4786258 59.347936 0 1 0.162966,0.54483 6.0102109,3.4786258 59.347936 0 1 0.122553,0.53788 6.0102109,3.4786258 59.347936 0 1 0.08103,0.52568 6.0102109,3.4786258 59.347936 0 1 0.0386,0.50815 6.0102109,3.4786258 59.347936 0 1 -0.0041,0.48547 6.0102109,3.4786258 59.347936 0 1 -0.04686,0.45815 6.0102109,3.4786258 59.347936 0 1 -0.08909,0.42601 6.0102109,3.4786258 59.347936 0 1 -0.130513,0.38983 6.0102109,3.4786258 59.347936 0 1 -0.170523,0.34961 6.0102109,3.4786258 59.347936 0 1 -0.208928,0.30598 6.0102109,3.4786258 59.347936 0 1 -0.245103,0.25921 6.0102109,3.4786258 59.347936 0 1 -0.278964,0.20993 6.0102109,3.4786258 59.347936 0 1 -0.310006,0.15853 6.0102109,3.4786258 59.347936 0 1 -0.236537,0.0802 6.0102109,3.4786258 59.347936 0 1 -0.355662,0.0673 6.0102109,3.4786258 59.347936 0 1 -0.08113,0.003 15.344543,6.9853021 60.433513 0 0 10.251205,5.32717 15.344543,6.9853021 60.433513 0 0 -1.098431,-16.48955 l -0.03346,-0.0607 A 15.344543,6.9853021 60.433513 0 0 17.667351,265.5238 Z"
         id="path4613"
         inkscape:connector-curvature="0" />
    </g>
  </g>
</svg>
