<?xml version="1.0" encoding="UTF-8" standalone="no"?>
<!-- Created with Inkscape (http://www.inkscape.org/) -->

<svg
   xmlns:osb="http://www.openswatchbook.org/uri/2009/osb"
   xmlns:dc="http://purl.org/dc/elements/1.1/"
   xmlns:cc="http://creativecommons.org/ns#"
   xmlns:rdf="http://www.w3.org/1999/02/22-rdf-syntax-ns#"
   xmlns:svg="http://www.w3.org/2000/svg"
   xmlns="http://www.w3.org/2000/svg"
   xmlns:xlink="http://www.w3.org/1999/xlink"
   xmlns:sodipodi="http://sodipodi.sourceforge.net/DTD/sodipodi-0.dtd"
   xmlns:inkscape="http://www.inkscape.org/namespaces/inkscape"
   width="512"
   height="512"
   viewBox="0 0 135.46666 135.46666"
   version="1.1"
   id="svg4942"
   inkscape:version="0.92.2 5c3e80d, 2017-08-06"
   sodipodi:docname="multimedia-player.svg">
  <defs
     id="defs4936">
    <linearGradient
       inkscape:collect="always"
       id="linearGradient966">
      <stop
         style="stop-color:#e2e3e5;stop-opacity:1"
         offset="0"
         id="stop962" />
      <stop
         style="stop-color:#c7c9cc;stop-opacity:1"
         offset="1"
         id="stop964" />
    </linearGradient>
    <linearGradient
       id="linearGradient882"
       inkscape:collect="always">
      <stop
         id="stop878"
         offset="0"
         style="stop-color:#808080;stop-opacity:1" />
      <stop
         id="stop880"
         offset="1"
         style="stop-color:#4d4d4d;stop-opacity:1" />
    </linearGradient>
    <linearGradient
       inkscape:collect="always"
       id="linearGradient927">
      <stop
         style="stop-color:#4d4d4d;stop-opacity:1"
         offset="0"
         id="stop923" />
      <stop
         style="stop-color:#1a1a1a;stop-opacity:1"
         offset="1"
         id="stop925" />
    </linearGradient>
    <inkscape:path-effect
       effect="skeletal"
       id="path-effect4536"
       is_visible="true"
       pattern="m -151.34894,32.250175 c 0,-2.76 2.24,-5 5,-5 2.76,0 5,2.24 5,5 0,2.76 -2.24,5 -5,5 -2.76,0 -5,-2.24 -5,-5 z"
       copytype="single_stretched"
       prop_scale="0.26458332"
       scale_y_rel="false"
       spacing="0"
       normal_offset="0"
       tang_offset="0"
       prop_units="false"
       vertical_pattern="false"
       fuse_tolerance="0" />
    <inkscape:path-effect
       effect="spiro"
       id="path-effect4534"
       is_visible="true" />
    <inkscape:path-effect
       effect="skeletal"
       id="path-effect4530"
       is_visible="true"
       pattern="m -140.30158,26.358245 c 0,-2.76 2.24,-5 5,-5 2.76,0 5,2.24 5,5 0,2.76 -2.24,5 -5,5 -2.76,0 -5,-2.24 -5,-5 z"
       copytype="single_stretched"
       prop_scale="0.26458332"
       scale_y_rel="false"
       spacing="0"
       normal_offset="0"
       tang_offset="0"
       prop_units="false"
       vertical_pattern="false"
       fuse_tolerance="0" />
    <inkscape:path-effect
       effect="spiro"
       id="path-effect4528"
       is_visible="true" />
    <linearGradient
       id="linearGradient6987"
       osb:paint="solid">
      <stop
         style="stop-color:#77d2fb;stop-opacity:1;"
         offset="0"
         id="stop6985" />
    </linearGradient>
    <linearGradient
       inkscape:collect="always"
       xlink:href="#linearGradient927"
       id="linearGradient929"
       x1="-23.584837"
       y1="124.83982"
       x2="55.269161"
       y2="226.61882"
       gradientUnits="userSpaceOnUse"
       gradientTransform="translate(20.872486,-5.0645257)" />
    <linearGradient
       inkscape:collect="always"
       xlink:href="#linearGradient966"
       id="linearGradient968"
       x1="-329.21906"
       y1="137.63516"
       x2="-328.73996"
       y2="304.3671"
       gradientUnits="userSpaceOnUse"
       gradientTransform="matrix(0.77322626,0,0,0.77322626,315.99624,57.85755)" />
    <linearGradient
       inkscape:collect="always"
       xlink:href="#linearGradient882"
       id="linearGradient1250"
       x1="-329.63672"
       y1="137.99007"
       x2="-372.40469"
       y2="201.93062"
       gradientUnits="userSpaceOnUse"
       gradientTransform="matrix(0.77322626,0,0,0.77322626,322.55884,63.585763)" />
    <filter
       inkscape:collect="always"
       style="color-interpolation-filters:sRGB"
       id="filter1306"
       x="-0.032076926"
       width="1.0641539"
       y="-0.019172413"
       height="1.0383448">
      <feGaussianBlur
         inkscape:collect="always"
         stdDeviation="1.3319389"
         id="feGaussianBlur1308" />
    </filter>
  </defs>
  <sodipodi:namedview
     id="base"
     pagecolor="#ffffff"
     bordercolor="#666666"
     borderopacity="1.0"
     inkscape:pageopacity="0.0"
     inkscape:pageshadow="2"
     inkscape:zoom="0.56386857"
     inkscape:cx="-202.4963"
     inkscape:cy="42.794708"
     inkscape:document-units="mm"
     inkscape:current-layer="layer1"
     showgrid="false"
     units="px"
     width="128px"
     inkscape:window-width="1600"
     inkscape:window-height="805"
     inkscape:window-x="-12"
     inkscape:window-y="0"
     inkscape:window-maximized="0"
     inkscape:measure-start="-1358.47,-26.6019"
     inkscape:measure-end="-1363.38,56.2869" />
  <metadata
     id="metadata4939">
    <rdf:RDF>
      <cc:Work
         rdf:about="">
        <dc:format>image/svg+xml</dc:format>
        <dc:type
           rdf:resource="http://purl.org/dc/dcmitype/StillImage" />
        <dc:title />
      </cc:Work>
    </rdf:RDF>
  </metadata>
  <g
     inkscape:label="Layer 1"
     inkscape:groupmode="layer"
     id="layer1"
     transform="translate(0,-161.53332)">
    <g
       id="g916">
      <rect
         transform="matrix(0.77322626,0,0,0.77322626,343.23956,56.367764)"
         style="opacity:1;fill:#808080;fill-opacity:1;stroke:none;stroke-width:1.80226457;stroke-linecap:round;stroke-linejoin:round;stroke-miterlimit:4;stroke-dasharray:none;stroke-opacity:1;filter:url(#filter1306)"
         id="rect1294"
         width="99.655853"
         height="166.73193"
         x="-406.13531"
         y="140.24115"
         ry="12.232198" />
      <rect
         ry="9.4582567"
         y="163.16927"
         x="29.205069"
         height="128.92151"
         width="77.056526"
         id="rect960"
         style="opacity:1;fill:url(#linearGradient968);fill-opacity:1;stroke:#808080;stroke-width:0.2;stroke-linecap:round;stroke-linejoin:round;stroke-miterlimit:4;stroke-dasharray:none;stroke-opacity:1" />
      <rect
         ry="3.4685912"
         y="169.09216"
         x="34.605759"
         height="50.63166"
         width="66.255135"
         id="rect1208"
         style="opacity:1;fill:url(#linearGradient1250);fill-opacity:1;stroke:#4d4d4d;stroke-width:0.77322626;stroke-linecap:round;stroke-linejoin:round;stroke-miterlimit:4;stroke-dasharray:none;stroke-opacity:1" />
      <path
         style="opacity:1;fill:#ffffff;fill-opacity:1;stroke:#808080;stroke-width:0.15464525;stroke-linecap:round;stroke-linejoin:round;stroke-miterlimit:4;stroke-dasharray:none;stroke-opacity:1"
         d="m 67.733523,231.77888 a 23.970013,23.970013 0 0 0 -23.970145,23.96975 23.970013,23.970013 0 0 0 23.970145,23.97015 23.970013,23.970013 0 0 0 23.969751,-23.97015 23.970013,23.970013 0 0 0 -23.969751,-23.96975 z m 0,15.03963 a 8.892102,8.9302576 0 0 1 8.891762,8.93012 8.892102,8.9302576 0 0 1 -8.891762,8.93052 8.892102,8.9302576 0 0 1 -8.892156,-8.93052 8.892102,8.9302576 0 0 1 8.892156,-8.93012 z"
         id="path1267"
         inkscape:connector-curvature="0" />
      <g
         id="text978"
         style="font-style:normal;font-weight:normal;font-size:4.43265867px;line-height:1.25;font-family:sans-serif;letter-spacing:0px;word-spacing:0px;fill:#808080;fill-opacity:1;stroke:none;stroke-width:0.11081646"
         aria-label="MENU">
        <path
           id="path886"
           style="fill:#808080;stroke-width:0.11081646"
           d="m 61.54751,236.37523 h 0.65148 l 0.82463,2.19902 0.828959,-2.19902 h 0.65148 v 3.23143 h -0.426384 v -2.83751 l -0.833288,2.21633 h -0.43937 l -0.833288,-2.21633 v 2.83751 H 61.54751 Z" />
        <path
           id="path888"
           style="fill:#808080;stroke-width:0.11081646"
           d="m 65.374141,236.37523 h 2.043179 v 0.36795 h -1.605973 v 0.95666 h 1.538877 v 0.36794 h -1.538877 v 1.17093 h 1.644932 v 0.36795 h -2.082138 z" />
        <path
           id="path890"
           style="fill:#808080;stroke-width:0.11081646"
           d="m 68.179183,236.37523 h 0.588712 l 1.432823,2.70332 v -2.70332 h 0.424219 v 3.23143 h -0.588713 l -1.432822,-2.70332 v 2.70332 h -0.424219 z" />
        <path
           id="path892"
           style="fill:#808080;stroke-width:0.11081646"
           d="m 71.445239,236.37523 h 0.43937 v 1.9631 q 0,0.51945 0.188301,0.74888 0.188302,0.22726 0.610357,0.22726 0.41989,0 0.608192,-0.22726 0.188301,-0.22943 0.188301,-0.74888 v -1.9631 h 0.43937 v 2.01721 q 0,0.632 -0.313836,0.95449 -0.311671,0.3225 -0.922027,0.3225 -0.612521,0 -0.926357,-0.3225 -0.311671,-0.32249 -0.311671,-0.95449 z" />
      </g>
      <g
         transform="matrix(0.16703729,0,0,0.16703729,90.677358,233.49845)"
         id="g1185"
         style="fill:#808080">
        <path
           inkscape:connector-curvature="0"
           d="m -236.20947,104.52858 -26.43041,18.87947 26.43041,18.87895 v -18.87895 z m 0,18.87947 0.002,0.002 c 1.8e-4,-5e-5 2.7e-4,4e-5 5.3e-4,0 0,-4e-4 0,-6.1e-4 0,-0.001 3e-5,-3.7e-4 -9e-5,-7.2e-4 0,-10e-4 -2.6e-4,1e-5 -7.9e-4,-2e-5 -0.001,0 v -5.3e-4 z m 0.36329,-0.18035 c 1.9e-4,0.002 -2.2e-4,0.003 0,0.005 2.6e-4,0.002 0.001,0.004 0.002,0.006 -5.3e-4,-0.003 -8e-4,-0.007 -0.002,-0.0103 z m -0.34365,0.1943 0.001,0.001 c 0,-3.4e-4 -2e-5,-6.9e-4 0,-0.001 -2.6e-4,-1.3e-4 -7.9e-4,1.8e-4 -0.001,0 z"
           style="color:#bebebe;display:inline;overflow:visible;visibility:visible;fill:#808080;fill-opacity:1;fill-rule:nonzero;stroke:none;stroke-width:3.77581596;marker:none;enable-background:accumulate"
           id="path1179" />
        <path
           id="path1181"
           style="color:#bebebe;display:inline;overflow:visible;visibility:visible;fill:#808080;fill-opacity:1;fill-rule:nonzero;stroke:none;stroke-width:3.77581596;marker:none;enable-background:accumulate"
           d="m -209.2687,104.52858 -26.43041,18.87947 26.43041,18.87895 v -18.87895 z m 0,18.87947 0.002,0.002 c 1.8e-4,-5e-5 2.7e-4,4e-5 5.3e-4,0 0,-4e-4 0,-6.1e-4 0,-0.001 3e-5,-3.7e-4 -9e-5,-7.2e-4 0,-10e-4 -2.6e-4,1e-5 -7.9e-4,-2e-5 -0.001,0 v -5.3e-4 z m 0.36329,-0.18035 c 1.9e-4,0.002 -2.2e-4,0.003 0,0.005 2.6e-4,0.002 10e-4,0.004 0.002,0.006 -5.3e-4,-0.003 -8e-4,-0.007 -0.002,-0.0103 z m -0.34365,0.1943 10e-4,0.001 c 0,-3.4e-4 -2e-5,-6.9e-4 0,-0.001 -2.6e-4,-1.3e-4 -7.9e-4,1.8e-4 -10e-4,0 z"
           inkscape:connector-curvature="0" />
        <rect
           ry="0.7674008"
           y="104.52879"
           x="-269.08124"
           height="37.757999"
           width="5.8208332"
           id="rect1183"
           style="opacity:1;fill:#808080;fill-opacity:1;stroke:none;stroke-width:1.83463371;stroke-linecap:round;stroke-linejoin:round;stroke-miterlimit:4;stroke-dasharray:none;stroke-opacity:1" />
      </g>
      <g
         style="fill:#808080"
         transform="matrix(0.16878439,0,0,0.16878439,107.17193,239.79023)"
         id="g1195">
        <path
           inkscape:connector-curvature="0"
           d="m -253.91251,167.89093 26.43041,18.87946 -26.43041,18.87895 v -18.87895 z m 0,18.87946 -0.002,0.002 c -1.8e-4,-5e-5 -2.7e-4,4e-5 -5.3e-4,0 0,-4e-4 0,-6e-4 0,-0.001 -3e-5,-3.7e-4 9e-5,-7.2e-4 0,-0.001 2.6e-4,1e-5 7.9e-4,-2e-5 0.001,0 v -5.3e-4 z m -0.36329,-0.18035 c -1.9e-4,0.002 2.2e-4,0.003 0,0.005 -2.6e-4,0.002 -0.001,0.004 -0.002,0.006 5.3e-4,-0.003 8e-4,-0.007 0.002,-0.0103 z m 0.34365,0.1943 -0.001,0.001 c 0,-3.4e-4 2e-5,-6.9e-4 0,-0.001 2.6e-4,-1.3e-4 7.9e-4,1.8e-4 0.001,0 z"
           style="color:#bebebe;display:inline;overflow:visible;visibility:visible;fill:#808080;fill-opacity:1;fill-rule:nonzero;stroke:none;stroke-width:3.77581596;marker:none;enable-background:accumulate"
           id="path1162" />
        <rect
           style="opacity:1;fill:#808080;fill-opacity:1;stroke:none;stroke-width:1.83463371;stroke-linecap:round;stroke-linejoin:round;stroke-miterlimit:4;stroke-dasharray:none;stroke-opacity:1"
           id="rect1164"
           width="5.8208332"
           height="37.757999"
           x="-226.80577"
           y="167.89113"
           ry="0.7674008" />
        <rect
           ry="0.7674008"
           y="167.89113"
           x="-218.8683"
           height="37.757999"
           width="5.8208332"
           id="rect1190"
           style="opacity:1;fill:#808080;fill-opacity:1;stroke:none;stroke-width:1.83463371;stroke-linecap:round;stroke-linejoin:round;stroke-miterlimit:4;stroke-dasharray:none;stroke-opacity:1" />
      </g>
      <g
         style="fill:#808080"
         id="g1216"
         transform="matrix(-0.16703729,0,0,0.16703729,43.852709,233.49845)">
        <path
           id="path1210"
           style="color:#bebebe;display:inline;overflow:visible;visibility:visible;fill:#808080;fill-opacity:1;fill-rule:nonzero;stroke:none;stroke-width:3.77581596;marker:none;enable-background:accumulate"
           d="m -236.20947,104.52858 -26.43041,18.87947 26.43041,18.87895 v -18.87895 z m 0,18.87947 0.002,0.002 c 1.8e-4,-5e-5 2.7e-4,4e-5 5.3e-4,0 0,-4e-4 0,-6.1e-4 0,-0.001 3e-5,-3.7e-4 -9e-5,-7.2e-4 0,-10e-4 -2.6e-4,1e-5 -7.9e-4,-2e-5 -0.001,0 v -5.3e-4 z m 0.36329,-0.18035 c 1.9e-4,0.002 -2.2e-4,0.003 0,0.005 2.6e-4,0.002 0.001,0.004 0.002,0.006 -5.3e-4,-0.003 -8e-4,-0.007 -0.002,-0.0103 z m -0.34365,0.1943 0.001,0.001 c 0,-3.4e-4 -2e-5,-6.9e-4 0,-0.001 -2.6e-4,-1.3e-4 -7.9e-4,1.8e-4 -0.001,0 z"
           inkscape:connector-curvature="0" />
        <path
           inkscape:connector-curvature="0"
           d="m -209.2687,104.52858 -26.43041,18.87947 26.43041,18.87895 v -18.87895 z m 0,18.87947 0.002,0.002 c 1.8e-4,-5e-5 2.7e-4,4e-5 5.3e-4,0 0,-4e-4 0,-6.1e-4 0,-0.001 3e-5,-3.7e-4 -9e-5,-7.2e-4 0,-10e-4 -2.6e-4,1e-5 -7.9e-4,-2e-5 -0.001,0 v -5.3e-4 z m 0.36329,-0.18035 c 1.9e-4,0.002 -2.2e-4,0.003 0,0.005 2.6e-4,0.002 10e-4,0.004 0.002,0.006 -5.3e-4,-0.003 -8e-4,-0.007 -0.002,-0.0103 z m -0.34365,0.1943 10e-4,0.001 c 0,-3.4e-4 -2e-5,-6.9e-4 0,-0.001 -2.6e-4,-1.3e-4 -7.9e-4,1.8e-4 -10e-4,0 z"
           style="color:#bebebe;display:inline;overflow:visible;visibility:visible;fill:#808080;fill-opacity:1;fill-rule:nonzero;stroke:none;stroke-width:3.77581596;marker:none;enable-background:accumulate"
           id="path1212" />
        <rect
           style="opacity:1;fill:#808080;fill-opacity:1;stroke:none;stroke-width:1.83463371;stroke-linecap:round;stroke-linejoin:round;stroke-miterlimit:4;stroke-dasharray:none;stroke-opacity:1"
           id="rect1214"
           width="5.8208332"
           height="37.757999"
           x="-269.08124"
           y="104.52879"
           ry="0.7674008" />
      </g>
    </g>
  </g>
</svg>
