<?xml version="1.0" encoding="UTF-8" standalone="no"?>
<!-- Created with Inkscape (http://www.inkscape.org/) -->

<svg
   xmlns:osb="http://www.openswatchbook.org/uri/2009/osb"
   xmlns:dc="http://purl.org/dc/elements/1.1/"
   xmlns:cc="http://creativecommons.org/ns#"
   xmlns:rdf="http://www.w3.org/1999/02/22-rdf-syntax-ns#"
   xmlns:svg="http://www.w3.org/2000/svg"
   xmlns="http://www.w3.org/2000/svg"
   xmlns:xlink="http://www.w3.org/1999/xlink"
   xmlns:sodipodi="http://sodipodi.sourceforge.net/DTD/sodipodi-0.dtd"
   xmlns:inkscape="http://www.inkscape.org/namespaces/inkscape"
   width="128"
   height="128"
   viewBox="0 0 33.866665 33.866665"
   version="1.1"
   id="svg4942"
   inkscape:version="0.92.3 (2405546, 2018-03-11)"
   sodipodi:docname="cs-mouse.svg">
  <defs
     id="defs4936">
    <linearGradient
       inkscape:collect="always"
       id="linearGradient920">
      <stop
         style="stop-color:#cccccc;stop-opacity:1"
         offset="0"
         id="stop916" />
      <stop
         style="stop-color:#b2b2b2;stop-opacity:1"
         offset="1"
         id="stop918" />
    </linearGradient>
    <linearGradient
       id="linearGradient1205"
       inkscape:collect="always">
      <stop
         id="stop1201"
         offset="0"
         style="stop-color:#fcfdff;stop-opacity:1" />
      <stop
         id="stop1203"
         offset="1"
         style="stop-color:#e0e2e5;stop-opacity:1" />
    </linearGradient>
    <linearGradient
       id="linearGradient6987"
       osb:paint="solid">
      <stop
         style="stop-color:#77d2fb;stop-opacity:1;"
         offset="0"
         id="stop6985" />
    </linearGradient>
    <linearGradient
       inkscape:collect="always"
       xlink:href="#linearGradient1205"
       id="linearGradient1142"
       x1="-160.90987"
       y1="127.4615"
       x2="-156.93941"
       y2="285.87964"
       gradientUnits="userSpaceOnUse"
       gradientTransform="matrix(0.10012423,0.08995998,-0.08995998,0.10012423,54.814971,277.16117)" />
    <linearGradient
       inkscape:collect="always"
       xlink:href="#linearGradient920"
       id="linearGradient922"
       x1="-64.607101"
       y1="136.38898"
       x2="-64.453239"
       y2="207.24252"
       gradientUnits="userSpaceOnUse"
       gradientTransform="matrix(0.32381348,0,0,0.32381348,33.650902,219.74275)" />
  </defs>
  <sodipodi:namedview
     id="base"
     pagecolor="#ffffff"
     bordercolor="#666666"
     borderopacity="1.0"
     inkscape:pageopacity="0.0"
     inkscape:pageshadow="2"
     inkscape:zoom="2.516476"
     inkscape:cx="67.875149"
     inkscape:cy="58.75627"
     inkscape:document-units="mm"
     inkscape:current-layer="layer1"
     showgrid="false"
     units="px"
     width="128px"
     inkscape:window-width="1600"
     inkscape:window-height="838"
     inkscape:window-x="-8"
     inkscape:window-y="-8"
     inkscape:window-maximized="1"
     inkscape:measure-start="-1358.47,-26.6019"
     inkscape:measure-end="-1363.38,56.2869"
     showguides="false" />
  <metadata
     id="metadata4939">
    <rdf:RDF>
      <cc:Work
         rdf:about="">
        <dc:format>image/svg+xml</dc:format>
        <dc:type
           rdf:resource="http://purl.org/dc/dcmitype/StillImage" />
        <dc:title></dc:title>
      </cc:Work>
    </rdf:RDF>
  </metadata>
  <g
     inkscape:label="Layer 1"
     inkscape:groupmode="layer"
     id="layer1"
     transform="translate(0,-263.13332)">
    <g
       id="g874"
       transform="matrix(1.0786826,0,0,1.0786826,-0.47730334,-20.724836)">
      <path
         style="color:#000000;display:inline;overflow:visible;visibility:visible;opacity:0.25;fill:#000000;fill-opacity:1;fill-rule:nonzero;stroke:none;stroke-width:0.2;stroke-linecap:butt;stroke-linejoin:round;stroke-miterlimit:4;stroke-dasharray:none;stroke-dashoffset:0;stroke-opacity:1;marker:none;enable-background:accumulate"
         id="path867"
         inkscape:connector-curvature="0"
         d="m 27.475581,275.71196 c -1.035902,-0.91016 -2.22263,-1.80747 -3.607019,-1.77817 -2.120377,0.0449 -2.645613,0.92177 -4.085497,2.29696 -2.939325,2.80724 -6.562046,7.01898 -8.616005,10.5379 -0.602481,1.03219 -0.331744,2.38272 0.388715,3.33311 0.552953,0.72942 1.156808,1.44818 1.82803,2.09379 0.713515,0.59855 1.492564,1.12231 2.276797,1.59433 1.021796,0.615 2.393492,0.74017 3.355555,0.031 3.279824,-2.4175 7.081219,-6.46871 9.559004,-9.69063 1.213792,-1.57833 2.029684,-2.19408 1.848181,-4.30715 -0.118501,-1.37962 -1.137247,-2.46389 -2.152685,-3.39682 -0.132715,-0.12194 -0.266955,-0.24004 -0.397539,-0.35719 -0.130403,-0.11734 -0.262146,-0.23823 -0.397537,-0.35718 z" />
      <rect
         style="opacity:0.25;fill:#000000;fill-opacity:1;fill-rule:nonzero;stroke:none;stroke-width:0.3238135;stroke-linecap:round;stroke-linejoin:round;stroke-miterlimit:4;stroke-dasharray:none;stroke-opacity:1"
         id="rect865"
         width="23.638386"
         height="23.638386"
         x="1.8949087"
         y="264.08899"
         ry="2.7686663" />
      <rect
         ry="2.7686663"
         y="263.55981"
         x="1.8949087"
         height="23.638386"
         width="23.638386"
         id="rect914"
         style="opacity:1;fill:url(#linearGradient922);fill-opacity:1;fill-rule:nonzero;stroke:#808080;stroke-width:0.3238135;stroke-linecap:round;stroke-linejoin:round;stroke-miterlimit:4;stroke-dasharray:none;stroke-opacity:1" />
      <path
         d="m 27.475581,275.18279 c -1.035902,-0.91016 -2.22263,-1.80747 -3.607019,-1.77817 -2.120377,0.0449 -2.645613,0.92177 -4.085497,2.29696 -2.939325,2.80724 -6.562046,7.01898 -8.616005,10.5379 -0.602481,1.03219 -0.331744,2.38272 0.388715,3.33311 0.552953,0.72942 1.156808,1.44818 1.82803,2.09379 0.713515,0.59855 1.492564,1.12231 2.276797,1.59433 1.021796,0.615 2.393492,0.74017 3.355555,0.031 3.279824,-2.4175 7.081219,-6.46871 9.559004,-9.69063 1.213792,-1.57833 2.029684,-2.19408 1.848181,-4.30715 -0.118501,-1.37962 -1.137247,-2.46389 -2.152685,-3.39682 -0.132715,-0.12194 -0.266955,-0.24004 -0.397539,-0.35719 -0.130403,-0.11734 -0.262146,-0.23823 -0.397537,-0.35718 z"
         inkscape:connector-curvature="0"
         id="path4487"
         style="color:#000000;display:inline;overflow:visible;visibility:visible;fill:url(#linearGradient1142);fill-opacity:1;fill-rule:nonzero;stroke:#808080;stroke-width:0.2;stroke-linecap:butt;stroke-linejoin:round;stroke-miterlimit:4;stroke-dasharray:none;stroke-dashoffset:0;stroke-opacity:1;marker:none;enable-background:accumulate" />
      <path
         style="fill:#999999;stroke-width:0.00552995"
         d="m 15.443059,288.69549 c -0.0073,-0.0101 -0.01044,-0.0159 -0.0065,-0.0134 0.0036,0.003 0.0015,-0.004 -0.0057,-0.0136 -0.02706,-0.0388 -0.05043,-0.11785 -0.05802,-0.19597 -0.0074,-0.0765 0.0071,-0.26443 0.02974,-0.3858 0.039,-0.2086 0.129288,-0.43651 0.245536,-0.61979 0.07789,-0.1228 0.192016,-0.25204 0.290751,-0.32926 0.298889,-0.23369 0.680677,-0.24172 0.928862,-0.0195 0.05096,0.0456 0.08082,0.0858 0.129449,0.17463 0.11088,0.20229 0.110752,0.20207 0.138211,0.22664 0.02132,0.019 0.04174,0.0302 0.09986,0.0543 0.264911,0.11005 0.282327,0.11933 0.364605,0.19408 0.111671,0.1008 0.18786,0.23125 0.214959,0.36548 0.01039,0.0515 0.01508,0.12999 0.01027,0.1723 l -0.0023,0.0203 -0.05994,-0.005 c -0.2271,-0.0206 -0.414576,0.0623 -0.556516,0.24606 -0.04656,0.0603 -0.07445,0.11062 -0.09871,0.17814 -0.04451,0.1239 -0.04264,0.29974 0.0045,0.42435 0.0081,0.0216 0.01289,0.0415 0.01055,0.0441 -0.01191,0.0134 -0.121746,0.0666 -0.205947,0.0999 -0.129761,0.0513 -0.274517,0.0882 -0.417736,0.10669 -0.103168,0.0133 -0.207415,-0.003 -0.275034,-0.0425 -0.01708,-0.0102 -0.02944,-0.0148 -0.02725,-0.0105 0.0022,0.004 -0.0099,-0.005 -0.02727,-0.0194 -0.01818,-0.0162 -0.02743,-0.027 -0.02257,-0.026 0.0057,7.7e-4 0.0011,-0.007 -0.01208,-0.0221 -0.02262,-0.0255 -0.05525,-0.0807 -0.09928,-0.16693 -0.04389,-0.0861 -0.08718,-0.14152 -0.152074,-0.19481 -0.05713,-0.0469 -0.09836,-0.0707 -0.176328,-0.10161 -0.09779,-0.0388 -0.152405,-0.0626 -0.170649,-0.0744 -0.01086,-0.006 -0.01936,-0.01 -0.01994,-0.007 -6.4e-4,0.003 -0.0055,0.002 -0.01095,-0.003 -0.0055,-0.005 -0.01887,-0.0153 -0.02976,-0.0232 -0.01074,-0.008 -0.02569,-0.0226 -0.03276,-0.033 z m 1.805043,-1.31259 c -5.89e-4,-0.01 0.06909,-0.0824 0.103319,-0.10764 0.124409,-0.0917 0.304874,-0.13232 0.464584,-0.10459 0.0674,0.0117 0.147483,0.0382 0.19645,0.0649 0.02023,0.0111 0.03665,0.0177 0.03653,0.0146 2.3e-4,-0.003 0.0054,-2.6e-4 0.01236,0.006 0.007,0.006 0.01613,0.0126 0.02024,0.0143 0.01671,0.006 -0.101599,0.11328 -0.169227,0.15293 -0.162149,0.095 -0.38133,0.11661 -0.52922,0.0522 -0.05363,-0.0233 -0.134336,-0.0787 -0.135053,-0.0928 z"
         id="path1568"
         inkscape:connector-curvature="0" />
    </g>
  </g>
</svg>
