<?xml version="1.0" encoding="UTF-8" standalone="no"?>
<!-- Created with Inkscape (http://www.inkscape.org/) -->

<svg
   xmlns:osb="http://www.openswatchbook.org/uri/2009/osb"
   xmlns:dc="http://purl.org/dc/elements/1.1/"
   xmlns:cc="http://creativecommons.org/ns#"
   xmlns:rdf="http://www.w3.org/1999/02/22-rdf-syntax-ns#"
   xmlns:svg="http://www.w3.org/2000/svg"
   xmlns="http://www.w3.org/2000/svg"
   xmlns:xlink="http://www.w3.org/1999/xlink"
   xmlns:sodipodi="http://sodipodi.sourceforge.net/DTD/sodipodi-0.dtd"
   xmlns:inkscape="http://www.inkscape.org/namespaces/inkscape"
   width="128"
   height="128"
   viewBox="0 0 33.866665 33.866665"
   version="1.1"
   id="svg4942"
   inkscape:version="0.92.2 5c3e80d, 2017-08-06"
   sodipodi:docname="gnome-dev-media-ms.svg">
  <defs
     id="defs4936">
    <linearGradient
       id="linearGradient6987"
       osb:paint="solid">
      <stop
         style="stop-color:#77d2fb;stop-opacity:1;"
         offset="0"
         id="stop6985" />
    </linearGradient>
    <linearGradient
       gradientTransform="matrix(0,0.65852771,0.64110529,0,-324.00521,5.6871281)"
       gradientUnits="userSpaceOnUse"
       y2="537.79797"
       x2="401.07935"
       y1="537.79797"
       x1="432.23273"
       id="linearGradient4158"
       xlink:href="#linearGradient4289"
       inkscape:collect="always" />
    <linearGradient
       id="linearGradient4289">
      <stop
         style="stop-color:#0d0d0d;stop-opacity:1"
         offset="0"
         id="stop4291" />
      <stop
         style="stop-color:#3f3f3f;stop-opacity:1"
         offset="1"
         id="stop4293" />
    </linearGradient>
  </defs>
  <sodipodi:namedview
     id="base"
     pagecolor="#ffffff"
     bordercolor="#666666"
     borderopacity="1.0"
     inkscape:pageopacity="0.0"
     inkscape:pageshadow="2"
     inkscape:zoom="5.032952"
     inkscape:cx="77.484917"
     inkscape:cy="52.482418"
     inkscape:document-units="mm"
     inkscape:current-layer="layer1"
     showgrid="false"
     units="px"
     width="128px"
     inkscape:window-width="1600"
     inkscape:window-height="806"
     inkscape:window-x="5"
     inkscape:window-y="8"
     inkscape:window-maximized="0"
     inkscape:measure-start="-1358.47,-26.6019"
     inkscape:measure-end="-1363.38,56.2869"
     showguides="false" />
  <metadata
     id="metadata4939">
    <rdf:RDF>
      <cc:Work
         rdf:about="">
        <dc:format>image/svg+xml</dc:format>
        <dc:type
           rdf:resource="http://purl.org/dc/dcmitype/StillImage" />
        <dc:title></dc:title>
      </cc:Work>
    </rdf:RDF>
  </metadata>
  <g
     inkscape:label="Layer 1"
     inkscape:groupmode="layer"
     id="layer1"
     transform="translate(0,-263.13332)">
    <g
       id="g876"
       transform="translate(-1.5049144e-7,-0.26458372)">
      <path
         style="opacity:0.25;fill:#000000;fill-opacity:1;stroke:none;stroke-width:2.4066925"
         d="m 0.26458357,271.60981 v 14.12891 c 0,0.62706 0.20038762,0.82747 0.64022489,1.26726 l 3.20027634,3.20028 c 0.6472275,0.64725 0.6334165,0.64725 1.2707818,0.64725 h 4.5052958 1.2822186 3.205534 1.282195 16.661719 c 0.0073,0 1.289247,0.0121 1.289247,-1.2787 v -2.15848 c -0.412118,-0.46729 -0.640007,-1.06862 -0.641124,-1.69167 0.0011,-0.62304 0.228982,-1.22438 0.641124,-1.69167 v -12.43171 c 0,0.0194 0.01454,-1.26315 -1.245608,-1.26315 H 17.574426 9.2400652 1.5397753 c -1.27519173,3e-5 -1.27519173,1.27168 -1.27519173,1.27168 z"
         id="path869"
         inkscape:connector-curvature="0"
         sodipodi:nodetypes="cccccccccccccccccccc" />
      <path
         sodipodi:nodetypes="cccccccccccccccccccc"
         inkscape:connector-curvature="0"
         id="rect4139"
         d="m 0.26458357,271.08064 v 14.12891 c 0,0.62706 0.20038762,0.82747 0.64022489,1.26726 l 3.20027634,3.20028 c 0.6472275,0.64725 0.6334165,0.64725 1.2707818,0.64725 h 4.5052958 1.2822186 3.205534 1.282195 16.661719 c 0.0073,0 1.289247,0.0121 1.289247,-1.2787 v -2.15848 c -0.412118,-0.46729 -0.640007,-1.06862 -0.641124,-1.69167 0.0011,-0.62304 0.228982,-1.22438 0.641124,-1.69167 v -12.43171 c 0,0.0194 0.01454,-1.26315 -1.245608,-1.26315 H 17.574426 9.2400652 1.5397753 c -1.27519173,3e-5 -1.27519173,1.27168 -1.27519173,1.27168 z"
         style="opacity:1;fill:url(#linearGradient4158);fill-opacity:1;stroke:none;stroke-width:2.4066925" />
      <path
         sodipodi:nodetypes="cccc"
         inkscape:connector-curvature="0"
         id="path4616"
         d="m 7.3332755,288.05462 -2.3898064,-1.35651 2.3898064,-1.35649 z"
         style="fill:#ffffff;fill-opacity:1;fill-rule:evenodd;stroke:none;stroke-width:2.4066925px;stroke-linecap:butt;stroke-linejoin:miter;stroke-opacity:1" />
      <path
         inkscape:connector-curvature="0"
         d="m 25.224187,271.68883 c -0.848232,-10e-5 -1.694996,0.0263 -2.397742,0.0796 -0.847125,0.0641 -1.150506,0.21433 -1.458771,0.72218 -0.0554,0.0913 -0.157945,0.24421 -0.227919,0.33986 -0.311619,0.42598 -0.612092,0.57153 -1.53199,0.74218 -0.609236,0.11302 -0.859457,0.20672 -0.859457,0.32188 -3e-6,0.0578 0.115122,0.11925 0.263974,0.14096 v -5e-5 c 0.288355,0.0421 1.386646,0.0163 2.275678,-0.0533 0.99155,-0.0777 1.155322,-0.17776 1.431273,-0.87447 0.314249,-0.7934 0.485839,-0.9441 1.052178,-0.92412 0.278408,0.01 0.413827,0.0591 0.504788,0.18351 0.0716,0.0979 0.06665,0.26867 -0.01873,0.64297 -0.133799,0.58653 -0.0763,0.83605 0.221375,0.96042 0.158292,0.0661 0.71168,0.10219 1.066377,0.0695 0.367222,-0.0339 0.471983,-0.0614 0.579775,-0.15208 0.176014,-0.14811 0.192682,-0.35551 0.07347,-0.9146 -0.09191,-0.43103 -0.08612,-0.53112 0.03787,-0.65511 0.103965,-0.10396 0.229618,-0.13829 0.506552,-0.13848 0.524367,-2.7e-4 0.686613,0.14513 0.978203,0.87703 0.294789,0.73993 0.432912,0.83456 1.335041,0.91465 0.614125,0.0545 1.774797,0.0991 2.140311,0.0822 0.3329,-0.0154 0.499825,-0.0639 0.515667,-0.14992 0.0211,-0.11458 -0.204573,-0.20083 -0.871445,-0.33302 -1.060756,-0.21025 -1.254042,-0.3256 -1.70648,-1.01844 -0.119974,-0.18372 -0.268054,-0.37882 -0.329091,-0.43358 -0.237151,-0.21278 -0.533941,-0.30106 -1.174446,-0.34938 -0.708513,-0.0534 -1.558223,-0.0802 -2.406454,-0.0804 z m -0.695998,2.87478 c -2.538872,0.003 -4.91939,0.0313 -5.49239,0.0892 -0.330322,0.0333 -0.37304,0.12425 -0.11265,0.2397 0.365558,0.16207 1.799848,0.30535 3.808674,0.38045 0.773848,0.0289 4.982814,0.0118 5.620752,-0.0229 2.311465,-0.12564 3.32604,-0.27522 3.32604,-0.49039 0,-0.0477 -0.01838,-0.0676 -0.07735,-0.0835 -0.282748,-0.0763 -3.808811,-0.11598 -7.073076,-0.1126 z m 0.691718,1.1883 c -4.731932,-2.7e-4 -4.901457,0.005 -4.805809,0.16044 0.09871,0.16001 1.28682,0.31362 3.129898,0.40467 2.564306,0.12669 6.392825,-0.11514 6.506345,-0.41097 0.05694,-0.14839 -0.116945,-0.15395 -4.830434,-0.15414 z m -0.05157,1.00414 c -3.470082,0 -3.429174,-0.001 -3.429174,0.11471 0,0.0634 0.08669,0.1092 0.309399,0.16341 0.379568,0.0924 1.236911,0.1825 2.114228,0.22218 1.552839,0.0702 3.511095,-0.0362 4.279062,-0.23265 0.308774,-0.079 0.379425,-0.2053 0.13783,-0.2465 -0.06818,-0.0116 -1.603301,-0.0211 -3.411345,-0.0211 z"
         style="fill:#ffffff;stroke-width:0.0967897"
         id="path946" />
      <path
         inkscape:connector-curvature="0"
         d="m 12.134606,285.36323 c -0.166734,2.7e-4 -0.332002,0.0142 -0.35272,0.0411 -0.0168,0.0218 -0.106397,0.39661 -0.199074,0.83285 -0.09268,0.43623 -0.178005,0.80413 -0.18965,0.81755 -0.01164,0.0134 -0.08255,-0.31326 -0.157556,-0.72597 -0.075,-0.41271 -0.149595,-0.79854 -0.165819,-0.8573 l -0.02952,-0.10678 H 10.7112 c -0.180974,0 -0.351609,0.009 -0.379215,0.0192 -0.04464,0.0171 -0.05014,0.16447 -0.05014,1.33423 v 1.31493 l 0.166533,-0.01 0.16662,-0.01 0.01583,-0.85658 c 0.0087,-0.47114 0.02612,-0.82017 0.03868,-0.77559 0.01257,0.0446 0.08786,0.40153 0.167335,0.79319 0.07947,0.39166 0.158162,0.74424 0.174801,0.7835 0.02756,0.065 0.05162,0.0714 0.267804,0.0714 0.194107,0 0.242722,-0.0102 0.266207,-0.0556 0.0158,-0.0305 0.109939,-0.41244 0.209212,-0.84868 0.09927,-0.43624 0.19041,-0.81458 0.202456,-0.84076 0.01205,-0.0262 0.02906,0.35218 0.03778,0.84076 l 0.01583,0.88833 0.189026,0.01 c 0.103971,0.005 0.221772,0.002 0.26176,-0.009 l 0.07273,-0.0183 v -1.27795 c 0,-0.95168 -0.0098,-1.28774 -0.03814,-1.31609 -0.02678,-0.0268 -0.194963,-0.0398 -0.361696,-0.0395 z m 12.089382,0.0172 -0.65502,9e-5 c -0.654618,0 -0.655057,4e-5 -0.740911,0.0793 -0.144665,0.13357 -0.17291,0.24621 -0.172846,0.68908 4.5e-5,0.4468 0.03459,0.56711 0.197208,0.68631 0.0709,0.052 0.155698,0.0665 0.47595,0.0815 l 0.389616,0.0184 v 0.3648 0.3649 l -0.523518,0.0158 -0.52343,0.0158 -0.01005,0.12234 c -0.0055,0.0673 -0.0024,0.1422 0.0069,0.16654 0.01382,0.036 0.136767,0.0435 0.660444,0.0404 0.3539,-0.002 0.685869,-0.0128 0.737709,-0.0239 0.06624,-0.0142 0.115553,-0.0579 0.166001,-0.14697 0.06623,-0.11693 0.07186,-0.16609 0.07238,-0.63484 4.53e-4,-0.43562 -0.0079,-0.52388 -0.05859,-0.61866 -0.100177,-0.18735 -0.217845,-0.23257 -0.644884,-0.2478 l -0.374768,-0.0134 v -0.28097 c 0,-0.33566 -0.04369,-0.31103 0.570376,-0.32213 l 0.427581,-0.008 0.03067,-0.0872 c 0.01972,-0.0562 0.0197,-0.11837 -9.1e-5,-0.17453 z m -7.183442,0.52361 -0.09683,0.0872 c -0.136679,0.12307 -0.169027,0.37154 -0.151597,1.16591 0.01507,0.68702 0.04525,0.82092 0.191608,0.85108 0.03945,0.008 0.317646,0.0127 0.61821,0.0101 0.752243,-0.006 0.688165,0.0832 0.700278,-0.97866 0.01336,-1.17078 0.03628,-1.13568 -0.742956,-1.13568 z m 13.326427,0 c -0.08734,0 -0.174846,0.0185 -0.198275,0.042 -0.02307,0.0231 -0.156141,0.20731 -0.295724,0.40945 l -0.253845,0.36756 -0.01582,-0.37627 c -0.0088,-0.20938 -0.03137,-0.39172 -0.05077,-0.41105 -0.02056,-0.0205 -0.124684,-0.0308 -0.253758,-0.0253 l -0.218992,0.01 -0.0084,1.01494 c -0.0046,0.55823 -0.0016,1.03298 0.0069,1.05495 0.01606,0.0419 0.37846,0.0576 0.474793,0.0206 0.04215,-0.0162 0.05035,-0.0859 0.05122,-0.43621 l 0.0011,-0.417 0.213124,0.42829 0.213123,0.4283 0.275274,0.009 0.275364,0.009 -0.03254,-0.10429 c -0.0179,-0.0574 -0.147972,-0.33301 -0.288969,-0.61244 l -0.256333,-0.50804 0.259447,-0.37744 c 0.14328,-0.20843 0.259536,-0.41069 0.259536,-0.45167 0,-0.0678 -0.01364,-0.0743 -0.156397,-0.0743 z m -3.932347,0.003 c -0.0978,8e-4 -0.10832,0.017 -0.131146,0.077 -0.04874,0.12818 -0.0416,1.95947 0.0078,2.0089 0.02576,0.0258 0.116016,0.0361 0.261758,0.0301 l 0.22246,-0.009 v -1.04694 -1.04695 l -0.230284,-0.009 c -0.05567,-0.002 -0.09801,-0.004 -0.130614,-0.004 z m -5.914478,9e-5 c -0.108054,1.7e-4 -0.117543,0.0135 -0.117543,0.0587 0,0.0354 0.107059,0.31027 0.237931,0.61074 l 0.23793,0.54628 v 0.43229 c 0,0.23775 0.01009,0.44229 0.02241,0.45462 0.01232,0.0124 0.123024,0.0183 0.245932,0.0132 l 0.223439,-0.009 0.01636,-0.44421 0.01636,-0.4442 0.246555,-0.56887 c 0.135611,-0.31288 0.239116,-0.5884 0.229928,-0.61234 -0.01189,-0.031 -0.06418,-0.0408 -0.181382,-0.034 l -0.164577,0.01 -0.150619,0.38073 -0.150618,0.38072 -0.05788,-0.14279 c -0.03183,-0.0785 -0.100743,-0.24985 -0.153108,-0.38073 l -0.09523,-0.23793 -0.26167,-0.009 c -0.06123,-0.002 -0.108198,-0.004 -0.144216,-0.003 z m -6.692555,9e-5 c -0.0641,-1.7e-4 -0.139077,8e-4 -0.225927,0.002 -0.466983,0.01 -0.495184,0.0139 -0.571621,0.0858 -0.126473,0.11895 -0.154114,0.33571 -0.141728,1.1115 0.0096,0.5981 0.01838,0.69902 0.06828,0.77514 0.03156,0.0481 0.08873,0.1001 0.12697,0.1155 0.07846,0.0316 0.973087,0.0425 1.050504,0.0128 0.05762,-0.0221 0.06748,-0.17474 0.01734,-0.26843 -0.02954,-0.0552 -0.06949,-0.0614 -0.39664,-0.0614 h -0.363743 v -0.25376 -0.25384 h 0.298837 c 0.164343,0 0.321381,-0.009 0.348982,-0.0193 0.07152,-0.0274 0.07152,-0.34643 0,-0.37388 -0.0276,-0.0106 -0.185296,-0.0193 -0.350405,-0.0193 h -0.30017 l 0.0093,-0.23002 0.0092,-0.23002 0.347116,-0.009 c 0.190909,-0.005 0.365791,-0.0245 0.388638,-0.0435 0.0558,-0.0463 0.05295,-0.26332 -0.0041,-0.31067 -0.0242,-0.0201 -0.118639,-0.0297 -0.310928,-0.0301 z m 2.103321,0 c -0.12372,2.7e-4 -0.137668,0.0151 -0.159687,0.067 -0.01694,0.0399 -0.09006,0.32106 -0.162444,0.62479 -0.07828,0.32846 -0.141205,0.53422 -0.155331,0.50769 -0.01306,-0.0245 -0.06977,-0.28734 -0.125989,-0.58398 -0.05622,-0.29664 -0.11732,-0.55766 -0.13577,-0.58007 -0.02409,-0.0293 -0.119461,-0.0382 -0.338135,-0.0317 l -0.304527,0.009 -0.0084,1.01503 c -0.0046,0.55823 -0.0013,1.03371 0.0076,1.05664 0.01089,0.0284 0.06426,0.0386 0.167067,0.032 l 0.151063,-0.01 0.0086,-0.59492 c 0.0047,-0.32718 0.01954,-0.59482 0.0329,-0.59482 0.01335,0 0.07957,0.24625 0.147151,0.54726 0.06758,0.301 0.135356,0.57229 0.150617,0.60282 0.02137,0.0428 0.06778,0.0555 0.201833,0.0555 0.211963,0 0.196417,0.0283 0.348538,-0.63449 0.06208,-0.27046 0.122842,-0.52036 0.135058,-0.55526 0.01221,-0.0349 0.02933,0.21499 0.03805,0.55526 l 0.01592,0.61866 h 0.222016 0.222104 v -1.04704 -1.04695 l -0.29359,-0.009 c -0.06998,-0.002 -0.123427,-0.004 -0.164667,-0.004 z m 11.928541,2.7e-4 c -0.558542,1.7e-4 -0.540518,0.0992 -0.540412,1.08163 9.1e-5,0.73762 0.0051,0.81086 0.06153,0.90335 0.03375,0.0554 0.09436,0.10707 0.134703,0.11496 0.04034,0.008 0.316054,0.0126 0.612697,0.0104 l 0.539346,-0.004 v -0.1427 -0.1428 l -0.38926,-0.009 -0.389171,-0.009 0.0084,-0.72082 0.0085,-0.72081 0.380724,-0.0158 0.380725,-0.0159 v -0.15861 -0.15863 l -0.531522,-0.009 c -0.10506,-0.002 -0.19655,-0.004 -0.27634,-0.004 z m -8.29512,10e-4 c -0.06823,1.4e-4 -0.145255,0.001 -0.232329,0.002 l -0.595093,0.009 -0.0084,1.01503 c -0.0046,0.55824 -0.0013,1.03352 0.0075,1.05629 0.01141,0.0297 0.07625,0.0387 0.230462,0.032 l 0.214636,-0.009 0.0087,-0.52272 c 0.0048,-0.28749 0.0193,-0.53321 0.0321,-0.54601 0.0128,-0.0128 0.136898,0.21856 0.275807,0.5141 0.138912,0.29553 0.271962,0.5448 0.295725,0.55392 0.02376,0.009 0.134915,0.0165 0.24691,0.0165 0.1596,0 0.203611,-0.0103 0.203611,-0.0475 0,-0.0261 -0.08567,-0.20695 -0.190363,-0.40189 -0.104698,-0.19494 -0.190362,-0.36347 -0.190362,-0.3745 0,-0.011 0.04862,-0.0376 0.108029,-0.059 0.176582,-0.0639 0.221025,-0.16555 0.23553,-0.53855 0.0099,-0.25499 7.99e-4,-0.35809 -0.04143,-0.46865 -0.075,-0.1964 -0.123444,-0.23166 -0.601051,-0.23064 z m 4.883358,0.0109 v 0.15863 0.15862 l 0.238019,0.0159 0.237931,0.0158 0.008,0.84076 c 0.0044,0.46242 0.01499,0.8592 0.02338,0.88175 0.0111,0.0298 0.08234,0.0385 0.261581,0.0317 l 0.246378,-0.009 0.01583,-0.8725 0.01591,-0.8725 0.237929,-0.0158 0.237932,-0.0159 v -0.15862 -0.15862 h -0.761449 z m -6.869403,0.33432 c 0.09751,0.002 0.191833,0.0104 0.215436,0.0253 0.03104,0.0197 0.03833,0.18594 0.03174,0.72135 l -0.0086,0.69566 -0.239354,0.009 c -0.131656,0.005 -0.249457,-8e-4 -0.261759,-0.0132 -0.0123,-0.0123 -0.02232,-0.33263 -0.02232,-0.71175 0,-0.59928 0.0065,-0.6918 0.05015,-0.70855 0.0365,-0.014 0.137221,-0.0196 0.23473,-0.0181 z m 1.954037,0.003 c 0.19379,2.6e-4 0.208599,0.0487 0.197564,0.30221 l -0.0094,0.21695 -0.250023,0.0159 c -0.165417,0.0105 -0.254407,0.004 -0.263181,-0.0189 -0.0073,-0.0191 -0.009,-0.14043 -0.0038,-0.26967 l 0.0094,-0.235 0.225038,-0.009 c 0.03544,-0.001 0.06674,-0.002 0.09442,-0.002 z"
         style="fill:#ffffff;stroke-width:0.1191005"
         id="path1014" />
    </g>
  </g>
</svg>
