<?xml version="1.0" encoding="UTF-8" standalone="no"?>
<svg
   xmlns:dc="http://purl.org/dc/elements/1.1/"
   xmlns:cc="http://creativecommons.org/ns#"
   xmlns:rdf="http://www.w3.org/1999/02/22-rdf-syntax-ns#"
   xmlns:svg="http://www.w3.org/2000/svg"
   xmlns="http://www.w3.org/2000/svg"
   xmlns:xlink="http://www.w3.org/1999/xlink"
   xmlns:sodipodi="http://sodipodi.sourceforge.net/DTD/sodipodi-0.dtd"
   xmlns:inkscape="http://www.inkscape.org/namespaces/inkscape"
   height="128"
   viewBox="0 0 128 128"
   width="128"
   version="1.1"
   id="svg18"
   sodipodi:docname="nm-device-wireless.svg"
   inkscape:version="0.92.4 5da689c313, 2019-01-14">
  <metadata
     id="metadata24">
    <rdf:RDF>
      <cc:Work
         rdf:about="">
        <dc:format>image/svg+xml</dc:format>
        <dc:type
           rdf:resource="http://purl.org/dc/dcmitype/StillImage" />
        <dc:title></dc:title>
      </cc:Work>
    </rdf:RDF>
  </metadata>
  <defs
     id="defs22">
    <linearGradient
       inkscape:collect="always"
       id="linearGradient876">
      <stop
         style="stop-color:#d031e1;stop-opacity:1"
         offset="0"
         id="stop872" />
      <stop
         style="stop-color:#e78df9;stop-opacity:1"
         offset="1"
         id="stop874" />
    </linearGradient>
    <linearGradient
       inkscape:collect="always"
       xlink:href="#linearGradient876"
       id="linearGradient826"
       x1="66.530045"
       y1="122.26002"
       x2="64.333595"
       y2="5.9833865"
       gradientUnits="userSpaceOnUse" />
    <linearGradient
       id="linearGradient3361"
       inkscape:collect="always">
      <stop
         id="stop3363"
         offset="0"
         style="stop-color:#0068e0;stop-opacity:1;" />
      <stop
         id="stop3365"
         offset="1"
         style="stop-color:#00acf4;stop-opacity:1" />
    </linearGradient>
    <linearGradient
       xlink:href="#linearGradient3361"
       x1="71.204002"
       y1="15.369"
       gradientTransform="matrix(1.5867756,0,0,1.5867757,-167.94929,-1.243281)"
       x2="71.204002"
       gradientUnits="userSpaceOnUse"
       y2="40.495998"
       id="linearGradient3026">
      <stop
         offset="0"
         stop-color="#fff"
         id="stop4808-4" />
      <stop
         offset=".42448"
         stop-opacity=".23529"
         stop-color="#fff"
         id="stop4810-0" />
      <stop
         offset=".82090"
         stop-opacity=".15686"
         stop-color="#fff"
         id="stop4812-8" />
      <stop
         offset="1"
         stop-opacity=".39216"
         stop-color="#fff"
         id="stop4814-0" />
    </linearGradient>
    <radialGradient
       r="20"
       gradientTransform="matrix(-3.4973e-8 1.8855 -1.7764 -5.4723e-8 39.14 -7.9932)"
       cx="15.026"
       cy="8.6258"
       gradientUnits="userSpaceOnUse"
       fy="8.5089"
       fx="4.459"
       id="radialGradient3029">
      <stop
         offset="0"
         stop-color="#c24251"
         id="stop4170" />
      <stop
         offset=".26238"
         stop-color="#c24251"
         id="stop4172" />
      <stop
         offset=".66094"
         stop-color="#a63643"
         id="stop4174" />
      <stop
         offset="1"
         stop-color="#a63643"
         id="stop4176" />
    </radialGradient>
    <radialGradient
       r="20.397"
       gradientTransform="matrix(0,2.8345094,-3.7415326,0,-38.495085,-45.294216)"
       cx="23.896"
       cy="3.99"
       gradientUnits="userSpaceOnUse"
       id="radialGradient3032">
      <stop
         offset="0"
         stop-color="#fff"
         id="stop3244-9-33-7-0-9" />
      <stop
         offset=".26238"
         stop-color="#ddd"
         id="stop3246-3-5-0-8-5" />
      <stop
         offset=".66094"
         stop-color="#abacae"
         id="stop3248-1-7-8-8-1" />
      <stop
         offset="1"
         stop-color="#89898b"
         id="stop3250-9-3-0-5-1" />
    </radialGradient>
    <radialGradient
       r="62.769"
       gradientTransform="matrix(0.27083,0,0,0.087623,-80.278829,45.161997)"
       cx="99.157"
       cy="186.17"
       gradientUnits="userSpaceOnUse"
       id="radialGradient3035">
      <stop
         offset="0"
         stop-color="#3d3d3d"
         id="stop3822-2-6-3" />
      <stop
         offset=".5"
         stop-opacity=".49804"
         stop-color="#686868"
         id="stop3864-8-7-7" />
      <stop
         offset="1"
         stop-opacity="0"
         stop-color="#686868"
         id="stop3824-1-2-5" />
    </radialGradient>
    <linearGradient
       x1="22.759"
       y1="13.035"
       gradientTransform="matrix(1 0 0 1.0521 0 -.90547)"
       x2="23.078"
       gradientUnits="userSpaceOnUse"
       y2="25.611"
       id="linearGradient4433">
      <stop
         offset="0"
         stop-color="#fff"
         id="stop6305-1-0-2" />
      <stop
         offset="1"
         stop-opacity="0"
         stop-color="#fff"
         id="stop6307-5-0-6" />
    </linearGradient>
    <linearGradient
       id="linearGradient4829">
      <stop
         id="stop4831"
         offset="0"
         style="stop-color:#f4fbfc;stop-opacity:1;" />
      <stop
         id="stop4833"
         offset="1"
         style="stop-color:#d6d6d6;stop-opacity:1;" />
    </linearGradient>
    <linearGradient
       x1="32.817001"
       y1="19.819"
       gradientTransform="translate(-0.1809,-0.94729)"
       x2="32.817001"
       gradientUnits="userSpaceOnUse"
       y2="30.184999"
       id="linearGradient3857">
      <stop
         offset="0"
         stop-color="#fff"
         id="stop2240" />
      <stop
         offset="1"
         stop-opacity="0"
         stop-color="#fff"
         id="stop2242" />
    </linearGradient>
    <linearGradient
       x1="135"
       y1="120"
       gradientTransform="matrix(0.43333,0,0,0.43333,-83.755,-6.7415)"
       x2="160"
       gradientUnits="userSpaceOnUse"
       y2="160"
       id="linearGradient4322">
      <stop
         offset="0"
         stop-color="#effffc"
         id="stop3879-8-6" />
      <stop
         offset="1"
         stop-color="#fff"
         id="stop3881-8-6" />
    </linearGradient>
  </defs>
  <sodipodi:namedview
     pagecolor="#ffffff"
     bordercolor="#666666"
     borderopacity="1"
     objecttolerance="10"
     gridtolerance="10"
     guidetolerance="10"
     inkscape:pageopacity="0"
     inkscape:pageshadow="2"
     inkscape:window-width="1920"
     inkscape:window-height="1031"
     id="namedview20"
     showgrid="false"
     inkscape:zoom="2.6074563"
     inkscape:cx="-98.103724"
     inkscape:cy="83.015034"
     inkscape:window-x="0"
     inkscape:window-y="26"
     inkscape:window-maximized="1"
     inkscape:current-layer="svg18" />
  <linearGradient
     id="a"
     gradientUnits="userSpaceOnUse"
     x1="215.86441"
     x2="213.69492"
     y1="145.8983"
     y2="144.27118">
    <stop
       offset="0"
       stop-color="#a87cff"
       id="stop2" />
    <stop
       offset="1"
       stop-color="#7838c8"
       id="stop4" />
  </linearGradient>
  <linearGradient
     id="b"
     gradientUnits="userSpaceOnUse"
     x1="66.01551341119"
     x2="64.33359152003"
     y1="119.34706540717"
     y2="1.33853303141">
    <stop
       offset="0"
       stop-color="#cccdd1"
       id="stop7"
       style="stop-color:#dcdde0;stop-opacity:1" />
    <stop
       offset="1"
       stop-color="#f7f9f9"
       id="stop9" />
  </linearGradient>
  <path
     style="fill:url(#linearGradient826);stroke:#cccdd1;stroke-width:4.64485502;fill-opacity:1.0"
     d="M 124.89873,64.22612 A 60.565502,60.565502 0 0 1 64.333229,124.79162 60.565502,60.565502 0 0 1 3.7677269,64.22612 60.565502,60.565502 0 0 1 64.333229,3.6606178 60.565502,60.565502 0 0 1 124.89873,64.22612 Z"
     id="circle12" />
  <path
     d="m64.333592 1.3385313c-34.704539 0-62.8882778 28.1824517-62.8882778 62.8869837 0 34.704538 28.1837388 62.888275 62.8882778 62.888275 34.704538 0 62.886978-28.183737 62.886978-62.888275 0-34.704532-28.18244-62.8869837-62.886978-62.8869837zm0 4.644855c32.194272 0 58.242128 26.0478627 58.242128 58.2421287 0 32.194272-26.047856 58.243425-58.242128 58.243425-32.194267 0-58.2434228-26.049153-58.2434228-58.243425 0-32.194266 26.0491558-58.2421287 58.2434228-58.2421287z"
     fill="url(#b)"
     id="path14" />
  <g
     id="g4317"
     transform="matrix(1.0002,0,0,1.0004,-78.425529,18.969526)"
     style="fill:none;stroke:#000000;stroke-linecap:round;stroke-linejoin:round" />
  <g
     id="g870"
     transform="matrix(0.12901858,0,0,0.12901858,123.25581,3.2933769)"
     style="fill:#ffffff;fill-opacity:1">
    <path
       id="path862"
       d="m -456.70043,534.13427 c -49.553,0 -96.331,21.852 -128.335,59.948 -9.93,11.811 -8.402,29.434 3.428,39.363 5.234,4.396 11.605,6.557 17.958,6.557 7.973,0 15.891,-3.39 21.405,-9.966 21.368,-25.429 52.552,-40.016 85.544,-40.016 32.992,0 64.177,14.587 85.544,40.016 5.533,6.595 13.45,9.966 21.405,9.966 6.353,0 12.724,-2.142 17.958,-6.557 11.83,-9.93 13.357,-27.553 3.428,-39.363 -32.005,-38.096 -78.783,-59.948 -128.335,-59.948 z"
       inkscape:connector-curvature="0"
       style="fill:#ffffff;fill-opacity:1" />
    <path
       id="path864"
       d="m -456.71026,411.20563 c -82.545,0 -160.489,36.419 -213.879,99.926 -9.929,11.811 -8.402,29.434 3.428,39.363 5.234,4.396 11.605,6.558 17.958,6.558 7.973,0 15.891,-3.391 21.405,-9.967 42.716,-50.838 105.086,-79.993 171.089,-79.993 66.003,0 128.372,29.155 171.107,79.993 5.533,6.595 13.45,9.967 21.404,9.967 6.353,0 12.724,-2.14299 17.959,-6.558 11.829,-9.929 13.356,-27.57 3.428,-39.363 -53.41,-63.506 -131.354,-99.926 -213.899,-99.926 z"
       inkscape:connector-curvature="0"
       style="fill:#ffffff;fill-opacity:1" />
    <path
       id="path866"
       d="m -157.25874,432.76761 c -74.739,-88.935 -183.887,-139.923 -299.442,-139.923 -115.555,0 -224.68501,50.988 -299.44301,139.923 -9.93,11.811 -8.402,29.434 3.428,39.363 5.234,4.396 11.587,6.558 17.939,6.558 7.973,0 15.891,-3.391 21.423,-9.967 64.08401,-76.248 157.63901,-119.989 256.65201,-119.989 99.013,0 192.568,43.741 256.651,119.971 5.533,6.576 13.45,9.967 21.424,9.967 6.353,0 12.724,-2.14299 17.958,-6.558 11.81099,-9.912 13.33999,-27.553 3.41,-39.345 z"
       inkscape:connector-curvature="0"
       style="fill:#ffffff;fill-opacity:1" />
    <path
       id="path868"
       d="m -502.72533,682.97548 c 0,25.40596 20.61957,46.02476 46.02469,46.02476 25.40511,0 46.02469,-20.6188 46.02469,-46.02476 -7.77548,-65.32599 -90.56863,-48.66693 -92.04938,0 z"
       inkscape:connector-curvature="0"
       style="fill:#ffffff;fill-opacity:1" />
  </g>
</svg>
