<svg height="136.53333" viewBox="0 0 136.53333 136.53333" width="136.53333" xmlns="http://www.w3.org/2000/svg" xmlns:xlink="http://www.w3.org/1999/xlink"><linearGradient id="a"><stop offset="0" stop-color="#909090"/><stop offset="1" stop-color="#636363" stop-opacity="0"/></linearGradient><radialGradient id="b" cx="199.2227" cy="60.977612" gradientTransform="matrix(1.0118581 .00000003 -.00000015 5.095797 -134.28081 -251.22589)" gradientUnits="userSpaceOnUse" r="62.147919"><stop offset="0" stop-color="#e6e6e8"/><stop offset="1" stop-color="#cbccce"/></radialGradient><radialGradient id="c" cx="199.2227" cy="60.977612" gradientTransform="matrix(1.3102503 -.00000004 .0000001 3.6151362 -193.72731 -160.9387)" gradientUnits="userSpaceOnUse" r="62.147919"><stop offset="0" stop-color="#ececef"/><stop offset="1" stop-color="#cbccce" stop-opacity="0"/></radialGradient><filter id="d" color-interpolation-filters="sRGB" height="1.033815" width="1.02896" x="-.01448" y="-.016908"><feGaussianBlur stdDeviation=".74992302"/></filter><linearGradient id="e" gradientUnits="userSpaceOnUse" x1="174.78751" x2="174.86426" y1="109.46546" y2="118.12492"><stop offset="0" stop-color="#909090"/><stop offset="1" stop-color="#727272" stop-opacity="0"/></linearGradient><radialGradient id="f" cx="178.78711" cy="120.70432" gradientTransform="matrix(3.8591081 -.00000023 0 .13879872 -511.17169 103.95076)" gradientUnits="userSpaceOnUse" r="22.055489" xlink:href="#a"/><filter id="g" color-interpolation-filters="sRGB" height="2.008" width="1.08173" x="-.040865" y="-.504"><feGaussianBlur stdDeviation=".32830532"/></filter><filter id="h" color-interpolation-filters="sRGB" height="1.4909" width="1.160934" x="-.080467" y="-.24545"><feGaussianBlur stdDeviation="1.4789442"/></filter><linearGradient id="i" gradientUnits="userSpaceOnUse" x1="183.0631" x2="183.0631" xlink:href="#a" y1="129.42332" y2="127.06073"/><linearGradient id="j" gradientUnits="userSpaceOnUse" x1="23.844025" x2="23.815981" y1="17.574459" y2="85.150604"><stop offset="0" stop-color="#1bd2fa"/><stop offset="1" stop-color="#1c7ef2"/></linearGradient><rect fill="#1a1a1a" filter="url(#d)" height="103.94971" opacity=".887" rx="5.66165" width="124.29584" x="5.156375" y="8.778809"/><rect fill="url(#b)" height="103.94971" rx="5.66165" width="124.29584" x="5.156375" y="8.778809"/><rect fill="url(#c)" height="103.94971" rx="5.66165" width="124.29584" x="5.156375" y="8.778809"/><path d="m10.817921 8.7780044c-3.1365599 0-5.6621099 2.5255546-5.6621099 5.6621086v75.664063h124.2968689v-75.664063c0-3.136554-2.52555-5.6621086-5.66211-5.6621086z" fill="#080808"/><path d="m10.317644 12.353147h113.49406v73.328949h-113.49406z" fill="url(#j)"/><path d="m5.1558111 106.01043v1.05664c0 3.13655 2.52555 5.6621 5.6621099 5.6621h112.972649c3.13656 0 5.66211-2.52555 5.66211-5.6621v-1.05664c0 3.13655-2.52555 5.6621-5.66211 5.6621h-112.972649c-3.1365599 0-5.6621099-2.52555-5.6621099-5.6621z" fill="#afafaf"/><g transform="translate(-111.48282 -1.473949)"><path d="m194.33847 114.94773c-.0882 3.69949-.94643 7.82167 4.95064 11.33436 4.7067 2.92579-2.61144 3.12671-4.42952 3.12671h-5.66718c-8.82592 0-17.65185 0-26.47777 0-1.81808 0-9.13622-.20092-4.42952-3.12671 5.89706-3.51269 5.03886-7.63487 4.95064-11.33436z" filter="url(#h)"/><path d="m194.33847 113.47378c-.0882 3.69949-.94643 7.82167 4.95064 11.33436 4.7067 2.92579-2.61144 3.12671-4.42952 3.12671-10.49206.46272-21.16242.7623-32.14495 0-1.81808 0-9.13622-.20092-4.42952-3.12671 5.89706-3.51269 5.03886-7.63487 4.95064-11.33436z" fill="#e0e1e6"/><path d="m194.33847 113.47378c-.0882 3.69949-.94643 7.82167 4.95064 11.33436 4.7067 2.92579-2.61144 3.12671-4.42952 3.12671h-5.66718c-8.82592 0-17.65185 0-26.47777 0-1.81808 0-9.13622-.20092-4.42952-3.12671 5.89706-3.51269 5.03886-7.63487 4.95064-11.33436z" fill="url(#e)"/><path d="m194.33847 113.47378c-.0882 3.69949-.94643 7.82167 4.95064 11.33436 4.7067 2.92579-2.61144 3.12671-4.42952 3.12671h-5.66718c-8.82592 0-17.65185 0-26.47777 0-1.81808 0-9.13622-.20092-4.42952-3.12671 5.89706-3.51269 5.03886-7.63487 4.95064-11.33436z" fill="url(#f)"/><ellipse cx="178.28802" cy="127.15317" fill="#fff" filter="url(#g)" opacity=".887" rx="15.763866" ry=".781679"/><path d="m194.33847 113.47378c-.0882 3.69949-.94643 7.82167 4.95064 11.33436 4.7067 2.92579-2.61144 3.12671-4.42952 3.12671h-5.66718c-8.82592 0-17.65185 0-26.47777 0-1.81808 0-9.13622-.20092-4.42952-3.12671 5.89706-3.51269 5.03886-7.63487 4.95064-11.33436z" fill="url(#i)"/></g><path d="m71.574021 102.89623c-.16003.36969-.34945.70998-.56891 1.02284-.29914.42652-.54408.72174-.73285.8857-.29261.26911-.60613.4069-.94186.41475-.24102 0-.53167-.0687-.87001-.2077-.33945-.13848-.6514-.20705-.93664-.20705-.29915 0-.61998.0687-.96315.20705-.3437.13913-.62057.21162-.83226.21882-.32195.0137-.64285-.12802-.96316-.42587-.20444-.1783-.46015-.48401-.76648-.91705-.32868-.46244-.59889-.99867-.81058-1.61005-.22671-.66033-.34036-1.29979-.34036-1.91887 0-.709129.15323-1.320749.46015-1.833297.24121-.41168.56211-.73643.96374-.97484.40163-.2384.83559-.35988 1.30293-.36765.25572 0 .59105.0791 1.00777.23454.41554.15598.68236.23507.79934.23507.0875 0 .38386-.0925.88634-.27687.47518-.171.87622-.2418 1.20476-.21391.89026.0718 1.5591.4228 2.00391 1.05506-.79621.482408-1.19007 1.158128-1.18223 2.024917.007.6752.25212 1.23703.7335 1.68314.21816.20707.46179.36709.73285.48075-.0588.17044-.12084.33376-.1868.49052zm-2.04179-8.034565c0 .5292-.19334 1.02331-.5787 1.480648-.46506.5437-1.02756.85787-1.63755.80829-.008-.0634-.0123-.13031-.0123-.20052 0-.50803.22116-1.051724.61391-1.496261.19608-.225079.44546-.412238.74787-.561532.30176-.147062.5872-.228391.85564-.242321.008.07076.0112.141499.0112.211686z" fill="#1e1f28" stroke-width=".065316"/><path d="m10.317921 12.352223v73.330078h113.494139v-73.330078zm.55273.507812h112.480469v72.361328h-112.480469z" fill-opacity=".211982"/><path d="m10.818359 9.0273438c-3.1365595 0-5.662109 2.5255552-5.662109 5.6621092v75.414063h124.29687v-75.414063c0-3.136554-2.52554-5.6621092-5.6621-5.6621092zm-.5 5.3261722h113.494141v71.328125h-113.494141z" fill="#080808"/></svg>