<?xml version="1.0" encoding="UTF-8" standalone="no"?>
<svg
   xmlns:dc="http://purl.org/dc/elements/1.1/"
   xmlns:cc="http://creativecommons.org/ns#"
   xmlns:rdf="http://www.w3.org/1999/02/22-rdf-syntax-ns#"
   xmlns:svg="http://www.w3.org/2000/svg"
   xmlns="http://www.w3.org/2000/svg"
   xmlns:xlink="http://www.w3.org/1999/xlink"
   xmlns:sodipodi="http://sodipodi.sourceforge.net/DTD/sodipodi-0.dtd"
   xmlns:inkscape="http://www.inkscape.org/namespaces/inkscape"
   height="128"
   width="128"
   id="svg2"
   version="1.1"
   inkscape:version="0.91 r13725"
   sodipodi:docname="folder-html.svg">
  <metadata
     id="metadata54">
    <rdf:RDF>
      <cc:Work
         rdf:about="">
        <dc:format>image/svg+xml</dc:format>
        <dc:type
           rdf:resource="http://purl.org/dc/dcmitype/StillImage" />
        <dc:title></dc:title>
      </cc:Work>
    </rdf:RDF>
  </metadata>
  <defs
     id="defs52">
    <linearGradient
       id="linearGradient4885">
      <stop
         style="stop-color:#1296d5;stop-opacity:1;"
         offset="0"
         id="stop4881" />
      <stop
         style="stop-color:#4fb6e8;stop-opacity:1"
         offset="1"
         id="stop4883" />
    </linearGradient>
    <style
       id="current-color-scheme"
       type="text/css">
      .ColorScheme-Text {
        color:#4d4d4d;
      }
      </style>
    <linearGradient
       id="linearGradient3866">
      <stop
         id="stop3868"
         offset="0"
         style="stop-color:#000000;stop-opacity:0.52083331" />
      <stop
         id="stop3870"
         offset="1"
         style="stop-color:#2883c3;stop-opacity:0;" />
    </linearGradient>
    <linearGradient
       id="linearGradient3874">
      <stop
         id="stop3876"
         offset="0"
         style="stop-color:#000d0e;stop-opacity:0.84105963;" />
      <stop
         id="stop3878"
         offset="1"
         style="stop-color:#000000;stop-opacity:0;" />
    </linearGradient>
    <style
       id="current-color-scheme-3"
       type="text/css">
      .ColorScheme-Text {
        color:#4d4d4d;
      }
      </style>
    <linearGradient
       xlink:href="#linearGradient4885"
       id="linearGradient4887"
       x1="40.32296"
       y1="61.076542"
       x2="40.407059"
       y2="77.951225"
       gradientUnits="userSpaceOnUse"
       gradientTransform="matrix(3.4414163,0,0,3.4414163,-217.59008,-162.01326)" />
  </defs>
  <sodipodi:namedview
     pagecolor="#ffffff"
     bordercolor="#666666"
     borderopacity="1"
     objecttolerance="10"
     gridtolerance="10"
     guidetolerance="10"
     inkscape:pageopacity="0"
     inkscape:pageshadow="2"
     inkscape:window-width="1920"
     inkscape:window-height="1031"
     id="namedview50"
     showgrid="false"
     inkscape:zoom="1.84375"
     inkscape:cx="64"
     inkscape:cy="64"
     inkscape:window-x="0"
     inkscape:window-y="26"
     inkscape:window-maximized="1"
     inkscape:current-layer="svg2" />
  <linearGradient
     id="a"
     gradientUnits="userSpaceOnUse"
     x1="-33.76462570504"
     x2="-33.76462570504"
     y1="1105.881971868"
     y2="1113.1935123816">
    <stop
       offset="0"
       stop-color="#a5e3fe"
       id="stop5" />
    <stop
       offset="1"
       stop-color="#b6e7fe"
       id="stop7" />
  </linearGradient>
  <linearGradient
     id="b"
     gradientUnits="userSpaceOnUse"
     x1="-24.33128572721"
     x2="-24.33128572721"
     y1="1110.91035564746"
     y2="1147.22786238757">
    <stop
       offset="0"
       stop-color="#75d3f9"
       id="stop10" />
    <stop
       offset=".5"
       stop-color="#84dafd"
       id="stop12" />
    <stop
       offset="1"
       stop-color="#81d4f6"
       id="stop14" />
  </linearGradient>
  <linearGradient
     id="c"
     gradientUnits="userSpaceOnUse"
     x1="-34.46542705667"
     x2="-34.46542705667"
     y1="1109.70835527696"
     y2="1111.6424560796">
    <stop
       offset="0"
       stop-color="#a5e3fe"
       stop-opacity="0"
       id="stop17" />
    <stop
       offset="1"
       stop-color="#c2ebfe"
       stop-opacity=".742537"
       id="stop19" />
  </linearGradient>
  <filter
     id="d"
     color-interpolation-filters="sRGB"
     height="1.040659"
     width="1.032299"
     x="-.01615"
     y="-.020329">
    <feGaussianBlur
       stdDeviation=".81567628"
       id="feGaussianBlur22" />
  </filter>
  <g
     transform="matrix(2.213863 0 0 2.213863 109.49068722118 -2416.89615560948)"
     id="g24">
    <path
       d="m7.6230469 27.083984c-2.5051343 0-4.5214844 2.016277-4.5214844 4.521485v15.25 56.753911 15.24804c0 2.50521 2.0163501 4.52149 4.5214844 4.52149h112.0898431c2.50514 0 4.52344-2.01628 4.52344-4.52149v-7.94336-46.158201c.04991-.336064.08398-.676121.08398-1.021484v-19.689453c0-.377021-.03322-.743542-.08398-1.103516v-1.595703c0-2.504986-2.0183-4.521484-4.52344-4.521484h-70.96289c-4.235777 0-6.116942-9.740235-10.644531-9.740235z"
       filter="url(#d)"
       opacity=".19"
       transform="matrix(.45169913 0 0 .45169913 -49.456849 1091.7099)"
       id="path26" />
    <path
       d="m-46.013647 1103.9436c-1.131567 0-2.042289.9113-2.042289 2.0429v32.5235c0 1.1316.910722 2.0423 2.042289 2.0423h.739172c.174211.051.358352.079.549527.079h48.0539624c1.0739668 0 1.9385959 2.2673 1.9385959 1.1933v-1.0286c.8108474.5767 1.3929488 1.9171 1.3929488 1.0131v-20.8493c.022543-.1518.03826-.3054.03826-.4614v-8.8939c0-.1703-.015331-.3359-.03826-.4985v-.7209c0-1.1315-.9112788-2.0422-2.0428459-2.0422h-32.0544582c-1.913297 0-2.763116-4.3996-4.808224-4.3996z"
       fill="url(#a)"
       id="path28" />
    <path
       d="m-46.013647 1103.9436c-1.131567 0-2.042289.9113-2.042289 2.0429v32.5235c0 1.1316.910722 2.0423 2.042289 2.0423h50.6313602c1.1315671 0 2.0428459 2.3887 2.0428459 1.2571v-20.8493c.022543-.1518.03826-.3054.03826-.4614v-8.8939c0-.1703-.015331-.3359-.03826-.4985v-.7209c0-1.1315-.9112788-2.0422-2.0428459-2.0422h-32.0544582c-1.913297 0-2.763116-4.3996-4.808224-4.3996z"
       fill="url(#c)"
       id="path30" />
    <path
       d="m-46.013636 1110.8318h50.6314338c1.1315673 0 2.0425393.911 2.0425393 2.0425v32.5236c0 1.1316-.910972 2.0425-2.0425393 2.0425h-50.6314338c-1.131567 0-2.04254-.9109-2.04254-2.0425v-32.5236c0-1.1315.910973-2.0425 2.04254-2.0425z"
       fill="url(#b)"
       id="path32" />
    <g
       fill="#6fc1ec"
       id="g34">
      <path
         d="m3.2402344 173.16211c.04118.23715.094771.47068.1582031.69922h194.1542925c.0634-.22854.11703-.46207.15821-.69922z"
         transform="matrix(.28102797437 0 0 .28102797437 -48.9343321453 1097.08818204992)"
         id="path36" />
      <path
         d="m3.125 168.32227v.70117h194.70117v-.70117z"
         transform="matrix(.28102797437 0 0 .28102797437 -48.9343321453 1097.08818578286)"
         id="path38" />
      <path
         d="m3.125 162.65625v.69922h194.70117v-.69922z"
         transform="matrix(.28102797437 0 0 .28102797437 -48.9343321453 1097.08819822601)"
         id="path40" />
    </g>
    <path
       d="m-48.073953 1143.0198v.2531h54.7352945v-.2784z"
       fill="#abdbf4"
       id="path42" />
    <path
       d="m-48.073953 1144.5971v.2531h54.7352945v-.2785z"
       fill="#abdbf4"
       id="path44" />
    <path
       d="m-48.073953 1145.9391v.2531h54.7352945v-.2785z"
       fill="#abdbf4"
       id="path46" />
    <path
       d="m7.6230469 27.083984c-2.5051343 0-4.5214844 2.016277-4.5214844 4.521485v15.25 56.753911 15.24804c0 2.50521 2.0163501 4.52149 4.5214844 4.52149h112.0898431c2.50514 0 4.52344-2.01628 4.52344-4.52149v-7.94336-46.158201c.04991-.336064.08398-.676121.08398-1.021484v-19.689453c0-.377021-.03322-.743542-.08398-1.103516v-1.595703c0-2.504986-2.0183-4.521484-4.52344-4.521484h-70.96289c-4.235777 0-6.116942-9.740235-10.644531-9.740235zm0 .900391h30.4824221c.809202 0 1.540791.4263 2.330078 1.246094.789289.819572 1.562613 1.995969 2.34375 3.210937.781137 1.214747 1.569118 2.466274 2.496094 3.470703.926973 1.00443 2.070736 1.8125 3.474609 1.8125h70.96289c2.02217 0 3.62305 1.599616 3.62305 3.621094v1.658203l.00976.0625c.04655.330087.07422.654185.07422.978516v19.689453c0 .286031-.02852.580945-.07422.888672l-.00976.066406v46.224607 7.94336c0 2.02192-1.60082 3.6211-3.62305 3.6211h-112.0898431c-2.02222 0-3.6210938-1.59873-3.6210938-3.6211v-15.24804-56.753911-15.25c0-2.022364 1.5988738-3.621094 3.6210938-3.621094z"
       fill="#fff"
       fill-opacity=".488372"
       transform="matrix(.45169913 0 0 .45169913 -49.456849 1091.7099)"
       id="path48" />
  </g>
  <path
     style="color:#4d4d4d;opacity:0.50400002;fill:url(#linearGradient4887);fill-opacity:1;stroke:none;stroke-width:3.44141626"
     d="m 63.711853,58.880859 c -0.796962,0 -1.599359,0.06623 -2.375,0.144532 -1.551285,0.156607 -3.015773,0.416271 -4.458984,0.863281 -7.21606,2.23505 -12.940733,7.95972 -15.175782,15.175781 -0.44701,1.443211 -0.706681,2.909653 -0.863281,4.460938 -0.0783,0.775642 -0.144531,1.576085 -0.144531,2.373047 0,0.796961 0.06623,1.597404 0.144531,2.373046 0.156607,1.551285 0.416271,3.017727 0.863281,4.460938 2.235049,7.216058 7.959721,12.940738 15.175782,15.175778 1.44321,0.44701 2.907699,0.7067 4.458984,0.86328 0.775641,0.0783 1.578038,0.14454 2.375,0.14454 0.796962,0 1.597406,-0.0663 2.373047,-0.14454 1.551285,-0.15651 3.015773,-0.41627 4.458984,-0.86328 1.441458,-0.44833 2.867336,-1.09016 4.171875,-1.79882 5.219004,-2.828122 9.217819,-7.604109 11.00586,-13.376958 0.44701,-1.443211 0.70668,-2.909653 0.863281,-4.460938 0.0783,-0.775642 0.142578,-1.576084 0.142578,-2.373046 0,-0.794495 -0.064,-1.599284 -0.142578,-2.373047 -0.156608,-1.551285 -0.416272,-3.017727 -0.863281,-4.460938 -0.89402,-2.886425 -2.370821,-5.568044 -4.244141,-7.839844 -0.469071,-0.568383 -0.989109,-1.061373 -1.509766,-1.582031 -2.080157,-2.080157 -4.510066,-3.801252 -7.265625,-4.96289 -0.688428,-0.291182 -1.437473,-0.566847 -2.158203,-0.791016 -1.443211,-0.44701 -2.907699,-0.706681 -4.458984,-0.863281 -0.775641,-0.0783 -1.576085,-0.144532 -2.373047,-0.144532 z m 0,2.302735 c 3.483171,0 6.75768,0.854294 9.638672,2.373047 0.07614,0.04014 0.13928,0.103469 0.214844,0.144531 0.05833,0.07718 0.04209,0.15836 0.144531,0.214844 0.07527,0.04189 0.143951,0.107013 0.214843,0.144531 0.121299,0.06698 0.241885,0.169837 0.216797,0.287109 -0.03338,0.171476 -0.314484,0.161529 -0.43164,0.28711 0.01611,0.242644 -0.08192,0.198183 -0.144531,0.361328 0.03775,0.104727 0.127959,0.0894 0.144531,0.214844 -0.02072,0.133959 -0.194824,0.149077 -0.144531,0.287109 0.226027,0.17585 0.435024,0.02923 0.648437,0 0.468671,-0.05869 0.861643,0.01084 1.150391,-0.214844 -0.0305,-0.179025 0.1396,-0.229905 0.214843,-0.359375 0.152763,0.107097 0.281937,0.248298 0.431641,0.359375 -0.08792,0.03775 -0.279851,0.09435 -0.359375,0.144531 -0.117156,0.07941 -0.153082,0.199278 -0.287109,0.28711 -0.09621,0.06698 -0.331195,0.287109 -0.431641,0.287109 -0.1213,0 -0.343762,-0.101495 -0.431641,-0.07227 -0.125673,0.03775 -0.07478,0.238862 -0.216796,0.289062 -0.27618,0.100354 -0.767048,-0.271497 -0.863282,0.142578 0.117157,0.238456 0.511479,0.159408 0.720703,0.289063 0.129816,0.08378 0.325908,0.504239 0.359375,0.646484 0.03337,0.117156 0.05018,0.520996 0,0.646484 -0.129816,0.334667 -0.478322,0.297442 -0.863281,0.289063 -0.104727,0 -0.190783,0.0092 -0.287109,0 -0.648594,-0.04189 -1.291048,-0.249477 -1.583985,0.214844 0.02072,0.355589 0.07964,0.553703 0,0.863281 -0.05846,0.225796 -0.299676,0.379538 -0.287109,0.576172 0.0046,0.100354 0.191708,0.293561 0.216797,0.43164 0.01611,0.07527 -0.0336,0.220292 0,0.28711 0.10887,0.205082 0.381728,-0.03337 0.574219,0 0.184135,0.02923 0.359375,0.298917 0.359375,0.503906 0,0.146388 -0.05051,0.431974 -0.142579,0.574219 -0.184135,0.276088 -0.527379,0.210705 -0.791015,0.361328 -0.21751,0.125442 -0.301917,0.428928 -0.431641,0.646484 -0.138102,0.234266 -0.271278,0.313771 -0.216797,0.648438 -0.188279,0.372322 -0.401867,0.611115 -0.791015,0.791015 -0.113013,0.05018 -0.254763,0.139579 -0.359375,0.214844 -0.08378,0.05846 -0.169839,0.153059 -0.28711,0.287109 -0.146388,0.163191 -0.35214,0.235817 -0.43164,0.361329 -0.05869,0.09621 -0.0095,0.300009 -0.07227,0.429687 -0.09207,0.175849 -0.242219,0.328194 -0.359375,0.503906 -0.05432,0.08378 -0.158334,0.180101 -0.216797,0.289063 -0.133959,0.242645 -0.31222,0.43314 -0.287109,0.646484 0.02071,0.205081 0.274565,0.251741 0.287109,0.431641 0.01151,0.100354 -0.0764,0.178308 -0.07227,0.287109 0.0046,0.159047 0.05984,0.233863 0.07227,0.359375 0.02923,0.309578 -0.156381,0.43507 -0.214843,0.648438 -0.02923,0.100354 0.02509,0.207631 0,0.287109 -0.05018,0.154904 -0.284874,0.247575 -0.289063,0.431641 -0.0046,0.129816 0.204368,0.247666 0.216797,0.43164 0.0092,0.125443 -0.09736,0.242242 -0.07227,0.359375 0.04603,0.226027 0.472704,0.544991 0.648438,0.720703 0.238525,0.238479 0.469629,0.395462 0.574218,0.646485 0.08792,0.213367 0.124035,0.559772 0.28711,0.71875 0.121299,0.117157 0.349094,0.167832 0.503906,0.289062 0.146388,0.113013 0.349071,0.165719 0.503906,0.28711 0.255258,0.200938 0.601886,0.60352 1.007813,0.574219 0.213367,-0.01611 0.407959,-0.100918 0.646484,-0.142579 0.246879,-0.04189 0.539947,-0.169619 0.791016,-0.144531 0.192422,0.02071 0.375326,0.15719 0.576172,0.144531 0.209224,-0.01151 0.480248,-0.1123 0.71875,-0.216797 0.414282,-0.179991 1.051737,-0.519495 1.654297,-0.43164 0.460293,0.06698 0.468801,0.586027 0.791015,0.791016 0.368225,0.03338 0.642633,-0.07112 0.935547,0 0.221883,0.05432 0.482983,0.472748 0.503906,0.648437 0.02072,0.179992 -0.119443,0.318696 -0.144531,0.431641 -0.05846,0.242644 -0.102871,0.563961 -0.144531,0.71875 -0.03337,0.1213 -0.07445,0.238053 -0.07031,0.359375 0,0.10887 0.174004,0.361661 0.28711,0.503906 0.138101,0.175849 0.336527,0.311461 0.503906,0.503906 0.305481,0.3514 0.433071,0.830532 0.646484,1.294922 0.05432,0.117157 -0.05018,0.140652 0,0.287109 -0.09207,0.702846 -0.330722,1.163272 -0.791015,1.941407 -0.21751,0.250999 -0.435831,0.549537 -0.431641,0.863281 -0.01611,0.753023 0.392865,1.143159 0.359375,1.871094 -0.07527,0.978924 0.0034,1.131375 -0.07227,1.654296 0.330593,0.167333 0.168475,0.658627 0.07227,1.00586 -0.142244,0.414144 -0.279875,0.516858 -0.359375,0.792969 0.171614,0.07434 0.31583,0.09126 0.503906,0.07031 -3.768922,3.918454 -9.094763,6.330074 -14.960937,6.330074 -2.74592,0 -5.371464,-0.53948 -7.769531,-1.50976 -0.0081,-0.002 0.0081,-0.0691 0,-0.0723 0.21751,-0.0921 0.633967,0.16091 0.792968,-0.14453 0.07964,-0.14638 -0.104727,-0.42779 0,-0.57422 0.07527,-0.10035 0.563938,-0.19171 0.71875,-0.2168 0.221883,-0.0378 0.448684,0.007 0.574219,-0.0723 0.138102,-0.08793 0.314174,-0.31484 0.289063,-0.574218 -0.01151,-0.121299 -0.120817,-0.17847 -0.216797,-0.28711 -0.07941,-0.09207 -0.01806,-0.20528 -0.07227,-0.289062 -0.100354,-0.146387 -0.245264,-0.218043 -0.287109,-0.431641 0.301292,-0.05846 0.715209,0.338304 1.15039,0.216797 0.205082,-0.05869 0.552181,-0.456016 0.648438,-0.648437 0.02923,-0.05869 -0.03337,-0.288138 0,-0.359375 0.03775,-0.07941 0.129919,-0.102872 0.142578,-0.144532 0.02923,-0.113013 -0.02509,-0.144181 0,-0.214843 0.07527,-0.213367 0.306084,-0.349118 0.431641,-0.503907 0.09621,-0.117156 0.201068,-0.238052 0.289062,-0.359375 0.100354,-0.129815 0.148095,-0.174095 0.214844,-0.287109 0.06284,-0.3807 -0.234646,-0.673147 -0.142578,-1.007813 0.100354,-0.376512 0.641822,-0.619493 1.005859,-0.791015 0.125442,-0.05869 0.254763,-0.177326 0.359375,-0.214844 0.251069,-0.08793 0.556681,-0.06097 0.791016,-0.144531 0.39336,-0.142245 0.528189,-0.575792 0.720703,-0.935547 0.09207,-0.167334 0.198041,-0.310319 0.214844,-0.431641 0.01611,-0.10887 -0.02071,-0.233795 0,-0.359375 0.02071,-0.125442 0.03889,-0.221319 0.07227,-0.359375 0.04603,-0.179992 0.07227,-0.51795 0.07227,-0.71875 0,-0.167333 -0.06813,-0.208776 -0.07227,-0.359375 -0.02923,-0.543845 0.158552,-0.56627 0.359375,-0.863281 0.100354,-0.146388 0.145904,-0.39934 0.216797,-0.503906 0.338947,-0.502023 0.903173,-0.748389 0.861328,-1.509766 -0.01611,-0.251023 -0.103065,-0.783781 -0.287109,-0.863281 -0.104727,-0.04603 -0.349071,-0.01392 -0.503906,-0.07227 -0.493783,-0.184136 -0.850553,-0.749193 -1.365235,-0.791015 -0.10887,-0.0046 -0.16767,0.0046 -0.289062,0 -0.200938,-0.0046 -0.420527,-0.191708 -0.646485,-0.216797 -0.142244,-0.01611 -0.420217,0.04189 -0.503906,0 -0.129816,-0.06284 -0.110347,-0.288252 -0.214844,-0.359375 -0.08378,-0.05869 -0.229675,-0.09849 -0.359375,-0.144531 -0.205081,-0.07941 -0.337647,-0.125775 -0.576172,-0.142579 -0.07527,-0.0046 -0.275753,0.01151 -0.359374,0 -0.129816,-0.02072 -0.238029,-0.141531 -0.359376,-0.216796 -0.150531,-0.09207 -0.226294,-0.157387 -0.289062,-0.28711 0.138102,-0.451823 -0.339573,-0.527471 -0.431641,-0.791015 -0.04189,-0.121299 0.04189,-0.322863 0,-0.431641 -0.05432,-0.154904 -0.187784,-0.22972 -0.359375,-0.359375 -0.301292,-0.234289 -0.574844,-0.44954 -1.005859,-0.503906 -0.192422,-0.02071 -0.418291,0.01611 -0.648437,0 -0.242692,-0.01611 -0.534637,-0.150243 -0.71875,-0.359375 -0.175849,-0.205082 -0.204564,-0.407695 -0.359376,-0.503906 -0.146388,-0.09207 -0.403483,-0.118864 -0.503906,-0.214844 -0.04603,-0.04189 -0.03037,-0.120816 -0.07227,-0.216797 -0.07527,-0.150761 -0.234646,-0.175401 -0.142579,-0.359375 -0.167332,-0.08378 -0.109139,0.105868 -0.289062,0.07227 -0.16319,-0.230171 -0.278259,-0.358232 -0.646484,-0.28711 -0.167333,0.03338 -0.307227,0.282944 -0.503907,0.28711 -0.16319,0.0046 -0.290493,-0.257832 -0.503906,-0.28711 -0.163191,-0.02071 -0.390916,0.167666 -0.503906,0.142578 -0.179993,-0.03337 -0.196277,-0.250413 -0.359375,-0.359375 -0.121299,-0.07964 -0.364685,-0.291275 -0.431641,-0.287109 -0.209224,0.0046 -0.357759,0.441898 -0.646484,0.287109 -0.142245,-0.179992 0.239736,-0.192134 0.07227,-0.359375 -0.125441,-0.125442 -0.18857,0.0054 -0.289062,0.07227 -0.117156,0.07941 -0.229674,0.16904 -0.359375,0.214844 -0.288747,0.10887 -0.492793,0.09987 -0.71875,0.216796 -0.209224,0.10887 -0.23803,0.29054 -0.359375,0.503907 -0.09621,0.175849 -0.285184,0.421309 -0.431641,0.429687 -0.17585,0.01151 -0.344882,-0.220199 -0.503906,-0.287109 -0.481215,-0.209224 -0.752865,0.140388 -1.150391,0.144531 -0.368248,0.0046 -0.880014,-0.58829 -0.863281,-0.935547 0.01151,-0.213367 0.119442,-0.52747 0.144531,-0.791015 0.02072,-0.209224 0.210931,-0.383728 0.214844,-0.576172 0.0046,-0.255189 -0.408793,-0.472653 -0.576172,-0.501953 -0.39336,-0.07112 -0.917485,0.175849 -1.365234,0 -0.08378,-0.142245 0.164667,-0.22325 0.214844,-0.361329 0.02923,-0.07941 -0.02923,-0.126918 0,-0.214843 0.05018,-0.133959 0.226318,-0.21713 0.289062,-0.359375 0.04603,-0.10887 0.02427,-0.297751 0.07031,-0.431641 0.05432,-0.150761 0.204138,-0.250596 0.216797,-0.359375 0.01611,-0.142244 -0.104014,-0.339597 -0.216797,-0.43164 -0.347326,0.02072 -0.590148,0.05143 -0.791016,0.142578 -0.451915,0.205081 -0.334889,0.793324 -0.791015,0.935546 -0.154905,0.05018 -0.398462,0.115301 -0.574219,0.144532 0.297639,-1.505939 0.760355,-2.947004 1.365234,-4.316406 0.159047,0.02923 0.293563,0.131871 0.431641,0.144531 0.384982,0.02923 0.400702,-0.264308 0.71875,-0.431641 0.326404,0.04603 0.495866,-0.03338 0.792968,0 0.200939,0.02071 0.487484,0.274565 0.646485,0.28711 0.133958,0.0046 0.161551,-0.163525 0.287109,-0.142579 0.125442,0.02071 0.338453,0.279065 0.359375,0.429688 0.02072,0.188278 -0.12486,0.366994 -0.07031,0.576172 0.196795,0.200938 0.582912,0.314507 0.863281,0.43164 0.184136,-0.150761 0.02923,-0.501193 0,-0.71875 -0.0046,-0.09621 0.01151,-0.201046 0,-0.289062 -0.02072,-0.150531 -0.07227,-0.300011 -0.07227,-0.429688 0,-0.598234 0.461567,-0.845788 0.863282,-1.080078 0.171476,-0.100354 0.351307,-0.284063 0.501953,-0.359375 0.213367,-0.104727 0.328149,-0.116443 0.503906,-0.216797 0.318003,-0.179992 0.616378,-0.369206 0.863281,-0.574218 0.113013,-0.2719 -0.01151,-0.595549 0,-0.863282 0.113013,-0.07112 0.16588,0.01151 0.28711,0 0.192422,-0.04189 0.252504,-0.322885 0.361328,-0.43164 0.06284,-0.06284 0.283971,-0.08192 0.359375,-0.144531 0.192421,-0.150762 0.191926,-0.364684 0.359375,-0.431641 0.05869,-0.02071 0.194926,-0.04522 0.287109,-0.07031 0.125672,-0.03337 0.30306,-0.145904 0.503906,-0.216796 0.129816,-0.04603 0.453684,-0.02221 0.503907,-0.07227 0.06284,-0.06284 -0.01611,-0.335407 0,-0.431641 0.100354,-0.472722 0.800018,-0.487483 1.222656,-0.646484 0.292913,-0.113014 0.609144,-0.349877 0.935547,-0.287109 -0.06284,0.225796 -0.343476,0.157718 -0.289063,0.429687 0.07112,0.3807 0.514526,-0.08826 0.648438,-0.142578 0.255258,-0.10887 0.743343,-0.165719 1.078125,-0.287109 0.292914,-0.104497 0.780063,-0.309582 0.503906,-0.648438 -0.23017,-0.01611 -0.30306,0.203419 -0.503906,0.287109 -0.138102,0.02071 -0.170023,-0.06202 -0.28711,-0.07031 -0.113013,-0.0046 -0.174004,0.09125 -0.287109,0.07031 -0.113013,-0.02071 -0.272329,-0.225508 -0.289062,-0.359375 -0.04603,-0.3514 0.361661,-0.459372 0.503906,-0.71875 -0.09621,-0.317956 -0.523213,-0.01909 -0.791016,-0.144531 0.02923,-0.188278 0.137607,-0.393963 0.359375,-0.431641 0.179993,-0.02923 0.609949,0.05753 0.71875,0.144532 0.06284,0.05432 -0.02374,0.19907 0.07227,0.287109 0.10887,0.09621 0.289372,0.02072 0.43164,0 0.05018,-0.238455 -0.328954,-0.13232 -0.287109,-0.287109 0.284535,-0.184136 0.803066,-0.0985 1.150391,-0.144532 0.200938,-0.02923 0.396225,-0.190829 0.576171,-0.287109 0.167333,-0.09621 0.326197,-0.231333 0.501954,-0.07227 0.05018,0.171475 -0.118863,0.271518 -0.214844,0.359374 -0.322214,0.284466 -0.612212,0.60507 -0.863281,0.935547 0.154905,0.150761 0.387037,0.04304 0.646484,0.07227 0.100354,0.01151 0.256693,0.0557 0.361328,0.07227 0.125673,0.02071 0.258929,-0.02072 0.359375,0 0.175849,0.04189 0.18364,0.287109 0.359375,0.287109 0.284558,0 0.307836,-0.239196 0.144531,-0.431641 0.05018,-0.196795 0.141663,-0.365827 0.07031,-0.503906 -0.129816,-0.259378 -0.621373,0.04327 -0.646485,-0.287109 -0.01611,-0.209225 0.211752,-0.27264 0.28711,-0.431641 -0.03337,-0.4016 0.330907,-0.427049 0.289062,-0.791015 -0.02072,-0.150762 -0.184404,-0.145003 -0.289062,-0.28711 -0.05432,-0.07527 -0.07997,-0.234673 -0.142578,-0.289062 -0.21751,-0.184135 -0.623326,-0.150507 -0.648438,-0.501954 -0.01151,-0.209223 0.02923,-0.350283 0,-0.576171 -0.02923,-0.213368 -0.247596,-0.821437 -0.43164,-0.863282 -0.234335,-0.05018 -0.366116,0.374229 -0.646485,0.503907 -0.150531,0.07112 -0.42136,0.101724 -0.576172,0.07227 -0.100354,-0.02072 -0.274542,-0.09676 -0.287109,-0.289062 -0.01036,-0.110827 0.02587,-0.149246 0.07227,-0.214844 0.01082,-0.01542 -0.01128,-0.05602 0,-0.07227 1.820627,-0.523242 3.764999,-0.791015 5.753906,-0.791015 z m -8.560547,1.86914 c -0.204207,0.653937 -0.794922,1.028075 -1.582031,1.007813 -0.192421,0.184135 -0.110347,0.535804 -0.214844,0.791015 -0.08792,0.213368 -0.362782,0.376133 -0.576172,0.359376 -0.154904,-0.01151 -0.431641,-0.212965 -0.43164,-0.359376 0,-0.119988 0.116703,-0.255277 0.144531,-0.359374 0.847127,-0.547736 1.734016,-1.018064 2.660156,-1.439454 z m 17.623047,0.71875 c -0.07711,0.01381 -0.146944,0.03245 -0.214844,0.07227 -0.159048,0.09621 -0.167671,0.243052 -0.289062,0.289062 -0.171477,0.06284 -0.40653,0.06017 -0.431641,0.214844 -0.02071,0.129815 0.148904,0.169999 0.144531,0.28711 -0.06284,0.154904 -0.183192,0.172934 -0.216797,0.361328 0.213367,0.347233 0.744199,0.0034 1.007813,-0.07227 0.117156,-0.03337 0.224342,0.01899 0.287109,-0.07227 0.07112,-0.113014 0.01783,-0.344928 0.07227,-0.503906 0.05869,-0.17585 0.237743,-0.132343 0.216797,-0.287109 -0.01611,-0.154904 -0.316725,-0.314152 -0.576172,-0.289063 z m -22.800781,2.66211 c 0.153431,0.185194 0.281868,0.454978 0,0.576172 -0.04189,0.02071 -0.548015,0.0932 -0.648438,0.07227 -0.03117,-0.0044 -0.04234,-0.05284 -0.07031,-0.07227 0.219973,-0.213667 0.489485,-0.372371 0.71875,-0.576172 z m 0.574218,0.71875 c 0.100354,0.0046 0.171815,0.208511 0.289063,0.216797 0.113014,0.0092 0.292304,-0.09321 0.359375,-0.07227 0.17585,0.04603 0.239736,0.374205 0.07227,0.503906 -0.1381,0.01611 -0.188777,-0.165477 -0.289062,-0.144531 -0.284558,0.05018 -0.360806,0.592906 -0.574219,0.576172 -0.200938,-0.02072 -0.349682,-0.429739 -0.144531,-0.576172 0.0046,-0.125673 -0.08079,-0.161552 -0.07227,-0.287109 0.06284,-0.07941 0.191904,-0.229226 0.359375,-0.216797 z m -0.933593,0.144531 c 0.05869,0 0.04936,-0.02509 0.07031,0 -0.02923,0.221653 -0.115702,0.254786 -0.287109,0.359375 -0.297103,0.179992 -0.477962,0.406127 -0.574219,0.791016 -0.02923,0.113014 -0.361638,0.460895 -0.503906,0.43164 -0.330592,-0.07112 0.139578,-0.694804 0.214844,-0.791015 0.08378,-0.104727 0.19292,-0.169839 0.289062,-0.28711 0.09621,-0.117157 0.123006,-0.364707 0.214844,-0.43164 0.100354,-0.07112 0.400437,-0.08079 0.576172,-0.07227 z m 28.339843,0.576172 c 0.330569,-0.02072 0.495839,0.373396 0.646485,0.574219 0.125443,0.16319 0.513669,0.390939 0.71875,0.503906 0.117156,0.06284 0.229651,0.158334 0.359375,0.216797 0.135984,0.06065 0.343305,0.13957 0.503906,0.287109 0.160589,0.147539 0.282779,0.370039 0.289063,0.503906 0.0046,0.133958 -0.09321,0.233863 -0.07227,0.359375 0.144961,0.02359 0.219554,-0.125297 0.287109,-0.289062 0.542369,0.773664 1.005167,1.601029 1.439453,2.447265 -0.08811,0.05457 -0.126693,0.107032 -0.144531,0.214844 -0.04189,0.234266 0.134672,0.53435 -0.216797,0.576172 -0.221653,0.02923 -0.485557,-0.222221 -0.791015,-0.289062 -0.125443,-0.02923 -0.331218,0.03337 -0.431641,0 -0.23017,-0.07941 -0.162672,-0.363897 -0.359375,-0.501954 -0.113013,-0.07964 -0.394272,-0.196081 -0.574219,-0.216796 -0.113013,-0.01151 -0.171998,0.01611 -0.289062,0 -0.142245,-0.01611 -0.386749,-0.0011 -0.503906,-0.07227 -0.113013,-0.07112 -0.400388,-0.190806 -0.429688,-0.287109 -0.04603,-0.154904 0.35102,-0.374206 0.359375,-0.503907 0.0092,-0.100354 -0.123585,-0.136509 -0.144531,-0.287109 -0.01611,-0.09207 0.02072,-0.228507 0,-0.287109 -0.02923,-0.10887 -0.187853,-0.212653 -0.359375,-0.216797 -0.150761,0 -0.301918,0.07227 -0.431641,0.07227 -0.184136,0.0046 -0.56087,-0.0932 -0.791016,-0.07227 -0.138102,0.01151 -0.229651,0.06397 -0.359374,0.07227 -0.364059,0.02923 -0.578723,-0.02071 -0.863282,0 -0.205081,0.01151 -0.598525,0.12715 -0.791015,0.214844 -0.09621,0.04603 -0.163506,0.154191 -0.289063,0.216797 -0.05846,0.02923 -0.139349,0.03889 -0.214844,0.07227 -0.117156,0.05432 -0.31865,0.185612 -0.43164,0.214843 -0.16319,0.04189 -0.351335,-0.01151 -0.648438,0 -0.213367,0.01151 -0.570029,-0.03199 -0.574218,-0.287109 -0.0046,-0.389055 0.709899,-0.220267 1.078124,-0.287109 0.138103,-0.02923 0.191928,-0.192922 0.359376,-0.289063 0.07964,-0.04603 0.14153,-0.0924 0.216796,-0.142578 0.125442,-0.08792 0.338452,-0.260905 0.359375,-0.361328 0.01611,-0.09207 -0.08492,-0.220291 -0.07227,-0.287109 0.01611,-0.08792 0.174141,-0.174166 0.287109,-0.28711 0.175849,-0.17585 0.286303,-0.390962 0.503906,-0.503906 0.146387,-0.07941 0.436951,-0.09792 0.503907,-0.214844 0.01611,-0.133958 -0.0046,-0.16767 0,-0.289062 0.09207,-0.08378 0.06927,-0.126005 0.144531,-0.142578 0.226027,-0.05018 0.455137,0.08297 0.71875,0.07031 0.113013,-0.0046 0.23803,0.0099 0.359375,-0.07031 0.100354,-0.06698 0.186663,-0.16662 0.287109,-0.216797 0.10887,-0.05869 0.227277,-0.206557 0.361328,-0.214844 z m -25.726562,0.199219 c 0.05361,-0.0052 0.09822,-0.0053 0.119141,0.01563 -0.06698,0.276112 -0.717945,0.172847 -0.935547,0.07227 0.0058,-0.05236 0.08915,-0.06342 0.144531,-0.07227 0.05538,-0.0087 0.147819,0.0062 0.214844,0 0.09621,-0.0046 0.18445,0 0.289062,0 0.05236,0 0.114362,-0.01039 0.167969,-0.01563 z m 25.828125,0.492187 c -0.006,0.0053 -0.01042,0.01929 -0.03125,0.02734 -0.138102,0.04603 -0.205081,0.321742 0,0.359375 0.09621,-0.05846 0.09759,-0.18364 0.07227,-0.359375 -0.02716,-0.02923 -0.03503,-0.03264 -0.04102,-0.02734 z m -27.291016,0.02734 c 0.07112,0 0.139579,-0.02923 0.214844,0 -0.192421,0.16319 -0.456235,0.254786 -0.791016,0.359375 -0.159048,0.05018 -0.40234,0.103355 -0.43164,-0.07227 -0.0336,-0.21751 0.146725,-0.194129 0.289062,-0.214844 0.184135,-0.02072 0.505337,-0.06812 0.71875,-0.07227 z m 27.189453,0.576172 c -0.06698,0.02071 -0.145904,-0.0053 -0.216797,0.07031 0.0046,0.234267 0.04603,0.371183 0,0.576172 0.133959,0.259378 0.436973,0.103355 0.503907,-0.07227 0.07964,-0.435091 -0.08627,-0.628608 -0.28711,-0.574219 z m 1.796875,1.15039 c -0.184136,-0.0092 -0.322839,0.05557 -0.43164,0.142579 0.154904,0.251022 0.443689,0.298561 0.791015,0.361328 0.125442,-0.09207 0.08607,-0.344929 0.144532,-0.503907 -0.150761,0 -0.247528,0.0092 -0.431641,0 z m -36.539062,8.847657 c 0.146986,0.187289 0.306294,0.40417 0.503906,0.501953 0.104727,0.05432 0.225462,0.04304 0.359375,0.07227 0.10887,0.02071 0.182543,0.111158 0.287109,0.144532 0.221883,0.07527 0.54497,0.06317 0.720704,0.142578 0.267826,0.117156 0.416315,0.586813 0.646484,0.720703 0.01151,0.133959 -0.04189,0.258975 0,0.359375 0.10887,0.146388 0.328126,0.19099 0.503906,0.287109 0.213367,0.117156 0.30306,0.411863 0.503906,0.503907 0.07112,0.02923 0.178147,-0.03337 0.28711,0 0.27618,0.08378 0.337647,0.50274 0.576172,0.43164 0.154904,-0.04603 0.189756,-0.28104 0.214844,-0.43164 0.104728,-0.113013 0.196047,-0.28711 0.359374,-0.28711 0.259425,-0.0046 0.335384,0.319053 0.431641,0.574219 0.05432,0.142245 0.179279,0.28104 0.216797,0.431641 0.06284,0.259377 0.05432,0.995601 0,1.15039 -0.06698,0.192421 -0.344882,0.294728 -0.503906,0.503906 -0.07527,0.100354 -0.158334,0.222222 -0.216797,0.289063 -0.100354,0.125443 -0.211682,0.174234 -0.287109,0.287109 -0.04189,0.06284 -0.03475,0.199278 -0.07227,0.28711 -0.125672,0.267733 -0.319526,0.46887 -0.214844,0.791015 0.04189,0.129816 0.214844,0.276875 0.214844,0.431641 0,0.184135 -0.402341,0.23084 -0.431641,0.43164 -0.02072,0.146389 0.170993,0.451805 0.216797,0.648438 0.03337,0.146388 0.271497,0.263141 0.359375,0.359375 0.146388,0.163191 0.297729,0.365041 0.431641,0.574219 0.263613,0.405789 0.387083,0.897488 0.646484,1.294922 0.138102,0.205081 0.411838,0.358638 0.503906,0.576172 0.04603,0.10887 -0.04189,0.331263 0,0.43164 0.150531,0.338879 0.88371,0.695948 1.222657,0.863281 0.159048,0.07964 0.285206,0.131062 0.43164,0.214844 0.221884,0.125672 0.678049,0.379561 0.791016,0.576172 0.100354,0.175849 0.16662,0.583004 0.216797,0.863281 0.06284,0.368157 -0.01611,0.680668 0,1.078125 0.01151,0.21751 0.07031,0.358615 0.07031,0.576172 0,0.07527 0.0046,0.211843 0,0.287109 -0.0046,0.259378 0.02072,0.527472 0,0.791016 -0.01151,0.142245 -0.0092,0.310319 0,0.431641 0.01151,0.129816 0.136246,0.174096 0.144532,0.287109 0.0092,0.121299 -0.157191,0.265117 -0.144532,0.361328 0.02923,0.263567 0.311105,0.476105 0.361328,0.71875 0.04189,0.192421 0.0954,0.633181 0.07031,0.863282 -0.01611,0.1213 -0.05351,0.297774 -0.07031,0.43164 -0.01151,0.104727 0.01611,0.190899 0,0.28711 -5.735164,-3.683932 -9.566406,-10.083522 -9.566406,-17.40625 0,-0.938806 0.09387,-1.826716 0.214844,-2.732422 z M 51.123962,81.25 c 0.200938,-0.09207 0.16319,0.263951 0,0.289062 -0.154904,0.02071 -0.150531,-0.217825 0,-0.289062 z"
     id="path4774"
     inkscape:connector-curvature="0"
     sodipodi:nodetypes="ssssssssscssccssscscsccssscccccccccccccccsccccccccccccccsccccccccccccccccccccccccccccccccccccccccccccccccsccccccccccccccccccccccccccscccccccccccccccccccccccccccccccccccccccccccccccccccccccccccccccccccsccccccccccccccccccccccccccccccccccccccscccccccccccccccsccccscccccccccccccccccccccccccccccccccccccccccccccccccccccccccccccccccccccccccccccccccccccccscscccsccccccccccccccccccccccccccccccccccccccsccccccccccccscccccccccscccc" />
</svg>
