<svg height="128" width="128" xmlns="http://www.w3.org/2000/svg" xmlns:xlink="http://www.w3.org/1999/xlink"><linearGradient id="a" gradientUnits="userSpaceOnUse" x1="-33.76462570504" x2="-33.76462570504" y1="1105.881971868" y2="1113.1935123816"><stop offset="0" stop-color="#a5e3fe"/><stop offset="1" stop-color="#b6e7fe"/></linearGradient><linearGradient id="b" gradientUnits="userSpaceOnUse" x1="-24.33128572721" x2="-24.33128572721" y1="1110.91035564746" y2="1147.22786238757"><stop offset="0" stop-color="#75d3f9"/><stop offset=".5" stop-color="#84dafd"/><stop offset="1" stop-color="#81d4f6"/></linearGradient><linearGradient id="c" gradientUnits="userSpaceOnUse" x1="-34.46542705667" x2="-34.46542705667" y1="1109.70835527696" y2="1111.6424560796"><stop offset="0" stop-color="#a5e3fe" stop-opacity="0"/><stop offset="1" stop-color="#c2ebfe" stop-opacity=".742537"/></linearGradient><filter id="d" color-interpolation-filters="sRGB" height="1.040659" width="1.032299" x="-.01615" y="-.020329"><feGaussianBlur stdDeviation=".81567628"/></filter><linearGradient id="e" gradientUnits="userSpaceOnUse" x1="-67.81496984975" x2="-69.08757436967" y1="1119.13840894375" y2="1145.54893256357"><stop offset="0" stop-color="#1296d5"/><stop offset="1" stop-color="#4fb6e8"/></linearGradient><g transform="matrix(2.213863 0 0 2.213863 109.49068722118 -2416.89615560948)"><path d="m7.6230469 27.083984c-2.5051343 0-4.5214844 2.016277-4.5214844 4.521485v15.25 56.753911 15.24804c0 2.50521 2.0163501 4.52149 4.5214844 4.52149h112.0898431c2.50514 0 4.52344-2.01628 4.52344-4.52149v-7.94336-46.158201c.04991-.336064.08398-.676121.08398-1.021484v-19.689453c0-.377021-.03322-.743542-.08398-1.103516v-1.595703c0-2.504986-2.0183-4.521484-4.52344-4.521484h-70.96289c-4.235777 0-6.116942-9.740235-10.644531-9.740235z" filter="url(#d)" opacity=".19" transform="matrix(.45169913 0 0 .45169913 -49.456849 1091.7099)"/><path d="m-46.013647 1103.9436c-1.131567 0-2.042289.9113-2.042289 2.0429v32.5235c0 1.1316.910722 2.0423 2.042289 2.0423h.739172c.174211.051.358352.079.549527.079h48.0539624c1.0739668 0 1.9385959 2.2673 1.9385959 1.1933v-1.0286c.8108474.5767 1.3929488 1.9171 1.3929488 1.0131v-20.8493c.022543-.1518.03826-.3054.03826-.4614v-8.8939c0-.1703-.015331-.3359-.03826-.4985v-.7209c0-1.1315-.9112788-2.0422-2.0428459-2.0422h-32.0544582c-1.913297 0-2.763116-4.3996-4.808224-4.3996z" fill="url(#a)"/><path d="m-46.013647 1103.9436c-1.131567 0-2.042289.9113-2.042289 2.0429v32.5235c0 1.1316.910722 2.0423 2.042289 2.0423h50.6313602c1.1315671 0 2.0428459 2.3887 2.0428459 1.2571v-20.8493c.022543-.1518.03826-.3054.03826-.4614v-8.8939c0-.1703-.015331-.3359-.03826-.4985v-.7209c0-1.1315-.9112788-2.0422-2.0428459-2.0422h-32.0544582c-1.913297 0-2.763116-4.3996-4.808224-4.3996z" fill="url(#c)"/><path d="m-46.013636 1110.8318h50.6314338c1.1315673 0 2.0425393.911 2.0425393 2.0425v32.5236c0 1.1316-.910972 2.0425-2.0425393 2.0425h-50.6314338c-1.131567 0-2.04254-.9109-2.04254-2.0425v-32.5236c0-1.1315.910973-2.0425 2.04254-2.0425z" fill="url(#b)"/><g fill="#6fc1ec"><path d="m3.2402344 173.16211c.04118.23715.094771.47068.1582031.69922h194.1542925c.0634-.22854.11703-.46207.15821-.69922z" transform="matrix(.28102797437 0 0 .28102797437 -48.9343321453 1097.08818204992)"/><path d="m3.125 168.32227v.70117h194.70117v-.70117z" transform="matrix(.28102797437 0 0 .28102797437 -48.9343321453 1097.08818578286)"/><path d="m3.125 162.65625v.69922h194.70117v-.69922z" transform="matrix(.28102797437 0 0 .28102797437 -48.9343321453 1097.08819822601)"/></g><path d="m-48.073953 1143.0198v.2531h54.7352945v-.2784z" fill="#abdbf4"/><path d="m-48.073953 1144.5971v.2531h54.7352945v-.2785z" fill="#abdbf4"/><path d="m-48.073953 1145.9391v.2531h54.7352945v-.2785z" fill="#abdbf4"/><path d="m7.6230469 27.083984c-2.5051343 0-4.5214844 2.016277-4.5214844 4.521485v15.25 56.753911 15.24804c0 2.50521 2.0163501 4.52149 4.5214844 4.52149h112.0898431c2.50514 0 4.52344-2.01628 4.52344-4.52149v-7.94336-46.158201c.04991-.336064.08398-.676121.08398-1.021484v-19.689453c0-.377021-.03322-.743542-.08398-1.103516v-1.595703c0-2.504986-2.0183-4.521484-4.52344-4.521484h-70.96289c-4.235777 0-6.116942-9.740235-10.644531-9.740235zm0 .900391h30.4824221c.809202 0 1.540791.4263 2.330078 1.246094.789289.819572 1.562613 1.995969 2.34375 3.210937.781137 1.214747 1.569118 2.466274 2.496094 3.470703.926973 1.00443 2.070736 1.8125 3.474609 1.8125h70.96289c2.02217 0 3.62305 1.599616 3.62305 3.621094v1.658203l.00976.0625c.04655.330087.07422.654185.07422.978516v19.689453c0 .286031-.02852.580945-.07422.888672l-.00976.066406v46.224607 7.94336c0 2.02192-1.60082 3.6211-3.62305 3.6211h-112.0898431c-2.02222 0-3.6210938-1.59873-3.6210938-3.6211v-15.24804-56.753911-15.25c0-2.022364 1.5988738-3.621094 3.6210938-3.621094z" fill="#fff" fill-opacity=".488372" transform="matrix(.45169913 0 0 .45169913 -49.456849 1091.7099)"/><path d="m-23.136738 1115.1701c-.288287.01-.579177.085-.846563.2392-.855636.494-1.148174 1.5877-.654132 2.4433l1.828144 3.1659-5.845253 10.1262h-4.563376c-.988086 0-1.788578.8005-1.788574 1.7885 0 .9882.800488 1.7888 1.788574 1.7888h16.267077c.786022-1.4619-.226757-3.5773-2.022136-3.5773h-5.552718l7.673401-13.2921c.494044-.8556.201504-1.9493-.65413-2.4433-.855632-.4941-1.949432-.2008-2.443476.6548 0 0-.396556 1.3752-.794577 1.3773-.397358 0-.795349-1.3773-.795349-1.3773-.339657-.5882-.962681-.9104-1.596912-.894zm5.035935 6.8488c-1.0577.8739-2.127298 3.4697-.631628 6.0608 2.205309 3.819 4.410658 7.6387 6.614998 11.4577.494043.8556 1.587841 1.1483 2.4434755.6542.8556351-.4941 1.1481741-1.5871.654131-2.4427l-1.7474475-3.0285h2.5893566c.9880866 0 1.788574-.8005 1.7885701-1.7886 0-.9881-.8004835-1.7887-1.7885701-1.7887h-4.6549436c-1.755742-3.0415-3.512204-6.0826-5.267942-9.1242zm-11.633086 13.2679c-.542454.024-1.050219.3036-1.332313.7922l-1.28653 2.2285c-.45135.7818-.149837 1.7954.675854 2.272.825695.4768 1.854008.2308 2.305359-.5508l1.286529-2.2286c.451351-.7818.149833-1.7944-.675854-2.2712-.309634-.1788-.647576-.2566-.973045-.2421z" fill="url(#e)" opacity=".5"/></g></svg>