<?xml version="1.0" encoding="UTF-8" standalone="no"?>
<svg
   xmlns:dc="http://purl.org/dc/elements/1.1/"
   xmlns:cc="http://creativecommons.org/ns#"
   xmlns:rdf="http://www.w3.org/1999/02/22-rdf-syntax-ns#"
   xmlns:svg="http://www.w3.org/2000/svg"
   xmlns="http://www.w3.org/2000/svg"
   xmlns:xlink="http://www.w3.org/1999/xlink"
   id="svg48"
   version="1.1"
   width="128"
   height="128">
  <metadata
     id="metadata54">
    <rdf:RDF>
      <cc:Work
         rdf:about="">
        <dc:format>image/svg+xml</dc:format>
        <dc:type
           rdf:resource="http://purl.org/dc/dcmitype/StillImage" />
        <dc:title></dc:title>
      </cc:Work>
    </rdf:RDF>
  </metadata>
  <defs
     id="defs52">
    <linearGradient
       id="linearGradient4885">
      <stop
         id="stop4881"
         offset="0"
         style="stop-color:#1296d5;stop-opacity:1;" />
      <stop
         id="stop4883"
         offset="1"
         style="stop-color:#4fb6e8;stop-opacity:1" />
    </linearGradient>
    <style
       type="text/css"
       id="current-color-scheme">
      .ColorScheme-Text {
        color:#4d4d4d;
      }
      </style>
    <linearGradient
       id="linearGradient3866">
      <stop
         style="stop-color:#000000;stop-opacity:0.52083331"
         offset="0"
         id="stop3868" />
      <stop
         style="stop-color:#2883c3;stop-opacity:0;"
         offset="1"
         id="stop3870" />
    </linearGradient>
    <linearGradient
       id="linearGradient3874">
      <stop
         style="stop-color:#000d0e;stop-opacity:0.84105963;"
         offset="0"
         id="stop3876" />
      <stop
         style="stop-color:#000000;stop-opacity:0;"
         offset="1"
         id="stop3878" />
    </linearGradient>
    <style
       type="text/css"
       id="current-color-scheme-3">
      .ColorScheme-Text {
        color:#4d4d4d;
      }
      </style>
    <linearGradient
       gradientTransform="matrix(3.4414163,0,0,3.4414163,-76.19179,-162.20465)"
       gradientUnits="userSpaceOnUse"
       y2="77.951225"
       x2="40.407059"
       y1="61.076542"
       x1="40.32296"
       id="linearGradient4887"
       xlink:href="#linearGradient4885" />
  </defs>
  <linearGradient
     y2="1113.1935123816"
     y1="1105.881971868"
     x2="-33.76462570504"
     x1="-33.76462570504"
     gradientUnits="userSpaceOnUse"
     id="a">
    <stop
       id="stop2"
       stop-color="#a5e3fe"
       offset="0" />
    <stop
       id="stop4"
       stop-color="#b6e7fe"
       offset="1" />
  </linearGradient>
  <linearGradient
     y2="1147.22786238757"
     y1="1110.91035564746"
     x2="-24.33128572721"
     x1="-24.33128572721"
     gradientUnits="userSpaceOnUse"
     id="b">
    <stop
       id="stop7"
       stop-color="#75d3f9"
       offset="0" />
    <stop
       id="stop9"
       stop-color="#84dafd"
       offset=".5" />
    <stop
       id="stop11"
       stop-color="#81d4f6"
       offset="1" />
  </linearGradient>
  <linearGradient
     y2="1111.6424560796"
     y1="1109.70835527696"
     x2="-34.46542705667"
     x1="-34.46542705667"
     gradientUnits="userSpaceOnUse"
     id="c">
    <stop
       id="stop14"
       stop-opacity="0"
       stop-color="#a5e3fe"
       offset="0" />
    <stop
       id="stop16"
       stop-opacity=".742537"
       stop-color="#c2ebfe"
       offset="1" />
  </linearGradient>
  <filter
     y="-.020329"
     x="-.01615"
     width="1.032299"
     height="1.040659"
     color-interpolation-filters="sRGB"
     id="d">
    <feGaussianBlur
       id="feGaussianBlur19"
       stdDeviation=".81567628" />
  </filter>
  <g
     id="g46"
     transform="matrix(2.213863 0 0 2.213863 109.49068722118 -2416.89615560948)">
    <path
       id="path22"
       transform="matrix(.45169913 0 0 .45169913 -49.456849 1091.7099)"
       opacity=".19"
       filter="url(#d)"
       d="m7.6230469 27.083984c-2.5051343 0-4.5214844 2.016277-4.5214844 4.521485v15.25 56.753911 15.24804c0 2.50521 2.0163501 4.52149 4.5214844 4.52149h112.0898431c2.50514 0 4.52344-2.01628 4.52344-4.52149v-7.94336-46.158201c.04991-.336064.08398-.676121.08398-1.021484v-19.689453c0-.377021-.03322-.743542-.08398-1.103516v-1.595703c0-2.504986-2.0183-4.521484-4.52344-4.521484h-70.96289c-4.235777 0-6.116942-9.740235-10.644531-9.740235z" />
    <path
       id="path24"
       fill="url(#a)"
       d="m-46.013647 1103.9436c-1.131567 0-2.042289.9113-2.042289 2.0429v32.5235c0 1.1316.910722 2.0423 2.042289 2.0423h.739172c.174211.051.358352.079.549527.079h48.0539624c1.0739668 0 1.9385959 2.2673 1.9385959 1.1933v-1.0286c.8108474.5767 1.3929488 1.9171 1.3929488 1.0131v-20.8493c.022543-.1518.03826-.3054.03826-.4614v-8.8939c0-.1703-.015331-.3359-.03826-.4985v-.7209c0-1.1315-.9112788-2.0422-2.0428459-2.0422h-32.0544582c-1.913297 0-2.763116-4.3996-4.808224-4.3996z" />
    <path
       id="path26"
       fill="url(#c)"
       d="m-46.013647 1103.9436c-1.131567 0-2.042289.9113-2.042289 2.0429v32.5235c0 1.1316.910722 2.0423 2.042289 2.0423h50.6313602c1.1315671 0 2.0428459 2.3887 2.0428459 1.2571v-20.8493c.022543-.1518.03826-.3054.03826-.4614v-8.8939c0-.1703-.015331-.3359-.03826-.4985v-.7209c0-1.1315-.9112788-2.0422-2.0428459-2.0422h-32.0544582c-1.913297 0-2.763116-4.3996-4.808224-4.3996z" />
    <path
       id="path28"
       fill="url(#b)"
       d="m-46.013636 1110.8318h50.6314338c1.1315673 0 2.0425393.911 2.0425393 2.0425v32.5236c0 1.1316-.910972 2.0425-2.0425393 2.0425h-50.6314338c-1.131567 0-2.04254-.9109-2.04254-2.0425v-32.5236c0-1.1315.910973-2.0425 2.04254-2.0425z" />
    <g
       id="g36"
       fill="#6fc1ec">
      <path
         id="path30"
         transform="matrix(.28102797437 0 0 .28102797437 -48.9343321453 1097.08818204992)"
         d="m3.2402344 173.16211c.04118.23715.094771.47068.1582031.69922h194.1542925c.0634-.22854.11703-.46207.15821-.69922z" />
      <path
         id="path32"
         transform="matrix(.28102797437 0 0 .28102797437 -48.9343321453 1097.08818578286)"
         d="m3.125 168.32227v.70117h194.70117v-.70117z" />
      <path
         id="path34"
         transform="matrix(.28102797437 0 0 .28102797437 -48.9343321453 1097.08819822601)"
         d="m3.125 162.65625v.69922h194.70117v-.69922z" />
    </g>
    <path
       id="path38"
       fill="#abdbf4"
       d="m-48.073953 1143.0198v.2531h54.7352945v-.2784z" />
    <path
       id="path40"
       fill="#abdbf4"
       d="m-48.073953 1144.5971v.2531h54.7352945v-.2785z" />
    <path
       id="path42"
       fill="#abdbf4"
       d="m-48.073953 1145.9391v.2531h54.7352945v-.2785z" />
    <path
       id="path44"
       transform="matrix(.45169913 0 0 .45169913 -49.456849 1091.7099)"
       fill-opacity=".488372"
       fill="#fff"
       d="m7.6230469 27.083984c-2.5051343 0-4.5214844 2.016277-4.5214844 4.521485v15.25 56.753911 15.24804c0 2.50521 2.0163501 4.52149 4.5214844 4.52149h112.0898431c2.50514 0 4.52344-2.01628 4.52344-4.52149v-7.94336-46.158201c.04991-.336064.08398-.676121.08398-1.021484v-19.689453c0-.377021-.03322-.743542-.08398-1.103516v-1.595703c0-2.504986-2.0183-4.521484-4.52344-4.521484h-70.96289c-4.235777 0-6.116942-9.740235-10.644531-9.740235zm0 .900391h30.4824221c.809202 0 1.540791.4263 2.330078 1.246094.789289.819572 1.562613 1.995969 2.34375 3.210937.781137 1.214747 1.569118 2.466274 2.496094 3.470703.926973 1.00443 2.070736 1.8125 3.474609 1.8125h70.96289c2.02217 0 3.62305 1.599616 3.62305 3.621094v1.658203l.00976.0625c.04655.330087.07422.654185.07422.978516v19.689453c0 .286031-.02852.580945-.07422.888672l-.00976.066406v46.224607 7.94336c0 2.02192-1.60082 3.6211-3.62305 3.6211h-112.0898431c-2.02222 0-3.6210938-1.59873-3.6210938-3.6211v-15.24804-56.753911-15.25c0-2.022364 1.5988738-3.621094 3.6210938-3.621094z" />
  </g>
  <path
     style="color:#4d4d4d;fill:url(#linearGradient4887);fill-opacity:1;stroke:none;stroke-width:3.44141626;opacity:0.504"
     class="ColorScheme-Text"
     d="M 87.54899,67.138224 C 85.087272,62.908197 81.747704,59.559342 77.529943,57.090697 73.311338,54.622054 68.705939,53.387949 63.710705,53.387949 c -4.994789,0 -9.601471,1.23458 -13.819234,3.702748 -4.218201,2.468645 -7.557724,5.8175 -10.019486,10.047527 -2.461762,4.22999 -3.692423,8.849114 -3.692423,13.857449 0,6.015639 1.75029,11.425445 5.25175,16.230338 3.501022,4.804939 8.023696,8.129999 13.56802,9.975169 0.645475,0.12009 1.123302,0.0366 1.433923,-0.25108 0.310761,-0.28771 0.465933,-0.64727 0.465933,-1.07836 0,-0.072 -0.0073,-0.71872 -0.01823,-1.94092 -0.01101,-1.22262 -0.01825,-2.28903 -0.01825,-3.19886 l -0.824542,0.14274 c -0.525779,0.0966 -1.188858,0.13762 -1.989644,0.12591 -0.800346,-0.011 -1.631036,-0.0952 -2.49119,-0.25145 -0.860618,-0.15522 -1.660964,-0.51442 -2.401902,-1.077429 -0.7405,-0.56345 -1.266276,-1.300759 -1.576935,-2.210988 l -0.358857,-0.82729 c -0.239006,-0.55063 -0.615092,-1.162171 -1.129011,-1.83283 -0.513918,-0.671096 -1.033513,-1.12645 -1.559328,-1.366026 l -0.250741,-0.17971 c -0.167287,-0.120074 -0.322495,-0.264266 -0.465967,-0.431962 -0.143478,-0.167632 -0.250741,-0.335299 -0.322497,-0.503415 -0.07175,-0.167631 -0.01101,-0.305631 0.178988,-0.413882 0.191448,-0.107987 0.537639,-0.161058 1.039698,-0.161058 l 0.716744,0.107621 c 0.477828,0.09592 1.069161,0.382988 1.774483,0.862573 0.704846,0.479183 1.284323,1.102179 1.738397,1.868595 0.55001,0.98304 1.212613,1.731801 1.989644,2.247149 0.776586,0.515348 1.559326,0.772562 2.347775,0.772562 0.788488,0 1.469575,-0.05996 2.043346,-0.179363 0.573325,-0.119687 1.110964,-0.299784 1.612988,-0.539176 0.215225,-1.606071 0.800783,-2.840143 1.756478,-3.70275 -1.36222,-0.143846 -2.586729,-0.360182 -3.674416,-0.647303 -1.087209,-0.287702 -2.210512,-0.754957 -3.369431,-1.402662 -1.159392,-0.646827 -2.121199,-1.449847 -2.885892,-2.408209 -0.764728,-0.958769 -1.392156,-2.217102 -1.881844,-3.774639 -0.489726,-1.557974 -0.734788,-3.355043 -0.734788,-5.392163 0,-2.900167 0.944201,-5.368369 2.83223,-7.405491 -0.884387,-2.180497 -0.80082,-4.624873 0.250742,-7.33309 0.692985,-0.215605 1.720825,-0.05382 3.083041,0.485334 1.362216,0.539178 2.359673,1.001118 2.99325,1.384105 0.633579,0.382985 1.141313,0.707299 1.523677,0.970701 2.222845,-0.623 4.516961,-0.934538 6.882785,-0.934538 2.36586,0 4.660413,0.311482 6.883668,0.934538 l 1.362216,-0.862609 c 0.931461,-0.575341 2.031444,-1.102584 3.297322,-1.581767 1.266714,-0.479183 2.235142,-0.611103 2.904337,-0.395323 1.07535,2.708217 1.170853,5.152592 0.286601,7.333086 1.888031,2.037158 2.832271,4.505765 2.832271,7.405495 0,2.03712 -0.245615,3.839935 -0.734827,5.409841 -0.490128,1.570274 -1.122824,2.827767 -1.899415,3.774638 -0.77703,0.946871 -1.745022,1.743701 -2.903974,2.390529 -1.159358,0.647267 -2.28266,1.114519 -3.369868,1.402224 -1.087653,0.287703 -2.312164,0.503855 -3.674379,0.647707 1.242557,1.078352 1.863798,2.779708 1.863798,5.104494 v 7.584151 c 0,0.4311 0.149706,0.79069 0.448365,1.07792 0.29868,0.28732 0.770436,0.37153 1.415875,0.25147 5.544803,-1.84519 10.067478,-5.17024 13.568457,-9.97561 3.501028,-4.804487 5.251755,-10.214293 5.251755,-16.23037 -7.83e-4,-5.007455 -1.232855,-9.626143 -3.693742,-13.856132 v 0 z"
     id="path4774" />
</svg>
