<?xml version="1.0" encoding="UTF-8" standalone="no"?>
<svg
   xmlns:dc="http://purl.org/dc/elements/1.1/"
   xmlns:cc="http://creativecommons.org/ns#"
   xmlns:rdf="http://www.w3.org/1999/02/22-rdf-syntax-ns#"
   xmlns:svg="http://www.w3.org/2000/svg"
   xmlns="http://www.w3.org/2000/svg"
   xmlns:xlink="http://www.w3.org/1999/xlink"
   id="svg48"
   version="1.1"
   width="128"
   height="128">
  <metadata
     id="metadata54">
    <rdf:RDF>
      <cc:Work
         rdf:about="">
        <dc:format>image/svg+xml</dc:format>
        <dc:type
           rdf:resource="http://purl.org/dc/dcmitype/StillImage" />
        <dc:title></dc:title>
      </cc:Work>
    </rdf:RDF>
  </metadata>
  <defs
     id="defs52">
    <linearGradient
       id="linearGradient4885">
      <stop
         id="stop4881"
         offset="0"
         style="stop-color:#1296d5;stop-opacity:1;" />
      <stop
         id="stop4883"
         offset="1"
         style="stop-color:#4fb6e8;stop-opacity:1" />
    </linearGradient>
    <style
       type="text/css"
       id="current-color-scheme">
      .ColorScheme-Text {
        color:#4d4d4d;
      }
      </style>
    <linearGradient
       id="linearGradient3866">
      <stop
         style="stop-color:#000000;stop-opacity:0.52083331"
         offset="0"
         id="stop3868" />
      <stop
         style="stop-color:#2883c3;stop-opacity:0;"
         offset="1"
         id="stop3870" />
    </linearGradient>
    <linearGradient
       id="linearGradient3874">
      <stop
         style="stop-color:#000d0e;stop-opacity:0.84105963;"
         offset="0"
         id="stop3876" />
      <stop
         style="stop-color:#000000;stop-opacity:0;"
         offset="1"
         id="stop3878" />
    </linearGradient>
    <style
       type="text/css"
       id="current-color-scheme-3">
      .ColorScheme-Text {
        color:#4d4d4d;
      }
      </style>
    <linearGradient
       gradientTransform="matrix(3.4414163,0,0,3.4414163,1.3628387,-163.93047)"
       gradientUnits="userSpaceOnUse"
       y2="77.951225"
       x2="40.407059"
       y1="61.076542"
       x1="40.32296"
       id="linearGradient4887"
       xlink:href="#linearGradient4885" />
  </defs>
  <linearGradient
     y2="1113.1935123816"
     y1="1105.881971868"
     x2="-33.76462570504"
     x1="-33.76462570504"
     gradientUnits="userSpaceOnUse"
     id="a">
    <stop
       id="stop2"
       stop-color="#a5e3fe"
       offset="0" />
    <stop
       id="stop4"
       stop-color="#b6e7fe"
       offset="1" />
  </linearGradient>
  <linearGradient
     y2="1147.22786238757"
     y1="1110.91035564746"
     x2="-24.33128572721"
     x1="-24.33128572721"
     gradientUnits="userSpaceOnUse"
     id="b">
    <stop
       id="stop7"
       stop-color="#75d3f9"
       offset="0" />
    <stop
       id="stop9"
       stop-color="#84dafd"
       offset=".5" />
    <stop
       id="stop11"
       stop-color="#81d4f6"
       offset="1" />
  </linearGradient>
  <linearGradient
     y2="1111.6424560796"
     y1="1109.70835527696"
     x2="-34.46542705667"
     x1="-34.46542705667"
     gradientUnits="userSpaceOnUse"
     id="c">
    <stop
       id="stop14"
       stop-opacity="0"
       stop-color="#a5e3fe"
       offset="0" />
    <stop
       id="stop16"
       stop-opacity=".742537"
       stop-color="#c2ebfe"
       offset="1" />
  </linearGradient>
  <filter
     y="-.020329"
     x="-.01615"
     width="1.032299"
     height="1.040659"
     color-interpolation-filters="sRGB"
     id="d">
    <feGaussianBlur
       id="feGaussianBlur19"
       stdDeviation=".81567628" />
  </filter>
  <g
     id="g46"
     transform="matrix(2.213863 0 0 2.213863 109.49068722118 -2416.89615560948)">
    <path
       id="path22"
       transform="matrix(.45169913 0 0 .45169913 -49.456849 1091.7099)"
       opacity=".19"
       filter="url(#d)"
       d="m7.6230469 27.083984c-2.5051343 0-4.5214844 2.016277-4.5214844 4.521485v15.25 56.753911 15.24804c0 2.50521 2.0163501 4.52149 4.5214844 4.52149h112.0898431c2.50514 0 4.52344-2.01628 4.52344-4.52149v-7.94336-46.158201c.04991-.336064.08398-.676121.08398-1.021484v-19.689453c0-.377021-.03322-.743542-.08398-1.103516v-1.595703c0-2.504986-2.0183-4.521484-4.52344-4.521484h-70.96289c-4.235777 0-6.116942-9.740235-10.644531-9.740235z" />
    <path
       id="path24"
       fill="url(#a)"
       d="m-46.013647 1103.9436c-1.131567 0-2.042289.9113-2.042289 2.0429v32.5235c0 1.1316.910722 2.0423 2.042289 2.0423h.739172c.174211.051.358352.079.549527.079h48.0539624c1.0739668 0 1.9385959 2.2673 1.9385959 1.1933v-1.0286c.8108474.5767 1.3929488 1.9171 1.3929488 1.0131v-20.8493c.022543-.1518.03826-.3054.03826-.4614v-8.8939c0-.1703-.015331-.3359-.03826-.4985v-.7209c0-1.1315-.9112788-2.0422-2.0428459-2.0422h-32.0544582c-1.913297 0-2.763116-4.3996-4.808224-4.3996z" />
    <path
       id="path26"
       fill="url(#c)"
       d="m-46.013647 1103.9436c-1.131567 0-2.042289.9113-2.042289 2.0429v32.5235c0 1.1316.910722 2.0423 2.042289 2.0423h50.6313602c1.1315671 0 2.0428459 2.3887 2.0428459 1.2571v-20.8493c.022543-.1518.03826-.3054.03826-.4614v-8.8939c0-.1703-.015331-.3359-.03826-.4985v-.7209c0-1.1315-.9112788-2.0422-2.0428459-2.0422h-32.0544582c-1.913297 0-2.763116-4.3996-4.808224-4.3996z" />
    <path
       id="path28"
       fill="url(#b)"
       d="m-46.013636 1110.8318h50.6314338c1.1315673 0 2.0425393.911 2.0425393 2.0425v32.5236c0 1.1316-.910972 2.0425-2.0425393 2.0425h-50.6314338c-1.131567 0-2.04254-.9109-2.04254-2.0425v-32.5236c0-1.1315.910973-2.0425 2.04254-2.0425z" />
    <g
       id="g36"
       fill="#6fc1ec">
      <path
         id="path30"
         transform="matrix(.28102797437 0 0 .28102797437 -48.9343321453 1097.08818204992)"
         d="m3.2402344 173.16211c.04118.23715.094771.47068.1582031.69922h194.1542925c.0634-.22854.11703-.46207.15821-.69922z" />
      <path
         id="path32"
         transform="matrix(.28102797437 0 0 .28102797437 -48.9343321453 1097.08818578286)"
         d="m3.125 168.32227v.70117h194.70117v-.70117z" />
      <path
         id="path34"
         transform="matrix(.28102797437 0 0 .28102797437 -48.9343321453 1097.08819822601)"
         d="m3.125 162.65625v.69922h194.70117v-.69922z" />
    </g>
    <path
       id="path38"
       fill="#abdbf4"
       d="m-48.073953 1143.0198v.2531h54.7352945v-.2784z" />
    <path
       id="path40"
       fill="#abdbf4"
       d="m-48.073953 1144.5971v.2531h54.7352945v-.2785z" />
    <path
       id="path42"
       fill="#abdbf4"
       d="m-48.073953 1145.9391v.2531h54.7352945v-.2785z" />
    <path
       id="path44"
       transform="matrix(.45169913 0 0 .45169913 -49.456849 1091.7099)"
       fill-opacity=".488372"
       fill="#fff"
       d="m7.6230469 27.083984c-2.5051343 0-4.5214844 2.016277-4.5214844 4.521485v15.25 56.753911 15.24804c0 2.50521 2.0163501 4.52149 4.5214844 4.52149h112.0898431c2.50514 0 4.52344-2.01628 4.52344-4.52149v-7.94336-46.158201c.04991-.336064.08398-.676121.08398-1.021484v-19.689453c0-.377021-.03322-.743542-.08398-1.103516v-1.595703c0-2.504986-2.0183-4.521484-4.52344-4.521484h-70.96289c-4.235777 0-6.116942-9.740235-10.644531-9.740235zm0 .900391h30.4824221c.809202 0 1.540791.4263 2.330078 1.246094.789289.819572 1.562613 1.995969 2.34375 3.210937.781137 1.214747 1.569118 2.466274 2.496094 3.470703.926973 1.00443 2.070736 1.8125 3.474609 1.8125h70.96289c2.02217 0 3.62305 1.599616 3.62305 3.621094v1.658203l.00976.0625c.04655.330087.07422.654185.07422.978516v19.689453c0 .286031-.02852.580945-.07422.888672l-.00976.066406v46.224607 7.94336c0 2.02192-1.60082 3.6211-3.62305 3.6211h-112.0898431c-2.02222 0-3.6210938-1.59873-3.6210938-3.6211v-15.24804-56.753911-15.25c0-2.022364 1.5988738-3.621094 3.6210938-3.621094z" />
  </g>
  <path
     id="path4774"
     d="M 45.910097,60.067149 C 34.1131,60.067686 24.550181,69.63148 24.550722,81.428477 c 5.38e-4,11.796234 9.563141,21.358833 21.359375,21.359373 6.336905,0 11.997993,-2.74026 15.914062,-7.119139 h 3.773438 c 3.91607,4.378879 9.577157,7.119139 15.914063,7.119139 11.796233,-5.4e-4 21.35884,-9.563139 21.35937,-21.359373 5.4e-4,-11.796997 -9.562374,-21.360791 -21.35937,-21.361328 z m -3.558594,10.68164 h 7.119141 v 7.119141 h 7.11914 v 7.121094 h -7.11914 v 7.11914 h -7.119141 v -7.11914 H 35.230409 V 77.86793 h 7.121094 z m 44.5,0 c 2.949059,1.34e-4 5.33971,2.390785 5.339844,5.339844 -1.34e-4,2.949059 -2.390785,5.33971 -5.339844,5.339844 -2.949058,-1.34e-4 -5.339709,-2.390785 -5.339843,-5.339844 1.34e-4,-2.949059 2.390785,-5.33971 5.339843,-5.339844 z M 76.171816,81.428477 c 2.949059,1.34e-4 5.339709,2.390785 5.339844,5.339844 -1.35e-4,2.949058 -2.390786,5.339709 -5.339844,5.339843 -2.949821,9.45e-4 -5.341662,-2.390022 -5.341797,-5.339843 1.34e-4,-2.949822 2.391975,-5.340789 5.341797,-5.339844 z"
     style="color:#4d4d4d;opacity:0.50400002;fill:url(#linearGradient4887);fill-opacity:1;stroke:none;stroke-width:3.44141626" />
</svg>
