<svg height="128" width="128" xmlns="http://www.w3.org/2000/svg" xmlns:xlink="http://www.w3.org/1999/xlink"><linearGradient id="a" gradientUnits="userSpaceOnUse" x1="-33.76462570504" x2="-33.76462570504" y1="1105.881971868" y2="1113.1935123816"><stop offset="0" stop-color="#a5e3fe"/><stop offset="1" stop-color="#b6e7fe"/></linearGradient><linearGradient id="b" gradientUnits="userSpaceOnUse" x1="-24.33128572721" x2="-24.33128572721" y1="1110.91035564746" y2="1147.22786238757"><stop offset="0" stop-color="#75d3f9"/><stop offset=".5" stop-color="#84dafd"/><stop offset="1" stop-color="#81d4f6"/></linearGradient><linearGradient id="c" gradientUnits="userSpaceOnUse" x1="-34.46542705667" x2="-34.46542705667" y1="1109.70835527696" y2="1111.6424560796"><stop offset="0" stop-color="#a5e3fe" stop-opacity="0"/><stop offset="1" stop-color="#c2ebfe" stop-opacity=".742537"/></linearGradient><filter id="d" color-interpolation-filters="sRGB" height="1.040659" width="1.032299" x="-.01615" y="-.020329"><feGaussianBlur stdDeviation=".81567628"/></filter><linearGradient id="e" gradientUnits="userSpaceOnUse" x1="-21.40119916042" x2="-21.93932640195" y1="1115.60800073463" y2="1136.88969728849"><stop offset="0" stop-color="#1296d5"/><stop offset="1" stop-color="#4fb6e8"/></linearGradient><g transform="matrix(2.213863 0 0 2.213863 109.49068722118 -2416.89615560948)"><path d="m7.6230469 27.083984c-2.5051343 0-4.5214844 2.016277-4.5214844 4.521485v15.25 56.753911 15.24804c0 2.50521 2.0163501 4.52149 4.5214844 4.52149h112.0898431c2.50514 0 4.52344-2.01628 4.52344-4.52149v-7.94336-46.158201c.04991-.336064.08398-.676121.08398-1.021484v-19.689453c0-.377021-.03322-.743542-.08398-1.103516v-1.595703c0-2.504986-2.0183-4.521484-4.52344-4.521484h-70.96289c-4.235777 0-6.116942-9.740235-10.644531-9.740235z" filter="url(#d)" opacity=".19" transform="matrix(.45169913 0 0 .45169913 -49.456849 1091.7099)"/><path d="m-46.013647 1103.9436c-1.131567 0-2.042289.9113-2.042289 2.0429v32.5235c0 1.1316.910722 2.0423 2.042289 2.0423h.739172c.174211.051.358352.079.549527.079h48.0539624c1.0739668 0 1.9385959 2.2673 1.9385959 1.1933v-1.0286c.8108474.5767 1.3929488 1.9171 1.3929488 1.0131v-20.8493c.022543-.1518.03826-.3054.03826-.4614v-8.8939c0-.1703-.015331-.3359-.03826-.4985v-.7209c0-1.1315-.9112788-2.0422-2.0428459-2.0422h-32.0544582c-1.913297 0-2.763116-4.3996-4.808224-4.3996z" fill="url(#a)"/><path d="m-46.013647 1103.9436c-1.131567 0-2.042289.9113-2.042289 2.0429v32.5235c0 1.1316.910722 2.0423 2.042289 2.0423h50.6313602c1.1315671 0 2.0428459 2.3887 2.0428459 1.2571v-20.8493c.022543-.1518.03826-.3054.03826-.4614v-8.8939c0-.1703-.015331-.3359-.03826-.4985v-.7209c0-1.1315-.9112788-2.0422-2.0428459-2.0422h-32.0544582c-1.913297 0-2.763116-4.3996-4.808224-4.3996z" fill="url(#c)"/><path d="m-46.013636 1110.8318h50.6314338c1.1315673 0 2.0425393.911 2.0425393 2.0425v32.5236c0 1.1316-.910972 2.0425-2.0425393 2.0425h-50.6314338c-1.131567 0-2.04254-.9109-2.04254-2.0425v-32.5236c0-1.1315.910973-2.0425 2.04254-2.0425z" fill="url(#b)"/><g fill="#6fc1ec"><path d="m3.2402344 173.16211c.04118.23715.094771.47068.1582031.69922h194.1542925c.0634-.22854.11703-.46207.15821-.69922z" transform="matrix(.28102797437 0 0 .28102797437 -48.9343321453 1097.08818204992)"/><path d="m3.125 168.32227v.70117h194.70117v-.70117z" transform="matrix(.28102797437 0 0 .28102797437 -48.9343321453 1097.08818578286)"/><path d="m3.125 162.65625v.69922h194.70117v-.69922z" transform="matrix(.28102797437 0 0 .28102797437 -48.9343321453 1097.08819822601)"/></g><path d="m-48.073953 1143.0198v.2531h54.7352945v-.2784z" fill="#abdbf4"/><path d="m-48.073953 1144.5971v.2531h54.7352945v-.2785z" fill="#abdbf4"/><path d="m-48.073953 1145.9391v.2531h54.7352945v-.2785z" fill="#abdbf4"/><path d="m7.6230469 27.083984c-2.5051343 0-4.5214844 2.016277-4.5214844 4.521485v15.25 56.753911 15.24804c0 2.50521 2.0163501 4.52149 4.5214844 4.52149h112.0898431c2.50514 0 4.52344-2.01628 4.52344-4.52149v-7.94336-46.158201c.04991-.336064.08398-.676121.08398-1.021484v-19.689453c0-.377021-.03322-.743542-.08398-1.103516v-1.595703c0-2.504986-2.0183-4.521484-4.52344-4.521484h-70.96289c-4.235777 0-6.116942-9.740235-10.644531-9.740235zm0 .900391h30.4824221c.809202 0 1.540791.4263 2.330078 1.246094.789289.819572 1.562613 1.995969 2.34375 3.210937.781137 1.214747 1.569118 2.466274 2.496094 3.470703.926973 1.00443 2.070736 1.8125 3.474609 1.8125h70.96289c2.02217 0 3.62305 1.599616 3.62305 3.621094v1.658203l.00976.0625c.04655.330087.07422.654185.07422.978516v19.689453c0 .286031-.02852.580945-.07422.888672l-.00976.066406v46.224607 7.94336c0 2.02192-1.60082 3.6211-3.62305 3.6211h-112.0898431c-2.02222 0-3.6210938-1.59873-3.6210938-3.6211v-15.24804-56.753911-15.25c0-2.022364 1.5988738-3.621094 3.6210938-3.621094z" fill="#fff" fill-opacity=".488372" transform="matrix(.45169913 0 0 .45169913 -49.456849 1091.7099)"/><path d="m-21.401205 1115.608a11.91731 11.91731 0 0 0 -11.91709 11.918 11.91731 11.91731 0 0 0 11.91709 11.9171 11.91731 11.91731 0 0 0 11.9179804-11.9171 11.91731 11.91731 0 0 0 -11.9179804-11.918zm0 1.3022a10.61576 10.61576 0 0 1 10.61582 10.6158 10.61576 10.61576 0 0 1 -10.61582 10.6158 10.61576 10.61576 0 0 1 -10.615808-10.6158 10.61576 10.61576 0 0 1 10.615808-10.6158zm-.0882 1.2236-.812529.042.04058.8125.812529-.041zm1.69917.1403-.12352.8072.2382.035.51611.1324.20115-.787-.52934-.1367-.0397-.01zm-4.186162.2214-.199384.05-.03881.014-.569917.2091.278784.764.556683-.2029.173796-.045zm6.615802.5523-.35377.7367.38641.1852h.006l.28937.1738.42347-.6934-.29643-.1791-.0335-.02zm-8.949288.4747-.328187.2011-.03176.022-.343187.2576.486109.6502.334362-.2479.0097-.01.296423-.1782zm11.078098.9281-.54698.6008.44729.4067.0362.04-7.330403 4.7322-5.722111 7.8668 8.172044-5.2757 5.72211-7.8668-.24878.1606.0873-.079-.12881-.1403-.0273-.026zm-13.047222.6863-.359065.397-.02382.029-.167621.2241.650198.487.162332-.2152.0062-.01.333481-.3652zm14.726982 1.2263-.6952.4244.38995.6431.01.019h.003.002l.0291-.018.6996-.3379-.0159-.034-.0194-.033zm-16.193238.854-.305249.6335-.01324.034-.04147.1094.764008.2796.02558-.072.0035-.01.299075-.6211zm17.281018 1.4089-.76401.2806.0177.048.18174.6987.78694-.2029-.17909-.7013-.0141-.039zm-18.128839.9599-.0079.026-.0079.041-.1191.7755.804585.1226.117338-.7613.0018-.014-.130573-.02zm9.191899 1.1239a.81576935.81576935 0 0 1 .81606.8152.81576935.81576935 0 0 1 -.81606.8161.81576935.81576935 0 0 1 -.815175-.8161.81576935.81576935 0 0 1 .815175-.8152zm9.37629.4323-.81077.042.0159.3396-.0388.7932.81253.041.0406-.8125-.40582-.022.40582-.02zm-17.929455.9502-.810768.042.01588.3299.0035.041.07234.4764.804589-.1226-.07058-.457zm16.812555 1.745-.0671.2532-.002.01-.17203.4694.76224.2788.18526-.5056.0132-.039.0671-.2664zm-16.3538.5144-.764009.2814.195857.5293.01324.037.109392.225.73225-.3538-.103223-.2144-.0035-.011zm15.43541 1.6003-.21262.3556-.008.01-.20732.2796.6502.4861.21702-.2893.0221-.031.23379-.3882zm-14.388209.4597-.651084.4914.437584.584.02382.029.05646.062.601677-.547-.03176-.033-.0053-.01zm12.938709 1.3471-.41729.3767-.008.01-.16056.1191.48875.6529.16762-.1271.0291-.023.44729-.4067zm-11.364822.3767-.148212.1968-.381121.4199.01147.011.02911.023.641381.4782.486105-.6502zm9.488332.9678-.65638.3229h-.0115l-.0317.012.28142.7631.0432-.016.0353-.016.69078-.3334zm-7.498028.2612-.353776.7322.162332.078.03705.016.593736.2171.279665-.764-.574327-.2091zm5.287168.5461-.0644.019-.69784.1076.12351.8028.70843-.1076.0397-.01.0935-.025zm-3.068377.087-.123508.809.408467.063h.04147l.399648.02.0415-.8126-.381118-.018z" fill="url(#e)" opacity=".504"/></g></svg>