<svg height="96" width="96" xmlns="http://www.w3.org/2000/svg" xmlns:xlink="http://www.w3.org/1999/xlink"><linearGradient id="a" gradientUnits="userSpaceOnUse" x1="27.5" x2="27.25" y1="1045.3622" y2="981.36218"><stop offset="0" stop-color="#eeeeef"/><stop offset="1" stop-color="#d4d5d5"/></linearGradient><linearGradient id="b" gradientTransform="matrix(.61548845 .7881459 -.7881459 .61548845 0 -956.36218)" gradientUnits="userSpaceOnUse" x1="794.32727" x2="790.20587" y1="605.72449" y2="560.6355"><stop offset="0" stop-color="#90693d"/><stop offset="1" stop-color="#946d3e"/></linearGradient><linearGradient id="c" gradientUnits="userSpaceOnUse" x1="74.482231" x2="76.25" y1="980.31409" y2="975.15485"><stop offset="0" stop-color="#d2d3d5"/><stop offset="1" stop-color="#e5e6e8"/></linearGradient><linearGradient id="d" gradientUnits="userSpaceOnUse" x1="46.5" x2="46.5" y1="1046.1122" y2="1043.9692"><stop offset="0" stop-color="#c67317"/><stop offset="1" stop-color="#ee8400"/></linearGradient><linearGradient id="e" gradientUnits="userSpaceOnUse" x1="47.75" x2="47.75" y1="1003.3622" y2="997.98572"><stop offset="0" stop-color="#cbd1d8"/><stop offset="1" stop-color="#d4e1f3"/></linearGradient><linearGradient id="f" gradientUnits="userSpaceOnUse" x1="54.358833" x2="54.358833" y1="1034.5077" y2="1028.7618"><stop offset="0" stop-color="#9c7e64"/><stop offset="1" stop-color="#a98a6d"/></linearGradient><linearGradient id="g" gradientUnits="userSpaceOnUse" x1="55.875" x2="55.875" y1="1005.1122" y2="991.20959"><stop offset="0" stop-color="#906a3b"/><stop offset="1" stop-color="#7e5627"/></linearGradient><linearGradient id="h" gradientUnits="userSpaceOnUse" x1="85.294754" x2="85.294754" y1="63.652943" y2="3.3299"><stop offset="0" stop-color="#321b02"/><stop offset="1" stop-color="#321b02" stop-opacity="0"/></linearGradient><linearGradient id="i" gradientUnits="userSpaceOnUse" x1="67.838058" x2="80.225754" y1="14.903691" y2="14.903691"><stop offset="0" stop-color="#fff" stop-opacity=".5"/><stop offset=".16767642" stop-color="#fff" stop-opacity="0"/><stop offset=".52086747" stop-color="#fff" stop-opacity="0"/><stop offset=".79557163" stop-color="#fff" stop-opacity="0"/><stop offset="1" stop-color="#fff" stop-opacity=".5"/></linearGradient><g transform="translate(0 -956.36218)"><rect height="20.861153" opacity=".05" rx="1.050173" ry=".86771" width="15.891296" x="66.105614" y="973.651"/><rect height="20.861153" opacity=".1" rx="1.002886" ry=".86771" width="15.175743" x="66.463387" y="972.651"/><rect height="20.861153" opacity=".1" rx=".958283" ry=".86771" width="14.500808" x="66.795265" y="971.651"/><path d="m9.392 993.17667 38.315078-30.31086 38.839922 30.31086v56.68553h-77.155z" opacity=".05"/><path d="m9.892 993.41139 37.818479-29.91801 38.336521 29.91801v55.95081h-76.155z" opacity=".05"/><path d="m10.392 993.64611 37.32188-29.52516 37.83312 29.52516v55.21609h-75.155z" opacity=".05"/><path d="m10.892 993.88083 36.825281-29.13231 37.329719 29.13231v54.48137h-74.155z" opacity=".1"/><path d="m11.392 994.11555 36.328682-28.73946 36.826318 28.73946v53.74665h-73.155z" opacity=".1"/><path d="m11.891719 994.35024 35.832101-28.34662 36.322934 28.34662v53.01196h-72.155035z" opacity=".3"/><rect height="21.546162" opacity=".1" rx=".915684" ry=".896202" width="13.856201" x="67.117569" y="970.966"/><rect fill="url(#c)" height="20.861153" rx=".86771" width="13.130249" x="67.480545" y="970.5257"/><path d="m68.34375 14.15625c-.480711 0-.875.394289-.875.875v19.125c0 .480711.394289.875.875.875h11.40625c.480711 0 .875-.394289.875-.875v-19.125c0-.480711-.394289-.875-.875-.875zm.875 1.125h9.65625c.40748 0 .75.34252.75.75v16.1875c0 .40748-.34252.75-.75.75h-9.65625c-.40748 0-.75-.34252-.75-.75v-16.1875c0-.40748.34252-.75.75-.75z" fill="url(#i)" transform="translate(0 956.36218)"/><path d="m11.891719 993.35026 35.832101-28.34662 36.322934 28.34662v53.01194h-72.155035z" fill="url(#a)"/><path d="m47.96875 966.36218-44.40625 34.71872 5.6875 7.2813 38.75-30.25002 38.75 30.18752 5.6875-7.3125z" opacity=".05"/><path d="m47.96875 965.36216-44.40625 34.71874 5.6875 7.2813 38.75-30.25004 38.75 30.18754 5.6875-7.31252z" opacity=".05"/><path d="m47.96875 964.36218-44.40625 34.71875 5.6875 7.28127 38.75-30.25002 38.75 30.18752 5.6875-7.31252z" opacity=".1"/><path d="m47.96875 963.36216-44.40625 34.71875 5.6875 7.28129 38.75-30.25004 38.75 30.18754 5.6875-7.31254z" opacity=".1"/><rect fill="#fff" height="18.160025" opacity=".5" rx="1.125" width="18.160025" x="38.910721" y="988.71106"/><rect fill="#fff" height="31.385273" opacity=".5" rx="1.149049" width="22.452137" x="36.743172" y="1014.9769"/><path d="m37.538666 1015.684h20.861147v30.678165h-20.861147z" fill="#7b552a"/><path d="m39.660721 989.46106h16.660025v16.660025h-16.660025z" fill="url(#g)"/><path d="m41.743225 991.54358h12.495018v12.495018h-12.495018z" fill="url(#e)"/><path d="m41.743225 1001.2619h12.495018v.694168h-12.495018z" opacity=".25"/><path d="m47.96875 6-44.40625 34.71875 5.6875 7.28125 38.75-30.25 38.75 30.1875 5.6875-7.3125z" fill="url(#b)" transform="translate(0 956.36218)"/><path d="m39.707943 1017.4194h16.5226v28.942745h-16.5226z" fill="url(#d)"/><path d="m39.707943 1017.4194h16.5226v1.262811h-16.5226z" fill="#a24e00"/><path d="m53.591293 1028.2657h1.424454v6.642611h-1.424454z" fill="url(#f)"/><path d="m991.54358-42.437393h12.495018v.694168h-12.495018z" opacity=".25" transform="rotate(90)"/><path d="m991.54358-54.238243h12.495018v.694168h-12.495018z" opacity=".25" transform="rotate(90)"/><path d="m41.743225 991.54358h12.495018v.694168h-12.495018z" opacity=".25"/><path d="m48.21875 16.9375-.21875-.164063-.25.195313-38.96875 30.4375.46875.59375 1.875941 2.549167.761211-.621594.0028-3.981787 36.102267-28.176255 36.054494 28.058589.0075 3.998681.753435.56403 2.442352-3.078331z" fill="url(#h)" transform="translate(0 956.36218)"/><path d="m39.660721 989.46106h16.660025v.785025h-16.660025z" opacity=".25"/><path d="m39.660721 1005.3361h16.660025v.785025h-16.660025z" opacity=".15"/><path d="m47.181076 962.97635.795495-.61319v10.78891l-.795495.62424z" fill="#321b02" opacity=".25"/><path d="m-48.772064 962.99293.795495-.62977v10.75576l-.795495.62424z" fill="#321b02" opacity=".1" transform="scale(-1 1)"/><path d="m47.96875 6-44.40625 34.71875.5.625 43.90625-34.34375 43.96875 34.25.5-.625z" fill="#fff" opacity=".1" transform="translate(0 956.36218)"/></g></svg>