<svg height="128" viewBox="0 0 128 128" width="128" xmlns="http://www.w3.org/2000/svg" xmlns:xlink="http://www.w3.org/1999/xlink"><linearGradient id="a"><stop offset="0" stop-color="#fff"/><stop offset="1" stop-color="#fff" stop-opacity="0"/></linearGradient><linearGradient id="b" gradientUnits="userSpaceOnUse" x1="698.57567252072" x2="698.32452860262" y1="-342.208366166" y2="-203.6409268926"><stop offset="0" stop-color="#d87aa7"/><stop offset="1" stop-color="#d16050"/></linearGradient><linearGradient id="c" gradientUnits="userSpaceOnUse" x1="664.41205" x2="683.90033" xlink:href="#a" y1="-278.6983" y2="-278.30273"/><linearGradient id="d" gradientUnits="userSpaceOnUse" x1="751.04181" x2="683.90033" xlink:href="#a" y1="-278.6983" y2="-278.30273"/><filter id="e" color-interpolation-filters="sRGB" height="1.017254" width="1.039408" x="-.019704" y="-.008627"><feGaussianBlur stdDeviation=".57245241"/></filter><filter id="f" color-interpolation-filters="sRGB" height="1.041409" width="1.09458" x="-.04729" y="-.020705"><feGaussianBlur stdDeviation="1.3738858"/></filter><filter id="g" color-interpolation-filters="sRGB" height="1.027164" width="1.021496" x="-.010748" y="-.013582"><feGaussianBlur stdDeviation=".3332032"/></filter><linearGradient id="h" gradientUnits="userSpaceOnUse" x1="701.81012" x2="699.27539" y1="-195.62863" y2="-373.47266"><stop offset="0" stop-color="#cccdd1"/><stop offset="1" stop-color="#f7f9f9"/></linearGradient><g transform="matrix(.66355071 0 0 .66355071 -399.67109 249.15658)"><circle cx="699.27484" cy="-278.6983" fill="url(#b)" r="91.274864" stroke="#cccdd1" stroke-width="7"/><path d="m662.07348-359.81417c3.35652 2.23768 28.2507 49.22895 28.2507 49.22895l13.70579.55942 32.44636-50.06808c-25.17384-11.83788-49.9749-11.74819-74.40285.27971z" fill="#d05a8a"/><path d="m723.48966-358.32259c-.51826-.0298-1.04867.13701-1.4668.50977-.83588.74595-.90838 2.02773-.16211 2.86328.46597.52232 1.16764.76755 1.85742.64844.59875.86633.75899 1.65552.84961 2.66211l.13477 1.49414c.0175.19249.0975.37372.22656.51758l4.08594 4.58007c.33042.3707.89835.4021 1.26953.0723l3.55273-3.16797c.36998-.33122.40289-.90104.0723-1.27148l-4.04102-4.52735c-.14102-.15855-.33305-.26245-.54296-.29297l-1.83985-.26172c-.94625.0249-1.59342-.50857-2.25391-.99609.31467-.72429.17906-1.56416-.3457-2.1543-.37257-.41828-.87823-.64593-1.39648-.67578zm-47.47656.8086c-.3886.0371-.76957.18789-1.09376.45507-.60903.50276-.87182 1.31223-.67187 2.07618-.72739.38056-1.44961.80832-2.38086.63867l-1.85742-.0234c-.21211-.002-.41838.07-.58203.20508l-4.6875 3.85547c-.38349.31541-.43791.88359-.12305 1.26758l3.02539 3.67382c.31625.38281.88231.44069 1.26563.125l4.74023-3.90039c.14957-.12239.25593-.28902.30274-.47656l.36328-1.45703c.24379-.98082.52167-1.73566 1.24609-2.5.66339.22339 1.39505.0893 1.93555-.35547.86549-.71133.98906-1.99024.27734-2.85547-.35607-.43243-.85441-.67821-1.37109-.72851-.12918-.0125-.25915-.0124-.38867 0zm38.93945 7.03711c-.51806.033-1.02454.26496-1.39453.68554-.73955.84154-.65628 2.12213.18554 2.86133.5257.46215 1.2535.62155 1.92383.41992.6991.78757.95241 1.55083 1.16406 2.53906l.31446 1.4668c.0411.18887.14157.35915.28711.48633l4.60937 4.05273c.37282.32803.94096.29225 1.26953-.0801l3.14258-3.57618c.32721-.37353.29098-.94178-.082-1.26953l-4.55664-4.00781c-.15916-.14034-.36411-.2197-.57617-.22461l-1.85742-.0371c-.93629.13915-1.6448-.31075-2.35938-.71484.22476-.75701-.009-1.57724-.60156-2.09961-.42042-.37017-.95069-.53499-1.46875-.50195zm-31.70313 1.97656c-.39045-.0102-.78649.0923-1.14062.31836-.6656.4254-1.02213 1.19991-.91602 1.98242-.76806.28987-1.53749.62667-2.4414.3457l-1.8418-.24804c-.2103-.0276-.42473.0205-.60352.13476l-5.11718 3.26172c-.41879.26674-.5415.82293-.27539 1.24219l2.55664 4.01562c.26763.41831.8235.54047 1.24218.27344l5.17774-3.29883c.1633-.10337.28782-.25716.35742-.4375l.53516-1.40039c.36058-.94413.72754-1.65893 1.53906-2.33008.63152.30197 1.37649.25505 1.9668-.12109.94514-.60148 1.22295-1.85391.62109-2.79883-.30118-.47231-.76655-.77861-1.27344-.89062-.12672-.028-.25657-.0454-.38672-.0488zm24.65235 7.38672c-.65025.0344-1.27221.38028-1.63282.98047-.57646.96063-.2636 2.20715.69727 2.7832.60013.36027 1.34356.38509 1.9668.0664.82912.64928 1.21594 1.35488 1.60156 2.28907l.57226 1.38672c.0743.17843.2051.32875.3711.42773l5.25976 3.1582c.42564.25577.97798.11859 1.23438-.30664l2.45117-4.08203c.25483-.4262.11723-.9789-.30859-1.23437l-5.20313-3.12305c-.18177-.10948-.39598-.15239-.60547-.11914l-1.83593.29883c-.89611.30495-1.67176-.012-2.44727-.28125.0852-.78507-.29432-1.54946-.9707-1.95703-.36003-.21651-.76025-.30776-1.15039-.28711zm-19.32032 2.95898c-.19878.017-.39927.0632-.59375.14258-.73084.29911-1.22171.99631-1.25781 1.78516-.80761.14721-1.6241.341-2.46289-.0977l-1.76758-.57617c-.20193-.0649-.42078-.0549-.61718.0254l-5.61914 2.28906c-.46.1872-.68066.71166-.49415 1.17188l1.79688 4.41015c.18822.45956.71206.67972 1.17187.49219l5.68164-2.31445c.17922-.0724.33088-.20226.43165-.36719l.77929-1.28125c.52421-.86407 1.01478-1.50302 1.9336-2.01758.56704.41045 1.30488.50038 1.95312.23633 1.03781-.42201 1.53769-1.60691 1.11524-2.64453-.26439-.64836-.8256-1.08507-1.4629-1.21875-.19118-.0401-.3891-.0522-.58789-.0352zm13.19727 7.33203c-.78958.0377-1.51882.5375-1.80859 1.32617-.3858 1.05179.15508 2.21621 1.20703 2.60157.65711.24116 1.393.12726 1.94531-.30274.9363.48202 1.44972 1.10212 2.00391 1.94727l.82031 1.2539c.10645.16131.26368.28356.44531.34961l5.75977 2.11524c.46609.17129.9823-.0674 1.15429-.5332l1.64063-4.47071c.17026-.46648-.0689-.98138-.53516-1.15234l-5.69531-2.0918c-.1991-.0734-.41767-.0739-.61719-.002l-1.74804.63672c-.8229.4678-1.64477.30234-2.45704.18359-.0637-.78711-.57943-1.46498-1.32031-1.73828-.26285-.0967-.53173-.13562-.79492-.12305zm-8.53125 3.76953c-.13458-.00032-.27092.0134-.4082.041-.77401.15654-1.38873.74756-1.57227 1.51562-.82087-.007-1.65694.0298-2.39844-.55859l-1.63086-.89648c-.0931-.0508-.19359-.0839-.29687-.0996s-.20851-.0132-.3125.008l-5.94922 1.19336c-.48695.0975-.80188.56958-.70508 1.05664l.72461 3.61719c.448-.19476.90298-.37685 1.36719-.53516 2.43738-.83122 5.07937-1.25782 7.08203-1.8125.0795-.021.16174-.0323.24414-.0293.47583.015.80295.41402.79297.83985.44476-.39219.92288-.70488 1.57422-.92188.47988.50965 1.19065.73527 1.87695.59766 1.09858-.21962 1.81188-1.28824 1.5918-2.38672-.1655-.82377-.80953-1.42961-1.58399-1.58789-.12908-.0263-.2619-.0407-.39648-.041zm-2.60352 5.12891c-.0803-.003-.16068.006-.23828.0273-1.95373.54113-4.53037.95863-6.9082 1.76954-2.37782.81091-4.63723 2.05147-5.73242 4.35742-1.51216 3.18388-1.49102 6.14883-.64258 8.81445.84845 2.66562 2.47744 5.05043 4.14844 7.31836 1.58727 2.1543 2.0829 3.83162 2.21093 4.94141.12801 1.1098-.0762 1.5664-.0762 1.5664-.36862.96462 1.04411 1.55779 1.47461.61914l.0176-.0391 5.08789-11.21875c.0453-.10077.0693-.20983.0703-.32031l.17188-14.88282 1.07226-1.73437c.32187-.52346-.0421-1.19935-.65625-1.21875zm12.26758 0c-.6142.0194-.97812.69529-.65625 1.21875l1.07227 1.73437.17187 14.88282c.001.11048.025.21954.0703.32031l5.08789 11.21875.0176.0391c.4305.93865 1.84323.34548 1.47461-.61914 0 0-.20417-.4566-.0762-1.5664.12803-1.10979.62367-2.78711 2.21094-4.94141 1.671-2.26793 3.29999-4.65274 4.14844-7.31836.84844-2.66562.86958-5.63057-.64258-8.81445-1.09519-2.30595-3.3546-3.54651-5.73242-4.35742-2.37783-.81091-4.95448-1.22841-6.90821-1.76954-.0776-.021-.15793-.0302-.23828-.0273zm-8.09179.86914c-1.31715 0-2.37696 1.05979-2.37696 2.37695v12.04297c0 1.31715 2.24937-.70999 3.41406-.85351.53486-.0659 1.08188-.062 1.61719 0 1.23777.14339 3.63867 2.17066 3.63867.85351v-12.04297c0-1.31716-1.05979-2.37695-2.37695-2.37695zm2.73828 15.13477c-2.78056-.11451-5.70448 1.98098-7.41407 6.45898-1.65547 3.94205-3.09462 8.12921-4.32617 12.41016-2.38269 8.2824-3.99352 16.91257-4.91601 24.77929-1.87728 12.04705-4.9784 29.11172 8.13281 34.84766 2.20689.96547 4.80439 1.73572 8.01953 1.91797 5.86774.1734 12.47226-2.95068 15.63672-9.2793 3.88441-7.523.64603-33.636-5.38867-54.88476-.46367-1.63261-.98946-3.25959-1.53125-4.84766-.59397-1.74104-1.20848-3.43635-1.78321-5.04297-1.19502-4.07868-3.74493-6.2488-6.42968-6.35937zm-.54102 51.1582a11.520966 11.520966 0 0 1 11.51953 11.52148 11.520966 11.520966 0 0 1 -11.51953 11.51953 11.520966 11.520966 0 0 1 -11.52148-11.51953 11.520966 11.520966 0 0 1 11.52148-11.52148zm-12.73828 27.52734c-.49657-.00017-.89947.40186-.90039.89844v4.76172c.00091.49658.40382.89861.90039.89844h6.13672c.19327.00059.38159-.061.53711-.17578l1.20508-.89454c.81149-.6024 1.50573-1.00688 2.55078-1.13671.3703.59399 1.02074.95501 1.7207.95507 1.03387.00071 1.8781-.7756 2.00391-1.77539-.46161.0238-.92197.0349-1.37696.0215-3.41565-.19362-6.175-1.01143-8.51953-2.03711-1.00964-.44171-1.91819-.95407-2.7539-1.51563zm16.31641 5.08985c-.21218-.00026-.41763.0745-.58008.21093l-1.41992 1.19922c-.61128.72273-1.4407.85108-2.24414 1.01953-.33106-.71694-1.04821-1.17649-1.83789-1.17773-1.12032-.00077-2.02899.90703-2.0293 2.02734.0003 1.12031.90899 2.02812 2.0293 2.02735.69995-.00006 1.3504-.36109 1.7207-.95508 1.04505.12983 1.74124.53627 2.55273 1.13867l1.20313.89258c.15552.11474.34384.17637.53711.17578h6.13672c.49657.00017.89948-.40186.90039-.89844v-4.76172c-.00092-.49658-.40382-.8986-.90039-.89843zm-15.61719 5.53906c-.49657-.00017-.89947.40186-.90039.89844v4.76172c.00091.49658.40382.8986.90039.89843h6.13672c.19327.00059.38159-.061.53711-.17578l1.20507-.89453c.8115-.6024 1.50574-1.00689 2.55079-1.13672.3703.59399 1.02074.95502 1.7207.95508 1.12031.00077 2.029-.90703 2.0293-2.02734-.00031-1.12031-.90899-2.02812-2.0293-2.02735-.78968.001-1.50683.4608-1.83789 1.17774-.80344-.16845-1.63091-.2968-2.24219-1.01953l-1.42187-1.19922c-.16245-.13644-.3679-.2112-.58008-.21094zm15.75 5.58008c-.21218-.00026-.41763.0745-.58008.21094l-1.41992 1.19921c-.61128.72273-1.4407.85108-2.24414 1.01953-.33106-.71694-1.04821-1.17649-1.83789-1.17773-1.12031-.00077-2.02899.90703-2.0293 2.02734.0003 1.12031.90899 2.02812 2.0293 2.02735.69996-.00006 1.3504-.36109 1.7207-.95508 1.04505.12983 1.74125.53627 2.55273 1.13867l1.20313.89258c.15552.11474.34384.17637.53711.17578h6.13672c.49657.00017.89948-.40186.90039-.89844v-4.76171c-.00092-.49658-.40382-.89861-.90039-.89844zm-16.14453 5.39648c-.49657-.00017-.89947.40186-.90039.89844v4.76172c.00091.49658.40382.89861.90039.89844h6.13672c.19327.00059.38159-.0611.53711-.17579l1.20312-.89453c.81149-.6024 1.50768-1.00689 2.55274-1.13672.37029.59399 1.02074.95502 1.7207.95508 1.12031.00077 2.029-.90703 2.0293-2.02734-.00032-1.12031-.90899-2.02811-2.0293-2.02734-.78968.001-1.50683.46079-1.83789 1.17773-.80344-.16845-1.63286-.2968-2.24414-1.01953l-1.41993-1.19922c-.16245-.13644-.36789-.2112-.58007-.21094z" fill-opacity=".575129" filter="url(#f)" stroke="#fff" stroke-width=".2"/><g stroke-width="1.26087"><path d="m723.48966-358.32259c-.51826-.0298-1.04867.13701-1.4668.50977-.83588.74595-.90838 2.02773-.16211 2.86328.46597.52232 1.16764.76755 1.85742.64844.59875.86633.75899 1.65552.84961 2.66211l.13477 1.49414c.0175.19249.0975.37372.22656.51758l4.08594 4.58007c.33042.3707.89835.4021 1.26953.0723l3.55273-3.16797c.36998-.33122.40289-.90104.0723-1.27148l-4.04102-4.52735c-.14102-.15855-.33305-.26245-.54296-.29297l-1.83985-.26172c-.94625.0249-1.59342-.50857-2.25391-.99609.31467-.72429.17906-1.56416-.3457-2.1543-.37257-.41828-.87823-.64593-1.39648-.67578zm-47.47656.8086c-.3886.0371-.76957.18789-1.09376.45507-.60903.50276-.87182 1.31223-.67187 2.07618-.72739.38056-1.44961.80832-2.38086.63867l-1.85742-.0234c-.21211-.002-.41838.07-.58203.20508l-4.6875 3.85547c-.38349.31541-.43791.88359-.12305 1.26758l3.02539 3.67382c.31625.38281.88231.44069 1.26563.125l4.74023-3.90039c.14957-.12239.25593-.28902.30274-.47656l.36328-1.45703c.24379-.98082.52167-1.73566 1.24609-2.5.66339.22339 1.39505.0893 1.93555-.35547.86549-.71133.98906-1.99024.27734-2.85547-.35607-.43243-.85441-.67821-1.37109-.72851-.12918-.0125-.25915-.0124-.38867 0zm38.93945 7.03711c-.51806.033-1.02454.26496-1.39453.68554-.73955.84154-.65628 2.12213.18554 2.86133.5257.46215 1.2535.62155 1.92383.41992.6991.78757.95241 1.55083 1.16406 2.53906l.31446 1.4668c.0411.18887.14157.35915.28711.48633l4.60937 4.05273c.37282.32803.94096.29225 1.26953-.0801l3.14258-3.57618c.32721-.37353.29098-.94178-.082-1.26953l-4.55664-4.00781c-.15916-.14034-.36411-.2197-.57617-.22461l-1.85742-.0371c-.93629.13915-1.6448-.31075-2.35938-.71484.22476-.75701-.009-1.57724-.60156-2.09961-.42042-.37017-.95069-.53499-1.46875-.50195zm-31.70313 1.97656c-.39045-.0102-.78649.0923-1.14062.31836-.6656.4254-1.02213 1.19991-.91602 1.98242-.76806.28987-1.53749.62667-2.4414.3457l-1.8418-.24804c-.2103-.0276-.42473.0205-.60352.13476l-5.11718 3.26172c-.41879.26674-.5415.82293-.27539 1.24219l2.55664 4.01562c.26763.41831.8235.54047 1.24218.27344l5.17774-3.29883c.1633-.10337.28782-.25716.35742-.4375l.53516-1.40039c.36058-.94413.72754-1.65893 1.53906-2.33008.63152.30197 1.37649.25505 1.9668-.12109.94514-.60148 1.22295-1.85391.62109-2.79883-.30118-.47231-.76655-.77861-1.27344-.89062-.12672-.028-.25657-.0454-.38672-.0488zm24.65235 7.38672c-.65025.0344-1.27221.38028-1.63282.98047-.57646.96063-.2636 2.20715.69727 2.7832.60013.36027 1.34356.38509 1.9668.0664.82912.64928 1.21594 1.35488 1.60156 2.28907l.57226 1.38672c.0743.17843.2051.32875.3711.42773l5.25976 3.1582c.42564.25577.97798.11859 1.23438-.30664l2.45117-4.08203c.25483-.4262.11723-.9789-.30859-1.23437l-5.20313-3.12305c-.18177-.10948-.39598-.15239-.60547-.11914l-1.83593.29883c-.89611.30495-1.67176-.012-2.44727-.28125.0852-.78507-.29432-1.54946-.9707-1.95703-.36003-.21651-.76025-.30776-1.15039-.28711zm-19.32032 2.95898c-.19878.017-.39927.0632-.59375.14258-.73084.29911-1.22171.99631-1.25781 1.78516-.80761.14721-1.6241.341-2.46289-.0977l-1.76758-.57617c-.20193-.0649-.42078-.0549-.61718.0254l-5.61914 2.28906c-.46.1872-.68066.71166-.49415 1.17188l1.79688 4.41015c.18822.45956.71206.67972 1.17187.49219l5.68164-2.31445c.17922-.0724.33088-.20226.43165-.36719l.77929-1.28125c.52421-.86407 1.01478-1.50302 1.9336-2.01758.56704.41045 1.30488.50038 1.95312.23633 1.03781-.42201 1.53769-1.60691 1.11524-2.64453-.26439-.64836-.8256-1.08507-1.4629-1.21875-.19118-.0401-.3891-.0522-.58789-.0352zm13.19727 7.33203c-.78958.0377-1.51882.5375-1.80859 1.32617-.3858 1.05179.15508 2.21621 1.20703 2.60157.65711.24116 1.393.12726 1.94531-.30274.9363.48202 1.44972 1.10212 2.00391 1.94727l.82031 1.2539c.10645.16131.26368.28356.44531.34961l5.75977 2.11524c.46609.17129.9823-.0674 1.15429-.5332l1.64063-4.47071c.17026-.46648-.0689-.98138-.53516-1.15234l-5.69531-2.0918c-.1991-.0734-.41767-.0739-.61719-.002l-1.74804.63672c-.8229.4678-1.64477.30234-2.45704.18359-.0637-.78711-.57943-1.46498-1.32031-1.73828-.26285-.0967-.53173-.13562-.79492-.12305zm-8.53125 3.76953c-.13458-.00032-.27092.0134-.4082.041-.77401.15654-1.38873.74756-1.57227 1.51562-.82087-.007-1.65694.0298-2.39844-.55859l-1.63086-.89648c-.0931-.0508-.19359-.0839-.29687-.0996s-.20851-.0132-.3125.008l-5.94922 1.19336c-.48695.0975-.80188.56958-.70508 1.05664l.72461 3.61719c.448-.19476.90298-.37685 1.36719-.53516 2.43738-.83122 5.07937-1.25782 7.08203-1.8125.0795-.021.16174-.0323.24414-.0293.47583.015.80295.41402.79297.83985.44476-.39219.92288-.70488 1.57422-.92188.47988.50965 1.19065.73527 1.87695.59766 1.09858-.21962 1.81188-1.28824 1.5918-2.38672-.1655-.82377-.80953-1.42961-1.58399-1.58789-.12908-.0263-.2619-.0407-.39648-.041zm-2.60352 5.12891c-.0803-.003-.16068.006-.23828.0273-1.95373.54113-4.53037.95863-6.9082 1.76954-2.37782.81091-4.63723 2.05147-5.73242 4.35742-1.51216 3.18388-1.49102 6.14883-.64258 8.81445.84845 2.66562 2.47744 5.05043 4.14844 7.31836 1.58727 2.1543 2.0829 3.83162 2.21093 4.94141.12801 1.1098-.0762 1.5664-.0762 1.5664-.36862.96462 1.04411 1.55779 1.47461.61914l.0176-.0391 5.08789-11.21875c.0453-.10077.0693-.20983.0703-.32031l.17188-14.88282 1.07226-1.73437c.32187-.52346-.0421-1.19935-.65625-1.21875zm12.26758 0c-.6142.0194-.97812.69529-.65625 1.21875l1.07227 1.73437.17187 14.88282c.001.11048.025.21954.0703.32031l5.08789 11.21875.0176.0391c.4305.93865 1.84323.34548 1.47461-.61914 0 0-.20417-.4566-.0762-1.5664.12803-1.10979.62367-2.78711 2.21094-4.94141 1.671-2.26793 3.29999-4.65274 4.14844-7.31836.84844-2.66562.86958-5.63057-.64258-8.81445-1.09519-2.30595-3.3546-3.54651-5.73242-4.35742-2.37783-.81091-4.95448-1.22841-6.90821-1.76954-.0776-.021-.15793-.0302-.23828-.0273zm-8.09179.86914c-1.31715 0-2.37696 1.05979-2.37696 2.37695v12.04297c0 1.31715 2.24937-.70999 3.41406-.85351.53486-.0659 1.08188-.062 1.61719 0 1.23777.14339 3.63867 2.17066 3.63867.85351v-12.04297c0-1.31716-1.05979-2.37695-2.37695-2.37695zm2.73828 15.13477c-2.78056-.11451-5.70448 1.98098-7.41407 6.45898-1.65547 3.94205-3.09462 8.12921-4.32617 12.41016-2.38269 8.2824-3.99352 16.91257-4.91601 24.77929-1.87728 12.04705-4.9784 29.11172 8.13281 34.84766 2.20689.96547 4.80439 1.73572 8.01953 1.91797 5.86774.1734 12.47226-2.95068 15.63672-9.2793 3.88441-7.523.64603-33.636-5.38867-54.88476-.46367-1.63261-.98946-3.25959-1.53125-4.84766-.59397-1.74104-1.20848-3.43635-1.78321-5.04297-1.19502-4.07868-3.74493-6.2488-6.42968-6.35937zm-.54102 51.1582a11.520966 11.520966 0 0 1 11.51953 11.52148 11.520966 11.520966 0 0 1 -11.51953 11.51953 11.520966 11.520966 0 0 1 -11.52148-11.51953 11.520966 11.520966 0 0 1 11.52148-11.52148zm-12.73828 27.52734c-.49657-.00017-.89947.40186-.90039.89844v4.76172c.00091.49658.40382.89861.90039.89844h6.13672c.19327.00059.38159-.061.53711-.17578l1.20508-.89454c.81149-.6024 1.50573-1.00688 2.55078-1.13671.3703.59399 1.02074.95501 1.7207.95507 1.03387.00071 1.8781-.7756 2.00391-1.77539-.46161.0238-.92197.0349-1.37696.0215-3.41565-.19362-6.175-1.01143-8.51953-2.03711-1.00964-.44171-1.91819-.95407-2.7539-1.51563zm16.31641 5.08985c-.21218-.00026-.41763.0745-.58008.21093l-1.41992 1.19922c-.61128.72273-1.4407.85108-2.24414 1.01953-.33106-.71694-1.04821-1.17649-1.83789-1.17773-1.12032-.00077-2.02899.90703-2.0293 2.02734.0003 1.12031.90899 2.02812 2.0293 2.02735.69995-.00006 1.3504-.36109 1.7207-.95508 1.04505.12983 1.74124.53627 2.55273 1.13867l1.20313.89258c.15552.11474.34384.17637.53711.17578h6.13672c.49657.00017.89948-.40186.90039-.89844v-4.76172c-.00092-.49658-.40382-.8986-.90039-.89843zm-15.61719 5.53906c-.49657-.00017-.89947.40186-.90039.89844v4.76172c.00091.49658.40382.8986.90039.89843h6.13672c.19327.00059.38159-.061.53711-.17578l1.20507-.89453c.8115-.6024 1.50574-1.00689 2.55079-1.13672.3703.59399 1.02074.95502 1.7207.95508 1.12031.00077 2.029-.90703 2.0293-2.02734-.00031-1.12031-.90899-2.02812-2.0293-2.02735-.78968.001-1.50683.4608-1.83789 1.17774-.80344-.16845-1.63091-.2968-2.24219-1.01953l-1.42187-1.19922c-.16245-.13644-.3679-.2112-.58008-.21094zm15.75 5.58008c-.21218-.00026-.41763.0745-.58008.21094l-1.41992 1.19921c-.61128.72273-1.4407.85108-2.24414 1.01953-.33106-.71694-1.04821-1.17649-1.83789-1.17773-1.12031-.00077-2.02899.90703-2.0293 2.02734.0003 1.12031.90899 2.02812 2.0293 2.02735.69996-.00006 1.3504-.36109 1.7207-.95508 1.04505.12983 1.74125.53627 2.55273 1.13867l1.20313.89258c.15552.11474.34384.17637.53711.17578h6.13672c.49657.00017.89948-.40186.90039-.89844v-4.76171c-.00092-.49658-.40382-.89861-.90039-.89844zm-16.14453 5.39648c-.49657-.00017-.89947.40186-.90039.89844v4.76172c.00091.49658.40382.89861.90039.89844h6.13672c.19327.00059.38159-.0611.53711-.17579l1.20312-.89453c.81149-.6024 1.50768-1.00689 2.55274-1.13672.37029.59399 1.02074.95502 1.7207.95508 1.12031.00077 2.029-.90703 2.0293-2.02734-.00032-1.12031-.90899-2.02811-2.0293-2.02734-.78968.001-1.50683.46079-1.83789 1.17773-.80344-.16845-1.63286-.2968-2.24414-1.01953l-1.41993-1.19922c-.16245-.13644-.36789-.2112-.58007-.21094z" fill="#e8e8e8"/><path d="m723.48966-358.32259c-.51826-.0298-1.04867.13701-1.4668.50977-.83588.74595-.90838 2.02773-.16211 2.86328.46597.52232 1.16764.76755 1.85742.64844.59875.86633.75899 1.65552.84961 2.66211l.13477 1.49414c.0175.19249.0975.37372.22656.51758l4.08594 4.58007c.33042.3707.89835.4021 1.26953.0723l3.55273-3.16797c.36998-.33122.40289-.90104.0723-1.27148l-4.04102-4.52735c-.14102-.15855-.33305-.26245-.54296-.29297l-1.83985-.26172c-.94625.0249-1.59342-.50857-2.25391-.99609.31467-.72429.17906-1.56416-.3457-2.1543-.37257-.41828-.87823-.64593-1.39648-.67578zm-47.47656.8086c-.3886.0371-.76957.18789-1.09376.45507-.60903.50276-.87182 1.31223-.67187 2.07618-.72739.38056-1.44961.80832-2.38086.63867l-1.85742-.0234c-.21211-.002-.41838.07-.58203.20508l-4.6875 3.85547c-.38349.31541-.43791.88359-.12305 1.26758l3.02539 3.67382c.31625.38281.88231.44069 1.26563.125l4.74023-3.90039c.14957-.12239.25593-.28902.30274-.47656l.36328-1.45703c.24379-.98082.52167-1.73566 1.24609-2.5.66339.22339 1.39505.0893 1.93555-.35547.86549-.71133.98906-1.99024.27734-2.85547-.35607-.43243-.85441-.67821-1.37109-.72851-.12918-.0125-.25915-.0124-.38867 0zm38.93945 7.03711c-.51806.033-1.02454.26496-1.39453.68554-.73955.84154-.65628 2.12213.18554 2.86133.5257.46215 1.2535.62155 1.92383.41992.6991.78757.95241 1.55083 1.16406 2.53906l.31446 1.4668c.0411.18887.14157.35915.28711.48633l4.60937 4.05273c.37282.32803.94096.29225 1.26953-.0801l3.14258-3.57618c.32721-.37353.29098-.94178-.082-1.26953l-4.55664-4.00781c-.15916-.14034-.36411-.2197-.57617-.22461l-1.85742-.0371c-.93629.13915-1.6448-.31075-2.35938-.71484.22476-.75701-.009-1.57724-.60156-2.09961-.42042-.37017-.95069-.53499-1.46875-.50195zm-31.70313 1.97656c-.39045-.0102-.78649.0923-1.14062.31836-.6656.4254-1.02213 1.19991-.91602 1.98242-.76806.28987-1.53749.62667-2.4414.3457l-1.8418-.24804c-.2103-.0276-.42473.0205-.60352.13476l-5.11718 3.26172c-.41879.26674-.5415.82293-.27539 1.24219l2.55664 4.01562c.26763.41831.8235.54047 1.24218.27344l5.17774-3.29883c.1633-.10337.28782-.25716.35742-.4375l.53516-1.40039c.36058-.94413.72754-1.65893 1.53906-2.33008.63152.30197 1.37649.25505 1.9668-.12109.94514-.60148 1.22295-1.85391.62109-2.79883-.30118-.47231-.76655-.77861-1.27344-.89062-.12672-.028-.25657-.0454-.38672-.0488zm24.65235 7.38672c-.65025.0344-1.27221.38028-1.63282.98047-.57646.96063-.2636 2.20715.69727 2.7832.60013.36027 1.34356.38509 1.9668.0664.82912.64928 1.21594 1.35488 1.60156 2.28907l.57226 1.38672c.0743.17843.2051.32875.3711.42773l5.25976 3.1582c.42564.25577.97798.11859 1.23438-.30664l2.45117-4.08203c.25483-.4262.11723-.9789-.30859-1.23437l-5.20313-3.12305c-.18177-.10948-.39598-.15239-.60547-.11914l-1.83593.29883c-.89611.30495-1.67176-.012-2.44727-.28125.0852-.78507-.29432-1.54946-.9707-1.95703-.36003-.21651-.76025-.30776-1.15039-.28711zm-19.32032 2.95898c-.19878.017-.39927.0632-.59375.14258-.73084.29911-1.22171.99631-1.25781 1.78516-.80761.14721-1.6241.341-2.46289-.0977l-1.76758-.57617c-.20193-.0649-.42078-.0549-.61718.0254l-5.61914 2.28906c-.46.1872-.68066.71166-.49415 1.17188l1.79688 4.41015c.18822.45956.71206.67972 1.17187.49219l5.68164-2.31445c.17922-.0724.33088-.20226.43165-.36719l.77929-1.28125c.52421-.86407 1.01478-1.50302 1.9336-2.01758.56704.41045 1.30488.50038 1.95312.23633 1.03781-.42201 1.53769-1.60691 1.11524-2.64453-.26439-.64836-.8256-1.08507-1.4629-1.21875-.19118-.0401-.3891-.0522-.58789-.0352zm13.19727 7.33203c-.78958.0377-1.51882.5375-1.80859 1.32617-.3858 1.05179.15508 2.21621 1.20703 2.60157.65711.24116 1.393.12726 1.94531-.30274.9363.48202 1.44972 1.10212 2.00391 1.94727l.82031 1.2539c.10645.16131.26368.28356.44531.34961l5.75977 2.11524c.46609.17129.9823-.0674 1.15429-.5332l1.64063-4.47071c.17026-.46648-.0689-.98138-.53516-1.15234l-5.69531-2.0918c-.1991-.0734-.41767-.0739-.61719-.002l-1.74804.63672c-.8229.4678-1.64477.30234-2.45704.18359-.0637-.78711-.57943-1.46498-1.32031-1.73828-.26285-.0967-.53173-.13562-.79492-.12305zm-8.53125 3.76953c-.13458-.00032-.27092.0134-.4082.041-.77401.15654-1.38873.74756-1.57227 1.51562-.82087-.007-1.65694.0298-2.39844-.55859l-1.63086-.89648c-.0931-.0508-.19359-.0839-.29687-.0996s-.20851-.0132-.3125.008l-5.94922 1.19336c-.48695.0975-.80188.56958-.70508 1.05664l.72461 3.61719c.448-.19476.90298-.37685 1.36719-.53516 2.43738-.83122 5.07937-1.25782 7.08203-1.8125.0795-.021.16174-.0323.24414-.0293.47583.015.80295.41402.79297.83985.44476-.39219.92288-.70488 1.57422-.92188.47988.50965 1.19065.73527 1.87695.59766 1.09858-.21962 1.81188-1.28824 1.5918-2.38672-.1655-.82377-.80953-1.42961-1.58399-1.58789-.12908-.0263-.2619-.0407-.39648-.041zm-2.60352 5.12891c-.0803-.003-.16068.006-.23828.0273-1.95373.54113-4.53037.95863-6.9082 1.76954-2.37782.81091-4.63723 2.05147-5.73242 4.35742-1.51216 3.18388-1.49102 6.14883-.64258 8.81445.84845 2.66562 2.47744 5.05043 4.14844 7.31836 1.58727 2.1543 2.0829 3.83162 2.21093 4.94141.12801 1.1098-.0762 1.5664-.0762 1.5664-.36862.96462 1.04411 1.55779 1.47461.61914l.0176-.0391 5.08789-11.21875c.0453-.10077.0693-.20983.0703-.32031l.17188-14.88282 1.07226-1.73437c.32187-.52346-.0421-1.19935-.65625-1.21875zm12.26758 0c-.6142.0194-.97812.69529-.65625 1.21875l1.07227 1.73437.17187 14.88282c.001.11048.025.21954.0703.32031l5.08789 11.21875.0176.0391c.4305.93865 1.84323.34548 1.47461-.61914 0 0-.20417-.4566-.0762-1.5664.12803-1.10979.62367-2.78711 2.21094-4.94141 1.671-2.26793 3.29999-4.65274 4.14844-7.31836.84844-2.66562.86958-5.63057-.64258-8.81445-1.09519-2.30595-3.3546-3.54651-5.73242-4.35742-2.37783-.81091-4.95448-1.22841-6.90821-1.76954-.0776-.021-.15793-.0302-.23828-.0273zm-8.09179.86914c-1.31715 0-2.37696 1.05979-2.37696 2.37695v12.04297c0 1.31715 2.24937-.70999 3.41406-.85351.53486-.0659 1.08188-.062 1.61719 0 1.23777.14339 3.63867 2.17066 3.63867.85351v-12.04297c0-1.31716-1.05979-2.37695-2.37695-2.37695zm2.73828 15.13477c-2.78056-.11451-5.70448 1.98098-7.41407 6.45898-1.65547 3.94205-3.09462 8.12921-4.32617 12.41016-2.38269 8.2824-3.99352 16.91257-4.91601 24.77929-1.87728 12.04705-4.9784 29.11172 8.13281 34.84766 2.20689.96547 4.80439 1.73572 8.01953 1.91797 5.86774.1734 12.47226-2.95068 15.63672-9.2793 3.88441-7.523.64603-33.636-5.38867-54.88476-.46367-1.63261-.98946-3.25959-1.53125-4.84766-.59397-1.74104-1.20848-3.43635-1.78321-5.04297-1.19502-4.07868-3.74493-6.2488-6.42968-6.35937zm-.54102 51.1582a11.520966 11.520966 0 0 1 11.51953 11.52148 11.520966 11.520966 0 0 1 -11.51953 11.51953 11.520966 11.520966 0 0 1 -11.52148-11.51953 11.520966 11.520966 0 0 1 11.52148-11.52148zm-12.73828 27.52734c-.49657-.00017-.89947.40186-.90039.89844v4.76172c.00091.49658.40382.89861.90039.89844h6.13672c.19327.00059.38159-.061.53711-.17578l1.20508-.89454c.81149-.6024 1.50573-1.00688 2.55078-1.13671.3703.59399 1.02074.95501 1.7207.95507 1.03387.00071 1.8781-.7756 2.00391-1.77539-.46161.0238-.92197.0349-1.37696.0215-3.41565-.19362-6.175-1.01143-8.51953-2.03711-1.00964-.44171-1.91819-.95407-2.7539-1.51563zm16.31641 5.08985c-.21218-.00026-.41763.0745-.58008.21093l-1.41992 1.19922c-.61128.72273-1.4407.85108-2.24414 1.01953-.33106-.71694-1.04821-1.17649-1.83789-1.17773-1.12032-.00077-2.02899.90703-2.0293 2.02734.0003 1.12031.90899 2.02812 2.0293 2.02735.69995-.00006 1.3504-.36109 1.7207-.95508 1.04505.12983 1.74124.53627 2.55273 1.13867l1.20313.89258c.15552.11474.34384.17637.53711.17578h6.13672c.49657.00017.89948-.40186.90039-.89844v-4.76172c-.00092-.49658-.40382-.8986-.90039-.89843zm-15.61719 5.53906c-.49657-.00017-.89947.40186-.90039.89844v4.76172c.00091.49658.40382.8986.90039.89843h6.13672c.19327.00059.38159-.061.53711-.17578l1.20507-.89453c.8115-.6024 1.50574-1.00689 2.55079-1.13672.3703.59399 1.02074.95502 1.7207.95508 1.12031.00077 2.029-.90703 2.0293-2.02734-.00031-1.12031-.90899-2.02812-2.0293-2.02735-.78968.001-1.50683.4608-1.83789 1.17774-.80344-.16845-1.63091-.2968-2.24219-1.01953l-1.42187-1.19922c-.16245-.13644-.3679-.2112-.58008-.21094zm15.75 5.58008c-.21218-.00026-.41763.0745-.58008.21094l-1.41992 1.19921c-.61128.72273-1.4407.85108-2.24414 1.01953-.33106-.71694-1.04821-1.17649-1.83789-1.17773-1.12031-.00077-2.02899.90703-2.0293 2.02734.0003 1.12031.90899 2.02812 2.0293 2.02735.69996-.00006 1.3504-.36109 1.7207-.95508 1.04505.12983 1.74125.53627 2.55273 1.13867l1.20313.89258c.15552.11474.34384.17637.53711.17578h6.13672c.49657.00017.89948-.40186.90039-.89844v-4.76171c-.00092-.49658-.40382-.89861-.90039-.89844zm-16.14453 5.39648c-.49657-.00017-.89947.40186-.90039.89844v4.76172c.00091.49658.40382.89861.90039.89844h6.13672c.19327.00059.38159-.0611.53711-.17579l1.20312-.89453c.81149-.6024 1.50768-1.00689 2.55274-1.13672.37029.59399 1.02074.95502 1.7207.95508 1.12031.00077 2.029-.90703 2.0293-2.02734-.00032-1.12031-.90899-2.02811-2.0293-2.02734-.78968.001-1.50683.46079-1.83789 1.17773-.80344-.16845-1.63286-.2968-2.24414-1.01953l-1.41993-1.19922c-.16245-.13644-.36789-.2112-.58007-.21094z" fill="url(#c)"/><path d="m723.48966-358.32259c-.51826-.0298-1.04867.13701-1.4668.50977-.83588.74595-.90838 2.02773-.16211 2.86328.46597.52232 1.16764.76755 1.85742.64844.59875.86633.75899 1.65552.84961 2.66211l.13477 1.49414c.0175.19249.0975.37372.22656.51758l4.08594 4.58007c.33042.3707.89835.4021 1.26953.0723l3.55273-3.16797c.36998-.33122.40289-.90104.0723-1.27148l-4.04102-4.52735c-.14102-.15855-.33305-.26245-.54296-.29297l-1.83985-.26172c-.94625.0249-1.59342-.50857-2.25391-.99609.31467-.72429.17906-1.56416-.3457-2.1543-.37257-.41828-.87823-.64593-1.39648-.67578zm-47.47656.8086c-.3886.0371-.76957.18789-1.09376.45507-.60903.50276-.87182 1.31223-.67187 2.07618-.72739.38056-1.44961.80832-2.38086.63867l-1.85742-.0234c-.21211-.002-.41838.07-.58203.20508l-4.6875 3.85547c-.38349.31541-.43791.88359-.12305 1.26758l3.02539 3.67382c.31625.38281.88231.44069 1.26563.125l4.74023-3.90039c.14957-.12239.25593-.28902.30274-.47656l.36328-1.45703c.24379-.98082.52167-1.73566 1.24609-2.5.66339.22339 1.39505.0893 1.93555-.35547.86549-.71133.98906-1.99024.27734-2.85547-.35607-.43243-.85441-.67821-1.37109-.72851-.12918-.0125-.25915-.0124-.38867 0zm38.93945 7.03711c-.51806.033-1.02454.26496-1.39453.68554-.73955.84154-.65628 2.12213.18554 2.86133.5257.46215 1.2535.62155 1.92383.41992.6991.78757.95241 1.55083 1.16406 2.53906l.31446 1.4668c.0411.18887.14157.35915.28711.48633l4.60937 4.05273c.37282.32803.94096.29225 1.26953-.0801l3.14258-3.57618c.32721-.37353.29098-.94178-.082-1.26953l-4.55664-4.00781c-.15916-.14034-.36411-.2197-.57617-.22461l-1.85742-.0371c-.93629.13915-1.6448-.31075-2.35938-.71484.22476-.75701-.009-1.57724-.60156-2.09961-.42042-.37017-.95069-.53499-1.46875-.50195zm-31.70313 1.97656c-.39045-.0102-.78649.0923-1.14062.31836-.6656.4254-1.02213 1.19991-.91602 1.98242-.76806.28987-1.53749.62667-2.4414.3457l-1.8418-.24804c-.2103-.0276-.42473.0205-.60352.13476l-5.11718 3.26172c-.41879.26674-.5415.82293-.27539 1.24219l2.55664 4.01562c.26763.41831.8235.54047 1.24218.27344l5.17774-3.29883c.1633-.10337.28782-.25716.35742-.4375l.53516-1.40039c.36058-.94413.72754-1.65893 1.53906-2.33008.63152.30197 1.37649.25505 1.9668-.12109.94514-.60148 1.22295-1.85391.62109-2.79883-.30118-.47231-.76655-.77861-1.27344-.89062-.12672-.028-.25657-.0454-.38672-.0488zm24.65235 7.38672c-.65025.0344-1.27221.38028-1.63282.98047-.57646.96063-.2636 2.20715.69727 2.7832.60013.36027 1.34356.38509 1.9668.0664.82912.64928 1.21594 1.35488 1.60156 2.28907l.57226 1.38672c.0743.17843.2051.32875.3711.42773l5.25976 3.1582c.42564.25577.97798.11859 1.23438-.30664l2.45117-4.08203c.25483-.4262.11723-.9789-.30859-1.23437l-5.20313-3.12305c-.18177-.10948-.39598-.15239-.60547-.11914l-1.83593.29883c-.89611.30495-1.67176-.012-2.44727-.28125.0852-.78507-.29432-1.54946-.9707-1.95703-.36003-.21651-.76025-.30776-1.15039-.28711zm-19.32032 2.95898c-.19878.017-.39927.0632-.59375.14258-.73084.29911-1.22171.99631-1.25781 1.78516-.80761.14721-1.6241.341-2.46289-.0977l-1.76758-.57617c-.20193-.0649-.42078-.0549-.61718.0254l-5.61914 2.28906c-.46.1872-.68066.71166-.49415 1.17188l1.79688 4.41015c.18822.45956.71206.67972 1.17187.49219l5.68164-2.31445c.17922-.0724.33088-.20226.43165-.36719l.77929-1.28125c.52421-.86407 1.01478-1.50302 1.9336-2.01758.56704.41045 1.30488.50038 1.95312.23633 1.03781-.42201 1.53769-1.60691 1.11524-2.64453-.26439-.64836-.8256-1.08507-1.4629-1.21875-.19118-.0401-.3891-.0522-.58789-.0352zm13.19727 7.33203c-.78958.0377-1.51882.5375-1.80859 1.32617-.3858 1.05179.15508 2.21621 1.20703 2.60157.65711.24116 1.393.12726 1.94531-.30274.9363.48202 1.44972 1.10212 2.00391 1.94727l.82031 1.2539c.10645.16131.26368.28356.44531.34961l5.75977 2.11524c.46609.17129.9823-.0674 1.15429-.5332l1.64063-4.47071c.17026-.46648-.0689-.98138-.53516-1.15234l-5.69531-2.0918c-.1991-.0734-.41767-.0739-.61719-.002l-1.74804.63672c-.8229.4678-1.64477.30234-2.45704.18359-.0637-.78711-.57943-1.46498-1.32031-1.73828-.26285-.0967-.53173-.13562-.79492-.12305zm-8.53125 3.76953c-.13458-.00032-.27092.0134-.4082.041-.77401.15654-1.38873.74756-1.57227 1.51562-.82087-.007-1.65694.0298-2.39844-.55859l-1.63086-.89648c-.0931-.0508-.19359-.0839-.29687-.0996s-.20851-.0132-.3125.008l-5.94922 1.19336c-.48695.0975-.80188.56958-.70508 1.05664l.72461 3.61719c.448-.19476.90298-.37685 1.36719-.53516 2.43738-.83122 5.07937-1.25782 7.08203-1.8125.0795-.021.16174-.0323.24414-.0293.47583.015.80295.41402.79297.83985.44476-.39219.92288-.70488 1.57422-.92188.47988.50965 1.19065.73527 1.87695.59766 1.09858-.21962 1.81188-1.28824 1.5918-2.38672-.1655-.82377-.80953-1.42961-1.58399-1.58789-.12908-.0263-.2619-.0407-.39648-.041zm-2.60352 5.12891c-.0803-.003-.16068.006-.23828.0273-1.95373.54113-4.53037.95863-6.9082 1.76954-2.37782.81091-4.63723 2.05147-5.73242 4.35742-1.51216 3.18388-1.49102 6.14883-.64258 8.81445.84845 2.66562 2.47744 5.05043 4.14844 7.31836 1.58727 2.1543 2.0829 3.83162 2.21093 4.94141.12801 1.1098-.0762 1.5664-.0762 1.5664-.36862.96462 1.04411 1.55779 1.47461.61914l.0176-.0391 5.08789-11.21875c.0453-.10077.0693-.20983.0703-.32031l.17188-14.88282 1.07226-1.73437c.32187-.52346-.0421-1.19935-.65625-1.21875zm12.26758 0c-.6142.0194-.97812.69529-.65625 1.21875l1.07227 1.73437.17187 14.88282c.001.11048.025.21954.0703.32031l5.08789 11.21875.0176.0391c.4305.93865 1.84323.34548 1.47461-.61914 0 0-.20417-.4566-.0762-1.5664.12803-1.10979.62367-2.78711 2.21094-4.94141 1.671-2.26793 3.29999-4.65274 4.14844-7.31836.84844-2.66562.86958-5.63057-.64258-8.81445-1.09519-2.30595-3.3546-3.54651-5.73242-4.35742-2.37783-.81091-4.95448-1.22841-6.90821-1.76954-.0776-.021-.15793-.0302-.23828-.0273zm-8.09179.86914c-1.31715 0-2.37696 1.05979-2.37696 2.37695v12.04297c0 1.31715 2.24937-.70999 3.41406-.85351.53486-.0659 1.08188-.062 1.61719 0 1.23777.14339 3.63867 2.17066 3.63867.85351v-12.04297c0-1.31716-1.05979-2.37695-2.37695-2.37695zm2.73828 15.13477c-2.78056-.11451-5.70448 1.98098-7.41407 6.45898-1.65547 3.94205-3.09462 8.12921-4.32617 12.41016-2.38269 8.2824-3.99352 16.91257-4.91601 24.77929-1.87728 12.04705-4.9784 29.11172 8.13281 34.84766 2.20689.96547 4.80439 1.73572 8.01953 1.91797 5.86774.1734 12.47226-2.95068 15.63672-9.2793 3.88441-7.523.64603-33.636-5.38867-54.88476-.46367-1.63261-.98946-3.25959-1.53125-4.84766-.59397-1.74104-1.20848-3.43635-1.78321-5.04297-1.19502-4.07868-3.74493-6.2488-6.42968-6.35937zm-.54102 51.1582a11.520966 11.520966 0 0 1 11.51953 11.52148 11.520966 11.520966 0 0 1 -11.51953 11.51953 11.520966 11.520966 0 0 1 -11.52148-11.51953 11.520966 11.520966 0 0 1 11.52148-11.52148zm-12.73828 27.52734c-.49657-.00017-.89947.40186-.90039.89844v4.76172c.00091.49658.40382.89861.90039.89844h6.13672c.19327.00059.38159-.061.53711-.17578l1.20508-.89454c.81149-.6024 1.50573-1.00688 2.55078-1.13671.3703.59399 1.02074.95501 1.7207.95507 1.03387.00071 1.8781-.7756 2.00391-1.77539-.46161.0238-.92197.0349-1.37696.0215-3.41565-.19362-6.175-1.01143-8.51953-2.03711-1.00964-.44171-1.91819-.95407-2.7539-1.51563zm16.31641 5.08985c-.21218-.00026-.41763.0745-.58008.21093l-1.41992 1.19922c-.61128.72273-1.4407.85108-2.24414 1.01953-.33106-.71694-1.04821-1.17649-1.83789-1.17773-1.12032-.00077-2.02899.90703-2.0293 2.02734.0003 1.12031.90899 2.02812 2.0293 2.02735.69995-.00006 1.3504-.36109 1.7207-.95508 1.04505.12983 1.74124.53627 2.55273 1.13867l1.20313.89258c.15552.11474.34384.17637.53711.17578h6.13672c.49657.00017.89948-.40186.90039-.89844v-4.76172c-.00092-.49658-.40382-.8986-.90039-.89843zm-15.61719 5.53906c-.49657-.00017-.89947.40186-.90039.89844v4.76172c.00091.49658.40382.8986.90039.89843h6.13672c.19327.00059.38159-.061.53711-.17578l1.20507-.89453c.8115-.6024 1.50574-1.00689 2.55079-1.13672.3703.59399 1.02074.95502 1.7207.95508 1.12031.00077 2.029-.90703 2.0293-2.02734-.00031-1.12031-.90899-2.02812-2.0293-2.02735-.78968.001-1.50683.4608-1.83789 1.17774-.80344-.16845-1.63091-.2968-2.24219-1.01953l-1.42187-1.19922c-.16245-.13644-.3679-.2112-.58008-.21094zm15.75 5.58008c-.21218-.00026-.41763.0745-.58008.21094l-1.41992 1.19921c-.61128.72273-1.4407.85108-2.24414 1.01953-.33106-.71694-1.04821-1.17649-1.83789-1.17773-1.12031-.00077-2.02899.90703-2.0293 2.02734.0003 1.12031.90899 2.02812 2.0293 2.02735.69996-.00006 1.3504-.36109 1.7207-.95508 1.04505.12983 1.74125.53627 2.55273 1.13867l1.20313.89258c.15552.11474.34384.17637.53711.17578h6.13672c.49657.00017.89948-.40186.90039-.89844v-4.76171c-.00092-.49658-.40382-.89861-.90039-.89844zm-16.14453 5.39648c-.49657-.00017-.89947.40186-.90039.89844v4.76172c.00091.49658.40382.89861.90039.89844h6.13672c.19327.00059.38159-.0611.53711-.17579l1.20312-.89453c.81149-.6024 1.50768-1.00689 2.55274-1.13672.37029.59399 1.02074.95502 1.7207.95508 1.12031.00077 2.029-.90703 2.0293-2.02734-.00032-1.12031-.90899-2.02811-2.0293-2.02734-.78968.001-1.50683.46079-1.83789 1.17773-.80344-.16845-1.63286-.2968-2.24414-1.01953l-1.41993-1.19922c-.16245-.13644-.36789-.2112-.58007-.21094z" fill="url(#d)"/></g><path d="m723.48966-358.32259c-.51826-.0298-1.04867.13701-1.4668.50977-.83588.74595-.90838 2.02773-.16211 2.86328.46597.52232 1.16764.76755 1.85742.64844.59875.86633.75899 1.65552.84961 2.66211l.13477 1.49414c.0175.19249.0975.37372.22656.51758l4.08594 4.58007c.33042.3707.89835.4021 1.26953.0723l3.55273-3.16797c.36998-.33122.40289-.90104.0723-1.27148l-4.04102-4.52735c-.14102-.15855-.33305-.26245-.54296-.29297l-1.83985-.26172c-.94625.0249-1.59342-.50857-2.25391-.99609.31467-.72429.17906-1.56416-.3457-2.1543-.37257-.41828-.87823-.64593-1.39648-.67578zm-47.47656.8086c-.3886.0371-.76957.18789-1.09376.45507-.60903.50276-.87182 1.31223-.67187 2.07618-.72739.38056-1.44961.80832-2.38086.63867l-1.85742-.0234c-.21211-.002-.41838.07-.58203.20508l-4.6875 3.85547c-.38349.31541-.43791.88359-.12305 1.26758l3.02539 3.67382c.31625.38281.88231.44069 1.26563.125l4.74023-3.90039c.14957-.12239.25593-.28902.30274-.47656l.36328-1.45703c.24379-.98082.52167-1.73566 1.24609-2.5.66339.22339 1.39505.0893 1.93555-.35547.86549-.71133.98906-1.99024.27734-2.85547-.35607-.43243-.85441-.67821-1.37109-.72851-.12918-.0125-.25915-.0124-.38867 0zm38.93945 7.03711c-.51806.033-1.02454.26496-1.39453.68554-.73955.84154-.65628 2.12213.18554 2.86133.5257.46215 1.2535.62155 1.92383.41992.6991.78757.95241 1.55083 1.16406 2.53906l.31446 1.4668c.0411.18887.14157.35915.28711.48633l4.60937 4.05273c.37282.32803.94096.29225 1.26953-.0801l3.14258-3.57618c.32721-.37353.29098-.94178-.082-1.26953l-4.55664-4.00781c-.15916-.14034-.36411-.2197-.57617-.22461l-1.85742-.0371c-.93629.13915-1.6448-.31075-2.35938-.71484.22476-.75701-.009-1.57724-.60156-2.09961-.42042-.37017-.95069-.53499-1.46875-.50195zm-31.70313 1.97656c-.39045-.0102-.78649.0923-1.14062.31836-.6656.4254-1.02213 1.19991-.91602 1.98242-.76806.28987-1.53749.62667-2.4414.3457l-1.8418-.24804c-.2103-.0276-.42473.0205-.60352.13476l-5.11718 3.26172c-.41879.26674-.5415.82293-.27539 1.24219l2.55664 4.01562c.26763.41831.8235.54047 1.24218.27344l5.17774-3.29883c.1633-.10337.28782-.25716.35742-.4375l.53516-1.40039c.36058-.94413.72754-1.65893 1.53906-2.33008.63152.30197 1.37649.25505 1.9668-.12109.94514-.60148 1.22295-1.85391.62109-2.79883-.30118-.47231-.76655-.77861-1.27344-.89062-.12672-.028-.25657-.0454-.38672-.0488zm24.65235 7.38672c-.65025.0344-1.27221.38028-1.63282.98047-.57646.96063-.2636 2.20715.69727 2.7832.60013.36027 1.34356.38509 1.9668.0664.82912.64928 1.21594 1.35488 1.60156 2.28907l.57226 1.38672c.0743.17843.2051.32875.3711.42773l5.25976 3.1582c.42564.25577.97798.11859 1.23438-.30664l2.45117-4.08203c.25483-.4262.11723-.9789-.30859-1.23437l-5.20313-3.12305c-.18177-.10948-.39598-.15239-.60547-.11914l-1.83593.29883c-.89611.30495-1.67176-.012-2.44727-.28125.0852-.78507-.29432-1.54946-.9707-1.95703-.36003-.21651-.76025-.30776-1.15039-.28711zm-19.32032 2.95898c-.19878.017-.39927.0632-.59375.14258-.73084.29911-1.22171.99631-1.25781 1.78516-.80761.14721-1.6241.341-2.46289-.0977l-1.76758-.57617c-.20193-.0649-.42078-.0549-.61718.0254l-5.61914 2.28906c-.46.1872-.68066.71166-.49415 1.17188l1.79688 4.41015c.18822.45956.71206.67972 1.17187.49219l5.68164-2.31445c.17922-.0724.33088-.20226.43165-.36719l.77929-1.28125c.52421-.86407 1.01478-1.50302 1.9336-2.01758.56704.41045 1.30488.50038 1.95312.23633 1.03781-.42201 1.53769-1.60691 1.11524-2.64453-.26439-.64836-.8256-1.08507-1.4629-1.21875-.19118-.0401-.3891-.0522-.58789-.0352zm13.19727 7.33203c-.78958.0377-1.51882.5375-1.80859 1.32617-.3858 1.05179.15508 2.21621 1.20703 2.60157.65711.24116 1.393.12726 1.94531-.30274.9363.48202 1.44972 1.10212 2.00391 1.94727l.82031 1.2539c.10645.16131.26368.28356.44531.34961l5.75977 2.11524c.46609.17129.9823-.0674 1.15429-.5332l1.64063-4.47071c.17026-.46648-.0689-.98138-.53516-1.15234l-5.69531-2.0918c-.1991-.0734-.41767-.0739-.61719-.002l-1.74804.63672c-.8229.4678-1.64477.30234-2.45704.18359-.0637-.78711-.57943-1.46498-1.32031-1.73828-.26285-.0967-.53173-.13562-.79492-.12305zm-8.53125 3.76953c-.13458-.00032-.27092.0134-.4082.041-.77401.15654-1.38873.74756-1.57227 1.51562-.82087-.007-1.65694.0298-2.39844-.55859l-1.63086-.89648c-.0931-.0508-.19359-.0839-.29687-.0996s-.20851-.0132-.3125.008l-5.94922 1.19336c-.48695.0975-.80188.56958-.70508 1.05664l.72461 3.61719c.448-.19476.90298-.37685 1.36719-.53516 2.43738-.83122 5.07937-1.25782 7.08203-1.8125.0795-.021.16174-.0323.24414-.0293.47583.015.80295.41402.79297.83985.44476-.39219.92288-.70488 1.57422-.92188.47988.50965 1.19065.73527 1.87695.59766 1.09858-.21962 1.81188-1.28824 1.5918-2.38672-.1655-.82377-.80953-1.42961-1.58399-1.58789-.12908-.0263-.2619-.0407-.39648-.041zm-2.60352 5.12891c-.0803-.003-.16068.006-.23828.0273-1.95373.54113-4.53037.95863-6.9082 1.76954-2.37782.81091-4.63723 2.05147-5.73242 4.35742-1.51216 3.18388-1.49102 6.14883-.64258 8.81445.84845 2.66562 2.47744 5.05043 4.14844 7.31836 1.58727 2.1543 2.0829 3.83162 2.21093 4.94141.12801 1.1098-.0762 1.5664-.0762 1.5664-.36862.96462 1.04411 1.55779 1.47461.61914l.0176-.0391 5.08789-11.21875c.0453-.10077.0693-.20983.0703-.32031l.17188-14.88282 1.07226-1.73437c.32187-.52346-.0421-1.19935-.65625-1.21875zm12.26758 0c-.6142.0194-.97812.69529-.65625 1.21875l1.07227 1.73437.17187 14.88282c.001.11048.025.21954.0703.32031l5.08789 11.21875.0176.0391c.4305.93865 1.84323.34548 1.47461-.61914 0 0-.20417-.4566-.0762-1.5664.12803-1.10979.62367-2.78711 2.21094-4.94141 1.671-2.26793 3.29999-4.65274 4.14844-7.31836.84844-2.66562.86958-5.63057-.64258-8.81445-1.09519-2.30595-3.3546-3.54651-5.73242-4.35742-2.37783-.81091-4.95448-1.22841-6.90821-1.76954-.0776-.021-.15793-.0302-.23828-.0273zm-8.09179.86914c-1.31715 0-2.37696 1.05979-2.37696 2.37695v12.04297c0 1.31715 2.24937-.70999 3.41406-.85351.53486-.0659 1.08188-.062 1.61719 0 1.23777.14339 3.63867 2.17066 3.63867.85351v-12.04297c0-1.31716-1.05979-2.37695-2.37695-2.37695zm2.73828 15.13477c-2.78056-.11451-5.70448 1.98098-7.41407 6.45898-1.65547 3.94205-3.09462 8.12921-4.32617 12.41016-2.38269 8.2824-3.99352 16.91257-4.91601 24.77929-1.87728 12.04705-4.9784 29.11172 8.13281 34.84766 2.20689.96547 4.80439 1.73572 8.01953 1.91797 5.86774.1734 12.47226-2.95068 15.63672-9.2793 3.88441-7.523.64603-33.636-5.38867-54.88476-.46367-1.63261-.98946-3.25959-1.53125-4.84766-.59397-1.74104-1.20848-3.43635-1.78321-5.04297-1.19502-4.07868-3.74493-6.2488-6.42968-6.35937zm-.54102 51.1582a11.520966 11.520966 0 0 1 11.51953 11.52148 11.520966 11.520966 0 0 1 -11.51953 11.51953 11.520966 11.520966 0 0 1 -11.52148-11.51953 11.520966 11.520966 0 0 1 11.52148-11.52148zm-12.73828 27.52734c-.49657-.00017-.89947.40186-.90039.89844v4.76172c.00091.49658.40382.89861.90039.89844h6.13672c.19327.00059.38159-.061.53711-.17578l1.20508-.89454c.81149-.6024 1.50573-1.00688 2.55078-1.13671.3703.59399 1.02074.95501 1.7207.95507 1.03387.00071 1.8781-.7756 2.00391-1.77539-.46161.0238-.92197.0349-1.37696.0215-3.41565-.19362-6.175-1.01143-8.51953-2.03711-1.00964-.44171-1.91819-.95407-2.7539-1.51563zm16.31641 5.08985c-.21218-.00026-.41763.0745-.58008.21093l-1.41992 1.19922c-.61128.72273-1.4407.85108-2.24414 1.01953-.33106-.71694-1.04821-1.17649-1.83789-1.17773-1.12032-.00077-2.02899.90703-2.0293 2.02734.0003 1.12031.90899 2.02812 2.0293 2.02735.69995-.00006 1.3504-.36109 1.7207-.95508 1.04505.12983 1.74124.53627 2.55273 1.13867l1.20313.89258c.15552.11474.34384.17637.53711.17578h6.13672c.49657.00017.89948-.40186.90039-.89844v-4.76172c-.00092-.49658-.40382-.8986-.90039-.89843zm-15.61719 5.53906c-.49657-.00017-.89947.40186-.90039.89844v4.76172c.00091.49658.40382.8986.90039.89843h6.13672c.19327.00059.38159-.061.53711-.17578l1.20507-.89453c.8115-.6024 1.50574-1.00689 2.55079-1.13672.3703.59399 1.02074.95502 1.7207.95508 1.12031.00077 2.029-.90703 2.0293-2.02734-.00031-1.12031-.90899-2.02812-2.0293-2.02735-.78968.001-1.50683.4608-1.83789 1.17774-.80344-.16845-1.63091-.2968-2.24219-1.01953l-1.42187-1.19922c-.16245-.13644-.3679-.2112-.58008-.21094zm15.75 5.58008c-.21218-.00026-.41763.0745-.58008.21094l-1.41992 1.19921c-.61128.72273-1.4407.85108-2.24414 1.01953-.33106-.71694-1.04821-1.17649-1.83789-1.17773-1.12031-.00077-2.02899.90703-2.0293 2.02734.0003 1.12031.90899 2.02812 2.0293 2.02735.69996-.00006 1.3504-.36109 1.7207-.95508 1.04505.12983 1.74125.53627 2.55273 1.13867l1.20313.89258c.15552.11474.34384.17637.53711.17578h6.13672c.49657.00017.89948-.40186.90039-.89844v-4.76171c-.00092-.49658-.40382-.89861-.90039-.89844zm-16.14453 5.39648c-.49657-.00017-.89947.40186-.90039.89844v4.76172c.00091.49658.40382.89861.90039.89844h6.13672c.19327.00059.38159-.0611.53711-.17579l1.20312-.89453c.81149-.6024 1.50768-1.00689 2.55274-1.13672.37029.59399 1.02074.95502 1.7207.95508 1.12031.00077 2.029-.90703 2.0293-2.02734-.00032-1.12031-.90899-2.02811-2.0293-2.02734-.78968.001-1.50683.46079-1.83789 1.17773-.80344-.16845-1.63286-.2968-2.24414-1.01953l-1.41993-1.19922c-.16245-.13644-.36789-.2112-.58007-.21094z" fill="url(#d)" filter="url(#e)"/><path d="m662.07348-359.81417c3.35652 2.23768 28.2507 49.22895 28.2507 49.22895l13.70579.55942 32.44636-50.06808c-25.17384-11.83788-49.9749-11.74819-74.40285.27971z" fill="none" filter="url(#g)" stroke="#f8f8f8" stroke-opacity=".217617" stroke-width=".8"/><path d="m699.27539-373.47266c-52.30126 0-94.77539 42.47219-94.77539 94.77344 0 52.30126 42.47413 94.77539 94.77539 94.77539s94.77344-42.47413 94.77344-94.77539c0-52.30125-42.47218-94.77344-94.77344-94.77344zm0 7c48.51818 0 87.77344 39.25527 87.77344 87.77344 0 48.51818-39.25526 87.77539-87.77344 87.77539-48.51817 0-87.77539-39.25721-87.77539-87.77539 0-48.51817 39.25722-87.77344 87.77539-87.77344z" fill="url(#h)"/></g></svg>