<?xml version="1.0" encoding="UTF-8" standalone="no"?>
<!-- Created with Inkscape (http://www.inkscape.org/) -->

<svg
   xmlns:dc="http://purl.org/dc/elements/1.1/"
   xmlns:cc="http://creativecommons.org/ns#"
   xmlns:rdf="http://www.w3.org/1999/02/22-rdf-syntax-ns#"
   xmlns:svg="http://www.w3.org/2000/svg"
   xmlns="http://www.w3.org/2000/svg"
   xmlns:xlink="http://www.w3.org/1999/xlink"
   xmlns:sodipodi="http://sodipodi.sourceforge.net/DTD/sodipodi-0.dtd"
   xmlns:inkscape="http://www.inkscape.org/namespaces/inkscape"
   version="1.1"
   id="svg2"
   width="128"
   height="128"
   viewBox="0 0 128 128"
   sodipodi:docname="accessories-media-converter.svg"
   inkscape:version="0.92.4 5da689c313, 2019-01-14">
  <metadata
     id="metadata8">
    <rdf:RDF>
      <cc:Work
         rdf:about="">
        <dc:format>image/svg+xml</dc:format>
        <dc:type
           rdf:resource="http://purl.org/dc/dcmitype/StillImage" />
        <dc:title></dc:title>
      </cc:Work>
    </rdf:RDF>
  </metadata>
  <defs
     id="defs6">
    <linearGradient
       inkscape:collect="always"
       id="linearGradient843-9">
      <stop
         style="stop-color:#f6d34f;stop-opacity:1"
         offset="0"
         id="stop839" />
      <stop
         style="stop-color:#ffb857;stop-opacity:1"
         offset="1"
         id="stop841" />
    </linearGradient>
    <linearGradient
       inkscape:collect="always"
       id="linearGradient827">
      <stop
         style="stop-color:#000000;stop-opacity:1"
         offset="0"
         id="stop823" />
      <stop
         id="stop833"
         offset="0.95644003"
         style="stop-color:#202020;stop-opacity:1" />
      <stop
         style="stop-color:#212121;stop-opacity:0.57647059;"
         offset="0.9767887"
         id="stop837" />
      <stop
         style="stop-color:#242424;stop-opacity:0"
         offset="1"
         id="stop825" />
    </linearGradient>
    <radialGradient
       inkscape:collect="always"
       xlink:href="#linearGradient827"
       id="radialGradient829"
       cx="-466.44064"
       cy="527.18646"
       fx="-466.44064"
       fy="527.18646"
       r="496.81354"
       gradientUnits="userSpaceOnUse"
       gradientTransform="matrix(0.12130735,0,0,0.12161697,121.06441,0.34911052)" />
    <linearGradient
       inkscape:collect="always"
       xlink:href="#linearGradient843-9"
       id="linearGradient845"
       x1="-513.94678"
       y1="92.873978"
       x2="-519.38519"
       y2="915.13129"
       gradientUnits="userSpaceOnUse"
       gradientTransform="matrix(0.12681401,0,0,0.12681401,134.08758,3.661987)" />
  </defs>
  <sodipodi:namedview
     pagecolor="#ffffff"
     bordercolor="#666666"
     borderopacity="1"
     objecttolerance="10"
     gridtolerance="10"
     guidetolerance="10"
     inkscape:pageopacity="0"
     inkscape:pageshadow="2"
     inkscape:window-width="1920"
     inkscape:window-height="1027"
     id="namedview4"
     showgrid="false"
     inkscape:zoom="10.429825"
     inkscape:cx="34.837192"
     inkscape:cy="71.488939"
     inkscape:window-x="0"
     inkscape:window-y="30"
     inkscape:window-maximized="1"
     inkscape:current-layer="svg2" />
  <path
     inkscape:connector-curvature="0"
     d=""
     cx="621.95471"
     cy="755.98816"
     rx="110.06896"
     ry="34.918427"
     style="opacity:0.10100002;fill:#1b1b1b;fill-opacity:1;stroke:none;stroke-width:2.96896577;stroke-linecap:round;stroke-linejoin:round;stroke-miterlimit:4;stroke-dasharray:none;stroke-dashoffset:0;stroke-opacity:1;paint-order:normal"
     id="path1456" />
  <path
     inkscape:connector-curvature="0"
     d=""
     id="path1470"
     style="opacity:0.10100002;fill:#1b1b1b;fill-opacity:1;stroke:none;stroke-width:2.96896577;stroke-linecap:round;stroke-linejoin:round;stroke-miterlimit:4;stroke-dasharray:none;stroke-dashoffset:0;stroke-opacity:1;paint-order:normal"
     ry="34.918427"
     rx="110.06896"
     cy="755.98816"
     cx="621.95471" />
  <path
     id="circle821"
     style="opacity:0.275;fill:url(#radialGradient829);fill-opacity:1;stroke:none;stroke-width:0.92476499;stroke-linecap:round;stroke-linejoin:round;stroke-miterlimit:4;stroke-dasharray:none;stroke-dashoffset:0;stroke-opacity:1;paint-order:fill markers stroke"
     sodipodi:type="arc"
     sodipodi:cx="64.481735"
     sodipodi:cy="64.463936"
     sodipodi:rx="73.45755"
     sodipodi:ry="69.055603"
     sodipodi:start="0"
     sodipodi:end="6.2811238"
     d="M 137.93929,64.463936 A 73.45755,69.055603 0 0 1 64.519594,133.51953 73.45755,69.055603 0 0 1 -8.9757758,64.535115 73.45755,69.055603 0 0 1 64.36816,-4.5915846 73.45755,69.055603 0 0 1 137.93913,64.321577 l -73.457395,0.142359 z" />
  <circle
     style="opacity:1;fill:url(#linearGradient845);fill-opacity:1;stroke:none;stroke-width:0.76088405;stroke-linecap:round;stroke-linejoin:round;stroke-miterlimit:4;stroke-dasharray:none;stroke-dashoffset:0;stroke-opacity:1;paint-order:fill markers stroke"
     id="path819"
     cx="64.481735"
     cy="64.463936"
     r="58.600967" />
  <g
     id="g990"
     transform="translate(79.962989,-26.079056)">
    <path
       id="path981"
       d="m -47.145879,54.452481 -3.894888,19.156339 19.15634,3.894884 -5.087154,-7.683739 c 8.761679,-5.656369 18.46193,-5.370174 29.3836558,2.649608 C -16.420267,59.129012 -25.10784,56.382686 -42.05873,62.136224 Z m 21.540863,57.575049 c 8.832344,13.34056 17.5199158,16.08689 34.4708048,10.33335 l 5.0871552,7.68374 3.89488,-19.15634 -19.1563372,-3.89489 5.087153,7.68374 c -8.761678,5.65637 -18.4619278,5.37018 -29.3836558,-2.6496 z"
       inkscape:connector-curvature="0"
       style="fill:none;stroke:#e98600;stroke-width:1.5;stroke-linecap:round;stroke-linejoin:round;stroke-miterlimit:4;stroke-dasharray:none;stroke-opacity:0.04945056" />
    <path
       style="fill:none;stroke:#e98600;stroke-width:2.5;stroke-linecap:round;stroke-linejoin:round;stroke-miterlimit:4;stroke-dasharray:none;stroke-opacity:0.04945056"
       inkscape:connector-curvature="0"
       d="m -47.145879,54.452481 -3.894888,19.156339 19.15634,3.894884 -5.087154,-7.683739 c 8.761679,-5.656369 18.46193,-5.370174 29.3836558,2.649608 C -16.420267,59.129012 -25.10784,56.382686 -42.05873,62.136224 Z m 21.540863,57.575049 c 8.832344,13.34056 17.5199158,16.08689 34.4708048,10.33335 l 5.0871552,7.68374 3.89488,-19.15634 -19.1563372,-3.89489 5.087153,7.68374 c -8.761678,5.65637 -18.4619278,5.37018 -29.3836558,-2.6496 z"
       id="path983" />
    <path
       id="path985"
       d="m -47.145879,54.452481 -3.894888,19.156339 19.15634,3.894884 -5.087154,-7.683739 c 8.761679,-5.656369 18.46193,-5.370174 29.3836558,2.649608 C -16.420267,59.129012 -25.10784,56.382686 -42.05873,62.136224 Z m 21.540863,57.575049 c 8.832344,13.34056 17.5199158,16.08689 34.4708048,10.33335 l 5.0871552,7.68374 3.89488,-19.15634 -19.1563372,-3.89489 5.087153,7.68374 c -8.761678,5.65637 -18.4619278,5.37018 -29.3836558,-2.6496 z"
       inkscape:connector-curvature="0"
       style="fill:none;stroke:#e98600;stroke-width:4;stroke-linecap:round;stroke-linejoin:round;stroke-miterlimit:4;stroke-dasharray:none;stroke-opacity:0.04945056" />
  </g>
  <path
     id="path948-1"
     d="m 32.81711,28.373425 -3.894888,19.156339 19.15634,3.894884 -5.087154,-7.683739 C 51.753087,38.08454 61.453338,38.370735 72.375064,46.390517 63.542722,33.049956 54.855149,30.30363 37.904259,36.057168 Z m 21.540863,57.575044 c 8.832344,13.34056 17.519916,16.086891 34.470805,10.33335 l 5.087155,7.683741 3.89488,-19.156339 -19.156337,-3.894884 5.087153,7.683739 c -8.761678,5.65637 -18.461928,5.370174 -29.383656,-2.649607 z"
     inkscape:connector-curvature="0"
     style="fill:#ffffff;stroke-width:3.07171655" />
</svg>
