<?xml version="1.0" encoding="UTF-8" standalone="no"?>
<svg
   xmlns:dc="http://purl.org/dc/elements/1.1/"
   xmlns:cc="http://creativecommons.org/ns#"
   xmlns:rdf="http://www.w3.org/1999/02/22-rdf-syntax-ns#"
   xmlns:svg="http://www.w3.org/2000/svg"
   xmlns="http://www.w3.org/2000/svg"
   xmlns:xlink="http://www.w3.org/1999/xlink"
   xmlns:sodipodi="http://sodipodi.sourceforge.net/DTD/sodipodi-0.dtd"
   xmlns:inkscape="http://www.inkscape.org/namespaces/inkscape"
   height="136.53333"
   viewBox="0 0 136.53333 136.53333"
   width="136.53333"
   version="1.1"
   id="svg59"
   sodipodi:docname="acroread.svg"
   inkscape:version="0.92.2 2405546, 2018-03-11">
  <metadata
     id="metadata65">
    <rdf:RDF>
      <cc:Work
         rdf:about="">
        <dc:format>image/svg+xml</dc:format>
        <dc:type
           rdf:resource="http://purl.org/dc/dcmitype/StillImage" />
        <dc:title></dc:title>
      </cc:Work>
    </rdf:RDF>
  </metadata>
  <defs
     id="defs63">
    <linearGradient
       inkscape:collect="always"
       id="linearGradient865">
      <stop
         style="stop-color:#c60000;stop-opacity:1"
         offset="0"
         id="stop861" />
      <stop
         style="stop-color:#ff560f;stop-opacity:0.94901961"
         offset="1"
         id="stop863" />
    </linearGradient>
    <linearGradient
       inkscape:collect="always"
       id="linearGradient857">
      <stop
         style="stop-color:#f1f1f1;stop-opacity:1"
         offset="0"
         id="stop853" />
      <stop
         style="stop-color:#d9dad9;stop-opacity:1"
         offset="1"
         id="stop855" />
    </linearGradient>
    <linearGradient
       inkscape:collect="always"
       xlink:href="#linearGradient857"
       id="linearGradient859"
       x1="73.908607"
       y1="8.693965"
       x2="79.908531"
       y2="137.96426"
       gradientUnits="userSpaceOnUse" />
    <linearGradient
       inkscape:collect="always"
       xlink:href="#linearGradient865"
       id="linearGradient867"
       x1="68.113281"
       y1="106.05577"
       x2="68.113281"
       y2="8.78125"
       gradientUnits="userSpaceOnUse" />
  </defs>
  <sodipodi:namedview
     pagecolor="#ffffff"
     bordercolor="#666666"
     borderopacity="1"
     objecttolerance="10"
     gridtolerance="10"
     guidetolerance="10"
     inkscape:pageopacity="0"
     inkscape:pageshadow="2"
     inkscape:window-width="1920"
     inkscape:window-height="1031"
     id="namedview61"
     showgrid="false"
     inkscape:zoom="1.7285157"
     inkscape:cx="-163.31488"
     inkscape:cy="63.274866"
     inkscape:window-x="0"
     inkscape:window-y="26"
     inkscape:window-maximized="1"
     inkscape:current-layer="svg59"
     showguides="false" />
  <linearGradient
     id="a">
    <stop
       offset="0"
       stop-color="#9760ef"
       id="stop2" />
    <stop
       offset="1"
       stop-color="#c054f2"
       stop-opacity="0"
       id="stop4" />
  </linearGradient>
  <linearGradient
     id="b">
    <stop
       offset="0"
       stop-color="#17c7e7"
       id="stop7" />
    <stop
       offset="1"
       stop-color="#c054f2"
       stop-opacity="0"
       id="stop9" />
  </linearGradient>
  <linearGradient
     id="c"
     gradientUnits="userSpaceOnUse"
     x1="62.04421"
     x2="66.81698"
     y1="5.831234"
     y2="47.148641">
    <stop
       offset="0"
       stop-color="#e83c2b"
       id="stop12" />
    <stop
       offset="1"
       stop-color="#c054f2"
       stop-opacity=".792157"
       id="stop14" />
  </linearGradient>
  <linearGradient
     id="d"
     gradientUnits="userSpaceOnUse"
     x1="88.22553"
     x2="38.18116"
     xlink:href="#b"
     y1="119.556361"
     y2="35.285226"
     gradientTransform="translate(-227.27608,-22.607353)" />
  <linearGradient
     id="e"
     gradientUnits="userSpaceOnUse"
     x1="61.6262"
     x2="95.3216"
     y1="48.640058"
     y2="103.021981">
    <stop
       offset="0"
       stop-color="#f66456"
       id="stop18" />
    <stop
       offset="1"
       stop-color="#d9493e"
       stop-opacity="0"
       id="stop20" />
  </linearGradient>
  <linearGradient
     id="f"
     gradientUnits="userSpaceOnUse"
     x1="32.31499"
     x2="61.76681"
     xlink:href="#a"
     y1="92.483823"
     y2="57.318029" />
  <linearGradient
     id="g"
     gradientUnits="userSpaceOnUse"
     x1="96.53194"
     x2="61.76681"
     xlink:href="#b"
     y1="97.690601"
     y2="59.053621" />
  <linearGradient
     id="h"
     gradientUnits="userSpaceOnUse"
     x1="139.34325"
     x2="61.76681"
     xlink:href="#a"
     y1="-7.023515"
     y2="59.053621" />
  <filter
     id="i"
     color-interpolation-filters="sRGB"
     height="1.108812"
     width="1.139866"
     x="-.069933"
     y="-.054406">
    <feGaussianBlur
       stdDeviation="1.9764485"
       id="feGaussianBlur26" />
  </filter>
  <path
     style="color:#000000;font-style:normal;font-variant:normal;font-weight:normal;font-stretch:normal;font-size:medium;line-height:normal;font-family:sans-serif;font-variant-ligatures:normal;font-variant-position:normal;font-variant-caps:normal;font-variant-numeric:normal;font-variant-alternates:normal;font-feature-settings:normal;text-indent:0;text-align:start;text-decoration:none;text-decoration-line:none;text-decoration-style:solid;text-decoration-color:#000000;letter-spacing:normal;word-spacing:normal;text-transform:none;writing-mode:lr-tb;direction:ltr;text-orientation:mixed;dominant-baseline:auto;baseline-shift:baseline;text-anchor:start;white-space:normal;shape-padding:0;clip-rule:nonzero;display:inline;overflow:visible;visibility:visible;opacity:1;isolation:auto;mix-blend-mode:normal;color-interpolation:sRGB;color-interpolation-filters:linearRGB;solid-color:#000000;solid-opacity:1;vector-effect:none;fill:url(#linearGradient859);fill-opacity:1;fill-rule:nonzero;stroke:none;stroke-width:6;stroke-linecap:butt;stroke-linejoin:miter;stroke-miterlimit:4;stroke-dasharray:none;stroke-dashoffset:0;stroke-opacity:1;color-rendering:auto;image-rendering:auto;shape-rendering:auto;text-rendering:auto;enable-background:accumulate"
     d="m 68.113281,2.2167969 c -36.979431,0 -67.0214841,30.0420531 -67.0214841,67.0214841 0,36.979429 30.0420531,67.021489 67.0214841,67.021489 36.979429,0 67.021489,-30.04206 67.021489,-67.021489 0,-36.979431 -30.04206,-67.0214841 -67.021489,-67.0214841 z"
     id="circle29"
     inkscape:connector-curvature="0"
     sodipodi:nodetypes="sssss" />
  <path
     style="opacity:1;fill:url(#linearGradient867);fill-opacity:1;stroke:none;stroke-width:3.79999995;stroke-linecap:round;stroke-linejoin:round;stroke-miterlimit:4;stroke-dasharray:none;stroke-dashoffset:0;stroke-opacity:0.05323193;paint-order:fill markers stroke"
     d="M 68.113281,8.78125 C 34.723662,8.7809529 7.6559529,35.848662 7.65625,69.238281 7.655954,102.6279 34.723662,129.69561 68.113281,129.69531 101.5029,129.69561 128.57061,102.6279 128.57031,69.238281 128.57061,35.848662 101.5029,8.780954 68.113281,8.78125 Z"
     id="path839"
     inkscape:connector-curvature="0"
     sodipodi:nodetypes="ccccc" />
  <path
     style="fill:#ffffff;fill-opacity:1;stroke-width:5.48189592"
     id="path866-7"
     d="m 107.87731,77.812792 c -1.50765,-1.485045 -4.85134,-2.271697 -9.939437,-2.338577 -3.44421,-0.05483 -7.589679,0.263118 -11.950009,0.875458 -1.95243,-1.126527 -3.96449,-2.352279 -5.5443,-3.828556 -4.24916,-3.967796 -7.796057,-9.475454 -10.00623,-15.531854 0.144022,-0.56573 0.266598,-1.062939 0.380715,-1.570016 0,0 2.393435,-13.595101 1.759867,-18.191121 -0.08718,-0.630418 -0.14084,-0.813514 -0.310319,-1.303596 l -0.207895,-0.531745 c -0.650967,-1.501489 -1.927436,-3.092337 -3.928683,-3.005722 l -1.173599,-0.05482 -0.03248,-5.51e-4 c -2.231599,0 -4.050433,1.141331 -4.527887,2.847298 -1.451251,5.350331 0.04604,13.354993 2.759956,23.722356 l -0.694653,1.688972 c -1.943132,4.736353 -4.378142,9.507248 -6.526589,13.715698 l -0.27936,0.548192 c -2.260234,4.423339 -4.311112,8.178439 -6.170246,11.359036 l -1.919586,1.015244 c -0.13978,0.07127 -3.429594,1.813412 -4.201241,2.280471 -6.546102,3.908592 -10.883943,8.345638 -11.603629,11.866661 -0.229076,1.12324 -0.05854,2.56114 1.106149,3.2272 l 1.856592,0.93411 c 0.805373,0.40566 1.654656,0.60794 2.524725,0.60794 4.662369,0 10.075175,-5.80807 17.531652,-18.820996 8.609074,-2.802894 18.410819,-5.13215 27.001231,-6.417108 6.54654,3.68603 14.598179,6.246075 19.680106,6.246075 0.90232,0 1.68012,-0.08771 2.31221,-0.252179 0.97465,-0.257649 1.79612,-0.814061 2.29694,-1.567822 0.98586,-1.483947 1.18588,-3.527598 0.91819,-5.620588 -0.0797,-0.620551 -0.57587,-1.388565 -1.1125,-1.912633 z M 38.238782,102.62166 c 0.850131,-2.32487 4.21566,-6.920347 9.191735,-10.998328 0.312838,-0.25218 1.083454,-0.975777 1.789139,-1.646214 -5.203664,8.299591 -8.688401,11.607372 -10.980874,12.644542 z M 67.711734,34.750858 c 1.498761,0 2.351229,3.77812 2.422073,7.319425 0.07067,3.541855 -0.757655,6.027344 -1.785111,7.866521 -0.850979,-2.722856 -1.262259,-7.014633 -1.262259,-9.821366 0,0 -0.06255,-5.36458 0.625297,-5.36458 z M 58.91982,83.117075 c 1.043999,-1.868779 2.13021,-3.839521 3.240178,-5.929767 2.705655,-5.116803 4.414406,-9.120231 5.687064,-12.411561 2.531095,4.605341 5.683246,8.519963 9.388802,11.656703 0.46218,0.389215 0.95192,0.784462 1.46628,1.176417 -7.535369,1.491074 -14.048175,3.304485 -19.782324,5.508208 z m 47.50964,-0.422105 c -0.459,0.285061 -1.77364,0.454997 -2.61933,0.454997 -2.7292,0 -6.105997,-1.247682 -10.839846,-3.277077 1.818829,-0.137061 3.486669,-0.202824 4.982249,-0.202824 2.737447,0 3.548367,0 6.225167,0.670437 2.67683,0.683042 2.71055,2.069963 2.25176,2.356664 z"
     inkscape:connector-curvature="0" />
</svg>
