<?xml version="1.0" encoding="UTF-8" standalone="no"?>
<svg
   xmlns:dc="http://purl.org/dc/elements/1.1/"
   xmlns:cc="http://creativecommons.org/ns#"
   xmlns:rdf="http://www.w3.org/1999/02/22-rdf-syntax-ns#"
   xmlns:svg="http://www.w3.org/2000/svg"
   xmlns="http://www.w3.org/2000/svg"
   xmlns:xlink="http://www.w3.org/1999/xlink"
   xmlns:sodipodi="http://sodipodi.sourceforge.net/DTD/sodipodi-0.dtd"
   xmlns:inkscape="http://www.inkscape.org/namespaces/inkscape"
   height="136.53333"
   viewBox="0 0 136.53333 136.53333"
   width="136.53333"
   version="1.1"
   id="svg59"
   sodipodi:docname="alexandra.svg"
   inkscape:version="0.92.2 2405546, 2018-03-11">
  <metadata
     id="metadata65">
    <rdf:RDF>
      <cc:Work
         rdf:about="">
        <dc:format>image/svg+xml</dc:format>
        <dc:type
           rdf:resource="http://purl.org/dc/dcmitype/StillImage" />
        <dc:title></dc:title>
      </cc:Work>
    </rdf:RDF>
  </metadata>
  <defs
     id="defs63">
    <linearGradient
       inkscape:collect="always"
       id="linearGradient865">
      <stop
         style="stop-color:#008c81;stop-opacity:1"
         offset="0"
         id="stop861" />
      <stop
         style="stop-color:#00c49a;stop-opacity:0.94901961"
         offset="1"
         id="stop863" />
    </linearGradient>
    <linearGradient
       inkscape:collect="always"
       id="linearGradient857">
      <stop
         style="stop-color:#f1f1f1;stop-opacity:1"
         offset="0"
         id="stop853" />
      <stop
         style="stop-color:#d9dad9;stop-opacity:1"
         offset="1"
         id="stop855" />
    </linearGradient>
    <linearGradient
       inkscape:collect="always"
       xlink:href="#linearGradient857"
       id="linearGradient859"
       x1="73.908607"
       y1="8.693965"
       x2="79.908531"
       y2="137.96426"
       gradientUnits="userSpaceOnUse" />
    <linearGradient
       inkscape:collect="always"
       xlink:href="#linearGradient865"
       id="linearGradient867"
       x1="68.113281"
       y1="106.05577"
       x2="68.113281"
       y2="8.78125"
       gradientUnits="userSpaceOnUse" />
  </defs>
  <sodipodi:namedview
     pagecolor="#ffffff"
     bordercolor="#666666"
     borderopacity="1"
     objecttolerance="10"
     gridtolerance="10"
     guidetolerance="10"
     inkscape:pageopacity="0"
     inkscape:pageshadow="2"
     inkscape:window-width="1920"
     inkscape:window-height="1031"
     id="namedview61"
     showgrid="false"
     inkscape:zoom="2.4444904"
     inkscape:cx="-81.498231"
     inkscape:cy="73.501946"
     inkscape:window-x="0"
     inkscape:window-y="26"
     inkscape:window-maximized="1"
     inkscape:current-layer="svg59"
     showguides="false" />
  <linearGradient
     id="a">
    <stop
       offset="0"
       stop-color="#9760ef"
       id="stop2" />
    <stop
       offset="1"
       stop-color="#c054f2"
       stop-opacity="0"
       id="stop4" />
  </linearGradient>
  <linearGradient
     id="b">
    <stop
       offset="0"
       stop-color="#17c7e7"
       id="stop7" />
    <stop
       offset="1"
       stop-color="#c054f2"
       stop-opacity="0"
       id="stop9" />
  </linearGradient>
  <linearGradient
     id="c"
     gradientUnits="userSpaceOnUse"
     x1="62.04421"
     x2="66.81698"
     y1="5.831234"
     y2="47.148641">
    <stop
       offset="0"
       stop-color="#e83c2b"
       id="stop12" />
    <stop
       offset="1"
       stop-color="#c054f2"
       stop-opacity=".792157"
       id="stop14" />
  </linearGradient>
  <linearGradient
     id="d"
     gradientUnits="userSpaceOnUse"
     x1="88.22553"
     x2="38.18116"
     xlink:href="#b"
     y1="119.556361"
     y2="35.285226"
     gradientTransform="translate(-227.27608,-22.607353)" />
  <linearGradient
     id="e"
     gradientUnits="userSpaceOnUse"
     x1="61.6262"
     x2="95.3216"
     y1="48.640058"
     y2="103.021981">
    <stop
       offset="0"
       stop-color="#f66456"
       id="stop18" />
    <stop
       offset="1"
       stop-color="#d9493e"
       stop-opacity="0"
       id="stop20" />
  </linearGradient>
  <linearGradient
     id="f"
     gradientUnits="userSpaceOnUse"
     x1="32.31499"
     x2="61.76681"
     xlink:href="#a"
     y1="92.483823"
     y2="57.318029" />
  <linearGradient
     id="g"
     gradientUnits="userSpaceOnUse"
     x1="96.53194"
     x2="61.76681"
     xlink:href="#b"
     y1="97.690601"
     y2="59.053621" />
  <linearGradient
     id="h"
     gradientUnits="userSpaceOnUse"
     x1="139.34325"
     x2="61.76681"
     xlink:href="#a"
     y1="-7.023515"
     y2="59.053621" />
  <filter
     id="i"
     color-interpolation-filters="sRGB"
     height="1.108812"
     width="1.139866"
     x="-.069933"
     y="-.054406">
    <feGaussianBlur
       stdDeviation="1.9764485"
       id="feGaussianBlur26" />
  </filter>
  <path
     style="color:#000000;font-style:normal;font-variant:normal;font-weight:normal;font-stretch:normal;font-size:medium;line-height:normal;font-family:sans-serif;font-variant-ligatures:normal;font-variant-position:normal;font-variant-caps:normal;font-variant-numeric:normal;font-variant-alternates:normal;font-feature-settings:normal;text-indent:0;text-align:start;text-decoration:none;text-decoration-line:none;text-decoration-style:solid;text-decoration-color:#000000;letter-spacing:normal;word-spacing:normal;text-transform:none;writing-mode:lr-tb;direction:ltr;text-orientation:mixed;dominant-baseline:auto;baseline-shift:baseline;text-anchor:start;white-space:normal;shape-padding:0;clip-rule:nonzero;display:inline;overflow:visible;visibility:visible;opacity:1;isolation:auto;mix-blend-mode:normal;color-interpolation:sRGB;color-interpolation-filters:linearRGB;solid-color:#000000;solid-opacity:1;vector-effect:none;fill:url(#linearGradient859);fill-opacity:1;fill-rule:nonzero;stroke:none;stroke-width:6;stroke-linecap:butt;stroke-linejoin:miter;stroke-miterlimit:4;stroke-dasharray:none;stroke-dashoffset:0;stroke-opacity:1;color-rendering:auto;image-rendering:auto;shape-rendering:auto;text-rendering:auto;enable-background:accumulate"
     d="m 68.113281,2.2167969 c -36.979431,0 -67.0214841,30.0420531 -67.0214841,67.0214841 0,36.979429 30.0420531,67.021489 67.0214841,67.021489 36.979429,0 67.021489,-30.04206 67.021489,-67.021489 0,-36.979431 -30.04206,-67.0214841 -67.021489,-67.0214841 z"
     id="circle29"
     inkscape:connector-curvature="0"
     sodipodi:nodetypes="sssss" />
  <path
     style="opacity:1;fill:url(#linearGradient867);fill-opacity:1;stroke:none;stroke-width:3.79999995;stroke-linecap:round;stroke-linejoin:round;stroke-miterlimit:4;stroke-dasharray:none;stroke-dashoffset:0;stroke-opacity:0.05323193;paint-order:fill markers stroke"
     d="M 68.113281,8.78125 C 34.723662,8.7809529 7.6559529,35.848662 7.65625,69.238281 7.655954,102.6279 34.723662,129.69561 68.113281,129.69531 101.5029,129.69561 128.57061,102.6279 128.57031,69.238281 128.57061,35.848662 101.5029,8.780954 68.113281,8.78125 Z"
     id="path839"
     inkscape:connector-curvature="0"
     sodipodi:nodetypes="ccccc" />
  <path
     inkscape:connector-curvature="0"
     d="m 44.230465,42.495147 c -0.63657,0 -1.15039,0.511845 -1.15039,1.14833 v 51.189387 c 0,0.6367 0.51382,1.14855 1.15039,1.14855 h 47.76563 c 0.63657,0 1.15039,-0.51185 1.15039,-1.14855 V 43.643477 c 0,-0.636485 -0.51382,-1.14833 -1.15039,-1.14833 z m 10.08399,3.421746 h 27.59766 c 0.63655,0 1.14843,0.511845 1.14843,1.148552 v 19.49395 c 0,0.636707 -0.51188,1.148552 -1.14843,1.148552 h -27.59766 c -0.63657,0 -1.14844,-0.511845 -1.14844,-1.148552 v -19.49395 c 0,-0.636707 0.51187,-1.148552 1.14844,-1.148552 z m -8.26953,0.0487 h 4.24414 c 0.3544,0 0.64062,0.286253 0.64062,0.640471 v 2.029448 c 0,0.35444 -0.28622,0.642463 -0.64062,0.642463 h -4.24414 c -0.3544,0 -0.63867,-0.288023 -0.63867,-0.642463 v -2.029448 c 0,-0.354218 0.28427,-0.640471 0.63867,-0.640471 z m 39.89062,0 h 4.24414 c 0.35441,0 0.64063,0.286253 0.64063,0.640471 v 2.029448 c 0,0.35444 -0.28622,0.642463 -0.64063,0.642463 h -4.24414 c -0.3544,0 -0.64062,-0.288023 -0.64062,-0.642463 v -2.029448 c 0,-0.354218 0.28622,-0.640471 0.64062,-0.640471 z m -0.0996,6.122881 h 4.24414 c 0.35441,0 0.64063,0.28426 0.64063,0.6387 v 2.031219 c 0,0.354439 -0.28622,0.640692 -0.64063,0.640692 h -4.24414 c -0.3544,0 -0.64062,-0.286253 -0.64062,-0.640692 v -2.031219 c 0,-0.35444 0.28622,-0.6387 0.64062,-0.6387 z m -39.79101,0.05313 h 4.24414 c 0.3544,0 0.64062,0.286031 0.64062,0.64047 v 2.029449 c 0,0.354439 -0.28622,0.642463 -0.64062,0.642463 h -4.24414 c -0.3544,0 -0.63867,-0.288024 -0.63867,-0.642463 v -2.029449 c 0,-0.354439 0.28427,-0.64047 0.63867,-0.64047 z m 39.79101,6.122881 h 4.24414 c 0.35441,0 0.64063,0.286252 0.64063,0.640692 v 2.029227 c 0,0.354439 -0.28622,0.640692 -0.64063,0.640692 h -4.24414 c -0.3544,0 -0.64062,-0.286253 -0.64062,-0.640692 v -2.029227 c 0,-0.35444 0.28622,-0.640692 0.64062,-0.640692 z m -39.79101,0.05535 h 4.24414 c 0.3544,0 0.64062,0.286253 0.64062,0.640692 v 2.027456 c 0,0.35444 -0.28622,0.642463 -0.64062,0.642463 h -4.24414 c -0.3544,0 -0.63867,-0.288023 -0.63867,-0.642463 v -2.027456 c 0,-0.354439 0.28427,-0.640692 0.63867,-0.640692 z m 39.79101,6.12111 h 4.24414 c 0.35441,0 0.64063,0.286253 0.64063,0.640692 v 2.031219 c 0,0.35444 -0.28622,0.6387 -0.64063,0.6387 h -4.24414 c -0.3544,0 -0.64062,-0.28426 -0.64062,-0.6387 v -2.031219 c 0,-0.354439 0.28622,-0.640692 0.64062,-0.640692 z m -39.79101,0.05535 h 4.24414 c 0.3544,0 0.64062,0.286252 0.64062,0.640692 v 2.031219 c 0,0.354439 -0.28622,0.638699 -0.64062,0.638699 h -4.24414 c -0.3544,0 -0.63867,-0.28426 -0.63867,-0.638699 v -2.031219 c 0,-0.35444 0.28427,-0.640692 0.63867,-0.640692 z m 39.79101,6.12111 h 4.24414 c 0.35441,0 0.64063,0.286252 0.64063,0.640692 v 2.031219 c 0,0.354439 -0.28622,0.638699 -0.64063,0.638699 h -4.24414 c -0.3544,0 -0.64062,-0.28426 -0.64062,-0.638699 v -2.031219 c 0,-0.35444 0.28622,-0.640692 0.64062,-0.640692 z m -39.79101,0.05535 h 4.24414 c 0.3544,0 0.64062,0.286253 0.64062,0.640692 v 2.031219 c 0,0.35444 -0.28622,0.6387 -0.64062,0.6387 h -4.24414 c -0.3544,0 -0.63867,-0.28426 -0.63867,-0.6387 v -2.031222 c 0,-0.354439 0.28427,-0.640692 0.63867,-0.640692 z m 8.26953,0.234448 h 27.59766 c 0.63655,0 1.14843,0.513838 1.14843,1.150323 v 19.492178 c 0,0.6367 -0.51188,1.14855 -1.14843,1.14855 h -27.59767 c -0.63657,0 -1.14844,-0.51185 -1.14844,-1.14855 V 72.057523 c 0,-0.636485 0.51187,-1.150323 1.14844,-1.150323 z m 31.52148,5.886662 h 4.24414 c 0.35441,0 0.64063,0.286252 0.64063,0.640692 v 2.031219 c 0,0.35444 -0.28622,0.6387 -0.64063,0.6387 h -4.24414 c -0.3544,0 -0.64062,-0.28426 -0.64062,-0.6387 v -2.031222 c 0,-0.35444 0.28622,-0.640692 0.64062,-0.640692 z m -39.79101,0.05535 h 4.24414 c 0.3544,0 0.64062,0.286252 0.64062,0.640691 v 2.03122 c 0,0.354439 -0.28622,0.638699 -0.64062,0.638699 h -4.24414 c -0.3544,0 -0.63867,-0.28426 -0.63867,-0.638699 v -2.03122 c 0,-0.354439 0.28427,-0.640691 0.63867,-0.640691 z m 39.79101,6.123102 h 4.24414 c 0.35441,0 0.64063,0.28426 0.64063,0.638699 v 2.03122 c 0,0.354439 -0.28622,0.640692 -0.64063,0.640692 h -4.24414 c -0.3544,0 -0.64062,-0.286253 -0.64062,-0.640692 v -2.03122 c 0,-0.354439 0.28622,-0.638699 0.64062,-0.638699 z m -39.79101,0.05535 h 4.24414 c 0.3544,0 0.64062,0.28426 0.64062,0.6387 v 2.031219 c 0,0.35444 -0.28622,0.640692 -0.64062,0.640692 h -4.24414 c -0.3544,0 -0.63867,-0.286252 -0.63867,-0.640692 v -2.031219 c 0,-0.35444 0.28427,-0.6387 0.63867,-0.6387 z m 39.79101,6.12111 h 4.24414 c 0.35441,0 0.64063,0.28426 0.64063,0.6387 v 2.031217 c 0,0.35444 -0.28622,0.64069 -0.64063,0.64069 h -4.24414 c -0.3544,0 -0.64062,-0.28625 -0.64062,-0.64069 v -2.031217 c 0,-0.35444 0.28622,-0.6387 0.64062,-0.6387 z m -39.79101,0.05535 h 4.24414 c 0.3544,0 0.64062,0.28426 0.64062,0.638699 v 2.031218 c 0,0.35444 -0.28622,0.64069 -0.64062,0.64069 h -4.24414 c -0.3544,0 -0.63867,-0.28625 -0.63867,-0.64069 v -2.031218 c 0,-0.354439 0.28427,-0.638699 0.63867,-0.638699 z"
     id="path890"
     style="opacity:1;fill:#ffffff;fill-opacity:1;stroke-width:2.2138629" />
</svg>
