<?xml version="1.0" encoding="UTF-8" standalone="no"?>
<!-- Created with Inkscape (http://www.inkscape.org/) -->

<svg
   xmlns:osb="http://www.openswatchbook.org/uri/2009/osb"
   xmlns:dc="http://purl.org/dc/elements/1.1/"
   xmlns:cc="http://creativecommons.org/ns#"
   xmlns:rdf="http://www.w3.org/1999/02/22-rdf-syntax-ns#"
   xmlns:svg="http://www.w3.org/2000/svg"
   xmlns="http://www.w3.org/2000/svg"
   xmlns:xlink="http://www.w3.org/1999/xlink"
   xmlns:sodipodi="http://sodipodi.sourceforge.net/DTD/sodipodi-0.dtd"
   xmlns:inkscape="http://www.inkscape.org/namespaces/inkscape"
   width="128"
   height="128"
   viewBox="0 0 33.866666 33.866668"
   version="1.1"
   id="svg8"
   inkscape:version="0.92.3 (2405546, 2018-03-11)"
   sodipodi:docname="amarok.svg">
  <defs
     id="defs2">
    <linearGradient
       id="linearGradient1186"
       inkscape:collect="always">
      <stop
         id="stop1182"
         offset="0"
         style="stop-color:#4764f3;stop-opacity:1" />
      <stop
         style="stop-color:#4171e2;stop-opacity:1;"
         offset="0.18180059"
         id="stop1190" />
      <stop
         style="stop-color:#1077ed;stop-opacity:1"
         offset="0.5"
         id="stop1188" />
      <stop
         id="stop1184"
         offset="1"
         style="stop-color:#10cba7;stop-opacity:1" />
    </linearGradient>
    <linearGradient
       inkscape:collect="always"
       id="linearGradient1012">
      <stop
         style="stop-color:#eaeaea;stop-opacity:1"
         offset="0"
         id="stop1008" />
      <stop
         style="stop-color:#fbfbfb;stop-opacity:1"
         offset="1"
         id="stop1010" />
    </linearGradient>
    <linearGradient
       id="linearGradient3361"
       inkscape:collect="always">
      <stop
         id="stop3363"
         offset="0"
         style="stop-color:#0068e0;stop-opacity:1;" />
      <stop
         id="stop3365"
         offset="1"
         style="stop-color:#00acf4;stop-opacity:1" />
    </linearGradient>
    <linearGradient
       xlink:href="#linearGradient3361"
       x1="71.204002"
       y1="15.369"
       gradientTransform="matrix(1.5564685,0,0,1.58743,-88.730662,-20.236087)"
       x2="71.204002"
       gradientUnits="userSpaceOnUse"
       y2="40.495998"
       id="linearGradient3026">
      <stop
         offset="0"
         stop-color="#fff"
         id="stop4808-4" />
      <stop
         offset=".42448"
         stop-opacity=".23529"
         stop-color="#fff"
         id="stop4810-0" />
      <stop
         offset=".82090"
         stop-opacity=".15686"
         stop-color="#fff"
         id="stop4812-8" />
      <stop
         offset="1"
         stop-opacity=".39216"
         stop-color="#fff"
         id="stop4814-0" />
    </linearGradient>
    <radialGradient
       r="20"
       gradientTransform="matrix(-3.4973e-8,1.8855,-1.7764,-5.4723e-8,39.14,-7.9932)"
       cx="15.026"
       cy="8.6258001"
       gradientUnits="userSpaceOnUse"
       fy="8.5088997"
       fx="4.4590001"
       id="radialGradient3029">
      <stop
         offset="0"
         stop-color="#c24251"
         id="stop4170" />
      <stop
         offset=".26238"
         stop-color="#c24251"
         id="stop4172" />
      <stop
         offset=".66094"
         stop-color="#a63643"
         id="stop4174" />
      <stop
         offset="1"
         stop-color="#a63643"
         id="stop4176" />
    </radialGradient>
    <radialGradient
       r="20.396999"
       gradientTransform="matrix(0,2.835678,-3.67007,0,38.250987,-64.305184)"
       cx="23.896"
       cy="3.99"
       gradientUnits="userSpaceOnUse"
       id="radialGradient3032">
      <stop
         offset="0"
         stop-color="#fff"
         id="stop3244-9-33-7-0-9" />
      <stop
         offset=".26238"
         stop-color="#ddd"
         id="stop3246-3-5-0-8-5" />
      <stop
         offset=".66094"
         stop-color="#abacae"
         id="stop3248-1-7-8-8-1" />
      <stop
         offset="1"
         stop-color="#89898b"
         id="stop3250-9-3-0-5-1" />
    </radialGradient>
    <radialGradient
       r="62.769001"
       gradientTransform="matrix(0.27083,0,0,0.087623,-2.8550999,26.187422)"
       cx="99.156998"
       cy="186.17"
       gradientUnits="userSpaceOnUse"
       id="radialGradient3035">
      <stop
         offset="0"
         stop-color="#3d3d3d"
         id="stop3822-2-6-3" />
      <stop
         offset=".5"
         stop-opacity=".49804"
         stop-color="#686868"
         id="stop3864-8-7-7" />
      <stop
         offset="1"
         stop-opacity="0"
         stop-color="#686868"
         id="stop3824-1-2-5" />
    </radialGradient>
    <linearGradient
       x1="22.759001"
       y1="13.035"
       gradientTransform="matrix(1,0,0,1.0521,0,-0.90547)"
       x2="23.077999"
       gradientUnits="userSpaceOnUse"
       y2="25.611"
       id="linearGradient4433">
      <stop
         offset="0"
         stop-color="#fff"
         id="stop6305-1-0-2" />
      <stop
         offset="1"
         stop-opacity="0"
         stop-color="#fff"
         id="stop6307-5-0-6" />
    </linearGradient>
    <linearGradient
       id="linearGradient4829">
      <stop
         id="stop4831"
         offset="0"
         style="stop-color:#f4fbfc;stop-opacity:1;" />
      <stop
         id="stop4833"
         offset="1"
         style="stop-color:#d6d6d6;stop-opacity:1;" />
    </linearGradient>
    <radialGradient
       gradientUnits="userSpaceOnUse"
       r="127.0051"
       cy="186.51421"
       cx="224.50391"
       id="SVGID_4_">
      <stop
         id="stop27"
         style="stop-color:#FFFFFF"
         offset="0" />
      <stop
         id="stop29"
         style="stop-color:#FDFEFF"
         offset="0.3984" />
      <stop
         id="stop31"
         style="stop-color:#F5FAFF"
         offset="0.6131" />
      <stop
         id="stop33"
         style="stop-color:#E7F3FF"
         offset="0.7841" />
      <stop
         id="stop35"
         style="stop-color:#D4EAFF"
         offset="0.9311" />
      <stop
         id="stop37"
         style="stop-color:#C8E4FF"
         offset="1" />
    </radialGradient>
    <radialGradient
       id="SVGID_5_"
       cx="324.69339"
       cy="286.66409"
       r="26.769501"
       gradientUnits="userSpaceOnUse">
      <stop
         offset="0"
         style="stop-color:#FFFFFF"
         id="stop50" />
      <stop
         offset="0.3984"
         style="stop-color:#FDFEFF"
         id="stop52" />
      <stop
         offset="0.6131"
         style="stop-color:#F5FAFF"
         id="stop54" />
      <stop
         offset="0.7841"
         style="stop-color:#E7F3FF"
         id="stop56" />
      <stop
         offset="0.9311"
         style="stop-color:#D4EAFF"
         id="stop58" />
      <stop
         offset="1"
         style="stop-color:#C8E4FF"
         id="stop60" />
    </radialGradient>
    <radialGradient
       id="SVGID_6_"
       cx="325"
       cy="392.77249"
       r="46.444901"
       gradientUnits="userSpaceOnUse">
      <stop
         offset="0"
         style="stop-color:#FFFFFF"
         id="stop73" />
      <stop
         offset="0.3984"
         style="stop-color:#FDFEFF"
         id="stop75" />
      <stop
         offset="0.6131"
         style="stop-color:#F5FAFF"
         id="stop77" />
      <stop
         offset="0.7841"
         style="stop-color:#E7F3FF"
         id="stop79" />
      <stop
         offset="0.9311"
         style="stop-color:#D4EAFF"
         id="stop81" />
      <stop
         offset="1"
         style="stop-color:#C8E4FF"
         id="stop83" />
    </radialGradient>
    <clipPath
       id="clipPath-349538100">
      <g
         transform="translate(0,-1004.4)"
         id="g17">
        <path
           transform="matrix(15.333,0,0,11.5,415,878.86)"
           d="m -24,13 c 0,1.105 -0.672,2 -1.5,2 -0.828,0 -1.5,-0.895 -1.5,-2 0,-1.105 0.672,-2 1.5,-2 0.828,0 1.5,0.895 1.5,2 z"
           id="path19"
           inkscape:connector-curvature="0"
           style="fill:#1890d0" />
      </g>
    </clipPath>
    <clipPath
       id="clipPath3914">
      <g
         transform="translate(0,-1004.4)"
         id="g3912">
        <path
           transform="matrix(15.333,0,0,11.5,415,878.86)"
           d="m -24,13 c 0,1.105 -0.672,2 -1.5,2 -0.828,0 -1.5,-0.895 -1.5,-2 0,-1.105 0.672,-2 1.5,-2 0.828,0 1.5,0.895 1.5,2 z"
           id="path3910"
           inkscape:connector-curvature="0"
           style="fill:#1890d0" />
      </g>
    </clipPath>
    <clipPath
       id="clipPath3920">
      <g
         transform="translate(0,-1004.4)"
         id="g3918">
        <path
           transform="matrix(15.333,0,0,11.5,415,878.86)"
           d="m -24,13 c 0,1.105 -0.672,2 -1.5,2 -0.828,0 -1.5,-0.895 -1.5,-2 0,-1.105 0.672,-2 1.5,-2 0.828,0 1.5,0.895 1.5,2 z"
           id="path3916"
           inkscape:connector-curvature="0"
           style="fill:#1890d0" />
      </g>
    </clipPath>
    <linearGradient
       inkscape:collect="always"
       xlink:href="#linearGradient1186"
       id="linearGradient1014"
       x1="174.79448"
       y1="250.8136"
       x2="286.74219"
       y2="343.09171"
       gradientUnits="userSpaceOnUse"
       gradientTransform="matrix(0.24529405,0,0,0.24529405,-82.007187,204.88782)" />
    <linearGradient
       inkscape:collect="always"
       xlink:href="#linearGradient1012"
       id="linearGradient1029"
       gradientUnits="userSpaceOnUse"
       x1="238.13715"
       y1="362.08014"
       x2="238.13715"
       y2="278.42477"
       gradientTransform="matrix(0.24238524,-0.03766387,0.03766387,0.24238524,-49.575045,215.05002)" />
    <linearGradient
       osb:paint="solid"
       id="linearGradient6987">
      <stop
         id="stop6985"
         offset="0"
         style="stop-color:#77d2fb;stop-opacity:1;" />
    </linearGradient>
    <clipPath
       id="clipPath4178"
       clipPathUnits="userSpaceOnUse">
      <circle
         style="opacity:1;fill:#1c5266;fill-opacity:0.19099205;fill-rule:evenodd;stroke:none;stroke-width:3.33392239;stroke-linecap:butt;stroke-linejoin:miter;stroke-miterlimit:4;stroke-dasharray:none;stroke-dashoffset:0;stroke-opacity:1"
         id="circle4180"
         cx="204.3168"
         cy="222.68037"
         r="225" />
    </clipPath>
    <clipPath
       id="clipPath4178-1"
       clipPathUnits="userSpaceOnUse">
      <circle
         style="opacity:1;fill:#1c5266;fill-opacity:0.19099205;fill-rule:evenodd;stroke:none;stroke-width:3.33392239;stroke-linecap:butt;stroke-linejoin:miter;stroke-miterlimit:4;stroke-dasharray:none;stroke-dashoffset:0;stroke-opacity:1"
         id="circle4180-7"
         cx="204.3168"
         cy="222.68037"
         r="225" />
    </clipPath>
    <clipPath
       id="clipPath897"
       clipPathUnits="userSpaceOnUse">
      <path
         inkscape:connector-curvature="0"
         id="path899"
         d="M 254.44746,40.765998 A 225,225 0 0 0 29.447458,265.766 225,225 0 0 0 254.44746,490.76604 a 225,225 0 0 0 225,-225.00004 225,225 0 0 0 -225,-225.000002 z"
         style="fill:#107673;fill-opacity:1;stroke-width:0.64930689" />
    </clipPath>
    <linearGradient
       id="linearGradient3866">
      <stop
         id="stop3868"
         offset="0"
         style="stop-color:#000000;stop-opacity:0.52083331" />
      <stop
         id="stop3870"
         offset="1"
         style="stop-color:#2883c3;stop-opacity:0;" />
    </linearGradient>
    <linearGradient
       id="linearGradient3874">
      <stop
         id="stop3876"
         offset="0"
         style="stop-color:#000d0e;stop-opacity:0.84105963;" />
      <stop
         id="stop3878"
         offset="1"
         style="stop-color:#000000;stop-opacity:0;" />
    </linearGradient>
    <clipPath
       id="clipPath4178-3"
       clipPathUnits="userSpaceOnUse">
      <circle
         style="opacity:1;fill:#1c5266;fill-opacity:0.19099205;fill-rule:evenodd;stroke:none;stroke-width:3.33392239;stroke-linecap:butt;stroke-linejoin:miter;stroke-miterlimit:4;stroke-dasharray:none;stroke-dashoffset:0;stroke-opacity:1"
         id="circle4180-6"
         cx="204.3168"
         cy="222.68037"
         r="225" />
    </clipPath>
    <clipPath
       id="clipPath4178-1-7"
       clipPathUnits="userSpaceOnUse">
      <circle
         style="opacity:1;fill:#1c5266;fill-opacity:0.19099205;fill-rule:evenodd;stroke:none;stroke-width:3.33392239;stroke-linecap:butt;stroke-linejoin:miter;stroke-miterlimit:4;stroke-dasharray:none;stroke-dashoffset:0;stroke-opacity:1"
         id="circle4180-7-5"
         cx="204.3168"
         cy="222.68037"
         r="225" />
    </clipPath>
    <linearGradient
       id="linearGradient5048-8">
      <stop
         id="stop5050-4"
         style="stop-color:#000000;stop-opacity:0"
         offset="0" />
      <stop
         id="stop5056-7"
         style="stop-color:#000000;stop-opacity:1"
         offset="0.5" />
      <stop
         id="stop5052-0-1"
         style="stop-color:#000000;stop-opacity:0"
         offset="1" />
    </linearGradient>
    <linearGradient
       id="linearGradient4050-7">
      <stop
         style="stop-color:#ffffff;stop-opacity:0.66929132;"
         offset="0"
         id="stop4052-6" />
      <stop
         style="stop-color:#ffffff;stop-opacity:0;"
         offset="1"
         id="stop4054-0" />
    </linearGradient>
    <linearGradient
       gradientTransform="matrix(0,-1,-1,0,0,0)"
       x2="-50.520779"
       x1="-5.3196001"
       id="linearGradient4132-3"
       gradientUnits="userSpaceOnUse">
      <stop
         id="stop29-7"
         stop-color="#f65454"
         offset="0" />
      <stop
         id="stop31-0"
         stop-color="#740000"
         offset="1" />
    </linearGradient>
    <linearGradient
       gradientTransform="matrix(0,-1,-1,0,0,0)"
       x2="-1.64257"
       x1="-39.333229"
       id="linearGradient3298-8-9"
       gradientUnits="userSpaceOnUse">
      <stop
         style="stop-color:#5f0e0e;stop-opacity:1;"
         id="stop24-3"
         stop-color="#791235"
         offset="0" />
      <stop
         id="stop26-3"
         stop-color="#dd3b27"
         offset="1" />
    </linearGradient>
    <linearGradient
       id="linearGradient8265-821-176-38-919-66-249-7-7">
      <stop
         id="stop2687-1-9"
         style="stop-color:#ffffff;stop-opacity:1"
         offset="0" />
      <stop
         id="stop2689-5-4"
         style="stop-color:#ffffff;stop-opacity:0"
         offset="1" />
    </linearGradient>
    <linearGradient
       id="linearGradient3924">
      <stop
         id="stop3926"
         style="stop-color:#ffffff;stop-opacity:1;"
         offset="0" />
      <stop
         offset="0.06316455"
         style="stop-color:#ffffff;stop-opacity:0.23529412;"
         id="stop3928" />
      <stop
         id="stop3930"
         style="stop-color:#ffffff;stop-opacity:0.15686275;"
         offset="0.95056331" />
      <stop
         id="stop3932"
         style="stop-color:#ffffff;stop-opacity:0.39215687;"
         offset="1" />
    </linearGradient>
    <linearGradient
       id="linearGradient3688-166-749">
      <stop
         id="stop2883"
         style="stop-color:#181818;stop-opacity:1"
         offset="0" />
      <stop
         id="stop2885"
         style="stop-color:#181818;stop-opacity:0"
         offset="1" />
    </linearGradient>
    <linearGradient
       id="linearGradient3702-501-757">
      <stop
         id="stop2895"
         style="stop-color:#181818;stop-opacity:0"
         offset="0" />
      <stop
         id="stop2897"
         style="stop-color:#181818;stop-opacity:1"
         offset="0.5" />
      <stop
         id="stop2899"
         style="stop-color:#181818;stop-opacity:0"
         offset="1" />
    </linearGradient>
    <linearGradient
       id="linearGradient3895-9-0-3">
      <stop
         id="stop3897-0-5-7"
         style="stop-color:#dc6838;stop-opacity:1"
         offset="0" />
      <stop
         id="stop3899-8-7-06"
         style="stop-color:#ba3d12;stop-opacity:1"
         offset="1" />
    </linearGradient>
    <linearGradient
       inkscape:collect="always"
       xlink:href="#linearGradient3895-9-0-3"
       id="linearGradient4195"
       gradientUnits="userSpaceOnUse"
       gradientTransform="translate(12,-100)"
       x1="28.53125"
       y1="994.81909"
       x2="28.53125"
       y2="1044.3767" />
    <linearGradient
       id="linearGradient4067-0-2">
      <stop
         style="stop-color:#ffe452;stop-opacity:1;"
         offset="0"
         id="stop4069-2-9" />
      <stop
         style="stop-color:#ffeb41;stop-opacity:0;"
         offset="1"
         id="stop4071-8-9" />
    </linearGradient>
    <linearGradient
       id="linearGradient4644-104-3-3-6-2">
      <stop
         offset="0"
         style="stop-color:#ff7a35;stop-opacity:1;"
         id="stop5237-6-5-1-7" />
      <stop
         offset="1"
         style="stop-color:#f0431a;stop-opacity:1;"
         id="stop5239-4-6-4-8" />
    </linearGradient>
  </defs>
  <sodipodi:namedview
     id="base"
     pagecolor="#ffffff"
     bordercolor="#666666"
     borderopacity="1.0"
     inkscape:pageopacity="0.0"
     inkscape:pageshadow="2"
     inkscape:zoom="2.4260218"
     inkscape:cx="56.863468"
     inkscape:cy="82.149132"
     inkscape:document-units="mm"
     inkscape:current-layer="layer1"
     showgrid="false"
     units="px"
     inkscape:window-width="1920"
     inkscape:window-height="1026"
     inkscape:window-x="0"
     inkscape:window-y="28"
     inkscape:window-maximized="1"
     showguides="false" />
  <metadata
     id="metadata5">
    <rdf:RDF>
      <cc:Work
         rdf:about="">
        <dc:format>image/svg+xml</dc:format>
        <dc:type
           rdf:resource="http://purl.org/dc/dcmitype/StillImage" />
        <dc:title></dc:title>
      </cc:Work>
    </rdf:RDF>
  </metadata>
  <g
     inkscape:label="Capa 1"
     inkscape:groupmode="layer"
     id="layer1"
     transform="translate(0,-263.13332)">
    <rect
       style="opacity:1;fill:url(#linearGradient1014);fill-opacity:1;stroke:none;stroke-width:0.36794108;stroke-linecap:round;stroke-linejoin:round;stroke-miterlimit:4;stroke-dasharray:none;stroke-dashoffset:0;stroke-opacity:0.14828898;paint-order:fill markers stroke"
       id="rect826"
       width="25.830492"
       height="29.56739"
       x="-39.131195"
       y="264.366"
       rx="1.4423118"
       ry="1.4423118"
       transform="rotate(-8.8324668)" />
    <path
       inkscape:connector-curvature="0"
       style="opacity:1;fill:#ffffff;fill-opacity:0.23954372;stroke:none;stroke-width:0.36794105;stroke-linecap:round;stroke-linejoin:round;stroke-miterlimit:4;stroke-dasharray:none;stroke-dashoffset:0;stroke-opacity:0.14828898;paint-order:fill markers stroke"
       d="m 3.3503487,267.01802 c -0.7895653,0.12269 -1.3263988,0.85705 -1.2037095,1.64662 l 0.092529,0.59546 c -0.1226893,-0.78956 0.4141443,-1.52393 1.2037096,-1.64661 l 22.6737212,-3.52324 c 0.789569,-0.12269 1.524052,0.41413 1.646741,1.20369 l -0.09253,-0.59547 c -0.12269,-0.78956 -0.857173,-1.32638 -1.646742,-1.20369 z"
       id="rect836" />
    <path
       style="opacity:1;fill:#ffffff;fill-opacity:1;fill-rule:nonzero;stroke:none;stroke-width:0.00392401;stroke-linecap:butt;stroke-linejoin:miter;stroke-miterlimit:4;stroke-dasharray:none;stroke-opacity:1"
       d="m 15.914093,284.54663 c 0.002,-0.0112 0.121813,-0.072 0.266347,-0.13516 0.353311,-0.15434 0.89779,-0.51962 1.184079,-0.79437 0.437005,-0.41938 0.870368,-1.10142 0.761367,-1.19824 -0.02451,-0.0217 -0.227533,0.0676 -0.451182,0.1985 -0.818639,0.47928 -1.863564,0.77343 -3.002845,0.84531 -0.56114,0.0354 -1.604939,-0.0198 -2.119712,-0.11215 -0.220537,-0.0395 -0.219304,-0.0403 0.259024,-0.17482 1.221012,-0.34316 2.063912,-1.07381 2.486452,-2.15535 0.177177,-0.4535 0.337172,-1.2433 0.254775,-1.25767 -0.02871,-0.005 -0.191233,0.1184 -0.361159,0.27424 -0.358104,0.32843 -0.656714,0.50081 -1.100606,0.63538 -0.330901,0.10031 -0.372485,0.0793 -0.19523,-0.0985 0.333984,-0.33508 0.52787,-1.04441 0.412399,-1.50877 -0.0379,-0.15241 -0.105604,-0.28061 -0.152508,-0.2888 -0.04639,-0.008 -0.178733,0.0422 -0.294071,0.1117 -0.19838,0.11959 -0.438114,0.2176 -0.504099,0.20608 -0.01649,-0.003 0.0055,-0.065 0.04889,-0.13801 0.450477,-0.75826 -0.390234,-1.3498 -2.422285,-1.70435 -0.946112,-0.16508 -1.7996766,-0.22509 -2.7524413,-0.19352 l -0.5653618,0.0187 -0.3289116,-0.37616 c -0.1809004,-0.2069 -0.3227744,-0.40612 -0.315272,-0.44273 0.00748,-0.0367 0.06018,-0.12274 0.1170594,-0.19136 0.1266608,-0.15282 0.2155215,-0.59996 0.140457,-0.70676 -0.078466,-0.11165 -0.2893588,-0.13514 -0.3470516,-0.0387 -0.026932,0.0451 -0.063576,0.16564 -0.081448,0.26807 -0.017872,0.10244 -0.053172,0.19423 -0.078433,0.20397 -0.04858,0.0187 -0.6597729,-0.75067 -0.6160743,-0.77555 0.014038,-0.008 0.850706,-0.24995 1.859276,-0.53772 1.0085673,-0.28775 1.9220328,-0.56826 2.0299242,-0.62337 0.298855,-0.15262 0.61535,-0.52166 0.857575,-0.99994 0.185949,-0.36716 0.260233,-0.45731 0.495294,-0.60113 0.152092,-0.093 0.433483,-0.20247 0.625312,-0.24317 0.867984,-0.18413 1.684122,-0.60372 1.999051,-1.02775 0.278509,-0.37499 1.130379,-2.01433 1.372555,-2.64134 l 0.225451,-0.58372 0.326408,0.7657 c 0.179524,0.42113 0.428631,1.02134 0.55357,1.33378 0.21869,0.54691 0.292901,0.64239 0.426443,0.54868 0.122645,-0.0861 1.161701,-0.19972 1.904508,-0.20831 0.822488,-0.01 1.803423,0.0279 1.832928,0.0698 0.0101,0.0145 -0.257824,0.087 -0.595414,0.16145 -0.645675,0.14231 -1.460753,0.42096 -1.614635,0.55198 -0.05311,0.0452 -0.07323,0.0994 -0.04832,0.13002 0.02349,0.0289 0.299198,0.12945 0.612721,0.22342 1.70117,0.50997 3.361181,1.58736 4.593053,2.981 0.446286,0.5049 1.184815,1.60564 1.514225,2.25688 0.164637,0.32548 0.289244,0.59889 0.276909,0.60756 -0.01234,0.009 -0.196533,-0.0669 -0.409331,-0.16786 -0.690669,-0.32775 -1.343824,-0.45852 -1.375763,-0.27547 -0.0074,0.0424 0.09336,0.20347 0.223881,0.3581 0.524936,0.62196 1.067462,1.88193 1.211798,2.81432 0.140074,0.90486 0.08585,2.03356 -0.142706,2.9704 l -0.140376,0.57537 -0.05878,-0.25222 c -0.153333,-0.65794 -0.69482,-1.51501 -1.318065,-2.08626 -0.188296,-0.17258 -0.383029,-0.33702 -0.432744,-0.36541 -0.106877,-0.0611 -0.135428,-0.001 -0.291546,0.60937 -0.438881,1.71695 -1.711685,2.92247 -3.469104,3.2857 -0.541619,0.11194 -1.269212,0.14924 -1.931009,0.099 -0.553118,-0.042 -1.361971,-0.1613 -1.355233,-0.19992 z m -3.29669,-11.42033 c 0.487881,-0.36877 0.671243,-0.55711 0.561091,-0.57633 -0.01592,-0.003 -0.240442,0.0587 -0.498947,0.13681 -0.258496,0.078 -0.619006,0.15834 -0.801133,0.17849 -0.382452,0.0423 -0.437171,0.13423 -0.237162,0.39845 0.126366,0.16693 0.223513,0.24352 0.347369,0.27386 0.03524,0.008 0.318109,-0.17646 0.628782,-0.41128 z m 2.396251,-2.21348 c 0.816277,-0.47115 0.854253,-0.5246 0.761284,-1.07141 -0.10064,-0.59194 -0.233982,-1.10688 -0.289113,-1.1165 -0.02568,-0.004 -0.170426,0.30456 -0.321647,0.68675 -0.151222,0.38218 -0.419463,0.95238 -0.596094,1.26712 -0.216421,0.38563 -0.29851,0.57618 -0.251731,0.58434 0.03817,0.007 0.351963,-0.15098 0.697301,-0.3503 z"
       id="path4292-8-6"
       inkscape:connector-curvature="0" />
    <path
       sodipodi:nodetypes="csssscc"
       inkscape:connector-curvature="0"
       id="path1027"
       d="m 30.350438,281.94344 1.364511,8.78129 c 0.122689,0.78956 -0.414182,1.52398 -1.203747,1.64667 l -22.6737652,3.52324 c -0.7895675,0.12269 -1.5239799,-0.41418 -1.6466692,-1.20375 L 4.8262564,285.9096 Z"
       style="opacity:1;fill:#000000;fill-opacity:0.14068442;stroke:none;stroke-width:0.36794108;stroke-linecap:round;stroke-linejoin:round;stroke-miterlimit:4;stroke-dasharray:none;stroke-dashoffset:0;stroke-opacity:0.14828898;paint-order:fill markers stroke" />
    <path
       style="opacity:1;fill:url(#linearGradient1029);fill-opacity:1;stroke:none;stroke-width:0.36794108;stroke-linecap:round;stroke-linejoin:round;stroke-miterlimit:4;stroke-dasharray:none;stroke-dashoffset:0;stroke-opacity:0.14828898;paint-order:fill markers stroke"
       d="m 30.403287,282.28355 1.364511,8.78129 c 0.122689,0.78956 -0.414182,1.52398 -1.203748,1.64666 L 7.8902856,296.23475 C 7.1007181,296.35744 6.3663057,295.82056 6.2436164,295.031 l -1.3645112,-8.78129 z"
       id="rect1024"
       inkscape:connector-curvature="0"
       sodipodi:nodetypes="csssscc" />
    <path
       id="path843"
       d="m 7.8902953,296.23474 c -0.7895651,0.12269 -1.5239271,-0.41414 -1.6466164,-1.20371 l -0.092528,-0.59546 c 0.1226893,0.78956 0.8570509,1.3264 1.6466159,1.20371 L 30.47149,292.11604 c 0.789568,-0.12269 1.326524,-0.85707 1.203835,-1.64663 l 0.09253,0.59546 c 0.122689,0.78957 -0.414267,1.52395 -1.203834,1.64664 z"
       style="opacity:1;fill:#000000;fill-opacity:0.06844106;stroke:none;stroke-width:0.36794108;stroke-linecap:round;stroke-linejoin:round;stroke-miterlimit:4;stroke-dasharray:none;stroke-dashoffset:0;stroke-opacity:0.14828898;paint-order:fill markers stroke"
       inkscape:connector-curvature="0" />
    <path
       style="opacity:1;fill:#4d4d4d;fill-opacity:1;stroke:none;stroke-width:0.36794108;stroke-linecap:round;stroke-linejoin:round;stroke-miterlimit:4;stroke-dasharray:none;stroke-dashoffset:0;stroke-opacity:0.14828898;paint-order:fill markers stroke"
       d="m 15.701353,287.20779 0.838345,5.39516 4.253264,-3.42356 z m -5.336197,2.04413 -3.0148951,2.42681 3.6091491,1.39751 -0.159813,-1.02848 1.94133,0.75165 -0.594254,-3.82432 -1.621704,1.30531 z m 13.413793,-2.08435 0.594254,3.82432 1.621704,-1.30531 0.159813,1.02848 3.014895,-2.42681 -3.609149,-1.3975 0.159813,1.02847 z"
       id="path845"
       inkscape:connector-curvature="0" />
    <path
       inkscape:connector-curvature="0"
       style="opacity:1;fill:#ffffff;fill-opacity:0.05323193;stroke:none;stroke-width:0.36794105;stroke-linecap:round;stroke-linejoin:round;stroke-miterlimit:4;stroke-dasharray:none;stroke-dashoffset:0;stroke-opacity:0.14828898;paint-order:fill markers stroke"
       d="m 4.8791563,286.24971 0.035228,0.22671 25.5241727,-3.96616 -0.03523,-0.22671 z"
       id="path1031" />
    <path
       sodipodi:nodetypes="cccc"
       inkscape:connector-curvature="0"
       id="path1147"
       d="m 15.701353,287.20779 0.838345,5.39516 4.253264,-3.42356 z"
       style="opacity:1;fill:#2f94f6;fill-opacity:1;stroke:none;stroke-width:0.36794108;stroke-linecap:round;stroke-linejoin:round;stroke-miterlimit:4;stroke-dasharray:none;stroke-dashoffset:0;stroke-opacity:0.14828898;paint-order:fill markers stroke" />
  </g>
</svg>
