<?xml version="1.0" encoding="UTF-8" standalone="no"?>
<!-- Created with Inkscape (http://www.inkscape.org/) -->

<svg
   xmlns:dc="http://purl.org/dc/elements/1.1/"
   xmlns:cc="http://creativecommons.org/ns#"
   xmlns:rdf="http://www.w3.org/1999/02/22-rdf-syntax-ns#"
   xmlns:svg="http://www.w3.org/2000/svg"
   xmlns="http://www.w3.org/2000/svg"
   xmlns:xlink="http://www.w3.org/1999/xlink"
   xmlns:sodipodi="http://sodipodi.sourceforge.net/DTD/sodipodi-0.dtd"
   xmlns:inkscape="http://www.inkscape.org/namespaces/inkscape"
   version="1.1"
   id="svg2"
   width="136.53333"
   height="136.53333"
   viewBox="0 0 136.53333 136.53333"
   sodipodi:docname="amazon.svg"
   inkscape:version="0.92.2 2405546, 2018-03-11">
  <metadata
     id="metadata8">
    <rdf:RDF>
      <cc:Work
         rdf:about="">
        <dc:format>image/svg+xml</dc:format>
        <dc:type
           rdf:resource="http://purl.org/dc/dcmitype/StillImage" />
        <dc:title></dc:title>
      </cc:Work>
    </rdf:RDF>
  </metadata>
  <defs
     id="defs6">
    <linearGradient
       inkscape:collect="always"
       id="linearGradient4313">
      <stop
         style="stop-color:#df7a0a;stop-opacity:1"
         offset="0"
         id="stop4315" />
      <stop
         style="stop-color:#f4b84e;stop-opacity:1"
         offset="1"
         id="stop4317" />
    </linearGradient>
    <linearGradient
       inkscape:collect="always"
       id="linearGradient4180">
      <stop
         style="stop-color:#f5f5f5;stop-opacity:1;"
         offset="0"
         id="stop4182" />
      <stop
         style="stop-color:#ebeae6;stop-opacity:1"
         offset="1"
         id="stop4184" />
    </linearGradient>
    <linearGradient
       inkscape:collect="always"
       xlink:href="#linearGradient4180"
       id="linearGradient4186"
       x1="30.858253"
       y1="16.587393"
       x2="116.88322"
       y2="116.384"
       gradientUnits="userSpaceOnUse" />
    <linearGradient
       inkscape:collect="always"
       xlink:href="#linearGradient4313"
       id="linearGradient4319"
       x1="66.280823"
       y1="128.61551"
       x2="64.943542"
       y2="16.578243"
       gradientUnits="userSpaceOnUse" />
    <filter
       filterUnits="objectBoundingBox"
       y="0%"
       x="0%"
       height="100%"
       width="100%"
       id="alpha">
      <feColorMatrix
         id="feColorMatrix823"
         values="0 0 0 0 1 0 0 0 0 1 0 0 0 0 1 0 0 0 1 0"
         type="matrix"
         in="SourceGraphic" />
    </filter>
    <mask
       id="mask0">
      <g
         id="g828"
         filter="url(#alpha)">
        <rect
           id="rect826"
           style="fill:rgb(0%,0%,0%);fill-opacity:0.2"
           y="0"
           x="0"
           height="384"
           width="384" />
      </g>
    </mask>
    <clipPath
       id="clip1">
      <rect
         id="rect831"
         y="0"
         x="0"
         height="384"
         width="384" />
    </clipPath>
    <g
       clip-path="url(#clip1)"
       id="surface5">
      <path
         id="path834"
         d="M 128 64 C 114.367188 64.023438 101.386719 69.839844 92.296875 80 L 80 80 C 53.492188 80.003906 32.003906 101.492188 32 128 L 32 232 C 32.003906 258.507812 53.492188 279.996094 80 280 L 86.484375 280 C 95.050781 294.832031 110.871094 303.980469 128 304 L 130.8125 304 C 137.585938 323.152344 155.683594 335.96875 176 336 L 208 336 C 228.320312 335.976562 246.429688 323.160156 253.203125 304 L 256 304 C 273.125 303.972656 288.9375 294.828125 297.5 280 L 304 280 C 330.507812 279.996094 351.996094 258.507812 352 232 L 352 128 C 351.996094 101.492188 330.507812 80.003906 304 80 L 291.703125 80 C 282.613281 69.839844 269.632812 64.023438 256 64 L 224 64 C 212.183594 64.019531 200.789062 68.398438 192 76.296875 C 183.210938 68.398438 171.816406 64.019531 160 64 Z M 128 64"
         style="fill:rgb(0%,0%,0%)" />
    </g>
    <mask
       id="mask1">
      <g
         id="g839"
         filter="url(#alpha)">
        <rect
           id="rect837"
           style="fill:rgb(0%,0%,0%);fill-opacity:0.2"
           y="0"
           x="0"
           height="384"
           width="384" />
      </g>
    </mask>
    <clipPath
       id="clip2">
      <rect
         id="rect842"
         y="0"
         x="0"
         height="384"
         width="384" />
    </clipPath>
    <g
       clip-path="url(#clip2)"
       id="surface8">
      <path
         id="path845"
         d="M 80 128 C 80 136 80 144 80 152 C 90.667969 152 101.332031 152 112 152 C 112 144 112 136 112 128 C 101.332031 128 90.667969 128 80 128 Z M 80 128"
         style="fill:rgb(0%,0%,0%)" />
      <path
         id="path847-8"
         d="M 80 168 C 80 176 80 184 80 192 C 90.667969 192 101.332031 192 112 192 C 112 184 112 176 112 168 C 101.332031 168 90.667969 168 80 168 Z M 80 168"
         style="fill:rgb(0%,0%,0%)" />
      <path
         id="path849-7"
         d="M 80 208 C 80 216 80 224 80 232 C 90.667969 232 101.332031 232 112 232 C 112 224 112 216 112 208 C 101.332031 208 90.667969 208 80 208 Z M 80 208"
         style="fill:rgb(0%,0%,0%)" />
      <path
         id="path851"
         d="M 128 112 C 128 120 128 128 128 136 C 138.667969 136 149.332031 136 160 136 C 160 128 160 120 160 112 C 149.332031 112 138.667969 112 128 112 Z M 128 112"
         style="fill:rgb(0%,0%,0%)" />
      <path
         id="path853"
         d="M 128 152 C 128 160 128 168 128 176 C 138.667969 176 149.332031 176 160 176 C 160 168 160 160 160 152 C 149.332031 152 138.667969 152 128 152 Z M 128 152"
         style="fill:rgb(0%,0%,0%)" />
      <path
         id="path855"
         d="M 128 192 C 128 200 128 208 128 216 C 138.667969 216 149.332031 216 160 216 C 160 208 160 200 160 192 C 149.332031 192 138.667969 192 128 192 Z M 128 192"
         style="fill:rgb(0%,0%,0%)" />
      <path
         id="path857"
         d="M 128 232 C 128 240 128 248 128 256 C 138.667969 256 149.332031 256 160 256 C 160 248 160 240 160 232 C 149.332031 232 138.667969 232 128 232 Z M 128 232"
         style="fill:rgb(0%,0%,0%)" />
      <path
         id="path859"
         d="M 176 144 C 176 152 176 160 176 168 C 186.667969 168 197.332031 168 208 168 C 208 160 208 152 208 144 C 197.332031 144 186.667969 144 176 144 Z M 176 144"
         style="fill:rgb(0%,0%,0%)" />
      <path
         id="path861"
         d="M 176 184 C 176 192 176 200 176 208 C 186.667969 208 197.332031 208 208 208 C 208 200 208 192 208 184 C 197.332031 184 186.667969 184 176 184 Z M 176 184"
         style="fill:rgb(0%,0%,0%)" />
      <path
         id="path863"
         d="M 176 224 C 176 232 176 240 176 248 C 186.667969 248 197.332031 248 208 248 C 208 240 208 232 208 224 C 197.332031 224 186.667969 224 176 224 Z M 176 224"
         style="fill:rgb(0%,0%,0%)" />
      <path
         id="path865"
         d="M 176 264 C 176 272 176 280 176 288 C 186.667969 288 197.332031 288 208 288 C 208 280 208 272 208 264 C 197.332031 264 186.667969 264 176 264 Z M 176 264"
         style="fill:rgb(0%,0%,0%)" />
      <path
         id="path867"
         d="M 304 128 C 304 136 304 144 304 152 C 293.332031 152 282.667969 152 272 152 C 272 144 272 136 272 128 C 282.667969 128 293.332031 128 304 128 Z M 304 128"
         style="fill:rgb(0%,0%,0%)" />
      <path
         id="path869"
         d="M 304 168 C 304 176 304 184 304 192 C 293.332031 192 282.667969 192 272 192 C 272 184 272 176 272 168 C 282.667969 168 293.332031 168 304 168 Z M 304 168"
         style="fill:rgb(0%,0%,0%)" />
      <path
         id="path871"
         d="M 304 208 C 304 216 304 224 304 232 C 293.332031 232 282.667969 232 272 232 C 272 224 272 216 272 208 C 282.667969 208 293.332031 208 304 208 Z M 304 208"
         style="fill:rgb(0%,0%,0%)" />
      <path
         id="path873"
         d="M 256 112 C 256 120 256 128 256 136 C 245.332031 136 234.667969 136 224 136 C 224 128 224 120 224 112 C 234.667969 112 245.332031 112 256 112 Z M 256 112"
         style="fill:rgb(0%,0%,0%)" />
      <path
         id="path875"
         d="M 256 152 C 256 160 256 168 256 176 C 245.332031 176 234.667969 176 224 176 C 224 168 224 160 224 152 C 234.667969 152 245.332031 152 256 152 Z M 256 152"
         style="fill:rgb(0%,0%,0%)" />
      <path
         id="path877"
         d="M 256 192 C 256 200 256 208 256 216 C 245.332031 216 234.667969 216 224 216 C 224 208 224 200 224 192 C 234.667969 192 245.332031 192 256 192 Z M 256 192"
         style="fill:rgb(0%,0%,0%)" />
      <path
         id="path879"
         d="M 256 232 C 256 240 256 248 256 256 C 245.332031 256 234.667969 256 224 256 C 224 248 224 240 224 232 C 234.667969 232 245.332031 232 256 232 Z M 256 232"
         style="fill:rgb(0%,0%,0%)" />
    </g>
    <mask
       id="mask2">
      <g
         id="g884"
         filter="url(#alpha)">
        <rect
           id="rect882"
           style="fill:rgb(0%,0%,0%);fill-opacity:0.290196"
           y="0"
           x="0"
           height="384"
           width="384" />
      </g>
    </mask>
    <clipPath
       id="clip3">
      <rect
         id="rect887"
         y="0"
         x="0"
         height="384"
         width="384" />
    </clipPath>
    <g
       clip-path="url(#clip3)"
       id="surface11">
      <path
         id="path890"
         d="M 128 56 C 114.367188 56.023438 101.386719 61.839844 92.296875 72 L 80 72 C 53.492188 72.003906 32.003906 93.492188 32 120 L 32 128 C 32.003906 101.492188 53.492188 80.003906 80 80 L 92.296875 80 C 101.386719 69.839844 114.367188 64.023438 128 64 L 160 64 C 171.816406 64.019531 183.210938 68.398438 192 76.296875 C 200.789062 68.398438 212.183594 64.019531 224 64 L 256 64 C 269.632812 64.023438 282.613281 69.839844 291.703125 80 L 304 80 C 330.507812 80.003906 351.996094 101.492188 352 128 L 352 120 C 351.996094 93.492188 330.507812 72.003906 304 72 L 291.703125 72 C 282.613281 61.839844 269.632812 56.023438 256 56 L 224 56 C 212.183594 56.019531 200.789062 60.398438 192 68.296875 C 183.210938 60.398438 171.816406 56.019531 160 56 Z M 128 56"
         style="fill:rgb(100.000%,100.000%,100.000%)" />
    </g>
    <filter
       filterUnits="objectBoundingBox"
       y="0%"
       x="0%"
       height="100%"
       width="100%"
       id="alpha-0">
      <feColorMatrix
         id="feColorMatrix864"
         values="0 0 0 0 1 0 0 0 0 1 0 0 0 0 1 0 0 0 1 0"
         type="matrix"
         in="SourceGraphic" />
    </filter>
    <mask
       id="mask0-0">
      <g
         style="filter:url(#alpha-0)"
         id="g869"
         filter="url(#alpha)">
        <rect
           id="rect867"
           style="fill:rgb(0%,0%,0%);fill-opacity:0.301961"
           y="0"
           x="0"
           height="384"
           width="384" />
      </g>
    </mask>
    <clipPath
       id="clip1-5">
      <rect
         id="rect872"
         y="0"
         x="0"
         height="384"
         width="384" />
    </clipPath>
    <g
       clip-path="url(#clip1-5)"
       id="surface5-3">
      <path
         id="path875-4"
         d="M 168.203125 339.898438 C 138.5625 336.339844 110.464844 323.269531 78.152344 298.019531 C 68.023438 290.105469 56.875 280.476562 55.933594 278.832031 C 54.523438 276.375 54.855469 273.503906 56.765625 271.59375 C 59.730469 268.625 62.039062 269.203125 74.238281 275.964844 C 112.203125 297.007812 136.375 306.730469 162.863281 311.605469 C 172.945312 313.460938 204.023438 313.476562 215.898438 311.632812 C 240.496094 307.8125 258.472656 302.875 283.027344 293.203125 C 297.113281 287.652344 298.8125 287.46875 302.335938 291.148438 C 304.636719 293.550781 304.988281 297.324219 303.167969 300.101562 C 301.621094 302.460938 292.773438 308.617188 282.78125 314.289062 C 247.457031 334.335938 203.566406 344.144531 168.203125 339.898438 Z M 309.863281 315.40625 C 309.082031 314.625 308.441406 313.199219 308.441406 312.242188 C 308.441406 311.285156 310.171875 305.277344 312.289062 298.894531 C 316.761719 285.398438 317.648438 280.578125 315.960938 278.890625 C 314.144531 277.074219 308.707031 276.664062 299.542969 277.652344 C 283.625 279.367188 281.480469 279.402344 279.933594 278.003906 C 277.792969 276.066406 278.070312 271.980469 280.5 269.703125 C 283.097656 267.269531 289.441406 263.777344 294.308594 262.101562 C 304.0625 258.746094 324.144531 258.257812 330.824219 261.214844 C 335.714844 263.378906 336.578125 265.296875 336.453125 273.738281 C 336.25 287.535156 330.304688 302.582031 321.390625 311.855469 C 317.144531 316.273438 316.3125 316.832031 313.949219 316.832031 C 312.238281 316.832031 310.78125 316.324219 309.863281 315.40625 Z M 145.394531 262.058594 C 133.753906 259.601562 122.777344 253.003906 116.554688 244.730469 C 112.25 239.003906 110.277344 235.027344 107.929688 227.355469 C 106.164062 221.574219 106.015625 220.109375 106.003906 208.628906 C 105.992188 194.035156 107.039062 189.015625 112.351562 178.292969 C 121.636719 159.539062 141.347656 147.578125 172.105469 142.042969 C 179.699219 140.675781 201.4375 138.171875 205.800781 138.160156 C 211.523438 138.144531 211.628906 137.953125 211.628906 127.257812 C 211.628906 112.722656 208.964844 105.179688 202.21875 100.582031 C 197.234375 97.191406 192.847656 95.878906 186.429688 95.863281 C 177.1875 95.839844 169.660156 98.976562 163.726562 105.316406 C 160.128906 109.167969 158.566406 111.875 157.105469 116.789062 C 156.554688 118.644531 155.441406 121.003906 154.628906 122.039062 C 153.367188 123.640625 152.605469 123.914062 149.410156 123.914062 C 147.355469 123.914062 142.28125 123.441406 138.140625 122.859375 C 134 122.277344 127.5 121.453125 123.699219 121.03125 C 115.453125 120.109375 113.839844 119.566406 112.28125 117.191406 C 111.175781 115.503906 111.179688 115.046875 112.355469 110.21875 C 115.414062 97.648438 119.929688 89.609375 129.050781 80.492188 C 139.480469 70.066406 150.589844 64.539062 168.367188 60.941406 C 175.824219 59.429688 179.25 59.136719 189.347656 59.136719 C 215.1875 59.136719 234.644531 65.707031 247.269531 78.699219 C 254.589844 86.230469 258.320312 94.433594 260.113281 106.953125 C 260.660156 110.769531 261.113281 129.476562 261.390625 159.507812 L 261.816406 206.136719 L 264.125 211.472656 C 265.390625 214.410156 268.234375 219.210938 270.441406 222.144531 C 275.761719 229.210938 276.867188 231.585938 275.992188 234.074219 C 275.34375 235.921875 262.523438 247.6875 250.914062 257.089844 C 246.195312 260.914062 245.398438 261.304688 242.328125 261.304688 C 239.074219 261.304688 238.734375 261.097656 233.464844 255.929688 C 230.449219 252.972656 225.878906 247.6875 223.308594 244.183594 C 220.734375 240.679688 218.242188 237.8125 217.769531 237.8125 C 217.292969 237.8125 215.476562 239.292969 213.734375 241.105469 C 206.328125 248.78125 196.613281 255.484375 187.953125 258.890625 C 177.398438 263.042969 157.195312 264.546875 145.394531 262.058594 Z M 184.847656 228.195312 C 194.207031 225.757812 200.683594 219.890625 205.90625 209.121094 C 210.675781 199.285156 211.722656 193.347656 211.46875 177.617188 L 211.269531 165.558594 L 202.730469 165.707031 C 190.527344 165.921875 183.679688 167.304688 175.738281 171.167969 C 161.984375 177.859375 156.082031 188.484375 157.027344 204.847656 C 157.523438 213.410156 159.796875 218.695312 165.050781 223.496094 C 170.800781 228.753906 177.027344 230.230469 184.847656 228.195312 Z M 184.847656 228.195312"
         style="fill:rgb(0%,0%,0%)" />
    </g>
    <mask
       id="mask1-7">
      <g
         style="filter:url(#alpha-0)"
         id="g880"
         filter="url(#alpha)">
        <rect
           id="rect878"
           style="fill:rgb(0%,0%,0%);fill-opacity:0.14902"
           y="0"
           x="0"
           height="384"
           width="384" />
      </g>
    </mask>
    <clipPath
       id="clip2-3">
      <rect
         id="rect883"
         y="0"
         x="0"
         height="384"
         width="384" />
    </clipPath>
    <g
       clip-path="url(#clip2-3)"
       id="surface8-2">
      <path
         id="path886"
         d="M 189.347656 51.636719 C 185.855469 51.636719 183.191406 51.675781 180.855469 51.785156 C 203.476562 52.8125 220.726562 59.320312 232.269531 71.199219 C 239.589844 78.730469 243.320312 86.933594 245.113281 99.453125 C 245.660156 103.269531 246.113281 121.976562 246.390625 152.007812 L 246.820312 198.636719 L 249.125 203.976562 C 250.394531 206.910156 253.234375 211.714844 255.441406 214.644531 C 260.761719 221.710938 261.867188 224.085938 260.996094 226.574219 C 260.34375 228.421875 247.527344 240.1875 235.917969 249.589844 C 235.660156 249.796875 235.457031 249.957031 235.222656 250.144531 C 238.863281 253.648438 239.480469 253.804688 242.328125 253.804688 C 245.398438 253.804688 246.195312 253.414062 250.917969 249.589844 C 262.527344 240.1875 275.34375 228.421875 275.996094 226.574219 C 276.867188 224.085938 275.761719 221.710938 270.441406 214.644531 C 268.234375 211.714844 265.394531 206.910156 264.125 203.976562 L 261.820312 198.636719 L 261.390625 152.007812 C 261.113281 121.976562 260.660156 103.269531 260.113281 99.453125 C 258.320312 86.933594 254.589844 78.730469 247.269531 71.199219 C 234.640625 58.203125 215.1875 51.636719 189.347656 51.636719 Z M 189.347656 51.636719"
         style="fill:rgb(0%,0%,0%)" />
    </g>
  </defs>
  <sodipodi:namedview
     pagecolor="#ffffff"
     bordercolor="#666666"
     borderopacity="1"
     objecttolerance="10"
     gridtolerance="10"
     guidetolerance="10"
     inkscape:pageopacity="0"
     inkscape:pageshadow="2"
     inkscape:window-width="1920"
     inkscape:window-height="1031"
     id="namedview4"
     showgrid="false"
     inkscape:zoom="2.8284272"
     inkscape:cx="27.111051"
     inkscape:cy="69.007354"
     inkscape:window-x="0"
     inkscape:window-y="26"
     inkscape:window-maximized="1"
     inkscape:current-layer="svg2"
     showguides="false" />
  <circle
     id="path12"
     cx="68.953224"
     cy="68.365921"
     r="64.021523"
     style="fill:url(#linearGradient4319);fill-opacity:1;stroke:url(#linearGradient4186);stroke-width:6;stroke-miterlimit:4;stroke-dasharray:none;stroke-opacity:1" />
  <path
     style="fill:#000000;stroke-width:1.33333337"
     d=""
     id="path849"
     inkscape:connector-curvature="0" />
  <path
     style="fill:#000000;stroke-width:1.33333337"
     d=""
     id="path847"
     inkscape:connector-curvature="0" />
  <path
     style="fill:#ffffff;fill-opacity:1;stroke-width:0.26289672"
     d="m 67.265981,31.332117 c -2.654644,0 -3.555013,0.07702 -5.515441,0.474442 -4.673609,0.945814 -7.594224,2.398676 -10.336156,5.139582 -2.397904,2.396878 -3.585306,4.510579 -4.3894,7.815273 -0.309103,1.269298 -0.30988,1.389449 -0.01926,1.83309 0.409749,0.624376 0.83362,0.766998 3.00149,1.009352 0.999213,0.11091 2.708171,0.327595 3.796728,0.48061 1.088558,0.153014 2.422424,0.277272 2.962594,0.277272 0.840037,0 1.040417,-0.07188 1.372121,-0.492931 0.213602,-0.272137 0.506409,-0.892413 0.651208,-1.380209 0.384077,-1.291887 0.794853,-2.003558 1.740665,-3.016122 1.559922,-1.666723 3.538579,-2.491229 5.96832,-2.485067 1.687263,0.0042 2.840645,0.349032 4.151023,1.240414 1.773524,1.208709 2.473899,3.19186 2.473899,7.013106 0,2.811762 -0.02786,2.861831 -1.532324,2.865932 -1.147093,0.0032 -6.861759,0.661481 -8.858131,1.020907 -8.08613,1.455175 -13.268069,4.599793 -15.709108,9.530136 -1.396639,2.818948 -1.672108,4.138441 -1.669033,7.97509 0.0032,3.018177 0.04221,3.403284 0.506411,4.923152 0.617187,2.016912 1.135792,3.062214 2.267482,4.567706 1.635914,2.175061 4.521618,3.909819 7.5819,4.555768 3.102389,0.654156 8.413597,0.258656 11.188388,-0.832978 2.276728,-0.8955 4.830728,-2.6576 6.777807,-4.675541 0.458016,-0.476492 0.935672,-0.865703 1.060958,-0.865703 0.12426,0 0.779319,0.753645 1.456073,1.674811 0.675731,0.921166 1.877504,2.310747 2.670301,3.088141 1.385344,1.358644 1.474431,1.412941 2.329872,1.412941 0.807178,0 1.016928,-0.102564 2.257472,-1.107945 3.052068,-2.471841 6.422488,-5.564992 6.592956,-6.050728 0.230038,-0.654165 -0.06085,-1.278542 -1.459537,-3.136278 -0.580223,-0.771234 -1.327835,-2.033597 -1.660563,-2.805858 L 86.317778,69.977937 86.206098,57.71935 C 86.133183,49.824231 86.014063,44.905954 85.870289,43.902637 85.398922,40.611291 84.418196,38.454718 82.493709,36.474774 79.174638,33.05917 74.059186,31.332117 67.265978,31.332117 Z m 5.763445,27.977705 0.05237,3.170164 c 0.06676,4.135492 -0.208725,5.696571 -1.462621,8.282403 -1.373018,2.831279 -3.075687,4.373618 -5.536235,5.014426 -2.055936,0.535031 -3.692621,0.146848 -5.204278,-1.235415 -1.381235,-1.262108 -1.979168,-2.6513 -2.109592,-4.902355 -0.248518,-4.301854 1.303445,-7.095132 4.919301,-8.854281 2.087772,-1.01564 3.887739,-1.379178 7.095902,-1.43566 z M 100.654,83.944843 c -2.050281,-0.0078 -4.35147,0.249732 -5.793874,0.745938 -1.27957,0.440562 -2.947444,1.358523 -3.630364,1.998304 -0.638754,0.59871 -0.711792,1.673014 -0.149035,2.182378 0.406673,0.367647 0.970586,0.358404 5.155368,-0.09242 2.409204,-0.259813 3.838715,-0.152118 4.316245,0.325411 0.44363,0.443637 0.21038,1.710879 -0.965461,5.258954 -0.55661,1.67802 -1.01128,3.257451 -1.01128,3.509061 0,0.25159 0.16816,0.62643 0.37354,0.83182 0.24134,0.24133 0.62465,0.37508 1.074451,0.37508 0.6213,0 0.84003,-0.1471 1.95631,-1.30857 2.34348,-2.437961 3.90624,-6.393601 3.95963,-10.020756 0.0328,-2.219224 -0.19383,-2.723318 -1.47956,-3.29224 -0.76828,-0.340115 -2.2113,-0.506859 -3.80597,-0.512958 z M 33.361157,86.73838 c -0.389991,-0.006 -0.658143,0.155194 -0.950436,0.447871 -0.502173,0.502176 -0.589462,1.256848 -0.218738,1.902789 0.247496,0.432346 3.178379,2.963888 5.841237,5.044458 8.494852,6.638142 15.881767,10.074172 23.674189,11.009712 9.296895,1.11628 20.835336,-1.46211 30.121957,-6.732371 2.626916,-1.491121 4.95319,-3.109831 5.359861,-3.730111 0.478556,-0.73015 0.386126,-1.72217 -0.218735,-2.35374 -0.926307,-0.96737 -1.373276,-0.91899 -5.076425,0.5403 -6.455345,2.5427 -11.181073,3.84063 -17.647716,4.844971 -3.121898,0.48473 -11.292496,0.48087 -13.943027,-0.007 -6.963683,-1.281621 -13.318261,-3.837801 -23.299097,-9.369928 -2.004457,-1.11102 -2.993091,-1.586804 -3.64307,-1.597024 z"
     id="path893-6"
     inkscape:connector-curvature="0" />
</svg>
