<?xml version="1.0" encoding="UTF-8" standalone="no"?>
<svg
   xmlns:dc="http://purl.org/dc/elements/1.1/"
   xmlns:cc="http://creativecommons.org/ns#"
   xmlns:rdf="http://www.w3.org/1999/02/22-rdf-syntax-ns#"
   xmlns:svg="http://www.w3.org/2000/svg"
   xmlns="http://www.w3.org/2000/svg"
   xmlns:xlink="http://www.w3.org/1999/xlink"
   xmlns:sodipodi="http://sodipodi.sourceforge.net/DTD/sodipodi-0.dtd"
   xmlns:inkscape="http://www.inkscape.org/namespaces/inkscape"
   height="136.53333"
   viewBox="0 0 136.53333 136.53333"
   width="136.53333"
   version="1.1"
   id="svg59"
   sodipodi:docname="anatine.svg"
   inkscape:version="0.92.2 2405546, 2018-03-11">
  <metadata
     id="metadata65">
    <rdf:RDF>
      <cc:Work
         rdf:about="">
        <dc:format>image/svg+xml</dc:format>
        <dc:type
           rdf:resource="http://purl.org/dc/dcmitype/StillImage" />
        <dc:title></dc:title>
      </cc:Work>
    </rdf:RDF>
  </metadata>
  <defs
     id="defs63">
    <linearGradient
       inkscape:collect="always"
       id="linearGradient857">
      <stop
         style="stop-color:#f1f1f1;stop-opacity:1"
         offset="0"
         id="stop853" />
      <stop
         style="stop-color:#d9dad9;stop-opacity:1"
         offset="1"
         id="stop855" />
    </linearGradient>
    <linearGradient
       inkscape:collect="always"
       xlink:href="#linearGradient857"
       id="linearGradient859"
       x1="73.908607"
       y1="8.693965"
       x2="79.908531"
       y2="137.96426"
       gradientUnits="userSpaceOnUse" />
    <linearGradient
       inkscape:collect="always"
       xlink:href="#linearGradient1117-0"
       id="linearGradient867"
       x1="69.848877"
       y1="15.80493"
       x2="72.162994"
       y2="128.53717"
       gradientUnits="userSpaceOnUse" />
    <filter
       y="0%"
       x="0%"
       height="100%"
       width="100%"
       id="alpha">
      <feColorMatrix
         id="feColorMatrix843"
         values="0 0 0 0 1 0 0 0 0 1 0 0 0 0 1 0 0 0 1 0"
         in="SourceGraphic" />
    </filter>
    <mask
       id="mask0">
      <g
         id="g848"
         filter="url(#alpha)">
        <rect
           id="rect846"
           style="fill-opacity:.2;fill:rgb(0%,0%,0%)"
           height="384"
           width="384" />
      </g>
    </mask>
    <clipPath
       id="clip1">
      <rect
         id="rect851"
         height="384"
         width="384" />
    </clipPath>
    <g
       clip-path="url(#clip1)"
       id="surface5">
      <path
         id="path854"
         style="fill:rgb(100.000%,100.000%,100.000%)"
         d="m162.49219 24.035156c-13.507813 0.222656-27.109376 3.160156-37.09375 8.109375-9.898438 4.90625-18.738282 14.425781-27.078126 29.167969-2.140624 3.78125-4.636718 7.363281-5.554687 7.96875s-4.285156 1.453125-7.464844 1.882812c-11.070312-0.371093-23.210937-2.757812-34.96875-5.140624 0 0-7.496093-1.949219-8.332031 6.152343 0.035156 1.367188 0.257812 2.65625 0.46875 3.953125 1.8125-5.617187 7.863281-4.105468 7.863281-4.105468 11.757813 2.382812 23.898438 4.769531 34.96875 5.140624 3.179688-0.429687 6.546875-1.277343 7.464844-1.882812s3.414063-4.199219 5.554687-7.980469c8.339844-14.738281 17.179688-24.25 27.078126-29.15625 11.414062-5.65625 27.554687-8.683593 42.871093-8.039062 18.414063 0.777343 34.054688 7.144531 46.832031 19.066406 8.777344 8.195313 14.589844 10.25 22.941407 8.097656 2.28125-0.589843 3.175781-0.746093 4.058593-0.855469 1.191407-1.652343 1.953126-3.363281 1.953126-4.816406 0-1.84375-0.136719-1.84375-6.011719-0.328125-8.351563 2.152344-14.164063 0.097657-22.941407-8.097656-12.777343-11.921875-28.417968-18.289063-46.832031-19.066406-1.914062-0.082031-3.84375-0.101563-5.777343-0.070313zm77.929687 40.328125c-0.410156 0.402344-0.800781 0.816407-1.269531 1.191407l-2.726563 2.203124 0.855469 0.503907c0.253906-0.042969 0.460938-0.101563 0.726562-0.136719 3.835938-0.554688 4.546876-1.980469 2.414063-3.761719zm-8.214844 11.644531c-0.457031 0.335938-0.785156 0.683594-0.785156 1.019532 0 0.398437 0.542969 3.835937 1.203125 7.636718 0.582031 3.355469 0.792969 7.929688 0.835938 12.710938 0.238281-6.9375-0.007813-13.949219-0.835938-18.710938-0.226562-1.316406-0.234375-1.535156-0.417969-2.65625zm-170.49609 34.195313c-5.027344 3.300781-7.902344 8.210937-13.792969 12.808594-0.917969 1.726562-0.429688 3.367187 1.171875 4.921875 6.414062-5.457032 9.296875-11.167969 16.910156-13.921875-1.464844-1.246094-2.851562-2.539063-4.289062-3.808594zm256.28906 45.820313c-5.183594 0-8.507812 3.1875-14.089844 10.699218-6.519531 8.789063-15.25 15.429688-21.347656 18.539063-9.554688 4.871093-16.882812 4.003906-34.152344-4.042969-18.273437-8.519531-30.953125-11.582031-49.15625-13.195312-1.289062-0.113282-2.777344-0.066407-4.242187-0.082032-3.976563 2.703125-8.339844 5.644532-9.011719 6.070313 0.847656 0 8.28125-0.433594 13.253906 0.011719 18.203125 1.613281 30.882813 4.675781 49.15625 13.195312 17.269532 8.046875 24.597656 8.914062 34.152344 4.042969 6.097656-3.109375 14.828125-9.75 21.347656-18.539063 5.582032-7.511718 8.90625-10.699218 14.089844-10.699218 5.074219 0 8.71875 3.347656 12.5625 9.210937 5.445312 8.304687 8.414062 14.230469 10.527344 28.699219 0.597656 4.132812 0.8125 10.640625 0.824218 17.445312 0.195313-8.976562-0.046874-18.070312-0.824218-23.445312-2.113282-14.46875-5.082032-20.394532-10.527344-28.699219-3.84375-5.863281-7.488281-9.210937-12.5625-9.210937zm-216 3.371093c-0.253906 5.238281-1.375 10.058594-4.625 16.363281-3.75 7.273438-7.84375 13.054688-15.941406 21.960938-14.582032 16.054688-24.941406 33.121094-29.496094 48.597656-1.648438 5.597656-2.285156 11.917969-2.039062 18.570313 0.222656-4.449219 0.894531-8.679688 2.039062-12.570313 4.554688-15.476562 14.914062-32.542968 29.496094-48.597656 8.097656-8.90625 12.191406-14.6875 15.941406-21.960938 4.433594-8.605468 4.96875-14.449218 4.625-22.363281z" />
    </g>
    <mask
       id="mask1">
      <g
         id="g859"
         filter="url(#alpha)">
        <rect
           id="rect857"
           style="fill-opacity:.2;fill:rgb(0%,0%,0%)"
           height="384"
           width="384" />
      </g>
    </mask>
    <clipPath
       id="clip2">
      <rect
         id="rect862"
         height="384"
         width="384" />
    </clipPath>
    <g
       clip-path="url(#clip2)"
       id="surface8">
      <path
         id="path865"
         style="fill:rgb(0%,0%,0%)"
         d="m243.25781 56.179688c-0.171874-0.011719-0.917968 0.210937-1.171874 0.246093-0.796876 1.09375-1.75 2.175781-2.929688 3.128907l-2.730469 2.203124 2.753907 1.640626c0.574218 0.339843 0.863281 0.640624 1.242187 0.960937 2.210937-2.1875 3.632813-4.71875 3.632813-6.761719 0-0.921875-0.027344-1.375-0.796876-1.417968zm-5.988281 12.082031c-3.363281 0.589843-5.847656 1.722656-5.847656 2.765625 0 0.257812 0.441406 2.878906 0.785156 4.980468 1.066407-0.785156 3.167969-1.507812 5.800781-1.886718 4.515626-0.652344 4.96875-2.46875 1.171876-4.722656zm-194.80078 7.859375c-0.199219 0.617187-0.386719 1.253906-0.46875 2.050781 0.355469 13.265625 9.480469 22.996094 19.710938 32.027344 1.269531-0.832031 2.652343-1.601563 4.289062-2.1875-10.800781-9.210938-21.386719-18.847657-23.53125-31.890625zm190.99219 21.246094c-0.230469 6.667968-0.914063 13.25-1.992188 17.625-3.410156 13.835937-8.582031 23.582031-17.402344 32.835937-6.867187 6.238281-26.257812 19.042969-28.070312 20.183594 0.632812 0 4.851562-0.136719 9.035156-0.082031 6.734375-4.582032 14.722656-10.179688 19.03125-14.097657 8.820312-9.25 13.996094-18.996093 17.402344-32.835937 1.414062-5.71875 2.066406-15.097656 1.992187-23.625zm-184.37109 30.574218c-0.414063 0.355469-0.71875 0.714844-1.171875 1.066406-1.417969 2.675782 0.214843 5.175782 4.804687 7.394532 5.921875 2.855468 11.992188 3.625 24.390625 3.035156 12.695313-0.609375 14.386719 1.269531 18.492188 4.664062 4.328125 3.601563 6.027343 7 6.394531 14.894532 0.007812 0.140625-0.003906 0.261718 0 0.398437 0.101562-2.035156 0.109375-4.132812 0-6.410156-0.367188-7.894531-2.066406-11.28125-6.394531-14.882813-4.105469-3.394531-5.796875-5.285156-18.492188-4.675781-12.398437 0.589844-18.46875-0.167969-24.390625-3.023437-1.621094-0.785156-2.753906-1.605469-3.632812-2.460938zm292.82422 89.4375c-0.175781 8.300782-0.71875 16.507813-1.617187 21.457032-11.171875 61.597656-50.480469 103.0625-110.49609 116.56641-16.195312 3.644531-22.71875 4.300781-45.160156 4.535156-11.644531 0.125-22.519531 0.085938-24.15625-0.082031v-0.011719c-37.652344-3.851562-63.890625-14.621094-83.273437-34.191406-7.828126-7.910156-13.144532-15.179688-17.5625-24.023438-5.847657-11.691406-9.1875-24.296875-9.75-35.90625-0.496094 13.167969 2.875 28.160156 9.75 41.90625 4.417968 8.84375 9.734374 16.117188 17.566406 24.023438 19.378906 19.570312 45.613281 30.355468 83.273437 34.207031 1.632813 0.167969 12.507813 0.203125 24.152344 0.082031 22.445313-0.234375 28.964844-0.890625 45.164063-4.535156 60.011718-13.5 99.324218-54.96875 110.49609-116.56641 1.121094-6.183594 1.640625-17.246094 1.617188-27.457032z" />
    </g>
    <linearGradient
       gradientUnits="userSpaceOnUse"
       y2="249.017"
       y1="515.328"
       x2="249.882"
       x1="-248.932"
       id="linearGradient1117">
      <stop
         id="stop868"
         offset="0"
         style="stop-color:rgb(29.019%,68.235%,90.196%)" />
      <stop
         id="stop870"
         offset="1"
         style="stop-color:rgb(21.176%,48.235%,94.117%)" />
    </linearGradient>
    <linearGradient
       gradientTransform="matrix(0.20207458,0,0,0.20207458,29.314911,30.434457)"
       gradientUnits="userSpaceOnUse"
       y2="249.017"
       y1="515.328"
       x2="249.882"
       x1="-248.93201"
       id="linearGradient1117-0">
      <stop
         id="stop868-2"
         offset="0"
         style="stop-color:#3295eb;stop-opacity:1" />
      <stop
         id="stop870-0"
         offset="1"
         style="stop-color:#2570ef;stop-opacity:1" />
    </linearGradient>
  </defs>
  <sodipodi:namedview
     pagecolor="#ffffff"
     bordercolor="#666666"
     borderopacity="1"
     objecttolerance="10"
     gridtolerance="10"
     guidetolerance="10"
     inkscape:pageopacity="0"
     inkscape:pageshadow="2"
     inkscape:window-width="1920"
     inkscape:window-height="1031"
     id="namedview61"
     showgrid="false"
     inkscape:zoom="1.7285157"
     inkscape:cx="-160.45129"
     inkscape:cy="73.501946"
     inkscape:window-x="0"
     inkscape:window-y="26"
     inkscape:window-maximized="1"
     inkscape:current-layer="svg59"
     showguides="false" />
  <linearGradient
     id="a">
    <stop
       offset="0"
       stop-color="#9760ef"
       id="stop2" />
    <stop
       offset="1"
       stop-color="#c054f2"
       stop-opacity="0"
       id="stop4" />
  </linearGradient>
  <linearGradient
     id="b">
    <stop
       offset="0"
       stop-color="#17c7e7"
       id="stop7" />
    <stop
       offset="1"
       stop-color="#c054f2"
       stop-opacity="0"
       id="stop9" />
  </linearGradient>
  <linearGradient
     id="c"
     gradientUnits="userSpaceOnUse"
     x1="62.04421"
     x2="66.81698"
     y1="5.831234"
     y2="47.148641">
    <stop
       offset="0"
       stop-color="#e83c2b"
       id="stop12" />
    <stop
       offset="1"
       stop-color="#c054f2"
       stop-opacity=".792157"
       id="stop14" />
  </linearGradient>
  <linearGradient
     id="d"
     gradientUnits="userSpaceOnUse"
     x1="88.22553"
     x2="38.18116"
     xlink:href="#b"
     y1="119.556361"
     y2="35.285226"
     gradientTransform="translate(-227.27608,-22.607353)" />
  <linearGradient
     id="e"
     gradientUnits="userSpaceOnUse"
     x1="61.6262"
     x2="95.3216"
     y1="48.640058"
     y2="103.021981">
    <stop
       offset="0"
       stop-color="#f66456"
       id="stop18" />
    <stop
       offset="1"
       stop-color="#d9493e"
       stop-opacity="0"
       id="stop20" />
  </linearGradient>
  <linearGradient
     id="f"
     gradientUnits="userSpaceOnUse"
     x1="32.31499"
     x2="61.76681"
     xlink:href="#a"
     y1="92.483823"
     y2="57.318029" />
  <linearGradient
     id="g"
     gradientUnits="userSpaceOnUse"
     x1="96.53194"
     x2="61.76681"
     xlink:href="#b"
     y1="97.690601"
     y2="59.053621" />
  <linearGradient
     id="h"
     gradientUnits="userSpaceOnUse"
     x1="139.34325"
     x2="61.76681"
     xlink:href="#a"
     y1="-7.023515"
     y2="59.053621" />
  <filter
     id="i"
     color-interpolation-filters="sRGB"
     height="1.108812"
     width="1.139866"
     x="-.069933"
     y="-.054406">
    <feGaussianBlur
       stdDeviation="1.9764485"
       id="feGaussianBlur26" />
  </filter>
  <path
     style="color:#000000;font-style:normal;font-variant:normal;font-weight:normal;font-stretch:normal;font-size:medium;line-height:normal;font-family:sans-serif;font-variant-ligatures:normal;font-variant-position:normal;font-variant-caps:normal;font-variant-numeric:normal;font-variant-alternates:normal;font-feature-settings:normal;text-indent:0;text-align:start;text-decoration:none;text-decoration-line:none;text-decoration-style:solid;text-decoration-color:#000000;letter-spacing:normal;word-spacing:normal;text-transform:none;writing-mode:lr-tb;direction:ltr;text-orientation:mixed;dominant-baseline:auto;baseline-shift:baseline;text-anchor:start;white-space:normal;shape-padding:0;clip-rule:nonzero;display:inline;overflow:visible;visibility:visible;opacity:1;isolation:auto;mix-blend-mode:normal;color-interpolation:sRGB;color-interpolation-filters:linearRGB;solid-color:#000000;solid-opacity:1;vector-effect:none;fill:url(#linearGradient859);fill-opacity:1;fill-rule:nonzero;stroke:none;stroke-width:6;stroke-linecap:butt;stroke-linejoin:miter;stroke-miterlimit:4;stroke-dasharray:none;stroke-dashoffset:0;stroke-opacity:1;color-rendering:auto;image-rendering:auto;shape-rendering:auto;text-rendering:auto;enable-background:accumulate"
     d="m 68.113281,2.2167969 c -36.979431,0 -67.0214841,30.0420531 -67.0214841,67.0214841 0,36.979429 30.0420531,67.021489 67.0214841,67.021489 36.979429,0 67.021489,-30.04206 67.021489,-67.021489 0,-36.979431 -30.04206,-67.0214841 -67.021489,-67.0214841 z"
     id="circle29"
     inkscape:connector-curvature="0"
     sodipodi:nodetypes="sssss" />
  <path
     style="opacity:1;fill:url(#linearGradient867);fill-opacity:1;stroke:none;stroke-width:3.79999995;stroke-linecap:round;stroke-linejoin:round;stroke-miterlimit:4;stroke-dasharray:none;stroke-dashoffset:0;stroke-opacity:0.05323193;paint-order:fill markers stroke"
     d="M 68.113281,8.78125 C 34.723662,8.7809529 7.6559529,35.848662 7.65625,69.238281 7.655954,102.6279 34.723662,129.69561 68.113281,129.69531 101.5029,129.69561 128.57061,102.6279 128.57031,69.238281 128.57061,35.848662 101.5029,8.780954 68.113281,8.78125 Z"
     id="path839"
     inkscape:connector-curvature="0"
     sodipodi:nodetypes="ccccc" />
  <path
     id="path875-6"
     style="fill:#ffffff;stroke-width:0.20207457;fill-opacity:1"
     d="m 61.745514,103.1521 c -7.61095,-0.77831 -12.909883,-2.95613 -16.826659,-6.910789 -1.583442,-1.59845 -2.657752,-3.06744 -3.550511,-4.854529 -1.891294,-3.78021 -2.483307,-8.032464 -1.558185,-11.178041 0.920389,-3.127423 3.013754,-6.576106 5.960412,-9.820352 1.636327,-1.798939 2.46436,-2.967968 3.221353,-4.436957 0.912492,-1.770518 1.011161,-2.956131 0.934595,-4.600354 -0.07499,-1.595283 -0.416782,-2.281232 -1.292173,-3.009015 -0.828823,-0.685948 -1.1714,-1.067205 -3.737591,-0.943284 -2.504619,0.119197 -3.732853,-0.03398 -4.929513,-0.61096 -0.927492,-0.448351 -1.256654,-0.955114 -0.969329,-1.495825 1.491879,-1.163509 2.014433,-2.435939 3.653921,-3.028745 -2.398847,-2.046006 -4.767698,-4.186734 -4.849791,-7.243112 0.168923,-1.637122 1.683691,-1.243233 1.683691,-1.243233 2.375167,0.481507 4.830058,0.965382 7.067086,1.040368 0.643323,-0.08683 1.321376,-0.25812 1.506875,-0.381259 0.185499,-0.122349 0.691473,-0.847765 1.124041,-1.611857 1.686062,-2.978235 3.471578,-4.901887 5.472591,-5.893321 2.304912,-1.142193 5.56652,-1.753939 8.661578,-1.62291 3.721804,0.156292 6.882377,1.443729 9.463564,3.852836 1.774467,1.655278 2.949028,2.069685 4.636666,1.634751 1.187186,-0.306268 1.214027,-0.304687 1.214027,0.06789 0,0.489401 -0.390732,1.123251 -0.989852,1.607125 l -0.552547,0.445985 0.556493,0.330737 c 0.767253,0.455457 0.676477,0.82172 -0.236014,0.952752 -0.76015,0.10972 -1.330064,0.361525 -1.330064,0.588857 0,0.07973 0.108933,0.774356 0.242332,1.543189 0.327582,1.885767 0.210759,5.539683 -0.233649,7.342574 -0.689106,2.795888 -1.73421,4.765322 -3.516572,6.634518 -1.386896,1.261381 -5.305245,3.848101 -5.671506,4.078593 0.172079,0 1.672642,-0.08762 2.677489,8.13e-4 3.678388,0.326007 6.239841,0.94643 9.934018,2.667227 3.488945,1.62607 4.97135,1.801305 6.90211,0.816194 1.23218,-0.628325 2.995597,-1.968646 4.313817,-3.745489 1.127197,-1.517929 1.798937,-2.162831 2.846412,-2.162831 1.026158,0 1.762627,0.676477 2.53935,1.861302 1.099569,1.678165 1.698692,2.876404 2.125727,5.799382 0.304691,2.08942 0.219444,6.992881 -0.158659,9.075984 -2.258338,12.446538 -10.201608,20.825527 -22.328451,23.555116 -3.272659,0.73646 -4.591668,0.86907 -9.127299,0.91644 -2.353064,0.0245 -4.548256,0.0166 -4.878203,-0.0174 z"
     inkscape:connector-curvature="0" />
</svg>
