<?xml version="1.0" encoding="UTF-8" standalone="no"?>
<svg
   xmlns:dc="http://purl.org/dc/elements/1.1/"
   xmlns:cc="http://creativecommons.org/ns#"
   xmlns:rdf="http://www.w3.org/1999/02/22-rdf-syntax-ns#"
   xmlns:svg="http://www.w3.org/2000/svg"
   xmlns="http://www.w3.org/2000/svg"
   xmlns:xlink="http://www.w3.org/1999/xlink"
   xmlns:sodipodi="http://sodipodi.sourceforge.net/DTD/sodipodi-0.dtd"
   xmlns:inkscape="http://www.inkscape.org/namespaces/inkscape"
   height="136.53333"
   viewBox="0 0 136.53333 136.53333"
   width="136.53333"
   version="1.1"
   id="svg59"
   sodipodi:docname="kaku.svg"
   inkscape:version="0.92.4 5da689c313, 2019-01-14">
  <metadata
     id="metadata65">
    <rdf:RDF>
      <cc:Work
         rdf:about="">
        <dc:format>image/svg+xml</dc:format>
        <dc:type
           rdf:resource="http://purl.org/dc/dcmitype/StillImage" />
        <dc:title></dc:title>
      </cc:Work>
    </rdf:RDF>
  </metadata>
  <defs
     id="defs63">
    <linearGradient
       inkscape:collect="always"
       id="linearGradient865">
      <stop
         style="stop-color:#852e61;stop-opacity:1"
         offset="0"
         id="stop861" />
      <stop
         style="stop-color:#f7986e;stop-opacity:1"
         offset="1"
         id="stop863" />
    </linearGradient>
    <linearGradient
       inkscape:collect="always"
       id="linearGradient857">
      <stop
         style="stop-color:#f1f1f1;stop-opacity:1"
         offset="0"
         id="stop853" />
      <stop
         style="stop-color:#d9dad9;stop-opacity:1"
         offset="1"
         id="stop855" />
    </linearGradient>
    <linearGradient
       inkscape:collect="always"
       xlink:href="#linearGradient857"
       id="linearGradient859"
       x1="73.908607"
       y1="8.693965"
       x2="79.908531"
       y2="137.96426"
       gradientUnits="userSpaceOnUse" />
    <linearGradient
       inkscape:collect="always"
       xlink:href="#linearGradient865"
       id="linearGradient867"
       x1="68.113281"
       y1="119.9646"
       x2="68.113281"
       y2="8.78125"
       gradientUnits="userSpaceOnUse" />
  </defs>
  <sodipodi:namedview
     pagecolor="#ffffff"
     bordercolor="#666666"
     borderopacity="1"
     objecttolerance="10"
     gridtolerance="10"
     guidetolerance="10"
     inkscape:pageopacity="0"
     inkscape:pageshadow="2"
     inkscape:window-width="1920"
     inkscape:window-height="1031"
     id="namedview61"
     showgrid="false"
     inkscape:zoom="4.8889808"
     inkscape:cx="84.931484"
     inkscape:cy="46.522831"
     inkscape:window-x="0"
     inkscape:window-y="26"
     inkscape:window-maximized="1"
     inkscape:current-layer="svg59"
     showguides="false" />
  <linearGradient
     id="a">
    <stop
       offset="0"
       stop-color="#9760ef"
       id="stop2" />
    <stop
       offset="1"
       stop-color="#c054f2"
       stop-opacity="0"
       id="stop4" />
  </linearGradient>
  <linearGradient
     id="b">
    <stop
       offset="0"
       stop-color="#17c7e7"
       id="stop7" />
    <stop
       offset="1"
       stop-color="#c054f2"
       stop-opacity="0"
       id="stop9" />
  </linearGradient>
  <linearGradient
     id="c"
     gradientUnits="userSpaceOnUse"
     x1="62.04421"
     x2="66.81698"
     y1="5.831234"
     y2="47.148641">
    <stop
       offset="0"
       stop-color="#e83c2b"
       id="stop12" />
    <stop
       offset="1"
       stop-color="#c054f2"
       stop-opacity=".792157"
       id="stop14" />
  </linearGradient>
  <linearGradient
     id="d"
     gradientUnits="userSpaceOnUse"
     x1="88.22553"
     x2="38.18116"
     xlink:href="#b"
     y1="119.556361"
     y2="35.285226"
     gradientTransform="translate(-227.27608,-22.607353)" />
  <linearGradient
     id="e"
     gradientUnits="userSpaceOnUse"
     x1="61.6262"
     x2="95.3216"
     y1="48.640058"
     y2="103.021981">
    <stop
       offset="0"
       stop-color="#f66456"
       id="stop18" />
    <stop
       offset="1"
       stop-color="#d9493e"
       stop-opacity="0"
       id="stop20" />
  </linearGradient>
  <linearGradient
     id="f"
     gradientUnits="userSpaceOnUse"
     x1="32.31499"
     x2="61.76681"
     xlink:href="#a"
     y1="92.483823"
     y2="57.318029" />
  <linearGradient
     id="g"
     gradientUnits="userSpaceOnUse"
     x1="96.53194"
     x2="61.76681"
     xlink:href="#b"
     y1="97.690601"
     y2="59.053621" />
  <linearGradient
     id="h"
     gradientUnits="userSpaceOnUse"
     x1="139.34325"
     x2="61.76681"
     xlink:href="#a"
     y1="-7.023515"
     y2="59.053621" />
  <filter
     id="i"
     color-interpolation-filters="sRGB"
     height="1.108812"
     width="1.139866"
     x="-.069933"
     y="-.054406">
    <feGaussianBlur
       stdDeviation="1.9764485"
       id="feGaussianBlur26" />
  </filter>
  <path
     style="color:#000000;font-style:normal;font-variant:normal;font-weight:normal;font-stretch:normal;font-size:medium;line-height:normal;font-family:sans-serif;font-variant-ligatures:normal;font-variant-position:normal;font-variant-caps:normal;font-variant-numeric:normal;font-variant-alternates:normal;font-feature-settings:normal;text-indent:0;text-align:start;text-decoration:none;text-decoration-line:none;text-decoration-style:solid;text-decoration-color:#000000;letter-spacing:normal;word-spacing:normal;text-transform:none;writing-mode:lr-tb;direction:ltr;text-orientation:mixed;dominant-baseline:auto;baseline-shift:baseline;text-anchor:start;white-space:normal;shape-padding:0;clip-rule:nonzero;display:inline;overflow:visible;visibility:visible;opacity:1;isolation:auto;mix-blend-mode:normal;color-interpolation:sRGB;color-interpolation-filters:linearRGB;solid-color:#000000;solid-opacity:1;vector-effect:none;fill:url(#linearGradient859);fill-opacity:1;fill-rule:nonzero;stroke:none;stroke-width:6;stroke-linecap:butt;stroke-linejoin:miter;stroke-miterlimit:4;stroke-dasharray:none;stroke-dashoffset:0;stroke-opacity:1;color-rendering:auto;image-rendering:auto;shape-rendering:auto;text-rendering:auto;enable-background:accumulate"
     d="m 68.113281,2.2167969 c -36.979431,0 -67.0214841,30.0420531 -67.0214841,67.0214841 0,36.979429 30.0420531,67.021489 67.0214841,67.021489 36.979429,0 67.021489,-30.04206 67.021489,-67.021489 0,-36.979431 -30.04206,-67.0214841 -67.021489,-67.0214841 z"
     id="circle29"
     inkscape:connector-curvature="0"
     sodipodi:nodetypes="sssss" />
  <path
     style="opacity:1;fill:url(#linearGradient867);fill-opacity:1;stroke:none;stroke-width:3.79999995;stroke-linecap:round;stroke-linejoin:round;stroke-miterlimit:4;stroke-dasharray:none;stroke-dashoffset:0;stroke-opacity:0.05323193;paint-order:fill markers stroke"
     d="M 68.113281,8.78125 C 34.723662,8.7809529 7.6559529,35.848662 7.65625,69.238281 7.655954,102.6279 34.723662,129.69561 68.113281,129.69531 101.5029,129.69561 128.57061,102.6279 128.57031,69.238281 128.57061,35.848662 101.5029,8.780954 68.113281,8.78125 Z"
     id="path839"
     inkscape:connector-curvature="0"
     sodipodi:nodetypes="ccccc" />
  <path
     id="path853-8"
     d="m 85.906778,41.829067 c -1.160993,0 -2.621913,0.188611 -3.243648,0.420325 -2.654299,0.989211 -4.713245,4.061187 -5.892496,8.787194 -1.896933,7.602192 -5.155869,10.991924 -10.567631,10.991924 -1.653265,0 -1.668681,0.330177 -0.08724,1.808195 3.070407,2.869572 4.938613,7.170149 5.444414,12.538405 0.198842,2.10968 0.49565,3.043842 1.24115,3.917755 0.537881,0.630544 1.200959,1.142018 1.479071,1.142018 0.278111,0 0.818229,-0.934133 1.201499,-2.077838 0.515095,-1.537034 0.780155,-4.248982 1.015127,-10.397121 0.272433,-7.128316 0.444501,-8.644751 1.201498,-10.599354 1.937709,-5.003222 6.270418,-7.676889 10.682626,-5.700097 2.118475,0.949142 3.948624,3.705719 6.634007,8.404458 1.99163,3.48485 4.22964,6.114555 5.206505,6.114555 0.49346,0 0.50455,-0.67777 0.0158,-0.975474 -0.992605,-0.605103 -1.733745,-4.447579 -1.859755,-9.651638 -0.12604,-5.207284 -0.17196,-5.485064 -1.45528,-7.966367 -2.16291,-4.182107 -6.365503,-6.75694 -11.015682,-6.75694 z M 57.249266,61.27113 c -0.383834,0.0034 -0.822704,0.037 -1.368045,0.08724 -2.579612,0.237608 -3.86224,0.575781 -3.86224,1.019091 0,0.144858 1.599183,1.862775 3.548978,3.818622 3.878358,3.890363 5.733718,6.98647 6.5785,10.980027 0.380348,1.29987 0.494346,2.630191 0.57894,3.96534 -2.896708,1.315799 -4.758266,4.201915 -4.762373,7.383461 0,4.485114 3.635903,8.121017 8.121017,8.121017 4.485113,0 8.121016,-3.635903 8.121016,-8.121017 -0.0029,-3.122471 -1.795807,-5.966744 -4.61169,-7.316053 -0.408749,-1.121451 -0.305332,-2.207511 -0.305332,-3.315024 0,-6.636104 -3.468523,-12.748704 -8.882362,-15.655163 -1.370957,-0.736004 -2.004911,-0.977975 -3.156409,-0.967541 z m -8.493759,2.644881 -2.188869,1.483038 c -3.21383,2.18331 -6.345191,5.730346 -8.029813,9.092525 -1.334605,2.663604 -1.499941,3.34798 -1.657513,6.83228 -0.109595,2.423052 -0.413981,4.335433 -0.808929,5.103393 -0.857508,1.667359 -0.431922,3.232275 0.975475,3.580703 0.592513,0.146685 1.989106,1.187288 3.104859,2.307828 3.735899,3.751889 10.842484,5.290674 17.189749,3.723454 1.643353,-0.405769 1.842712,-0.764048 0.872376,-1.558378 -0.348517,-0.285304 -1.091012,-1.411133 -1.653546,-2.506095 -1.92383,-3.744786 -1.208154,-8.403007 1.76061,-11.408285 1.347026,-1.363582 1.427428,-1.58052 1.193568,-3.263474 C 59.375701,76.310916 58.80441,74.601667 58.2406,73.504202 57.091574,71.267564 52.255376,66.042637 50.139409,64.752699 Z m -3.989133,16.487884 c 1.681917,0 3.045381,1.363465 3.045381,3.045382 0,1.681918 -1.363464,3.045381 -3.045381,3.045381 -1.681918,0 -3.045381,-1.363463 -3.045381,-3.045381 0,-1.681917 1.363463,-3.045382 3.045381,-3.045382 z m 21.317669,4.060509 c 2.242555,0 4.060508,1.817952 4.060508,4.060508 0,2.242556 -1.817953,4.060508 -4.060508,4.060508 -2.242557,0 -4.060509,-1.817952 -4.060509,-4.060508 0,-2.242556 1.817952,-4.060508 4.060509,-4.060508 z"
     style="fill:#ffffff;stroke-width:2.03025413"
     inkscape:connector-curvature="0" />
</svg>
