<svg enable-background="new 0 0 128 128" viewBox="0 0 128 128" xmlns="http://www.w3.org/2000/svg" xmlns:xlink="http://www.w3.org/1999/xlink"><linearGradient id="a" gradientUnits="userSpaceOnUse" x1="75.574676" x2="74.961417" y1="15.992326" y2="41.687871"><stop offset="0" stop-color="#f3f1f3"/><stop offset="1" stop-color="#dcdadc"/></linearGradient><filter id="b" color-interpolation-filters="sRGB" height="1.03831" width="1.033953" x="-.016976" y="-.019155"><feGaussianBlur stdDeviation=".80949148"/></filter><rect fill="#1a1a1a" fill-opacity=".488688" filter="url(#b)" height="101.42373" ry="3.525424" width="114.44067" x="6.542252" y="15.109272"/><rect fill="#fdfdfd" height="101.42373" ry="3.525424" width="114.44067" x="6.542252" y="15.109272"/><path d="m10.06922 15.109272c-1.95309 0-3.52734 1.572306-3.52734 3.525391v23.552738c20.05069-.06356 97.39424-.38393 114.4414-.45508v-23.097658c0-1.953085-1.5723-3.525391-3.52539-3.525391z" fill="url(#a)"/><g stroke-width=".4"><circle cx="25.10952" cy="28.877758" fill="#ff6159" r="6.716322" stroke="#e1453f"/><circle cx="46.600372" cy="28.877758" fill="#ffbe2f" r="6.716322" stroke="#dfa023"/><circle cx="68.091217" cy="28.877758" fill="#28ca40" r="6.716322" stroke="#1bac2c"/></g><path d="m32.615234 58.117188c-1.307114 0-2.359375 1.052254-2.359375 2.359374v36.027344c0 1.30713 1.052261 2.359375 2.359375 2.359375h45.615235c1.307116 0 2.359375-1.052245 2.359375-2.359375v-10.210937l2.384765 1.5625 11.033203 7.226562c1.44958.94928 3.262189-.237598 3.261719-2.136719v-14.455078-14.455078c-.00071-1.89835-1.812738-3.085609-3.261719-2.136718l-11.033203 7.228515-2.384765 1.560547v-10.210938c0-1.307119-1.052259-2.359374-2.359375-2.359374zm21.654297 6.761718a13.611806 13.611806 0 0 1 13.613281 13.611328 13.611806 13.611806 0 0 1 -13.613281 13.611328 13.611806 13.611806 0 0 1 -13.611328-13.611328 13.611806 13.611806 0 0 1 13.611328-13.611328z" fill="#cecece"/></svg>