<?xml version="1.0" encoding="UTF-8" standalone="no"?>
<!-- Created with Inkscape (http://www.inkscape.org/) -->

<svg
   xmlns:osb="http://www.openswatchbook.org/uri/2009/osb"
   xmlns:dc="http://purl.org/dc/elements/1.1/"
   xmlns:cc="http://creativecommons.org/ns#"
   xmlns:rdf="http://www.w3.org/1999/02/22-rdf-syntax-ns#"
   xmlns:svg="http://www.w3.org/2000/svg"
   xmlns="http://www.w3.org/2000/svg"
   xmlns:xlink="http://www.w3.org/1999/xlink"
   xmlns:sodipodi="http://sodipodi.sourceforge.net/DTD/sodipodi-0.dtd"
   xmlns:inkscape="http://www.inkscape.org/namespaces/inkscape"
   width="128"
   height="128"
   viewBox="0 0 33.866666 33.866668"
   version="1.1"
   id="svg8"
   inkscape:version="0.92.2 5c3e80d, 2017-08-06"
   sodipodi:docname="drawing.svg">
  <defs
     id="defs2">
    <linearGradient
       inkscape:collect="always"
       id="linearGradient2831">
      <stop
         style="stop-color:#f6f6f6;stop-opacity:1"
         offset="0"
         id="stop2827" />
      <stop
         style="stop-color:#d2d2d2;stop-opacity:1"
         offset="1"
         id="stop2829" />
    </linearGradient>
    <linearGradient
       id="linearGradient943"
       inkscape:collect="always">
      <stop
         id="stop939"
         offset="0"
         style="stop-color:#0db7fa;stop-opacity:1" />
      <stop
         id="stop941"
         offset="1"
         style="stop-color:#0070fc;stop-opacity:1" />
    </linearGradient>
    <linearGradient
       osb:paint="solid"
       id="linearGradient6987">
      <stop
         id="stop6985"
         offset="0"
         style="stop-color:#77d2fb;stop-opacity:1;" />
    </linearGradient>
    <linearGradient
       inkscape:collect="always"
       xlink:href="#linearGradient943"
       id="linearGradient908"
       gradientUnits="userSpaceOnUse"
       x1="-275.78763"
       y1="97.916237"
       x2="-278.22531"
       y2="250.32806"
       gradientTransform="matrix(0.84018175,0,0,0.84018175,80.704928,148.2253)" />
    <linearGradient
       inkscape:collect="always"
       xlink:href="#linearGradient2831"
       id="linearGradient2833"
       x1="-33.717705"
       y1="139.26482"
       x2="-23.581802"
       y2="190.62598"
       gradientUnits="userSpaceOnUse"
       gradientTransform="translate(-117.92857,145.14286)" />
  </defs>
  <sodipodi:namedview
     id="base"
     pagecolor="#ffffff"
     bordercolor="#666666"
     borderopacity="1.0"
     inkscape:pageopacity="0.0"
     inkscape:pageshadow="2"
     inkscape:zoom="5.6"
     inkscape:cx="97.371007"
     inkscape:cy="79.000647"
     inkscape:document-units="mm"
     inkscape:current-layer="layer1"
     showgrid="false"
     inkscape:window-width="1600"
     inkscape:window-height="814"
     inkscape:window-x="0"
     inkscape:window-y="0"
     inkscape:window-maximized="1"
     units="px" />
  <metadata
     id="metadata5">
    <rdf:RDF>
      <cc:Work
         rdf:about="">
        <dc:format>image/svg+xml</dc:format>
        <dc:type
           rdf:resource="http://purl.org/dc/dcmitype/StillImage" />
        <dc:title></dc:title>
      </cc:Work>
    </rdf:RDF>
  </metadata>
  <g
     inkscape:label="Layer 1"
     inkscape:groupmode="layer"
     id="layer1"
     transform="translate(0,-263.13332)">
    <g
       id="g2843"
       transform="matrix(0.25378866,0,0,0.25378866,54.536344,205.19026)"
       style="stroke-width:3.9402864">
      <path
         inkscape:connector-curvature="0"
         style="opacity:0.25;fill:#000000;fill-opacity:1;stroke-width:0.58394545"
         d="m -148.16445,231.47144 c -2.78497,0 -5.56976,0.0862 -7.26157,0.25838 -11.21646,1.14182 -19.19127,4.45194 -25.20312,10.46086 -3.12488,3.12337 -5.87412,7.25457 -8.07857,12.13984 -3.72402,8.25277 -5.7474,17.34763 -6.76393,30.40176 -0.26005,3.3395 -0.26005,19.18676 0,22.52627 1.26183,16.20433 4.37846,27.66273 9.92498,36.49183 6.68479,10.64104 16.51784,15.75963 32.49155,16.91266 1.98226,0.1431 10.83106,-0.0374 12.81937,-0.26148 11.30594,-1.2741 19.0719,-4.67643 25.13542,-11.01224 6.51089,-6.80328 11.26648,-18.50962 13.23227,-32.57218 1.00214,-7.16898 1.20147,-10.6219 1.20147,-20.82198 0,-8.77147 -0.0713,-10.64244 -0.60564,-15.93133 -1.01924,-10.08908 -3.10568,-18.54586 -6.34897,-25.73331 -2.28136,-5.0557 -5.41086,-9.67363 -8.60258,-12.69484 -5.94538,-5.62781 -13.85837,-8.80438 -24.67859,-9.90586 -1.69181,-0.17222 -4.47713,-0.25838 -7.26209,-0.25838 z"
         id="path2837" />
      <path
         inkscape:connector-curvature="0"
         id="path915"
         d="m -148.16445,229.35477 c -2.78497,0 -5.56976,0.0862 -7.26157,0.25838 -11.21646,1.14182 -19.19127,4.45194 -25.20312,10.46086 -3.12488,3.12337 -5.87412,7.25456 -8.07857,12.13983 -3.72402,8.25277 -5.7474,17.34763 -6.76393,30.40176 -0.26005,3.3395 -0.26005,19.18676 0,22.52627 1.26183,16.20433 4.37846,27.66273 9.92498,36.49183 6.68479,10.64104 16.51784,15.75963 32.49155,16.91267 1.98226,0.14309 10.83106,-0.0374 12.81937,-0.26149 11.30594,-1.2741 19.0719,-4.67643 25.13542,-11.01224 6.51089,-6.80327 11.26648,-18.50962 13.23227,-32.57217 1.00214,-7.16899 1.20147,-10.62191 1.20147,-20.82199 0,-8.77147 -0.0713,-10.64244 -0.60564,-15.93133 -1.01924,-10.08908 -3.10568,-18.54586 -6.34897,-25.73331 -2.28136,-5.0557 -5.41086,-9.67362 -8.60258,-12.69483 -5.94538,-5.62781 -13.85837,-8.80438 -24.67859,-9.90586 -1.69181,-0.17222 -4.47713,-0.25838 -7.26209,-0.25838 z"
         style="fill:url(#linearGradient908);fill-opacity:1;stroke-width:0.58394545" />
      <path
         inkscape:connector-curvature="0"
         style="opacity:0.25;fill:#000000;fill-opacity:1;stroke-width:1.04253411"
         d="m -173.50461,276.06535 18.99925,19.21265 v 0 l -18.99925,19.21281 6.04244,6.09083 15.79555,-15.62249 v 36.67351 l 28.83797,-27.19123 -17.48312,-19.16343 17.43696,-19.13678 -28.63524,-26.6467 -0.13623,36.50066 -15.79558,-16.00026 z m 30.53678,-8.60489 8.75936,8.33914 -8.75936,10.80151 z m 0,38.33489 8.77966,8.96109 -8.75936,8.33916 z"
         id="path2835" />
      <path
         id="path2800"
         d="m -173.50461,274.47784 18.99925,19.21265 v 0 l -18.99925,19.21281 6.04244,6.09083 15.79555,-15.62249 v 36.67351 l 28.83797,-27.19123 -17.48312,-19.16343 17.43696,-19.13678 -28.63524,-26.6467 -0.13623,36.50066 -15.79558,-16.00026 z m 30.53678,-8.60489 8.75936,8.33914 -8.75936,10.80151 z m 0,38.33489 8.77966,8.96109 -8.75936,8.33916 z"
         style="fill:url(#linearGradient2833);fill-opacity:1;stroke-width:1.04253411"
         inkscape:connector-curvature="0" />
    </g>
  </g>
</svg>
