<?xml version="1.0" encoding="UTF-8" standalone="no"?>
<!-- Created with Inkscape (http://www.inkscape.org/) -->

<svg
   xmlns:osb="http://www.openswatchbook.org/uri/2009/osb"
   xmlns:dc="http://purl.org/dc/elements/1.1/"
   xmlns:cc="http://creativecommons.org/ns#"
   xmlns:rdf="http://www.w3.org/1999/02/22-rdf-syntax-ns#"
   xmlns:svg="http://www.w3.org/2000/svg"
   xmlns="http://www.w3.org/2000/svg"
   xmlns:xlink="http://www.w3.org/1999/xlink"
   xmlns:sodipodi="http://sodipodi.sourceforge.net/DTD/sodipodi-0.dtd"
   xmlns:inkscape="http://www.inkscape.org/namespaces/inkscape"
   width="128"
   height="128"
   viewBox="0 0 33.866666 33.866668"
   version="1.1"
   id="svg8"
   inkscape:version="0.92.1 r15371"
   sodipodi:docname="brave-alt.svg">
  <defs
     id="defs2">
    <linearGradient
       inkscape:collect="always"
       id="linearGradient4599">
      <stop
         style="stop-color:#d3d3d3;stop-opacity:1;"
         offset="0"
         id="stop4595" />
      <stop
         style="stop-color:#e0e0e0;stop-opacity:0.80303031"
         offset="1"
         id="stop4597" />
    </linearGradient>
    <linearGradient
       id="linearGradient3361"
       inkscape:collect="always">
      <stop
         id="stop3363"
         offset="0"
         style="stop-color:#0068e0;stop-opacity:1;" />
      <stop
         id="stop3365"
         offset="1"
         style="stop-color:#00acf4;stop-opacity:1" />
    </linearGradient>
    <linearGradient
       xlink:href="#linearGradient3361"
       x1="71.204002"
       y1="15.369"
       gradientTransform="matrix(1.5564685,0,0,1.58743,-88.730662,-20.236087)"
       x2="71.204002"
       gradientUnits="userSpaceOnUse"
       y2="40.495998"
       id="linearGradient3026">
      <stop
         offset="0"
         stop-color="#fff"
         id="stop4808-4" />
      <stop
         offset=".42448"
         stop-opacity=".23529"
         stop-color="#fff"
         id="stop4810-0" />
      <stop
         offset=".82090"
         stop-opacity=".15686"
         stop-color="#fff"
         id="stop4812-8" />
      <stop
         offset="1"
         stop-opacity=".39216"
         stop-color="#fff"
         id="stop4814-0" />
    </linearGradient>
    <radialGradient
       r="20"
       gradientTransform="matrix(-3.4973e-8,1.8855,-1.7764,-5.4723e-8,39.14,-7.9932)"
       cx="15.026"
       cy="8.6258001"
       gradientUnits="userSpaceOnUse"
       fy="8.5088997"
       fx="4.4590001"
       id="radialGradient3029">
      <stop
         offset="0"
         stop-color="#c24251"
         id="stop4170" />
      <stop
         offset=".26238"
         stop-color="#c24251"
         id="stop4172" />
      <stop
         offset=".66094"
         stop-color="#a63643"
         id="stop4174" />
      <stop
         offset="1"
         stop-color="#a63643"
         id="stop4176" />
    </radialGradient>
    <radialGradient
       r="20.396999"
       gradientTransform="matrix(0,2.835678,-3.67007,0,38.250987,-64.305184)"
       cx="23.896"
       cy="3.99"
       gradientUnits="userSpaceOnUse"
       id="radialGradient3032">
      <stop
         offset="0"
         stop-color="#fff"
         id="stop3244-9-33-7-0-9" />
      <stop
         offset=".26238"
         stop-color="#ddd"
         id="stop3246-3-5-0-8-5" />
      <stop
         offset=".66094"
         stop-color="#abacae"
         id="stop3248-1-7-8-8-1" />
      <stop
         offset="1"
         stop-color="#89898b"
         id="stop3250-9-3-0-5-1" />
    </radialGradient>
    <radialGradient
       r="62.769001"
       gradientTransform="matrix(0.27083,0,0,0.087623,-2.8550999,26.187422)"
       cx="99.156998"
       cy="186.17"
       gradientUnits="userSpaceOnUse"
       id="radialGradient3035">
      <stop
         offset="0"
         stop-color="#3d3d3d"
         id="stop3822-2-6-3" />
      <stop
         offset=".5"
         stop-opacity=".49804"
         stop-color="#686868"
         id="stop3864-8-7-7" />
      <stop
         offset="1"
         stop-opacity="0"
         stop-color="#686868"
         id="stop3824-1-2-5" />
    </radialGradient>
    <linearGradient
       x1="22.759001"
       y1="13.035"
       gradientTransform="matrix(1,0,0,1.0521,0,-0.90547)"
       x2="23.077999"
       gradientUnits="userSpaceOnUse"
       y2="25.611"
       id="linearGradient4433">
      <stop
         offset="0"
         stop-color="#fff"
         id="stop6305-1-0-2" />
      <stop
         offset="1"
         stop-opacity="0"
         stop-color="#fff"
         id="stop6307-5-0-6" />
    </linearGradient>
    <linearGradient
       id="linearGradient4829">
      <stop
         id="stop4831"
         offset="0"
         style="stop-color:#f4fbfc;stop-opacity:1;" />
      <stop
         id="stop4833"
         offset="1"
         style="stop-color:#d6d6d6;stop-opacity:1;" />
    </linearGradient>
    <radialGradient
       gradientUnits="userSpaceOnUse"
       r="127.0051"
       cy="186.51421"
       cx="224.50391"
       id="SVGID_4_">
      <stop
         id="stop27"
         style="stop-color:#FFFFFF"
         offset="0" />
      <stop
         id="stop29"
         style="stop-color:#FDFEFF"
         offset="0.3984" />
      <stop
         id="stop31"
         style="stop-color:#F5FAFF"
         offset="0.6131" />
      <stop
         id="stop33"
         style="stop-color:#E7F3FF"
         offset="0.7841" />
      <stop
         id="stop35"
         style="stop-color:#D4EAFF"
         offset="0.9311" />
      <stop
         id="stop37"
         style="stop-color:#C8E4FF"
         offset="1" />
    </radialGradient>
    <radialGradient
       id="SVGID_5_"
       cx="324.69339"
       cy="286.66409"
       r="26.769501"
       gradientUnits="userSpaceOnUse">
      <stop
         offset="0"
         style="stop-color:#FFFFFF"
         id="stop50" />
      <stop
         offset="0.3984"
         style="stop-color:#FDFEFF"
         id="stop52" />
      <stop
         offset="0.6131"
         style="stop-color:#F5FAFF"
         id="stop54" />
      <stop
         offset="0.7841"
         style="stop-color:#E7F3FF"
         id="stop56" />
      <stop
         offset="0.9311"
         style="stop-color:#D4EAFF"
         id="stop58" />
      <stop
         offset="1"
         style="stop-color:#C8E4FF"
         id="stop60" />
    </radialGradient>
    <radialGradient
       id="SVGID_6_"
       cx="325"
       cy="392.77249"
       r="46.444901"
       gradientUnits="userSpaceOnUse">
      <stop
         offset="0"
         style="stop-color:#FFFFFF"
         id="stop73" />
      <stop
         offset="0.3984"
         style="stop-color:#FDFEFF"
         id="stop75" />
      <stop
         offset="0.6131"
         style="stop-color:#F5FAFF"
         id="stop77" />
      <stop
         offset="0.7841"
         style="stop-color:#E7F3FF"
         id="stop79" />
      <stop
         offset="0.9311"
         style="stop-color:#D4EAFF"
         id="stop81" />
      <stop
         offset="1"
         style="stop-color:#C8E4FF"
         id="stop83" />
    </radialGradient>
    <clipPath
       id="clipPath-349538100">
      <g
         transform="translate(0,-1004.4)"
         id="g17">
        <path
           transform="matrix(15.333,0,0,11.5,415,878.86)"
           d="m -24,13 c 0,1.105 -0.672,2 -1.5,2 -0.828,0 -1.5,-0.895 -1.5,-2 0,-1.105 0.672,-2 1.5,-2 0.828,0 1.5,0.895 1.5,2 z"
           id="path19"
           inkscape:connector-curvature="0"
           style="fill:#1890d0" />
      </g>
    </clipPath>
    <clipPath
       id="clipPath3914">
      <g
         transform="translate(0,-1004.4)"
         id="g3912">
        <path
           transform="matrix(15.333,0,0,11.5,415,878.86)"
           d="m -24,13 c 0,1.105 -0.672,2 -1.5,2 -0.828,0 -1.5,-0.895 -1.5,-2 0,-1.105 0.672,-2 1.5,-2 0.828,0 1.5,0.895 1.5,2 z"
           id="path3910"
           inkscape:connector-curvature="0"
           style="fill:#1890d0" />
      </g>
    </clipPath>
    <clipPath
       id="clipPath3920">
      <g
         transform="translate(0,-1004.4)"
         id="g3918">
        <path
           transform="matrix(15.333,0,0,11.5,415,878.86)"
           d="m -24,13 c 0,1.105 -0.672,2 -1.5,2 -0.828,0 -1.5,-0.895 -1.5,-2 0,-1.105 0.672,-2 1.5,-2 0.828,0 1.5,0.895 1.5,2 z"
           id="path3916"
           inkscape:connector-curvature="0"
           style="fill:#1890d0" />
      </g>
    </clipPath>
    <linearGradient
       osb:paint="solid"
       id="linearGradient6987">
      <stop
         id="stop6985"
         offset="0"
         style="stop-color:#77d2fb;stop-opacity:1;" />
    </linearGradient>
    <linearGradient
       inkscape:collect="always"
       xlink:href="#linearGradient4599"
       id="linearGradient4601"
       x1="-23.370707"
       y1="265.05884"
       x2="-23.368494"
       y2="258.2641"
       gradientUnits="userSpaceOnUse"
       gradientTransform="matrix(0.97501991,-0.15031322,0.15031322,0.97501991,1.7893226,9.4995078)" />
    <filter
       id="alpha"
       width="100%"
       height="100%"
       x="0%"
       y="0%">
      <feColorMatrix
         in="SourceGraphic"
         values="0 0 0 0 1 0 0 0 0 1 0 0 0 0 1 0 0 0 1 0"
         id="feColorMatrix929" />
    </filter>
    <mask
       id="mask0">
      <g
         filter="url(#alpha)"
         id="g934">
        <rect
           width="384"
           height="384"
           style="fill-opacity:.2;fill:rgb(0%,0%,0%)"
           id="rect932" />
      </g>
    </mask>
    <clipPath
       id="clip1">
      <rect
         width="384"
         height="384"
         id="rect937" />
    </clipPath>
    <g
       id="surface5"
       clip-path="url(#clip1)">
      <path
         d="m162.49219 24.035156c-13.507813 0.222656-27.109376 3.160156-37.09375 8.109375-9.898438 4.90625-18.738282 14.425781-27.078126 29.167969-2.140624 3.78125-4.636718 7.363281-5.554687 7.96875s-4.285156 1.453125-7.464844 1.882812c-11.070312-0.371093-23.210937-2.757812-34.96875-5.140624 0 0-7.496093-1.949219-8.332031 6.152343 0.035156 1.367188 0.257812 2.65625 0.46875 3.953125 1.8125-5.617187 7.863281-4.105468 7.863281-4.105468 11.757813 2.382812 23.898438 4.769531 34.96875 5.140624 3.179688-0.429687 6.546875-1.277343 7.464844-1.882812s3.414063-4.199219 5.554687-7.980469c8.339844-14.738281 17.179688-24.25 27.078126-29.15625 11.414062-5.65625 27.554687-8.683593 42.871093-8.039062 18.414063 0.777343 34.054688 7.144531 46.832031 19.066406 8.777344 8.195313 14.589844 10.25 22.941407 8.097656 2.28125-0.589843 3.175781-0.746093 4.058593-0.855469 1.191407-1.652343 1.953126-3.363281 1.953126-4.816406 0-1.84375-0.136719-1.84375-6.011719-0.328125-8.351563 2.152344-14.164063 0.097657-22.941407-8.097656-12.777343-11.921875-28.417968-18.289063-46.832031-19.066406-1.914062-0.082031-3.84375-0.101563-5.777343-0.070313zm77.929687 40.328125c-0.410156 0.402344-0.800781 0.816407-1.269531 1.191407l-2.726563 2.203124 0.855469 0.503907c0.253906-0.042969 0.460938-0.101563 0.726562-0.136719 3.835938-0.554688 4.546876-1.980469 2.414063-3.761719zm-8.214844 11.644531c-0.457031 0.335938-0.785156 0.683594-0.785156 1.019532 0 0.398437 0.542969 3.835937 1.203125 7.636718 0.582031 3.355469 0.792969 7.929688 0.835938 12.710938 0.238281-6.9375-0.007813-13.949219-0.835938-18.710938-0.226562-1.316406-0.234375-1.535156-0.417969-2.65625zm-170.49609 34.195313c-5.027344 3.300781-7.902344 8.210937-13.792969 12.808594-0.917969 1.726562-0.429688 3.367187 1.171875 4.921875 6.414062-5.457032 9.296875-11.167969 16.910156-13.921875-1.464844-1.246094-2.851562-2.539063-4.289062-3.808594zm256.28906 45.820313c-5.183594 0-8.507812 3.1875-14.089844 10.699218-6.519531 8.789063-15.25 15.429688-21.347656 18.539063-9.554688 4.871093-16.882812 4.003906-34.152344-4.042969-18.273437-8.519531-30.953125-11.582031-49.15625-13.195312-1.289062-0.113282-2.777344-0.066407-4.242187-0.082032-3.976563 2.703125-8.339844 5.644532-9.011719 6.070313 0.847656 0 8.28125-0.433594 13.253906 0.011719 18.203125 1.613281 30.882813 4.675781 49.15625 13.195312 17.269532 8.046875 24.597656 8.914062 34.152344 4.042969 6.097656-3.109375 14.828125-9.75 21.347656-18.539063 5.582032-7.511718 8.90625-10.699218 14.089844-10.699218 5.074219 0 8.71875 3.347656 12.5625 9.210937 5.445312 8.304687 8.414062 14.230469 10.527344 28.699219 0.597656 4.132812 0.8125 10.640625 0.824218 17.445312 0.195313-8.976562-0.046874-18.070312-0.824218-23.445312-2.113282-14.46875-5.082032-20.394532-10.527344-28.699219-3.84375-5.863281-7.488281-9.210937-12.5625-9.210937zm-216 3.371093c-0.253906 5.238281-1.375 10.058594-4.625 16.363281-3.75 7.273438-7.84375 13.054688-15.941406 21.960938-14.582032 16.054688-24.941406 33.121094-29.496094 48.597656-1.648438 5.597656-2.285156 11.917969-2.039062 18.570313 0.222656-4.449219 0.894531-8.679688 2.039062-12.570313 4.554688-15.476562 14.914062-32.542968 29.496094-48.597656 8.097656-8.90625 12.191406-14.6875 15.941406-21.960938 4.433594-8.605468 4.96875-14.449218 4.625-22.363281z"
         style="fill:rgb(100%,100%,100%)"
         id="path940" />
    </g>
    <mask
       id="mask1">
      <g
         filter="url(#alpha)"
         id="g945">
        <rect
           width="384"
           height="384"
           style="fill-opacity:.2;fill:rgb(0%,0%,0%)"
           id="rect943" />
      </g>
    </mask>
    <clipPath
       id="clip2">
      <rect
         width="384"
         height="384"
         id="rect948" />
    </clipPath>
    <g
       id="surface8"
       clip-path="url(#clip2)">
      <path
         d="m243.25781 56.179688c-0.171874-0.011719-0.917968 0.210937-1.171874 0.246093-0.796876 1.09375-1.75 2.175781-2.929688 3.128907l-2.730469 2.203124 2.753907 1.640626c0.574218 0.339843 0.863281 0.640624 1.242187 0.960937 2.210937-2.1875 3.632813-4.71875 3.632813-6.761719 0-0.921875-0.027344-1.375-0.796876-1.417968zm-5.988281 12.082031c-3.363281 0.589843-5.847656 1.722656-5.847656 2.765625 0 0.257812 0.441406 2.878906 0.785156 4.980468 1.066407-0.785156 3.167969-1.507812 5.800781-1.886718 4.515626-0.652344 4.96875-2.46875 1.171876-4.722656zm-194.80078 7.859375c-0.199219 0.617187-0.386719 1.253906-0.46875 2.050781 0.355469 13.265625 9.480469 22.996094 19.710938 32.027344 1.269531-0.832031 2.652343-1.601563 4.289062-2.1875-10.800781-9.210938-21.386719-18.847657-23.53125-31.890625zm190.99219 21.246094c-0.230469 6.667968-0.914063 13.25-1.992188 17.625-3.410156 13.835937-8.582031 23.582031-17.402344 32.835937-6.867187 6.238281-26.257812 19.042969-28.070312 20.183594 0.632812 0 4.851562-0.136719 9.035156-0.082031 6.734375-4.582032 14.722656-10.179688 19.03125-14.097657 8.820312-9.25 13.996094-18.996093 17.402344-32.835937 1.414062-5.71875 2.066406-15.097656 1.992187-23.625zm-184.37109 30.574218c-0.414063 0.355469-0.71875 0.714844-1.171875 1.066406-1.417969 2.675782 0.214843 5.175782 4.804687 7.394532 5.921875 2.855468 11.992188 3.625 24.390625 3.035156 12.695313-0.609375 14.386719 1.269531 18.492188 4.664062 4.328125 3.601563 6.027343 7 6.394531 14.894532 0.007812 0.140625-0.003906 0.261718 0 0.398437 0.101562-2.035156 0.109375-4.132812 0-6.410156-0.367188-7.894531-2.066406-11.28125-6.394531-14.882813-4.105469-3.394531-5.796875-5.285156-18.492188-4.675781-12.398437 0.589844-18.46875-0.167969-24.390625-3.023437-1.621094-0.785156-2.753906-1.605469-3.632812-2.460938zm292.82422 89.4375c-0.175781 8.300782-0.71875 16.507813-1.617187 21.457032-11.171875 61.597656-50.480469 103.0625-110.49609 116.56641-16.195312 3.644531-22.71875 4.300781-45.160156 4.535156-11.644531 0.125-22.519531 0.085938-24.15625-0.082031v-0.011719c-37.652344-3.851562-63.890625-14.621094-83.273437-34.191406-7.828126-7.910156-13.144532-15.179688-17.5625-24.023438-5.847657-11.691406-9.1875-24.296875-9.75-35.90625-0.496094 13.167969 2.875 28.160156 9.75 41.90625 4.417968 8.84375 9.734374 16.117188 17.566406 24.023438 19.378906 19.570312 45.613281 30.355468 83.273437 34.207031 1.632813 0.167969 12.507813 0.203125 24.152344 0.082031 22.445313-0.234375 28.964844-0.890625 45.164063-4.535156 60.011718-13.5 99.324218-54.96875 110.49609-116.56641 1.121094-6.183594 1.640625-17.246094 1.617188-27.457032z"
         style="fill:rgb(0%,0%,0%)"
         id="path951" />
    </g>
    <linearGradient
       id="linearGradient1117"
       x1="-248.932"
       x2="249.882"
       y1="515.328"
       y2="249.017"
       gradientUnits="userSpaceOnUse">
      <stop
         style="stop-color:#4aaee6"
         offset="0"
         id="stop954" />
      <stop
         style="stop-color:#357af0"
         offset="1"
         id="stop956" />
    </linearGradient>
    <linearGradient
       gradientUnits="userSpaceOnUse"
       gradientTransform="scale(0.69850138,1.4316364)"
       x1="0"
       y1="116.54461"
       x2="186.14996"
       y2="116.54461"
       id="linearGradient-1">
      <stop
         stop-color="#FFFFFF"
         offset="0%"
         id="stop4511" />
      <stop
         stop-color="#FFFFFF"
         stop-opacity="0.9576"
         offset="14.13%"
         id="stop4513" />
      <stop
         stop-color="#FFFFFF"
         stop-opacity="0.7"
         offset="100%"
         id="stop4515" />
    </linearGradient>
    <linearGradient
       gradientUnits="userSpaceOnUse"
       gradientTransform="scale(0.68561406,1.4585465)"
       x1="187.35059"
       y1="112.26521"
       x2="373.38791"
       y2="112.26521"
       id="linearGradient-2">
      <stop
         stop-color="#F1F1F2"
         offset="0%"
         id="stop4518" />
      <stop
         stop-color="#E4E5E6"
         offset="9.191442%"
         id="stop4520" />
      <stop
         stop-color="#D9DADB"
         offset="23.57%"
         id="stop4522" />
      <stop
         stop-color="#D2D4D5"
         offset="43.8%"
         id="stop4524" />
      <stop
         stop-color="#D0D2D3"
         offset="100%"
         id="stop4526" />
    </linearGradient>
    <linearGradient
       id="linearGradient1606-5"
       inkscape:collect="always">
      <stop
         id="stop1602"
         offset="0"
         style="stop-color:#f3f9f9;stop-opacity:1" />
      <stop
         id="stop1604"
         offset="1"
         style="stop-color:#d5dada;stop-opacity:1" />
    </linearGradient>
    <linearGradient
       y2="71.020111"
       x2="84.091423"
       y1="117.04197"
       x1="122.34071"
       gradientUnits="userSpaceOnUse"
       id="linearGradient948"
       xlink:href="#linearGradient944"
       inkscape:collect="always"
       gradientTransform="matrix(0.26458333,0,0,0.26458333,-73.214422,269.22893)" />
    <linearGradient
       id="linearGradient944"
       inkscape:collect="always">
      <stop
         id="stop940"
         offset="0"
         style="stop-color:#d5dada;stop-opacity:1" />
      <stop
         id="stop942"
         offset="1"
         style="stop-color:#f1f1f1;stop-opacity:1" />
    </linearGradient>
    <filter
       y="-0.082800001"
       x="-0.082800001"
       width="1.1655999"
       height="1.1655999"
       id="c"
       style="color-interpolation-filters:sRGB">
      <feGaussianBlur
         id="feGaussianBlur10"
         stdDeviation="2.1101835" />
    </filter>
    <filter
       y="-0.015513"
       x="-0.015688"
       width="1.031376"
       height="1.031026"
       id="a"
       style="color-interpolation-filters:sRGB">
      <feGaussianBlur
         id="feGaussianBlur2"
         stdDeviation=".7986332" />
    </filter>
    <linearGradient
       gradientTransform="matrix(0.94412317,0,0,0.94412317,-42.625563,19.513948)"
       y2="291.66385"
       x2="30.878431"
       y1="281.84537"
       x1="21.771429"
       gradientUnits="userSpaceOnUse"
       id="linearGradient1615"
       xlink:href="#linearGradient1606-5"
       inkscape:collect="always" />
  </defs>
  <sodipodi:namedview
     id="base"
     pagecolor="#ffffff"
     bordercolor="#666666"
     borderopacity="1.0"
     inkscape:pageopacity="0.0"
     inkscape:pageshadow="2"
     inkscape:zoom="2.4260218"
     inkscape:cx="57.57761"
     inkscape:cy="34.938424"
     inkscape:document-units="mm"
     inkscape:current-layer="layer1"
     showgrid="false"
     units="px"
     inkscape:window-width="1920"
     inkscape:window-height="1025"
     inkscape:window-x="0"
     inkscape:window-y="29"
     inkscape:window-maximized="1"
     showguides="true" />
  <metadata
     id="metadata5">
    <rdf:RDF>
      <cc:Work
         rdf:about="">
        <dc:format>image/svg+xml</dc:format>
        <dc:type
           rdf:resource="http://purl.org/dc/dcmitype/StillImage" />
        <dc:title></dc:title>
      </cc:Work>
    </rdf:RDF>
  </metadata>
  <g
     inkscape:label="Capa 1"
     inkscape:groupmode="layer"
     id="layer1"
     transform="translate(0,-263.13332)">
    <path
       inkscape:connector-curvature="0"
       d=""
       style="opacity:1;fill:url(#linearGradient948);fill-opacity:1;stroke:none;stroke-width:0.57240593;stroke-linecap:round;stroke-linejoin:round;stroke-miterlimit:4;stroke-dasharray:none;stroke-dashoffset:0;stroke-opacity:0.03831416;paint-order:fill markers stroke"
       id="path864"
       r="28.431282"
       cy="97.610519"
       cx="103.31834" />
    <g
       id="g4866"
       transform="matrix(0.97506879,-0.14999582,0.14999582,0.97506879,22.550405,10.714557)"
       style="opacity:0.38900003">
      <rect
         style="opacity:1;fill:none;fill-opacity:1;stroke:#000000;stroke-width:0.15000001;stroke-linecap:round;stroke-linejoin:round;stroke-miterlimit:4;stroke-dasharray:none;stroke-dashoffset:0;stroke-opacity:0.03921569;paint-order:fill markers stroke"
         id="rect4848"
         width="25.830492"
         height="29.56739"
         x="-61.94516"
         y="253.76543"
         rx="1.4423118"
         ry="1.4423118"
         transform="rotate(-0.01865124)" />
      <rect
         transform="rotate(-0.01865124)"
         ry="1.4423118"
         rx="1.4423118"
         y="253.76543"
         x="-61.94516"
         height="29.56739"
         width="25.830492"
         id="rect4850"
         style="opacity:1;fill:none;fill-opacity:1;stroke:#000000;stroke-width:0.30000001;stroke-linecap:round;stroke-linejoin:round;stroke-miterlimit:4;stroke-dasharray:none;stroke-dashoffset:0;stroke-opacity:0.03921569;paint-order:fill markers stroke" />
      <rect
         style="opacity:1;fill:none;fill-opacity:1;stroke:#000000;stroke-width:0.44999999;stroke-linecap:round;stroke-linejoin:round;stroke-miterlimit:4;stroke-dasharray:none;stroke-dashoffset:0;stroke-opacity:0.03921569;paint-order:fill markers stroke"
         id="rect4852"
         width="25.830492"
         height="29.56739"
         x="-61.94516"
         y="253.76543"
         rx="1.4423118"
         ry="1.4423118"
         transform="rotate(-0.01865124)" />
      <rect
         transform="rotate(-0.01865124)"
         ry="1.4423118"
         rx="1.4423118"
         y="253.76543"
         x="-61.94516"
         height="29.56739"
         width="25.830492"
         id="rect4854"
         style="opacity:1;fill:none;fill-opacity:1;stroke:#000000;stroke-width:0.60000002;stroke-linecap:round;stroke-linejoin:round;stroke-miterlimit:4;stroke-dasharray:none;stroke-dashoffset:0;stroke-opacity:0.03921569;paint-order:fill markers stroke" />
      <rect
         style="opacity:1;fill:none;fill-opacity:1;stroke:#000000;stroke-width:0.85000002;stroke-linecap:round;stroke-linejoin:round;stroke-miterlimit:4;stroke-dasharray:none;stroke-dashoffset:0;stroke-opacity:0.03921569;paint-order:fill markers stroke"
         id="rect4856"
         width="25.830492"
         height="29.56739"
         x="-61.94516"
         y="253.76543"
         rx="1.4423118"
         ry="1.4423118"
         transform="rotate(-0.01865124)" />
      <rect
         transform="rotate(-0.01865124)"
         ry="1.4423118"
         rx="1.4423118"
         y="253.76543"
         x="-61.94516"
         height="29.56739"
         width="25.830492"
         id="rect4858"
         style="opacity:1;fill:none;fill-opacity:1;stroke:#000000;stroke-width:1;stroke-linecap:round;stroke-linejoin:round;stroke-miterlimit:4;stroke-dasharray:none;stroke-dashoffset:0;stroke-opacity:0.03921569;paint-order:fill markers stroke" />
    </g>
    <rect
       style="opacity:1;fill:#eec19f;fill-opacity:1;stroke:none;stroke-width:0.362988;stroke-linecap:round;stroke-linejoin:round;stroke-miterlimit:4;stroke-dasharray:none;stroke-dashoffset:0;stroke-opacity:0.14828898;paint-order:fill markers stroke"
       id="rect4587"
       width="25.482771"
       height="29.169365"
       x="-40.456676"
       y="264.37466"
       rx="1.4228958"
       ry="1.4228958"
       transform="rotate(-8.763966)" />
    <path
       style="opacity:1;fill:url(#linearGradient4601);fill-opacity:1;stroke:none;stroke-width:0.362988;stroke-linecap:round;stroke-linejoin:round;stroke-miterlimit:4;stroke-dasharray:none;stroke-dashoffset:0;stroke-opacity:0.14828898;paint-order:fill markers stroke"
       d="M 1.7032208,267.23528 24.0759,263.78621 c 0.779081,-0.1201 1.502975,0.41041 1.623081,1.18949 l 0.780313,5.06099 -25.1866199,3.87489 -0.77887539,-5.05282 c -0.12009262,-0.77908 0.41040377,-1.50297 1.18948369,-1.62308 z"
       id="rect4592"
       inkscape:connector-curvature="0"
       sodipodi:nodetypes="sssccss" />
    <g
       id="g4654"
       transform="matrix(0.89651188,-0.13791133,0.13791133,0.89651188,1.9045534,30.378795)">
      <circle
         r="1.3359921"
         cy="261.90976"
         cx="-38.525646"
         id="path4603"
         style="opacity:1;fill:#ff2911;fill-opacity:1;stroke:none;stroke-width:0.89999998;stroke-linecap:round;stroke-linejoin:round;stroke-miterlimit:4;stroke-dasharray:none;stroke-dashoffset:0;stroke-opacity:1;paint-order:fill markers stroke" />
      <circle
         style="opacity:1;fill:#f89c22;fill-opacity:1;stroke:none;stroke-width:0.89999998;stroke-linecap:round;stroke-linejoin:round;stroke-miterlimit:4;stroke-dasharray:none;stroke-dashoffset:0;stroke-opacity:1;paint-order:fill markers stroke"
         id="circle4605"
         cx="-34.572197"
         cy="261.90976"
         r="1.3359921" />
      <circle
         r="1.3359921"
         cy="261.90976"
         cx="-30.618753"
         id="circle4607"
         style="opacity:1;fill:#2ecc3f;fill-opacity:1;stroke:none;stroke-width:0.89999998;stroke-linecap:round;stroke-linejoin:round;stroke-miterlimit:4;stroke-dasharray:none;stroke-dashoffset:0;stroke-opacity:1;paint-order:fill markers stroke" />
      <path
         id="circle4609"
         transform="matrix(0.26458333,0,0,0.26458333,0,263.13332)"
         d="m -150.60742,-5.2949219 a 5.049419,5.049419 0 0 0 -0.0508,0.6699219 5.049419,5.049419 0 0 0 5.04882,5.05078125 5.049419,5.049419 0 0 0 5.05079,-5.05078125 5.049419,5.049419 0 0 0 -0.0508,-0.6660156 5.049419,5.049419 0 0 1 -5,4.3769531 5.049419,5.049419 0 0 1 -4.99804,-4.3808594 z"
         style="opacity:1;fill:#e61700;fill-opacity:0.80303034;stroke:none;stroke-width:3.40157461;stroke-linecap:round;stroke-linejoin:round;stroke-miterlimit:4;stroke-dasharray:none;stroke-dashoffset:0;stroke-opacity:1;paint-order:fill markers stroke"
         inkscape:connector-curvature="0" />
      <path
         id="circle4614"
         transform="matrix(0.26458333,0,0,0.26458333,0,263.13332)"
         d="m -145.60938,-9.6738281 a 5.049419,5.049419 0 0 0 -5.04882,5.0488281 5.049419,5.049419 0 0 0 0.0586,0.7265625 5.049419,5.049419 0 0 1 4.99023,-4.3320313 5.049419,5.049419 0 0 1 4.99219,4.3242188 5.049419,5.049419 0 0 0 0.0586,-0.71875 5.049419,5.049419 0 0 0 -5.05079,-5.0488281 z"
         style="opacity:1;fill:#ff6b5b;fill-opacity:0.39772728;stroke:none;stroke-width:3.40157461;stroke-linecap:round;stroke-linejoin:round;stroke-miterlimit:4;stroke-dasharray:none;stroke-dashoffset:0;stroke-opacity:1;paint-order:fill markers stroke"
         inkscape:connector-curvature="0" />
      <path
         id="circle4621"
         transform="matrix(0.26458333,0,0,0.26458333,0,263.13332)"
         d="m -125.67188,-5.3183594 a 5.049419,5.049419 0 0 1 -4.99414,4.35937502 5.049419,5.049419 0 0 1 -4.99609,-4.35742182 5.049419,5.049419 0 0 0 -0.0547,0.6914062 5.049419,5.049419 0 0 0 5.05078,5.05078125 5.049419,5.049419 0 0 0 5.04883,-5.05078125 5.049419,5.049419 0 0 0 -0.0547,-0.6933594 z"
         style="opacity:1;fill:#ec8a07;fill-opacity:1;stroke:none;stroke-width:3.40157461;stroke-linecap:round;stroke-linejoin:round;stroke-miterlimit:4;stroke-dasharray:none;stroke-dashoffset:0;stroke-opacity:1;paint-order:fill markers stroke"
         inkscape:connector-curvature="0" />
      <path
         id="circle4627"
         transform="matrix(0.26458333,0,0,0.26458333,0,263.13332)"
         d="m -130.66602,-9.6738281 a 5.049419,5.049419 0 0 0 -5.05078,5.0488281 5.049419,5.049419 0 0 0 0.0449,0.6113281 5.049419,5.049419 0 0 1 5.00586,-4.421875 5.049419,5.049419 0 0 1 5.00586,4.4355469 5.049419,5.049419 0 0 0 0.043,-0.625 5.049419,5.049419 0 0 0 -5.04883,-5.0488281 z"
         style="opacity:1;fill:#f9aa42;fill-opacity:0.85144923;stroke:none;stroke-width:3.40157461;stroke-linecap:round;stroke-linejoin:round;stroke-miterlimit:4;stroke-dasharray:none;stroke-dashoffset:0;stroke-opacity:1;paint-order:fill markers stroke"
         inkscape:connector-curvature="0" />
      <path
         id="circle4632"
         transform="matrix(0.26458333,0,0,0.26458333,0,263.13332)"
         d="m -110.72461,-5.296875 a 5.049419,5.049419 0 0 1 -5,4.3828125 5.049419,5.049419 0 0 1 -5,-4.3789063 5.049419,5.049419 0 0 0 -0.0488,0.6679688 5.049419,5.049419 0 0 0 5.04883,5.05078125 5.049419,5.049419 0 0 0 5.04883,-5.05078125 5.049419,5.049419 0 0 0 -0.0488,-0.671875 z"
         style="opacity:1;fill:#27ae36;fill-opacity:1;stroke:none;stroke-width:3.40157461;stroke-linecap:round;stroke-linejoin:round;stroke-miterlimit:4;stroke-dasharray:none;stroke-dashoffset:0;stroke-opacity:1;paint-order:fill markers stroke"
         inkscape:connector-curvature="0" />
      <path
         id="circle4638"
         transform="matrix(0.26458333,0,0,0.26458333,0,263.13332)"
         d="m -115.72461,-9.6738281 a 5.049419,5.049419 0 0 0 -5.04883,5.0488281 5.049419,5.049419 0 0 0 0.0488,0.671875 5.049419,5.049419 0 0 1 5,-4.3808594 5.049419,5.049419 0 0 1 5,4.3769532 5.049419,5.049419 0 0 0 0.0488,-0.6679688 5.049419,5.049419 0 0 0 -5.04883,-5.0488281 z"
         style="opacity:1;fill:#50d85f;fill-opacity:0.77536232;stroke:none;stroke-width:3.40157461;stroke-linecap:round;stroke-linejoin:round;stroke-miterlimit:4;stroke-dasharray:none;stroke-dashoffset:0;stroke-opacity:1;paint-order:fill markers stroke"
         inkscape:connector-curvature="0" />
    </g>
    <g
       id="g4665"
       transform="matrix(0.97506879,-0.14999582,0.14999582,0.97506879,1.7893226,9.4995078)">
      <rect
         style="opacity:1;fill:none;fill-opacity:0.85144923;stroke:#000000;stroke-width:0.1;stroke-linecap:round;stroke-linejoin:round;stroke-miterlimit:4;stroke-dasharray:none;stroke-dashoffset:0;stroke-opacity:0.06439394;paint-order:fill markers stroke"
         id="rect4656"
         width="10.469816"
         height="2.6029928"
         x="-27.810446"
         y="260.42462"
         rx="1.3014964"
         ry="1.3014964" />
      <rect
         ry="1.3014964"
         rx="1.3014964"
         y="260.42462"
         x="-27.810446"
         height="2.6029928"
         width="10.469816"
         id="rect4658"
         style="opacity:1;fill:none;fill-opacity:0.85144923;stroke:#000000;stroke-width:0.2;stroke-linecap:round;stroke-linejoin:round;stroke-miterlimit:4;stroke-dasharray:none;stroke-dashoffset:0;stroke-opacity:0.06439394;paint-order:fill markers stroke" />
      <rect
         style="opacity:1;fill:none;fill-opacity:0.85144923;stroke:#000000;stroke-width:0.30000001;stroke-linecap:round;stroke-linejoin:round;stroke-miterlimit:4;stroke-dasharray:none;stroke-dashoffset:0;stroke-opacity:0.06439394;paint-order:fill markers stroke"
         id="rect4660"
         width="10.469816"
         height="2.6029928"
         x="-27.810446"
         y="260.42462"
         rx="1.3014964"
         ry="1.3014964" />
    </g>
    <rect
       style="opacity:1;fill:#ffffff;fill-opacity:0.85144923;stroke:none;stroke-width:0.94184434;stroke-linecap:round;stroke-linejoin:round;stroke-miterlimit:4;stroke-dasharray:none;stroke-dashoffset:0;stroke-opacity:1;paint-order:fill markers stroke"
       id="rect4643"
       width="10.328876"
       height="2.5679522"
       x="-27.111881"
       y="266.57999"
       rx="1.2839761"
       ry="1.2839761"
       transform="rotate(-8.7453148)" />
    <path
       style="opacity:1;fill:#cccccc;fill-opacity:0.85144923;stroke:none;stroke-width:0.94184434;stroke-linecap:round;stroke-linejoin:round;stroke-miterlimit:4;stroke-dasharray:none;stroke-dashoffset:0;stroke-opacity:1;paint-order:fill markers stroke"
       d="m 23.906126,268.25672 c -0.09705,0.13233 -0.219446,0.24607 -0.361521,0.33349 -0.142074,0.0874 -0.303833,0.14851 -0.479596,0.17555 l -7.670693,1.17999 c -0.175763,0.027 -0.348405,0.0174 -0.510183,-0.0233 -0.161784,-0.0407 -0.312707,-0.11237 -0.445039,-0.20942 0.391567,0.008 0.816075,0.0476 1.250481,-0.0198 l 6.963841,-1.08024 c 0.463076,-0.0718 0.875752,-0.23577 1.252751,-0.356 z"
       id="rect4667"
       inkscape:connector-curvature="0"
       sodipodi:nodetypes="csssscssc" />
    <rect
       style="opacity:1;fill:#000000;fill-opacity:0.15530306;stroke:none;stroke-width:0.2959615;stroke-linecap:round;stroke-linejoin:round;stroke-miterlimit:4;stroke-dasharray:none;stroke-dashoffset:0;stroke-opacity:0.06439394;paint-order:fill markers stroke"
       id="rect4670"
       width="25.482946"
       height="0.43379739"
       x="-40.368576"
       y="270.92322"
       rx="0"
       ry="0"
       transform="rotate(-8.7453148)" />
    <rect
       ry="0"
       rx="0"
       y="270.6777"
       x="-40.368576"
       height="0.24552155"
       width="25.482946"
       id="rect4672"
       style="opacity:1;fill:#ffffff;fill-opacity:0.15530306;stroke:none;stroke-width:0.2959615;stroke-linecap:round;stroke-linejoin:round;stroke-miterlimit:4;stroke-dasharray:none;stroke-dashoffset:0;stroke-opacity:0.06439394;paint-order:fill markers stroke"
       transform="rotate(-8.7453148)" />
    <g
       id="g5024"
       transform="matrix(1.2108083,0,0,1.2108083,-3.2809388,-60.27754)">
      <g
         transform="matrix(0.97506879,-0.14999582,0.14999582,0.97506879,1.7893226,9.4995078)"
         style="opacity:0.325"
         id="g4780">
        <path
           style="fill:none;stroke:#000000;stroke-width:0.15000001;stroke-miterlimit:4;stroke-dasharray:none;stroke-opacity:0.03921569"
           d="m -28.3354,268.83855 -2.372163,0.0215 -1.388569,1.51864 -0.249998,-0.0883 c -0.540967,-0.19244 -1.139068,-0.0523 -1.539589,0.3586 l -0.925899,0.93606 c -0.06243,0.0624 -0.07816,0.15109 -0.04696,0.22908 l 0.348983,0.78011 -0.478507,1.30543 0.311649,1.18041 1.415154,5.37329 c 0.161241,0.61899 0.535722,1.15999 1.061083,1.53451 0,0 1.716706,1.21239 3.407226,2.30995 0.150847,0.0987 0.306395,0.16629 0.472846,0.16629 0.166449,0 0.32257,-0.0676 0.473418,-0.16629 1.903782,-1.2484 3.407222,-2.31505 3.407222,-2.31505 0.520163,-0.37451 0.894744,-0.91549 1.055994,-1.53448 l 1.404407,-5.37329 0.307123,-1.18607 -0.48416,-1.30545 0.333144,-0.74886 c 0.04161,-0.0987 0.02079,-0.20809 -0.05204,-0.28619 l -0.910633,-0.92082 c -0.400521,-0.40051 -0.993075,-0.54075 -1.528839,-0.35349 l -0.25509,0.0883 -1.394224,-1.50848 -2.356327,-0.015 z m 0.06279,2.31729 c 0.161241,-0.004 0.35916,0.0417 0.35916,0.0417 0.06243,0.015 0.171635,0.0471 0.239252,0.068 l 0.972847,0.31163 c 0.06761,0.0215 0.176714,0.0261 0.244343,0.015 l 0.021,-0.004 c 0.06761,-0.0107 0.176713,-0.0313 0.244342,-0.0469 l 1.160065,-0.22906 c 0.06763,-0.0107 0.125003,-0.0214 0.125003,-0.0214 h 0.01026 c 0.0052,-0.004 0.04661,0.0413 0.08823,0.0932 l 0.759608,0.95194 c 0.04682,0.0572 0.114609,0.14572 0.151019,0.20294 l 0.587666,0.86821 c 0.04161,0.0572 0.09378,0.15644 0.125002,0.21889 l 0.05204,0.15044 c 0.01026,0.0678 0.01521,0.18236 0.01521,0.25 0,0 -1.21e-4,0.0257 -0.021,0.0933 -0.0312,0.12494 -0.124661,0.23949 -0.114245,0.2551 -0.04682,0.052 -0.119474,0.13522 -0.166299,0.18729 l -1.721711,1.83222 c -0.04682,0.0521 -0.06277,0.14573 -0.03677,0.20809 l 0.35916,0.84784 c 0.026,0.0624 0.0311,0.17165 0.0052,0.23417 l -0.09898,0.26526 c -0.07803,0.22367 -0.218282,0.42155 -0.405542,0.57241 l -0.348412,0.28562 c -0.05202,0.0416 -0.145725,0.0572 -0.208152,0.0259 l -1.108031,-0.5249 c -0.06243,-0.0259 -0.156119,-0.0889 -0.208152,-0.13565 l -0.790717,-0.71268 c -0.114438,-0.10394 -0.124509,-0.28556 -0.01521,-0.39479 l 1.659496,-1.12386 c 0.05722,-0.0416 0.0776,-0.1198 0.04638,-0.18216 l -0.733034,-1.37329 c -0.03641,-0.0572 -0.03675,-0.16094 -0.01071,-0.22341 l 0.08881,-0.20316 c 0.026,-0.0677 0.103872,-0.13522 0.166299,-0.16115 l 2.138,-0.81109 c 0.06761,-0.0259 0.06195,-0.0525 -0.0056,-0.0576 l -1.378366,-0.13008 c -0.06761,-0.004 -0.176713,1.3e-4 -0.244343,0.0215 l -1.22737,0.34333 c -0.06761,0.015 -0.10938,0.0885 -0.09898,0.15602 l 0.42138,2.3354 c 0.01565,0.0676 0.0105,0.16651 -0.0052,0.21323 -0.01565,0.0467 -0.08338,0.0993 -0.151018,0.11486 l -0.795813,0.18215 c -0.06761,0.015 -0.176713,0.015 -0.244344,0 l -0.8535,-0.18215 c -0.06761,-0.015 -0.134861,-0.0628 -0.15044,-0.11486 -0.01565,-0.0521 -0.01543,-0.14552 -0.0052,-0.21323 l 0.426474,-2.3354 c 0.0105,-0.0678 -0.03135,-0.13523 -0.09898,-0.15602 l -1.22737,-0.34333 c -0.06763,-0.015 -0.177292,-0.0261 -0.244911,-0.0215 l -1.378387,0.13008 c -0.06761,0.004 -0.06751,0.0317 -0.0052,0.0576 l 2.137999,0.80091 c 0.06243,0.0259 0.140283,0.0987 0.166299,0.16116 l 0.08823,0.20316 c 0.026,0.0624 0.021,0.16093 -0.01026,0.2234 l -0.727938,1.37329 c -0.0312,0.0624 -0.01093,0.14572 0.04638,0.18215 l 1.659494,1.11822 c 0.104044,0.11443 0.0986,0.29131 -0.01585,0.39537 l -0.790158,0.71266 c -0.05202,0.0467 -0.145725,0.10907 -0.208152,0.14015 l -1.102933,0.52544 c -0.06243,0.0313 -0.156119,0.015 -0.208152,-0.0259 l -0.348416,-0.28112 c -0.187257,-0.15087 -0.327407,-0.34815 -0.410634,-0.57182 l -0.09898,-0.26528 c -0.026,-0.0678 -0.021,-0.17166 0.0052,-0.23414 l 0.359164,-0.84787 c 0.026,-0.0624 0.01005,-0.15624 -0.03677,-0.2081 l -1.721716,-1.83086 c -0.0468,-0.0467 -0.124681,-0.13523 -0.166277,-0.1873 0,0 -0.08859,-0.11444 -0.125002,-0.23925 -0.02079,-0.0728 -0.021,-0.0939 -0.021,-0.0939 -0.0052,-0.0676 0.0054,-0.18173 0.01586,-0.24943 l 0.05204,-0.15108 c 0.0312,-0.0624 0.08859,-0.16115 0.125003,-0.21833 l 0.587669,-0.86879 c 0.04161,-0.0572 0.109401,-0.15108 0.151019,-0.20294 l 0.759045,-0.95191 c 0.04161,-0.0521 0.0836,-0.0933 0.08881,-0.0933 h 0.01026 c 0,0 0.05737,0.004 0.125003,0.0214 l 1.170242,0.21833 c 0.06763,0.0107 0.176713,0.0365 0.244343,0.0469 l 0.021,0.004 c 0.06761,0.0107 0.176714,0.004 0.244343,-0.015 l 0.972847,-0.31163 c 0.06243,-0.0215 0.171633,-0.0523 0.23925,-0.068 0,0 0.197351,-0.0417 0.358599,-0.0417 z m -0.06279,7.24827 h 0.08315 0.08315 c 0.02079,0 0.08859,0.0215 0.151019,0.0469 l 0.675903,0.2811 c 0.06243,0.0259 0.166663,0.0722 0.229072,0.10351 l 1.019793,0.52037 c 0.06243,0.0313 0.0674,0.0885 0.01026,0.13008 l -0.899883,0.63971 c -0.05722,0.0416 -0.145939,0.1093 -0.197971,0.15602 l -0.400455,0.34841 c -0.05202,0.0469 -0.135202,0.11936 -0.187213,0.1663 l -0.39536,0.34333 c -0.05202,0.0467 -0.135204,0.0467 -0.187215,0 l -0.384612,-0.34333 c -0.05202,-0.0467 -0.135202,-0.11937 -0.187213,-0.1663 l -0.40045,-0.34332 c -0.05202,-0.0469 -0.140753,-0.11443 -0.197972,-0.15622 l -0.899887,-0.63461 c -0.05722,-0.0416 -0.05222,-0.0987 0.01026,-0.13008 l 1.019791,-0.53055 c 0.06243,-0.0313 0.166663,-0.0776 0.229074,-0.10351 l 0.6759,-0.2811 c 0.06243,-0.0259 0.13021,-0.0469 0.151019,-0.0469 z"
           id="path4768"
           inkscape:connector-curvature="0" />
        <path
           inkscape:connector-curvature="0"
           id="path4770"
           d="m -28.3354,268.83855 -2.372163,0.0215 -1.388569,1.51864 -0.249998,-0.0883 c -0.540967,-0.19244 -1.139068,-0.0523 -1.539589,0.3586 l -0.925899,0.93606 c -0.06243,0.0624 -0.07816,0.15109 -0.04696,0.22908 l 0.348983,0.78011 -0.478507,1.30543 0.311649,1.18041 1.415154,5.37329 c 0.161241,0.61899 0.535722,1.15999 1.061083,1.53451 0,0 1.716706,1.21239 3.407226,2.30995 0.150847,0.0987 0.306395,0.16629 0.472846,0.16629 0.166449,0 0.32257,-0.0676 0.473418,-0.16629 1.903782,-1.2484 3.407222,-2.31505 3.407222,-2.31505 0.520163,-0.37451 0.894744,-0.91549 1.055994,-1.53448 l 1.404407,-5.37329 0.307123,-1.18607 -0.48416,-1.30545 0.333144,-0.74886 c 0.04161,-0.0987 0.02079,-0.20809 -0.05204,-0.28619 l -0.910633,-0.92082 c -0.400521,-0.40051 -0.993075,-0.54075 -1.528839,-0.35349 l -0.25509,0.0883 -1.394224,-1.50848 -2.356327,-0.015 z m 0.06279,2.31729 c 0.161241,-0.004 0.35916,0.0417 0.35916,0.0417 0.06243,0.015 0.171635,0.0471 0.239252,0.068 l 0.972847,0.31163 c 0.06761,0.0215 0.176714,0.0261 0.244343,0.015 l 0.021,-0.004 c 0.06761,-0.0107 0.176713,-0.0313 0.244342,-0.0469 l 1.160065,-0.22906 c 0.06763,-0.0107 0.125003,-0.0214 0.125003,-0.0214 h 0.01026 c 0.0052,-0.004 0.04661,0.0413 0.08823,0.0932 l 0.759608,0.95194 c 0.04682,0.0572 0.114609,0.14572 0.151019,0.20294 l 0.587666,0.86821 c 0.04161,0.0572 0.09378,0.15644 0.125002,0.21889 l 0.05204,0.15044 c 0.01026,0.0678 0.01521,0.18236 0.01521,0.25 0,0 -1.21e-4,0.0257 -0.021,0.0933 -0.0312,0.12494 -0.124661,0.23949 -0.114245,0.2551 -0.04682,0.052 -0.119474,0.13522 -0.166299,0.18729 l -1.721711,1.83222 c -0.04682,0.0521 -0.06277,0.14573 -0.03677,0.20809 l 0.35916,0.84784 c 0.026,0.0624 0.0311,0.17165 0.0052,0.23417 l -0.09898,0.26526 c -0.07803,0.22367 -0.218282,0.42155 -0.405542,0.57241 l -0.348412,0.28562 c -0.05202,0.0416 -0.145725,0.0572 -0.208152,0.0259 l -1.108031,-0.5249 c -0.06243,-0.0259 -0.156119,-0.0889 -0.208152,-0.13565 l -0.790717,-0.71268 c -0.114438,-0.10394 -0.124509,-0.28556 -0.01521,-0.39479 l 1.659496,-1.12386 c 0.05722,-0.0416 0.0776,-0.1198 0.04638,-0.18216 l -0.733034,-1.37329 c -0.03641,-0.0572 -0.03675,-0.16094 -0.01071,-0.22341 l 0.08881,-0.20316 c 0.026,-0.0677 0.103872,-0.13522 0.166299,-0.16115 l 2.138,-0.81109 c 0.06761,-0.0259 0.06195,-0.0525 -0.0056,-0.0576 l -1.378366,-0.13008 c -0.06761,-0.004 -0.176713,1.3e-4 -0.244343,0.0215 l -1.22737,0.34333 c -0.06761,0.015 -0.10938,0.0885 -0.09898,0.15602 l 0.42138,2.3354 c 0.01565,0.0676 0.0105,0.16651 -0.0052,0.21323 -0.01565,0.0467 -0.08338,0.0993 -0.151018,0.11486 l -0.795813,0.18215 c -0.06761,0.015 -0.176713,0.015 -0.244344,0 l -0.8535,-0.18215 c -0.06761,-0.015 -0.134861,-0.0628 -0.15044,-0.11486 -0.01565,-0.0521 -0.01543,-0.14552 -0.0052,-0.21323 l 0.426474,-2.3354 c 0.0105,-0.0678 -0.03135,-0.13523 -0.09898,-0.15602 l -1.22737,-0.34333 c -0.06763,-0.015 -0.177292,-0.0261 -0.244911,-0.0215 l -1.378387,0.13008 c -0.06761,0.004 -0.06751,0.0317 -0.0052,0.0576 l 2.137999,0.80091 c 0.06243,0.0259 0.140283,0.0987 0.166299,0.16116 l 0.08823,0.20316 c 0.026,0.0624 0.021,0.16093 -0.01026,0.2234 l -0.727938,1.37329 c -0.0312,0.0624 -0.01093,0.14572 0.04638,0.18215 l 1.659494,1.11822 c 0.104044,0.11443 0.0986,0.29131 -0.01585,0.39537 l -0.790158,0.71266 c -0.05202,0.0467 -0.145725,0.10907 -0.208152,0.14015 l -1.102933,0.52544 c -0.06243,0.0313 -0.156119,0.015 -0.208152,-0.0259 l -0.348416,-0.28112 c -0.187257,-0.15087 -0.327407,-0.34815 -0.410634,-0.57182 l -0.09898,-0.26528 c -0.026,-0.0678 -0.021,-0.17166 0.0052,-0.23414 l 0.359164,-0.84787 c 0.026,-0.0624 0.01005,-0.15624 -0.03677,-0.2081 l -1.721716,-1.83086 c -0.0468,-0.0467 -0.124681,-0.13523 -0.166277,-0.1873 0,0 -0.08859,-0.11444 -0.125002,-0.23925 -0.02079,-0.0728 -0.021,-0.0939 -0.021,-0.0939 -0.0052,-0.0676 0.0054,-0.18173 0.01586,-0.24943 l 0.05204,-0.15108 c 0.0312,-0.0624 0.08859,-0.16115 0.125003,-0.21833 l 0.587669,-0.86879 c 0.04161,-0.0572 0.109401,-0.15108 0.151019,-0.20294 l 0.759045,-0.95191 c 0.04161,-0.0521 0.0836,-0.0933 0.08881,-0.0933 h 0.01026 c 0,0 0.05737,0.004 0.125003,0.0214 l 1.170242,0.21833 c 0.06763,0.0107 0.176713,0.0365 0.244343,0.0469 l 0.021,0.004 c 0.06761,0.0107 0.176714,0.004 0.244343,-0.015 l 0.972847,-0.31163 c 0.06243,-0.0215 0.171633,-0.0523 0.23925,-0.068 0,0 0.197351,-0.0417 0.358599,-0.0417 z m -0.06279,7.24827 h 0.08315 0.08315 c 0.02079,0 0.08859,0.0215 0.151019,0.0469 l 0.675903,0.2811 c 0.06243,0.0259 0.166663,0.0722 0.229072,0.10351 l 1.019793,0.52037 c 0.06243,0.0313 0.0674,0.0885 0.01026,0.13008 l -0.899883,0.63971 c -0.05722,0.0416 -0.145939,0.1093 -0.197971,0.15602 l -0.400455,0.34841 c -0.05202,0.0469 -0.135202,0.11936 -0.187213,0.1663 l -0.39536,0.34333 c -0.05202,0.0467 -0.135204,0.0467 -0.187215,0 l -0.384612,-0.34333 c -0.05202,-0.0467 -0.135202,-0.11937 -0.187213,-0.1663 l -0.40045,-0.34332 c -0.05202,-0.0469 -0.140753,-0.11443 -0.197972,-0.15622 l -0.899887,-0.63461 c -0.05722,-0.0416 -0.05222,-0.0987 0.01026,-0.13008 l 1.019791,-0.53055 c 0.06243,-0.0313 0.166663,-0.0776 0.229074,-0.10351 l 0.6759,-0.2811 c 0.06243,-0.0259 0.13021,-0.0469 0.151019,-0.0469 z"
           style="fill:none;stroke:#000000;stroke-width:0.30000001;stroke-miterlimit:4;stroke-dasharray:none;stroke-opacity:0.03921569" />
        <path
           style="fill:none;stroke:#000000;stroke-width:0.44999999;stroke-miterlimit:4;stroke-dasharray:none;stroke-opacity:0.03921569"
           d="m -28.3354,268.83855 -2.372163,0.0215 -1.388569,1.51864 -0.249998,-0.0883 c -0.540967,-0.19244 -1.139068,-0.0523 -1.539589,0.3586 l -0.925899,0.93606 c -0.06243,0.0624 -0.07816,0.15109 -0.04696,0.22908 l 0.348983,0.78011 -0.478507,1.30543 0.311649,1.18041 1.415154,5.37329 c 0.161241,0.61899 0.535722,1.15999 1.061083,1.53451 0,0 1.716706,1.21239 3.407226,2.30995 0.150847,0.0987 0.306395,0.16629 0.472846,0.16629 0.166449,0 0.32257,-0.0676 0.473418,-0.16629 1.903782,-1.2484 3.407222,-2.31505 3.407222,-2.31505 0.520163,-0.37451 0.894744,-0.91549 1.055994,-1.53448 l 1.404407,-5.37329 0.307123,-1.18607 -0.48416,-1.30545 0.333144,-0.74886 c 0.04161,-0.0987 0.02079,-0.20809 -0.05204,-0.28619 l -0.910633,-0.92082 c -0.400521,-0.40051 -0.993075,-0.54075 -1.528839,-0.35349 l -0.25509,0.0883 -1.394224,-1.50848 -2.356327,-0.015 z m 0.06279,2.31729 c 0.161241,-0.004 0.35916,0.0417 0.35916,0.0417 0.06243,0.015 0.171635,0.0471 0.239252,0.068 l 0.972847,0.31163 c 0.06761,0.0215 0.176714,0.0261 0.244343,0.015 l 0.021,-0.004 c 0.06761,-0.0107 0.176713,-0.0313 0.244342,-0.0469 l 1.160065,-0.22906 c 0.06763,-0.0107 0.125003,-0.0214 0.125003,-0.0214 h 0.01026 c 0.0052,-0.004 0.04661,0.0413 0.08823,0.0932 l 0.759608,0.95194 c 0.04682,0.0572 0.114609,0.14572 0.151019,0.20294 l 0.587666,0.86821 c 0.04161,0.0572 0.09378,0.15644 0.125002,0.21889 l 0.05204,0.15044 c 0.01026,0.0678 0.01521,0.18236 0.01521,0.25 0,0 -1.21e-4,0.0257 -0.021,0.0933 -0.0312,0.12494 -0.124661,0.23949 -0.114245,0.2551 -0.04682,0.052 -0.119474,0.13522 -0.166299,0.18729 l -1.721711,1.83222 c -0.04682,0.0521 -0.06277,0.14573 -0.03677,0.20809 l 0.35916,0.84784 c 0.026,0.0624 0.0311,0.17165 0.0052,0.23417 l -0.09898,0.26526 c -0.07803,0.22367 -0.218282,0.42155 -0.405542,0.57241 l -0.348412,0.28562 c -0.05202,0.0416 -0.145725,0.0572 -0.208152,0.0259 l -1.108031,-0.5249 c -0.06243,-0.0259 -0.156119,-0.0889 -0.208152,-0.13565 l -0.790717,-0.71268 c -0.114438,-0.10394 -0.124509,-0.28556 -0.01521,-0.39479 l 1.659496,-1.12386 c 0.05722,-0.0416 0.0776,-0.1198 0.04638,-0.18216 l -0.733034,-1.37329 c -0.03641,-0.0572 -0.03675,-0.16094 -0.01071,-0.22341 l 0.08881,-0.20316 c 0.026,-0.0677 0.103872,-0.13522 0.166299,-0.16115 l 2.138,-0.81109 c 0.06761,-0.0259 0.06195,-0.0525 -0.0056,-0.0576 l -1.378366,-0.13008 c -0.06761,-0.004 -0.176713,1.3e-4 -0.244343,0.0215 l -1.22737,0.34333 c -0.06761,0.015 -0.10938,0.0885 -0.09898,0.15602 l 0.42138,2.3354 c 0.01565,0.0676 0.0105,0.16651 -0.0052,0.21323 -0.01565,0.0467 -0.08338,0.0993 -0.151018,0.11486 l -0.795813,0.18215 c -0.06761,0.015 -0.176713,0.015 -0.244344,0 l -0.8535,-0.18215 c -0.06761,-0.015 -0.134861,-0.0628 -0.15044,-0.11486 -0.01565,-0.0521 -0.01543,-0.14552 -0.0052,-0.21323 l 0.426474,-2.3354 c 0.0105,-0.0678 -0.03135,-0.13523 -0.09898,-0.15602 l -1.22737,-0.34333 c -0.06763,-0.015 -0.177292,-0.0261 -0.244911,-0.0215 l -1.378387,0.13008 c -0.06761,0.004 -0.06751,0.0317 -0.0052,0.0576 l 2.137999,0.80091 c 0.06243,0.0259 0.140283,0.0987 0.166299,0.16116 l 0.08823,0.20316 c 0.026,0.0624 0.021,0.16093 -0.01026,0.2234 l -0.727938,1.37329 c -0.0312,0.0624 -0.01093,0.14572 0.04638,0.18215 l 1.659494,1.11822 c 0.104044,0.11443 0.0986,0.29131 -0.01585,0.39537 l -0.790158,0.71266 c -0.05202,0.0467 -0.145725,0.10907 -0.208152,0.14015 l -1.102933,0.52544 c -0.06243,0.0313 -0.156119,0.015 -0.208152,-0.0259 l -0.348416,-0.28112 c -0.187257,-0.15087 -0.327407,-0.34815 -0.410634,-0.57182 l -0.09898,-0.26528 c -0.026,-0.0678 -0.021,-0.17166 0.0052,-0.23414 l 0.359164,-0.84787 c 0.026,-0.0624 0.01005,-0.15624 -0.03677,-0.2081 l -1.721716,-1.83086 c -0.0468,-0.0467 -0.124681,-0.13523 -0.166277,-0.1873 0,0 -0.08859,-0.11444 -0.125002,-0.23925 -0.02079,-0.0728 -0.021,-0.0939 -0.021,-0.0939 -0.0052,-0.0676 0.0054,-0.18173 0.01586,-0.24943 l 0.05204,-0.15108 c 0.0312,-0.0624 0.08859,-0.16115 0.125003,-0.21833 l 0.587669,-0.86879 c 0.04161,-0.0572 0.109401,-0.15108 0.151019,-0.20294 l 0.759045,-0.95191 c 0.04161,-0.0521 0.0836,-0.0933 0.08881,-0.0933 h 0.01026 c 0,0 0.05737,0.004 0.125003,0.0214 l 1.170242,0.21833 c 0.06763,0.0107 0.176713,0.0365 0.244343,0.0469 l 0.021,0.004 c 0.06761,0.0107 0.176714,0.004 0.244343,-0.015 l 0.972847,-0.31163 c 0.06243,-0.0215 0.171633,-0.0523 0.23925,-0.068 0,0 0.197351,-0.0417 0.358599,-0.0417 z m -0.06279,7.24827 h 0.08315 0.08315 c 0.02079,0 0.08859,0.0215 0.151019,0.0469 l 0.675903,0.2811 c 0.06243,0.0259 0.166663,0.0722 0.229072,0.10351 l 1.019793,0.52037 c 0.06243,0.0313 0.0674,0.0885 0.01026,0.13008 l -0.899883,0.63971 c -0.05722,0.0416 -0.145939,0.1093 -0.197971,0.15602 l -0.400455,0.34841 c -0.05202,0.0469 -0.135202,0.11936 -0.187213,0.1663 l -0.39536,0.34333 c -0.05202,0.0467 -0.135204,0.0467 -0.187215,0 l -0.384612,-0.34333 c -0.05202,-0.0467 -0.135202,-0.11937 -0.187213,-0.1663 l -0.40045,-0.34332 c -0.05202,-0.0469 -0.140753,-0.11443 -0.197972,-0.15622 l -0.899887,-0.63461 c -0.05722,-0.0416 -0.05222,-0.0987 0.01026,-0.13008 l 1.019791,-0.53055 c 0.06243,-0.0313 0.166663,-0.0776 0.229074,-0.10351 l 0.6759,-0.2811 c 0.06243,-0.0259 0.13021,-0.0469 0.151019,-0.0469 z"
           id="path4772"
           inkscape:connector-curvature="0" />
        <path
           inkscape:connector-curvature="0"
           id="path4774"
           d="m -28.3354,268.83855 -2.372163,0.0215 -1.388569,1.51864 -0.249998,-0.0883 c -0.540967,-0.19244 -1.139068,-0.0523 -1.539589,0.3586 l -0.925899,0.93606 c -0.06243,0.0624 -0.07816,0.15109 -0.04696,0.22908 l 0.348983,0.78011 -0.478507,1.30543 0.311649,1.18041 1.415154,5.37329 c 0.161241,0.61899 0.535722,1.15999 1.061083,1.53451 0,0 1.716706,1.21239 3.407226,2.30995 0.150847,0.0987 0.306395,0.16629 0.472846,0.16629 0.166449,0 0.32257,-0.0676 0.473418,-0.16629 1.903782,-1.2484 3.407222,-2.31505 3.407222,-2.31505 0.520163,-0.37451 0.894744,-0.91549 1.055994,-1.53448 l 1.404407,-5.37329 0.307123,-1.18607 -0.48416,-1.30545 0.333144,-0.74886 c 0.04161,-0.0987 0.02079,-0.20809 -0.05204,-0.28619 l -0.910633,-0.92082 c -0.400521,-0.40051 -0.993075,-0.54075 -1.528839,-0.35349 l -0.25509,0.0883 -1.394224,-1.50848 -2.356327,-0.015 z m 0.06279,2.31729 c 0.161241,-0.004 0.35916,0.0417 0.35916,0.0417 0.06243,0.015 0.171635,0.0471 0.239252,0.068 l 0.972847,0.31163 c 0.06761,0.0215 0.176714,0.0261 0.244343,0.015 l 0.021,-0.004 c 0.06761,-0.0107 0.176713,-0.0313 0.244342,-0.0469 l 1.160065,-0.22906 c 0.06763,-0.0107 0.125003,-0.0214 0.125003,-0.0214 h 0.01026 c 0.0052,-0.004 0.04661,0.0413 0.08823,0.0932 l 0.759608,0.95194 c 0.04682,0.0572 0.114609,0.14572 0.151019,0.20294 l 0.587666,0.86821 c 0.04161,0.0572 0.09378,0.15644 0.125002,0.21889 l 0.05204,0.15044 c 0.01026,0.0678 0.01521,0.18236 0.01521,0.25 0,0 -1.21e-4,0.0257 -0.021,0.0933 -0.0312,0.12494 -0.124661,0.23949 -0.114245,0.2551 -0.04682,0.052 -0.119474,0.13522 -0.166299,0.18729 l -1.721711,1.83222 c -0.04682,0.0521 -0.06277,0.14573 -0.03677,0.20809 l 0.35916,0.84784 c 0.026,0.0624 0.0311,0.17165 0.0052,0.23417 l -0.09898,0.26526 c -0.07803,0.22367 -0.218282,0.42155 -0.405542,0.57241 l -0.348412,0.28562 c -0.05202,0.0416 -0.145725,0.0572 -0.208152,0.0259 l -1.108031,-0.5249 c -0.06243,-0.0259 -0.156119,-0.0889 -0.208152,-0.13565 l -0.790717,-0.71268 c -0.114438,-0.10394 -0.124509,-0.28556 -0.01521,-0.39479 l 1.659496,-1.12386 c 0.05722,-0.0416 0.0776,-0.1198 0.04638,-0.18216 l -0.733034,-1.37329 c -0.03641,-0.0572 -0.03675,-0.16094 -0.01071,-0.22341 l 0.08881,-0.20316 c 0.026,-0.0677 0.103872,-0.13522 0.166299,-0.16115 l 2.138,-0.81109 c 0.06761,-0.0259 0.06195,-0.0525 -0.0056,-0.0576 l -1.378366,-0.13008 c -0.06761,-0.004 -0.176713,1.3e-4 -0.244343,0.0215 l -1.22737,0.34333 c -0.06761,0.015 -0.10938,0.0885 -0.09898,0.15602 l 0.42138,2.3354 c 0.01565,0.0676 0.0105,0.16651 -0.0052,0.21323 -0.01565,0.0467 -0.08338,0.0993 -0.151018,0.11486 l -0.795813,0.18215 c -0.06761,0.015 -0.176713,0.015 -0.244344,0 l -0.8535,-0.18215 c -0.06761,-0.015 -0.134861,-0.0628 -0.15044,-0.11486 -0.01565,-0.0521 -0.01543,-0.14552 -0.0052,-0.21323 l 0.426474,-2.3354 c 0.0105,-0.0678 -0.03135,-0.13523 -0.09898,-0.15602 l -1.22737,-0.34333 c -0.06763,-0.015 -0.177292,-0.0261 -0.244911,-0.0215 l -1.378387,0.13008 c -0.06761,0.004 -0.06751,0.0317 -0.0052,0.0576 l 2.137999,0.80091 c 0.06243,0.0259 0.140283,0.0987 0.166299,0.16116 l 0.08823,0.20316 c 0.026,0.0624 0.021,0.16093 -0.01026,0.2234 l -0.727938,1.37329 c -0.0312,0.0624 -0.01093,0.14572 0.04638,0.18215 l 1.659494,1.11822 c 0.104044,0.11443 0.0986,0.29131 -0.01585,0.39537 l -0.790158,0.71266 c -0.05202,0.0467 -0.145725,0.10907 -0.208152,0.14015 l -1.102933,0.52544 c -0.06243,0.0313 -0.156119,0.015 -0.208152,-0.0259 l -0.348416,-0.28112 c -0.187257,-0.15087 -0.327407,-0.34815 -0.410634,-0.57182 l -0.09898,-0.26528 c -0.026,-0.0678 -0.021,-0.17166 0.0052,-0.23414 l 0.359164,-0.84787 c 0.026,-0.0624 0.01005,-0.15624 -0.03677,-0.2081 l -1.721716,-1.83086 c -0.0468,-0.0467 -0.124681,-0.13523 -0.166277,-0.1873 0,0 -0.08859,-0.11444 -0.125002,-0.23925 -0.02079,-0.0728 -0.021,-0.0939 -0.021,-0.0939 -0.0052,-0.0676 0.0054,-0.18173 0.01586,-0.24943 l 0.05204,-0.15108 c 0.0312,-0.0624 0.08859,-0.16115 0.125003,-0.21833 l 0.587669,-0.86879 c 0.04161,-0.0572 0.109401,-0.15108 0.151019,-0.20294 l 0.759045,-0.95191 c 0.04161,-0.0521 0.0836,-0.0933 0.08881,-0.0933 h 0.01026 c 0,0 0.05737,0.004 0.125003,0.0214 l 1.170242,0.21833 c 0.06763,0.0107 0.176713,0.0365 0.244343,0.0469 l 0.021,0.004 c 0.06761,0.0107 0.176714,0.004 0.244343,-0.015 l 0.972847,-0.31163 c 0.06243,-0.0215 0.171633,-0.0523 0.23925,-0.068 0,0 0.197351,-0.0417 0.358599,-0.0417 z m -0.06279,7.24827 h 0.08315 0.08315 c 0.02079,0 0.08859,0.0215 0.151019,0.0469 l 0.675903,0.2811 c 0.06243,0.0259 0.166663,0.0722 0.229072,0.10351 l 1.019793,0.52037 c 0.06243,0.0313 0.0674,0.0885 0.01026,0.13008 l -0.899883,0.63971 c -0.05722,0.0416 -0.145939,0.1093 -0.197971,0.15602 l -0.400455,0.34841 c -0.05202,0.0469 -0.135202,0.11936 -0.187213,0.1663 l -0.39536,0.34333 c -0.05202,0.0467 -0.135204,0.0467 -0.187215,0 l -0.384612,-0.34333 c -0.05202,-0.0467 -0.135202,-0.11937 -0.187213,-0.1663 l -0.40045,-0.34332 c -0.05202,-0.0469 -0.140753,-0.11443 -0.197972,-0.15622 l -0.899887,-0.63461 c -0.05722,-0.0416 -0.05222,-0.0987 0.01026,-0.13008 l 1.019791,-0.53055 c 0.06243,-0.0313 0.166663,-0.0776 0.229074,-0.10351 l 0.6759,-0.2811 c 0.06243,-0.0259 0.13021,-0.0469 0.151019,-0.0469 z"
           style="fill:none;stroke:#000000;stroke-width:0.60000002;stroke-miterlimit:4;stroke-dasharray:none;stroke-opacity:0.03921569" />
      </g>
      <path
         style="fill:#f9f9f9;fill-opacity:1;stroke-width:0.05131574"
         d="m 14.485017,275.88578 -2.309797,0.37678 -1.126161,1.68906 -0.25701,-0.0486 c -0.556345,-0.1065 -1.118514,0.11985 -1.4474162,0.58059 l -0.7624102,1.0516 c -0.051514,0.0702 -0.053548,0.15905 -0.011428,0.23041 l 0.4572957,0.70832 -0.2707682,1.34466 0.4809358,1.10423 2.1858431,5.02706 c 0.250067,0.57937 0.69636,1.05072 1.264799,1.3371 0,0 1.85576,0.92466 3.668763,1.74129 0.161891,0.0736 0.323699,0.11618 0.486,0.0912 0.162299,-0.025 0.304388,-0.1143 0.436672,-0.23316 1.669064,-1.50283 2.975028,-2.7684 2.975028,-2.7684 0.45102,-0.4432 0.735118,-1.02687 0.799502,-1.65462 l 0.563422,-5.44998 0.12156,-1.20257 -0.667901,-1.20028 0.212513,-0.78016 c 0.02577,-0.10248 -0.01094,-0.20602 -0.09367,-0.27125 l -1.026049,-0.76127 c -0.450611,-0.33045 -1.049427,-0.37831 -1.543746,-0.11536 l -0.235485,0.12436 -1.58573,-1.26174 -2.299831,0.33881 z m 0.408809,2.2501 c 0.156621,-0.0281 0.35646,-0.0132 0.35646,-0.0132 0.06312,0.005 0.174421,0.0202 0.243487,0.0304 l 0.995336,0.15794 c 0.06915,0.0108 0.176223,-10e-4 0.240501,-0.022 l 0.01988,-0.007 c 0.06432,-0.0206 0.167612,-0.057 0.231215,-0.0824 l 1.096785,-0.39736 c 0.06434,-0.0206 0.118677,-0.0396 0.118677,-0.0396 l 0.01,-0.002 c 0.0045,-0.005 0.05164,0.0333 0.10001,0.0776 l 0.883457,0.81427 c 0.05423,0.0488 0.133609,0.12489 0.177694,0.17523 l 0.703243,0.75841 c 0.04915,0.0495 0.114907,0.13848 0.154718,0.19469 l 0.07331,0.13888 c 0.02017,0.0646 0.04218,0.17553 0.05233,0.24149 0,0 0.0037,0.0251 -0.0065,0.0941 -0.01168,0.1265 -0.08563,0.25222 -0.07313,0.26588 -0.03785,0.0577 -0.09621,0.14976 -0.13406,0.20756 l -1.403962,2.04479 c -0.03784,0.0578 -0.03935,0.15151 -0.0046,0.20842 l 0.477378,0.77283 c 0.03471,0.0569 0.05607,0.1627 0.0402,0.22755 l -0.05673,0.27349 c -0.04254,0.2298 -0.149609,0.44378 -0.309572,0.61897 l -0.296884,0.33076 c -0.04448,0.0484 -0.133512,0.0776 -0.199077,0.0565 l -1.15914,-0.34562 c -0.06476,-0.0159 -0.165561,-0.0633 -0.223309,-0.10104 l -0.877903,-0.57631 c -0.127175,-0.0842 -0.164237,-0.25977 -0.07405,-0.38267 l 1.449548,-1.34475 c 0.04955,-0.0491 0.0577,-0.12846 0.0179,-0.18458 l -0.920747,-1.2291 c -0.04408,-0.0503 -0.05997,-0.15142 -0.04395,-0.21623 l 0.05612,-0.21142 c 0.0152,-0.0699 0.081,-0.14743 0.137982,-0.18208 l 1.963037,-1.11156 c 0.06204,-0.0354 0.05253,-0.0605 -0.0141,-0.0553 l -1.363513,0.0799 c -0.06652,0.006 -0.172288,0.0266 -0.235026,0.0576 l -1.145272,0.51887 c -0.06367,0.0248 -0.09338,0.1027 -0.07311,0.16697 l 0.761175,2.21397 c 0.0254,0.0636 0.03521,0.16079 0.02691,0.2087 -0.0083,0.0479 -0.06641,0.10933 -0.130025,0.13465 l -0.74865,0.29697 c -0.06367,0.0248 -0.170058,0.0411 -0.238252,0.0367 l -0.859543,-0.0496 c -0.06818,-0.004 -0.140919,-0.041 -0.163918,-0.0894 -0.02308,-0.0485 -0.03687,-0.13958 -0.03705,-0.20714 l 0.06554,-2.34114 c 6.8e-5,-0.0677 -0.05085,-0.12716 -0.119915,-0.13729 l -1.248268,-0.15067 c -0.06819,-0.004 -0.176787,10e-4 -0.24203,0.0158 l -1.324511,0.33358 c -0.06532,0.014 -0.06107,0.041 0.0036,0.057 l 2.204829,0.46025 c 0.06476,0.0159 0.15159,0.0752 0.186326,0.1322 l 0.116504,0.18486 c 0.03471,0.0569 0.04462,0.15377 0.02351,0.21937 l -0.503802,1.44824 c -0.02106,0.0655 0.0112,0.14372 0.07255,0.17065 l 1.785849,0.84142 c 0.118614,0.096 0.139837,0.26926 0.04385,0.38789 l -0.663562,0.81342 c -0.04372,0.0533 -0.125732,0.12821 -0.181941,0.16788 l -0.996621,0.67777 c -0.05618,0.0399 -0.149977,0.038 -0.206848,0.006 l -0.381896,-0.22185 c -0.205218,-0.11902 -0.371466,-0.29036 -0.486167,-0.49597 L 12.4998,285.0152 c -0.03552,-0.0622 -0.04622,-0.16423 -0.03005,-0.22908 l 0.223033,-0.88061 c 0.01599,-0.0647 -0.01364,-0.15385 -0.06707,-0.1974 L 10.6723,282.18115 c -0.05264,-0.0385 -0.141856,-0.11316 -0.190225,-0.15769 0,0 -0.103547,-0.0983 -0.157772,-0.21453 -0.03119,-0.0679 -0.03456,-0.0884 -0.03456,-0.0884 -0.01521,-0.0651 -0.02199,-0.17801 -0.02195,-0.24559 l 0.02808,-0.15512 c 0.02106,-0.0655 0.06221,-0.17042 0.08914,-0.23164 l 0.442703,-0.93528 c 0.03199,-0.062 0.08401,-0.16372 0.116813,-0.22053 l 0.597339,-1.04203 c 0.03276,-0.057 0.06752,-0.10352 0.0726,-0.1043 l 0.01,-0.002 c 0,0 0.05654,-0.005 0.125097,0.002 l 1.173815,0.0374 c 0.06755,2.8e-4 0.177782,0.009 0.245286,0.009 l 0.02108,7.5e-4 c 0.06753,2.9e-4 0.172909,-0.0226 0.236002,-0.0513 l 0.901849,-0.44978 c 0.05765,-0.0303 0.159509,-0.0767 0.223086,-0.10219 0,0 0.186176,-0.0703 0.343404,-0.0944 z m 1.025985,7.07698 0.08108,-0.0125 0.08108,-0.0125 c 0.02027,-0.003 0.08961,0.008 0.154289,0.0231 l 0.701216,0.17271 c 0.06476,0.0159 0.173337,0.0454 0.238887,0.0666 l 1.072421,0.35443 c 0.06557,0.0212 0.07899,0.0762 0.02952,0.1253 l -0.781494,0.75874 c -0.04955,0.0491 -0.125906,0.12847 -0.169633,0.18183 l -0.338211,0.39979 c -0.04369,0.0535 -0.113928,0.13666 -0.157601,0.19023 l -0.334006,0.39407 c -0.04372,0.0533 -0.124828,0.0658 -0.182547,0.0281 l -0.426521,-0.27708 c -0.05773,-0.0377 -0.149737,-0.0961 -0.20749,-0.13408 l -0.441963,-0.27469 c -0.05776,-0.0379 -0.154408,-0.0905 -0.216469,-0.12263 l -0.97264,-0.48381 c -0.06203,-0.032 -0.06572,-0.0884 -0.0095,-0.12838 l 0.914787,-0.67028 c 0.05618,-0.0399 0.150868,-0.10067 0.207836,-0.13529 l 0.616886,-0.37548 c 0.05699,-0.0346 0.119928,-0.0653 0.140219,-0.0684 z"
         id="path4531-3"
         inkscape:connector-curvature="0" />
    </g>
    <ellipse
       transform="matrix(0.98789546,-0.15512109,0.14902231,0.98883383,0,0)"
       cy="289.87817"
       cx="-17.194273"
       id="circle4952"
       style="opacity:0.097;fill:#343434;fill-opacity:0.20454544;stroke:none;stroke-width:0.71346086;stroke-linecap:round;stroke-linejoin:round;stroke-miterlimit:4;stroke-dasharray:none;stroke-dashoffset:0;stroke-opacity:0.03831416;paint-order:fill markers stroke"
       rx="7.1054735"
       ry="7.2459717" />
    <ellipse
       style="opacity:0.097;fill:#343434;fill-opacity:0.20454544;stroke:none;stroke-width:0.71346086;stroke-linecap:round;stroke-linejoin:round;stroke-miterlimit:4;stroke-dasharray:none;stroke-dashoffset:0;stroke-opacity:0.03831416;paint-order:fill markers stroke"
       id="circle4956"
       cx="-17.308052"
       cy="289.91547"
       transform="matrix(0.98789546,-0.15512109,0.14902231,0.98883383,0,0)"
       rx="7.1054735"
       ry="7.2459717" />
    <ellipse
       transform="matrix(0.98789546,-0.15512109,0.14902231,0.98883383,0,0)"
       cy="289.95279"
       cx="-17.421831"
       id="circle4958"
       style="opacity:0.097;fill:#343434;fill-opacity:0.20454544;stroke:none;stroke-width:0.71346086;stroke-linecap:round;stroke-linejoin:round;stroke-miterlimit:4;stroke-dasharray:none;stroke-dashoffset:0;stroke-opacity:0.03831416;paint-order:fill markers stroke"
       rx="7.1054735"
       ry="7.2459717" />
    <path
       style="opacity:0.097;fill:#343434;fill-opacity:0.20454544;stroke:none;stroke-width:2.69651937;stroke-linecap:round;stroke-linejoin:round;stroke-miterlimit:4;stroke-dasharray:none;stroke-dashoffset:0;stroke-opacity:0.03831416;paint-order:fill markers stroke"
       d="M 98.523438 72.386719 A 26.842332 27.399092 7.6959904e-06 0 0 93.171875 72.673828 A 26.842332 27.399092 7.6959904e-06 0 0 70.722656 103.91992 A 26.842332 27.399092 7.6959904e-06 0 0 75.921875 116.3418 L 107.79297 111.42773 C 110.73753 110.97379 112.74301 108.23753 112.28906 105.29297 L 107.53906 74.484375 A 26.842332 27.399092 7.6959904e-06 0 0 98.523438 72.386719 z "
       transform="matrix(0.26458333,0,0,0.26458333,0,263.13332)"
       id="circle4962" />
    <path
       style="opacity:0.097;fill:#343434;fill-opacity:0.20454544;stroke:none;stroke-width:2.69651937;stroke-linecap:round;stroke-linejoin:round;stroke-miterlimit:4;stroke-dasharray:none;stroke-dashoffset:0;stroke-opacity:0.03831416;paint-order:fill markers stroke"
       d="M 98.322266 73.003906 A 26.842332 27.399092 7.6959904e-06 0 0 92.96875 73.292969 A 26.842332 27.399092 7.6959904e-06 0 0 70.519531 104.53906 A 26.842332 27.399092 7.6959904e-06 0 0 75.308594 116.43555 L 107.79297 111.42773 C 110.73753 110.97379 112.74301 108.23753 112.28906 105.29297 L 107.65625 75.238281 A 26.842332 27.399092 7.6959904e-06 0 0 98.322266 73.003906 z "
       transform="matrix(0.26458333,0,0,0.26458333,0,263.13332)"
       id="circle4964" />
    <path
       style="opacity:0.097;fill:#343434;fill-opacity:0.20454544;stroke:none;stroke-width:2.69651937;stroke-linecap:round;stroke-linejoin:round;stroke-miterlimit:4;stroke-dasharray:none;stroke-dashoffset:0;stroke-opacity:0.03831416;paint-order:fill markers stroke"
       d="M 97.816406 73.210938 A 26.842332 27.399092 7.6959904e-06 0 0 92.464844 73.498047 A 26.842332 27.399092 7.6959904e-06 0 0 70.015625 104.74414 A 26.842332 27.399092 7.6959904e-06 0 0 74.722656 116.52539 L 107.79297 111.42773 C 110.73753 110.97379 112.74301 108.23753 112.28906 105.29297 L 107.72656 75.691406 A 26.842332 27.399092 7.6959904e-06 0 0 97.816406 73.210938 z "
       transform="matrix(0.26458333,0,0,0.26458333,0,263.13332)"
       id="circle4966" />
    <circle
       style="opacity:1;fill:url(#linearGradient1615);fill-opacity:1;stroke:none;stroke-width:0.71132672;stroke-linecap:round;stroke-linejoin:round;stroke-miterlimit:4;stroke-dasharray:none;stroke-dashoffset:0;stroke-opacity:0.03831416;paint-order:fill markers stroke"
       id="path1600"
       cx="-18.006689"
       cy="290.01056"
       r="7.1539154"
       transform="rotate(-8.7453148)" />
    <path
       style="opacity:1;fill:#f54c4c;fill-opacity:0.91954023;stroke:none;stroke-width:0.32987183;stroke-linecap:round;stroke-linejoin:round;stroke-miterlimit:4;stroke-dasharray:none;stroke-dashoffset:0;stroke-opacity:1;paint-order:fill markers stroke"
       d="m 29.560473,284.52125 -4.34119,3.77884 2.48096,1.66773 z m -4.667817,4.26474 -1.859913,5.44609 4.340883,-3.77838 z"
       id="path882"
       inkscape:connector-curvature="0" />
    <circle
       style="opacity:1;fill:#ffffff;fill-opacity:1;stroke:none;stroke-width:1.14051151;stroke-linecap:round;stroke-linejoin:round;stroke-miterlimit:4;stroke-dasharray:none;stroke-dashoffset:0;stroke-opacity:0.03921569;paint-order:fill markers stroke"
       id="path4868"
       cx="131.11771"
       cy="259.30389"
       r="1.8909974"
       transform="rotate(21.63117)" />
  </g>
</svg>
