<?xml version="1.0" encoding="UTF-8" standalone="no"?>
<svg
   xmlns:dc="http://purl.org/dc/elements/1.1/"
   xmlns:cc="http://creativecommons.org/ns#"
   xmlns:rdf="http://www.w3.org/1999/02/22-rdf-syntax-ns#"
   xmlns:svg="http://www.w3.org/2000/svg"
   xmlns="http://www.w3.org/2000/svg"
   xmlns:xlink="http://www.w3.org/1999/xlink"
   xmlns:sodipodi="http://sodipodi.sourceforge.net/DTD/sodipodi-0.dtd"
   xmlns:inkscape="http://www.inkscape.org/namespaces/inkscape"
   height="128"
   width="128"
   version="1.1"
   id="svg444"
   sodipodi:docname="codeblocks.svg"
   inkscape:version="0.92.2 2405546, 2018-03-11">
  <metadata
     id="metadata450">
    <rdf:RDF>
      <cc:Work
         rdf:about="">
        <dc:format>image/svg+xml</dc:format>
        <dc:type
           rdf:resource="http://purl.org/dc/dcmitype/StillImage" />
        <dc:title></dc:title>
      </cc:Work>
    </rdf:RDF>
  </metadata>
  <defs
     id="defs448">
    <linearGradient
       inkscape:collect="always"
       id="linearGradient966">
      <stop
         style="stop-color:#f19233;stop-opacity:1;"
         offset="0"
         id="stop962" />
      <stop
         style="stop-color:#33b2f1;stop-opacity:0.7718631"
         offset="1"
         id="stop964" />
    </linearGradient>
    <linearGradient
       inkscape:collect="always"
       xlink:href="#linearGradient966"
       id="linearGradient968"
       x1="15.168008"
       y1="32.946896"
       x2="101.56163"
       y2="90.857742"
       gradientUnits="userSpaceOnUse" />
  </defs>
  <sodipodi:namedview
     pagecolor="#ffffff"
     bordercolor="#666666"
     borderopacity="1"
     objecttolerance="10"
     gridtolerance="10"
     guidetolerance="10"
     inkscape:pageopacity="0"
     inkscape:pageshadow="2"
     inkscape:window-width="1920"
     inkscape:window-height="1031"
     id="namedview446"
     showgrid="false"
     inkscape:zoom="5.2149125"
     inkscape:cx="35.418006"
     inkscape:cy="82.24351"
     inkscape:window-x="0"
     inkscape:window-y="26"
     inkscape:window-maximized="1"
     inkscape:current-layer="svg444" />
  <linearGradient
     id="a"
     gradientUnits="userSpaceOnUse"
     x1="23.42582167407"
     x2="23.0660823924"
     xlink:href="#b"
     y1="18.30644666985"
     y2="18.6661837706"
     gradientTransform="matrix(2.7789894,0,0,2.7789894,-3.068558,0.45374287)" />
  <linearGradient
     id="b">
    <stop
       offset="0"
       stop-color="#fff"
       id="stop3" />
    <stop
       offset="1"
       stop-color="#fff"
       stop-opacity="0"
       id="stop5" />
  </linearGradient>
  <linearGradient
     id="c"
     gradientUnits="userSpaceOnUse"
     x1="21.82600389068"
     x2="15.48754689411"
     xlink:href="#b"
     y1="20.09389311534"
     y2="26.83266813693"
     gradientTransform="matrix(2.7789894,0,0,2.7789894,-3.068558,0.45374287)" />
  <linearGradient
     id="d"
     gradientUnits="userSpaceOnUse"
     x1="22.37630489068"
     x2="16.03784789411"
     xlink:href="#b"
     y1="20.50433311534"
     y2="27.24310813693"
     gradientTransform="matrix(2.7789894,0,0,2.7789894,-3.068558,0.45374287)" />
  <linearGradient
     id="e"
     gradientUnits="userSpaceOnUse"
     x1="15.46443376357"
     x2="14.75675512091"
     xlink:href="#b"
     y1="28.2611408071"
     y2="28.07241768174"
     gradientTransform="matrix(2.7789894,0,0,2.7789894,-3.068558,0.45374287)" />
  <linearGradient
     id="f"
     gradientTransform="matrix(0.4551186,-0.90179262,0.90179262,0.4551186,-852.91511,-363.9558)"
     gradientUnits="userSpaceOnUse"
     x1="40.749557"
     x2="30.932852"
     xlink:href="#b"
     y1="1001.4427"
     y2="1010.2888" />
  <linearGradient
     id="g"
     gradientTransform="matrix(0.4551186,-0.90179262,0.90179262,0.4551186,-843.60639,-347.53073)"
     gradientUnits="userSpaceOnUse"
     x1="40.749557"
     x2="30.932852"
     xlink:href="#b"
     y1="1001.4427"
     y2="1010.2888" />
  <filter
     id="h"
     color-interpolation-filters="sRGB"
     height="1.113"
     width="1.127924"
     x="-.063962"
     y="-.0565">
    <feGaussianBlur
       stdDeviation="2.1746765"
       id="feGaussianBlur13" />
  </filter>
  <linearGradient
     id="i"
     gradientUnits="userSpaceOnUse"
     x1="372.06885"
     x2="387.12045"
     y1="947.00079"
     y2="947.00079">
    <stop
       offset="0"
       stop-color="#828398"
       id="stop16" />
    <stop
       offset=".05013223"
       stop-color="#4f4e50"
       id="stop18" />
    <stop
       offset=".14024317"
       stop-color="#e8e5eb"
       id="stop20" />
    <stop
       offset=".23170672"
       stop-color="#e9d3d9"
       stop-opacity=".941176"
       id="stop22" />
    <stop
       offset=".76219523"
       stop-color="#c4c2c7"
       id="stop24" />
    <stop
       offset=".86999255"
       stop-color="#f4f1fa"
       id="stop26" />
    <stop
       offset=".93410021"
       stop-color="#b8b8bf"
       id="stop28" />
    <stop
       offset="1"
       stop-color="#c1bfcc"
       id="stop30" />
  </linearGradient>
  <linearGradient
     id="j"
     gradientUnits="userSpaceOnUse"
     x1="368.21414"
     x2="394.8298"
     y1="1018.9549"
     y2="1018.5878">
    <stop
       offset="0"
       stop-color="#130804"
       id="stop33" />
    <stop
       offset=".16970721"
       stop-color="#0f0704"
       id="stop35" />
    <stop
       offset=".23766069"
       stop-color="#323033"
       id="stop37" />
    <stop
       offset=".71842611"
       stop-color="#323033"
       id="stop39" />
    <stop
       offset=".84821641"
       stop-color="#141215"
       id="stop41" />
    <stop
       offset="1"
       stop-color="#00010e"
       id="stop43" />
  </linearGradient>
  <linearGradient
     id="k"
     gradientUnits="userSpaceOnUse"
     x1="367.84705"
     x2="372.25238"
     y1="904.78284"
     y2="917.9989">
    <stop
       offset="0"
       stop-color="#2d2d39"
       id="stop46" />
    <stop
       offset="1"
       stop-color="#acabb0"
       id="stop48" />
  </linearGradient>
  <linearGradient
     id="l"
     gradientUnits="userSpaceOnUse"
     x1="389.50668"
     x2="414.05841"
     y1="902.21301"
     y2="908.79163">
    <stop
       offset="0"
       stop-color="#59585d"
       id="stop51" />
    <stop
       offset=".19257796"
       stop-color="#010103"
       id="stop53" />
    <stop
       offset=".54332471"
       stop-color="#5b5b5d"
       id="stop55" />
    <stop
       offset="1"
       stop-color="#171719"
       id="stop57" />
  </linearGradient>
  <linearGradient
     id="m"
     gradientUnits="userSpaceOnUse"
     x1="-353.81839"
     x2="-353.81839"
     y1="903.40106"
     y2="883.11084">
    <stop
       offset="0"
       stop-color="#202024"
       id="stop60" />
    <stop
       offset=".3368493"
       stop-color="#919095"
       id="stop62" />
    <stop
       offset=".53881687"
       stop-color="#4e4d51"
       id="stop64" />
    <stop
       offset=".69465232"
       stop-color="#cfcfd1"
       id="stop66" />
    <stop
       offset="1"
       stop-color="#69696b"
       id="stop68" />
  </linearGradient>
  <linearGradient
     id="n"
     gradientUnits="userSpaceOnUse"
     x1="338.84512"
     x2="338.84512"
     y1="903.66016"
     y2="883.85742">
    <stop
       offset="0"
       stop-color="#181820"
       id="stop71" />
    <stop
       offset=".03511503"
       stop-color="#86858a"
       id="stop73" />
    <stop
       offset=".14091089"
       stop-color="#7a797e"
       id="stop75" />
    <stop
       offset=".19626147"
       stop-color="#2f2e33"
       id="stop77" />
    <stop
       offset=".33304867"
       stop-color="#414045"
       id="stop79" />
    <stop
       offset=".43142435"
       stop-color="#545358"
       id="stop81" />
    <stop
       offset=".56074804"
       stop-color="#ebeaf0"
       id="stop83" />
    <stop
       offset=".69158942"
       stop-color="#abaaaf"
       id="stop85" />
    <stop
       offset=".85981399"
       stop-color="#d7d6dc"
       id="stop87" />
    <stop
       offset="1"
       stop-color="#66656a"
       id="stop89" />
  </linearGradient>
  <linearGradient
     id="o"
     gradientUnits="userSpaceOnUse"
     x1="367.84705"
     x2="415.57172"
     y1="-67.365196"
     y2="-50.845123">
    <stop
       offset="0"
       stop-color="#c7c6cb"
       id="stop92" />
    <stop
       offset=".54332471"
       stop-color="#fcfcfd"
       id="stop94" />
    <stop
       offset="1"
       stop-color="#d8d8da"
       id="stop96" />
  </linearGradient>
  <filter
     id="p"
     color-interpolation-filters="sRGB"
     height="1.272905"
     width="1.039886"
     x="-.019943"
     y="-.136453">
    <feGaussianBlur
       stdDeviation=".19828681"
       id="feGaussianBlur99" />
  </filter>
  <radialGradient
     id="q"
     cx="23.896"
     cy="3.99"
     gradientTransform="matrix(0,8.3696538,-11.047885,0,106.37671,-200.07712)"
     gradientUnits="userSpaceOnUse"
     r="20.396999">
    <stop
       offset="0"
       stop-color="#fff"
       id="stop102" />
    <stop
       offset=".26238"
       stop-color="#ddd"
       id="stop104" />
    <stop
       offset=".66094"
       stop-color="#abacae"
       id="stop106" />
    <stop
       offset="1"
       stop-color="#89898b"
       id="stop108" />
  </radialGradient>
  <filter
     id="r"
     color-interpolation-filters="sRGB"
     height="1.072"
     width="1.072"
     x="-.036"
     y="-.036">
    <feGaussianBlur
       stdDeviation=".60996385"
       id="feGaussianBlur111" />
  </filter>
  <path
     inkscape:connector-curvature="0"
     id="path114"
     style="fill:none;stroke:#292929;stroke-width:1.98107898;stroke-linecap:round;stroke-linejoin:round;stroke-opacity:0.15969603;filter:url(#r)"
     d="m 43.853058,23.462015 c 0,11.229591 -9.102537,20.332129 -20.332128,20.332129 -11.229591,0 -20.3321284,-9.102538 -20.3321284,-20.332129 0,-11.22959 9.1025374,-20.3321277 20.3321284,-20.3321277 11.229591,0 20.332128,9.1025377 20.332128,20.3321277 z"
     transform="matrix(2.7789894,0,0,2.7789894,-3.068558,-4.640677)" />
  <path
     inkscape:connector-curvature="0"
     style="fill:url(#q);stroke-width:2.89757729"
     id="path116"
     d="m 62.295857,1.1596689 c -32.774503,0 -59.4003469,26.6258421 -59.4003469,59.4003451 0,32.774503 26.6258439,59.400346 59.4003469,59.400346 32.774504,0 59.400343,-26.625843 59.400343,-59.400346 0,-32.774503 -26.625839,-59.4003451 -59.400343,-59.4003451 z" />
  <path
     style="fill:url(#linearGradient968);stroke-width:2.89757729;fill-opacity:1"
     inkscape:connector-curvature="0"
     id="path118"
     d="m 62.295857,1.1596689 c -32.774503,0 -59.4003469,26.6258421 -59.4003469,59.4003451 0,32.774503 26.6258439,59.400346 59.4003469,59.400346 32.774504,0 59.400343,-26.625843 59.400343,-59.400346 0,-32.774503 -26.625839,-59.4003451 -59.400343,-59.4003451 z" />
  <path
     style="fill:none;stroke:#ffffff;stroke-width:5.50539732;stroke-linecap:round;stroke-linejoin:round"
     inkscape:connector-curvature="0"
     id="path120"
     d="m 118.79863,60.560014 c 0,31.206914 -25.295858,56.502766 -56.502773,56.502766 -31.206914,0 -56.5027692,-25.295852 -56.5027692,-56.502766 0,-31.206912 25.2958552,-56.5027674 56.5027692,-56.5027674 31.206915,0 56.502773,25.2958554 56.502773,56.5027674 z" />
  <path
     style="fill:none;stroke:#fbfbfb;stroke-width:0.57951653;stroke-linecap:round;stroke-linejoin:round"
     inkscape:connector-curvature="0"
     id="path122"
     d="m 62.295857,1.1599587 c -32.774503,0 -59.4003469,26.6252633 -59.4003469,59.4003443 0,32.775084 26.6252629,59.400347 59.4003469,59.400347 32.775084,0 59.400343,-26.625263 59.400343,-59.400347 0,-32.775081 -26.625839,-59.4003443 -59.400343,-59.4003443 z" />
  <g
     style="fill:#ffffff;stroke:#ffffff;stroke-width:0.5"
     id="g308"
     transform="matrix(1.0101301,0,0,1.0101301,14.012951,-946.96426)">
    <path
       style="opacity:0.75"
       inkscape:connector-curvature="0"
       id="path294"
       d="m 47.677799,983.15959 c 3.416729,8.2961 6.61934,16.65646 11.107903,24.63091 l -0.433906,0.1679 c -4.506046,-7.8452 -7.808491,-16.23738 -11.107903,-24.63099 z" />
    <path
       style="opacity:0.75"
       inkscape:connector-curvature="0"
       id="path296"
       d="m 49.631086,982.45748 c 4.753866,7.8494 9.746789,15.68286 12.882287,23.64012 -0.144636,0.056 -0.289276,0.1119 -0.433906,0.1678 -3.333811,-8.02774 -8.126509,-15.83108 -12.882287,-23.64011 0.144636,-0.0559 0.289271,-0.11188 0.433906,-0.16781 z" />
    <path
       style="opacity:0.75"
       inkscape:connector-curvature="0"
       id="path298"
       d="m 64.154192,1010.079 7.369906,11.4633 -0.387216,0.258 -7.36991,-11.4634 z" />
    <path
       style="opacity:0.75"
       inkscape:connector-curvature="0"
       id="path300"
       d="m 61.021073,1010.8403 5.171749,13.6544 -0.433911,0.1677 -5.171744,-13.6543 z" />
    <path
       style="opacity:0.75"
       inkscape:connector-curvature="0"
       id="path302"
       d="m 58.962127,1007.4494 4.069805,7.9717 -0.3796,0.2346 -4.069786,-7.9716 z" />
    <path
       style="opacity:0.75"
       inkscape:connector-curvature="0"
       id="path304"
       d="m 62.026723,1004.9205 3.672019,8.1625 -0.390704,0.2156 -3.672001,-8.1625 z" />
    <path
       style="opacity:0.75"
       inkscape:connector-curvature="0"
       id="path306"
       d="m 47.214063,983.46316 h 0.224441 c 0.191158,-1.3825 1.493663,-1.52153 2.106376,-0.89552 l 0.134358,-0.1258 c -0.887101,-0.76101 -2.353402,-0.28904 -2.465175,1.02132 z" />
  </g>
  <path
     inkscape:connector-curvature="0"
     style="opacity:0.5;fill:url(#f);fill-rule:evenodd;stroke-width:2.77898932"
     id="path320"
     d="M 71.279605,66.33764 62.450227,45.981951 c 0.207174,-0.393071 0.414837,-0.463769 0.89364,-0.456707 4.69993,7.597126 8.562441,13.94847 12.34623,22.258496 z" />
  <g
     id="g1473"
     transform="matrix(1.4303484,0,0,1.4303484,-26.524467,-30.533015)">
    <path
       d="m 64.331305,56.262871 -7.772525,-5.801072 0.140544,-0.188307 7.772525,5.801073 z"
       id="path220"
       inkscape:connector-curvature="0"
       style="fill:#ffffff;stroke-width:2.77898932" />
    <path
       d="m 59.475047,50.702796 c 0.64863,-0.648628 1.614306,-0.862713 2.476282,-0.548976 0.861976,0.313737 1.464119,1.098454 1.544062,2.012264 0.07995,0.913804 -0.376778,1.79117 -1.171183,2.24982 z"
       id="path222"
       style="opacity:0.65;fill:url(#a);stroke-width:2.77898932"
       inkscape:connector-curvature="0" />
  </g>
  <g
     id="g440"
     transform="matrix(1.1310918,0,0,1.0987727,5.0021413,-1039.0353)">
    <path
       style="opacity:0.3;fill-rule:evenodd;filter:url(#h)"
       inkscape:connector-curvature="0"
       id="path404"
       d="m 53.505859,964.14734 c -8.581472,0.005 -14.724789,2.81747 -22.666015,7.40234 -2.316875,6.03406 -5.057496,7.02371 -11.128906,7.00977 l -5.310547,3.0664 c 1.583969,4.45698 2.176422,5.69428 5.90625,10.22852 l 5.310547,-3.06641 c 2.282091,-3.83675 5.283909,-7.81154 11.714843,-5.03125 l -0.0039,-0.01 c 5.714028,0.059 7.194103,5.10965 7.203125,5.14062 v 0.006 h 0.002 c 8e-6,0 0.0019,0.002 0.002,0.002 0.0061,0.002 0.515917,0.17507 0.759766,0.25977 l 8.929687,15.4667 -0.0078,0.012 c -0.30448,0.5273 -0.09534,1.1335 0.109375,1.6289 l 10.621094,21.502 14.140625,24.8145 c 0,0 0.993705,2.4668 1.550781,3.4316 0.557106,0.9653 2.565782,0.3223 3.851562,0.033 l 10.81836,-6.7421 c 0,0 1.275791,-1.2156 0.359375,-2.8027 -0.916416,-1.5873 -2.390625,-3.0704 -2.390625,-3.0704 l -11.671875,-17.8634 -7.445313,-10.5391 -11.173828,-14.7499 c -0.178199,-0.1782 -0.444531,-0.2861 -0.757812,-0.334 l 0.03125,-0.01 -9.796875,-14.9414 0.05273,-0.71875 -0.335937,-0.50586 -0.02539,-0.004 c -0.02547,-0.033 -1.94617,-2.52362 -2.648438,-4.69726 -0.706955,-2.1881 0.360454,-3.97894 4.16211,-6.17383 3.801655,-2.19488 13.324898,-1.75826 19.849609,0.65625 0.408978,0.16568 0.693728,0.19037 0.859375,0.10547 l 0.0039,0.0215 c 0.532958,-0.30771 0.367626,-0.96926 0.04297,-1.68945 l 0.0098,-0.0469 -0.03906,-0.0234 c -0.0024,-0.005 -0.0034,-0.0104 -0.0059,-0.0156 l -0.002,0.008 -2.261719,-1.42579 c 0.377522,0.11882 0.755063,0.23601 1.134766,0.3711 0.399057,0.17221 0.642,0.20036 0.785156,0.13476 l 0.0039,0.01 c 0.0078,-0.005 0.01202,-0.0127 0.01953,-0.0176 0.02382,-0.0136 0.04143,-0.0328 0.05859,-0.0527 0.450137,-0.38741 0.242225,-1.34489 -0.123047,-2.13868 l 0.002,-0.004 -0.0039,-0.002 c -0.0023,-0.005 -0.0035,-0.0106 -0.0059,-0.0156 l -0.0039,0.01 c -2.127146,-1.36207 -4.899676,-2.2578 -6.875,-2.80079 -5.306624,-1.25549 -9.710659,-1.83239 -13.611329,-1.83007 z m 2.507813,0.52929 c 0.169964,0.002 0.354972,0.0157 0.527344,0.0195 -0.311025,-0.007 -0.620542,-0.0119 -0.923828,-0.0117 0.134876,-9e-5 0.260101,-0.009 0.396484,-0.008 z m -1.761719,0.0371 c -0.26905,0.01 -0.541256,0.0155 -0.804687,0.0312 0.26308,-0.0157 0.536002,-0.0213 0.804687,-0.0312 z m 3.710938,0.0391 c 0.321608,0.0175 0.646208,0.0358 0.976562,0.0605 -0.33062,-0.0248 -0.654701,-0.043 -0.976562,-0.0605 z m -6.003907,0.11914 c -0.184488,0.0193 -0.374616,0.0324 -0.55664,0.0547 0.181868,-0.0222 0.372312,-0.0354 0.55664,-0.0547 z m 8.490235,0.0801 c 0.347832,0.0361 0.692904,0.0696 1.050781,0.11329 -0.358231,-0.0438 -0.702613,-0.0772 -1.050781,-0.11329 z m 2.736328,0.34766 c 0.352139,0.0524 0.694603,0.0969 1.056641,0.15625 -0.36271,-0.0595 -0.703864,-0.10379 -1.056641,-0.15625 z m -15.646485,0.34961 c -0.194057,0.0495 -0.383898,0.10904 -0.576171,0.16211 0.192259,-0.0531 0.382128,-0.11259 0.576171,-0.16211 z m 11.884766,0.51562 c 0.07634,0.002 0.15046,0.009 0.226563,0.0117 -0.45044,-0.0148 -0.905804,-0.0164 -1.363282,-0.01 0.380509,-0.006 0.761205,-0.0112 1.136719,-0.002 z m -1.507812,0.002 c 0.04331,-10e-4 0.08565,10e-4 0.128906,0 -0.549319,0.0128 -1.102649,0.0399 -1.658203,0.0879 -1.700047,0.14701 -3.108592,0.50161 -4.267578,1.00586 -0.614025,0.26715 -1.138923,0.58718 -1.619141,0.92969 0.480511,-0.34284 1.004621,-0.66233 1.619141,-0.92969 1.159008,-0.50426 2.56753,-0.85885 4.267578,-1.00586 0.512213,-0.0443 1.022747,-0.0735 1.529297,-0.0879 z m -12.236328,0.0215 c -0.212235,0.0683 -0.421973,0.14422 -0.632813,0.2168 0.210429,-0.0724 0.420995,-0.14861 0.632813,-0.2168 z m 14.357421,0.006 c 0.4069,0.0184 0.810324,0.0427 1.208985,0.0762 -0.39843,-0.0338 -0.802607,-0.0575 -1.208985,-0.0762 z m 1.603516,0.11328 c 0.391176,0.0377 0.777103,0.0807 1.158203,0.13086 -0.380745,-0.0503 -0.767668,-0.0929 -1.158203,-0.13086 z m 1.486328,0.17578 c 0.450092,0.0636 0.891372,0.13326 1.324219,0.21094 -0.431612,-0.0776 -0.875847,-0.14736 -1.324219,-0.21094 z m 1.367188,0.21875 c 0.351143,0.0635 0.683298,0.13418 1.021484,0.20508 -0.336492,-0.0706 -0.672438,-0.1419 -1.021484,-0.20508 z m -20.582032,0.11329 c -0.241864,0.0927 -0.483491,0.18899 -0.724609,0.2871 0.240735,-0.0979 0.48313,-0.19459 0.724609,-0.2871 z m 22.511719,0.30273 c 0.661712,0.15557 1.288659,0.31221 1.882813,0.48242 -0.590329,-0.16863 -1.227372,-0.32832 -1.882813,-0.48242 z m -24.310547,0.43945 c -0.2348,0.10336 -0.469929,0.20617 -0.705078,0.31446 0.234705,-0.10808 0.470721,-0.21129 0.705078,-0.31446 z m 26.789063,0.2168 c 0.60039,0.1818 1.1469,0.35777 1.654297,0.53516 -0.503524,-0.17512 -1.062282,-0.35631 -1.654297,-0.53516 z m -28.685547,0.66602 c -0.182813,0.0899 -0.365168,0.17686 -0.548828,0.26953 0.183439,-0.0926 0.366234,-0.17976 0.548828,-0.26953 z m 30.757812,0.0137 c 0.513391,0.18568 0.95358,0.35323 1.339844,0.50976 -0.3848,-0.15474 -0.837033,-0.3287 -1.339844,-0.50976 z m -11.291015,0.33398 c 0.323701,-0.008 0.724489,0.003 1.089844,0.004 -0.451045,-10e-4 -0.911836,-0.005 -1.298829,0.006 0.0781,-0.002 0.128124,-0.008 0.208985,-0.01 z m -9.931641,0.006 c -0.134675,0.12365 -0.280405,0.24162 -0.402344,0.37109 0.121954,-0.12954 0.267646,-0.24738 0.402344,-0.37109 z m 11.730469,0 c 0.461655,0.009 0.96688,0.0399 1.476562,0.0684 -0.505456,-0.0286 -1.018244,-0.0585 -1.476562,-0.0684 z m -2.433594,0.0234 c -0.382385,0.0157 -0.766427,0.0318 -1.0625,0.0527 0.307336,-0.0227 0.657176,-0.0356 1.0625,-0.0527 z m 4.816406,0.0976 c 0.78084,0.0612 1.589186,0.1452 2.445313,0.26563 0.449375,0.0632 0.905542,0.13607 1.371094,0.21875 -0.464859,-0.0828 -0.922341,-0.15535 -1.371094,-0.21875 -0.853583,-0.12059 -1.66643,-0.20386 -2.445313,-0.26563 z m 8.671875,0.13672 c 0.485124,0.20024 0.886831,0.37515 1.101563,0.47461 l -0.0039,0.008 c -0.156599,-0.0749 -0.426634,-0.20635 -1.097657,-0.48243 z m -33.572265,0.0254 c -0.930089,0.48324 -1.871469,0.99216 -2.84375,1.54102 0.971782,-0.5486 1.914147,-1.05796 2.84375,-1.54102 z m 17.236328,0.12305 c -0.210838,0.0943 -0.455055,0.20638 -0.669922,0.33008 0.242394,-0.13954 0.444682,-0.23125 0.669922,-0.33008 z m 11.535156,0.20899 c 0.459697,0.0823 0.924209,0.17585 1.396484,0.27929 -0.471845,-0.1035 -0.937177,-0.19682 -1.396484,-0.27929 z m 1.427734,0.28515 c 0.477272,0.10497 0.958367,0.22288 1.445313,0.35156 -0.486017,-0.1285 -0.96892,-0.24662 -1.445313,-0.35156 z m -13.974609,0.0762 c -0.028,0.0244 -0.05751,0.0488 -0.07813,0.0723 0.02069,-0.0237 0.04994,-0.0477 0.07813,-0.0723 z m -0.115234,0.12305 c -0.0213,0.0335 -0.02951,0.0638 -0.0293,0.0937 4.8e-5,-0.0298 0.0081,-0.0605 0.0293,-0.0937 z m 5.769531,0.004 c 0.03411,4.4e-4 0.06934,0.003 0.103516,0.004 -0.361147,-0.007 -0.71512,-5e-5 -1.066407,0.0117 0.317967,-0.0108 0.637032,-0.0199 0.962891,-0.0156 z m 0.166016,0.006 c 0.409415,0.008 0.823626,0.0258 1.240234,0.0547 -0.416966,-0.0292 -0.830891,-0.0461 -1.240234,-0.0547 z m -1.394532,0.0137 c 0.01151,-5.6e-4 0.02363,5.3e-4 0.03516,0 -0.414206,0.019 -0.820992,0.0508 -1.214844,0.0996 0.383601,-0.0476 0.77736,-0.0801 1.179687,-0.0996 z m 2.808594,0.0566 c 0.36097,0.0273 0.721653,0.0613 1.083984,0.10156 -0.362402,-0.0405 -0.723234,-0.074 -1.083984,-0.10156 z m -7.376953,0.0547 c 0.01656,0.0398 0.05106,0.0766 0.125,0.10546 0.06996,0.0273 0.183083,0.0459 0.314453,0.0606 -0.131154,-0.0147 -0.244564,-0.0332 -0.314453,-0.0606 -0.07488,-0.0293 -0.108877,-0.065 -0.125,-0.10546 z m 15.595703,0.0254 c 0.481642,0.12778 0.965114,0.26682 1.453125,0.41992 -0.487393,-0.15288 -0.972077,-0.29223 -1.453125,-0.41992 z m -6.4375,0.12109 c 0.674123,0.0889 1.340734,0.18255 1.996094,0.30273 -0.653011,-0.1197 -1.325564,-0.21396 -1.996094,-0.30273 z m -7.488281,0.008 c -0.107246,0.007 -0.217437,0.0153 -0.3125,0.0195 0.09454,-0.004 0.205942,-0.0126 0.3125,-0.0195 z m 9.927734,0.38477 c 0.713202,0.13828 1.402807,0.2828 2.060547,0.43945 -0.655043,-0.15551 -1.352512,-0.30224 -2.060547,-0.43945 z m 2.398438,0.52344 c 0.654445,0.16053 1.269056,0.31755 1.832031,0.47656 -0.560754,-0.15747 -1.184563,-0.31824 -1.832031,-0.47656 z m 2.259765,0.60156 c 0.467259,0.13637 0.895944,0.26387 1.265625,0.38281 -0.369791,-0.11792 -0.805414,-0.24923 -1.265625,-0.38281 z m 1.955078,0.61328 c 0.125236,0.0431 0.259545,0.0863 0.361329,0.12305 -0.102635,-0.0367 -0.237128,-0.0806 -0.361329,-0.12305 z m 0.896485,0.32812 c 0.0067,0.003 0.03336,0.0129 0.03906,0.0156 v 0.002 c -0.0088,-0.004 -0.028,-0.0126 -0.03906,-0.0176 z m -38.064453,6.37891 c 0.0399,0.0133 0.08712,0.0342 0.128906,0.0488 0.09595,0.0334 0.195407,0.0691 0.300781,0.10937 -0.07103,-0.023 -0.145152,-0.0506 -0.214843,-0.0723 -0.06549,-0.0233 -0.15379,-0.0655 -0.214844,-0.0859 z m 1.320312,0.48047 c 0.119364,0.0474 0.243336,0.10548 0.365235,0.1582 -0.121521,-0.0528 -0.246257,-0.11078 -0.365235,-0.1582 z m 1.222656,0.56836 c 0.310734,0.16457 0.626553,0.34425 0.947266,0.55469 -0.321298,-0.21155 -0.636021,-0.38918 -0.947266,-0.55469 z m 1.908204,1.25781 c 0.05239,0.0422 0.10373,0.0871 0.15625,0.13086 -0.05228,-0.0436 -0.104092,-0.0887 -0.15625,-0.13086 z m 2.164062,2.19531 c 0.05915,0.0734 0.116696,0.14481 0.175781,0.22071 -0.05911,-0.076 -0.116608,-0.14721 -0.175781,-0.22071 z m 1.125,1.5586 c 0.06433,0.0991 0.127287,0.20422 0.191406,0.30664 -0.06404,-0.1023 -0.12714,-0.20769 -0.191406,-0.30664 z" />
    <g
       id="g438"
       transform="matrix(0.50514902,-0.29164792,0.29164792,0.50514902,-411.28622,626.244)">
      <path
         style="fill-rule:evenodd"
         inkscape:connector-curvature="0"
         id="path406"
         d="m 372.13767,921.50941 c -0.0918,-0.11473 -1.10134,-1.26195 -1.10134,-1.26195 l 1.23901,-2.34035 12.8234,-0.0115 1.68732,1.29794 0.0649,1.03835 -1.10324,1.62243 z" />
      <path
         inkscape:connector-curvature="0"
         style="fill:url(#i)"
         id="path408"
         d="m 371.94827,920.17293 0.88494,-1.39528 h 12.06135 l 1.15757,0.60674 1.84392,32.45214 -3.57388,-1.11318 -9.87845,0.1142 -2.49545,1.11255 z" />
      <g
         style="fill-rule:evenodd"
         id="g422">
        <path
           inkscape:connector-curvature="0"
           style="fill:url(#j)"
           id="path410"
           d="m 367.75525,1044.4233 0.27534,-48.96361 2.66102,-41.02707 c 0.12062,-0.91085 0.32891,-1.99276 1.23304,-2.51476 l 2.40119,-1.08702 9.72005,-0.15891 c 2.35837,0 4.29906,1.04146 4.6348,2.29446 l 3.94646,31.47992 2.01912,22.02679 2.01912,36.5277 c 0,0 0.91778,3.4658 0.91778,6.608 0,3.1422 -2.9369,3.8547 -2.9369,3.8547 l -21.84321,0.7342 c -2.15679,-0.673 -5.69025,-1.4397 -5.69025,-3.3499 0,-1.9101 0.64244,-6.4245 0.64244,-6.4245 z" />
        <path
           inkscape:connector-curvature="0"
           style="fill:url(#k)"
           id="path412"
           d="m 371.04042,920.25625 c 0,0 2.18217,-8.85033 -6.31934,-13.8474 l 0.97346,-9.34517 c 0,0 8.35548,6.76552 6.60326,20.84816 z" />
        <path
           style="fill:#5b5c60"
           inkscape:connector-curvature="0"
           id="path414"
           d="m 373.28899,917.91591 c 0.56284,-12.76748 -4.46653,-17.71271 -7.59445,-20.85223 0,0 8.35548,6.76552 6.60326,20.84816 z" />
        <path
           inkscape:connector-curvature="0"
           style="fill:url(#l)"
           id="path416"
           d="m 386.75335,919.19201 c 0,0 -0.73423,-5.41492 0.0918,-9.2696 0.82601,-3.85469 3.94647,-5.59847 11.47228,-5.59847 7.52581,0 21.29254,8.81071 28.91013,17.98853 1.09673,1.40642 1.86897,1.15797 1.92735,-0.55067 0.0453,-0.22669 -11.12154,-13.31773 -21.29255,-17.62142 -10.24822,-4.33636 -1.74378,-3.02868 -1.74378,-3.02868 0,0 13.0325,5.23136 23.03633,16.97897 1.32201,1.77634 1.73546,0.66477 2.01912,-1.19312 0,0 -8.99427,-13.49139 -23.12811,-20.09942 -14.13384,-6.60803 -21.01721,2.66156 -22.57744,9.26959 -1.56023,6.60803 -0.55067,11.93117 -0.55067,11.93117 z" />
        <path
           inkscape:connector-curvature="0"
           id="path418"
           d="m 430.81867,916.46788 -0.61653,2.51476 c 1.13029,-0.0162 1.69273,-1.76844 1.83334,-3.35842 z" />
        <path
           inkscape:connector-curvature="0"
           id="path420"
           d="m 428.99344,921.56229 -0.59219,1.67921 c 1.09784,0 1.40759,-1.20809 1.53319,-2.62833 z" />
      </g>
      <path
         inkscape:connector-curvature="0"
         style="fill:url(#m)"
         id="path424"
         transform="scale(-1,1)"
         d="m -365.57721,882.75811 c 8.61383,6.97502 13.52853,6.0975 22.53174,0.87189 v 20.24786 c -6.6771,-3.74026 -14.54092,-7.07073 -21.70573,2.56979 l -0.95666,-9.19482 z" />
      <path
         inkscape:connector-curvature="0"
         style="fill:url(#n)"
         id="path426"
         d="m 332.53217,883.63 h 10.51331 v 20.24786 h -10.51331 z" />
      <path
         style="fill:#3b3b3d;fill-rule:evenodd"
         inkscape:connector-curvature="0"
         id="path428"
         d="m 365.57733,882.76177 c 22.86627,0 36.86892,2.30213 58.63722,22.82331 -22.53022,-19.79437 -35.19609,-19.86005 -58.63487,-19.66614 z" />
      <path
         inkscape:connector-curvature="0"
         style="fill:url(#o)"
         id="path430"
         transform="translate(0,956.36218)"
         d="m 373.9043,-70.466797 c -2.6335,-0.0219 -5.39437,-8.03e-4 -8.32422,0.02344 l -0.0566,12.789062 0.17187,-1.644531 c 0,0 0.12917,0.104469 0.35157,0.314453 0.003,0.0024 9e-4,0.0014 0.004,0.0039 0.22223,0.209985 0.53579,0.523071 0.9082,0.94336 0.006,0.0066 0.008,0.009 0.0137,0.01563 0.0478,0.05401 0.10279,0.124178 0.15234,0.18164 0.11446,0.132614 0.23077,0.270829 0.35352,0.421875 0.009,0.0095 0.0168,0.01977 0.0254,0.0293 2.93354,3.265464 6.24805,8.442989 5.78515,18.94336 l -0.90234,-0.0059 0.10937,0.435547 12.54493,-0.238281 0.004,-0.02734 -0.12695,-0.08203 c 0,0 -1.00945,-5.323611 0.55078,-11.931641 1.56023,-6.60803 8.44428,-15.877561 22.57813,-9.269531 12.77532,5.972882 21.27795,17.470435 22.80859,19.644531 l 1.16406,-0.80664 c -1.99064,-3.845652 -5.33735,-7.551362 -7.80469,-10.050782 -19.71394,-17.320073 -31.87606,-19.536184 -50.31054,-19.689453 z m 30.06445,15.03125 c -1.59081,-0.002 -2.51061,0.502666 3.89453,3.212891 9.76464,4.13174 20.33877,16.244669 21.13672,17.416015 l 0.92383,-0.93164 -2.14063,-4.064453 C 418.00016,-50.464658 406.11914,-55.25 406.11914,-55.25 c 0,0 -1.1959,-0.184356 -2.15039,-0.185547 z m -32.46484,5.794922 c 0.17309,0.588758 0.33077,1.203983 0.46679,1.847656 -0.13621,-0.643235 -0.29354,-1.259307 -0.46679,-1.847656 z m 0.46679,1.849609 c 0.11913,0.563956 0.21642,1.159335 0.30078,1.765625 -0.0847,-0.60728 -0.18123,-1.200841 -0.30078,-1.765625 z m 0.34571,2.044922 c 0.0769,0.60149 0.12521,1.232552 0.16211,1.875 -0.037,-0.642378 -0.0851,-1.273592 -0.16211,-1.875 z m 0.1875,2.189453 c 0.0338,0.739919 0.0407,1.505456 0.0137,2.298829 0.0271,-0.794329 0.0203,-1.558104 -0.0137,-2.298829 z m 0.0117,2.353516 c -0.0282,0.784148 -0.0899,1.595197 -0.18554,2.431641 0.0956,-0.836473 0.1574,-1.647487 0.18554,-2.431641 z m 59.51563,0.492187 c -3e-4,0.0033 -0.002,0.0065 -0.002,0.0098 l 0.006,-0.0039 z m -2.10156,4.988282 c -0.004,0.04525 -0.0131,0.08414 -0.0176,0.128906 l 0.0547,-0.06055 z" />
      <path
         style="fill:#5b5a60"
         inkscape:connector-curvature="0"
         id="path432"
         transform="scale(-1,1)"
         d="m -332.53217,883.63 c 1.46878,7.9751 1.65097,10.31862 0,20.24786 z" />
      <rect
         style="fill:#323033;filter:url(#p)"
         id="rect434"
         y="1049.2417"
         x="370.9675"
         width="23.862333"
         transform="matrix(1.0416015,0,0,1.1875727,-15.929152,-197.13614)"
         rx="1.743786"
         height="3.487572" />
      <rect
         style="fill:#060509"
         id="rect436"
         y="1049.2417"
         x="370.9675"
         width="23.862333"
         rx="1.743786"
         height="3.487572" />
    </g>
  </g>
</svg>
