<?xml version="1.0" encoding="UTF-8" standalone="no"?>
<!-- Generator: Adobe Illustrator 22.1.0, SVG Export Plug-In . SVG Version: 6.00 Build 0)  -->

<!-- Artist: @KevDoy for Trenta.io -->

<!-- Vector Conversion by @Genghis-Khanr -->

<svg
   xmlns:dc="http://purl.org/dc/elements/1.1/"
   xmlns:cc="http://creativecommons.org/ns#"
   xmlns:rdf="http://www.w3.org/1999/02/22-rdf-syntax-ns#"
   xmlns:svg="http://www.w3.org/2000/svg"
   xmlns="http://www.w3.org/2000/svg"
   xmlns:sodipodi="http://sodipodi.sourceforge.net/DTD/sodipodi-0.dtd"
   xmlns:inkscape="http://www.inkscape.org/namespaces/inkscape"
   version="1.1"
   id="jockey"
   x="0px"
   y="0px"
   viewBox="0 0 128 128"
   xml:space="preserve"
   sodipodi:docname="cpuinfo.svg"
   width="128"
   height="128"
   inkscape:version="0.92.4 5da689c313, 2019-01-14"><metadata
   id="metadata772"><rdf:RDF><cc:Work
       rdf:about=""><dc:format>image/svg+xml</dc:format><dc:type
         rdf:resource="http://purl.org/dc/dcmitype/StillImage" /><dc:title></dc:title></cc:Work></rdf:RDF></metadata><defs
   id="defs770" /><sodipodi:namedview
   pagecolor="#ffffff"
   bordercolor="#666666"
   borderopacity="1"
   objecttolerance="10"
   gridtolerance="10"
   guidetolerance="10"
   inkscape:pageopacity="0"
   inkscape:pageshadow="2"
   inkscape:window-width="1920"
   inkscape:window-height="1027"
   id="namedview768"
   showgrid="false"
   inkscape:zoom="2.6074562"
   inkscape:cx="56.544795"
   inkscape:cy="41.133147"
   inkscape:window-x="0"
   inkscape:window-y="30"
   inkscape:window-maximized="1"
   inkscape:current-layer="jockey" />
<style
   type="text/css"
   id="style2">
	.st0{fill:#007D5A;}
	.st1{fill:#073C34;}
	.st2{fill:url(#SVGID_1_);}
	.st3{fill:url(#SVGID_2_);}
	.st4{fill:#FFF293;}
	.st5{fill:url(#SVGID_3_);}
</style>
<g
   id="g1962"
   transform="matrix(0.14584084,0,0,0.14584084,-10.901836,124.27615)"><g
     transform="translate(0,-896)"
     id="g765">
	<g
   id="g6">
		<path
   style="fill:#007d5a"
   inkscape:connector-curvature="0"
   id="path4"
   d="m 871.7,314.7 c 0,-8.9 6.1,-16.3 14.3,-18.5 V 107 H 138.1 v 189.2 c 8.2,2.1 14.3,9.6 14.3,18.5 0,8.9 -6.1,16.3 -14.3,18.5 V 905 H 886 V 333.2 c -8.3,-2.2 -14.3,-9.6 -14.3,-18.5 z"
   class="st0" />
	</g>
	<g
   id="g10">
		<path
   style="fill:#073c34"
   inkscape:connector-curvature="0"
   id="path8"
   d="m 863.4,314.7 c 0,-10.3 5.7,-19.3 14.1,-24 V 116 h -731 v 174.7 c 8.4,4.7 14.1,13.6 14.1,24 0,10.3 -5.7,19.3 -14.1,24 V 896 h 731 V 338.7 c -8.4,-4.7 -14.1,-13.7 -14.1,-24 z"
   class="st1" />
	</g>
	<g
   id="g27">
		<linearGradient
   y2="168.1151"
   x2="826.76959"
   y1="836.44708"
   x1="193.9364"
   gradientUnits="userSpaceOnUse"
   id="SVGID_1_">
			<stop
   id="stop12"
   style="stop-color:#8B8B8B"
   offset="0" />
			<stop
   id="stop14"
   style="stop-color:#ACADAD"
   offset="5.000000e-02" />
			<stop
   id="stop16"
   style="stop-color:#C2C4C3"
   offset="0.95" />
			<stop
   id="stop18"
   style="stop-color:#B9BAB9"
   offset="0.9632" />
			<stop
   id="stop20"
   style="stop-color:#9FA09F"
   offset="0.9855" />
			<stop
   id="stop22"
   style="stop-color:#8B8B8B"
   offset="1" />
		</linearGradient>
		<path
   style="fill:url(#SVGID_1_)"
   inkscape:connector-curvature="0"
   id="path25"
   d="M 751.7,154.3 H 272.3 c -46.9,0 -85,38.1 -85,85 v 522.4 c 0,46.9 38.1,85 85,85 h 479.3 c 46.9,0 85,-38.1 85,-85 V 239.3 c 0.1,-46.9 -38,-85 -84.9,-85 z"
   class="st2" />
	</g>
	<g
   id="g40">
		<linearGradient
   y2="829.09802"
   x2="808.00122"
   y1="173.09801"
   x1="217.00121"
   gradientUnits="userSpaceOnUse"
   id="SVGID_2_">
			<stop
   id="stop29"
   style="stop-color:#E0E1E0"
   offset="0" />
			<stop
   id="stop31"
   style="stop-color:#ACADAD;stop-opacity:0"
   offset="5.000000e-02" />
			<stop
   id="stop33"
   style="stop-color:#C2C4C3;stop-opacity:0"
   offset="0.9444" />
			<stop
   id="stop35"
   style="stop-color:#E0E1E0"
   offset="1" />
		</linearGradient>
		<path
   style="fill:url(#SVGID_2_)"
   inkscape:connector-curvature="0"
   id="path38"
   d="M 751.7,154.3 H 272.3 c -46.9,0 -85,38.1 -85,85 v 522.4 c 0,46.9 38.1,85 85,85 h 479.3 c 46.9,0 85,-38.1 85,-85 V 239.3 c 0.1,-46.9 -38,-85 -84.9,-85 z"
   class="st3" />
	</g>
	<g
   id="g44">
		<circle
   style="fill:#fff293"
   id="circle42"
   r="6"
   cy="130"
   cx="213.2"
   class="st4" />
	</g>
	<g
   id="g48">
		<circle
   style="fill:#fff293"
   id="circle46"
   r="10.3"
   cy="139"
   cx="167.2"
   class="st4" />
	</g>
	<g
   id="g52">
		<circle
   style="fill:#fff293"
   id="circle50"
   r="6"
   cy="118.6"
   cx="220.89999"
   class="st4" />
	</g>
	<g
   id="g56">
		<circle
   style="fill:#fff293"
   id="circle54"
   r="6"
   cy="130"
   cx="227.3"
   class="st4" />
	</g>
	<g
   id="g60">
		<circle
   style="fill:#fff293"
   id="circle58"
   r="6"
   cy="118.6"
   cx="235.10001"
   class="st4" />
	</g>
	<g
   id="g64">
		<circle
   style="fill:#fff293"
   id="circle62"
   r="6"
   cy="130"
   cx="491.79999"
   class="st4" />
	</g>
	<g
   id="g68">
		<circle
   style="fill:#fff293"
   id="circle66"
   r="6"
   cy="118.6"
   cx="499.5"
   class="st4" />
	</g>
	<g
   id="g72">
		<circle
   style="fill:#fff293"
   id="circle70"
   r="6"
   cy="130"
   cx="505.89999"
   class="st4" />
	</g>
	<g
   id="g76">
		<circle
   style="fill:#fff293"
   id="circle74"
   r="6"
   cy="118.6"
   cx="513.59998"
   class="st4" />
	</g>
	<g
   id="g80">
		<circle
   style="fill:#fff293"
   id="circle78"
   r="6"
   cy="130"
   cx="592.79999"
   class="st4" />
	</g>
	<g
   id="g84">
		<circle
   style="fill:#fff293"
   id="circle82"
   r="6"
   cy="118.6"
   cx="600.5"
   class="st4" />
	</g>
	<g
   id="g88">
		<circle
   style="fill:#fff293"
   id="circle86"
   r="6"
   cy="130"
   cx="606.90002"
   class="st4" />
	</g>
	<g
   id="g92">
		<circle
   style="fill:#fff293"
   id="circle90"
   r="6"
   cy="118.6"
   cx="614.59998"
   class="st4" />
	</g>
	<g
   id="g96">
		<circle
   style="fill:#fff293"
   id="circle94"
   r="6"
   cy="130"
   cx="676.09998"
   class="st4" />
	</g>
	<g
   id="g100">
		<circle
   style="fill:#fff293"
   id="circle98"
   r="6"
   cy="118.6"
   cx="683.79999"
   class="st4" />
	</g>
	<g
   id="g104">
		<circle
   style="fill:#fff293"
   id="circle102"
   r="6"
   cy="130"
   cx="690.20001"
   class="st4" />
	</g>
	<g
   id="g108">
		<circle
   style="fill:#fff293"
   id="circle106"
   r="6"
   cy="118.6"
   cx="698"
   class="st4" />
	</g>
	<g
   id="g112">
		<circle
   style="fill:#fff293"
   id="circle110"
   r="6"
   cy="130"
   cx="743.5"
   class="st4" />
	</g>
	<g
   id="g116">
		<circle
   style="fill:#fff293"
   id="circle114"
   r="6"
   cy="118.6"
   cx="751.09998"
   class="st4" />
	</g>
	<g
   id="g120">
		<circle
   style="fill:#fff293"
   id="circle118"
   r="6"
   cy="130"
   cx="757.5"
   class="st4" />
	</g>
	<g
   id="g124">
		<circle
   style="fill:#fff293"
   id="circle122"
   r="6"
   cy="118.6"
   cx="765.29999"
   class="st4" />
	</g>
	<g
   id="g128">
		<circle
   style="fill:#fff293"
   id="circle126"
   r="6"
   cy="130"
   cx="808.40002"
   class="st4" />
	</g>
	<g
   id="g132">
		<circle
   style="fill:#fff293"
   id="circle130"
   r="6"
   cy="118.6"
   cx="816.09998"
   class="st4" />
	</g>
	<g
   id="g136">
		<circle
   style="fill:#fff293"
   id="circle134"
   r="6"
   cy="130"
   cx="822.5"
   class="st4" />
	</g>
	<g
   id="g140">
		<circle
   style="fill:#fff293"
   id="circle138"
   r="6"
   cy="118.6"
   cx="830.29999"
   class="st4" />
	</g>
	<g
   id="g144">
		<circle
   style="fill:#fff293"
   id="circle142"
   r="6"
   cy="190.10001"
   cx="866.09998"
   class="st4" />
	</g>
	<g
   id="g148">
		<circle
   style="fill:#fff293"
   id="circle146"
   r="6"
   cy="182.89999"
   cx="877.5"
   class="st4" />
	</g>
	<g
   id="g152">
		<circle
   style="fill:#fff293"
   id="circle150"
   r="6"
   cy="203.3"
   cx="866.09998"
   class="st4" />
	</g>
	<g
   id="g156">
		<circle
   style="fill:#fff293"
   id="circle154"
   r="6"
   cy="197"
   cx="877.5"
   class="st4" />
	</g>
	<g
   id="g160">
		<circle
   style="fill:#fff293"
   id="circle158"
   r="6"
   cy="176"
   cx="866.09998"
   class="st4" />
	</g>
	<g
   id="g164">
		<circle
   style="fill:#fff293"
   id="circle162"
   r="6"
   cy="169.7"
   cx="877.5"
   class="st4" />
	</g>
	<g
   id="g168">
		<circle
   style="fill:#fff293"
   id="circle166"
   r="6"
   cy="120.3"
   cx="873.5"
   class="st4" />
	</g>
	<g
   id="g172">
		<circle
   style="fill:#fff293"
   id="circle170"
   r="5.5"
   cy="882.40002"
   cx="402.79999"
   class="st4" />
	</g>
	<g
   id="g176">
		<circle
   style="fill:#fff293"
   id="circle174"
   r="5.5"
   cy="893.20001"
   cx="408.29999"
   class="st4" />
	</g>
	<g
   id="g180">
		<circle
   style="fill:#fff293"
   id="circle178"
   r="5.5"
   cy="893.20001"
   cx="421.89999"
   class="st4" />
	</g>
	<g
   id="g184">
		<circle
   style="fill:#fff293"
   id="circle182"
   r="5.5"
   cy="893.20001"
   cx="435.29999"
   class="st4" />
	</g>
	<g
   id="g188">
		<circle
   style="fill:#fff293"
   id="circle186"
   r="5.5"
   cy="893.20001"
   cx="448.60001"
   class="st4" />
	</g>
	<g
   id="g192">
		<circle
   style="fill:#fff293"
   id="circle190"
   r="5.5"
   cy="893.20001"
   cx="462.20001"
   class="st4" />
	</g>
	<g
   id="g196">
		<circle
   style="fill:#fff293"
   id="circle194"
   r="5.5"
   cy="893.20001"
   cx="475.29999"
   class="st4" />
	</g>
	<g
   id="g200">
		<circle
   style="fill:#fff293"
   id="circle198"
   r="5.5"
   cy="893.20001"
   cx="488.5"
   class="st4" />
	</g>
	<g
   id="g204">
		<circle
   style="fill:#fff293"
   id="circle202"
   r="5.5"
   cy="893.20001"
   cx="501.60001"
   class="st4" />
	</g>
	<g
   id="g208">
		<circle
   style="fill:#fff293"
   id="circle206"
   r="5.5"
   cy="893.20001"
   cx="514.70001"
   class="st4" />
	</g>
	<g
   id="g212">
		<circle
   style="fill:#fff293"
   id="circle210"
   r="5.5"
   cy="893.20001"
   cx="527.90002"
   class="st4" />
	</g>
	<g
   id="g216">
		<circle
   style="fill:#fff293"
   id="circle214"
   r="5.5"
   cy="893.20001"
   cx="541.20001"
   class="st4" />
	</g>
	<g
   id="g220">
		<circle
   style="fill:#fff293"
   id="circle218"
   r="5.5"
   cy="893.20001"
   cx="554.40002"
   class="st4" />
	</g>
	<g
   id="g224">
		<circle
   style="fill:#fff293"
   id="circle222"
   r="5.5"
   cy="893.20001"
   cx="567.5"
   class="st4" />
	</g>
	<g
   id="g228">
		<circle
   style="fill:#fff293"
   id="circle226"
   r="5.5"
   cy="893.20001"
   cx="580.90002"
   class="st4" />
	</g>
	<g
   id="g232">
		<circle
   style="fill:#fff293"
   id="circle230"
   r="5.5"
   cy="893.20001"
   cx="594.29999"
   class="st4" />
	</g>
	<g
   id="g236">
		<circle
   style="fill:#fff293"
   id="circle234"
   r="5.5"
   cy="893.20001"
   cx="607.5"
   class="st4" />
	</g>
	<g
   id="g240">
		<circle
   style="fill:#fff293"
   id="circle238"
   r="5.5"
   cy="893.20001"
   cx="621.20001"
   class="st4" />
	</g>
	<g
   id="g244">
		<circle
   style="fill:#fff293"
   id="circle242"
   r="5.5"
   cy="893.20001"
   cx="634.40002"
   class="st4" />
	</g>
	<g
   id="g248">
		<circle
   style="fill:#fff293"
   id="circle246"
   r="5.5"
   cy="893.20001"
   cx="647.29999"
   class="st4" />
	</g>
	<g
   id="g252">
		<circle
   style="fill:#fff293"
   id="circle250"
   r="5.5"
   cy="893.20001"
   cx="660.90002"
   class="st4" />
	</g>
	<g
   id="g256">
		<circle
   style="fill:#fff293"
   id="circle254"
   r="5.5"
   cy="893.20001"
   cx="674.29999"
   class="st4" />
	</g>
	<g
   id="g260">
		<circle
   style="fill:#fff293"
   id="circle258"
   r="5.5"
   cy="893.20001"
   cx="686.79999"
   class="st4" />
	</g>
	<g
   id="g264">
		<circle
   style="fill:#fff293"
   id="circle262"
   r="5.5"
   cy="893.20001"
   cx="701"
   class="st4" />
	</g>
	<g
   id="g268">
		<circle
   style="fill:#fff293"
   id="circle266"
   r="5.5"
   cy="893.20001"
   cx="713.70001"
   class="st4" />
	</g>
	<g
   id="g272">
		<circle
   style="fill:#fff293"
   id="circle270"
   r="5.5"
   cy="893.20001"
   cx="726.79999"
   class="st4" />
	</g>
	<g
   id="g276">
		<circle
   style="fill:#fff293"
   id="circle274"
   r="5.5"
   cy="893.20001"
   cx="740.70001"
   class="st4" />
	</g>
	<g
   id="g280">
		<circle
   style="fill:#fff293"
   id="circle278"
   r="5.5"
   cy="893.20001"
   cx="753.59998"
   class="st4" />
	</g>
	<g
   id="g284">
		<circle
   style="fill:#fff293"
   id="circle282"
   r="5.5"
   cy="893.20001"
   cx="766.70001"
   class="st4" />
	</g>
	<g
   id="g288">
		<circle
   style="fill:#fff293"
   id="circle286"
   r="5.5"
   cy="893.20001"
   cx="780.59998"
   class="st4" />
	</g>
	<g
   id="g292">
		<circle
   style="fill:#fff293"
   id="circle290"
   r="5.5"
   cy="893.20001"
   cx="793.5"
   class="st4" />
	</g>
	<g
   id="g296">
		<circle
   style="fill:#fff293"
   id="circle294"
   r="5.5"
   cy="893.20001"
   cx="806.29999"
   class="st4" />
	</g>
	<g
   id="g300">
		<circle
   style="fill:#fff293"
   id="circle298"
   r="5.5"
   cy="893.20001"
   cx="820.29999"
   class="st4" />
	</g>
	<g
   id="g304">
		<circle
   style="fill:#fff293"
   id="circle302"
   r="5.5"
   cy="893.20001"
   cx="833.29999"
   class="st4" />
	</g>
	<g
   id="g308">
		<circle
   style="fill:#fff293"
   id="circle306"
   r="5.5"
   cy="882.40002"
   cx="415.5"
   class="st4" />
	</g>
	<g
   id="g312">
		<circle
   style="fill:#fff293"
   id="circle310"
   r="5.5"
   cy="882.40002"
   cx="428.70001"
   class="st4" />
	</g>
	<g
   id="g316">
		<circle
   style="fill:#fff293"
   id="circle314"
   r="5.5"
   cy="882.40002"
   cx="197.10001"
   class="st4" />
	</g>
	<g
   id="g320">
		<circle
   style="fill:#fff293"
   id="circle318"
   r="5.5"
   cy="893.20001"
   cx="202.60001"
   class="st4" />
	</g>
	<g
   id="g324">
		<circle
   style="fill:#fff293"
   id="circle322"
   r="5.5"
   cy="893.20001"
   cx="216.2"
   class="st4" />
	</g>
	<g
   id="g328">
		<circle
   style="fill:#fff293"
   id="circle326"
   r="5.5"
   cy="893.20001"
   cx="229.60001"
   class="st4" />
	</g>
	<g
   id="g332">
		<circle
   style="fill:#fff293"
   id="circle330"
   r="5.5"
   cy="882.40002"
   cx="209.89999"
   class="st4" />
	</g>
	<g
   id="g336">
		<circle
   style="fill:#fff293"
   id="circle334"
   r="5.5"
   cy="882.40002"
   cx="223"
   class="st4" />
	</g>
	<g
   id="g340">
		<circle
   style="fill:#fff293"
   id="circle338"
   r="5.5"
   cy="811.59998"
   cx="148.60001"
   class="st4" />
	</g>
	<g
   id="g344">
		<circle
   style="fill:#fff293"
   id="circle342"
   r="5.5"
   cy="817.09998"
   cx="159.5"
   class="st4" />
	</g>
	<g
   id="g348">
		<circle
   style="fill:#fff293"
   id="circle346"
   r="5.5"
   cy="830.70001"
   cx="159.5"
   class="st4" />
	</g>
	<g
   id="g352">
		<circle
   style="fill:#fff293"
   id="circle350"
   r="5.5"
   cy="844.09998"
   cx="159.5"
   class="st4" />
	</g>
	<g
   id="g356">
		<circle
   style="fill:#fff293"
   id="circle354"
   r="5.5"
   cy="824.29999"
   cx="148.60001"
   class="st4" />
	</g>
	<g
   id="g360">
		<circle
   style="fill:#fff293"
   id="circle358"
   r="5.5"
   cy="837.40002"
   cx="148.60001"
   class="st4" />
	</g>
	<g
   id="g364">
		<circle
   style="fill:#fff293"
   id="circle362"
   r="5.5"
   cy="882.40002"
   cx="442.70001"
   class="st4" />
	</g>
	<g
   id="g368">
		<circle
   style="fill:#fff293"
   id="circle366"
   r="5.5"
   cy="882.40002"
   cx="455.5"
   class="st4" />
	</g>
	<g
   id="g372">
		<circle
   style="fill:#fff293"
   id="circle370"
   r="5.5"
   cy="882.40002"
   cx="468.39999"
   class="st4" />
	</g>
	<g
   id="g376">
		<circle
   style="fill:#fff293"
   id="circle374"
   r="5.5"
   cy="882.40002"
   cx="482.20001"
   class="st4" />
	</g>
	<g
   id="g380">
		<circle
   style="fill:#fff293"
   id="circle378"
   r="5.5"
   cy="882.40002"
   cx="495.10001"
   class="st4" />
	</g>
	<g
   id="g384">
		<circle
   style="fill:#fff293"
   id="circle382"
   r="5.5"
   cy="882.40002"
   cx="508"
   class="st4" />
	</g>
	<g
   id="g388">
		<circle
   style="fill:#fff293"
   id="circle386"
   r="5.5"
   cy="882.40002"
   cx="521.90002"
   class="st4" />
	</g>
	<g
   id="g392">
		<circle
   style="fill:#fff293"
   id="circle390"
   r="5.5"
   cy="882.40002"
   cx="535"
   class="st4" />
	</g>
	<g
   id="g396">
		<circle
   style="fill:#fff293"
   id="circle394"
   r="5.5"
   cy="882.40002"
   cx="548.20001"
   class="st4" />
	</g>
	<g
   id="g400">
		<circle
   style="fill:#fff293"
   id="circle398"
   r="5.5"
   cy="882.40002"
   cx="561.79999"
   class="st4" />
	</g>
	<g
   id="g404">
		<circle
   style="fill:#fff293"
   id="circle402"
   r="5.5"
   cy="882.40002"
   cx="574.79999"
   class="st4" />
	</g>
	<g
   id="g408">
		<circle
   style="fill:#fff293"
   id="circle406"
   r="5.5"
   cy="882.40002"
   cx="588"
   class="st4" />
	</g>
	<g
   id="g412">
		<circle
   style="fill:#fff293"
   id="circle410"
   r="5.5"
   cy="882.40002"
   cx="601.40002"
   class="st4" />
	</g>
	<g
   id="g416">
		<circle
   style="fill:#fff293"
   id="circle414"
   r="5.5"
   cy="882.40002"
   cx="614.70001"
   class="st4" />
	</g>
	<g
   id="g420">
		<circle
   style="fill:#fff293"
   id="circle418"
   r="5.5"
   cy="882.40002"
   cx="627.70001"
   class="st4" />
	</g>
	<g
   id="g424">
		<circle
   style="fill:#fff293"
   id="circle422"
   r="5.5"
   cy="882.40002"
   cx="641.29999"
   class="st4" />
	</g>
	<g
   id="g428">
		<circle
   style="fill:#fff293"
   id="circle426"
   r="5.5"
   cy="882.40002"
   cx="654.20001"
   class="st4" />
	</g>
	<g
   id="g432">
		<circle
   style="fill:#fff293"
   id="circle430"
   r="5.5"
   cy="882.40002"
   cx="667.5"
   class="st4" />
	</g>
	<g
   id="g436">
		<circle
   style="fill:#fff293"
   id="circle434"
   r="5.5"
   cy="882.40002"
   cx="681.20001"
   class="st4" />
	</g>
	<g
   id="g440">
		<circle
   style="fill:#fff293"
   id="circle438"
   r="5.5"
   cy="882.40002"
   cx="694.40002"
   class="st4" />
	</g>
	<g
   id="g444">
		<circle
   style="fill:#fff293"
   id="circle442"
   r="5.5"
   cy="882.40002"
   cx="707.29999"
   class="st4" />
	</g>
	<g
   id="g448">
		<circle
   style="fill:#fff293"
   id="circle446"
   r="5.5"
   cy="882.40002"
   cx="721.20001"
   class="st4" />
	</g>
	<g
   id="g452">
		<circle
   style="fill:#fff293"
   id="circle450"
   r="5.5"
   cy="882.40002"
   cx="734"
   class="st4" />
	</g>
	<g
   id="g456">
		<circle
   style="fill:#fff293"
   id="circle454"
   r="5.5"
   cy="882.40002"
   cx="747.09998"
   class="st4" />
	</g>
	<g
   id="g460">
		<circle
   style="fill:#fff293"
   id="circle458"
   r="5.5"
   cy="882.40002"
   cx="761.20001"
   class="st4" />
	</g>
	<g
   id="g464">
		<circle
   style="fill:#fff293"
   id="circle462"
   r="5.5"
   cy="882.40002"
   cx="773.90002"
   class="st4" />
	</g>
	<g
   id="g468">
		<circle
   style="fill:#fff293"
   id="circle466"
   r="5.5"
   cy="882.40002"
   cx="787"
   class="st4" />
	</g>
	<g
   id="g472">
		<circle
   style="fill:#fff293"
   id="circle470"
   r="5.5"
   cy="882.40002"
   cx="800.70001"
   class="st4" />
	</g>
	<g
   id="g476">
		<circle
   style="fill:#fff293"
   id="circle474"
   r="5.5"
   cy="882.40002"
   cx="813.70001"
   class="st4" />
	</g>
	<g
   id="g480">
		<circle
   style="fill:#fff293"
   id="circle478"
   r="5.5"
   cy="882.40002"
   cx="826.5"
   class="st4" />
	</g>
	<g
   id="g484">
		<circle
   style="fill:#fff293"
   id="circle482"
   r="5.5"
   cy="417.10001"
   cx="866.70001"
   class="st4" />
	</g>
	<g
   id="g488">
		<circle
   style="fill:#fff293"
   id="circle486"
   r="5.5"
   cy="422.60001"
   cx="877.5"
   class="st4" />
	</g>
	<g
   id="g492">
		<circle
   style="fill:#fff293"
   id="circle490"
   r="5.5"
   cy="436.20001"
   cx="877.5"
   class="st4" />
	</g>
	<g
   id="g496">
		<circle
   style="fill:#fff293"
   id="circle494"
   r="5.5"
   cy="449.5"
   cx="877.5"
   class="st4" />
	</g>
	<g
   id="g500">
		<circle
   style="fill:#fff293"
   id="circle498"
   r="5.5"
   cy="462.79999"
   cx="877.5"
   class="st4" />
	</g>
	<g
   id="g504">
		<circle
   style="fill:#fff293"
   id="circle502"
   r="5.5"
   cy="476.5"
   cx="877.5"
   class="st4" />
	</g>
	<g
   id="g508">
		<circle
   style="fill:#fff293"
   id="circle506"
   r="5.5"
   cy="489.60001"
   cx="877.5"
   class="st4" />
	</g>
	<g
   id="g512">
		<circle
   style="fill:#fff293"
   id="circle510"
   r="5.5"
   cy="502.70001"
   cx="877.5"
   class="st4" />
	</g>
	<g
   id="g516">
		<circle
   style="fill:#fff293"
   id="circle514"
   r="5.5"
   cy="515.90002"
   cx="877.5"
   class="st4" />
	</g>
	<g
   id="g520">
		<circle
   style="fill:#fff293"
   id="circle518"
   r="5.5"
   cy="529"
   cx="877.5"
   class="st4" />
	</g>
	<g
   id="g524">
		<circle
   style="fill:#fff293"
   id="circle522"
   r="5.5"
   cy="542.09998"
   cx="877.5"
   class="st4" />
	</g>
	<g
   id="g528">
		<circle
   style="fill:#fff293"
   id="circle526"
   r="5.5"
   cy="555.5"
   cx="877.5"
   class="st4" />
	</g>
	<g
   id="g532">
		<circle
   style="fill:#fff293"
   id="circle530"
   r="5.5"
   cy="568.70001"
   cx="877.5"
   class="st4" />
	</g>
	<g
   id="g536">
		<circle
   style="fill:#fff293"
   id="circle534"
   r="5.5"
   cy="581.79999"
   cx="877.5"
   class="st4" />
	</g>
	<g
   id="g540">
		<circle
   style="fill:#fff293"
   id="circle538"
   r="5.5"
   cy="595.20001"
   cx="877.5"
   class="st4" />
	</g>
	<g
   id="g544">
		<circle
   style="fill:#fff293"
   id="circle542"
   r="5.5"
   cy="608.59998"
   cx="877.5"
   class="st4" />
	</g>
	<g
   id="g548">
		<circle
   style="fill:#fff293"
   id="circle546"
   r="5.5"
   cy="621.79999"
   cx="877.5"
   class="st4" />
	</g>
	<g
   id="g552">
		<circle
   style="fill:#fff293"
   id="circle550"
   r="5.5"
   cy="635.40002"
   cx="877.5"
   class="st4" />
	</g>
	<g
   id="g556">
		<circle
   style="fill:#fff293"
   id="circle554"
   r="5.5"
   cy="648.70001"
   cx="877.5"
   class="st4" />
	</g>
	<g
   id="g560">
		<circle
   style="fill:#fff293"
   id="circle558"
   r="5.5"
   cy="661.59998"
   cx="877.5"
   class="st4" />
	</g>
	<g
   id="g564">
		<circle
   style="fill:#fff293"
   id="circle562"
   r="5.5"
   cy="675.20001"
   cx="877.5"
   class="st4" />
	</g>
	<g
   id="g568">
		<circle
   style="fill:#fff293"
   id="circle566"
   r="5.5"
   cy="688.59998"
   cx="877.5"
   class="st4" />
	</g>
	<g
   id="g572">
		<circle
   style="fill:#fff293"
   id="circle570"
   r="5.5"
   cy="701"
   cx="877.5"
   class="st4" />
	</g>
	<g
   id="g576">
		<circle
   style="fill:#fff293"
   id="circle574"
   r="5.5"
   cy="715.29999"
   cx="877.5"
   class="st4" />
	</g>
	<g
   id="g580">
		<circle
   style="fill:#fff293"
   id="circle578"
   r="5.5"
   cy="728"
   cx="877.5"
   class="st4" />
	</g>
	<g
   id="g584">
		<circle
   style="fill:#fff293"
   id="circle582"
   r="5.5"
   cy="741"
   cx="877.5"
   class="st4" />
	</g>
	<g
   id="g588">
		<circle
   style="fill:#fff293"
   id="circle586"
   r="5.5"
   cy="755"
   cx="877.5"
   class="st4" />
	</g>
	<g
   id="g592">
		<circle
   style="fill:#fff293"
   id="circle590"
   r="5.5"
   cy="767.79999"
   cx="877.5"
   class="st4" />
	</g>
	<g
   id="g596">
		<circle
   style="fill:#fff293"
   id="circle594"
   r="5.5"
   cy="781"
   cx="877.5"
   class="st4" />
	</g>
	<g
   id="g600">
		<circle
   style="fill:#fff293"
   id="circle598"
   r="5.5"
   cy="794.79999"
   cx="877.5"
   class="st4" />
	</g>
	<g
   id="g604">
		<circle
   style="fill:#fff293"
   id="circle602"
   r="5.5"
   cy="807.70001"
   cx="877.5"
   class="st4" />
	</g>
	<g
   id="g608">
		<circle
   style="fill:#fff293"
   id="circle606"
   r="5.5"
   cy="820.5"
   cx="877.5"
   class="st4" />
	</g>
	<g
   id="g612">
		<circle
   style="fill:#fff293"
   id="circle610"
   r="5.5"
   cy="834.5"
   cx="877.5"
   class="st4" />
	</g>
	<g
   id="g616">
		<circle
   style="fill:#fff293"
   id="circle614"
   r="5.5"
   cy="847.59998"
   cx="877.5"
   class="st4" />
	</g>
	<g
   id="g620">
		<circle
   style="fill:#fff293"
   id="circle618"
   r="5.5"
   cy="887.90002"
   cx="874.40002"
   class="st4" />
	</g>
	<g
   id="g624">
		<circle
   style="fill:#fff293"
   id="circle622"
   r="5.5"
   cy="429.79999"
   cx="866.70001"
   class="st4" />
	</g>
	<g
   id="g628">
		<circle
   style="fill:#fff293"
   id="circle626"
   r="5.5"
   cy="442.89999"
   cx="866.70001"
   class="st4" />
	</g>
	<g
   id="g632">
		<circle
   style="fill:#fff293"
   id="circle630"
   r="5.5"
   cy="456.89999"
   cx="866.70001"
   class="st4" />
	</g>
	<g
   id="g636">
		<circle
   style="fill:#fff293"
   id="circle634"
   r="5.5"
   cy="469.79999"
   cx="866.70001"
   class="st4" />
	</g>
	<g
   id="g640">
		<circle
   style="fill:#fff293"
   id="circle638"
   r="5.5"
   cy="482.70001"
   cx="866.70001"
   class="st4" />
	</g>
	<g
   id="g644">
		<circle
   style="fill:#fff293"
   id="circle642"
   r="5.5"
   cy="496.5"
   cx="866.70001"
   class="st4" />
	</g>
	<g
   id="g648">
		<circle
   style="fill:#fff293"
   id="circle646"
   r="5.5"
   cy="509.39999"
   cx="866.70001"
   class="st4" />
	</g>
	<g
   id="g652">
		<circle
   style="fill:#fff293"
   id="circle650"
   r="5.5"
   cy="522.20001"
   cx="866.70001"
   class="st4" />
	</g>
	<g
   id="g656">
		<circle
   style="fill:#fff293"
   id="circle654"
   r="5.5"
   cy="536.09998"
   cx="866.70001"
   class="st4" />
	</g>
	<g
   id="g660">
		<circle
   style="fill:#fff293"
   id="circle658"
   r="5.5"
   cy="549.29999"
   cx="866.70001"
   class="st4" />
	</g>
	<g
   id="g664">
		<circle
   style="fill:#fff293"
   id="circle662"
   r="5.5"
   cy="562.5"
   cx="866.70001"
   class="st4" />
	</g>
	<g
   id="g668">
		<circle
   style="fill:#fff293"
   id="circle666"
   r="5.5"
   cy="576.09998"
   cx="866.70001"
   class="st4" />
	</g>
	<g
   id="g672">
		<circle
   style="fill:#fff293"
   id="circle670"
   r="5.5"
   cy="589.09998"
   cx="866.70001"
   class="st4" />
	</g>
	<g
   id="g676">
		<circle
   style="fill:#fff293"
   id="circle674"
   r="5.5"
   cy="602.20001"
   cx="866.70001"
   class="st4" />
	</g>
	<g
   id="g680">
		<circle
   style="fill:#fff293"
   id="circle678"
   r="5.5"
   cy="615.59998"
   cx="866.70001"
   class="st4" />
	</g>
	<g
   id="g684">
		<circle
   style="fill:#fff293"
   id="circle682"
   r="5.5"
   cy="629"
   cx="866.70001"
   class="st4" />
	</g>
	<g
   id="g688">
		<circle
   style="fill:#fff293"
   id="circle686"
   r="5.5"
   cy="641.90002"
   cx="866.70001"
   class="st4" />
	</g>
	<g
   id="g692">
		<circle
   style="fill:#fff293"
   id="circle690"
   r="5.5"
   cy="655.59998"
   cx="866.70001"
   class="st4" />
	</g>
	<g
   id="g696">
		<circle
   style="fill:#fff293"
   id="circle694"
   r="5.5"
   cy="668.40002"
   cx="866.70001"
   class="st4" />
	</g>
	<g
   id="g700">
		<circle
   style="fill:#fff293"
   id="circle698"
   r="5.5"
   cy="681.79999"
   cx="866.70001"
   class="st4" />
	</g>
	<g
   id="g704">
		<circle
   style="fill:#fff293"
   id="circle702"
   r="5.5"
   cy="695.5"
   cx="866.70001"
   class="st4" />
	</g>
	<g
   id="g708">
		<circle
   style="fill:#fff293"
   id="circle706"
   r="5.5"
   cy="708.70001"
   cx="866.70001"
   class="st4" />
	</g>
	<g
   id="g712">
		<circle
   style="fill:#fff293"
   id="circle710"
   r="5.5"
   cy="721.59998"
   cx="866.70001"
   class="st4" />
	</g>
	<g
   id="g716">
		<circle
   style="fill:#fff293"
   id="circle714"
   r="5.5"
   cy="735.5"
   cx="866.70001"
   class="st4" />
	</g>
	<g
   id="g720">
		<circle
   style="fill:#fff293"
   id="circle718"
   r="5.5"
   cy="748.29999"
   cx="866.70001"
   class="st4" />
	</g>
	<g
   id="g724">
		<circle
   style="fill:#fff293"
   id="circle722"
   r="5.5"
   cy="761.29999"
   cx="866.70001"
   class="st4" />
	</g>
	<g
   id="g728">
		<circle
   style="fill:#fff293"
   id="circle726"
   r="5.5"
   cy="775.40002"
   cx="866.70001"
   class="st4" />
	</g>
	<g
   id="g732">
		<circle
   style="fill:#fff293"
   id="circle730"
   r="5.5"
   cy="788.20001"
   cx="866.70001"
   class="st4" />
	</g>
	<g
   id="g736">
		<circle
   style="fill:#fff293"
   id="circle734"
   r="5.5"
   cy="801.29999"
   cx="866.70001"
   class="st4" />
	</g>
	<g
   id="g740">
		<circle
   style="fill:#fff293"
   id="circle738"
   r="5.5"
   cy="815"
   cx="866.70001"
   class="st4" />
	</g>
	<g
   id="g744">
		<circle
   style="fill:#fff293"
   id="circle742"
   r="5.5"
   cy="828"
   cx="866.70001"
   class="st4" />
	</g>
	<g
   id="g748">
		<circle
   style="fill:#fff293"
   id="circle746"
   r="5.5"
   cy="840.79999"
   cx="866.70001"
   class="st4" />
	</g>
	<g
   id="g763">
		<linearGradient
   y2="500.54169"
   x2="813.59613"
   y1="500.54169"
   x1="222.6667"
   gradientUnits="userSpaceOnUse"
   id="SVGID_3_">
			<stop
   id="stop750"
   style="stop-color:#E0E1E0"
   offset="0" />
			<stop
   id="stop752"
   style="stop-color:#DEDFDE"
   offset="0.5808" />
			<stop
   id="stop754"
   style="stop-color:#D8D9D7"
   offset="0.79" />
			<stop
   id="stop756"
   style="stop-color:#CECDCC"
   offset="0.9386" />
			<stop
   id="stop758"
   style="stop-color:#C7C6C4"
   offset="1" />
		</linearGradient>
		<path
   style="fill:url(#SVGID_3_)"
   inkscape:connector-curvature="0"
   id="path761"
   d="M 763.3,188.3 H 260.7 c -21,0 -38,17 -38,38 v 548.4 c 0,21 17,38 38,38 h 502.7 c 21,0 38,-17 38,-38 V 226.3 c -0.1,-21 -17.1,-38 -38.1,-38 z"
   class="st5" />
	</g>
</g></g>
<text
   xml:space="preserve"
   style="font-style:italic;font-variant:normal;font-weight:normal;font-stretch:normal;font-size:76.3496933px;line-height:125%;font-family:C059;-inkscape-font-specification:'C059 Italic';letter-spacing:0px;word-spacing:0px;fill:#000000;fill-opacity:0.11538462;stroke:none;stroke-width:1.90874219px;stroke-linecap:butt;stroke-linejoin:miter;stroke-opacity:1;"
   x="51.979939"
   y="94.120613"
   id="text1198"><tspan
     sodipodi:role="line"
     id="tspan1196"
     x="51.979939"
     y="94.120613"
     style="stroke-width:1.90874219px;fill:#000000;fill-opacity:0.11538462;">i</tspan></text>
<path
   style="font-style:italic;font-variant:normal;font-weight:normal;font-stretch:normal;font-size:76.3496933px;line-height:125%;font-family:C059;-inkscape-font-specification:'C059 Italic';letter-spacing:0px;word-spacing:0px;fill:#000000;fill-opacity:0.03296703;stroke:none;stroke-width:1.90874219px;stroke-linecap:butt;stroke-linejoin:miter;stroke-opacity:1"
   d="M 64.158203 43.341797 C 64.146094 43.471554 64.119141 43.597347 64.119141 43.730469 C 64.119141 45.94461 65.951875 47.853516 68.166016 47.853516 C 70.532856 47.853516 72.365234 46.02096 72.365234 43.730469 C 72.365234 43.598671 72.338044 43.474205 72.326172 43.345703 C 72.131966 45.45093 70.397036 47.085938 68.166016 47.085938 C 66.08094 47.085938 64.354735 45.388213 64.158203 43.341797 z M 69.617188 58.236328 L 69.384766 58.253906 L 61.523438 84.726562 C 60.91264 86.864354 60.607422 88.238456 60.607422 89.001953 C 60.607422 89.12897 60.620895 89.250195 60.640625 89.367188 C 60.716737 88.560082 61.001753 87.318082 61.523438 85.492188 L 69.617188 58.236328 z M 54.738281 61.363281 L 54.652344 62.130859 L 56.484375 62.130859 C 59.439409 62.130859 60.679352 62.752786 60.810547 64.234375 C 60.826149 64.059455 60.835938 63.890863 60.835938 63.730469 C 60.835938 62.050775 59.614712 61.363281 56.484375 61.363281 L 54.738281 61.363281 z M 73.136719 83.226562 C 71.242761 86.110751 70.063171 87.7256 68.777344 89.154297 C 65.723356 92.666383 62.591808 94.421875 59.232422 94.421875 C 56.459938 94.421875 54.25173 92.538108 54.060547 90.039062 C 54.056854 90.177416 54.041016 90.309875 54.041016 90.455078 C 54.041016 93.127317 56.331134 95.189453 59.232422 95.189453 C 62.591808 95.189453 65.723356 93.433961 68.777344 89.921875 C 70.151638 88.394881 71.371974 86.714677 73.509766 83.431641 L 73.136719 83.226562 z "
   id="text1202" /><path
   style="font-style:italic;font-variant:normal;font-weight:normal;font-stretch:normal;font-size:76.3496933px;line-height:125%;font-family:C059;-inkscape-font-specification:'C059 Italic';letter-spacing:0px;word-spacing:0px;fill:#ffffff;fill-opacity:0.26923078;stroke:none;stroke-width:1.90874219px;stroke-linecap:butt;stroke-linejoin:miter;stroke-opacity:1"
   d="M 68.310547 39.267578 C 66.020056 39.267578 64.1875 41.100134 64.1875 43.390625 C 64.1875 43.451155 64.202369 43.508318 64.205078 43.568359 C 64.29893 41.363377 66.080921 39.623047 68.310547 39.623047 C 70.540173 39.623047 72.322164 41.363377 72.416016 43.568359 C 72.418579 43.508167 72.433594 43.45149 72.433594 43.390625 C 72.433594 41.100134 70.601038 39.267578 68.310547 39.267578 z M 69.683594 57.896484 L 55.025391 59.042969 L 54.720703 61.791016 L 54.759766 61.791016 L 55.025391 59.396484 L 69.576172 58.259766 L 69.683594 57.896484 z M 60.892578 64.390625 C 60.863911 65.100625 60.699458 65.93169 60.216797 67.517578 L 55.789062 82.40625 C 54.338418 87.29263 54.109375 88.361145 54.109375 90.117188 C 54.109375 90.173945 54.115137 90.228964 54.117188 90.285156 C 54.134755 88.636766 54.391905 87.465979 55.789062 82.759766 L 60.216797 67.871094 C 60.751245 66.115051 60.904297 65.275216 60.904297 64.511719 C 60.904297 64.468052 60.894241 64.432955 60.892578 64.390625 z M 71.210938 81.794922 C 67.240753 87.826548 64.034098 91.033203 61.972656 91.033203 C 61.264179 91.033203 60.759458 90.438426 60.689453 89.621094 C 60.687291 89.670875 60.675781 89.739731 60.675781 89.785156 C 60.675781 90.701353 61.209159 91.388672 61.972656 91.388672 C 64.034098 91.388672 67.240753 88.182016 71.210938 82.150391 L 73.40625 83.353516 C 73.468483 83.258299 73.514286 83.189835 73.578125 83.091797 L 71.210938 81.794922 z "
   id="text1211" /></svg>