<svg height="128" viewBox="0 0 128 128" width="128" xmlns="http://www.w3.org/2000/svg" xmlns:xlink="http://www.w3.org/1999/xlink"><linearGradient id="a" gradientUnits="userSpaceOnUse" x1="66.01551341119" x2="64.33359152003" y1="119.34706540717" y2="1.33853303141"><stop offset="0" stop-color="#cccdd1"/><stop offset="1" stop-color="#f7f9f9"/></linearGradient><linearGradient id="b" gradientUnits="userSpaceOnUse" x1="64.42871085545" x2="63.70264686264" y1="9.49702762746" y2="114.03049919903"><stop offset="0" stop-color="#c2aaf1"/><stop offset="1" stop-color="#8a43ce"/></linearGradient><filter id="c" color-interpolation-filters="sRGB" height="1.548971" width="1.559937" x="-.279969" y="-.274486"><feGaussianBlur stdDeviation="7.5012652"/></filter><circle cx="64.333229" cy="64.22612" fill="url(#b)" r="60.565502" stroke="#cccdd1" stroke-width="4.644855"/><path d="m64.333592 1.3385313c-34.704539 0-62.8882778 28.1824517-62.8882778 62.8869837 0 34.704538 28.1837388 62.888275 62.8882778 62.888275 34.704538 0 62.886978-28.183737 62.886978-62.888275 0-34.704532-28.18244-62.8869837-62.886978-62.8869837zm0 4.644855c32.194272 0 58.242128 26.0478627 58.242128 58.2421287 0 32.194272-26.047856 58.243425-58.242128 58.243425-32.194267 0-58.2434228-26.049153-58.2434228-58.243425 0-32.194266 26.0491558-58.2421287 58.2434228-58.2421287z" fill="url(#a)"/><g stroke-width="2.563069"><path d="m76.555941 31.457227c-.231804-.02602-.464848-.01896-.720863.01999-.341351.05211-.725124.159653-1.211452.305364-3.481962 1.043221-4.780723 4.110848-4.780723 9.871823 0 2.717661-.286148 5.570293-.635761 6.337588-.368539.808851-1.725349 1.948797-3.233874 2.71325-5.037982 2.55292-12.401089 8.807844-20.008961 16.304522-4.229016 4.167417-7.565712 7.997533-9.291127 9.135939-3.128429 2.064054-3.128879 2.06729-1.586899 2.377848l1.541846.315378-1.456743.405485c-.802055.22491-1.456744.611766-1.456744.856026 0 .576222 4.103312-.136458 9.065855-2.197631 3.76803-1.565108 4.144279-1.907819 15.063037-2.963549 3.932126-.38037 4.050045-.245748 1.842207 2.217654-.94585 1.055283-.920919 1.205177 1.136363 5.97716 2.092863 4.854474 2.783306 9.169032 1.581893 9.911868-.870562.538019-.541761 1.474649 1.091305 2.457949-.0047 0-.01021 0-.01513 0 2.489231 1.39242 5.101554 1.67701 7.769409 1.46179 1.204184-.0487 1.175524-.20356.425509-.77093-.566142-.42831-1.595168-.78093-2.28774-.78093-2.19317 0-4.384282-1.45679-4.014807-2.928516.181029-.721604.06429-1.631615-.26031-2.022424-.371892-.448201-.570962-3.188702-.535643-7.413877.04821-5.766897.201457-6.885969 1.081294-8.004584.562643-.715307 1.332335-1.901385 1.712051-2.633154.379713-.732041 2.902571-2.3915 4.665588-3.689418 1.763007-1.298094 3.827173-3.17571 4.58549-4.169993 3.155802-4.137462 4.093985-10.190355 2.758304-17.776285-.984737-5.592653-1.536097-6.428854 1.246492-7.749281 3.401886-1.614293 11.58585.0051 16.174381 2.37785.84708.438051 1.374988.531541 1.176408.210247-1.102037-1.783115-6.195466-4.464927-13.225851-5.336386-1.763868-.21863-3.828233-2.501335-5.441516-3.504197-1.36225-.846807-2.057885-1.238532-2.753298-1.316575zm-13.651346 43.857517c.426448-.142123.582109.635351.31037 2.217657-.212889 1.239708-.363877 3.031719-.335401 3.979764.05995 1.99703-.206942 2.161229-1.02623.630756-.816337-1.525436-.805937-3.999226.02512-5.551649.413394-.772468.770356-1.19125 1.026229-1.276528z" fill-opacity=".440909" filter="url(#c)" opacity=".329"/><path d="m76.555941 31.457227c-.231804-.02602-.464848-.01896-.720863.01999-.341351.05211-.725124.159653-1.211452.305364-3.481962 1.043221-4.780723 4.110848-4.780723 9.871823 0 2.717661-.286148 5.570293-.635761 6.337588-.368539.808851-1.725349 1.948797-3.233874 2.71325-5.037982 2.55292-12.401089 8.807844-20.008961 16.304522-4.229016 4.167417-7.565712 7.997533-9.291127 9.135939-3.128429 2.064054-3.128879 2.06729-1.586899 2.377848l1.541846.315378-1.456743.405485c-.802055.22491-1.456744.611766-1.456744.856026 0 .576222 4.103312-.136458 9.065855-2.197631 3.76803-1.565108 4.144279-1.907819 15.063037-2.963549 3.932126-.38037 4.050045-.245748 1.842207 2.217654-.94585 1.055283-.920919 1.205177 1.136363 5.97716 2.092863 4.854474 2.783306 9.169032 1.581893 9.911868-.870562.538019-.541761 1.474649 1.091305 2.457949-.0047 0-.01021 0-.01513 0 2.489231 1.39242 5.101554 1.67701 7.769409 1.46179 1.204184-.0487 1.175524-.20356.425509-.77093-.566142-.42831-1.595168-.78093-2.28774-.78093-2.19317 0-4.384282-1.45679-4.014807-2.928516.181029-.721604.06429-1.631615-.26031-2.022424-.371892-.448201-.570962-3.188702-.535643-7.413877.04821-5.766897.201457-6.885969 1.081294-8.004584.562643-.715307 1.332335-1.901385 1.712051-2.633154.379713-.732041 2.902571-2.3915 4.665588-3.689418 1.763007-1.298094 3.827173-3.17571 4.58549-4.169993 3.155802-4.137462 4.093985-10.190355 2.758304-17.776285-.984737-5.592653-1.536097-6.428854 1.246492-7.749281 3.401886-1.614293 11.58585.0051 16.174381 2.37785.84708.438051 1.374988.531541 1.176408.210247-1.102037-1.783115-6.195466-4.464927-13.225851-5.336386-1.763868-.21863-3.828233-2.501335-5.441516-3.504197-1.36225-.846807-2.057885-1.238532-2.753298-1.316575zm-13.651346 43.857517c.426448-.142123.582109.635351.31037 2.217657-.212889 1.239708-.363877 3.031719-.335401 3.979764.05995 1.99703-.206942 2.161229-1.02623.630756-.816337-1.525436-.805937-3.999226.02512-5.551649.413394-.772468.770356-1.19125 1.026229-1.276528z" fill="#fff"/></g></svg>