<svg height="128" viewBox="0 0 128 128" width="128" xmlns="http://www.w3.org/2000/svg" xmlns:xlink="http://www.w3.org/1999/xlink"><linearGradient id="a" gradientUnits="userSpaceOnUse" x1="1.445314" x2="127.22057" y1="64.226161" y2="64.226161"><stop offset="0" stop-color="#ff8080"/><stop offset=".5" stop-color="#dbdc87"/><stop offset="1" stop-color="#87e36b"/></linearGradient><path d="m64.333592 1.3385313c-34.704539 0-62.8882778 28.1824517-62.8882778 62.8869837 0 34.704538 28.1837388 62.888275 62.8882778 62.888275 34.704538 0 62.886978-28.183737 62.886978-62.888275 0-34.704532-28.18244-62.8869837-62.886978-62.8869837z" fill="url(#a)"/><path d="m64.332031 7.4628906c-31.34958.0003139-56.7633576 25.4140914-56.7636716 56.7636714.0003159 31.349582 25.4140926 56.763358 56.7636716 56.763668 31.350343.00077 56.765309-25.413325 56.765629-56.763668-.00031-31.350341-25.415285-56.7644385-56.765629-56.7636714zm4.220703 8.4648434c52.971196 64.397051 38.329396 89.754796-43.923828 76.074219 55.222981-1.932609 69.864777-27.290344 43.923828-76.074219zm-3.654296 16.904297-.027344.046875c2.774872-.044109 5.71382.004223 8.808594.142578.949642 2.567014 1.734048 5.000539 2.36914 7.306641-23.699181 6.774049-32.532357 22.166357-26.523437 46.103516-2.419788.676291-4.882832 1.235772-7.337891 1.6875-23.188958-36.199238-15.686023-54.645823 22.710938-55.28711zm20.246093 1.050781c5.843045.592803 12.135794 1.442609 18.892579 2.564454-5.874608.199693-11.284366.670082-16.238282 1.404296-.848149-1.303268-1.73305-2.625619-2.654297-3.96875zm-36.632812 63.587891c1.596427.128238 3.156614.234543 4.679687.320313 1.846832 4.652314 4.164417 9.560954 6.910156 14.734374-4.337797-5.28004-8.172152-10.29903-11.589843-15.054687z" fill="#fff"/></svg>