<?xml version="1.0" encoding="UTF-8" standalone="no"?>
<!-- Created with Inkscape (http://www.inkscape.org/) -->

<svg
   xmlns:dc="http://purl.org/dc/elements/1.1/"
   xmlns:cc="http://creativecommons.org/ns#"
   xmlns:rdf="http://www.w3.org/1999/02/22-rdf-syntax-ns#"
   xmlns:svg="http://www.w3.org/2000/svg"
   xmlns="http://www.w3.org/2000/svg"
   xmlns:xlink="http://www.w3.org/1999/xlink"
   xmlns:sodipodi="http://sodipodi.sourceforge.net/DTD/sodipodi-0.dtd"
   xmlns:inkscape="http://www.inkscape.org/namespaces/inkscape"
   version="1.1"
   id="svg2"
   width="170.66667"
   height="170.66667"
   viewBox="0 0 170.66667 170.66667"
   sodipodi:docname="effecs.svg"
   inkscape:version="0.92.4 5da689c313, 2019-01-14">
  <metadata
     id="metadata8">
    <rdf:RDF>
      <cc:Work
         rdf:about="">
        <dc:format>image/svg+xml</dc:format>
        <dc:type
           rdf:resource="http://purl.org/dc/dcmitype/StillImage" />
        <dc:title></dc:title>
      </cc:Work>
    </rdf:RDF>
  </metadata>
  <defs
     id="defs6">
    <linearGradient
       inkscape:collect="always"
       id="linearGradient1075">
      <stop
         style="stop-color:#68ff7a;stop-opacity:1"
         offset="0"
         id="stop1071" />
      <stop
         id="stop1109"
         offset="0.69490701"
         style="stop-color:#0fe1ff;stop-opacity:0.53612167" />
      <stop
         style="stop-color:#0ffff0;stop-opacity:0;"
         offset="1"
         id="stop1073" />
    </linearGradient>
    <linearGradient
       inkscape:collect="always"
       id="linearGradient1001">
      <stop
         style="stop-color:#7507eb;stop-opacity:1;"
         offset="0"
         id="stop997" />
      <stop
         style="stop-color:#7507eb;stop-opacity:0;"
         offset="1"
         id="stop999" />
    </linearGradient>
    <linearGradient
       inkscape:collect="always"
       id="linearGradient880">
      <stop
         style="stop-color:#eaebf2;stop-opacity:1"
         offset="0"
         id="stop876" />
      <stop
         id="stop884"
         offset="0.22201402"
         style="stop-color:#f5f5f8;stop-opacity:1" />
      <stop
         style="stop-color:#cbcdd5;stop-opacity:1;"
         offset="0.75727856"
         id="stop886" />
      <stop
         id="stop888"
         offset="0.89709383"
         style="stop-color:#e2e3e7;stop-opacity:1" />
      <stop
         style="stop-color:#b9bbc5;stop-opacity:1"
         offset="1"
         id="stop878" />
    </linearGradient>
    <linearGradient
       inkscape:collect="always"
       id="linearGradient851">
      <stop
         style="stop-color:#0d0f13;stop-opacity:1"
         offset="0"
         id="stop847" />
      <stop
         id="stop863"
         offset="0.11931818"
         style="stop-color:#2c2f33;stop-opacity:1;" />
      <stop
         id="stop855"
         offset="0.23863636"
         style="stop-color:#4f5458;stop-opacity:1" />
      <stop
         style="stop-color:#131924;stop-opacity:1"
         offset="0.41254544"
         id="stop861" />
      <stop
         style="stop-color:#0d1013;stop-opacity:1"
         offset="0.77603638"
         id="stop857" />
      <stop
         id="stop859"
         offset="0.91041452"
         style="stop-color:#868686;stop-opacity:0.92015207" />
      <stop
         style="stop-color:#2c2e33;stop-opacity:1"
         offset="1"
         id="stop849" />
    </linearGradient>
    <linearGradient
       id="linearGradient839"
       inkscape:collect="always">
      <stop
         id="stop835"
         offset="0"
         style="stop-color:#448eff;stop-opacity:1;" />
      <stop
         id="stop837"
         offset="1"
         style="stop-color:#5eacff;stop-opacity:1" />
    </linearGradient>
    <linearGradient
       inkscape:collect="always"
       xlink:href="#linearGradient839"
       id="linearGradient825"
       x1="102.27081"
       y1="146.5052"
       x2="89.998306"
       y2="253.88956"
       gradientUnits="userSpaceOnUse"
       gradientTransform="translate(-244.9386,0.51135407)" />
    <linearGradient
       inkscape:collect="always"
       xlink:href="#linearGradient851"
       id="linearGradient853"
       x1="-42.953743"
       y1="110.32689"
       x2="-30.425568"
       y2="110.32689"
       gradientUnits="userSpaceOnUse"
       gradientTransform="translate(-14.096032,118.48088)" />
    <linearGradient
       inkscape:collect="always"
       xlink:href="#linearGradient880"
       id="linearGradient882"
       x1="165.05263"
       y1="35.245499"
       x2="176.52324"
       y2="39.464172"
       gradientUnits="userSpaceOnUse"
       gradientTransform="rotate(0.55044164,-10689.419,-28688.12)" />
    <linearGradient
       inkscape:collect="always"
       xlink:href="#linearGradient839"
       id="linearGradient982"
       gradientUnits="userSpaceOnUse"
       gradientTransform="rotate(-12.24614,-29.567382,1379.7951)"
       x1="102.27081"
       y1="146.5052"
       x2="89.998306"
       y2="253.88956" />
    <linearGradient
       inkscape:collect="always"
       xlink:href="#linearGradient1001"
       id="linearGradient1056"
       gradientUnits="userSpaceOnUse"
       x1="227.34183"
       y1="208.51694"
       x2="33.519783"
       y2="237.77237" />
    <linearGradient
       inkscape:collect="always"
       xlink:href="#linearGradient1075"
       id="linearGradient1107"
       gradientUnits="userSpaceOnUse"
       x1="-94.010727"
       y1="98.717949"
       x2="-200.41173"
       y2="138.09221" />
    <linearGradient
       inkscape:collect="always"
       xlink:href="#linearGradient1001"
       id="linearGradient1285"
       gradientUnits="userSpaceOnUse"
       x1="227.34183"
       y1="208.51694"
       x2="33.519783"
       y2="237.77237"
       gradientTransform="translate(-240.33642,-80.282591)" />
  </defs>
  <sodipodi:namedview
     pagecolor="#ffffff"
     bordercolor="#666666"
     borderopacity="1"
     objecttolerance="10"
     gridtolerance="10"
     guidetolerance="10"
     inkscape:pageopacity="0"
     inkscape:pageshadow="2"
     inkscape:window-width="1920"
     inkscape:window-height="1031"
     id="namedview4"
     showgrid="false"
     inkscape:zoom="0.48889803"
     inkscape:cx="12.47593"
     inkscape:cy="18.945175"
     inkscape:window-x="0"
     inkscape:window-y="26"
     inkscape:window-maximized="1"
     inkscape:current-layer="svg2" />
  <g
     transform="translate(-240.33642,-80.282591)"
     style="opacity:1"
     id="g1068" />
  <g
     id="g1358"
     transform="translate(241.53673,-104.1356)">
    <path
       style="fill:url(#linearGradient982);fill-opacity:1;stroke:none;stroke-width:1px;stroke-linecap:butt;stroke-linejoin:miter;stroke-opacity:1"
       d="m -234.5144,152.72313 5.79674,112.28938 157.645612,-19.82742 -23.437954,-111.59992 z"
       id="path974"
       inkscape:connector-curvature="0"
       sodipodi:nodetypes="ccccc" />
    <path
       style="color:#000000;font-style:normal;font-variant:normal;font-weight:normal;font-stretch:normal;font-size:medium;line-height:normal;font-family:sans-serif;font-variant-ligatures:normal;font-variant-position:normal;font-variant-caps:normal;font-variant-numeric:normal;font-variant-alternates:normal;font-feature-settings:normal;text-indent:0;text-align:start;text-decoration:none;text-decoration-line:none;text-decoration-style:solid;text-decoration-color:#000000;letter-spacing:normal;word-spacing:normal;text-transform:none;writing-mode:lr-tb;direction:ltr;text-orientation:mixed;dominant-baseline:auto;baseline-shift:baseline;text-anchor:start;white-space:normal;shape-padding:0;clip-rule:nonzero;display:inline;overflow:visible;visibility:visible;opacity:1;isolation:auto;mix-blend-mode:normal;color-interpolation:sRGB;color-interpolation-filters:linearRGB;solid-color:#000000;solid-opacity:1;vector-effect:none;fill:#ffffff;fill-opacity:1;fill-rule:nonzero;stroke:none;stroke-width:1px;stroke-linecap:butt;stroke-linejoin:miter;stroke-miterlimit:4;stroke-dasharray:none;stroke-dashoffset:0;stroke-opacity:1;color-rendering:auto;image-rendering:auto;shape-rendering:auto;text-rendering:auto;enable-background:accumulate"
       d="m -228.45773,155.48508 0.0771,1.76402 c -0.58644,0.0775 -1.47586,0.19934 -2.04696,0.27441 0.35957,0.0657 1.07206,0.0752 2.06088,0.0384 l 4.14162,94.47637 -0.89338,0.25786 0.89964,-0.10931 0.30905,7.04994 -2.10822,0.83933 c 0,0 2.07269,-0.25568 2.13334,-0.26319 l 0.0625,1.41144 0.99993,-0.0432 c -0.0307,-0.34133 -0.0647,-0.99244 -0.0975,-1.48977 2.89553,-0.35844 35.16406,-4.35175 70.58642,-8.73944 18.48861,-2.29015 37.04569,-4.58959 51.11454,-6.33378 12.689251,-1.57315 19.749333,-2.44947 21.820216,-2.70951 0.208045,1.09999 0.584277,2.16174 1.582664,2.89022 l -0.611588,-3.01106 c 0.09288,-0.012 1.36752,-0.1698 1.401179,-0.17422 l -0.129204,-0.99124 c -0.03039,0.004 -1.374388,0.17121 -1.471132,0.18341 l -1.360696,-6.70177 2.401311,-0.60317 -2.462536,0.30266 -17.456674,-85.94227 c -0.158694,-2.40964 -0.432697,-4.59009 -1.13873,-6.64602 0.675646,-0.0891 1.692652,-0.22764 2.348189,-0.31381 -0.392142,-0.0889 -1.303727,-0.09 -2.480512,-0.0472 -0.352479,-0.94808 -0.79246,-1.87254 -1.376657,-2.77905 l 0.565263,2.82525 c -16.486033,0.83225 -88.784263,11.06031 -128.284173,16.28026 -0.19277,-1.07105 -0.38779,-1.70411 -0.58587,-1.69556 z m 0.64857,2.0397 c 15.18407,-0.72192 88.15425,-10.88974 128.30663,-16.1952 l 18.494342,92.59224 -140.190172,17.24559 -2.11047,0.60798 c -0.99829,-23.98819 -2.6067,-82.6496 -4.50033,-94.25061 z m 7.57191,3.47694 c -0.005,-0.0237 0.0466,0.34685 0.0939,0.81903 0.0109,0.10844 0.0286,0.30152 0.0407,0.42687 l -1.48882,0.20323 0.13537,0.99191 1.44642,-0.19604 c 0.0147,0.16163 0.0245,0.25888 0.0401,0.433 0.0939,1.04729 0.20929,2.41758 0.32075,3.73373 l -2.99499,0.4462 0.14681,0.98942 2.93309,-0.43677 c 0.018,0.21398 0.034,0.38423 0.0519,0.59832 0.19656,2.34775 0.26538,3.20874 0.38195,4.64179 l -1.47142,0.2374 0.16062,0.98843 1.39232,-0.22423 c 0.0336,0.4144 0.15629,1.89872 0.15629,1.89872 l 0.99588,-0.0803 c 0,0 -0.12537,-1.53086 -0.16142,-1.97756 l 30.68442,-4.94527 -0.079,-0.49251 0.49032,-0.0982 -0.37012,-1.85232 c 0.77586,0.12099 1.30077,0.41755 1.71618,0.81668 0.74404,0.71484 1.1912,1.92438 1.76452,3.25846 0.57331,1.33409 1.321,2.80551 2.87579,3.74675 1.04751,0.63414 2.4195,0.98792 4.23616,0.98121 0.0712,0.47399 0.12684,0.86208 0.19851,1.33795 0.51033,3.38887 0.79331,5.2259 1.01508,6.67485 l -0.33434,0.0526 0.15639,0.98734 0.32821,-0.0532 c 0.0247,0.16088 0.18934,1.25 0.18934,1.25 l 0.9882,-0.15247 c 0,0 -0.16537,-1.09192 -0.19018,-1.25383 l 30.87054,-4.9257 -0.0794,-0.49442 0.49566,-0.0736 -2.39206,-16.13115 -0.49375,0.0732 -0.0828,-0.49167 -30.82074,5.13675 c -0.0152,-0.12975 -0.0525,-0.40485 -0.0538,-0.43202 l -0.99867,0.0489 c 0.005,0.0978 0.0438,0.37257 0.0649,0.54752 l -1.22105,0.20302 0.16401,0.98569 1.18435,-0.1971 c 0.0743,0.54038 0.15675,1.13565 0.26526,1.88506 0.14458,0.99895 0.34295,2.31421 0.52387,3.52776 -1.47889,-0.0209 -2.50117,-0.32488 -3.23706,-0.77037 -1.14713,-0.69444 -1.72975,-1.78813 -2.27375,-3.054 -0.54401,-1.26587 -1.00045,-2.6911 -2.10316,-3.75056 -0.72542,-0.69697 -1.72678,-1.14634 -3.05759,-1.25102 l -1.41341,-7.09203 -0.49075,0.0963 -0.0674,-0.49501 -29.50554,4.01388 c -0.011,-0.11407 -0.027,-0.2914 -0.037,-0.39169 -0.0479,-0.47843 -0.0687,-0.73068 -0.11212,-0.93099 z m 1.21937,2.10967 29.08199,-3.95792 1.28071,6.42533 c -0.41851,0.0199 -0.85544,0.0592 -1.33047,0.14089 a 0.750075,0.750075 0 0 0 -0.0749,0.0142 0.750075,0.750075 0 0 0 0.32794,1.46374 c 0.51896,-0.0893 0.96769,-0.13216 1.37138,-0.14577 l 0.31791,1.59384 -30.09796,4.84796 c -0.11653,-1.43812 -0.18005,-2.25596 -0.37342,-4.5657 -0.0198,-0.23701 -0.038,-0.4261 -0.0579,-0.66295 l 23.13835,-3.4413 -0.14681,-0.98942 -23.07645,3.43187 c -0.10992,-1.29374 -0.22385,-2.64434 -0.31637,-3.67672 -0.0172,-0.19174 -0.0278,-0.30152 -0.0438,-0.47815 z m 42.25421,5.72627 30.35577,-5.05982 2.24484,15.13984 -30.37611,4.84638 c -0.22203,-1.45102 -0.5038,-3.28302 -1.01343,-6.66722 -0.0657,-0.43624 -0.11688,-0.7907 -0.18211,-1.22559 0.61025,-0.0432 1.25423,-0.11395 1.9599,-0.23353 a 0.750075,0.750075 0 0 0 0.27992,-0.10077 1.5387547,1.6355977 77.75386 0 0 -0.0774,0.8682 1.5387547,1.6355977 77.75386 0 0 1.92509,1.15305 1.5387547,1.6355977 77.75386 0 0 1.27112,-1.85079 l -8.5e-4,-0.004 a 1.5387547,1.6355977 77.75386 0 0 -1.92891,-1.15224 1.5387547,1.6355977 77.75386 0 0 -0.8346,0.45496 0.750075,0.750075 0 0 0 -0.88347,-0.84752 c -0.71249,0.12078 -1.34706,0.18997 -1.93127,0.22732 -0.18742,-1.25714 -0.39151,-2.61152 -0.54068,-3.64202 -0.10993,-0.75965 -0.19375,-1.36552 -0.26791,-1.90647 z m -11.92714,11.34667 0.17224,1.63145 -31.44437,5.25612 0.0832,0.49358 -0.49484,0.0774 2.99484,19.16611 -1.56765,0.20835 0.13301,0.99042 1.58864,-0.21291 0.17759,1.14064 0.98776,-0.15443 -0.17457,-1.1173 32.83931,-4.38172 -0.13156,-0.99273 -1.80847,0.24063 -2.09095,-19.88193 1.01242,-0.16981 -0.16442,-0.9876 -0.95284,0.15882 -0.16471,-1.56912 z m 55.34031,-11.40408 -0.97555,0.21993 0.39039,1.734 -2.35222,0.39662 0.16587,0.98529 2.40606,-0.40632 5.21616,23.18483 c -1.63767,0.78002 -2.77118,1.75827 -3.53548,2.86391 -1.16798,1.68957 -1.48112,3.57758 -1.76739,5.31017 -0.28627,1.73259 -0.55347,3.30676 -1.40749,4.54653 -0.85403,1.23976 -2.30901,2.26473 -5.31274,2.83396 a 0.750075,0.750075 0 1 0 0.27954,1.47225 c 3.25071,-0.61603 5.16931,-1.85869 6.26912,-3.45525 1.09981,-1.59657 1.36666,-3.42871 1.65157,-5.15312 0.28493,-1.72442 0.58093,-3.34504 1.51949,-4.70275 0.56849,-0.82235 1.3865,-1.57898 2.63958,-2.22178 l 3.74845,16.66219 c -0.11672,0.0171 -1.42276,0.21292 -1.42276,0.21292 l 0.14681,0.98943 c 0,0 1.36778,-0.20376 1.49653,-0.22291 l 0.34534,1.53592 0.97555,-0.21993 -0.33001,-1.46529 c 1.92529,-0.28592 6.84115,-1.01426 13.88801,-2.07306 4.15454,-0.62423 8.36862,-1.26113 11.667613,-1.76901 2.378578,-0.36615 3.39263,-0.53871 4.466562,-0.71963 l 0.471266,2.25406 0.978942,-0.2043 -0.461324,-2.20825 c 0.11716,-0.0213 0.671113,-0.10371 0.739725,-0.1186 l -0.212112,-0.97725 c -0.04737,0.0103 -0.628541,0.0983 -0.732083,0.11694 l -8.874549,-42.47072 -0.48947,0.10214 -0.0832,-0.49359 -31.1043,5.24826 z m -85.96059,19.19544 30.89691,-5.16328 2.08814,19.85057 -30.06334,4.01303 z m 47.8766,-8.98664 a 1.5387547,1.6355977 77.75386 0 0 -1.26688,1.85188 1.5387547,1.6355977 77.75386 0 0 1.9251,1.15306 1.5387547,1.6355977 77.75386 0 0 1.27112,-1.85081 l -8.5e-4,-0.004 a 1.5387547,1.6355977 77.75386 0 0 -1.92851,-1.15032 z m 38.7057,-7.44577 30.57636,-5.15765 8.766503,41.95456 c -1.043612,0.17473 -2.042487,0.34519 -4.414625,0.71036 -3.296738,0.50751 -7.509878,1.14404 -11.663778,1.76816 -7.08296,1.06423 -12.07676,1.80502 -13.95947,2.08459 l -3.81084,-16.94043 c 0.58395,-0.23358 1.25138,-0.44499 2.00277,-0.63457 a 1.5387547,1.6355977 77.75386 0 0 1.70495,0.64523 1.5387547,1.6355977 77.75386 0 0 1.27112,-1.85079 l -8.5e-4,-0.004 a 1.5387547,1.6355977 77.75386 0 0 -1.9285,-1.15032 1.5387547,1.6355977 77.75386 0 0 -1.12549,0.84587 0.75025476,0.75025476 0 0 0 -0.15137,0.0209 c -0.77434,0.18966 -1.46716,0.413 -2.10351,0.65843 z m 6.23644,8.23567 a 1.5387547,1.6355977 77.75386 0 0 -1.26687,1.85188 1.5387547,1.6355977 77.75386 0 0 1.92509,1.15305 1.5387547,1.6355977 77.75386 0 0 1.26962,-1.84847 l -0.001,-0.006 a 1.5387547,1.6355977 77.75386 0 0 -1.9266,-1.15073 z m -47.38938,25.18148 c -0.003,-0.0118 0.0236,0.1324 0.0493,0.31908 0.0258,0.18665 0.0596,0.44167 0.10008,0.75572 0.017,0.13188 0.0469,0.37362 0.066,0.5253 -0.2859,0.0477 -0.72205,0.11866 -0.96277,0.15904 -0.92092,0.15435 -1.44403,0.24149 -1.62776,0.28137 l 0.21211,0.97724 c 0.0371,-0.008 0.66228,-0.11929 1.58155,-0.27328 0.22991,-0.0385 0.64858,-0.10844 0.91996,-0.15373 0.0429,0.34726 0.0731,0.58734 0.12228,0.98674 0.10297,0.83739 0.2417,2.00607 0.36289,3.00708 l -0.67049,0.0876 0.12919,0.99124 0.66287,-0.086 c 0.0622,0.51573 0.11718,0.96512 0.18115,1.4976 -3.98559,1.47085 -5.18281,4.02036 -6.45705,6.20816 -0.99572,1.70957 -2.07718,3.28233 -4.8651,4.46359 l -1.08065,-8.15558 0.92138,-0.13798 -0.14867,-0.98902 -0.90419,0.13435 -0.18343,-1.37919 -0.99083,0.13115 0.18526,1.39678 -30.45344,4.54539 -0.0782,-1.27211 -0.99769,0.0626 0.0831,1.359 -2.13934,0.31844 0.14681,0.98943 2.0541,-0.30594 0.28073,4.58981 -2.19206,0.39782 0.17781,0.98469 2.0748,-0.37636 0.88253,14.43422 -1.64439,0.17705 0.10589,0.9943 1.59967,-0.17134 0.16582,2.71609 0.9981,-0.0608 -0.16813,-2.76355 32.17086,-3.46517 0.2259,1.70374 0.99083,-0.13115 -0.22284,-1.68042 1.48034,-0.15941 -0.10822,-0.99581 -1.50366,0.16248 -1.52898,-11.53782 c 3.39393,-1.38039 4.87417,-3.35368 5.96326,-5.22359 1.29107,-2.21669 2.0443,-4.14314 5.34421,-5.43297 0.0111,0.0888 0.0191,0.1585 0.0297,0.24737 0.44157,3.6871 0.65319,5.48432 0.86959,7.31201 l -1.55721,0.23802 0.15248,0.98819 1.52243,-0.23252 c 0.0435,0.36724 0.24594,2.06314 0.24594,2.06314 l 0.99414,-0.1159 c 0,0 -0.20507,-1.72048 -0.25,-2.10022 l 35.08682,-5.37119 -0.15062,-0.9886 -35.05397,5.36605 c -0.21753,-1.83685 -0.42648,-3.60735 -0.86593,-7.27682 -0.0198,-0.16509 -0.036,-0.29447 -0.0558,-0.45958 0.1183,-0.0365 0.21092,-0.0793 0.33486,-0.11463 a 0.750075,0.750075 0 0 0 -0.35977,-1.45484 0.750075,0.750075 0 0 0 -0.0511,0.0131 c -0.0378,0.0113 -0.0712,0.0226 -0.10859,0.0338 -0.0557,-0.46314 -0.10343,-0.85699 -0.15773,-1.30683 l 28.38952,-3.71368 -0.13114,-0.99081 -28.37766,3.71309 c -0.12095,-0.99803 -0.26043,-2.16346 -0.36315,-2.99902 -0.0511,-0.41542 -0.0826,-0.66856 -0.12717,-1.02766 0.60015,-0.0996 1.05153,-0.17584 1.77082,-0.29441 2.98847,-0.49258 6.89082,-1.13018 10.76553,-1.76306 7.7494,-1.26579 15.38835,-2.50864 15.38835,-2.50864 l -0.1602,-0.98652 c 0,0 -7.63887,1.24087 -15.38876,2.50673 -3.87496,0.63293 -7.77764,1.27266 -10.76704,1.76539 -0.70388,0.11604 -1.1436,0.1904 -1.73412,0.28849 -0.0177,-0.13995 -0.0443,-0.36559 -0.0601,-0.48861 -0.0406,-0.31584 -0.0756,-0.57306 -0.10215,-0.76528 -0.0266,-0.19221 -0.0399,-0.29417 -0.0616,-0.39433 z m -42.78887,16.29446 30.52297,-4.55648 1.10863,8.36735 c -0.89798,0.30941 -1.90772,0.59418 -3.14961,0.82953 a 0.75025476,0.75025476 0 1 0 0.27995,1.47416 c 1.15695,-0.21929 2.17024,-0.48783 3.06979,-0.79222 l 1.49504,11.28938 -32.10008,3.45981 -0.88599,-14.50542 27.90403,-5.05729 -0.1774,-0.98279 -27.78909,5.03435 z m 48.17412,-7.84605 a 1.5387547,1.6355977 77.75386 0 0 -1.26688,1.85188 1.5387547,1.6355977 77.75386 0 0 1.9251,1.15305 1.5387547,1.6355977 77.75386 0 0 1.27112,-1.8508 l -8.5e-4,-0.004 a 1.5387547,1.6355977 77.75386 0 0 -1.92851,-1.15032 z m -54.80134,38.66595 138.923363,-16.86672 3.449363,-0.8666 0.784791,3.9288 c 0.36517,0.70189 0.459335,1.66291 0.585013,2.64908 -2.037645,0.25548 -9.114005,1.13516 -21.78694,2.70629 -14.06878,1.74418 -32.62595,4.04363 -51.11454,6.33377 -36.87998,4.56826 -70.34108,8.88756 -70.51736,8.91032 -0.0984,-1.67654 -0.20802,-4.03348 -0.32365,-6.79495 z"
       id="path976"
       inkscape:connector-curvature="0" />
    <path
       id="path986"
       d="m -151.41797,141.36523 -67.41601,9.21485 -11.99805,73.45117 1.37695,26.66211 67.09766,5.97266 89.599608,-11.26758 0.05273,-7.98438 -19.19336,-91.39648 z"
       style="fill:#1a1a1a;fill-opacity:0.32699621;stroke:none;stroke-width:1.02578402px;stroke-linecap:butt;stroke-linejoin:miter;stroke-opacity:1"
       inkscape:connector-curvature="0" />
    <path
       sodipodi:nodetypes="ccccc"
       inkscape:connector-curvature="0"
       id="path817"
       d="m -214.51303,137.68433 -18.15307,110.96384 158.26408,14.06224 0.76703,-114.03197 z"
       style="fill:url(#linearGradient825);fill-opacity:1;stroke:none;stroke-width:1px;stroke-linecap:butt;stroke-linejoin:miter;stroke-opacity:1" />
    <path
       inkscape:connector-curvature="0"
       id="path841"
       d="m -209.18002,141.66812 -0.29883,1.74024 c -0.58953,-0.0487 -1.48456,-0.11825 -2.05859,-0.16602 0.33746,0.14044 1.03171,0.30089 2.00585,0.47461 l -15.99218,93.20508 -0.92774,0.0625 0.90235,0.084 -1.19336,6.95508 -2.23828,0.37305 c 0,0 2.07976,0.18978 2.14062,0.19531 l -0.23828,1.39258 0.98633,0.16992 c 0.0424,-0.34008 0.14728,-0.98358 0.2207,-1.47656 2.90567,0.2639 35.28697,3.20599 70.83399,6.43164 18.55368,1.68362 37.17624,3.37268 51.29492,4.65234 12.734195,1.15419 19.819505,1.79534 21.898425,1.98047 -0.03001,1.11909 0.11245,2.23649 0.9336,3.16016 l 0.04101,-3.07227 c 0.09331,0.008 1.37242,0.12413 1.40625,0.12695 l 0.08399,-0.99609 c -0.03045,-0.003 -1.37943,-0.12421 -1.47656,-0.13281 l 0.09179,-6.83789 2.47461,-0.0801 -2.4707,-0.22656 1.16992,-87.68946 c 0.35603,-2.38847 0.55076,-4.57742 0.29688,-6.73633 0.67918,0.0562 1.70242,0.13658 2.36132,0.19141 -0.36437,-0.17002 -1.25498,-0.36445 -2.41406,-0.57226 -0.14336,-1.00127 -0.37724,-1.99802 -0.75586,-3.00782 l -0.04687,2.88086 c -16.28743,-2.68357 -89.110035,-8.02355 -128.818355,-11.30078 0.0388,-1.08757 -0.0175,-1.74759 -0.21289,-1.78125 z m 0.20117,2.13086 c 14.99169,2.51523 88.45818,8.05661 128.822255,11.38867 l -1.5664,94.40821 -140.658195,-12.88282 -2.19141,0.14649 c 4.11261,-23.6541 14.98358,-81.32185 15.59375,-93.06055 z m 6.66211,5.00391 c 0,-0.0242 -0.028,0.34885 -0.082,0.82031 -0.0124,0.10827 -0.036,0.30072 -0.0508,0.42578 l -1.49805,-0.11719 -0.0781,0.99805 1.45508,0.11523 c -0.0199,0.16107 -0.031,0.25817 -0.0527,0.43164 -0.13042,1.04337 -0.30827,2.40696 -0.47852,3.7168 l -3.02148,-0.19922 -0.0664,0.99805 2.95899,0.19531 c -0.0278,0.21292 -0.0483,0.38269 -0.0762,0.59571 -0.3059,2.33602 -0.42127,3.19201 -0.61132,4.61718 l -1.48829,-0.0801 -0.0527,1 1.4082,0.0762 c -0.0551,0.41209 -0.25,1.88867 -0.25,1.88867 l 0.99024,0.13281 c 0,0 0.20219,-1.52262 0.26172,-1.9668 l 31.03515,1.67579 0.0273,-0.49805 0.5,0.008 0.0312,-1.88867 c 0.73254,0.2828 1.1826,0.68395 1.5039,1.16211 0.57548,0.8564 0.75591,2.13326 1.03321,3.55859 0.27729,1.42534 0.69586,3.02188 2.01562,4.27149 0.88917,0.8419 2.1549,1.47864 3.93164,1.85742 -0.031,0.4783 -0.0589,0.86937 -0.0898,1.34961 -0.2201,3.42001 -0.33321,5.27526 -0.42383,6.73828 l -0.33789,-0.0195 -0.0566,0.99804 0.33203,0.0176 c -0.01,0.16245 -0.0801,1.26172 -0.0801,1.26172 l 0.99805,0.0606 c 0,0 0.07,-1.10215 0.0801,-1.26563 l 31.21289,1.73438 0.0273,-0.5 0.5,0.0332 1.08398,-16.27148 -0.49804,-0.0332 0.0234,-0.49804 -31.20899,-1.51758 c 0.0127,-0.13001 0.0346,-0.40677 0.0391,-0.43359 l -0.98632,-0.16407 c -0.0161,0.0966 -0.0362,0.37339 -0.0527,0.54883 l -1.23633,-0.0606 -0.0488,0.99805 1.19921,0.0586 c -0.042,0.54385 -0.0877,1.14306 -0.14062,1.89844 -0.0706,1.00688 -0.15572,2.33429 -0.23633,3.5586 -1.44079,-0.33416 -2.37535,-0.84801 -3,-1.43946 -0.97372,-0.92196 -1.3111,-2.11434 -1.57422,-3.46679 -0.26312,-1.35246 -0.40687,-2.84208 -1.25976,-4.11133 -0.56108,-0.83498 -1.44434,-1.48652 -2.72266,-1.8711 l 0.12305,-7.23046 -0.5,-0.01 0.0391,-0.49805 -29.68555,-2.33593 c 0.0135,-0.1138 0.0354,-0.2905 0.0469,-0.39063 0.0547,-0.4777 0.0879,-0.72861 0.0879,-0.93359 z m 0.74414,2.32031 29.25976,2.30078 -0.11132,6.55078 c -0.41321,-0.0693 -0.84852,-0.12363 -1.33008,-0.14453 a 0.750075,0.750075 0 0 0 -0.0762,-0.002 0.750075,0.750075 0 0 0 0.01,1.5 c 0.5261,0.0228 0.97371,0.0761 1.3711,0.14843 l -0.0274,1.625 -30.4414,-1.64648 c 0.19116,-1.43012 0.30256,-2.24282 0.60351,-4.54102 0.0309,-0.23582 0.0532,-0.42447 0.084,-0.66015 l 23.34179,1.54492 0.0664,-0.99805 -23.2793,-1.54101 c 0.167,-1.28761 0.34214,-2.63165 0.47071,-3.66016 0.0239,-0.19101 0.0368,-0.30055 0.0586,-0.47656 z m 40.07812,14.55859 30.73829,1.49414 -1.01758,15.27149 -30.71289,-1.70703 c 0.0908,-1.4651 0.20403,-3.31518 0.42382,-6.73047 0.0283,-0.44026 0.0535,-0.7975 0.082,-1.23633 0.60553,0.0872 1.24986,0.15468 1.96484,0.1875 a 0.750075,0.750075 0 0 0 0.29492,-0.0391 1.6355977,1.5387547 0 0 0 -0.25976,0.83203 1.6355977,1.5387547 0 0 0 1.63671,1.53515 1.6355977,1.5387547 0 0 0 1.63477,-1.53906 v -0.004 a 1.6355977,1.5387547 0 0 0 -1.64062,-1.53516 1.6355977,1.5387547 0 0 0 -0.91211,0.26758 0.750075,0.750075 0 0 0 -0.6836,-1.01563 c -0.72189,-0.0331 -1.3567,-0.10008 -1.93554,-0.1875 0.0835,-1.26829 0.17133,-2.63514 0.24414,-3.67383 0.0537,-0.76569 0.1003,-1.37555 0.14257,-1.91992 z m -14.0625,8.5586 -0.17773,1.63086 -31.84375,-1.53321 -0.0234,0.5 -0.5,-0.0293 -1.13867,19.36523 -1.57617,-0.12891 -0.0801,0.9961 1.59766,0.1289 -0.0684,1.15235 0.99804,0.0586 0.0664,-1.1289 33.02148,2.68359 0.082,-0.99805 -1.81836,-0.14844 2.17382,-19.87304 1.0254,0.0488 0.0488,-1 -0.96484,-0.0469 0.17187,-1.56836 z m 56.5,0.59375 -1,0.008 0.0137,1.77734 -2.38282,-0.11133 -0.0469,0.99805 2.4375,0.11328 0.17969,23.76368 c -1.76586,0.4149 -3.08107,1.13046 -4.0625,2.04882 -1.49978,1.40339 -2.20626,3.18201 -2.85352,4.81446 -0.64726,1.63244 -1.24228,3.11412 -2.33984,4.14453 -1.09756,1.0304 -2.73685,1.72343 -5.79297,1.64258 a 0.750075,0.750075 0 1 0 -0.0391,1.49804 c 3.30741,0.0875 5.44593,-0.71992 6.85937,-2.04687 1.41344,-1.32696 2.06283,-3.06081 2.70703,-4.68555 0.64421,-1.62474 1.27723,-3.1457 2.48242,-4.27344 0.72998,-0.68305 1.68987,-1.24895 3.05078,-1.61133 l 0.12891,17.07813 c -0.1177,-0.008 -1.43555,-0.0937 -1.43555,-0.0937 l -0.0664,0.99805 c 0,0 1.37988,0.091 1.50976,0.0996 l 0.0117,1.57422 1,-0.008 -0.0117,-1.50195 c 1.94213,0.12896 6.90062,0.45991 14.01172,0.91992 4.19241,0.27121 8.445695,0.54265 11.777345,0.74609 2.40212,0.1467 3.4297,0.19316 4.51757,0.24415 l -0.01757,2.30273 1,0.008 0.01757,-2.25586 c 0.11902,0.004 0.67784,0.041 0.74805,0.041 v -1 c -0.04847,0 -0.63508,-0.0373 -0.74023,-0.041 l 0.33593,-43.38672 -0.5,-0.004 0.02344,-0.5 -31.509755,-1.46875 z m -88.07617,0.52539 31.28906,1.50781 -2.16992,19.8418 -30.23047,-2.45508 z m 48.69336,1.37304 a 1.6355977,1.5387547 0 0 0 -1.63086,1.54102 1.6355977,1.5387547 0 0 0 1.63672,1.53516 1.6355977,1.5387547 0 0 0 1.63477,-1.53907 v -0.004 a 1.6355977,1.5387547 0 0 0 -1.64063,-1.53321 z m 39.4043,0.9336 30.974605,1.44531 -0.33203,42.85938 c -1.05693,-0.0506 -2.06923,-0.0959 -4.46485,-0.24219 -3.32937,-0.20332 -7.581655,-0.47493 -11.773425,-0.7461 -7.14752,-0.46237 -12.18482,-0.79768 -14.08399,-0.92382 l -0.13086,-17.36328 c 0.62021,-0.1044 1.31729,-0.16943 2.0918,-0.19532 a 1.6355977,1.5387547 0 0 0 1.52929,0.99219 1.6355977,1.5387547 0 0 0 1.63477,-1.53906 v -0.004 a 1.6355977,1.5387547 0 0 0 -1.64062,-1.5332 1.6355977,1.5387547 0 0 0 -1.2793,0.58789 0.75025476,0.75025476 0 0 0 -0.15235,-0.0117 c -0.79695,0.0211 -1.52138,0.0924 -2.19531,0.19727 z m 4.34765,9.37109 a 1.6355977,1.5387547 0 0 0 -1.63085,1.54102 1.6355977,1.5387547 0 0 0 1.63671,1.53515 1.6355977,1.5387547 0 0 0 1.63282,-1.53711 v -0.006 a 1.6355977,1.5387547 0 0 0 -1.63868,-1.5332 z m -51.65234,14.55664 c 0,-0.0121 -0.005,0.13439 -0.0195,0.32227 -0.0144,0.18787 -0.0354,0.44427 -0.0625,0.75976 -0.0114,0.13247 -0.0334,0.37507 -0.0469,0.52735 -0.28952,-0.014 -0.73079,-0.0372 -0.9746,-0.0488 -0.9327,-0.0445 -1.4624,-0.0703 -1.6504,-0.0703 v 1 c 0.038,0 0.67251,0.0239 1.60352,0.0684 0.23286,0.0111 0.65683,0.0316 0.93164,0.0449 -0.0317,0.34847 -0.0531,0.58949 -0.0898,0.99023 -0.077,0.84017 -0.18931,2.01169 -0.28321,3.01563 l -0.67382,-0.0566 -0.084,0.99609 0.66602,0.0566 c -0.0486,0.51719 -0.0902,0.96801 -0.14063,1.50195 -4.20689,0.59199 -5.91764,2.82954 -7.62695,4.69727 -1.33568,1.45947 -2.72613,2.76705 -5.70117,3.33008 l 0.67383,-8.19922 0.92968,0.0606 0.0645,-0.99805 -0.91211,-0.0605 0.11328,-1.38672 -0.9961,-0.082 -0.11523,1.4043 -30.72461,-2.01758 0.19336,-1.25976 -0.98828,-0.1504 -0.20703,1.34571 -2.15821,-0.14258 -0.0664,0.99805 2.07226,0.13672 -0.69922,4.54492 -2.22656,-0.0762 -0.0351,1 2.10742,0.0723 -2.19922,14.29297 -1.64453,-0.17578 -0.10742,0.99414 1.59961,0.17187 -0.41407,2.68946 0.98828,0.15234 0.42188,-2.73633 32.17383,3.4375 -0.14063,1.71289 0.9961,0.082 0.13867,-1.68945 1.48047,0.15821 0.10547,-0.9961 -1.50391,-0.16016 0.95312,-11.5996 c 3.6095,-0.62909 5.47461,-2.2435 6.93555,-3.83985 1.73188,-1.8924 2.87659,-3.61525 6.375,-4.17578 -0.008,0.0891 -0.015,0.15894 -0.0234,0.24805 -0.35056,3.69687 -0.52497,5.49808 -0.70117,7.33008 l -1.57226,-0.0977 -0.0606,0.99805 1.53711,0.0957 c -0.0354,0.3681 -0.19727,2.06836 -0.19727,2.06836 l 0.9961,0.0976 c 0,0 0.16453,-1.72483 0.20117,-2.10546 l 35.42773,2.19336 0.0625,-0.99805 -35.39453,-2.19141 c 0.17703,-1.8412 0.34838,-3.61573 0.69727,-7.29492 0.0157,-0.16552 0.0273,-0.2954 0.043,-0.46094 0.12336,-0.0106 0.22295,-0.0328 0.35156,-0.041 a 0.750075,0.750075 0 0 0 -0.043,-1.49805 0.750075,0.750075 0 0 0 -0.0527,0.002 c -0.0393,0.003 -0.0744,0.007 -0.11329,0.01 0.0438,-0.46442 0.0807,-0.85943 0.12305,-1.31055 l 28.53125,2.39258 0.082,-0.99609 -28.51953,-2.39063 c 0.0935,-1.00098 0.2044,-2.16947 0.28125,-3.00781 0.0382,-0.4168 0.0611,-0.67086 0.0937,-1.03125 0.60761,0.03 1.0649,0.0512 1.79297,0.0879 3.02495,0.15252 6.97375,0.35716 10.89453,0.56055 7.84156,0.40676 15.57031,0.8125 15.57031,0.8125 l 0.0527,-0.99805 c 0,0 -7.72826,-0.40766 -15.57031,-0.81445 -3.92103,-0.2034 -7.8706,-0.40603 -10.89649,-0.5586 -0.71248,-0.0359 -1.15797,-0.0565 -1.75586,-0.0859 0.0124,-0.14052 0.0343,-0.36666 0.0449,-0.49024 0.0273,-0.31727 0.0477,-0.57605 0.0625,-0.76953 0.0148,-0.19348 0.0234,-0.29595 0.0234,-0.39844 z m -45.27148,6.84766 30.79492,2.02148 -0.69141,8.41211 c -0.94318,0.1119 -1.99034,0.17601 -3.2539,0.14258 a 0.75025476,0.75025476 0 1 0 -0.0391,1.5 c 1.17714,0.0311 2.22433,-0.0164 3.16797,-0.12305 l -0.93359,11.34961 -32.10352,-3.42773 2.21094,-14.36328 28.3418,0.97656 0.0351,-0.99805 -28.22461,-0.97461 z m 48.74218,2.55078 a 1.6355977,1.5387547 0 0 0 -1.63086,1.54102 1.6355977,1.5387547 0 0 0 1.63672,1.53515 1.6355977,1.5387547 0 0 0 1.63477,-1.53906 v -0.004 a 1.6355977,1.5387547 0 0 0 -1.64063,-1.5332 z m -61.75586,26.16211 139.339845,12.98437 3.55469,-0.11523 -0.06641,4.00586 c 0.20798,0.76338 0.09616,1.7225 0.0098,2.71289 -2.04547,-0.18254 -9.1474,-0.82386 -21.865225,-1.97656 -14.11861,-1.27966 -32.74126,-2.96873 -51.29492,-4.65235 -37.00977,-3.35837 -70.62565,-6.23485 -70.80274,-6.25 0.25941,-1.65927 0.65226,-3.98582 1.125,-6.70898 z"
       style="color:#000000;font-style:normal;font-variant:normal;font-weight:normal;font-stretch:normal;font-size:medium;line-height:normal;font-family:sans-serif;font-variant-ligatures:normal;font-variant-position:normal;font-variant-caps:normal;font-variant-numeric:normal;font-variant-alternates:normal;font-feature-settings:normal;text-indent:0;text-align:start;text-decoration:none;text-decoration-line:none;text-decoration-style:solid;text-decoration-color:#000000;letter-spacing:normal;word-spacing:normal;text-transform:none;writing-mode:lr-tb;direction:ltr;text-orientation:mixed;dominant-baseline:auto;baseline-shift:baseline;text-anchor:start;white-space:normal;shape-padding:0;clip-rule:nonzero;display:inline;overflow:visible;visibility:visible;opacity:1;isolation:auto;mix-blend-mode:normal;color-interpolation:sRGB;color-interpolation-filters:linearRGB;solid-color:#000000;solid-opacity:1;vector-effect:none;fill:#ffffff;fill-opacity:1;fill-rule:nonzero;stroke:none;stroke-width:1px;stroke-linecap:butt;stroke-linejoin:miter;stroke-miterlimit:4;stroke-dasharray:none;stroke-dashoffset:0;stroke-opacity:1;color-rendering:auto;image-rendering:auto;shape-rendering:auto;text-rendering:auto;enable-background:accumulate" />
    <g
       transform="translate(-240.33642,-80.282591)"
       style="opacity:1"
       id="g1054">
      <path
         style="fill:url(#linearGradient1056);fill-opacity:1;stroke:none;stroke-width:1px;stroke-linecap:butt;stroke-linejoin:miter;stroke-opacity:1"
         d="M 32.726661,264.75582 C 65.900325,254.5384 85.471101,240.21512 140.62237,236.63135 171.09229,225.89291 155.25268,190.09813 131.418,192.14354 72.367723,188.46368 38.964954,203.43655 -6.647603,209.52958 Z"
         id="path995"
         inkscape:connector-curvature="0"
         sodipodi:nodetypes="ccccc" />
    </g>
    <path
       id="path1058"
       d="m -124.88086,111.29492 c -38.78116,-0.30162 -66.40929,7.50864 -96.45703,13.5586 l 2.50391,25.72656 118.68164,-12.50586 c 5.64929,-3.40603 10.960083,-6.99913 15.306637,-11.12891 -3.850338,-8.9523 -13.107176,-16.02497 -24.072267,-15.08398 -5.53596,-0.34499 -10.84657,-0.52662 -15.96289,-0.56641 z"
       style="opacity:0.731;fill:url(#linearGradient1107);fill-opacity:1;stroke:none;stroke-width:1px;stroke-linecap:butt;stroke-linejoin:miter;stroke-opacity:1"
       inkscape:connector-curvature="0" />
    <g
       id="g1155">
      <path
         d="m -84.610175,136.13559 a 12.293786,8.1355934 0 0 1 -12.283862,8.13559 12.293786,8.1355934 0 0 1 -12.303693,-8.12246 12.293786,8.1355934 0 0 1 12.263997,-8.1487 12.293786,8.1355934 0 0 1 12.323494,8.1093"
         sodipodi:open="true"
         sodipodi:end="6.2799564"
         sodipodi:start="0"
         sodipodi:ry="8.1355934"
         sodipodi:rx="12.293786"
         sodipodi:cy="136.13559"
         sodipodi:cx="-96.903961"
         sodipodi:type="arc"
         id="path1113"
         style="opacity:0.731;fill:#ffc40f;fill-opacity:0;stroke:none;stroke-width:1.5;stroke-linecap:round;stroke-linejoin:round;stroke-miterlimit:4;stroke-dasharray:none;stroke-dashoffset:0;stroke-opacity:0.59315592;paint-order:fill markers stroke" />
      <path
         style="opacity:0.731;fill:#ffc40f;fill-opacity:0.0988593;stroke:none;stroke-width:1.5;stroke-linecap:round;stroke-linejoin:round;stroke-miterlimit:4;stroke-dasharray:none;stroke-dashoffset:0;stroke-opacity:0.59315592;paint-order:fill markers stroke"
         id="path1115"
         sodipodi:type="arc"
         sodipodi:cx="-97.850136"
         sodipodi:cy="136.226"
         sodipodi:rx="12.432352"
         sodipodi:ry="7.6836162"
         sodipodi:start="0"
         sodipodi:end="6.2799564"
         sodipodi:open="true"
         d="m -85.417784,136.226 a 12.432352,7.6836162 0 0 1 -12.422316,7.68361 12.432352,7.6836162 0 0 1 -12.44237,-7.67121 12.432352,7.6836162 0 0 1 12.402227,-7.696 12.432352,7.6836162 0 0 1 12.462394,7.65879" />
      <path
         d="m -84.87541,133.87572 a 12.432352,7.6836162 0 0 1 -12.422316,7.68361 12.432352,7.6836162 0 0 1 -12.442374,-7.67121 12.432352,7.6836162 0 0 1 12.402231,-7.696 12.432352,7.6836162 0 0 1 12.462394,7.65879"
         sodipodi:open="true"
         sodipodi:end="6.2799564"
         sodipodi:start="0"
         sodipodi:ry="7.6836162"
         sodipodi:rx="12.432352"
         sodipodi:cy="133.87572"
         sodipodi:cx="-97.307762"
         sodipodi:type="arc"
         id="path1117"
         style="opacity:0.731;fill:#ffc40f;fill-opacity:0.0988593;stroke:none;stroke-width:1.5;stroke-linecap:round;stroke-linejoin:round;stroke-miterlimit:4;stroke-dasharray:none;stroke-dashoffset:0;stroke-opacity:0.59315592;paint-order:fill markers stroke" />
      <path
         style="opacity:0.731;fill:#ffc40f;fill-opacity:0.0988593;stroke:none;stroke-width:1.5;stroke-linecap:round;stroke-linejoin:round;stroke-miterlimit:4;stroke-dasharray:none;stroke-dashoffset:0;stroke-opacity:0.59315592;paint-order:fill markers stroke"
         id="path1119"
         sodipodi:type="arc"
         sodipodi:cx="-96.223015"
         sodipodi:cy="138.03391"
         sodipodi:rx="12.432352"
         sodipodi:ry="7.6836162"
         sodipodi:start="0"
         sodipodi:end="6.2799564"
         sodipodi:open="true"
         d="m -83.790663,138.03391 a 12.432352,7.6836162 0 0 1 -12.422316,7.68361 12.432352,7.6836162 0 0 1 -12.442371,-7.67121 12.432352,7.6836162 0 0 1 12.402228,-7.696 12.432352,7.6836162 0 0 1 12.462394,7.65879" />
      <path
         d="m -88.310438,133.51413 a 12.432352,7.6836162 0 0 1 -12.422312,7.68361 12.432352,7.6836162 0 0 1 -12.44238,-7.67121 12.432352,7.6836162 0 0 1 12.40223,-7.69599 12.432352,7.6836162 0 0 1 12.462397,7.65878"
         sodipodi:open="true"
         sodipodi:end="6.2799564"
         sodipodi:start="0"
         sodipodi:ry="7.6836162"
         sodipodi:rx="12.432352"
         sodipodi:cy="133.51413"
         sodipodi:cx="-100.74279"
         sodipodi:type="arc"
         id="path1121"
         style="opacity:0.731;fill:#ffc40f;fill-opacity:0.0988593;stroke:none;stroke-width:1.5;stroke-linecap:round;stroke-linejoin:round;stroke-miterlimit:4;stroke-dasharray:none;stroke-dashoffset:0;stroke-opacity:0.59315592;paint-order:fill markers stroke" />
      <path
         style="opacity:0.731;fill:#ffc40f;fill-opacity:0.0988593;stroke:none;stroke-width:1.5;stroke-linecap:round;stroke-linejoin:round;stroke-miterlimit:4;stroke-dasharray:none;stroke-dashoffset:0;stroke-opacity:0.59315592;paint-order:fill markers stroke"
         id="path1123"
         sodipodi:type="arc"
         sodipodi:cx="-103.63544"
         sodipodi:cy="137.85312"
         sodipodi:rx="12.432352"
         sodipodi:ry="7.6836162"
         sodipodi:start="0"
         sodipodi:end="6.2799564"
         sodipodi:open="true"
         d="m -91.203085,137.85312 a 12.432352,7.6836162 0 0 1 -12.422315,7.68361 12.432352,7.6836162 0 0 1 -12.44237,-7.67121 12.432352,7.6836162 0 0 1 12.40223,-7.69599 12.432352,7.6836162 0 0 1 12.46239,7.65878" />
      <path
         d="m -89.03359,142.19211 a 12.432352,7.6836162 0 0 1 -12.42232,7.68361 12.432352,7.6836162 0 0 1 -12.44237,-7.67121 12.432352,7.6836162 0 0 1 12.40223,-7.696 12.432352,7.6836162 0 0 1 12.462395,7.65879"
         sodipodi:open="true"
         sodipodi:end="6.2799564"
         sodipodi:start="0"
         sodipodi:ry="7.6836162"
         sodipodi:rx="12.432352"
         sodipodi:cy="142.19211"
         sodipodi:cx="-101.46594"
         sodipodi:type="arc"
         id="path1125"
         style="opacity:0.731;fill:#ffc40f;fill-opacity:0.0988593;stroke:none;stroke-width:1.5;stroke-linecap:round;stroke-linejoin:round;stroke-miterlimit:4;stroke-dasharray:none;stroke-dashoffset:0;stroke-opacity:0.59315592;paint-order:fill markers stroke" />
      <path
         style="opacity:0.731;fill:#ffc40f;fill-opacity:0.0988593;stroke:none;stroke-width:1.5;stroke-linecap:round;stroke-linejoin:round;stroke-miterlimit:4;stroke-dasharray:none;stroke-dashoffset:0;stroke-opacity:0.59315592;paint-order:fill markers stroke"
         id="path1127"
         sodipodi:type="arc"
         sodipodi:cx="-100.74279"
         sodipodi:cy="133.51413"
         sodipodi:rx="12.432352"
         sodipodi:ry="7.6836162"
         sodipodi:start="0"
         sodipodi:end="6.2799564"
         sodipodi:open="true"
         d="m -88.310438,133.51413 a 12.432352,7.6836162 0 0 1 -12.422312,7.68361 12.432352,7.6836162 0 0 1 -12.44238,-7.67121 12.432352,7.6836162 0 0 1 12.40223,-7.69599 12.432352,7.6836162 0 0 1 12.462397,7.65878" />
      <path
         d="m -85.23699,141.83052 a 12.432352,7.6836162 0 0 1 -12.422316,7.68361 12.432352,7.6836162 0 0 1 -12.442374,-7.6712 12.432352,7.6836162 0 0 1 12.402231,-7.696 12.432352,7.6836162 0 0 1 12.462394,7.65878"
         sodipodi:open="true"
         sodipodi:end="6.2799564"
         sodipodi:start="0"
         sodipodi:ry="7.6836162"
         sodipodi:rx="12.432352"
         sodipodi:cy="141.83052"
         sodipodi:cx="-97.669342"
         sodipodi:type="arc"
         id="path1129"
         style="opacity:0.731;fill:#ffc40f;fill-opacity:0.0988593;stroke:none;stroke-width:1.5;stroke-linecap:round;stroke-linejoin:round;stroke-miterlimit:4;stroke-dasharray:none;stroke-dashoffset:0;stroke-opacity:0.59315592;paint-order:fill markers stroke" />
      <path
         style="opacity:0.731;fill:#ff720f;fill-opacity:0.0988593;stroke:none;stroke-width:1.5;stroke-linecap:round;stroke-linejoin:round;stroke-miterlimit:4;stroke-dasharray:none;stroke-dashoffset:0;stroke-opacity:0.59315592;paint-order:fill markers stroke"
         id="path1131"
         sodipodi:type="arc"
         sodipodi:cx="-97.669342"
         sodipodi:cy="141.83052"
         sodipodi:rx="12.432352"
         sodipodi:ry="7.6836162"
         sodipodi:start="0"
         sodipodi:end="6.2799564"
         sodipodi:open="true"
         d="m -85.23699,141.83052 a 12.432352,7.6836162 0 0 1 -12.422316,7.68361 12.432352,7.6836162 0 0 1 -12.442374,-7.6712 12.432352,7.6836162 0 0 1 12.402231,-7.696 12.432352,7.6836162 0 0 1 12.462394,7.65878" />
      <path
         d="m -89.03359,142.19211 a 12.432352,7.6836162 0 0 1 -12.42232,7.68361 12.432352,7.6836162 0 0 1 -12.44237,-7.67121 12.432352,7.6836162 0 0 1 12.40223,-7.696 12.432352,7.6836162 0 0 1 12.462395,7.65879"
         sodipodi:open="true"
         sodipodi:end="6.2799564"
         sodipodi:start="0"
         sodipodi:ry="7.6836162"
         sodipodi:rx="12.432352"
         sodipodi:cy="142.19211"
         sodipodi:cx="-101.46594"
         sodipodi:type="arc"
         id="path1133"
         style="opacity:0.731;fill:#ff720f;fill-opacity:0.0988593;stroke:none;stroke-width:1.5;stroke-linecap:round;stroke-linejoin:round;stroke-miterlimit:4;stroke-dasharray:none;stroke-dashoffset:0;stroke-opacity:0.59315592;paint-order:fill markers stroke" />
      <path
         style="opacity:0.731;fill:#ff720f;fill-opacity:0.0988593;stroke:none;stroke-width:1.5;stroke-linecap:round;stroke-linejoin:round;stroke-miterlimit:4;stroke-dasharray:none;stroke-dashoffset:0;stroke-opacity:0.59315592;paint-order:fill markers stroke"
         id="path1135"
         sodipodi:type="arc"
         sodipodi:cx="-101.46594"
         sodipodi:cy="144.72318"
         sodipodi:rx="12.432352"
         sodipodi:ry="7.6836162"
         sodipodi:start="0"
         sodipodi:end="6.2799564"
         sodipodi:open="true"
         d="m -89.03359,144.72318 a 12.432352,7.6836162 0 0 1 -12.42232,7.68361 12.432352,7.6836162 0 0 1 -12.44237,-7.67121 12.432352,7.6836162 0 0 1 12.40223,-7.696 12.432352,7.6836162 0 0 1 12.462395,7.65879" />
      <path
         d="m -89.847151,147.07346 a 12.432352,7.6836162 0 0 1 -12.422319,7.68361 12.432352,7.6836162 0 0 1 -12.44237,-7.67121 12.432352,7.6836162 0 0 1 12.40223,-7.696 12.432352,7.6836162 0 0 1 12.462394,7.65879"
         sodipodi:open="true"
         sodipodi:end="6.2799564"
         sodipodi:start="0"
         sodipodi:ry="7.6836162"
         sodipodi:rx="12.432352"
         sodipodi:cy="147.07346"
         sodipodi:cx="-102.2795"
         sodipodi:type="arc"
         id="path1137"
         style="opacity:0.731;fill:#ff720f;fill-opacity:0.0988593;stroke:none;stroke-width:1.5;stroke-linecap:round;stroke-linejoin:round;stroke-miterlimit:4;stroke-dasharray:none;stroke-dashoffset:0;stroke-opacity:0.59315592;paint-order:fill markers stroke" />
      <path
         style="opacity:0.731;fill:#ff720f;fill-opacity:0.0988593;stroke:none;stroke-width:1.5;stroke-linecap:round;stroke-linejoin:round;stroke-miterlimit:4;stroke-dasharray:none;stroke-dashoffset:0;stroke-opacity:0.59315592;paint-order:fill markers stroke"
         id="path1139"
         sodipodi:type="arc"
         sodipodi:cx="-97.488541"
         sodipodi:cy="132.06781"
         sodipodi:rx="12.432352"
         sodipodi:ry="7.6836162"
         sodipodi:start="0"
         sodipodi:end="6.2799564"
         sodipodi:open="true"
         d="m -85.056189,132.06781 a 12.432352,7.6836162 0 0 1 -12.422316,7.68361 12.432352,7.6836162 0 0 1 -12.442375,-7.67121 12.432352,7.6836162 0 0 1 12.402232,-7.69599 12.432352,7.6836162 0 0 1 12.462395,7.65878" />
    </g>
    <rect
       transform="rotate(20.202235)"
       ry="2.9610159"
       rx="6.08706"
       y="150.57059"
       x="-57.049778"
       height="156.47433"
       width="12.897284"
       id="rect845"
       style="opacity:1;fill:url(#linearGradient853);fill-opacity:1;stroke:none;stroke-width:0.2;stroke-linecap:round;stroke-linejoin:round;stroke-miterlimit:4;stroke-dasharray:none;stroke-dashoffset:0;stroke-opacity:0.59315592;paint-order:fill markers stroke" />
    <path
       sodipodi:nodetypes="sssccss"
       inkscape:connector-curvature="0"
       id="rect865"
       d="m -99.73849,123.47796 0.67624,0.25624 c 3.15344,1.1949 5.21228,3.38733 4.64294,4.92576 l -12.51448,33.81525 c -3.38278,-2.25261 -6.66886,-4.61591 -12.06049,-4.56995 l 12.51448,-33.81525 c 0.56936,-1.53843 3.58788,-1.80695 6.74131,-0.61205 z"
       style="opacity:1;fill:url(#linearGradient882);fill-opacity:1;stroke:none;stroke-width:0.2;stroke-linecap:round;stroke-linejoin:round;stroke-miterlimit:4;stroke-dasharray:none;stroke-dashoffset:0;stroke-opacity:0.59315592;paint-order:fill markers stroke" />
    <g
       id="g1169"
       transform="matrix(0.6689887,0,0,0.6689887,-215.31299,87.261051)">
      <path
         inkscape:transform-center-y="-1.0084766"
         inkscape:transform-center-x="1.0084766"
         d="M 62.456849,71.279954 C 62.849809,70.886994 50.324,63.599289 50.87973,63.599289 c 0.55573,0 -11.970079,7.287705 -11.577119,7.680665 0.392961,0.39296 7.680665,-12.132849 7.680665,-11.577119 0,0.55573 -7.287704,-11.970079 -7.680665,-11.577119 -0.39296,0.392961 12.132849,7.680665 11.577119,7.680665 -0.55573,0 11.970079,-7.287705 11.577119,-7.680665 -0.39296,-0.39296 -7.680664,12.132849 -7.680664,11.577119 0,-0.55573 7.287704,11.970079 7.680664,11.577119 z"
         inkscape:randomized="0"
         inkscape:rounded="-0.04"
         inkscape:flatsided="false"
         sodipodi:arg2="1.5707963"
         sodipodi:arg1="0.78539816"
         sodipodi:r2="3.8964543"
         sodipodi:r1="16.372519"
         sodipodi:cy="59.702835"
         sodipodi:cx="50.87973"
         sodipodi:sides="4"
         id="path1165"
         style="opacity:0.731;fill:#ffffff;fill-opacity:1;stroke:none;stroke-width:1.5;stroke-linecap:round;stroke-linejoin:round;stroke-miterlimit:4;stroke-dasharray:none;stroke-dashoffset:0;stroke-opacity:0.59315592;paint-order:fill markers stroke"
         sodipodi:type="star" />
      <path
         sodipodi:type="star"
         style="opacity:0.731;fill:#ffffff;fill-opacity:1;stroke:none;stroke-width:1.5;stroke-linecap:round;stroke-linejoin:round;stroke-miterlimit:4;stroke-dasharray:none;stroke-dashoffset:0;stroke-opacity:0.59315592;paint-order:fill markers stroke"
         id="path1167"
         sodipodi:sides="4"
         sodipodi:cx="50.87973"
         sodipodi:cy="59.702835"
         sodipodi:r1="7.2382998"
         sodipodi:r2="3.8964543"
         sodipodi:arg1="-0.024668013"
         sodipodi:arg2="0.76073013"
         inkscape:flatsided="false"
         inkscape:rounded="-0.04"
         inkscape:randomized="0"
         d="m 58.115828,59.524299 c -0.0052,-0.210419 -4.558885,3.017408 -4.413768,2.864948 0.145117,-0.152459 -2.854212,4.554877 -2.643793,4.549686 0.210418,-0.0052 -3.017408,-4.558885 -2.864949,-4.413768 0.152459,0.145117 -4.554877,-2.854212 -4.549685,-2.643794 0.0052,0.210419 4.558885,-3.017408 4.413767,-2.864948 -0.145117,0.152459 2.854212,-4.554877 2.643794,-4.549686 -0.210419,0.0052 3.017408,4.558886 2.864949,4.413768 -0.15246,-0.145117 4.554877,2.854212 4.549685,2.643794 z"
         inkscape:transform-center-x="1.0084766"
         inkscape:transform-center-y="-1.0084766" />
    </g>
    <g
       transform="matrix(0.6689887,0,0,0.6689887,-190.76799,109.76063)"
       id="g1175">
      <path
         sodipodi:type="star"
         style="opacity:0.731;fill:#ffffff;fill-opacity:1;stroke:none;stroke-width:1.5;stroke-linecap:round;stroke-linejoin:round;stroke-miterlimit:4;stroke-dasharray:none;stroke-dashoffset:0;stroke-opacity:0.59315592;paint-order:fill markers stroke"
         id="path1171"
         sodipodi:sides="4"
         sodipodi:cx="50.87973"
         sodipodi:cy="59.702835"
         sodipodi:r1="16.372519"
         sodipodi:r2="3.8964543"
         sodipodi:arg1="0.78539816"
         sodipodi:arg2="1.5707963"
         inkscape:flatsided="false"
         inkscape:rounded="-0.04"
         inkscape:randomized="0"
         d="M 62.456849,71.279954 C 62.849809,70.886994 50.324,63.599289 50.87973,63.599289 c 0.55573,0 -11.970079,7.287705 -11.577119,7.680665 0.392961,0.39296 7.680665,-12.132849 7.680665,-11.577119 0,0.55573 -7.287704,-11.970079 -7.680665,-11.577119 -0.39296,0.392961 12.132849,7.680665 11.577119,7.680665 -0.55573,0 11.970079,-7.287705 11.577119,-7.680665 -0.39296,-0.39296 -7.680664,12.132849 -7.680664,11.577119 0,-0.55573 7.287704,11.970079 7.680664,11.577119 z"
         inkscape:transform-center-x="1.0084766"
         inkscape:transform-center-y="-1.0084766" />
      <path
         inkscape:transform-center-y="-1.0084766"
         inkscape:transform-center-x="1.0084766"
         d="m 58.115828,59.524299 c -0.0052,-0.210419 -4.558885,3.017408 -4.413768,2.864948 0.145117,-0.152459 -2.854212,4.554877 -2.643793,4.549686 0.210418,-0.0052 -3.017408,-4.558885 -2.864949,-4.413768 0.152459,0.145117 -4.554877,-2.854212 -4.549685,-2.643794 0.0052,0.210419 4.558885,-3.017408 4.413767,-2.864948 -0.145117,0.152459 2.854212,-4.554877 2.643794,-4.549686 -0.210419,0.0052 3.017408,4.558886 2.864949,4.413768 -0.15246,-0.145117 4.554877,2.854212 4.549685,2.643794 z"
         inkscape:randomized="0"
         inkscape:rounded="-0.04"
         inkscape:flatsided="false"
         sodipodi:arg2="0.76073013"
         sodipodi:arg1="-0.024668013"
         sodipodi:r2="3.8964543"
         sodipodi:r1="7.2382998"
         sodipodi:cy="59.702835"
         sodipodi:cx="50.87973"
         sodipodi:sides="4"
         id="path1173"
         style="opacity:0.731;fill:#ffffff;fill-opacity:1;stroke:none;stroke-width:1.5;stroke-linecap:round;stroke-linejoin:round;stroke-miterlimit:4;stroke-dasharray:none;stroke-dashoffset:0;stroke-opacity:0.59315592;paint-order:fill markers stroke"
         sodipodi:type="star" />
    </g>
    <g
       id="g1181"
       transform="matrix(0.51451676,0,0,0.53658418,-177.53928,94.143267)">
      <path
         inkscape:transform-center-y="-1.0084766"
         inkscape:transform-center-x="1.0084766"
         d="M 62.456849,71.279954 C 62.849809,70.886994 50.324,63.599289 50.87973,63.599289 c 0.55573,0 -11.970079,7.287705 -11.577119,7.680665 0.392961,0.39296 7.680665,-12.132849 7.680665,-11.577119 0,0.55573 -7.287704,-11.970079 -7.680665,-11.577119 -0.39296,0.392961 12.132849,7.680665 11.577119,7.680665 -0.55573,0 11.970079,-7.287705 11.577119,-7.680665 -0.39296,-0.39296 -7.680664,12.132849 -7.680664,11.577119 0,-0.55573 7.287704,11.970079 7.680664,11.577119 z"
         inkscape:randomized="0"
         inkscape:rounded="-0.04"
         inkscape:flatsided="false"
         sodipodi:arg2="1.5707963"
         sodipodi:arg1="0.78539816"
         sodipodi:r2="3.8964543"
         sodipodi:r1="16.372519"
         sodipodi:cy="59.702835"
         sodipodi:cx="50.87973"
         sodipodi:sides="4"
         id="path1177"
         style="opacity:0.731;fill:#ffffff;fill-opacity:1;stroke:none;stroke-width:1.5;stroke-linecap:round;stroke-linejoin:round;stroke-miterlimit:4;stroke-dasharray:none;stroke-dashoffset:0;stroke-opacity:0.59315592;paint-order:fill markers stroke"
         sodipodi:type="star" />
      <path
         sodipodi:type="star"
         style="opacity:0.731;fill:#ffffff;fill-opacity:1;stroke:none;stroke-width:1.5;stroke-linecap:round;stroke-linejoin:round;stroke-miterlimit:4;stroke-dasharray:none;stroke-dashoffset:0;stroke-opacity:0.59315592;paint-order:fill markers stroke"
         id="path1179"
         sodipodi:sides="4"
         sodipodi:cx="50.87973"
         sodipodi:cy="59.702835"
         sodipodi:r1="7.2382998"
         sodipodi:r2="3.8964543"
         sodipodi:arg1="-0.024668013"
         sodipodi:arg2="0.76073013"
         inkscape:flatsided="false"
         inkscape:rounded="-0.04"
         inkscape:randomized="0"
         d="m 58.115828,59.524299 c -0.0052,-0.210419 -4.558885,3.017408 -4.413768,2.864948 0.145117,-0.152459 -2.854212,4.554877 -2.643793,4.549686 0.210418,-0.0052 -3.017408,-4.558885 -2.864949,-4.413768 0.152459,0.145117 -4.554877,-2.854212 -4.549685,-2.643794 0.0052,0.210419 4.558885,-3.017408 4.413767,-2.864948 -0.145117,0.152459 2.854212,-4.554877 2.643794,-4.549686 -0.210419,0.0052 3.017408,4.558886 2.864949,4.413768 -0.15246,-0.145117 4.554877,2.854212 4.549685,2.643794 z"
         inkscape:transform-center-x="1.0084766"
         inkscape:transform-center-y="-1.0084766" />
    </g>
    <g
       transform="matrix(0.51451676,0,0,0.53658418,-156.57376,113.57472)"
       id="g1187">
      <path
         sodipodi:type="star"
         style="opacity:0.731;fill:#ffffff;fill-opacity:1;stroke:none;stroke-width:1.5;stroke-linecap:round;stroke-linejoin:round;stroke-miterlimit:4;stroke-dasharray:none;stroke-dashoffset:0;stroke-opacity:0.59315592;paint-order:fill markers stroke"
         id="path1183"
         sodipodi:sides="4"
         sodipodi:cx="50.87973"
         sodipodi:cy="59.702835"
         sodipodi:r1="16.372519"
         sodipodi:r2="3.8964543"
         sodipodi:arg1="0.78539816"
         sodipodi:arg2="1.5707963"
         inkscape:flatsided="false"
         inkscape:rounded="-0.04"
         inkscape:randomized="0"
         d="M 62.456849,71.279954 C 62.849809,70.886994 50.324,63.599289 50.87973,63.599289 c 0.55573,0 -11.970079,7.287705 -11.577119,7.680665 0.392961,0.39296 7.680665,-12.132849 7.680665,-11.577119 0,0.55573 -7.287704,-11.970079 -7.680665,-11.577119 -0.39296,0.392961 12.132849,7.680665 11.577119,7.680665 -0.55573,0 11.970079,-7.287705 11.577119,-7.680665 -0.39296,-0.39296 -7.680664,12.132849 -7.680664,11.577119 0,-0.55573 7.287704,11.970079 7.680664,11.577119 z"
         inkscape:transform-center-x="1.0084766"
         inkscape:transform-center-y="-1.0084766" />
      <path
         inkscape:transform-center-y="-1.0084766"
         inkscape:transform-center-x="1.0084766"
         d="m 58.115828,59.524299 c -0.0052,-0.210419 -4.558885,3.017408 -4.413768,2.864948 0.145117,-0.152459 -2.854212,4.554877 -2.643793,4.549686 0.210418,-0.0052 -3.017408,-4.558885 -2.864949,-4.413768 0.152459,0.145117 -4.554877,-2.854212 -4.549685,-2.643794 0.0052,0.210419 4.558885,-3.017408 4.413767,-2.864948 -0.145117,0.152459 2.854212,-4.554877 2.643794,-4.549686 -0.210419,0.0052 3.017408,4.558886 2.864949,4.413768 -0.15246,-0.145117 4.554877,2.854212 4.549685,2.643794 z"
         inkscape:randomized="0"
         inkscape:rounded="-0.04"
         inkscape:flatsided="false"
         sodipodi:arg2="0.76073013"
         sodipodi:arg1="-0.024668013"
         sodipodi:r2="3.8964543"
         sodipodi:r1="7.2382998"
         sodipodi:cy="59.702835"
         sodipodi:cx="50.87973"
         sodipodi:sides="4"
         id="path1185"
         style="opacity:0.731;fill:#ffffff;fill-opacity:1;stroke:none;stroke-width:1.5;stroke-linecap:round;stroke-linejoin:round;stroke-miterlimit:4;stroke-dasharray:none;stroke-dashoffset:0;stroke-opacity:0.59315592;paint-order:fill markers stroke"
         sodipodi:type="star" />
    </g>
    <g
       transform="matrix(0.34910624,0,0,0.34910624,-137.83971,106.26855)"
       id="g1216">
      <path
         sodipodi:type="star"
         style="opacity:0.731;fill:#ffffff;fill-opacity:1;stroke:none;stroke-width:1.5;stroke-linecap:round;stroke-linejoin:round;stroke-miterlimit:4;stroke-dasharray:none;stroke-dashoffset:0;stroke-opacity:0.59315592;paint-order:fill markers stroke"
         id="path1212"
         sodipodi:sides="4"
         sodipodi:cx="50.87973"
         sodipodi:cy="59.702835"
         sodipodi:r1="16.372519"
         sodipodi:r2="3.8964543"
         sodipodi:arg1="0.78539816"
         sodipodi:arg2="1.5707963"
         inkscape:flatsided="false"
         inkscape:rounded="-0.04"
         inkscape:randomized="0"
         d="M 62.456849,71.279954 C 62.849809,70.886994 50.324,63.599289 50.87973,63.599289 c 0.55573,0 -11.970079,7.287705 -11.577119,7.680665 0.392961,0.39296 7.680665,-12.132849 7.680665,-11.577119 0,0.55573 -7.287704,-11.970079 -7.680665,-11.577119 -0.39296,0.392961 12.132849,7.680665 11.577119,7.680665 -0.55573,0 11.970079,-7.287705 11.577119,-7.680665 -0.39296,-0.39296 -7.680664,12.132849 -7.680664,11.577119 0,-0.55573 7.287704,11.970079 7.680664,11.577119 z"
         inkscape:transform-center-x="1.0084766"
         inkscape:transform-center-y="-1.0084766" />
      <path
         inkscape:transform-center-y="-1.0084766"
         inkscape:transform-center-x="1.0084766"
         d="m 58.115828,59.524299 c -0.0052,-0.210419 -4.558885,3.017408 -4.413768,2.864948 0.145117,-0.152459 -2.854212,4.554877 -2.643793,4.549686 0.210418,-0.0052 -3.017408,-4.558885 -2.864949,-4.413768 0.152459,0.145117 -4.554877,-2.854212 -4.549685,-2.643794 0.0052,0.210419 4.558885,-3.017408 4.413767,-2.864948 -0.145117,0.152459 2.854212,-4.554877 2.643794,-4.549686 -0.210419,0.0052 3.017408,4.558886 2.864949,4.413768 -0.15246,-0.145117 4.554877,2.854212 4.549685,2.643794 z"
         inkscape:randomized="0"
         inkscape:rounded="-0.04"
         inkscape:flatsided="false"
         sodipodi:arg2="0.76073013"
         sodipodi:arg1="-0.024668013"
         sodipodi:r2="3.8964543"
         sodipodi:r1="7.2382998"
         sodipodi:cy="59.702835"
         sodipodi:cx="50.87973"
         sodipodi:sides="4"
         id="path1214"
         style="opacity:0.731;fill:#ffffff;fill-opacity:1;stroke:none;stroke-width:1.5;stroke-linecap:round;stroke-linejoin:round;stroke-miterlimit:4;stroke-dasharray:none;stroke-dashoffset:0;stroke-opacity:0.59315592;paint-order:fill markers stroke"
         sodipodi:type="star" />
    </g>
    <g
       id="g1222"
       transform="matrix(0.34910624,0,0,0.34910624,-118.93256,120.43489)">
      <path
         inkscape:transform-center-y="-1.0084766"
         inkscape:transform-center-x="1.0084766"
         d="M 62.456849,71.279954 C 62.849809,70.886994 50.324,63.599289 50.87973,63.599289 c 0.55573,0 -11.970079,7.287705 -11.577119,7.680665 0.392961,0.39296 7.680665,-12.132849 7.680665,-11.577119 0,0.55573 -7.287704,-11.970079 -7.680665,-11.577119 -0.39296,0.392961 12.132849,7.680665 11.577119,7.680665 -0.55573,0 11.970079,-7.287705 11.577119,-7.680665 -0.39296,-0.39296 -7.680664,12.132849 -7.680664,11.577119 0,-0.55573 7.287704,11.970079 7.680664,11.577119 z"
         inkscape:randomized="0"
         inkscape:rounded="-0.04"
         inkscape:flatsided="false"
         sodipodi:arg2="1.5707963"
         sodipodi:arg1="0.78539816"
         sodipodi:r2="3.8964543"
         sodipodi:r1="16.372519"
         sodipodi:cy="59.702835"
         sodipodi:cx="50.87973"
         sodipodi:sides="4"
         id="path1218"
         style="opacity:0.731;fill:#ffffff;fill-opacity:1;stroke:none;stroke-width:1.5;stroke-linecap:round;stroke-linejoin:round;stroke-miterlimit:4;stroke-dasharray:none;stroke-dashoffset:0;stroke-opacity:0.59315592;paint-order:fill markers stroke"
         sodipodi:type="star" />
      <path
         sodipodi:type="star"
         style="opacity:0.731;fill:#ffffff;fill-opacity:1;stroke:none;stroke-width:1.5;stroke-linecap:round;stroke-linejoin:round;stroke-miterlimit:4;stroke-dasharray:none;stroke-dashoffset:0;stroke-opacity:0.59315592;paint-order:fill markers stroke"
         id="path1220"
         sodipodi:sides="4"
         sodipodi:cx="50.87973"
         sodipodi:cy="59.702835"
         sodipodi:r1="7.2382998"
         sodipodi:r2="3.8964543"
         sodipodi:arg1="-0.024668013"
         sodipodi:arg2="0.76073013"
         inkscape:flatsided="false"
         inkscape:rounded="-0.04"
         inkscape:randomized="0"
         d="m 58.115828,59.524299 c -0.0052,-0.210419 -4.558885,3.017408 -4.413768,2.864948 0.145117,-0.152459 -2.854212,4.554877 -2.643793,4.549686 0.210418,-0.0052 -3.017408,-4.558885 -2.864949,-4.413768 0.152459,0.145117 -4.554877,-2.854212 -4.549685,-2.643794 0.0052,0.210419 4.558885,-3.017408 4.413767,-2.864948 -0.145117,0.152459 2.854212,-4.554877 2.643794,-4.549686 -0.210419,0.0052 3.017408,4.558886 2.864949,4.413768 -0.15246,-0.145117 4.554877,2.854212 4.549685,2.643794 z"
         inkscape:transform-center-x="1.0084766"
         inkscape:transform-center-y="-1.0084766" />
    </g>
    <g
       transform="matrix(0.22427406,0,0,0.22427406,-108.81698,114.17888)"
       id="g1228">
      <path
         sodipodi:type="star"
         style="opacity:0.731;fill:#ffffff;fill-opacity:1;stroke:none;stroke-width:1.5;stroke-linecap:round;stroke-linejoin:round;stroke-miterlimit:4;stroke-dasharray:none;stroke-dashoffset:0;stroke-opacity:0.59315592;paint-order:fill markers stroke"
         id="path1224"
         sodipodi:sides="4"
         sodipodi:cx="50.87973"
         sodipodi:cy="59.702835"
         sodipodi:r1="16.372519"
         sodipodi:r2="3.8964543"
         sodipodi:arg1="0.78539816"
         sodipodi:arg2="1.5707963"
         inkscape:flatsided="false"
         inkscape:rounded="-0.04"
         inkscape:randomized="0"
         d="M 62.456849,71.279954 C 62.849809,70.886994 50.324,63.599289 50.87973,63.599289 c 0.55573,0 -11.970079,7.287705 -11.577119,7.680665 0.392961,0.39296 7.680665,-12.132849 7.680665,-11.577119 0,0.55573 -7.287704,-11.970079 -7.680665,-11.577119 -0.39296,0.392961 12.132849,7.680665 11.577119,7.680665 -0.55573,0 11.970079,-7.287705 11.577119,-7.680665 -0.39296,-0.39296 -7.680664,12.132849 -7.680664,11.577119 0,-0.55573 7.287704,11.970079 7.680664,11.577119 z"
         inkscape:transform-center-x="1.0084766"
         inkscape:transform-center-y="-1.0084766" />
      <path
         inkscape:transform-center-y="-1.0084766"
         inkscape:transform-center-x="1.0084766"
         d="m 58.115828,59.524299 c -0.0052,-0.210419 -4.558885,3.017408 -4.413768,2.864948 0.145117,-0.152459 -2.854212,4.554877 -2.643793,4.549686 0.210418,-0.0052 -3.017408,-4.558885 -2.864949,-4.413768 0.152459,0.145117 -4.554877,-2.854212 -4.549685,-2.643794 0.0052,0.210419 4.558885,-3.017408 4.413767,-2.864948 -0.145117,0.152459 2.854212,-4.554877 2.643794,-4.549686 -0.210419,0.0052 3.017408,4.558886 2.864949,4.413768 -0.15246,-0.145117 4.554877,2.854212 4.549685,2.643794 z"
         inkscape:randomized="0"
         inkscape:rounded="-0.04"
         inkscape:flatsided="false"
         sodipodi:arg2="0.76073013"
         sodipodi:arg1="-0.024668013"
         sodipodi:r2="3.8964543"
         sodipodi:r1="7.2382998"
         sodipodi:cy="59.702835"
         sodipodi:cx="50.87973"
         sodipodi:sides="4"
         id="path1226"
         style="opacity:0.731;fill:#ffffff;fill-opacity:1;stroke:none;stroke-width:1.5;stroke-linecap:round;stroke-linejoin:round;stroke-miterlimit:4;stroke-dasharray:none;stroke-dashoffset:0;stroke-opacity:0.59315592;paint-order:fill markers stroke"
         sodipodi:type="star" />
    </g>
    <g
       id="g1234"
       transform="matrix(0.22427406,0,0,0.22427406,-105.2106,121.84206)">
      <path
         inkscape:transform-center-y="-1.0084766"
         inkscape:transform-center-x="1.0084766"
         d="M 62.456849,71.279954 C 62.849809,70.886994 50.324,63.599289 50.87973,63.599289 c 0.55573,0 -11.970079,7.287705 -11.577119,7.680665 0.392961,0.39296 7.680665,-12.132849 7.680665,-11.577119 0,0.55573 -7.287704,-11.970079 -7.680665,-11.577119 -0.39296,0.392961 12.132849,7.680665 11.577119,7.680665 -0.55573,0 11.970079,-7.287705 11.577119,-7.680665 -0.39296,-0.39296 -7.680664,12.132849 -7.680664,11.577119 0,-0.55573 7.287704,11.970079 7.680664,11.577119 z"
         inkscape:randomized="0"
         inkscape:rounded="-0.04"
         inkscape:flatsided="false"
         sodipodi:arg2="1.5707963"
         sodipodi:arg1="0.78539816"
         sodipodi:r2="3.8964543"
         sodipodi:r1="16.372519"
         sodipodi:cy="59.702835"
         sodipodi:cx="50.87973"
         sodipodi:sides="4"
         id="path1230"
         style="opacity:0.731;fill:#ffffff;fill-opacity:1;stroke:none;stroke-width:1.5;stroke-linecap:round;stroke-linejoin:round;stroke-miterlimit:4;stroke-dasharray:none;stroke-dashoffset:0;stroke-opacity:0.59315592;paint-order:fill markers stroke"
         sodipodi:type="star" />
      <path
         sodipodi:type="star"
         style="opacity:0.731;fill:#ffffff;fill-opacity:1;stroke:none;stroke-width:1.5;stroke-linecap:round;stroke-linejoin:round;stroke-miterlimit:4;stroke-dasharray:none;stroke-dashoffset:0;stroke-opacity:0.59315592;paint-order:fill markers stroke"
         id="path1232"
         sodipodi:sides="4"
         sodipodi:cx="50.87973"
         sodipodi:cy="59.702835"
         sodipodi:r1="7.2382998"
         sodipodi:r2="3.8964543"
         sodipodi:arg1="-0.024668013"
         sodipodi:arg2="0.76073013"
         inkscape:flatsided="false"
         inkscape:rounded="-0.04"
         inkscape:randomized="0"
         d="m 58.115828,59.524299 c -0.0052,-0.210419 -4.558885,3.017408 -4.413768,2.864948 0.145117,-0.152459 -2.854212,4.554877 -2.643793,4.549686 0.210418,-0.0052 -3.017408,-4.558885 -2.864949,-4.413768 0.152459,0.145117 -4.554877,-2.854212 -4.549685,-2.643794 0.0052,0.210419 4.558885,-3.017408 4.413767,-2.864948 -0.145117,0.152459 2.854212,-4.554877 2.643794,-4.549686 -0.210419,0.0052 3.017408,4.558886 2.864949,4.413768 -0.15246,-0.145117 4.554877,2.854212 4.549685,2.643794 z"
         inkscape:transform-center-x="1.0084766"
         inkscape:transform-center-y="-1.0084766" />
    </g>
    <g
       transform="matrix(0.22427406,0,0,0.22427406,-96.79483,114.40911)"
       id="g1240">
      <path
         sodipodi:type="star"
         style="opacity:0.731;fill:#ffffff;fill-opacity:1;stroke:none;stroke-width:1.5;stroke-linecap:round;stroke-linejoin:round;stroke-miterlimit:4;stroke-dasharray:none;stroke-dashoffset:0;stroke-opacity:0.59315592;paint-order:fill markers stroke"
         id="path1236"
         sodipodi:sides="4"
         sodipodi:cx="50.87973"
         sodipodi:cy="59.702835"
         sodipodi:r1="16.372519"
         sodipodi:r2="3.8964543"
         sodipodi:arg1="0.78539816"
         sodipodi:arg2="1.5707963"
         inkscape:flatsided="false"
         inkscape:rounded="-0.04"
         inkscape:randomized="0"
         d="M 62.456849,71.279954 C 62.849809,70.886994 50.324,63.599289 50.87973,63.599289 c 0.55573,0 -11.970079,7.287705 -11.577119,7.680665 0.392961,0.39296 7.680665,-12.132849 7.680665,-11.577119 0,0.55573 -7.287704,-11.970079 -7.680665,-11.577119 -0.39296,0.392961 12.132849,7.680665 11.577119,7.680665 -0.55573,0 11.970079,-7.287705 11.577119,-7.680665 -0.39296,-0.39296 -7.680664,12.132849 -7.680664,11.577119 0,-0.55573 7.287704,11.970079 7.680664,11.577119 z"
         inkscape:transform-center-x="1.0084766"
         inkscape:transform-center-y="-1.0084766" />
      <path
         inkscape:transform-center-y="-1.0084766"
         inkscape:transform-center-x="1.0084766"
         d="m 58.115828,59.524299 c -0.0052,-0.210419 -4.558885,3.017408 -4.413768,2.864948 0.145117,-0.152459 -2.854212,4.554877 -2.643793,4.549686 0.210418,-0.0052 -3.017408,-4.558885 -2.864949,-4.413768 0.152459,0.145117 -4.554877,-2.854212 -4.549685,-2.643794 0.0052,0.210419 4.558885,-3.017408 4.413767,-2.864948 -0.145117,0.152459 2.854212,-4.554877 2.643794,-4.549686 -0.210419,0.0052 3.017408,4.558886 2.864949,4.413768 -0.15246,-0.145117 4.554877,2.854212 4.549685,2.643794 z"
         inkscape:randomized="0"
         inkscape:rounded="-0.04"
         inkscape:flatsided="false"
         sodipodi:arg2="0.76073013"
         sodipodi:arg1="-0.024668013"
         sodipodi:r2="3.8964543"
         sodipodi:r1="7.2382998"
         sodipodi:cy="59.702835"
         sodipodi:cx="50.87973"
         sodipodi:sides="4"
         id="path1238"
         style="opacity:0.731;fill:#ffffff;fill-opacity:1;stroke:none;stroke-width:1.5;stroke-linecap:round;stroke-linejoin:round;stroke-miterlimit:4;stroke-dasharray:none;stroke-dashoffset:0;stroke-opacity:0.59315592;paint-order:fill markers stroke"
         sodipodi:type="star" />
    </g>
    <g
       id="g1246"
       transform="matrix(0.16185797,0,0,0.16185797,-111.33663,121.48016)">
      <path
         inkscape:transform-center-y="-1.0084766"
         inkscape:transform-center-x="1.0084766"
         d="M 62.456849,71.279954 C 62.849809,70.886994 50.324,63.599289 50.87973,63.599289 c 0.55573,0 -11.970079,7.287705 -11.577119,7.680665 0.392961,0.39296 7.680665,-12.132849 7.680665,-11.577119 0,0.55573 -7.287704,-11.970079 -7.680665,-11.577119 -0.39296,0.392961 12.132849,7.680665 11.577119,7.680665 -0.55573,0 11.970079,-7.287705 11.577119,-7.680665 -0.39296,-0.39296 -7.680664,12.132849 -7.680664,11.577119 0,-0.55573 7.287704,11.970079 7.680664,11.577119 z"
         inkscape:randomized="0"
         inkscape:rounded="-0.04"
         inkscape:flatsided="false"
         sodipodi:arg2="1.5707963"
         sodipodi:arg1="0.78539816"
         sodipodi:r2="3.8964543"
         sodipodi:r1="16.372519"
         sodipodi:cy="59.702835"
         sodipodi:cx="50.87973"
         sodipodi:sides="4"
         id="path1242"
         style="opacity:0.731;fill:#ffffff;fill-opacity:1;stroke:none;stroke-width:1.5;stroke-linecap:round;stroke-linejoin:round;stroke-miterlimit:4;stroke-dasharray:none;stroke-dashoffset:0;stroke-opacity:0.59315592;paint-order:fill markers stroke"
         sodipodi:type="star" />
      <path
         sodipodi:type="star"
         style="opacity:0.731;fill:#ffffff;fill-opacity:1;stroke:none;stroke-width:1.5;stroke-linecap:round;stroke-linejoin:round;stroke-miterlimit:4;stroke-dasharray:none;stroke-dashoffset:0;stroke-opacity:0.59315592;paint-order:fill markers stroke"
         id="path1244"
         sodipodi:sides="4"
         sodipodi:cx="50.87973"
         sodipodi:cy="59.702835"
         sodipodi:r1="7.2382998"
         sodipodi:r2="3.8964543"
         sodipodi:arg1="-0.024668013"
         sodipodi:arg2="0.76073013"
         inkscape:flatsided="false"
         inkscape:rounded="-0.04"
         inkscape:randomized="0"
         d="m 58.115828,59.524299 c -0.0052,-0.210419 -4.558885,3.017408 -4.413768,2.864948 0.145117,-0.152459 -2.854212,4.554877 -2.643793,4.549686 0.210418,-0.0052 -3.017408,-4.558885 -2.864949,-4.413768 0.152459,0.145117 -4.554877,-2.854212 -4.549685,-2.643794 0.0052,0.210419 4.558885,-3.017408 4.413767,-2.864948 -0.145117,0.152459 2.854212,-4.554877 2.643794,-4.549686 -0.210419,0.0052 3.017408,4.558886 2.864949,4.413768 -0.15246,-0.145117 4.554877,2.854212 4.549685,2.643794 z"
         inkscape:transform-center-x="1.0084766"
         inkscape:transform-center-y="-1.0084766" />
    </g>
    <g
       transform="matrix(0.16185797,0,0,0.16185797,-115.67561,113.07338)"
       id="g1252">
      <path
         sodipodi:type="star"
         style="opacity:0.731;fill:#ffffff;fill-opacity:1;stroke:none;stroke-width:1.5;stroke-linecap:round;stroke-linejoin:round;stroke-miterlimit:4;stroke-dasharray:none;stroke-dashoffset:0;stroke-opacity:0.59315592;paint-order:fill markers stroke"
         id="path1248"
         sodipodi:sides="4"
         sodipodi:cx="50.87973"
         sodipodi:cy="59.702835"
         sodipodi:r1="16.372519"
         sodipodi:r2="3.8964543"
         sodipodi:arg1="0.78539816"
         sodipodi:arg2="1.5707963"
         inkscape:flatsided="false"
         inkscape:rounded="-0.04"
         inkscape:randomized="0"
         d="M 62.456849,71.279954 C 62.849809,70.886994 50.324,63.599289 50.87973,63.599289 c 0.55573,0 -11.970079,7.287705 -11.577119,7.680665 0.392961,0.39296 7.680665,-12.132849 7.680665,-11.577119 0,0.55573 -7.287704,-11.970079 -7.680665,-11.577119 -0.39296,0.392961 12.132849,7.680665 11.577119,7.680665 -0.55573,0 11.970079,-7.287705 11.577119,-7.680665 -0.39296,-0.39296 -7.680664,12.132849 -7.680664,11.577119 0,-0.55573 7.287704,11.970079 7.680664,11.577119 z"
         inkscape:transform-center-x="1.0084766"
         inkscape:transform-center-y="-1.0084766" />
      <path
         inkscape:transform-center-y="-1.0084766"
         inkscape:transform-center-x="1.0084766"
         d="m 58.115828,59.524299 c -0.0052,-0.210419 -4.558885,3.017408 -4.413768,2.864948 0.145117,-0.152459 -2.854212,4.554877 -2.643793,4.549686 0.210418,-0.0052 -3.017408,-4.558885 -2.864949,-4.413768 0.152459,0.145117 -4.554877,-2.854212 -4.549685,-2.643794 0.0052,0.210419 4.558885,-3.017408 4.413767,-2.864948 -0.145117,0.152459 2.854212,-4.554877 2.643794,-4.549686 -0.210419,0.0052 3.017408,4.558886 2.864949,4.413768 -0.15246,-0.145117 4.554877,2.854212 4.549685,2.643794 z"
         inkscape:randomized="0"
         inkscape:rounded="-0.04"
         inkscape:flatsided="false"
         sodipodi:arg2="0.76073013"
         sodipodi:arg1="-0.024668013"
         sodipodi:r2="3.8964543"
         sodipodi:r1="7.2382998"
         sodipodi:cy="59.702835"
         sodipodi:cx="50.87973"
         sodipodi:sides="4"
         id="path1250"
         style="opacity:0.731;fill:#ffffff;fill-opacity:1;stroke:none;stroke-width:1.5;stroke-linecap:round;stroke-linejoin:round;stroke-miterlimit:4;stroke-dasharray:none;stroke-dashoffset:0;stroke-opacity:0.59315592;paint-order:fill markers stroke"
         sodipodi:type="star" />
    </g>
    <g
       id="g1258"
       transform="matrix(0.16185797,0,0,0.16185797,-100.66996,112.6214)">
      <path
         inkscape:transform-center-y="-1.0084766"
         inkscape:transform-center-x="1.0084766"
         d="M 62.456849,71.279954 C 62.849809,70.886994 50.324,63.599289 50.87973,63.599289 c 0.55573,0 -11.970079,7.287705 -11.577119,7.680665 0.392961,0.39296 7.680665,-12.132849 7.680665,-11.577119 0,0.55573 -7.287704,-11.970079 -7.680665,-11.577119 -0.39296,0.392961 12.132849,7.680665 11.577119,7.680665 -0.55573,0 11.970079,-7.287705 11.577119,-7.680665 -0.39296,-0.39296 -7.680664,12.132849 -7.680664,11.577119 0,-0.55573 7.287704,11.970079 7.680664,11.577119 z"
         inkscape:randomized="0"
         inkscape:rounded="-0.04"
         inkscape:flatsided="false"
         sodipodi:arg2="1.5707963"
         sodipodi:arg1="0.78539816"
         sodipodi:r2="3.8964543"
         sodipodi:r1="16.372519"
         sodipodi:cy="59.702835"
         sodipodi:cx="50.87973"
         sodipodi:sides="4"
         id="path1254"
         style="opacity:0.731;fill:#ffffff;fill-opacity:1;stroke:none;stroke-width:1.5;stroke-linecap:round;stroke-linejoin:round;stroke-miterlimit:4;stroke-dasharray:none;stroke-dashoffset:0;stroke-opacity:0.59315592;paint-order:fill markers stroke"
         sodipodi:type="star" />
      <path
         sodipodi:type="star"
         style="opacity:0.731;fill:#ffffff;fill-opacity:1;stroke:none;stroke-width:1.5;stroke-linecap:round;stroke-linejoin:round;stroke-miterlimit:4;stroke-dasharray:none;stroke-dashoffset:0;stroke-opacity:0.59315592;paint-order:fill markers stroke"
         id="path1256"
         sodipodi:sides="4"
         sodipodi:cx="50.87973"
         sodipodi:cy="59.702835"
         sodipodi:r1="7.2382998"
         sodipodi:r2="3.8964543"
         sodipodi:arg1="-0.024668013"
         sodipodi:arg2="0.76073013"
         inkscape:flatsided="false"
         inkscape:rounded="-0.04"
         inkscape:randomized="0"
         d="m 58.115828,59.524299 c -0.0052,-0.210419 -4.558885,3.017408 -4.413768,2.864948 0.145117,-0.152459 -2.854212,4.554877 -2.643793,4.549686 0.210418,-0.0052 -3.017408,-4.558885 -2.864949,-4.413768 0.152459,0.145117 -4.554877,-2.854212 -4.549685,-2.643794 0.0052,0.210419 4.558885,-3.017408 4.413767,-2.864948 -0.145117,0.152459 2.854212,-4.554877 2.643794,-4.549686 -0.210419,0.0052 3.017408,4.558886 2.864949,4.413768 -0.15246,-0.145117 4.554877,2.854212 4.549685,2.643794 z"
         inkscape:transform-center-x="1.0084766"
         inkscape:transform-center-y="-1.0084766" />
    </g>
    <g
       id="g1264"
       transform="matrix(0.34910624,0,0,0.34910624,-131.51203,121.99736)">
      <path
         inkscape:transform-center-y="-1.0084766"
         inkscape:transform-center-x="1.0084766"
         d="M 62.456849,71.279954 C 62.849809,70.886994 50.324,63.599289 50.87973,63.599289 c 0.55573,0 -11.970079,7.287705 -11.577119,7.680665 0.392961,0.39296 7.680665,-12.132849 7.680665,-11.577119 0,0.55573 -7.287704,-11.970079 -7.680665,-11.577119 -0.39296,0.392961 12.132849,7.680665 11.577119,7.680665 -0.55573,0 11.970079,-7.287705 11.577119,-7.680665 -0.39296,-0.39296 -7.680664,12.132849 -7.680664,11.577119 0,-0.55573 7.287704,11.970079 7.680664,11.577119 z"
         inkscape:randomized="0"
         inkscape:rounded="-0.04"
         inkscape:flatsided="false"
         sodipodi:arg2="1.5707963"
         sodipodi:arg1="0.78539816"
         sodipodi:r2="3.8964543"
         sodipodi:r1="16.372519"
         sodipodi:cy="59.702835"
         sodipodi:cx="50.87973"
         sodipodi:sides="4"
         id="path1260"
         style="opacity:0.731;fill:#ffffff;fill-opacity:1;stroke:none;stroke-width:1.5;stroke-linecap:round;stroke-linejoin:round;stroke-miterlimit:4;stroke-dasharray:none;stroke-dashoffset:0;stroke-opacity:0.59315592;paint-order:fill markers stroke"
         sodipodi:type="star" />
      <path
         sodipodi:type="star"
         style="opacity:0.731;fill:#ffffff;fill-opacity:1;stroke:none;stroke-width:1.5;stroke-linecap:round;stroke-linejoin:round;stroke-miterlimit:4;stroke-dasharray:none;stroke-dashoffset:0;stroke-opacity:0.59315592;paint-order:fill markers stroke"
         id="path1262"
         sodipodi:sides="4"
         sodipodi:cx="50.87973"
         sodipodi:cy="59.702835"
         sodipodi:r1="7.2382998"
         sodipodi:r2="3.8964543"
         sodipodi:arg1="-0.024668013"
         sodipodi:arg2="0.76073013"
         inkscape:flatsided="false"
         inkscape:rounded="-0.04"
         inkscape:randomized="0"
         d="m 58.115828,59.524299 c -0.0052,-0.210419 -4.558885,3.017408 -4.413768,2.864948 0.145117,-0.152459 -2.854212,4.554877 -2.643793,4.549686 0.210418,-0.0052 -3.017408,-4.558885 -2.864949,-4.413768 0.152459,0.145117 -4.554877,-2.854212 -4.549685,-2.643794 0.0052,0.210419 4.558885,-3.017408 4.413767,-2.864948 -0.145117,0.152459 2.854212,-4.554877 2.643794,-4.549686 -0.210419,0.0052 3.017408,4.558886 2.864949,4.413768 -0.15246,-0.145117 4.554877,2.854212 4.549685,2.643794 z"
         inkscape:transform-center-x="1.0084766"
         inkscape:transform-center-y="-1.0084766" />
    </g>
    <g
       id="g1275">
      <path
         style="opacity:0.731;fill:#ffffff;fill-opacity:0.20532322;stroke:none;stroke-width:1.5;stroke-linecap:round;stroke-linejoin:round;stroke-miterlimit:4;stroke-dasharray:none;stroke-dashoffset:0;stroke-opacity:0.59315592;paint-order:fill markers stroke"
         id="path1266"
         sodipodi:type="arc"
         sodipodi:cx="-33.833755"
         sodipodi:cy="166.38802"
         sodipodi:rx="11.299436"
         sodipodi:ry="13.378531"
         sodipodi:start="0"
         sodipodi:end="6.2799564"
         sodipodi:open="true"
         d="m -22.53432,166.38802 a 11.299436,13.378531 0 0 1 -11.290314,13.37852 11.299436,13.378531 0 0 1 -11.308542,-13.35693 11.299436,13.378531 0 0 1 11.272057,-13.40009 11.299436,13.378531 0 0 1 11.32674,13.3353"
         transform="rotate(26.065334)" />
      <path
         transform="rotate(26.065334)"
         d="m -21.502124,166.21248 a 12.281339,14.541103 0 0 1 -12.271425,14.5411 12.281339,14.541103 0 0 1 -12.291236,-14.51763 12.281339,14.541103 0 0 1 12.251581,-14.56453 12.281339,14.541103 0 0 1 12.311016,14.49411"
         sodipodi:open="true"
         sodipodi:end="6.2799564"
         sodipodi:start="0"
         sodipodi:ry="14.541103"
         sodipodi:rx="12.281339"
         sodipodi:cy="166.21248"
         sodipodi:cx="-33.783463"
         sodipodi:type="arc"
         id="path1268"
         style="opacity:0.731;fill:#ffffff;fill-opacity:0.20532322;stroke:none;stroke-width:1.63034749;stroke-linecap:round;stroke-linejoin:round;stroke-miterlimit:4;stroke-dasharray:none;stroke-dashoffset:0;stroke-opacity:0.59315592;paint-order:fill markers stroke" />
      <path
         style="opacity:0.731;fill:#ffffff;fill-opacity:0.20532322;stroke:none;stroke-width:1.76805389;stroke-linecap:round;stroke-linejoin:round;stroke-miterlimit:4;stroke-dasharray:none;stroke-dashoffset:0;stroke-opacity:0.59315592;paint-order:fill markers stroke"
         id="path1270"
         sodipodi:type="arc"
         sodipodi:cx="-33.823887"
         sodipodi:cy="166.35358"
         sodipodi:rx="13.318675"
         sodipodi:ry="15.76931"
         sodipodi:start="0"
         sodipodi:end="6.2799564"
         sodipodi:open="true"
         d="m -20.505212,166.35358 a 13.318675,15.76931 0 0 1 -13.307924,15.7693 13.318675,15.76931 0 0 1 -13.329409,-15.74384 13.318675,15.76931 0 0 1 13.286405,-15.79473 13.318675,15.76931 0 0 1 13.350859,15.71835"
         transform="rotate(26.065334)" />
    </g>
    <g
       id="g1279"
       style="opacity:0.081"
       transform="translate(-240.33642,-80.282591)">
      <path
         id="path1277"
         transform="translate(240.33642,80.282591)"
         d="m -103.10742,122.74023 c -1.70426,-0.0778 -3.0172,0.38809 -3.37305,1.34961 l -12.51367,33.81446 c 0.60194,-0.005 1.17405,0.0247 1.72656,0.0762 3.9465,-0.48373 8.07965,-0.91236 12.46485,-1.26367 l 10.382808,-28.05664 c 0.56934,-1.53843 -1.489138,-3.73088 -4.642578,-4.92578 l -0.675781,-0.25586 c -1.182539,-0.44809 -2.346589,-0.69158 -3.369139,-0.73829 z"
         style="fill:url(#linearGradient1285);fill-opacity:1;stroke:none;stroke-width:1px;stroke-linecap:butt;stroke-linejoin:miter;stroke-opacity:1"
         inkscape:connector-curvature="0" />
    </g>
  </g>
</svg>
