<svg height="128" viewBox="0 0 127.99999 128" width="128" xmlns="http://www.w3.org/2000/svg" xmlns:xlink="http://www.w3.org/1999/xlink"><linearGradient id="a" gradientUnits="userSpaceOnUse" x1="717.89307" x2="717.89313" y1="-77.54034" y2="-33.49597"><stop offset="0" stop-color="#3cc5dc"/><stop offset="1" stop-color="#245ee1"/></linearGradient><filter id="b" color-interpolation-filters="sRGB" height="1.0888" width="1.0888" x="-.0444" y="-.0444"><feGaussianBlur stdDeviation=".80923051"/></filter><filter id="c" color-interpolation-filters="sRGB" height="1.178153" width="1.213908" x="-.106954" y="-.089077"><feGaussianBlur stdDeviation="1.0084679"/></filter><g transform="matrix(2.3655968 0 0 2.3655968 -1635.6265 198.19188)"><circle cx="717.89313" cy="-56.267212" fill="url(#a)" r="24.269342" stroke-width="1.0125"/><path d="m717.89258-78.13867c-12.06621 0-21.8711 9.80488-21.8711 21.87109s9.80489 21.8711 21.8711 21.8711 21.87109-9.80489 21.87109-21.8711-9.80488-21.87109-21.87109-21.87109zm0 2.19922c10.87724 0 19.67187 8.79463 19.67187 19.67187s-8.79463 19.67188-19.67187 19.67188-19.66992-8.79464-19.66992-19.67188 8.79268-19.67187 19.66992-19.67187z" filter="url(#b)" opacity=".539"/><circle cx="717.89313" cy="-56.267212" fill="none" r="20.771399" stroke="#fff" stroke-width="2.2"/><path d="m717.6875-69.875c-1.69137 0-3.0625 1.37113-3.0625 3.0625s1.37113 3.0625 3.0625 3.0625 3.0625-1.37113 3.0625-3.0625-1.37113-3.0625-3.0625-3.0625zm10.44922 7.11719-20.09766.125c-1.68809-.0109-1.67219 2.53195.0156 2.5l5.84753.77924c1.74146.5657 1.12376 1.74671.98288 2.98341-.44272 3.86447-1.71722 8.04915-2.56869 11.96977-.60372 1.61196 1.8683 2.44821 2.36718.80078l1.97461-5.84961c.63494-.71454 1.36373-.68614 2.18555.25195l1.84766 5.47266c.49888 1.64743 2.9709.81118 2.36718-.80078-1.34413-3.63937-2.07034-7.4226-2.32916-11.23624.0357-1.82965-.41962-3.16398.95716-3.59009l6.46575-.90609c1.68809.0109 1.6722-2.53195-.0156-2.5z" fill="#161616" filter="url(#c)" opacity=".688"/><path d="m717.6875-69.875c-1.69137 0-3.0625 1.37113-3.0625 3.0625s1.37113 3.0625 3.0625 3.0625 3.0625-1.37113 3.0625-3.0625-1.37113-3.0625-3.0625-3.0625zm10.44922 7.11719-20.09766.125c-1.68809-.0109-1.67219 2.53195.0156 2.5l5.84753.77924c1.74146.5657 1.12376 1.74671.98288 2.98341-.44272 3.86447-1.71722 8.04915-2.56869 11.96977-.60372 1.61196 1.8683 2.44821 2.36718.80078l1.97461-5.84961c.63494-.71454 1.36373-.68614 2.18555.25195l1.84766 5.47266c.49888 1.64743 2.9709.81118 2.36718-.80078-1.34413-3.63937-2.07034-7.4226-2.32916-11.23624.0357-1.82965-.41962-3.16398.95716-3.59009l6.46575-.90609c1.68809.0109 1.6722-2.53195-.0156-2.5z" fill="#fff"/></g></svg>