<?xml version="1.0" encoding="UTF-8" standalone="no"?>
<svg
   xmlns:dc="http://purl.org/dc/elements/1.1/"
   xmlns:cc="http://creativecommons.org/ns#"
   xmlns:rdf="http://www.w3.org/1999/02/22-rdf-syntax-ns#"
   xmlns:svg="http://www.w3.org/2000/svg"
   xmlns="http://www.w3.org/2000/svg"
   xmlns:xlink="http://www.w3.org/1999/xlink"
   xmlns:sodipodi="http://sodipodi.sourceforge.net/DTD/sodipodi-0.dtd"
   xmlns:inkscape="http://www.inkscape.org/namespaces/inkscape"
   height="136.53333"
   viewBox="0 0 136.53333 136.53333"
   width="136.53333"
   version="1.1"
   id="svg59"
   sodipodi:docname="fingerprint-gui.svg"
   inkscape:version="0.92.4 5da689c313, 2019-01-14">
  <metadata
     id="metadata65">
    <rdf:RDF>
      <cc:Work
         rdf:about="">
        <dc:format>image/svg+xml</dc:format>
        <dc:type
           rdf:resource="http://purl.org/dc/dcmitype/StillImage" />
        <dc:title />
      </cc:Work>
    </rdf:RDF>
  </metadata>
  <defs
     id="defs63">
    <linearGradient
       inkscape:collect="always"
       id="linearGradient908">
      <stop
         style="stop-color:#000000;stop-opacity:1;"
         offset="0"
         id="stop904" />
      <stop
         id="stop912"
         offset="0.89999998"
         style="stop-color:#000000;stop-opacity:0.85882353;" />
      <stop
         style="stop-color:#000000;stop-opacity:0;"
         offset="1"
         id="stop906" />
    </linearGradient>
    <linearGradient
       inkscape:collect="always"
       xlink:href="#c"
       id="linearGradient859"
       x1="73.908607"
       y1="8.693965"
       x2="73.908607"
       y2="132.4063"
       gradientUnits="userSpaceOnUse"
       gradientTransform="matrix(0.95683988,0,0,0.95683988,4.0968394,2.4098014)" />
    <linearGradient
       gradientUnits="userSpaceOnUse"
       y2="543.932"
       x2="428.408"
       y1="503.991"
       x1="388.735"
       id="linearGradient4205"
       xlink:href="#linearGradient4177"
       gradientTransform="translate(-1.755e-5,1.52e-6)" />
    <linearGradient
       id="linearGradient4177">
      <stop
         id="stop844"
         style="stop-color:#3f3f3f;stop-opacity:1;"
         offset="0" />
      <stop
         id="stop846"
         offset=".11"
         style="stop-color:#de7d9c;stop-opacity:1" />
      <stop
         id="stop848"
         style="stop-color:#cc3d8a;stop-opacity:1"
         offset=".449" />
      <stop
         id="stop850"
         offset=".934"
         style="stop-color:#5f2b76;stop-opacity:1" />
      <stop
         id="stop852"
         style="stop-color:#3f3f3f;stop-opacity:0;"
         offset="1" />
    </linearGradient>
    <radialGradient
       inkscape:collect="always"
       xlink:href="#linearGradient908"
       id="radialGradient910"
       cx="68.861264"
       cy="68.250668"
       fx="68.861264"
       fy="68.250668"
       r="68.219666"
       gradientTransform="translate(-0.57853104,3.5716224e-6)"
       gradientUnits="userSpaceOnUse" />
  </defs>
  <sodipodi:namedview
     pagecolor="#ffffff"
     bordercolor="#666666"
     borderopacity="1"
     objecttolerance="10"
     gridtolerance="10"
     guidetolerance="10"
     inkscape:pageopacity="0"
     inkscape:pageshadow="2"
     inkscape:window-width="1920"
     inkscape:window-height="1031"
     id="namedview61"
     showgrid="false"
     inkscape:zoom="1.7285157"
     inkscape:cx="-33.66738"
     inkscape:cy="69.664072"
     inkscape:window-x="0"
     inkscape:window-y="26"
     inkscape:window-maximized="1"
     inkscape:current-layer="svg59"
     showguides="false" />
  <linearGradient
     id="a">
    <stop
       offset="0"
       stop-color="#9760ef"
       id="stop2" />
    <stop
       offset="1"
       stop-color="#c054f2"
       stop-opacity="0"
       id="stop4" />
  </linearGradient>
  <linearGradient
     id="b">
    <stop
       offset="0"
       stop-color="#17c7e7"
       id="stop7" />
    <stop
       offset="1"
       stop-color="#c054f2"
       stop-opacity="0"
       id="stop9" />
  </linearGradient>
  <linearGradient
     id="c"
     gradientUnits="userSpaceOnUse"
     x1="62.04421"
     x2="66.81698"
     y1="5.831234"
     y2="47.148641">
    <stop
       offset="0"
       stop-color="#e83c2b"
       id="stop12"
       style="stop-color:#fc9b69;stop-opacity:1" />
    <stop
       offset="1"
       stop-color="#c054f2"
       stop-opacity=".792157"
       id="stop14"
       style="stop-color:#f41ab4;stop-opacity:1" />
  </linearGradient>
  <linearGradient
     id="d"
     gradientUnits="userSpaceOnUse"
     x1="88.22553"
     x2="38.18116"
     xlink:href="#b"
     y1="119.556361"
     y2="35.285226"
     gradientTransform="translate(-227.27608,-22.607353)" />
  <linearGradient
     id="e"
     gradientUnits="userSpaceOnUse"
     x1="61.6262"
     x2="95.3216"
     y1="48.640058"
     y2="103.021981">
    <stop
       offset="0"
       stop-color="#f66456"
       id="stop18" />
    <stop
       offset="1"
       stop-color="#d9493e"
       stop-opacity="0"
       id="stop20" />
  </linearGradient>
  <linearGradient
     id="f"
     gradientUnits="userSpaceOnUse"
     x1="32.31499"
     x2="61.76681"
     xlink:href="#a"
     y1="92.483823"
     y2="57.318029" />
  <linearGradient
     id="g"
     gradientUnits="userSpaceOnUse"
     x1="96.53194"
     x2="61.76681"
     xlink:href="#b"
     y1="97.690601"
     y2="59.053621" />
  <linearGradient
     id="h"
     gradientUnits="userSpaceOnUse"
     x1="139.34325"
     x2="61.76681"
     xlink:href="#a"
     y1="-7.023515"
     y2="59.053621" />
  <filter
     id="i"
     color-interpolation-filters="sRGB"
     height="1.108812"
     width="1.139866"
     x="-.069933"
     y="-.054406">
    <feGaussianBlur
       stdDeviation="1.9764485"
       id="feGaussianBlur26" />
  </filter>
  <path
     sodipodi:nodetypes="sssss"
     inkscape:connector-curvature="0"
     id="path900"
     d="m 68.282728,0.03100567 c -37.64053,0 -68.21966051,30.57912933 -68.21966051,68.21966033 0,37.640534 30.57913051,68.219664 68.21966051,68.219664 37.640542,0 68.219672,-30.57913 68.219672,-68.219664 0,-37.640531 -30.57913,-68.21966033 -68.219672,-68.21966033 z"
     style="color:#000000;font-style:normal;font-variant:normal;font-weight:normal;font-stretch:normal;font-size:medium;line-height:normal;font-family:sans-serif;font-variant-ligatures:normal;font-variant-position:normal;font-variant-caps:normal;font-variant-numeric:normal;font-variant-alternates:normal;font-feature-settings:normal;text-indent:0;text-align:start;text-decoration:none;text-decoration-line:none;text-decoration-style:solid;text-decoration-color:#000000;letter-spacing:normal;word-spacing:normal;text-transform:none;writing-mode:lr-tb;direction:ltr;text-orientation:mixed;dominant-baseline:auto;baseline-shift:baseline;text-anchor:start;white-space:normal;shape-padding:0;clip-rule:nonzero;display:inline;overflow:visible;visibility:visible;opacity:0.196;isolation:auto;mix-blend-mode:normal;color-interpolation:sRGB;color-interpolation-filters:linearRGB;solid-color:#000000;solid-opacity:1;vector-effect:none;fill:url(#radialGradient910);fill-opacity:1;fill-rule:nonzero;stroke:none;stroke-width:6.107265;stroke-linecap:butt;stroke-linejoin:miter;stroke-miterlimit:4;stroke-dasharray:none;stroke-dashoffset:0;stroke-opacity:1;color-rendering:auto;image-rendering:auto;shape-rendering:auto;text-rendering:auto;enable-background:accumulate" />
  <g
     id="g916"
     transform="translate(-0.98761335,-0.40908272)">
    <path
       sodipodi:nodetypes="sssss"
       inkscape:connector-curvature="0"
       id="circle29"
       d="m 69.270343,4.5309211 c -35.383394,0 -64.1288288,28.7454339 -64.1288288,64.1288289 0,35.38339 28.7454348,64.12883 64.1288288,64.12883 35.383397,0 64.128837,-28.74544 64.128837,-64.12883 0,-35.383395 -28.74544,-64.1288289 -64.128837,-64.1288289 z"
       style="color:#000000;font-style:normal;font-variant:normal;font-weight:normal;font-stretch:normal;font-size:medium;line-height:normal;font-family:sans-serif;font-variant-ligatures:normal;font-variant-position:normal;font-variant-caps:normal;font-variant-numeric:normal;font-variant-alternates:normal;font-feature-settings:normal;text-indent:0;text-align:start;text-decoration:none;text-decoration-line:none;text-decoration-style:solid;text-decoration-color:#000000;letter-spacing:normal;word-spacing:normal;text-transform:none;writing-mode:lr-tb;direction:ltr;text-orientation:mixed;dominant-baseline:auto;baseline-shift:baseline;text-anchor:start;white-space:normal;shape-padding:0;clip-rule:nonzero;display:inline;overflow:visible;visibility:visible;opacity:1;isolation:auto;mix-blend-mode:normal;color-interpolation:sRGB;color-interpolation-filters:linearRGB;solid-color:#000000;solid-opacity:1;vector-effect:none;fill:url(#linearGradient859);fill-opacity:1;fill-rule:nonzero;stroke:none;stroke-width:5.74103928;stroke-linecap:butt;stroke-linejoin:miter;stroke-miterlimit:4;stroke-dasharray:none;stroke-dashoffset:0;stroke-opacity:1;color-rendering:auto;image-rendering:auto;shape-rendering:auto;text-rendering:auto;enable-background:accumulate" />
    <path
       inkscape:connector-curvature="0"
       style="opacity:1;fill:#ffffff;fill-opacity:1;fill-rule:nonzero;stroke:none;stroke-width:137.77680969;stroke-miterlimit:4;stroke-dasharray:none;stroke-opacity:1"
       d="m 69.080101,24.650706 c -8.713222,-0.03977 -16.183909,1.577361 -22.977648,4.978911 -2.261666,1.132339 -2.613724,1.529519 -2.467315,2.752006 0.299005,2.495008 1.587273,2.737222 5.402785,1.024883 7.093263,-3.183232 10.544559,-3.862069 19.491776,-3.871786 10.26856,-0.0084 14.050126,0.87115 22.471533,5.231972 1.446891,0.748208 6.02756,4.284144 7.737242,2.385069 1.693256,-1.693163 0.79861,-3.094554 -3.561787,-5.573597 -8.599268,-4.888996 -16.11278,-6.880167 -26.096586,-6.927458 z m -0.26571,10.084352 c -11.49643,-0.0087 -22.985718,4.5334 -31.4108,13.633488 -3.259223,3.520395 -7.060311,9.290384 -7.060311,10.716999 0,1.663428 0.685897,2.581189 1.929565,2.581189 0.974851,0 1.966796,-1.051722 4.327287,-4.599326 5.279246,-7.934143 12.123206,-13.1977 20.940533,-16.107128 6.838181,-2.231897 14.845833,-1.97351 22.541122,0 9.935997,3.265927 18.459971,10.541628 23.129483,19.744834 1.01608,2.002534 1.62389,2.612824 2.61915,2.612824 1.71405,0 2.72043,-1.275551 2.25221,-2.859555 -0.75498,-2.554904 -4.78265,-8.745441 -7.83214,-12.039225 -8.436804,-9.112916 -19.939673,-13.675403 -31.436099,-13.6841 z m 0.544075,10.014763 c -2.450361,-0.04256 -4.936579,0.189263 -7.420921,0.708562 -11.805402,2.467706 -21.672683,12.028559 -24.831298,24.059469 -1.676222,6.384442 -0.905667,16.81284 1.859976,25.15395 0.826531,2.49271 1.225564,3.012583 2.410377,3.150563 2.724019,0.3166 2.990211,-0.979903 1.360185,-6.617453 -4.664205,-16.131375 -0.648693,-29.855494 10.919442,-37.338684 11.437176,-7.398487 27.166863,-5.208922 36.117675,5.023197 5.60896,6.411942 8.685498,17.257628 6.237875,21.990724 -1.616882,3.126807 -5.553694,5.006033 -8.787434,4.194433 C 84.8612,84.481496 82.05993,81.577322 81.701357,79.34915 80.435922,71.486203 78.649796,68.409072 74.128604,66.304019 70.27189,64.508273 67.057196,64.557845 63.272423,66.47482 c -3.526549,1.786255 -6.228467,5.391503 -6.775623,9.040491 -0.197393,1.314928 -0.110616,4.160487 0.19613,6.320119 1.907919,13.452442 11.532618,24.09447 24.749053,27.36821 1.662132,0.41153 4.379625,0.7023 6.041757,0.64529 l 3.024039,-0.10122 c 1.70816,-0.86709 1.801641,-2.86272 0,-3.84648 l -4.276676,-0.65162 c -5.382738,-0.82025 -7.611777,-1.5295 -11.311685,-3.6124 -8.045959,-4.529528 -13.81063,-14.348548 -13.81063,-23.521731 0,-4.042512 1.530587,-6.403858 5.099116,-7.882752 2.578484,-1.068657 2.615527,-1.068657 5.194012,0 3.263239,1.352406 4.83405,3.615729 5.238295,7.534797 0.742346,7.192448 5.733482,11.925348 12.576974,11.925348 5.492221,0 10.115169,-3.56407 11.754535,-9.059468 1.6045,-5.378138 -0.54948,-14.411299 -5.073809,-21.282162 C 89.901877,50.245449 79.976684,44.934274 69.358475,44.749808 Z m -0.354285,10.419656 c -3.41975,0.04327 -6.936517,0.674282 -9.818642,1.796708 -4.443938,2.176443 -8.678491,6.52297 -10.86883,11.147199 -1.666699,3.518545 -1.766115,4.06651 -1.765078,10.040067 0.0012,7.349251 0.890611,11.253381 4.05525,17.853231 2.726902,5.686868 6.504899,10.646758 10.704343,14.044718 3.639984,2.94528 4.026666,3.08822 5.541968,1.98017 1.551289,-1.13425 0.686053,-3.08207 -2.448333,-5.48502 -3.398473,-2.60544 -7.069086,-7.318285 -9.546607,-12.260668 -4.069493,-8.11796 -5.094733,-18.15108 -2.442007,-23.894981 1.925248,-4.168706 4.860945,-7.278292 8.603965,-9.116407 4.497093,-2.208446 11.065961,-2.208446 15.563054,0 5.367578,2.635882 8.799599,7.435461 10.014762,14.019402 0.725309,3.930049 1.823273,5.236374 3.498524,4.156477 0.77626,-0.500382 0.945281,-1.334195 0.873048,-4.32729 -0.175496,-7.275886 -5.273235,-14.581049 -12.722479,-18.23914 -2.500616,-1.21675 -5.823183,-1.757725 -9.242938,-1.714466 z"
       id="path861-7" />
  </g>
</svg>
