<svg height="170.66667" viewBox="0 0 170.66667 170.66667" width="170.66667" xmlns="http://www.w3.org/2000/svg" xmlns:xlink="http://www.w3.org/1999/xlink"><linearGradient id="a" gradientUnits="userSpaceOnUse" x1="320.91232" x2="332.93628" y1="111.84999" y2="117.97499"><stop offset="0" stop-color="#8295a0"/><stop offset=".47212288" stop-color="#dce6e8" stop-opacity=".980392"/><stop offset="1" stop-color="#90a4b2" stop-opacity=".929412"/></linearGradient><g transform="matrix(.98676765 -.1621407 .1621407 .98676765 -230.286654 48.856719)"><rect fill="#fdfdfd" height="141.42134" rx="3.8449" ry=".034483" stroke="#aeaeae" stroke-linecap="round" stroke-linejoin="round" stroke-width="1.2" width="114.90484" x="248.57837" y="13.688967"/><g fill="none" stroke="#999" transform="translate(219.2031)"><path d="m29.698485 32.250535h114.020965"/><path d="m29.698485 42.423215h114.020965"/><path d="m29.698485 52.595908h114.020965"/><path d="m29.698485 62.76861h114.020965"/><path d="m29.698485 72.94131h114.020965"/><path d="m29.698485 83.113999h114.020965"/><path d="m29.698485 93.286694h114.020965"/><path d="m29.698485 103.45939h114.020965"/><path d="m29.698485 113.63209h114.020965"/><path d="m29.698485 123.80478h114.020965"/><path d="m29.698485 133.97748h114.020965"/><path d="m29.698485 144.15017h114.020965"/></g><path d="m263.03521 14.291672v140.374998" fill="none" stroke="#f3bdbd"/><g transform="matrix(.31751122 .04792697 -.04792697 .31751122 166.47759 28.238299)"><path d="m605.8344-97.11805s5.93063-22.55679 9.78751-23.84701c3.85702-1.28377-6.05487 24.43143-6.05487 24.43143z" fill="#80878a" fill-opacity=".938444"/><path d="m608.8205-98.06986s3.85688-18.45732 4.23029-19.48434c.37096-1.06355 3.15179-4.69463 4.3544-5.06419 1.20277-.36526 8.17013-.93463 12.85668 2.19262 4.68628 3.11436 7.21629 3.28409 7.42371 8.91658.20734 5.64645-28.86508 13.43933-28.86508 13.43933z" fill="#54728f" fill-opacity=".997588"/><path d="m608.73736-98.06986s7.25793.10743 14.97183 3.52795l12.89809-19.15775s-3.26579-4.2488-13.43726-5.27582c-5.34998-.56937-7.29929 1.21072-7.58944 3.28409z" fill="#8bb0d8"/><path d="m605.16986-92.846542h6.158388v4.692108h-6.158388z" fill="#32475c"/><path d="m558.72143 55.425296 1.24411-16.301227 42.71694-135.701749-.68551-1.48037 1.21307.58012.0279-.10743h.75823l2.07372.98834.6855 4.2531-1.07838 3.67836 1.45149 8.0969-3.47476 11.22093-3.87086.95611-6.04123 24.62158-29.61884 96.27435s2.29348 3.099317-5.39294 2.966106z" fill="#817160"/><path d="m560.0672 50.166662s-.23162 3.891067.11677 4.084438c.3542.268572 3.90025-3.240048 3.90025-3.240048l-.14675 7.441584 1.31966-.386744 17.22892-55.5223594 18.08053-60.2889726.0935-5.04915 2.7787-6.10087 3.27632-10.99855 2.48834-8.65445 2.03222-2.79315 8.29455-.87017-6.2624 28.19466-41.68012 127.636-12.60771 3.085352-3.73254-8.470751z" fill="#797878"/><path d="m628.27051-85.94332s1.34049-3.33028 5.19488-3.33028c3.85426 0 5.90681 8.42348 3.18374 11.77096-2.72308 3.37648-8.37862-8.44068-8.37862-8.44068z" fill="#8d8d85" fill-opacity=".989868"/><path d="m498.99026 332.83298 39.61671-76.04553-6.67711-3.6934s.5713 1.14734 0 2.64597c-.60386 1.59961-33.002 77.07899-33.002 77.07899z" fill="#9e9e9e"/><path d="m530.53213 259.68265c.79615-.93463 2.93266-5.40366 1.7176-6.27813-1.21498-.93463-4.6083-3.34748-10.47338-4.01139 0 0 .58591 1.63399-1.96906 2.93065-2.55565 1.28055-7.0382.50492-7.0382.50492l.66906 5.33813 9.92889 1.66085z" fill="#5c5956"/><path d="m548.54222 49.210547c.14632 2.514905.61546 3.445238 1.81836 3.764301 1.20225.429714 1.78888 2.647042 1.64209 5.415479-.1461 2.68894 7.83006-4.596873 7.83006-4.596873l.4975-4.790244z" fill="#898a8b"/><path d="m550.16004 51.26136c6.23234.891658 8.31633 1.198904 10.17484-.934629 2.63677-2.766288 23.37693-77.734311 23.37693-77.734311l20.8546-67.54363s-.47419-4.75049-5.68776-4.50771c-5.21367.24709-6.87257 0-9.24233 7.58877-2.37 7.57264-38.39181 132.698038-39.81396 135.814544-1.42187 3.048825-2.26906 6.643389.33765 7.118223z" fill="#b3d5f0"/><path d="m618.78571-118.52643c-.29693.20411-7.16882 20.3717-7.16882 20.3717s2.36978.10743 3.55462.50491c1.18519.42972 6.28039-20.43186 6.28039-20.43186z" fill="#b3d5f0"/><path d="m562.78556 53.836426c-1.57588 2.641671-2.19801 4.82677-.82827 4.771981 1.36859-.107429 2.77868.93463 3.44207 0 .66305-.934629 7.92128-21.963791 7.92128-21.963791s28.24296-93.076206 28.11855-94.653256c-.1244-1.57383-.1244-4.0651.37235-4.67315.49643-.69828 1.9493-4.324 1.9493-5.02121 0-.76274 4.89369-16.42692 5.01807-17.46575.12516-1.06355 2.0737-3.26476 1.0368-3.89644-1.0368-.66606-2.6956-1.78439-3.56661-1.17205-.86964.66606-2.77873 5.97626-1.82487 6.88188.95418.93463 2.19815 2.75555 2.19815 2.75555l-3.52513 10.77294s-2.28117-.10742-3.31795 1.09148c-1.03679 1.11189-2.7372 8.69528-3.77396 12.97201-1.03679 4.28103-13.68597 45.35209-14.84729 48.4524806-1.16124 3.198151-15.85924 55.4933544-18.37246 61.1473254z" fill="#718ea5"/><path d="m611.26143-89.02115c.82828-.51565 2.36973 1.64044 2.36973 3.18204 0 1.5459-17.35917 62.50093-19.72906 68.907974-2.36998 6.417788-11.37558 38.753818-11.37558 38.753818l-19.31426 64.604379-13.98232 47.724109s-2.84368-1.88-4.26566-1.88c-1.42202 0 27.49057-88.081839 27.49057-88.081839l29.14925-98.796781.94816-5.452z" fill="#b3d5f0"/><path d="m570.80041 144.00775 1.52505-4.19616 48.32864-165.61633-53.63661 166.76045z" fill="#939394"/><g fill="#d2f2ff"><path d="m538.09145 132.0778c6.81354.38674 6.99137 0 6.99137 0l23.69867-75.056114s-1.48115 5.322016-8.76869 3.375409l-.82828-1.867111-8.76864 32.498247s-16.52985 41.049569-12.32333 41.049569z"/><path d="m612.20933-88.32501c-.82828-1.03131-1.36261-2.58796-.29694-3.43557 1.06634-.87017 2.90309-1.41913 3.85113.80572.94806 2.17973-2.0146 7.81543-2.25152 6.2126-.2342-1.60714-1.30341-3.55804-1.30341-3.55804z"/><path d="m614.81615-98.09135s1.95531 1.41806 3.2586 1.03132c1.30335-.42972 7.93901-19.07504 6.93188-20.61771-1.00758-1.53838-3.25845-1.53838-3.73244-.41898-.4744 1.11619-7.22833 19.66697-6.45804 20.01934z"/><path d="m506.73639 245.95219s-4.1893 1.1742-5.19491 3.80083c-1.00564 2.72117-13.9086 79.14055-13.9086 79.14055l5.19495.66606s21.28184-73.22768 21.11431-75.07223c-.16877-1.84025-3.51916-7.69941-7.20575-8.38159z"/></g><path d="m509.75284 247.23811s10.8924 1.0528 12.40049 2.39674c1.50809 1.35467-3.51899 4.07369-7.70853 3.4506-4.18932-.89165-4.69196-5.84734-4.69196-5.84734z" fill="#a6c9e5"/><path d="m501.70932 250.12902s4.85955-2.17436 4.35682-3.34748c-.50309-1.19998-4.35682-1.85422-5.69746-.93463-1.3407.98834-13.40593 83.90824-13.40593 83.90824s.66875-.2256 1.00564-1.15594c.33432-.9776 12.23312-75.92843 13.7413-78.54324z" fill="#a6c9e5"/><path d="m491.6546 329.53277 3.18402 1.35145 27.65002-75.59326-8.04384-.93462z" fill="#5a5b60"/><path d="m494.33602 331.09049 27.81731-75.92737 4.5246 2.0014-30.83393 75.0733s-1.50798-1.14733-1.50798-1.14733z" fill="#592628"/><path d="m525.84001 256.97974c.33431 0 5.02714 2.28823 5.02714 2.28823l-34.10139 72.96985h-1.08938z" fill="#373d42"/><path d="m498.92784 332.8781s12.30715-27.68652 13.75864-31.22629c1.45147-3.58812 18.58305-43.11543 18.58305-43.11543s-30.4107 63.79115-33.92977 72.02878l-.40973 1.14949z" fill="#62594f" fill-opacity=".946832"/><path d="m500.70376 246.0897h-6.70313l-8.66031 83.0198 1.72603.26857s12.1292-79.6272 13.63741-83.22284z" fill="#a8a8a9"/><path d="m522.40485 250.37181c1.50789.11817 2.76484 1.44491 1.08901 2.61803-1.67577 1.1409-4.85952.66606-3.4353-.89166 1.4244-1.17634 2.34629-1.9466 2.34629-1.9466z" fill="#cdccc2"/><path d="m525.92388 254.57656c-.92142-.99908-1.55022-2.75554-.7548-3.13584.79626-.50491 3.35158 1.3912 2.42981 2.57184-.9212 1.15808-1.67545.73052-1.67545.73052z" fill="#e4c7a5"/><path d="m494.03025 246.21647 36.33431-114.58128 4.18936.66606-35.4565 114.92397z" fill="#d2dde4"/><path d="m498.69282 247.12639 6.20025-.93463 11.06-42.90701 22.7902-71.20373-4.69208.2256z" fill="#c2e0f1"/><path d="m504.31263 246.29059 6.31438 1.23221 11.35865-23.03915 28.15271-90.12836-5.19465-2.20122-6.7031.2256s-27.85646 81.47391-34.22418 113.16859z" fill="#d5d8d9"/><path d="m510.54921 247.4057 11.83105 2.17973 15.52528-47.70907 21.44947-63.72777-9.55179-4.17145-38.1386 111.45295z" fill="#aecbe5"/><path d="m522.31637 249.57254 9.22127 3.20352 34.85554-111.73441-7.87596-3.21319z" fill="#af9a81"/><path d="m530.53213 251.94886 6.3677 5.34995 1.67586-.4512 32.00685-109.22596 1.00597-6.70999-5.86516-.2256z" fill="#9d9d9c"/><path d="m533.88366 131.9693 23.79568-77.262702 2.17853-.999087-.83762 6.831389-20.94681 72.10183z" fill="#8fb1ce"/><path d="m530.36456 131.63519 22.45511-77.394833h5.69755l-24.63356 77.913713z" fill="#a7a7a8"/><path d="m614.15223-84.37486s3.0162-4.85362 1.34045-7.3696c-1.67554-2.51383-4.69199 1.50937-4.69199 1.50937-.66982-.68754-4.18928-1.83596-4.18928-1.83596s-.83773-5.53257-3.01646-5.53257c0 0 15.08173-.20412 30.3311 8.55132 0 0-9.88691-4.20154-14.579 14.92614-4.6922 19.08685-26.97966 90.2895-26.97966 90.2895l-36.3637 120.70685-6.8707-3.24542z" fill="#97b4cf"/><path d="m555.16567 136.25248s1.59199 1.8048 3.43534 1.71026c0 0 64.68412-218.08772 67.03016-220.23629 2.34601-2.14643 2.72313-6.03857 8.04353-6.86792 0 0-5.65553-2.60299-10.76662 5.26938-5.11124 7.87667-11.39519 36.24214-11.39519 36.24214z" fill="#c6c4b9"/><path d="m557.97257 137.93911 5.15281 1.76613s65.21605-216.96617 66.02486-218.82683c1.08908-2.51598 4.77581-5.29839 7.4571-6.26095 0 0-4.6502-2.88446-8.33683-.66606-3.68668 2.24956-6.28423 12.3629-6.28423 12.3629z" fill="#dfc5a3"/><path d="m562.38281 139.19495c.97739.8272 1.4219 2.6277 4.94719 1.72208l34.03717-105.338107s35.19254-111.271393 35.42943-113.633753c.2342-2.39243.11774-7.43728-2.34007-6.45968-2.45873.99908-5.74693 4.44432-5.95429 5.52505-.20734 1.09148-64.28288 211.67316-66.11943 218.18441z" fill="#7a6e5e"/><path d="m566.10002 140.81282c.79615-.38674 68.09-219.46817 66.90505-220.25348-1.18508-.81646-1.5407.752-2.3108 2.2689-.77027 1.54267-66.47487 217.00161-66.47487 217.00161-.1476.9024.47312.93463 1.88062.99909z" fill="#43474a"/><path d="m485.30275 329.12884s4.62109-2.70398 13.68592 3.72348l-1.71809 1.78009s-3.6141-4.79132-10.24968-3.30451z" fill="#262b2d"/><path d="m486.9024 331.11842s-2.90327 9.6675-3.58456 13.18472c0 0 .14782.51566 1.03668.70903l4.41402-13.85615z" fill="#242421"/><path d="m484.38419 344.78979h3.28237l4.23338-13.52957s-1.79519-.47268-3.23192-.3008z" fill="#d9f5fe"/><path d="m487.49198 344.735 1.01541.10743 5.20502-12.97416s-1.49309-.80572-1.8665-.77349c-.37106 0-4.35442 13.43503-4.35442 13.43503z" fill="#95badb"/><path d="m488.34205 344.70707 2.30178 1.13767 4.56207-13.12886s-.64467-.85943-1.55549-.93463z" fill="#cdb699"/><path d="m490.41574 345.66211 1.07831 2.37095 5.76455-13.41354s-1.36851-1.69415-2.07344-1.87571z" fill="#696158" fill-opacity=".923439"/><path d="m483.55202 346.86316c3.44208-.46194 5.26694-.10743 7.00886 1.60606l.99544-.63383s-.52587-2.23129-1.89739-2.97255c-1.38279-.93463-1.84551-.93463-6.33498-.88091z" fill="#242421"/><path d="m484.54719 346.72673-2.52987 8.01847s1.92857.91315 5.08046 1.53838l2.73717-8.45463s-1.68695-1.73927-5.28776-1.10222z" fill="#313334" fill-opacity=".999013"/><path d="m482.74316 352.95867-.551 1.70704 4.71742 1.31707.65284-1.63184s-3.06906.44046-4.82113-1.39227z" fill-opacity=".929412"/><path d="m564.44455 58.011104s33.84167-112.435924 34.17347-114.441614c.32981-1.98743-.66305-4.79132.16662-5.7947.82839-1.00983 1.32706-1.98636 1.32706-1.98636" fill="none" stroke="#000" stroke-opacity=".734463" stroke-width="5.371431"/><path d="m599.65482-67.46236c.99554-.93463 3.19351-.76274 2.86165.76274-.32981 1.40947-.32981 2.85331-1.65887 2.85331-1.32695 0-2.11505-.35452-1.20278-3.56771z" fill="#2b0e10" opacity=".716418"/><path d="m625.6981-94.06385 5.80646 2.64704s6.09988-18.54326 6.09988-19.95272c0-1.40195-1.03883-2.78348-1.03883-2.78348l-3.90875.48343z" fill="#7a6e5e"/><path d="m624.52519-94.18954c.23226-3.98668 6.74494-19.70242 7.74191-20.34914.99715-.66606 4.28164-1.63399 4.92676 1.46748 0 0-2.69797-1.75646-4.28173 1.94231-1.58339 3.69017-4.86778 17.24552-5.63037 17.34865-.76435.13966-2.8152.56938-2.75657-.42971z" fill="#dfc5a3"/><path d="m628.51355-93.65777 4.7505-13.13208-3.92965 13.72187z" fill="#43474a"/><path d="m622.58926-94.99633s6.304-18.7463 7.42362-20.19766c1.12002-1.45029 4.02297-1.2075 5.30864 0 0 0-2.69583-.2256-3.51485 1.42987-.81732 1.62218-7.2265 19.8496-7.2265 19.8496z" fill="#c6c4b9"/><path d="m600.88867-99.05284s23.60724-1.22361 33.60722 10.19391c0 0-11.17948-5.13831-17.00895-6.58108-6.27564-1.55664-14.13503-2.05618-14.13503-2.05618s-.8792-1.08933-2.46324-1.55665z" fill="#1e1d28"/></g><path d="m312.31122 130.56034-.77389-.46818 17.02808-34.639445 12.64448 4.921125-16.0384 35.22876z" fill="#727e84"/><path d="m312.31122 130.56034 17.35553-34.832881c3.76491.297073 7.3388 1.644715 10.6327 4.532371l-15.68169 35.40571c-3.23913-.53254-8.54569-2.54246-12.30654-5.1052z" fill="url(#a)"/><g fill="none"><path d="m313.19653 127.90724c4.87429.0483 10.05476 2.71822 12.74845 5.49616" stroke="#a2886c" stroke-opacity=".376426"/><path d="m314.94653 124.34474c4.87429.0483 10.05476 2.71822 12.74845 5.49616" stroke="#a2886c" stroke-opacity=".376426"/><path d="m316.44653 121.15724c4.87429.0483 10.05476 2.71822 12.74845 5.49616" stroke="#a2886c" stroke-opacity=".376426"/><path d="m334.71345 97.264076-17.90651 36.423304" stroke="#b8d0db" stroke-width="1.6"/></g><path d="m328.56445 95.453125-17.02734 34.638675.77344.46875 17.29101-34.703128zm11.16211 4.34375c.19045.155357.38364.297525.57227.462895l-15.57617 35.16796.44922.17579 16.0371-35.23047z" fill="#727e84"/></g></svg>