<svg height="136.53333" viewBox="0 0 136.53333 136.53333" width="136.53333" xmlns="http://www.w3.org/2000/svg" xmlns:xlink="http://www.w3.org/1999/xlink"><linearGradient id="a" gradientUnits="userSpaceOnUse" x1="62.04421" x2="66.81698" y1="5.831234" y2="47.148641"><stop offset="0" stop-color="#e8b22b"/><stop offset="1" stop-color="#54f2ab" stop-opacity=".792157"/></linearGradient><linearGradient id="b" gradientUnits="userSpaceOnUse" x1="88.22553" x2="38.18116" y1="119.556361" y2="35.285226"><stop offset="0" stop-color="#17c7e7"/><stop offset="1" stop-color="#f2f154" stop-opacity="0"/></linearGradient><linearGradient id="c" gradientUnits="userSpaceOnUse" x1="61.6262" x2="95.3216" y1="48.640058" y2="103.021981"><stop offset="0" stop-color="#f66456"/><stop offset="1" stop-color="#d9493e" stop-opacity="0"/></linearGradient><linearGradient id="d" gradientUnits="userSpaceOnUse" x1="32.31499" x2="61.76681" y1="92.483823" y2="57.318029"><stop offset="0" stop-color="#96f795"/><stop offset="1" stop-color="#c1b508" stop-opacity="0"/></linearGradient><linearGradient id="e" gradientUnits="userSpaceOnUse" x1="96.53194" x2="61.76681" y1="97.690601" y2="59.053621"><stop offset="0" stop-color="#17cae7"/><stop offset="1" stop-color="#75f590" stop-opacity="0"/></linearGradient><linearGradient id="f" gradientUnits="userSpaceOnUse" x1="139.34325" x2="61.76681" y1="-7.023515" y2="59.053621"><stop offset="0" stop-color="#49dbed"/><stop offset="1" stop-color="#fbc94b" stop-opacity="0"/></linearGradient><filter id="g" color-interpolation-filters="sRGB" height="1.108812" width="1.139866" x="-.069933" y="-.054406"><feGaussianBlur stdDeviation="1.9764485"/></filter><circle cx="68.112343" cy="69.239136" fill="#fff" fill-opacity=".995434" r="64.021523" stroke="url(#a)" stroke-opacity=".948187" stroke-width="6"/><g filter="url(#g)"><path d="m94.762267 22.987725c-.18436-.01537-.37443-.0043-.56836.03711l-42.13477 9c-1.55143.331373-3.06836 1.890138-3.06836 3.476563v7.363281l-.17578 43.832031c-3.66128 2.81867-11.94881 1.74921-16.5 5.78711-4.26102 4.888501-4.33147 12.82749 1.17969 16.06055 7.15682 4.04454 20.65635.7443 19.99609-12.292969l.4961-44.542972 37.84961-6.398438.0645 31.945313c-3.77441 2.596773-11.79545 1.664799-16.24805 5.615234-4.26102 4.888503-4.33147 12.825543 1.17969 16.058593 7.15682 4.044539 20.65635.7443 19.99609-12.292968l.0859-43.763672c.0849-.256453.14258-.528034.14258-.826172v-16.158204c0-1.38812-1.00443-2.792812-2.29492-2.90039z" fill="#17c7e7"/><path d="m94.762267 22.987725c-.18436-.01537-.37443-.0043-.56836.03711l-42.13477 9c-1.55143.331373-3.06836 1.890138-3.06836 3.476563v7.363281l-.17578 43.832031c-3.66128 2.81867-11.94881 1.74921-16.5 5.78711-4.26102 4.888501-4.33147 12.82749 1.17969 16.06055 7.15682 4.04454 20.65635.7443 19.99609-12.292969l.4961-44.542972 37.84961-6.398438.0645 31.945313c-3.77441 2.596773-11.79545 1.664799-16.24805 5.615234-4.26102 4.888503-4.33147 12.825543 1.17969 16.058593 7.15682 4.044539 20.65635.7443 19.99609-12.292968l.0859-43.763672c.0849-.256453.14258-.528034.14258-.826172v-16.158204c0-1.38812-1.00443-2.792812-2.29492-2.90039z" fill="url(#c)"/><path d="m94.762267 22.987725c-.18436-.01537-.37443-.0043-.56836.03711l-42.13477 9c-1.55143.331373-3.06836 1.890138-3.06836 3.476563v7.363281l-.17578 43.832031c-3.66128 2.81867-11.94881 1.74921-16.5 5.78711-4.26102 4.888501-4.33147 12.82749 1.17969 16.06055 7.15682 4.04454 20.65635.7443 19.99609-12.292969l.4961-44.542972 37.84961-6.398438.0645 31.945313c-3.77441 2.596773-11.79545 1.664799-16.24805 5.615234-4.26102 4.888503-4.33147 12.825543 1.17969 16.058593 7.15682 4.044539 20.65635.7443 19.99609-12.292968l.0859-43.763672c.0849-.256453.14258-.528034.14258-.826172v-16.158204c0-1.38812-1.00443-2.792812-2.29492-2.90039z" fill="url(#c)"/><path d="m94.762267 22.987725c-.18436-.01537-.37443-.0043-.56836.03711l-42.13477 9c-1.55143.331373-3.06836 1.890138-3.06836 3.476563v7.363281l-.17578 43.832031c-3.66128 2.81867-11.94881 1.74921-16.5 5.78711-4.26102 4.888501-4.33147 12.82749 1.17969 16.06055 7.15682 4.04454 20.65635.7443 19.99609-12.292969l.4961-44.542972 37.84961-6.398438.0645 31.945313c-3.77441 2.596773-11.79545 1.664799-16.24805 5.615234-4.26102 4.888503-4.33147 12.825543 1.17969 16.058593 7.15682 4.044539 20.65635.7443 19.99609-12.292968l.0859-43.763672c.0849-.256453.14258-.528034.14258-.826172v-16.158204c0-1.38812-1.00443-2.792812-2.29492-2.90039z" fill="url(#d)"/><path d="m94.762267 22.987725c-.18436-.01537-.37443-.0043-.56836.03711l-42.13477 9c-1.55143.331373-3.06836 1.890138-3.06836 3.476563v7.363281l-.17578 43.832031c-3.66128 2.81867-11.94881 1.74921-16.5 5.78711-4.26102 4.888501-4.33147 12.82749 1.17969 16.06055 7.15682 4.04454 20.65635.7443 19.99609-12.292969l.4961-44.542972 37.84961-6.398438.0645 31.945313c-3.77441 2.596773-11.79545 1.664799-16.24805 5.615234-4.26102 4.888503-4.33147 12.825543 1.17969 16.058593 7.15682 4.044539 20.65635.7443 19.99609-12.292968l.0859-43.763672c.0849-.256453.14258-.528034.14258-.826172v-16.158204c0-1.38812-1.00443-2.792812-2.29492-2.90039z" fill="url(#e)"/><path d="m94.762267 22.987725c-.18436-.01537-.37443-.0043-.56836.03711l-42.13477 9c-1.55143.331373-3.06836 1.890138-3.06836 3.476563v7.363281l-.17578 43.832031c-3.66128 2.81867-11.94881 1.74921-16.5 5.78711-4.26102 4.888501-4.33147 12.82749 1.17969 16.06055 7.15682 4.04454 20.65635.7443 19.99609-12.292969l.4961-44.542972 37.84961-6.398438.0645 31.945313c-3.77441 2.596773-11.79545 1.664799-16.24805 5.615234-4.26102 4.888503-4.33147 12.825543 1.17969 16.058593 7.15682 4.044539 20.65635.7443 19.99609-12.292968l.0859-43.763672c.0849-.256453.14258-.528034.14258-.826172v-16.158204c0-1.38812-1.00443-2.792812-2.29492-2.90039z" fill="url(#f)"/></g><circle cx="68.112343" cy="69.239136" fill="none" r="64.021523" stroke="url(#b)" stroke-opacity=".948187" stroke-width="6"/><path d="m94.762267 22.987725c-.18436-.01537-.37443-.0043-.56836.03711l-42.13477 9c-1.55143.331373-3.06836 1.890138-3.06836 3.476563v7.363281l-.17578 43.832031c-3.66128 2.81867-11.94881 1.74921-16.5 5.78711-4.26102 4.888501-4.33147 12.82749 1.17969 16.06055 7.15682 4.04454 20.65635.7443 19.99609-12.292969l.4961-44.542972 37.84961-6.398438.0645 31.945313c-3.77441 2.596773-11.79545 1.664799-16.24805 5.615234-4.26102 4.888503-4.33147 12.825543 1.17969 16.058593 7.15682 4.044539 20.65635.7443 19.99609-12.292968l.0859-43.763672c.0849-.256453.14258-.528034.14258-.826172v-16.158204c0-1.38812-1.00443-2.792812-2.29492-2.90039z" fill="#17c7e7"/><path d="m94.762267 22.987725c-.18436-.01537-.37443-.0043-.56836.03711l-42.13477 9c-1.55143.331373-3.06836 1.890138-3.06836 3.476563v7.363281l-.17578 43.832031c-3.66128 2.81867-11.94881 1.74921-16.5 5.78711-4.26102 4.888501-4.33147 12.82749 1.17969 16.06055 7.15682 4.04454 20.65635.7443 19.99609-12.292969l.4961-44.542972 37.84961-6.398438.0645 31.945313c-3.77441 2.596773-11.79545 1.664799-16.24805 5.615234-4.26102 4.888503-4.33147 12.825543 1.17969 16.058593 7.15682 4.044539 20.65635.7443 19.99609-12.292968l.0859-43.763672c.0849-.256453.14258-.528034.14258-.826172v-16.158204c0-1.38812-1.00443-2.792812-2.29492-2.90039z" fill="url(#c)"/><path d="m94.762267 22.987725c-.18436-.01537-.37443-.0043-.56836.03711l-42.13477 9c-1.55143.331373-3.06836 1.890138-3.06836 3.476563v7.363281l-.17578 43.832031c-3.66128 2.81867-11.94881 1.74921-16.5 5.78711-4.26102 4.888501-4.33147 12.82749 1.17969 16.06055 7.15682 4.04454 20.65635.7443 19.99609-12.292969l.4961-44.542972 37.84961-6.398438.0645 31.945313c-3.77441 2.596773-11.79545 1.664799-16.24805 5.615234-4.26102 4.888503-4.33147 12.825543 1.17969 16.058593 7.15682 4.044539 20.65635.7443 19.99609-12.292968l.0859-43.763672c.0849-.256453.14258-.528034.14258-.826172v-16.158204c0-1.38812-1.00443-2.792812-2.29492-2.90039z" fill="url(#c)"/><path d="m94.762267 22.987725c-.18436-.01537-.37443-.0043-.56836.03711l-42.13477 9c-1.55143.331373-3.06836 1.890138-3.06836 3.476563v7.363281l-.17578 43.832031c-3.66128 2.81867-11.94881 1.74921-16.5 5.78711-4.26102 4.888501-4.33147 12.82749 1.17969 16.06055 7.15682 4.04454 20.65635.7443 19.99609-12.292969l.4961-44.542972 37.84961-6.398438.0645 31.945313c-3.77441 2.596773-11.79545 1.664799-16.24805 5.615234-4.26102 4.888503-4.33147 12.825543 1.17969 16.058593 7.15682 4.044539 20.65635.7443 19.99609-12.292968l.0859-43.763672c.0849-.256453.14258-.528034.14258-.826172v-16.158204c0-1.38812-1.00443-2.792812-2.29492-2.90039z" fill="url(#d)"/><path d="m94.762267 22.987725c-.18436-.01537-.37443-.0043-.56836.03711l-42.13477 9c-1.55143.331373-3.06836 1.890138-3.06836 3.476563v7.363281l-.17578 43.832031c-3.66128 2.81867-11.94881 1.74921-16.5 5.78711-4.26102 4.888501-4.33147 12.82749 1.17969 16.06055 7.15682 4.04454 20.65635.7443 19.99609-12.292969l.4961-44.542972 37.84961-6.398438.0645 31.945313c-3.77441 2.596773-11.79545 1.664799-16.24805 5.615234-4.26102 4.888503-4.33147 12.825543 1.17969 16.058593 7.15682 4.044539 20.65635.7443 19.99609-12.292968l.0859-43.763672c.0849-.256453.14258-.528034.14258-.826172v-16.158204c0-1.38812-1.00443-2.792812-2.29492-2.90039z" fill="url(#e)"/><path d="m94.762267 22.987725c-.18436-.01537-.37443-.0043-.56836.03711l-42.13477 9c-1.55143.331373-3.06836 1.890138-3.06836 3.476563v7.363281l-.17578 43.832031c-3.66128 2.81867-11.94881 1.74921-16.5 5.78711-4.26102 4.888501-4.33147 12.82749 1.17969 16.06055 7.15682 4.04454 20.65635.7443 19.99609-12.292969l.4961-44.542972 37.84961-6.398438.0645 31.945313c-3.77441 2.596773-11.79545 1.664799-16.24805 5.615234-4.26102 4.888503-4.33147 12.825543 1.17969 16.058593 7.15682 4.044539 20.65635.7443 19.99609-12.292968l.0859-43.763672c.0849-.256453.14258-.528034.14258-.826172v-16.158204c0-1.38812-1.00443-2.792812-2.29492-2.90039z" fill="url(#f)"/></svg>