<svg height="136.53333" viewBox="0 0 136.53333 136.53333" width="136.53333" xmlns="http://www.w3.org/2000/svg" xmlns:xlink="http://www.w3.org/1999/xlink"><linearGradient id="a" gradientUnits="userSpaceOnUse" x1="68.462769" x2="68.286613" y1="23.819031" y2="121.01225"><stop offset="0" stop-color="#e36d9b"/><stop offset="1" stop-color="#da3c79"/></linearGradient><circle cx="68.953224" cy="68.365921" fill="url(#a)" r="64.021523" stroke="#eee" stroke-width="6"/><path d="m46.291016 33.666016c-3.953326 0-7.136719 3.185353-7.136719 7.138672v46.791015c0 3.95333 3.183393 7.134766 7.136719 7.134766h28.78125c3.953326 0 7.134765-3.181436 7.134765-7.134766v-46.791015c0-3.953319-3.181439-7.138672-7.134765-7.138672h-3.179688c-2.187529 1.257447-3.861826 3.666597-3.867187 6.082031l-.041016 18.644531-.005859 2.330078c-.00067.312319.047571.624758.125.931641h2.886718a1.2164798 1.2164798 0 1 1 0 2.431641h-1.380859c.849862.783242 1.929377 1.306172 3.019531 1.308593 2.33057.0053 4.666725-2.319821 4.671875-4.65039l.00586-2.330079.029297-13.984374.005859-2.330079c.003-1.165281-1.160892-2.333339-2.326172-2.335937-1.16526-.0027-2.331394 1.160898-2.333984 2.326172l-.03711 16.3125-2.330078-.003906.035156-16.314454c.005-2.330582 2.341315-4.655586 4.671875-4.65039 2.33056.0053 4.655561 2.341326 4.650391 4.671875l-.003906 2.330078-.03711 16.314453c-.008 3.495837-3.510019 6.982343-7.005859 6.974609-2.329626-.005198-4.650939-1.565434-5.941406-3.638671h-13.533203a1.2164798 1.2164798 0 0 1 -.083985-2.431641 1.2164798 1.2164798 0 0 1 .083985 0h12.58789c-.052859-.310635-.090539-.62252-.089843-.935547l.003906-2.332031.041015-18.642578c.004842-2.191206 1.047243-4.374669 2.626953-6.078125zm39.566406 10.623046v46.292969c0 3.953329-3.18144 7.134766-7.134766 7.134766h-22.974609v.498047c0 3.953336 3.183393 7.136716 7.136719 7.136716h28.78125c3.953326 0 7.134765-3.18338 7.134765-7.136716v-46.791016c0-3.953318-3.181439-7.134766-7.134765-7.134766zm-40.00586 12.09375a4.3788894 4.3788894 0 0 1 4.378907 4.38086 4.3788894 4.3788894 0 0 1 -4.378907 4.378906 4.3788894 4.3788894 0 0 1 -4.378906-4.378906 4.3788894 4.3788894 0 0 1 4.378906-4.38086zm5.839844 11.191407a4.3788894 4.3788894 0 0 1 4.378906 4.376953 4.3788894 4.3788894 0 0 1 -4.378906 4.378906 4.3788894 4.3788894 0 0 1 -4.378906-4.378906 4.3788894 4.3788894 0 0 1 4.378906-4.376953zm7.289063 5.269531h8.919922a1.216782 1.216782 0 1 1 0 2.433594h-8.919922a1.216782 1.216782 0 0 1 0-2.433594zm12.974609 0h5.837891a1.216782 1.216782 0 1 1 0 2.433594h-5.837891a1.216782 1.216782 0 0 1 0-2.433594zm-14.425781 5.919922a4.3788894 4.3788894 0 0 1 4.378906 4.378906 4.3788894 4.3788894 0 0 1 -4.378906 4.378906 4.3788894 4.3788894 0 0 1 -4.378906-4.378906 4.3788894 4.3788894 0 0 1 4.378906-4.378906zm7.630859 4.785156a1.216782 1.216782 0 0 1 .050782 0h7.623046a1.216782 1.216782 0 1 1 0 2.433594h-7.623046a1.216782 1.216782 0 0 1 -.050782-2.433594z" fill="#fff" stroke-width=".162181"/></svg>