<svg enable-background="new 0 0 128 128" viewBox="0 0 128 128" xmlns="http://www.w3.org/2000/svg" xmlns:xlink="http://www.w3.org/1999/xlink"><linearGradient id="a" gradientUnits="userSpaceOnUse" x1="56.01666" x2="56.55904" y1="14.355936" y2="110.89831"><stop offset="0" stop-color="#c5eeb3"/><stop offset="1" stop-color="#18c2a4"/></linearGradient><linearGradient id="b" gradientUnits="userSpaceOnUse" x1="170.9404" x2="187.08954" y1="144.79119" y2="185.98788"><stop offset="0" stop-color="#fcfdfc"/><stop offset="1" stop-color="#e0e7e0"/></linearGradient><filter id="c" color-interpolation-filters="sRGB" height="1.0672" width="1.0672" x="-.0336" y="-.0336"><feGaussianBlur stdDeviation=".88352991"/></filter><filter id="d" color-interpolation-filters="sRGB" height="1.032404" width="1.019058" x="-.009529" y="-.016202"><feGaussianBlur stdDeviation=".32879783"/></filter><filter id="e" color-interpolation-filters="sRGB" height="1.023226" width="1.024828" x="-.012414" y="-.011613"><feGaussianBlur stdDeviation=".18509392"/></filter><linearGradient id="f" gradientUnits="userSpaceOnUse" x1="168.83479" x2="189.41695" y1="141.33534" y2="171.03383"><stop offset="0" stop-color="#c5eeb3"/><stop offset="1" stop-color="#17c2a4" stop-opacity=".937255"/></linearGradient><rect fill="url(#a)" height="101.42374" opacity=".934" rx="19.525423" ry="13.016948" width="112.81356" x=".694625" y="13"/><path d="m27.13734 39.796829c-3.69941 0-6.67774 2.978329-6.67774 6.677735v34.966797c0 3.699405 2.97833 6.677734 6.67774 6.677734h41.87109c3.69941 0 6.67773-2.978329 6.67773-6.677734v-34.966797c0-3.699406-2.97832-6.677734-6.67773-6.677735zm68.49218 4.984376-17.83398 12.273437v31.447266l17.83398-1.72461zm3.56641.195312-2.53125.0625s-.0625 15.53125-.0625 15.8125 2.59375 12.1875 2.59375 12.1875zm-80.15625 5.6875-1.66992.02148c-.42474.02222-1.02231.491782-.98633 1.041016v4.59375c.0284.542382.42635.981185.96875.96875h1.6875z" filter="url(#d)" opacity=".491"/><path d="m26.44984 39.359329c-3.69941 0-6.67774 2.978329-6.67774 6.677735v34.966797c0 3.699405 2.97833 6.677734 6.67774 6.677734h41.87109c3.69941 0 6.67773-2.978329 6.67773-6.677734v-34.966797c0-3.699406-2.97832-6.677734-6.67773-6.677735zm68.49218 4.984376-17.83398 12.273437v31.447266l17.83398-1.72461zm3.56641.195312-2.53125.0625s-.0625 15.53125-.0625 15.8125 2.59375 12.1875 2.59375 12.1875zm-80.15625 5.6875-1.66992.02148c-.42474.02222-1.02231.491782-.98633 1.041016v4.59375c.0284.542382.42635.981185.96875.96875h1.6875z" fill="#fff"/><g transform="translate(-86.071065 -64.510408)"><circle cx="180.36331" cy="156.18459" fill="#333" filter="url(#c)" opacity=".934" r="31.55464"/><circle cx="180.36331" cy="156.18459" fill="url(#b)" opacity=".934" r="31.55464"/><path d="m169.92015 137.34482c-.62218-.0783-1.66284.027-2.63542.85583-.97257.8288-3.67034 2.78059-4.24904 7.37773-.5787 4.59715 2.21029 9.45734 2.59702 10.13805.38989.6811 5.31833 10.88302 14.17636 16.10629 2.10685 1.242 3.77451 2.03711 5.07466 2.63807 2.14791.9918 4.1973 1.14684 5.8362 1.11056 1.82788-.0412 5.80891-1.56406 6.86272-3.6467 1.05419-2.08578 1.28753-3.95543 1.1009-4.37474-.18347-.41891-.77392-.72768-1.65139-1.31375-.87431-.58569-5.18274-3.42519-6.00142-3.84426-.81555-.41868-1.41804-.65308-2.16122.20459-.73966.85493-2.79361 2.7343-3.41554 3.28803-.62193.55375-1.17944.56413-2.05375-.0216-.87432-.58567-3.7613-1.94664-6.92709-5.57872-2.46292-2.82539-3.95348-6.11897-4.37922-7.1238-.42615-1.00168.12391-1.44858.64753-1.8551.47367-.36491 1.0712-.97127 1.60823-1.45907.54251-.48074.74429-.85361 1.13724-1.43936.3894-.58301.30487-1.14752.12818-1.64537-.17713-.49473-1.46373-5.32601-2.00452-7.29335-.5314-1.91511-1.33196-1.76778-1.9003-1.86805z" filter="url(#e)" opacity=".238994"/><path d="m169.43401 137.07965c-.62218-.0783-1.66284.027-2.63542.85583-.97257.8288-3.67034 2.78059-4.24904 7.37773-.5787 4.59715 2.21029 9.45734 2.59702 10.13805.38989.6811 5.31833 10.88302 14.17636 16.10629 2.10685 1.242 3.77451 2.03711 5.07466 2.63807 2.14791.9918 4.1973 1.14684 5.8362 1.11056 1.82788-.0412 5.80891-1.56406 6.86272-3.6467 1.05419-2.08578 1.28753-3.95543 1.1009-4.37474-.18347-.41891-.77392-.72768-1.65139-1.31375-.87431-.58569-5.18274-3.42519-6.00142-3.84426-.81555-.41868-1.41804-.65308-2.16122.20459-.73966.85493-2.79361 2.7343-3.41554 3.28803-.62193.55375-1.17944.56413-2.05375-.0216-.87432-.58567-3.7613-1.94664-6.92709-5.57872-2.46292-2.82539-3.95348-6.11897-4.37922-7.1238-.42615-1.00168.12391-1.44858.64753-1.8551.47367-.36491 1.0712-.97127 1.60823-1.45907.54251-.48074.74429-.85361 1.13724-1.43936.3894-.58301.30487-1.14752.12818-1.64537-.17713-.49473-1.46373-5.32601-2.00452-7.29335-.5314-1.91511-1.33196-1.76778-1.9003-1.86805z" fill="url(#f)" opacity=".934"/></g></svg>