<svg height="128" viewBox="0 0 128 128" width="128" xmlns="http://www.w3.org/2000/svg" xmlns:xlink="http://www.w3.org/1999/xlink"><linearGradient id="a" gradientUnits="userSpaceOnUse" x1="64.42871085545" x2="63.70264686264" y1="9.49702762746" y2="114.03049919903"><stop offset="0" stop-color="#eee998"/><stop offset="1" stop-color="#f5bb57"/></linearGradient><circle cx="64.333229" cy="64.22612" fill="url(#a)" r="60.565502" stroke="#f6f6f6" stroke-width="4.644855"/><path d="m65.755104 34.054245c-16.62473 0-30.1875 13.53152-30.1875 30.15625s13.56277 30.1875 30.1875 30.1875 30.124997-13.56277 30.124997-30.1875-13.500267-30.15625-30.124997-30.15625zm-31.6875 4.71875a2.50025 2.50025 0 0 0 -1.999999 1.21875c-4.751734 7.715898-8.128217 14.769357-8.5625 22.65625s2.161134 16.323401 8.59375 26.625a2.50025 2.50025 0 1 0 4.218749-2.65625c-6.106681-9.779627-8.177026-17.067426-7.812499-23.6875s3.251428-12.855457 7.843749-20.3125a2.50025 2.50025 0 0 0 -2.28125-3.84375zm60.1875 0a2.50025 2.50025 0 0 0 -1.9375 3.84375c4.592327 7.457043 7.479227 13.692426 7.843746 20.3125.36453 6.620074-1.737059 13.907873-7.843746 23.6875a2.5059012 2.5059012 0 1 0 4.249997 2.65625c6.432619-10.301599 9.028039-18.738107 8.593749-26.625-.43428-7.886893-3.84201-14.940352-8.593749-22.65625a2.50025 2.50025 0 0 0 -2.312497-1.21875zm-28.5.96875c13.544222 0 24.4375 10.924529 24.4375 24.46875 0 13.544222-10.893278 24.46875-24.4375 24.46875-13.544221 0-24.46875-10.924528-24.46875-24.46875 0-13.544221 10.924529-24.46875 24.46875-24.46875zm-.03125 6.21875c-1.221366.000037-2.169282.497432-2.84375 1.5-.65626 1.002638-1.00001 2.580762-1 4.75-.00001.510446.02603.994821.0625 1.46875.03645.473987.08332.97659.15625 1.46875.07291.492214.145823.984401.21875 1.53125.07291.5469.158844 1.143254.25 1.78125l1.78125 12.84375h2.65625l1.78125-12.78125c.0729-.619767.145817-1.2031.21875-1.75.09113-.546849.164046-1.070286.21875-1.5625.05467-.510389.08852-.994763.125-1.46875.03644-.473929.06248-.958304.0625-1.46875-.000017-1.184864-.08595-2.197884-.25-3-.14585-.820278-.390642-1.476528-.71875-1.96875-.309912-.492152-.700536-.830693-1.15625-1.03125-.455744-.218714-.960952-.312463-1.5625-.3125zm.03125 28c-.601575.000009-1.158867.09376-1.6875.3125-.528657.218758-.992198.523445-1.375.90625-.382823.382819-.669281.846361-.90625 1.375-.218759.510422-.343759 1.041672-.34375 1.625-.000009.601566.124991 1.158857.34375 1.6875.236969.528648.523427.992189.90625 1.375.382802.382813.846343.700521 1.375.9375.528633.21875 1.085925.3125 1.6875.3125.583319 0 1.145819-.09375 1.65625-.3125.52863-.236979.992171-.554687 1.375-.9375.382796-.382811.687483-.846352.90625-1.375.218732-.528643.312482-1.085934.3125-1.6875-.000018-.583328-.09377-1.114578-.3125-1.625-.218767-.528639-.523454-.992181-.90625-1.375-.382829-.382805-.84637-.687492-1.375-.90625-.510431-.218742-1.072931-.312491-1.65625-.3125z" fill="#1b2831"/></svg>