<svg height="128" viewBox="0 0 128 128" width="128" xmlns="http://www.w3.org/2000/svg" xmlns:xlink="http://www.w3.org/1999/xlink"><linearGradient id="a" gradientUnits="userSpaceOnUse" x1="56.03741400762" x2="56.98960654632" y1="112.71000960141" y2="21.16679200924"><stop offset="0" stop-color="#dcdcdc"/><stop offset="1" stop-color="#f2f2f2"/></linearGradient><linearGradient id="b" gradientUnits="userSpaceOnUse" x1="66.01551341119" x2="64.33359152003" y1="119.34706540717" y2="1.33853303141"><stop offset="0" stop-color="#b9c6d2"/><stop offset="1" stop-color="#d3dbe2"/></linearGradient><linearGradient id="c" gradientUnits="userSpaceOnUse" x1="28.204409" x2="99.789301" y1="72.668936" y2="51.110392"><stop offset="0" stop-color="#84949b"/><stop offset="1" stop-color="#97aeb7"/></linearGradient><filter id="d" color-interpolation-filters="sRGB" height="1.024" width="1.024" x="-.012" y="-.012"><feGaussianBlur stdDeviation=".62887629"/></filter><clipPath id="e"><circle cx="64.333229" cy="64.22612" r="60.565502"/></clipPath><filter id="f" color-interpolation-filters="sRGB" height="1.0288" width="1.0288" x="-.0144" y="-.0144"><feGaussianBlur stdDeviation=".72678518"/></filter><path d="m81.263378 27.690949c-.242834 0-.429401.19569-.438362.438358-.17787 4.808902-1.512991 9.135763-2.844027 13.464186 2.101634-.444454 4.402221-.441942 6.897806 0-1.663273-4.430171-2.341218-8.936236-2.733375-13.464186-.02094-.241926-.195528-.438358-.438363-.438358zm-19.968846 8.035734c-.110273-.002-.218421.03704-.304299.12289l-.314409.313877c-.171771.171651-.165185.441784 0 .619769 3.273491 3.527237 5.387692 7.531063 7.505872 11.533584 1.172386-1.799971 2.801283-3.423707 4.878898-4.875174-4.308082-1.957888-7.972497-4.666485-11.450591-7.592056-.09292-.07816-.205198-.120916-.315471-.12289zm40.214858.04413c-.11124.0026-.22253.04737-.31015.131405-3.472961 3.331023-7.44193 5.511051-11.409097 7.69473 1.818994 1.14264 3.470082 2.744557 4.955499 4.798029 1.886824-4.33968 4.534132-8.048302 7.402138-11.574009.15326-.188381.16488-.450861-.01-.619768l-.31919-.309067c-.0872-.08447-.19838-.123892-.30962-.121294zm-20.119399 9.19176a11.523052 11.523052 0 0 0 -10.842525 7.664404c2.685713 3.143278 4.268665 6.776927 5.302894 10.654205 3.051221.681854 6.080382 1.559232 8.937463 3.988342l.08512.186195a11.523052 11.523052 0 0 0 8.040521-10.970206 11.523052 11.523052 0 0 0 -11.523473-11.522944zm-29.601621 4.721957c-.568636-.000543-1.137074.02114-1.70397.06434-7.232157.551092-14.186422 4.626319-17.569563 11.455379-4.008571.859681-7.284844 2.983064-9.416781 5.808821-2.51795 3.337384-3.511308 7.489783-3.116947 11.525076.788724 8.07057 7.730047 15.909366 18.835174 15.978376h.0011.000546l30.0852.17289-.112251-.002c5.552642.20134 10.097501-1.45429 13.107748-4.328817 3.010247-2.874529 4.370266-6.805484 4.170285-10.558442-.199984-3.753175-1.942631-7.442383-5.125209-9.895803-2.354125-1.814774-5.456469-2.839035-8.950764-2.8286-2.381252-10.731409-10.318515-16.679752-18.500058-17.323546-.567031-.04466-1.135867-.06712-1.704501-.06757zm44.518672 3.221213c.480836 2.093606.518293 4.393868.119701 6.896744 4.400657-1.739861 8.894237-2.49576 13.414707-2.966386.24155-.02518.4346-.203018.43038-.445812l-.007-.443685c-.004-.242807-.20356-.426146-.44634-.43091-4.81126-.09444-9.16013-1.354193-13.510993-2.609951zm-44.511225 4.134642c.374059-.000543.747778.01378 1.119843.04307 5.953058.468439 11.380514 4.020516 12.34753 14.337714l.383566 4.094741 4.026114-.837358c3.354567-.697934 5.399007-.01451 6.780771 1.050686 1.38176 1.06519 2.178137 2.708327 2.271604 4.462347.09347 1.754025-.498223 3.504659-1.905596 4.848576-1.407372 1.343918-3.746073 2.443306-7.762292 2.297677l-.05586-.0018-30.139463-.173426h-.0017c-7.916044-.05006-11.101178-4.642727-11.560169-9.339346-.229516-2.348485.372986-4.663821 1.668328-6.38071 1.295335-1.716896 3.224246-2.980029 6.434441-3.264308l2.338103-.20747.796392-2.208301c1.940965-5.383549 7.647401-8.712883 13.258299-8.722007zm42.777458 7.413307c-1.172382 1.799972-2.801279 3.424237-4.878891 4.875706 4.308082 1.957887 7.972498 4.665947 11.450596 7.591524.18583.156326.44802.171651.61977 0l.31441-.313877c.17177-.171651.16518-.441782 0-.619768-3.273491-3.527237-5.387703-7.531064-7.505885-11.533585z" fill="url(#c)" stroke-width=".27238"/><path d="m64.333984 3.6601562a60.565502 60.565502 0 0 0 -60.5664059 60.5664058 60.565502 60.565502 0 0 0 60.5664059 60.564458 60.565502 60.565502 0 0 0 60.564456-60.564458 60.565502 60.565502 0 0 0 -60.564456-60.5664058zm16.929688 24.0312498h.443359c.242835 0 .41656.195574.4375.4375.392157 4.52795 1.071102 9.034673 2.734375 13.464844-2.495585-.441942-4.796803-.444454-6.898437 0 1.331036-4.328423 2.66588-8.655942 2.84375-13.464844.008961-.242668.196619-.4375.439453-.4375zm-19.96875 8.035156c.110273.001974.221533.044887.314453.123047 3.478094 2.925571 7.14309 5.633909 11.451172 7.591797-2.077615 1.451467-3.70652 3.075029-4.878906 4.875-2.11818-4.002521-4.232369-8.005966-7.50586-11.533203-.165185-.177985-.171771-.44749 0-.619141l.314453-.314453c.085878-.08585.194415-.125047.304688-.123047zm40.214848.044922c.11124-.002598.22139.036624.30859.121094l.32031.308594c.17488.168907.16303.43076.00977.61914-2.868008 3.525707-5.515522 7.234539-7.402346 11.574219-1.485417-2.053472-3.136084-3.654235-4.955078-4.796875 3.967167-2.183679 7.935242-4.364289 11.408204-7.695312.08762-.084035.19931-.12826.31055-.13086zm-20.119145 9.191407a11.523052 11.523052 0 0 1 11.523437 11.523437 11.523052 11.523052 0 0 1 -8.041015 10.96875l-.085938-.185547c-2.857081-2.42911-5.886279-3.306427-8.9375-3.988281-1.034229-3.877278-2.617021-7.511019-5.302734-10.654297a11.523052 11.523052 0 0 1 10.84375-7.664062zm-29.601563 4.720703v.001953c.568635.00045 1.136094.021746 1.703126.066406 8.181542.643794 16.118748 6.59281 18.5 17.324219 3.494295-.010435 6.597046 1.013351 8.951171 2.828125 3.182578 2.45342 4.925016 6.143309 5.125 9.896484.199981 3.752958-1.159674 7.684065-4.169921 10.558594-3.010248 2.874527-7.55478 4.529465-13.107422 4.328125l.111328.001953-30.083985-.173828h-.001953c-11.105127-.06901-18.047213-7.905992-18.835937-15.976563-.394361-4.035292.599237-8.188006 3.117187-11.52539 2.131937-2.825757 5.409398-4.948913 9.417969-5.808594 3.383141-6.82906 10.336202-10.905939 17.568359-11.457031.566896-.0432 1.136443-.064996 1.705078-.064453zm44.517579 3.222656c4.350859 1.255758 8.700459 2.514935 13.511719 2.609375.24278.004764.44326.188834.44726.431641l.00586.443359c.00422.242794-.18813.420133-.42968.445313-4.52047.470626-9.01536 1.226935-13.416019 2.966796.398592-2.502876.361696-4.802878-.11914-6.896484zm-44.511719 4.134766c-5.610898.009124-11.316848 3.337154-13.257813 8.720703l-.796875 2.208984-2.33789.207031c-3.210195.284279-5.138259 1.548729-6.433594 3.265625-1.295342 1.716889-1.897485 4.032375-1.667969 6.38086.458991 4.696619 3.64255 9.28783 11.558594 9.33789h.001953l30.140625.173829.054688.001953c4.016219.145629 6.3563-.952957 7.763671-2.296875 1.407374-1.343917 1.997767-3.095585 1.904297-4.84961-.093467-1.75402-.889724-3.3977-2.271484-4.46289-1.381764-1.065196-3.42473-1.748716-6.779297-1.050782l-4.027344.837891-.382812-4.09375c-.967016-10.317198-6.394598-13.869452-12.347656-14.337891-.372065-.02929-.747035-.043511-1.121094-.042968zm42.779297 7.412109c2.118182 4.002521 4.232368 8.005966 7.505861 11.533203.16518.177986.17177.449443 0 .621094l-.31446.314453c-.17175.171651-.43526.156326-.62109 0-3.478097-2.925577-7.141136-5.63391-11.449218-7.591797 2.077613-1.451469 3.706525-3.076981 4.878907-4.876953z" fill-opacity=".270936" filter="url(#f)"/><path d="m64.333984 3.6601562a60.565502 60.565502 0 0 0 -60.5664059 60.5664058 60.565502 60.565502 0 0 0 60.5664059 60.564458 60.565502 60.565502 0 0 0 60.564456-60.564458 60.565502 60.565502 0 0 0 -60.564456-60.5664058zm16.929688 24.0312498h.443359c.242835 0 .41656.195574.4375.4375.392157 4.52795 1.071102 9.034673 2.734375 13.464844-2.495585-.441942-4.796803-.444454-6.898437 0 1.331036-4.328423 2.66588-8.655942 2.84375-13.464844.008961-.242668.196619-.4375.439453-.4375zm-19.96875 8.035156c.110273.001974.221533.044887.314453.123047 3.478094 2.925571 7.14309 5.633909 11.451172 7.591797-2.077615 1.451467-3.70652 3.075029-4.878906 4.875-2.11818-4.002521-4.232369-8.005966-7.50586-11.533203-.165185-.177985-.171771-.44749 0-.619141l.314453-.314453c.085878-.08585.194415-.125047.304688-.123047zm40.214848.044922c.11124-.002598.22139.036624.30859.121094l.32031.308594c.17488.168907.16303.43076.00977.61914-2.868008 3.525707-5.515522 7.234539-7.402346 11.574219-1.485417-2.053472-3.136084-3.654235-4.955078-4.796875 3.967167-2.183679 7.935242-4.364289 11.408204-7.695312.08762-.084035.19931-.12826.31055-.13086zm-20.119145 9.191407a11.523052 11.523052 0 0 1 11.523437 11.523437 11.523052 11.523052 0 0 1 -8.041015 10.96875l-.085938-.185547c-2.857081-2.42911-5.886279-3.306427-8.9375-3.988281-1.034229-3.877278-2.617021-7.511019-5.302734-10.654297a11.523052 11.523052 0 0 1 10.84375-7.664062zm-29.601563 4.720703v.001953c.568635.00045 1.136094.021746 1.703126.066406 8.181542.643794 16.118748 6.59281 18.5 17.324219 3.494295-.010435 6.597046 1.013351 8.951171 2.828125 3.182578 2.45342 4.925016 6.143309 5.125 9.896484.199981 3.752958-1.159674 7.684065-4.169921 10.558594-3.010248 2.874527-7.55478 4.529465-13.107422 4.328125l.111328.001953-30.083985-.173828h-.001953c-11.105127-.06901-18.047213-7.905992-18.835937-15.976563-.394361-4.035292.599237-8.188006 3.117187-11.52539 2.131937-2.825757 5.409398-4.948913 9.417969-5.808594 3.383141-6.82906 10.336202-10.905939 17.568359-11.457031.566896-.0432 1.136443-.064996 1.705078-.064453zm44.517579 3.222656c4.350859 1.255758 8.700459 2.514935 13.511719 2.609375.24278.004764.44326.188834.44726.431641l.00586.443359c.00422.242794-.18813.420133-.42968.445313-4.52047.470626-9.01536 1.226935-13.416019 2.966796.398592-2.502876.361696-4.802878-.11914-6.896484zm-44.511719 4.134766c-5.610898.009124-11.316848 3.337154-13.257813 8.720703l-.796875 2.208984-2.33789.207031c-3.210195.284279-5.138259 1.548729-6.433594 3.265625-1.295342 1.716889-1.897485 4.032375-1.667969 6.38086.458991 4.696619 3.64255 9.28783 11.558594 9.33789h.001953l30.140625.173829.054688.001953c4.016219.145629 6.3563-.952957 7.763671-2.296875 1.407374-1.343917 1.997767-3.095585 1.904297-4.84961-.093467-1.75402-.889724-3.3977-2.271484-4.46289-1.381764-1.065196-3.42473-1.748716-6.779297-1.050782l-4.027344.837891-.382812-4.09375c-.967016-10.317198-6.394598-13.869452-12.347656-14.337891-.372065-.02929-.747035-.043511-1.121094-.042968zm42.779297 7.412109c2.118182 4.002521 4.232368 8.005966 7.505861 11.533203.16518.177986.17177.449443 0 .621094l-.31446.314453c-.17175.171651-.43526.156326-.62109 0-3.478097-2.925577-7.141136-5.63391-11.449218-7.591797 2.077613-1.451469 3.706525-3.076981 4.878907-4.876953z" fill="url(#a)"/><path clip-path="url(#e)" d="m64.333592 1.3385313c-34.704539 0-62.8882778 28.1824517-62.8882778 62.8869837 0 34.704538 28.1837388 62.888275 62.8882778 62.888275 34.704538 0 62.886978-28.183737 62.886978-62.888275 0-34.704532-28.18244-62.8869837-62.886978-62.8869837zm0 4.644855c32.194272 0 58.242128 26.0478627 58.242128 58.2421287 0 32.194272-26.047856 58.243425-58.242128 58.243425-32.194267 0-58.2434228-26.049153-58.2434228-58.243425 0-32.194266 26.0491558-58.2421287 58.2434228-58.2421287z" fill-opacity=".295567" filter="url(#d)"/><path d="m64.333592 1.3385313c-34.704539 0-62.8882778 28.1824517-62.8882778 62.8869837 0 34.704538 28.1837388 62.888275 62.8882778 62.888275 34.704538 0 62.886978-28.183737 62.886978-62.888275 0-34.704532-28.18244-62.8869837-62.886978-62.8869837zm0 4.644855c32.194272 0 58.242128 26.0478627 58.242128 58.2421287 0 32.194272-26.047856 58.243425-58.242128 58.243425-32.194267 0-58.2434228-26.049153-58.2434228-58.243425 0-32.194266 26.0491558-58.2421287 58.2434228-58.2421287z" fill="url(#b)"/></svg>