<?xml version="1.0" encoding="UTF-8" standalone="no"?>
<!-- Created with Inkscape (http://www.inkscape.org/) -->

<svg
   xmlns:dc="http://purl.org/dc/elements/1.1/"
   xmlns:cc="http://creativecommons.org/ns#"
   xmlns:rdf="http://www.w3.org/1999/02/22-rdf-syntax-ns#"
   xmlns:svg="http://www.w3.org/2000/svg"
   xmlns="http://www.w3.org/2000/svg"
   xmlns:xlink="http://www.w3.org/1999/xlink"
   xmlns:sodipodi="http://sodipodi.sourceforge.net/DTD/sodipodi-0.dtd"
   xmlns:inkscape="http://www.inkscape.org/namespaces/inkscape"
   version="1.1"
   id="svg2"
   width="136.53333"
   height="136.53333"
   viewBox="0 0 136.53333 136.53333"
   sodipodi:docname="inkscape.svg"
   inkscape:version="0.92.3 (2405546, 2018-03-11)">
  <metadata
     id="metadata8">
    <rdf:RDF>
      <cc:Work
         rdf:about="">
        <dc:format>image/svg+xml</dc:format>
        <dc:type
           rdf:resource="http://purl.org/dc/dcmitype/StillImage" />
        <dc:title />
      </cc:Work>
    </rdf:RDF>
  </metadata>
  <defs
     id="defs6">
    <linearGradient
       inkscape:collect="always"
       id="linearGradient821">
      <stop
         style="stop-color:#5a6770;stop-opacity:1"
         offset="0"
         id="stop817" />
      <stop
         style="stop-color:#393939;stop-opacity:1"
         offset="1"
         id="stop819" />
    </linearGradient>
    <linearGradient
       inkscape:collect="always"
       xlink:href="#linearGradient821"
       id="linearGradient823"
       x1="68.462769"
       y1="23.819031"
       x2="68.286613"
       y2="121.01225"
       gradientUnits="userSpaceOnUse" />
  </defs>
  <sodipodi:namedview
     pagecolor="#ffffff"
     bordercolor="#666666"
     borderopacity="1"
     objecttolerance="10"
     gridtolerance="10"
     guidetolerance="10"
     inkscape:pageopacity="0"
     inkscape:pageshadow="2"
     inkscape:window-width="1920"
     inkscape:window-height="1026"
     id="namedview4"
     showgrid="false"
     inkscape:zoom="3.4570315"
     inkscape:cx="26.627082"
     inkscape:cy="69.730214"
     inkscape:window-x="0"
     inkscape:window-y="28"
     inkscape:window-maximized="1"
     inkscape:current-layer="svg2" />
  <circle
     id="path12"
     cx="68.953224"
     cy="68.365921"
     r="64.021523"
     style="fill:url(#linearGradient823);fill-opacity:1;stroke:#f8f8f8;stroke-width:6;stroke-miterlimit:4;stroke-dasharray:none;stroke-opacity:1" />
  <path
     style="fill:#ffffff;fill-opacity:1;stroke-width:4.35082817"
     d="M 68.831729,28.161831 C 65.050354,27.801105 61.736163,30.552433 46.663991,46.53865 29.97144,64.243512 28.827911,66.207328 33.762303,68.826314 c 1.485773,0.788591 4.695352,1.900937 7.126886,2.472318 2.431538,0.571399 5.026794,1.585615 5.765861,2.245414 1.193741,1.065675 0.913664,1.418571 -2.492173,3.22299 -2.108664,1.117171 -3.733919,2.510806 -3.606888,3.096989 0.12722,0.586199 3.812187,2.332923 8.185287,3.873538 10.035741,3.535518 10.58955,4.055206 7.997288,7.458284 -2.333842,3.063766 -1.593208,4.694013 2.304628,5.074875 1.657343,0.161939 3.360335,1.334434 5.238828,3.619792 2.405402,2.926386 3.160118,3.341426 5.574928,3.063496 1.535595,-0.17673 3.846446,-0.73427 5.133077,-1.24022 1.286631,-0.50598 2.938406,-1.52052 3.678155,-2.253297 1.167318,-1.156355 1.142496,-1.518409 -0.211624,-2.727282 -2.134176,-1.905175 -0.667661,-3.674057 5.051915,-6.089307 2.46538,-1.04109 5.018024,-2.282255 5.665713,-2.759207 2.285247,-1.682822 1.572023,-3.943068 -1.855858,-5.91046 -1.834252,-1.052762 -3.163756,-2.323086 -2.951467,-2.824232 0.212451,-0.501127 4.391996,-2.553169 9.28232,-4.557448 10.698291,-4.384643 12.448801,-5.59365 12.762331,-8.802413 0.29887,-3.058462 0.5943,-2.704421 -17.249119,-20.42674 C 73.381698,29.689546 71.924837,28.456966 68.831732,28.161831 Z m 0.02567,1.744313 c 1.597845,0.156151 9.314578,6.856444 13.812316,11.996734 2.825435,3.229087 1.818794,4.573558 -1.453373,1.941299 -2.292968,-1.844542 -3.126369,-1.383654 -3.448888,1.917088 -0.220804,2.259868 -0.395707,2.358736 -2.404206,1.361723 -1.833344,-0.909977 -2.699158,-0.721751 -5.720792,1.225493 l -3.563027,2.298685 -1.114382,-4.062063 c -0.611077,-2.230461 -1.387875,-4.08025 -1.724072,-4.113102 -0.336015,-0.03263 -1.21791,1.435668 -1.967,3.265766 -0.749047,1.830105 -1.664335,3.461905 -2.027869,3.626959 -0.363642,0.165026 -2.921746,0.352764 -5.693031,0.417069 -3.791561,0.08797 -5.01457,-0.147579 -4.934322,-0.968815 0.142359,-1.456758 13.324335,-15.614848 16.331058,-17.538331 1.30513,-0.834903 3.066358,-1.45071 3.907588,-1.368515 z m 32.025991,52.087232 c -2.630568,-0.257046 -6.376266,2.265699 -5.629616,3.787313 0.660367,1.345833 6.960476,1.419061 8.562346,0.102375 1.40417,-1.15418 -0.47713,-3.649735 -2.93273,-3.889676 z m -7.44359,6.273982 c -0.717735,-0.07014 -1.737098,2.586113 -1.318041,3.440172 0.684025,1.393993 4.62896,1.384947 4.765511,-0.01262 0.104755,-1.071682 -2.135678,-3.299506 -3.44747,-3.42768 z M 52.22833,88.68038 c -0.655196,-0.04089 -1.408765,0.190002 -2.601943,0.676424 -2.703797,1.102295 -3.532016,2.311003 -2.560297,3.745697 1.2681,1.872301 3.554808,1.677293 6.061465,-0.517686 1.933363,-1.692996 2.099727,-2.155849 1.09,-2.941622 C 53.434683,89.033978 52.88349,88.721092 52.22833,88.68038 Z"
     id="rect853"
     inkscape:connector-curvature="0"
     sodipodi:nodetypes="cscccscccssccccccccssccsscsccccsccsscssccsscssccsccc" />
</svg>
