<?xml version="1.0" encoding="UTF-8" standalone="no"?>
<!-- Created with Inkscape (http://www.inkscape.org/) -->

<svg
   xmlns:dc="http://purl.org/dc/elements/1.1/"
   xmlns:cc="http://creativecommons.org/ns#"
   xmlns:rdf="http://www.w3.org/1999/02/22-rdf-syntax-ns#"
   xmlns:svg="http://www.w3.org/2000/svg"
   xmlns="http://www.w3.org/2000/svg"
   xmlns:xlink="http://www.w3.org/1999/xlink"
   xmlns:sodipodi="http://sodipodi.sourceforge.net/DTD/sodipodi-0.dtd"
   xmlns:inkscape="http://www.inkscape.org/namespaces/inkscape"
   version="1.1"
   id="svg2"
   width="128"
   height="128"
   viewBox="0 0 128 128"
   sodipodi:docname="internet-news-reader-alt.svg"
   inkscape:version="0.92.1 r15371">
  <metadata
     id="metadata8">
    <rdf:RDF>
      <cc:Work
         rdf:about="">
        <dc:format>image/svg+xml</dc:format>
        <dc:type
           rdf:resource="http://purl.org/dc/dcmitype/StillImage" />
        <dc:title></dc:title>
      </cc:Work>
    </rdf:RDF>
  </metadata>
  <defs
     id="defs6">
    <linearGradient
       inkscape:collect="always"
       id="linearGradient1078">
      <stop
         style="stop-color:#cccdd1;stop-opacity:1;"
         offset="0"
         id="stop1074" />
      <stop
         style="stop-color:#f7f9f9;stop-opacity:1"
         offset="1"
         id="stop1076" />
    </linearGradient>
    <linearGradient
       id="linearGradient821"
       inkscape:collect="always">
      <stop
         id="stop817"
         offset="0"
         style="stop-color:#fd814d;stop-opacity:1" />
      <stop
         id="stop819"
         offset="1"
         style="stop-color:#fd5738;stop-opacity:1" />
    </linearGradient>
    <linearGradient
       gradientUnits="userSpaceOnUse"
       y2="121.01225"
       x2="68.286613"
       y1="10.51384"
       x1="69.054108"
       id="linearGradient823"
       xlink:href="#linearGradient821"
       inkscape:collect="always"
       gradientTransform="matrix(0.94601788,0,0,0.94601788,-0.8977099,-0.44925348)" />
    <linearGradient
       inkscape:collect="always"
       xlink:href="#linearGradient1078"
       id="linearGradient1080"
       x1="701.81012"
       y1="398.37137"
       x2="699.27539"
       y2="220.52734"
       gradientUnits="userSpaceOnUse"
       gradientTransform="matrix(0.66355071,0,0,0.66355071,-399.67109,-144.99254)" />
    <linearGradient
       y2="1037.2084"
       y1="1013.622"
       x2="34.116894"
       x1="33.461716"
       gradientUnits="userSpaceOnUse"
       gradientTransform="matrix(1.1276117,0,0,1.6350625,-41.019268,-1609.3093)"
       id="b-3">
      <stop
         id="stop7-6"
         stop-color="#f6fbff"
         offset="0" />
      <stop
         id="stop9-7"
         stop-color="#eaeff2"
         offset="1" />
    </linearGradient>
    <linearGradient
       y2="1012.3622"
       y1="1036.3622"
       x2="17"
       x1="17"
       gradientUnits="userSpaceOnUse"
       gradientTransform="matrix(1.6857209,0,0,1.6350625,-59.560501,-1609.3093)"
       id="a-5">
      <stop
         id="stop2-3"
         stop-color="#0c7eed"
         offset="0" />
      <stop
         id="stop4-5"
         stop-color="#0bb6ff"
         offset="1" />
    </linearGradient>
  </defs>
  <sodipodi:namedview
     pagecolor="#ffffff"
     bordercolor="#666666"
     borderopacity="1"
     objecttolerance="10"
     gridtolerance="10"
     guidetolerance="10"
     inkscape:pageopacity="0"
     inkscape:pageshadow="2"
     inkscape:window-width="1920"
     inkscape:window-height="1023"
     id="namedview4"
     showgrid="false"
     inkscape:zoom="1.264"
     inkscape:cx="43.578352"
     inkscape:cy="52.053097"
     inkscape:window-x="0"
     inkscape:window-y="29"
     inkscape:window-maximized="1"
     inkscape:current-layer="svg2" />
  <path
     style="fill:#000000;stroke-width:1.33333337"
     d=""
     id="path849"
     inkscape:connector-curvature="0" />
  <path
     style="fill:#000000;stroke-width:1.33333337"
     d=""
     id="path847"
     inkscape:connector-curvature="0" />
  <circle
     id="path12-3"
     cx="64.333229"
     cy="64.22612"
     r="60.565502"
     style="fill:url(#linearGradient823);fill-opacity:1;stroke:#cccdd1;stroke-width:4.64485502;stroke-miterlimit:4;stroke-dasharray:none;stroke-opacity:1" />
  <path
     d="m 41.635077,36.191108 c 4.662313,0 9.150755,0.603221 13.465429,1.809678 4.314622,1.206484 8.353247,2.913941 12.115666,5.12239 3.762627,2.208447 7.187812,4.856515 10.275817,7.944254 3.087641,3.087745 5.735711,6.512905 7.94427,10.275443 2.208136,3.76283 3.915641,7.801314 5.122381,12.116066 1.206582,4.314561 1.809831,8.802726 1.809831,13.465398 0,1.472301 -0.521354,2.729515 -1.564218,3.772667 -1.042913,1.043179 -2.300381,1.564127 -3.772669,1.564127 -1.472433,0 -2.729914,-0.52114 -3.773081,-1.564127 -1.042654,-1.042882 -1.564111,-2.300366 -1.564111,-3.772667 0,-3.681044 -0.480721,-7.228689 -1.441746,-10.643886 -0.961077,-3.414494 -2.310996,-6.604776 -4.049134,-9.569834 -1.738137,-2.965155 -3.823601,-5.664349 -6.257222,-8.097726 -2.433466,-2.433399 -5.132523,-4.519142 -8.097695,-6.257291 -2.965016,-1.738111 -6.154992,-3.087729 -9.569928,-4.04881 -3.414885,-0.9611 -6.962748,-1.441637 -10.643486,-1.441637 -1.472284,0 -2.729858,-0.521426 -3.772772,-1.564293 -1.042861,-1.042908 -1.564318,-2.300488 -1.564318,-3.772761 0,-1.4723 0.521457,-2.729904 1.564318,-3.772771 1.04281,-1.042789 2.300384,-1.56422 3.772668,-1.56422 z m 0,20.18277 c 4.212443,0 8.169232,0.807709 11.870415,2.423143 3.701184,1.615439 6.932105,3.803431 9.692607,6.563978 2.760707,2.760662 4.948663,5.991344 6.564019,9.692335 1.615512,3.701601 2.423165,7.658008 2.423165,11.870811 0,1.472296 -0.521353,2.729489 -1.564111,3.772668 -1.042915,1.042887 -2.300384,1.564115 -3.773085,1.564115 -1.472284,0 -2.729805,-0.521134 -3.772667,-1.564115 -1.042861,-1.042883 -1.564319,-2.300372 -1.564319,-3.772668 0,-2.740305 -0.521456,-5.316718 -1.564318,-7.729658 -1.042863,-2.412921 -2.464057,-4.519126 -4.263533,-6.31852 -1.799424,-1.79957 -3.905647,-3.220745 -6.318613,-4.263632 -2.412916,-1.042695 -4.989453,-1.564126 -7.72956,-1.564126 -1.472284,0 -2.729858,-0.521332 -3.772772,-1.564215 -1.042861,-1.042981 -1.564318,-2.300559 -1.564318,-3.772839 0,-1.4723 0.521457,-2.72991 1.564318,-3.772766 1.042914,-1.043082 2.300488,-1.564511 3.772772,-1.564511 z m 9.815335,28.034881 c 0,1.063417 -0.194057,2.044857 -0.582796,2.944705 -0.388634,0.90004 -0.920132,1.687016 -1.594961,2.361914 -0.67483,0.674501 -1.472337,1.206354 -2.392469,1.594977 -0.920185,0.388426 -1.891511,0.582521 -2.913978,0.582521 -1.063308,0 -2.044832,-0.194162 -2.94457,-0.582521 -0.899738,-0.388374 -1.686996,-0.920569 -2.361825,-1.594977 -0.674831,-0.674804 -1.206484,-1.462071 -1.594962,-2.361914 -0.388634,-0.899848 -0.582795,-1.881288 -0.582795,-2.944705 0,-1.022134 0.194057,-1.993627 0.582795,-2.913515 0.388633,-0.920601 0.920131,-1.717978 1.594962,-2.392584 0.674829,-0.674797 1.462087,-1.206358 2.361825,-1.595008 0.899738,-0.388375 1.881262,-0.582754 2.94457,-0.582754 1.022467,0 1.993793,0.194317 2.913978,0.582754 0.920132,0.388686 1.717639,0.920211 2.392469,1.595008 0.674829,0.674606 1.206431,1.472306 1.594961,2.392584 0.388635,0.920007 0.582796,1.891187 0.582796,2.913515 z"
     id="path4591"
     inkscape:connector-curvature="0"
     style="fill:#f7f7f7;fill-opacity:1;stroke-width:2.43556714;stroke:#000000;stroke-opacity:0.04562738" />
  <path
     style="color:#000000;font-style:normal;font-variant:normal;font-weight:normal;font-stretch:normal;font-size:medium;line-height:normal;font-family:sans-serif;font-variant-ligatures:normal;font-variant-position:normal;font-variant-caps:normal;font-variant-numeric:normal;font-variant-alternates:normal;font-feature-settings:normal;text-indent:0;text-align:start;text-decoration:none;text-decoration-line:none;text-decoration-style:solid;text-decoration-color:#000000;letter-spacing:normal;word-spacing:normal;text-transform:none;writing-mode:lr-tb;direction:ltr;text-orientation:mixed;dominant-baseline:auto;baseline-shift:baseline;text-anchor:start;white-space:normal;shape-padding:0;clip-rule:nonzero;display:inline;overflow:visible;visibility:visible;opacity:1;isolation:auto;mix-blend-mode:normal;color-interpolation:sRGB;color-interpolation-filters:linearRGB;solid-color:#000000;solid-opacity:1;vector-effect:none;fill:url(#linearGradient1080);fill-opacity:1;fill-rule:nonzero;stroke:none;stroke-width:4.64485502;stroke-linecap:butt;stroke-linejoin:miter;stroke-miterlimit:4;stroke-dasharray:none;stroke-dashoffset:0;stroke-opacity:1;color-rendering:auto;image-rendering:auto;shape-rendering:auto;text-rendering:auto;enable-background:accumulate"
     d="m 64.333592,1.3385313 c -34.704539,0 -62.8882778,28.1824517 -62.8882778,62.8869837 0,34.704538 28.1837388,62.888275 62.8882778,62.888275 34.704538,0 62.886978,-28.183737 62.886978,-62.888275 0,-34.704532 -28.18244,-62.8869837 -62.886978,-62.8869837 z m 0,4.644855 c 32.194272,0 58.242128,26.0478627 58.242128,58.2421287 0,32.194272 -26.047856,58.243425 -58.242128,58.243425 -32.194267,0 -58.2434228,-26.049153 -58.2434228,-58.243425 0,-32.194266 26.0491558,-58.2421287 58.2434228,-58.2421287 z"
     id="circle1062"
     inkscape:connector-curvature="0" />
  <g
     id="g844" />
  <path
     style="fill:#f7f7f7;fill-opacity:1;stroke-width:2.43556714"
     inkscape:connector-curvature="0"
     id="path892-3"
     d="m 41.635077,36.191108 c 4.662313,0 9.150755,0.603221 13.465429,1.809678 4.314622,1.206484 8.353247,2.913941 12.115666,5.12239 3.762627,2.208447 7.187812,4.856515 10.275817,7.944254 3.087641,3.087745 5.735711,6.512905 7.94427,10.275443 2.208136,3.76283 3.915641,7.801314 5.122381,12.116066 1.206582,4.314561 1.809831,8.802726 1.809831,13.465398 0,1.472301 -0.521354,2.729515 -1.564218,3.772667 -1.042913,1.043179 -2.300381,1.564127 -3.772669,1.564127 -1.472433,0 -2.729914,-0.52114 -3.773081,-1.564127 -1.042654,-1.042882 -1.564111,-2.300366 -1.564111,-3.772667 0,-3.681044 -0.480721,-7.228689 -1.441746,-10.643886 -0.961077,-3.414494 -2.310996,-6.604776 -4.049134,-9.569834 -1.738137,-2.965155 -3.823601,-5.664349 -6.257222,-8.097726 -2.433466,-2.433399 -5.132523,-4.519142 -8.097695,-6.257291 -2.965016,-1.738111 -6.154992,-3.087729 -9.569928,-4.04881 -3.414885,-0.9611 -6.962748,-1.441637 -10.643486,-1.441637 -1.472284,0 -2.729858,-0.521426 -3.772772,-1.564293 -1.042861,-1.042908 -1.564318,-2.300488 -1.564318,-3.772761 0,-1.4723 0.521457,-2.729904 1.564318,-3.772771 1.04281,-1.042789 2.300384,-1.56422 3.772668,-1.56422 z m 0,20.18277 c 4.212443,0 8.169232,0.807709 11.870415,2.423143 3.701184,1.615439 6.932105,3.803431 9.692607,6.563978 2.760707,2.760662 4.948663,5.991344 6.564019,9.692335 1.615512,3.701601 2.423165,7.658008 2.423165,11.870811 0,1.472296 -0.521353,2.729489 -1.564111,3.772668 -1.042915,1.042887 -2.300384,1.564115 -3.773085,1.564115 -1.472284,0 -2.729805,-0.521134 -3.772667,-1.564115 -1.042861,-1.042883 -1.564319,-2.300372 -1.564319,-3.772668 0,-2.740305 -0.521456,-5.316718 -1.564318,-7.729658 -1.042863,-2.412921 -2.464057,-4.519126 -4.263533,-6.31852 -1.799424,-1.79957 -3.905647,-3.220745 -6.318613,-4.263632 -2.412916,-1.042695 -4.989453,-1.564126 -7.72956,-1.564126 -1.472284,0 -2.729858,-0.521332 -3.772772,-1.564215 -1.042861,-1.042981 -1.564318,-2.300559 -1.564318,-3.772839 0,-1.4723 0.521457,-2.72991 1.564318,-3.772766 1.042914,-1.043082 2.300488,-1.564511 3.772772,-1.564511 z m 9.815335,28.034881 c 0,1.063417 -0.194057,2.044857 -0.582796,2.944705 -0.388634,0.90004 -0.920132,1.687016 -1.594961,2.361914 -0.67483,0.674501 -1.472337,1.206354 -2.392469,1.594977 -0.920185,0.388426 -1.891511,0.582521 -2.913978,0.582521 -1.063308,0 -2.044832,-0.194162 -2.94457,-0.582521 -0.899738,-0.388374 -1.686996,-0.920569 -2.361825,-1.594977 -0.674831,-0.674804 -1.206484,-1.462071 -1.594962,-2.361914 -0.388634,-0.899848 -0.582795,-1.881288 -0.582795,-2.944705 0,-1.022134 0.194057,-1.993627 0.582795,-2.913515 0.388633,-0.920601 0.920131,-1.717978 1.594962,-2.392584 0.674829,-0.674797 1.462087,-1.206358 2.361825,-1.595008 0.899738,-0.388375 1.881262,-0.582754 2.94457,-0.582754 1.022467,0 1.993793,0.194317 2.913978,0.582754 0.920132,0.388686 1.717639,0.920211 2.392469,1.595008 0.674829,0.674606 1.206431,1.472306 1.594961,2.392584 0.388635,0.920007 0.582796,1.891187 0.582796,2.913515 z" />
  <path
     style="color:#000000;font-style:normal;font-variant:normal;font-weight:normal;font-stretch:normal;font-size:medium;line-height:normal;font-family:sans-serif;font-variant-ligatures:normal;font-variant-position:normal;font-variant-caps:normal;font-variant-numeric:normal;font-variant-alternates:normal;font-feature-settings:normal;text-indent:0;text-align:start;text-decoration:none;text-decoration-line:none;text-decoration-style:solid;text-decoration-color:#000000;letter-spacing:normal;word-spacing:normal;text-transform:none;writing-mode:lr-tb;direction:ltr;text-orientation:mixed;dominant-baseline:auto;baseline-shift:baseline;text-anchor:start;white-space:normal;shape-padding:0;clip-rule:nonzero;display:inline;overflow:visible;visibility:visible;opacity:1;isolation:auto;mix-blend-mode:normal;color-interpolation:sRGB;color-interpolation-filters:linearRGB;solid-color:#000000;solid-opacity:1;vector-effect:none;fill:#ffffff;fill-opacity:1;fill-rule:nonzero;stroke:none;stroke-width:1.79999995;stroke-linecap:butt;stroke-linejoin:miter;stroke-miterlimit:4;stroke-dasharray:none;stroke-dashoffset:0;stroke-opacity:1;color-rendering:auto;image-rendering:auto;shape-rendering:auto;text-rendering:auto;enable-background:accumulate"
     d="M 41.634766 36.191406 C 40.162482 36.191406 38.906091 36.71307 37.863281 37.755859 C 36.82042 38.798726 36.298828 40.055044 36.298828 41.527344 C 36.298828 42.999617 36.82042 44.257873 37.863281 45.300781 C 38.906195 46.343648 40.162482 46.865234 41.634766 46.865234 C 45.315504 46.865234 48.864412 47.345541 52.279297 48.306641 C 55.694233 49.267722 58.88264 50.617358 61.847656 52.355469 C 64.812828 54.093618 67.5138 56.179882 69.947266 58.613281 C 72.380887 61.046658 74.464988 63.745782 76.203125 66.710938 C 77.941263 69.675995 79.290876 72.866756 80.251953 76.28125 C 81.212978 79.696447 81.695312 83.242784 81.695312 86.923828 C 81.695312 88.396129 82.215159 89.654384 83.257812 90.697266 C 84.300979 91.740253 85.558817 92.261719 87.03125 92.261719 C 88.503538 92.261719 89.761775 91.740445 90.804688 90.697266 C 91.847551 89.654114 92.369141 88.396129 92.369141 86.923828 C 92.369141 82.261156 91.765176 77.773545 90.558594 73.458984 C 89.351854 69.144232 87.643683 65.10658 85.435547 61.34375 C 83.226988 57.581212 80.579829 54.156104 77.492188 51.068359 C 74.404182 47.98062 70.979424 45.331494 67.216797 43.123047 C 63.454378 40.914598 59.414231 39.206484 55.099609 38 C 50.784935 36.793543 46.297079 36.191406 41.634766 36.191406 z M 41.634766 37.091797 C 46.219449 37.091797 50.623712 37.683369 54.857422 38.867188 C 59.100231 40.05359 63.065175 41.729802 66.759766 43.898438 C 70.457167 46.068601 73.820835 48.668752 76.855469 51.703125 C 79.88973 54.737488 82.489875 58.1015 84.660156 61.798828 C 86.828529 65.493898 88.504745 69.458213 89.691406 73.701172 C 90.875344 77.934762 91.46875 82.338783 91.46875 86.923828 C 91.46875 88.183664 91.061241 89.167028 90.167969 90.060547 C 89.274874 90.953869 88.291237 91.361328 87.03125 91.361328 C 85.771176 91.361328 84.787966 90.953827 83.894531 90.060547 C 83.001553 89.167373 82.59375 88.183622 82.59375 86.923828 C 82.59375 83.164428 82.102989 79.533415 81.119141 76.037109 C 80.138126 72.55178 78.75823 69.288511 76.980469 66.255859 C 75.204006 63.225322 73.069176 60.463459 70.582031 57.976562 C 68.095105 55.489705 65.335286 53.35658 62.304688 51.580078 C 59.272061 49.802334 56.009184 48.422416 52.523438 47.441406 C 49.027375 46.457459 45.393836 45.964844 41.634766 45.964844 C 40.374978 45.964844 39.391227 45.557204 38.498047 44.664062 C 37.604908 43.770885 37.197266 42.787106 37.197266 41.527344 C 37.197266 40.267551 37.604926 39.285704 38.498047 38.392578 C 39.391109 37.499534 40.37498 37.091797 41.634766 37.091797 z M 41.634766 56.373047 C 40.162482 56.373047 38.906195 56.894418 37.863281 57.9375 C 36.82042 58.980356 36.298828 60.238638 36.298828 61.710938 C 36.298828 63.183218 36.82042 64.441394 37.863281 65.484375 C 38.906195 66.527258 40.162482 67.048828 41.634766 67.048828 C 44.374873 67.048828 46.952318 67.570586 49.365234 68.613281 C 51.7782 69.656168 53.88417 71.07543 55.683594 72.875 C 57.48307 74.674394 58.904403 76.782392 59.947266 79.195312 C 60.990128 81.608253 61.511719 84.183523 61.511719 86.923828 C 61.511719 88.396124 62.033311 89.654383 63.076172 90.697266 C 64.119034 91.740247 65.375372 92.261719 66.847656 92.261719 C 68.320357 92.261719 69.578179 91.740153 70.621094 90.697266 C 71.663852 89.654087 72.185547 88.396124 72.185547 86.923828 C 72.185547 82.711025 71.377231 78.754335 69.761719 75.052734 C 68.146363 71.351743 65.957973 68.12199 63.197266 65.361328 C 60.436764 62.600781 57.207043 60.412314 53.505859 58.796875 C 49.804676 57.181441 45.847209 56.373047 41.634766 56.373047 z M 41.634766 57.273438 C 45.732162 57.273438 49.558076 58.055734 53.144531 59.621094 C 56.748645 61.194165 59.882144 63.317648 62.5625 65.998047 C 65.243079 68.678583 67.364518 71.810155 68.9375 75.414062 C 70.502957 79.000974 71.285156 82.826053 71.285156 86.923828 C 71.285156 88.183659 70.877572 89.166989 69.984375 90.060547 C 69.091213 90.953685 68.108001 91.361328 66.847656 91.361328 C 65.58775 91.361328 64.604005 90.953716 63.710938 90.060547 C 62.817788 89.167379 62.410156 88.183616 62.410156 86.923828 C 62.410156 84.069348 61.865513 81.3647 60.773438 78.837891 C 59.688107 76.32671 58.200555 74.120391 56.320312 72.240234 C 54.44012 70.359888 52.233874 68.872461 49.722656 67.787109 L 49.720703 67.787109 C 47.193926 66.695211 44.48905 66.148437 41.634766 66.148438 C 40.37494 66.148438 39.391208 65.740791 38.498047 64.847656 C 37.604885 63.954391 37.197266 62.970708 37.197266 61.710938 C 37.197266 60.451144 37.604931 59.46733 38.498047 58.574219 C 39.391222 57.6809 40.37498 57.273436 41.634766 57.273438 z M 43.966797 76.925781 C 42.903489 76.925781 41.921222 77.119438 41.021484 77.507812 C 40.121746 77.896462 39.334985 78.428719 38.660156 79.103516 C 37.985325 79.778122 37.453086 80.575493 37.064453 81.496094 C 36.675715 82.415982 36.482422 83.386069 36.482422 84.408203 C 36.482422 85.47162 36.675819 86.453668 37.064453 87.353516 C 37.452931 88.253359 37.985325 89.04004 38.660156 89.714844 C 39.334985 90.389252 40.121746 90.922173 41.021484 91.310547 C 41.921222 91.698906 42.903489 91.892578 43.966797 91.892578 C 44.989264 91.892578 45.960674 91.698973 46.880859 91.310547 C 47.800991 90.921924 48.598607 90.389345 49.273438 89.714844 C 49.948266 89.039946 50.478553 88.253556 50.867188 87.353516 C 51.255926 86.453668 51.451172 85.47162 51.451172 84.408203 C 51.451172 83.385875 51.255823 82.416101 50.867188 81.496094 C 50.478658 80.575816 49.948267 79.778122 49.273438 79.103516 C 48.598608 78.428719 47.800991 77.896499 46.880859 77.507812 C 45.960674 77.119376 44.989264 76.925781 43.966797 76.925781 z M 43.966797 77.824219 C 44.875236 77.824219 45.719093 77.993927 46.529297 78.335938 C 47.350216 78.682714 48.045494 79.147085 48.636719 79.738281 C 49.227803 80.32917 49.692464 81.024741 50.039062 81.845703 C 50.381163 82.655548 50.550781 83.499827 50.550781 84.408203 C 50.550781 85.362129 50.378516 86.214852 50.041016 86.996094 C 49.695077 87.797255 49.231268 88.483515 48.636719 89.078125 C 48.045336 89.66922 47.350014 90.133834 46.529297 90.480469 C 45.719202 90.822424 44.875366 90.992187 43.966797 90.992188 C 43.01305 90.992188 42.160199 90.821609 41.378906 90.484375 C 40.578451 90.138857 39.891605 89.672484 39.296875 89.078125 C 38.702407 88.483681 38.236382 87.796981 37.890625 86.996094 C 37.553173 86.214754 37.382812 85.362071 37.382812 84.408203 C 37.382812 83.499982 37.55243 82.655231 37.894531 81.845703 C 38.241238 81.024419 38.70572 80.329239 39.296875 79.738281 C 39.891332 79.143853 40.577966 78.679958 41.378906 78.333984 C 42.160304 77.996691 43.013172 77.824219 43.966797 77.824219 z "
     id="path4583" />
</svg>
