<?xml version="1.0" encoding="UTF-8" standalone="no"?>
<!-- Created with Inkscape (http://www.inkscape.org/) -->

<svg
   xmlns:dc="http://purl.org/dc/elements/1.1/"
   xmlns:cc="http://creativecommons.org/ns#"
   xmlns:rdf="http://www.w3.org/1999/02/22-rdf-syntax-ns#"
   xmlns:svg="http://www.w3.org/2000/svg"
   xmlns="http://www.w3.org/2000/svg"
   xmlns:xlink="http://www.w3.org/1999/xlink"
   xmlns:sodipodi="http://sodipodi.sourceforge.net/DTD/sodipodi-0.dtd"
   xmlns:inkscape="http://www.inkscape.org/namespaces/inkscape"
   width="128"
   height="128"
   id="svg2"
   version="1.1"
   inkscape:version="0.92.3 (2405546, 2018-03-11)"
   sodipodi:docname="pithos.svg">
  <defs
     id="defs4">
    <linearGradient
       id="linearGradient5263">
      <stop
         style="stop-color:#336699;stop-opacity:1"
         offset="0"
         id="stop4196" />
      <stop
         style="stop-color:#25507b;stop-opacity:1"
         offset="1"
         id="stop4198" />
    </linearGradient>
    <linearGradient
       id="linearGradient4200">
      <stop
         id="stop5265"
         offset="0"
         style="stop-color:#336699;stop-opacity:1" />
      <stop
         id="stop5267"
         offset="1"
         style="stop-color:#25507b;stop-opacity:1" />
    </linearGradient>
    <linearGradient
       id="linearGradient5129">
      <stop
         id="stop5131"
         offset="0"
         style="stop-color:#dee2ff;stop-opacity:1" />
      <stop
         id="stop5133"
         offset="1"
         style="stop-color:#7294dd;stop-opacity:1" />
    </linearGradient>
    <linearGradient
       id="linearGradient4428">
      <stop
         id="stop4430"
         offset="0"
         style="stop-color:#f37b21;stop-opacity:1" />
      <stop
         style="stop-color:#d35c03;stop-opacity:1;"
         offset="0.90000701"
         id="stop4434" />
      <stop
         id="stop4432"
         offset="1"
         style="stop-color:#b24d00;stop-opacity:1" />
    </linearGradient>
    <linearGradient
       id="linearGradient4829">
      <stop
         style="stop-color:#ffffff;stop-opacity:1"
         offset="0"
         id="stop4831" />
      <stop
         style="stop-color:#d7d7d7;stop-opacity:1"
         offset="1"
         id="stop4833" />
    </linearGradient>
    <clipPath
       clipPathUnits="userSpaceOnUse"
       id="clipPath4282">
      <rect
         style="color:#000000;display:inline;overflow:visible;visibility:visible;fill:#4d4d4d;fill-opacity:1;fill-rule:nonzero;stroke:none;stroke-width:9.13434315;marker:none;enable-background:accumulate"
         id="rect4284"
         width="246.875"
         height="234.375"
         x="462.5"
         y="1646.1122"
         ry="17"
         rx="17" />
    </clipPath>
    <linearGradient
       inkscape:collect="always"
       xlink:href="#linearGradient4829"
       id="linearGradient4835"
       x1="102.29776"
       y1="-0.42686829"
       x2="102.29776"
       y2="199.16539"
       gradientUnits="userSpaceOnUse"
       gradientTransform="matrix(5.1,0,0,5.1,2,30.362187)" />
    <linearGradient
       inkscape:collect="always"
       xlink:href="#linearGradient5423"
       id="linearGradient5429"
       x1="408.66196"
       y1="44.604382"
       x2="408.66196"
       y2="562.04968"
       gradientUnits="userSpaceOnUse" />
    <linearGradient
       id="linearGradient5423">
      <stop
         style="stop-color:#333333;stop-opacity:1;"
         offset="0"
         id="stop5425" />
      <stop
         style="stop-color:#2f4065;stop-opacity:1;"
         offset="1"
         id="stop5427" />
    </linearGradient>
    <linearGradient
       inkscape:collect="always"
       xlink:href="#linearGradient4200"
       id="linearGradient6197"
       gradientUnits="userSpaceOnUse"
       x1="99.036476"
       y1="-0.50471628"
       x2="99.036476"
       y2="199.83986"
       gradientTransform="matrix(4.6171385,0,0,4.6171385,45.795918,78.158078)" />
    <clipPath
       clipPathUnits="userSpaceOnUse"
       id="clipPath6245">
      <rect
         style="color:#000000;display:inline;overflow:visible;visibility:visible;opacity:0.85;fill:#ffffff;fill-opacity:1;fill-rule:nonzero;stroke:none;stroke-width:1.5;marker:none;enable-background:accumulate"
         id="rect6247"
         width="300"
         height="259.375"
         x="-901.5625"
         y="792.98718"
         rx="16.46875"
         ry="16.46875" />
    </clipPath>
    <linearGradient
       inkscape:collect="always"
       xlink:href="#linearGradient4829"
       id="linearGradient6392"
       x1="106.6204"
       y1="868.99115"
       x2="106.6204"
       y2="1041.3843"
       gradientUnits="userSpaceOnUse" />
    <linearGradient
       inkscape:collect="always"
       xlink:href="#linearGradient4829"
       id="linearGradient6523"
       x1="142.68672"
       y1="731.52191"
       x2="142.68672"
       y2="1204.222"
       gradientUnits="userSpaceOnUse" />
    <linearGradient
       inkscape:collect="always"
       xlink:href="#linearGradient4829"
       id="linearGradient4515"
       x1="100.61381"
       y1="852.36218"
       x2="100.61381"
       y2="1052.3622"
       gradientUnits="userSpaceOnUse" />
    <linearGradient
       inkscape:collect="always"
       xlink:href="#linearGradient4829"
       id="linearGradient4544"
       x1="42.216808"
       y1="62.831554"
       x2="105.62117"
       y2="62.831554"
       gradientUnits="userSpaceOnUse" />
    <linearGradient
       inkscape:collect="always"
       xlink:href="#linearGradient4829-4"
       id="linearGradient4544-4"
       x1="42.216808"
       y1="62.831554"
       x2="105.62117"
       y2="62.831554"
       gradientUnits="userSpaceOnUse" />
    <linearGradient
       id="linearGradient4829-4">
      <stop
         style="stop-color:#ffffff;stop-opacity:1"
         offset="0"
         id="stop4831-5" />
      <stop
         style="stop-color:#d7d7d7;stop-opacity:1"
         offset="1"
         id="stop4833-8" />
    </linearGradient>
    <linearGradient
       gradientTransform="rotate(180,100.69968,526.37395)"
       y2="62.831554"
       x2="105.62117"
       y1="62.831554"
       x1="42.216808"
       gradientUnits="userSpaceOnUse"
       id="linearGradient4561"
       xlink:href="#linearGradient4829-4"
       inkscape:collect="always" />
    <linearGradient
       inkscape:collect="always"
       xlink:href="#linearGradient4829"
       id="linearGradient4588"
       x1="64.375336"
       y1="101.32469"
       x2="142.63159"
       y2="101.32469"
       gradientUnits="userSpaceOnUse" />
    <linearGradient
       inkscape:collect="always"
       xlink:href="#linearGradient4829"
       id="linearGradient4595"
       x1="106.21929"
       y1="852.36218"
       x2="106.21929"
       y2="1052.3622"
       gradientUnits="userSpaceOnUse" />
    <clipPath
       id="clipPath-450489115">
      <g
         transform="translate(0,-1004.3622)"
         id="g17">
        <path
           style="fill:#1890d0"
           inkscape:connector-curvature="0"
           d="m -24,13 c 0,1.105 -0.672,2 -1.5,2 -0.828,0 -1.5,-0.895 -1.5,-2 0,-1.105 0.672,-2 1.5,-2 0.828,0 1.5,0.895 1.5,2 z"
           transform="matrix(15.333333,0,0,11.5,414.99999,878.8622)"
           id="path19" />
      </g>
    </clipPath>
    <linearGradient
       id="grd2"
       gradientUnits="userSpaceOnUse"
       x1="400"
       y1="136.13261"
       x2="398.84439"
       y2="463.0712"
       spreadMethod="pad">
      <stop
         offset="0"
         stop-color="#ffffff"
         id="stop8"
         style="stop-color:#bf62d5;stop-opacity:1" />
      <stop
         offset="1"
         stop-color="#f2f2f2"
         id="stop10"
         style="stop-color:#5c1caa;stop-opacity:1" />
    </linearGradient>
    <linearGradient
       id="grd3"
       gradientUnits="userSpaceOnUse"
       x1="403.125"
       y1="211.25"
       x2="403.125"
       y2="396.25">
      <stop
         id="stop15"
         stop-color="#5a1aa9"
         offset="0" />
      <stop
         id="stop13"
         stop-color="#c063d5"
         offset="1" />
    </linearGradient>
    <filter
       inkscape:collect="always"
       style="color-interpolation-filters:sRGB"
       id="filter904"
       x="-0.042001732"
       width="1.0840034"
       y="-0.031499028"
       height="1.0629981">
      <feGaussianBlur
         inkscape:collect="always"
         stdDeviation="2.42805"
         id="feGaussianBlur906" />
    </filter>
    <linearGradient
       inkscape:collect="always"
       xlink:href="#linearGradient4829-4"
       id="linearGradient912"
       gradientUnits="userSpaceOnUse"
       x1="403.70282"
       y1="139.02406"
       x2="402.70987"
       y2="463.0712" />
    <linearGradient
       inkscape:collect="always"
       xlink:href="#grd3"
       id="linearGradient922"
       x1="402.70987"
       y1="316.4187"
       x2="402.70987"
       y2="341.92349"
       gradientUnits="userSpaceOnUse" />
    <linearGradient
       inkscape:collect="always"
       xlink:href="#grd3"
       id="linearGradient1021"
       x1="390.34137"
       y1="441.36121"
       x2="390.34137"
       y2="151.61555"
       gradientUnits="userSpaceOnUse" />
  </defs>
  <sodipodi:namedview
     id="base"
     pagecolor="#ffffff"
     bordercolor="#666666"
     borderopacity="1.0"
     inkscape:pageopacity="0.0"
     inkscape:pageshadow="2"
     inkscape:zoom="1.5606068"
     inkscape:cx="76.214175"
     inkscape:cy="92.898433"
     inkscape:document-units="px"
     inkscape:current-layer="principle_icon"
     showgrid="true"
     inkscape:window-width="1360"
     inkscape:window-height="718"
     inkscape:window-x="0"
     inkscape:window-y="24"
     inkscape:window-maximized="1"
     inkscape:snap-from-guide="true"
     showguides="true"
     inkscape:guide-bbox="true"
     inkscape:pagecheckerboard="true">
    <sodipodi:guide
       position="0,0"
       orientation="0,200"
       id="guide3764"
       inkscape:locked="false" />
    <sodipodi:guide
       position="200,0"
       orientation="-200,0"
       id="guide3766"
       inkscape:locked="false" />
    <sodipodi:guide
       position="200,200"
       orientation="0,-200"
       id="guide3768"
       inkscape:locked="false" />
    <sodipodi:guide
       position="0,200"
       orientation="200,0"
       id="guide3770"
       inkscape:locked="false" />
    <sodipodi:guide
       position="0,0"
       orientation="0,200"
       id="guide5255"
       inkscape:locked="false" />
    <sodipodi:guide
       position="200,0"
       orientation="-200,0"
       id="guide5257"
       inkscape:locked="false" />
    <sodipodi:guide
       position="200,200"
       orientation="0,-200"
       id="guide5259"
       inkscape:locked="false" />
    <sodipodi:guide
       position="0,200"
       orientation="200,0"
       id="guide5261"
       inkscape:locked="false" />
    <inkscape:grid
       type="xygrid"
       id="grid914" />
  </sodipodi:namedview>
  <metadata
     id="metadata7">
    <rdf:RDF>
      <cc:Work
         rdf:about="">
        <dc:format>image/svg+xml</dc:format>
        <dc:type
           rdf:resource="http://purl.org/dc/dcmitype/StillImage" />
        <dc:title />
      </cc:Work>
    </rdf:RDF>
  </metadata>
  <g
     inkscape:label="Layer 1"
     inkscape:groupmode="layer"
     id="layer1"
     transform="translate(0,-924.36218)">
    <g
       id="principle_icon"
       transform="matrix(3.1366667,0,0,3.1366667,-743.16668,-400.13783)">
      <g
         id="g1438"
         transform="matrix(0.121034,0,0,0.121034,208.81281,406.46339)">
        <circle
           r="510"
           cy="540.36218"
           cx="512"
           id="path4188"
           style="color:#000000;display:inline;overflow:visible;visibility:visible;fill:url(#linearGradient4835);fill-opacity:1;fill-rule:nonzero;stroke:none;stroke-width:46.58515167;marker:none;enable-background:accumulate"
           transform="matrix(0.31880977,0,0,0.31880977,236.9288,127.56785)" />
        <circle
           r="461.71384"
           cy="539.87195"
           cx="507.50977"
           id="path4188-6"
           style="color:#000000;display:inline;overflow:visible;visibility:visible;fill:url(#linearGradient6197);fill-opacity:1;fill-rule:nonzero;stroke:none;stroke-width:46.58515167;marker:none;enable-background:accumulate"
           transform="matrix(0.31880977,0,0,0.31880977,236.9288,127.56785)" />
        <path
           inkscape:connector-curvature="0"
           style="fill:url(#linearGradient1021);fill-opacity:1"
           d="m 400,450 c 82.84,0 150,-67.16 150,-150 0,-82.84 -67.16,-150 -150,-150 -82.84,0 -150,67.16 -150,150 0,82.84 67.16,150 150,150 z"
           class="shp1"
           id="Oval 1" />
        <path
           id="path890"
           class="shp2"
           d="m 377.4,377.5581 c 0,12.08 -9.77,21.88 -21.82,21.88 -5.27,0 -10.11,-1.87 -13.88,-4.99 4.18,-2.02 7.06,-6.3 7.06,-11.26 0,-6.9 -5.6,-12.5 -12.5,-12.5 -0.86,0 -1.69,0.09 -2.5,0.25 v -86.82 c 0,-38.48 31.13,-69.68 69.52,-69.68 h 0.63 c 38.16,0 68.68,30.8 68.58,68.88 0,0.2 0,0.41 0,0.61 -0.01,0.21 -0.01,0.41 -0.02,0.61 -1.39,37.4 -32.25,68.01 -68.88,68.01 -12.05,0 -21.82,-9.79 -21.82,-21.87 0,-12.08 9.77,-21.87 21.82,-21.87 12.85,0 24.64,-11.67 25.25,-25.75 -0.05,-13.86 -11.02,-24.88 -24.93,-24.88 h -0.63 c -14.29,0 -25.87,11.61 -25.87,25.93 z m 51.44,-93.88 0.02,-1.23 c 0,0.2 -0.01,0.41 -0.02,0.61 0,0.2 0,0.41 -0.01,0.61 z m 43.66,-0.36 -0.02,1.23 c 0,-0.21 0.01,-0.41 0.01,-0.61 0.01,-0.2 0.01,-0.41 0.01,-0.61 z"
           style="opacity:0.3;fill:#0b030d;fill-opacity:1;filter:url(#filter904)"
           inkscape:connector-curvature="0" />
        <path
           inkscape:connector-curvature="0"
           style="fill:url(#linearGradient912);fill-opacity:1"
           d="m 377.4,374.37 c 0,12.08 -9.77,21.88 -21.82,21.88 -5.27,0 -10.11,-1.87 -13.88,-4.99 4.18,-2.02 7.06,-6.3 7.06,-11.26 0,-6.9 -5.6,-12.5 -12.5,-12.5 -0.86,0 -1.69,0.09 -2.5,0.25 v -86.82 c 0,-38.48 31.13,-69.68 69.52,-69.68 h 0.63 c 38.16,0 68.68,30.8 68.58,68.88 0,0.2 0,0.41 0,0.61 -0.01,0.21 -0.01,0.41 -0.02,0.61 -1.39,37.4 -32.25,68.01 -68.88,68.01 -12.05,0 -21.82,-9.79 -21.82,-21.87 0,-12.08 9.77,-21.87 21.82,-21.87 12.85,0 24.64,-11.67 25.25,-25.75 -0.05,-13.86 -11.02,-24.88 -24.93,-24.88 h -0.63 c -14.29,0 -25.87,11.61 -25.87,25.93 z m 51.44,-93.88 0.02,-1.23 c 0,0.2 -0.01,0.41 -0.02,0.61 0,0.2 0,0.41 -0.01,0.61 z m 43.66,-0.36 -0.02,1.23 c 0,-0.21 0.01,-0.41 0.01,-0.61 0.01,-0.2 0.01,-0.41 0.01,-0.61 z"
           class="shp2"
           id="Combined Shape" />
        <path
           style="fill:url(#linearGradient922);fill-opacity:1"
           inkscape:connector-curvature="0"
           d="m 403.75,341.25 c 7.59,0 13.75,-6.16 13.75,-13.75 0,-7.59 -6.16,-13.75 -13.75,-13.75 -7.59,0 -13.75,6.16 -13.75,13.75 0,7.59 6.16,13.75 13.75,13.75 z"
           class="shp3"
           id="Oval 2 Copy" />
      </g>
    </g>
  </g>
</svg>
