<?xml version="1.0" encoding="UTF-8" standalone="no"?>
<svg
   xmlns:dc="http://purl.org/dc/elements/1.1/"
   xmlns:cc="http://creativecommons.org/ns#"
   xmlns:rdf="http://www.w3.org/1999/02/22-rdf-syntax-ns#"
   xmlns:svg="http://www.w3.org/2000/svg"
   xmlns="http://www.w3.org/2000/svg"
   xmlns:sodipodi="http://sodipodi.sourceforge.net/DTD/sodipodi-0.dtd"
   xmlns:inkscape="http://www.inkscape.org/namespaces/inkscape"
   height="136.53333"
   viewBox="0 0 136.53333 136.53333"
   width="136.53333"
   version="1.1"
   id="svg57"
   sodipodi:docname="chrome-lneaknkopdijkpnocmklfnjbeapigfbh-Default.svg"
   inkscape:version="0.92.3 (2405546, 2018-03-11)">
  <metadata
     id="metadata63">
    <rdf:RDF>
      <cc:Work
         rdf:about="">
        <dc:format>image/svg+xml</dc:format>
        <dc:type
           rdf:resource="http://purl.org/dc/dcmitype/StillImage" />
      </cc:Work>
    </rdf:RDF>
  </metadata>
  <defs
     id="defs61" />
  <sodipodi:namedview
     pagecolor="#ffffff"
     bordercolor="#666666"
     borderopacity="1"
     objecttolerance="10"
     gridtolerance="10"
     guidetolerance="10"
     inkscape:pageopacity="0"
     inkscape:pageshadow="2"
     inkscape:window-width="1920"
     inkscape:window-height="1026"
     id="namedview59"
     showgrid="false"
     inkscape:zoom="4.8889808"
     inkscape:cx="100.38743"
     inkscape:cy="51.840628"
     inkscape:window-x="0"
     inkscape:window-y="28"
     inkscape:window-maximized="1"
     inkscape:current-layer="svg57" />
  <filter
     id="a"
     color-interpolation-filters="sRGB"
     height="1.031026"
     width="1.031376"
     x="-.015688"
     y="-.015513">
    <feGaussianBlur
       stdDeviation=".7986332"
       id="feGaussianBlur2" />
  </filter>
  <linearGradient
     id="b"
     gradientUnits="userSpaceOnUse"
     x1="243.150569"
     x2="242.797019"
     y1="62.7303"
     y2="122.127278">
    <stop
       offset="0"
       stop-color="#f9f9f9"
       id="stop5" />
    <stop
       offset="1"
       stop-color="#d6d6d6"
       id="stop7" />
  </linearGradient>
  <filter
     id="c"
     color-interpolation-filters="sRGB"
     height="1.1656"
     width="1.1656"
     x="-.0828"
     y="-.0828">
    <feGaussianBlur
       stdDeviation="2.1101835"
       id="feGaussianBlur10" />
  </filter>
  <g
     transform="matrix(.971076 0 0 .971076 -148.41929 53.598984)"
     id="g55">
    <rect
       fill="#5d5d5d"
       filter="url(#a)"
       height="109.12843"
       rx="4.826979"
       transform="matrix(.98708366 -.16020566 .16020566 .98708366 0 0)"
       width="107.46031"
       x="159.55064"
       y="-8.16969"
       id="rect13" />
    <rect
       fill="#fff"
       height="109.12843"
       rx="4.826979"
       transform="matrix(.98708366 -.16020566 .16020566 .98708366 0 0)"
       width="107.46031"
       x="159.55064"
       y="-8.16969"
       id="rect15" />
    <path
       d="m162.66734-27.182644 94.21734-16.599086 16.3653 93.515973-93.98356 17.30046z"
       fill="#8dcc5d"
       id="path17" />
    <path
       d="m262.10156-13.966797c-28.79626 4.6997979-68.07216 12.4469398-94.14258 16.8222658l11.30664 64.1796872 93.98438-17.300781z"
       fill="#e9e3d3"
       id="path19" />
    <path
       d="m256.09766-43.642578-24.6211 4.33789v17.517579c0 .831.669 1.5 1.5 1.5h28.01953l-4.08789-23.355469z"
       fill="#f5cbd2"
       id="path21" />
    <path
       d="m238.64062-40.566406-13.52343 2.380859 3.39258 16.748047-62.81055 11.4648438 2.09961 11.9140624 63.57226-10.5820312 12.13868 63.849609.57812-.105468 11.81641-2.175782-11.77735-63.779296 17.97461-3.115235-2.24609-12.841797-18.10156 3.101563z"
       fill="#fff"
       id="path23" />
    <path
       d="m234.5-19.234375c-.37361.000773-.73782.02435-1.08398.05859-1.35631.134168-2.73674.447872-4.46875.835937l-62.84571 10.6503909 1.21485 6.8925781 62.9707-10.671875.0898-.01953c.43706-.09787.8398-.18559 1.20899-.263672 2.48395-.283305 2.51074-.254227 2.84179 2.0097655.0504.295903.10178.6133941.15625.9550781l.006.037109 11.48633 63.4863284 6.88281-1.267578-11.4746-63.4296879c-.27693-1.7379901-.49364-3.1213491-.88282-4.4335931-.39506-1.332118-1.09083-2.881273-2.61914-3.884766-1.14623-.75262-2.3616-.957397-3.48242-.955078z"
       fill="#4ac7fd"
       id="path25" />
    <path
       d="m234.5-19.734375c-.39565.000377-.77517.02517-1.13281.06055-1.36465.134993-2.75059.453037-4.42383.828125l-.0117.002h-.002l-62.91407 10.6621094.17383.984375 62.75391-10.6347654v.0039l.0137-.002c1.78505-.399717 3.16648-.714969 4.50781-.847656h.002c1.33873-.132429 2.84836-.09878 4.24218.816406 1.38916.912123 2.03446 2.32937 2.41407 3.609375.3769 1.270854.59155 2.639056.86914 4.3808592.001.00702.003.010545.004.017578.003.01706.005.025834.008.042969v.00195l11.46289 63.3691408.98437-.181641-11.46094-63.347656-.008-.042969-.004-.0293-.002-.0078h-.002c-.27559-1.730128-.49186-3.137101-.89258-4.488281-.41051-1.384232-1.15675-3.065294-2.82422-4.160157-1.2471-.818849-2.57087-1.038241-3.75781-1.037109zm-1.4707 7.357422c-.40265.002-.87798.05796-1.5.128906l-.0234.002-.0234.0039c-.37157.07859-.77623.167408-1.21484.265626l-.0742.01758-62.96289 10.6699215.17187.984375 62.98037-10.6738715.10157-.021484h.002c.42562-.09531.81579-.181553 1.17578-.257812.60682-.0691 1.06627-.117596 1.37305-.119141.31114-.0016.43945.04593.49023.08203.0508.0361.112.111686.18555.376953.0735.265267.13805.682819.2207 1.2480471l.002.00586v.00586c.0501.293893.10203.6090485.15625.9492187v.00195l.008.041016 11.48632 63.4921872.98243-.179688-11.48243-63.480468-.006-.03125v-.00195c-.0539-.3382419-.10618-.6530422-.15624-.9472656v-.00195c-.0827-.5656234-.14422-1.0016854-.2461-1.3691404-.10202-.367962-.26473-.705227-.57226-.923828-.30754-.218601-.67158-.269606-1.07422-.267578z"
       fill="#3884d7"
       id="path27" />
    <path
       d="m167.79883 1.9414062 63.57226-10.5820312 12.13868 63.849609-64.24335 11.825719z"
       fill="#e4dfce"
       id="path29" />
    <path
       d="m170.10462 16.421033c9.69398-2.470023 19.89066-1.130732 30.42756 1.737694 13.53189 3.683742 30.75295 23.642017 41.9349 19.533117l1.04269 17.51714-13.34639 1.25122c-13.19753-5.70619-22.17028-15.94392-31.55734-21.590556-8.1923-4.927948-16.35686-3.377294-25.61768-2.599774"
       fill="#fadf31"
       stroke="#edc570"
       id="path31" />
    <g
       transform="matrix(.98636226 -.16458886 .16458886 .98636226 145.768397 -41.441665)"
       id="g45">
      <path
         d="m29.75 53.533325-.228292 5.041478 34.471456-.441942-.773494-5.069206c-5.464221 3.053451-11.303306 1.983387-17.234835-.103553-5.075281 3.722548-10.713621 1.532972-16.234835.573223z"
         fill="#e55259"
         id="path33" />
      <path
         d="m29.521708 58.574803 34.471456-.441942c-.608432 4.382955-.452863 8.981241-3.005204 12.81631-3.128525 5.8965-8.743471 7.498274-14.407301 9.015612-3.66795-.379541-6.63873-1.630545-9.369165-3.181981l-5.656854-5.480077-.972272-2.916816-1.06066-2.916815-.265165-3.181981z"
         fill="#498dfd"
         id="path35" />
      <path
         d="m29.75 53.533325c5.04456 1.014953 9.635774 3.519471 16.234835-.573223 5.475729 2.188244 11.060021 3.507985 17.234835.103553 4.575991 19.792305-11.324082 27.063728-16.821676 26.731245-4.781838-.289195-20.432725-3.687861-16.647994-26.261575z"
         fill="none"
         stroke="#fff"
         id="path37" />
      <path
         d="m29.521708 58.574803 34.471456-.441942"
         fill="none"
         stroke="#fff"
         id="path39" />
      <text
         style="font-weight:bold;font-size:15.847994;font-family:Source Sans Pro;letter-spacing:0;word-spacing:0;fill:#fff;stroke-width:.7924"
         x="34.772789"
         y="71.479378"
         id="text43">
        <tspan
           fill="#fff"
           stroke-width=".7924"
           x="34.772789"
           y="71.479378"
           id="tspan41">280</tspan>
      </text>
    </g>
    <circle
       cx="246.95886"
       cy="95.292946"
       fill="#222"
       filter="url(#c)"
       opacity=".513"
       r="30.582369"
       transform="matrix(.93756917 -.19128047 .18138356 .98872617 10.146499 -.329305)"
       id="circle47" />
    <path
       transform="matrix(.98179576 -.1899397 .1899397 .98179576 0 0)"
       style="fill:url(#b)"
       d="M 275.32392,93.842995 A 29.344933,29.344933 0 0 1 245.97899,123.18793 29.344933,29.344933 0 0 1 216.63406,93.842995 29.344933,29.344933 0 0 1 245.97899,64.498062 29.344933,29.344933 0 0 1 275.32392,93.842995 Z"
       id="circle49" />
    <path
       d="m109.95511 130.17298-15.00625-25.99159h30.0125z"
       fill="#a6a6a6"
       transform="matrix(.31098188 -.06016303 .16410294 .84824591 208.219787 -35.388149)"
       id="path51" />
    <path
       d="m109.95511 130.17298-15.00625-25.99159h30.0125z"
       fill="#df0000"
       transform="matrix(.31098188 -.06016303 -.16410294 -.84824591 242.043387 139.445587)"
       id="path53" />
  </g>
</svg>
