<svg height="128" viewBox="0 0 128 128" width="128" xmlns="http://www.w3.org/2000/svg" xmlns:xlink="http://www.w3.org/1999/xlink"><linearGradient id="a" gradientUnits="userSpaceOnUse" x1="64.42871085545" x2="63.70264686264" y1="9.49702762746" y2="114.03049919903"><stop offset="0" stop-color="#e6b1a7"/><stop offset="1" stop-color="#f54457"/></linearGradient><filter id="b" color-interpolation-filters="sRGB" height="1.509598" width="1.382201" x="-.191101" y="-.254799"><feGaussianBlur stdDeviation="4.9716929"/></filter><linearGradient id="c" gradientUnits="userSpaceOnUse" x1="76.022964" x2="78.607567" y1="141.0135" y2="-11.456403"><stop offset="0" stop-color="#e6e6e6"/><stop offset="1" stop-color="#f5f5f5"/></linearGradient><circle cx="64.333229" cy="64.22612" fill="url(#a)" r="60.565502" stroke="url(#c)" stroke-width="4.644855"/><g stroke-width=".121951" transform="translate(-.235139)"><path d="m45.056365 41.001504c-2.15708 0-3.902439 1.745499-3.902439 3.902451v7.804879c-2.15708 0-3.902451 1.7455-3.902451 3.90244-2.157069 0-3.90244 1.745499-3.90244 3.902439v23.41466c0 2.157069 1.745488 3.90244 3.90244 3.90244h31.219539c2.157068 0 3.902439-1.745488 3.902439-3.90244v-23.41466c0-2.15694-1.745371-3.902439-3.902439-3.902439h-15.60977c0-2.157069-1.745488-3.90244-3.902439-3.90244v-3.902439h15.609769v-7.804891zm23.414649 0v7.804891h11.707327c2.157071 0 3.902036-1.745371 3.902036-3.90244 0-2.15708-1.744723-3.902451-3.902036-3.902451zm27.316687 15.60977-11.707324 7.80489h-3.902036c-2.157077 0-3.902448 1.745488-3.902448 3.90244v7.804879c0 2.15708 1.745499 3.902439 3.902448 3.902439h3.902036l11.707324 7.804891zm-56.585007 23.414648h19.512209c1.07854 0 1.951232.872692 1.951232 1.951232s-.872692 1.951219-1.951232 1.951219h-19.512209c-1.078528 0-1.951219-.872679-1.951219-1.951219s.872691-1.951232 1.951219-1.951232z" filter="url(#b)" opacity=".357"/><path d="m45.056365 41.001504c-2.15708 0-3.902439 1.745499-3.902439 3.902451v7.804879c-2.15708 0-3.902451 1.7455-3.902451 3.90244-2.157069 0-3.90244 1.745499-3.90244 3.902439v23.41466c0 2.157069 1.745488 3.90244 3.90244 3.90244h31.219539c2.157068 0 3.902439-1.745488 3.902439-3.90244v-23.41466c0-2.15694-1.745371-3.902439-3.902439-3.902439h-15.60977c0-2.157069-1.745488-3.90244-3.902439-3.90244v-3.902439h15.609769v-7.804891zm23.414649 0v7.804891h11.707327c2.157071 0 3.902036-1.745371 3.902036-3.90244 0-2.15708-1.744723-3.902451-3.902036-3.902451zm27.316687 15.60977-11.707324 7.80489h-3.902036c-2.157077 0-3.902448 1.745488-3.902448 3.90244v7.804879c0 2.15708 1.745499 3.902439 3.902448 3.902439h3.902036l11.707324 7.804891zm-56.585007 23.414648h19.512209c1.07854 0 1.951232.872692 1.951232 1.951232s-.872692 1.951219-1.951232 1.951219h-19.512209c-1.078528 0-1.951219-.872679-1.951219-1.951219s.872691-1.951232 1.951219-1.951232z" fill="#fff"/></g></svg>