<?xml version="1.0" encoding="UTF-8" standalone="no"?>
<svg
   xmlns:dc="http://purl.org/dc/elements/1.1/"
   xmlns:cc="http://creativecommons.org/ns#"
   xmlns:rdf="http://www.w3.org/1999/02/22-rdf-syntax-ns#"
   xmlns:svg="http://www.w3.org/2000/svg"
   xmlns="http://www.w3.org/2000/svg"
   xmlns:xlink="http://www.w3.org/1999/xlink"
   xmlns:sodipodi="http://sodipodi.sourceforge.net/DTD/sodipodi-0.dtd"
   xmlns:inkscape="http://www.inkscape.org/namespaces/inkscape"
   height="128"
   viewBox="0 0 128 128"
   width="128"
   version="1.1"
   id="svg52"
   sodipodi:docname="alc.svg"
   inkscape:version="0.92.3 (2405546, 2018-03-11)">
  <metadata
     id="metadata58">
    <rdf:RDF>
      <cc:Work
         rdf:about="">
        <dc:format>image/svg+xml</dc:format>
        <dc:type
           rdf:resource="http://purl.org/dc/dcmitype/StillImage" />
        <dc:title />
        <cc:license
           rdf:resource="" />
      </cc:Work>
    </rdf:RDF>
  </metadata>
  <defs
     id="defs56">
    <linearGradient
       inkscape:collect="always"
       id="linearGradient862">
      <stop
         style="stop-color:#954848;stop-opacity:1;"
         offset="0"
         id="stop858" />
      <stop
         style="stop-color:#683232;stop-opacity:1"
         offset="1"
         id="stop860" />
    </linearGradient>
    <linearGradient
       inkscape:collect="always"
       id="linearGradient849">
      <stop
         style="stop-color:#857562;stop-opacity:1;"
         offset="0"
         id="stop845" />
      <stop
         id="stop853"
         offset="0.8888889"
         style="stop-color:#aea8a3;stop-opacity:1" />
      <stop
         style="stop-color:#f8f7f6;stop-opacity:1"
         offset="1"
         id="stop847" />
    </linearGradient>
    <linearGradient
       inkscape:collect="always"
       id="linearGradient861">
      <stop
         style="stop-color:#984845;stop-opacity:1;"
         offset="0"
         id="stop857" />
      <stop
         style="stop-color:#b04d4d;stop-opacity:1"
         offset="1"
         id="stop859" />
    </linearGradient>
    <linearGradient
       inkscape:collect="always"
       xlink:href="#linearGradient861"
       id="linearGradient863"
       x1="67.48864"
       y1="108"
       x2="50"
       y2="13"
       gradientUnits="userSpaceOnUse" />
    <linearGradient
       inkscape:collect="always"
       xlink:href="#linearGradient849"
       id="linearGradient855"
       gradientUnits="userSpaceOnUse"
       x1="81.511353"
       y1="115.87216"
       x2="80"
       y2="107" />
    <linearGradient
       inkscape:collect="always"
       xlink:href="#linearGradient862"
       id="linearGradient864"
       x1="82.206299"
       y1="103"
       x2="85"
       y2="118"
       gradientUnits="userSpaceOnUse" />
  </defs>
  <sodipodi:namedview
     pagecolor="#ffffff"
     bordercolor="#666666"
     borderopacity="1"
     objecttolerance="10"
     gridtolerance="10"
     guidetolerance="10"
     inkscape:pageopacity="0"
     inkscape:pageshadow="2"
     inkscape:window-width="1920"
     inkscape:window-height="1026"
     id="namedview54"
     showgrid="true"
     borderlayer="false"
     inkscape:zoom="5.5312497"
     inkscape:cx="104.34633"
     inkscape:cy="19.657202"
     inkscape:window-x="0"
     inkscape:window-y="28"
     inkscape:window-maximized="1"
     inkscape:current-layer="svg52">
    <inkscape:grid
       type="xygrid"
       id="grid868" />
  </sodipodi:namedview>
  <linearGradient
     id="a"
     gradientTransform="matrix(1.0340058,-0.16481214,0.16481214,1.0340058,153.31432,20.078226)"
     gradientUnits="userSpaceOnUse"
     x1="-46.022003"
     x2="-45.049538"
     y1="67.844688"
     y2="-61.016541">
    <stop
       offset="0"
       stop-color="#984845"
       id="stop2" />
    <stop
       offset="1"
       stop-color="#b04d4d"
       id="stop4" />
  </linearGradient>
  <linearGradient
     id="b"
     gradientTransform="matrix(0.76544401,-0.12200557,0.12200557,0.76544401,91.679152,-8.5196568)"
     gradientUnits="userSpaceOnUse"
     x1="-104.67171"
     x2="-98.618813"
     y1="80.727516"
     y2="80.727516">
    <stop
       offset="0"
       stop-color="#8c4040"
       id="stop7" />
    <stop
       offset=".50000024"
       stop-color="#bd6e6c"
       id="stop9" />
    <stop
       offset="1"
       stop-color="#a84e4c"
       id="stop11" />
  </linearGradient>
  <linearGradient
     id="c"
     gradientTransform="matrix(0.76544401,-0.12200557,0.12200557,0.76544401,91.679152,-8.5196568)"
     gradientUnits="userSpaceOnUse"
     x1="-38.632729"
     x2="-39.055714"
     y1="144.23842"
     y2="158.81201">
    <stop
       offset="0"
       stop-color="#954848"
       id="stop14" />
    <stop
       offset="1"
       stop-color="#432222"
       id="stop16" />
  </linearGradient>
  <linearGradient
     id="d"
     gradientTransform="matrix(0.76544401,-0.12200557,0.12200557,0.76544401,91.679152,-8.5196568)"
     gradientUnits="userSpaceOnUse"
     x1="-40.917969"
     x2="-40.917969"
     y1="154.91374"
     y2="143.8855">
    <stop
       offset="0"
       stop-color="#857562"
       id="stop19" />
    <stop
       offset=".17814124"
       stop-color="#82786f"
       id="stop21" />
    <stop
       offset=".7846989"
       stop-color="#aea8a3"
       id="stop23" />
    <stop
       offset="1"
       stop-color="#f8f7f6"
       id="stop25" />
  </linearGradient>
  <path
     d="m 94.433284,3.8516168 c -0.515243,-0.022045 -1.040161,0.00763 -1.570099,0.092102 L 49.64289,10.832299 c -0.02043,0.0033 -0.03961,0.0098 -0.05994,0.01315 l -34.98089,5.575779 c -0.836988,0.13341 -1.405283,0.914393 -1.271872,1.751384 l 14.885298,93.375948 c -1.74e-4,1.7e-4 -0.02341,0.004 -0.02339,0.004 0.691386,4.33766 1.175344,13.44382 4.583127,12.68511 L 108.54083,112.1607 c 2.83728,-0.45223 8.31363,-2.06708 6.83742,-10.87963 l -0.5146,-3.232322 c 0.35839,-1.120844 0.47195,-2.340262 0.27339,-3.586093 L 101.73412,10.376178 C 101.14285,6.6665903 98.039934,4.0059255 94.433284,3.8516168 Z"
     id="path28"
     inkscape:connector-curvature="0"
     style="fill-opacity:0.23954402;stroke-width:0.7402705" />
  <path
     d="M 94.857089,3 C 94.334562,2.977644 93.802226,3.00774 93.264782,3.093404 l -43.83158,6.986011 c -0.02072,0.0033 -0.04017,0.0099 -0.06078,0.01334 l -35.475647,5.654636 c -0.848826,0.135296 -1.425158,0.927326 -1.289861,1.776155 L 27.70274,112.22017 c -1.77e-4,1.7e-4 -0.02374,0.004 -0.02372,0.004 0.701165,4.39901 1.191968,13.63397 4.64795,12.86452 l 76.8372,-12.24772 c 2.87741,-0.45863 8.43122,-2.09631 6.93412,-11.0335 l -0.52187,-3.278043 c 0.36346,-1.1367 0.47862,-2.373366 0.27726,-3.636815 L 102.26119,9.6168429 C 101.66156,5.8547874 98.514758,3.156491 94.857089,3 Z"
     id="path30"
     inkscape:connector-curvature="0"
     style="fill-opacity:0.23954402;stroke-width:0.7402705" />
  <path
     d="M 30.976365,110.32677 111.70705,97.458948 c 1.36793,-0.21804 2.47107,-0.38178 2.4734,-0.36716 l 0.55728,3.496302 c 1.45998,8.71562 -3.95599,10.31332 -6.76204,10.76058 l -74.932718,11.94367 c -3.370296,0.75036 -3.84781,-8.25567 -4.53159,-12.5456 -0.0023,-0.0146 1.09705,-0.20194 2.464983,-0.41997 z"
     id="path32"
     inkscape:connector-curvature="0"
     style="fill:url(#linearGradient864);stroke-width:0.7402705;fill-opacity:1" />
  <path
     d="m 30.267134,115.25703 c -0.943752,0.6539 1.274511,7.33096 3.004172,6.82906 l 75.173934,-11.98211 c 5.31797,-0.98254 5.40042,-7.37406 4.69886,-11.233899 -1.60025,3.684329 -4.31969,3.632159 -15.408817,5.399669 -1.056596,0.11803 -64.252379,10.24132 -64.252379,10.24132 z"
     id="path34"
     inkscape:connector-curvature="0"
     style="fill:url(#linearGradient855);stroke-width:0.7402705;fill-opacity:1" />
  <path
     d="m 49.725186,11.134247 c -0.02021,0.0033 -0.0392,0.0091 -0.0593,0.01251 l -34.59598,5.514319 c -0.827781,0.131942 -1.3889,0.904022 -1.256958,1.731805 l 15.190167,95.300769 c 0.131941,0.82779 0.905284,1.38717 1.733065,1.25523 l 34.506277,-5.50003 c 0.05041,-0.007 0.100231,-0.008 0.150719,-0.0162 l 42.745274,-6.81325 c 4.19289,-0.66831 7.0298,-4.581071 6.3615,-8.77397 L 101.24444,10.68249 C 100.57613,6.4895975 96.663364,3.6526825 92.470479,4.320995 Z"
     id="path36"
     inkscape:connector-curvature="0"
     style="fill:url(#linearGradient863);fill-opacity:1;stroke-width:0.7402705" />
  <path
     d="m 14.400318,16.952548 c -0.432663,0.325595 -0.679095,0.86574 -0.587622,1.439626 l 15.19017,95.300776 c 0.131942,0.82778 0.905284,1.38716 1.733065,1.25522 l 34.506277,-5.50002 c 0.05041,-0.007 0.100438,-0.007 0.150927,-0.0149 L 108.1384,102.62 c 2.89096,-0.46079 5.13666,-2.46553 6.03387,-5.039505 -1.11249,1.931307 -3.05505,3.359775 -5.43779,3.739565 l -42.745257,6.81325 c -0.05052,0.008 -0.100315,0.009 -0.150727,0.0162 l -34.506269,5.50002 c -0.827782,0.13194 -1.601124,-0.42744 -1.733065,-1.25522 L 14.409022,17.093728 c -0.0076,-0.04763 -0.0056,-0.09403 -0.0087,-0.141183 z"
     id="path38"
     inkscape:connector-curvature="0"
     style="fill:#8b3e3b;stroke-width:0.7402705" />
  <path
     d="M 18.403745,16.129692 15.0699,16.66108 c -0.827781,0.131942 -1.3889,0.904022 -1.256958,1.731805 l 15.19017,95.300765 c 0.131941,0.82779 0.905284,1.38717 1.733065,1.25523 l 3.333846,-0.53139 z"
     id="path40"
     inkscape:connector-curvature="0"
     style="fill:url(#b);stroke-width:0.7402705" />
  <path
     d="M 19.138347,16.516238 34.712053,114.22326"
     id="path42"
     inkscape:connector-curvature="0"
     style="fill:none;stroke:#862d2d;stroke-width:1.39519155" />
  <path
     d="m 49.724953,11.133529 c -0.02021,0.0033 -0.0392,0.0092 -0.0593,0.01252 l -34.595972,5.514317 c -0.605757,0.09655 -1.066496,0.538065 -1.219561,1.091187 0.138023,-0.07013 0.285091,-0.125157 0.446577,-0.150896 l 34.595972,-5.514318 c 0.02011,-0.0033 0.03909,-0.0093 0.0593,-0.01252 l 42.74526,-6.8132468 c 4.192893,-0.6683125 8.105652,2.1686033 8.773971,6.3614948 l 13.25547,83.162802 c 0.32521,2.040296 -0.18387,4.011178 -1.27101,5.577251 1.60597,-1.670081 2.43871,-4.041183 2.04423,-6.516048 L 101.24418,10.681776 C 100.57586,6.4888846 96.663105,3.6519689 92.470212,4.3202814 Z"
     id="path44"
     inkscape:connector-curvature="0"
     style="fill:#d6736f;stroke-width:0.7402705" />
  <path
     d="M 23.08763,36.430054 102.34874,23.796475"
     id="path46"
     inkscape:connector-curvature="0"
     style="fill:none;stroke:#935454;stroke-width:2.32531929" />
  <path
     d="M 23.08763,36.430054 102.34874,23.796475"
     id="path48"
     inkscape:connector-curvature="0"
     style="fill:none;stroke:#ae6363;stroke-width:1.55021226" />
  <path
     d="m 42.129339,18.77331 c -0.177254,0.02766 -0.317253,0.107747 -0.420863,0.244909 -0.102779,0.137205 -0.144351,0.287126 -0.119915,0.449883 0.02514,0.162646 0.108751,0.293269 0.24738,0.388274 0.139387,0.09655 0.29787,0.132826 0.475123,0.105162 0.174764,-0.02605 0.313113,-0.108359 0.419838,-0.24168 0.105121,-0.134088 0.146567,-0.28288 0.122131,-0.445638 -0.02576,-0.166528 -0.108712,-0.29746 -0.249826,-0.394015 -0.141848,-0.09658 -0.299122,-0.133051 -0.473868,-0.106895 z m 12.435184,-1.906953 c -0.178061,0.02762 -0.318505,0.109492 -0.422117,0.246641 -0.103545,0.135651 -0.14332,0.283887 -0.118891,0.446655 0.02514,0.162635 0.107451,0.293492 0.246118,0.390007 0.140213,0.09657 0.297051,0.132813 0.47513,0.105161 0.17396,-0.02592 0.316095,-0.108904 0.422832,-0.242157 0.104235,-0.132554 0.143593,-0.283164 0.11913,-0.445159 -0.02511,-0.167382 -0.107642,-0.297637 -0.248565,-0.395749 -0.141847,-0.09658 -0.2997,-0.131562 -0.473637,-0.105399 z m -22.841203,3.743412 0.03326,0.218515 c 0.466667,-0.04224 0.776593,-0.0104 0.929697,0.09096 0.151459,0.101335 0.259838,0.364939 0.323914,0.791516 l 0.793935,5.202125 c 0.06773,0.4397 0.03988,0.722405 -0.08218,0.850112 -0.12051,0.130801 -0.402711,0.252672 -0.849063,0.366815 l 0.03173,0.218759 3.456805,-0.529528 c 0.927204,-0.143315 1.692561,-0.375431 2.29467,-0.693811 0.329175,-0.169595 0.63846,-0.395726 0.927397,-0.673635 0.455448,-0.440433 0.768322,-0.940982 0.941763,-1.506805 0.172523,-0.562767 0.217517,-1.136523 0.127904,-1.717406 -0.246266,-1.618406 -1.124554,-2.634155 -2.630293,-3.046844 -0.416998,-0.116024 -0.87023,-0.17987 -1.361535,-0.193822 -0.491295,-0.01394 -1.019753,0.02206 -1.584679,0.108483 z m 3.139542,-0.04818 c 0.28048,-0.0429 0.549177,-0.0669 0.806914,-0.07343 0.773222,-0.01948 1.444426,0.125419 2.014884,0.436141 0.884703,0.482168 1.41993,1.325562 1.604349,2.525123 0.204543,1.345319 -0.132828,2.369511 -1.01062,3.075298 -0.572788,0.458118 -1.344762,0.759466 -2.317105,0.90894 -0.311845,0.04895 -0.520936,0.05064 -0.629465,0.0038 -0.108569,-0.04538 -0.17765,-0.163577 -0.206793,-0.354885 l -0.908327,-5.948854 c -0.03019,-0.194339 0.001,-0.328875 0.09094,-0.40081 0.09072,-0.07267 0.275436,-0.128023 0.555238,-0.171282 z m 16.59862,-1.984967 c -0.369741,0.647128 -0.604924,1.049212 -0.706647,1.20259 -0.10336,0.153359 -0.278987,0.362496 -0.524827,0.621732 -0.08648,0.092 -0.1356,0.148993 -0.150305,0.172658 -0.01554,0.02364 -0.01982,0.05341 -0.01458,0.09124 0.0024,0.01925 0.01075,0.03295 0.02231,0.04397 0.01268,0.01012 0.0288,0.02068 0.05058,0.02873 l 0.662536,-0.104034 0.527288,3.46176 c 0.05757,0.385804 0.151855,0.67892 0.278478,0.881539 0.2308,0.37337 0.584742,0.524469 1.062285,0.451542 0.219123,-0.03479 0.438377,-0.125177 0.655746,-0.271617 0.218205,-0.147203 0.411947,-0.370374 0.581666,-0.669117 l 0.107384,-0.191877 -0.175263,-0.0993 c -0.117509,0.161644 -0.22461,0.283009 -0.322146,0.364078 -0.09754,0.08108 -0.218389,0.132751 -0.364486,0.156207 -0.283051,0.04331 -0.495037,-0.05819 -0.631483,-0.307122 -0.07424,-0.138793 -0.135173,-0.356609 -0.179633,-0.645883 l -0.48739,-3.288759 1.237327,-0.191098 -0.06247,-0.411616 -1.226856,0.189429 -0.215039,-1.406736 c -0.0073,-0.04938 -0.0167,-0.07524 -0.02681,-0.08157 -0.01196,-0.0061 -0.04424,-0.0052 -0.09759,0.0033 z m -8.333207,2.703338 c -0.03362,0.0057 -0.101574,0.04072 -0.209044,0.102304 -0.26335,0.154301 -0.731283,0.391131 -1.406318,0.717778 l -0.249237,0.119442 0.02683,0.178149 c 0.193948,-0.0844 0.312149,-0.133465 0.353476,-0.14832 0.04037,-0.01264 0.0858,-0.02287 0.130127,-0.02994 0.194486,-0.03049 0.334316,0.02802 0.418879,0.175447 0.05072,0.0892 0.09509,0.257785 0.132798,0.506182 l 0.415542,2.722274 c 0.06791,0.445785 0.05194,0.728646 -0.04607,0.845887 -0.09724,0.118798 -0.361442,0.230558 -0.788593,0.33265 l 0.02574,0.16146 2.951021,-0.45197 -0.02421,-0.161706 c -0.397647,0.02937 -0.660418,-8.88e-4 -0.789295,-0.09494 -0.127269,-0.09331 -0.225302,-0.357007 -0.29157,-0.790539 l -0.625977,-4.100616 c -0.0044,-0.03009 -0.0124,-0.05808 -0.02407,-0.08354 z m 4.286832,-0.669488 c -0.810689,0.123801 -1.435917,0.511491 -1.881586,1.159916 -0.442389,0.64769 -0.603961,1.366765 -0.484182,2.15591 0.122503,0.80304 0.460796,1.401321 1.018917,1.795221 0.557327,0.393892 1.151426,0.541469 1.784843,0.445213 0.642569,-0.09975 1.171131,-0.442082 1.582001,-1.029384 0.214769,-0.303532 0.402463,-0.704546 0.563499,-1.196635 l -0.185924,-0.07001 c -0.184881,0.358587 -0.35869,0.627977 -0.521643,0.805185 -0.288445,0.310247 -0.642347,0.498241 -1.063243,0.561917 -0.595698,0.09142 -1.104977,-0.06465 -1.524848,-0.468259 -0.420724,-0.402845 -0.673217,-0.892872 -0.761388,-1.46835 -0.09563,-0.629538 -0.01373,-1.158245 0.245436,-1.585909 0.260798,-0.428397 0.622831,-0.678338 1.083981,-0.749181 0.218283,-0.03213 0.400152,-0.02025 0.545783,0.03871 0.14218,0.06429 0.254687,0.193854 0.339228,0.387431 l 0.113637,0.26089 c 0.07648,0.169605 0.174125,0.290513 0.295585,0.363729 0.120509,0.07705 0.251877,0.10315 0.394658,0.0812 0.194486,-0.03049 0.329599,-0.106709 0.406558,-0.228833 0.07532,-0.122179 0.10425,-0.245765 0.08501,-0.370737 -0.04477,-0.290759 -0.268241,-0.531947 -0.672863,-0.720565 -0.302862,-0.14145 -0.632872,-0.208686 -0.993131,-0.200423 -0.120099,0.003 -0.243753,0.01351 -0.37033,0.03297 z m 8.148122,-1.23896 c -0.03362,0.0057 -0.103083,0.04095 -0.210544,0.102543 -0.262532,0.154313 -0.731047,0.392618 -1.406079,0.719274 l -0.249469,0.117946 0.0286,0.1794 c 0.193969,-0.0852 0.312148,-0.133466 0.353476,-0.14832 0.04128,-0.01279 0.0841,-0.02404 0.128396,-0.0312 0.194485,-0.0305 0.333469,0.02881 0.418872,0.175448 0.05072,0.08921 0.09356,0.258038 0.131343,0.506413 l 0.416996,2.722042 c 0.06715,0.445917 0.05115,0.728621 -0.04607,0.845888 -0.09804,0.118783 -0.359641,0.230286 -0.786855,0.333905 l 0.02421,0.161704 2.952267,-0.453707 -0.02549,-0.159967 c -0.397624,0.02936 -0.660557,-0.0011 -0.787794,-0.09518 -0.128898,-0.09333 -0.225535,-0.358511 -0.291809,-0.792033 l -0.625738,-4.099122 c -0.0044,-0.03081 -0.01262,-0.05949 -0.02431,-0.08504 z m 4.259969,-0.636079 c -0.804985,0.124777 -1.425911,0.487012 -1.857688,1.088656 -0.431784,0.601644 -0.591499,1.281408 -0.476403,2.041228 0.124384,0.80991 0.496744,1.442679 1.11799,1.89747 0.620512,0.453236 1.320271,0.620155 2.097306,0.501185 0.810688,-0.124743 1.427164,-0.50426 1.852094,-1.142952 0.424851,-0.636377 0.579205,-1.337072 0.464832,-2.094571 -0.126374,-0.822395 -0.489568,-1.439467 -1.092661,-1.853984 -0.45052,-0.310278 -0.959171,-0.470632 -1.523523,-0.4792 -0.188117,-0.0029 -0.381115,0.01141 -0.581946,0.04217 z m 5.104364,-0.801326 -0.542971,0.267437 c -0.589526,0.285446 -0.964366,0.462823 -1.122781,0.534617 l 0.02839,0.197828 c 0.05439,-0.01581 0.102642,-0.02954 0.139646,-0.03758 0.03712,-0.01039 0.07597,-0.01674 0.112895,-0.02262 0.238735,-0.03711 0.407709,0.009 0.506738,0.13998 0.06285,0.09244 0.112414,0.259127 0.148779,0.500569 l 0.443899,2.90018 c 0.05369,0.351612 0.03114,0.585356 -0.0702,0.7041 -0.0989,0.119546 -0.291662,0.218223 -0.573543,0.296839 l 0.02526,0.158471 2.653269,-0.40605 -0.02421,-0.161705 c -0.279527,0.03558 -0.491686,0.0162 -0.636004,-0.05653 -0.143469,-0.07351 -0.236132,-0.246004 -0.27779,-0.521395 l -0.488334,-3.198163 c 0.186229,-0.235396 0.341525,-0.405694 0.465331,-0.514138 0.222147,-0.18949 0.451765,-0.301977 0.688077,-0.338089 0.34796,-0.05365 0.601294,0.01638 0.763335,0.210988 0.162799,0.196165 0.267533,0.456946 0.317999,0.783261 l 0.371959,2.439486 c 0.05962,0.388808 0.03887,0.649631 -0.06055,0.783811 -0.100237,0.13415 -0.295531,0.244023 -0.585703,0.326371 l 0.02421,0.161705 2.595989,-0.399981 -0.02549,-0.159967 c -0.273852,0.03745 -0.478518,0.0058 -0.613562,-0.09842 C 69.057971,22.32093 68.967849,22.1311 68.926941,21.857259 l -0.40818,-2.666728 c -0.112133,-0.742899 -0.407353,-1.225867 -0.889967,-1.447856 -0.186296,-0.08427 -0.380139,-0.125084 -0.580769,-0.123582 l -0.0016,2.45e-4 c -0.06665,9.62e-4 -0.134735,0.0054 -0.202945,0.01549 -0.339744,0.05321 -0.651758,0.196036 -0.93838,0.431641 -0.191507,0.153724 -0.448069,0.421378 -0.771049,0.808145 l -0.127559,-0.839675 c -0.0053,-0.03468 -0.01372,-0.06146 -0.02159,-0.07781 -0.0092,-0.01861 -0.02782,-0.02732 -0.05736,-0.02305 z m 7.01632,-1.116775 c -0.675343,0.10317 -1.168023,0.328579 -1.473201,0.673252 -0.30598,0.344657 -0.438944,0.652654 -0.397761,0.918808 0.02108,0.137195 0.08846,0.254614 0.203332,0.352371 0.114872,0.09776 0.261862,0.130829 0.444033,0.102452 0.118101,-0.01788 0.215171,-0.05825 0.293308,-0.121865 0.137587,-0.105943 0.18888,-0.265789 0.156464,-0.480237 -0.0039,-0.02848 -0.02506,-0.09813 -0.06128,-0.201785 -0.03714,-0.10595 -0.06004,-0.180726 -0.06663,-0.22546 -0.02708,-0.179738 0.04397,-0.33645 0.215119,-0.468125 0.170988,-0.127052 0.35938,-0.205529 0.566156,-0.237407 0.434078,-0.06652 0.739187,0.01861 0.915372,0.251141 0.104366,0.139206 0.185118,0.40321 0.244031,0.790451 l 0.07591,0.486121 c -1.053906,0.563331 -1.750112,0.986715 -2.08747,1.272449 -0.531213,0.459438 -0.754194,0.967124 -0.670063,1.518686 0.05254,0.354233 0.226455,0.627047 0.518352,0.818777 0.288669,0.190923 0.607573,0.259533 0.955516,0.204885 0.333058,-0.04955 0.667102,-0.206086 1.002858,-0.469511 0.202163,-0.155128 0.437205,-0.380719 0.705681,-0.679687 0.04817,0.230819 0.144979,0.420096 0.295642,0.566073 0.147296,0.149773 0.360368,0.203281 0.636001,0.162302 0.234625,-0.03646 0.455578,-0.144159 0.661101,-0.324593 0.133883,-0.116772 0.254615,-0.260564 0.360939,-0.428513 l -0.04596,-0.297739 c -0.134217,0.126004 -0.228959,0.204665 -0.284946,0.241641 -0.05596,0.03544 -0.13108,0.06291 -0.223796,0.07706 -0.166594,0.02624 -0.287308,-0.03253 -0.363156,-0.172064 -0.04549,-0.07908 -0.08475,-0.228669 -0.119257,-0.450086 L 74.052039,18.40674 c -0.07679,-0.501439 -0.209035,-0.873977 -0.399782,-1.113614 -0.265015,-0.328596 -0.651215,-0.498599 -1.159413,-0.512709 -0.169414,-0.0046 -0.35254,0.0069 -0.549055,0.03693 z m 4.693149,-0.688265 c -0.19779,0.12362 -0.393676,0.236378 -0.585051,0.340064 -0.08822,0.04888 -0.244499,0.130953 -0.473903,0.248765 -0.231002,0.116994 -0.456576,0.23037 -0.675167,0.342163 l 0.03002,0.188371 c 0.0712,-0.02751 0.137573,-0.04935 0.203584,-0.06924 0.06519,-0.01994 0.117631,-0.03335 0.157818,-0.03895 0.198519,-0.0307 0.347341,0.02794 0.447222,0.180126 0.09923,0.148354 0.178643,0.4137 0.236315,0.790148 l 0.392166,2.575768 c 0.04701,0.304742 0.01625,0.511285 -0.09054,0.624562 -0.106756,0.110976 -0.345525,0.212628 -0.714191,0.299327 l 0.02857,0.188603 2.994608,-0.457388 -0.0288,-0.190098 c -0.374429,0.0651 -0.651446,0.04604 -0.833863,-0.05718 -0.180841,-0.101714 -0.298514,-0.316486 -0.348105,-0.645091 L 76.985803,17.87474 c -0.0347,-0.227511 0.03692,-0.467703 0.209645,-0.714063 0.174364,-0.245557 0.329717,-0.379876 0.4725,-0.401839 0.08862,-0.01343 0.22046,0.03434 0.396948,0.143682 0.175644,0.110113 0.341368,0.151302 0.495619,0.127956 0.149275,-0.02199 0.266793,-0.09623 0.350229,-0.216787 0.08265,-0.122079 0.111781,-0.260451 0.08707,-0.415522 -0.02658,-0.176603 -0.113225,-0.312612 -0.259917,-0.409269 -0.07464,-0.04872 -0.156523,-0.07991 -0.245222,-0.09582 l -0.0015,2.32e-4 c -0.0887,-0.01595 -0.183306,-0.01624 -0.286715,-2.87e-4 -0.259272,0.03866 -0.497054,0.175551 -0.709949,0.402895 -0.212043,0.226583 -0.423243,0.529373 -0.630893,0.908444 l -0.13995,-0.935813 c -0.01005,-0.0617 -0.01883,-0.101883 -0.02851,-0.12116 -0.009,-0.01705 -0.02932,-0.02337 -0.0581,-0.01834 z m 2.415845,-0.231766 0.02406,0.160198 c 0.206646,-0.0049 0.367433,0.0296 0.485588,0.103493 0.116526,0.07392 0.264654,0.242634 0.446434,0.502181 l 2.507919,3.596762 c 0.02161,0.03495 0.04012,0.07821 0.05959,0.123869 0.01873,0.04799 0.03205,0.08826 0.0365,0.12296 0.02598,0.165871 -0.04671,0.524007 -0.215723,1.079883 -0.169788,0.554331 -0.365567,0.848865 -0.590402,0.883594 -0.08783,0.01424 -0.239219,-1.18e-4 -0.455674,-0.04081 -0.217269,-0.04063 -0.37716,-0.05303 -0.481324,-0.03826 -0.18047,0.02783 -0.322684,0.100567 -0.423886,0.216264 -0.104511,0.116395 -0.145004,0.247623 -0.121804,0.399596 0.0362,0.232134 0.16089,0.386045 0.37602,0.464348 0.214494,0.07292 0.435464,0.09489 0.661114,0.06018 0.466851,-0.07088 0.821396,-0.315153 1.068662,-0.729877 0.248123,-0.416262 0.476016,-1.06095 0.680715,-1.932759 l 1.188179,-5.058162 c 0.03464,-0.169684 0.0895,-0.306264 0.158462,-0.410038 0.06892,-0.10148 0.184875,-0.177014 0.348016,-0.221033 l -0.02546,-0.160004 -1.670095,0.255471 0.02369,0.158715 0.192011,-0.0168 c 0.11452,-0.0077 0.211895,0.0034 0.291415,0.0394 0.08033,0.03568 0.125698,0.103233 0.141651,0.205837 0.0059,0.03932 0.0052,0.115427 -0.0052,0.227695 -0.0095,0.114567 -0.01925,0.185772 -0.02621,0.220328 l -0.717559,3.057713 -1.842429,-2.643538 c -0.06899,-0.104065 -0.116548,-0.181439 -0.146418,-0.235738 -0.02917,-0.05347 -0.04864,-0.107164 -0.05663,-0.162674 -0.02332,-0.148121 0.05619,-0.263069 0.233644,-0.342306 0.09216,-0.04496 0.238582,-0.08424 0.440639,-0.120821 L 81.614311,15.50277 Z M 59.7016,19.107438 c 0.07408,-0.01142 0.146627,-0.01756 0.217664,-0.01936 0.497417,-0.01152 0.921237,0.215801 1.272442,0.68325 0.40135,0.534999 0.652161,1.131324 0.752887,1.790102 0.09661,0.635649 0.05396,1.168286 -0.131772,1.596916 -0.184994,0.430958 -0.506747,0.680943 -0.96129,0.749555 -0.580973,0.08993 -1.077472,-0.134907 -1.494291,-0.670885 -0.415156,-0.536716 -0.67569,-1.143131 -0.779057,-1.819656 -0.129213,-0.850057 -0.01839,-1.47797 0.333933,-1.886681 0.204996,-0.235147 0.469504,-0.375147 0.789484,-0.423237 z m 13.399485,-0.165877 0.276631,1.812357 c 0.03299,0.216794 -0.06147,0.414127 -0.285689,0.592814 -0.223387,0.178706 -0.469582,0.288721 -0.737045,0.329031 -0.19362,0.02992 -0.376288,0.0038 -0.550486,-0.07782 -0.268913,-0.126764 -0.430554,-0.36466 -0.482776,-0.711007 -0.06535,-0.429712 0.166713,-0.858634 0.699282,-1.287263 0.275514,-0.221879 0.63746,-0.441535 1.080106,-0.658117 z M 50.76314,47.232236 43.666968,72.613672 c -1.064061,3.805233 -1.86485,6.155718 -2.404704,7.053325 -0.540482,0.897608 -1.462609,1.518132 -2.764634,1.861744 l 0.138146,0.896245 10.196518,-1.563925 -0.136851,-0.897978 c -1.218332,0.09134 -2.059274,0.07512 -2.523129,-0.04701 -0.751082,-0.204825 -1.187792,-0.713628 -1.312245,-1.529243 -0.06169,-0.406712 -0.01777,-0.981088 0.13562,-1.71711 0.153408,-0.736613 0.656821,-2.790338 1.509097,-6.16094 l 13.560392,-2.080168 2.77172,4.338073 c 0.402207,0.610747 0.731518,1.201525 0.990708,1.772122 0.258008,0.56821 0.405299,0.971398 0.440684,1.206738 0.108416,0.704811 -0.04201,1.180457 -0.449905,1.428403 -0.407851,0.246769 -1.354065,0.548644 -2.838987,0.904752 l 0.136851,0.897977 13.08426,-2.008872 -0.136613,-0.896482 c -1.230025,0.02783 -2.132941,-0.134441 -2.709669,-0.486365 -0.57672,-0.351925 -1.430535,-1.37088 -2.561287,-3.056311 L 51.786472,47.073724 Z m 0.20683,6.952866 7.928646,12.416638 -11.820032,1.813503 z m 32.028755,-1.481135 c -2.797023,0.430085 -4.82894,1.356425 -6.094545,2.783414 -1.264925,1.425806 -1.812275,2.691006 -1.644156,3.794073 0.08647,0.567085 0.365935,1.052533 0.838896,1.454464 0.472909,0.403126 1.085932,0.546769 1.839449,0.431912 0.486054,-0.07543 0.889494,-0.242507 1.209639,-0.499406 0.566181,-0.44187 0.784028,-1.10449 0.64924,-1.985994 -0.01843,-0.125254 -0.104393,-0.406752 -0.25686,-0.842061 -0.152429,-0.437101 -0.245436,-0.749467 -0.273611,-0.937502 -0.113358,-0.740736 0.18512,-1.381403 0.890464,-1.924801 0.707958,-0.527823 1.488566,-0.857864 2.344059,-0.989885 1.792477,-0.27489 3.052646,0.07194 3.783671,1.040279 0.429364,0.577648 0.769082,1.669506 1.014385,3.27681 l 0.306095,2.006951 c -4.359335,2.3288 -7.236182,4.083836 -8.633102,5.265242 -2.194624,1.900486 -3.119971,3.989807 -2.771259,6.273208 0.223757,1.465365 0.936212,2.591959 2.136611,3.383076 1.201037,0.791142 2.521198,1.076412 3.962682,0.855382 1.372706,-0.210555 2.75716,-0.858632 4.151267,-1.943257 0.827919,-0.641585 1.798043,-1.579984 2.911751,-2.814187 0.197008,0.952828 0.603313,1.735965 1.220809,2.350174 0.615587,0.614208 1.495014,0.832972 2.63452,0.659304 0.970117,-0.149919 1.879746,-0.592954 2.725816,-1.335873 0.560237,-0.488563 1.059024,-1.081698 1.502439,-1.778594 l -0.18643,-1.227337 c -0.555632,0.520287 -0.950663,0.85535 -1.184588,1.002831 -0.234585,0.148671 -0.543566,0.252587 -0.928322,0.311997 -0.688015,0.105818 -1.187586,-0.13089 -1.49773,-0.711727 -0.188621,-0.327017 -0.349349,-0.946674 -0.488075,-1.859903 l -1.446859,-9.471676 c -0.316769,-2.077966 -0.869122,-3.614006 -1.653823,-4.605168 -1.094328,-1.354755 -2.693038,-2.060741 -4.794214,-2.119396 -0.700393,-0.01956 -1.455913,0.03311 -2.268219,0.15765 z m 4.78727,8.789006 1.143082,7.488882 c 0.135921,0.89709 -0.257474,1.714319 -1.181924,2.452615 -0.924479,0.738292 -1.938672,1.191162 -3.043822,1.360497 -0.803911,0.123584 -1.566634,0.01475 -2.286947,-0.325324 -1.107926,-0.522156 -1.772289,-1.501021 -1.991454,-2.934049 -0.270872,-1.779172 0.692309,-3.554992 2.889979,-5.326349 1.146206,-0.917616 2.636429,-1.822177 4.471086,-2.716272 z"
     id="path50"
     inkscape:connector-curvature="0"
     style="fill:#ffffff;stroke-width:0.7402705" />
</svg>
