<?xml version="1.0" encoding="UTF-8" standalone="no"?>
<svg
   xmlns:dc="http://purl.org/dc/elements/1.1/"
   xmlns:cc="http://creativecommons.org/ns#"
   xmlns:rdf="http://www.w3.org/1999/02/22-rdf-syntax-ns#"
   xmlns:svg="http://www.w3.org/2000/svg"
   xmlns="http://www.w3.org/2000/svg"
   xmlns:xlink="http://www.w3.org/1999/xlink"
   xmlns:sodipodi="http://sodipodi.sourceforge.net/DTD/sodipodi-0.dtd"
   xmlns:inkscape="http://www.inkscape.org/namespaces/inkscape"
   height="128"
   viewBox="0 0 128 128"
   width="128"
   version="1.1"
   id="svg18"
   sodipodi:docname="abrt.svg"
   inkscape:version="0.92.4 5da689c313, 2019-01-14">
  <metadata
     id="metadata24">
    <rdf:RDF>
      <cc:Work
         rdf:about="">
        <dc:format>image/svg+xml</dc:format>
        <dc:type
           rdf:resource="http://purl.org/dc/dcmitype/StillImage" />
        <dc:title />
      </cc:Work>
    </rdf:RDF>
  </metadata>
  <defs
     id="defs22">
    <linearGradient
       inkscape:collect="always"
       id="linearGradient876">
      <stop
         style="stop-color:#d031e1;stop-opacity:1"
         offset="0"
         id="stop872" />
      <stop
         style="stop-color:#e78df9;stop-opacity:1"
         offset="1"
         id="stop874" />
    </linearGradient>
    <linearGradient
       inkscape:collect="always"
       xlink:href="#linearGradient876"
       id="linearGradient826"
       x1="66.530045"
       y1="122.26002"
       x2="64.333595"
       y2="5.9833865"
       gradientUnits="userSpaceOnUse" />
    <linearGradient
       id="linearGradient3361"
       inkscape:collect="always">
      <stop
         id="stop3363"
         offset="0"
         style="stop-color:#0068e0;stop-opacity:1;" />
      <stop
         id="stop3365"
         offset="1"
         style="stop-color:#00acf4;stop-opacity:1" />
    </linearGradient>
    <linearGradient
       xlink:href="#linearGradient3361"
       x1="71.204002"
       y1="15.369"
       gradientTransform="matrix(1.5867756,0,0,1.5867757,-167.94929,-1.243281)"
       x2="71.204002"
       gradientUnits="userSpaceOnUse"
       y2="40.495998"
       id="linearGradient3026">
      <stop
         offset="0"
         stop-color="#fff"
         id="stop4808-4" />
      <stop
         offset=".42448"
         stop-opacity=".23529"
         stop-color="#fff"
         id="stop4810-0" />
      <stop
         offset=".82090"
         stop-opacity=".15686"
         stop-color="#fff"
         id="stop4812-8" />
      <stop
         offset="1"
         stop-opacity=".39216"
         stop-color="#fff"
         id="stop4814-0" />
    </linearGradient>
    <radialGradient
       r="20"
       gradientTransform="matrix(-3.4973e-8 1.8855 -1.7764 -5.4723e-8 39.14 -7.9932)"
       cx="15.026"
       cy="8.6258"
       gradientUnits="userSpaceOnUse"
       fy="8.5089"
       fx="4.459"
       id="radialGradient3029">
      <stop
         offset="0"
         stop-color="#c24251"
         id="stop4170" />
      <stop
         offset=".26238"
         stop-color="#c24251"
         id="stop4172" />
      <stop
         offset=".66094"
         stop-color="#a63643"
         id="stop4174" />
      <stop
         offset="1"
         stop-color="#a63643"
         id="stop4176" />
    </radialGradient>
    <radialGradient
       r="20.397"
       gradientTransform="matrix(0,2.8345094,-3.7415326,0,-38.495085,-45.294216)"
       cx="23.896"
       cy="3.99"
       gradientUnits="userSpaceOnUse"
       id="radialGradient3032">
      <stop
         offset="0"
         stop-color="#fff"
         id="stop3244-9-33-7-0-9" />
      <stop
         offset=".26238"
         stop-color="#ddd"
         id="stop3246-3-5-0-8-5" />
      <stop
         offset=".66094"
         stop-color="#abacae"
         id="stop3248-1-7-8-8-1" />
      <stop
         offset="1"
         stop-color="#89898b"
         id="stop3250-9-3-0-5-1" />
    </radialGradient>
    <radialGradient
       r="62.769"
       gradientTransform="matrix(0.27083,0,0,0.087623,-80.278829,45.161997)"
       cx="99.157"
       cy="186.17"
       gradientUnits="userSpaceOnUse"
       id="radialGradient3035">
      <stop
         offset="0"
         stop-color="#3d3d3d"
         id="stop3822-2-6-3" />
      <stop
         offset=".5"
         stop-opacity=".49804"
         stop-color="#686868"
         id="stop3864-8-7-7" />
      <stop
         offset="1"
         stop-opacity="0"
         stop-color="#686868"
         id="stop3824-1-2-5" />
    </radialGradient>
    <linearGradient
       x1="22.759"
       y1="13.035"
       gradientTransform="matrix(1 0 0 1.0521 0 -.90547)"
       x2="23.078"
       gradientUnits="userSpaceOnUse"
       y2="25.611"
       id="linearGradient4433">
      <stop
         offset="0"
         stop-color="#fff"
         id="stop6305-1-0-2" />
      <stop
         offset="1"
         stop-opacity="0"
         stop-color="#fff"
         id="stop6307-5-0-6" />
    </linearGradient>
    <linearGradient
       id="linearGradient4829">
      <stop
         id="stop4831"
         offset="0"
         style="stop-color:#f4fbfc;stop-opacity:1;" />
      <stop
         id="stop4833"
         offset="1"
         style="stop-color:#d6d6d6;stop-opacity:1;" />
    </linearGradient>
    <linearGradient
       x1="32.817001"
       y1="19.819"
       gradientTransform="translate(-0.1809,-0.94729)"
       x2="32.817001"
       gradientUnits="userSpaceOnUse"
       y2="30.184999"
       id="linearGradient3857">
      <stop
         offset="0"
         stop-color="#fff"
         id="stop2240" />
      <stop
         offset="1"
         stop-opacity="0"
         stop-color="#fff"
         id="stop2242" />
    </linearGradient>
    <linearGradient
       x1="135"
       y1="120"
       gradientTransform="matrix(0.43333,0,0,0.43333,-83.755,-6.7415)"
       x2="160"
       gradientUnits="userSpaceOnUse"
       y2="160"
       id="linearGradient4322">
      <stop
         offset="0"
         stop-color="#effffc"
         id="stop3879-8-6" />
      <stop
         offset="1"
         stop-color="#fff"
         id="stop3881-8-6" />
    </linearGradient>
  </defs>
  <sodipodi:namedview
     pagecolor="#ffffff"
     bordercolor="#666666"
     borderopacity="1"
     objecttolerance="10"
     gridtolerance="10"
     guidetolerance="10"
     inkscape:pageopacity="0"
     inkscape:pageshadow="2"
     inkscape:window-width="1920"
     inkscape:window-height="1031"
     id="namedview20"
     showgrid="false"
     inkscape:zoom="2.6074563"
     inkscape:cx="-24.085226"
     inkscape:cy="83.015034"
     inkscape:window-x="0"
     inkscape:window-y="26"
     inkscape:window-maximized="1"
     inkscape:current-layer="svg18" />
  <linearGradient
     id="a"
     gradientUnits="userSpaceOnUse"
     x1="215.86441"
     x2="213.69492"
     y1="145.8983"
     y2="144.27118">
    <stop
       offset="0"
       stop-color="#a87cff"
       id="stop2" />
    <stop
       offset="1"
       stop-color="#7838c8"
       id="stop4" />
  </linearGradient>
  <linearGradient
     id="b"
     gradientUnits="userSpaceOnUse"
     x1="66.01551341119"
     x2="64.33359152003"
     y1="119.34706540717"
     y2="1.33853303141">
    <stop
       offset="0"
       stop-color="#cccdd1"
       id="stop7"
       style="stop-color:#dcdde0;stop-opacity:1" />
    <stop
       offset="1"
       stop-color="#f7f9f9"
       id="stop9" />
  </linearGradient>
  <path
     style="fill:url(#linearGradient826);stroke:#cccdd1;stroke-width:4.64485502;fill-opacity:1.0"
     d="M 124.89873,64.22612 A 60.565502,60.565502 0 0 1 64.333229,124.79162 60.565502,60.565502 0 0 1 3.7677269,64.22612 60.565502,60.565502 0 0 1 64.333229,3.6606178 60.565502,60.565502 0 0 1 124.89873,64.22612 Z"
     id="circle12" />
  <path
     d="m64.333592 1.3385313c-34.704539 0-62.8882778 28.1824517-62.8882778 62.8869837 0 34.704538 28.1837388 62.888275 62.8882778 62.888275 34.704538 0 62.886978-28.183737 62.886978-62.888275 0-34.704532-28.18244-62.8869837-62.886978-62.8869837zm0 4.644855c32.194272 0 58.242128 26.0478627 58.242128 58.2421287 0 32.194272-26.047856 58.243425-58.242128 58.243425-32.194267 0-58.2434228-26.049153-58.2434228-58.243425 0-32.194266 26.0491558-58.2421287 58.2434228-58.2421287z"
     fill="url(#b)"
     id="path14" />
  <g
     id="g4317"
     transform="matrix(1.0002,0,0,1.0004,-78.425529,18.969526)"
     style="fill:none;stroke:#000000;stroke-linecap:round;stroke-linejoin:round" />
  <path
     inkscape:connector-curvature="0"
     id="path878"
     d="m 64.655362,34.008792 c -16.685866,-1.2e-4 -30.21259,13.198326 -30.212919,29.479686 0.0011,7.694714 3.085513,15.084035 8.594395,20.589887 0.01583,3.033944 -0.0886,7.681834 -3.285045,11.271494 8.507847,0.694888 13.184243,-2.08189 16.33423,-3.60815 2.781191,0.80872 5.667286,1.22223 8.569339,1.22778 16.68588,-6e-4 30.21202,-13.199638 30.2116,-29.481011 -3.3e-4,-16.280857 -13.52625,-29.479096 -30.2116,-29.479686 z m 0,10.217796 c 1.978108,0 3.569899,1.797117 3.569899,4.028829 v 16.112678 c 0,2.231711 -1.59179,4.028829 -3.569899,4.028829 -1.978108,0 -3.571217,-1.797118 -3.571217,-4.028829 V 48.255417 c 0,-2.231712 1.593109,-4.028829 3.571217,-4.028829 z m 0,28.747771 a 4.852342,4.852342 0 0 1 4.851739,4.851738 4.852342,4.852342 0 0 1 -4.851739,4.853058 4.852342,4.852342 0 0 1 -4.853057,-4.853058 4.852342,4.852342 0 0 1 4.853057,-4.851738 z"
     style="opacity:1;fill:none;fill-opacity:1;stroke:#19191b;stroke-width:1;stroke-linecap:round;stroke-linejoin:round;stroke-miterlimit:4;stroke-dasharray:none;stroke-dashoffset:0;stroke-opacity:0.10984848;paint-order:fill markers stroke" />
  <path
     style="opacity:1;fill:none;fill-opacity:1;stroke:#19191b;stroke-width:2;stroke-linecap:round;stroke-linejoin:round;stroke-miterlimit:4;stroke-dasharray:none;stroke-dashoffset:0;stroke-opacity:0.06439394;paint-order:fill markers stroke"
     d="m 64.655362,34.008792 c -16.685866,-1.2e-4 -30.21259,13.198326 -30.212919,29.479686 0.0011,7.694714 3.085513,15.084035 8.594395,20.589887 0.01583,3.033944 -0.0886,7.681834 -3.285045,11.271494 8.507847,0.694888 13.184243,-2.08189 16.33423,-3.60815 2.781191,0.80872 5.667286,1.22223 8.569339,1.22778 16.68588,-6e-4 30.21202,-13.199638 30.2116,-29.481011 -3.3e-4,-16.280857 -13.52625,-29.479096 -30.2116,-29.479686 z m 0,10.217796 c 1.978108,0 3.569899,1.797117 3.569899,4.028829 v 16.112678 c 0,2.231711 -1.59179,4.028829 -3.569899,4.028829 -1.978108,0 -3.571217,-1.797118 -3.571217,-4.028829 V 48.255417 c 0,-2.231712 1.593109,-4.028829 3.571217,-4.028829 z m 0,28.747771 a 4.852342,4.852342 0 0 1 4.851739,4.851738 4.852342,4.852342 0 0 1 -4.851739,4.853058 4.852342,4.852342 0 0 1 -4.853057,-4.853058 4.852342,4.852342 0 0 1 4.853057,-4.851738 z"
     id="path880"
     inkscape:connector-curvature="0" />
  <path
     inkscape:connector-curvature="0"
     id="path882"
     d="m 64.655362,34.008792 c -16.685866,-1.2e-4 -30.21259,13.198326 -30.212919,29.479686 0.0011,7.694714 3.085513,15.084035 8.594395,20.589887 0.01583,3.033944 -0.0886,7.681834 -3.285045,11.271494 8.507847,0.694888 13.184243,-2.08189 16.33423,-3.60815 2.781191,0.80872 5.667286,1.22223 8.569339,1.22778 16.68588,-6e-4 30.21202,-13.199638 30.2116,-29.481011 -3.3e-4,-16.280857 -13.52625,-29.479096 -30.2116,-29.479686 z m 0,10.217796 c 1.978108,0 3.569899,1.797117 3.569899,4.028829 v 16.112678 c 0,2.231711 -1.59179,4.028829 -3.569899,4.028829 -1.978108,0 -3.571217,-1.797118 -3.571217,-4.028829 V 48.255417 c 0,-2.231712 1.593109,-4.028829 3.571217,-4.028829 z m 0,28.747771 a 4.852342,4.852342 0 0 1 4.851739,4.851738 4.852342,4.852342 0 0 1 -4.851739,4.853058 4.852342,4.852342 0 0 1 -4.853057,-4.853058 4.852342,4.852342 0 0 1 4.853057,-4.851738 z"
     style="opacity:1;fill:none;fill-opacity:1;stroke:#19191b;stroke-width:3;stroke-linecap:round;stroke-linejoin:round;stroke-miterlimit:4;stroke-dasharray:none;stroke-dashoffset:0;stroke-opacity:0.09090909;paint-order:fill markers stroke" />
  <path
     style="opacity:1;fill:#ffffff;fill-opacity:1;stroke:none;stroke-width:5.86952448;stroke-linecap:round;stroke-linejoin:round;stroke-miterlimit:4;stroke-dasharray:none;stroke-dashoffset:0;stroke-opacity:1;paint-order:fill markers stroke"
     d="m 64.655362,34.008792 c -16.685866,-1.2e-4 -30.21259,13.198326 -30.212919,29.479686 0.0011,7.694714 3.085513,15.084035 8.594395,20.589887 0.01583,3.033944 -0.0886,7.681834 -3.285045,11.271494 8.507847,0.694888 13.184243,-2.08189 16.33423,-3.60815 2.781191,0.80872 5.667286,1.22223 8.569339,1.22778 16.68588,-6e-4 30.21202,-13.199638 30.2116,-29.481011 -3.3e-4,-16.280857 -13.52625,-29.479096 -30.2116,-29.479686 z m 0,10.217796 c 1.978108,0 3.569899,1.797117 3.569899,4.028829 v 16.112678 c 0,2.231711 -1.59179,4.028829 -3.569899,4.028829 -1.978108,0 -3.571217,-1.797118 -3.571217,-4.028829 V 48.255417 c 0,-2.231712 1.593109,-4.028829 3.571217,-4.028829 z m 0,28.747771 a 4.852342,4.852342 0 0 1 4.851739,4.851738 4.852342,4.852342 0 0 1 -4.851739,4.853058 4.852342,4.852342 0 0 1 -4.853057,-4.853058 4.852342,4.852342 0 0 1 4.853057,-4.851738 z"
     id="path869"
     inkscape:connector-curvature="0" />
</svg>
