<svg height="128" viewBox="0 0 128 128" width="128" xmlns="http://www.w3.org/2000/svg" xmlns:xlink="http://www.w3.org/1999/xlink"><linearGradient id="a" gradientUnits="userSpaceOnUse" x1="66.01551341119" x2="64.33359152003" y1="119.34706540717" y2="1.33853303141"><stop offset="0" stop-color="#cccdd1"/><stop offset="1" stop-color="#f7f9f9"/></linearGradient><linearGradient id="b" gradientUnits="userSpaceOnUse" spreadMethod="reflect" x1="63.86929358831" x2="63.70264686264" y1="22.08397621027" y2="114.03049919903"><stop offset="0" stop-color="#74e899"/><stop offset="1" stop-color="#37b9ea"/></linearGradient><circle cx="64.333229" cy="64.22612" fill="url(#b)" r="60.565502" stroke="#cccdd1" stroke-width="4.644855"/><path d="m64.333592 1.3385313c-34.704539 0-62.8882778 28.1824517-62.8882778 62.8869837 0 34.704538 28.1837388 62.888275 62.8882778 62.888275 34.704538 0 62.886978-28.183737 62.886978-62.888275 0-34.704532-28.18244-62.8869837-62.886978-62.8869837zm0 4.644855c32.194272 0 58.242128 26.0478627 58.242128 58.2421287 0 32.194272-26.047856 58.243425-58.242128 58.243425-32.194267 0-58.2434228-26.049153-58.2434228-58.243425 0-32.194266 26.0491558-58.2421287 58.2434228-58.2421287z" fill="url(#a)"/><path d="m60.924057 31.270829c-1.259119 0-2.179754 1.017101-2.272778 2.272779l-.390634 5.295751a26.136955 26.136955 0 0 0 -12.877601 7.430921l-4.780825-2.308291c-1.090428-.62956-2.473319-.255894-3.102876.834537l-3.409168 5.903897c-.629561 1.090433-.210845 2.398915.830099 3.107316l4.372435 2.974142a26.136955 26.136955 0 0 0 -1.096439 7.444239 26.136955 26.136955 0 0 0 1.100877 7.439801l-4.376873 2.978581c-1.090432.62956-1.45966 2.016887-.830099 3.107315l3.409168 5.903897c.62956 1.090432 1.968915 1.381816 3.102876.834538l4.767508-2.299413a26.136955 26.136955 0 0 0 12.890918 7.426481l.390634 5.291309c0 1.259122 1.013659 2.272781 2.272778 2.272781h6.818337c1.259119 0 2.179754-1.017102 2.272777-2.272781l.390635-5.295748a26.136955 26.136955 0 0 0 12.8776-7.43092l4.780826 2.308291c1.090428.62956 2.473318.255894 3.102876-.834538l3.409174-5.903897c.629563-1.090431.210841-2.398916-.830104-3.107315l-4.372436-2.974143a26.136955 26.136955 0 0 0 1.096439-7.444239 26.136955 26.136955 0 0 0 -1.100877-7.4398l4.376874-2.978581c1.090435-.62956 1.459667-2.016886.830104-3.107316l-3.409174-5.903897c-.62956-1.090431-1.968916-1.381816-3.102876-.834537l-4.767509 2.299413a26.136955 26.136955 0 0 0 -12.890917-7.426482l-.390635-5.291312c0-1.259119-1.013658-2.272779-2.272777-2.272779zm-12.859843 21.911008h4.323607v8.980138h1.393851l4.310289-8.980138h5.291313l-6.019311 10.089893 6.520922 11.998674h-5.246922l-4.367997-9.179896h-1.882145v9.179896h-4.323607zm15.700816 0h4.536681l3.653314 16.446571.168685.847854h.08877l.168684-.803464 3.684387-16.490961h4.536679l-6.174678 22.088567h-4.48785z" fill="#fff"/></svg>