<svg height="128" viewBox="0 0 128 128" width="128" xmlns="http://www.w3.org/2000/svg" xmlns:xlink="http://www.w3.org/1999/xlink"><linearGradient id="a" gradientUnits="userSpaceOnUse" x1="64.42871085545" x2="63.70264686264" y1="9.49702762746" y2="114.03049919903"><stop offset="0" stop-color="#cde2e9"/><stop offset="1" stop-color="#797979"/></linearGradient><linearGradient id="b" gradientUnits="userSpaceOnUse" x1="66.01551341119" x2="64.33359152003" y1="119.34706540717" y2="1.33853303141"><stop offset="0" stop-color="#cccdd1"/><stop offset="1" stop-color="#f7f9f9"/></linearGradient><circle cx="64.333229" cy="64.22612" fill="url(#a)" r="60.565502" stroke="#cccdd1" stroke-width="4.644855"/><path d="m64.333592 1.3385313c-34.704539 0-62.8882778 28.1824517-62.8882778 62.8869837 0 34.704538 28.1837388 62.888275 62.8882778 62.888275 34.704538 0 62.886978-28.183737 62.886978-62.888275 0-34.704532-28.18244-62.8869837-62.886978-62.8869837zm0 4.644855c32.194272 0 58.242128 26.0478627 58.242128 58.2421287 0 32.194272-26.047856 58.243425-58.242128 58.243425-32.194267 0-58.2434228-26.049153-58.2434228-58.243425 0-32.194266 26.0491558-58.2421287 58.2434228-58.2421287z" fill="url(#b)"/><path d="m99.089653 26.738525c-24.284556 1.370593-38.021472 12.862649-49.237651 27.610618-10.986594-.769463-22.221573 3.921185-31.061944 14.49603 8.409478-1.770406 16.132518-1.756653 23.008469.460101l-1.150817 8.397703c3.091738 2.71814 6.181585 5.446883 8.973676 9.663256l8.743059-3.335448c1.241696 8.516845.249608 16.474795-.920202 24.388765 6.797702-8.715716 13.869993-15.241271 14.96749-31.617468 18.048635-14.598552 26.697805-33.58962 26.67792-50.063557zm-23.237954 16.567053a7.822944 7.822944 0 0 1 7.822857 7.822857 7.822944 7.822944 0 0 1 -7.822857 7.822857 7.822944 7.822944 0 0 1 -7.822858-7.822857 7.822944 7.822944 0 0 1 7.822858-7.822857zm-37.504497 39.114285c-13.768272 3.685675-4.331432 10.567785-12.19439 17.486111 7.723848-1.86308 18.022443-2.30135 18.176839-10.583455 0 0-6.748465 3.090536-8.513578.920194-1.765108-2.170324 2.531129-7.82285 2.531129-7.82285z" fill="#333"/></svg>