<?xml version="1.0" encoding="UTF-8" standalone="no"?>
<!-- Created with Inkscape (http://www.inkscape.org/) -->

<svg
   xmlns:osb="http://www.openswatchbook.org/uri/2009/osb"
   xmlns:dc="http://purl.org/dc/elements/1.1/"
   xmlns:cc="http://creativecommons.org/ns#"
   xmlns:rdf="http://www.w3.org/1999/02/22-rdf-syntax-ns#"
   xmlns:svg="http://www.w3.org/2000/svg"
   xmlns="http://www.w3.org/2000/svg"
   xmlns:xlink="http://www.w3.org/1999/xlink"
   xmlns:sodipodi="http://sodipodi.sourceforge.net/DTD/sodipodi-0.dtd"
   xmlns:inkscape="http://www.inkscape.org/namespaces/inkscape"
   width="128"
   height="128"
   viewBox="0 0 33.866666 33.866668"
   version="1.1"
   id="svg956"
   inkscape:version="0.92.4 5da689c313, 2019-01-14"
   sodipodi:docname="multis.svg">
  <defs
     id="defs950">
    <linearGradient
       id="linearGradient851"
       inkscape:collect="always">
      <stop
         id="stop847"
         offset="0"
         style="stop-color:#4b99f3;stop-opacity:1" />
      <stop
         id="stop849"
         offset="1"
         style="stop-color:#460fe7;stop-opacity:1" />
    </linearGradient>
    <linearGradient
       inkscape:collect="always"
       id="linearGradient1606-5">
      <stop
         style="stop-color:#f3f9f9;stop-opacity:1"
         offset="0"
         id="stop1602" />
      <stop
         style="stop-color:#d5dada;stop-opacity:1"
         offset="1"
         id="stop1604" />
    </linearGradient>
    <linearGradient
       gradientTransform="matrix(0.26458333,0,0,0.26458333,-0.75004731,260.85009)"
       inkscape:collect="always"
       xlink:href="#linearGradient944"
       id="linearGradient948"
       gradientUnits="userSpaceOnUse"
       x1="122.34071"
       y1="117.04197"
       x2="84.091423"
       y2="71.020111" />
    <linearGradient
       inkscape:collect="always"
       id="linearGradient944">
      <stop
         style="stop-color:#d5dada;stop-opacity:1"
         offset="0"
         id="stop940" />
      <stop
         style="stop-color:#f1f1f1;stop-opacity:1"
         offset="1"
         id="stop942" />
    </linearGradient>
    <filter
       style="color-interpolation-filters:sRGB"
       id="c"
       height="1.1655999"
       width="1.1655999"
       x="-0.082800001"
       y="-0.082800001">
      <feGaussianBlur
         stdDeviation="2.1101835"
         id="feGaussianBlur10" />
    </filter>
    <linearGradient
       gradientTransform="matrix(0.25320785,0,0,0.25320785,-0.0941833,263.43808)"
       inkscape:collect="always"
       xlink:href="#linearGradient851"
       id="linearGradient872"
       x1="36.951637"
       y1="28.276243"
       x2="67.632683"
       y2="108.04747"
       gradientUnits="userSpaceOnUse" />
    <filter
       style="color-interpolation-filters:sRGB"
       id="a"
       height="1.031026"
       width="1.031376"
       x="-0.015688"
       y="-0.015513">
      <feGaussianBlur
         stdDeviation=".7986332"
         id="feGaussianBlur2" />
    </filter>
    <linearGradient
       inkscape:collect="always"
       xlink:href="#linearGradient1606-5"
       id="linearGradient1615"
       gradientUnits="userSpaceOnUse"
       x1="25.613005"
       y1="280.71393"
       x2="26.995354"
       y2="294.53741"
       gradientTransform="matrix(0.95700606,0,0,0.95700606,0.62361651,13.80297)" />
    <linearGradient
       inkscape:collect="always"
       id="linearGradient3361">
      <stop
         style="stop-color:#0068e0;stop-opacity:1;"
         offset="0"
         id="stop3363" />
      <stop
         style="stop-color:#00acf4;stop-opacity:1"
         offset="1"
         id="stop3365" />
    </linearGradient>
    <linearGradient
       id="linearGradient3026"
       y2="40.495998"
       gradientUnits="userSpaceOnUse"
       x2="71.204002"
       gradientTransform="matrix(1.5564685,0,0,1.58743,-88.730662,-20.236087)"
       y1="15.369"
       x1="71.204002"
       xlink:href="#linearGradient3361">
      <stop
         id="stop4808-4"
         stop-color="#fff"
         offset="0" />
      <stop
         id="stop4810-0"
         stop-color="#fff"
         stop-opacity=".23529"
         offset=".42448" />
      <stop
         id="stop4812-8"
         stop-color="#fff"
         stop-opacity=".15686"
         offset=".82090" />
      <stop
         id="stop4814-0"
         stop-color="#fff"
         stop-opacity=".39216"
         offset="1" />
    </linearGradient>
    <radialGradient
       id="radialGradient3029"
       fx="4.4590001"
       fy="8.5088997"
       gradientUnits="userSpaceOnUse"
       cy="8.6258001"
       cx="15.026"
       gradientTransform="matrix(-3.4973e-8,1.8855,-1.7764,-5.4723e-8,39.14,-7.9932)"
       r="20">
      <stop
         id="stop4170"
         stop-color="#c24251"
         offset="0" />
      <stop
         id="stop4172"
         stop-color="#c24251"
         offset=".26238" />
      <stop
         id="stop4174"
         stop-color="#a63643"
         offset=".66094" />
      <stop
         id="stop4176"
         stop-color="#a63643"
         offset="1" />
    </radialGradient>
    <radialGradient
       id="radialGradient3032"
       gradientUnits="userSpaceOnUse"
       cy="3.99"
       cx="23.896"
       gradientTransform="matrix(0,2.835678,-3.67007,0,38.250987,-64.305184)"
       r="20.396999">
      <stop
         id="stop3244-9-33-7-0-9"
         stop-color="#fff"
         offset="0" />
      <stop
         id="stop3246-3-5-0-8-5"
         stop-color="#ddd"
         offset=".26238" />
      <stop
         id="stop3248-1-7-8-8-1"
         stop-color="#abacae"
         offset=".66094" />
      <stop
         id="stop3250-9-3-0-5-1"
         stop-color="#89898b"
         offset="1" />
    </radialGradient>
    <radialGradient
       id="radialGradient3035"
       gradientUnits="userSpaceOnUse"
       cy="186.17"
       cx="99.156998"
       gradientTransform="matrix(0.27083,0,0,0.087623,-2.8550999,26.187422)"
       r="62.769001">
      <stop
         id="stop3822-2-6-3"
         stop-color="#3d3d3d"
         offset="0" />
      <stop
         id="stop3864-8-7-7"
         stop-color="#686868"
         stop-opacity=".49804"
         offset=".5" />
      <stop
         id="stop3824-1-2-5"
         stop-color="#686868"
         stop-opacity="0"
         offset="1" />
    </radialGradient>
    <linearGradient
       id="linearGradient4433"
       y2="25.611"
       gradientUnits="userSpaceOnUse"
       x2="23.077999"
       gradientTransform="matrix(1,0,0,1.0521,0,-0.90547)"
       y1="13.035"
       x1="22.759001">
      <stop
         id="stop6305-1-0-2"
         stop-color="#fff"
         offset="0" />
      <stop
         id="stop6307-5-0-6"
         stop-color="#fff"
         stop-opacity="0"
         offset="1" />
    </linearGradient>
    <linearGradient
       id="linearGradient4829">
      <stop
         style="stop-color:#f4fbfc;stop-opacity:1;"
         offset="0"
         id="stop4831" />
      <stop
         style="stop-color:#d6d6d6;stop-opacity:1;"
         offset="1"
         id="stop4833" />
    </linearGradient>
    <radialGradient
       id="SVGID_4_"
       cx="224.50391"
       cy="186.51421"
       r="127.0051"
       gradientUnits="userSpaceOnUse">
      <stop
         offset="0"
         style="stop-color:#FFFFFF"
         id="stop27" />
      <stop
         offset="0.3984"
         style="stop-color:#FDFEFF"
         id="stop29" />
      <stop
         offset="0.6131"
         style="stop-color:#F5FAFF"
         id="stop31" />
      <stop
         offset="0.7841"
         style="stop-color:#E7F3FF"
         id="stop33" />
      <stop
         offset="0.9311"
         style="stop-color:#D4EAFF"
         id="stop35" />
      <stop
         offset="1"
         style="stop-color:#C8E4FF"
         id="stop37" />
    </radialGradient>
    <radialGradient
       gradientUnits="userSpaceOnUse"
       r="26.769501"
       cy="286.66409"
       cx="324.69339"
       id="SVGID_5_">
      <stop
         id="stop50"
         style="stop-color:#FFFFFF"
         offset="0" />
      <stop
         id="stop52"
         style="stop-color:#FDFEFF"
         offset="0.3984" />
      <stop
         id="stop54"
         style="stop-color:#F5FAFF"
         offset="0.6131" />
      <stop
         id="stop56"
         style="stop-color:#E7F3FF"
         offset="0.7841" />
      <stop
         id="stop58"
         style="stop-color:#D4EAFF"
         offset="0.9311" />
      <stop
         id="stop60"
         style="stop-color:#C8E4FF"
         offset="1" />
    </radialGradient>
    <radialGradient
       gradientUnits="userSpaceOnUse"
       r="46.444901"
       cy="392.77249"
       cx="325"
       id="SVGID_6_">
      <stop
         id="stop73"
         style="stop-color:#FFFFFF"
         offset="0" />
      <stop
         id="stop75"
         style="stop-color:#FDFEFF"
         offset="0.3984" />
      <stop
         id="stop77"
         style="stop-color:#F5FAFF"
         offset="0.6131" />
      <stop
         id="stop79"
         style="stop-color:#E7F3FF"
         offset="0.7841" />
      <stop
         id="stop81"
         style="stop-color:#D4EAFF"
         offset="0.9311" />
      <stop
         id="stop83"
         style="stop-color:#C8E4FF"
         offset="1" />
    </radialGradient>
    <clipPath
       id="clipPath-349538100">
      <g
         id="g17"
         transform="translate(0,-1004.4)">
        <path
           style="fill:#1890d0"
           inkscape:connector-curvature="0"
           id="path19"
           d="m -24,13 c 0,1.105 -0.672,2 -1.5,2 -0.828,0 -1.5,-0.895 -1.5,-2 0,-1.105 0.672,-2 1.5,-2 0.828,0 1.5,0.895 1.5,2 z"
           transform="matrix(15.333,0,0,11.5,415,878.86)" />
      </g>
    </clipPath>
    <clipPath
       id="clipPath3914">
      <g
         id="g3912"
         transform="translate(0,-1004.4)">
        <path
           style="fill:#1890d0"
           inkscape:connector-curvature="0"
           id="path3910"
           d="m -24,13 c 0,1.105 -0.672,2 -1.5,2 -0.828,0 -1.5,-0.895 -1.5,-2 0,-1.105 0.672,-2 1.5,-2 0.828,0 1.5,0.895 1.5,2 z"
           transform="matrix(15.333,0,0,11.5,415,878.86)" />
      </g>
    </clipPath>
    <clipPath
       id="clipPath3920">
      <g
         id="g3918"
         transform="translate(0,-1004.4)">
        <path
           style="fill:#1890d0"
           inkscape:connector-curvature="0"
           id="path3916"
           d="m -24,13 c 0,1.105 -0.672,2 -1.5,2 -0.828,0 -1.5,-0.895 -1.5,-2 0,-1.105 0.672,-2 1.5,-2 0.828,0 1.5,0.895 1.5,2 z"
           transform="matrix(15.333,0,0,11.5,415,878.86)" />
      </g>
    </clipPath>
    <linearGradient
       id="linearGradient6987"
       osb:paint="solid">
      <stop
         style="stop-color:#77d2fb;stop-opacity:1;"
         offset="0"
         id="stop6985" />
    </linearGradient>
    <filter
       y="0%"
       x="0%"
       height="100%"
       width="100%"
       id="alpha">
      <feColorMatrix
         id="feColorMatrix929"
         values="0 0 0 0 1 0 0 0 0 1 0 0 0 0 1 0 0 0 1 0"
         in="SourceGraphic" />
    </filter>
    <mask
       id="mask0">
      <g
         id="g934"
         filter="url(#alpha)">
        <rect
           id="rect932"
           style="fill-opacity:.2;fill:rgb(0%,0%,0%)"
           height="384"
           width="384" />
      </g>
    </mask>
    <clipPath
       id="clip1">
      <rect
         id="rect937"
         height="384"
         width="384" />
    </clipPath>
    <g
       clip-path="url(#clip1)"
       id="surface5">
      <path
         id="path940"
         style="fill:rgb(100%,100%,100%)"
         d="m162.49219 24.035156c-13.507813 0.222656-27.109376 3.160156-37.09375 8.109375-9.898438 4.90625-18.738282 14.425781-27.078126 29.167969-2.140624 3.78125-4.636718 7.363281-5.554687 7.96875s-4.285156 1.453125-7.464844 1.882812c-11.070312-0.371093-23.210937-2.757812-34.96875-5.140624 0 0-7.496093-1.949219-8.332031 6.152343 0.035156 1.367188 0.257812 2.65625 0.46875 3.953125 1.8125-5.617187 7.863281-4.105468 7.863281-4.105468 11.757813 2.382812 23.898438 4.769531 34.96875 5.140624 3.179688-0.429687 6.546875-1.277343 7.464844-1.882812s3.414063-4.199219 5.554687-7.980469c8.339844-14.738281 17.179688-24.25 27.078126-29.15625 11.414062-5.65625 27.554687-8.683593 42.871093-8.039062 18.414063 0.777343 34.054688 7.144531 46.832031 19.066406 8.777344 8.195313 14.589844 10.25 22.941407 8.097656 2.28125-0.589843 3.175781-0.746093 4.058593-0.855469 1.191407-1.652343 1.953126-3.363281 1.953126-4.816406 0-1.84375-0.136719-1.84375-6.011719-0.328125-8.351563 2.152344-14.164063 0.097657-22.941407-8.097656-12.777343-11.921875-28.417968-18.289063-46.832031-19.066406-1.914062-0.082031-3.84375-0.101563-5.777343-0.070313zm77.929687 40.328125c-0.410156 0.402344-0.800781 0.816407-1.269531 1.191407l-2.726563 2.203124 0.855469 0.503907c0.253906-0.042969 0.460938-0.101563 0.726562-0.136719 3.835938-0.554688 4.546876-1.980469 2.414063-3.761719zm-8.214844 11.644531c-0.457031 0.335938-0.785156 0.683594-0.785156 1.019532 0 0.398437 0.542969 3.835937 1.203125 7.636718 0.582031 3.355469 0.792969 7.929688 0.835938 12.710938 0.238281-6.9375-0.007813-13.949219-0.835938-18.710938-0.226562-1.316406-0.234375-1.535156-0.417969-2.65625zm-170.49609 34.195313c-5.027344 3.300781-7.902344 8.210937-13.792969 12.808594-0.917969 1.726562-0.429688 3.367187 1.171875 4.921875 6.414062-5.457032 9.296875-11.167969 16.910156-13.921875-1.464844-1.246094-2.851562-2.539063-4.289062-3.808594zm256.28906 45.820313c-5.183594 0-8.507812 3.1875-14.089844 10.699218-6.519531 8.789063-15.25 15.429688-21.347656 18.539063-9.554688 4.871093-16.882812 4.003906-34.152344-4.042969-18.273437-8.519531-30.953125-11.582031-49.15625-13.195312-1.289062-0.113282-2.777344-0.066407-4.242187-0.082032-3.976563 2.703125-8.339844 5.644532-9.011719 6.070313 0.847656 0 8.28125-0.433594 13.253906 0.011719 18.203125 1.613281 30.882813 4.675781 49.15625 13.195312 17.269532 8.046875 24.597656 8.914062 34.152344 4.042969 6.097656-3.109375 14.828125-9.75 21.347656-18.539063 5.582032-7.511718 8.90625-10.699218 14.089844-10.699218 5.074219 0 8.71875 3.347656 12.5625 9.210937 5.445312 8.304687 8.414062 14.230469 10.527344 28.699219 0.597656 4.132812 0.8125 10.640625 0.824218 17.445312 0.195313-8.976562-0.046874-18.070312-0.824218-23.445312-2.113282-14.46875-5.082032-20.394532-10.527344-28.699219-3.84375-5.863281-7.488281-9.210937-12.5625-9.210937zm-216 3.371093c-0.253906 5.238281-1.375 10.058594-4.625 16.363281-3.75 7.273438-7.84375 13.054688-15.941406 21.960938-14.582032 16.054688-24.941406 33.121094-29.496094 48.597656-1.648438 5.597656-2.285156 11.917969-2.039062 18.570313 0.222656-4.449219 0.894531-8.679688 2.039062-12.570313 4.554688-15.476562 14.914062-32.542968 29.496094-48.597656 8.097656-8.90625 12.191406-14.6875 15.941406-21.960938 4.433594-8.605468 4.96875-14.449218 4.625-22.363281z" />
    </g>
    <mask
       id="mask1">
      <g
         id="g945"
         filter="url(#alpha)">
        <rect
           id="rect943"
           style="fill-opacity:.2;fill:rgb(0%,0%,0%)"
           height="384"
           width="384" />
      </g>
    </mask>
    <clipPath
       id="clip2">
      <rect
         id="rect948"
         height="384"
         width="384" />
    </clipPath>
    <g
       clip-path="url(#clip2)"
       id="surface8">
      <path
         id="path951"
         style="fill:rgb(0%,0%,0%)"
         d="m243.25781 56.179688c-0.171874-0.011719-0.917968 0.210937-1.171874 0.246093-0.796876 1.09375-1.75 2.175781-2.929688 3.128907l-2.730469 2.203124 2.753907 1.640626c0.574218 0.339843 0.863281 0.640624 1.242187 0.960937 2.210937-2.1875 3.632813-4.71875 3.632813-6.761719 0-0.921875-0.027344-1.375-0.796876-1.417968zm-5.988281 12.082031c-3.363281 0.589843-5.847656 1.722656-5.847656 2.765625 0 0.257812 0.441406 2.878906 0.785156 4.980468 1.066407-0.785156 3.167969-1.507812 5.800781-1.886718 4.515626-0.652344 4.96875-2.46875 1.171876-4.722656zm-194.80078 7.859375c-0.199219 0.617187-0.386719 1.253906-0.46875 2.050781 0.355469 13.265625 9.480469 22.996094 19.710938 32.027344 1.269531-0.832031 2.652343-1.601563 4.289062-2.1875-10.800781-9.210938-21.386719-18.847657-23.53125-31.890625zm190.99219 21.246094c-0.230469 6.667968-0.914063 13.25-1.992188 17.625-3.410156 13.835937-8.582031 23.582031-17.402344 32.835937-6.867187 6.238281-26.257812 19.042969-28.070312 20.183594 0.632812 0 4.851562-0.136719 9.035156-0.082031 6.734375-4.582032 14.722656-10.179688 19.03125-14.097657 8.820312-9.25 13.996094-18.996093 17.402344-32.835937 1.414062-5.71875 2.066406-15.097656 1.992187-23.625zm-184.37109 30.574218c-0.414063 0.355469-0.71875 0.714844-1.171875 1.066406-1.417969 2.675782 0.214843 5.175782 4.804687 7.394532 5.921875 2.855468 11.992188 3.625 24.390625 3.035156 12.695313-0.609375 14.386719 1.269531 18.492188 4.664062 4.328125 3.601563 6.027343 7 6.394531 14.894532 0.007812 0.140625-0.003906 0.261718 0 0.398437 0.101562-2.035156 0.109375-4.132812 0-6.410156-0.367188-7.894531-2.066406-11.28125-6.394531-14.882813-4.105469-3.394531-5.796875-5.285156-18.492188-4.675781-12.398437 0.589844-18.46875-0.167969-24.390625-3.023437-1.621094-0.785156-2.753906-1.605469-3.632812-2.460938zm292.82422 89.4375c-0.175781 8.300782-0.71875 16.507813-1.617187 21.457032-11.171875 61.597656-50.480469 103.0625-110.49609 116.56641-16.195312 3.644531-22.71875 4.300781-45.160156 4.535156-11.644531 0.125-22.519531 0.085938-24.15625-0.082031v-0.011719c-37.652344-3.851562-63.890625-14.621094-83.273437-34.191406-7.828126-7.910156-13.144532-15.179688-17.5625-24.023438-5.847657-11.691406-9.1875-24.296875-9.75-35.90625-0.496094 13.167969 2.875 28.160156 9.75 41.90625 4.417968 8.84375 9.734374 16.117188 17.566406 24.023438 19.378906 19.570312 45.613281 30.355468 83.273437 34.207031 1.632813 0.167969 12.507813 0.203125 24.152344 0.082031 22.445313-0.234375 28.964844-0.890625 45.164063-4.535156 60.011718-13.5 99.324218-54.96875 110.49609-116.56641 1.121094-6.183594 1.640625-17.246094 1.617188-27.457032z" />
    </g>
    <linearGradient
       gradientUnits="userSpaceOnUse"
       y2="249.017"
       y1="515.328"
       x2="249.882"
       x1="-248.932"
       id="linearGradient1117">
      <stop
         id="stop954"
         offset="0"
         style="stop-color:#aa75e6;stop-opacity:1" />
      <stop
         id="stop956"
         offset="1"
         style="stop-color:#8935f0;stop-opacity:1" />
    </linearGradient>
    <linearGradient
       id="linearGradient-1"
       y2="116.54461"
       x2="186.14996"
       y1="116.54461"
       x1="0"
       gradientTransform="scale(0.69850138,1.4316364)"
       gradientUnits="userSpaceOnUse">
      <stop
         id="stop4511"
         offset="0%"
         stop-color="#FFFFFF" />
      <stop
         id="stop4513"
         offset="14.13%"
         stop-opacity="0.9576"
         stop-color="#FFFFFF" />
      <stop
         id="stop4515"
         offset="100%"
         stop-opacity="0.7"
         stop-color="#FFFFFF" />
    </linearGradient>
    <linearGradient
       id="linearGradient-2"
       y2="112.26521"
       x2="373.38791"
       y1="112.26521"
       x1="187.35059"
       gradientTransform="scale(0.68561406,1.4585465)"
       gradientUnits="userSpaceOnUse">
      <stop
         id="stop4518"
         offset="0%"
         stop-color="#F1F1F2" />
      <stop
         id="stop4520"
         offset="9.191442%"
         stop-color="#E4E5E6" />
      <stop
         id="stop4522"
         offset="23.57%"
         stop-color="#D9DADB" />
      <stop
         id="stop4524"
         offset="43.8%"
         stop-color="#D2D4D5" />
      <stop
         id="stop4526"
         offset="100%"
         stop-color="#D0D2D3" />
    </linearGradient>
    <filter
       style="color-interpolation-filters:sRGB"
       id="c-0"
       height="1.1655999"
       width="1.1655999"
       x="-0.082800001"
       y="-0.082800001">
      <feGaussianBlur
         stdDeviation="2.1101835"
         id="feGaussianBlur10-5" />
    </filter>
    <filter
       style="color-interpolation-filters:sRGB"
       id="a-3"
       height="1.031026"
       width="1.031376"
       x="-0.015688"
       y="-0.015513">
      <feGaussianBlur
         stdDeviation=".7986332"
         id="feGaussianBlur2-9" />
    </filter>
    <clipPath
       id="clip1-8">
      <path
         d="M 23 24 L 361 24 L 361 347 L 23 347 Z M 23 24"
         id="path952" />
    </clipPath>
    <clipPath
       id="clip2-3">
      <path
         d="M 515.4375 185.300781 C 515.4375 356.074219 370.535156 494.394531 192 494.394531 C 13.460938 494.394531 -131.4375 356.074219 -131.4375 185.300781 C -131.4375 14.523438 13.460938 -123.796875 192 -123.796875 C 370.535156 -123.796875 515.4375 14.523438 515.4375 185.300781 Z M 515.4375 185.300781"
         id="path955" />
    </clipPath>
  </defs>
  <sodipodi:namedview
     id="base"
     pagecolor="#ffffff"
     bordercolor="#666666"
     borderopacity="1.0"
     inkscape:pageopacity="0.0"
     inkscape:pageshadow="2"
     inkscape:zoom="5.2591067"
     inkscape:cx="14.876075"
     inkscape:cy="44.410089"
     inkscape:document-units="mm"
     inkscape:current-layer="layer1"
     showgrid="true"
     units="px"
     inkscape:window-width="1920"
     inkscape:window-height="1031"
     inkscape:window-x="0"
     inkscape:window-y="26"
     inkscape:window-maximized="1">
    <inkscape:grid
       type="xygrid"
       id="grid1636" />
  </sodipodi:namedview>
  <metadata
     id="metadata953">
    <rdf:RDF>
      <cc:Work
         rdf:about="">
        <dc:format>image/svg+xml</dc:format>
        <dc:type
           rdf:resource="http://purl.org/dc/dcmitype/StillImage" />
        <dc:title></dc:title>
      </cc:Work>
    </rdf:RDF>
  </metadata>
  <g
     inkscape:label="Capa 1"
     inkscape:groupmode="layer"
     id="layer1"
     transform="translate(0,-263.13332)">
    <rect
       style="fill:#5d5d5d;filter:url(#a)"
       id="rect13"
       y="-8.1696901"
       x="159.55064"
       width="107.46031"
       transform="matrix(0.24270815,-0.03939202,0.03939202,0.24270815,-37.675115,277.00978)"
       rx="4.8269792"
       height="109.12843" />
    <rect
       style="fill:#ffffff;stroke-width:0.24588409"
       id="rect15"
       y="265.38727"
       x="-42.336063"
       width="26.422779"
       transform="rotate(-9.2188336)"
       rx="1.1868773"
       height="26.832945" />
    <path
       style="fill:url(#linearGradient872);fill-opacity:1.0;stroke-width:0.24588409"
       inkscape:connector-curvature="0"
       id="path17"
       d="m 2.3221944,270.32599 23.1665436,-4.08145 4.023968,22.99409 -23.1090621,4.25391 z" />
    <path
       inkscape:connector-curvature="0"
       d=""
       style="opacity:1;fill:url(#linearGradient948);fill-opacity:1;stroke:none;stroke-width:0.57240593;stroke-linecap:round;stroke-linejoin:round;stroke-miterlimit:4;stroke-dasharray:none;stroke-dashoffset:0;stroke-opacity:0.03831416;paint-order:fill markers stroke"
       id="path864"
       r="28.431282"
       cy="97.610519"
       cx="103.31834" />
    <g
       id="g4277">
      <ellipse
         ry="7.251533"
         rx="7.3773069"
         style="opacity:1;fill:#000000;fill-opacity:0.04182512;stroke:none;stroke-width:0.72103304;stroke-linecap:round;stroke-linejoin:round;stroke-miterlimit:4;stroke-dasharray:none;stroke-dashoffset:0;stroke-opacity:0.03831416;paint-order:fill markers stroke"
         id="circle4265"
         cx="25.452648"
         cy="287.83966" />
      <ellipse
         cy="287.78934"
         cx="25.35203"
         id="ellipse4267"
         style="opacity:1;fill:#000000;fill-opacity:0.04182512;stroke:none;stroke-width:0.72103304;stroke-linecap:round;stroke-linejoin:round;stroke-miterlimit:4;stroke-dasharray:none;stroke-dashoffset:0;stroke-opacity:0.03831416;paint-order:fill markers stroke"
         rx="7.3773069"
         ry="7.251533" />
      <ellipse
         ry="7.251533"
         rx="7.3773069"
         style="opacity:1;fill:#000000;fill-opacity:0.04182512;stroke:none;stroke-width:0.72103304;stroke-linecap:round;stroke-linejoin:round;stroke-miterlimit:4;stroke-dasharray:none;stroke-dashoffset:0;stroke-opacity:0.03831416;paint-order:fill markers stroke"
         id="ellipse4269"
         cx="25.226255"
         cy="287.66357" />
      <ellipse
         cy="287.56296"
         cx="25.075327"
         id="ellipse4271"
         style="opacity:1;fill:#000000;fill-opacity:0.04182512;stroke:none;stroke-width:0.72103304;stroke-linecap:round;stroke-linejoin:round;stroke-miterlimit:4;stroke-dasharray:none;stroke-dashoffset:0;stroke-opacity:0.03831416;paint-order:fill markers stroke"
         rx="7.3773069"
         ry="7.251533" />
      <ellipse
         ry="7.251533"
         rx="7.3773069"
         style="opacity:1;fill:#000000;fill-opacity:0.04182512;stroke:none;stroke-width:0.72103304;stroke-linecap:round;stroke-linejoin:round;stroke-miterlimit:4;stroke-dasharray:none;stroke-dashoffset:0;stroke-opacity:0.03831416;paint-order:fill markers stroke"
         id="ellipse4273"
         cx="24.974709"
         cy="287.51263" />
      <ellipse
         cy="287.38687"
         cx="24.723162"
         id="ellipse4275"
         style="opacity:1;fill:#000000;fill-opacity:0.04182512;stroke:none;stroke-width:0.72103304;stroke-linecap:round;stroke-linejoin:round;stroke-miterlimit:4;stroke-dasharray:none;stroke-dashoffset:0;stroke-opacity:0.03831416;paint-order:fill markers stroke"
         rx="7.3773069"
         ry="7.251533" />
    </g>
    <circle
       style="opacity:1;fill:url(#linearGradient1615);fill-opacity:1;stroke:none;stroke-width:0.72103304;stroke-linecap:round;stroke-linejoin:round;stroke-miterlimit:4;stroke-dasharray:none;stroke-dashoffset:0;stroke-opacity:0.03831416;paint-order:fill markers stroke"
       id="path1600"
       cx="25.578423"
       cy="287.9906"
       r="7.251533" />
    <path
       style="opacity:1;fill:#ffffff;fill-opacity:1;stroke:none;stroke-width:3.54330707;stroke-linecap:round;stroke-linejoin:round;stroke-miterlimit:4;stroke-dasharray:none;stroke-dashoffset:0;stroke-opacity:0.03041825;paint-order:fill markers stroke"
       d="m 15.604999,270.02382 0.600518,3.44762 3.448127,-0.60061 -0.600519,-3.44761 -3.448126,0.6006 z m 4.371632,-0.76146 0.60052,3.44761 3.448128,-0.60061 -0.60052,-3.44761 -3.448128,0.60061 z m -3.610254,5.13259 0.600697,3.44863 3.448128,-0.60061 -0.600697,-3.44863 -3.448128,0.60061 z m 4.371633,-0.76147 0.600698,3.44863 3.448128,-0.60061 -0.600698,-3.44863 -3.448128,0.60061 z"
       id="rect4172"
       inkscape:connector-curvature="0" />
    <path
       id="path4186"
       d="m 15.828571,288.22876 c -0.0663,0.33245 -0.162134,0.64654 -0.287605,0.94397 -0.171025,0.40547 -0.320653,0.69336 -0.447268,0.86333 -0.193616,0.27569 -0.427816,0.44818 -0.703445,0.5188 -0.198876,0.0461 -0.450898,0.0457 -0.754812,-0.004 -0.304706,-0.0482 -0.574303,-0.0445 -0.809666,0.0101 -0.246842,0.0572 -0.49939,0.17456 -0.757939,0.35327 -0.258866,0.17934 -0.474443,0.29149 -0.647841,0.33786 -0.263216,0.0727 -0.553198,0.0184 -0.87045,-0.16347 -0.200389,-0.10652 -0.465729,-0.30717 -0.795478,-0.60217 -0.3534071,-0.31471 -0.6716964,-0.70087 -0.9550483,-1.15956 -0.304457,-0.49581 -0.5119029,-0.99618 -0.6219503,-1.50164 -0.1260555,-0.57902 -0.1083414,-1.10771 0.053805,-1.5849 0.1258542,-0.38229 0.3329139,-0.70883 0.6219396,-0.9803 0.2890226,-0.27147 0.6255096,-0.45368 1.0097524,-0.5494 0.2110006,-0.0489 0.5017576,-0.0485 0.8732466,-0.002 0.370609,0.0479 0.604826,0.0614 0.701361,0.0391 0.07217,-0.0167 0.300307,-0.14891 0.682145,-0.39559 0.361693,-0.23051 0.680027,-0.36501 0.956079,-0.40509 0.747364,-0.11163 1.361642,0.047 1.841056,0.4782 -0.57123,0.54619 -0.776108,1.17322 -0.615555,1.87948 0.125909,0.54992 0.427933,0.96179 0.904444,1.23399 0.216824,0.1273 0.446292,0.21138 0.690163,0.25233 -0.01821,0.15044 -0.04038,0.29564 -0.06694,0.43624 z m -3.113007,-6.16968 c 0.09407,0.4321 0.02238,0.87252 -0.214313,1.31963 -0.287089,0.53288 -0.695388,0.897 -1.207532,0.97318 -0.01773,-0.0503 -0.03329,-0.10404 -0.04577,-0.16136 -0.09031,-0.41482 -0.0044,-0.90104 0.240591,-1.33912 0.121782,-0.22129 0.294287,-0.42178 0.517284,-0.60155 0.222855,-0.17778 0.443921,-0.29878 0.662958,-0.36149 0.0191,0.0562 0.03431,0.11341 0.0468,0.17071 z"
       inkscape:connector-curvature="0"
       style="fill:#ffffff" />
    <path
       style="fill:#ffffff"
       d="m 8.7654859,271.03906 8.35e-5,5.1e-4 0.00763,-0.002 -0.00771,8.7e-4 z m 8.35e-5,5.1e-4 -1.294861,0.34428 0.9095061,5.60149 1.2827574,-0.41881 -0.3846367,-2.36892 2.2698618,2.33297 1.478892,-0.78043 -2.475429,-2.02944 1.721064,-2.71081 -1.664751,-0.27 -1.4151127,2.93128 -0.4272909,-2.63161 z m -2.7175689,2.06217 c -0.015865,0.005 -0.032547,0.0114 -0.042833,0.0254 l -0.4708159,0.64894 c -0.01974,0.0274 -0.016471,0.0633 0.00545,0.0888 l 0.7558684,0.88243 c -0.1033663,0.25076 -0.1711308,0.51761 -0.2014527,0.79357 l -1.0647942,0.4061 c -0.032324,0.0124 -0.051711,0.0487 -0.046155,0.0829 l 0.1278785,0.78758 c 0.00541,0.0334 0.035647,0.0574 0.06936,0.0599 l 1.1100922,0.0842 c 0.1154428,0.28622 0.2743235,0.54677 0.4664762,0.77693 l -0.4697228,1.04238 c -0.014221,0.0317 -0.00426,0.0691 0.024028,0.0895 l 0.6513521,0.46621 c 0.027501,0.0197 0.064772,0.0164 0.090356,-0.006 l 0.8769808,-0.7439 c 0.26326,0.10446 0.5430546,0.17143 0.8327209,0.19562 l 0.4027539,1.04739 c 0.012531,0.0322 0.045299,0.0518 0.07978,0.0462 L 10.03856,279.7471 c 0.03317,-0.005 0.05841,-0.0323 0.06106,-0.0659 l 0.09226,-1.13464 c 0.268803,-0.11828 0.511269,-0.27833 0.72803,-0.46539 l 1.079422,0.47689 c 0.03184,0.0139 0.069,0.005 0.08958,-0.0235 l 0.467816,-0.64791 c 0.01987,-0.0273 0.01951,-0.0644 -0.0024,-0.0898 l -0.482274,-0.56225 -0.118495,0.0598 c -0.0172,0.009 -0.03867,0.003 -0.05184,-0.0105 0,0 -0.144335,-0.14088 -0.258978,-0.2529 -0.05469,-0.0597 -0.317785,-0.33709 -0.58346,-0.5875 -0.225597,0.79684 -0.892107,1.39085 -1.7089904,1.52429 -1.1629521,0.18883 -2.2587729,-0.60083 -2.4476,-1.76379 -0.1288899,-0.79864 0.1290341,-1.56875 0.7502658,-2.03452 l -0.1382131,-0.85122 c -0.1379705,0.0784 -0.2236126,0.16133 -0.3456339,0.25979 l -1.0741651,-0.47334 c -0.016026,-0.008 -0.03106,-0.006 -0.046826,-0.002 l -8.35e-5,-5.1e-4 z"
       id="path4207-3"
       inkscape:connector-curvature="0" />
    <path
       style="opacity:1;fill:#3e3e3e;fill-opacity:0.99619769;stroke:none;stroke-width:0.70212853;stroke-linecap:round;stroke-linejoin:round;stroke-miterlimit:4;stroke-dasharray:none;stroke-dashoffset:0;stroke-opacity:0.05323193;paint-order:fill markers stroke"
       d="m 25.334495,283.27833 c -0.102561,0 -0.185132,0.0826 -0.185132,0.18513 v 0.93046 a 3.6268276,3.6268276 0 0 0 -0.997995,0.26673 l -0.464887,-0.80533 c -0.05128,-0.0888 -0.164192,-0.11881 -0.253013,-0.0675 l -0.422717,0.24375 c -0.08882,0.0513 -0.118819,0.1642 -0.06754,0.25302 l 0.464886,0.80498 a 3.6268276,3.6268276 0 0 0 -0.730242,0.73126 L 21.87219,285.3556 c -0.08882,-0.0513 -0.201389,-0.0213 -0.252669,0.0675 l -0.244101,0.42272 c -0.05128,0.0888 -0.02128,0.20172 0.06754,0.25301 l 0.802579,0.46351 a 3.6268276,3.6268276 0 0 0 -0.265698,0.99903 h -0.928742 c -0.102562,0 -0.185132,0.0826 -0.185132,0.18513 v 0.4882 c 0,0.10255 0.08257,0.18512 0.185132,0.18512 h 0.930457 a 3.6268276,3.6268276 0 0 0 0.267068,0.99766 l -0.805664,0.46523 c -0.08882,0.0513 -0.118819,0.16385 -0.06754,0.25267 l 0.244101,0.42272 c 0.05128,0.0888 0.163849,0.11916 0.252669,0.0679 l 0.805323,-0.46489 a 3.6268276,3.6268276 0 0 0 0.730927,0.7299 l -0.465229,0.80567 c -0.05128,0.0888 -0.02128,0.20173 0.06754,0.25301 l 0.422717,0.24409 c 0.08882,0.0513 0.201734,0.021 0.253013,-0.0679 l 0.463172,-0.80258 a 3.6268276,3.6268276 0 0 0 0.99971,0.26604 v 0.9284 c 0,0.10256 0.08257,0.18513 0.185132,0.18513 h 0.487856 c 0.102561,0 0.185131,-0.0826 0.185131,-0.18513 v -0.93046 a 3.6268276,3.6268276 0 0 0 0.997997,-0.26672 l 0.464885,0.80532 c 0.05128,0.0888 0.164193,0.11916 0.253014,0.0679 l 0.422374,-0.24409 c 0.08882,-0.0513 0.119162,-0.16419 0.06788,-0.25301 l -0.464887,-0.80498 a 3.6268276,3.6268276 0 0 0 0.730242,-0.73093 l 0.805665,0.46523 c 0.08882,0.0513 0.20139,0.021 0.25267,-0.0679 l 0.2441,-0.42272 c 0.05128,-0.0888 0.02094,-0.20139 -0.06788,-0.25267 l -0.802579,-0.46317 a 3.6268276,3.6268276 0 0 0 0.266041,-0.99972 h 0.928743 c 0.10256,0 0.185131,-0.0826 0.185131,-0.18512 v -0.4882 c 0,-0.10256 -0.08257,-0.18513 -0.185131,-0.18513 h -0.930458 a 3.6268276,3.6268276 0 0 0 -0.267069,-0.99766 l 0.805322,-0.46488 c 0.08882,-0.0513 0.119162,-0.1642 0.06788,-0.25301 l -0.2441,-0.42272 c -0.05128,-0.0888 -0.163849,-0.11882 -0.25267,-0.0675 l -0.804979,0.4649 a 3.6268276,3.6268276 0 0 0 -0.73127,-0.73025 l 0.465229,-0.80566 c 0.05128,-0.0888 0.02094,-0.20173 -0.06788,-0.25302 l -0.422374,-0.24375 c -0.08882,-0.0513 -0.201733,-0.0213 -0.253014,0.0675 l -0.463171,0.80259 a 3.6268276,3.6268276 0 0 0 -0.999711,-0.26605 v -0.9284 c 0,-0.10256 -0.08257,-0.18513 -0.185131,-0.18513 z m 0.243756,2.69264 a 2.0195791,2.0195791 0 0 1 2.019649,2.01965 2.0195791,2.0195791 0 0 1 -2.019649,2.01964 2.0195791,2.0195791 0 0 1 -2.019304,-2.01964 2.0195791,2.0195791 0 0 1 2.019304,-2.01965 z"
       id="rect916-1-7"
       inkscape:connector-curvature="0" />
  </g>
</svg>
