<?xml version="1.0" encoding="UTF-8" standalone="no"?>
<!-- Created with Inkscape (http://www.inkscape.org/) -->

<svg
   xmlns:dc="http://purl.org/dc/elements/1.1/"
   xmlns:cc="http://creativecommons.org/ns#"
   xmlns:rdf="http://www.w3.org/1999/02/22-rdf-syntax-ns#"
   xmlns:svg="http://www.w3.org/2000/svg"
   xmlns="http://www.w3.org/2000/svg"
   xmlns:xlink="http://www.w3.org/1999/xlink"
   xmlns:sodipodi="http://sodipodi.sourceforge.net/DTD/sodipodi-0.dtd"
   xmlns:inkscape="http://www.inkscape.org/namespaces/inkscape"
   version="1.1"
   id="svg2"
   width="128"
   height="128"
   viewBox="0 0 128 128"
   sodipodi:docname="rhythmbox.svg"
   inkscape:version="0.92.4 5da689c313, 2019-01-14">
  <metadata
     id="metadata8">
    <rdf:RDF>
      <cc:Work
         rdf:about="">
        <dc:format>image/svg+xml</dc:format>
        <dc:type
           rdf:resource="http://purl.org/dc/dcmitype/StillImage" />
        <dc:title></dc:title>
      </cc:Work>
    </rdf:RDF>
  </metadata>
  <defs
     id="defs6">
    <linearGradient
       inkscape:collect="always"
       id="linearGradient945">
      <stop
         style="stop-color:#8763fe;stop-opacity:1;"
         offset="0"
         id="stop941" />
      <stop
         id="stop967"
         offset="0.18737273"
         style="stop-color:#7e68fe;stop-opacity:1" />
      <stop
         id="stop965"
         offset="0.30629727"
         style="stop-color:#7d69fd;stop-opacity:1" />
      <stop
         id="stop963"
         offset="0.5528459"
         style="stop-color:#8b61f4;stop-opacity:1" />
      <stop
         id="stop961"
         offset="0.71020466"
         style="stop-color:#a359df;stop-opacity:1" />
      <stop
         id="stop951"
         offset="0.87117851"
         style="stop-color:#c754c0;stop-opacity:1" />
      <stop
         style="stop-color:#de549e;stop-opacity:0"
         offset="1"
         id="stop943" />
    </linearGradient>
    <linearGradient
       inkscape:collect="always"
       id="linearGradient935">
      <stop
         style="stop-color:#5793fa;stop-opacity:1;"
         offset="0"
         id="stop931" />
      <stop
         style="stop-color:#5793fa;stop-opacity:0;"
         offset="1"
         id="stop933" />
    </linearGradient>
    <linearGradient
       inkscape:collect="always"
       id="linearGradient917">
      <stop
         style="stop-color:#49abf5;stop-opacity:1;"
         offset="0"
         id="stop913" />
      <stop
         id="stop927"
         offset="0.30243069"
         style="stop-color:#4daaf6;stop-opacity:1" />
      <stop
         id="stop925"
         offset="0.5655883"
         style="stop-color:#7f85e1;stop-opacity:1" />
      <stop
         id="stop923"
         offset="0.79700154"
         style="stop-color:#ba6ab8;stop-opacity:1" />
      <stop
         style="stop-color:#d4629f;stop-opacity:0"
         offset="1"
         id="stop915" />
    </linearGradient>
    <linearGradient
       inkscape:collect="always"
       id="linearGradient907">
      <stop
         style="stop-color:#f4587a;stop-opacity:1"
         offset="0"
         id="stop903" />
      <stop
         style="stop-color:#f15c7c;stop-opacity:1"
         offset="1"
         id="stop905" />
    </linearGradient>
    <linearGradient
       inkscape:collect="always"
       id="linearGradient899">
      <stop
         style="stop-color:#f05c7c;stop-opacity:1"
         offset="0"
         id="stop895" />
      <stop
         style="stop-color:#e4618a;stop-opacity:1"
         offset="1"
         id="stop897" />
    </linearGradient>
    <linearGradient
       inkscape:collect="always"
       id="linearGradient833">
      <stop
         style="stop-color:#dfe3e8;stop-opacity:1"
         offset="0"
         id="stop829" />
      <stop
         style="stop-color:#fefeff;stop-opacity:1"
         offset="1"
         id="stop831" />
    </linearGradient>
    <linearGradient
       inkscape:collect="always"
       id="linearGradient823">
      <stop
         style="stop-color:#ccd4da;stop-opacity:1"
         offset="0"
         id="stop819" />
      <stop
         style="stop-color:#ffffff;stop-opacity:1"
         offset="1"
         id="stop821" />
    </linearGradient>
    <linearGradient
       inkscape:collect="always"
       xlink:href="#linearGradient823"
       id="linearGradient825"
       x1="-741.83197"
       y1="959.04749"
       x2="-741.83197"
       y2="93.836403"
       gradientUnits="userSpaceOnUse"
       gradientTransform="matrix(0.13667801,0,0,0.13667801,162.31231,-5.989337)" />
    <linearGradient
       inkscape:collect="always"
       xlink:href="#linearGradient833"
       id="linearGradient835"
       x1="-738.76385"
       y1="931.43433"
       x2="-738.76385"
       y2="152.13077"
       gradientUnits="userSpaceOnUse"
       gradientTransform="matrix(0.13667801,0,0,0.13667801,162.31231,-5.989337)" />
    <linearGradient
       inkscape:collect="always"
       xlink:href="#linearGradient899"
       id="linearGradient901"
       x1="338.65604"
       y1="39.819786"
       x2="361.4238"
       y2="35.209618"
       gradientUnits="userSpaceOnUse" />
    <linearGradient
       inkscape:collect="always"
       xlink:href="#linearGradient907"
       id="linearGradient909"
       x1="318.56171"
       y1="43.831882"
       x2="338.9473"
       y2="38.408154"
       gradientUnits="userSpaceOnUse" />
    <linearGradient
       inkscape:collect="always"
       xlink:href="#linearGradient917"
       id="linearGradient921"
       gradientUnits="userSpaceOnUse"
       x1="353.23526"
       y1="92.65889"
       x2="349.17056"
       y2="47.787571" />
    <linearGradient
       inkscape:collect="always"
       xlink:href="#linearGradient935"
       id="linearGradient937"
       x1="337.89465"
       y1="97.452835"
       x2="346.86948"
       y2="90.166039"
       gradientUnits="userSpaceOnUse" />
    <linearGradient
       inkscape:collect="always"
       xlink:href="#linearGradient945"
       id="linearGradient949"
       gradientUnits="userSpaceOnUse"
       x1="311.51086"
       y1="107.01833"
       x2="324.03204"
       y2="54.408154" />
  </defs>
  <sodipodi:namedview
     pagecolor="#ffffff"
     bordercolor="#666666"
     borderopacity="1"
     objecttolerance="10"
     gridtolerance="10"
     guidetolerance="10"
     inkscape:pageopacity="0"
     inkscape:pageshadow="2"
     inkscape:window-width="1920"
     inkscape:window-height="1028"
     id="namedview4"
     showgrid="false"
     inkscape:zoom="0.46093749"
     inkscape:cx="97.470649"
     inkscape:cy="69.117402"
     inkscape:window-x="0"
     inkscape:window-y="26"
     inkscape:window-maximized="1"
     inkscape:current-layer="svg2" />
  <circle
     style="opacity:1;fill:url(#linearGradient825);fill-opacity:1;stroke:none;stroke-width:0.78699166;stroke-linecap:round;stroke-linejoin:round;stroke-miterlimit:4;stroke-dasharray:none;stroke-opacity:1"
     id="path817"
     cx="63.591888"
     cy="64.286316"
     r="61.380009" />
  <circle
     r="55.089832"
     cy="64.286316"
     cx="63.591888"
     id="circle827"
     style="opacity:1;fill:url(#linearGradient835);fill-opacity:1;stroke:none;stroke-width:0.70634133;stroke-linecap:round;stroke-linejoin:round;stroke-miterlimit:4;stroke-dasharray:none;stroke-opacity:1" />
  <g
     id="g1066"
     transform="translate(-287.45769,103.05085)"
     style="opacity:0.538">
    <path
       id="path863-2"
       d="m 377.5082,-79.329457 c -0.7,-0.01403 -1.57748,0.109171 -2.67578,0.357422 l -18.19922,3.69336 -17.34179,3.425781 c -3.0722,0.65674 -3.66824,2.371606 -3.59571,5.082031 l 0.0469,42.306641 c -0.13962,2.973501 -0.46207,4.605067 -3.88282,5.152343 -12.10602,1.801889 -14.4545,5.552265 -14.38085,10.882813 0.0733,5.308775 4.37571,9.562544 10.30664,8.964844 5.20132,-0.57853 9.07593,-2.093615 11.45703,-6.904297 0.92183,-1.811914 1.23577,-5.581152 1.00781,-9.396485 l -0.0488,-33.652343 c 0.01,-2.355753 -0.38947,-3.667024 2.73242,-4.314454 l 16.34961,-3.294921 2.44336,-0.492188 v -0.0039 l 11.15821,-2.25 c 1.81449,-0.365976 2.66769,0.253898 2.69531,2.300781 l 0.0488,25.144531 c -0.13962,2.973501 -0.42887,4.335537 -3.84961,4.882813 -12.10603,1.801889 -14.48967,5.821796 -14.41602,11.152344 0.0733,5.308775 4.44407,9.293012 10.375,8.695312 5.20132,-0.57853 8.94117,-1.9236929 11.32227,-6.734375 0.92183,-1.811914 0.9971,-5.411792 1.07422,-9.294922 l -0.0312,-51.482422 c -0.002,-2.895455 -0.4957,-4.178618 -2.59571,-4.220703 z"
       style="fill:none;stroke:#111214;stroke-width:0.1;stroke-linecap:round;stroke-linejoin:round;stroke-miterlimit:4;stroke-dasharray:none;stroke-opacity:0.01176471"
       inkscape:connector-curvature="0" />
    <path
       style="fill:none;stroke:#111214;stroke-width:0.2;stroke-linecap:round;stroke-linejoin:round;stroke-miterlimit:4;stroke-dasharray:none;stroke-opacity:0.01176471"
       d="m 377.5082,-79.329457 c -0.7,-0.01403 -1.57748,0.109171 -2.67578,0.357422 l -18.19922,3.69336 -17.34179,3.425781 c -3.0722,0.65674 -3.66824,2.371606 -3.59571,5.082031 l 0.0469,42.306641 c -0.13962,2.973501 -0.46207,4.605067 -3.88282,5.152343 -12.10602,1.801889 -14.4545,5.552265 -14.38085,10.882813 0.0733,5.308775 4.37571,9.562544 10.30664,8.964844 5.20132,-0.57853 9.07593,-2.093615 11.45703,-6.904297 0.92183,-1.811914 1.23577,-5.581152 1.00781,-9.396485 l -0.0488,-33.652343 c 0.01,-2.355753 -0.38947,-3.667024 2.73242,-4.314454 l 16.34961,-3.294921 2.44336,-0.492188 v -0.0039 l 11.15821,-2.25 c 1.81449,-0.365976 2.66769,0.253898 2.69531,2.300781 l 0.0488,25.144531 c -0.13962,2.973501 -0.42887,4.335537 -3.84961,4.882813 -12.10603,1.801889 -14.48967,5.821796 -14.41602,11.152344 0.0733,5.308775 4.44407,9.293012 10.375,8.695312 5.20132,-0.57853 8.94117,-1.9236929 11.32227,-6.734375 0.92183,-1.811914 0.9971,-5.411792 1.07422,-9.294922 l -0.0312,-51.482422 c -0.002,-2.895455 -0.4957,-4.178618 -2.59571,-4.220703 z"
       id="path976"
       inkscape:connector-curvature="0" />
    <path
       id="path978"
       d="m 377.5082,-79.329457 c -0.7,-0.01403 -1.57748,0.109171 -2.67578,0.357422 l -18.19922,3.69336 -17.34179,3.425781 c -3.0722,0.65674 -3.66824,2.371606 -3.59571,5.082031 l 0.0469,42.306641 c -0.13962,2.973501 -0.46207,4.605067 -3.88282,5.152343 -12.10602,1.801889 -14.4545,5.552265 -14.38085,10.882813 0.0733,5.308775 4.37571,9.562544 10.30664,8.964844 5.20132,-0.57853 9.07593,-2.093615 11.45703,-6.904297 0.92183,-1.811914 1.23577,-5.581152 1.00781,-9.396485 l -0.0488,-33.652343 c 0.01,-2.355753 -0.38947,-3.667024 2.73242,-4.314454 l 16.34961,-3.294921 2.44336,-0.492188 v -0.0039 l 11.15821,-2.25 c 1.81449,-0.365976 2.66769,0.253898 2.69531,2.300781 l 0.0488,25.144531 c -0.13962,2.973501 -0.42887,4.335537 -3.84961,4.882813 -12.10603,1.801889 -14.48967,5.821796 -14.41602,11.152344 0.0733,5.308775 4.44407,9.293012 10.375,8.695312 5.20132,-0.57853 8.94117,-1.9236929 11.32227,-6.734375 0.92183,-1.811914 0.9971,-5.411792 1.07422,-9.294922 l -0.0312,-51.482422 c -0.002,-2.895455 -0.4957,-4.178618 -2.59571,-4.220703 z"
       style="fill:none;stroke:#111214;stroke-width:0.30000001;stroke-linecap:round;stroke-linejoin:round;stroke-miterlimit:4;stroke-dasharray:none;stroke-opacity:0.01176471"
       inkscape:connector-curvature="0" />
    <path
       style="fill:none;stroke:#111214;stroke-width:0.5;stroke-linecap:round;stroke-linejoin:round;stroke-miterlimit:4;stroke-dasharray:none;stroke-opacity:0.01176471"
       d="m 377.5082,-79.329457 c -0.7,-0.01403 -1.57748,0.109171 -2.67578,0.357422 l -18.19922,3.69336 -17.34179,3.425781 c -3.0722,0.65674 -3.66824,2.371606 -3.59571,5.082031 l 0.0469,42.306641 c -0.13962,2.973501 -0.46207,4.605067 -3.88282,5.152343 -12.10602,1.801889 -14.4545,5.552265 -14.38085,10.882813 0.0733,5.308775 4.37571,9.562544 10.30664,8.964844 5.20132,-0.57853 9.07593,-2.093615 11.45703,-6.904297 0.92183,-1.811914 1.23577,-5.581152 1.00781,-9.396485 l -0.0488,-33.652343 c 0.01,-2.355753 -0.38947,-3.667024 2.73242,-4.314454 l 16.34961,-3.294921 2.44336,-0.492188 v -0.0039 l 11.15821,-2.25 c 1.81449,-0.365976 2.66769,0.253898 2.69531,2.300781 l 0.0488,25.144531 c -0.13962,2.973501 -0.42887,4.335537 -3.84961,4.882813 -12.10603,1.801889 -14.48967,5.821796 -14.41602,11.152344 0.0733,5.308775 4.44407,9.293012 10.375,8.695312 5.20132,-0.57853 8.94117,-1.9236929 11.32227,-6.734375 0.92183,-1.811914 0.9971,-5.411792 1.07422,-9.294922 l -0.0312,-51.482422 c -0.002,-2.895455 -0.4957,-4.178618 -2.59571,-4.220703 z"
       id="path980"
       inkscape:connector-curvature="0" />
    <path
       id="path982"
       d="m 377.5082,-79.329457 c -0.7,-0.01403 -1.57748,0.109171 -2.67578,0.357422 l -18.19922,3.69336 -17.34179,3.425781 c -3.0722,0.65674 -3.66824,2.371606 -3.59571,5.082031 l 0.0469,42.306641 c -0.13962,2.973501 -0.46207,4.605067 -3.88282,5.152343 -12.10602,1.801889 -14.4545,5.552265 -14.38085,10.882813 0.0733,5.308775 4.37571,9.562544 10.30664,8.964844 5.20132,-0.57853 9.07593,-2.093615 11.45703,-6.904297 0.92183,-1.811914 1.23577,-5.581152 1.00781,-9.396485 l -0.0488,-33.652343 c 0.01,-2.355753 -0.38947,-3.667024 2.73242,-4.314454 l 16.34961,-3.294921 2.44336,-0.492188 v -0.0039 l 11.15821,-2.25 c 1.81449,-0.365976 2.66769,0.253898 2.69531,2.300781 l 0.0488,25.144531 c -0.13962,2.973501 -0.42887,4.335537 -3.84961,4.882813 -12.10603,1.801889 -14.48967,5.821796 -14.41602,11.152344 0.0733,5.308775 4.44407,9.293012 10.375,8.695312 5.20132,-0.57853 8.94117,-1.9236929 11.32227,-6.734375 0.92183,-1.811914 0.9971,-5.411792 1.07422,-9.294922 l -0.0312,-51.482422 c -0.002,-2.895455 -0.4957,-4.178618 -2.59571,-4.220703 z"
       style="fill:none;stroke:#111214;stroke-width:0.69999999;stroke-linecap:round;stroke-linejoin:round;stroke-miterlimit:4;stroke-dasharray:none;stroke-opacity:0.01176471"
       inkscape:connector-curvature="0" />
    <path
       style="fill:none;stroke:#111214;stroke-width:0.89999998;stroke-linecap:round;stroke-linejoin:round;stroke-miterlimit:4;stroke-dasharray:none;stroke-opacity:0.01176471"
       d="m 377.5082,-79.329457 c -0.7,-0.01403 -1.57748,0.109171 -2.67578,0.357422 l -18.19922,3.69336 -17.34179,3.425781 c -3.0722,0.65674 -3.66824,2.371606 -3.59571,5.082031 l 0.0469,42.306641 c -0.13962,2.973501 -0.46207,4.605067 -3.88282,5.152343 -12.10602,1.801889 -14.4545,5.552265 -14.38085,10.882813 0.0733,5.308775 4.37571,9.562544 10.30664,8.964844 5.20132,-0.57853 9.07593,-2.093615 11.45703,-6.904297 0.92183,-1.811914 1.23577,-5.581152 1.00781,-9.396485 l -0.0488,-33.652343 c 0.01,-2.355753 -0.38947,-3.667024 2.73242,-4.314454 l 16.34961,-3.294921 2.44336,-0.492188 v -0.0039 l 11.15821,-2.25 c 1.81449,-0.365976 2.66769,0.253898 2.69531,2.300781 l 0.0488,25.144531 c -0.13962,2.973501 -0.42887,4.335537 -3.84961,4.882813 -12.10603,1.801889 -14.48967,5.821796 -14.41602,11.152344 0.0733,5.308775 4.44407,9.293012 10.375,8.695312 5.20132,-0.57853 8.94117,-1.9236929 11.32227,-6.734375 0.92183,-1.811914 0.9971,-5.411792 1.07422,-9.294922 l -0.0312,-51.482422 c -0.002,-2.895455 -0.4957,-4.178618 -2.59571,-4.220703 z"
       id="path984"
       inkscape:connector-curvature="0" />
    <path
       id="path986"
       d="m 377.5082,-79.329457 c -0.7,-0.01403 -1.57748,0.109171 -2.67578,0.357422 l -18.19922,3.69336 -17.34179,3.425781 c -3.0722,0.65674 -3.66824,2.371606 -3.59571,5.082031 l 0.0469,42.306641 c -0.13962,2.973501 -0.46207,4.605067 -3.88282,5.152343 -12.10602,1.801889 -14.4545,5.552265 -14.38085,10.882813 0.0733,5.308775 4.37571,9.562544 10.30664,8.964844 5.20132,-0.57853 9.07593,-2.093615 11.45703,-6.904297 0.92183,-1.811914 1.23577,-5.581152 1.00781,-9.396485 l -0.0488,-33.652343 c 0.01,-2.355753 -0.38947,-3.667024 2.73242,-4.314454 l 16.34961,-3.294921 2.44336,-0.492188 v -0.0039 l 11.15821,-2.25 c 1.81449,-0.365976 2.66769,0.253898 2.69531,2.300781 l 0.0488,25.144531 c -0.13962,2.973501 -0.42887,4.335537 -3.84961,4.882813 -12.10603,1.801889 -14.48967,5.821796 -14.41602,11.152344 0.0733,5.308775 4.44407,9.293012 10.375,8.695312 5.20132,-0.57853 8.94117,-1.9236929 11.32227,-6.734375 0.92183,-1.811914 0.9971,-5.411792 1.07422,-9.294922 l -0.0312,-51.482422 c -0.002,-2.895455 -0.4957,-4.178618 -2.59571,-4.220703 z"
       style="fill:none;stroke:#111214;stroke-width:1.10000002;stroke-linecap:round;stroke-linejoin:round;stroke-miterlimit:4;stroke-dasharray:none;stroke-opacity:0.01176471"
       inkscape:connector-curvature="0" />
    <path
       style="fill:none;stroke:#111214;stroke-width:1.60000002;stroke-linecap:round;stroke-linejoin:round;stroke-miterlimit:4;stroke-dasharray:none;stroke-opacity:0.01176471"
       d="m 377.5082,-79.329457 c -0.7,-0.01403 -1.57748,0.109171 -2.67578,0.357422 l -18.19922,3.69336 -17.34179,3.425781 c -3.0722,0.65674 -3.66824,2.371606 -3.59571,5.082031 l 0.0469,42.306641 c -0.13962,2.973501 -0.46207,4.605067 -3.88282,5.152343 -12.10602,1.801889 -14.4545,5.552265 -14.38085,10.882813 0.0733,5.308775 4.37571,9.562544 10.30664,8.964844 5.20132,-0.57853 9.07593,-2.093615 11.45703,-6.904297 0.92183,-1.811914 1.23577,-5.581152 1.00781,-9.396485 l -0.0488,-33.652343 c 0.01,-2.355753 -0.38947,-3.667024 2.73242,-4.314454 l 16.34961,-3.294921 2.44336,-0.492188 v -0.0039 l 11.15821,-2.25 c 1.81449,-0.365976 2.66769,0.253898 2.69531,2.300781 l 0.0488,25.144531 c -0.13962,2.973501 -0.42887,4.335537 -3.84961,4.882813 -12.10603,1.801889 -14.48967,5.821796 -14.41602,11.152344 0.0733,5.308775 4.44407,9.293012 10.375,8.695312 5.20132,-0.57853 8.94117,-1.9236929 11.32227,-6.734375 0.92183,-1.811914 0.9971,-5.411792 1.07422,-9.294922 l -0.0312,-51.482422 c -0.002,-2.895455 -0.4957,-4.178618 -2.59571,-4.220703 z"
       id="path988"
       inkscape:connector-curvature="0" />
    <path
       id="path990"
       d="m 377.5082,-79.329457 c -0.7,-0.01403 -1.57748,0.109171 -2.67578,0.357422 l -18.19922,3.69336 -17.34179,3.425781 c -3.0722,0.65674 -3.66824,2.371606 -3.59571,5.082031 l 0.0469,42.306641 c -0.13962,2.973501 -0.46207,4.605067 -3.88282,5.152343 -12.10602,1.801889 -14.4545,5.552265 -14.38085,10.882813 0.0733,5.308775 4.37571,9.562544 10.30664,8.964844 5.20132,-0.57853 9.07593,-2.093615 11.45703,-6.904297 0.92183,-1.811914 1.23577,-5.581152 1.00781,-9.396485 l -0.0488,-33.652343 c 0.01,-2.355753 -0.38947,-3.667024 2.73242,-4.314454 l 16.34961,-3.294921 2.44336,-0.492188 v -0.0039 l 11.15821,-2.25 c 1.81449,-0.365976 2.66769,0.253898 2.69531,2.300781 l 0.0488,25.144531 c -0.13962,2.973501 -0.42887,4.335537 -3.84961,4.882813 -12.10603,1.801889 -14.48967,5.821796 -14.41602,11.152344 0.0733,5.308775 4.44407,9.293012 10.375,8.695312 5.20132,-0.57853 8.94117,-1.9236929 11.32227,-6.734375 0.92183,-1.811914 0.9971,-5.411792 1.07422,-9.294922 l -0.0312,-51.482422 c -0.002,-2.895455 -0.4957,-4.178618 -2.59571,-4.220703 z"
       style="fill:none;stroke:#111214;stroke-width:2.0999999;stroke-linecap:round;stroke-linejoin:round;stroke-miterlimit:4;stroke-dasharray:none;stroke-opacity:0.01176471"
       inkscape:connector-curvature="0" />
    <path
       style="fill:none;stroke:#111214;stroke-width:2.5999999;stroke-linecap:round;stroke-linejoin:round;stroke-miterlimit:4;stroke-dasharray:none;stroke-opacity:0.01176471"
       d="m 377.5082,-79.329457 c -0.7,-0.01403 -1.57748,0.109171 -2.67578,0.357422 l -18.19922,3.69336 -17.34179,3.425781 c -3.0722,0.65674 -3.66824,2.371606 -3.59571,5.082031 l 0.0469,42.306641 c -0.13962,2.973501 -0.46207,4.605067 -3.88282,5.152343 -12.10602,1.801889 -14.4545,5.552265 -14.38085,10.882813 0.0733,5.308775 4.37571,9.562544 10.30664,8.964844 5.20132,-0.57853 9.07593,-2.093615 11.45703,-6.904297 0.92183,-1.811914 1.23577,-5.581152 1.00781,-9.396485 l -0.0488,-33.652343 c 0.01,-2.355753 -0.38947,-3.667024 2.73242,-4.314454 l 16.34961,-3.294921 2.44336,-0.492188 v -0.0039 l 11.15821,-2.25 c 1.81449,-0.365976 2.66769,0.253898 2.69531,2.300781 l 0.0488,25.144531 c -0.13962,2.973501 -0.42887,4.335537 -3.84961,4.882813 -12.10603,1.801889 -14.48967,5.821796 -14.41602,11.152344 0.0733,5.308775 4.44407,9.293012 10.375,8.695312 5.20132,-0.57853 8.94117,-1.9236929 11.32227,-6.734375 0.92183,-1.811914 0.9971,-5.411792 1.07422,-9.294922 l -0.0312,-51.482422 c -0.002,-2.895455 -0.4957,-4.178618 -2.59571,-4.220703 z"
       id="path992"
       inkscape:connector-curvature="0" />
    <path
       id="path994"
       d="m 377.5082,-79.329457 c -0.7,-0.01403 -1.57748,0.109171 -2.67578,0.357422 l -18.19922,3.69336 -17.34179,3.425781 c -3.0722,0.65674 -3.66824,2.371606 -3.59571,5.082031 l 0.0469,42.306641 c -0.13962,2.973501 -0.46207,4.605067 -3.88282,5.152343 -12.10602,1.801889 -14.4545,5.552265 -14.38085,10.882813 0.0733,5.308775 4.37571,9.562544 10.30664,8.964844 5.20132,-0.57853 9.07593,-2.093615 11.45703,-6.904297 0.92183,-1.811914 1.23577,-5.581152 1.00781,-9.396485 l -0.0488,-33.652343 c 0.01,-2.355753 -0.38947,-3.667024 2.73242,-4.314454 l 16.34961,-3.294921 2.44336,-0.492188 v -0.0039 l 11.15821,-2.25 c 1.81449,-0.365976 2.66769,0.253898 2.69531,2.300781 l 0.0488,25.144531 c -0.13962,2.973501 -0.42887,4.335537 -3.84961,4.882813 -12.10603,1.801889 -14.48967,5.821796 -14.41602,11.152344 0.0733,5.308775 4.44407,9.293012 10.375,8.695312 5.20132,-0.57853 8.94117,-1.9236929 11.32227,-6.734375 0.92183,-1.811914 0.9971,-5.411792 1.07422,-9.294922 l -0.0312,-51.482422 c -0.002,-2.895455 -0.4957,-4.178618 -2.59571,-4.220703 z"
       style="fill:none;stroke:#111214;stroke-width:3.0999999;stroke-linecap:round;stroke-linejoin:round;stroke-miterlimit:4;stroke-dasharray:none;stroke-opacity:0.01176471"
       inkscape:connector-curvature="0" />
    <path
       style="fill:none;stroke:#111214;stroke-width:3.9000001;stroke-linecap:round;stroke-linejoin:round;stroke-miterlimit:4;stroke-dasharray:none;stroke-opacity:0.01176471"
       d="m 377.5082,-79.329457 c -0.7,-0.01403 -1.57748,0.109171 -2.67578,0.357422 l -18.19922,3.69336 -17.34179,3.425781 c -3.0722,0.65674 -3.66824,2.371606 -3.59571,5.082031 l 0.0469,42.306641 c -0.13962,2.973501 -0.46207,4.605067 -3.88282,5.152343 -12.10602,1.801889 -14.4545,5.552265 -14.38085,10.882813 0.0733,5.308775 4.37571,9.562544 10.30664,8.964844 5.20132,-0.57853 9.07593,-2.093615 11.45703,-6.904297 0.92183,-1.811914 1.23577,-5.581152 1.00781,-9.396485 l -0.0488,-33.652343 c 0.01,-2.355753 -0.38947,-3.667024 2.73242,-4.314454 l 16.34961,-3.294921 2.44336,-0.492188 v -0.0039 l 11.15821,-2.25 c 1.81449,-0.365976 2.66769,0.253898 2.69531,2.300781 l 0.0488,25.144531 c -0.13962,2.973501 -0.42887,4.335537 -3.84961,4.882813 -12.10603,1.801889 -14.48967,5.821796 -14.41602,11.152344 0.0733,5.308775 4.44407,9.293012 10.375,8.695312 5.20132,-0.57853 8.94117,-1.9236929 11.32227,-6.734375 0.92183,-1.811914 0.9971,-5.411792 1.07422,-9.294922 l -0.0312,-51.482422 c -0.002,-2.895455 -0.4957,-4.178618 -2.59571,-4.220703 z"
       id="path996"
       inkscape:connector-curvature="0" />
    <path
       id="path998"
       d="m 377.5082,-79.329457 c -0.7,-0.01403 -1.57748,0.109171 -2.67578,0.357422 l -18.19922,3.69336 -17.34179,3.425781 c -3.0722,0.65674 -3.66824,2.371606 -3.59571,5.082031 l 0.0469,42.306641 c -0.13962,2.973501 -0.46207,4.605067 -3.88282,5.152343 -12.10602,1.801889 -14.4545,5.552265 -14.38085,10.882813 0.0733,5.308775 4.37571,9.562544 10.30664,8.964844 5.20132,-0.57853 9.07593,-2.093615 11.45703,-6.904297 0.92183,-1.811914 1.23577,-5.581152 1.00781,-9.396485 l -0.0488,-33.652343 c 0.01,-2.355753 -0.38947,-3.667024 2.73242,-4.314454 l 16.34961,-3.294921 2.44336,-0.492188 v -0.0039 l 11.15821,-2.25 c 1.81449,-0.365976 2.66769,0.253898 2.69531,2.300781 l 0.0488,25.144531 c -0.13962,2.973501 -0.42887,4.335537 -3.84961,4.882813 -12.10603,1.801889 -14.48967,5.821796 -14.41602,11.152344 0.0733,5.308775 4.44407,9.293012 10.375,8.695312 5.20132,-0.57853 8.94117,-1.9236929 11.32227,-6.734375 0.92183,-1.811914 0.9971,-5.411792 1.07422,-9.294922 l -0.0312,-51.482422 c -0.002,-2.895455 -0.4957,-4.178618 -2.59571,-4.220703 z"
       style="fill:none;stroke:#111214;stroke-width:4.69999981;stroke-linecap:round;stroke-linejoin:round;stroke-miterlimit:4;stroke-dasharray:none;stroke-opacity:0.01176471"
       inkscape:connector-curvature="0" />
    <path
       style="fill:none;stroke:#111214;stroke-width:5.5;stroke-linecap:round;stroke-linejoin:round;stroke-miterlimit:4;stroke-dasharray:none;stroke-opacity:0.01176471"
       d="m 377.5082,-79.329457 c -0.7,-0.01403 -1.57748,0.109171 -2.67578,0.357422 l -18.19922,3.69336 -17.34179,3.425781 c -3.0722,0.65674 -3.66824,2.371606 -3.59571,5.082031 l 0.0469,42.306641 c -0.13962,2.973501 -0.46207,4.605067 -3.88282,5.152343 -12.10602,1.801889 -14.4545,5.552265 -14.38085,10.882813 0.0733,5.308775 4.37571,9.562544 10.30664,8.964844 5.20132,-0.57853 9.07593,-2.093615 11.45703,-6.904297 0.92183,-1.811914 1.23577,-5.581152 1.00781,-9.396485 l -0.0488,-33.652343 c 0.01,-2.355753 -0.38947,-3.667024 2.73242,-4.314454 l 16.34961,-3.294921 2.44336,-0.492188 v -0.0039 l 11.15821,-2.25 c 1.81449,-0.365976 2.66769,0.253898 2.69531,2.300781 l 0.0488,25.144531 c -0.13962,2.973501 -0.42887,4.335537 -3.84961,4.882813 -12.10603,1.801889 -14.48967,5.821796 -14.41602,11.152344 0.0733,5.308775 4.44407,9.293012 10.375,8.695312 5.20132,-0.57853 8.94117,-1.9236929 11.32227,-6.734375 0.92183,-1.811914 0.9971,-5.411792 1.07422,-9.294922 l -0.0312,-51.482422 c -0.002,-2.895455 -0.4957,-4.178618 -2.59571,-4.220703 z"
       id="path1000"
       inkscape:connector-curvature="0" />
    <path
       id="path1002"
       d="m 377.5082,-79.329457 c -0.7,-0.01403 -1.57748,0.109171 -2.67578,0.357422 l -18.19922,3.69336 -17.34179,3.425781 c -3.0722,0.65674 -3.66824,2.371606 -3.59571,5.082031 l 0.0469,42.306641 c -0.13962,2.973501 -0.46207,4.605067 -3.88282,5.152343 -12.10602,1.801889 -14.4545,5.552265 -14.38085,10.882813 0.0733,5.308775 4.37571,9.562544 10.30664,8.964844 5.20132,-0.57853 9.07593,-2.093615 11.45703,-6.904297 0.92183,-1.811914 1.23577,-5.581152 1.00781,-9.396485 l -0.0488,-33.652343 c 0.01,-2.355753 -0.38947,-3.667024 2.73242,-4.314454 l 16.34961,-3.294921 2.44336,-0.492188 v -0.0039 l 11.15821,-2.25 c 1.81449,-0.365976 2.66769,0.253898 2.69531,2.300781 l 0.0488,25.144531 c -0.13962,2.973501 -0.42887,4.335537 -3.84961,4.882813 -12.10603,1.801889 -14.48967,5.821796 -14.41602,11.152344 0.0733,5.308775 4.44407,9.293012 10.375,8.695312 5.20132,-0.57853 8.94117,-1.9236929 11.32227,-6.734375 0.92183,-1.811914 0.9971,-5.411792 1.07422,-9.294922 l -0.0312,-51.482422 c -0.002,-2.895455 -0.4957,-4.178618 -2.59571,-4.220703 z"
       style="fill:none;stroke:#111214;stroke-width:6.5;stroke-linecap:round;stroke-linejoin:round;stroke-miterlimit:4;stroke-dasharray:none;stroke-opacity:0.01176471"
       inkscape:connector-curvature="0" />
    <path
       style="fill:none;stroke:#111214;stroke-width:7.5;stroke-linecap:round;stroke-linejoin:round;stroke-miterlimit:4;stroke-dasharray:none;stroke-opacity:0.01176471"
       d="m 377.5082,-79.329457 c -0.7,-0.01403 -1.57748,0.109171 -2.67578,0.357422 l -18.19922,3.69336 -17.34179,3.425781 c -3.0722,0.65674 -3.66824,2.371606 -3.59571,5.082031 l 0.0469,42.306641 c -0.13962,2.973501 -0.46207,4.605067 -3.88282,5.152343 -12.10602,1.801889 -14.4545,5.552265 -14.38085,10.882813 0.0733,5.308775 4.37571,9.562544 10.30664,8.964844 5.20132,-0.57853 9.07593,-2.093615 11.45703,-6.904297 0.92183,-1.811914 1.23577,-5.581152 1.00781,-9.396485 l -0.0488,-33.652343 c 0.01,-2.355753 -0.38947,-3.667024 2.73242,-4.314454 l 16.34961,-3.294921 2.44336,-0.492188 v -0.0039 l 11.15821,-2.25 c 1.81449,-0.365976 2.66769,0.253898 2.69531,2.300781 l 0.0488,25.144531 c -0.13962,2.973501 -0.42887,4.335537 -3.84961,4.882813 -12.10603,1.801889 -14.48967,5.821796 -14.41602,11.152344 0.0733,5.308775 4.44407,9.293012 10.375,8.695312 5.20132,-0.57853 8.94117,-1.9236929 11.32227,-6.734375 0.92183,-1.811914 0.9971,-5.411792 1.07422,-9.294922 l -0.0312,-51.482422 c -0.002,-2.895455 -0.4957,-4.178618 -2.59571,-4.220703 z"
       id="path1004"
       inkscape:connector-curvature="0" />
    <path
       id="path1006"
       d="m 377.5082,-79.329457 c -0.7,-0.01403 -1.57748,0.109171 -2.67578,0.357422 l -18.19922,3.69336 -17.34179,3.425781 c -3.0722,0.65674 -3.66824,2.371606 -3.59571,5.082031 l 0.0469,42.306641 c -0.13962,2.973501 -0.46207,4.605067 -3.88282,5.152343 -12.10602,1.801889 -14.4545,5.552265 -14.38085,10.882813 0.0733,5.308775 4.37571,9.562544 10.30664,8.964844 5.20132,-0.57853 9.07593,-2.093615 11.45703,-6.904297 0.92183,-1.811914 1.23577,-5.581152 1.00781,-9.396485 l -0.0488,-33.652343 c 0.01,-2.355753 -0.38947,-3.667024 2.73242,-4.314454 l 16.34961,-3.294921 2.44336,-0.492188 v -0.0039 l 11.15821,-2.25 c 1.81449,-0.365976 2.66769,0.253898 2.69531,2.300781 l 0.0488,25.144531 c -0.13962,2.973501 -0.42887,4.335537 -3.84961,4.882813 -12.10603,1.801889 -14.48967,5.821796 -14.41602,11.152344 0.0733,5.308775 4.44407,9.293012 10.375,8.695312 5.20132,-0.57853 8.94117,-1.9236929 11.32227,-6.734375 0.92183,-1.811914 0.9971,-5.411792 1.07422,-9.294922 l -0.0312,-51.482422 c -0.002,-2.895455 -0.4957,-4.178618 -2.59571,-4.220703 z"
       style="fill:none;stroke:#111214;stroke-width:9;stroke-linecap:round;stroke-linejoin:round;stroke-miterlimit:4;stroke-dasharray:none;stroke-opacity:0.01176471"
       inkscape:connector-curvature="0" />
    <path
       style="fill:none;stroke:#111214;stroke-width:10.5;stroke-linecap:round;stroke-linejoin:round;stroke-miterlimit:4;stroke-dasharray:none;stroke-opacity:0.01176471"
       d="m 377.5082,-79.329457 c -0.7,-0.01403 -1.57748,0.109171 -2.67578,0.357422 l -18.19922,3.69336 -17.34179,3.425781 c -3.0722,0.65674 -3.66824,2.371606 -3.59571,5.082031 l 0.0469,42.306641 c -0.13962,2.973501 -0.46207,4.605067 -3.88282,5.152343 -12.10602,1.801889 -14.4545,5.552265 -14.38085,10.882813 0.0733,5.308775 4.37571,9.562544 10.30664,8.964844 5.20132,-0.57853 9.07593,-2.093615 11.45703,-6.904297 0.92183,-1.811914 1.23577,-5.581152 1.00781,-9.396485 l -0.0488,-33.652343 c 0.01,-2.355753 -0.38947,-3.667024 2.73242,-4.314454 l 16.34961,-3.294921 2.44336,-0.492188 v -0.0039 l 11.15821,-2.25 c 1.81449,-0.365976 2.66769,0.253898 2.69531,2.300781 l 0.0488,25.144531 c -0.13962,2.973501 -0.42887,4.335537 -3.84961,4.882813 -12.10603,1.801889 -14.48967,5.821796 -14.41602,11.152344 0.0733,5.308775 4.44407,9.293012 10.375,8.695312 5.20132,-0.57853 8.94117,-1.9236929 11.32227,-6.734375 0.92183,-1.811914 0.9971,-5.411792 1.07422,-9.294922 l -0.0312,-51.482422 c -0.002,-2.895455 -0.4957,-4.178618 -2.59571,-4.220703 z"
       id="path1008"
       inkscape:connector-curvature="0" />
  </g>
  <g
     id="g974"
     transform="translate(-266.84747,-2.1694915)">
    <path
       sodipodi:nodetypes="cccccscccccccc"
       inkscape:connector-curvature="0"
       id="path863"
       d="m 337.85679,29.580322 -19.17577,3.787215 c -3.0722,0.65674 -3.66799,2.371157 -3.59546,5.081582 l 0.048,42.306559 c -0.13962,2.973501 -0.46236,4.606214 -3.8831,5.15349 -12.10603,1.801889 -14.45566,5.551709 -14.38201,10.882257 0.0733,5.308775 4.37623,9.562375 10.30716,8.964675 5.20132,-0.57853 9.07643,-2.0926 11.45753,-6.903282 0.92183,-1.811914 1.23469,-5.580798 1.00673,-9.396131 l -0.0479,-33.653489 c 0.01,-2.355753 -0.38934,-3.66712 2.73255,-4.31455 l 16.34863,-3.29475 2.44363,-0.492467 z"
       style="fill:url(#linearGradient909);fill-opacity:1;stroke:none;stroke-width:0.1;stroke-linecap:butt;stroke-linejoin:miter;stroke-miterlimit:4;stroke-dasharray:none;stroke-opacity:1" />
    <path
       style="fill:url(#linearGradient901);fill-opacity:1;stroke:none;stroke-width:0.1;stroke-linecap:butt;stroke-linejoin:miter;stroke-miterlimit:4;stroke-dasharray:none;stroke-opacity:1"
       d="m 354.97118,47.749371 0.048,25.144238 c -0.13962,2.973501 -0.42846,4.335028 -3.8492,4.882304 -12.10603,1.801889 -14.48956,5.822895 -14.41591,11.153443 0.0733,5.308775 4.44403,9.291189 10.37496,8.693489 5.20132,-0.57853 8.94083,-1.923109 11.32193,-6.733791 0.92183,-1.811914 0.99741,-5.411306 1.07453,-9.294436 l -0.032,-51.482558 c -0.002,-3.860607 -0.87855,-4.856317 -5.27176,-3.863311 l -18.81993,3.819392 3.35487,18.105993 13.51798,-2.726528 c 1.81449,-0.365976 2.66887,0.254882 2.69649,2.301765 z"
       id="path865"
       inkscape:connector-curvature="0"
       sodipodi:nodetypes="cccscccccccscc" />
    <path
       sodipodi:nodetypes="cccscccccccscc"
       inkscape:connector-curvature="0"
       id="path911"
       d="m 354.97118,47.749371 0.048,25.144238 c -0.13962,2.973501 -0.42846,4.335028 -3.8492,4.882304 -12.10603,1.801889 -14.48956,5.822895 -14.41591,11.153443 0.0733,5.308775 4.44403,9.291189 10.37496,8.693489 5.20132,-0.57853 8.94083,-1.923109 11.32193,-6.733791 0.92183,-1.811914 0.99741,-5.411306 1.07453,-9.294436 l -0.032,-51.482558 c -0.002,-3.860607 -0.87855,-4.856317 -5.27176,-3.863311 l -18.81993,3.819392 3.35487,18.105993 13.51798,-2.726528 c 1.81449,-0.365976 2.66887,0.254882 2.69649,2.301765 z"
       style="fill:url(#linearGradient921);fill-opacity:1;stroke:none;stroke-width:0.1;stroke-linecap:butt;stroke-linejoin:miter;stroke-miterlimit:4;stroke-dasharray:none;stroke-opacity:1" />
    <path
       style="fill:url(#linearGradient937);fill-opacity:1;stroke:none;stroke-width:0.1;stroke-linecap:butt;stroke-linejoin:miter;stroke-miterlimit:4;stroke-dasharray:none;stroke-opacity:1"
       d="m 354.97118,47.749371 0.048,25.144238 c -0.13962,2.973501 -0.42846,4.335028 -3.8492,4.882304 -12.10603,1.801889 -14.48956,5.822895 -14.41591,11.153443 0.0733,5.308775 4.44403,9.291189 10.37496,8.693489 5.20132,-0.57853 8.94083,-1.923109 11.32193,-6.733791 0.92183,-1.811914 0.99741,-5.411306 1.07453,-9.294436 l -0.032,-51.482558 c -0.002,-3.860607 -0.87855,-4.856317 -5.27176,-3.863311 l -18.81993,3.819392 3.35487,18.105993 13.51798,-2.726528 c 1.81449,-0.365976 2.66887,0.254882 2.69649,2.301765 z"
       id="path929"
       inkscape:connector-curvature="0"
       sodipodi:nodetypes="cccscccccccscc" />
    <path
       style="fill:url(#linearGradient949);fill-opacity:1;stroke:none;stroke-width:0.1;stroke-linecap:butt;stroke-linejoin:miter;stroke-miterlimit:4;stroke-dasharray:none;stroke-opacity:1"
       d="m 337.85679,29.580322 -19.17577,3.787215 c -3.0722,0.65674 -3.66799,2.371157 -3.59546,5.081582 l 0.048,42.306559 c -0.13962,2.973501 -0.46236,4.606214 -3.8831,5.15349 -12.10603,1.801889 -14.45566,5.551709 -14.38201,10.882257 0.0733,5.308775 4.37623,9.562375 10.30716,8.964675 5.20132,-0.57853 9.07643,-2.0926 11.45753,-6.903282 0.92183,-1.811914 1.23469,-5.580798 1.00673,-9.396131 l -0.0479,-33.653489 c 0.01,-2.355753 -0.38934,-3.66712 2.73255,-4.31455 l 16.34863,-3.29475 2.44363,-0.492467 z"
       id="path939"
       inkscape:connector-curvature="0"
       sodipodi:nodetypes="cccccscccccccc" />
  </g>
</svg>
