<?xml version="1.0" encoding="UTF-8" standalone="no"?>
<!-- Created with Inkscape (http://www.inkscape.org/) -->

<svg
   xmlns:osb="http://www.openswatchbook.org/uri/2009/osb"
   xmlns:dc="http://purl.org/dc/elements/1.1/"
   xmlns:cc="http://creativecommons.org/ns#"
   xmlns:rdf="http://www.w3.org/1999/02/22-rdf-syntax-ns#"
   xmlns:svg="http://www.w3.org/2000/svg"
   xmlns="http://www.w3.org/2000/svg"
   xmlns:xlink="http://www.w3.org/1999/xlink"
   xmlns:sodipodi="http://sodipodi.sourceforge.net/DTD/sodipodi-0.dtd"
   xmlns:inkscape="http://www.inkscape.org/namespaces/inkscape"
   id="svg2"
   version="1.1"
   inkscape:version="0.92.4 5da689c313, 2019-01-14"
   width="128"
   height="128"
   viewBox="0 0 128 128"
   sodipodi:docname="liveinst.svg">
  <metadata
     id="metadata8">
    <rdf:RDF>
      <cc:Work
         rdf:about="">
        <dc:format>image/svg+xml</dc:format>
        <dc:type
           rdf:resource="http://purl.org/dc/dcmitype/StillImage" />
        <dc:title></dc:title>
      </cc:Work>
    </rdf:RDF>
  </metadata>
  <defs
     id="defs6">
    <linearGradient
       inkscape:collect="always"
       id="linearGradient1193">
      <stop
         style="stop-color:#000000;stop-opacity:1;"
         offset="0"
         id="stop1189" />
      <stop
         style="stop-color:#000000;stop-opacity:0;"
         offset="1"
         id="stop1191" />
    </linearGradient>
    <linearGradient
       inkscape:collect="always"
       id="linearGradient5164">
      <stop
         style="stop-color:#bdc4c8;stop-opacity:1;"
         offset="0"
         id="stop5166" />
      <stop
         style="stop-color:#696e6f;stop-opacity:1"
         offset="1"
         id="stop5168" />
    </linearGradient>
    <linearGradient
       inkscape:collect="always"
       id="linearGradient4340">
      <stop
         style="stop-color:#000000;stop-opacity:1;"
         offset="0"
         id="stop4342" />
      <stop
         style="stop-color:#313131;stop-opacity:1"
         offset="1"
         id="stop4344" />
    </linearGradient>
    <linearGradient
       inkscape:collect="always"
       id="linearGradient4330">
      <stop
         style="stop-color:#8a8a8a;stop-opacity:1;"
         offset="0"
         id="stop4332" />
      <stop
         style="stop-color:#3d3c3c;stop-opacity:1"
         offset="1"
         id="stop4334" />
    </linearGradient>
    <linearGradient
       inkscape:collect="always"
       id="linearGradient4312">
      <stop
         style="stop-color:#373737;stop-opacity:1;"
         offset="0"
         id="stop4314" />
      <stop
         style="stop-color:#454545;stop-opacity:1"
         offset="1"
         id="stop4316" />
    </linearGradient>
    <linearGradient
       inkscape:collect="always"
       id="linearGradient4285">
      <stop
         style="stop-color:#e3e8ea;stop-opacity:1"
         offset="0"
         id="stop4287" />
      <stop
         id="stop4293"
         offset="0.60000002"
         style="stop-color:#bdcace;stop-opacity:1" />
      <stop
         style="stop-color:#6a7173;stop-opacity:1"
         offset="1"
         id="stop4289" />
    </linearGradient>
    <linearGradient
       inkscape:collect="always"
       id="linearGradient4259">
      <stop
         style="stop-color:#e9eff1;stop-opacity:1;"
         offset="0"
         id="stop4261" />
      <stop
         id="stop4267"
         offset="0.1"
         style="stop-color:#918989;stop-opacity:1" />
      <stop
         style="stop-color:#767b7f;stop-opacity:1"
         offset="0.22744797"
         id="stop4269" />
      <stop
         id="stop4271"
         offset="0.41861993"
         style="stop-color:#9ca0a4;stop-opacity:1" />
      <stop
         style="stop-color:#6e7378;stop-opacity:1"
         offset="0.55723983"
         id="stop4273" />
      <stop
         id="stop4275"
         offset="0.70549953"
         style="stop-color:#929699;stop-opacity:1" />
      <stop
         style="stop-color:#84898b;stop-opacity:1"
         offset="0.90499985"
         id="stop4277" />
      <stop
         style="stop-color:#697072;stop-opacity:1"
         offset="1"
         id="stop4263" />
    </linearGradient>
    <linearGradient
       inkscape:collect="always"
       id="linearGradient4241">
      <stop
         style="stop-color:#d3e0e4;stop-opacity:1"
         offset="0"
         id="stop4243" />
      <stop
         style="stop-color:#848b8c;stop-opacity:1"
         offset="1"
         id="stop4245" />
    </linearGradient>
    <linearGradient
       inkscape:collect="always"
       id="linearGradient4203">
      <stop
         style="stop-color:#696f71;stop-opacity:1"
         offset="0"
         id="stop4205" />
      <stop
         style="stop-color:#b8bfc3;stop-opacity:1"
         offset="1"
         id="stop4207" />
    </linearGradient>
    <linearGradient
       inkscape:collect="always"
       id="linearGradient4191">
      <stop
         style="stop-color:#bcc8ca;stop-opacity:1;"
         offset="0"
         id="stop4193" />
      <stop
         style="stop-color:#939da0;stop-opacity:1"
         offset="1"
         id="stop4195" />
    </linearGradient>
    <linearGradient
       inkscape:collect="always"
       id="linearGradient4163">
      <stop
         style="stop-color:#cedee2;stop-opacity:1;"
         offset="0"
         id="stop4165" />
      <stop
         style="stop-color:#848989;stop-opacity:1"
         offset="1"
         id="stop4167" />
    </linearGradient>
    <linearGradient
       inkscape:collect="always"
       id="linearGradient4141">
      <stop
         style="stop-color:#6c6c6b;stop-opacity:1"
         offset="0"
         id="stop4143" />
      <stop
         style="stop-color:#6d727a;stop-opacity:1"
         offset="1"
         id="stop4145" />
    </linearGradient>
    <linearGradient
       inkscape:collect="always"
       xlink:href="#linearGradient4141"
       id="linearGradient4147"
       x1="166.11017"
       y1="136.33453"
       x2="171.50336"
       y2="136.33453"
       gradientUnits="userSpaceOnUse"
       gradientTransform="matrix(0.82504107,0,0,0.83536597,-30.207231,-3.9938467)" />
    <linearGradient
       inkscape:collect="always"
       xlink:href="#linearGradient4163"
       id="linearGradient4169"
       x1="230.56799"
       y1="6.7137246"
       x2="230.56799"
       y2="129.43871"
       gradientUnits="userSpaceOnUse"
       gradientTransform="matrix(0.82504107,0,0,0.83536597,-132.2253,-4.8433714)" />
    <linearGradient
       inkscape:collect="always"
       xlink:href="#linearGradient4141"
       id="linearGradient4173"
       gradientUnits="userSpaceOnUse"
       gradientTransform="matrix(0.82504107,0,0,0.83536597,-134.80566,-3.9938467)"
       x1="166.11017"
       y1="136.33453"
       x2="171.50336"
       y2="136.33453" />
    <linearGradient
       inkscape:collect="always"
       xlink:href="#linearGradient4191"
       id="linearGradient4197"
       x1="134.74577"
       y1="63.389835"
       x2="135.25423"
       y2="83.389839"
       gradientUnits="userSpaceOnUse" />
    <linearGradient
       inkscape:collect="always"
       xlink:href="#linearGradient4203"
       id="linearGradient4209"
       x1="130.72324"
       y1="76.016953"
       x2="154.74577"
       y2="76.016953"
       gradientUnits="userSpaceOnUse" />
    <linearGradient
       inkscape:collect="always"
       xlink:href="#linearGradient4241"
       id="linearGradient4247"
       x1="237.31616"
       y1="11.672863"
       x2="239.68639"
       y2="111.86629"
       gradientUnits="userSpaceOnUse"
       gradientTransform="matrix(0.82504107,0,0,0.83536597,-132.2253,-4.8433714)" />
    <linearGradient
       inkscape:collect="always"
       xlink:href="#linearGradient4259"
       id="linearGradient4265"
       x1="285.30478"
       y1="58.878914"
       x2="177.35001"
       y2="58.878914"
       gradientUnits="userSpaceOnUse"
       gradientTransform="matrix(0.82504107,0,0,0.83536597,-132.2253,-4.8433714)" />
    <linearGradient
       inkscape:collect="always"
       xlink:href="#linearGradient4285"
       id="linearGradient4291"
       x1="223.65343"
       y1="33.812206"
       x2="223.65343"
       y2="79.594376"
       gradientUnits="userSpaceOnUse"
       gradientTransform="matrix(0.82504107,0,0,0.83536597,-132.2253,-4.8433714)" />
    <linearGradient
       inkscape:collect="always"
       xlink:href="#linearGradient4312"
       id="linearGradient4318"
       x1="84.406776"
       y1="168.22034"
       x2="84.406776"
       y2="191.94914"
       gradientUnits="userSpaceOnUse"
       gradientTransform="matrix(0.82504107,0,0,0.83536597,-3.9703388,-41.797696)" />
    <linearGradient
       inkscape:collect="always"
       xlink:href="#linearGradient4330"
       id="linearGradient4336"
       x1="242.09418"
       y1="131.03545"
       x2="173.32027"
       y2="131.03545"
       gradientUnits="userSpaceOnUse"
       gradientTransform="matrix(0.82504107,0,0,0.83536597,-132.2253,-4.8433714)" />
    <linearGradient
       inkscape:collect="always"
       xlink:href="#linearGradient4340"
       id="linearGradient4346"
       x1="120.59322"
       y1="137.54237"
       x2="118.64407"
       y2="139.06779"
       gradientUnits="userSpaceOnUse"
       gradientTransform="translate(-46.261562)" />
    <linearGradient
       inkscape:collect="always"
       xlink:href="#linearGradient4340"
       id="linearGradient4352"
       gradientUnits="userSpaceOnUse"
       gradientTransform="translate(-39.989484)"
       x1="120.59322"
       y1="137.54237"
       x2="118.64407"
       y2="139.06779" />
    <linearGradient
       inkscape:collect="always"
       xlink:href="#linearGradient4340"
       id="linearGradient4356"
       gradientUnits="userSpaceOnUse"
       gradientTransform="translate(-33.717408)"
       x1="120.59322"
       y1="137.54237"
       x2="118.64407"
       y2="139.06779" />
    <linearGradient
       inkscape:collect="always"
       xlink:href="#linearGradient4340"
       id="linearGradient4360"
       gradientUnits="userSpaceOnUse"
       gradientTransform="translate(-27.44533)"
       x1="120.59322"
       y1="137.54237"
       x2="118.64407"
       y2="139.06779" />
    <linearGradient
       inkscape:collect="always"
       xlink:href="#linearGradient4340"
       id="linearGradient4364"
       gradientUnits="userSpaceOnUse"
       gradientTransform="translate(-21.173258)"
       x1="120.59322"
       y1="137.54237"
       x2="118.64407"
       y2="139.06779" />
    <linearGradient
       inkscape:collect="always"
       xlink:href="#linearGradient4340"
       id="linearGradient4368"
       gradientUnits="userSpaceOnUse"
       gradientTransform="translate(-14.901181)"
       x1="120.59322"
       y1="137.54237"
       x2="118.64407"
       y2="139.06779" />
    <linearGradient
       inkscape:collect="always"
       xlink:href="#linearGradient4340"
       id="linearGradient4372"
       gradientUnits="userSpaceOnUse"
       gradientTransform="translate(-8.6290998)"
       x1="120.59322"
       y1="137.54237"
       x2="118.64407"
       y2="139.06779" />
    <linearGradient
       osb:paint="solid"
       id="linearGradient6987">
      <stop
         id="stop6985"
         offset="0"
         style="stop-color:#77d2fb;stop-opacity:1;" />
    </linearGradient>
    <linearGradient
       inkscape:collect="always"
       xlink:href="#linearGradient5164"
       id="linearGradient5170"
       x1="167.68221"
       y1="75.317802"
       x2="148.32626"
       y2="75.317802"
       gradientUnits="userSpaceOnUse" />
    <linearGradient
       y2="1146.8351"
       y1="1116.8074"
       x2="-22.211618"
       x1="-20.764721"
       gradientUnits="userSpaceOnUse"
       id="e"
       gradientTransform="matrix(2.213863,0,0,2.213863,289.84755,-2436.2025)">
      <stop
         style="stop-color:#54c0fb;stop-opacity:1"
         id="stop25"
         stop-color="#1296d5"
         offset="0" />
      <stop
         style="stop-color:#1c8dfa;stop-opacity:1"
         id="stop27"
         stop-color="#4fb6e8"
         offset="1" />
    </linearGradient>
    <linearGradient
       gradientTransform="matrix(1.097561,0,0,1.097561,-11.913785,63.225078)"
       gradientUnits="userSpaceOnUse"
       y2="57.289322"
       x2="103.0698"
       y1="3.1177506"
       x1="98.755257"
       id="linearGradient4177"
       xlink:href="#e"
       inkscape:collect="always" />
    <filter
       style="color-interpolation-filters:sRGB"
       id="c"
       height="1.1655999"
       width="1.1655999"
       x="-0.082800001"
       y="-0.082800001">
      <feGaussianBlur
         stdDeviation="2.1101835"
         id="feGaussianBlur10" />
    </filter>
    <filter
       style="color-interpolation-filters:sRGB"
       id="a"
       height="1.031026"
       width="1.031376"
       x="-0.015688"
       y="-0.015513">
      <feGaussianBlur
         stdDeviation=".7986332"
         id="feGaussianBlur2" />
    </filter>
    <clipPath
       id="clipPath16"
       clipPathUnits="userSpaceOnUse">
      <path
         inkscape:connector-curvature="0"
         id="path18"
         d="m 0,200.303 320,0 L 320,0 0,0 0,200.303 Z" />
    </clipPath>
    <filter
       id="alpha"
       width="100%"
       height="100%"
       x="0%"
       y="0%"
       filterUnits="objectBoundingBox">
      <feColorMatrix
         in="SourceGraphic"
         type="matrix"
         values="0 0 0 0 1 0 0 0 0 1 0 0 0 0 1 0 0 0 1 0"
         id="feColorMatrix823" />
    </filter>
    <mask
       id="mask0">
      <g
         filter="url(#alpha)"
         id="g828">
        <rect
           width="384"
           height="384"
           x="0"
           y="0"
           style="fill:rgb(0%,0%,0%);fill-opacity:0.2"
           id="rect826" />
      </g>
    </mask>
    <clipPath
       id="clip1">
      <rect
         width="384"
         height="384"
         x="0"
         y="0"
         id="rect831" />
    </clipPath>
    <g
       id="surface5"
       clip-path="url(#clip1)">
      <path
         style="fill:rgb(0%,0%,0%)"
         d="M 128 64 C 114.367188 64.023438 101.386719 69.839844 92.296875 80 L 80 80 C 53.492188 80.003906 32.003906 101.492188 32 128 L 32 232 C 32.003906 258.507812 53.492188 279.996094 80 280 L 86.484375 280 C 95.050781 294.832031 110.871094 303.980469 128 304 L 130.8125 304 C 137.585938 323.152344 155.683594 335.96875 176 336 L 208 336 C 228.320312 335.976562 246.429688 323.160156 253.203125 304 L 256 304 C 273.125 303.972656 288.9375 294.828125 297.5 280 L 304 280 C 330.507812 279.996094 351.996094 258.507812 352 232 L 352 128 C 351.996094 101.492188 330.507812 80.003906 304 80 L 291.703125 80 C 282.613281 69.839844 269.632812 64.023438 256 64 L 224 64 C 212.183594 64.019531 200.789062 68.398438 192 76.296875 C 183.210938 68.398438 171.816406 64.019531 160 64 Z M 128 64"
         id="path834" />
    </g>
    <mask
       id="mask1">
      <g
         filter="url(#alpha)"
         id="g839">
        <rect
           width="384"
           height="384"
           x="0"
           y="0"
           style="fill:rgb(0%,0%,0%);fill-opacity:0.2"
           id="rect837" />
      </g>
    </mask>
    <clipPath
       id="clip2">
      <rect
         width="384"
         height="384"
         x="0"
         y="0"
         id="rect842" />
    </clipPath>
    <g
       id="surface8"
       clip-path="url(#clip2)">
      <path
         style="fill:rgb(0%,0%,0%)"
         d="M 80 128 C 80 136 80 144 80 152 C 90.667969 152 101.332031 152 112 152 C 112 144 112 136 112 128 C 101.332031 128 90.667969 128 80 128 Z M 80 128"
         id="path845" />
      <path
         style="fill:rgb(0%,0%,0%)"
         d="M 80 168 C 80 176 80 184 80 192 C 90.667969 192 101.332031 192 112 192 C 112 184 112 176 112 168 C 101.332031 168 90.667969 168 80 168 Z M 80 168"
         id="path847-8" />
      <path
         style="fill:rgb(0%,0%,0%)"
         d="M 80 208 C 80 216 80 224 80 232 C 90.667969 232 101.332031 232 112 232 C 112 224 112 216 112 208 C 101.332031 208 90.667969 208 80 208 Z M 80 208"
         id="path849-7" />
      <path
         style="fill:rgb(0%,0%,0%)"
         d="M 128 112 C 128 120 128 128 128 136 C 138.667969 136 149.332031 136 160 136 C 160 128 160 120 160 112 C 149.332031 112 138.667969 112 128 112 Z M 128 112"
         id="path851" />
      <path
         style="fill:rgb(0%,0%,0%)"
         d="M 128 152 C 128 160 128 168 128 176 C 138.667969 176 149.332031 176 160 176 C 160 168 160 160 160 152 C 149.332031 152 138.667969 152 128 152 Z M 128 152"
         id="path853" />
      <path
         style="fill:rgb(0%,0%,0%)"
         d="M 128 192 C 128 200 128 208 128 216 C 138.667969 216 149.332031 216 160 216 C 160 208 160 200 160 192 C 149.332031 192 138.667969 192 128 192 Z M 128 192"
         id="path855" />
      <path
         style="fill:rgb(0%,0%,0%)"
         d="M 128 232 C 128 240 128 248 128 256 C 138.667969 256 149.332031 256 160 256 C 160 248 160 240 160 232 C 149.332031 232 138.667969 232 128 232 Z M 128 232"
         id="path857" />
      <path
         style="fill:rgb(0%,0%,0%)"
         d="M 176 144 C 176 152 176 160 176 168 C 186.667969 168 197.332031 168 208 168 C 208 160 208 152 208 144 C 197.332031 144 186.667969 144 176 144 Z M 176 144"
         id="path859" />
      <path
         style="fill:rgb(0%,0%,0%)"
         d="M 176 184 C 176 192 176 200 176 208 C 186.667969 208 197.332031 208 208 208 C 208 200 208 192 208 184 C 197.332031 184 186.667969 184 176 184 Z M 176 184"
         id="path861" />
      <path
         style="fill:rgb(0%,0%,0%)"
         d="M 176 224 C 176 232 176 240 176 248 C 186.667969 248 197.332031 248 208 248 C 208 240 208 232 208 224 C 197.332031 224 186.667969 224 176 224 Z M 176 224"
         id="path863" />
      <path
         style="fill:rgb(0%,0%,0%)"
         d="M 176 264 C 176 272 176 280 176 288 C 186.667969 288 197.332031 288 208 288 C 208 280 208 272 208 264 C 197.332031 264 186.667969 264 176 264 Z M 176 264"
         id="path865" />
      <path
         style="fill:rgb(0%,0%,0%)"
         d="M 304 128 C 304 136 304 144 304 152 C 293.332031 152 282.667969 152 272 152 C 272 144 272 136 272 128 C 282.667969 128 293.332031 128 304 128 Z M 304 128"
         id="path867" />
      <path
         style="fill:rgb(0%,0%,0%)"
         d="M 304 168 C 304 176 304 184 304 192 C 293.332031 192 282.667969 192 272 192 C 272 184 272 176 272 168 C 282.667969 168 293.332031 168 304 168 Z M 304 168"
         id="path869" />
      <path
         style="fill:rgb(0%,0%,0%)"
         d="M 304 208 C 304 216 304 224 304 232 C 293.332031 232 282.667969 232 272 232 C 272 224 272 216 272 208 C 282.667969 208 293.332031 208 304 208 Z M 304 208"
         id="path871" />
      <path
         style="fill:rgb(0%,0%,0%)"
         d="M 256 112 C 256 120 256 128 256 136 C 245.332031 136 234.667969 136 224 136 C 224 128 224 120 224 112 C 234.667969 112 245.332031 112 256 112 Z M 256 112"
         id="path873" />
      <path
         style="fill:rgb(0%,0%,0%)"
         d="M 256 152 C 256 160 256 168 256 176 C 245.332031 176 234.667969 176 224 176 C 224 168 224 160 224 152 C 234.667969 152 245.332031 152 256 152 Z M 256 152"
         id="path875" />
      <path
         style="fill:rgb(0%,0%,0%)"
         d="M 256 192 C 256 200 256 208 256 216 C 245.332031 216 234.667969 216 224 216 C 224 208 224 200 224 192 C 234.667969 192 245.332031 192 256 192 Z M 256 192"
         id="path877" />
      <path
         style="fill:rgb(0%,0%,0%)"
         d="M 256 232 C 256 240 256 248 256 256 C 245.332031 256 234.667969 256 224 256 C 224 248 224 240 224 232 C 234.667969 232 245.332031 232 256 232 Z M 256 232"
         id="path879" />
    </g>
    <mask
       id="mask2">
      <g
         filter="url(#alpha)"
         id="g884">
        <rect
           width="384"
           height="384"
           x="0"
           y="0"
           style="fill:rgb(0%,0%,0%);fill-opacity:0.290196"
           id="rect882" />
      </g>
    </mask>
    <clipPath
       id="clip3">
      <rect
         width="384"
         height="384"
         x="0"
         y="0"
         id="rect887" />
    </clipPath>
    <g
       id="surface11"
       clip-path="url(#clip3)">
      <path
         style="fill:rgb(100.000%,100.000%,100.000%)"
         d="M 128 56 C 114.367188 56.023438 101.386719 61.839844 92.296875 72 L 80 72 C 53.492188 72.003906 32.003906 93.492188 32 120 L 32 128 C 32.003906 101.492188 53.492188 80.003906 80 80 L 92.296875 80 C 101.386719 69.839844 114.367188 64.023438 128 64 L 160 64 C 171.816406 64.019531 183.210938 68.398438 192 76.296875 C 200.789062 68.398438 212.183594 64.019531 224 64 L 256 64 C 269.632812 64.023438 282.613281 69.839844 291.703125 80 L 304 80 C 330.507812 80.003906 351.996094 101.492188 352 128 L 352 120 C 351.996094 93.492188 330.507812 72.003906 304 72 L 291.703125 72 C 282.613281 61.839844 269.632812 56.023438 256 56 L 224 56 C 212.183594 56.019531 200.789062 60.398438 192 68.296875 C 183.210938 60.398438 171.816406 56.019531 160 56 Z M 128 56"
         id="path890" />
    </g>
    <filter
       id="alpha-0"
       width="100%"
       height="100%"
       x="0%"
       y="0%"
       filterUnits="objectBoundingBox">
      <feColorMatrix
         in="SourceGraphic"
         type="matrix"
         values="0 0 0 0 1 0 0 0 0 1 0 0 0 0 1 0 0 0 1 0"
         id="feColorMatrix864" />
    </filter>
    <mask
       id="mask0-0">
      <g
         filter="url(#alpha)"
         id="g869"
         style="filter:url(#alpha-0)">
        <rect
           width="384"
           height="384"
           x="0"
           y="0"
           style="fill:rgb(0%,0%,0%);fill-opacity:0.301961"
           id="rect867" />
      </g>
    </mask>
    <clipPath
       id="clip1-5">
      <rect
         width="384"
         height="384"
         x="0"
         y="0"
         id="rect872" />
    </clipPath>
    <g
       id="surface5-3"
       clip-path="url(#clip1-5)">
      <path
         style="fill:rgb(0%,0%,0%)"
         d="M 168.203125 339.898438 C 138.5625 336.339844 110.464844 323.269531 78.152344 298.019531 C 68.023438 290.105469 56.875 280.476562 55.933594 278.832031 C 54.523438 276.375 54.855469 273.503906 56.765625 271.59375 C 59.730469 268.625 62.039062 269.203125 74.238281 275.964844 C 112.203125 297.007812 136.375 306.730469 162.863281 311.605469 C 172.945312 313.460938 204.023438 313.476562 215.898438 311.632812 C 240.496094 307.8125 258.472656 302.875 283.027344 293.203125 C 297.113281 287.652344 298.8125 287.46875 302.335938 291.148438 C 304.636719 293.550781 304.988281 297.324219 303.167969 300.101562 C 301.621094 302.460938 292.773438 308.617188 282.78125 314.289062 C 247.457031 334.335938 203.566406 344.144531 168.203125 339.898438 Z M 309.863281 315.40625 C 309.082031 314.625 308.441406 313.199219 308.441406 312.242188 C 308.441406 311.285156 310.171875 305.277344 312.289062 298.894531 C 316.761719 285.398438 317.648438 280.578125 315.960938 278.890625 C 314.144531 277.074219 308.707031 276.664062 299.542969 277.652344 C 283.625 279.367188 281.480469 279.402344 279.933594 278.003906 C 277.792969 276.066406 278.070312 271.980469 280.5 269.703125 C 283.097656 267.269531 289.441406 263.777344 294.308594 262.101562 C 304.0625 258.746094 324.144531 258.257812 330.824219 261.214844 C 335.714844 263.378906 336.578125 265.296875 336.453125 273.738281 C 336.25 287.535156 330.304688 302.582031 321.390625 311.855469 C 317.144531 316.273438 316.3125 316.832031 313.949219 316.832031 C 312.238281 316.832031 310.78125 316.324219 309.863281 315.40625 Z M 145.394531 262.058594 C 133.753906 259.601562 122.777344 253.003906 116.554688 244.730469 C 112.25 239.003906 110.277344 235.027344 107.929688 227.355469 C 106.164062 221.574219 106.015625 220.109375 106.003906 208.628906 C 105.992188 194.035156 107.039062 189.015625 112.351562 178.292969 C 121.636719 159.539062 141.347656 147.578125 172.105469 142.042969 C 179.699219 140.675781 201.4375 138.171875 205.800781 138.160156 C 211.523438 138.144531 211.628906 137.953125 211.628906 127.257812 C 211.628906 112.722656 208.964844 105.179688 202.21875 100.582031 C 197.234375 97.191406 192.847656 95.878906 186.429688 95.863281 C 177.1875 95.839844 169.660156 98.976562 163.726562 105.316406 C 160.128906 109.167969 158.566406 111.875 157.105469 116.789062 C 156.554688 118.644531 155.441406 121.003906 154.628906 122.039062 C 153.367188 123.640625 152.605469 123.914062 149.410156 123.914062 C 147.355469 123.914062 142.28125 123.441406 138.140625 122.859375 C 134 122.277344 127.5 121.453125 123.699219 121.03125 C 115.453125 120.109375 113.839844 119.566406 112.28125 117.191406 C 111.175781 115.503906 111.179688 115.046875 112.355469 110.21875 C 115.414062 97.648438 119.929688 89.609375 129.050781 80.492188 C 139.480469 70.066406 150.589844 64.539062 168.367188 60.941406 C 175.824219 59.429688 179.25 59.136719 189.347656 59.136719 C 215.1875 59.136719 234.644531 65.707031 247.269531 78.699219 C 254.589844 86.230469 258.320312 94.433594 260.113281 106.953125 C 260.660156 110.769531 261.113281 129.476562 261.390625 159.507812 L 261.816406 206.136719 L 264.125 211.472656 C 265.390625 214.410156 268.234375 219.210938 270.441406 222.144531 C 275.761719 229.210938 276.867188 231.585938 275.992188 234.074219 C 275.34375 235.921875 262.523438 247.6875 250.914062 257.089844 C 246.195312 260.914062 245.398438 261.304688 242.328125 261.304688 C 239.074219 261.304688 238.734375 261.097656 233.464844 255.929688 C 230.449219 252.972656 225.878906 247.6875 223.308594 244.183594 C 220.734375 240.679688 218.242188 237.8125 217.769531 237.8125 C 217.292969 237.8125 215.476562 239.292969 213.734375 241.105469 C 206.328125 248.78125 196.613281 255.484375 187.953125 258.890625 C 177.398438 263.042969 157.195312 264.546875 145.394531 262.058594 Z M 184.847656 228.195312 C 194.207031 225.757812 200.683594 219.890625 205.90625 209.121094 C 210.675781 199.285156 211.722656 193.347656 211.46875 177.617188 L 211.269531 165.558594 L 202.730469 165.707031 C 190.527344 165.921875 183.679688 167.304688 175.738281 171.167969 C 161.984375 177.859375 156.082031 188.484375 157.027344 204.847656 C 157.523438 213.410156 159.796875 218.695312 165.050781 223.496094 C 170.800781 228.753906 177.027344 230.230469 184.847656 228.195312 Z M 184.847656 228.195312"
         id="path875-4" />
    </g>
    <mask
       id="mask1-7">
      <g
         filter="url(#alpha)"
         id="g880"
         style="filter:url(#alpha-0)">
        <rect
           width="384"
           height="384"
           x="0"
           y="0"
           style="fill:rgb(0%,0%,0%);fill-opacity:0.14902"
           id="rect878" />
      </g>
    </mask>
    <clipPath
       id="clip2-3">
      <rect
         width="384"
         height="384"
         x="0"
         y="0"
         id="rect883" />
    </clipPath>
    <g
       id="surface8-2"
       clip-path="url(#clip2-3)">
      <path
         style="fill:rgb(0%,0%,0%)"
         d="M 189.347656 51.636719 C 185.855469 51.636719 183.191406 51.675781 180.855469 51.785156 C 203.476562 52.8125 220.726562 59.320312 232.269531 71.199219 C 239.589844 78.730469 243.320312 86.933594 245.113281 99.453125 C 245.660156 103.269531 246.113281 121.976562 246.390625 152.007812 L 246.820312 198.636719 L 249.125 203.976562 C 250.394531 206.910156 253.234375 211.714844 255.441406 214.644531 C 260.761719 221.710938 261.867188 224.085938 260.996094 226.574219 C 260.34375 228.421875 247.527344 240.1875 235.917969 249.589844 C 235.660156 249.796875 235.457031 249.957031 235.222656 250.144531 C 238.863281 253.648438 239.480469 253.804688 242.328125 253.804688 C 245.398438 253.804688 246.195312 253.414062 250.917969 249.589844 C 262.527344 240.1875 275.34375 228.421875 275.996094 226.574219 C 276.867188 224.085938 275.761719 221.710938 270.441406 214.644531 C 268.234375 211.714844 265.394531 206.910156 264.125 203.976562 L 261.820312 198.636719 L 261.390625 152.007812 C 261.113281 121.976562 260.660156 103.269531 260.113281 99.453125 C 258.320312 86.933594 254.589844 78.730469 247.269531 71.199219 C 234.640625 58.203125 215.1875 51.636719 189.347656 51.636719 Z M 189.347656 51.636719"
         id="path886" />
    </g>
    <radialGradient
       inkscape:collect="always"
       xlink:href="#linearGradient1193"
       id="radialGradient1195"
       cx="92.770073"
       cy="93.195396"
       fx="92.770073"
       fy="93.195396"
       r="35.27594"
       gradientUnits="userSpaceOnUse"
       gradientTransform="translate(0.1767767,2.1213203)" />
  </defs>
  <sodipodi:namedview
     pagecolor="#ffffff"
     bordercolor="#666666"
     borderopacity="1"
     objecttolerance="10"
     gridtolerance="10"
     guidetolerance="10"
     inkscape:pageopacity="0"
     inkscape:pageshadow="2"
     inkscape:window-width="1920"
     inkscape:window-height="1026"
     id="namedview4"
     showgrid="false"
     showguides="false"
     inkscape:zoom="1.4142136"
     inkscape:cx="31.034464"
     inkscape:cy="15.7835"
     inkscape:window-x="0"
     inkscape:window-y="30"
     inkscape:window-maximized="1"
     inkscape:current-layer="svg2" />
  <ellipse
     style="opacity:1;fill:#848989;fill-opacity:1;stroke:none;stroke-width:1.96422052;stroke-linecap:round;stroke-linejoin:round;stroke-miterlimit:4;stroke-dasharray:none;stroke-dashoffset:0;stroke-opacity:0.03041825;paint-order:fill markers stroke"
     id="path4189"
     cx="69.806602"
     cy="88.336113"
     rx="0.16542748"
     ry="0.83748853" />
  <rect
     style="opacity:1;fill:url(#linearGradient4318);fill-opacity:1;stroke:none;stroke-width:1.96422052;stroke-linecap:round;stroke-linejoin:round;stroke-miterlimit:4;stroke-dasharray:none;stroke-dashoffset:0;stroke-opacity:0.03041825;paint-order:fill markers stroke"
     id="rect4310"
     width="113.68786"
     height="20.813368"
     x="2.4621713"
     y="98.657036"
     rx="2.9184144"
     ry="2.9549365" />
  <path
     sodipodi:nodetypes="ccsccscc"
     inkscape:connector-curvature="0"
     id="path4383"
     d="m 11.546249,107.29706 h 9.888002 c 13.474959,9.2884 27.443407,9.27754 41.528451,9.27754 h 38.366608 5.73505 c 0,0 0.59327,-14.68389 -0.19776,-14.48364 -0.79105,0.20023 -96.70467,0 -96.70467,0 z"
     style="fill:#000000;fill-opacity:0.08365018;stroke:none;stroke-width:0.98211026px;stroke-linecap:butt;stroke-linejoin:miter;stroke-opacity:1" />
  <path
     style="fill:url(#linearGradient4336);fill-opacity:1;stroke:none;stroke-width:0.98211026px;stroke-linecap:butt;stroke-linejoin:miter;stroke-opacity:1"
     d="m 11.546249,106.58911 h 9.888002 c 13.474959,9.28842 27.443407,9.27756 41.528451,9.27756 h 38.366608 5.73505 c 0,0 0.59327,-14.68389 -0.19776,-14.48365 -0.79105,0.20023 -96.70467,0 -96.70467,0 z"
     id="path4320"
     inkscape:connector-curvature="0"
     sodipodi:nodetypes="ccsccscc" />
  <path
     sodipodi:nodetypes="ccccc"
     inkscape:connector-curvature="0"
     id="path4385"
     d="m 106.21122,100.22515 h 9.29471 v 16.01879 c -2.65216,2.11598 -6.47882,2.17613 -9.29471,0 z"
     style="opacity:1;fill:#000000;fill-opacity:0.17110267;stroke:none;stroke-width:1.96422052;stroke-linecap:round;stroke-linejoin:round;stroke-miterlimit:4;stroke-dasharray:none;stroke-dashoffset:0;stroke-opacity:0.03041825;paint-order:fill markers stroke" />
  <path
     style="opacity:1;fill:url(#linearGradient4147);fill-opacity:1;stroke:none;stroke-width:1.96422052;stroke-linecap:round;stroke-linejoin:round;stroke-miterlimit:4;stroke-dasharray:none;stroke-dashoffset:0;stroke-opacity:0.03041825;paint-order:fill markers stroke"
     d="m 106.84048,99.729592 h 9.29473 v 16.018788 c -2.65218,2.11598 -6.47883,2.17614 -9.29473,0 z"
     id="rect4138"
     inkscape:connector-curvature="0"
     sodipodi:nodetypes="ccccc" />
  <path
     style="opacity:1;fill:#000000;fill-opacity:0.17110267;stroke:none;stroke-width:1.96422052;stroke-linecap:round;stroke-linejoin:round;stroke-miterlimit:4;stroke-dasharray:none;stroke-dashoffset:0;stroke-opacity:0.03041825;paint-order:fill markers stroke"
     d="m 2.8092711,100.25169 h 9.2947229 v 16.01879 c -2.6521691,2.11598 -6.4788247,2.17615 -9.2947229,0 z"
     id="path4387"
     inkscape:connector-curvature="0"
     sodipodi:nodetypes="ccccc" />
  <path
     sodipodi:nodetypes="ccccc"
     inkscape:connector-curvature="0"
     id="path4171"
     d="m 2.2420554,99.729592 h 9.2947226 v 16.018788 c -2.6521683,2.11598 -6.4788249,2.17614 -9.2947226,0 z"
     style="opacity:1;fill:url(#linearGradient4173);fill-opacity:1;stroke:none;stroke-width:1.96422052;stroke-linecap:round;stroke-linejoin:round;stroke-miterlimit:4;stroke-dasharray:none;stroke-dashoffset:0;stroke-opacity:0.03041825;paint-order:fill markers stroke" />
  <path
     style="opacity:1;fill:url(#linearGradient4169);fill-opacity:1;stroke:none;stroke-width:1.96422052;stroke-linecap:round;stroke-linejoin:round;stroke-miterlimit:4;stroke-dasharray:none;stroke-dashoffset:0;stroke-opacity:0.03041825;paint-order:fill markers stroke"
     d="m 15.303701,0.66485058 h 88.003229 c 2.08162,0 3.53489,1.70887062 3.75744,3.80446262 l 9.888,93.1092188 c 0.22254,2.0956 -1.67583,3.800588 -3.75744,3.804468 L 5.6134541,101.58322 c -2.081612,0.004 -3.9751226,-1.708328 -3.7574355,-3.804458 L 11.546258,4.4693132 c 0.217687,-2.0961167 1.675823,-3.80446262 3.757443,-3.80446262 z"
     id="rect4160"
     inkscape:connector-curvature="0"
     sodipodi:nodetypes="sssssssss" />
  <path
     inkscape:connector-curvature="0"
     id="path4257"
     d="M 98.312563,8.4853662 95.778644,7.0605212 73.348517,32.767461 H 63.14511 L 57.756602,32.560498 C 31.843002,31.565201 9.7514393,46.494927 9.7514393,63.430125 c 0,16.935192 21.0215847,30.664337 46.9538297,30.664337 25.932236,0 48.005161,-13.934419 48.005161,-30.869618 0,-1.714008 -0.22641,-3.393671 -0.64039,-5.031079 z"
     style="opacity:1;fill:url(#linearGradient4265);fill-opacity:1;stroke:none;stroke-width:1.96422052;stroke-linecap:round;stroke-linejoin:round;stroke-miterlimit:4;stroke-dasharray:none;stroke-dashoffset:0;stroke-opacity:0.03041825;paint-order:fill markers stroke"
     sodipodi:nodetypes="ccccsssscc" />
  <path
     style="fill:#7a8285;fill-opacity:1;stroke:none;stroke-width:0.98211026px;stroke-linecap:butt;stroke-linejoin:miter;stroke-opacity:1"
     d="m 17.912159,25.10446 h 65.16426 L 81.726025,8.1826742 C 65.279821,9.8651962 26.964262,12.029886 19.753222,22.488399 Z"
     id="path4279"
     inkscape:connector-curvature="0"
     sodipodi:nodetypes="cccsc" />
  <path
     style="opacity:1;fill:url(#linearGradient4291);fill-opacity:1;stroke:none;stroke-width:1.96422052;stroke-linecap:round;stroke-linejoin:round;stroke-miterlimit:4;stroke-dasharray:none;stroke-dashoffset:0;stroke-opacity:0.03041825;paint-order:fill markers stroke"
     d="m 57.725902,29.966264 c -24.404715,-10e-7 -47.352844,14.312678 -47.352844,30.733962 0,6.725427 3.687521,12.793196 9.713571,17.616106 -4.758993,-4.743785 -7.538169,-10.460231 -7.538169,-16.61432 0,-16.421284 20.772727,-29.93286 45.177442,-29.932859 1.715953,0 3.406108,0.07261 5.071107,0.200683 h 9.602381 l 0.841154,-1.678889 z"
     id="path4283"
     inkscape:connector-curvature="0" />
  <path
     style="opacity:1;fill:url(#linearGradient4247);fill-opacity:1;stroke:none;stroke-width:1.96422052;stroke-linecap:round;stroke-linejoin:round;stroke-miterlimit:4;stroke-dasharray:none;stroke-dashoffset:0;stroke-opacity:0.03041825;paint-order:fill markers stroke"
     d="m 96.451006,6.4830172 -75.32339,0.283893 -1.679379,15.7153228 h 57.704544 l -4.753664,9.487603 h -9.60238 c -1.664999,-0.128079 -3.355145,-0.200683 -5.071099,-0.200683 -24.404715,-1e-6 -45.17745,13.511575 -45.17745,29.932859 0,16.421284 19.783329,29.733809 44.188044,29.733809 24.404715,0 45.177438,-13.511577 45.177438,-29.932861 0,-1.661995 -0.21307,-3.290687 -0.60266,-4.878407 z"
     id="path4235"
     inkscape:connector-curvature="0"
     sodipodi:nodetypes="ccccccsssscc" />
  <g
     transform="matrix(0.82504107,0,0,0.83536597,2.5481703,-4.8605849)"
     id="g4175">
    <circle
       style="opacity:1;fill:#383e3f;fill-opacity:1;stroke:none;stroke-width:2;stroke-linecap:round;stroke-linejoin:round;stroke-miterlimit:4;stroke-dasharray:none;stroke-dashoffset:0;stroke-opacity:0.03041825;paint-order:fill markers stroke"
       id="circle4177"
       cx="132.5226"
       cy="121.25893"
       r="3.2658746" />
    <path
       inkscape:connector-curvature="0"
       style="opacity:1;fill:#cdd1d2;fill-opacity:1;stroke:none;stroke-width:2;stroke-linecap:round;stroke-linejoin:round;stroke-miterlimit:4;stroke-dasharray:none;stroke-dashoffset:0;stroke-opacity:0.03041825;paint-order:fill markers stroke"
       d="m 132.52344,117.99219 a 3.2658746,3.2658746 0 0 0 -3.26758,3.26758 3.2658746,3.2658746 0 0 0 0.0703,0.65234 3.2658746,3.2658746 0 0 1 3.19727,-2.60156 3.2658746,3.2658746 0 0 1 3.19531,2.61328 3.2658746,3.2658746 0 0 0 0.0703,-0.66406 3.2658746,3.2658746 0 0 0 -3.26562,-3.26758 z"
       id="path4179" />
  </g>
  <g
     id="g4181"
     transform="matrix(0.82504107,0,0,0.83536597,-102.26465,-4.8605849)">
    <circle
       r="3.2658746"
       cy="121.25893"
       cx="132.5226"
       id="circle4183"
       style="opacity:1;fill:#383e3f;fill-opacity:1;stroke:none;stroke-width:2;stroke-linecap:round;stroke-linejoin:round;stroke-miterlimit:4;stroke-dasharray:none;stroke-dashoffset:0;stroke-opacity:0.03041825;paint-order:fill markers stroke" />
    <path
       id="path4185"
       d="m 132.52344,117.99219 a 3.2658746,3.2658746 0 0 0 -3.26758,3.26758 3.2658746,3.2658746 0 0 0 0.0703,0.65234 3.2658746,3.2658746 0 0 1 3.19727,-2.60156 3.2658746,3.2658746 0 0 1 3.19531,2.61328 3.2658746,3.2658746 0 0 0 0.0703,-0.66406 3.2658746,3.2658746 0 0 0 -3.26562,-3.26758 z"
       style="opacity:1;fill:#cdd1d2;fill-opacity:1;stroke:none;stroke-width:2;stroke-linecap:round;stroke-linejoin:round;stroke-miterlimit:4;stroke-dasharray:none;stroke-dashoffset:0;stroke-opacity:0.03041825;paint-order:fill markers stroke"
       inkscape:connector-curvature="0" />
  </g>
  <g
     id="g4227"
     transform="matrix(0.82504107,0,0,0.83536597,-6.8454337,-4.8433714)">
    <g
       id="g4215"
       transform="matrix(0.83488419,0,0,0.83488419,-89.102787,-38.380912)">
      <circle
         r="3.2658746"
         cy="121.25893"
         cx="132.5226"
         id="circle4217"
         style="opacity:1;fill:#383e3f;fill-opacity:1;stroke:none;stroke-width:2;stroke-linecap:round;stroke-linejoin:round;stroke-miterlimit:4;stroke-dasharray:none;stroke-dashoffset:0;stroke-opacity:0.03041825;paint-order:fill markers stroke" />
      <path
         id="path4219"
         d="m 132.52344,117.99219 a 3.2658746,3.2658746 0 0 0 -3.26758,3.26758 3.2658746,3.2658746 0 0 0 0.0703,0.65234 3.2658746,3.2658746 0 0 1 3.19727,-2.60156 3.2658746,3.2658746 0 0 1 3.19531,2.61328 3.2658746,3.2658746 0 0 0 0.0703,-0.66406 3.2658746,3.2658746 0 0 0 -3.26562,-3.26758 z"
         style="opacity:1;fill:#cdd1d2;fill-opacity:1;stroke:none;stroke-width:2;stroke-linecap:round;stroke-linejoin:round;stroke-miterlimit:4;stroke-dasharray:none;stroke-dashoffset:0;stroke-opacity:0.03041825;paint-order:fill markers stroke"
         inkscape:connector-curvature="0" />
    </g>
    <g
       transform="matrix(0.83488419,0,0,0.83488419,27.390059,-38.380912)"
       id="g4221">
      <circle
         style="opacity:1;fill:#383e3f;fill-opacity:1;stroke:none;stroke-width:2;stroke-linecap:round;stroke-linejoin:round;stroke-miterlimit:4;stroke-dasharray:none;stroke-dashoffset:0;stroke-opacity:0.03041825;paint-order:fill markers stroke"
         id="circle4223"
         cx="132.5226"
         cy="121.25893"
         r="3.2658746" />
      <path
         inkscape:connector-curvature="0"
         style="opacity:1;fill:#cdd1d2;fill-opacity:1;stroke:none;stroke-width:2;stroke-linecap:round;stroke-linejoin:round;stroke-miterlimit:4;stroke-dasharray:none;stroke-dashoffset:0;stroke-opacity:0.03041825;paint-order:fill markers stroke"
         d="m 132.52344,117.99219 a 3.2658746,3.2658746 0 0 0 -3.26758,3.26758 3.2658746,3.2658746 0 0 0 0.0703,0.65234 3.2658746,3.2658746 0 0 1 3.19727,-2.60156 3.2658746,3.2658746 0 0 1 3.19531,2.61328 3.2658746,3.2658746 0 0 0 0.0703,-0.66406 3.2658746,3.2658746 0 0 0 -3.26562,-3.26758 z"
         id="path4225" />
    </g>
  </g>
  <path
     style="fill:#b6c5ca;fill-opacity:1;stroke:none;stroke-width:0.98211026px;stroke-linecap:butt;stroke-linejoin:miter;stroke-opacity:1"
     d="M 17.380181,24.492803 19.05956,9.4751852 20.938278,7.0723672 20.049932,22.290219 Z"
     id="path4281"
     inkscape:connector-curvature="0"
     sodipodi:nodetypes="ccccc" />
  <g
     transform="matrix(0.67519865,0,0,0.68364836,-74.086883,-78.431662)"
     id="g4298"
     style="opacity:0.78200001">
    <circle
       style="opacity:1;fill:#3e6470;fill-opacity:1;stroke:none;stroke-width:2;stroke-linecap:round;stroke-linejoin:round;stroke-miterlimit:4;stroke-dasharray:none;stroke-dashoffset:0;stroke-opacity:0.03041825;paint-order:fill markers stroke"
       id="circle4300"
       cx="132.5226"
       cy="121.25893"
       r="3.2658746" />
    <path
       inkscape:connector-curvature="0"
       style="opacity:1;fill:#cdd1d2;fill-opacity:1;stroke:none;stroke-width:2;stroke-linecap:round;stroke-linejoin:round;stroke-miterlimit:4;stroke-dasharray:none;stroke-dashoffset:0;stroke-opacity:0.03041825;paint-order:fill markers stroke"
       d="m 132.52344,117.99219 a 3.2658746,3.2658746 0 0 0 -3.26758,3.26758 3.2658746,3.2658746 0 0 0 0.0703,0.65234 3.2658746,3.2658746 0 0 1 3.19727,-2.60156 3.2658746,3.2658746 0 0 1 3.19531,2.61328 3.2658746,3.2658746 0 0 0 0.0703,-0.66406 3.2658746,3.2658746 0 0 0 -3.26562,-3.26758 z"
       id="path4302" />
  </g>
  <g
     style="opacity:0.78200001"
     id="g4304"
     transform="matrix(0.67519865,0,0,0.68364836,14.010722,-78.431662)">
    <circle
       r="3.2658746"
       cy="121.25893"
       cx="132.5226"
       id="circle4306"
       style="opacity:1;fill:#3e6470;fill-opacity:1;stroke:none;stroke-width:2;stroke-linecap:round;stroke-linejoin:round;stroke-miterlimit:4;stroke-dasharray:none;stroke-dashoffset:0;stroke-opacity:0.03041825;paint-order:fill markers stroke" />
    <path
       id="path4308"
       d="m 132.52344,117.99219 a 3.2658746,3.2658746 0 0 0 -3.26758,3.26758 3.2658746,3.2658746 0 0 0 0.0703,0.65234 3.2658746,3.2658746 0 0 1 3.19727,-2.60156 3.2658746,3.2658746 0 0 1 3.19531,2.61328 3.2658746,3.2658746 0 0 0 0.0703,-0.66406 3.2658746,3.2658746 0 0 0 -3.26562,-3.26758 z"
       style="opacity:1;fill:#cdd1d2;fill-opacity:1;stroke:none;stroke-width:2;stroke-linecap:round;stroke-linejoin:round;stroke-miterlimit:4;stroke-dasharray:none;stroke-dashoffset:0;stroke-opacity:0.03041825;paint-order:fill markers stroke"
       inkscape:connector-curvature="0" />
  </g>
  <g
     id="g4374"
     transform="matrix(0.82504107,0,0,0.83536597,-7.5375937,-4.8433714)">
    <rect
       ry="0.50847793"
       rx="0.50847793"
       y="127.62712"
       x="72.382507"
       height="16.610163"
       width="3.5593185"
       id="rect4338"
       style="opacity:1;fill:url(#linearGradient4346);fill-opacity:1;stroke:none;stroke-width:2;stroke-linecap:round;stroke-linejoin:round;stroke-miterlimit:4;stroke-dasharray:none;stroke-dashoffset:0;stroke-opacity:1;paint-order:fill markers stroke" />
    <rect
       style="opacity:1;fill:url(#linearGradient4352);fill-opacity:1;stroke:none;stroke-width:2;stroke-linecap:round;stroke-linejoin:round;stroke-miterlimit:4;stroke-dasharray:none;stroke-dashoffset:0;stroke-opacity:1;paint-order:fill markers stroke"
       id="rect4350"
       width="3.5593185"
       height="16.610163"
       x="78.654587"
       y="127.62712"
       rx="0.50847793"
       ry="0.50847793" />
    <rect
       ry="0.50847793"
       rx="0.50847793"
       y="127.62712"
       x="84.926666"
       height="16.610163"
       width="3.5593185"
       id="rect4354"
       style="opacity:1;fill:url(#linearGradient4356);fill-opacity:1;stroke:none;stroke-width:2;stroke-linecap:round;stroke-linejoin:round;stroke-miterlimit:4;stroke-dasharray:none;stroke-dashoffset:0;stroke-opacity:1;paint-order:fill markers stroke" />
    <rect
       style="opacity:1;fill:url(#linearGradient4360);fill-opacity:1;stroke:none;stroke-width:2;stroke-linecap:round;stroke-linejoin:round;stroke-miterlimit:4;stroke-dasharray:none;stroke-dashoffset:0;stroke-opacity:1;paint-order:fill markers stroke"
       id="rect4358"
       width="3.5593185"
       height="16.610163"
       x="91.198746"
       y="127.62712"
       rx="0.50847793"
       ry="0.50847793" />
    <rect
       ry="0.50847793"
       rx="0.50847793"
       y="127.62712"
       x="97.470818"
       height="16.610163"
       width="3.5593185"
       id="rect4362"
       style="opacity:1;fill:url(#linearGradient4364);fill-opacity:1;stroke:none;stroke-width:2;stroke-linecap:round;stroke-linejoin:round;stroke-miterlimit:4;stroke-dasharray:none;stroke-dashoffset:0;stroke-opacity:1;paint-order:fill markers stroke" />
    <rect
       style="opacity:1;fill:url(#linearGradient4368);fill-opacity:1;stroke:none;stroke-width:2;stroke-linecap:round;stroke-linejoin:round;stroke-miterlimit:4;stroke-dasharray:none;stroke-dashoffset:0;stroke-opacity:1;paint-order:fill markers stroke"
       id="rect4366"
       width="3.5593185"
       height="16.610163"
       x="103.7429"
       y="127.62712"
       rx="0.50847793"
       ry="0.50847793" />
    <rect
       ry="0.50847793"
       rx="0.50847793"
       y="127.62712"
       x="110.01498"
       height="16.610163"
       width="3.5593185"
       id="rect4370"
       style="opacity:1;fill:url(#linearGradient4372);fill-opacity:1;stroke:none;stroke-width:2;stroke-linecap:round;stroke-linejoin:round;stroke-miterlimit:4;stroke-dasharray:none;stroke-dashoffset:0;stroke-opacity:1;paint-order:fill markers stroke" />
  </g>
  <path
     style="opacity:1;fill:#c1cdcf;fill-opacity:0.33840308;stroke:none;stroke-width:1.96422052;stroke-linecap:round;stroke-linejoin:round;stroke-miterlimit:4;stroke-dasharray:none;stroke-dashoffset:0;stroke-opacity:0.03041825;paint-order:fill markers stroke"
     d="m 116.90649,97.152862 c -0.32437,1.64602 -1.94917,2.869908 -3.71108,2.873198 L 5.6129583,100.22511 c -1.7648202,0.003 -3.3886001,-1.227778 -3.7110756,-2.879728 l -0.045129,0.434 c -0.2176871,2.09612 1.6745857,3.807368 3.7561971,3.803198 L 113.1954,101.38352 c 2.08161,-0.004 3.97874,-1.709228 3.7562,-3.804828 l -0.0451,-0.42583 z"
     id="path4389"
     inkscape:connector-curvature="0" />
  <g
     transform="matrix(0.82504107,0,0,0.83536597,-64.671853,-6.5141032)"
     id="g5157"
     style="fill:#252828;fill-opacity:0.33460077">
    <circle
       r="0"
       cy="76.016953"
       cx="135.42374"
       id="circle5159"
       style="opacity:1;fill:#252828;fill-opacity:0.33460077;stroke:none;stroke-width:2;stroke-linecap:round;stroke-linejoin:round;stroke-miterlimit:4;stroke-dasharray:none;stroke-dashoffset:0;stroke-opacity:0.03041825;paint-order:fill markers stroke" />
    <path
       style="opacity:1;fill:url(#linearGradient5170);fill-opacity:1;stroke:none;stroke-width:2;stroke-linecap:round;stroke-linejoin:round;stroke-miterlimit:4;stroke-dasharray:none;stroke-dashoffset:0;stroke-opacity:0.03041825;paint-order:fill markers stroke"
       d="m 168.32627,76.067802 c 0,5.897278 -3.15029,13.177967 -19.32203,13.177967 -14.29626,0 -19.07203,-6.530689 -19.07203,-12.427967 0,-5.897277 8.65077,-8.677965 19.32203,-8.677966 10.67126,10e-7 19.07203,2.030689 19.07203,7.927966 z"
       id="ellipse5161"
       inkscape:connector-curvature="0"
       sodipodi:nodetypes="sssss" />
  </g>
  <g
     id="g4211"
     transform="matrix(0.82504107,0,0,0.83536597,-53.121277,-4.8433714)">
    <circle
       style="opacity:1;fill:url(#linearGradient4209);fill-opacity:1;stroke:none;stroke-width:2;stroke-linecap:round;stroke-linejoin:round;stroke-miterlimit:4;stroke-dasharray:none;stroke-dashoffset:0;stroke-opacity:0.03041825;paint-order:fill markers stroke"
       id="ellipse4199"
       cx="135.42374"
       cy="76.016953"
       r="0" />
    <ellipse
       ry="10.677966"
       rx="19.322033"
       cy="74.067802"
       cx="135.25424"
       id="path4187"
       style="opacity:1;fill:url(#linearGradient4197);fill-opacity:1;stroke:none;stroke-width:2;stroke-linecap:round;stroke-linejoin:round;stroke-miterlimit:4;stroke-dasharray:none;stroke-dashoffset:0;stroke-opacity:0.03041825;paint-order:fill markers stroke" />
  </g>
  <path
     style="opacity:1;fill:url(#radialGradient1195);fill-opacity:1;stroke:none;stroke-width:6.54083347;stroke-linecap:round;stroke-linejoin:round;stroke-miterlimit:4;stroke-dasharray:none;stroke-dashoffset:0;stroke-opacity:0.04562737;paint-order:fill markers stroke"
     d="M 92.947266 60.041016 A 35.27594 35.27594 0 0 0 57.671875 95.316406 A 35.27594 35.27594 0 0 0 66.998047 119.16211 L 116.67188 119.16211 L 118.14062 99.337891 L 114.04688 67.099609 A 35.27594 35.27594 0 0 0 92.947266 60.041016 z "
     id="circle1185" />
  <circle
     style="opacity:1;fill:url(#linearGradient4177);fill-opacity:1.0;stroke:none;stroke-width:6;stroke-linecap:round;stroke-linejoin:round;stroke-miterlimit:4;stroke-dasharray:none;stroke-dashoffset:0;stroke-opacity:0.04562737;paint-order:fill markers stroke"
     id="path4169"
     cx="95.68689"
     cy="96.112213"
     r="32.359123" />
  <path
     style="fill:#ffffff;fill-opacity:1;stroke-width:0.40932444"
     inkscape:connector-curvature="0"
     d="m 77.814747,83.261268 14.607557,-1.989398 0.0063,14.090174 -14.60059,0.08314 z M 92.41535,96.985506 92.42673,111.08797 77.826128,109.0806 77.825432,96.890911 Z m 1.770775,-15.973885 19.368415,-2.826795 v 16.998016 l -19.368415,0.153762 z m 19.372905,16.106506 -0.005,16.921473 -19.368401,-2.73363 -0.02719,-14.219524 z"
     id="path4584-1" />
</svg>
