<?xml version="1.0" encoding="UTF-8" standalone="no"?>
<svg
   xmlns:dc="http://purl.org/dc/elements/1.1/"
   xmlns:cc="http://creativecommons.org/ns#"
   xmlns:rdf="http://www.w3.org/1999/02/22-rdf-syntax-ns#"
   xmlns:svg="http://www.w3.org/2000/svg"
   xmlns="http://www.w3.org/2000/svg"
   xmlns:xlink="http://www.w3.org/1999/xlink"
   xmlns:sodipodi="http://sodipodi.sourceforge.net/DTD/sodipodi-0.dtd"
   xmlns:inkscape="http://www.inkscape.org/namespaces/inkscape"
   height="136.53333"
   viewBox="0 0 136.53333 136.53333"
   width="136.53333"
   version="1.1"
   id="svg82"
   sodipodi:docname="nvmax.svg"
   inkscape:version="0.92.4 5da689c313, 2019-01-14">
  <metadata
     id="metadata88">
    <rdf:RDF>
      <cc:Work
         rdf:about="">
        <dc:format>image/svg+xml</dc:format>
        <dc:type
           rdf:resource="http://purl.org/dc/dcmitype/StillImage" />
      </cc:Work>
    </rdf:RDF>
  </metadata>
  <defs
     id="defs86">
    <linearGradient
       inkscape:collect="always"
       id="linearGradient901">
      <stop
         style="stop-color:#85e857;stop-opacity:1;"
         offset="0"
         id="stop896" />
      <stop
         style="stop-color:#1aab00;stop-opacity:1"
         offset="1"
         id="stop899" />
    </linearGradient>
    <linearGradient
       inkscape:collect="always"
       id="linearGradient902">
      <stop
         style="stop-color:#e3e6eb;stop-opacity:1"
         offset="0"
         id="stop898" />
      <stop
         style="stop-color:#ffffff;stop-opacity:1"
         offset="1"
         id="stop900" />
    </linearGradient>
    <linearGradient
       gradientTransform="translate(-0.460584,-0.460732)"
       id="j-9"
       gradientUnits="userSpaceOnUse"
       x1="58.344025"
       x2="57.546803"
       y1="14.57446"
       y2="83.279716">
      <stop
         offset="0"
         stop-color="#8ce9f0"
         id="stop33-3"
         style="stop-color:#87e959;stop-opacity:1" />
      <stop
         offset="1"
         stop-color="#007eff"
         stop-opacity=".808219"
         id="stop35-2"
         style="stop-color:#1aab00;stop-opacity:0.96703297" />
    </linearGradient>
    <linearGradient
       gradientTransform="translate(-0.46138,-0.460182)"
       inkscape:collect="always"
       xlink:href="#linearGradient902"
       id="linearGradient904-5"
       x1="96.483002"
       y1="85.425987"
       x2="95.585754"
       y2="13.63188"
       gradientUnits="userSpaceOnUse" />
    <linearGradient
       gradientTransform="translate(0.553007,-0.460729)"
       id="j-9-3"
       gradientUnits="userSpaceOnUse"
       x1="58.344025"
       x2="57.546803"
       y1="14.57446"
       y2="83.279716">
      <stop
         offset="0"
         stop-color="#8ce9f0"
         id="stop33-3-6"
         style="stop-color:#87e959;stop-opacity:1" />
      <stop
         offset="1"
         stop-color="#007eff"
         stop-opacity=".808219"
         id="stop35-2-1"
         style="stop-color:#1aab00;stop-opacity:1" />
    </linearGradient>
    <linearGradient
       inkscape:collect="always"
       xlink:href="#linearGradient901"
       id="linearGradient903"
       x1="-72.31942"
       y1="12.872684"
       x2="-72.31942"
       y2="84.060066"
       gradientUnits="userSpaceOnUse"
       gradientTransform="translate(133.86368,8.06e-4)" />
  </defs>
  <sodipodi:namedview
     pagecolor="#ffffff"
     bordercolor="#666666"
     borderopacity="1"
     objecttolerance="10"
     gridtolerance="10"
     guidetolerance="10"
     inkscape:pageopacity="0"
     inkscape:pageshadow="2"
     inkscape:window-width="1920"
     inkscape:window-height="1031"
     id="namedview84"
     showgrid="false"
     inkscape:zoom="4.0630104"
     inkscape:cx="103.69107"
     inkscape:cy="67.068424"
     inkscape:window-x="0"
     inkscape:window-y="26"
     inkscape:window-maximized="1"
     inkscape:current-layer="svg82" />
  <linearGradient
     id="a">
    <stop
       offset="0"
       stop-color="#909090"
       id="stop2" />
    <stop
       offset="1"
       stop-color="#636363"
       stop-opacity="0"
       id="stop4" />
  </linearGradient>
  <radialGradient
     id="b"
     cx="199.2227"
     cy="60.977612"
     gradientTransform="matrix(1.0118581 .00000003 -.00000015 5.095797 -134.28081 -251.22589)"
     gradientUnits="userSpaceOnUse"
     r="62.147919">
    <stop
       offset="0"
       stop-color="#e6e6e8"
       id="stop7" />
    <stop
       offset="1"
       stop-color="#cbccce"
       id="stop9" />
  </radialGradient>
  <radialGradient
     id="c"
     cx="199.2227"
     cy="60.977612"
     gradientTransform="matrix(1.3102503 -.00000004 .0000001 3.6151362 -193.72731 -160.9387)"
     gradientUnits="userSpaceOnUse"
     r="62.147919">
    <stop
       offset="0"
       stop-color="#ececef"
       id="stop12" />
    <stop
       offset="1"
       stop-color="#cbccce"
       stop-opacity="0"
       id="stop14" />
  </radialGradient>
  <filter
     id="d"
     color-interpolation-filters="sRGB"
     height="1.033815"
     width="1.02896"
     x="-.01448"
     y="-.016908">
    <feGaussianBlur
       stdDeviation=".74992302"
       id="feGaussianBlur17" />
  </filter>
  <linearGradient
     id="e"
     gradientUnits="userSpaceOnUse"
     x1="174.78751"
     x2="174.86426"
     y1="109.46546"
     y2="118.12492">
    <stop
       offset="0"
       stop-color="#909090"
       id="stop20" />
    <stop
       offset="1"
       stop-color="#727272"
       stop-opacity="0"
       id="stop22" />
  </linearGradient>
  <radialGradient
     id="f"
     cx="178.78711"
     cy="120.70432"
     gradientTransform="matrix(3.8591081 -.00000023 0 .13879872 -511.17169 103.95076)"
     gradientUnits="userSpaceOnUse"
     r="22.055489"
     xlink:href="#a" />
  <filter
     id="g"
     color-interpolation-filters="sRGB"
     height="2.008"
     width="1.08173"
     x="-.040865"
     y="-.504">
    <feGaussianBlur
       stdDeviation=".32830532"
       id="feGaussianBlur26" />
  </filter>
  <filter
     id="h"
     color-interpolation-filters="sRGB"
     height="1.4909"
     width="1.160934"
     x="-.080467"
     y="-.24545">
    <feGaussianBlur
       stdDeviation="1.4789442"
       id="feGaussianBlur29" />
  </filter>
  <linearGradient
     id="i"
     gradientUnits="userSpaceOnUse"
     x1="183.0631"
     x2="183.0631"
     xlink:href="#a"
     y1="129.42332"
     y2="127.06073" />
  <linearGradient
     id="j"
     gradientUnits="userSpaceOnUse"
     x1="58.344025"
     x2="57.546803"
     y1="14.57446"
     y2="83.279716">
    <stop
       offset="0"
       stop-color="#8ce9f0"
       id="stop33"
       style="stop-color:#87e959;stop-opacity:1" />
    <stop
       offset="1"
       stop-color="#007eff"
       stop-opacity=".808219"
       id="stop35"
       style="stop-color:#1aab00;stop-opacity:0.96703297" />
  </linearGradient>
  <linearGradient
     id="k"
     gradientUnits="userSpaceOnUse"
     x1="101.06722"
     x2="100.04187"
     y1="82.005394"
     y2="10.693499">
    <stop
       offset="0"
       stop-color="#3f3f3f"
       id="stop38" />
    <stop
       offset="1"
       stop-color="#060707"
       stop-opacity=".85098"
       id="stop40" />
  </linearGradient>
  <filter
     id="l"
     color-interpolation-filters="sRGB"
     height="1.390281"
     width="1.313985"
     x="-.156992"
     y="-.195141">
    <feGaussianBlur
       stdDeviation="5.9622046"
       id="feGaussianBlur43" />
  </filter>
  <rect
     fill="#1a1a1a"
     filter="url(#d)"
     height="106.44971"
     opacity=".887"
     rx="5.66165"
     width="124.29584"
     x="5.156375"
     y="6.278809"
     id="rect46" />
  <rect
     fill="url(#b)"
     height="106.44971"
     rx="5.66165"
     width="124.29584"
     x="5.156375"
     y="6.278809"
     id="rect48" />
  <rect
     fill="url(#c)"
     height="106.44971"
     rx="5.66165"
     width="124.29584"
     x="5.156375"
     y="6.278809"
     id="rect50" />
  <path
     d="m10.817921 6.2780044c-3.1365599 0-5.6621099 2.5255549-5.6621099 5.6621086v78.164063h124.2968689v-78.164063c0-3.1365537-2.52555-5.6621086-5.66211-5.6621086z"
     fill="#080808"
     id="path52" />
  <path
     style="fill:url(#linearGradient903);fill-opacity:1;stroke:none;stroke-width:1px;stroke-linecap:butt;stroke-linejoin:miter;stroke-opacity:1"
     d="M 9.85706,11.893224 H 123.35112 V 85.222169 H 9.85706 Z"
     id="path894"
     inkscape:connector-curvature="0" />
  <g
     id="g943"
     transform="translate(-55.63876,0.064947)"
     style="opacity:0.48200001">
    <path
       inkscape:connector-curvature="0"
       d="m 123.35112,11.892525 v 6.185546 h -0.0273 v 8.222657 c 0.009,-6.98e-4 0.0182,-0.0013 0.0273,-0.002 0.53162,-0.04054 1.06313,-0.0736 1.59766,-0.0918 20.94125,-0.705789 34.58594,17.173828 34.58594,17.173828 0,0 -3.00046,3.648448 -7.74219,7.751958 -1.35479,1.17243 -2.85105,2.3803 -4.46094,3.55273 -5.63461,4.10356 -12.65195,7.752 -19.79492,7.752 -0.37429,0 -0.74305,-0.009 -1.10547,-0.0254 -0.3577,-0.0164 -0.70816,-0.041 -1.05469,-0.0723 -0.61643,-0.0557 -1.20841,-0.14128 -1.79102,-0.23828 -0.0762,-0.0127 -0.15869,-0.0179 -0.23437,-0.0312 -0.009,-0.002 -0.0185,-0.002 -0.0273,-0.004 v 5.08399 c 0.009,10e-4 0.0184,8.2e-4 0.0273,0.002 0.55395,0.0698 1.11652,0.12589 1.69141,0.16406 0.58466,0.0392 1.17971,0.0605 1.78906,0.0605 15.19316,0 26.1813,-7.758 36.82031,-16.94141 1.76392,1.41269 8.98427,4.84904 10.46875,6.35352 -10.11569,8.4691 -33.69106,15.29492 -47.05664,15.29492 -0.64414,0 -1.27459,-0.0184 -1.89648,-0.0527 -0.61278,-0.0337 -1.2172,-0.0831 -1.81641,-0.14063 -0.009,-8.6e-4 -0.0183,-10e-4 -0.0273,-0.002 v 7.14649 h 0.0273 v 1.00586 5.17969 h 56.74805 v -5.1797 -1.00586 -60.957033 -6.185546 z m -0.0273,59.996089 v -4.73828 C 104.73084,64.811274 98.364792,44.320259 98.364792,44.320259 c 0,0 8.329078,-12.289238 24.958988,-13.560547 v -4.458984 c -18.41973,1.479307 -34.371097,17.080078 -34.371097,17.080078 0,0 9.034851,26.116568 34.371097,28.507808 z m 0,-41.128902 v 5.507813 c 0.009,-9.64e-4 0.0183,-9.95e-4 0.0273,-0.002 0.19645,-0.02091 0.39758,-0.0327 0.5957,-0.05078 0.28935,-0.02649 0.57707,-0.05751 0.8711,-0.07617 0.50506,-0.03178 1.01871,-0.05097 1.54297,-0.05078 4.22013,0 7.68863,1.436482 10.25585,3.052734 0.7335,0.461787 1.39379,0.938605 1.97657,1.400391 2.03971,1.616252 3.13476,3.052734 3.13476,3.052735 l -7.83789,6.609379 c -0.83419,-1.39061 -1.53441,-2.583849 -2.19922,-3.625005 -0.0361,-0.05659 -0.0754,-0.126027 -0.11132,-0.18164 -0.001,-0.0021 -0.002,-0.0038 -0.004,-0.0059 -0.34761,-0.537923 -0.68439,-1.028848 -1.02735,-1.478515 -0.002,-0.0019 -0.002,-0.004 -0.004,-0.0059 -0.17045,-0.223306 -0.34323,-0.436158 -0.51758,-0.638672 -0.002,-0.0021 -0.004,-0.0037 -0.006,-0.0059 -0.1743,-0.202201 -0.3497,-0.394069 -0.53125,-0.576172 -0.002,-0.002 -0.004,-0.0039 -0.006,-0.0059 -0.18124,-0.181496 -0.3668,-0.353473 -0.55859,-0.515625 -0.002,-0.0021 -0.005,-0.0038 -0.008,-0.0059 -0.19191,-0.161873 -0.38991,-0.313827 -0.5957,-0.457032 -0.003,-0.0018 -0.005,-0.004 -0.008,-0.0059 -0.20486,-0.142176 -0.41874,-0.276018 -0.64063,-0.400391 -0.15622,-0.08757 -0.3242,-0.165124 -0.49023,-0.24414 -0.0741,-0.03525 -0.14256,-0.07579 -0.21875,-0.109375 -0.004,-0.0019 -0.009,-0.0039 -0.0137,-0.0059 -0.40417,-0.177304 -0.84777,-0.324742 -1.32031,-0.457031 -0.10587,-0.02964 -0.2047,-0.06432 -0.31446,-0.0918 -0.29268,-0.07323 -0.60129,-0.139014 -0.92383,-0.197265 -0.007,-0.0013 -0.016,-0.0026 -0.0234,-0.0039 -0.32278,-0.05779 -0.66178,-0.108831 -1.01757,-0.152343 -0.01,-0.0012 -0.0178,-0.0027 -0.0273,-0.0039 V 36.26721 c -11.20566,1.212092 -17.95313,8.685546 -17.95313,8.685546 0,10e-7 3.901,14.608048 17.95313,17.113278 v -4.33952 c 0.009,0.003 0.0185,0.005 0.0273,0.008 0.32724,0.10921 0.66223,0.20706 1.00781,0.29296 0.1898,0.0473 0.38852,0.0814 0.58398,0.1211 0.52456,0.10629 1.06222,0.19414 1.62891,0.24023 0.39071,0.0319 0.79154,0.0488 1.20312,0.0488 11.44141,0 22.11133,-14.820311 22.11133,-14.820311 0,0 -0.14441,-0.1961 -0.42578,-0.541016 -0.10558,-0.12987 -0.29736,-0.337929 -0.44336,-0.509765 -0.25928,-0.305159 -0.49828,-0.59089 -0.88086,-1.003906 -0.13337,-0.144013 -0.28956,-0.302469 -0.4375,-0.457032 -0.14641,-0.152955 -0.27901,-0.297001 -0.43945,-0.458984 -0.18502,-0.186905 -0.39229,-0.382967 -0.5957,-0.580078 -0.19378,-0.18776 -0.38164,-0.37115 -0.5918,-0.566406 -0.15296,-0.142123 -0.32092,-0.288286 -0.48242,-0.433594 -0.2746,-0.247094 -0.54879,-0.492364 -0.84766,-0.746094 -0.18943,-0.160827 -0.39475,-0.321951 -0.59375,-0.484375 -0.28891,-0.235836 -0.57606,-0.469969 -0.88476,-0.707031 -0.24551,-0.188552 -0.50589,-0.374613 -0.76368,-0.5625 -0.29154,-0.212484 -0.57977,-0.422922 -0.88671,-0.632813 -0.28484,-0.194827 -0.58302,-0.383155 -0.88086,-0.574219 -0.31763,-0.203747 -0.63468,-0.405785 -0.9668,-0.603515 -0.30423,-0.181166 -0.61931,-0.354602 -0.9355,-0.529286 -0.34328,-0.189652 -0.68594,-0.376335 -1.04297,-0.556641 -0.54608,-0.275829 -1.09843,-0.544222 -1.67578,-0.792968 -0.13011,-0.05605 -0.26288,-0.109586 -0.39454,-0.164063 -0.22569,-0.09339 -0.45143,-0.186904 -0.68164,-0.27539 -0.14141,-0.05435 -0.28659,-0.10386 -0.42968,-0.15625 -0.22989,-0.08417 -0.45918,-0.169229 -0.69336,-0.248047 -0.20534,-0.06911 -0.41445,-0.132517 -0.62305,-0.197266 -0.17751,-0.0551 -0.35335,-0.11228 -0.5332,-0.164063 -0.22268,-0.0641 -0.44957,-0.120917 -0.67578,-0.179687 -0.18167,-0.0472 -0.36101,-0.09703 -0.54493,-0.140625 -0.21883,-0.05187 -0.44207,-0.09603 -0.66406,-0.142578 -0.19897,-0.04174 -0.39618,-0.08772 -0.59766,-0.125 -0.17494,-0.03236 -0.35444,-0.05706 -0.53125,-0.08594 -0.25462,-0.04159 -0.50718,-0.08506 -0.76562,-0.11914 -0.005,-6.8e-4 -0.0105,-0.0013 -0.0156,-0.002 -0.41176,-0.05404 -0.82874,-0.09895 -1.25,-0.132813 -0.004,-3.09e-4 -0.008,3.08e-4 -0.0117,0 -0.44636,-0.03567 -0.89677,-0.06085 -1.35352,-0.07227 -0.46032,-0.01151 -0.92589,-0.01086 -1.39648,0.0039 -0.54144,0.0171 -1.07136,0.04556 -1.59766,0.08203 -0.009,6.25e-4 -0.0183,0.0013 -0.0273,0.002 z m -1.10937,10.205078 c 0.35672,-0.0015 0.7203,0.01839 1.08789,0.0625 0.006,0 0.0122,0.0016 0.0195,0.002 v 16.697224 c -7.92072,-2.66257 -10.4961,-11.912114 -10.4961,-11.912114 0,0 4.03784,-4.827551 9.38867,-4.84961 z"
       id="path928"
       style="fill:none;fill-opacity:1;stroke:#000000;stroke-linecap:round;stroke-linejoin:round;stroke-opacity:0.02747252" />
    <path
       style="fill:none;fill-opacity:1;stroke:#000000;stroke-width:2;stroke-linecap:round;stroke-linejoin:round;stroke-miterlimit:4;stroke-dasharray:none;stroke-opacity:0.02747252"
       id="path930"
       d="m 123.35112,11.892525 v 6.185546 h -0.0273 v 8.222657 c 0.009,-6.98e-4 0.0182,-0.0013 0.0273,-0.002 0.53162,-0.04054 1.06313,-0.0736 1.59766,-0.0918 20.94125,-0.705789 34.58594,17.173828 34.58594,17.173828 0,0 -3.00046,3.648448 -7.74219,7.751958 -1.35479,1.17243 -2.85105,2.3803 -4.46094,3.55273 -5.63461,4.10356 -12.65195,7.752 -19.79492,7.752 -0.37429,0 -0.74305,-0.009 -1.10547,-0.0254 -0.3577,-0.0164 -0.70816,-0.041 -1.05469,-0.0723 -0.61643,-0.0557 -1.20841,-0.14128 -1.79102,-0.23828 -0.0762,-0.0127 -0.15869,-0.0179 -0.23437,-0.0312 -0.009,-0.002 -0.0185,-0.002 -0.0273,-0.004 v 5.08399 c 0.009,10e-4 0.0184,8.2e-4 0.0273,0.002 0.55395,0.0698 1.11652,0.12589 1.69141,0.16406 0.58466,0.0392 1.17971,0.0605 1.78906,0.0605 15.19316,0 26.1813,-7.758 36.82031,-16.94141 1.76392,1.41269 8.98427,4.84904 10.46875,6.35352 -10.11569,8.4691 -33.69106,15.29492 -47.05664,15.29492 -0.64414,0 -1.27459,-0.0184 -1.89648,-0.0527 -0.61278,-0.0337 -1.2172,-0.0831 -1.81641,-0.14063 -0.009,-8.6e-4 -0.0183,-10e-4 -0.0273,-0.002 v 7.14649 h 0.0273 v 1.00586 5.17969 h 56.74805 v -5.1797 -1.00586 -60.957033 -6.185546 z m -0.0273,59.996089 v -4.73828 C 104.73084,64.811274 98.364792,44.320259 98.364792,44.320259 c 0,0 8.329078,-12.289238 24.958988,-13.560547 v -4.458984 c -18.41973,1.479307 -34.371097,17.080078 -34.371097,17.080078 0,0 9.034851,26.116568 34.371097,28.507808 z m 0,-41.128902 v 5.507813 c 0.009,-9.64e-4 0.0183,-9.95e-4 0.0273,-0.002 0.19645,-0.02091 0.39758,-0.0327 0.5957,-0.05078 0.28935,-0.02649 0.57707,-0.05751 0.8711,-0.07617 0.50506,-0.03178 1.01871,-0.05097 1.54297,-0.05078 4.22013,0 7.68863,1.436482 10.25585,3.052734 0.7335,0.461787 1.39379,0.938605 1.97657,1.400391 2.03971,1.616252 3.13476,3.052734 3.13476,3.052735 l -7.83789,6.609379 c -0.83419,-1.39061 -1.53441,-2.583849 -2.19922,-3.625005 -0.0361,-0.05659 -0.0754,-0.126027 -0.11132,-0.18164 -0.001,-0.0021 -0.002,-0.0038 -0.004,-0.0059 -0.34761,-0.537923 -0.68439,-1.028848 -1.02735,-1.478515 -0.002,-0.0019 -0.002,-0.004 -0.004,-0.0059 -0.17045,-0.223306 -0.34323,-0.436158 -0.51758,-0.638672 -0.002,-0.0021 -0.004,-0.0037 -0.006,-0.0059 -0.1743,-0.202201 -0.3497,-0.394069 -0.53125,-0.576172 -0.002,-0.002 -0.004,-0.0039 -0.006,-0.0059 -0.18124,-0.181496 -0.3668,-0.353473 -0.55859,-0.515625 -0.002,-0.0021 -0.005,-0.0038 -0.008,-0.0059 -0.19191,-0.161873 -0.38991,-0.313827 -0.5957,-0.457032 -0.003,-0.0018 -0.005,-0.004 -0.008,-0.0059 -0.20486,-0.142176 -0.41874,-0.276018 -0.64063,-0.400391 -0.15622,-0.08757 -0.3242,-0.165124 -0.49023,-0.24414 -0.0741,-0.03525 -0.14256,-0.07579 -0.21875,-0.109375 -0.004,-0.0019 -0.009,-0.0039 -0.0137,-0.0059 -0.40417,-0.177304 -0.84777,-0.324742 -1.32031,-0.457031 -0.10587,-0.02964 -0.2047,-0.06432 -0.31446,-0.0918 -0.29268,-0.07323 -0.60129,-0.139014 -0.92383,-0.197265 -0.007,-0.0013 -0.016,-0.0026 -0.0234,-0.0039 -0.32278,-0.05779 -0.66178,-0.108831 -1.01757,-0.152343 -0.01,-0.0012 -0.0178,-0.0027 -0.0273,-0.0039 V 36.26721 c -11.20566,1.212092 -17.95313,8.685546 -17.95313,8.685546 0,10e-7 3.901,14.608048 17.95313,17.113278 v -4.33952 c 0.009,0.003 0.0185,0.005 0.0273,0.008 0.32724,0.10921 0.66223,0.20706 1.00781,0.29296 0.1898,0.0473 0.38852,0.0814 0.58398,0.1211 0.52456,0.10629 1.06222,0.19414 1.62891,0.24023 0.39071,0.0319 0.79154,0.0488 1.20312,0.0488 11.44141,0 22.11133,-14.820311 22.11133,-14.820311 0,0 -0.14441,-0.1961 -0.42578,-0.541016 -0.10558,-0.12987 -0.29736,-0.337929 -0.44336,-0.509765 -0.25928,-0.305159 -0.49828,-0.59089 -0.88086,-1.003906 -0.13337,-0.144013 -0.28956,-0.302469 -0.4375,-0.457032 -0.14641,-0.152955 -0.27901,-0.297001 -0.43945,-0.458984 -0.18502,-0.186905 -0.39229,-0.382967 -0.5957,-0.580078 -0.19378,-0.18776 -0.38164,-0.37115 -0.5918,-0.566406 -0.15296,-0.142123 -0.32092,-0.288286 -0.48242,-0.433594 -0.2746,-0.247094 -0.54879,-0.492364 -0.84766,-0.746094 -0.18943,-0.160827 -0.39475,-0.321951 -0.59375,-0.484375 -0.28891,-0.235836 -0.57606,-0.469969 -0.88476,-0.707031 -0.24551,-0.188552 -0.50589,-0.374613 -0.76368,-0.5625 -0.29154,-0.212484 -0.57977,-0.422922 -0.88671,-0.632813 -0.28484,-0.194827 -0.58302,-0.383155 -0.88086,-0.574219 -0.31763,-0.203747 -0.63468,-0.405785 -0.9668,-0.603515 -0.30423,-0.181166 -0.61931,-0.354602 -0.9355,-0.529286 -0.34328,-0.189652 -0.68594,-0.376335 -1.04297,-0.556641 -0.54608,-0.275829 -1.09843,-0.544222 -1.67578,-0.792968 -0.13011,-0.05605 -0.26288,-0.109586 -0.39454,-0.164063 -0.22569,-0.09339 -0.45143,-0.186904 -0.68164,-0.27539 -0.14141,-0.05435 -0.28659,-0.10386 -0.42968,-0.15625 -0.22989,-0.08417 -0.45918,-0.169229 -0.69336,-0.248047 -0.20534,-0.06911 -0.41445,-0.132517 -0.62305,-0.197266 -0.17751,-0.0551 -0.35335,-0.11228 -0.5332,-0.164063 -0.22268,-0.0641 -0.44957,-0.120917 -0.67578,-0.179687 -0.18167,-0.0472 -0.36101,-0.09703 -0.54493,-0.140625 -0.21883,-0.05187 -0.44207,-0.09603 -0.66406,-0.142578 -0.19897,-0.04174 -0.39618,-0.08772 -0.59766,-0.125 -0.17494,-0.03236 -0.35444,-0.05706 -0.53125,-0.08594 -0.25462,-0.04159 -0.50718,-0.08506 -0.76562,-0.11914 -0.005,-6.8e-4 -0.0105,-0.0013 -0.0156,-0.002 -0.41176,-0.05404 -0.82874,-0.09895 -1.25,-0.132813 -0.004,-3.09e-4 -0.008,3.08e-4 -0.0117,0 -0.44636,-0.03567 -0.89677,-0.06085 -1.35352,-0.07227 -0.46032,-0.01151 -0.92589,-0.01086 -1.39648,0.0039 -0.54144,0.0171 -1.07136,0.04556 -1.59766,0.08203 -0.009,6.25e-4 -0.0183,0.0013 -0.0273,0.002 z m -1.10937,10.205078 c 0.35672,-0.0015 0.7203,0.01839 1.08789,0.0625 0.006,0 0.0122,0.0016 0.0195,0.002 v 16.697224 c -7.92072,-2.66257 -10.4961,-11.912114 -10.4961,-11.912114 0,0 4.03784,-4.827551 9.38867,-4.84961 z"
       inkscape:connector-curvature="0" />
    <path
       inkscape:connector-curvature="0"
       d="m 123.35112,11.892525 v 6.185546 h -0.0273 v 8.222657 c 0.009,-6.98e-4 0.0182,-0.0013 0.0273,-0.002 0.53162,-0.04054 1.06313,-0.0736 1.59766,-0.0918 20.94125,-0.705789 34.58594,17.173828 34.58594,17.173828 0,0 -3.00046,3.648448 -7.74219,7.751958 -1.35479,1.17243 -2.85105,2.3803 -4.46094,3.55273 -5.63461,4.10356 -12.65195,7.752 -19.79492,7.752 -0.37429,0 -0.74305,-0.009 -1.10547,-0.0254 -0.3577,-0.0164 -0.70816,-0.041 -1.05469,-0.0723 -0.61643,-0.0557 -1.20841,-0.14128 -1.79102,-0.23828 -0.0762,-0.0127 -0.15869,-0.0179 -0.23437,-0.0312 -0.009,-0.002 -0.0185,-0.002 -0.0273,-0.004 v 5.08399 c 0.009,10e-4 0.0184,8.2e-4 0.0273,0.002 0.55395,0.0698 1.11652,0.12589 1.69141,0.16406 0.58466,0.0392 1.17971,0.0605 1.78906,0.0605 15.19316,0 26.1813,-7.758 36.82031,-16.94141 1.76392,1.41269 8.98427,4.84904 10.46875,6.35352 -10.11569,8.4691 -33.69106,15.29492 -47.05664,15.29492 -0.64414,0 -1.27459,-0.0184 -1.89648,-0.0527 -0.61278,-0.0337 -1.2172,-0.0831 -1.81641,-0.14063 -0.009,-8.6e-4 -0.0183,-10e-4 -0.0273,-0.002 v 7.14649 h 0.0273 v 1.00586 5.17969 h 56.74805 v -5.1797 -1.00586 -60.957033 -6.185546 z m -0.0273,59.996089 v -4.73828 C 104.73084,64.811274 98.364792,44.320259 98.364792,44.320259 c 0,0 8.329078,-12.289238 24.958988,-13.560547 v -4.458984 c -18.41973,1.479307 -34.371097,17.080078 -34.371097,17.080078 0,0 9.034851,26.116568 34.371097,28.507808 z m 0,-41.128902 v 5.507813 c 0.009,-9.64e-4 0.0183,-9.95e-4 0.0273,-0.002 0.19645,-0.02091 0.39758,-0.0327 0.5957,-0.05078 0.28935,-0.02649 0.57707,-0.05751 0.8711,-0.07617 0.50506,-0.03178 1.01871,-0.05097 1.54297,-0.05078 4.22013,0 7.68863,1.436482 10.25585,3.052734 0.7335,0.461787 1.39379,0.938605 1.97657,1.400391 2.03971,1.616252 3.13476,3.052734 3.13476,3.052735 l -7.83789,6.609379 c -0.83419,-1.39061 -1.53441,-2.583849 -2.19922,-3.625005 -0.0361,-0.05659 -0.0754,-0.126027 -0.11132,-0.18164 -0.001,-0.0021 -0.002,-0.0038 -0.004,-0.0059 -0.34761,-0.537923 -0.68439,-1.028848 -1.02735,-1.478515 -0.002,-0.0019 -0.002,-0.004 -0.004,-0.0059 -0.17045,-0.223306 -0.34323,-0.436158 -0.51758,-0.638672 -0.002,-0.0021 -0.004,-0.0037 -0.006,-0.0059 -0.1743,-0.202201 -0.3497,-0.394069 -0.53125,-0.576172 -0.002,-0.002 -0.004,-0.0039 -0.006,-0.0059 -0.18124,-0.181496 -0.3668,-0.353473 -0.55859,-0.515625 -0.002,-0.0021 -0.005,-0.0038 -0.008,-0.0059 -0.19191,-0.161873 -0.38991,-0.313827 -0.5957,-0.457032 -0.003,-0.0018 -0.005,-0.004 -0.008,-0.0059 -0.20486,-0.142176 -0.41874,-0.276018 -0.64063,-0.400391 -0.15622,-0.08757 -0.3242,-0.165124 -0.49023,-0.24414 -0.0741,-0.03525 -0.14256,-0.07579 -0.21875,-0.109375 -0.004,-0.0019 -0.009,-0.0039 -0.0137,-0.0059 -0.40417,-0.177304 -0.84777,-0.324742 -1.32031,-0.457031 -0.10587,-0.02964 -0.2047,-0.06432 -0.31446,-0.0918 -0.29268,-0.07323 -0.60129,-0.139014 -0.92383,-0.197265 -0.007,-0.0013 -0.016,-0.0026 -0.0234,-0.0039 -0.32278,-0.05779 -0.66178,-0.108831 -1.01757,-0.152343 -0.01,-0.0012 -0.0178,-0.0027 -0.0273,-0.0039 V 36.26721 c -11.20566,1.212092 -17.95313,8.685546 -17.95313,8.685546 0,10e-7 3.901,14.608048 17.95313,17.113278 v -4.33952 c 0.009,0.003 0.0185,0.005 0.0273,0.008 0.32724,0.10921 0.66223,0.20706 1.00781,0.29296 0.1898,0.0473 0.38852,0.0814 0.58398,0.1211 0.52456,0.10629 1.06222,0.19414 1.62891,0.24023 0.39071,0.0319 0.79154,0.0488 1.20312,0.0488 11.44141,0 22.11133,-14.820311 22.11133,-14.820311 0,0 -0.14441,-0.1961 -0.42578,-0.541016 -0.10558,-0.12987 -0.29736,-0.337929 -0.44336,-0.509765 -0.25928,-0.305159 -0.49828,-0.59089 -0.88086,-1.003906 -0.13337,-0.144013 -0.28956,-0.302469 -0.4375,-0.457032 -0.14641,-0.152955 -0.27901,-0.297001 -0.43945,-0.458984 -0.18502,-0.186905 -0.39229,-0.382967 -0.5957,-0.580078 -0.19378,-0.18776 -0.38164,-0.37115 -0.5918,-0.566406 -0.15296,-0.142123 -0.32092,-0.288286 -0.48242,-0.433594 -0.2746,-0.247094 -0.54879,-0.492364 -0.84766,-0.746094 -0.18943,-0.160827 -0.39475,-0.321951 -0.59375,-0.484375 -0.28891,-0.235836 -0.57606,-0.469969 -0.88476,-0.707031 -0.24551,-0.188552 -0.50589,-0.374613 -0.76368,-0.5625 -0.29154,-0.212484 -0.57977,-0.422922 -0.88671,-0.632813 -0.28484,-0.194827 -0.58302,-0.383155 -0.88086,-0.574219 -0.31763,-0.203747 -0.63468,-0.405785 -0.9668,-0.603515 -0.30423,-0.181166 -0.61931,-0.354602 -0.9355,-0.529286 -0.34328,-0.189652 -0.68594,-0.376335 -1.04297,-0.556641 -0.54608,-0.275829 -1.09843,-0.544222 -1.67578,-0.792968 -0.13011,-0.05605 -0.26288,-0.109586 -0.39454,-0.164063 -0.22569,-0.09339 -0.45143,-0.186904 -0.68164,-0.27539 -0.14141,-0.05435 -0.28659,-0.10386 -0.42968,-0.15625 -0.22989,-0.08417 -0.45918,-0.169229 -0.69336,-0.248047 -0.20534,-0.06911 -0.41445,-0.132517 -0.62305,-0.197266 -0.17751,-0.0551 -0.35335,-0.11228 -0.5332,-0.164063 -0.22268,-0.0641 -0.44957,-0.120917 -0.67578,-0.179687 -0.18167,-0.0472 -0.36101,-0.09703 -0.54493,-0.140625 -0.21883,-0.05187 -0.44207,-0.09603 -0.66406,-0.142578 -0.19897,-0.04174 -0.39618,-0.08772 -0.59766,-0.125 -0.17494,-0.03236 -0.35444,-0.05706 -0.53125,-0.08594 -0.25462,-0.04159 -0.50718,-0.08506 -0.76562,-0.11914 -0.005,-6.8e-4 -0.0105,-0.0013 -0.0156,-0.002 -0.41176,-0.05404 -0.82874,-0.09895 -1.25,-0.132813 -0.004,-3.09e-4 -0.008,3.08e-4 -0.0117,0 -0.44636,-0.03567 -0.89677,-0.06085 -1.35352,-0.07227 -0.46032,-0.01151 -0.92589,-0.01086 -1.39648,0.0039 -0.54144,0.0171 -1.07136,0.04556 -1.59766,0.08203 -0.009,6.25e-4 -0.0183,0.0013 -0.0273,0.002 z m -1.10937,10.205078 c 0.35672,-0.0015 0.7203,0.01839 1.08789,0.0625 0.006,0 0.0122,0.0016 0.0195,0.002 v 16.697224 c -7.92072,-2.66257 -10.4961,-11.912114 -10.4961,-11.912114 0,0 4.03784,-4.827551 9.38867,-4.84961 z"
       id="path932"
       style="fill:none;fill-opacity:1;stroke:#000000;stroke-width:3;stroke-linecap:round;stroke-linejoin:round;stroke-miterlimit:4;stroke-dasharray:none;stroke-opacity:0.02747252" />
    <path
       style="fill:none;fill-opacity:1;stroke:#000000;stroke-width:5;stroke-linecap:round;stroke-linejoin:round;stroke-miterlimit:4;stroke-dasharray:none;stroke-opacity:0.02747252"
       id="path934"
       d="m 123.35112,11.892525 v 6.185546 h -0.0273 v 8.222657 c 0.009,-6.98e-4 0.0182,-0.0013 0.0273,-0.002 0.53162,-0.04054 1.06313,-0.0736 1.59766,-0.0918 20.94125,-0.705789 34.58594,17.173828 34.58594,17.173828 0,0 -3.00046,3.648448 -7.74219,7.751958 -1.35479,1.17243 -2.85105,2.3803 -4.46094,3.55273 -5.63461,4.10356 -12.65195,7.752 -19.79492,7.752 -0.37429,0 -0.74305,-0.009 -1.10547,-0.0254 -0.3577,-0.0164 -0.70816,-0.041 -1.05469,-0.0723 -0.61643,-0.0557 -1.20841,-0.14128 -1.79102,-0.23828 -0.0762,-0.0127 -0.15869,-0.0179 -0.23437,-0.0312 -0.009,-0.002 -0.0185,-0.002 -0.0273,-0.004 v 5.08399 c 0.009,10e-4 0.0184,8.2e-4 0.0273,0.002 0.55395,0.0698 1.11652,0.12589 1.69141,0.16406 0.58466,0.0392 1.17971,0.0605 1.78906,0.0605 15.19316,0 26.1813,-7.758 36.82031,-16.94141 1.76392,1.41269 8.98427,4.84904 10.46875,6.35352 -10.11569,8.4691 -33.69106,15.29492 -47.05664,15.29492 -0.64414,0 -1.27459,-0.0184 -1.89648,-0.0527 -0.61278,-0.0337 -1.2172,-0.0831 -1.81641,-0.14063 -0.009,-8.6e-4 -0.0183,-10e-4 -0.0273,-0.002 v 7.14649 h 0.0273 v 1.00586 5.17969 h 56.74805 v -5.1797 -1.00586 -60.957033 -6.185546 z m -0.0273,59.996089 v -4.73828 C 104.73084,64.811274 98.364792,44.320259 98.364792,44.320259 c 0,0 8.329078,-12.289238 24.958988,-13.560547 v -4.458984 c -18.41973,1.479307 -34.371097,17.080078 -34.371097,17.080078 0,0 9.034851,26.116568 34.371097,28.507808 z m 0,-41.128902 v 5.507813 c 0.009,-9.64e-4 0.0183,-9.95e-4 0.0273,-0.002 0.19645,-0.02091 0.39758,-0.0327 0.5957,-0.05078 0.28935,-0.02649 0.57707,-0.05751 0.8711,-0.07617 0.50506,-0.03178 1.01871,-0.05097 1.54297,-0.05078 4.22013,0 7.68863,1.436482 10.25585,3.052734 0.7335,0.461787 1.39379,0.938605 1.97657,1.400391 2.03971,1.616252 3.13476,3.052734 3.13476,3.052735 l -7.83789,6.609379 c -0.83419,-1.39061 -1.53441,-2.583849 -2.19922,-3.625005 -0.0361,-0.05659 -0.0754,-0.126027 -0.11132,-0.18164 -0.001,-0.0021 -0.002,-0.0038 -0.004,-0.0059 -0.34761,-0.537923 -0.68439,-1.028848 -1.02735,-1.478515 -0.002,-0.0019 -0.002,-0.004 -0.004,-0.0059 -0.17045,-0.223306 -0.34323,-0.436158 -0.51758,-0.638672 -0.002,-0.0021 -0.004,-0.0037 -0.006,-0.0059 -0.1743,-0.202201 -0.3497,-0.394069 -0.53125,-0.576172 -0.002,-0.002 -0.004,-0.0039 -0.006,-0.0059 -0.18124,-0.181496 -0.3668,-0.353473 -0.55859,-0.515625 -0.002,-0.0021 -0.005,-0.0038 -0.008,-0.0059 -0.19191,-0.161873 -0.38991,-0.313827 -0.5957,-0.457032 -0.003,-0.0018 -0.005,-0.004 -0.008,-0.0059 -0.20486,-0.142176 -0.41874,-0.276018 -0.64063,-0.400391 -0.15622,-0.08757 -0.3242,-0.165124 -0.49023,-0.24414 -0.0741,-0.03525 -0.14256,-0.07579 -0.21875,-0.109375 -0.004,-0.0019 -0.009,-0.0039 -0.0137,-0.0059 -0.40417,-0.177304 -0.84777,-0.324742 -1.32031,-0.457031 -0.10587,-0.02964 -0.2047,-0.06432 -0.31446,-0.0918 -0.29268,-0.07323 -0.60129,-0.139014 -0.92383,-0.197265 -0.007,-0.0013 -0.016,-0.0026 -0.0234,-0.0039 -0.32278,-0.05779 -0.66178,-0.108831 -1.01757,-0.152343 -0.01,-0.0012 -0.0178,-0.0027 -0.0273,-0.0039 V 36.26721 c -11.20566,1.212092 -17.95313,8.685546 -17.95313,8.685546 0,10e-7 3.901,14.608048 17.95313,17.113278 v -4.33952 c 0.009,0.003 0.0185,0.005 0.0273,0.008 0.32724,0.10921 0.66223,0.20706 1.00781,0.29296 0.1898,0.0473 0.38852,0.0814 0.58398,0.1211 0.52456,0.10629 1.06222,0.19414 1.62891,0.24023 0.39071,0.0319 0.79154,0.0488 1.20312,0.0488 11.44141,0 22.11133,-14.820311 22.11133,-14.820311 0,0 -0.14441,-0.1961 -0.42578,-0.541016 -0.10558,-0.12987 -0.29736,-0.337929 -0.44336,-0.509765 -0.25928,-0.305159 -0.49828,-0.59089 -0.88086,-1.003906 -0.13337,-0.144013 -0.28956,-0.302469 -0.4375,-0.457032 -0.14641,-0.152955 -0.27901,-0.297001 -0.43945,-0.458984 -0.18502,-0.186905 -0.39229,-0.382967 -0.5957,-0.580078 -0.19378,-0.18776 -0.38164,-0.37115 -0.5918,-0.566406 -0.15296,-0.142123 -0.32092,-0.288286 -0.48242,-0.433594 -0.2746,-0.247094 -0.54879,-0.492364 -0.84766,-0.746094 -0.18943,-0.160827 -0.39475,-0.321951 -0.59375,-0.484375 -0.28891,-0.235836 -0.57606,-0.469969 -0.88476,-0.707031 -0.24551,-0.188552 -0.50589,-0.374613 -0.76368,-0.5625 -0.29154,-0.212484 -0.57977,-0.422922 -0.88671,-0.632813 -0.28484,-0.194827 -0.58302,-0.383155 -0.88086,-0.574219 -0.31763,-0.203747 -0.63468,-0.405785 -0.9668,-0.603515 -0.30423,-0.181166 -0.61931,-0.354602 -0.9355,-0.529286 -0.34328,-0.189652 -0.68594,-0.376335 -1.04297,-0.556641 -0.54608,-0.275829 -1.09843,-0.544222 -1.67578,-0.792968 -0.13011,-0.05605 -0.26288,-0.109586 -0.39454,-0.164063 -0.22569,-0.09339 -0.45143,-0.186904 -0.68164,-0.27539 -0.14141,-0.05435 -0.28659,-0.10386 -0.42968,-0.15625 -0.22989,-0.08417 -0.45918,-0.169229 -0.69336,-0.248047 -0.20534,-0.06911 -0.41445,-0.132517 -0.62305,-0.197266 -0.17751,-0.0551 -0.35335,-0.11228 -0.5332,-0.164063 -0.22268,-0.0641 -0.44957,-0.120917 -0.67578,-0.179687 -0.18167,-0.0472 -0.36101,-0.09703 -0.54493,-0.140625 -0.21883,-0.05187 -0.44207,-0.09603 -0.66406,-0.142578 -0.19897,-0.04174 -0.39618,-0.08772 -0.59766,-0.125 -0.17494,-0.03236 -0.35444,-0.05706 -0.53125,-0.08594 -0.25462,-0.04159 -0.50718,-0.08506 -0.76562,-0.11914 -0.005,-6.8e-4 -0.0105,-0.0013 -0.0156,-0.002 -0.41176,-0.05404 -0.82874,-0.09895 -1.25,-0.132813 -0.004,-3.09e-4 -0.008,3.08e-4 -0.0117,0 -0.44636,-0.03567 -0.89677,-0.06085 -1.35352,-0.07227 -0.46032,-0.01151 -0.92589,-0.01086 -1.39648,0.0039 -0.54144,0.0171 -1.07136,0.04556 -1.59766,0.08203 -0.009,6.25e-4 -0.0183,0.0013 -0.0273,0.002 z m -1.10937,10.205078 c 0.35672,-0.0015 0.7203,0.01839 1.08789,0.0625 0.006,0 0.0122,0.0016 0.0195,0.002 v 16.697224 c -7.92072,-2.66257 -10.4961,-11.912114 -10.4961,-11.912114 0,0 4.03784,-4.827551 9.38867,-4.84961 z"
       inkscape:connector-curvature="0" />
    <path
       inkscape:connector-curvature="0"
       d="m 123.35112,11.892525 v 6.185546 h -0.0273 v 8.222657 c 0.009,-6.98e-4 0.0182,-0.0013 0.0273,-0.002 0.53162,-0.04054 1.06313,-0.0736 1.59766,-0.0918 20.94125,-0.705789 34.58594,17.173828 34.58594,17.173828 0,0 -3.00046,3.648448 -7.74219,7.751958 -1.35479,1.17243 -2.85105,2.3803 -4.46094,3.55273 -5.63461,4.10356 -12.65195,7.752 -19.79492,7.752 -0.37429,0 -0.74305,-0.009 -1.10547,-0.0254 -0.3577,-0.0164 -0.70816,-0.041 -1.05469,-0.0723 -0.61643,-0.0557 -1.20841,-0.14128 -1.79102,-0.23828 -0.0762,-0.0127 -0.15869,-0.0179 -0.23437,-0.0312 -0.009,-0.002 -0.0185,-0.002 -0.0273,-0.004 v 5.08399 c 0.009,10e-4 0.0184,8.2e-4 0.0273,0.002 0.55395,0.0698 1.11652,0.12589 1.69141,0.16406 0.58466,0.0392 1.17971,0.0605 1.78906,0.0605 15.19316,0 26.1813,-7.758 36.82031,-16.94141 1.76392,1.41269 8.98427,4.84904 10.46875,6.35352 -10.11569,8.4691 -33.69106,15.29492 -47.05664,15.29492 -0.64414,0 -1.27459,-0.0184 -1.89648,-0.0527 -0.61278,-0.0337 -1.2172,-0.0831 -1.81641,-0.14063 -0.009,-8.6e-4 -0.0183,-10e-4 -0.0273,-0.002 v 7.14649 h 0.0273 v 1.00586 5.17969 h 56.74805 v -5.1797 -1.00586 -60.957033 -6.185546 z m -0.0273,59.996089 v -4.73828 C 104.73084,64.811274 98.364792,44.320259 98.364792,44.320259 c 0,0 8.329078,-12.289238 24.958988,-13.560547 v -4.458984 c -18.41973,1.479307 -34.371097,17.080078 -34.371097,17.080078 0,0 9.034851,26.116568 34.371097,28.507808 z m 0,-41.128902 v 5.507813 c 0.009,-9.64e-4 0.0183,-9.95e-4 0.0273,-0.002 0.19645,-0.02091 0.39758,-0.0327 0.5957,-0.05078 0.28935,-0.02649 0.57707,-0.05751 0.8711,-0.07617 0.50506,-0.03178 1.01871,-0.05097 1.54297,-0.05078 4.22013,0 7.68863,1.436482 10.25585,3.052734 0.7335,0.461787 1.39379,0.938605 1.97657,1.400391 2.03971,1.616252 3.13476,3.052734 3.13476,3.052735 l -7.83789,6.609379 c -0.83419,-1.39061 -1.53441,-2.583849 -2.19922,-3.625005 -0.0361,-0.05659 -0.0754,-0.126027 -0.11132,-0.18164 -0.001,-0.0021 -0.002,-0.0038 -0.004,-0.0059 -0.34761,-0.537923 -0.68439,-1.028848 -1.02735,-1.478515 -0.002,-0.0019 -0.002,-0.004 -0.004,-0.0059 -0.17045,-0.223306 -0.34323,-0.436158 -0.51758,-0.638672 -0.002,-0.0021 -0.004,-0.0037 -0.006,-0.0059 -0.1743,-0.202201 -0.3497,-0.394069 -0.53125,-0.576172 -0.002,-0.002 -0.004,-0.0039 -0.006,-0.0059 -0.18124,-0.181496 -0.3668,-0.353473 -0.55859,-0.515625 -0.002,-0.0021 -0.005,-0.0038 -0.008,-0.0059 -0.19191,-0.161873 -0.38991,-0.313827 -0.5957,-0.457032 -0.003,-0.0018 -0.005,-0.004 -0.008,-0.0059 -0.20486,-0.142176 -0.41874,-0.276018 -0.64063,-0.400391 -0.15622,-0.08757 -0.3242,-0.165124 -0.49023,-0.24414 -0.0741,-0.03525 -0.14256,-0.07579 -0.21875,-0.109375 -0.004,-0.0019 -0.009,-0.0039 -0.0137,-0.0059 -0.40417,-0.177304 -0.84777,-0.324742 -1.32031,-0.457031 -0.10587,-0.02964 -0.2047,-0.06432 -0.31446,-0.0918 -0.29268,-0.07323 -0.60129,-0.139014 -0.92383,-0.197265 -0.007,-0.0013 -0.016,-0.0026 -0.0234,-0.0039 -0.32278,-0.05779 -0.66178,-0.108831 -1.01757,-0.152343 -0.01,-0.0012 -0.0178,-0.0027 -0.0273,-0.0039 V 36.26721 c -11.20566,1.212092 -17.95313,8.685546 -17.95313,8.685546 0,10e-7 3.901,14.608048 17.95313,17.113278 v -4.33952 c 0.009,0.003 0.0185,0.005 0.0273,0.008 0.32724,0.10921 0.66223,0.20706 1.00781,0.29296 0.1898,0.0473 0.38852,0.0814 0.58398,0.1211 0.52456,0.10629 1.06222,0.19414 1.62891,0.24023 0.39071,0.0319 0.79154,0.0488 1.20312,0.0488 11.44141,0 22.11133,-14.820311 22.11133,-14.820311 0,0 -0.14441,-0.1961 -0.42578,-0.541016 -0.10558,-0.12987 -0.29736,-0.337929 -0.44336,-0.509765 -0.25928,-0.305159 -0.49828,-0.59089 -0.88086,-1.003906 -0.13337,-0.144013 -0.28956,-0.302469 -0.4375,-0.457032 -0.14641,-0.152955 -0.27901,-0.297001 -0.43945,-0.458984 -0.18502,-0.186905 -0.39229,-0.382967 -0.5957,-0.580078 -0.19378,-0.18776 -0.38164,-0.37115 -0.5918,-0.566406 -0.15296,-0.142123 -0.32092,-0.288286 -0.48242,-0.433594 -0.2746,-0.247094 -0.54879,-0.492364 -0.84766,-0.746094 -0.18943,-0.160827 -0.39475,-0.321951 -0.59375,-0.484375 -0.28891,-0.235836 -0.57606,-0.469969 -0.88476,-0.707031 -0.24551,-0.188552 -0.50589,-0.374613 -0.76368,-0.5625 -0.29154,-0.212484 -0.57977,-0.422922 -0.88671,-0.632813 -0.28484,-0.194827 -0.58302,-0.383155 -0.88086,-0.574219 -0.31763,-0.203747 -0.63468,-0.405785 -0.9668,-0.603515 -0.30423,-0.181166 -0.61931,-0.354602 -0.9355,-0.529286 -0.34328,-0.189652 -0.68594,-0.376335 -1.04297,-0.556641 -0.54608,-0.275829 -1.09843,-0.544222 -1.67578,-0.792968 -0.13011,-0.05605 -0.26288,-0.109586 -0.39454,-0.164063 -0.22569,-0.09339 -0.45143,-0.186904 -0.68164,-0.27539 -0.14141,-0.05435 -0.28659,-0.10386 -0.42968,-0.15625 -0.22989,-0.08417 -0.45918,-0.169229 -0.69336,-0.248047 -0.20534,-0.06911 -0.41445,-0.132517 -0.62305,-0.197266 -0.17751,-0.0551 -0.35335,-0.11228 -0.5332,-0.164063 -0.22268,-0.0641 -0.44957,-0.120917 -0.67578,-0.179687 -0.18167,-0.0472 -0.36101,-0.09703 -0.54493,-0.140625 -0.21883,-0.05187 -0.44207,-0.09603 -0.66406,-0.142578 -0.19897,-0.04174 -0.39618,-0.08772 -0.59766,-0.125 -0.17494,-0.03236 -0.35444,-0.05706 -0.53125,-0.08594 -0.25462,-0.04159 -0.50718,-0.08506 -0.76562,-0.11914 -0.005,-6.8e-4 -0.0105,-0.0013 -0.0156,-0.002 -0.41176,-0.05404 -0.82874,-0.09895 -1.25,-0.132813 -0.004,-3.09e-4 -0.008,3.08e-4 -0.0117,0 -0.44636,-0.03567 -0.89677,-0.06085 -1.35352,-0.07227 -0.46032,-0.01151 -0.92589,-0.01086 -1.39648,0.0039 -0.54144,0.0171 -1.07136,0.04556 -1.59766,0.08203 -0.009,6.25e-4 -0.0183,0.0013 -0.0273,0.002 z m -1.10937,10.205078 c 0.35672,-0.0015 0.7203,0.01839 1.08789,0.0625 0.006,0 0.0122,0.0016 0.0195,0.002 v 16.697224 c -7.92072,-2.66257 -10.4961,-11.912114 -10.4961,-11.912114 0,0 4.03784,-4.827551 9.38867,-4.84961 z"
       id="path936"
       style="fill:none;fill-opacity:1;stroke:#000000;stroke-width:8;stroke-linecap:round;stroke-linejoin:round;stroke-miterlimit:4;stroke-dasharray:none;stroke-opacity:0.02747252" />
  </g>
  <path
     inkscape:connector-curvature="0"
     d="m 66.603073,11.893334 v 6.185546 h -0.02734 v 8.222657 c 0.0091,-6.98e-4 0.01824,-0.0013 0.02734,-0.002 0.531618,-0.04054 1.063129,-0.0736 1.597656,-0.0918 20.941252,-0.705789 34.585941,17.173828 34.585941,17.173828 0,0 -3.00046,3.648448 -7.742191,7.751958 -1.354781,1.17243 -2.85105,2.3803 -4.460937,3.55273 -5.634605,4.10356 -12.651952,7.752 -19.794922,7.752 -0.374289,0 -0.743044,-0.009 -1.105469,-0.0254 -0.357693,-0.0164 -0.708157,-0.041 -1.054687,-0.0723 -0.61643,-0.0557 -1.208414,-0.14128 -1.791016,-0.23828 -0.07624,-0.0127 -0.158691,-0.0179 -0.234375,-0.0312 -0.0088,-0.002 -0.01851,-0.002 -0.02734,-0.004 v 5.08399 c 0.0089,0.001 0.01841,8.2e-4 0.02734,0.002 0.553946,0.0698 1.116523,0.12589 1.691406,0.16406 0.584669,0.0392 1.179713,0.0605 1.789063,0.0605 15.193159,0 26.181297,-7.758 36.820308,-16.94141 1.76392,1.41269 8.98427,4.84904 10.46875,6.35352 -10.11569,8.4691 -33.691053,15.29492 -47.056636,15.29492 -0.644141,0 -1.27459,-0.0184 -1.896485,-0.0527 -0.612776,-0.0337 -1.217194,-0.0831 -1.816406,-0.14063 -0.009,-8.6e-4 -0.01833,-0.001 -0.02734,-0.002 v 7.14649 h 0.02734 v 1.00586 5.17969 h 56.748047 v -5.1797 -1.00586 -60.957033 -6.185546 z m -0.02734,59.996089 v -4.73828 C 47.982791,64.812083 41.616745,44.321068 41.616745,44.321068 c 0,0 8.32908,-12.289238 24.958984,-13.560547 V 26.301537 C 48.156,27.780844 32.204636,43.381615 32.204636,43.381615 c 0,0 9.034851,26.116568 34.371093,28.507808 z m 0,-41.128902 v 5.507813 c 0.009,-9.64e-4 0.01834,-9.95e-4 0.02734,-0.002 0.196449,-0.02091 0.397577,-0.0327 0.595703,-0.05078 0.289343,-0.02649 0.577072,-0.05751 0.871094,-0.07617 0.505062,-0.03178 1.018716,-0.05097 1.542969,-0.05078 4.220139,0 7.688633,1.436482 10.255859,3.052734 0.733493,0.461787 1.393789,0.938605 1.976563,1.400391 2.039708,1.616252 3.134765,3.052734 3.134765,3.052735 l -7.83789,6.609379 c -0.83419,-1.39061 -1.53441,-2.583849 -2.199219,-3.625005 -0.03613,-0.05659 -0.07541,-0.126027 -0.111328,-0.18164 -0.0014,-0.0021 -0.0025,-0.0038 -0.0039,-0.0059 -0.347602,-0.537923 -0.68439,-1.028848 -1.027343,-1.478515 -0.0015,-0.0019 -0.0025,-0.004 -0.0039,-0.0059 -0.170455,-0.223306 -0.343233,-0.436158 -0.517578,-0.638672 -0.0018,-0.0021 -0.004,-0.0037 -0.0059,-0.0059 -0.174308,-0.202201 -0.349701,-0.394069 -0.53125,-0.576172 -0.002,-0.002 -0.0039,-0.0039 -0.0059,-0.0059 -0.181246,-0.181496 -0.3668,-0.353473 -0.558594,-0.515625 -0.0025,-0.0021 -0.0053,-0.0038 -0.0078,-0.0059 -0.191908,-0.161873 -0.38991,-0.313827 -0.595703,-0.457032 -0.0026,-0.0018 -0.0052,-0.004 -0.0078,-0.0059 -0.204857,-0.142176 -0.418742,-0.276018 -0.640625,-0.400391 -0.156225,-0.08757 -0.324199,-0.165124 -0.490235,-0.24414 -0.07407,-0.03525 -0.142561,-0.07579 -0.21875,-0.109375 -0.0044,-0.0019 -0.0093,-0.0039 -0.01367,-0.0059 -0.404167,-0.177304 -0.847768,-0.324742 -1.320312,-0.457031 -0.105864,-0.02964 -0.2047,-0.06432 -0.314453,-0.0918 -0.292686,-0.07323 -0.601291,-0.139014 -0.923828,-0.197265 -0.0075,-0.0013 -0.01597,-0.0026 -0.02344,-0.0039 -0.322788,-0.05779 -0.661788,-0.108831 -1.017578,-0.152343 -0.0096,-0.0012 -0.01777,-0.0027 -0.02734,-0.0039 v -4.761718 c -11.205653,1.212092 -17.953125,8.685546 -17.953125,8.685546 0,1e-6 3.900998,14.608048 17.953125,17.113278 v -4.33952 c 0.0089,0.003 0.01847,0.005 0.02734,0.008 0.327248,0.10921 0.662233,0.20706 1.007813,0.29296 0.189803,0.0473 0.388519,0.0814 0.583984,0.1211 0.524559,0.10629 1.062216,0.19414 1.628906,0.24023 0.390712,0.0319 0.79154,0.0488 1.203125,0.0488 11.44141,0 22.111328,-14.820311 22.111328,-14.820311 0,0 -0.14441,-0.1961 -0.425781,-0.541016 -0.105584,-0.12987 -0.297357,-0.337929 -0.443359,-0.509765 -0.259283,-0.305159 -0.498279,-0.59089 -0.88086,-1.003906 -0.133377,-0.144013 -0.289566,-0.302469 -0.4375,-0.457032 -0.146411,-0.152955 -0.279013,-0.297001 -0.439453,-0.458984 -0.185024,-0.186905 -0.39229,-0.382967 -0.595703,-0.580078 -0.193781,-0.18776 -0.381634,-0.37115 -0.591797,-0.566406 -0.152962,-0.142123 -0.320917,-0.288286 -0.482422,-0.433594 -0.2746,-0.247094 -0.548788,-0.492364 -0.847656,-0.746094 -0.189429,-0.160827 -0.394756,-0.321951 -0.59375,-0.484375 -0.288907,-0.235836 -0.576059,-0.469969 -0.884766,-0.707031 -0.245507,-0.188552 -0.505888,-0.374613 -0.763671,-0.5625 -0.291543,-0.212484 -0.579774,-0.422922 -0.886719,-0.632813 -0.284839,-0.194827 -0.583016,-0.383155 -0.88086,-0.574219 -0.317625,-0.203747 -0.63468,-0.405785 -0.966796,-0.603515 -0.304234,-0.181166 -0.619311,-0.354602 -0.935504,-0.529286 -0.343279,-0.189652 -0.685935,-0.376335 -1.042969,-0.556641 -0.546076,-0.275829 -1.098423,-0.544222 -1.675781,-0.792968 -0.130106,-0.05605 -0.262871,-0.109586 -0.394531,-0.164063 -0.22569,-0.09339 -0.451432,-0.186904 -0.681641,-0.27539 -0.141409,-0.05435 -0.286593,-0.10386 -0.429688,-0.15625 -0.229881,-0.08417 -0.459175,-0.169229 -0.693359,-0.248047 -0.20534,-0.06911 -0.414443,-0.132517 -0.623047,-0.197266 -0.177513,-0.0551 -0.353353,-0.11228 -0.533203,-0.164063 -0.222674,-0.0641 -0.449568,-0.120917 -0.675781,-0.179687 -0.181663,-0.0472 -0.361005,-0.09703 -0.544922,-0.140625 -0.218838,-0.05187 -0.44207,-0.09603 -0.664063,-0.142578 -0.198974,-0.04174 -0.396179,-0.08772 -0.597656,-0.125 -0.174941,-0.03236 -0.354443,-0.05706 -0.53125,-0.08594 -0.25462,-0.04159 -0.507184,-0.08506 -0.765625,-0.11914 -0.0052,-6.8e-4 -0.01047,-0.0013 -0.01563,-0.002 -0.411762,-0.05404 -0.828742,-0.09895 -1.25,-0.132813 -0.0038,-3.09e-4 -0.0079,3.08e-4 -0.01172,0 -0.44636,-0.03567 -0.896772,-0.06085 -1.353515,-0.07227 -0.460329,-0.01151 -0.925897,-0.01086 -1.396485,0.0039 -0.541439,0.0171 -1.071362,0.04556 -1.597656,0.08203 -0.009,6.25e-4 -0.01833,0.0013 -0.02734,0.002 z m -1.109375,10.205078 c 0.356722,-0.0015 0.720308,0.01839 1.087891,0.0625 0.0064,0 0.01218,0.0016 0.01953,0.002 V 57.727323 C 58.653064,55.064753 56.077683,45.815209 56.077682,45.815209 c 0,0 4.037841,-4.827551 9.388672,-4.84961 z"
     id="path76-8"
     style="fill:url(#linearGradient904-5);fill-opacity:1;stroke:none;stroke-opacity:0.02747252" />
  <path
     d="m5.1558111 106.01043v1.05664c0 3.13655 2.52555 5.6621 5.6621099 5.6621h112.972649c3.13656 0 5.66211-2.52555 5.66211-5.6621v-1.05664c0 3.13655-2.52555 5.6621-5.66211 5.6621h-112.972649c-3.1365599 0-5.6621099-2.52555-5.6621099-5.6621z"
     fill="#afafaf"
     id="path56" />
  <g
     transform="translate(-111.48282 -1.473949)"
     id="g70">
    <path
       d="m194.33847 114.94773c-.0882 3.69949-.94643 7.82167 4.95064 11.33436 4.7067 2.92579-2.61144 3.12671-4.42952 3.12671h-5.66718c-8.82592 0-17.65185 0-26.47777 0-1.81808 0-9.13622-.20092-4.42952-3.12671 5.89706-3.51269 5.03886-7.63487 4.95064-11.33436z"
       filter="url(#h)"
       id="path58" />
    <path
       d="m194.33847 113.47378c-.0882 3.69949-.94643 7.82167 4.95064 11.33436 4.7067 2.92579-2.61144 3.12671-4.42952 3.12671-10.49206.46272-21.16242.7623-32.14495 0-1.81808 0-9.13622-.20092-4.42952-3.12671 5.89706-3.51269 5.03886-7.63487 4.95064-11.33436z"
       fill="#e0e1e6"
       id="path60" />
    <path
       d="m194.33847 113.47378c-.0882 3.69949-.94643 7.82167 4.95064 11.33436 4.7067 2.92579-2.61144 3.12671-4.42952 3.12671h-5.66718c-8.82592 0-17.65185 0-26.47777 0-1.81808 0-9.13622-.20092-4.42952-3.12671 5.89706-3.51269 5.03886-7.63487 4.95064-11.33436z"
       fill="url(#e)"
       id="path62" />
    <path
       d="m194.33847 113.47378c-.0882 3.69949-.94643 7.82167 4.95064 11.33436 4.7067 2.92579-2.61144 3.12671-4.42952 3.12671h-5.66718c-8.82592 0-17.65185 0-26.47777 0-1.81808 0-9.13622-.20092-4.42952-3.12671 5.89706-3.51269 5.03886-7.63487 4.95064-11.33436z"
       fill="url(#f)"
       id="path64" />
    <ellipse
       cx="178.28802"
       cy="127.15317"
       fill="#fff"
       filter="url(#g)"
       opacity=".887"
       rx="15.763866"
       ry=".781679"
       id="ellipse66" />
    <path
       d="m194.33847 113.47378c-.0882 3.69949-.94643 7.82167 4.95064 11.33436 4.7067 2.92579-2.61144 3.12671-4.42952 3.12671h-5.66718c-8.82592 0-17.65185 0-26.47777 0-1.81808 0-9.13622-.20092-4.42952-3.12671 5.89706-3.51269 5.03886-7.63487 4.95064-11.33436z"
       fill="url(#i)"
       id="path68" />
  </g>
  <path
     d="m71.574021 102.89623c-.16003.36969-.34945.70998-.56891 1.02284-.29914.42652-.54408.72174-.73285.8857-.29261.26911-.60613.4069-.94186.41475-.24102 0-.53167-.0687-.87001-.2077-.33945-.13848-.6514-.20705-.93664-.20705-.29915 0-.61998.0687-.96315.20705-.3437.13913-.62057.21162-.83226.21882-.32195.0137-.64285-.12802-.96316-.42587-.20444-.1783-.46015-.48401-.76648-.91705-.32868-.46244-.59889-.99867-.81058-1.61005-.22671-.66033-.34036-1.29979-.34036-1.91887 0-.709129.15323-1.320749.46015-1.833297.24121-.41168.56211-.73643.96374-.97484.40163-.2384.83559-.35988 1.30293-.36765.25572 0 .59105.0791 1.00777.23454.41554.15598.68236.23507.79934.23507.0875 0 .38386-.0925.88634-.27687.47518-.171.87622-.2418 1.20476-.21391.89026.0718 1.5591.4228 2.00391 1.05506-.79621.482408-1.19007 1.158128-1.18223 2.024917.007.6752.25212 1.23703.7335 1.68314.21816.20707.46179.36709.73285.48075-.0588.17044-.12084.33376-.1868.49052zm-2.04179-8.034565c0 .5292-.19334 1.02331-.5787 1.480648-.46506.5437-1.02756.85787-1.63755.80829-.008-.0634-.0123-.13031-.0123-.20052 0-.50803.22116-1.051724.61391-1.496261.19608-.225079.44546-.412238.74787-.561532.30176-.147062.5872-.228391.85564-.242321.008.07076.0112.141499.0112.211686z"
     fill="#1e1f28"
     stroke-width=".065316"
     id="path72" />
  <path
     d="m10.317921 12.352223v73.330078h113.494139v-73.330078zm.55273.507812h112.480469v72.361328h-112.480469z"
     fill-opacity=".211982"
     id="path78" />
  <path
     d="m10.818359 6.2773438c-3.1365595 0-5.662109 2.5255556-5.662109 5.6621092v78.164063h124.29687v-78.164063c0-3.1365536-2.52554-5.6621092-5.6621-5.6621092zm-.5 6.0761722h113.494141v73.328125h-113.494141z"
     fill="#080808"
     id="path80" />
  <path
     style="fill:none;fill-opacity:1"
     id="path912"
     d="m 66.603073,11.893334 v 6.185546 h -0.02734 v 8.222657 c 0.0091,-6.98e-4 0.01824,-0.0013 0.02734,-0.002 0.531618,-0.04054 1.063129,-0.0736 1.597656,-0.0918 20.941252,-0.705789 34.585941,17.173828 34.585941,17.173828 0,0 -3.00046,3.648448 -7.742191,7.751958 -1.354781,1.17243 -2.85105,2.3803 -4.460937,3.55273 -5.634605,4.10356 -12.651952,7.752 -19.794922,7.752 -0.374289,0 -0.743044,-0.009 -1.105469,-0.0254 -0.357693,-0.0164 -0.708157,-0.041 -1.054687,-0.0723 -0.61643,-0.0557 -1.208414,-0.14128 -1.791016,-0.23828 -0.07624,-0.0127 -0.158691,-0.0179 -0.234375,-0.0312 -0.0088,-0.002 -0.01851,-0.002 -0.02734,-0.004 v 5.08399 c 0.0089,0.001 0.01841,8.2e-4 0.02734,0.002 0.553946,0.0698 1.116523,0.12589 1.691406,0.16406 0.584669,0.0392 1.179713,0.0605 1.789063,0.0605 15.193159,0 26.181297,-7.758 36.820308,-16.94141 1.76392,1.41269 8.98427,4.84904 10.46875,6.35352 -10.11569,8.4691 -33.691053,15.29492 -47.056636,15.29492 -0.644141,0 -1.27459,-0.0184 -1.896485,-0.0527 -0.612776,-0.0337 -1.217194,-0.0831 -1.816406,-0.14063 -0.009,-8.6e-4 -0.01833,-0.001 -0.02734,-0.002 v 7.14649 h 0.02734 v 1.00586 5.17969 h 56.748047 v -5.1797 -1.00586 -60.957033 -6.185546 z m -0.02734,59.996089 v -4.73828 C 47.982791,64.812083 41.616745,44.321068 41.616745,44.321068 c 0,0 8.32908,-12.289238 24.958984,-13.560547 V 26.301537 C 48.156,27.780844 32.204636,43.381615 32.204636,43.381615 c 0,0 9.034851,26.116568 34.371093,28.507808 z m 0,-41.128902 v 5.507813 c 0.009,-9.64e-4 0.01834,-9.95e-4 0.02734,-0.002 0.196449,-0.02091 0.397577,-0.0327 0.595703,-0.05078 0.289343,-0.02649 0.577072,-0.05751 0.871094,-0.07617 0.505062,-0.03178 1.018716,-0.05097 1.542969,-0.05078 4.220139,0 7.688633,1.436482 10.255859,3.052734 0.733493,0.461787 1.393789,0.938605 1.976563,1.400391 2.039708,1.616252 3.134765,3.052734 3.134765,3.052735 l -7.83789,6.609379 c -0.83419,-1.39061 -1.53441,-2.583849 -2.199219,-3.625005 -0.03613,-0.05659 -0.07541,-0.126027 -0.111328,-0.18164 -0.0014,-0.0021 -0.0025,-0.0038 -0.0039,-0.0059 -0.347602,-0.537923 -0.68439,-1.028848 -1.027343,-1.478515 -0.0015,-0.0019 -0.0025,-0.004 -0.0039,-0.0059 -0.170455,-0.223306 -0.343233,-0.436158 -0.517578,-0.638672 -0.0018,-0.0021 -0.004,-0.0037 -0.0059,-0.0059 -0.174308,-0.202201 -0.349701,-0.394069 -0.53125,-0.576172 -0.002,-0.002 -0.0039,-0.0039 -0.0059,-0.0059 -0.181246,-0.181496 -0.3668,-0.353473 -0.558594,-0.515625 -0.0025,-0.0021 -0.0053,-0.0038 -0.0078,-0.0059 -0.191908,-0.161873 -0.38991,-0.313827 -0.595703,-0.457032 -0.0026,-0.0018 -0.0052,-0.004 -0.0078,-0.0059 -0.204857,-0.142176 -0.418742,-0.276018 -0.640625,-0.400391 -0.156225,-0.08757 -0.324199,-0.165124 -0.490235,-0.24414 -0.07407,-0.03525 -0.142561,-0.07579 -0.21875,-0.109375 -0.0044,-0.0019 -0.0093,-0.0039 -0.01367,-0.0059 -0.404167,-0.177304 -0.847768,-0.324742 -1.320312,-0.457031 -0.105864,-0.02964 -0.2047,-0.06432 -0.314453,-0.0918 -0.292686,-0.07323 -0.601291,-0.139014 -0.923828,-0.197265 -0.0075,-0.0013 -0.01597,-0.0026 -0.02344,-0.0039 -0.322788,-0.05779 -0.661788,-0.108831 -1.017578,-0.152343 -0.0096,-0.0012 -0.01777,-0.0027 -0.02734,-0.0039 v -4.761718 c -11.205653,1.212092 -17.953125,8.685546 -17.953125,8.685546 0,1e-6 3.900998,14.608048 17.953125,17.113278 v -4.33952 c 0.0089,0.003 0.01847,0.005 0.02734,0.008 0.327248,0.10921 0.662233,0.20706 1.007813,0.29296 0.189803,0.0473 0.388519,0.0814 0.583984,0.1211 0.524559,0.10629 1.062216,0.19414 1.628906,0.24023 0.390712,0.0319 0.79154,0.0488 1.203125,0.0488 11.44141,0 22.111328,-14.820311 22.111328,-14.820311 0,0 -0.14441,-0.1961 -0.425781,-0.541016 -0.105584,-0.12987 -0.297357,-0.337929 -0.443359,-0.509765 -0.259283,-0.305159 -0.498279,-0.59089 -0.88086,-1.003906 -0.133377,-0.144013 -0.289566,-0.302469 -0.4375,-0.457032 -0.146411,-0.152955 -0.279013,-0.297001 -0.439453,-0.458984 -0.185024,-0.186905 -0.39229,-0.382967 -0.595703,-0.580078 -0.193781,-0.18776 -0.381634,-0.37115 -0.591797,-0.566406 -0.152962,-0.142123 -0.320917,-0.288286 -0.482422,-0.433594 -0.2746,-0.247094 -0.548788,-0.492364 -0.847656,-0.746094 -0.189429,-0.160827 -0.394756,-0.321951 -0.59375,-0.484375 -0.288907,-0.235836 -0.576059,-0.469969 -0.884766,-0.707031 -0.245507,-0.188552 -0.505888,-0.374613 -0.763671,-0.5625 -0.291543,-0.212484 -0.579774,-0.422922 -0.886719,-0.632813 -0.284839,-0.194827 -0.583016,-0.383155 -0.88086,-0.574219 -0.317625,-0.203747 -0.63468,-0.405785 -0.966796,-0.603515 -0.304234,-0.181166 -0.619311,-0.354602 -0.935504,-0.529286 -0.343279,-0.189652 -0.685935,-0.376335 -1.042969,-0.556641 -0.546076,-0.275829 -1.098423,-0.544222 -1.675781,-0.792968 -0.130106,-0.05605 -0.262871,-0.109586 -0.394531,-0.164063 -0.22569,-0.09339 -0.451432,-0.186904 -0.681641,-0.27539 -0.141409,-0.05435 -0.286593,-0.10386 -0.429688,-0.15625 -0.229881,-0.08417 -0.459175,-0.169229 -0.693359,-0.248047 -0.20534,-0.06911 -0.414443,-0.132517 -0.623047,-0.197266 -0.177513,-0.0551 -0.353353,-0.11228 -0.533203,-0.164063 -0.222674,-0.0641 -0.449568,-0.120917 -0.675781,-0.179687 -0.181663,-0.0472 -0.361005,-0.09703 -0.544922,-0.140625 -0.218838,-0.05187 -0.44207,-0.09603 -0.664063,-0.142578 -0.198974,-0.04174 -0.396179,-0.08772 -0.597656,-0.125 -0.174941,-0.03236 -0.354443,-0.05706 -0.53125,-0.08594 -0.25462,-0.04159 -0.507184,-0.08506 -0.765625,-0.11914 -0.0052,-6.8e-4 -0.01047,-0.0013 -0.01563,-0.002 -0.411762,-0.05404 -0.828742,-0.09895 -1.25,-0.132813 -0.0038,-3.09e-4 -0.0079,3.08e-4 -0.01172,0 -0.44636,-0.03567 -0.896772,-0.06085 -1.353515,-0.07227 -0.460329,-0.01151 -0.925897,-0.01086 -1.396485,0.0039 -0.541439,0.0171 -1.071362,0.04556 -1.597656,0.08203 -0.009,6.25e-4 -0.01833,0.0013 -0.02734,0.002 z m -1.109375,10.205078 c 0.356722,-0.0015 0.720308,0.01839 1.087891,0.0625 0.0064,0 0.01218,0.0016 0.01953,0.002 V 57.727323 C 58.653064,55.064753 56.077683,45.815209 56.077682,45.815209 c 0,0 4.037841,-4.827551 9.388672,-4.84961 z"
     inkscape:connector-curvature="0" />
</svg>
