<?xml version="1.0" encoding="UTF-8" standalone="no"?>
<svg
   xmlns:dc="http://purl.org/dc/elements/1.1/"
   xmlns:cc="http://creativecommons.org/ns#"
   xmlns:rdf="http://www.w3.org/1999/02/22-rdf-syntax-ns#"
   xmlns:svg="http://www.w3.org/2000/svg"
   xmlns="http://www.w3.org/2000/svg"
   xmlns:sodipodi="http://sodipodi.sourceforge.net/DTD/sodipodi-0.dtd"
   xmlns:inkscape="http://www.inkscape.org/namespaces/inkscape"
   height="128"
   viewBox="0 0 128 128"
   width="128"
   version="1.1"
   id="svg425"
   sodipodi:docname="nylas.svg"
   inkscape:version="0.92.4 5da689c313, 2019-01-14">
  <metadata
     id="metadata431">
    <rdf:RDF>
      <cc:Work
         rdf:about="">
        <dc:format>image/svg+xml</dc:format>
        <dc:type
           rdf:resource="http://purl.org/dc/dcmitype/StillImage" />
        <dc:title></dc:title>
      </cc:Work>
    </rdf:RDF>
  </metadata>
  <defs
     id="defs429" />
  <sodipodi:namedview
     pagecolor="#ffffff"
     bordercolor="#666666"
     borderopacity="1"
     objecttolerance="10"
     gridtolerance="10"
     guidetolerance="10"
     inkscape:pageopacity="0"
     inkscape:pageshadow="2"
     inkscape:window-width="1920"
     inkscape:window-height="1031"
     id="namedview427"
     showgrid="false"
     inkscape:zoom="3.6875"
     inkscape:cx="-17.952498"
     inkscape:cy="95.043549"
     inkscape:window-x="0"
     inkscape:window-y="26"
     inkscape:window-maximized="1"
     inkscape:current-layer="svg425" />
  <linearGradient
     id="a"
     gradientUnits="userSpaceOnUse"
     x1="51.45789017592"
     x2="51.65891007893"
     y1="23.67868282191"
     y2="118.36130616929">
    <stop
       offset="0"
       stop-color="#227ce4"
       id="stop2"
       style="stop-color:#22e491;stop-opacity:1" />
    <stop
       offset="1"
       stop-color="#89c3eb"
       id="stop4"
       style="stop-color:#89deeb;stop-opacity:1" />
  </linearGradient>
  <path
     d="m290.99297-9.66595c9.27763-27.32885 35.14959-46.99393 65.61457-46.99393 30.62935 0 56.61598 19.87784 65.76329 47.43693"
     fill="none"
     id="path7" />
  <path
     d="m276.14601 43.46951c48.01905 84.93344 142.14376 51.63478 160.19879.5"
     fill="none"
     id="path9" />
  <path
     d="m7.0907273 18.955502a3.1410107 3.1410107 0 0 0 -.2961459.05855l.132036.900999a3.1410107 3.1410107 0 0 1 .2961459-.05855 3.1410107 3.1410107 0 0 1 3.4604997 2.203422 3.1410107 3.1410107 0 0 0 -.02919-.451968 3.1410107 3.1410107 0 0 0 -3.5633417-2.652453zm90.9058637-13.3217065a3.1410107 3.1410107 0 0 0 -2.652454 3.5633411 3.1410107 3.1410107 0 0 0 .102841.4490318 3.1410107 3.1410107 0 0 1 2.681649-3.1113738 3.1410107 3.1410107 0 0 1 .191604-.021343l-.132036-.9009996a3.1410107 3.1410107 0 0 0 -.191604.021343zm-89.7419343 21.2642325a3.1410107 3.1410107 0 0 0 -.2961459.05855l.132036.900999a3.1410107 3.1410107 0 0 1 .2961459-.05855 3.1410107 3.1410107 0 0 1 3.4604993 2.203423 3.1410107 3.1410107 0 0 0 -.02919-.451968 3.1410107 3.1410107 0 0 0 -3.5633413-2.652454zm90.9058633-13.321706a3.1410107 3.1410107 0 0 0 -2.652454 3.563341 3.1410107 3.1410107 0 0 0 .102841.449032 3.1410107 3.1410107 0 0 1 2.681649-3.111374 3.1410107 3.1410107 0 0 1 .191604-.02134l-.132036-.900999a3.1410107 3.1410107 0 0 0 -.191604.02134zm-89.7420144 21.263684a3.1410107 3.1410107 0 0 0 -.2961459.05855l.1320358.900998a3.1410107 3.1410107 0 0 1 .2961471-.05854 3.1410107 3.1410107 0 0 1 3.4604994 2.203424 3.1410107 3.1410107 0 0 0 -.02919-.451967 3.1410107 3.1410107 0 0 0 -3.563342-2.652453zm90.9058644-13.321706a3.1410107 3.1410107 0 0 0 -2.652455 3.563341 3.1410107 3.1410107 0 0 0 .102841.449031 3.1410107 3.1410107 0 0 1 2.681644-3.111375 3.1410107 3.1410107 0 0 1 .19161-.02135l-.13204-.900999a3.1410107 3.1410107 0 0 0 -.1916.02134zm-89.741935 21.264233a3.1410107 3.1410107 0 0 0 -.296147.05854l.132036.901a3.1410107 3.1410107 0 0 1 .296147-.05854 3.1410107 3.1410107 0 0 1 3.460419 2.202872 3.1410107 3.1410107 0 0 0 -.02919-.451967 3.1410107 3.1410107 0 0 0 -3.56326-2.651903zm90.905865-13.321706a3.1410107 3.1410107 0 0 0 -2.652536 3.56279 3.1410107 3.1410107 0 0 0 .102841.449034 3.1410107 3.1410107 0 0 1 2.681725-3.110826 3.1410107 3.1410107 0 0 1 .19161-.02135l-.13204-.901a3.1410107 3.1410107 0 0 0 -.1916.02135zm-89.742016 21.263682a3.1410107 3.1410107 0 0 0 -.296147.05854l.132035.900998a3.1410107 3.1410107 0 0 1 .296148-.05854 3.1410107 3.1410107 0 0 1 3.460499 2.203421 3.1410107 3.1410107 0 0 0 -.02919-.451967 3.1410107 3.1410107 0 0 0 -3.563342-2.652455zm90.905866-13.321706a3.1410107 3.1410107 0 0 0 -2.652457 3.563342 3.1410107 3.1410107 0 0 0 .102837.44903 3.1410107 3.1410107 0 0 1 2.68165-3.111372 3.1410107 3.1410107 0 0 1 .19161-.02135l-.13204-.900998a3.1410107 3.1410107 0 0 0 -.1916.02135zm-89.742017 21.263685a3.1410107 3.1410107 0 0 0 -.296147.05854l.132036.901a3.1410107 3.1410107 0 0 1 .296147-.05854 3.1410107 3.1410107 0 0 1 3.4605 2.203424 3.1410107 3.1410107 0 0 0 -.02919-.451967 3.1410107 3.1410107 0 0 0 -3.563342-2.652454zm90.905867-13.321706a3.1410107 3.1410107 0 0 0 -2.65246 3.563341 3.1410107 3.1410107 0 0 0 .10284.449031 3.1410107 3.1410107 0 0 1 2.68165-3.111375 3.1410107 3.1410107 0 0 1 .1916-.02135l-.13203-.900998a3.1410107 3.1410107 0 0 0 -.1916.02135zm-89.741857 21.264782a3.1410107 3.1410107 0 0 0 -.296147.05854l.131955.90045a3.1410107 3.1410107 0 0 1 .296147-.05854 3.1410107 3.1410107 0 0 1 3.460499 2.203421 3.1410107 3.1410107 0 0 0 -.02911-.451416 3.1410107 3.1410107 0 0 0 -3.563341-2.652454zm90.905867-13.321707a3.1410107 3.1410107 0 0 0 -2.65246 3.563342 3.1410107 3.1410107 0 0 0 .10276.448482 3.1410107 3.1410107 0 0 1 2.68165-3.111374 3.1410107 3.1410107 0 0 1 .1916-.02135l-.13203-.901001a3.1410107 3.1410107 0 0 0 -.19153.021885zm-89.742019 21.263683a3.1410107 3.1410107 0 0 0 -.296147.05854l.131957.900461a3.1410107 3.1410107 0 0 1 .296147-.05854 3.1410107 3.1410107 0 0 1 3.4605 2.203421 3.1410107 3.1410107 0 0 0 -.02911-.451419 3.1410107 3.1410107 0 0 0 -3.563341-2.652454zm90.905859-13.321707a3.1410107 3.1410107 0 0 0 -2.65245 3.563342 3.1410107 3.1410107 0 0 0 .10276.448482 3.1410107 3.1410107 0 0 1 2.68165-3.111372 3.1410107 3.1410107 0 0 1 .1916-.02135l-.13195-.90045a3.1410107 3.1410107 0 0 0 -.1916.02135zm-89.741929 21.264234a3.1410107 3.1410107 0 0 0 -.296147.05854l.131955.900449a3.1410107 3.1410107 0 0 1 .296147-.05854 3.1410107 3.1410107 0 0 1 3.4605 2.203424 3.1410107 3.1410107 0 0 0 -.02919-.451967 3.1410107 3.1410107 0 0 0 -3.563261-2.651906zm90.905859-13.321706a3.1410107 3.1410107 0 0 0 -2.65253 3.562793 3.1410107 3.1410107 0 0 0 .10284.44903 3.1410107 3.1410107 0 0 1 2.68165-3.111374 3.1410107 3.1410107 0 0 1 .1916-.02135l-.13195-.900449a3.1410107 3.1410107 0 0 0 -.19161.02135zm-89.74201 21.263684a3.1410107 3.1410107 0 0 0 -.296147.05854l.131955.900449a3.1410107 3.1410107 0 0 1 .296147-.05854 3.1410107 3.1410107 0 0 1 3.4605 2.203421 3.1410107 3.1410107 0 0 0 -.02911-.451419 3.1410107 3.1410107 0 0 0 -3.563341-2.652452zm90.90586-13.321706a3.1410107 3.1410107 0 0 0 -2.65245 3.563339 3.1410107 3.1410107 0 0 0 .10284.449033 3.1410107 3.1410107 0 0 1 2.68157-3.111922 3.1410107 3.1410107 0 0 1 .1916-.02135l-.13195-.900452a3.1410107 3.1410107 0 0 0 -.19161.02135zm-89.742011 21.263682a3.1410107 3.1410107 0 0 0 -.296147.05854l.131955.900449a3.1410107 3.1410107 0 0 1 .296147-.05854 3.1410107 3.1410107 0 0 1 3.4605 2.20342 3.1410107 3.1410107 0 0 0 -.02911-.45141 3.1410107 3.1410107 0 0 0 -3.563341-2.65246zm90.905861-13.321706a3.1410107 3.1410107 0 0 0 -2.65245 3.563342 3.1410107 3.1410107 0 0 0 .10284.44903 3.1410107 3.1410107 0 0 1 2.68157-3.111923 3.1410107 3.1410107 0 0 1 .1916-.02135l-.13196-.900449a3.1410107 3.1410107 0 0 0 -.1916.02135zm-89.741932 21.264235a3.1410107 3.1410107 0 0 0 -.296147.0585l.131956.90045a3.1410107 3.1410107 0 0 1 .296147-.0585 3.1410107 3.1410107 0 0 1 3.4605 2.20342 3.1410107 3.1410107 0 0 0 -.02911-.45141 3.1410107 3.1410107 0 0 0 -3.563341-2.65246zm90.905862-13.321708a3.1410107 3.1410107 0 0 0 -2.65245 3.563342 3.1410107 3.1410107 0 0 0 .10276.448482 3.1410107 3.1410107 0 0 1 2.68165-3.111374 3.1410107 3.1410107 0 0 1 .1916-.02135l-.13196-.900449a3.1410107 3.1410107 0 0 0 -.1916.02135zm-89.742013 21.263688a3.1410107 3.1410107 0 0 0 -.296147.0585l.131956.90045a3.1410107 3.1410107 0 0 1 .296147-.0585 3.1410107 3.1410107 0 0 1 3.460499 2.20342 3.1410107 3.1410107 0 0 0 -.02911-.45142 3.1410107 3.1410107 0 0 0 -3.563342-2.65245zm90.905863-13.32171a3.1410107 3.1410107 0 0 0 -2.65245 3.56334 3.1410107 3.1410107 0 0 0 .10284.44903 3.1410107 3.1410107 0 0 1 2.68157-3.11192 3.1410107 3.1410107 0 0 1 .1916-.0213l-.13196-.90045a3.1410107 3.1410107 0 0 0 -.1916.0213zm-89.741934 21.26423a3.1410107 3.1410107 0 0 0 -.296147.0585l.131956.90045a3.1410107 3.1410107 0 0 1 .296147-.0585 3.1410107 3.1410107 0 0 1 3.563261 2.6519 3.1410107 3.1410107 0 0 1 .02735.33215l1.977255-.28976a2.754077 2.754077 0 0 1 -.120902-.49184 2.754077 2.754077 0 0 1 -.02534-.40651l-1.962968.28766a3.1410107 3.1410107 0 0 0 -.02735-.33215 3.1410107 3.1410107 0 0 0 -3.563262-2.6519zm90.905864-13.3217a3.1410107 3.1410107 0 0 0 -2.65253 3.56279 3.1410107 3.1410107 0 0 0 .0663.32643l-1.73332.254a2.754077 2.754077 0 0 1 .0913.39686 2.754077 2.754077 0 0 1 .0253.50585l1.74871-.25626a3.1410107 3.1410107 0 0 1 -.0664-.32643 3.1410107 3.1410107 0 0 1 2.65254-3.56279 3.1410107 3.1410107 0 0 1 .1916-.0214l-.13196-.90045a3.1410107 3.1410107 0 0 0 -.1916.0214zm-83.133258 12.39985a2.754077 2.754077 0 0 0 -2.325644 3.1243 2.754077 2.754077 0 0 0 .106431.4429 2.754077 2.754077 0 0 1 2.351169-2.66675 2.754077 2.754077 0 0 1 3.017828 1.87098 2.754077 2.754077 0 0 0 -.02548-.44578 2.754077 2.754077 0 0 0 -3.124302-2.32565zm7.565096-1.10862a2.754077 2.754077 0 0 0 -2.325644 3.12431 2.754077 2.754077 0 0 0 .106434.44289 2.754077 2.754077 0 0 1 2.351166-2.66675 2.754077 2.754077 0 0 1 3.017828 1.87098 2.754077 2.754077 0 0 0 -.02548-.44578 2.754077 2.754077 0 0 0 -3.124301-2.32565zm7.564547-1.10853a2.754077 2.754077 0 0 0 -2.325644 3.1243 2.754077 2.754077 0 0 0 .106431.44289 2.754077 2.754077 0 0 1 2.351169-2.66675 2.754077 2.754077 0 0 1 3.017828 1.87098 2.754077 2.754077 0 0 0 -.02548-.44578 2.754077 2.754077 0 0 0 -3.124301-2.32564zm7.565096-1.10862a2.754077 2.754077 0 0 0 -2.325645 3.1243 2.754077 2.754077 0 0 0 .106434.44289 2.754077 2.754077 0 0 1 2.351166-2.66674 2.754077 2.754077 0 0 1 3.017829 1.87097 2.754077 2.754077 0 0 0 -.02548-.44578 2.754077 2.754077 0 0 0 -3.124301-2.32564zm7.564547-1.10854a2.754077 2.754077 0 0 0 -2.325644 3.1243 2.754077 2.754077 0 0 0 .106431.44289 2.754077 2.754077 0 0 1 2.351168-2.66674 2.754077 2.754077 0 0 1 3.017829 1.87097 2.754077 2.754077 0 0 0 -.02548-.44578 2.754077 2.754077 0 0 0 -3.124301-2.32564zm7.565096-1.10862a2.754077 2.754077 0 0 0 -2.325645 3.1243 2.754077 2.754077 0 0 0 .106434.44289 2.754077 2.754077 0 0 1 2.351166-2.66674 2.754077 2.754077 0 0 1 3.017828 1.87097 2.754077 2.754077 0 0 0 -.02548-.44578 2.754077 2.754077 0 0 0 -3.124301-2.32564zm7.565098-1.10862a2.754077 2.754077 0 0 0 -2.325644 3.1243 2.754077 2.754077 0 0 0 .106431.4429 2.754077 2.754077 0 0 1 2.351169-2.66675 2.754077 2.754077 0 0 1 3.017825 1.87097 2.754077 2.754077 0 0 0 -.02548-.44578 2.754077 2.754077 0 0 0 -3.124301-2.32564zm7.564544-1.10854a2.754077 2.754077 0 0 0 -2.325644 3.1243 2.754077 2.754077 0 0 0 .106431.4429 2.754077 2.754077 0 0 1 2.351169-2.66675 2.754077 2.754077 0 0 1 3.017828 1.87097 2.754077 2.754077 0 0 0 -.02548-.44578 2.754077 2.754077 0 0 0 -3.124302-2.32564zm7.565096-1.10862a2.754077 2.754077 0 0 0 -2.325644 3.1243 2.754077 2.754077 0 0 0 .106434.4429 2.754077 2.754077 0 0 1 2.351165-2.66675 2.754077 2.754077 0 0 1 3.017829 1.87097 2.754077 2.754077 0 0 0 -.02548-.44577 2.754077 2.754077 0 0 0 -3.124301-2.32565zm7.564547-1.10854a2.754077 2.754077 0 0 0 -2.325644 3.1243 2.754077 2.754077 0 0 0 .106431.4429 2.754077 2.754077 0 0 1 2.351169-2.66675 2.754077 2.754077 0 0 1 3.017825 1.87098 2.754077 2.754077 0 0 0 -.0255-.44578 2.754077 2.754077 0 0 0 -3.124301-2.32565zm7.565091-1.10862a2.754077 2.754077 0 0 0 -2.32564 3.1243 2.754077 2.754077 0 0 0 .10643.4429 2.754077 2.754077 0 0 1 2.35117-2.66675 2.754077 2.754077 0 0 1 3.01783 1.87098 2.754077 2.754077 0 0 0 -.0255-.44578 2.754077 2.754077 0 0 0 -3.12431-2.32565zm-72.483766 13.91511a2.754077 2.754077 0 0 1 .09126.39686 2.754077 2.754077 0 0 1 .02531.50585l2.210745-.32397a2.754077 2.754077 0 0 1 -.120902-.49185 2.754077 2.754077 0 0 1 -.02534-.40651zm7.565095-1.10862a2.754077 2.754077 0 0 1 .09127.39686 2.754077 2.754077 0 0 1 .02531.50585l2.210194-.32389a2.754077 2.754077 0 0 1 -.120899-.49184 2.754077 2.754077 0 0 1 -.02534-.40652zm7.564548-1.10853a2.754077 2.754077 0 0 1 .09126.39685 2.754077 2.754077 0 0 1 .02531.50585l2.210746-.32397a2.754077 2.754077 0 0 1 -.120902-.49184 2.754077 2.754077 0 0 1 -.02534-.40652zm7.565095-1.10862a2.754077 2.754077 0 0 1 .09126.39685 2.754077 2.754077 0 0 1 .02531.50585l2.210194-.32389a2.754077 2.754077 0 0 1 -.120899-.49184 2.754077 2.754077 0 0 1 -.02534-.40652zm7.564547-1.10854a2.754077 2.754077 0 0 1 .09127.39685 2.754077 2.754077 0 0 1 .02531.50585l2.210746-.32397a2.754077 2.754077 0 0 1 -.120902-.49184 2.754077 2.754077 0 0 1 -.02534-.40652zm7.565096-1.10862a2.754077 2.754077 0 0 1 .09126.39685 2.754077 2.754077 0 0 1 .02531.50585l2.210745-.32397a2.754077 2.754077 0 0 1 -.120899-.49184 2.754077 2.754077 0 0 1 -.02534-.40651zm7.565096-1.10862a2.754077 2.754077 0 0 1 .09127.39685 2.754077 2.754077 0 0 1 .0253.50585l2.210197-.32389a2.754077 2.754077 0 0 1 -.120902-.49184 2.754077 2.754077 0 0 1 -.02534-.40651zm7.564547-1.10854a2.754077 2.754077 0 0 1 .09126.39685 2.754077 2.754077 0 0 1 .02531.50585l2.210745-.32397a2.754077 2.754077 0 0 1 -.120902-.49184 2.754077 2.754077 0 0 1 -.02534-.40651zm7.565095-1.10862a2.754077 2.754077 0 0 1 .09127.39685 2.754077 2.754077 0 0 1 .02531.50586l2.210194-.3239a2.754077 2.754077 0 0 1 -.120899-.49184 2.754077 2.754077 0 0 1 -.02534-.40651zm7.564547-1.10854a2.754077 2.754077 0 0 1 .0913.39686 2.754077 2.754077 0 0 1 .0253.50585l2.21075-.32397a2.754077 2.754077 0 0 1 -.1209-.49185 2.754077 2.754077 0 0 1 -.0253-.40651z"
     fill-opacity=".144487"
     stroke-width=".284292"
     id="path11" />
  <path
     d="m7.0907273 18.955502a3.1410107 3.1410107 0 0 0 -.2961459.05855l.1648035 1.124601a3.1410107 3.1410107 0 0 1 .2961458-.05855 3.1410107 3.1410107 0 0 1 3.4272853 2.095491 3.1410107 3.1410107 0 0 0 -.02875-.567638 3.1410107 3.1410107 0 0 0 -3.5633417-2.652453zm90.9058637-13.3217065a3.1410107 3.1410107 0 0 0 -2.652454 3.5633411 3.1410107 3.1410107 0 0 0 .136135.5575126 3.1410107 3.1410107 0 0 1 2.681122-2.9962529 3.1410107 3.1410107 0 0 1 .191604-.021344l-.164803-1.1246003a3.1410107 3.1410107 0 0 0 -.191604.021343zm-89.7419343 21.2642325a3.1410107 3.1410107 0 0 0 -.2961459.05855l.1648034 1.1246a3.1410107 3.1410107 0 0 1 .2961459-.05855 3.1410107 3.1410107 0 0 1 3.4272849 2.095491 3.1410107 3.1410107 0 0 0 -.02875-.567638 3.1410107 3.1410107 0 0 0 -3.5633413-2.652454zm90.9058633-13.321706a3.1410107 3.1410107 0 0 0 -2.652454 3.563341 3.1410107 3.1410107 0 0 0 .136136.557513 3.1410107 3.1410107 0 0 1 2.681121-2.996253 3.1410107 3.1410107 0 0 1 .191605-.02134l-.164804-1.1246a3.1410107 3.1410107 0 0 0 -.191604.02134zm-89.7420144 21.263684a3.1410107 3.1410107 0 0 0 -.2961459.05855l.1648036 1.124602a3.1410107 3.1410107 0 0 1 .2961471-.05854 3.1410107 3.1410107 0 0 1 3.4272846 2.095489 3.1410107 3.1410107 0 0 0 -.02875-.567636 3.1410107 3.1410107 0 0 0 -3.5633424-2.652456zm90.9058644-13.321706a3.1410107 3.1410107 0 0 0 -2.652455 3.563341 3.1410107 3.1410107 0 0 0 .136135.557511 3.1410107 3.1410107 0 0 1 2.68112-2.996251 3.1410107 3.1410107 0 0 1 .19161-.02135l-.16481-1.1246a3.1410107 3.1410107 0 0 0 -.1916.02134zm-89.741935 21.264233a3.1410107 3.1410107 0 0 0 -.296147.05854l.164804 1.124602a3.1410107 3.1410107 0 0 1 .296225-.05801 3.1410107 3.1410107 0 0 1 3.427204 2.094941 3.1410107 3.1410107 0 0 0 -.02883-.568188 3.1410107 3.1410107 0 0 0 -3.563261-2.651903zm90.905865-13.321706a3.1410107 3.1410107 0 0 0 -2.652536 3.56279 3.1410107 3.1410107 0 0 0 .136135.557514 3.1410107 3.1410107 0 0 1 2.681201-2.995705 3.1410107 3.1410107 0 0 1 .1916-.02135l-.1648-1.124601a3.1410107 3.1410107 0 0 0 -.1916.02135zm-89.742016 21.263682a3.1410107 3.1410107 0 0 0 -.296147.05854l.164803 1.124599a3.1410107 3.1410107 0 0 1 .296147-.05854 3.1410107 3.1410107 0 0 1 3.427285 2.095489 3.1410107 3.1410107 0 0 0 -.02875-.567636 3.1410107 3.1410107 0 0 0 -3.563342-2.652455zm90.905866-13.321706a3.1410107 3.1410107 0 0 0 -2.652457 3.563342 3.1410107 3.1410107 0 0 0 .136137.557513 3.1410107 3.1410107 0 0 1 2.68112-2.996253 3.1410107 3.1410107 0 0 1 .1916-.02135l-.1648-1.124602a3.1410107 3.1410107 0 0 0 -.1916.02135zm-89.742017 21.263685a3.1410107 3.1410107 0 0 0 -.296147.05854l.164803 1.124601a3.1410107 3.1410107 0 0 1 .296147-.05854 3.1410107 3.1410107 0 0 1 3.427286 2.095493 3.1410107 3.1410107 0 0 0 -.02875-.567637 3.1410107 3.1410107 0 0 0 -3.563342-2.652454zm90.905867-13.321706a3.1410107 3.1410107 0 0 0 -2.65246 3.563341 3.1410107 3.1410107 0 0 0 .13614.557511 3.1410107 3.1410107 0 0 1 2.68112-2.996254 3.1410107 3.1410107 0 0 1 .1916-.02135l-.1648-1.124599a3.1410107 3.1410107 0 0 0 -.1916.02135zm-89.741857 21.264782a3.1410107 3.1410107 0 0 0 -.296147.05854l.164803 1.124602a3.1410107 3.1410107 0 0 1 .296147-.05854 3.1410107 3.1410107 0 0 1 3.427205 2.094941 3.1410107 3.1410107 0 0 0 -.02867-.567088 3.1410107 3.1410107 0 0 0 -3.563341-2.652454zm90.905867-13.321707a3.1410107 3.1410107 0 0 0 -2.65246 3.563342 3.1410107 3.1410107 0 0 0 .13606.556963 3.1410107 3.1410107 0 0 1 2.6812-2.995703 3.1410107 3.1410107 0 0 1 .19152-.02189l-.1648-1.124602a3.1410107 3.1410107 0 0 0 -.19152.02189zm-89.742019 21.263683a3.1410107 3.1410107 0 0 0 -.296147.05854l.164804 1.124602a3.1410107 3.1410107 0 0 1 .296147-.05854 3.1410107 3.1410107 0 0 1 3.427204 2.094941 3.1410107 3.1410107 0 0 0 -.02867-.567088 3.1410107 3.1410107 0 0 0 -3.563342-2.652454zm90.905859-13.321707a3.1410107 3.1410107 0 0 0 -2.65245 3.563342 3.1410107 3.1410107 0 0 0 .13606.556962 3.1410107 3.1410107 0 0 1 2.6812-2.995702 3.1410107 3.1410107 0 0 1 .1916-.02135l-.1648-1.124601a3.1410107 3.1410107 0 0 0 -.19161.02135zm-89.741929 21.264234a3.1410107 3.1410107 0 0 0 -.296147.05854l.164803 1.124598a3.1410107 3.1410107 0 0 1 .296147-.05854 3.1410107 3.1410107 0 0 1 3.427204 2.09494 3.1410107 3.1410107 0 0 0 -.02875-.567636 3.1410107 3.1410107 0 0 0 -3.563262-2.651906zm90.905859-13.321706a3.1410107 3.1410107 0 0 0 -2.65253 3.562793 3.1410107 3.1410107 0 0 0 .13605.556962 3.1410107 3.1410107 0 0 1 2.68129-2.995154 3.1410107 3.1410107 0 0 1 .1916-.02135l-.1648-1.124601a3.1410107 3.1410107 0 0 0 -.19161.02135zm-89.74201 21.263684a3.1410107 3.1410107 0 0 0 -.296147.05854l.164803 1.124602a3.1410107 3.1410107 0 0 1 .296148-.05854 3.1410107 3.1410107 0 0 1 3.427204 2.094944 3.1410107 3.1410107 0 0 0 -.02867-.567091 3.1410107 3.1410107 0 0 0 -3.563342-2.652452zm90.90586-13.321706a3.1410107 3.1410107 0 0 0 -2.65245 3.563339 3.1410107 3.1410107 0 0 0 .13605.556965 3.1410107 3.1410107 0 0 1 2.68121-2.995705 3.1410107 3.1410107 0 0 1 .1916-.02135l-.1648-1.124601a3.1410107 3.1410107 0 0 0 -.19161.02135zm-89.742011 21.263682a3.1410107 3.1410107 0 0 0 -.296147.05854l.164803 1.124599a3.1410107 3.1410107 0 0 1 .296147-.05854 3.1410107 3.1410107 0 0 1 3.427204 2.09494 3.1410107 3.1410107 0 0 0 -.02867-.56709 3.1410107 3.1410107 0 0 0 -3.563342-2.652451zm90.905861-13.321706a3.1410107 3.1410107 0 0 0 -2.65245 3.563342 3.1410107 3.1410107 0 0 0 .13605.556962 3.1410107 3.1410107 0 0 1 2.68121-2.995702 3.1410107 3.1410107 0 0 1 .1916-.02135l-.16481-1.124601a3.1410107 3.1410107 0 0 0 -.1916.02135zm-89.741932 21.264235a3.1410107 3.1410107 0 0 0 -.296147.0585l.164804 1.1246a3.1410107 3.1410107 0 0 1 .296147-.0585 3.1410107 3.1410107 0 0 1 3.427204 2.09494 3.1410107 3.1410107 0 0 0 -.02867-.56709 3.1410107 3.1410107 0 0 0 -3.563342-2.65245zm90.905862-13.321708a3.1410107 3.1410107 0 0 0 -2.65245 3.563342 3.1410107 3.1410107 0 0 0 .13597.556414 3.1410107 3.1410107 0 0 1 2.68129-2.995154 3.1410107 3.1410107 0 0 1 .1916-.02135l-.16481-1.124598a3.1410107 3.1410107 0 0 0 -.1916.02135zm-89.742013 21.263688a3.1410107 3.1410107 0 0 0 -.296147.0585l.164804 1.1246a3.1410107 3.1410107 0 0 1 .296147-.0585 3.1410107 3.1410107 0 0 1 3.427204 2.09494 3.1410107 3.1410107 0 0 0 -.02867-.56709 3.1410107 3.1410107 0 0 0 -3.563341-2.65245zm90.905863-13.32171a3.1410107 3.1410107 0 0 0 -2.65245 3.56334 3.1410107 3.1410107 0 0 0 .13605.55697 3.1410107 3.1410107 0 0 1 2.6812-2.99571 3.1410107 3.1410107 0 0 1 .19161-.0213l-.16481-1.12461a3.1410107 3.1410107 0 0 0 -.1916.0214zm-89.741934 21.26423a3.1410107 3.1410107 0 0 0 -.296147.0585l.164803 1.1246a3.1410107 3.1410107 0 0 1 .296147-.0585 3.1410107 3.1410107 0 0 1 3.563261 2.6519 3.1410107 3.1410107 0 0 1 .02736.33215l1.977254-.28976a2.754077 2.754077 0 0 1 -.120902-.49184 2.754077 2.754077 0 0 1 2.325644-3.1243 2.754077 2.754077 0 0 1 3.124301 2.32565 2.754077 2.754077 0 0 1 .02531.50585l2.210746-.32398a2.754077 2.754077 0 0 1 -.120903-.49184 2.754077 2.754077 0 0 1 2.325645-3.1243 2.754077 2.754077 0 0 1 3.124301 2.32565 2.754077 2.754077 0 0 1 .02531.50585l2.210194-.32389a2.754077 2.754077 0 0 1 -.120899-.49185 2.754077 2.754077 0 0 1 2.325644-3.1243 2.754077 2.754077 0 0 1 3.124301 2.32565 2.754077 2.754077 0 0 1 .02531.50585l2.210745-.32397a2.754077 2.754077 0 0 1 -.120902-.49184 2.754077 2.754077 0 0 1 2.325645-3.12431 2.754077 2.754077 0 0 1 3.124301 2.32565 2.754077 2.754077 0 0 1 .02531.50585l2.210195-.32389a2.754077 2.754077 0 0 1 -.1209-.49184 2.754077 2.754077 0 0 1 2.325645-3.1243 2.754077 2.754077 0 0 1 3.124301 2.32564 2.754077 2.754077 0 0 1 .02531.50585l2.210745-.32397a2.754077 2.754077 0 0 1 -.120902-.49184 2.754077 2.754077 0 0 1 2.325644-3.1243 2.754077 2.754077 0 0 1 3.124302 2.32564 2.754077 2.754077 0 0 1 .02531.50585l2.210746-.32397a2.754077 2.754077 0 0 1 -.1209-.49184 2.754077 2.754077 0 0 1 2.325645-3.1243 2.754077 2.754077 0 0 1 3.124301 2.32564 2.754077 2.754077 0 0 1 .0253.50585l2.210197-.32389a2.754077 2.754077 0 0 1 -.120902-.49184 2.754077 2.754077 0 0 1 2.325644-3.1243 2.754077 2.754077 0 0 1 3.124301 2.32564 2.754077 2.754077 0 0 1 .02531.50585l2.210746-.32397a2.754077 2.754077 0 0 1 -.120903-.49184 2.754077 2.754077 0 0 1 2.325645-3.1243 2.754077 2.754077 0 0 1 3.124301 2.32564 2.754077 2.754077 0 0 1 .02531.50585l2.210194-.32389a2.754077 2.754077 0 0 1 -.120899-.49184 2.754077 2.754077 0 0 1 2.325644-3.1243 2.754077 2.754077 0 0 1 3.124305 2.32564 2.754077 2.754077 0 0 1 .0253.50586l2.21074-.32398a2.754077 2.754077 0 0 1 -.1209-.49184 2.754077 2.754077 0 0 1 2.32564-3.1243 2.754077 2.754077 0 0 1 3.12431 2.32565 2.754077 2.754077 0 0 1 .0253.50585l1.74871-.25627a3.1410107 3.1410107 0 0 1 -.0664-.32643 3.1410107 3.1410107 0 0 1 2.65254-3.56279 3.1410107 3.1410107 0 0 1 .1916-.0213l-.1648-1.1246a3.1410107 3.1410107 0 0 0 -.1916.0213 3.1410107 3.1410107 0 0 0 -2.65254 3.56279 3.1410107 3.1410107 0 0 0 .0664.32643l-1.74871.25626a2.754077 2.754077 0 0 0 -.0253-.50585 2.754077 2.754077 0 0 0 -3.1243-2.32564 2.754077 2.754077 0 0 0 -2.32564 3.1243 2.754077 2.754077 0 0 0 .1209.49184l-2.21075.32397a2.754077 2.754077 0 0 0 -.0253-.50585 2.754077 2.754077 0 0 0 -3.124309-2.32564 2.754077 2.754077 0 0 0 -2.325644 3.1243 2.754077 2.754077 0 0 0 .120899.49184l-2.210194.32389a2.754077 2.754077 0 0 0 -.02531-.50585 2.754077 2.754077 0 0 0 -3.124301-2.32564 2.754077 2.754077 0 0 0 -2.325644 3.1243 2.754077 2.754077 0 0 0 .120902.49184l-2.210746.32397a2.754077 2.754077 0 0 0 -.02531-.50585 2.754077 2.754077 0 0 0 -3.124301-2.32564 2.754077 2.754077 0 0 0 -2.325645 3.1243 2.754077 2.754077 0 0 0 .120902.49184l-2.210197.32389a2.754077 2.754077 0 0 0 -.0253-.50585 2.754077 2.754077 0 0 0 -3.124302-2.32565 2.754077 2.754077 0 0 0 -2.325644 3.12431 2.754077 2.754077 0 0 0 .120899.49184l-2.210745.32397a2.754077 2.754077 0 0 0 -.02531-.50585 2.754077 2.754077 0 0 0 -3.124301-2.32565 2.754077 2.754077 0 0 0 -2.325645 3.12431 2.754077 2.754077 0 0 0 .120903.49184l-2.210746.32397a2.754077 2.754077 0 0 0 -.02531-.50585 2.754077 2.754077 0 0 0 -3.124301-2.32565 2.754077 2.754077 0 0 0 -2.325644 3.1243 2.754077 2.754077 0 0 0 .120899.49185l-2.210194.32389a2.754077 2.754077 0 0 0 -.02531-.50585 2.754077 2.754077 0 0 0 -3.124301-2.32565 2.754077 2.754077 0 0 0 -2.325644 3.1243 2.754077 2.754077 0 0 0 .120902.49185l-2.210746.32397a2.754077 2.754077 0 0 0 -.02531-.50585 2.754077 2.754077 0 0 0 -3.124302-2.32565 2.754077 2.754077 0 0 0 -2.325644 3.1243 2.754077 2.754077 0 0 0 .120899.49185l-2.210194.32389a2.754077 2.754077 0 0 0 -.02531-.50586 2.754077 2.754077 0 0 0 -3.124302-2.32564 2.754077 2.754077 0 0 0 -2.325644 3.1243 2.754077 2.754077 0 0 0 .120902.49184l-2.210746.32397a2.754077 2.754077 0 0 0 -.02531-.50585 2.754077 2.754077 0 0 0 -3.124301-2.32564 2.754077 2.754077 0 0 0 -2.325645 3.1243 2.754077 2.754077 0 0 0 .120902.49184l-1.977254.28976a3.1410107 3.1410107 0 0 0 -.02735-.33215 3.1410107 3.1410107 0 0 0 -3.563261-2.6519z"
     fill-opacity=".140684"
     stroke-width=".284292"
     id="path13" />
  <path
     d="m7.0907273 18.955502a3.1410107 3.1410107 0 0 0 -.2961459.05855l.1976514 1.348751a3.1410107 3.1410107 0 0 1 .2961459-.05855 3.1410107 3.1410107 0 0 1 3.3874143 1.991902 3.1410107 3.1410107 0 0 0 -.02172-.6882 3.1410107 3.1410107 0 0 0 -3.5633417-2.652453zm90.9058637-13.3217065a3.1410107 3.1410107 0 0 0 -2.652454 3.5633411 3.1410107 3.1410107 0 0 0 .175927.6605518 3.1410107 3.1410107 0 0 1 2.674178-2.8751411 3.1410107 3.1410107 0 0 1 .191604-.021344l-.197651-1.3487513a3.1410107 3.1410107 0 0 0 -.191604.021343zm-89.7419343 21.2642325a3.1410107 3.1410107 0 0 0 -.2961459.05855l.1976514 1.348751a3.1410107 3.1410107 0 0 1 .2961459-.05855 3.1410107 3.1410107 0 0 1 3.3874149 1.991902 3.1410107 3.1410107 0 0 0 -.02172-.6882 3.1410107 3.1410107 0 0 0 -3.5633413-2.652454zm90.9058633-13.321706a3.1410107 3.1410107 0 0 0 -2.652454 3.563341 3.1410107 3.1410107 0 0 0 .175927.660552 3.1410107 3.1410107 0 0 1 2.674178-2.875141 3.1410107 3.1410107 0 0 1 .191605-.02134l-.197652-1.348751a3.1410107 3.1410107 0 0 0 -.191604.02134zm-89.7420144 21.263684a3.1410107 3.1410107 0 0 0 -.2961459.05855l.1976518 1.348754a3.1410107 3.1410107 0 0 1 .2961471-.05854 3.1410107 3.1410107 0 0 1 3.3874144 1.991903 3.1410107 3.1410107 0 0 0 -.02172-.6882 3.1410107 3.1410107 0 0 0 -3.563342-2.652455zm90.9058644-13.321706a3.1410107 3.1410107 0 0 0 -2.652455 3.563341 3.1410107 3.1410107 0 0 0 .175927.660552 3.1410107 3.1410107 0 0 1 2.674178-2.875142 3.1410107 3.1410107 0 0 1 .1916-.02135l-.19765-1.348752a3.1410107 3.1410107 0 0 0 -.1916.02134zm-89.741935 21.264233a3.1410107 3.1410107 0 0 0 -.296147.05854l.197651 1.348751a3.1410107 3.1410107 0 0 1 .296147-.05854 3.1410107 3.1410107 0 0 1 3.387415 1.991903 3.1410107 3.1410107 0 0 0 -.02181-.688751 3.1410107 3.1410107 0 0 0 -3.563261-2.651903zm90.905865-13.321706a3.1410107 3.1410107 0 0 0 -2.652536 3.56279 3.1410107 3.1410107 0 0 0 .175927.660552 3.1410107 3.1410107 0 0 1 2.674259-2.874591 3.1410107 3.1410107 0 0 1 .1916-.02135l-.19765-1.348758a3.1410107 3.1410107 0 0 0 -.1916.02135zm-89.742016 21.263682a3.1410107 3.1410107 0 0 0 -.296147.05854l.197651 1.348751a3.1410107 3.1410107 0 0 1 .296147-.05854 3.1410107 3.1410107 0 0 1 3.387415 1.991903 3.1410107 3.1410107 0 0 0 -.02172-.6882 3.1410107 3.1410107 0 0 0 -3.563341-2.652454zm90.905866-13.321706a3.1410107 3.1410107 0 0 0 -2.652457 3.563342 3.1410107 3.1410107 0 0 0 .175927.660551 3.1410107 3.1410107 0 0 1 2.67418-2.875142 3.1410107 3.1410107 0 0 1 .1916-.02135l-.19765-1.348751a3.1410107 3.1410107 0 0 0 -.1916.02135zm-89.742017 21.263685a3.1410107 3.1410107 0 0 0 -.296147.05854l.197651 1.348751a3.1410107 3.1410107 0 0 1 .296147-.05854 3.1410107 3.1410107 0 0 1 3.387415 1.991903 3.1410107 3.1410107 0 0 0 -.02172-.6882 3.1410107 3.1410107 0 0 0 -3.563342-2.652454zm90.905867-13.321706a3.1410107 3.1410107 0 0 0 -2.65246 3.563341 3.1410107 3.1410107 0 0 0 .17593.660552 3.1410107 3.1410107 0 0 1 2.67418-2.875142 3.1410107 3.1410107 0 0 1 .1916-.02135l-.19765-1.348751a3.1410107 3.1410107 0 0 0 -.1916.02135zm-89.741857 21.264782a3.1410107 3.1410107 0 0 0 -.296147.05854l.197571 1.348203a3.1410107 3.1410107 0 0 1 .296147-.05854 3.1410107 3.1410107 0 0 1 3.387414 1.9919 3.1410107 3.1410107 0 0 0 -.02164-.687648 3.1410107 3.1410107 0 0 0 -3.563341-2.652454zm90.905867-13.321707a3.1410107 3.1410107 0 0 0 -2.65246 3.563342 3.1410107 3.1410107 0 0 0 .17585.660003 3.1410107 3.1410107 0 0 1 2.67418-2.875142 3.1410107 3.1410107 0 0 1 .1916-.02135l-.19765-1.348751a3.1410107 3.1410107 0 0 0 -.19153.021884zm-89.742019 21.263683a3.1410107 3.1410107 0 0 0 -.296147.05854l.197571 1.348203a3.1410107 3.1410107 0 0 1 .296147-.05854 3.1410107 3.1410107 0 0 1 3.387415 1.991903 3.1410107 3.1410107 0 0 0 -.02164-.687651 3.1410107 3.1410107 0 0 0 -3.563342-2.652454zm90.905859-13.321707a3.1410107 3.1410107 0 0 0 -2.65245 3.563342 3.1410107 3.1410107 0 0 0 .17585.660003 3.1410107 3.1410107 0 0 1 2.67418-2.875142 3.1410107 3.1410107 0 0 1 .1916-.02135l-.19757-1.348202a3.1410107 3.1410107 0 0 0 -.19161.02135zm-89.741929 21.264234a3.1410107 3.1410107 0 0 0 -.296147.05854l.19757 1.348199a3.1410107 3.1410107 0 0 1 .296147-.05854 3.1410107 3.1410107 0 0 1 3.387415 1.991903 3.1410107 3.1410107 0 0 0 -.02172-.6882 3.1410107 3.1410107 0 0 0 -3.563262-2.651906zm90.905859-13.321706a3.1410107 3.1410107 0 0 0 -2.65253 3.562793 3.1410107 3.1410107 0 0 0 .17585.660002 3.1410107 3.1410107 0 0 1 2.67426-2.874593 3.1410107 3.1410107 0 0 1 .1916-.02135l-.19757-1.348203a3.1410107 3.1410107 0 0 0 -.19161.02135zm-89.74201 21.263684a3.1410107 3.1410107 0 0 0 -.296147.05854l.197571 1.348203a3.1410107 3.1410107 0 0 1 .296147-.05854 3.1410107 3.1410107 0 0 1 3.387414 1.9919 3.1410107 3.1410107 0 0 0 -.02164-.687651 3.1410107 3.1410107 0 0 0 -3.563341-2.652452zm90.90586-13.321706a3.1410107 3.1410107 0 0 0 -2.65245 3.563339 3.1410107 3.1410107 0 0 0 .17585.660003 3.1410107 3.1410107 0 0 1 2.67417-2.875139 3.1410107 3.1410107 0 0 1 .19161-.02135l-.19757-1.348202a3.1410107 3.1410107 0 0 0 -.19161.02135zm-89.742011 21.263682a3.1410107 3.1410107 0 0 0 -.296147.05854l.197571 1.348203a3.1410107 3.1410107 0 0 1 .296147-.05854 3.1410107 3.1410107 0 0 1 3.387414 1.991906 3.1410107 3.1410107 0 0 0 -.02164-.68765 3.1410107 3.1410107 0 0 0 -3.563341-2.652459zm90.905861-13.321706a3.1410107 3.1410107 0 0 0 -2.65245 3.563342 3.1410107 3.1410107 0 0 0 .17585.660003 3.1410107 3.1410107 0 0 1 2.67417-2.875142 3.1410107 3.1410107 0 0 1 .19161-.02135l-.19758-1.348202a3.1410107 3.1410107 0 0 0 -.1916.02135zm-89.741932 21.264235a3.1410107 3.1410107 0 0 0 -.296147.0585l.197571 1.3482a3.1410107 3.1410107 0 0 1 .296147-.0585 3.1410107 3.1410107 0 0 1 3.387414 1.9919 3.1410107 3.1410107 0 0 0 -.02164-.68765 3.1410107 3.1410107 0 0 0 -3.563342-2.65245zm90.905862-13.321708a3.1410107 3.1410107 0 0 0 -2.65245 3.563342 3.1410107 3.1410107 0 0 0 .17576.659451 3.1410107 3.1410107 0 0 1 2.67426-2.87459 3.1410107 3.1410107 0 0 1 .19161-.02135l-.19758-1.348202a3.1410107 3.1410107 0 0 0 -.1916.02135zm-89.742013 21.263688a3.1410107 3.1410107 0 0 0 -.296147.0585l.197571 1.3482a3.1410107 3.1410107 0 0 1 .296147-.0585 3.1410107 3.1410107 0 0 1 3.387495 1.99245 3.1410107 3.1410107 0 0 0 -.02172-.6882 3.1410107 3.1410107 0 0 0 -3.563341-2.65245zm90.905863-13.32171a3.1410107 3.1410107 0 0 0 -2.65245 3.56334 3.1410107 3.1410107 0 0 0 .17584.66 3.1410107 3.1410107 0 0 1 2.67418-2.87514 3.1410107 3.1410107 0 0 1 .1916-.0213l-.19757-1.34821a3.1410107 3.1410107 0 0 0 -.1916.0214zm-89.741934 21.26423a3.1410107 3.1410107 0 0 0 -.296147.0585l.197571 1.34821a3.1410107 3.1410107 0 0 1 .296147-.0585 3.1410107 3.1410107 0 0 1 3.563262 2.65191 3.1410107 3.1410107 0 0 1 .02735.33214l1.977255-.28975a2.754077 2.754077 0 0 1 -.120902-.49184 2.754077 2.754077 0 0 1 2.325644-3.12431 2.754077 2.754077 0 0 1 3.124301 2.32565 2.754077 2.754077 0 0 1 .02531.50585l2.210745-.32397a2.754077 2.754077 0 0 1 -.120902-.49184 2.754077 2.754077 0 0 1 2.325645-3.1243 2.754077 2.754077 0 0 1 3.124301 2.32564 2.754077 2.754077 0 0 1 .02531.50585l2.210195-.32389a2.754077 2.754077 0 0 1 -.1209-.49184 2.754077 2.754077 0 0 1 2.325645-3.1243 2.754077 2.754077 0 0 1 3.124301 2.32564 2.754077 2.754077 0 0 1 .02531.50585l2.210745-.32397a2.754077 2.754077 0 0 1 -.120902-.49184 2.754077 2.754077 0 0 1 2.325644-3.1243 2.754077 2.754077 0 0 1 3.124302 2.32564 2.754077 2.754077 0 0 1 .02531.50585l2.210194-.32389a2.754077 2.754077 0 0 1 -.120899-.49184 2.754077 2.754077 0 0 1 2.325645-3.1243 2.754077 2.754077 0 0 1 3.124301 2.32564 2.754077 2.754077 0 0 1 .02531.50585l2.210746-.32397a2.754077 2.754077 0 0 1 -.120902-.49184 2.754077 2.754077 0 0 1 2.325644-3.1243 2.754077 2.754077 0 0 1 3.124301 2.32564 2.754077 2.754077 0 0 1 .02531.50586l2.210746-.32398a2.754077 2.754077 0 0 1 -.1209-.49184 2.754077 2.754077 0 0 1 2.325645-3.1243 2.754077 2.754077 0 0 1 3.124301 2.32564 2.754077 2.754077 0 0 1 .0253.50586l2.210197-.32389a2.754077 2.754077 0 0 1 -.120902-.49185 2.754077 2.754077 0 0 1 2.325644-3.1243 2.754077 2.754077 0 0 1 3.124301 2.32565 2.754077 2.754077 0 0 1 .02531.50585l2.210745-.32397a2.754077 2.754077 0 0 1 -.120902-.49185 2.754077 2.754077 0 0 1 2.325645-3.1243 2.754077 2.754077 0 0 1 3.124301 2.32565 2.754077 2.754077 0 0 1 .02531.50585l2.210195-.32389a2.754077 2.754077 0 0 1 -.1209-.49184 2.754077 2.754077 0 0 1 2.325645-3.12431 2.754077 2.754077 0 0 1 3.124303 2.32565 2.754077 2.754077 0 0 1 .0253.50585l2.21075-.32397a2.754077 2.754077 0 0 1 -.1209-.49184 2.754077 2.754077 0 0 1 2.32564-3.12431 2.754077 2.754077 0 0 1 3.1243 2.32565 2.754077 2.754077 0 0 1 .0253.50585l1.74871-.25626a3.1410107 3.1410107 0 0 1 -.0664-.32643 3.1410107 3.1410107 0 0 1 2.65254-3.56279 3.1410107 3.1410107 0 0 1 .1916-.0214l-.19757-1.3482a3.1410107 3.1410107 0 0 0 -.1916.0213 3.1410107 3.1410107 0 0 0 -2.65254 3.5628 3.1410107 3.1410107 0 0 0 .0664.32643l-1.74871.25626a2.754077 2.754077 0 0 0 -.0253-.50585 2.754077 2.754077 0 0 0 -3.1243-2.32565 2.754077 2.754077 0 0 0 -2.32564 3.1243 2.754077 2.754077 0 0 0 .1209.49185l-2.21075.32397a2.754077 2.754077 0 0 0 -.0253-.50585 2.754077 2.754077 0 0 0 -3.124304-2.32565 2.754077 2.754077 0 0 0 -2.325645 3.1243 2.754077 2.754077 0 0 0 .1209.49184l-2.210195.3239a2.754077 2.754077 0 0 0 -.02531-.50586 2.754077 2.754077 0 0 0 -3.124301-2.32564 2.754077 2.754077 0 0 0 -2.325645 3.1243 2.754077 2.754077 0 0 0 .120902.49184l-2.210745.32397a2.754077 2.754077 0 0 0 -.02531-.50585 2.754077 2.754077 0 0 0 -3.124301-2.32564 2.754077 2.754077 0 0 0 -2.325644 3.1243 2.754077 2.754077 0 0 0 .120902.49184l-2.210197.32389a2.754077 2.754077 0 0 0 -.0253-.50585 2.754077 2.754077 0 0 0 -3.124301-2.32564 2.754077 2.754077 0 0 0 -2.325645 3.1243 2.754077 2.754077 0 0 0 .1209.49184l-2.210746.32397a2.754077 2.754077 0 0 0 -.02531-.50585 2.754077 2.754077 0 0 0 -3.124301-2.32564 2.754077 2.754077 0 0 0 -2.325644 3.1243 2.754077 2.754077 0 0 0 .120902.49184l-2.210746.32397a2.754077 2.754077 0 0 0 -.02531-.50585 2.754077 2.754077 0 0 0 -3.124301-2.32564 2.754077 2.754077 0 0 0 -2.325645 3.1243 2.754077 2.754077 0 0 0 .120899.49184l-2.210194.32389a2.754077 2.754077 0 0 0 -.02531-.50585 2.754077 2.754077 0 0 0 -3.124301-2.32564 2.754077 2.754077 0 0 0 -2.325645 3.1243 2.754077 2.754077 0 0 0 .120902.49184l-2.210745.32397a2.754077 2.754077 0 0 0 -.02531-.50585 2.754077 2.754077 0 0 0 -3.124301-2.32565 2.754077 2.754077 0 0 0 -2.325645 3.12431 2.754077 2.754077 0 0 0 .1209.49184l-2.210194.32389a2.754077 2.754077 0 0 0 -.02531-.50585 2.754077 2.754077 0 0 0 -3.124301-2.32565 2.754077 2.754077 0 0 0 -2.325645 3.1243 2.754077 2.754077 0 0 0 .120902.49185l-2.210745.32397a2.754077 2.754077 0 0 0 -.02531-.50585 2.754077 2.754077 0 0 0 -3.124301-2.32565 2.754077 2.754077 0 0 0 -2.325644 3.1243 2.754077 2.754077 0 0 0 .120902.49185l-1.977255.28975a3.1410107 3.1410107 0 0 0 -.02735-.33214 3.1410107 3.1410107 0 0 0 -3.563262-2.65191z"
     fill-opacity=".129278"
     stroke-width=".284292"
     id="path15" />
  <path
     d="m7.0907273 18.955502a3.1410107 3.1410107 0 0 0 -.2961459.05855l.2577117 1.758596a3.1410107 3.1410107 0 0 1 .2961459-.05855 3.1410107 3.1410107 0 0 1 3.305418 1.792351 3.1410107 3.1410107 0 0 0 .000212-.898494 3.1410107 3.1410107 0 0 0 -3.5633417-2.652453zm90.9058637-13.3217065a3.1410107 3.1410107 0 0 0 -2.652454 3.5633411 3.1410107 3.1410107 0 0 0 .257373.8601844 3.1410107 3.1410107 0 0 1 2.652792-2.6649291 3.1410107 3.1410107 0 0 1 .191605-.021343l-.257712-1.7585969a3.1410107 3.1410107 0 0 0 -.191604.021343zm-90.03808 21.3227835.2577117 1.758596a3.1410107 3.1410107 0 0 1 .2961459-.05855 3.1410107 3.1410107 0 0 1 3.3054174 1.79235 3.1410107 3.1410107 0 0 0 .000212-.898493 3.1410107 3.1410107 0 0 0 -3.2666154-2.680223 3.1410107 3.1410107 0 0 1 -.2920563.05963 3.1410107 3.1410107 0 0 1 -.3008153.02669zm90.910031-13.320076a3.1410107 3.1410107 0 0 0 -2.360476 3.503157 3.1410107 3.1410107 0 0 0 .257292.859635 3.1410107 3.1410107 0 0 1 2.652873-2.66438 3.1410107 3.1410107 0 0 1 .191605-.02134l-.255377-1.742664a3.1410107 3.1410107 0 0 1 -.18927.03728 3.1410107 3.1410107 0 0 1 -.296646.02832zm-89.7461016 21.262603.2576313 1.758047a3.1410107 3.1410107 0 0 1 .2961471-.05854 3.1410107 3.1410107 0 0 1 3.3054182 1.792351 3.1410107 3.1410107 0 0 0 .000212-.898493 3.1410107 3.1410107 0 0 0 -3.2633193-2.680707 3.1410107 3.1410107 0 0 1 -.2952722.06067 3.1410107 3.1410107 0 0 1 -.3008155.02668zm90.9067396-13.319593a3.1410107 3.1410107 0 0 0 -2.357265 3.502126 3.1410107 3.1410107 0 0 0 .257373.860184 3.1410107 3.1410107 0 0 1 2.652792-2.66493 3.1410107 3.1410107 0 0 1 .1916-.02135l-.25529-1.742115a3.1410107 3.1410107 0 0 1 -.18927.03728 3.1410107 3.1410107 0 0 1 -.29995.0288zm-89.742891 21.261567.257712 1.758598a3.1410107 3.1410107 0 0 1 .296225-.05801 3.1410107 3.1410107 0 0 1 3.305338 1.791802 3.1410107 3.1410107 0 0 0 .000131-.899043 3.1410107 3.1410107 0 0 0 -3.266535-2.679673 3.1410107 3.1410107 0 0 1 -.292056.05964 3.1410107 3.1410107 0 0 1 -.300813.0267zm90.910041-13.32002a3.1410107 3.1410107 0 0 0 -2.360559 3.502608 3.1410107 3.1410107 0 0 0 .258003.860655 3.1410107 3.1410107 0 0 1 2.652246-2.66485 3.1410107 3.1410107 0 0 1 .1916-.02135l-.25538-1.742663a3.1410107 3.1410107 0 0 1 -.18927.03728 3.1410107 3.1410107 0 0 1 -.29664.02833zm-89.746192 21.262001.257712 1.758596a3.1410107 3.1410107 0 0 1 .296147-.05854 3.1410107 3.1410107 0 0 1 3.305418 1.792348 3.1410107 3.1410107 0 0 0 .000212-.898492 3.1410107 3.1410107 0 0 0 -3.266616-2.680224 3.1410107 3.1410107 0 0 1 -.291974.0602 3.1410107 3.1410107 0 0 1 -.300895.02614zm90.910042-13.320019a3.1410107 3.1410107 0 0 0 -2.360479 3.503156 3.1410107 3.1410107 0 0 0 .257369.860184 3.1410107 3.1410107 0 0 1 2.6528-2.664927 3.1410107 3.1410107 0 0 1 .1916-.02135l-.25538-1.742663a3.1410107 3.1410107 0 0 1 -.18927.03728 3.1410107 3.1410107 0 0 1 -.29664.02833zm-89.746105 21.262597.257631 1.758047a3.1410107 3.1410107 0 0 1 .296148-.05854 3.1410107 3.1410107 0 0 1 3.305417 1.792351 3.1410107 3.1410107 0 0 0 .000213-.898492 3.1410107 3.1410107 0 0 0 -3.26332-2.68071 3.1410107 3.1410107 0 0 1 -.295192.06122 3.1410107 3.1410107 0 0 1 -.300896.02614zm90.906745-13.319536a3.1410107 3.1410107 0 0 0 -2.35726 3.502124 3.1410107 3.1410107 0 0 0 .25737.860185 3.1410107 3.1410107 0 0 1 2.65287-2.664382 3.1410107 3.1410107 0 0 1 .19153-.02189l-.2553-1.742115a3.1410107 3.1410107 0 0 1 -.18927.03728 3.1410107 3.1410107 0 0 1 -.29994.02881zm-89.742808 21.262114.257712 1.758598a3.1410107 3.1410107 0 0 1 .296147-.05854 3.1410107 3.1410107 0 0 1 3.305338 1.791803 3.1410107 3.1410107 0 0 0 .000292-.897944 3.1410107 3.1410107 0 0 0 -3.266696-2.680775 3.1410107 3.1410107 0 0 1 -.292056.05964 3.1410107 3.1410107 0 0 1 -.300735.02723zm90.909958-13.320582a3.1410107 3.1410107 0 0 0 -2.3604 3.503708 3.1410107 3.1410107 0 0 0 .2573.859632 3.1410107 3.1410107 0 0 1 2.65287-2.664379 3.1410107 3.1410107 0 0 1 .19152-.02189l-.25537-1.742666a3.1410107 3.1410107 0 0 1 -.18927.03728 3.1410107 3.1410107 0 0 1 -.29665.02833zm-89.150036 21.175103a3.1410107 3.1410107 0 0 1 -.295192.06122 3.1410107 3.1410107 0 0 1 -.300818.02667l.257631 1.758047a3.1410107 3.1410107 0 0 1 .296148-.05854 3.1410107 3.1410107 0 0 1 3.305337 1.7918 3.1410107 3.1410107 0 0 0 .000292-.897944 3.1410107 3.1410107 0 0 0 -3.263399-2.681255zm90.310106-13.232102a3.1410107 3.1410107 0 0 0 -2.35663 3.502592 3.1410107 3.1410107 0 0 0 .25729.859636 3.1410107 3.1410107 0 0 1 2.65287-2.664379 3.1410107 3.1410107 0 0 1 .19161-.02135l-.2553-1.742114a3.1410107 3.1410107 0 0 1 -.18927.03728 3.1410107 3.1410107 0 0 1 -.30057.02833zm-89.742257 21.262036.257712 1.758596a3.1410107 3.1410107 0 0 1 .296147-.05854 3.1410107 3.1410107 0 0 1 3.305337 1.791799 3.1410107 3.1410107 0 0 0 .000212-.898492 3.1410107 3.1410107 0 0 0 -3.266616-2.680223 3.1410107 3.1410107 0 0 1 -.291977.06017 3.1410107 3.1410107 0 0 1 -.300814.0267zm90.909957-13.320582a3.1410107 3.1410107 0 0 0 -2.36048 3.503157 3.1410107 3.1410107 0 0 0 .25793.860103 3.1410107 3.1410107 0 0 1 2.65232-2.664298 3.1410107 3.1410107 0 0 1 .1916-.02135l-.25537-1.742663a3.1410107 3.1410107 0 0 1 -.18927.03727 3.1410107 3.1410107 0 0 1 -.29673.02777zm-89.746102 21.262598.257711 1.758595a3.1410107 3.1410107 0 0 1 .296147-.05854 3.1410107 3.1410107 0 0 1 3.305338 1.7918 3.1410107 3.1410107 0 0 0 .000292-.897944 3.1410107 3.1410107 0 0 0 -3.266696-2.680772 3.1410107 3.1410107 0 0 1 -.291974.0602 3.1410107 3.1410107 0 0 1 -.300817.02667zm90.909412-13.320502a3.1410107 3.1410107 0 0 0 -2.35985 3.503624 3.1410107 3.1410107 0 0 0 .25729.859636 3.1410107 3.1410107 0 0 1 2.65287-2.664379 3.1410107 3.1410107 0 0 1 .19161-.02135l-.25538-1.742663a3.1410107 3.1410107 0 0 1 -.18927.03728 3.1410107 3.1410107 0 0 1 -.29728.02785zm-89.149489 21.175034a3.1410107 3.1410107 0 0 1 -.295192.06122 3.1410107 3.1410107 0 0 1 -.300817.02667l.257631 1.75804a3.1410107 3.1410107 0 0 1 .296147-.0585 3.1410107 3.1410107 0 0 1 3.305337 1.79181 3.1410107 3.1410107 0 0 0 .000293-.89795 3.1410107 3.1410107 0 0 0 -3.2634-2.68125zm90.310109-13.232103a3.1410107 3.1410107 0 0 0 -2.35663 3.502593 3.1410107 3.1410107 0 0 0 .25729.859636 3.1410107 3.1410107 0 0 1 2.65287-2.664382 3.1410107 3.1410107 0 0 1 .1916-.02135l-.25529-1.742114a3.1410107 3.1410107 0 0 1 -.18927.03727 3.1410107 3.1410107 0 0 1 -.30058.02833zm-89.74226 21.262033.257712 1.7586a3.1410107 3.1410107 0 0 1 .296147-.0585 3.1410107 3.1410107 0 0 1 3.305338 1.7918 3.1410107 3.1410107 0 0 0 .000292-.89794 3.1410107 3.1410107 0 0 0 -3.266696-2.68078 3.1410107 3.1410107 0 0 1 -.291978.0602 3.1410107 3.1410107 0 0 1 -.300813.0267zm90.90941-13.3205a3.1410107 3.1410107 0 0 0 -2.35985 3.503627 3.1410107 3.1410107 0 0 0 .25776.859004 3.1410107 3.1410107 0 0 1 2.65241-2.66375 3.1410107 3.1410107 0 0 1 .1916-.02135l-.25538-1.742663a3.1410107 3.1410107 0 0 1 -.18927.03728 3.1410107 3.1410107 0 0 1 -.29727.02785zm-89.745555 21.26252.257712 1.75859a3.1410107 3.1410107 0 0 1 .296147-.0585 3.1410107 3.1410107 0 0 1 3.305337 1.7918 3.1410107 3.1410107 0 0 0 .000292-.89794 3.1410107 3.1410107 0 0 0 -3.263948-2.68117 3.1410107 3.1410107 0 0 1 -.294721.0606 3.1410107 3.1410107 0 0 1 -.300818.0267zm90.909405-13.3205a3.1410107 3.1410107 0 0 0 -2.35984 3.50362 3.1410107 3.1410107 0 0 0 .25729.85964 3.1410107 3.1410107 0 0 1 2.65287-2.66438 3.1410107 3.1410107 0 0 1 .1916-.0214l-.25537-1.74266a3.1410107 3.1410107 0 0 1 -.18927.0373 3.1410107 3.1410107 0 0 1 -.29728.0278zm-89.74547 21.26307.257712 1.75859a3.1410107 3.1410107 0 0 1 .296147-.0585 3.1410107 3.1410107 0 0 1 3.563261 2.6519 3.1410107 3.1410107 0 0 1 .02735.33215l1.977254-.28976a2.754077 2.754077 0 0 1 -.120902-.49184 2.754077 2.754077 0 0 1 2.325645-3.1243 2.754077 2.754077 0 0 1 3.124301 2.32565 2.754077 2.754077 0 0 1 .02531.50584l2.210746-.32397a2.754077 2.754077 0 0 1 -.120902-.49184 2.754077 2.754077 0 0 1 2.325644-3.1243 2.754077 2.754077 0 0 1 3.124302 2.32565 2.754077 2.754077 0 0 1 .02531.50584l2.210194-.32389a2.754077 2.754077 0 0 1 -.120899-.49184 2.754077 2.754077 0 0 1 2.325644-3.1243 2.754077 2.754077 0 0 1 3.124302 2.32565 2.754077 2.754077 0 0 1 .02531.50585l2.210745-.32398a2.754077 2.754077 0 0 1 -.120901-.49183 2.754077 2.754077 0 0 1 2.325644-3.12431 2.754077 2.754077 0 0 1 3.124301 2.32565 2.754077 2.754077 0 0 1 .02531.50585l2.210195-.32389a2.754077 2.754077 0 0 1 -.120899-.49184 2.754077 2.754077 0 0 1 2.325644-3.1243 2.754077 2.754077 0 0 1 3.124301 2.32564 2.754077 2.754077 0 0 1 .02531.50585l2.210745-.32397a2.754077 2.754077 0 0 1 -.120902-.49184 2.754077 2.754077 0 0 1 2.325645-3.1243 2.754077 2.754077 0 0 1 3.124301 2.32564 2.754077 2.754077 0 0 1 .02531.50585l2.210746-.32397a2.754077 2.754077 0 0 1 -.120899-.49184 2.754077 2.754077 0 0 1 2.325644-3.1243 2.754077 2.754077 0 0 1 3.124302 2.32564 2.754077 2.754077 0 0 1 .0253.50585l2.210197-.32389a2.754077 2.754077 0 0 1 -.120902-.49184 2.754077 2.754077 0 0 1 2.325645-3.1243 2.754077 2.754077 0 0 1 3.124301 2.32564 2.754077 2.754077 0 0 1 .02531.50585l2.210746-.32397a2.754077 2.754077 0 0 1 -.120902-.49184 2.754077 2.754077 0 0 1 2.325644-3.1243 2.754077 2.754077 0 0 1 3.124301 2.32564 2.754077 2.754077 0 0 1 .02531.50585l2.210194-.32389a2.754077 2.754077 0 0 1 -.120899-.49184 2.754077 2.754077 0 0 1 2.325644-3.1243 2.754077 2.754077 0 0 1 3.1243 2.32564 2.754077 2.754077 0 0 1 .0253.50585l2.21075-.32397a2.754077 2.754077 0 0 1 -.1209-.49184 2.754077 2.754077 0 0 1 2.32564-3.1243 2.754077 2.754077 0 0 1 3.12431 2.32565 2.754077 2.754077 0 0 1 .0253.50584l1.74871-.25626a3.1410107 3.1410107 0 0 1 -.0664-.32643 3.1410107 3.1410107 0 0 1 2.65254-3.56279 3.1410107 3.1410107 0 0 1 .1916-.0214l-.25538-1.74266a3.1410107 3.1410107 0 0 1 -.18927.0373 3.1410107 3.1410107 0 0 1 -.29672.0278 3.1410107 3.1410107 0 0 0 -2.36048 3.50315 3.1410107 3.1410107 0 0 0 .0663.32643l-1.7487.25626a2.754077 2.754077 0 0 0 -.0253-.50585 2.754077 2.754077 0 0 0 -3.1243-2.32564 2.754077 2.754077 0 0 0 -2.32565 3.1243 2.754077 2.754077 0 0 0 .12091.49184l-2.21075.32397a2.754077 2.754077 0 0 0 -.0253-.50585 2.754077 2.754077 0 0 0 -3.124294-2.32564 2.754077 2.754077 0 0 0 -2.325644 3.1243 2.754077 2.754077 0 0 0 .120899.49184l-2.210194.32389a2.754077 2.754077 0 0 0 -.02531-.50585 2.754077 2.754077 0 0 0 -3.124301-2.32564 2.754077 2.754077 0 0 0 -2.325644 3.1243 2.754077 2.754077 0 0 0 .120902.49184l-2.210746.32397a2.754077 2.754077 0 0 0 -.02531-.50585 2.754077 2.754077 0 0 0 -3.124301-2.32564 2.754077 2.754077 0 0 0 -2.325645 3.1243 2.754077 2.754077 0 0 0 .120902.49184l-2.210197.32389a2.754077 2.754077 0 0 0 -.0253-.50585 2.754077 2.754077 0 0 0 -3.124301-2.32565 2.754077 2.754077 0 0 0 -2.325644 3.12431 2.754077 2.754077 0 0 0 .120899.49184l-2.210745.32397a2.754077 2.754077 0 0 0 -.02531-.50585 2.754077 2.754077 0 0 0 -3.124301-2.32565 2.754077 2.754077 0 0 0 -2.325645 3.12431 2.754077 2.754077 0 0 0 .120902.49184l-2.210745.32397a2.754077 2.754077 0 0 0 -.02531-.50585 2.754077 2.754077 0 0 0 -3.124301-2.32565 2.754077 2.754077 0 0 0 -2.325644 3.1243 2.754077 2.754077 0 0 0 .120899.49185l-2.210194.32389a2.754077 2.754077 0 0 0 -.02531-.50585 2.754077 2.754077 0 0 0 -3.124301-2.32565 2.754077 2.754077 0 0 0 -2.325644 3.1243 2.754077 2.754077 0 0 0 .120902.49184l-2.210746.32398a2.754077 2.754077 0 0 0 -.02531-.50585 2.754077 2.754077 0 0 0 -3.124302-2.32565 2.754077 2.754077 0 0 0 -2.325644 3.1243 2.754077 2.754077 0 0 0 .120899.49184l-2.210194.3239a2.754077 2.754077 0 0 0 -.02531-.50586 2.754077 2.754077 0 0 0 -3.124301-2.32564 2.754077 2.754077 0 0 0 -2.325644 3.1243 2.754077 2.754077 0 0 0 .120902.49184l-2.210746.32397a2.754077 2.754077 0 0 0 -.02531-.50585 2.754077 2.754077 0 0 0 -3.124301-2.32564 2.754077 2.754077 0 0 0 -2.325645 3.1243 2.754077 2.754077 0 0 0 .120902.49184l-1.977254.28976a3.1410107 3.1410107 0 0 0 -.02735-.33215 3.1410107 3.1410107 0 0 0 -3.266616-2.68022 3.1410107 3.1410107 0 0 1 -.291977.0602 3.1410107 3.1410107 0 0 1 -.300814.0267z"
     fill-opacity=".110266"
     stroke-width=".284292"
     id="path17" />
  <path
     d="m7.1858222 14.147938c-.5991621.0878-1.0805373.162958-1.0797496.168334l.7476135 5.101632a3.1410107 3.1410107 0 0 1 .2961459-.05855 3.1410107 3.1410107 0 0 1 3.563342 2.652454 3.1410107 3.1410107 0 0 1 -2.6524548 3.563341 3.1410107 3.1410107 0 0 1 -.3008154.02669l.2577117 1.758596a3.1410107 3.1410107 0 0 1 .2961459-.05855 3.1410107 3.1410107 0 0 1 3.5633416 2.652453 3.1410107 3.1410107 0 0 1 -2.6524543 3.563342 3.1410107 3.1410107 0 0 1 -.3008175.02667l.2576315 1.758049a3.1410107 3.1410107 0 0 1 .2961471-.05854 3.1410107 3.1410107 0 0 1 3.5633422 2.652454 3.1410107 3.1410107 0 0 1 -2.652455 3.563342 3.1410107 3.1410107 0 0 1 -.300813.0267l.257711 1.758595a3.1410107 3.1410107 0 0 1 .296148-.05854 3.1410107 3.1410107 0 0 1 3.563261 2.651903 3.1410107 3.1410107 0 0 1 -2.652455 3.563341 3.1410107 3.1410107 0 0 1 -.300817.02667l.257712 1.758599a3.1410107 3.1410107 0 0 1 .296147-.05854 3.1410107 3.1410107 0 0 1 3.563342 2.652454 3.1410107 3.1410107 0 0 1 -2.652455 3.563342 3.1410107 3.1410107 0 0 1 -.300817.02667l.257631 1.758047a3.1410107 3.1410107 0 0 1 .296147-.05854 3.1410107 3.1410107 0 0 1 3.563342 2.652454 3.1410107 3.1410107 0 0 1 -2.652455 3.563339 3.1410107 3.1410107 0 0 1 -.300813.0267l.257711 1.758596a3.1410107 3.1410107 0 0 1 .296148-.05854 3.1410107 3.1410107 0 0 1 3.563341 2.652451 3.1410107 3.1410107 0 0 1 -2.652454 3.563342 3.1410107 3.1410107 0 0 1 -.300814.0267l.257631 1.758047a3.1410107 3.1410107 0 0 1 .296147-.05854 3.1410107 3.1410107 0 0 1 3.563342 2.652455 3.1410107 3.1410107 0 0 1 -2.652454 3.563341 3.1410107 3.1410107 0 0 1 -.300813.0267l.257711 1.758596a3.1410107 3.1410107 0 0 1 .296147-.05854 3.1410107 3.1410107 0 0 1 3.563261 2.651903 3.1410107 3.1410107 0 0 1 -2.652454 3.563342 3.1410107 3.1410107 0 0 1 -.300813.0267l.257711 1.758595a3.1410107 3.1410107 0 0 1 .296147-.05854 3.1410107 3.1410107 0 0 1 3.563342 2.652455 3.1410107 3.1410107 0 0 1 -2.652454 3.563341 3.1410107 3.1410107 0 0 1 -.300818.02667l.257631 1.758047a3.1410107 3.1410107 0 0 1 .296148-.05854 3.1410107 3.1410107 0 0 1 3.563341 2.65245 3.1410107 3.1410107 0 0 1 -2.652454 3.56334 3.1410107 3.1410107 0 0 1 -.300813.0267l.257711 1.7586a3.1410107 3.1410107 0 0 1 .296147-.0585 3.1410107 3.1410107 0 0 1 3.563342 2.65245 3.1410107 3.1410107 0 0 1 -2.652535 3.56279 3.1410107 3.1410107 0 0 1 -.300818.0267l.257712 1.7586a3.1410107 3.1410107 0 0 1 .296148-.0585 3.1410107 3.1410107 0 0 1 3.563341 2.65246 3.1410107 3.1410107 0 0 1 -2.652454 3.56334 3.1410107 3.1410107 0 0 1 -.300817.0267l.257711 1.7586a3.1410107 3.1410107 0 0 1 .296148-.0585 3.1410107 3.1410107 0 0 1 3.563261 2.6519 3.1410107 3.1410107 0 0 1 .02735.33214l1.977251-.28975a2.754077 2.754077 0 0 1 -.120899-.49184 2.754077 2.754077 0 0 1 2.325644-3.1243 2.754077 2.754077 0 0 1 3.124302 2.32564 2.754077 2.754077 0 0 1 .02531.50585l2.210743-.32397a2.754077 2.754077 0 0 1 -.120899-.49184 2.754077 2.754077 0 0 1 2.325644-3.1243 2.754077 2.754077 0 0 1 3.124301 2.32564 2.754077 2.754077 0 0 1 .02531.50585l2.210194-.32389a2.754077 2.754077 0 0 1 -.120899-.49184 2.754077 2.754077 0 0 1 2.325644-3.1243 2.754077 2.754077 0 0 1 3.124301 2.32564 2.754077 2.754077 0 0 1 .02531.50585l2.210743-.32397a2.754077 2.754077 0 0 1 -.1209-.49184 2.754077 2.754077 0 0 1 2.325645-3.1243 2.754077 2.754077 0 0 1 3.124301 2.32564 2.754077 2.754077 0 0 1 .02531.50585l2.210194-.32389a2.754077 2.754077 0 0 1 -.1209-.49184 2.754077 2.754077 0 0 1 2.325645-3.1243 2.754077 2.754077 0 0 1 3.124301 2.32564 2.754077 2.754077 0 0 1 .02531.50586l2.210742-.32398a2.754077 2.754077 0 0 1 -.120899-.49184 2.754077 2.754077 0 0 1 2.325645-3.1243 2.754077 2.754077 0 0 1 3.124301 2.32565 2.754077 2.754077 0 0 1 .02531.50585l2.210743-.32397a2.754077 2.754077 0 0 1 -.120899-.49185 2.754077 2.754077 0 0 1 2.325644-3.1243 2.754077 2.754077 0 0 1 3.124301 2.32565 2.754077 2.754077 0 0 1 .02531.50585l2.210194-.32389a2.754077 2.754077 0 0 1 -.120899-.49185 2.754077 2.754077 0 0 1 2.325644-3.1243 2.754077 2.754077 0 0 1 3.124302 2.32565 2.754077 2.754077 0 0 1 .02531.50585l2.210743-.32397a2.754077 2.754077 0 0 1 -.120899-.49184 2.754077 2.754077 0 0 1 2.325644-3.12431 2.754077 2.754077 0 0 1 3.124301 2.32565 2.754077 2.754077 0 0 1 .02531.50585l2.210194-.32389a2.754077 2.754077 0 0 1 -.120899-.49184 2.754077 2.754077 0 0 1 2.325644-3.1243 2.754077 2.754077 0 0 1 3.124309 2.32564 2.754077 2.754077 0 0 1 .0253.50585l2.21075-.32397a2.754077 2.754077 0 0 1 -.1209-.49184 2.754077 2.754077 0 0 1 2.32564-3.1243 2.754077 2.754077 0 0 1 3.1243 2.32564 2.754077 2.754077 0 0 1 .0253.50585l1.74871-.25626a3.1410107 3.1410107 0 0 1 -.0664-.32643 3.1410107 3.1410107 0 0 1 2.65253-3.56279 3.1410107 3.1410107 0 0 1 .1916-.0213l-.25537-1.74267a3.1410107 3.1410107 0 0 1 -.18927.0373 3.1410107 3.1410107 0 0 1 -3.56334-2.65246 3.1410107 3.1410107 0 0 1 2.65245-3.56334 3.1410107 3.1410107 0 0 1 .1916-.0214l-.25537-1.742665a3.1410107 3.1410107 0 0 1 -.18927.03728 3.1410107 3.1410107 0 0 1 -3.56326-2.651903 3.1410107 3.1410107 0 0 1 2.65245-3.563342 3.1410107 3.1410107 0 0 1 .1916-.02135l-.25537-1.742666a3.1410107 3.1410107 0 0 1 -.18927.03728 3.1410107 3.1410107 0 0 1 -3.56334-2.652455 3.1410107 3.1410107 0 0 1 2.65245-3.563341 3.1410107 3.1410107 0 0 1 .1916-.02135l-.25529-1.742115a3.1410107 3.1410107 0 0 1 -.18927.03728 3.1410107 3.1410107 0 0 1 -3.56334-2.652455 3.1410107 3.1410107 0 0 1 2.65245-3.563341 3.1410107 3.1410107 0 0 1 .1916-.02135l-.25538-1.742663a3.1410107 3.1410107 0 0 1 -.18926.03727 3.1410107 3.1410107 0 0 1 -3.56335-2.652454 3.1410107 3.1410107 0 0 1 2.65254-3.56279 3.1410107 3.1410107 0 0 1 .1916-.02135l-.25538-1.742666a3.1410107 3.1410107 0 0 1 -.18927.03728 3.1410107 3.1410107 0 0 1 -3.56334-2.652454 3.1410107 3.1410107 0 0 1 2.65246-3.563342 3.1410107 3.1410107 0 0 1 .1916-.02135l-.2553-1.742115a3.1410107 3.1410107 0 0 1 -.18927.03728 3.1410107 3.1410107 0 0 1 -3.56334-2.652454 3.1410107 3.1410107 0 0 1 2.65246-3.563339 3.1410107 3.1410107 0 0 1 .1916-.02135l-.25538-1.742663a3.1410107 3.1410107 0 0 1 -.18927.03728 3.1410107 3.1410107 0 0 1 -3.56334-2.652452 3.1410107 3.1410107 0 0 1 2.65246-3.563342 3.1410107 3.1410107 0 0 1 .1916-.02135l-.2553-1.742115a3.1410107 3.1410107 0 0 1 -.18927.03728 3.1410107 3.1410107 0 0 1 -3.56334-2.652454 3.1410107 3.1410107 0 0 1 2.65246-3.563342 3.1410107 3.1410107 0 0 1 .1916-.02135l-.25538-1.742664a3.1410107 3.1410107 0 0 1 -.18927.03728 3.1410107 3.1410107 0 0 1 -3.563344-2.652454 3.1410107 3.1410107 0 0 1 2.652544-3.562791 3.1410107 3.1410107 0 0 1 .1916-.02135l-.25538-1.742667a3.1410107 3.1410107 0 0 1 -.18927.03728 3.1410107 3.1410107 0 0 1 -3.563344-2.652454 3.1410107 3.1410107 0 0 1 2.652454-3.563342 3.1410107 3.1410107 0 0 1 .19161-.02135l-.2553-1.742116a3.1410107 3.1410107 0 0 1 -.18927.03728 3.1410107 3.1410107 0 0 1 -3.563345-2.652454 3.1410107 3.1410107 0 0 1 2.652454-3.563341 3.1410107 3.1410107 0 0 1 .191603-.02134l-.255372-1.742634a3.1410107 3.1410107 0 0 1 -.189269.03728 3.1410107 3.1410107 0 0 1 -3.563341-2.6524541 3.1410107 3.1410107 0 0 1 2.652454-3.5633411 3.1410107 3.1410107 0 0 1 .191603-.021343l-.746392-5.09369515c-.000787-.005373-.484031.0608295-1.083196.14863345z"
     fill-opacity=".155894"
     stroke-width=".284292"
     id="path19" />
  <path
     d="m7.0907273 18.955502a3.1410107 3.1410107 0 0 0 -.2961459.05855l.095646.652675a3.1410107 3.1410107 0 0 1 .2961455-.058551 3.1410107 3.1410107 0 0 1 3.4977391 2.338824 3.1410107 3.1410107 0 0 0 -.030032-.339047 3.1410107 3.1410107 0 0 0 -3.5633415-2.652453zm90.9058637-13.3217065a3.1410107 3.1410107 0 0 0 -2.652454 3.5633411 3.1410107 3.1410107 0 0 0 .0656.3136306 3.1410107 3.1410107 0 0 1 2.682497-3.2242966 3.1410107 3.1410107 0 0 1 .191605-.021344l-.09565-.6526748a3.1410107 3.1410107 0 0 0 -.191604.021343zm-89.7419343 21.2642325a3.1410107 3.1410107 0 0 0 -.2961459.05855l.095646.652674a3.1410107 3.1410107 0 0 1 .2961454-.058549 3.1410107 3.1410107 0 0 1 3.4977388 2.338823 3.1410107 3.1410107 0 0 0 -.030031-.339046 3.1410107 3.1410107 0 0 0 -3.5633421-2.652454zm90.9058633-13.321706a3.1410107 3.1410107 0 0 0 -2.652454 3.563341 3.1410107 3.1410107 0 0 0 .0656.313631 3.1410107 3.1410107 0 0 1 2.682497-3.224297 3.1410107 3.1410107 0 0 1 .191604-.02134l-.09565-.652675a3.1410107 3.1410107 0 0 0 -.191605.02134zm-89.7420144 21.263684a3.1410107 3.1410107 0 0 0 -.2961459.05855l.095646.652677a3.1410107 3.1410107 0 0 1 .2961471-.05854 3.1410107 3.1410107 0 0 1 3.4977392 2.338821 3.1410107 3.1410107 0 0 0 -.03003-.339045 3.1410107 3.1410107 0 0 0 -3.5633416-2.652453zm90.9058644-13.321706a3.1410107 3.1410107 0 0 0 -2.652455 3.563341 3.1410107 3.1410107 0 0 0 .0656.313631 3.1410107 3.1410107 0 0 1 2.682495-3.224298 3.1410107 3.1410107 0 0 1 .19161-.02135l-.0957-.652675a3.1410107 3.1410107 0 0 0 -.1916.02134zm-89.741935 21.264233a3.1410107 3.1410107 0 0 0 -.296147.05854l.09564.652674a3.1410107 3.1410107 0 0 1 .296148-.05854 3.1410107 3.1410107 0 0 1 3.497739 2.338824 3.1410107 3.1410107 0 0 0 -.03011-.339596 3.1410107 3.1410107 0 0 0 -3.563261-2.651903zm90.905865-13.321706a3.1410107 3.1410107 0 0 0 -2.652536 3.56279 3.1410107 3.1410107 0 0 0 .0656.313631 3.1410107 3.1410107 0 0 1 2.682576-3.223747 3.1410107 3.1410107 0 0 1 .19161-.02135l-.0956-.652678a3.1410107 3.1410107 0 0 0 -.1916.02135zm-89.742016 21.263682a3.1410107 3.1410107 0 0 0 -.296147.05854l.09565.652674a3.1410107 3.1410107 0 0 1 .296147-.05854 3.1410107 3.1410107 0 0 1 3.497739 2.338821 3.1410107 3.1410107 0 0 0 -.03003-.339045 3.1410107 3.1410107 0 0 0 -3.563341-2.652454zm90.905866-13.321706a3.1410107 3.1410107 0 0 0 -2.652457 3.563342 3.1410107 3.1410107 0 0 0 .06561.31363 3.1410107 3.1410107 0 0 1 2.68249-3.224295 3.1410107 3.1410107 0 0 1 .19161-.02135l-.0957-.652674a3.1410107 3.1410107 0 0 0 -.1916.02135zm-89.742017 21.263685a3.1410107 3.1410107 0 0 0 -.296147.05854l.09564.652674a3.1410107 3.1410107 0 0 1 .296147-.05854 3.1410107 3.1410107 0 0 1 3.49774 2.338824 3.1410107 3.1410107 0 0 0 -.03003-.339046 3.1410107 3.1410107 0 0 0 -3.563342-2.652454zm90.905867-13.321706a3.1410107 3.1410107 0 0 0 -2.65246 3.563341 3.1410107 3.1410107 0 0 0 .0656.313631 3.1410107 3.1410107 0 0 1 2.6825-3.224298 3.1410107 3.1410107 0 0 1 .1916-.02135l-.0956-.652674a3.1410107 3.1410107 0 0 0 -.1916.02135zm-89.741857 21.264782a3.1410107 3.1410107 0 0 0 -.296147.05854l.09557.652126a3.1410107 3.1410107 0 0 1 .296147-.05854 3.1410107 3.1410107 0 0 1 3.497739 2.338824 3.1410107 3.1410107 0 0 0 -.02995-.338497 3.1410107 3.1410107 0 0 0 -3.563342-2.652454zm90.905867-13.321707a3.1410107 3.1410107 0 0 0 -2.65246 3.563342 3.1410107 3.1410107 0 0 0 .0655.313079 3.1410107 3.1410107 0 0 1 2.6825-3.224295 3.1410107 3.1410107 0 0 1 .1916-.02135l-.0956-.652677a3.1410107 3.1410107 0 0 0 -.19155.021885zm-89.742019 21.263683a3.1410107 3.1410107 0 0 0 -.296147.05854l.09557.652126a3.1410107 3.1410107 0 0 1 .296148-.05854 3.1410107 3.1410107 0 0 1 3.497739 2.338824 3.1410107 3.1410107 0 0 0 -.02995-.338497 3.1410107 3.1410107 0 0 0 -3.563341-2.652454zm90.905859-13.321707a3.1410107 3.1410107 0 0 0 -2.65245 3.563342 3.1410107 3.1410107 0 0 0 .0655.313082 3.1410107 3.1410107 0 0 1 2.6825-3.224298 3.1410107 3.1410107 0 0 1 .1916-.02135l-.0956-.652125a3.1410107 3.1410107 0 0 0 -.19161.02135zm-89.741929 21.264234a3.1410107 3.1410107 0 0 0 -.296147.05854l.09557.652125a3.1410107 3.1410107 0 0 1 .296147-.05854 3.1410107 3.1410107 0 0 1 3.497739 2.338824 3.1410107 3.1410107 0 0 0 -.03003-.339045 3.1410107 3.1410107 0 0 0 -3.563261-2.651906zm90.905859-13.321706a3.1410107 3.1410107 0 0 0 -2.65253 3.562793 3.1410107 3.1410107 0 0 0 .0655.313079 3.1410107 3.1410107 0 0 1 2.68258-3.223747 3.1410107 3.1410107 0 0 1 .1916-.02135l-.0956-.652126a3.1410107 3.1410107 0 0 0 -.19161.02135zm-89.74201 21.263684a3.1410107 3.1410107 0 0 0 -.296147.05854l.09557.652126a3.1410107 3.1410107 0 0 1 .296147-.05854 3.1410107 3.1410107 0 0 1 3.497739 2.338821 3.1410107 3.1410107 0 0 0 -.02995-.338497 3.1410107 3.1410107 0 0 0 -3.563342-2.652451zm90.90586-13.321706a3.1410107 3.1410107 0 0 0 -2.65245 3.563339 3.1410107 3.1410107 0 0 0 .0655.313082 3.1410107 3.1410107 0 0 1 2.6825-3.224295 3.1410107 3.1410107 0 0 1 .1916-.02135l-.0956-.652125a3.1410107 3.1410107 0 0 0 -.19161.02135zm-89.742011 21.263682a3.1410107 3.1410107 0 0 0 -.296147.05854l.09557.652126a3.1410107 3.1410107 0 0 1 .296147-.05854 3.1410107 3.1410107 0 0 1 3.497739 2.338823 3.1410107 3.1410107 0 0 0 -.02995-.3385 3.1410107 3.1410107 0 0 0 -3.563342-2.65245zm90.905861-13.321706a3.1410107 3.1410107 0 0 0 -2.65245 3.563342 3.1410107 3.1410107 0 0 0 .0655.313082 3.1410107 3.1410107 0 0 1 2.6825-3.224298 3.1410107 3.1410107 0 0 1 .1916-.02135l-.0956-.652126a3.1410107 3.1410107 0 0 0 -.1916.02135zm-89.741932 21.264235a3.1410107 3.1410107 0 0 0 -.296147.0585l.09556.65213a3.1410107 3.1410107 0 0 1 .296147-.0586 3.1410107 3.1410107 0 0 1 3.49774 2.33883 3.1410107 3.1410107 0 0 0 -.02995-.3385 3.1410107 3.1410107 0 0 0 -3.563342-2.65245zm90.905862-13.321708a3.1410107 3.1410107 0 0 0 -2.65245 3.563342 3.1410107 3.1410107 0 0 0 .0654.312531 3.1410107 3.1410107 0 0 1 2.68258-3.223747 3.1410107 3.1410107 0 0 1 .1916-.02135l-.0956-.652125a3.1410107 3.1410107 0 0 0 -.1916.02135zm-89.742013 21.263688a3.1410107 3.1410107 0 0 0 -.296147.0585l.09557.65212a3.1410107 3.1410107 0 0 1 .296147-.0585 3.1410107 3.1410107 0 0 1 3.49774 2.33883 3.1410107 3.1410107 0 0 0 -.02995-.3385 3.1410107 3.1410107 0 0 0 -3.563341-2.65245zm90.905863-13.32171a3.1410107 3.1410107 0 0 0 -2.65245 3.56334 3.1410107 3.1410107 0 0 0 .0655.31308 3.1410107 3.1410107 0 0 1 2.6825-3.2243 3.1410107 3.1410107 0 0 1 .1916-.0213l-.0956-.65213a3.1410107 3.1410107 0 0 0 -.1916.0214zm-89.741934 21.26423a3.1410107 3.1410107 0 0 0 -.296147.0585l.09557.65213a3.1410107 3.1410107 0 0 1 .296147-.0585 3.1410107 3.1410107 0 0 1 3.495191 2.32909 3.1410107 3.1410107 0 0 0 -.02749-.32931 3.1410107 3.1410107 0 0 0 -3.563261-2.65191zm90.905864-13.3217a3.1410107 3.1410107 0 0 0 -2.65253 3.56279 3.1410107 3.1410107 0 0 0 .0658.32258 3.1410107 3.1410107 0 0 1 2.6823-3.23325 3.1410107 3.1410107 0 0 1 .19161-.0213l-.0956-.65213a3.1410107 3.1410107 0 0 0 -.1916.0214zm-83.133258 12.39985a2.754077 2.754077 0 0 0 -2.325644 3.1243 2.754077 2.754077 0 0 0 .06984.31582 2.754077 2.754077 0 0 1 2.351359-2.78799 2.754077 2.754077 0 0 1 3.053646 2.00434 2.754077 2.754077 0 0 0 -.02492-.33082 2.754077 2.754077 0 0 0 -3.124301-2.32564zm7.565096-1.10862a2.754077 2.754077 0 0 0 -2.325644 3.12431 2.754077 2.754077 0 0 0 .06984.31581 2.754077 2.754077 0 0 1 2.351356-2.78799 2.754077 2.754077 0 0 1 3.053646 2.00434 2.754077 2.754077 0 0 0 -.02492-.33082 2.754077 2.754077 0 0 0 -3.124302-2.32564zm7.564547-1.10853a2.754077 2.754077 0 0 0 -2.325644 3.1243 2.754077 2.754077 0 0 0 .06984.31581 2.754077 2.754077 0 0 1 2.351359-2.78799 2.754077 2.754077 0 0 1 3.053646 2.00434 2.754077 2.754077 0 0 0 -.02492-.33082 2.754077 2.754077 0 0 0 -3.124302-2.32564zm7.565096-1.10862a2.754077 2.754077 0 0 0 -2.325645 3.1243 2.754077 2.754077 0 0 0 .06984.31581 2.754077 2.754077 0 0 1 2.351357-2.78799 2.754077 2.754077 0 0 1 3.053646 2.00434 2.754077 2.754077 0 0 0 -.02492-.33082 2.754077 2.754077 0 0 0 -3.124301-2.32564zm7.564547-1.10854a2.754077 2.754077 0 0 0 -2.325644 3.1243 2.754077 2.754077 0 0 0 .06984.31581 2.754077 2.754077 0 0 1 2.35136-2.78799 2.754077 2.754077 0 0 1 3.053645 2.00434 2.754077 2.754077 0 0 0 -.02492-.33082 2.754077 2.754077 0 0 0 -3.124301-2.32564zm7.565096-1.10862a2.754077 2.754077 0 0 0 -2.325645 3.1243 2.754077 2.754077 0 0 0 .06984.31582 2.754077 2.754077 0 0 1 2.351357-2.78799 2.754077 2.754077 0 0 1 3.053645 2.00433 2.754077 2.754077 0 0 0 -.02492-.33081 2.754077 2.754077 0 0 0 -3.124301-2.32565zm7.565098-1.10862a2.754077 2.754077 0 0 0 -2.325644 3.1243 2.754077 2.754077 0 0 0 .06984.31582 2.754077 2.754077 0 0 1 2.351359-2.78799 2.754077 2.754077 0 0 1 3.053643 2.00433 2.754077 2.754077 0 0 0 -.02492-.33081 2.754077 2.754077 0 0 0 -3.124302-2.32565zm7.564544-1.10854a2.754077 2.754077 0 0 0 -2.325644 3.1243 2.754077 2.754077 0 0 0 .06984.31582 2.754077 2.754077 0 0 1 2.351359-2.78799 2.754077 2.754077 0 0 1 3.053646 2.00433 2.754077 2.754077 0 0 0 -.02492-.33081 2.754077 2.754077 0 0 0 -3.124301-2.32565zm7.565096-1.10862a2.754077 2.754077 0 0 0 -2.325644 3.1243 2.754077 2.754077 0 0 0 .06984.31582 2.754077 2.754077 0 0 1 2.351356-2.78799 2.754077 2.754077 0 0 1 3.053646 2.00433 2.754077 2.754077 0 0 0 -.02492-.33081 2.754077 2.754077 0 0 0 -3.124302-2.32565zm7.564547-1.10854a2.754077 2.754077 0 0 0 -2.325644 3.1243 2.754077 2.754077 0 0 0 .06984.31582 2.754077 2.754077 0 0 1 2.351359-2.78799 2.754077 2.754077 0 0 1 3.053646 2.00433 2.754077 2.754077 0 0 0 -.0249-.33081 2.754077 2.754077 0 0 0 -3.1243-2.32565zm7.565091-1.10862a2.754077 2.754077 0 0 0 -2.32564 3.1243 2.754077 2.754077 0 0 0 .0698.31582 2.754077 2.754077 0 0 1 2.35136-2.78799 2.754077 2.754077 0 0 1 3.05365 2.00434 2.754077 2.754077 0 0 0 -.0249-.33082 2.754077 2.754077 0 0 0 -3.1243-2.32565zm-79.830206 14.99169a3.1410107 3.1410107 0 0 1 .06768.32006 3.1410107 3.1410107 0 0 1 .02735.33214l1.977254-.28975a2.754077 2.754077 0 0 1 -.120902-.49184 2.754077 2.754077 0 0 1 -.01476-.15441zm7.373359-1.08052a2.754077 2.754077 0 0 1 .02795.15247 2.754077 2.754077 0 0 1 .02531.50586l2.210745-.32398a2.754077 2.754077 0 0 1 -.120902-.49184 2.754077 2.754077 0 0 1 -.01476-.15441zm7.565096-1.10862a2.754077 2.754077 0 0 1 .02795.15248 2.754077 2.754077 0 0 1 .02531.50585l2.210194-.32389a2.754077 2.754077 0 0 1 -.1209-.49185 2.754077 2.754077 0 0 1 -.01478-.1544zm7.564547-1.10854a2.754077 2.754077 0 0 1 .02795.15248 2.754077 2.754077 0 0 1 .02531.50585l2.210745-.32397a2.754077 2.754077 0 0 1 -.120902-.49185 2.754077 2.754077 0 0 1 -.01475-.1544zm7.565095-1.10862a2.754077 2.754077 0 0 1 .02795.15248 2.754077 2.754077 0 0 1 .02531.50585l2.210194-.32389a2.754077 2.754077 0 0 1 -.120899-.49184 2.754077 2.754077 0 0 1 -.01476-.15441zm7.564548-1.10854a2.754077 2.754077 0 0 1 .02795.15248 2.754077 2.754077 0 0 1 .02531.50585l2.210746-.32397a2.754077 2.754077 0 0 1 -.120902-.49184 2.754077 2.754077 0 0 1 -.01478-.15441zm7.565095-1.10862a2.754077 2.754077 0 0 1 .02795.15248 2.754077 2.754077 0 0 1 .02531.50585l2.210746-.32397a2.754077 2.754077 0 0 1 -.1209-.49184 2.754077 2.754077 0 0 1 -.01478-.15441zm7.565096-1.10861a2.754077 2.754077 0 0 1 .02795.15247 2.754077 2.754077 0 0 1 .0253.50585l2.210197-.32389a2.754077 2.754077 0 0 1 -.120902-.49184 2.754077 2.754077 0 0 1 -.01475-.15441zm7.564547-1.10854a2.754077 2.754077 0 0 1 .02795.15247 2.754077 2.754077 0 0 1 .02531.50585l2.210745-.32397a2.754077 2.754077 0 0 1 -.120902-.49184 2.754077 2.754077 0 0 1 -.01476-.15441zm7.565096-1.10862a2.754077 2.754077 0 0 1 .02795.15247 2.754077 2.754077 0 0 1 .02531.50585l2.210194-.32389a2.754077 2.754077 0 0 1 -.1209-.49184 2.754077 2.754077 0 0 1 -.01478-.1544zm7.564547-1.10854a2.754077 2.754077 0 0 1 .028.15247 2.754077 2.754077 0 0 1 .0253.50585l2.21075-.32397a2.754077 2.754077 0 0 1 -.1209-.49184 2.754077 2.754077 0 0 1 -.0148-.1544zm7.5651-1.10862a2.754077 2.754077 0 0 1 .028.15247 2.754077 2.754077 0 0 1 .0253.50585l1.74871-.25626a3.1410107 3.1410107 0 0 1 -.0664-.32643 3.1410107 3.1410107 0 0 1 -.0303-.32553z"
     fill-opacity=".13308"
     stroke-width=".284292"
     id="path21" />
  <path
     d="m7.1266788 13.74435c-.5991621.0878-1.0805373.162958-1.0797496.168334l.7476135 5.101632a3.1410107 3.1410107 0 0 1 .2961459-.05855 3.1410107 3.1410107 0 0 1 3.5633414 2.652454 3.1410107 3.1410107 0 0 1 -2.6524541 3.563341 3.1410107 3.1410107 0 0 1 -.3008154.02668l.2577116 1.758596a3.1410107 3.1410107 0 0 1 .2961459-.05855 3.1410107 3.1410107 0 0 1 3.563342 2.652453 3.1410107 3.1410107 0 0 1 -2.6524547 3.563342 3.1410107 3.1410107 0 0 1 -.3008175.02667l.2576312 1.758047a3.1410107 3.1410107 0 0 1 .2961472-.05854 3.1410107 3.1410107 0 0 1 3.5633418 2.652456 3.1410107 3.1410107 0 0 1 -2.652454 3.563341 3.1410107 3.1410107 0 0 1 -.300814.0267l.257712 1.758596a3.1410107 3.1410107 0 0 1 .296147-.05854 3.1410107 3.1410107 0 0 1 3.563261 2.651903 3.1410107 3.1410107 0 0 1 -2.652454 3.563342 3.1410107 3.1410107 0 0 1 -.300818.02667l.257712 1.758598a3.1410107 3.1410107 0 0 1 .296147-.05854 3.1410107 3.1410107 0 0 1 3.563342 2.652455 3.1410107 3.1410107 0 0 1 -2.652454 3.563341 3.1410107 3.1410107 0 0 1 -.300818.02667l.257632 1.758047a3.1410107 3.1410107 0 0 1 .296147-.05854 3.1410107 3.1410107 0 0 1 3.563341 2.652455 3.1410107 3.1410107 0 0 1 -2.652454 3.563339 3.1410107 3.1410107 0 0 1 -.300814.0267l.257712 1.758595a3.1410107 3.1410107 0 0 1 .296147-.05854 3.1410107 3.1410107 0 0 1 3.563341 2.652452 3.1410107 3.1410107 0 0 1 -2.652454 3.563341 3.1410107 3.1410107 0 0 1 -.300813.0267l.257631 1.758047a3.1410107 3.1410107 0 0 1 .296147-.05854 3.1410107 3.1410107 0 0 1 3.563342 2.652454 3.1410107 3.1410107 0 0 1 -2.652455 3.563342 3.1410107 3.1410107 0 0 1 -.300813.0267l.257712 1.758595a3.1410107 3.1410107 0 0 1 .296147-.05854 3.1410107 3.1410107 0 0 1 3.563261 2.651903 3.1410107 3.1410107 0 0 1 -2.652455 3.563342 3.1410107 3.1410107 0 0 1 -.300813.0267l.257712 1.758596a3.1410107 3.1410107 0 0 1 .296147-.05854 3.1410107 3.1410107 0 0 1 3.563341 2.652454 3.1410107 3.1410107 0 0 1 -2.652454 3.563342 3.1410107 3.1410107 0 0 1 -.300817.02667l.257631 1.758047a3.1410107 3.1410107 0 0 1 .296147-.05854 3.1410107 3.1410107 0 0 1 3.563342 2.652448 3.1410107 3.1410107 0 0 1 -2.652455 3.56335 3.1410107 3.1410107 0 0 1 -.300813.0267l.257712 1.7586a3.1410107 3.1410107 0 0 1 .296147-.0585 3.1410107 3.1410107 0 0 1 3.563342 2.65245 3.1410107 3.1410107 0 0 1 -2.652536 3.56279 3.1410107 3.1410107 0 0 1 -.300817.0267l.257712 1.75859a3.1410107 3.1410107 0 0 1 .296147-.0585 3.1410107 3.1410107 0 0 1 3.563342 2.65246 3.1410107 3.1410107 0 0 1 -2.652454 3.56334 3.1410107 3.1410107 0 0 1 -.300818.0267l.257712 1.7586a3.1410107 3.1410107 0 0 1 .296147-.0585 3.1410107 3.1410107 0 0 1 3.563261 2.6519 3.1410107 3.1410107 0 0 1 .02735.33215l1.977252-.28976a2.754077 2.754077 0 0 1 -.1209-.49184 2.754077 2.754077 0 0 1 2.325645-3.1243 2.754077 2.754077 0 0 1 3.124301 2.32564 2.754077 2.754077 0 0 1 .02531.50585l2.210742-.32397a2.754077 2.754077 0 0 1 -.120899-.49184 2.754077 2.754077 0 0 1 2.325645-3.1243 2.754077 2.754077 0 0 1 3.124301 2.32564 2.754077 2.754077 0 0 1 .02531.50585l2.210195-.32389a2.754077 2.754077 0 0 1 -.1209-.49184 2.754077 2.754077 0 0 1 2.325645-3.1243 2.754077 2.754077 0 0 1 3.124301 2.32564 2.754077 2.754077 0 0 1 .02531.50586l2.210743-.32398a2.754077 2.754077 0 0 1 -.120899-.49184 2.754077 2.754077 0 0 1 2.325644-3.1243 2.754077 2.754077 0 0 1 3.124302 2.32565 2.754077 2.754077 0 0 1 .02531.50585l2.210194-.32389a2.754077 2.754077 0 0 1 -.120899-.49185 2.754077 2.754077 0 0 1 2.325644-3.1243 2.754077 2.754077 0 0 1 3.124302 2.32565 2.754077 2.754077 0 0 1 .02531.50585l2.210743-.32397a2.754077 2.754077 0 0 1 -.120899-.49185 2.754077 2.754077 0 0 1 2.325644-3.1243 2.754077 2.754077 0 0 1 3.124301 2.32565 2.754077 2.754077 0 0 1 .02531.50585l2.210743-.32397a2.754077 2.754077 0 0 1 -.1209-.49185 2.754077 2.754077 0 0 1 2.325645-3.1243 2.754077 2.754077 0 0 1 3.124301 2.32565 2.754077 2.754077 0 0 1 .02531.50585l2.210194-.32389a2.754077 2.754077 0 0 1 -.1209-.49184 2.754077 2.754077 0 0 1 2.325645-3.12431 2.754077 2.754077 0 0 1 3.124301 2.32565 2.754077 2.754077 0 0 1 .02531.50585l2.210742-.32397a2.754077 2.754077 0 0 1 -.120899-.49184 2.754077 2.754077 0 0 1 2.325645-3.1243 2.754077 2.754077 0 0 1 3.124301 2.32564 2.754077 2.754077 0 0 1 .02531.50585l2.210195-.32389a2.754077 2.754077 0 0 1 -.1209-.49184 2.754077 2.754077 0 0 1 2.325645-3.1243 2.754077 2.754077 0 0 1 3.1243 2.32564 2.754077 2.754077 0 0 1 .0253.50585l2.21074-.32397a2.754077 2.754077 0 0 1 -.1209-.49184 2.754077 2.754077 0 0 1 2.32565-3.1243 2.754077 2.754077 0 0 1 3.1243 2.32564 2.754077 2.754077 0 0 1 .0253.50585l1.7487-.25626a3.1410107 3.1410107 0 0 1 -.0664-.32642 3.1410107 3.1410107 0 0 1 2.65253-3.5628 3.1410107 3.1410107 0 0 1 .1916-.0214l-.25538-1.74267a3.1410107 3.1410107 0 0 1 -.18926.0373 3.1410107 3.1410107 0 0 1 -3.56335-2.65245 3.1410107 3.1410107 0 0 1 2.65246-3.56335 3.1410107 3.1410107 0 0 1 .1916-.0213l-.25538-1.742662a3.1410107 3.1410107 0 0 1 -.18927.03728 3.1410107 3.1410107 0 0 1 -3.56326-2.651903 3.1410107 3.1410107 0 0 1 2.65246-3.563342 3.1410107 3.1410107 0 0 1 .1916-.02135l-.25538-1.742666a3.1410107 3.1410107 0 0 1 -.18927.03727 3.1410107 3.1410107 0 0 1 -3.56334-2.652454 3.1410107 3.1410107 0 0 1 2.65246-3.563342 3.1410107 3.1410107 0 0 1 .1916-.02135l-.2553-1.742115a3.1410107 3.1410107 0 0 1 -.18927.03727 3.1410107 3.1410107 0 0 1 -3.56334-2.652454 3.1410107 3.1410107 0 0 1 2.65246-3.563342 3.1410107 3.1410107 0 0 1 .1916-.02135l-.25538-1.742664a3.1410107 3.1410107 0 0 1 -.18927.03728 3.1410107 3.1410107 0 0 1 -3.56334-2.652455 3.1410107 3.1410107 0 0 1 2.65254-3.56279 3.1410107 3.1410107 0 0 1 .1916-.02135l-.25538-1.742666a3.1410107 3.1410107 0 0 1 -.18927.03728 3.1410107 3.1410107 0 0 1 -3.56334-2.652455 3.1410107 3.1410107 0 0 1 2.65245-3.563341 3.1410107 3.1410107 0 0 1 .19161-.02135l-.2553-1.742115a3.1410107 3.1410107 0 0 1 -.18927.03728 3.1410107 3.1410107 0 0 1 -3.56334-2.652455 3.1410107 3.1410107 0 0 1 2.65245-3.563338 3.1410107 3.1410107 0 0 1 .19161-.02135l-.25538-1.742663a3.1410107 3.1410107 0 0 1 -.18927.03728 3.1410107 3.1410107 0 0 1 -3.56334-2.652451 3.1410107 3.1410107 0 0 1 2.65245-3.563342 3.1410107 3.1410107 0 0 1 .1916-.02135l-.25529-1.742115a3.1410107 3.1410107 0 0 1 -.18927.03728 3.1410107 3.1410107 0 0 1 -3.563344-2.652454 3.1410107 3.1410107 0 0 1 2.652454-3.563342 3.1410107 3.1410107 0 0 1 .1916-.02135l-.25537-1.742663a3.1410107 3.1410107 0 0 1 -.18927.03728 3.1410107 3.1410107 0 0 1 -3.563345-2.652454 3.1410107 3.1410107 0 0 1 2.652535-3.56279 3.1410107 3.1410107 0 0 1 .1916-.02135l-.25537-1.742666a3.1410107 3.1410107 0 0 1 -.18927.03728 3.1410107 3.1410107 0 0 1 -3.563346-2.652454 3.1410107 3.1410107 0 0 1 2.652456-3.563343 3.1410107 3.1410107 0 0 1 .1916-.02135l-.25529-1.742114a3.1410107 3.1410107 0 0 1 -.18927.03727 3.1410107 3.1410107 0 0 1 -3.563347-2.652454 3.1410107 3.1410107 0 0 1 2.652455-3.563341 3.1410107 3.1410107 0 0 1 .191603-.02134l-.255341-1.742907a3.1410107 3.1410107 0 0 1 -.189268.037276 3.1410107 3.1410107 0 0 1 -3.563342-2.652454 3.1410107 3.1410107 0 0 1 2.652455-3.5633412 3.1410107 3.1410107 0 0 1 .191603-.0213433l-.746406-5.09339181c-.000787-.005373-.484032.0608295-1.083197.14863349z"
     fill="#fff"
     stroke-width=".284292"
     id="path23" />
  <rect
     height="94.682625"
     rx="1.093074"
     ry=".009803"
     transform="matrix(.98943234 -.14499534 .14499534 .98943234 0 0)"
     width="74.580154"
     x="12.861159"
     y="23.77919"
     id="rect25"
     stroke-width=".284292"
     fill="url(#a)" />
  <path
     style="opacity:1;fill:#ffffff;fill-opacity:0.99450546;stroke-width:3.04120207"
     inkscape:connector-curvature="0"
     d="M 64.362963,81.734457 C 63.335519,76.965271 64.037905,77.427313 50.341554,72.51059 43.112821,69.915591 39.842842,69.065033 39.44783,69.676974 c -0.375837,0.582239 -0.08181,2.144429 0.880218,4.674974 l 1.444486,3.800585 10.860776,3.924732 c 5.973425,2.158621 11.249981,3.863627 11.725704,3.788921 0.598923,-0.09389 0.600138,-1.365063 0.0041,-4.131763 z m 24.965694,-2.826453 c 0.984497,-1.168688 0.157854,-4.478255 -1.309691,-5.243221 -2.10448,-1.09704 -21.68911,-8.203173 -22.265724,-8.078952 -0.303293,0.06533 -0.124663,2.099859 0.396942,4.521094 l 0.948398,4.40229 6.892528,2.451904 c 12.344847,4.391499 13.187965,4.498561 15.337458,1.946905 z M 87.484544,65.106361 C 87.29764,63.129811 86.753487,61.051565 86.275563,60.488031 85.070381,59.067552 62.927895,50.9735 62.189431,51.683482 c -0.653256,0.6281 0.305107,5.408622 1.548493,7.723549 0.527262,0.981724 4.386342,2.732393 12.012074,5.449181 6.17938,2.201547 11.424133,3.967007 11.655008,3.923302 0.230806,-0.04351 0.266816,-1.696683 0.07985,-3.673222 z M 61.333159,67.67071 60.3881,63.283939 48.66295,58.949702 c -6.448866,-2.383845 -11.9692,-4.09967 -12.267427,-3.812924 -0.97981,0.942069 1.034371,8.405418 2.470432,9.154024 2.52173,1.314547 21.693217,8.03218 22.546834,7.900327 0.607721,-0.0939 0.584024,-1.439862 -0.07963,-4.520419 z M 84.377895,50.116388 83.442842,45.776056 72.166753,41.583747 C 65.964884,39.277945 60.34819,37.488398 59.685176,37.606938 c -1.014338,0.181511 -1.069562,0.838241 -0.348111,4.144248 0.471716,2.160739 1.18532,4.26159 1.586065,4.66847 1.037132,1.052845 22.975627,8.794816 23.748499,8.38071 0.35268,-0.189211 0.22058,-2.296781 -0.293719,-4.683978 z m -25.009579,7.128929 c 0.316966,-2.038902 -1.020506,-6.916072 -2.145371,-7.823368 -1.839379,-1.483542 -18.923403,-7.252004 -20.482827,-6.916051 -1.881399,0.405314 -3.120226,3.582643 -2.314536,5.936208 0.530276,1.548793 2.346224,2.439674 12.225264,5.997016 6.381377,2.297867 11.812433,4.132726 12.069001,4.077453 0.256573,-0.05528 0.548363,-0.62734 0.648469,-1.271258 z"
     id="path1258-2" />
  <path
     d="m88.703446 68.304678c-16.113482 2.361334-27.267298 17.345512-24.905964 33.458992 2.361334 16.11349 17.345434 27.26675 33.458917 24.90542 16.113481-2.36133 27.266831-17.34489 24.905491-33.458368-2.36133-16.113485-17.34496-27.267378-33.458444-24.906044zm.08244.562575c15.809454-2.316779 30.496654 8.616467 32.813434 24.425911 2.31678 15.809446-8.61592 30.496576-24.425365 32.813356-15.809445 2.31677-30.497121-8.61584-32.8139-24.42529-2.316779-15.809442 8.616387-30.497198 24.425831-32.813977zm.140248.957036c-15.274375 2.238368-25.847409 16.442317-23.609041 31.716701 2.238368 15.27437 16.442239 25.84686 31.716616 23.60849 15.274381-2.23837 25.846941-16.44169 23.608571-31.716068-2.23836-15.274379-16.44176-25.847491-31.716144-23.609123zm.08244.562575c14.970346-2.193813 28.877326 8.158649 31.071136 23.12899 2.19381 14.970346-8.1581 28.877236-23.128447 31.071046-14.970339 2.19382-28.877786-8.15802-31.071599-23.12836-2.193813-14.970338 8.158571-28.877863 23.12891-31.071676zm-2.839282 3.820246c-.07473.01268-.149752.02979-.224709.05201-1.373767.407147-1.753079 1.848092-1.29854 3.381768.437306 1.475529 1.538811 2.524819 2.898041 2.121983 1.35923-.40284 1.711193-1.882988 1.273887-3.358517-.454406-1.533221-1.528017-2.389084-2.648679-2.197244zm8.951631-.803371-.723449 5.395212.601012.08028.327348-2.441998 2.164436.29058.08771-.65373-2.164433-.29058.220762-1.645205 2.457475.329571.08716-.653649zm-8.832909 1.452664c.813471-.133576 1.582502.538651 1.931889 1.717528.376989 1.272007.03069 2.291493-.863346 2.556461-.894039.264969-1.739756-.401324-2.114592-1.666061-.383449-1.293813-.0405-2.296925.882615-2.570511.05451-.01615.109203-.0285.163433-.03743zm-5.481496 1.716895-.535934.283371 2.541511 4.812932 2.534142-1.337729-.307727-.583435-1.998127 1.054906zm20.588042-1.870548-2.128409 5.01017.558312.236939.912957-2.149014 1.34651.572066c.50238.213428.62595.562238.35323 1.204172-.22528.530296-.40556 1.071897-.44268 1.294997l.68344.290434.0476-.111915c-.11707-.189761-.11914-.281023.004-.590999l.35742-.919414c.20819-.586982.18939-.833534-.0953-1.15218.56198-.140147.83902-.384793 1.07912-.949973.3735-.879174.10064-1.555195-.77156-1.925731zm.31211.816248 1.38127.587175c.4954.210463.62424.586009.3871 1.144213-.25196.593093-.63559.759579-1.20775.516509l-1.28421-.54528zm-25.629745 4.493845-.455968.400167 3.587627 4.093392 2.154836-1.888789-.434626-.495813-1.698867 1.488625zm-2.712962 2.855572-1.836482 2.674936 4.487017 3.081089 1.862418-2.712408-.543492-.373233-1.519256 2.21261-1.487591-1.021669 1.377793-2.006124-.54404-.373152-1.377242 2.006043-1.368958-.939721 1.493403-2.174589zm34.390247-4.231011c-.69628.103472-1.39388.559376-1.96939 1.251039-.98434 1.183001-1.24571 2.681884-.15595 3.588643 1.08976.906755 2.51618.377641 3.50052-.80536 1.09102-1.311209 1.15067-2.780515.18912-3.580596-.48187-.400948-1.02275-.534148-1.5643-.453726zm.0387.64699c.39543-.05996.7737.03946 1.09749.308885.69931.581876.60518 1.667022-.23369 2.675197-.84857 1.019828-1.88922 1.298194-2.60601.701773-.71679-.596425-.63205-1.669754.21167-2.683755.4855-.583488 1.02216-.924831 1.53054-1.0021zm-17.108677 2.536917c-8.648666 1.26741-14.637602 9.312368-13.370192 17.961034 1.26741 8.648665 9.312917 14.637525 17.961583 13.370115s14.636976-9.31284 13.369566-17.961505c-1.26741-8.648666-9.312291-14.637054-17.960957-13.369644zm.08244.562575c8.344628-1.222855 16.093077 4.544883 17.315937 12.889511 1.22285 8.344623-4.54481 16.093633-12.88943 17.316483-8.344628 1.22286-16.093711-4.54535-17.316566-12.889977-1.222855-8.344628 4.545431-16.093162 12.890059-17.316017zm.183965 1.255355c-7.644644 1.120277-12.938946 8.232051-11.818669 15.876698 1.120277 7.644641 8.232602 12.938861 15.877246 11.818591 7.644645-1.12028 12.938315-8.23252 11.818035-15.877169-1.12028-7.644646-8.231966-12.938396-15.876612-11.81812zm.08244.562576c7.340608-1.075722 14.155872 3.997378 15.231602 11.337986 1.07572 7.340607-3.9973 14.156427-11.337909 15.232147-7.340606 1.07572-14.156507-3.99785-15.232229-11.338453-1.075722-7.340609 3.99793-14.155959 11.338536-15.23168zm-21.172083 4.598207-.19361.574408 2.133631.719915-.744235 2.205099-2.133553-.719366-.193613.574409 5.157495 1.739803.194164-.574489-2.399294-.809494.743605-2.20557 2.399295.809497.194161-.574489zm43.359945-5.55052-4.59784 2.91405.31298.492875 3.0096-1.907424.8832-.559857-3.21961 3.530288.31677.499615 4.58126-1.395851-1.18468.750511-2.71478 1.721116.30437.480106 4.59784-2.914049-.459-.723449-4.58745 1.399563 3.22014-3.557303zm-18.411551 4.564052c-2.486482.79376-2.679469 2.378098-2.552509 4.057695 2.025678-.600933 2.845858-1.981215 2.552509-4.057695zm.393813 3.893616c-.661332.124813-1.395649.458085-2.237162 1.09723-.326388.191439-.680414.275733-1.085596.159087-7.590757-1.92295-6.477355 7.494891-2.025948 11.311891.785828.64412 2.194557.90152 3.537166-.26807.398535-.37271 1.372022-.43536 1.981304-.14724.638647.30683 1.793297.37368 2.600548-.21442.653708-.48555 1.047421-1.48822 1.371633-2.25495.274353-.65815.516144-1.431575.535204-2.161004-3.484089-1.834259-3.107242-4.088872-1.239625-6.506016-.963071-.608686-1.937174-1.185619-3.158433-1.057408-.09159.0096-.184617.02306-.279091.0409zm-25.612498 9.137958c-.599165.0878-1.081083.16305-1.080296.16842l.07729.52741c.000788.005.48403-.0608 1.083194-.14865l.198879-.0291c.599162-.0878 1.081084-.16305 1.080301-.1684l-.07729-.52741c-.000787-.005-.484036.0608-1.083198.14862zm3.704534-.54288c-.599162.0878-1.081083.16305-1.080296.16842l.07729.52742c.000788.005.484032-.0609 1.083195-.14865l.198878-.0292c.599162-.0878 1.081084-.16305 1.080301-.16839l-.07729-.52742c-.000788-.005-.484037.0608-1.083199.14862zm39.257732-5.752987c-.59916.0878-1.08108.163053-1.08029.168425l.0773.527414c.00078.0054.48403-.06085 1.08319-.14865l.19888-.02914c.59916-.0878 1.08109-.163053 1.0803-.168398l-.0773-.527414c-.00078-.0054-.48403.06082-1.0832.148623zm3.70454-.542877c-.59916.0878-1.08109.163053-1.0803.168425l.0773.527414c.00079.0054.48403-.06085 1.0832-.148651l.19888-.02914c.59916-.0878 1.08108-.163052 1.0803-.168397l-.0773-.527414c-.00079-.0054-.48404.06082-1.0832.148622zm-40.226746 13.776874c-.603726.11864-1.250445.4595-1.886205 1.0183-1.446901 1.27175-1.794545 2.72096-.902668 3.73567.35785.40714.844845.64516 1.38698.66827.530365.0224.976639-.11453 1.800803-.61688l-.42421-.48219c-1.043591.60638-1.70627.53429-2.179737-.004-.660645-.75164-.388206-1.76821.751776-2.7702 1.152511-1.01299 2.249223-1.16695 2.920884-.40278.451441.51362.496884 1.09564-.03493 1.82954l.423659.48227c.834945-.94482.855556-1.9951.14536-2.80311-.52026-.59192-1.22549-.80704-2.001708-.65451zm34.704426-3.92519-.2413.72001 5.09214 3.649.21699-.64854-1.48799-1.0435.625-1.86606 1.80628.0945.23034-.68754zm.69264.6634 2.74712.14626-.48438 1.44702zm-2.20714 2.62712-.36088.55122 5.01227 3.27629.36025-.55169zm-27.879231 4.65682-5.10425 3.6325.543017.41596 1.470226-1.06903 1.562584 1.19644-.676172 1.67771.57593.44143 2.231053-5.83389zm-.249521.90136-1.030149 2.55172-1.211236-.92804zm26.830672-3.61313-.46082.44746 3.38763 3.48688-5.16401-1.7613-.56247.54653 4.17211 4.29451.46083-.44746-3.38772-3.48742 5.19399 1.73221.53258-.5169zm-23.565363 4.77946-2.497883 5.44143 2.865049 1.31477.302457-.65882-2.258691-1.03718 2.195509-4.78206zm18.991333-.75325c-.20824.0371-.42686.11922-.65409.24681l-1.98543 1.11478 2.93185 5.22095.58116-.32704-1.25751-2.23949 1.40371-.78765c.52354-.29397.91064-.1672 1.28626.50177.3103.55261.66007 1.07332.82937 1.25561l.71243-.40015-.0653-.11614c-.24392-.0256-.32526-.085-.51218-.40083l-.55987-.92921c-.37115-.57584-.59832-.72529-1.06715-.69157.25574-.58354.22851-.98926-.1022-1.57824-.38584-.68714-.91636-.98099-1.54107-.8696zm-14.724146 2.41083-1.397698 5.82231.640931.15356 1.397153-5.82223zm14.813416-1.71738c.34948-.0555.64317.13281.88814.56909.34705.61806.23388 1.06403-.36237 1.39883l-1.3378.75106-.99622-1.77383 1.43991-.80868c.12907-.0725.25186-.11798.36834-.13647zm-12.37768 2.2241-.172263 5.98562.666675.019.07832-2.7091 2.400784.0691.02054-.72526-2.400781-.0691.05238-1.82537 2.725913.0781.0211-.72534zm6.550373-.69952c-.08277.0101-.165663.0254-.249152.0461-1.530248.37747-2.020755 1.94139-1.599348 3.64976.405429 1.6436 1.562668 2.85313 3.076721 2.47965 1.514056-.37347 1.976276-1.98235 1.570846-3.62595-.421279-1.70786-1.557897-2.70328-2.799067-2.54951zm.09763.71972c.900658-.10537 1.711809.67256 2.035726 1.98572.349501 1.41689-.08321 2.51975-1.079086 2.76541-.995874.24565-1.891193-.52977-2.238705-1.93857-.355499-1.44119.07229-2.52614 1.100553-2.77978.06072-.015.121465-.0258.181511-.0328z"
     fill="#435871"
     fill-opacity=".798479"
     stroke-width=".284292"
     id="path423" />
</svg>
