<?xml version="1.0" encoding="UTF-8" standalone="no"?>
<!-- Created with Inkscape (http://www.inkscape.org/) -->

<svg
   xmlns:dc="http://purl.org/dc/elements/1.1/"
   xmlns:cc="http://creativecommons.org/ns#"
   xmlns:rdf="http://www.w3.org/1999/02/22-rdf-syntax-ns#"
   xmlns:svg="http://www.w3.org/2000/svg"
   xmlns="http://www.w3.org/2000/svg"
   xmlns:xlink="http://www.w3.org/1999/xlink"
   xmlns:sodipodi="http://sodipodi.sourceforge.net/DTD/sodipodi-0.dtd"
   xmlns:inkscape="http://www.inkscape.org/namespaces/inkscape"
   version="1.1"
   id="svg2"
   width="170.66667"
   height="170.66667"
   viewBox="0 0 170.66667 170.66667"
   sodipodi:docname="gahshomar.svg"
   inkscape:version="0.92.4 5da689c313, 2019-01-14">
  <metadata
     id="metadata8">
    <rdf:RDF>
      <cc:Work
         rdf:about="">
        <dc:format>image/svg+xml</dc:format>
        <dc:type
           rdf:resource="http://purl.org/dc/dcmitype/StillImage" />
        <dc:title></dc:title>
      </cc:Work>
    </rdf:RDF>
  </metadata>
  <defs
     id="defs6">
    <linearGradient
       inkscape:collect="always"
       id="linearGradient1399">
      <stop
         style="stop-color:#69777e;stop-opacity:1"
         offset="0"
         id="stop1395" />
      <stop
         style="stop-color:#7c8a8e;stop-opacity:1"
         offset="1"
         id="stop1397" />
    </linearGradient>
    <linearGradient
       inkscape:collect="always"
       id="linearGradient1248">
      <stop
         style="stop-color:#a6a7a7;stop-opacity:1"
         offset="0"
         id="stop1268" />
      <stop
         style="stop-color:#686760;stop-opacity:0"
         offset="1"
         id="stop1270" />
    </linearGradient>
    <linearGradient
       id="linearGradient1248-7"
       inkscape:collect="always">
      <stop
         id="stop1261"
         offset="0"
         style="stop-color:#acafac;stop-opacity:1;" />
      <stop
         id="stop1263"
         offset="1"
         style="stop-color:#686760;stop-opacity:1" />
    </linearGradient>
    <linearGradient
       inkscape:collect="always"
       xlink:href="#linearGradient1248-7"
       id="linearGradient1250"
       x1="97.103302"
       y1="147.87509"
       x2="98.018387"
       y2="154.38356"
       gradientUnits="userSpaceOnUse" />
    <linearGradient
       inkscape:collect="always"
       xlink:href="#linearGradient1248"
       id="linearGradient1273"
       gradientUnits="userSpaceOnUse"
       x1="45.035503"
       y1="158.36098"
       x2="96.93364"
       y2="153.6604" />
    <linearGradient
       inkscape:collect="always"
       xlink:href="#linearGradient1248"
       id="linearGradient1281"
       gradientUnits="userSpaceOnUse"
       x1="137.23889"
       y1="132.68866"
       x2="96.93364"
       y2="153.6604" />
    <filter
       inkscape:collect="always"
       style="color-interpolation-filters:sRGB"
       id="filter1342"
       x="-0.022498218"
       width="1.0449964"
       y="-0.020770749"
       height="1.0415415">
      <feGaussianBlur
         inkscape:collect="always"
         stdDeviation="1.2103751"
         id="feGaussianBlur1344" />
    </filter>
    <linearGradient
       inkscape:collect="always"
       xlink:href="#linearGradient1399"
       id="linearGradient1401"
       x1="140.71425"
       y1="213.09308"
       x2="157.68481"
       y2="213.44662"
       gradientUnits="userSpaceOnUse"
       gradientTransform="matrix(1.0732035,0,0,1.0732035,-149.6394,13.608154)" />
    <filter
       inkscape:collect="always"
       style="color-interpolation-filters:sRGB"
       id="filter1409"
       x="-0.0094774002"
       width="1.0189548"
       y="-0.0097258133"
       height="1.0194516">
      <feGaussianBlur
         inkscape:collect="always"
         stdDeviation="0.57345633"
         id="feGaussianBlur1411" />
    </filter>
  </defs>
  <sodipodi:namedview
     pagecolor="#ffffff"
     bordercolor="#666666"
     borderopacity="1"
     objecttolerance="10"
     gridtolerance="10"
     guidetolerance="10"
     inkscape:pageopacity="0"
     inkscape:pageshadow="2"
     inkscape:window-width="1920"
     inkscape:window-height="1031"
     id="namedview4"
     showgrid="false"
     inkscape:zoom="2"
     inkscape:cx="64.55894"
     inkscape:cy="109.98027"
     inkscape:window-x="0"
     inkscape:window-y="26"
     inkscape:window-maximized="1"
     inkscape:current-layer="svg2" />
  <path
     sodipodi:nodetypes="ccccccc"
     inkscape:connector-curvature="0"
     id="path1351"
     d="M 16.183571,38.653596 135.86906,20.276837 c 2.80624,-0.439258 2.83191,-0.53471 3.61582,3.615819 L 158.93503,142.13315 33.079271,161.58204 14.014081,43.715743 c -0.55115,-3.787698 -0.59393,-4.487634 2.16949,-5.062147 z"
     style="fill:#000000;fill-opacity:0.475;stroke:none;stroke-width:1px;stroke-linecap:butt;stroke-linejoin:miter;stroke-opacity:1;filter:url(#filter1409)"
     transform="matrix(1.0732035,0,0,1.0732035,-6.9033379,-8.929119)" />
  <path
     style="fill:url(#linearGradient1401);fill-opacity:1;stroke:none;stroke-width:1.07320344px;stroke-linecap:butt;stroke-linejoin:miter;stroke-opacity:1"
     d="m 11.01371,32.622654 127.28072,-19.7906 c 3.01167,-0.471414 3.03922,-0.573853 3.88051,3.880509 L 162.35359,140.50083 28.087948,160.67948 8.685405,38.055367 C 8.093909,33.990397 8.047998,33.239223 11.01371,32.622654 Z"
     id="path1288"
     inkscape:connector-curvature="0"
     sodipodi:nodetypes="ccccccc" />
  <path
     sodipodi:nodetypes="ccccc"
     inkscape:connector-curvature="0"
     id="path1324"
     d="M 19.383881,38.0043 131.6261,20.106907 149.01781,132.63887 38.031281,152.54761 Z"
     style="opacity:1;fill:#000000;fill-opacity:0.7125;stroke:none;stroke-width:1px;stroke-linecap:butt;stroke-linejoin:miter;stroke-opacity:1;filter:url(#filter1342)"
     transform="matrix(1.0732035,0,0,1.0732035,-6.9033379,-8.929119)" />
  <path
     style="opacity:1;fill:#000000;fill-opacity:0.22083333;stroke:none;stroke-width:1px;stroke-linecap:butt;stroke-linejoin:miter;stroke-opacity:1;filter:url(#filter1342)"
     d="M 27.883881,38.7543 125.6261,20.856907 147.76781,138.63887 39.781281,156.04761 Z"
     id="path1403"
     inkscape:connector-curvature="0"
     sodipodi:nodetypes="ccccc"
     transform="matrix(1.0732035,0,0,1.0732035,-6.9033379,-8.929119)" />
  <path
     style="opacity:1;fill:#fafafa;fill-opacity:1;stroke:none;stroke-width:1.07320344px;stroke-linecap:butt;stroke-linejoin:miter;stroke-opacity:1"
     d="M 14.72269,23.899818 131.88871,4.692273 151.64504,125.42541 32.009487,145.18173 Z"
     id="path1235"
     inkscape:connector-curvature="0"
     sodipodi:nodetypes="ccccc" />
  <path
     style="fill:#e8684f;fill-opacity:1;stroke:none;stroke-width:1.07320344px;stroke-linecap:butt;stroke-linejoin:miter;stroke-opacity:1"
     d="M 131.88842,4.6932464 14.72269,23.899818 19.960846,60.652844 138.03838,42.274234 Z"
     id="path1237"
     inkscape:connector-curvature="0" />
  <g
     id="g1286"
     transform="matrix(1.0732035,0,0,1.0732035,-12.442258,-22.886699)">
    <path
       sodipodi:nodetypes="ccccc"
       inkscape:connector-curvature="0"
       id="path1242"
       d="m 41.41968,156.60444 1.789739,6.39193 109.301941,-19.43146 0.3835,-5.36921 c -36.6499,4.98241 -74.488967,12.7972 -111.47518,18.40874 z"
       style="fill:url(#linearGradient1250);fill-opacity:1;stroke:none;stroke-width:1px;stroke-linecap:butt;stroke-linejoin:miter;stroke-opacity:1" />
    <path
       style="fill:url(#linearGradient1273);fill-opacity:1;stroke:none;stroke-width:1px;stroke-linecap:butt;stroke-linejoin:miter;stroke-opacity:1"
       d="m 41.41968,156.60444 1.789739,6.39193 109.301941,-19.43146 0.3835,-5.36921 c -36.6499,7.22133 -74.488967,13.87793 -111.47518,18.40874 z"
       id="path1266"
       inkscape:connector-curvature="0"
       sodipodi:nodetypes="ccccc" />
    <path
       sodipodi:nodetypes="ccccc"
       inkscape:connector-curvature="0"
       id="path1279"
       d="m 41.41968,156.60444 1.789739,6.39193 109.301941,-19.43146 0.3835,-5.36921 c -36.6499,7.22133 -74.488967,13.87793 -111.47518,18.40874 z"
       style="fill:url(#linearGradient1281);fill-opacity:1;stroke:none;stroke-width:1px;stroke-linecap:butt;stroke-linejoin:miter;stroke-opacity:1" />
  </g>
  <path
     style="fill:#ffffff;fill-opacity:0.25;stroke:none;stroke-width:1.07320344px;stroke-linecap:butt;stroke-linejoin:miter;stroke-opacity:1"
     d="m 140.05218,12.612507 c -0.35854,0.0051 -0.83155,0.07812 -1.39181,0.165591 l 21.74285,128.015152 1.94937,-0.29345 -20.17706,-123.787321 c -0.63098,-3.340771 -0.80562,-4.118862 -2.12335,-4.099972 z"
     id="path1346"
     inkscape:connector-curvature="0" />
  <path
     style="fill:#1f2427;fill-opacity:1;stroke:none;stroke-width:1.07320344px;stroke-linecap:butt;stroke-linejoin:miter;stroke-opacity:1"
     d="m 28.087948,160.67948 1.314406,1.78955 132.708316,-20.5019 0.24192,-1.46733 z"
     id="path1385"
     inkscape:connector-curvature="0"
     sodipodi:nodetypes="ccccc" />
  <path
     id="path856-1"
     d="m 59.195024,21.148788 2.421323,12.314811 c 0.173992,0.901038 0.439517,1.617951 0.792497,2.150821 0.352977,0.532868 0.89563,0.883662 1.630036,1.047794 0.734404,0.164129 1.768169,0.14205 3.102919,-0.06569 0.527308,-0.08208 0.991448,-0.202424 1.389304,-0.357168 0.414337,-0.157293 0.786957,-0.422139 1.116597,-0.798289 0.34377,-0.393815 0.675651,-0.971425 0.995959,-1.732837 0.715457,0.693015 1.539252,1.21353 2.471349,1.563453 0.929745,0.334818 1.805171,0.437486 2.629091,0.309249 0.437116,-0.06803 0.82591,-0.228365 1.185487,-0.44426 l 1.885326,9.579707 c 0.173991,0.901038 0.436826,1.61837 0.789802,2.15124 0.352979,0.532871 0.898325,0.883244 1.632729,1.047374 0.734404,0.16413 1.768167,0.14205 3.102919,-0.06569 l 2.248,-0.349886 C 88.03846,47.27372 89.17704,46.987002 90.001,46.642198 c 0.82162,-0.359907 1.4193,-0.746606 1.79368,-1.160654 0.37437,-0.414048 0.59667,-0.826387 0.66739,-1.239576 0.0707,-0.413189 0.0817,-0.786004 0.03,-1.118266 -0.181,-1.162914 -0.88058,-2.231482 -2.09502,-3.202613 -1.20031,-0.988798 -2.875022,-2.051051 -5.026304,-3.185739 0.475595,-0.414333 0.992247,-0.827133 1.552585,-1.239188 0.574465,-0.429722 1.297801,-0.929441 2.171249,-1.498511 0.84676,-0.559752 1.95811,-1.282137 3.26769,-2.125104 0.22098,0.15755 0.47221,0.276311 0.76102,0.354074 0.56022,0.129366 1.29431,0.124614 2.20063,-0.01645 1.31827,-0.20518 2.30394,-0.707016 2.95617,-1.504622 0.64988,-0.812703 0.86469,-1.920726 0.64608,-3.325285 -0.0705,-0.453085 -0.2176,-0.972185 -0.44344,-1.55578 -0.22586,-0.583592 -0.48578,-1.16256 -0.77755,-1.735895 -0.29411,-0.588437 -0.57774,-1.115601 -0.85305,-1.583215 l -1.8972,0.991628 c 0.49651,0.804434 0.95257,1.621109 1.36903,2.45347 0.43295,0.829797 0.69234,1.524987 0.77931,2.08379 0.12223,0.785346 -0.009,1.338388 -0.39762,1.661817 -0.38848,0.323431 -0.93825,0.54118 -1.64682,0.651464 -0.64266,0.100026 -1.13524,0.121941 -1.48127,0.06751 -0.32954,-0.05699 -0.56664,-0.165541 -0.7102,-0.328821 -0.12943,-0.180948 -0.21048,-0.377938 -0.24339,-0.589379 -0.04,-0.256746 -0.0662,-0.578405 -0.0755,-0.963679 -0.0117,-0.400362 -0.0129,-0.800595 -0.008,-1.203525 0.0213,-0.405499 0.034,-0.74927 0.0412,-1.028815 l -1.9283,-0.02317 c -0.007,1.113 -0.0464,1.976418 -0.1089,2.630997 l -0.7625,-1.072289 c -1.43352,0.977957 -2.674326,1.868407 -3.823109,2.71999 -0.0014,-0.0081 -0.0074,-0.01262 -0.0087,-0.02075 -0.06582,-0.422878 -0.07515,-0.908669 -0.0256,-1.457781 0.04954,-0.549116 0.09455,-1.027323 0.132303,-1.435383 l -1.928843,-0.186125 c -0.09441,1.128436 -0.193468,2.008833 -0.297185,2.643723 -0.103713,0.634889 -0.249548,1.112751 -0.435583,1.435613 -0.171908,0.305191 -0.413772,0.523131 -0.731585,0.649937 -0.320164,0.111718 -0.745716,0.20725 -1.273024,0.289322 -9.88e-4,1.53e-4 -0.0017,2.62e-4 -0.0027,4.15e-4 -0.428436,0.06668 -0.826321,0.06721 -1.19117,2.58e-4 -0.350723,-0.08463 -0.71407,-0.30571 -1.090626,-0.664756 -0.360079,-0.361609 -0.794312,-0.936123 -1.304952,-1.72289 -0.552997,-0.842047 -1.060071,-1.492051 -1.518994,-1.946557 -0.444802,-0.472172 -0.895813,-0.779715 -1.357161,-0.92447 -0.463698,-0.159858 -0.968304,-0.197462 -1.51209,-0.112826 -0.395481,0.06155 -0.825775,0.228638 -1.289569,0.501909 -0.447314,0.270715 -0.902141,0.705968 -1.366006,1.304099 -0.447386,0.595567 -0.860571,1.418116 -1.237438,2.466765 -0.28265,0.786487 -0.522303,1.411135 -0.720139,1.875048 -0.183709,0.446247 -0.402276,0.780576 -0.654201,1.005409 -0.235447,0.222269 -0.58385,0.369961 -1.045246,0.441774 -0.939269,0.146191 -1.642546,0.17823 -2.11097,0.09645 -0.451945,-0.08434 -0.773841,-0.311881 -0.966785,-0.684034 C 63.843784,33.72169 63.679384,33.159931 63.53124,32.425025 L 61.219668,20.833662 Z M 89.79667,18.010655 c -0.34605,0.05386 -0.62361,0.213196 -0.83552,0.478216 -0.19544,0.262448 -0.27086,0.545183 -0.22385,0.84724 0.047,0.302055 0.2048,0.548494 0.47076,0.73913 0.28008,0.172967 0.59151,0.231238 0.93756,0.177377 0.32956,-0.05129 0.59574,-0.19946 0.79353,-0.44681 0.21192,-0.265012 0.29239,-0.548538 0.24538,-0.850591 -0.047,-0.302056 -0.20986,-0.547708 -0.49228,-0.735779 -0.26596,-0.190635 -0.56601,-0.260077 -0.89558,-0.208783 z m -1.29194,2.75434 c -0.346056,0.05386 -0.623614,0.213195 -0.835527,0.478215 -0.195443,0.262448 -0.270858,0.545184 -0.223845,0.847239 0.04701,0.302054 0.20438,0.545796 0.470333,0.736433 0.280082,0.172966 0.591929,0.233936 0.937979,0.180075 0.32957,-0.05129 0.59264,-0.201746 0.79042,-0.449088 0.21192,-0.265014 0.29551,-0.546259 0.24849,-0.848313 -0.047,-0.302056 -0.21253,-0.547291 -0.49498,-0.735359 -0.26595,-0.190636 -0.56331,-0.260496 -0.89287,-0.209202 z m 3.36257,-0.523361 c -0.34604,0.05386 -0.6263,0.213613 -0.83821,0.478634 -0.19544,0.262447 -0.26816,0.544763 -0.22115,0.846818 0.047,0.302055 0.20169,0.546217 0.46764,0.736853 0.28008,0.172966 0.59462,0.233516 0.94067,0.179657 0.32957,-0.0513 0.59263,-0.201746 0.79043,-0.44909 0.21191,-0.265013 0.29549,-0.546257 0.24848,-0.848311 -0.047,-0.302056 -0.21254,-0.547291 -0.49497,-0.735361 -0.26596,-0.190634 -0.56332,-0.260496 -0.89289,-0.2092 z m -36.521725,10.207813 -1.673194,1.119796 c 0.560099,0.670787 1.000654,1.234915 1.325403,1.694836 0.324746,0.459922 0.567885,0.880008 0.727874,1.257291 0.159993,0.377283 0.272477,0.776229 0.338294,1.199105 0.103429,0.664523 0.04191,1.393624 -0.188956,2.18752 -0.216734,0.776227 -0.727462,1.568607 -1.530345,2.37419 -0.786406,0.803018 -1.974024,1.57521 -3.563121,2.317538 l 0.984033,1.609805 c 0.492025,-0.200322 1.039208,-0.485701 1.639554,-0.857577 0.616825,-0.374439 1.212512,-0.824979 1.78935,-1.347883 0.593319,-0.525468 1.114255,-1.132505 1.564017,-1.821251 0.46859,-0.676212 0.808622,-1.423221 1.018307,-2.244758 0.226162,-0.824102 0.265415,-1.713992 0.117324,-2.665469 -0.103428,-0.664521 -0.362962,-1.411681 -0.77943,-2.24404 -0.399991,-0.834925 -0.990136,-1.694883 -1.769107,-2.579104 z m 18.201295,-1.5093 c 0.379004,-0.05899 0.730014,0.03183 1.054809,0.275186 0.322444,0.228248 0.623835,0.545803 0.906224,0.950443 0.282388,0.404638 0.558806,0.816781 0.827065,1.239088 0.221787,0.349144 0.338624,0.663444 0.370917,0.948098 l -0.314988,0.04902 0.136933,0.702662 c -0.218202,0.34465 -0.576555,0.565018 -1.093506,0.645478 -0.543788,0.08464 -1.193268,-0.01448 -1.946477,-0.299436 -0.755561,-0.300055 -1.478682,-0.839005 -2.172932,-1.612662 0.37922,-1.033549 0.754711,-1.756763 1.129083,-2.170812 0.374375,-0.414047 0.742692,-0.655542 1.102866,-0.72707 z m 16.9536,0.306932 c -0.0711,0.503062 -0.17088,0.916488 -0.31429,1.187381 -0.15308,0.31773 -0.37884,0.537038 -0.68018,0.661282 -0.30134,0.124251 -0.69951,0.224933 -1.19386,0.301874 -0.348217,0.0542 -0.630282,0.07045 -0.89313,0.07268 0.96286,-0.70517 1.86698,-1.377429 3.08146,-2.223226 z m -4.900498,3.539808 c 0.138648,0.123211 0.284018,0.231846 0.445207,0.309274 0.241567,0.106716 0.490431,0.170003 0.744561,0.212942 -0.07717,0.05108 -0.204604,0.137587 -0.279693,0.187221 -1.299587,0.867422 -2.22674,1.676502 -2.784798,2.428511 -0.155413,0.194344 -0.251209,0.448173 -0.286579,0.763052 -0.03538,0.314878 -0.02631,0.645853 0.02775,0.993219 0.02116,0.135926 0.252252,0.325601 0.694746,0.566103 0.442495,0.240503 1.002355,0.531102 1.680226,0.874187 0.677867,0.343085 1.368091,0.754975 2.067116,1.233987 1.016769,0.677054 1.705589,1.250655 2.065639,1.72055 0.37654,0.467328 0.59129,0.875794 0.64535,1.223158 0.0306,0.196336 0.0118,0.399467 -0.0565,0.611191 -0.0542,0.194059 -0.20851,0.395609 -0.46279,0.605339 -0.24015,0.192065 -0.63962,0.38642 -1.19991,0.581904 -0.56264,0.180375 -1.322409,0.343987 -2.278158,0.492742 l -2.323388,0.361619 c -0.939269,0.146191 -1.645241,0.17865 -2.113663,0.09686 -0.451946,-0.08434 -0.773842,-0.311879 -0.966786,-0.684034 -0.178813,-0.38982 -0.340522,-0.952 -0.488665,-1.686905 l -1.909132,-9.573232 c 0.238655,0.119823 0.499548,0.213799 0.786947,0.272666 0.571994,0.0966 1.179309,0.09554 1.821966,-0.0045 9.53e-4,-1.48e-4 0.0018,-2.77e-4 0.0027,-4.15e-4 0.0099,-0.0015 0.01677,-0.0053 0.0265,-0.0069 l 0.900343,0.912671 c 0.881158,-0.702681 1.976332,-1.54271 3.241042,-2.491232 z m -15.650637,6.257506 -1.065833,1.602788 0.808089,0.479381 c -1.014823,1.178879 -1.690354,2.258505 -2.027189,3.239051 -0.322707,0.962878 -0.436978,1.745541 -0.342953,2.349651 0.1904,1.223326 0.732956,2.068014 1.632074,2.531349 0.896763,0.448234 1.956753,0.576926 3.176155,0.387135 0.840398,-0.130802 1.519578,-0.368688 2.039881,-0.71264 0.517955,-0.359051 0.902763,-0.767368 1.152385,-1.223874 0.247272,-0.471607 0.402873,-0.937717 0.466532,-1.396216 0.06365,-0.458497 0.06751,-0.859512 0.01345,-1.206876 -0.138688,-0.891064 -0.493304,-1.703616 -1.062805,-2.434815 -0.569501,-0.731199 -1.272101,-1.393358 -2.107628,-1.99034 -0.835533,-0.596982 -1.728906,-1.138746 -2.682158,-1.624594 z m 1.067921,2.804295 c 0.776718,0.435981 1.374857,0.852803 1.791425,1.252027 0.414212,0.384118 0.708004,0.754843 0.882119,1.114462 0.174111,0.359615 0.287459,0.713076 0.341524,1.06044 0.09873,0.634317 -0.03366,1.180877 -0.400977,1.640231 -0.369673,0.444253 -0.967067,0.730803 -1.790987,0.85904 -0.659134,0.10259 -1.235338,0.03078 -1.729618,-0.217131 -0.4778,-0.250476 -0.766843,-0.692729 -0.86557,-1.327047 -0.08462,-0.5437 0.02093,-1.211626 0.320059,-2.000678 0.315607,-0.791619 0.799797,-1.58374 1.452025,-2.381344 z"
     style="fill:#ffffff;fill-opacity:1;stroke-width:1.51250005"
     inkscape:connector-curvature="0" />
  <path
     style="color:#000000;font-style:normal;font-variant:normal;font-weight:normal;font-stretch:normal;font-size:medium;line-height:normal;font-family:sans-serif;font-variant-ligatures:normal;font-variant-position:normal;font-variant-caps:normal;font-variant-numeric:normal;font-variant-alternates:normal;font-feature-settings:normal;text-indent:0;text-align:start;text-decoration:none;text-decoration-line:none;text-decoration-style:solid;text-decoration-color:#000000;letter-spacing:normal;word-spacing:normal;text-transform:none;writing-mode:lr-tb;direction:ltr;text-orientation:mixed;dominant-baseline:auto;baseline-shift:baseline;text-anchor:start;white-space:normal;shape-padding:0;clip-rule:nonzero;display:inline;overflow:visible;visibility:visible;opacity:1;isolation:auto;mix-blend-mode:normal;color-interpolation:sRGB;color-interpolation-filters:linearRGB;solid-color:#000000;solid-opacity:1;vector-effect:none;fill:#3b484e;fill-opacity:1;fill-rule:nonzero;stroke:none;stroke-width:5;stroke-linecap:butt;stroke-linejoin:miter;stroke-miterlimit:4;stroke-dasharray:none;stroke-dashoffset:0;stroke-opacity:1;color-rendering:auto;image-rendering:auto;shape-rendering:auto;text-rendering:auto;enable-background:accumulate"
     d="m 86.530948,66.109488 -24.784854,29.620981 35.384765,18.462891 2.3125,-4.43359 L 78.53457,98.850415 76.708638,86.579425 90.245792,69.455191 Z"
     id="path892"
     inkscape:connector-curvature="0"
     sodipodi:nodetypes="cccccccc" />
</svg>
