<svg height="128" viewBox="0 0 128 128" width="128" xmlns="http://www.w3.org/2000/svg" xmlns:xlink="http://www.w3.org/1999/xlink"><linearGradient id="a" gradientUnits="userSpaceOnUse" x1="146.92474" x2="140.26705" y1="90.478878" y2="475.378438"><stop offset="0" stop-color="#d4d4d5"/><stop offset="1" stop-color="#b3b4b7"/></linearGradient><linearGradient id="b" gradientUnits="userSpaceOnUse" x1="-25.481044" x2="314.994648" y1="116.928383" y2="116.928383"><stop offset="0" stop-color="#344042"/><stop offset="1" stop-color="#0d181b"/></linearGradient><linearGradient id="c" gradientUnits="userSpaceOnUse" x1="352.2982" x2="300.52498" y1="453.049765" y2="93.312195"><stop offset="0" stop-color="#d26501"/><stop offset="1" stop-color="#f78012"/></linearGradient><filter id="d" color-interpolation-filters="sRGB" height="1.017864" width="1.020752" x="-.010376" y="-.008932"><feGaussianBlur stdDeviation="1.7337273"/></filter><g transform="matrix(.26060017 0 0 .26060017 13.620507 -3.281043)"><rect fill="#242425" filter="url(#d)" height="418.83389" rx="2.76902" transform="matrix(.98791267 -.15501145 .15501145 .98791267 -526.08744 -152.735071)" width="341.01001" x="470.82245" y="310.09567"/><rect fill="url(#a)" height="418.83389" rx="2.76902" transform="matrix(.98791267 -.15501145 .15501145 .98791267 0 0)" width="341.01001" x="-25.230322" y="77.657188"/><path d="m333.55708 88.673135-89.60156 15.373055 56.75976 350.5332 85.69727-12.66797c1.3885-.3371 2.30763-1.66962 2.08203-3.10742z" fill="url(#c)"/><rect fill="url(#b)" height="78.706207" rx="2.76902" transform="matrix(.9874068 -.15820179 .15820179 .9874068 0 0)" width="340.47571" x="-25.481033" y="77.575279"/><text style="font-size:56.021797;font-family:Sawasdee;letter-spacing:0;word-spacing:0;opacity:.676;fill:#fff;stroke-width:1.400545" transform="matrix(.98599551 -.16677185 .16677185 .98599551 0 0)" x="48.747593" y="135.40147"><tspan stroke-width="1.400545" x="48.747593" y="135.40147">3.141592</tspan></text><path d="m247.14107 117.85283-1.18555.19336 10.48047 63.85156-83.08985 13.85352-10.2832-63.35352-1.18555.19141 10.28516 63.35937-85.091795 14.18555-10.20898-63.89062-1.18555.1914 10.20899 63.89649-76.4218801 12.74218.18555 1.1836 76.4257801-12.74024 10.25781 64.20117c-30.64814 5.17582-58.73259 9.91822-76.58008 12.93165l.18555 1.18554c17.84138-3.01237 45.93704-7.75594 76.58399-12.93164l10.324205 64.61133-76.810535 12.67188.18554 1.18554 76.814455-12.67383 10.28125 64.34571 86.88281-13.75391 11.58984 71.38477 1.1836-.19141-11.58789-71.38086 83.54492-13.22656 11.64648 70.96094 1.18555-.19336-11.64649-70.95313 85.69532-13.56836-.1875-1.18359-85.70117 13.5664-10.54297-64.24023 87.31445-14.40234-.18555-1.18555-87.32422 14.4082-10.70312-65.20117c10.20905-1.72149 23.50123-3.96788 32.41992-5.4707 17.10611-2.88243 31.47767-5.30209 41.72656-7.02344 8.20394-1.37789 11.40536-1.90926 13.59375-2.26953l-.18554-1.18359c-2.2342.36716-5.40642.8941-13.60743 2.27148-10.24931 1.72143-24.62035 4.14099-41.72656 7.02344-8.91712 1.50258-22.20708 3.74585-32.41406 5.46679l-10.47461-63.81445 88.21875-14.70703-.18555-1.18555-88.22656 14.70899zm9.48828 65.22852 10.47461 63.8164c-26.2938 4.43334-53.09509 8.95439-83.17579 14.03125l-10.39062-63.99218zm-84.27344 14.05078 10.38867 63.99609c-2.31679.39106-4.08681.68891-6.4043 1.08008-39.54675 6.67505-47.0455 7.94415-78.822255 13.31055l-10.25781-64.19922zm94.94336 50.95117 10.69922 65.19726-83.33985 13.75-10.53711-64.91601c30.08142-5.07716 56.88298-9.59725 83.17774-14.03125zm-84.36328 14.23047 10.53906 64.91211-85.44336 14.09375-10.324215-64.61524c31.778575-5.36678 39.279965-6.63461 78.832025-13.31054 2.31473-.39073 4.08243-.68955 6.39649-1.08008zm95.25781 52.15039 10.54297 64.22851-83.54297 13.22657-10.34375-63.70703zm-84.52734 13.94336 10.33984 63.69922-85.69336 13.56836-10.09375-63.16993z" fill="#506164"/><g transform="matrix(.98780683 -.15568452 .15568452 .98780683 -526.08745 -152.735069)"><g fill="#2d2d2d"><path d="m485.49583 428.69532h7.83854l-3.93229-9.4401zm8.30729 1.17188h-8.86719l-2.47395 6.02864h-1.25l8.15104-19.67448 8.17708 19.67448h-1.25z"/><path d="m516.225 431.39064.9375.63802q-1.35417 1.86198-3.4375 2.9427-2.08334 1.06771-4.49219 1.06771-2.00521 0-3.82813-.78125-1.82291-.78125-3.13802-2.10937-1.3151-1.32813-2.09635-3.16406-.78125-1.83594-.78125-3.85417 0-2.01823.78125-3.85417.78125-1.83594 2.09635-3.16406 1.31511-1.32813 3.13802-2.10938 1.82292-.78125 3.82813-.78125 2.39583 0 4.47916 1.09375 2.08334 1.08073 3.45053 2.95573l-.9375.69011q-1.21094-1.62761-3.04688-2.56511-1.82292-.95052-3.94531-.95052-2.36979 0-4.375 1.17188-1.99219 1.17187-3.15104 3.1901-1.15886 2.00521-1.15886 4.38802 0 1.77084.67709 3.38542.6901 1.61458 1.84895 2.78646 1.15886 1.17187 2.77344 1.875 1.61458.6901 3.38542.6901 2.12239 0 3.94531-.95052 1.83594-.95052 3.04688-2.59114z"/></g><g fill="#2e2e2e"><path d="m569.5025 430.48293h-1.28906v-5.04167h-5.01302v-1.27474h5.01302v-5.07031h1.28906v5.07031h5.04167v1.27474h-5.04167z"/><path d="m591.43089 414.09751h1.60417l-15.21094 21.38412h-1.5612z"/><path d="m603.54808 426.27199v1.28907h-8.77995v-1.28907z"/><path d="m681.72255 428.60663q1.2461-1.23177 2.97917-1.23177 1.73307 0 2.96485 1.21745 1.23177 1.21744 1.23177 2.95052 0 1.73307-1.23177 2.96484-1.23178 1.21745-2.96485 1.21745-1.73307 0-2.97917-1.21745-1.23177-1.23177-1.23177-2.96484 0-1.71875 1.23177-2.9362zm.90235.91666q-.84505.83073-.84505 2.01954 0 1.1888.84505 2.03385.85937.84505 2.07682.84505 1.21745 0 2.0625-.84505.85938-.84505.85938-2.03385 0-1.18881-.85938-2.01954-.84505-.83072-2.0625-.83072-1.21745 0-2.07682.83072zm-11.48698-14.35156q1.21745-1.23177 2.95052-1.23177 1.73307 0 2.96484 1.23177 1.23177 1.23177 1.23177 2.96485 0 1.73307-1.23177 2.95052-1.23177 1.21744-2.96484 1.21744-1.73307 0-2.95052-1.21744-1.20313-1.21745-1.20313-2.95052 0-1.73308 1.20313-2.96485zm.0716 2.96485q0 1.17448.83073 2.01953.84506.83073 2.04818.83073 1.21745 0 2.0625-.83073.85938-.84505.85938-2.01953 0-1.20313-.85938-2.03386-.84505-.84505-2.0625-.84505-1.20312 0-2.04818.84505-.83073.83073-.83073 2.03386zm14.9961-4.03907h1.57552l-15.15365 21.38412h-1.61849z"/></g><g fill="#2e2e2e"><g fill="#2e2e2e"><path d="m489.67419 475.61795h19.53125l-13.0664 29.16016h-1.9336l12.32422-27.40235h-17.4414z"/><path d="m592.91638 475.36404q2.83203 0 4.86328 1.97266 2.03125 1.97266 2.03125 4.74609 0 1.83594-.89843 3.37891-.89844 1.52344-2.42188 2.38281 2.40234 1.07422 3.88672 3.30078 1.50391 2.22657 1.50391 4.92188 0 2.46094-1.21094 4.53125-1.21094 2.07031-3.28125 3.28125-2.05078 1.19141-4.47266 1.19141-3.75 0-6.38672-2.61719-2.61718-2.63672-2.61718-6.38672 0-2.71484 1.46484-4.92188 1.48437-2.22656 3.90625-3.30078-1.50391-.85937-2.42188-2.40234-.89843-1.54297-.89843-3.35938 0-2.77343 2.03125-4.74609 2.05078-1.97266 4.92187-1.97266zm-7.26562 20.70313q0 2.98828 2.1289 5.13672 2.12891 2.1289 5.13672 2.1289 2.94922 0 5.07813-2.1289 2.1289-2.14844 2.1289-5.13672 0-2.94922-2.1289-5.05859-2.12891-2.12891-5.07813-2.12891-2.98828 0-5.13672 2.12891-2.1289 2.10937-2.1289 5.05859zm7.26562-8.94531q2.12891 0 3.63281-1.48438 1.50391-1.48437 1.50391-3.55469 0-2.05078-1.52344-3.51562-1.5039-1.46484-3.61328-1.46484-2.16797 0-3.6914 1.46484-1.52344 1.46484-1.52344 3.51562 0 2.07032 1.52344 3.55469 1.52343 1.48438 3.6914 1.48438z"/><path d="m665.2406 485.93045q0 3.73047 2.36328 6.30859 2.38281 2.57813 5.6836 2.57813 3.32031 0 5.68359-2.57813 2.38281-2.57812 2.38281-6.30859 0-3.69141-2.38281-6.25-2.36328-2.57812-5.68359-2.57812-3.30079 0-5.6836 2.57812-2.36328 2.55859-2.36328 6.25zm7.51953 18.84766h-2.08984l6.01562-8.92578q-1.67968.66406-3.39843.66406-2.67579 0-4.94141-1.42578-2.24609-1.44532-3.55469-3.86719-1.28906-2.44141-1.28906-5.29297 0-2.83203 1.28906-5.25391 1.3086-2.42187 3.55469-3.84765 2.26562-1.42578 4.94141-1.42578 2.69531 0 4.9414 1.42578 2.26563 1.42578 3.55469 3.84765 1.28906 2.40235 1.28906 5.25391 0 1.40625-.35156 2.77344-.33203 1.36719-.85938 2.51953-.52734 1.15234-1.5625 2.75391-1.03515 1.58203-1.99218 2.91015-.9375 1.3086-2.57813 3.61328-1.64062 2.28516-2.96875 4.27735z"/><path d="m502.95544 563.61014v-17.10938l-12.98828 17.10938zm1.73829 7.16797h-1.73829v-5.42969h-16.48437l18.22266-24.08203v22.34375h3.26171l-.625 1.73828h-2.63671z"/><path d="m599.12732 543.37576h-12.42188l-.80078 9.7461q1.36719-1.46485 3.14453-2.28516 1.79688-.82031 3.76954-.82031 2.69531 0 4.9414 1.42578 2.26563 1.42578 3.55469 3.86719 1.28906 2.42187 1.28906 5.29296 0 2.85157-1.28906 5.27344-1.28906 2.40235-3.55469 3.82813-2.24609 1.40625-4.9414 1.40625-3.65235 0-6.40625-2.57813-2.73438-2.57812-3.26172-6.34765h1.75781q.52734 3.08593 2.75391 5.13671 2.24609 2.05079 5.15625 2.05079 3.32031 0 5.68359-2.57813 2.38281-2.57812 2.38281-6.28906 0-3.69141-2.38281-6.25-2.36328-2.57813-5.68359-2.57813-2.20704 0-4.08204 1.25-1.875 1.23047-2.94921 3.30078h-1.9336l1.23047-14.60937h14.64844z"/><path d="m681.35388 560.23123q0-3.71094-2.38281-6.28906-2.36328-2.57813-5.68359-2.57813-3.30079 0-5.6836 2.57813-2.36328 2.57812-2.36328 6.28906 0 3.69141 2.36328 6.26953 2.38281 2.57813 5.6836 2.57813 3.32031 0 5.68359-2.57813 2.38281-2.57812 2.38281-6.26953zm-7.53906-18.82812h2.10937l-5.99609 8.92578q1.67969-.66407 3.35938-.66407 2.69531 0 4.9414 1.44532 2.26563 1.42578 3.55469 3.84765 1.28906 2.42188 1.28906 5.27344 0 2.85156-1.28906 5.27344-1.28906 2.42187-3.55469 3.84765-2.24609 1.42579-4.9414 1.42579-2.67579 0-4.94141-1.42579-2.24609-1.42578-3.55469-3.84765-1.28906-2.42188-1.28906-5.27344 0-1.67969.41016-3.16406.41015-1.50391 1.42578-3.28125 1.03515-1.77735 2.03125-3.20313.99609-1.42578 2.96875-4.17968 1.97265-2.75391 3.47656-5z"/><path d="m497.27185 636.7781-.0781-26.01562-3.16407 1.89453-.8789-1.54297 5.8789-3.49609v29.16015z"/><path d="m602.21326 636.7781h-19.00391v-.83984q0-2.01172.89844-3.76953.91797-1.75781 2.36328-3.04688 1.44531-1.28906 3.20312-2.46093 1.75782-1.19141 3.4961-2.28516 1.75781-1.09375 3.20312-2.20703 1.44532-1.11328 2.34375-2.51953.91797-1.42578.91797-3.02735 0-3.18359-1.97265-5.35156-1.95313-2.16797-4.70704-2.16797-2.79296 0-4.80468 2.1875-1.99219 2.16797-1.99219 5.33203h-1.71875q0-2.5 1.11328-4.6289 1.13281-2.12891 3.08594-3.37891 1.95312-1.25 4.27734-1.25 2.30469 0 4.25781 1.25 1.95313 1.25 3.06641 3.37891 1.11328 2.1289 1.11328 4.6289 0 1.40625-.52734 2.69532-.52735 1.26953-1.42578 2.28515-.89844 1.01563-2.07032 1.95313-1.17187.9375-2.48046 1.77734-1.3086.83985-2.63672 1.66016-1.3086.82031-2.5586 1.71875-1.23047.8789-2.22656 1.8164-.97656.91797-1.64062 2.07032-.66407 1.15234-.83985 2.42187h17.26563z"/><path d="m664.38123 628.06717h1.83593q0 2.98828 2.10938 5.13672 2.10937 2.1289 5.09765 2.1289 2.96875 0 5.07813-2.1289 2.12891-2.14844 2.12891-5.13672 0-2.94922-2.12891-5.0586-2.10938-2.1289-5.07813-2.1289v-1.75782q2.1875 0 3.71094-1.34765 1.54297-1.36719 1.54297-3.51563 0-2.1289-1.54297-3.63281-1.52344-1.52344-3.71094-1.52344-2.1875 0-3.73046 1.52344-1.52344 1.50391-1.52344 3.63281h-1.73828q0-2.87109 2.05078-4.88281 2.05078-2.01172 4.9414-2.01172 2.89063 0 4.94141 2.01172 2.07031 2.01172 2.07031 4.88281 0 1.85547-.89843 3.33985-.89844 1.46484-2.44141 2.36328 2.36328 1.05469 3.80859 3.26172 1.44532 2.20703 1.44532 4.84375 0 2.46093-1.21094 4.53125-1.21094 2.07031-3.28125 3.28125-2.05078 1.1914-4.47266 1.1914-3.75 0-6.38672-2.61718-2.61718-2.63672-2.61718-6.38672z"/><path d="m507.79919 688.22732q0 3.90625-1.21093 7.28516-1.21094 3.37891-3.45703 5.46875-2.22657 2.08984-4.98047 2.08984-2.77344 0-5.03907-2.08984-2.24609-2.08984-3.45703-5.46875-1.21093-3.37891-1.21093-7.28516 0-2.92968.72265-5.625.72266-2.71484 1.97266-4.74609 1.25-2.05078 3.08594-3.26172 1.83593-1.23047 3.92578-1.23047 2.7539 0 4.98047 2.08985 2.24609 2.07031 3.45703 5.46875 1.21093 3.3789 1.21093 7.30468zm-17.61718 0q0 2.77344.66406 5.25391.68359 2.46094 1.79687 4.16016 1.11329 1.69921 2.5586 2.69531 1.44531.99609 2.94922.99609 1.1914 0 2.34375-.625 1.17187-.625 2.16797-1.79687.99609-1.19141 1.75781-2.77344.76172-1.58203 1.1914-3.63281.44922-2.05078.44922-4.27735 0-2.79297-.68359-5.27343-.66406-2.48047-1.77734-4.17969-1.09375-1.69922-2.53907-2.67578-1.42578-.9961-2.91015-.9961-1.50391 0-2.94922.9961-1.44531.97656-2.5586 2.67578-1.11328 1.69922-1.79687 4.17969-.66406 2.48046-.66406 5.27343z"/></g><path d="m670.29919 701.43045q0-.66406.46875-1.13281.46875-.48829 1.13282-.48829.66406 0 1.13281.48829.48828.46875.48828 1.13281 0 .64453-.48828 1.15234-.48828.48828-1.13281.48828-.64453 0-1.13282-.48828-.46875-.50781-.46875-1.15234z"/></g></g><path d="m117.31685 407.04424-77.154295 12.9707" fill="none" stroke="#506164"/><g transform="translate(-76.019335 7.259885)"><circle cx="368.75616" cy="129.98557" fill="#fff" r="2.474874"/><circle cx="370.87747" cy="143.06705" fill="#fff" r="2.474874"/><g fill="none" stroke="#fff"><path d="m361.50834 137.58696 17.14734-2.65165" stroke-width="1.7"/><path d="m373.80366 209.8415 12.44642-15.99245" stroke-width="1.985491"/><path d="m388.02309 208.06849-15.99244-12.44642" stroke-width="1.985491"/><path d="m400.86003 265.43015-20.09956 2.58436" stroke-width="1.985491"/><path d="m411.64341 331.0143-20.09956 2.58436" stroke-width="1.985491"/><path d="m400.30145 322.2567 2.58436 20.09956" stroke-width="1.985491"/></g></g><path d="m387.67427 433.57549-336.664055 54.28711.59765 3.80273c.2378 1.5155 1.64857 2.54443 3.16407 2.30664l331.417955-52.00195c1.5155-.2378 2.54248-1.65052 2.30469-3.16602z" fill="#181818" fill-opacity=".936759"/></g></svg>