<?xml version="1.0" encoding="UTF-8" standalone="no"?>
<!-- Created with Inkscape (http://www.inkscape.org/) -->

<svg
   xmlns:dc="http://purl.org/dc/elements/1.1/"
   xmlns:cc="http://creativecommons.org/ns#"
   xmlns:rdf="http://www.w3.org/1999/02/22-rdf-syntax-ns#"
   xmlns:svg="http://www.w3.org/2000/svg"
   xmlns="http://www.w3.org/2000/svg"
   xmlns:xlink="http://www.w3.org/1999/xlink"
   xmlns:sodipodi="http://sodipodi.sourceforge.net/DTD/sodipodi-0.dtd"
   xmlns:inkscape="http://www.inkscape.org/namespaces/inkscape"
   version="1.1"
   id="svg2"
   width="128"
   height="128"
   viewBox="0 0 128 128"
   sodipodi:docname="qt-config.svg"
   inkscape:version="0.92.4 5da689c313, 2019-01-14">
  <metadata
     id="metadata8">
    <rdf:RDF>
      <cc:Work
         rdf:about="">
        <dc:format>image/svg+xml</dc:format>
        <dc:type
           rdf:resource="http://purl.org/dc/dcmitype/StillImage" />
        <dc:title></dc:title>
      </cc:Work>
    </rdf:RDF>
  </metadata>
  <defs
     id="defs6">
    <linearGradient
       inkscape:collect="always"
       id="linearGradient843-9">
      <stop
         style="stop-color:#00cd89;stop-opacity:1"
         offset="0"
         id="stop839" />
      <stop
         style="stop-color:#00a0a0;stop-opacity:1"
         offset="1"
         id="stop841" />
    </linearGradient>
    <linearGradient
       inkscape:collect="always"
       id="linearGradient827">
      <stop
         style="stop-color:#000000;stop-opacity:1"
         offset="0"
         id="stop823" />
      <stop
         id="stop833"
         offset="0.95644003"
         style="stop-color:#202020;stop-opacity:1" />
      <stop
         style="stop-color:#212121;stop-opacity:0.57647059;"
         offset="0.9767887"
         id="stop837" />
      <stop
         style="stop-color:#242424;stop-opacity:0"
         offset="1"
         id="stop825" />
    </linearGradient>
    <radialGradient
       inkscape:collect="always"
       xlink:href="#linearGradient827"
       id="radialGradient829"
       cx="-466.44064"
       cy="527.18646"
       fx="-466.44064"
       fy="527.18646"
       r="496.81354"
       gradientUnits="userSpaceOnUse"
       gradientTransform="matrix(0.12130735,0,0,0.12161697,121.06441,0.34911052)" />
    <linearGradient
       inkscape:collect="always"
       xlink:href="#linearGradient843-9"
       id="linearGradient845"
       x1="-513.94678"
       y1="92.873978"
       x2="-519.38519"
       y2="915.13129"
       gradientUnits="userSpaceOnUse"
       gradientTransform="matrix(0.12681401,0,0,0.12681401,134.08758,3.661987)" />
  </defs>
  <sodipodi:namedview
     pagecolor="#ffffff"
     bordercolor="#666666"
     borderopacity="1"
     objecttolerance="10"
     gridtolerance="10"
     guidetolerance="10"
     inkscape:pageopacity="0"
     inkscape:pageshadow="2"
     inkscape:window-width="1920"
     inkscape:window-height="1027"
     id="namedview4"
     showgrid="false"
     inkscape:zoom="2.6074563"
     inkscape:cx="21.072927"
     inkscape:cy="71.488939"
     inkscape:window-x="0"
     inkscape:window-y="30"
     inkscape:window-maximized="1"
     inkscape:current-layer="svg2" />
  <path
     inkscape:connector-curvature="0"
     d=""
     cx="621.95471"
     cy="755.98816"
     rx="110.06896"
     ry="34.918427"
     style="opacity:0.10100002;fill:#1b1b1b;fill-opacity:1;stroke:none;stroke-width:2.96896577;stroke-linecap:round;stroke-linejoin:round;stroke-miterlimit:4;stroke-dasharray:none;stroke-dashoffset:0;stroke-opacity:1;paint-order:normal"
     id="path1456" />
  <path
     inkscape:connector-curvature="0"
     d=""
     id="path1470"
     style="opacity:0.10100002;fill:#1b1b1b;fill-opacity:1;stroke:none;stroke-width:2.96896577;stroke-linecap:round;stroke-linejoin:round;stroke-miterlimit:4;stroke-dasharray:none;stroke-dashoffset:0;stroke-opacity:1;paint-order:normal"
     ry="34.918427"
     rx="110.06896"
     cy="755.98816"
     cx="621.95471" />
  <path
     id="circle821"
     style="opacity:0.275;fill:url(#radialGradient829);fill-opacity:1;stroke:none;stroke-width:0.92476499;stroke-linecap:round;stroke-linejoin:round;stroke-miterlimit:4;stroke-dasharray:none;stroke-dashoffset:0;stroke-opacity:1;paint-order:fill markers stroke"
     sodipodi:type="arc"
     sodipodi:cx="64.481735"
     sodipodi:cy="64.463936"
     sodipodi:rx="73.45755"
     sodipodi:ry="69.055603"
     sodipodi:start="0"
     sodipodi:end="6.2811238"
     d="M 137.93929,64.463936 A 73.45755,69.055603 0 0 1 64.519594,133.51953 73.45755,69.055603 0 0 1 -8.9757758,64.535115 73.45755,69.055603 0 0 1 64.36816,-4.5915846 73.45755,69.055603 0 0 1 137.93913,64.321577 l -73.457395,0.142359 z" />
  <circle
     style="opacity:1;fill:url(#linearGradient845);fill-opacity:1;stroke:none;stroke-width:0.76088405;stroke-linecap:round;stroke-linejoin:round;stroke-miterlimit:4;stroke-dasharray:none;stroke-dashoffset:0;stroke-opacity:1;paint-order:fill markers stroke"
     id="path819"
     cx="64.481735"
     cy="64.463936"
     r="58.600967" />
  <path
     inkscape:connector-curvature="0"
     style="fill:#ffffff;fill-opacity:1;stroke-width:0.36659765;enable-background:new"
     d="m 54.340161,35.296725 c -0.634292,-0.04722 -1.285243,-0.05988 -1.958054,-0.04059 -5.585363,0.160118 -9.70026,2.399779 -12.320767,6.708913 -2.621414,4.2854 -3.811664,10.402535 -3.583561,18.36177 0.232897,8.12633 1.777135,14.288021 4.640856,18.463897 2.003118,2.920769 4.62375,4.77555 7.859385,5.575473 0,0 0.650114,-0.05621 0.723133,0.638701 1.362237,8.949963 6.972955,8.809173 13.370745,8.625813 0,0 0.829693,-0.0233 0.806024,-0.84913 l -0.142644,-4.953878 c -0.02367,-0.825783 -0.849414,-0.801866 -0.849414,-0.801866 -3.19652,0.09161 -4.022341,0.325048 -4.970193,-2.85404 1.07499,-0.299147 2.071669,-0.694164 2.991455,-1.197376 2.075715,-1.159837 3.76947,-2.805632 5.080431,-4.948405 1.309987,-2.166516 2.25183,-4.808505 2.822973,-7.93453 0.596389,-3.126825 0.841376,-6.697809 0.72622,-10.713342 C 69.305902,51.323256 67.739534,45.255251 64.827547,41.176482 62.278955,37.586718 58.780306,35.626758 54.340095,35.296723 Z m -1.066041,4.039334 c 0.785578,0.133503 1.440439,0.510627 2.019484,1.133797 0.45479,0.472134 0.862689,1.095927 1.243785,1.847361 0.219122,0.555324 0.437973,1.145141 0.620129,1.816387 0.491498,1.811734 0.864669,4.01593 1.118668,6.632368 0.253496,2.612049 0.421256,5.593047 0.516709,8.922585 0.09608,3.353541 0.101858,6.366809 -2.21e-4,9.036728 -0.10301,2.650251 -0.350805,4.907619 -0.736447,6.790862 -0.145095,0.69926 -0.32114,1.336313 -0.513926,1.925045 -0.03245,0.07636 -0.06231,0.161437 -0.09566,0.235308 -0.309252,0.685582 -0.651586,1.265126 -1.034634,1.734357 -0.724388,0.920578 -1.614397,1.362285 -2.779991,1.395693 -1.165633,0.03344 -2.074981,-0.360088 -2.850833,-1.237672 -0.759784,-0.892051 -1.400933,-2.204288 -1.89675,-3.970603 -0.498195,-1.795659 -0.865038,-4.000227 -1.120407,-6.607454 -0.256605,-2.63606 -0.446643,-5.635733 -0.542313,-8.974437 -0.09504,-3.314769 -0.07694,-6.261286 0.02959,-8.859452 0.106291,-2.593167 0.35047,-4.780312 0.744855,-6.552468 0.394182,-1.766774 0.967114,-3.093099 1.67078,-3.976299 0.723168,-0.873708 1.60572,-1.312274 2.776514,-1.345864 0.292721,-0.0083 0.5688,0.0092 0.830687,0.05366 z m 31.257297,2.572075 -6.396122,0.18392 c -2.195116,9.980733 -0.5451,9.795825 -5.50349,9.937932 l 0.183325,5.866224 3.373742,-0.09847 c 0,0 0.359303,13.130739 0.477643,17.259863 0,0 -0.751293,4.978475 3.451765,7.337456 4.32495,2.427366 12.232588,-0.230802 12.394917,-0.35383 l -0.164208,-5.78145 c 0,0 -2.001989,0.705885 -3.330468,0.614672 -1.041625,0.02986 -1.894615,-0.333805 -2.556143,-1.096132 -0.661576,-0.762284 -1.012667,-1.91547 -1.056705,-3.453084 l -0.408536,-14.780996 6.822509,-0.195896 -0.179463,-5.861785 -6.826665,0.19562 z"
     id="path849-2" />
</svg>
