<?xml version="1.0" encoding="UTF-8" standalone="no"?>
<svg
   xmlns:dc="http://purl.org/dc/elements/1.1/"
   xmlns:cc="http://creativecommons.org/ns#"
   xmlns:rdf="http://www.w3.org/1999/02/22-rdf-syntax-ns#"
   xmlns:svg="http://www.w3.org/2000/svg"
   xmlns="http://www.w3.org/2000/svg"
   xmlns:xlink="http://www.w3.org/1999/xlink"
   xmlns:sodipodi="http://sodipodi.sourceforge.net/DTD/sodipodi-0.dtd"
   xmlns:inkscape="http://www.inkscape.org/namespaces/inkscape"
   height="136.53333"
   viewBox="0 0 136.53333 136.53333"
   width="136.53333"
   version="1.1"
   id="svg4886"
   sodipodi:docname="display.svg"
   inkscape:version="0.92.4 (5da689c313, 2019-01-14)">
  <metadata
     id="metadata4892">
    <rdf:RDF>
      <cc:Work
         rdf:about="">
        <dc:format>image/svg+xml</dc:format>
        <dc:type
           rdf:resource="http://purl.org/dc/dcmitype/StillImage" />
      </cc:Work>
    </rdf:RDF>
  </metadata>
  <defs
     id="defs4890" />
  <sodipodi:namedview
     pagecolor="#ffffff"
     bordercolor="#666666"
     borderopacity="1"
     objecttolerance="10"
     gridtolerance="10"
     guidetolerance="10"
     inkscape:pageopacity="0"
     inkscape:pageshadow="2"
     inkscape:window-width="1920"
     inkscape:window-height="1000"
     id="namedview4888"
     showgrid="false"
     inkscape:snap-global="false"
     inkscape:zoom="3.43"
     inkscape:cx="65.871952"
     inkscape:cy="39.694546"
     inkscape:window-x="0"
     inkscape:window-y="0"
     inkscape:window-maximized="1"
     inkscape:current-layer="svg4886" />
  <linearGradient
     id="a">
    <stop
       offset="0"
       stop-color="#909090"
       id="stop4818" />
    <stop
       offset="1"
       stop-color="#636363"
       stop-opacity="0"
       id="stop4820" />
  </linearGradient>
  <radialGradient
     id="b"
     cx="199.2227"
     cy="60.977612"
     gradientTransform="matrix(1.0118581 .00000003 -.00000015 5.095797 -134.28081 -251.22589)"
     gradientUnits="userSpaceOnUse"
     r="62.147919">
    <stop
       offset="0"
       stop-color="#e6e6e8"
       id="stop4823" />
    <stop
       offset="1"
       stop-color="#cbccce"
       id="stop4825" />
  </radialGradient>
  <radialGradient
     id="c"
     cx="199.2227"
     cy="60.977612"
     gradientTransform="matrix(1.3102503 -.00000004 .0000001 3.6151362 -193.72731 -160.9387)"
     gradientUnits="userSpaceOnUse"
     r="62.147919">
    <stop
       offset="0"
       stop-color="#ececef"
       id="stop4828" />
    <stop
       offset="1"
       stop-color="#cbccce"
       stop-opacity="0"
       id="stop4830" />
  </radialGradient>
  <filter
     id="d"
     color-interpolation-filters="sRGB"
     height="1.033815"
     width="1.02896"
     x="-.01448"
     y="-.016908">
    <feGaussianBlur
       stdDeviation=".74992302"
       id="feGaussianBlur4833" />
  </filter>
  <linearGradient
     id="e"
     gradientUnits="userSpaceOnUse"
     x1="174.78751"
     x2="174.86426"
     y1="109.46546"
     y2="118.12492">
    <stop
       offset="0"
       stop-color="#909090"
       id="stop4836" />
    <stop
       offset="1"
       stop-color="#727272"
       stop-opacity="0"
       id="stop4838" />
  </linearGradient>
  <radialGradient
     id="f"
     cx="178.78711"
     cy="120.70432"
     gradientTransform="matrix(3.8591081 -.00000023 0 .13879872 -511.17169 103.95076)"
     gradientUnits="userSpaceOnUse"
     r="22.055489"
     xlink:href="#a" />
  <filter
     id="g"
     color-interpolation-filters="sRGB"
     height="2.008"
     width="1.08173"
     x="-.040865"
     y="-.504">
    <feGaussianBlur
       stdDeviation=".32830532"
       id="feGaussianBlur4842" />
  </filter>
  <filter
     id="h"
     color-interpolation-filters="sRGB"
     height="1.4909"
     width="1.160934"
     x="-.080467"
     y="-.24545">
    <feGaussianBlur
       stdDeviation="1.4789442"
       id="feGaussianBlur4845" />
  </filter>
  <linearGradient
     id="i"
     gradientUnits="userSpaceOnUse"
     x1="183.0631"
     x2="183.0631"
     xlink:href="#a"
     y1="129.42332"
     y2="127.06073" />
  <linearGradient
     id="j"
     gradientUnits="userSpaceOnUse"
     x1="23.844025"
     x2="23.815981"
     y1="17.574459"
     y2="85.150604">
    <stop
       offset="0"
       stop-color="#1bd2fa"
       id="stop4849" />
    <stop
       offset="1"
       stop-color="#1c7ef2"
       id="stop4851" />
  </linearGradient>
  <rect
     fill="#1a1a1a"
     filter="url(#d)"
     height="103.94971"
     opacity=".887"
     rx="5.66165"
     width="124.29584"
     x="5.156375"
     y="8.778809"
     id="rect4854" />
  <rect
     fill="url(#b)"
     height="103.94971"
     rx="5.66165"
     width="124.29584"
     x="5.156375"
     y="8.778809"
     id="rect4856" />
  <rect
     fill="url(#c)"
     height="103.94971"
     rx="5.66165"
     width="124.29584"
     x="5.156375"
     y="8.778809"
     id="rect4858" />
  <path
     d="m10.817921 8.7780044c-3.1365599 0-5.6621099 2.5255546-5.6621099 5.6621086v75.664063h124.2968689v-75.664063c0-3.136554-2.52555-5.6621086-5.66211-5.6621086z"
     fill="#080808"
     id="path4860" />
  <path
     d="m10.317644 12.353147h113.49406v73.328949h-113.49406z"
     fill="url(#j)"
     id="path4862" />
  <path
     d="m5.1558111 106.01043v1.05664c0 3.13655 2.52555 5.6621 5.6621099 5.6621h112.972649c3.13656 0 5.66211-2.52555 5.66211-5.6621v-1.05664c0 3.13655-2.52555 5.6621-5.66211 5.6621h-112.972649c-3.1365599 0-5.6621099-2.52555-5.6621099-5.6621z"
     fill="#afafaf"
     id="path4864" />
  <g
     transform="translate(-111.48282 -1.473949)"
     id="g4878">
    <path
       d="m194.33847 114.94773c-.0882 3.69949-.94643 7.82167 4.95064 11.33436 4.7067 2.92579-2.61144 3.12671-4.42952 3.12671h-5.66718c-8.82592 0-17.65185 0-26.47777 0-1.81808 0-9.13622-.20092-4.42952-3.12671 5.89706-3.51269 5.03886-7.63487 4.95064-11.33436z"
       filter="url(#h)"
       id="path4866" />
    <path
       d="m194.33847 113.47378c-.0882 3.69949-.94643 7.82167 4.95064 11.33436 4.7067 2.92579-2.61144 3.12671-4.42952 3.12671-10.49206.46272-21.16242.7623-32.14495 0-1.81808 0-9.13622-.20092-4.42952-3.12671 5.89706-3.51269 5.03886-7.63487 4.95064-11.33436z"
       fill="#e0e1e6"
       id="path4868" />
    <path
       d="m194.33847 113.47378c-.0882 3.69949-.94643 7.82167 4.95064 11.33436 4.7067 2.92579-2.61144 3.12671-4.42952 3.12671h-5.66718c-8.82592 0-17.65185 0-26.47777 0-1.81808 0-9.13622-.20092-4.42952-3.12671 5.89706-3.51269 5.03886-7.63487 4.95064-11.33436z"
       fill="url(#e)"
       id="path4870" />
    <path
       d="m194.33847 113.47378c-.0882 3.69949-.94643 7.82167 4.95064 11.33436 4.7067 2.92579-2.61144 3.12671-4.42952 3.12671h-5.66718c-8.82592 0-17.65185 0-26.47777 0-1.81808 0-9.13622-.20092-4.42952-3.12671 5.89706-3.51269 5.03886-7.63487 4.95064-11.33436z"
       fill="url(#f)"
       id="path4872" />
    <ellipse
       cx="178.28802"
       cy="127.15317"
       fill="#fff"
       filter="url(#g)"
       opacity=".887"
       rx="15.763866"
       ry=".781679"
       id="ellipse4874" />
    <path
       d="m194.33847 113.47378c-.0882 3.69949-.94643 7.82167 4.95064 11.33436 4.7067 2.92579-2.61144 3.12671-4.42952 3.12671h-5.66718c-8.82592 0-17.65185 0-26.47777 0-1.81808 0-9.13622-.20092-4.42952-3.12671 5.89706-3.51269 5.03886-7.63487 4.95064-11.33436z"
       fill="url(#i)"
       id="path4876" />
  </g>
  <path
     d="m10.317921 12.352223v73.330078h113.494139v-73.330078zm.55273.507812h112.480469v72.361328h-112.480469z"
     fill-opacity=".211982"
     id="path4882" />
  <path
     d="m10.818359 9.0273438c-3.1365595 0-5.662109 2.5255552-5.662109 5.6621092v75.414063h124.29687v-75.414063c0-3.136554-2.52554-5.6621092-5.6621-5.6621092zm-.5 5.3261722h113.494141v71.328125h-113.494141z"
     fill="#080808"
     id="path4884" />
  <path
     inkscape:connector-curvature="0"
     style="fill:#1e1f28;fill-opacity:1;stroke-width:0.0147849"
     d="m 65.623593,94.652739 c -0.05351,0.0017 -0.111141,0.02143 -0.176495,0.073 -0.160076,-0.06175 -0.31532,-0.0832 -0.454175,0.04251 -0.21429,-0.02781 -0.284023,0.02958 -0.336817,0.09656 -0.04706,-0.0011 -0.35216,-0.04838 -0.492062,0.160324 -0.351608,-0.0416 -0.462717,0.20681 -0.336817,0.438464 -0.07181,0.111169 -0.146216,0.220995 0.02171,0.43292 -0.0594,0.118036 -0.02258,0.246083 0.117355,0.401041 -0.03693,0.165926 0.03566,0.282997 0.16587,0.374243 -0.02435,0.22706 0.208222,0.359087 0.277678,0.406124 0.02667,0.132305 0.08225,0.257149 0.347907,0.326192 0.04381,0.197173 0.20347,0.231221 0.358071,0.272597 -0.510994,0.297022 -0.949199,0.687832 -0.946233,1.646668 l -0.07485,0.133526 c -0.585938,0.356349 -1.113086,1.501642 -0.288766,2.432572 0.05385,0.29138 0.144146,0.50067 0.224546,0.73231 0.120256,0.93338 0.905095,1.37044 1.1121,1.42213 0.303337,0.23106 0.62641,0.4503 1.06359,0.60387 0.412131,0.42506 0.858617,0.58705 1.307539,0.58677 0.0066,0 0.01329,1.1e-4 0.01987,0 0.448922,2.1e-4 0.895408,-0.16171 1.307539,-0.58677 0.43718,-0.15357 0.760255,-0.37281 1.06359,-0.60387 0.207005,-0.0517 0.991844,-0.48875 1.112099,-1.42213 0.03157,-0.091 0.06461,-0.1786 0.09642,-0.26898 a 2.0301879,2.0301879 0 0 1 -1.593738,-1.98127 2.0301879,2.0301879 0 0 1 1.218426,-1.858152 c -0.168808,-0.407661 -0.471989,-0.642287 -0.806412,-0.836674 0.154601,-0.04138 0.31426,-0.07542 0.35807,-0.272597 0.265661,-0.06904 0.321242,-0.193887 0.347908,-0.326192 0.06946,-0.04704 0.302031,-0.179064 0.277678,-0.406124 0.130207,-0.09125 0.2028,-0.208317 0.165869,-0.374243 0.139938,-0.154958 0.176761,-0.283005 0.117356,-0.401041 0.16793,-0.211925 0.09352,-0.321751 0.02171,-0.43292 0.125903,-0.231654 0.01479,-0.48006 -0.336818,-0.438464 -0.139901,-0.208701 -0.445005,-0.161298 -0.492061,-0.160324 -0.0528,-0.06698 -0.122527,-0.12437 -0.336816,-0.09656 -0.138857,-0.125706 -0.294099,-0.104254 -0.454175,-0.04251 -0.190123,-0.150027 -0.315987,-0.02976 -0.459718,0.0157 -0.230258,-0.07522 -0.28288,0.02781 -0.395959,0.06977 -0.250976,-0.05305 -0.327272,0.06244 -0.447703,0.184351 l -0.139996,-0.0028 c -0.378649,0.223149 -0.566761,0.677525 -0.63344,0.911119 -0.06671,-0.23363 -0.254396,-0.688008 -0.632979,-0.911119 l -0.139996,0.0028 c -0.120431,-0.121907 -0.196728,-0.237399 -0.447703,-0.184351 -0.113079,-0.04196 -0.165701,-0.144988 -0.395959,-0.06977 -0.09432,-0.02984 -0.181067,-0.09188 -0.283223,-0.08871 z"
     id="path3787" />
</svg>
