<?xml version="1.0" encoding="UTF-8" standalone="no"?>
<svg
   xmlns:dc="http://purl.org/dc/elements/1.1/"
   xmlns:cc="http://creativecommons.org/ns#"
   xmlns:rdf="http://www.w3.org/1999/02/22-rdf-syntax-ns#"
   xmlns:svg="http://www.w3.org/2000/svg"
   xmlns="http://www.w3.org/2000/svg"
   xmlns:xlink="http://www.w3.org/1999/xlink"
   xmlns:sodipodi="http://sodipodi.sourceforge.net/DTD/sodipodi-0.dtd"
   xmlns:inkscape="http://www.inkscape.org/namespaces/inkscape"
   height="128"
   viewBox="0 0 128 128"
   width="128"
   version="1.1"
   id="svg25"
   sodipodi:docname="gnome-boxes.svg"
   inkscape:version="0.92.3 (2405546, 2018-03-11)">
  <metadata
     id="metadata31">
    <rdf:RDF>
      <cc:Work
         rdf:about="">
        <dc:format>image/svg+xml</dc:format>
        <dc:type
           rdf:resource="http://purl.org/dc/dcmitype/StillImage" />
        <dc:title></dc:title>
      </cc:Work>
    </rdf:RDF>
  </metadata>
  <defs
     id="defs29">
    <linearGradient
       inkscape:collect="always"
       id="linearGradient847">
      <stop
         style="stop-color:#46bde7;stop-opacity:1"
         offset="0"
         id="stop843" />
      <stop
         style="stop-color:#226ad8;stop-opacity:0.88973385"
         offset="1"
         id="stop845" />
    </linearGradient>
    <linearGradient
       inkscape:collect="always"
       xlink:href="#linearGradient847"
       id="linearGradient849"
       x1="60.021572"
       y1="9.4464588"
       x2="62.678787"
       y2="119.00578"
       gradientUnits="userSpaceOnUse" />
  </defs>
  <sodipodi:namedview
     pagecolor="#ffffff"
     bordercolor="#666666"
     borderopacity="1"
     objecttolerance="10"
     gridtolerance="10"
     guidetolerance="10"
     inkscape:pageopacity="0"
     inkscape:pageshadow="2"
     inkscape:window-width="1920"
     inkscape:window-height="1026"
     id="namedview27"
     showgrid="false"
     inkscape:zoom="1.84375"
     inkscape:cx="-103.59322"
     inkscape:cy="64"
     inkscape:window-x="0"
     inkscape:window-y="28"
     inkscape:window-maximized="1"
     inkscape:current-layer="svg25" />
  <linearGradient
     id="a"
     gradientUnits="userSpaceOnUse"
     x1="64.42871085545"
     x2="63.70264686264"
     y1="9.49702762746"
     y2="114.03049919903">
    <stop
       offset="0"
       stop-color="#7ffff3"
       id="stop2"
       style="stop-color:#54d6ee;stop-opacity:1" />
    <stop
       offset="1"
       stop-color="#00b2e0"
       id="stop4"
       style="stop-color:#0068e0;stop-opacity:1" />
  </linearGradient>
  <linearGradient
     id="b"
     gradientUnits="userSpaceOnUse"
     x1="66.01551341119"
     x2="64.33359152003"
     y1="119.34706540717"
     y2="1.33853303141">
    <stop
       offset="0"
       stop-color="#cccdd1"
       id="stop7" />
    <stop
       offset="1"
       stop-color="#f7f9f9"
       id="stop9" />
  </linearGradient>
  <filter
     id="c"
     color-interpolation-filters="sRGB"
     height="1.25877"
     width="1.211567"
     x="-.105784"
     y="-.129385">
    <feGaussianBlur
       stdDeviation="1.2811285"
       id="feGaussianBlur12" />
  </filter>
  <circle
     cx="64.333229"
     cy="64.22612"
     fill="url(#a)"
     r="60.565502"
     stroke="#cccdd1"
     stroke-width="4.644855"
     id="circle15"
     style="fill:url(#linearGradient849);fill-opacity:1" />
  <path
     d="m64.333592 1.3385313c-34.704539 0-62.8882778 28.1824517-62.8882778 62.8869837 0 34.704538 28.1837388 62.888275 62.8882778 62.888275 34.704538 0 62.886978-28.183737 62.886978-62.888275 0-34.704532-28.18244-62.8869837-62.886978-62.8869837zm0 4.644855c32.194272 0 58.242128 26.0478627 58.242128 58.2421287 0 32.194272-26.047856 58.243425-58.242128 58.243425-32.194267 0-58.2434228-26.049153-58.2434228-58.243425 0-32.194266 26.0491558-58.2421287 58.2434228-58.2421287z"
     fill="url(#b)"
     id="path17" />
  <g
     filter="url(#c)"
     opacity=".242"
     transform="matrix(2.6906004 0 0 2.6906004 .52123 -.66616)"
     id="g21">
    <path
       d="m36.255859 33.925781a10.089752 10.089752 0 0 0 -10.089843 10.089844 10.089752 10.089752 0 0 0 6.46875 9.416016v24.9375a10.089752 10.089752 0 0 0 -6.46875 9.40625 10.089752 10.089752 0 0 0 10.089843 10.089843 10.089752 10.089752 0 0 0 9.558594-6.894531h38.90625a10.089752 10.089752 0 0 0 9.5625 6.894531 10.089752 10.089752 0 0 0 10.087887-10.089843 10.089752 10.089752 0 0 0 -6.724606-9.501953v-24.759766a10.089752 10.089752 0 0 0 6.724606-9.498047 10.089752 10.089752 0 0 0 -10.087887-10.089844 10.089752 10.089752 0 0 0 -9.175781 5.923828h-39.673828a10.089752 10.089752 0 0 0 -9.177735-5.923828zm9.753907 12.650391h38.52539a10.089752 10.089752 0 0 0 .314453.986328l-3.347656 2.007812a6.0538509 6.0538509 0 0 0 -3.53125-1.144531 6.0538509 6.0538509 0 0 0 -5.449219 3.431641h-12.554687a6.0538509 6.0538509 0 0 0 -5.455078-3.431641 6.0538509 6.0538509 0 0 0 -3.720703 1.28125l-4.841797-2.904297a10.089752 10.089752 0 0 0 .06055-.226562zm-1.453125 3.154297 4.30664 2.583984a6.0538509 6.0538509 0 0 0 -.40625 2.164063 6.0538509 6.0538509 0 0 0 3.853516 5.634765v11.933594a6.0538509 6.0538509 0 0 0 -3.853516 5.638672 6.0538509 6.0538509 0 0 0 .154297 1.308594l-4.376953 2.625a10.089752 10.089752 0 0 0 -4.873047-3.431641v-24.578125a10.089752 10.089752 0 0 0 5.195313-3.878906zm41.892578.634765a10.089752 10.089752 0 0 0 4.470703 3.152344v24.757813a10.089752 10.089752 0 0 0 -4.107422 2.734375l-2.992188-1.794922a6.0538509 6.0538509 0 0 0 .203126-1.529297 6.0538509 6.0538509 0 0 0 -4.271485-5.785156v-11.640625a6.0538509 6.0538509 0 0 0 4.271485-5.78125 6.0538509 6.0538509 0 0 0 -.488282-2.365235zm-25.914063 4.71875h11.417969a6.0538509 6.0538509 0 0 0 4.572266 5.265625v11.464844a6.0538509 6.0538509 0 0 0 -4.382813 4.257813h-11.796875a6.0538509 6.0538509 0 0 0 -4.808594-4.345704v-11.283203a6.0538509 6.0538509 0 0 1 .0039 0 6.0538509 6.0538509 0 0 0 4.99414-5.359375zm-.195312 24.214844h11.796875a6.0538509 6.0538509 0 0 1 0 .0059 6.0538509 6.0538509 0 0 0 5.833984 4.433593 6.0538509 6.0538509 0 0 0 4.236328-1.728515l2.851563 1.710937a10.089752 10.089752 0 0 0 -.220703.523438h-38.712891l3.994141-2.396485a6.0538509 6.0538509 0 0 0 4.392578 1.890625 6.0538509 6.0538509 0 0 0 5.828125-4.439453z"
       stroke-width="2.6906"
       transform="matrix(.37166426 0 0 .37166426 -.541349 -.372864)"
       id="path19" />
  </g>
  <path
     d="m36.255859 33.925781a10.089752 10.089752 0 0 0 -10.089843 10.089844 10.089752 10.089752 0 0 0 6.46875 9.416016v24.9375a10.089752 10.089752 0 0 0 -6.46875 9.40625 10.089752 10.089752 0 0 0 10.089843 10.089843 10.089752 10.089752 0 0 0 9.558594-6.894531h38.90625a10.089752 10.089752 0 0 0 9.5625 6.894531 10.089752 10.089752 0 0 0 10.087887-10.089843 10.089752 10.089752 0 0 0 -6.724606-9.501953v-24.759766a10.089752 10.089752 0 0 0 6.724606-9.498047 10.089752 10.089752 0 0 0 -10.087887-10.089844 10.089752 10.089752 0 0 0 -9.175781 5.923828h-39.673828a10.089752 10.089752 0 0 0 -9.177735-5.923828zm9.753907 12.650391h38.52539a10.089752 10.089752 0 0 0 .314453.986328l-3.347656 2.007812a6.0538509 6.0538509 0 0 0 -3.53125-1.144531 6.0538509 6.0538509 0 0 0 -5.449219 3.431641h-12.554687a6.0538509 6.0538509 0 0 0 -5.455078-3.431641 6.0538509 6.0538509 0 0 0 -3.720703 1.28125l-4.841797-2.904297a10.089752 10.089752 0 0 0 .06055-.226562zm-1.453125 3.154297 4.30664 2.583984a6.0538509 6.0538509 0 0 0 -.40625 2.164063 6.0538509 6.0538509 0 0 0 3.853516 5.634765v11.933594a6.0538509 6.0538509 0 0 0 -3.853516 5.638672 6.0538509 6.0538509 0 0 0 .154297 1.308594l-4.376953 2.625a10.089752 10.089752 0 0 0 -4.873047-3.431641v-24.578125a10.089752 10.089752 0 0 0 5.195313-3.878906zm41.892578.634765a10.089752 10.089752 0 0 0 4.470703 3.152344v24.757813a10.089752 10.089752 0 0 0 -4.107422 2.734375l-2.992188-1.794922a6.0538509 6.0538509 0 0 0 .203126-1.529297 6.0538509 6.0538509 0 0 0 -4.271485-5.785156v-11.640625a6.0538509 6.0538509 0 0 0 4.271485-5.78125 6.0538509 6.0538509 0 0 0 -.488282-2.365235zm-25.914063 4.71875h11.417969a6.0538509 6.0538509 0 0 0 4.572266 5.265625v11.464844a6.0538509 6.0538509 0 0 0 -4.382813 4.257813h-11.796875a6.0538509 6.0538509 0 0 0 -4.808594-4.345704v-11.283203a6.0538509 6.0538509 0 0 1 .0039 0 6.0538509 6.0538509 0 0 0 4.99414-5.359375zm-.195312 24.214844h11.796875a6.0538509 6.0538509 0 0 1 0 .0059 6.0538509 6.0538509 0 0 0 5.833984 4.433593 6.0538509 6.0538509 0 0 0 4.236328-1.728515l2.851563 1.710937a10.089752 10.089752 0 0 0 -.220703.523438h-38.712891l3.994141-2.396485a6.0538509 6.0538509 0 0 0 4.392578 1.890625 6.0538509 6.0538509 0 0 0 5.828125-4.439453z"
     fill="#fff"
     stroke-width="2.6906"
     transform="matrix(1.00000000662 0 0 1.00000000662 -.93532383594 -1.66938802755)"
     id="path23" />
</svg>
