<?xml version="1.0" encoding="UTF-8" standalone="no"?>
<!-- Generator: Adobe Illustrator 22.1.0, SVG Export Plug-In . SVG Version: 6.00 Build 0)  -->

<!-- Artist: @KevDoy for Trenta.io -->

<!-- Vector Conversion by @Genghis-Khanr -->

<svg
   xmlns:dc="http://purl.org/dc/elements/1.1/"
   xmlns:cc="http://creativecommons.org/ns#"
   xmlns:rdf="http://www.w3.org/1999/02/22-rdf-syntax-ns#"
   xmlns:svg="http://www.w3.org/2000/svg"
   xmlns="http://www.w3.org/2000/svg"
   xmlns:sodipodi="http://sodipodi.sourceforge.net/DTD/sodipodi-0.dtd"
   xmlns:inkscape="http://www.inkscape.org/namespaces/inkscape"
   version="1.1"
   id="seahorse"
   x="0px"
   y="0px"
   viewBox="0 0 1024 1024"
   style="enable-background:new 0 0 1024 1024;"
   xml:space="preserve"
   sodipodi:docname="
badge-small.svg"
   inkscape:version="0.92.4 5da689c313, 2019-01-14"><metadata
   id="metadata266"><rdf:RDF><cc:Work
       rdf:about=""><dc:format>image/svg+xml</dc:format><dc:type
         rdf:resource="http://purl.org/dc/dcmitype/StillImage" /></cc:Work></rdf:RDF></metadata><defs
   id="defs264" /><sodipodi:namedview
   pagecolor="#ffffff"
   bordercolor="#666666"
   borderopacity="1"
   objecttolerance="10"
   gridtolerance="10"
   guidetolerance="10"
   inkscape:pageopacity="0"
   inkscape:pageshadow="2"
   inkscape:window-width="1920"
   inkscape:window-height="1026"
   id="namedview262"
   showgrid="false"
   inkscape:zoom="1.3037281"
   inkscape:cx="372.94252"
   inkscape:cy="769.46594"
   inkscape:window-x="0"
   inkscape:window-y="30"
   inkscape:window-maximized="1"
   inkscape:current-layer="seahorse" />
<style
   type="text/css"
   id="style2">
	.st0{fill:#535555;}
	.st1{fill:url(#SVGID_1_);}
	.st2{fill:#717475;}
	.st3{fill:#E8E9E9;}
	.st4{fill:#585A5A;}
	.st5{fill:url(#SVGID_2_);}
	.st6{fill:#D2DADD;}
	.st7{fill:#7F8587;}
	.st8{fill:url(#SVGID_3_);}
	.st9{fill:url(#SVGID_4_);}
	.st10{fill:url(#SVGID_5_);}
	.st11{fill:#D8D8D8;}
	.st12{fill:#8E9698;}
	.st13{fill:#B3BBBD;}
	.st14{fill:url(#SVGID_6_);}
	.st15{fill:#CCD1D3;}
	.st16{fill:url(#SVGID_7_);}
	.st17{fill:#E5E6E6;}
	.st18{fill:#ADB2B2;}
	.st19{fill:url(#SVGID_8_);}
	.st20{fill:url(#SVGID_9_);}
	.st21{fill:#E2E5E6;}
	.st22{opacity:0.8;fill:#BABEBF;}
</style>
<g
   id="g259">
	<g
   id="g70">
		<g
   id="g58">
			<path
   class="st0"
   d="M757.9,858.1l-5-10.1l6.8-12.1l-35.5-26.3l8.8-23.1L713,770l-2.7-10.1l6.8-22.1L699.8,726l-6.9-14.1l13.6-25     l-12-12.4l-0.4-14.9L706,631l-10.6-33.5c0,0,23.6-1.6,23.4-12.8c-0.1-6.1-4.4-21.8-8.2-34.7C735.6,522.4,751,485.5,751,445     c0-85.6-68.4-155-152.8-155s-152.8,69.4-152.8,155c0,82.9,64.2,150.7,145,154.8l98.3,304.3c0,0,10.8,21.8,39.5,11     s36.3-34,39.8-50.5L757.9,858.1z M565.4,410c-21.3,0-38.6-17.3-38.6-38.6c0-21.3,17.3-38.6,38.6-38.6c21.3,0,38.6,17.3,38.6,38.6     C604,392.7,586.7,410,565.4,410z"
   id="path4" />
			<linearGradient
   id="SVGID_1_"
   gradientUnits="userSpaceOnUse"
   x1="548.2216"
   y1="295.8917"
   x2="728.2216"
   y2="918.5583">
				<stop
   offset="0"
   style="stop-color:#C7D7DC"
   id="stop6" />
				<stop
   offset="0.2289"
   style="stop-color:#BCC9CD"
   id="stop8" />
				<stop
   offset="0.6656"
   style="stop-color:#9FA5A7"
   id="stop10" />
				<stop
   offset="1"
   style="stop-color:#868685"
   id="stop12" />
			</linearGradient>
			<path
   class="st1"
   d="M752,860.6l-3.3-10.4l7.6-12.4l-35.8-23.4l6.1-25.9l-18.6-14l-3.4-12.3l6.4-19.3l-16.9-11.4l-4.8-17     l13.9-26.5l-13-7.8l-2.8-12.6c13.1-18.9,11-36.3,11-36.3l-8.3-27.6c0,0,18.3-5.2,22.6-9.2c3.6-3.3-5.2-33.5-8.6-44.3     c25-27.2,40.2-63.4,40.2-103.3c0-84.3-68.4-152.7-152.7-152.7S439.3,363,439.3,447.3c0,83.8,67.5,151.8,151.1,152.6l98.2,304.1     c0,0,10.8,21.8,39.5,11c15-5.6,24.2-14.6,30.1-24.3c0,0,3.4-8,4.4-21.7L752,860.6z M565.4,410c-21.3,0-38.6-17.3-38.6-38.6     c0-21.3,17.3-38.6,38.6-38.6c21.3,0,38.6,17.3,38.6,38.6C604,392.7,586.7,410,565.4,410z"
   id="path15" />
			<polygon
   class="st2"
   points="762.6,869.1 767.9,864.6 757.9,858.1 752,860.6    "
   id="polygon17" />
			<polygon
   class="st2"
   points="748.8,850.3 752.9,848 759.6,835.9 724.1,809.6 720.6,814.5 756.4,837.9    "
   id="polygon19" />
			<polygon
   class="st2"
   points="726.8,788.6 732.9,786.5 713,770 708.1,774.6    "
   id="polygon21" />
			<polygon
   class="st2"
   points="704.8,762.4 710.3,759.9 717.1,737.8 699.8,726 694.3,731.8 711.1,743.1    "
   id="polygon23" />
			<polygon
   class="st2"
   points="689.5,714.8 692.9,711.9 706.5,686.9 694.5,674.5 689.5,680.8 703.4,688.3    "
   id="polygon25" />
			<polygon
   class="st3"
   points="762.4,872.1 751.2,863.6 752,860.6 762.6,869.1    "
   id="polygon27" />
			<polygon
   class="st3"
   points="754.3,836.5 752.7,838.9 718.9,815.6 720.6,814.5    "
   id="polygon29" />
			<polygon
   class="st3"
   points="726.2,790.9 706.6,776.5 708.1,774.6 726.8,788.6    "
   id="polygon31" />
			<polygon
   class="st3"
   points="710.1,746.2 692.8,733.4 694.3,731.8 711.1,743.1    "
   id="polygon33" />
			<polygon
   class="st3"
   points="690.4,680.5 691,683.2 702.2,690.6 703.4,688.3    "
   id="polygon35" />
			<polygon
   class="st3"
   points="688.6,904.1 690,903.3 592,599.3 590.4,600    "
   id="polygon37" />
			<g
   id="g56">
				<path
   class="st4"
   d="M729.3,914.7c-0.4,0.2-0.8,0.3-1.2,0.5c-8.4,3.1-15.2,3.5-20.7,2.5l-91.2-283.3c0,0-4.5-30.3,4.8-34.9      l13.3,19.4c0,0,0.5-0.4,5.2,12.3C644.1,643.7,679.9,754.1,729.3,914.7z"
   id="path39" />
				<linearGradient
   id="SVGID_2_"
   gradientUnits="userSpaceOnUse"
   x1="616.6767"
   y1="616.9422"
   x2="720.6767"
   y2="934.9422">
					<stop
   offset="0"
   style="stop-color:#535555"
   id="stop41" />
					<stop
   offset="7.793793e-02"
   style="stop-color:#606262"
   id="stop43" />
					<stop
   offset="0.2712"
   style="stop-color:#7A7B7B"
   id="stop45" />
					<stop
   offset="0.4703"
   style="stop-color:#8C8D8D"
   id="stop47" />
					<stop
   offset="0.6767"
   style="stop-color:#979898"
   id="stop49" />
					<stop
   offset="0.9022"
   style="stop-color:#9B9C9C"
   id="stop51" />
				</linearGradient>
				<path
   class="st5"
   d="M712.1,918.1c1.8,0.1,3.7,0,5.7-0.3L618,611.5l7.6,41.6L712.1,918.1z"
   id="path54" />
			</g>
		</g>
		<g
   id="g62">
			<path
   class="st6"
   d="M695.1,354.8c12.6,12.7,22.6,28,29.1,44.8c6.5,16.8,9.7,35,9.1,53.1c-0.5,18.1-4.8,36.2-12.3,52.8     c-7.5,16.6-18.5,31.6-31.8,44c-13.4,12.3-29.2,22.1-46.3,28.3c-17.1,6.2-35.4,9.1-53.6,8.2c-9.1-0.4-18.1-1.7-26.8-4     c-8.8-2.2-17.3-5.3-25.4-9.2c-16.2-7.9-30.8-19-42.4-32.5c12.6,12.6,27.4,22.9,43.7,29.9c16.2,7,33.7,10.8,51.2,11.2     c8.8,0.2,17.5-0.5,26.2-1.9c8.6-1.5,17.1-3.8,25.3-6.9c16.3-6.2,31.5-15.5,44.2-27.4c12.9-11.8,23.4-26.2,30.8-42     c7.5-15.8,11.8-33.1,12.8-50.6c0.9-17.5-1.5-35.3-7.2-51.9C715.8,383.9,706.8,368.3,695.1,354.8z"
   id="path60" />
		</g>
		<g
   id="g66">
			<path
   class="st7"
   d="M494.7,540.2c-12.6-12.7-22.6-28-29.1-44.8c-6.5-16.8-9.7-35-9.1-53.1c0.5-18.1,4.8-36.2,12.3-52.8     c7.5-16.6,18.5-31.6,31.8-44c13.4-12.3,29.2-22.1,46.3-28.3c17.1-6.2,35.4-9.1,53.6-8.2c9.1,0.4,18.1,1.7,26.8,4     c8.8,2.2,17.3,5.3,25.4,9.2c16.2,7.9,30.8,19,42.4,32.5c-12.6-12.6-27.4-22.9-43.7-29.9c-16.2-7-33.7-10.8-51.2-11.2     c-8.8-0.2-17.5,0.5-26.2,1.9c-8.6,1.5-17.1,3.8-25.3,6.9c-16.3,6.2-31.5,15.5-44.2,27.4c-12.9,11.8-23.4,26.2-30.8,42     c-7.5,15.8-11.8,33.1-12.8,50.6c-0.9,17.5,1.5,35.3,7.2,51.9C474,511.1,483,526.7,494.7,540.2z"
   id="path64" />
		</g>
		<path
   class="st7"
   d="M526.8,371.4c0-12.9,6.3-24.3,16-31.3c-11.9,6.3-19.8,18-19.8,31.3c0,13.3,8,24.9,19.8,31.3    C533.1,395.6,526.8,384.2,526.8,371.4z"
   id="path68" />
	</g>
	<g
   id="g136">
		<path
   class="st0"
   d="M564.6,318.7c-85.1,0-154.1,69.4-154.1,155c0,54.1,27.5,101.6,69.2,129.4c-10.3,15.3-3,42.9-3,42.9l26.1,6.5    l-3.8,293.8c0,0,4.3,24.9,33.1,23.7s44-16.3,56-36l-7.9-9.6l-0.5-10.9l9.9-9.4l-25.4-37.3L580,847l-13.9-22l1.5-9.4l16.5-15.5    l-14.5-20.4l17.1-10.1l-18.5-7.9l17.9-18l6.4-23.5l-10.5-2.9l22.9-29.1v-30.6c0,0,17.1-1,29.3-8v-37.6    c50.2-25.6,84.6-77.9,84.6-138.4C718.8,388.1,649.7,318.7,564.6,318.7z M552.6,428.2c-21.3,0-38.6-17.3-38.6-38.6    s17.3-38.6,38.6-38.6c21.3,0,38.6,17.3,38.6,38.6S573.9,428.2,552.6,428.2z"
   id="path72" />
		<linearGradient
   id="SVGID_3_"
   gradientUnits="userSpaceOnUse"
   x1="560.4166"
   y1="318.6773"
   x2="560.4166"
   y2="970.0455">
			<stop
   offset="0"
   style="stop-color:#C7D7DC"
   id="stop74" />
			<stop
   offset="0.2521"
   style="stop-color:#BAC7CB"
   id="stop76" />
			<stop
   offset="0.7514"
   style="stop-color:#989D9E"
   id="stop78" />
			<stop
   offset="1"
   style="stop-color:#868685"
   id="stop80" />
		</linearGradient>
		<path
   class="st8"
   d="M560.4,318.7c-82.8,0-149.9,69.4-149.9,155c0,54.6,27.3,102.7,68.6,130.3c-9.4,15.5-2.5,42-2.5,42l26.1,6.5    l-3.8,293.8c0,0,4.3,24.9,33.1,23.7c16.4-0.7,28.4-5.9,37.9-13.8l11.9-19.3l-8.3-12.1v-10l11.9-10.6l-26.5-35.6l14.6-20.8    l-13-20.5l4.1-14.8l15.1-11.4l-17.3-20.4l22.1-12.1l-19.9-7.3l18.1-18.3l7.6-23.5l-16.3-0.7c0,0,19.7-18.2,23.5-29l1-32.5    c0,0,21.7,2,24.3-0.8c2.5-2.6,4.5-5.1,7.6-46c47.4-26,79.7-77.6,79.7-137C710.3,388.1,643.2,318.7,560.4,318.7z M552.6,428.2    c-21.3,0-38.6-17.3-38.6-38.6s17.3-38.6,38.6-38.6c21.3,0,38.6,17.3,38.6,38.6S573.9,428.2,552.6,428.2z"
   id="path83" />
		<polygon
   class="st2"
   points="588,934 581.8,936.9 573.5,924.8 580.1,924.4   "
   id="polygon85" />
		<polygon
   class="st2"
   points="573.5,914.8 579.6,913.5 589.5,904.1 564.1,866.9 558.9,868.5 585.4,904.1   "
   id="polygon87" />
		<polygon
   class="st2"
   points="573.5,847.8 580,847 566.1,825 560.5,827.3   "
   id="polygon89" />
		<polygon
   class="st2"
   points="564.6,812.5 567.6,815.6 584.1,800.1 569.6,779.8 586.8,769.6 584.6,768.7 562.5,780.8 579.8,801.1       "
   id="polygon91" />
		<polygon
   class="st2"
   points="586.1,743.8 582.8,743.1 564.6,761.4 568.3,761.8   "
   id="polygon93" />
		<path
   class="st3"
   d="M580.2,939.4c-0.3-0.5-9-13.7-9-13.7l2.3-1l8.3,12.1L580.2,939.4z"
   id="path95" />
		<polygon
   class="st3"
   points="583.8,905.5 556.5,870.3 558.9,868.5 585.4,904.1   "
   id="polygon97" />
		<polygon
   class="st3"
   points="561.3,828.5 558.9,830.3 572.2,849.5 573.5,847.8   "
   id="polygon99" />
		<polygon
   class="st3"
   points="577.4,802.9 562.5,786.8 565.7,784.5 579.8,801.1   "
   id="polygon101" />
		<polygon
   class="st3"
   points="576.7,719.1 576.7,722.9 589.5,722.3 590.4,719.7   "
   id="polygon103" />
		<polygon
   class="st3"
   points="498.9,945.9 500.7,945.9 504.6,653 502.7,653   "
   id="polygon105" />
		<g
   id="g126">
			<path
   class="st4"
   d="M535.3,969.8c-1.1,0.1-2.2,0.2-3.3,0.2c-8.7,0.4-15.2-1.7-20-4.7c0,0,2.7-272.3,4.7-282.7     c2-10.3,11.3-48.7,21.3-55.7c0,0,2.7,8.8,2.8,31.8C541,681.8,535.3,969.8,535.3,969.8z"
   id="path107" />
			<linearGradient
   id="SVGID_4_"
   gradientUnits="userSpaceOnUse"
   x1="527.0861"
   y1="649"
   x2="527.0861"
   y2="970.0367">
				<stop
   offset="0"
   style="stop-color:#535555"
   id="stop109" />
				<stop
   offset="7.793793e-02"
   style="stop-color:#606262"
   id="stop111" />
				<stop
   offset="0.2712"
   style="stop-color:#7A7B7B"
   id="stop113" />
				<stop
   offset="0.4703"
   style="stop-color:#8C8D8D"
   id="stop115" />
				<stop
   offset="0.6767"
   style="stop-color:#979898"
   id="stop117" />
				<stop
   offset="0.9022"
   style="stop-color:#9B9C9C"
   id="stop119" />
			</linearGradient>
			<path
   class="st9"
   d="M529,970c-2.2,0-4.2-0.2-6-0.6l4.2-320.5h4L529,970z"
   id="path122" />
			<path
   class="st0"
   d="M539,632c-0.6-3.5-1-5-1-5c-10,7-19.3,45.3-21.3,55.7c-2,10.3-4.7,282.7-4.7,282.7c1.7,1.1,3.6,2,5.8,2.8     c0,0,1.1-267.1,3.2-276.9c0.8-8,1.9-14.3,4.5-24C528.2,657.5,539,632,539,632z"
   id="path124" />
		</g>
		<g
   id="g130">
			<path
   class="st6"
   d="M662.2,383c12.5,12.9,22.3,28.6,28.7,45.5c3.2,8.5,5.5,17.3,6.9,26.3c1.5,9,1.9,18.1,1.6,27.3     c-0.7,18.3-5.3,36.4-13,52.9c-7.8,16.6-19.1,31.5-32.7,43.8c-13.7,12.2-29.8,21.8-47.1,27.7c-17.3,5.9-35.8,8.5-54,7.2     c-9.1-0.6-18.2-2.1-26.9-4.5c-8.8-2.4-17.3-5.7-25.4-9.8c-16.2-8.2-30.7-19.6-42.2-33.4c12.5,12.9,27.2,23.5,43.4,30.8     c16.2,7.4,33.7,11.5,51.3,12.2c8.8,0.3,17.7-0.1,26.4-1.4c8.7-1.3,17.3-3.5,25.5-6.5c16.6-5.9,31.9-15.1,45-26.8     c13.1-11.7,23.9-26,31.6-41.8c7.8-15.8,12.2-33.1,13.5-50.8c1.2-17.6-1-35.5-6.6-52.4C682.6,412.7,673.7,396.8,662.2,383z"
   id="path128" />
		</g>
		<g
   id="g134">
			<path
   class="st7"
   d="M458,566.2c-12.5-12.9-22.3-28.6-28.7-45.5c-3.2-8.5-5.5-17.3-6.9-26.3c-1.5-9-1.9-18.1-1.6-27.3     c0.7-18.3,5.3-36.4,13-52.9c7.8-16.6,19.1-31.5,32.7-43.8c13.7-12.2,29.8-21.8,47.1-27.7c17.3-5.9,35.8-8.5,54-7.2     c9.1,0.6,18.2,2.1,26.9,4.5c8.8,2.4,17.3,5.7,25.4,9.8c16.2,8.2,30.7,19.6,42.2,33.4c-12.5-12.9-27.2-23.5-43.4-30.8     c-16.2-7.4-33.7-11.5-51.3-12.2c-8.8-0.3-17.7,0.1-26.4,1.4c-8.7,1.3-17.3,3.5-25.5,6.5c-16.6,5.9-31.9,15.1-45,26.8     c-13.1,11.7-23.9,26-31.6,41.8c-7.8,15.8-12.2,33.1-13.5,50.8c-1.2,17.6,1,35.5,6.6,52.4C437.6,536.6,446.5,552.4,458,566.2z"
   id="path132" />
		</g>
	</g>
	<g
   id="g193">
		<path
   class="st0"
   d="M487.3,318.7c-87.7,0-158.8,70.1-158.8,156.6c0,34.3,11.2,66.1,30.2,91.9c0,0,0,0,0,0    c-12.5,22.3-15.2,33-14.4,35.9c0.8,3,19,12.5,19,12.5l-122.6,268c0,0-7.4,27.3,29.8,36.6c37.2,9.3,57.8-14,57.8-14l-3.6-12    l3.4-9.8l13.9-4.6l-8.3-44.5l22.1-11.4l-3.9-25.8l4.3-8.9l21.8-12.8l-6-21.3l5-14.3l27.3-10v-16.1l8.4-11.1    c0,0,26.4-9.9,29.5-15.5s13.5-27.1,13.5-27.1l25.1,4.6c0,0,3.7,3.6,21.3-34.5c80.8-7.3,144-74.3,144-155.9    C646,388.8,574.9,318.7,487.3,318.7z M519.1,435.3c-21.3,0-38.6-17.3-38.6-38.6c0-21.3,17.3-38.6,38.6-38.6    c21.3,0,38.6,17.3,38.6,38.6C557.7,418.1,540.4,435.3,519.1,435.3z"
   id="path138" />
		<linearGradient
   id="SVGID_5_"
   gradientUnits="userSpaceOnUse"
   x1="562.5999"
   y1="321.4226"
   x2="217.4324"
   y2="990.6431">
			<stop
   offset="0"
   style="stop-color:#C7D7DC"
   id="stop140" />
			<stop
   offset="0.2521"
   style="stop-color:#BAC7CB"
   id="stop142" />
			<stop
   offset="0.7514"
   style="stop-color:#989D9E"
   id="stop144" />
			<stop
   offset="1"
   style="stop-color:#868685"
   id="stop146" />
		</linearGradient>
		<path
   class="st10"
   d="M487.3,318.7c-87.6-2.2-158.8,70.1-158.8,156.6c0,34.3,11.2,66.1,30.2,91.9c0,0,0,0,0,0    c-12.5,22.3-15.2,33-14.4,35.9c0.8,3,19,12.5,19,12.5l-122.6,268c0,0-7.4,27.3,29.8,36.6c12.4,3.1,23,2.6,31.5,0.5l18.8-14.3    l-2.2-13.3l5.2-10.3l13.3-4.5l-9.7-41.7l22-14.8l-4-23.7l5.8-11.5l17.5-9.5l-4.2-21.2l7.2-14.8l29.4-10.3l-4.1-15.3l6.9-11.9    c0,0,27.8-8.4,33.7-20.1s12-25.2,12-25.2s17.3,8.3,21.5,8.8s9.1-6.7,27.1-40.7c80.8-7.3,140.4-73.1,140.4-151    C638.8,388.4,572.6,320.9,487.3,318.7z M519.1,435.3c-21.3,0-38.6-17.3-38.6-38.6c0-21.3,17.3-38.6,38.6-38.6    c21.3,0,38.6,17.3,38.6,38.6C557.7,418.1,540.4,435.3,519.1,435.3z"
   id="path149" />
		<polygon
   class="st2"
   points="397.1,715.5 404.3,714.9 404.3,731 401.3,730.8   "
   id="polygon151" />
		<polygon
   class="st2"
   points="364.7,755.8 372,755.3 378,776.5 356.3,789.3 351.3,786.5 368.8,777   "
   id="polygon153" />
		<polygon
   class="st2"
   points="345.5,798 352,798.1 355.9,823.9 349.5,821.7   "
   id="polygon155" />
		<polygon
   class="st2"
   points="327.5,836.5 333.8,835.3 342,879.8 328.1,884.4 323.8,882.7 337.2,878.2   "
   id="polygon157" />
		<polygon
   class="st2"
   points="318.7,893 324.8,894.1 328.3,906.2 320.8,906.3   "
   id="polygon159" />
		<polygon
   class="st3"
   points="318.2,908.3 316.7,893 318.7,893 320.8,906.3   "
   id="polygon161" />
		<polygon
   class="st3"
   points="335.3,878.8 325.2,837.1 327.5,836.5 337.2,878.2   "
   id="polygon163" />
		<path
   class="st3"
   d="M347.4,823.1c-0.1-0.9-4.4-24.4-4.4-24.4l2.4-0.7l4,23.7L347.4,823.1z"
   id="path165" />
		<polygon
   class="st3"
   points="366.7,778.2 362.4,756.6 364.7,755.8 368.8,777   "
   id="polygon167" />
		<polygon
   class="st3"
   points="398.7,731.6 394.8,716.1 397.1,715.5 401.3,730.8   "
   id="polygon169" />
		<path
   class="st3"
   d="M363.4,615.6l-122.6,268c0,0,1.8-0.7,3-2.8s121-264.7,121-264.7L363.4,615.6z"
   id="path171" />
		<path
   class="st3"
   d="M350.7,608.4c-3.3-2.1-6.1-4.1-6.4-5.3c-0.5-1.7,0.2-5.8,3.1-13.2C347.5,590,343.1,603.9,350.7,608.4z"
   id="path173" />
		<path
   class="st4"
   d="M245.7,905.8c4.1,5.4,11.2,10.6,23,13.9c0,0,141.6-303,137-314.4c0,0-32.3,21-46,51.7    C346,687.7,245.7,905.8,245.7,905.8z"
   id="path175" />
		<path
   class="st11"
   d="M364.7,709.1c-40.4,91.6-96,210.6-96,210.6c-1.5-0.4-2.9-0.9-4.2-1.3L364.7,709.1z"
   id="path177" />
		<path
   class="st0"
   d="M404.4,612.3c1.1-3.8,1.6-6.2,1.2-7c0,0-32.3,21-46,51.7c-13.7,30.7-114,248.8-114,248.8c1,1.4,2.2,2.7,3.7,4    c0,0,112.9-246.3,117.7-254.5s21.7-29.4,28.5-35.6C402.3,613.5,404.4,612.3,404.4,612.3z"
   id="path179" />
		<g
   id="g183">
			<path
   class="st6"
   d="M589,381.3c12.6,13,22.4,28.8,28.9,45.9c3.2,8.6,5.5,17.5,7,26.5c1.5,9.1,1.9,18.3,1.6,27.5     c-0.7,18.4-5.3,36.6-13.1,53.3c-7.9,16.7-19.2,31.7-32.9,44.1c-13.8,12.3-30,21.9-47.4,27.9c-17.5,6-36.1,8.6-54.4,7.3     c-9.2-0.6-18.3-2.1-27.1-4.5c-8.8-2.4-17.4-5.7-25.6-9.8c-16.3-8.2-30.9-19.8-42.5-33.7c12.6,13,27.4,23.7,43.7,31     c16.3,7.4,33.9,11.6,51.7,12.3c8.9,0.3,17.8-0.1,26.6-1.5c8.8-1.3,17.4-3.5,25.7-6.5c16.7-5.9,32.1-15.2,45.3-27     c13.2-11.8,24.1-26.2,31.8-42.1c7.8-15.9,12.3-33.4,13.6-51.1c1.2-17.7-1.1-35.7-6.7-52.7C609.6,411.1,600.6,395.2,589,381.3z"
   id="path181" />
		</g>
		<g
   id="g187">
			<path
   class="st7"
   d="M383.4,565.8c-12.6-13-22.4-28.8-28.9-45.9c-3.2-8.6-5.5-17.5-7-26.5c-1.5-9.1-1.9-18.3-1.6-27.5     c0.7-18.4,5.3-36.6,13.1-53.3c7.9-16.7,19.2-31.7,32.9-44.1c13.8-12.3,30-21.9,47.4-27.9c17.5-6,36.1-8.6,54.4-7.3     c9.2,0.6,18.3,2.1,27.1,4.5c8.8,2.4,17.4,5.7,25.6,9.8c16.3,8.2,30.9,19.8,42.5,33.7c-12.6-13-27.4-23.7-43.7-31     c-16.3-7.4-33.9-11.6-51.7-12.3c-8.9-0.3-17.8,0.1-26.6,1.5c-8.8,1.3-17.4,3.5-25.7,6.5c-16.7,5.9-32.1,15.2-45.3,27     c-13.2,11.8-24.1,26.2-31.8,42.1c-7.8,15.9-12.3,33.4-13.6,51.1c-1.2,17.7,1.1,35.7,6.7,52.7     C362.8,535.9,371.8,551.9,383.4,565.8z"
   id="path185" />
		</g>
		<path
   class="st7"
   d="M490.4,370.9c14.2-15.8,38.6-17.1,54.5-2.9c0.6,0.5,1.2,1.1,1.7,1.6c-7.7-10.8-20.5-17.6-34.6-16.8    c-22,1.2-38.8,20-37.7,42.2c0.9,16.7,11.7,30.4,26.4,35.7c-2.6-1.4-5.2-3.2-7.5-5.3C477.5,411.2,476.2,386.8,490.4,370.9z"
   id="path189" />
		<path
   class="st6"
   d="M523,435.1c45.2-19.9,30.1-56.6,30.1-56.6c2.2,4.9,4.6,12.5,4.6,18.2C557.7,416.7,542.5,433.2,523,435.1"
   id="path191" />
	</g>
	<path
   class="st12"
   d="M657,301.9c-11.7-4.9-24.1-8.5-37-10.3c0,0,6.7-14.4,7.8-25.5c1.1-11.1-5.5-85.8-18.3-110.6   S574,87.2,524.5,83s-88.2,58.5-95.3,82.2c-7.2,23.7-13.7,56.5-12,76.2c0.5,5.5-0.5,8-11.5,9.3c0,3.5,0,11.5,0,11.5   s26.2,43.2,29.5,52.5c3.3,9.3,21,48,54.8,69.8s64-3.2,64-3.2c1.6,6,4.1,20.7-5.9,34.8c0,0-34.7,1.1-48.8-5.2   c-5.7-1.8-16.5,0.5-25.3-2.3s-45.5-15-83.3-90.8c0,0,12.5-5.8,11.7-7.2c-0.8-1.3-7.7-16-13.2-22.5s-19.8-20.7-15.5-50.3   c4.3-29.7,2.7-43.3,9-63.7c6.3-20.3,24.5-98.3,110-117.5c19.3-5.2,30.7-9.5,47-6.7c16.3,2.8,65.8,8.3,101.3,74.8   c25,48.7,28.2,83.7,28.7,97c0.5,13.3,1.2,47.3-4.5,61.2C659.5,296.7,657,301.9,657,301.9z"
   id="path195" />
	<path
   class="st13"
   d="M408.8,331c26.1,56.4,77.6,77.3,77.6,77.3c-58-11.9-82.4-77.7-85.9-83.4s-4.4,3.2-4.4,3.2   c-1.8-3.3-3.6-6.8-5.4-10.5c0,0,5-2.3,8.4-4.4L408.8,331z"
   id="path197" />
	<g
   id="g212">
		<linearGradient
   id="SVGID_6_"
   gradientUnits="userSpaceOnUse"
   x1="672.197"
   y1="153.6228"
   x2="582.0708"
   y2="183.2165">
			<stop
   offset="1.464978e-02"
   style="stop-color:#AFB5B8"
   id="stop199" />
			<stop
   offset="0.5733"
   style="stop-color:#A3ABAF"
   id="stop201" />
			<stop
   offset="1"
   style="stop-color:#97A1A5"
   id="stop203" />
		</linearGradient>
		<path
   class="st14"
   d="M630.5,264.9c5.5-22.5-5.8-42.4-5.8-42.4c-3-24.9-8.2-53.4-15.2-67c0,0-11-53.2-68.2-70.3    c0,0-12.3-5.5-22.8-6.3c0,0,36-12.8,73,15.8s48.3,108.8,48.8,119.9s4.4,42.9-8.9,73.9l-2.6,4.7c-2-0.4-4.1-0.8-6.1-1.1    C622.6,292,625,287.4,630.5,264.9z"
   id="path206" />
		<path
   class="st15"
   d="M624.3,189.3c10.1,11.1,9.9,31.9,9.8,35.5c-0.1,3.6-0.8,14.8-3.9,6s-5.5-8.2-5.5-8.2s-3.5-25.5-6-37.3    C618.7,185.2,619.3,179.7,624.3,189.3z"
   id="path208" />
		<path
   class="st15"
   d="M573.2,93.8c0,0,27.9,27.8,37.5,53c0,0,7.4,10.2,15.3,16.3c0,0-6.5-23.3-14-34    C604.5,118.5,588.7,97.7,573.2,93.8z"
   id="path210" />
	</g>
	<g
   id="g240">
		<g
   id="g229">
			<linearGradient
   id="SVGID_7_"
   gradientUnits="userSpaceOnUse"
   x1="406.9764"
   y1="104.929"
   x2="556.4764"
   y2="417.929">
				<stop
   offset="0"
   style="stop-color:#C0CDCE"
   id="stop214" />
				<stop
   offset="0.2381"
   style="stop-color:#B1BCBD"
   id="stop216" />
				<stop
   offset="0.7097"
   style="stop-color:#888F90"
   id="stop218" />
				<stop
   offset="1"
   style="stop-color:#6D7171"
   id="stop220" />
			</linearGradient>
			<path
   class="st16"
   d="M549.3,414.4c-0.4,0.6-0.7,1.1-1.1,1.7c0,0-34.7,1.1-48.8-5.2c0,0-43.7-13.8-62.5-42.8     c-18.8-29-27.2-32.7-28-40.5c-0.8-7.8,0.5-12.3-6-23.5c-1.6-2.8-8.2-9.5-13.7-16s-19.8-20.7-15.5-50.3c4.3-29.7,2.7-43.3,9-63.7     c6.3-20.3,24.5-98.3,110-117.5c0,0-32.3,14.2-47.2,29s-36.5,46-40.5,55.7c-4,9.7-10.5,21.8-13.2,38.2c-2.7,16.3-6,37.5-5.7,50.5     c0.3,13,0.5,8.8,1.3,12.5c0.8,3.7-1.2,7.2,5,8.5c3.3,3,7,8.5,9.2,11.8c2.2,3.3,25.8,40.8,29.3,48.7c3.5,7.8,15.3,28.7,19.3,34.7     s26.2,33.8,38.3,40.3c12.1,6.4,29.5,13.3,45.6,7.6c16.1-5.8,20.5-9.9,20.5-9.9C556,390.6,556.8,402.6,549.3,414.4"
   id="path223" />
			<path
   class="st17"
   d="M407.9,316.5c0,3.4-1.9-7.2-5-12.5c-1.6-2.8-8.2-9.5-13.7-16c-4.5-5.3-14.7-15.6-16.1-35.2     c0,0,4.6-8,8.6-4.9c4.1,3.1,2.1,13.2,4.6,20.5s3.8,12.3,9.5,19.1S408,299.5,407.9,316.5z"
   id="path225" />
			<path
   class="st18"
   d="M550.1,413.1 M555.3,388.6c0.6,6.6,0,15.5-5.3,24.5c0,0-1.3,2-3.7,2c-2.4,0-31-1.8-44.7-5.7     c-13.7-3.9-39.8-18.6-50.3-29.9s-33.8-43.5-35.1-49.2c-1.3-5.7,2.4-12.6,6.7-8.6s15.5,21.1,24.6,31s20.4,23.1,33,30.8     c12.6,7.8,28.3,17,42.6,13.9c14.3-3.1,26.8-10.3,30.2-12C553.3,385.5,554.8,386.4,555.3,388.6z"
   id="path227" />
		</g>
		<linearGradient
   id="SVGID_8_"
   gradientUnits="userSpaceOnUse"
   x1="526.6799"
   y1="401.4962"
   x2="531.4299"
   y2="420.7462">
			<stop
   offset="0"
   style="stop-color:#989B9B"
   id="stop231" />
			<stop
   offset="0.4599"
   style="stop-color:#878A8A"
   id="stop233" />
			<stop
   offset="1"
   style="stop-color:#6D7171"
   id="stop235" />
		</linearGradient>
		<path
   class="st19"
   d="M550.1,413.1 M555.5,390.6c0.3,6.3-0.7,14.4-5.4,22.5c0,0-1.3,2-3.7,2c-2.4,0-31-1.8-44.7-5.7    c-1.5-0.4-3.2-1-4.9-1.7c0,0,18.8,2.6,30.3,0.2c11.5-2.4,15.8-3.3,19.4-7.7C550.1,395.9,555.5,390.6,555.5,390.6z"
   id="path238" />
	</g>
	<g
   id="g257">
		<linearGradient
   id="SVGID_9_"
   gradientUnits="userSpaceOnUse"
   x1="388.3014"
   y1="174.454"
   x2="667.7509"
   y2="174.454">
			<stop
   offset="0"
   style="stop-color:#C9CFD0"
   id="stop242" />
			<stop
   offset="0.5907"
   style="stop-color:#B8BFC1"
   id="stop244" />
			<stop
   offset="1"
   style="stop-color:#A9B2B4"
   id="stop246" />
		</linearGradient>
		<path
   class="st20"
   d="M506.7,84.3c-40.8,9.4-71.3,60.1-77.6,80.9c-7.2,23.7-13.7,56.5-12,76.2c0.5,5.5-0.5,8-11.5,9.3    c0,0-17,1.8-17.2-2c-0.1-3.9-0.4-20.1,0-27.8c0.4-7.6,7-70.1,29-96.4S457.9,65.3,532.3,49c2.4,0.1,4.8,0.4,7.4,0.8    c16.3,2.8,65.8,8.3,101.3,74.8c7.9,15.4,13.6,29.4,17.8,41.8c0,0,13,55.6,7.7,77c-1.9,21.5-5.9,34.8-9.1,43.4s-5.3,13-5.3,13    c-6.7-2.6-13.6-4.6-20.7-6.2c0,0,22.1-48.4,5.4-103.4s-30.3-77.5-52.3-93.8S527.2,79.1,522,80.3S506.7,84.3,506.7,84.3z"
   id="path249" />
		<path
   class="st21"
   d="M417.2,244.7c-0.5,3.2-3.1,4.9-11.5,5.9c0,0-17,1.8-17.2-2C388.5,248.6,400.4,236.4,417.2,244.7z"
   id="path251" />
		<path
   class="st22"
   d="M391.4,209.9c-0.7,8.3,6,41.2,6,41.2c-4.4,0-8.9-0.5-8.9-2.5c-0.1-3.9-0.4-20.1,0-27.8    c0.2-3.1,1.3-15,4.1-29.8C392.6,191.1,392.1,201.6,391.4,209.9z"
   id="path253" />
		<path
   class="st15"
   d="M 615.2,133.6 C 606.3,116.4 596.7,105.5 584.5,96.5 562.5,80.2 527.2,79.1 522,80.2 c -5.2,1.1 -15.3,4.1 -15.3,4.1 -17.7,4.1 -33.5,15.9 -46.1,29.7 0,0 -16.3,13.5 -20.1,15.6 0,0 6,-17.3 20.5,-30.5 14.5,-13.2 42,-41.8 87.3,-33.8 45.3,8 83.5,51.8 89.8,63.2 6.3,11.3 18.09781,44.7714 14.39781,66.6714 0,0 -18.09781,-41.6714 -19.19781,-42.2714 l -1.5,8.5 c 0,0 -8.5,-23.8 -13.8,-27 -2.2,-1.1 -2.8,-0.8 -2.8,-0.8 z"
   id="path255"
   inkscape:connector-curvature="0"
   style="fill:#ccd1d3"
   sodipodi:nodetypes="ccscccsscccccc" />
	</g>
</g>
</svg>