<svg height="128" width="128" xmlns="http://www.w3.org/2000/svg" xmlns:xlink="http://www.w3.org/1999/xlink"><linearGradient id="a" gradientUnits="userSpaceOnUse" x1="64.82804851385" x2="64.82804851385" y1="927.26634117623" y2="1049.84959293671"><stop offset="0" stop-color="#fff"/><stop offset="1" stop-color="#d7d7d7"/></linearGradient><linearGradient id="b" gradientUnits="userSpaceOnUse" x1="69.1972452" x2="69.1972452" y1="934.99487158935" y2="1050.60303683657"><stop offset="0" stop-color="#08a299"/><stop offset="1" stop-color="#024343"/></linearGradient><radialGradient id="c" cx="511.5" cy="540.86218" gradientTransform="matrix(.06706465 -.00614329 .00713416 .0778818 25.194461 950.02454)" gradientUnits="userSpaceOnUse" r="470.5"><stop offset="0" stop-color="#23bfb4"/><stop offset="1" stop-color="#23bfb4" stop-opacity="0"/></radialGradient><filter id="d" color-interpolation-filters="sRGB" height="1.066783" width="1.062931" x="-.031466" y="-.033392"><feGaussianBlur stdDeviation=".73305274"/></filter><filter id="e" color-interpolation-filters="sRGB" height="1.2928" width="1.2928" x="-.1464" y="-.1464"><feGaussianBlur stdDeviation="6.9125251"/></filter><g transform="translate(0 -924.36218)"><circle cx="63.416836" cy="988.94537" fill="url(#a)" r="61.416836"/><circle cx="63.356625" cy="989.00555" fill="url(#b)" r="56.660042"/><circle cx="63.356625" cy="989.00555" fill="url(#c)" filter="url(#e)" r="56.660042"/><g transform="matrix(1.3886875 0 0 1.3886875 -97.694566 -350.78746)"><g filter="url(#d)" opacity=".583"><path d="m115.1428 966.20062c.45573-6.25.83765-18.75 1.36719-18.75.57923 0 .91146 12.23958 1.36719 18.35938 2.99479 3.28775 9.33802 9.50962 8.98437 9.86327-.33998.33998-7.8125-6.3151-11.71875-9.47265z"/><path d="m87.007284 962.45466h12.91298l-6.40691 11.0971z"/><path d="m116.79515 938.40374c-14.40817 0-26.156246 11.79916-26.156246 26.3125 0 .42264.0115.86339.0312 1.28125l4.96875-1.28125c.00005-11.80129 9.440516-21.28125 21.156296-21.28125s21.15625 9.47996 21.15625 21.28125-9.44047 21.34375-21.15625 21.34375c-5.89796 0-11.19476-2.43862-15.03125-6.34375 0 0-.67902-.69462-1.09111-1.08783-.754946-.72037-1.361936-.46313-1.878276-.0472-.60421.48338-1.13116.89515-1.71811 1.44757-.48341.39706-.76297 1.05697-.3125 1.59375 4.805206 5.77177 11.997886 9.46875 20.031246 9.46875 14.40817 0 26.125-11.86167 26.125-26.375 0-14.51334-11.71683-26.3125-26.125-26.3125z"/></g><g fill="#fff"><path d="m115.1428 966.20062c.45573-6.25.83765-18.75 1.36719-18.75.57923 0 .91146 12.23958 1.36719 18.35938 2.99479 3.28775 9.33802 9.50962 8.98437 9.86327-.33998.33998-7.8125-6.3151-11.71875-9.47265z"/><path d="m87.007284 962.45466h12.91298l-6.40691 11.0971z"/><path d="m116.79515 938.40374c-14.40817 0-26.156246 11.79916-26.156246 26.3125 0 .42264.0115.86339.0312 1.28125l4.96875-1.28125c.00005-11.80129 9.440516-21.28125 21.156296-21.28125s21.15625 9.47996 21.15625 21.28125-9.44047 21.34375-21.15625 21.34375c-5.89796 0-11.19476-2.43862-15.03125-6.34375 0 0-.67902-.69462-1.09111-1.08783-.754946-.72037-1.361936-.46313-1.878276-.0472-.60421.48338-1.13116.89515-1.71811 1.44757-.48341.39706-.76297 1.05697-.3125 1.59375 4.805206 5.77177 11.997886 9.46875 20.031246 9.46875 14.40817 0 26.125-11.86167 26.125-26.375 0-14.51334-11.71683-26.3125-26.125-26.3125z"/></g></g></g></svg>