<svg height="128" viewBox="0 0 128 128" width="128" xmlns="http://www.w3.org/2000/svg" xmlns:xlink="http://www.w3.org/1999/xlink"><linearGradient id="a" gradientUnits="userSpaceOnUse" x1="65.74801314374" x2="63.89039439825" y1="22.24717790909" y2="117.19711481587"><stop offset="0" stop-color="#0cbbff"/><stop offset="1" stop-color="#2452e6"/></linearGradient><circle cx="64.614243" cy="64.171577" fill="url(#a)" r="59.876759" stroke="#fff" stroke-width="5.611559"/><path d="m81.897398 122.30618c9.016686-12.39233 12.405879-23.470903 10.756899-33.833524-2.224663-13.980367-12.171908-22.637697-20.044922-30.076172-7.873014-7.438474-13.930292-13.771987-15.433594-20.222656-1.503301-6.450669-.080892-15.796389 13.763672-32.6972655l-25.995331 2.3344061c-7.520021 13.0618924-9.638102 24.6410834-7.246856 34.9019224 3.26995 14.031357 13.343465 22.818835 21.177734 30.220703s13.171616 13.304019 14.027344 18.68164c.855728 5.377622-1.32226 14.250036-16.867188 30.230466 8.41097 3.65728 17.059119 3.35309 25.862242.46048z" fill="#fff"/></svg>