<?xml version="1.0" encoding="UTF-8" standalone="no"?>
<!-- Created with Inkscape (http://www.inkscape.org/) -->

<svg
   xmlns:dc="http://purl.org/dc/elements/1.1/"
   xmlns:cc="http://creativecommons.org/ns#"
   xmlns:rdf="http://www.w3.org/1999/02/22-rdf-syntax-ns#"
   xmlns:svg="http://www.w3.org/2000/svg"
   xmlns="http://www.w3.org/2000/svg"
   xmlns:xlink="http://www.w3.org/1999/xlink"
   xmlns:sodipodi="http://sodipodi.sourceforge.net/DTD/sodipodi-0.dtd"
   xmlns:inkscape="http://www.inkscape.org/namespaces/inkscape"
   version="1.1"
   id="svg2"
   width="136.53333"
   height="136.53333"
   viewBox="0 0 136.53333 136.53333"
   sodipodi:docname="skype.svg"
   inkscape:version="0.92.2 2405546, 2018-03-11">
  <metadata
     id="metadata8">
    <rdf:RDF>
      <cc:Work
         rdf:about="">
        <dc:format>image/svg+xml</dc:format>
        <dc:type
           rdf:resource="http://purl.org/dc/dcmitype/StillImage" />
        <dc:title></dc:title>
      </cc:Work>
    </rdf:RDF>
  </metadata>
  <defs
     id="defs6">
    <linearGradient
       inkscape:collect="always"
       id="linearGradient4313">
      <stop
         style="stop-color:#0023f0;stop-opacity:1"
         offset="0"
         id="stop4315" />
      <stop
         style="stop-color:#2ba7f2;stop-opacity:1"
         offset="1"
         id="stop4317" />
    </linearGradient>
    <linearGradient
       inkscape:collect="always"
       id="linearGradient4180">
      <stop
         style="stop-color:#f5f5f5;stop-opacity:1;"
         offset="0"
         id="stop4182" />
      <stop
         style="stop-color:#ebeae6;stop-opacity:1"
         offset="1"
         id="stop4184" />
    </linearGradient>
    <linearGradient
       inkscape:collect="always"
       xlink:href="#linearGradient4180"
       id="linearGradient4186"
       x1="30.858253"
       y1="16.587393"
       x2="116.88322"
       y2="116.384"
       gradientUnits="userSpaceOnUse" />
    <linearGradient
       inkscape:collect="always"
       xlink:href="#linearGradient4313"
       id="linearGradient4319"
       x1="70.372757"
       y1="128.2509"
       x2="67.096077"
       y2="16.454636"
       gradientUnits="userSpaceOnUse" />
  </defs>
  <sodipodi:namedview
     pagecolor="#ffffff"
     bordercolor="#666666"
     borderopacity="1"
     objecttolerance="10"
     gridtolerance="10"
     guidetolerance="10"
     inkscape:pageopacity="0"
     inkscape:pageshadow="2"
     inkscape:window-width="1920"
     inkscape:window-height="1031"
     id="namedview4"
     showgrid="false"
     inkscape:zoom="1.6755119"
     inkscape:cx="68.029862"
     inkscape:cy="54.201512"
     inkscape:window-x="0"
     inkscape:window-y="26"
     inkscape:window-maximized="1"
     inkscape:current-layer="svg2"
     showguides="false" />
  <circle
     id="path12"
     cx="68.953224"
     cy="68.365921"
     r="64.021523"
     style="fill:url(#linearGradient4319);fill-opacity:1;stroke:url(#linearGradient4186);stroke-width:6;stroke-miterlimit:4;stroke-dasharray:none;stroke-opacity:1" />
  <path
     style="fill:#000000;stroke-width:1.33333337"
     d=""
     id="path849"
     inkscape:connector-curvature="0" />
  <path
     style="fill:#000000;stroke-width:1.33333337"
     d=""
     id="path847"
     inkscape:connector-curvature="0" />
  <circle
     style="fill:#3e3e3e;fill-opacity:1;stroke-width:1.50101101"
     cx="40.170132"
     cy="67.542549"
     r="0"
     id="circle841" />
  <g
     id="g887">
    <path
       style="fill:none;fill-opacity:1;stroke-width:2;stroke:#000000;stroke-opacity:0.05323194;stroke-miterlimit:4;stroke-dasharray:none"
       d="m 52.062527,30.023143 c -11.550415,0 -20.913928,9.364676 -20.913927,20.91393 0,3.860781 1.050501,7.473203 2.874719,10.577315 -0.478316,2.342798 -0.732436,4.767839 -0.732436,7.252134 0,19.916966 16.147311,36.064658 36.064663,36.064658 2.255891,0 4.461519,-0.20895 6.602227,-0.60519 2.944222,1.58244 6.309527,2.48271 9.886138,2.48271 11.550621,0 20.913939,-9.363521 20.913939,-20.913934 0,-3.336981 -0.78281,-6.48897 -2.17323,-9.287821 0.54528,-2.493397 0.83559,-5.083652 0.83559,-7.740423 0,-19.916384 -16.147314,-36.061223 -36.064664,-36.061223 -2.102767,0 -4.164717,0.180589 -6.168956,0.526115 -3.223161,-2.03018 -7.033509,-3.208271 -11.124063,-3.208271 z m 17.337722,19.70696 c 3.887784,-0.0456 7.808355,1.017097 10.566994,3.136058 1.364865,1.103923 1.673427,2.449128 1.35483,3.572768 0.686103,2.585121 -2.233966,5.102902 -4.76598,3.246094 -3.92717,-2.494288 -12.815119,-3.66144 -13.998778,1.798418 1.445355,6.641514 21.703082,3.11937 21.35408,16.381774 -0.0035,0.137063 -0.0199,0.264523 -0.02747,0.398885 0.02852,0.384496 0.03855,0.783265 0.02747,1.200091 -0.373157,13.540033 -19.987826,13.858709 -27.344222,7.781687 -1.254122,-1.026097 -1.576882,-2.509164 -1.317008,-3.799719 -0.214832,-1.077823 0.02142,-2.198505 0.570817,-3.022581 1.385984,-1.385987 2.929468,-1.863978 4.741912,-0.371375 4.204344,2.871259 14.742492,5.025765 16.254541,-1.547396 -2.063066,-6.643028 -21.865718,-3.046457 -21.099612,-16.701572 -0.05143,-0.737026 -0.04564,-1.52385 0.04814,-2.38299 0.766293,-6.463497 7.154648,-9.614137 13.634286,-9.690142 z"
       id="path881"
       inkscape:connector-curvature="0" />
    <path
       inkscape:connector-curvature="0"
       id="path883"
       d="m 52.062527,30.023143 c -11.550415,0 -20.913928,9.364676 -20.913927,20.91393 0,3.860781 1.050501,7.473203 2.874719,10.577315 -0.478316,2.342798 -0.732436,4.767839 -0.732436,7.252134 0,19.916966 16.147311,36.064658 36.064663,36.064658 2.255891,0 4.461519,-0.20895 6.602227,-0.60519 2.944222,1.58244 6.309527,2.48271 9.886138,2.48271 11.550621,0 20.913939,-9.363521 20.913939,-20.913934 0,-3.336981 -0.78281,-6.48897 -2.17323,-9.287821 0.54528,-2.493397 0.83559,-5.083652 0.83559,-7.740423 0,-19.916384 -16.147314,-36.061223 -36.064664,-36.061223 -2.102767,0 -4.164717,0.180589 -6.168956,0.526115 -3.223161,-2.03018 -7.033509,-3.208271 -11.124063,-3.208271 z m 17.337722,19.70696 c 3.887784,-0.0456 7.808355,1.017097 10.566994,3.136058 1.364865,1.103923 1.673427,2.449128 1.35483,3.572768 0.686103,2.585121 -2.233966,5.102902 -4.76598,3.246094 -3.92717,-2.494288 -12.815119,-3.66144 -13.998778,1.798418 1.445355,6.641514 21.703082,3.11937 21.35408,16.381774 -0.0035,0.137063 -0.0199,0.264523 -0.02747,0.398885 0.02852,0.384496 0.03855,0.783265 0.02747,1.200091 -0.373157,13.540033 -19.987826,13.858709 -27.344222,7.781687 -1.254122,-1.026097 -1.576882,-2.509164 -1.317008,-3.799719 -0.214832,-1.077823 0.02142,-2.198505 0.570817,-3.022581 1.385984,-1.385987 2.929468,-1.863978 4.741912,-0.371375 4.204344,2.871259 14.742492,5.025765 16.254541,-1.547396 -2.063066,-6.643028 -21.865718,-3.046457 -21.099612,-16.701572 -0.05143,-0.737026 -0.04564,-1.52385 0.04814,-2.38299 0.766293,-6.463497 7.154648,-9.614137 13.634286,-9.690142 z"
       style="fill:none;fill-opacity:1;stroke-width:4;stroke:#000000;stroke-opacity:0.05323194;stroke-miterlimit:4;stroke-dasharray:none" />
  </g>
  <path
     style="fill:#ffffff;fill-opacity:1;stroke-width:0.19357155"
     d="m 52.062527,30.023143 c -11.550415,0 -20.913928,9.364676 -20.913927,20.91393 0,3.860781 1.050501,7.473203 2.874719,10.577315 -0.478316,2.342798 -0.732436,4.767839 -0.732436,7.252134 0,19.916966 16.147311,36.064658 36.064663,36.064658 2.255891,0 4.461519,-0.20895 6.602227,-0.60519 2.944222,1.58244 6.309527,2.48271 9.886138,2.48271 11.550621,0 20.913939,-9.363521 20.913939,-20.913934 0,-3.336981 -0.78281,-6.48897 -2.17323,-9.287821 0.54528,-2.493397 0.83559,-5.083652 0.83559,-7.740423 0,-19.916384 -16.147314,-36.061223 -36.064664,-36.061223 -2.102767,0 -4.164717,0.180589 -6.168956,0.526115 -3.223161,-2.03018 -7.033509,-3.208271 -11.124063,-3.208271 z m 17.337722,19.70696 c 3.887784,-0.0456 7.808355,1.017097 10.566994,3.136058 1.364865,1.103923 1.673427,2.449128 1.35483,3.572768 0.686103,2.585121 -2.233966,5.102902 -4.76598,3.246094 -3.92717,-2.494288 -12.815119,-3.66144 -13.998778,1.798418 1.445355,6.641514 21.703082,3.11937 21.35408,16.381774 -0.0035,0.137063 -0.0199,0.264523 -0.02747,0.398885 0.02852,0.384496 0.03855,0.783265 0.02747,1.200091 -0.373157,13.540033 -19.987826,13.858709 -27.344222,7.781687 -1.254122,-1.026097 -1.576882,-2.509164 -1.317008,-3.799719 -0.214832,-1.077823 0.02142,-2.198505 0.570817,-3.022581 1.385984,-1.385987 2.929468,-1.863978 4.741912,-0.371375 4.204344,2.871259 14.742492,5.025765 16.254541,-1.547396 -2.063066,-6.643028 -21.865718,-3.046457 -21.099612,-16.701572 -0.05143,-0.737026 -0.04564,-1.52385 0.04814,-2.38299 0.766293,-6.463497 7.154648,-9.614137 13.634286,-9.690142 z"
     id="path845"
     inkscape:connector-curvature="0" />
</svg>
