<svg height="128" viewBox="0 0 128 128" width="128" xmlns="http://www.w3.org/2000/svg" xmlns:xlink="http://www.w3.org/1999/xlink"><linearGradient id="a"><stop offset="0" stop-color="#ababab"/><stop offset="1" stop-color="#d1d1d1"/></linearGradient><linearGradient id="b" gradientUnits="userSpaceOnUse" x1="720.31623" x2="732.45166" y1="-63.05531" y2="10.72999"><stop offset="0" stop-color="#ffde5c"/><stop offset=".22204643" stop-color="#fed844"/><stop offset=".87439871" stop-color="#fdca00"/><stop offset="1" stop-color="#deb101"/></linearGradient><linearGradient id="c" gradientUnits="userSpaceOnUse" x1="76.610173" x2="77.288143" xlink:href="#a" y1="149.796599" y2="153.457609"/><linearGradient id="d" gradientUnits="userSpaceOnUse" x1="87.389834" x2="88.067804" xlink:href="#a" y1="147.96609" y2="151.6271"/><linearGradient id="e" gradientUnits="userSpaceOnUse" x1="97.966106" x2="98.644076" xlink:href="#a" y1="146.338971" y2="149.999981"/><linearGradient id="f" gradientUnits="userSpaceOnUse" x1="108.949157" x2="109.627127" xlink:href="#a" y1="144.644056" y2="148.305066"/><linearGradient id="g" gradientUnits="userSpaceOnUse" x1="119.661021" x2="120.338991" xlink:href="#a" y1="142.881344" y2="146.542354"/><linearGradient id="h" gradientUnits="userSpaceOnUse" x1="130.508479" x2="131.186449" xlink:href="#a" y1="141.186429" y2="144.847439"/><linearGradient id="i" gradientUnits="userSpaceOnUse" x1="141.016954" x2="141.694924" xlink:href="#a" y1="139.288124" y2="142.949134"/><linearGradient id="j" gradientUnits="userSpaceOnUse" x1="152.000005" x2="152.677975" xlink:href="#a" y1="137.661005" y2="141.322015"/><linearGradient id="k" gradientUnits="userSpaceOnUse" x1="162.915259" x2="163.593229" xlink:href="#a" y1="136.16948" y2="139.83049"/><linearGradient id="l" gradientUnits="userSpaceOnUse" x1="173.559327" x2="174.237297" xlink:href="#a" y1="134.271175" y2="137.932185"/><linearGradient id="m" gradientUnits="userSpaceOnUse" x1="184.203395" x2="184.881365" xlink:href="#a" y1="132.508463" y2="136.169473"/><linearGradient id="n" gradientUnits="userSpaceOnUse" x1="194.847463" x2="195.525433" xlink:href="#a" y1="130.881344" y2="134.542354"/><linearGradient id="o" gradientUnits="userSpaceOnUse" x1="205.830513" x2="206.508483" xlink:href="#a" y1="129.389818" y2="133.050828"/><linearGradient id="p" gradientUnits="userSpaceOnUse" x1="216.474583" x2="217.152553" xlink:href="#a" y1="127.55931" y2="131.22032"/><linearGradient id="q" gradientUnits="userSpaceOnUse" x1="227.186443" x2="227.864413" xlink:href="#a" y1="125.728801" y2="129.389811"/><linearGradient id="r" gradientUnits="userSpaceOnUse" x1="237.762713" x2="238.440683" xlink:href="#a" y1="124.101682" y2="127.762692"/><linearGradient id="s" gradientTransform="matrix(.98759964 -.15699348 .15699348 .98759964 104.6518 -82.024386)" gradientUnits="userSpaceOnUse" x1="593.17468" x2="592.45404" y1="194.99966" y2="532.46002"><stop offset="0" stop-color="#f8f8f8"/><stop offset="1" stop-color="#f8f8f8"/></linearGradient><linearGradient id="t" gradientUnits="userSpaceOnUse" x1="967.87139" x2="633.87067" y1="326.07998" y2="386.28573"><stop offset="0" stop-color="#ccd1d0"/><stop offset="1" stop-color="#9ea4a6"/></linearGradient><linearGradient id="u" gradientTransform="matrix(.98759964 -.15699348 .15699348 .98759964 104.6518 -82.024386)" gradientUnits="userSpaceOnUse" x1="606.15277" x2="609.22638" y1="511.41766" y2="552.08917"><stop offset="0" stop-color="#f8c600"/><stop offset="1" stop-color="#896e00" stop-opacity=".839378"/></linearGradient><filter id="v" color-interpolation-filters="sRGB" height="1.026618" width="1.031372" x="-.015686" y="-.013309"><feGaussianBlur stdDeviation="2.6367841"/></filter><g transform="matrix(.25898798 0 0 .25898798 -136.17064 25.193699)"><path d="m567.30931-33.282441 335.2486-53.292693c.62868-.09994 1.21525.325732 1.31519.954408l65.16187 409.914066c.0999.62868 1.17428 11.21526.54558 11.3152l-335.24859 53.29269c-.62867.0999-2.71526-10.32573-2.81519-10.95441l-65.16187-409.914066c-.0999-.628676.32573-1.215257.95441-1.315195z" fill="#73683c" filter="url(#v)"/><path d="m567.30931-33.282441 335.2486-53.292693c.62868-.09994 1.21525.325732 1.31519.954408l65.16187 409.914066c.0999.62868 1.17428 11.21526.54558 11.3152l-335.24859 53.29269c-.62867.0999-2.71526-10.32573-2.81519-10.95441l-65.16187-409.914066c-.0999-.628676.32573-1.215257.95441-1.315195z" fill="url(#u)"/><path d="m567.53029-33.171954 334.95613-53.246201c.62868-.09994 1.21526.325732 1.3152.954408l65.12287 409.668737c.0999.62867-.32463 1.22248-.95441 1.31519-109.32712 16.09429-220.82887 36.48825-334.95613 53.2462-.6299.092-1.21526-.32573-1.3152-.9544l-65.12286-409.668739c-.0999-.628677.32572-1.215256.9544-1.315195z" fill="url(#s)"/><g fill="none" stroke="#9b9b9b" stroke-width="1.2"><path d="m581.12638 72.55188 335.72881-53.15254"/><path d="m586.00774 102.65357 335.72881-53.15254"/><path d="m590.88909 132.48408 335.72882-53.15254"/><path d="m596.04163 162.31459 335.72882-53.15254"/><path d="m600.92299 192.1451c111.93956-17.67259 224.70385-34.10807 335.72882-53.15254"/><path d="m605.80434 222.24679c111.96431-17.66282 224.67105-34.5832 335.72883-53.15254"/><path d="m610.6857 252.61967c111.97338-17.65375 224.66212-34.59213 335.72883-53.15254"/><path d="m615.6714 282.72564c112.12978-17.38726 225.43423-33.01251 335.72883-53.15254"/><path d="m620.6571 313.02337c112.11211-17.11003 224.57051-33.18117 335.72883-53.15254"/><path d="m625.83456 343.12934c112.01612-16.86541 224.19168-32.45534 335.72883-53.15254"/></g><path d="m902.207-86.598547-334.95508 53.246088c-.62868.0999-1.05502.68578-.95508 1.31446l10.88476 68.472663 337.24415-53.496103-10.90235-68.58203c-.0999-.62868-.68772-1.055016-1.3164-.955078z" fill="url(#b)"/><g transform="translate(508.17722 -105.50934)"><circle cx="76.847466" cy="152.16948" fill="url(#c)" r="3.152542"/><circle cx="87.627129" cy="150.33897" fill="url(#d)" r="3.152542"/><circle cx="98.2034" cy="148.71185" fill="url(#e)" r="3.152542"/><circle cx="109.18645" cy="147.01694" fill="url(#f)" r="3.152542"/><circle cx="119.89831" cy="145.25423" fill="url(#g)" r="3.152542"/><circle cx="130.74576" cy="143.55931" fill="url(#h)" r="3.152542"/><circle cx="141.25423" cy="141.66101" fill="url(#i)" r="3.152542"/><circle cx="152.23727" cy="140.03389" fill="url(#j)" r="3.152542"/><circle cx="163.15253" cy="138.54236" fill="url(#k)" r="3.152542"/><circle cx="173.7966" cy="136.64406" fill="url(#l)" r="3.152542"/><circle cx="184.44067" cy="134.88135" fill="url(#m)" r="3.152542"/><circle cx="195.08475" cy="133.25423" fill="url(#n)" r="3.152542"/><circle cx="206.06779" cy="131.76271" fill="url(#o)" r="3.152542"/><circle cx="216.71187" cy="129.93219" fill="url(#p)" r="3.152542"/><circle cx="227.42372" cy="128.1017" fill="url(#q)" r="3.152542"/><circle cx="238" cy="126.47458" fill="url(#r)" r="3.152542"/></g><g transform="translate(680.56746 -133.12246)"><circle cx="76.847466" cy="152.16948" fill="url(#c)" r="3.152542"/><circle cx="87.627129" cy="150.33897" fill="url(#d)" r="3.152542"/><circle cx="98.2034" cy="148.71185" fill="url(#e)" r="3.152542"/><circle cx="109.18645" cy="147.01694" fill="url(#f)" r="3.152542"/><circle cx="119.89831" cy="145.25423" fill="url(#g)" r="3.152542"/><circle cx="130.74576" cy="143.55931" fill="url(#h)" r="3.152542"/><circle cx="141.25423" cy="141.66101" fill="url(#i)" r="3.152542"/><circle cx="152.23727" cy="140.03389" fill="url(#j)" r="3.152542"/><circle cx="163.15253" cy="138.54236" fill="url(#k)" r="3.152542"/><circle cx="173.7966" cy="136.64406" fill="url(#l)" r="3.152542"/><circle cx="184.44067" cy="134.88135" fill="url(#m)" r="3.152542"/><circle cx="195.08475" cy="133.25423" fill="url(#n)" r="3.152542"/><circle cx="206.06779" cy="131.76271" fill="url(#o)" r="3.152542"/><circle cx="216.71187" cy="129.93219" fill="url(#p)" r="3.152542"/><circle cx="227.42372" cy="128.1017" fill="url(#q)" r="3.152542"/></g><path d="m577.1816 36.434664 337.24415-53.496103" fill="none" stroke="#b19622" stroke-width="2"/><path d="m631.3958 377.80047 2.47487 8.48529 335.22927-54.25973-.35355-7.07106z" fill="url(#t)"/></g></svg>