<svg height="170.66667" viewBox="0 0 170.66667 170.66667" width="170.66667" xmlns="http://www.w3.org/2000/svg" xmlns:xlink="http://www.w3.org/1999/xlink"><linearGradient id="a" gradientUnits="userSpaceOnUse" x1="295.05084" x2="430.2825" y1="-2.531072" y2="66.892654"><stop offset="0" stop-color="#fefefe"/><stop offset="1" stop-color="#edf0f4"/></linearGradient><linearGradient id="b" gradientUnits="userSpaceOnUse" x1="322.07378" x2="396.89324" y1="45.190371" y2="45.190371"><stop offset="0" stop-color="#fc7333"/><stop offset=".5" stop-color="#d54161"/><stop offset=".80304003" stop-color="#a65495"/><stop offset="1" stop-color="#6c69d2"/></linearGradient><linearGradient id="c" gradientTransform="matrix(-.5 -.8660254 .8660254 -.5 368.205535 275.672695)" gradientUnits="userSpaceOnUse" x1="163.20628" x2="238.02574" y1="55.287792" y2="55.287792"><stop offset="0" stop-color="#55d4a2"/><stop offset=".5" stop-color="#86d149"/><stop offset=".80304003" stop-color="#e9d730"/><stop offset="1" stop-color="#fc822f"/></linearGradient><linearGradient id="d" gradientTransform="matrix(-.5 .8660254 -.8660254 -.5 511.662385 -48.390235)" gradientUnits="userSpaceOnUse" x1="163.20628" x2="238.02574" y1="55.287792" y2="55.287792"><stop offset="0" stop-color="#5078f4"/><stop offset=".5" stop-color="#54b7fc"/><stop offset=".80304003" stop-color="#5edaf2"/><stop offset="1" stop-color="#52d5ad"/></linearGradient><filter id="e" color-interpolation-filters="sRGB" height="1.047739" width="1.030811" x="-.015405" y="-.023869"><feGaussianBlur stdDeviation=".58093268"/></filter><filter id="f" color-interpolation-filters="sRGB" height="1.031534" width="1.067113" x="-.033556" y="-.015767"><feGaussianBlur stdDeviation=".58093268"/></filter><filter id="g" color-interpolation-filters="sRGB" height="1.036575" width="1.036007" x="-.018004" y="-.018287"><feGaussianBlur stdDeviation=".58093268"/></filter><filter id="h" color-interpolation-filters="sRGB" height="1.149827" width="1.157568" x="-.078784" y="-.074913"><feGaussianBlur stdDeviation="3.7179691"/></filter><filter id="i" color-interpolation-filters="sRGB" height="1.06" width="1.06" x="-.03" y="-.03"><feGaussianBlur stdDeviation="2.1062147"/></filter><g transform="matrix(.90687505 0 0 .90687505 -228.47618 25.393218)"><circle cx="346.03391" cy="66.892654" r="84.248589" style="fill:#333;stroke-width:3;stroke-linecap:round;stroke-linejoin:round;filter:url(#i);stroke:url(#a)"/><circle cx="346.03391" cy="66.892654" fill="url(#a)" r="84.248589" stroke="url(#a)" stroke-linecap="round" stroke-linejoin="round" stroke-width="3"/><path d="m346.66761 7.336408-26.21484 29.583985 36.21875 17.677734-2.47266-11.50586c.45339-.09485.68013-.207336 1.42578-.230468 1.32172-.041 3.0264.06847 4.95899.382812 3.86517.628678 8.64954 2.076496 13.36132 4.705078 9.42356 5.257166 18.59267 15.093008 20.18555 32.980469l1.49121 2.646859 1.49121-2.596079c1.07027-8.750671 1.45911-18.894311-1.61523-28.740234-3.07436-9.845923-9.67841-19.34998-22.24805-26.589844-6.55661-3.776469-14.68605-6.48745-24.54687-7.664062z" fill="#fff" filter="url(#g)" opacity=".261617"/><path d="m352.41502 41.935106 2.14223 9.962319-31.67293-15.459375 22.88309-25.82338 1.6619 8.693019c10.2082 1.0748 18.45568 3.831935 25.07215 7.642885 24.5563 14.143937 25.23986 36.539496 23.12297 53.847442-3.26847-36.70388-38.192-41.429384-43.20941-38.86291z" fill="url(#b)" filter="url(#h)" stroke="#000" stroke-opacity=".088083"/><path d="m289.40362 104.31611 38.7279 7.91073-2.80001-40.205225-8.72803 7.894316c-.30884-.345222-.51963-.485342-.91248-1.119528-.69637-1.124143-1.45391-2.655174-2.14797-4.486017-1.38814-3.661674-2.52648-8.528969-2.60595-13.923782-.15894-10.789625 3.7746-23.648228 18.46915-33.971433l1.54664-2.614855-2.99387.0066c-8.11344 3.448455-17.09251 8.18353-24.08216 15.768948-6.98964 7.585435-11.91837 18.056739-11.90346 32.562298.008 7.566425 1.72473 15.962217 5.63617 25.090244z" fill="#fff" filter="url(#f)" opacity=".261617"/><path d="m316.49327 82.039362 7.5565-6.836385 2.44826 35.159253-33.80525-6.90565 6.69742-5.785758c-4.17329-9.37796-5.90928-17.899055-5.91714-25.534561-.0291-28.338348 19.0242-40.128108 35.07177-46.9488-30.15226 21.182518-16.7829 53.789934-12.05156 56.851901z" fill="url(#c)" filter="url(#h)" stroke="#000" stroke-opacity=".088083"/><path d="m402.66419 105.53252-12.51306-37.494714-33.41874 22.527491 11.20069 3.611543c-.14455.440073-.1605.692678-.5133 1.349996-.62535 1.165143-1.57249 2.586704-2.81102 4.103205-2.47703 3.032999-6.12306 6.452469-10.75537 9.218709-9.26462 5.53245-22.36727 8.55522-38.6547.99096l-3.03785-.032 1.50266 2.58946c7.04317 5.30222 15.6334 10.71078 25.69739 12.97129 10.064 2.26049 21.59678 1.29324 34.15151-5.97246 6.54882-3.78995 12.96132-9.47476 18.9107-17.42618z" fill="#fff" filter="url(#e)" opacity=".261617"/><path d="m369.82713 93.21057-9.69873-3.125934 29.22467-19.699874 10.92216 32.729028-8.35932-2.90726c-6.03491 8.30316-12.5464 14.06712-19.15501 17.89167-24.52716 14.19441-44.26406 3.58862-58.19474-6.89864 33.42073 15.52136 54.9749-12.360548 55.26097-17.98899z" fill="url(#d)" filter="url(#h)" stroke="#000" stroke-opacity=".088083"/><path d="m346.66761 7.336408-26.21484 29.583985 36.21875 17.677734-2.47266-11.50586c.45339-.09485.68013-.207336 1.42578-.230468 1.32172-.041 3.0264.06847 4.95899.382812 3.86517.628678 8.64954 2.076496 13.36132 4.705078 9.42356 5.257166 18.59267 15.093008 20.18555 32.980469l1.49121 2.646859 1.49121-2.596079c1.07027-8.750671 1.45911-18.894311-1.61523-28.740234-3.07436-9.845923-9.67841-19.34998-22.24805-26.589844-6.55661-3.776469-14.68605-6.48745-24.54687-7.664062z" fill="#fff" filter="url(#g)" opacity=".431"/><path d="m352.41502 41.935106 2.14223 9.962319-31.67293-15.459375 22.88309-25.82338 1.6619 8.693019c10.2082 1.0748 18.45568 3.831935 25.07215 7.642885 24.5563 14.143937 25.23986 36.539496 23.12297 53.847442-3.26847-36.70388-38.192-41.429384-43.20941-38.86291z" fill="url(#b)" stroke="#000" stroke-opacity=".088083"/><path d="m289.40362 104.31611 38.7279 7.91073-2.80001-40.205225-8.72803 7.894316c-.30884-.345222-.51963-.485342-.91248-1.119528-.69637-1.124143-1.45391-2.655174-2.14797-4.486017-1.38814-3.661674-2.52648-8.528969-2.60595-13.923782-.15894-10.789625 3.7746-23.648228 18.46915-33.971433l1.54664-2.614855-2.99387.0066c-8.11344 3.448455-17.09251 8.18353-24.08216 15.768948-6.98964 7.585435-11.91837 18.056739-11.90346 32.562298.008 7.566425 1.72473 15.962217 5.63617 25.090244z" fill="#fff" filter="url(#f)" opacity=".431"/><path d="m316.49327 82.039362 7.5565-6.836385 2.44826 35.159253-33.80525-6.90565 6.69742-5.785758c-4.17329-9.37796-5.90928-17.899055-5.91714-25.534561-.0291-28.338348 19.0242-40.128108 35.07177-46.9488-30.15226 21.182518-16.7829 53.789934-12.05156 56.851901z" fill="url(#c)" stroke="#000" stroke-opacity=".088083"/><path d="m402.66419 105.53252-12.51306-37.494714-33.41874 22.527491 11.20069 3.611543c-.14455.440073-.1605.692678-.5133 1.349996-.62535 1.165143-1.57249 2.586704-2.81102 4.103205-2.47703 3.032999-6.12306 6.452469-10.75537 9.218709-9.26462 5.53245-22.36727 8.55522-38.6547.99096l-3.03785-.032 1.50266 2.58946c7.04317 5.30222 15.6334 10.71078 25.69739 12.97129 10.064 2.26049 21.59678 1.29324 34.15151-5.97246 6.54882-3.78995 12.96132-9.47476 18.9107-17.42618z" fill="#fff" filter="url(#e)" opacity=".431"/><path d="m369.82713 93.21057-9.69873-3.125934 29.22467-19.699874 10.92216 32.729028-8.35932-2.90726c-6.03491 8.30316-12.5464 14.06712-19.15501 17.89167-24.52716 14.19441-44.26406 3.58862-58.19474-6.89864 33.42073 15.52136 54.9749-12.360548 55.26097-17.98899z" fill="url(#d)" stroke="#000" stroke-opacity=".088083"/></g></svg>