<?xml version="1.0" encoding="UTF-8" standalone="no"?>
<!-- Created with Inkscape (http://www.inkscape.org/) -->

<svg
   xmlns:osb="http://www.openswatchbook.org/uri/2009/osb"
   xmlns:dc="http://purl.org/dc/elements/1.1/"
   xmlns:cc="http://creativecommons.org/ns#"
   xmlns:rdf="http://www.w3.org/1999/02/22-rdf-syntax-ns#"
   xmlns:svg="http://www.w3.org/2000/svg"
   xmlns="http://www.w3.org/2000/svg"
   xmlns:xlink="http://www.w3.org/1999/xlink"
   xmlns:sodipodi="http://sodipodi.sourceforge.net/DTD/sodipodi-0.dtd"
   xmlns:inkscape="http://www.inkscape.org/namespaces/inkscape"
   width="128"
   height="128"
   viewBox="0 0 33.866666 33.866668"
   version="1.1"
   id="svg880"
   inkscape:version="0.92.2 5c3e80d, 2017-08-06"
   sodipodi:docname="logview.svg">
  <defs
     id="defs874">
    <linearGradient
       osb:paint="solid"
       id="linearGradient6987">
      <stop
         id="stop6985"
         offset="0"
         style="stop-color:#77d2fb;stop-opacity:1;" />
    </linearGradient>
    <linearGradient
       inkscape:collect="always"
       id="linearGradient939">
      <stop
         style="stop-color:#d4e8ee;stop-opacity:1"
         offset="0"
         id="stop935" />
      <stop
         style="stop-color:#757574;stop-opacity:1"
         offset="1"
         id="stop937" />
    </linearGradient>
    <linearGradient
       inkscape:collect="always"
       xlink:href="#linearGradient939"
       id="linearGradient1025"
       gradientUnits="userSpaceOnUse"
       x1="-218.42142"
       y1="84.454018"
       x2="-219.88927"
       y2="220.38788"
       gradientTransform="matrix(0.21334088,0,0,0.21334088,99.33104,247.69267)" />
  </defs>
  <sodipodi:namedview
     id="base"
     pagecolor="#ffffff"
     bordercolor="#666666"
     borderopacity="1.0"
     inkscape:pageopacity="0.0"
     inkscape:pageshadow="2"
     inkscape:zoom="3.959798"
     inkscape:cx="66.41989"
     inkscape:cy="67.909966"
     inkscape:document-units="mm"
     inkscape:current-layer="layer1"
     showgrid="false"
     inkscape:window-width="1600"
     inkscape:window-height="814"
     inkscape:window-x="0"
     inkscape:window-y="0"
     inkscape:window-maximized="1"
     units="px" />
  <metadata
     id="metadata877">
    <rdf:RDF>
      <cc:Work
         rdf:about="">
        <dc:format>image/svg+xml</dc:format>
        <dc:type
           rdf:resource="http://purl.org/dc/dcmitype/StillImage" />
        <dc:title />
      </cc:Work>
    </rdf:RDF>
  </metadata>
  <g
     inkscape:label="Layer 1"
     inkscape:groupmode="layer"
     id="layer1"
     transform="translate(0,-263.13332)">
    <g
       id="g969"
       transform="translate(-37.010247,-0.04966918)">
      <rect
         ry="1.5424962"
         y="265.52454"
         x="37.27483"
         height="29.183573"
         width="33.337502"
         id="rect1015"
         style="opacity:1;fill:url(#linearGradient1025);fill-opacity:1;fill-rule:nonzero;stroke:none;stroke-width:0.10553986;stroke-linecap:round;stroke-linejoin:round;stroke-miterlimit:4;stroke-dasharray:none;stroke-dashoffset:0;stroke-opacity:1" />
      <rect
         style="opacity:1;fill:#000000;fill-opacity:1;fill-rule:nonzero;stroke:none;stroke-width:0.08500546;stroke-linecap:round;stroke-linejoin:round;stroke-miterlimit:4;stroke-dasharray:none;stroke-dashoffset:0;stroke-opacity:1"
         id="rect1017"
         width="32.484177"
         height="28.436579"
         x="37.701485"
         y="265.89804"
         ry="1.1978766" />
      <rect
         style="opacity:1;fill:#262626;fill-opacity:1;fill-rule:nonzero;stroke:none;stroke-width:0.12322024;stroke-linecap:round;stroke-linejoin:round;stroke-miterlimit:4;stroke-dasharray:none;stroke-dashoffset:0;stroke-opacity:1"
         id="rect1019-4"
         width="28.435896"
         height="24.380209"
         x="39.725628"
         y="267.92624" />
      <g
         style="fill:#ffd016;fill-opacity:1"
         id="g950">
        <path
           inkscape:connector-curvature="0"
           id="path895"
           style="font-style:normal;font-variant:normal;font-weight:normal;font-stretch:normal;font-size:medium;line-height:1.25;font-family:MyriadSetPro-Semibold;-inkscape-font-specification:MyriadSetPro-Semibold;letter-spacing:0px;word-spacing:0px;fill:#ffd016;fill-opacity:1;stroke:none;stroke-width:0.26458332"
           d="m 46.984955,282.14698 -1.945626,3.44022 v 2.52047 h -0.955125 v -2.49394 l -1.848344,-3.46675 h 1.087781 l 0.742876,1.56534 q 0.336062,0.71635 0.539468,1.2116 h 0.01769 q 0.185719,-0.48641 0.530625,-1.2116 l 0.751719,-1.56534 z" />
        <path
           inkscape:connector-curvature="0"
           id="path897"
           style="font-style:normal;font-variant:normal;font-weight:normal;font-stretch:normal;font-size:medium;line-height:1.25;font-family:MyriadSetPro-Semibold;-inkscape-font-specification:MyriadSetPro-Semibold;letter-spacing:0px;word-spacing:0px;fill:#ffd016;fill-opacity:1;stroke:none;stroke-width:0.26458332"
           d="m 53.282673,282.97829 -2.414344,5.12938 h -0.999344 l 2.4055,-4.95251 h -2.706188 v -0.79593 h 3.714376 z" />
        <path
           inkscape:connector-curvature="0"
           id="path899"
           style="font-style:normal;font-variant:normal;font-weight:normal;font-stretch:normal;font-size:medium;line-height:1.25;font-family:MyriadSetPro-Semibold;-inkscape-font-specification:MyriadSetPro-Semibold;letter-spacing:0px;word-spacing:0px;fill:#ffd016;fill-opacity:1;stroke:none;stroke-width:0.26458332"
           d="m 55.35681,284.52595 q 0,0.283 -0.168031,0.45987 -0.168032,0.17688 -0.442188,0.17688 -0.265313,0 -0.433344,-0.17688 -0.159187,-0.18572 -0.159187,-0.45987 0,-0.26532 0.168031,-0.45103 0.168031,-0.18572 0.433344,-0.18572 0.274156,0 0.433344,0.18572 0.168031,0.17687 0.168031,0.45103 z m -0.0088,3.04225 q 0,0.283 -0.168031,0.45987 -0.168031,0.17688 -0.442188,0.17688 -0.265312,0 -0.433344,-0.17688 -0.159187,-0.18572 -0.159187,-0.45987 0,-0.26532 0.168031,-0.45103 0.168031,-0.18572 0.433344,-0.18572 0.274156,0 0.433344,0.18572 0.168031,0.17687 0.168031,0.45103 z" />
        <path
           inkscape:connector-curvature="0"
           id="path901"
           style="font-style:normal;font-variant:normal;font-weight:normal;font-stretch:normal;font-size:medium;line-height:1.25;font-family:MyriadSetPro-Semibold;-inkscape-font-specification:MyriadSetPro-Semibold;letter-spacing:0px;word-spacing:0px;fill:#ffd016;fill-opacity:1;stroke:none;stroke-width:0.26458332"
           d="m 59.696052,286.47157 q 0,0.74288 -0.55716,1.22044 -0.59253,0.51294 -1.59187,0.51294 -0.94628,0 -1.529971,-0.38913 l 0.221094,-0.72519 q 0.583687,0.34491 1.273497,0.34491 0.60138,0 0.9286,-0.32722 0.27415,-0.26531 0.26531,-0.67212 0,-0.51294 -0.4245,-0.79594 -0.36259,-0.25647 -0.93744,-0.25647 h -0.45103 v -0.69866 h 0.44219 q 0.45103,0 0.78709,-0.2034 0.39797,-0.24763 0.39797,-0.67213 0,-0.3449 -0.23878,-0.55715 -0.23878,-0.2211 -0.69866,-0.2211 -0.61022,0 -1.14084,0.3626 l -0.221095,-0.69866 q 0.610215,-0.43334 1.556505,-0.43334 0.82246,0 1.29118,0.4245 0.4245,0.38028 0.4245,0.96397 0,0.96396 -1.04356,1.35309 v 0.0177 q 0.53947,0.0973 0.89322,0.4864 0.35375,0.38913 0.35375,0.96397 z" />
        <path
           inkscape:connector-curvature="0"
           id="path903"
           style="font-style:normal;font-variant:normal;font-weight:normal;font-stretch:normal;font-size:medium;line-height:1.25;font-family:MyriadSetPro-Semibold;-inkscape-font-specification:MyriadSetPro-Semibold;letter-spacing:0px;word-spacing:0px;fill:#ffd016;fill-opacity:1;stroke:none;stroke-width:0.26458332"
           d="m 64.487292,286.16204 q 0,0.84016 -0.53063,1.42384 -0.54831,0.61907 -1.42384,0.61907 -0.96397,0 -1.52113,-0.68097 -0.55715,-0.68097 -0.55715,-1.7776 0,-1.62725 0.98166,-2.59122 0.73403,-0.71634 1.92793,-0.849 0.33607,-0.0354 0.54832,-0.0354 v 0.76941 q -0.25647,-0.009 -0.55716,0.0354 -0.84016,0.11497 -1.35309,0.65444 -0.45104,0.46872 -0.566,1.16737 h 0.0265 q 0.47756,-0.59253 1.30887,-0.59253 0.75172,0 1.22928,0.51294 0.48641,0.50409 0.48641,1.34425 z m -0.97281,0.0531 q 0,-0.54831 -0.283,-0.87553 -0.283,-0.32722 -0.76057,-0.32722 -0.68096,0 -0.9905,0.62791 -0.0796,0.15919 -0.0708,0.34491 0.009,0.63675 0.27416,1.04356 0.30069,0.45103 0.85784,0.45103 0.45988,0 0.72519,-0.38028 0.24763,-0.34491 0.24763,-0.88438 z" />
        <path
           style="opacity:1;fill:#ffd016;fill-opacity:1;fill-rule:nonzero;stroke:none;stroke-width:0.46571431;stroke-linecap:round;stroke-linejoin:round;stroke-miterlimit:4;stroke-dasharray:none;stroke-dashoffset:0;stroke-opacity:1"
           d="m 150.14453,71.863281 v 8.775391 l 0.48438,-1.523438 c 0.49023,-1.871798 0.84747,-3.285929 1.07031,-4.24414 h 0.0664 c 0.5571,2.228359 0.93618,3.64249 1.13672,4.24414 l 1.9043,5.882813 h -4.66211 v 2.775391 h 5.29688 l 2.10547,6.617187 h 3.8457 l -7.28711,-22.527344 z"
           transform="matrix(0.26458333,0,0,0.26458333,0,263.13332)"
           id="rect919"
           inkscape:connector-curvature="0" />
      </g>
      <g
         style="fill:#ffd016;fill-opacity:1"
         id="g942">
        <path
           inkscape:connector-curvature="0"
           id="path880"
           style="font-style:normal;font-variant:normal;font-weight:normal;font-stretch:normal;font-size:medium;line-height:1.25;font-family:MyriadSetPro-Semibold;-inkscape-font-specification:MyriadSetPro-Semibold;letter-spacing:0px;word-spacing:0px;fill:#ffd016;fill-opacity:1;stroke:none;stroke-width:0.26458332"
           d="m 47.07645,272.01636 -1.609563,5.96069 H 44.4587 l -0.654438,-2.90075 q -0.256469,-1.12316 -0.35375,-1.91025 h -0.01769 q -0.123812,0.76941 -0.415656,1.91025 l -0.742875,2.90075 h -1.017032 l -1.450375,-5.96069 h 1.017032 l 0.610219,2.82116 q 0.21225,0.9905 0.397968,2.06944 h 0.01769 q 0.114969,-0.71635 0.451031,-2.07828 l 0.689813,-2.81232 h 0.9905 l 0.627906,2.83885 q 0.265313,1.15853 0.380282,2.03406 h 0.01769 q 0.150344,-0.90206 0.389125,-1.91909 l 0.03538,-0.15035 0.672126,-2.80347 z" />
        <path
           inkscape:connector-curvature="0"
           id="path882"
           style="font-style:normal;font-variant:normal;font-weight:normal;font-stretch:normal;font-size:medium;line-height:1.25;font-family:MyriadSetPro-Semibold;-inkscape-font-specification:MyriadSetPro-Semibold;letter-spacing:0px;word-spacing:0px;fill:#ffd016;fill-opacity:1;stroke:none;stroke-width:0.26458332"
           d="m 51.913706,277.97705 h -1.017031 l -0.557157,-1.75106 h -1.936781 l -0.530626,1.75106 h -0.9905 l 1.919094,-5.96069 h 1.185063 z m -1.742219,-2.48509 -0.504094,-1.5565 q -0.07959,-0.23879 -0.300687,-1.12316 h -0.01769 q -0.08844,0.38028 -0.283,1.12316 l -0.49525,1.5565 z" />
        <path
           inkscape:connector-curvature="0"
           id="path884"
           style="font-style:normal;font-variant:normal;font-weight:normal;font-stretch:normal;font-size:medium;line-height:1.25;font-family:MyriadSetPro-Semibold;-inkscape-font-specification:MyriadSetPro-Semibold;letter-spacing:0px;word-spacing:0px;fill:#ffd016;fill-opacity:1;stroke:none;stroke-width:0.26458332"
           d="m 56.788682,277.97705 h -0.990497 q -0.1415,-0.26531 -0.389125,-1.415 -0.123812,-0.60137 -0.380281,-0.84016 -0.247625,-0.24762 -0.725188,-0.24762 H 53.71106 v 2.50278 h -0.946282 v -5.88109 q 0.654438,-0.12382 1.547657,-0.12382 1.211594,0 1.76875,0.47757 0.495247,0.4245 0.495247,1.17621 0,0.54832 -0.327215,0.96397 -0.291844,0.37144 -0.760563,0.53947 v 0.0177 q 0.610219,0.22994 0.840156,1.18506 0.176872,0.74288 0.256472,1.02588 0.12381,0.46872 0.2034,0.61906 z m -1.167372,-4.25384 q 0,-1.01704 -1.220438,-1.02588 -0.459875,0 -0.689812,0.0619 v 2.00753 h 0.672125 q 0.566,0 0.902063,-0.283 0.336062,-0.29185 0.336062,-0.76056 z" />
        <path
           inkscape:connector-curvature="0"
           id="path886"
           style="font-style:normal;font-variant:normal;font-weight:normal;font-stretch:normal;font-size:medium;line-height:1.25;font-family:MyriadSetPro-Semibold;-inkscape-font-specification:MyriadSetPro-Semibold;letter-spacing:0px;word-spacing:0px;fill:#ffd016;fill-opacity:1;stroke:none;stroke-width:0.26458332"
           d="m 62.155322,277.97705 h -0.98165 l -1.64494,-2.76809 q -0.66328,-1.12316 -1.06125,-2.03407 l -0.0265,0.009 q 0.0619,0.99934 0.0619,2.52931 v 2.264 h -0.88437 v -5.96069 h 1.06125 l 1.64494,2.73272 q 0.57484,0.95513 1.01703,1.97216 l 0.0177,-0.009 q -0.0973,-1.00818 -0.0973,-2.47625 v -2.21978 h 0.89322 z" />
        <path
           inkscape:connector-curvature="0"
           id="path888"
           style="font-style:normal;font-variant:normal;font-weight:normal;font-stretch:normal;font-size:medium;line-height:1.25;font-family:MyriadSetPro-Semibold;-inkscape-font-specification:MyriadSetPro-Semibold;letter-spacing:0px;word-spacing:0px;fill:#ffd016;fill-opacity:1;stroke:none;stroke-width:0.26458332"
           d="m 64.377312,277.97705 h -0.95512 v -5.96069 h 0.95512 z" />
        <path
           style="opacity:1;fill:#ffd016;fill-opacity:1;fill-rule:nonzero;stroke:none;stroke-width:0.46571431;stroke-linecap:round;stroke-linejoin:round;stroke-miterlimit:4;stroke-dasharray:none;stroke-dashoffset:0;stroke-opacity:1"
           d="m 248.12695,33.574219 v 22.529297 h 3.34375 v -8.556641 c 0,-3.855043 -0.0784,-7.042525 -0.23437,-9.560547 l 0.0996,-0.0332 c 1.00276,2.295206 2.34046,4.857491 4.01172,7.6875 l 2.27148,3.822266 v -6.783203 l -5.48047,-9.105469 z"
           transform="matrix(0.26458333,0,0,0.26458333,0,263.13332)"
           id="rect931"
           inkscape:connector-curvature="0" />
      </g>
    </g>
  </g>
</svg>
