<?xml version="1.0" encoding="UTF-8" standalone="no"?>
<svg
   xmlns:dc="http://purl.org/dc/elements/1.1/"
   xmlns:cc="http://creativecommons.org/ns#"
   xmlns:rdf="http://www.w3.org/1999/02/22-rdf-syntax-ns#"
   xmlns:svg="http://www.w3.org/2000/svg"
   xmlns="http://www.w3.org/2000/svg"
   xmlns:xlink="http://www.w3.org/1999/xlink"
   xmlns:sodipodi="http://sodipodi.sourceforge.net/DTD/sodipodi-0.dtd"
   xmlns:inkscape="http://www.inkscape.org/namespaces/inkscape"
   height="128"
   viewBox="0 0 128 128"
   width="128"
   version="1.1"
   id="svg59"
   sodipodi:docname="vivaldi-beta.svg"
   inkscape:version="0.92.3 (2405546, 2018-03-11)">
  <metadata
     id="metadata65">
    <rdf:RDF>
      <cc:Work
         rdf:about="">
        <dc:format>image/svg+xml</dc:format>
        <dc:type
           rdf:resource="http://purl.org/dc/dcmitype/StillImage" />
        <dc:title></dc:title>
      </cc:Work>
    </rdf:RDF>
  </metadata>
  <defs
     id="defs63">
    <linearGradient
       inkscape:collect="always"
       id="linearGradient846">
      <stop
         style="stop-color:#429f8e;stop-opacity:1"
         offset="0"
         id="stop842" />
      <stop
         style="stop-color:#1ac85f;stop-opacity:0.96078432"
         offset="1"
         id="stop844" />
    </linearGradient>
    <linearGradient
       id="b">
      <stop
         id="stop875"
         stop-color="#17c7e7"
         offset="0" />
      <stop
         id="stop877"
         stop-opacity="0"
         stop-color="#c054f2"
         offset="1" />
    </linearGradient>
    <linearGradient
       inkscape:collect="always"
       xlink:href="#linearGradient846"
       id="linearGradient848"
       x1="101.18534"
       y1="129.48749"
       x2="31.58131"
       y2="9.9191256"
       gradientUnits="userSpaceOnUse"
       gradientTransform="translate(0,-8.5333252)" />
  </defs>
  <sodipodi:namedview
     pagecolor="#ffffff"
     bordercolor="#666666"
     borderopacity="1"
     objecttolerance="10"
     gridtolerance="10"
     guidetolerance="10"
     inkscape:pageopacity="0"
     inkscape:pageshadow="2"
     inkscape:window-width="1920"
     inkscape:window-height="1026"
     id="namedview61"
     showgrid="false"
     inkscape:zoom="2.4444904"
     inkscape:cx="-52.328234"
     inkscape:cy="86.510472"
     inkscape:window-x="0"
     inkscape:window-y="28"
     inkscape:window-maximized="1"
     inkscape:current-layer="svg59" />
  <linearGradient
     id="a">
    <stop
       offset="0"
       stop-color="#9760ef"
       id="stop2" />
    <stop
       offset="1"
       stop-color="#c054f2"
       stop-opacity="0"
       id="stop4" />
  </linearGradient>
  <linearGradient
     id="b-3">
    <stop
       offset="0"
       stop-color="#17c7e7"
       id="stop7" />
    <stop
       offset="1"
       stop-color="#c054f2"
       stop-opacity="0"
       id="stop9" />
  </linearGradient>
  <linearGradient
     id="c"
     gradientUnits="userSpaceOnUse"
     x1="62.044209"
     x2="66.816978"
     y1="5.831234"
     y2="47.14864">
    <stop
       offset="0"
       stop-color="#e83c2b"
       id="stop12" />
    <stop
       offset="1"
       stop-color="#c054f2"
       stop-opacity=".792157"
       id="stop14" />
  </linearGradient>
  <linearGradient
     id="d"
     gradientUnits="userSpaceOnUse"
     x1="88.225533"
     x2="38.18116"
     xlink:href="#b-3"
     y1="119.55636"
     y2="35.285225" />
  <linearGradient
     id="e"
     gradientUnits="userSpaceOnUse"
     x1="61.626202"
     x2="95.321602"
     y1="48.640057"
     y2="103.02198">
    <stop
       offset="0"
       stop-color="#f66456"
       id="stop18" />
    <stop
       offset="1"
       stop-color="#d9493e"
       stop-opacity="0"
       id="stop20" />
  </linearGradient>
  <linearGradient
     id="f"
     gradientUnits="userSpaceOnUse"
     x1="32.314991"
     x2="61.766811"
     xlink:href="#a"
     y1="92.483826"
     y2="57.318027" />
  <linearGradient
     id="g"
     gradientUnits="userSpaceOnUse"
     x1="96.531937"
     x2="61.766811"
     xlink:href="#b-3"
     y1="97.690598"
     y2="59.053619" />
  <linearGradient
     id="h"
     gradientUnits="userSpaceOnUse"
     x1="139.34325"
     x2="61.766811"
     xlink:href="#a"
     y1="-7.0235152"
     y2="59.053619" />
  <filter
     id="i"
     height="1.108812"
     width="1.139866"
     x="-0.069932997"
     y="-0.054405998"
     style="color-interpolation-filters:sRGB">
    <feGaussianBlur
       stdDeviation="1.9764485"
       id="feGaussianBlur26" />
  </filter>
  <g
     id="g847"
     transform="matrix(0.92980789,0,0,0.92980789,1.3037481,7.7381564)">
    <path
       sodipodi:nodetypes="sssss"
       inkscape:connector-curvature="0"
       id="circle45"
       d="m 68.113281,-6.3165283 c -36.979431,1e-7 -67.0234371,30.0420533 -67.0234372,67.0214843 -6e-7,36.979429 30.0440062,67.021484 67.0234372,67.021484 36.979429,0 67.021489,-30.042055 67.021489,-67.021484 0,-36.979432 -30.04206,-67.0214866 -67.021489,-67.0214843 z"
       style="color:#000000;font-style:normal;font-variant:normal;font-weight:normal;font-stretch:normal;font-size:medium;line-height:normal;font-family:sans-serif;font-variant-ligatures:normal;font-variant-position:normal;font-variant-caps:normal;font-variant-numeric:normal;font-variant-alternates:normal;font-feature-settings:normal;text-indent:0;text-align:start;text-decoration:none;text-decoration-line:none;text-decoration-style:solid;text-decoration-color:#000000;letter-spacing:normal;word-spacing:normal;text-transform:none;writing-mode:lr-tb;direction:ltr;text-orientation:mixed;dominant-baseline:auto;baseline-shift:baseline;text-anchor:start;white-space:normal;shape-padding:0;clip-rule:nonzero;display:inline;overflow:visible;visibility:visible;opacity:1;isolation:auto;mix-blend-mode:normal;color-interpolation:sRGB;color-interpolation-filters:linearRGB;solid-color:#000000;solid-opacity:1;vector-effect:none;fill:url(#linearGradient848);fill-opacity:1;fill-rule:nonzero;stroke:none;stroke-width:6;stroke-linecap:butt;stroke-linejoin:miter;stroke-miterlimit:4;stroke-dasharray:none;stroke-dashoffset:0;stroke-opacity:1;color-rendering:auto;image-rendering:auto;shape-rendering:auto;text-rendering:auto;enable-background:accumulate" />
    <path
       style="fill:none;fill-rule:evenodd;stroke:#000000;stroke-width:2.8797586;stroke-opacity:0.05703424"
       inkscape:connector-curvature="0"
       d="m 30.738452,41.693456 31.22515,55.167319 c 0,0 1.690106,2.95321 5.945232,2.95321 4.252139,0 5.945231,-2.95321 5.945231,-2.95321 0,0 21.702631,-33.240736 30.556265,-50.971917 0.88985,-1.779684 1.84837,-3.580274 2.25149,-5.533153 0.27472,-1.325809 0.4061,-2.747168 0.0896,-4.064018 -0.38521,-1.606497 -1.12874,-3.248824 -2.34108,-4.368594 -1.40045,-1.29296 -3.34437,-2.087252 -5.237523,-2.284331 -2.036491,-0.215003 -4.207351,0.274729 -6.031831,1.227266 -1.281014,0.674851 -2.418703,1.752817 -3.135354,3.015916 -0.710681,1.251155 -0.892829,2.76807 -0.973451,4.204359 -0.05373,0.988387 0.140331,1.98274 0.343394,2.950223 0.06868,0.331451 0.182145,0.653943 0.295618,0.970464 0.289647,0.809224 0.683809,1.576638 0.979427,2.382871 0.244865,0.662905 0.585265,1.313863 0.662903,2.018572 0.125414,1.1347 0.09555,2.347038 -0.322495,3.407085 -2.039474,5.1599 -5.545097,10.122718 -10.179451,13.153563 -1.92003,1.254143 -4.377554,1.567677 -6.667853,1.666217 -2.6128,0.11049 -5.622739,-0.09555 -7.742839,-1.248171 -2.120096,-1.152615 -3.11744,-3.153273 -4.446233,-4.918029 -6.097517,-8.092202 -16.064961,-25.817409 -16.064961,-25.817409 0,0 -4.33276,-7.659225 -12.129343,-3.015913 -7.793599,4.646297 -3.030844,12.06365 -3.030844,12.06365 z"
       id="path852-3" />
    <path
       id="path884"
       d="m 30.738452,41.693456 31.22515,55.167319 c 0,0 1.690106,2.95321 5.945232,2.95321 4.252139,0 5.945231,-2.95321 5.945231,-2.95321 0,0 21.702631,-33.240736 30.556265,-50.971917 0.88985,-1.779684 1.84837,-3.580274 2.25149,-5.533153 0.27472,-1.325809 0.4061,-2.747168 0.0896,-4.064018 -0.38521,-1.606497 -1.12874,-3.248824 -2.34108,-4.368594 -1.40045,-1.29296 -3.34437,-2.087252 -5.237523,-2.284331 -2.036491,-0.215003 -4.207351,0.274729 -6.031831,1.227266 -1.281014,0.674851 -2.418703,1.752817 -3.135354,3.015916 -0.710681,1.251155 -0.892829,2.76807 -0.973451,4.204359 -0.05373,0.988387 0.140331,1.98274 0.343394,2.950223 0.06868,0.331451 0.182145,0.653943 0.295618,0.970464 0.289647,0.809224 0.683809,1.576638 0.979427,2.382871 0.244865,0.662905 0.585265,1.313863 0.662903,2.018572 0.125414,1.1347 0.09555,2.347038 -0.322495,3.407085 -2.039474,5.1599 -5.545097,10.122718 -10.179451,13.153563 -1.92003,1.254143 -4.377554,1.567677 -6.667853,1.666217 -2.6128,0.11049 -5.622739,-0.09555 -7.742839,-1.248171 -2.120096,-1.152615 -3.11744,-3.153273 -4.446233,-4.918029 -6.097517,-8.092202 -16.064961,-25.817409 -16.064961,-25.817409 0,0 -4.33276,-7.659225 -12.129343,-3.015913 -7.793599,4.646297 -3.030844,12.06365 -3.030844,12.06365 z"
       inkscape:connector-curvature="0"
       style="fill:none;fill-rule:evenodd;stroke:#000000;stroke-width:5;stroke-miterlimit:4;stroke-dasharray:none;stroke-opacity:0.03422056" />
    <path
       inkscape:connector-curvature="0"
       id="path898"
       d="M 68.111328,1.1834717 C 35.238549,1.1835412 8.5899132,27.832177 8.5898438,60.704956 8.5899105,93.578495 35.239737,120.22745 68.113281,120.22644 100.98606,120.22637 127.6347,93.577735 127.63477,60.704956 127.6347,27.831412 100.98487,1.1824599 68.111328,1.1834717 Z M 38.945312,28.148316 c 4.507773,0.195259 6.945313,4.503906 6.945313,4.503906 0,0 9.966936,17.724204 16.064453,25.816406 1.328793,1.764756 2.325217,3.765354 4.445313,4.917969 2.1201,1.152621 5.13134,1.358537 7.74414,1.248047 2.290299,-0.09854 4.747939,-0.411873 6.667969,-1.666016 4.634354,-3.030845 8.13826,-7.992444 10.177734,-13.152344 0.418045,-1.060047 0.449633,-2.273503 0.324219,-3.408203 -0.07764,-0.704709 -0.419197,-1.354673 -0.664062,-2.017578 C 90.354773,43.58427 89.961522,42.816915 89.671875,42.007691 89.558402,41.69117 89.44368,41.368439 89.375,41.036987 c -0.203063,-0.967483 -0.39748,-1.962784 -0.34375,-2.951171 0.08062,-1.436289 0.263928,-2.95197 0.974609,-4.203125 0.716651,-1.263099 1.853752,-2.342728 3.134766,-3.017578 1.82448,-0.952537 3.994759,-1.441566 6.03125,-1.226563 1.893155,0.197079 3.837835,0.992196 5.238285,2.285156 1.21234,1.11977 1.95658,2.760691 2.34179,4.367188 0.3165,1.31685 0.18488,2.738644 -0.0898,4.064453 -0.40312,1.952879 -1.3621,3.753519 -2.25195,5.533203 -8.853638,17.731181 -30.556644,50.972655 -30.556644,50.972655 0,0 -1.693174,2.95313 -5.945313,2.95313 -4.255126,0 -5.945312,-2.95313 -5.945312,-2.95313 l -31.22461,-55.167968 -0.0078,0.0059 c 0,0 -4.764302,-7.416203 3.029297,-12.0625 1.949145,-1.160828 3.682956,-1.553368 5.185546,-1.488281 z"
       style="opacity:1;fill:#ffffff;fill-opacity:1;stroke:none;stroke-width:2;stroke-linecap:round;stroke-linejoin:round;stroke-miterlimit:4;stroke-dasharray:none;stroke-dashoffset:0;stroke-opacity:1;paint-order:fill markers stroke" />
  </g>
</svg>
