<?xml version="1.0" encoding="UTF-8" standalone="no"?>
<!-- Created with Inkscape (http://www.inkscape.org/) -->

<svg
   xmlns:dc="http://purl.org/dc/elements/1.1/"
   xmlns:cc="http://creativecommons.org/ns#"
   xmlns:rdf="http://www.w3.org/1999/02/22-rdf-syntax-ns#"
   xmlns:svg="http://www.w3.org/2000/svg"
   xmlns="http://www.w3.org/2000/svg"
   xmlns:xlink="http://www.w3.org/1999/xlink"
   xmlns:sodipodi="http://sodipodi.sourceforge.net/DTD/sodipodi-0.dtd"
   xmlns:inkscape="http://www.inkscape.org/namespaces/inkscape"
   version="1.1"
   id="svg2"
   width="128"
   height="128"
   viewBox="0 0 128 128"
   sodipodi:docname="vivaldi-alt.svg"
   inkscape:version="0.92.2 2405546, 2018-03-11">
  <metadata
     id="metadata8">
    <rdf:RDF>
      <cc:Work
         rdf:about="">
        <dc:format>image/svg+xml</dc:format>
        <dc:type
           rdf:resource="http://purl.org/dc/dcmitype/StillImage" />
        <dc:title></dc:title>
      </cc:Work>
    </rdf:RDF>
  </metadata>
  <defs
     id="defs6">
    <linearGradient
       inkscape:collect="always"
       id="linearGradient843-9">
      <stop
         style="stop-color:#da5c44;stop-opacity:1"
         offset="0"
         id="stop839" />
      <stop
         style="stop-color:#bd261c;stop-opacity:1"
         offset="1"
         id="stop841" />
    </linearGradient>
    <linearGradient
       inkscape:collect="always"
       id="linearGradient827">
      <stop
         style="stop-color:#000000;stop-opacity:1"
         offset="0"
         id="stop823" />
      <stop
         id="stop833"
         offset="0.95644003"
         style="stop-color:#202020;stop-opacity:1" />
      <stop
         style="stop-color:#212121;stop-opacity:0.57647059;"
         offset="0.9767887"
         id="stop837" />
      <stop
         style="stop-color:#242424;stop-opacity:0"
         offset="1"
         id="stop825" />
    </linearGradient>
    <radialGradient
       inkscape:collect="always"
       xlink:href="#linearGradient827"
       id="radialGradient829"
       cx="-466.44064"
       cy="527.18646"
       fx="-466.44064"
       fy="527.18646"
       r="496.81354"
       gradientUnits="userSpaceOnUse"
       gradientTransform="matrix(0.12130735,0,0,0.12161697,121.06441,0.34911052)" />
    <linearGradient
       inkscape:collect="always"
       xlink:href="#linearGradient843-9"
       id="linearGradient845"
       x1="-513.94678"
       y1="92.873978"
       x2="-519.38519"
       y2="915.13129"
       gradientUnits="userSpaceOnUse"
       gradientTransform="matrix(0.12681401,0,0,0.12681401,134.08758,3.661987)" />
  </defs>
  <sodipodi:namedview
     pagecolor="#ffffff"
     bordercolor="#666666"
     borderopacity="1"
     objecttolerance="10"
     gridtolerance="10"
     guidetolerance="10"
     inkscape:pageopacity="0"
     inkscape:pageshadow="2"
     inkscape:window-width="1920"
     inkscape:window-height="1031"
     id="namedview4"
     showgrid="false"
     inkscape:zoom="2.6074563"
     inkscape:cx="21.190671"
     inkscape:cy="50.672703"
     inkscape:window-x="0"
     inkscape:window-y="26"
     inkscape:window-maximized="1"
     inkscape:current-layer="svg2" />
  <path
     inkscape:connector-curvature="0"
     d=""
     cx="621.95471"
     cy="755.98816"
     rx="110.06896"
     ry="34.918427"
     style="opacity:0.10100002;fill:#1b1b1b;fill-opacity:1;stroke:none;stroke-width:2.96896577;stroke-linecap:round;stroke-linejoin:round;stroke-miterlimit:4;stroke-dasharray:none;stroke-dashoffset:0;stroke-opacity:1;paint-order:normal"
     id="path1456" />
  <path
     inkscape:connector-curvature="0"
     d=""
     id="path1470"
     style="opacity:0.10100002;fill:#1b1b1b;fill-opacity:1;stroke:none;stroke-width:2.96896577;stroke-linecap:round;stroke-linejoin:round;stroke-miterlimit:4;stroke-dasharray:none;stroke-dashoffset:0;stroke-opacity:1;paint-order:normal"
     ry="34.918427"
     rx="110.06896"
     cy="755.98816"
     cx="621.95471" />
  <path
     id="circle821"
     style="opacity:0.275;fill:url(#radialGradient829);fill-opacity:1;stroke:none;stroke-width:0.92476499;stroke-linecap:round;stroke-linejoin:round;stroke-miterlimit:4;stroke-dasharray:none;stroke-dashoffset:0;stroke-opacity:1;paint-order:fill markers stroke"
     sodipodi:type="arc"
     sodipodi:cx="64.481735"
     sodipodi:cy="64.463936"
     sodipodi:rx="73.45755"
     sodipodi:ry="69.055603"
     sodipodi:start="0"
     sodipodi:end="6.2811238"
     d="M 137.93929,64.463936 A 73.45755,69.055603 0 0 1 64.519594,133.51953 73.45755,69.055603 0 0 1 -8.9757758,64.535115 73.45755,69.055603 0 0 1 64.36816,-4.5915846 73.45755,69.055603 0 0 1 137.93913,64.321577 l -73.457395,0.142359 z" />
  <circle
     style="opacity:1;fill:url(#linearGradient845);fill-opacity:1;stroke:none;stroke-width:0.76088405;stroke-linecap:round;stroke-linejoin:round;stroke-miterlimit:4;stroke-dasharray:none;stroke-dashoffset:0;stroke-opacity:1;paint-order:fill markers stroke"
     id="path819"
     cx="64.481735"
     cy="64.463936"
     r="58.600967" />
  <g
     id="g984"
     transform="translate(71.314094,0.005331)"
     style="opacity:0.35">
    <path
       id="path969"
       d="m -40.216907,46.864238 27.885495,49.266957 c 0,0 1.509343,2.637349 5.309366,2.637349 3.797356,0 5.309363,-2.637349 5.309363,-2.637349 0,0 19.381449,-29.68551 27.288158,-45.52027 0.79468,-1.58934 1.65068,-3.197349 2.01068,-4.941361 0.24535,-1.184008 0.36267,-2.453348 0.0801,-3.629355 -0.34401,-1.434676 -1.00801,-2.901349 -2.09069,-3.901355 -1.25067,-1.154672 -2.98668,-1.864013 -4.677363,-2.040013 -1.818668,-0.192007 -3.757348,0.245346 -5.38669,1.096006 -1.144008,0.602673 -2.160016,1.565346 -2.800019,2.693352 -0.63467,1.117338 -0.797337,2.472013 -0.869335,3.754685 -0.048,0.882675 0.12532,1.770677 0.306665,2.634685 0.06133,0.296002 0.162664,0.584003 0.264002,0.86667 0.258667,0.722674 0.610671,1.408011 0.874672,2.128012 0.218677,0.592006 0.522669,1.173341 0.592004,1.802679 0.112004,1.013338 0.08533,2.096012 -0.288003,3.042684 -1.821345,4.608028 -4.952027,9.040052 -9.090719,11.746736 -1.714675,1.120007 -3.90935597,1.400008 -5.954699,1.488007 -2.33335,0.09868 -5.021364,-0.08533 -6.914712,-1.114672 -1.893373,-1.029339 -2.784047,-2.816018 -3.97072,-4.392027 -5.445363,-7.226709 -14.346749,-23.056134 -14.346749,-23.056134 0,0 -3.869355,-6.84004 -10.832062,-2.69335 -6.960041,4.149358 -2.706684,10.773395 -2.706684,10.773395 z"
       inkscape:connector-curvature="0"
       style="fill:none;fill-rule:evenodd;stroke:#000000;stroke-width:2.57200003;stroke-miterlimit:4;stroke-dasharray:none;stroke-opacity:0.03816792" />
    <path
       style="fill:none;fill-rule:evenodd;stroke:#000000;stroke-width:2;stroke-miterlimit:4;stroke-dasharray:none;stroke-opacity:0.03816792"
       inkscape:connector-curvature="0"
       d="m -40.216907,46.864238 27.885495,49.266957 c 0,0 1.509343,2.637349 5.309366,2.637349 3.797356,0 5.309363,-2.637349 5.309363,-2.637349 0,0 19.381449,-29.68551 27.288158,-45.52027 0.79468,-1.58934 1.65068,-3.197349 2.01068,-4.941361 0.24535,-1.184008 0.36267,-2.453348 0.0801,-3.629355 -0.34401,-1.434676 -1.00801,-2.901349 -2.09069,-3.901355 -1.25067,-1.154672 -2.98668,-1.864013 -4.677363,-2.040013 -1.818668,-0.192007 -3.757348,0.245346 -5.38669,1.096006 -1.144008,0.602673 -2.160016,1.565346 -2.800019,2.693352 -0.63467,1.117338 -0.797337,2.472013 -0.869335,3.754685 -0.048,0.882675 0.12532,1.770677 0.306665,2.634685 0.06133,0.296002 0.162664,0.584003 0.264002,0.86667 0.258667,0.722674 0.610671,1.408011 0.874672,2.128012 0.218677,0.592006 0.522669,1.173341 0.592004,1.802679 0.112004,1.013338 0.08533,2.096012 -0.288003,3.042684 -1.821345,4.608028 -4.952027,9.040052 -9.090719,11.746736 -1.714675,1.120007 -3.90935597,1.400008 -5.954699,1.488007 -2.33335,0.09868 -5.021364,-0.08533 -6.914712,-1.114672 -1.893373,-1.029339 -2.784047,-2.816018 -3.97072,-4.392027 -5.445363,-7.226709 -14.346749,-23.056134 -14.346749,-23.056134 0,0 -3.869355,-6.84004 -10.832062,-2.69335 -6.960041,4.149358 -2.706684,10.773395 -2.706684,10.773395 z"
       id="path971" />
    <path
       id="path973"
       d="m -40.216907,46.864238 27.885495,49.266957 c 0,0 1.509343,2.637349 5.309366,2.637349 3.797356,0 5.309363,-2.637349 5.309363,-2.637349 0,0 19.381449,-29.68551 27.288158,-45.52027 0.79468,-1.58934 1.65068,-3.197349 2.01068,-4.941361 0.24535,-1.184008 0.36267,-2.453348 0.0801,-3.629355 -0.34401,-1.434676 -1.00801,-2.901349 -2.09069,-3.901355 -1.25067,-1.154672 -2.98668,-1.864013 -4.677363,-2.040013 -1.818668,-0.192007 -3.757348,0.245346 -5.38669,1.096006 -1.144008,0.602673 -2.160016,1.565346 -2.800019,2.693352 -0.63467,1.117338 -0.797337,2.472013 -0.869335,3.754685 -0.048,0.882675 0.12532,1.770677 0.306665,2.634685 0.06133,0.296002 0.162664,0.584003 0.264002,0.86667 0.258667,0.722674 0.610671,1.408011 0.874672,2.128012 0.218677,0.592006 0.522669,1.173341 0.592004,1.802679 0.112004,1.013338 0.08533,2.096012 -0.288003,3.042684 -1.821345,4.608028 -4.952027,9.040052 -9.090719,11.746736 -1.714675,1.120007 -3.90935597,1.400008 -5.954699,1.488007 -2.33335,0.09868 -5.021364,-0.08533 -6.914712,-1.114672 -1.893373,-1.029339 -2.784047,-2.816018 -3.97072,-4.392027 -5.445363,-7.226709 -14.346749,-23.056134 -14.346749,-23.056134 0,0 -3.869355,-6.84004 -10.832062,-2.69335 -6.960041,4.149358 -2.706684,10.773395 -2.706684,10.773395 z"
       inkscape:connector-curvature="0"
       style="fill:none;fill-rule:evenodd;stroke:#000000;stroke-width:3;stroke-miterlimit:4;stroke-dasharray:none;stroke-opacity:0.03816792" />
    <path
       style="fill:none;fill-rule:evenodd;stroke:#000000;stroke-width:4;stroke-miterlimit:4;stroke-dasharray:none;stroke-opacity:0.03816792"
       inkscape:connector-curvature="0"
       d="m -40.216907,46.864238 27.885495,49.266957 c 0,0 1.509343,2.637349 5.309366,2.637349 3.797356,0 5.309363,-2.637349 5.309363,-2.637349 0,0 19.381449,-29.68551 27.288158,-45.52027 0.79468,-1.58934 1.65068,-3.197349 2.01068,-4.941361 0.24535,-1.184008 0.36267,-2.453348 0.0801,-3.629355 -0.34401,-1.434676 -1.00801,-2.901349 -2.09069,-3.901355 -1.25067,-1.154672 -2.98668,-1.864013 -4.677363,-2.040013 -1.818668,-0.192007 -3.757348,0.245346 -5.38669,1.096006 -1.144008,0.602673 -2.160016,1.565346 -2.800019,2.693352 -0.63467,1.117338 -0.797337,2.472013 -0.869335,3.754685 -0.048,0.882675 0.12532,1.770677 0.306665,2.634685 0.06133,0.296002 0.162664,0.584003 0.264002,0.86667 0.258667,0.722674 0.610671,1.408011 0.874672,2.128012 0.218677,0.592006 0.522669,1.173341 0.592004,1.802679 0.112004,1.013338 0.08533,2.096012 -0.288003,3.042684 -1.821345,4.608028 -4.952027,9.040052 -9.090719,11.746736 -1.714675,1.120007 -3.90935597,1.400008 -5.954699,1.488007 -2.33335,0.09868 -5.021364,-0.08533 -6.914712,-1.114672 -1.893373,-1.029339 -2.784047,-2.816018 -3.97072,-4.392027 -5.445363,-7.226709 -14.346749,-23.056134 -14.346749,-23.056134 0,0 -3.869355,-6.84004 -10.832062,-2.69335 -6.960041,4.149358 -2.706684,10.773395 -2.706684,10.773395 z"
       id="path975" />
    <path
       id="path977"
       d="m -40.216907,46.864238 27.885495,49.266957 c 0,0 1.509343,2.637349 5.309366,2.637349 3.797356,0 5.309363,-2.637349 5.309363,-2.637349 0,0 19.381449,-29.68551 27.288158,-45.52027 0.79468,-1.58934 1.65068,-3.197349 2.01068,-4.941361 0.24535,-1.184008 0.36267,-2.453348 0.0801,-3.629355 -0.34401,-1.434676 -1.00801,-2.901349 -2.09069,-3.901355 -1.25067,-1.154672 -2.98668,-1.864013 -4.677363,-2.040013 -1.818668,-0.192007 -3.757348,0.245346 -5.38669,1.096006 -1.144008,0.602673 -2.160016,1.565346 -2.800019,2.693352 -0.63467,1.117338 -0.797337,2.472013 -0.869335,3.754685 -0.048,0.882675 0.12532,1.770677 0.306665,2.634685 0.06133,0.296002 0.162664,0.584003 0.264002,0.86667 0.258667,0.722674 0.610671,1.408011 0.874672,2.128012 0.218677,0.592006 0.522669,1.173341 0.592004,1.802679 0.112004,1.013338 0.08533,2.096012 -0.288003,3.042684 -1.821345,4.608028 -4.952027,9.040052 -9.090719,11.746736 -1.714675,1.120007 -3.90935597,1.400008 -5.954699,1.488007 -2.33335,0.09868 -5.021364,-0.08533 -6.914712,-1.114672 -1.893373,-1.029339 -2.784047,-2.816018 -3.97072,-4.392027 -5.445363,-7.226709 -14.346749,-23.056134 -14.346749,-23.056134 0,0 -3.869355,-6.84004 -10.832062,-2.69335 -6.960041,4.149358 -2.706684,10.773395 -2.706684,10.773395 z"
       inkscape:connector-curvature="0"
       style="fill:none;fill-rule:evenodd;stroke:#000000;stroke-width:5;stroke-miterlimit:4;stroke-dasharray:none;stroke-opacity:0.03816792" />
  </g>
  <path
     id="path940-3"
     d="m 31.105127,46.864238 27.885495,49.266957 c 0,0 1.509343,2.637349 5.309366,2.637349 3.797356,0 5.309363,-2.637349 5.309363,-2.637349 0,0 19.381449,-29.68551 27.288158,-45.52027 0.79468,-1.58934 1.65068,-3.197349 2.01068,-4.941361 0.24535,-1.184008 0.36267,-2.453348 0.0801,-3.629355 -0.34401,-1.434676 -1.00801,-2.901349 -2.09069,-3.901355 -1.25067,-1.154672 -2.98668,-1.864013 -4.677363,-2.040013 -1.818668,-0.192007 -3.757348,0.245346 -5.38669,1.096006 -1.144008,0.602673 -2.160016,1.565346 -2.800019,2.693352 -0.63467,1.117338 -0.797337,2.472013 -0.869335,3.754685 -0.048,0.882675 0.12532,1.770677 0.306665,2.634685 0.06133,0.296002 0.162664,0.584003 0.264002,0.86667 0.258667,0.722674 0.610671,1.408011 0.874672,2.128012 0.218677,0.592006 0.522669,1.173341 0.592004,1.802679 0.112004,1.013338 0.08533,2.096012 -0.288003,3.042684 -1.821345,4.608028 -4.952027,9.040052 -9.090719,11.746736 -1.714675,1.120007 -3.909356,1.400008 -5.954699,1.488007 -2.33335,0.09868 -5.021364,-0.08533 -6.914712,-1.114672 -1.893373,-1.029339 -2.784047,-2.816018 -3.97072,-4.392027 -5.445363,-7.226709 -14.346749,-23.056134 -14.346749,-23.056134 0,0 -3.869355,-6.84004 -10.832062,-2.69335 -6.960041,4.149358 -2.706684,10.773395 -2.706684,10.773395 z"
     inkscape:connector-curvature="0"
     style="fill:#f9f9f9;fill-rule:evenodd;stroke-width:2.57175708" />
</svg>
