<svg height="136.53333" viewBox="0 0 136.53333 136.53333" width="136.53333" xmlns="http://www.w3.org/2000/svg" xmlns:xlink="http://www.w3.org/1999/xlink"><linearGradient id="a" gradientUnits="userSpaceOnUse" x1="66.9184" x2="67.49689" y1="8.777227" y2="129.111687"><stop offset="0" stop-color="#f6f6f6"/><stop offset="1" stop-color="#d5d6d5"/></linearGradient><filter id="b" color-interpolation-filters="sRGB" height="1.024007" width="1.023993" x="-.011996" y="-.012004"><feGaussianBlur stdDeviation=".47521291"/></filter><linearGradient id="c" gradientUnits="userSpaceOnUse" x1="-146.054" x2="123.35784" y1="144.8995" y2="144.8995"><stop offset="0" stop-color="#a0cf63"/><stop offset="1" stop-color="#c4da45"/></linearGradient><linearGradient id="d" gradientUnits="userSpaceOnUse" x1="-14.298616" x2="309.397" y1="73.499693" y2="73.499693"><stop offset="0" stop-color="#58a920"/><stop offset="1" stop-color="#98b811"/></linearGradient><linearGradient id="e" gradientUnits="userSpaceOnUse" x1="134.56509" x2="148.51404" y1="117.30138" y2="-149.18999"><stop offset="0" stop-color="#faaa32"/><stop offset="1" stop-color="#fdc22b"/></linearGradient><linearGradient id="f" gradientUnits="userSpaceOnUse" x1="26.97802" x2="146.80986" y1="120.22743" y2="-100.48971"><stop offset="0" stop-color="#ec4001"/><stop offset="1" stop-color="#fb6f01"/></linearGradient><linearGradient id="g" gradientUnits="userSpaceOnUse" x1="41.409683" x2="117.31723" y1="108.52529" y2="319.1076"><stop offset="0" stop-color="#e69e08"/><stop offset="1" stop-color="#cbc507"/></linearGradient><linearGradient id="h" gradientUnits="userSpaceOnUse" x1="-103.67039" x2="205.55051" y1="133.12218" y2=".071802"><stop offset="0" stop-color="#2e9274"/><stop offset="1" stop-color="#469d3c"/></linearGradient><linearGradient id="i" gradientUnits="userSpaceOnUse" x1="-206.76952" x2="10.51211" y1="-12.925184" y2="-156.88734"><stop offset="0" stop-color="#70c2bd"/><stop offset="1" stop-color="#67c381"/></linearGradient><linearGradient id="j" gradientUnits="userSpaceOnUse" x1="30.131145" x2="123.3283" y1="111.50156" y2="-107.16671"><stop offset="0" stop-color="#416db9"/><stop offset="1" stop-color="#337e8d"/></linearGradient><linearGradient id="k" gradientUnits="userSpaceOnUse" x1="-350.6571" x2="-376.36255" y1="-73.89106" y2="-319.05783"><stop offset="0" stop-color="#83a3d4"/><stop offset="1" stop-color="#6bb5e3"/></linearGradient><linearGradient id="l" gradientUnits="userSpaceOnUse" x1="116.504" x2="21.156284" y1="308.30261" y2="34.179653"><stop offset="0" stop-color="#735194"/><stop offset="1" stop-color="#525da3"/></linearGradient><linearGradient id="m" gradientUnits="userSpaceOnUse" x1="206.7137" x2="28.495264" y1="-12.740612" y2="-150.01163"><stop offset="0" stop-color="#b28cc0"/><stop offset="1" stop-color="#9a8ec4"/></linearGradient><linearGradient id="n" gradientUnits="userSpaceOnUse" x1=".176406" x2="-308.72031" y1="-14.582834" y2="-143.7106"><stop offset="0" stop-color="#c23857"/><stop offset="1" stop-color="#914475"/></linearGradient><linearGradient id="o" gradientUnits="userSpaceOnUse" x1="-123.11901" x2="145.987" y1="144.897" y2="144.897"><stop offset="0" stop-color="#d287af"/><stop offset="1" stop-color="#e07993"/></linearGradient><linearGradient id="p" gradientUnits="userSpaceOnUse" x1="-205.78" x2="117.81888" y1="-71.695562" y2="-71.695562"><stop offset="0" stop-color="#bd090f"/><stop offset="1" stop-color="#e11f07"/></linearGradient><linearGradient id="q" gradientUnits="userSpaceOnUse" x1="189.94229" x2="-19.617525" y1="147.05296" y2="76.406288"><stop offset="0" stop-color="#f48155"/><stop offset="1" stop-color="#f16168"/></linearGradient><circle cx="68.075439" cy="69.522987" fill="url(#a)" r="67.109596"/><g fill-rule="evenodd"><g fill-opacity=".502591" filter="url(#b)" transform="matrix(1.2134666 0 0 -1.2134666 5.735079 133.1114)"><path d="m0 0c10.295-15.579 18.663-32.038 23.041-50.329 19.689-82.256-30.355-160.695-109.388-178.906-41.682-9.605-80.239-1.874-115.898 21.38-.889.579-1.797 1.129-2.89 1.814-2.131-2.732-1.883-6.067-2.585-9.016-13.98-58.674-60.496-102.131-119.871-111.834-78.422-12.813-152.228 38.631-167.828 116.973-.278 1.398-.639 2.781-.961 4.173.08.383.16.764.24 1.145 1.526.193 2.461 1.332 3.585 2.195 15.205 11.657 27.985 25.882 41.39 39.412 30.49 30.775 61.957 60.584 91.48 92.319 3.265 3.509 5.169 8.123 9.174 10.991 4.545-6.605 9.352-13.058 14.994-18.726 37.42-37.583 74.897-75.111 112.558-112.451 4.952-4.909 10.069-9.956 16.783-13.315 1.876 7.529 2.35 14.846 2.38 22.041.209 51.783.221 103.57.007 155.354-.037 9.011-.943 18.074-2.981 26.938 7.233-.696 14.462-1.973 21.696-1.996 55.666-.168 111.333-.113 166.999-.061 5.68.004 11.306.867 16.856 2.129.407-.078.813-.154 1.219-.23" transform="matrix(.10021008 0 0 .10021008 86.547613 36.53782)"/><path d="m0 0c-.406.076-.812.152-1.218.23-.227.474-.398.99-.694 1.416-5.098 7.378-11.27 13.812-17.713 19.995-42.481 40.754-81.453 85.106-126.429 123.298 5.768 5.833 12.959 9.935 18.77 15.767 36.808 36.944 73.702 73.803 110.63 110.629 5.695 5.679 10.885 11.736 15.478 18.321.459.049.916.095 1.374.143 28.115-4.32 52.691-16.307 73.802-35.122 26.848-23.928 43.084-53.927 47.964-89.555 10.639-77.686-40.77-148.06-115.139-163.847-2.263-.481-4.55-.852-6.825-1.275" transform="matrix(.10021008 0 0 .10021008 86.547613 36.53782)"/><path d="m0 0c-.458-.047-.915-.094-1.373-.142-5.898 1.351-11.879 2.16-17.923 2.164-54.965.036-109.931.1-164.895-.069-7.591-.024-15.177-1.271-22.765-1.952 2.068 8.306 2.916 16.836 2.951 25.298.217 52.775.193 105.551.026 158.326-.023 7.414-1.259 14.824-1.933 22.236 19.78 13.304 41.152 22.514 64.947 25.801 38.857 5.367 74.518-3.019 106.38-25.68 32.738-23.282 52.971-55.163 59.71-94.766 6.585-38.692-1.45-74.703-23.232-107.503-.775-1.167-1.99-2.104-1.893-3.713" transform="matrix(.10021008 0 0 .10021008 86.567485 65.578582)"/><path d="m0 0c.429.088.858.177 1.286.265 5.158-1.494 10.527-2.178 15.79-2.088 63.236 1.082 126.53-2.849 189.718 2.145-1.747-10.156-2.987-20.366-2.99-30.688-.016-45.32.052-90.64-.045-135.959-.028-12.825.262-25.604 2.342-38.287-.08-.382-.161-.763-.24-1.146-18.297-12.198-37.913-21.308-59.754-24.941-46.229-7.69-87.556 3.325-123.071 33.907-28.655 24.674-45.18 56.397-49.441 93.914-4.074 35.857 4.301 69.059 24.337 99.204.776 1.167 1.383 2.446 2.068 3.674" transform="matrix(.10021008 0 0 .10021008 16.176014 36.539092)"/><path d="m0 0c-.486.062-.973.123-1.458.185-2.492 4.283-4.962 8.58-7.477 12.849-13.365 22.692-19.952 47.416-19.788 73.535.465 73.662 52.668 132.876 122.395 144.767 38.576 6.579 74.443-1.486 107.181-23.074 1.184-.782 2.429-1.468 3.647-2.2.088-.424.177-.849.264-1.274-.749-6.878-2.12-13.753-2.143-20.634-.176-52.968-.213-105.938.04-158.906.04-8.444.681-17.015 3.118-25.262-7.245.736-14.489 2.086-21.736 2.109-55.721.178-111.443.128-167.165.052-5.676-.007-11.34-.74-16.878-2.147" transform="matrix(.10021008 0 0 .10021008 16.308812 65.560925)"/><path d="m0 0c-2.079 12.684-2.369 25.462-2.342 38.287.097 45.319.029 90.64.045 135.959.003 10.322 1.244 20.532 2.993 30.688.133.307.229.627.291.957 1.784-.049 3.495.189 5.26.628 41.963 10.43 73.701 34.46 95.035 71.975 7.571 13.313 13.214 27.508 15.222 42.892.193.136.398.251.615.342 5.629.768 11.257 1.537 16.886 2.305.332-.066.647-.181.944-.345 2.605-5.074 7.47-8.575 9.695-13.917-.247-.655-.388-1.378-.755-1.956-23.521-37.014-29.636-76.805-18.485-119.116 4.045-15.351 10.131-29.945 20.078-42.614.049-.39.098-.778.147-1.168-4.004-2.868-5.909-7.482-9.174-10.991-29.523-31.736-60.99-61.544-91.48-92.32-13.405-13.53-26.185-27.754-41.39-39.412-1.124-.862-2.059-2.002-3.585-2.194" transform="matrix(.10021008 0 0 .10021008 36.829372 16.034876)"/><path d="m0 0c-.05.39-.099.778-.146 1.168.434.775.844 1.569 1.31 2.326 26.411 42.897 30.374 87.871 12.471 134.863-3.56 9.342-8.948 17.742-13.704 26.466 2.18 5.397 7.158 8.848 9.722 13.979.252.156.526.258.819.302 5.538-1.604 11.307-1.43 16.952-2.223.175-.138.345-.28.512-.427-.001-.713-.119-1.446.013-2.133 10.72-55.713 58.257-102.851 114.581-113.65.404-.276.807-.554 1.211-.83 2.037-8.864 2.944-17.927 2.981-26.939.214-51.784.202-103.57-.007-155.353-.03-7.195-.504-14.513-2.38-22.041-6.714 3.358-11.831 8.406-16.783 13.314-37.661 37.341-75.138 74.868-112.558 112.451-5.642 5.668-10.449 12.122-14.994 18.727" transform="matrix(.10021008 0 0 .10021008 51.422907 30.557021)"/><path d="m0 0c-.404.276-.808.554-1.21.83 1.343.93.825 2.095.544 3.342-5.883 26.121-17.834 49.059-36.182 68.573-21.634 23.009-47.987 37.618-78.958 43.868-.167.147-.337.289-.508.428-1.027 5.331-.93 10.858-2.814 16.039.282.578.564 1.157.844 1.735 4.407 3.345 8.814 6.688 13.222 10.032.419-.047.839-.093 1.259-.141 3.939-2.418 7.757-5.062 11.835-7.218 29.949-15.832 61.64-20.773 95.046-15.119 20.279 3.434 38.956 10.737 55.906 22.412h1.728c44.979-38.192 83.951-82.545 126.433-123.299 6.443-6.182 12.615-12.616 17.712-19.994.296-.426.467-.942.695-1.416-5.551-1.262-11.177-2.125-16.858-2.13-55.666-.051-111.333-.106-166.999.062-7.233.022-14.463 1.3-21.695 1.996" transform="matrix(.10021008 0 0 .10021008 65.827224 36.553673)"/><path d="m0 0c-58.688 8.507-108.2 56.069-120.14 115.407-15.065 74.87 28.28 147.714 101.259 170.148 6.138 1.887 12.346 3.5 18.748 4.239.486-.062.972-.122 1.457-.184 3.37-5.259 7.303-10.069 11.717-14.483 38.584-38.581 77.155-77.176 115.785-115.711 5.169-5.157 10.893-9.689 17.161-13.488-.193-2.277-2.028-3.118-3.575-4.329-4.615-3.616-9.47-7.022-13.605-11.137-38.936-38.747-77.745-77.624-116.585-116.47-4.162-4.161-7.798-8.746-10.935-13.727-.429-.088-.858-.177-1.287-.265" transform="matrix(.10021008 0 0 .10021008 16.176014 36.539092)"/><path d="m0 0c.636.014 1.272.028 1.909.04 4.966-1.986 8.217-6.431 12.822-8.933.886-6.106-.922-11.986-1.519-17.967-.217-.091-.422-.205-.615-.341-31.921-6.426-58.889-21.717-80.709-45.807-18.052-19.931-29.898-43.117-34.807-69.689-.062-.33-.159-.65-.291-.957-63.191-4.993-126.486-1.063-189.721-2.145-5.263-.09-10.632.595-15.791 2.088 3.139 4.982 6.775 9.566 10.936 13.728 38.841 38.845 77.649 77.722 116.586 116.469 4.135 4.116 8.99 7.522 13.604 11.137 1.548 1.211 3.383 2.053 3.575 4.329.761-.016 1.519-.033 2.278-.048-.34-1.585.808-2.178 1.874-2.852 28.512-18.025 59.806-25.195 93.149-22.363 24.048 2.043 46.325 10.256 66.72 23.311" transform="matrix(.10021008 0 0 .10021008 47.241871 50.966899)"/><path d="m0 0c3.8515634 27.454031 16.049376 51.345655 34.102376 71.276655 21.819 24.09 50.178683 38.229925 82.100684 44.655925-2.008-15.385-8.33706-30.01658-15.90806-43.32858-22.331468-41.128639-60.712969-70.1271843-100.66921385-73.53953463" transform="matrix(.10021008 0 0 .10021008 36.92831 36.667191)"/><path d="m0 0c4.757-8.725 10.145-17.124 13.704-26.466 17.903-46.992 16.234279-92.67262-10.1777207-135.56862-.465-.757-3.1692793-3.13866-3.6032793-3.91366-9.948 12.669-16.034 29.55528-20.079 44.90728-11.151 42.311-5.036 82.102 18.485 119.116.367.577.508 1.301.754 1.956-.001 0 .458.01.458.01z" transform="matrix(.10021008 0 0 .10021008 51.415952 47.073968)"/><path d="m0 0c.597 5.981 2.405 11.861 1.519 17.97 0 .002.393.1.393.1l.405-.01c4.425-5.65 10.793-9.503 14.57-15.754-5.63-.769-11.258-1.537-16.887-2.306" transform="matrix(.10021008 0 0 .10021008 48.565837 48.275216)"/><path d="m0 0-.459.041s-.459-.01-.458-.01c-2.224 5.342-7.089 8.843-9.694 13.917 6.776 1.07 13.554.984 20.334.031-2.565-5.131-7.542-8.583-9.723-13.979" transform="matrix(.10021008 0 0 .10021008 51.415952 47.073968)"/><path d="m0 0c30.971-6.25 57.323-20.859 78.958-43.868 18.348-19.514 31.13693-42.143289 37.01993-68.26429.281-1.247 1.15081-3.73605-.19119-4.66505-56.324999 10.799-105.05374 58.95134-115.77274 114.66434-.132.687-.015 1.42-.014 2.133" transform="matrix(.10021008 0 0 .10021008 54.222326 48.239501)"/><path d="m0 0c3.99 5.347 8.287 10.377 14.141 13.816 1.884-5.18 1.788-10.708 2.814-16.039-5.647.792-11.417.619-16.955 2.223" transform="matrix(.10021008 0 0 .10021008 52.472277 48.505098)"/><path d="m.13230458 1.4994519c16.14800042 11.7150001 34.21469542 17.2665481 53.63869542 20.8185481 31.52 5.764 62.55895 2.188 91.62195-11.714 6.36574-2.985 13.95212-5.791262 19.26512-10.40326205-16.95-11.67599995-37.49807-19.10373795-57.77707-22.53773795-33.406-5.654-65.097-.713-95.046 15.119-4.078 2.156-9.3082488 5.0205076-13.2462488 7.43850763" transform="matrix(.10021008 0 0 .10021008 55.425147 51.054683)"/><path d="m.1764061-1.4994519c-20.3950001-13.0550001-42.8484061-21.0159281-66.8964061-23.0589281-37.91498-3.702172-74.75742 6.533605-97.89197 26.337642 49.7597 32.009833 130.322863 34.023307 166.376031-1.779262" transform="matrix(.10021008 0 0 .10021008 47.241871 50.966899)"/></g><g transform="matrix(.12160158506 0 0 -.12160158506 110.75771668523 87.18301579319)"><path d="m0 0c10.295-15.579 18.663-32.038 23.041-50.329 19.689-82.256-30.355-160.695-109.388-178.906-41.682-9.605-80.239-1.874-115.898 21.38-.889.579-1.797 1.129-2.89 1.814-2.131-2.732-1.883-6.067-2.585-9.016-13.98-58.674-60.496-102.131-119.871-111.834-78.422-12.813-152.228 38.631-167.828 116.973-.278 1.398-.639 2.781-.961 4.173.08.383.16.764.24 1.145 1.526.193 2.461 1.332 3.585 2.195 15.205 11.657 27.985 25.882 41.39 39.412 30.49 30.775 61.957 60.584 91.48 92.319 3.265 3.509 5.169 8.123 9.174 10.991 4.545-6.605 9.352-13.058 14.994-18.726 37.42-37.583 74.897-75.111 112.558-112.451 4.952-4.909 10.069-9.956 16.783-13.315 1.876 7.529 2.35 14.846 2.38 22.041.209 51.783.221 103.57.007 155.354-.037 9.011-.943 18.074-2.981 26.938 7.233-.696 14.462-1.973 21.696-1.996 55.666-.168 111.333-.113 166.999-.061 5.68.004 11.306.867 16.856 2.129.407-.078.813-.154 1.219-.23" fill="url(#k)"/><path d="m0 0c10.295-15.579 18.663-32.038 23.041-50.329 19.689-82.256-30.355-160.695-109.388-178.906-41.682-9.605-80.239-1.874-115.898 21.38-.889.579-1.797 1.129-2.89 1.814-2.131-2.732-1.883-6.067-2.585-9.016l1.544 10.882c1.876 7.529 2.35 14.846 2.38 22.041.209 51.783.221 103.57.007 155.354-.037 9.011-.943 18.074-2.981 26.938 7.233-.696 14.462-1.973 21.696-1.996 55.666-.168 111.333-.113 166.999-.061 5.68.004 11.306.867 16.856 2.129.407-.078.813-.154 1.219-.23" fill="url(#i)"/></g><path d="m0 0c5.794 32.063 19.665 60.108 43.677 82.215 42.028 38.692 91.39 51.002 145.82 33.812 54.415-17.185 87.492-55.589 100.151-111.352.355-1.566.702-3.133 1.054-4.7.673-7.412 1.91-14.822 1.933-22.236.166-52.775.191-105.551-.026-158.325-.035-8.462-.883-16.993-2.953-25.299-.819-.369-1.636-.738-2.452-1.108-30.058-6.688-55.856-20.997-76.862-43.556-18.997-20.402-31.49-44.229-36.524-71.793-.242-.069-.441-.205-.588-.408-5.649-.804-10.67931-2.69846-16.33131-3.50146-7.049-.275-14.72969-.0455-21.75269 1.41246 4.79 6.618 10.115 12.918 14.276 19.91 16.801 28.245 23.778 58.695 20.314 91.591-3.552 33.727-17.172 62.727-40.754 86.723-36.903 37.552-74.347 74.574-111.663 111.719-5.155 5.132-10.663 9.967-17.054 13.622-.088.425-.177.85-.265 1.274" fill="url(#e)" transform="matrix(.12160158506 0 0 -.12160158506 50.39280256975 26.90698082536)"/><path d="m0 0c-.406.076-.812.152-1.218.23-.227.474-.398.99-.694 1.416-5.098 7.378-11.27 13.812-17.713 19.995-42.481 40.754-81.453 85.106-126.429 123.298 5.768 5.833 12.959 9.935 18.77 15.767 36.808 36.944 73.702 73.803 110.63 110.629 5.695 5.679 10.885 11.736 15.478 18.321.459.049.916.095 1.374.143 28.115-4.32 52.691-16.307 73.802-35.122 26.848-23.928 43.084-53.927 47.964-89.555 10.639-77.686-40.77-148.06-115.139-163.847-2.263-.481-4.55-.852-6.825-1.275" fill="url(#c)" transform="matrix(.12160158506 0 0 -.12160158506 110.75771668523 87.18301579319)"/><path d="m0 0c-.458-.047-.915-.094-1.373-.142-5.898 1.351-11.879 2.16-17.923 2.164-54.965.036-109.931.1-164.895-.069-7.591-.024-15.177-1.271-22.765-1.952 2.068 8.306 2.916 16.836 2.951 25.298.217 52.775.193 105.551.026 158.326-.023 7.414-1.259 14.824-1.933 22.236 19.78 13.304 41.152 22.514 64.947 25.801 38.857 5.367 74.518-3.019 106.38-25.68 32.738-23.282 52.971-55.163 59.71-94.766 6.585-38.692-1.45-74.703-23.232-107.503-.775-1.167-1.99-2.104-1.893-3.713" fill="#efe129" transform="matrix(.12160158506 0 0 -.12160158506 110.7818306935 51.94302106764)"/><path d="m0 0c.429.088.858.177 1.286.265 5.158-1.494 10.527-2.178 15.79-2.088 63.236 1.082 126.53-2.849 189.718 2.145-1.747-10.156-2.987-20.366-2.99-30.688-.016-45.32.052-90.64-.045-135.959-.028-12.825.262-25.604 2.342-38.287-.08-.382-.161-.763-.24-1.146-18.297-12.198-37.913-21.308-59.754-24.941-46.229-7.69-87.556 3.325-123.071 33.907-28.655 24.674-45.18 56.397-49.441 93.914-4.074 35.857 4.301 69.059 24.337 99.204.776 1.167 1.383 2.446 2.068 3.674" fill="url(#m)" transform="matrix(.12160158506 0 0 -.12160158506 25.36413171013 87.18147226367)"/><path d="m0 0c-.486.062-.973.123-1.458.185-2.492 4.283-4.962 8.58-7.477 12.849-13.365 22.692-19.952 47.416-19.788 73.535.465 73.662 52.668 132.876 122.395 144.767 38.576 6.579 74.443-1.486 107.181-23.074 1.184-.782 2.429-1.468 3.647-2.2.088-.424.177-.849.264-1.274-.749-6.878-2.12-13.753-2.143-20.634-.176-52.968-.213-105.938.04-158.906.04-8.444.681-17.015 3.118-25.262-7.245.736-14.489 2.086-21.736 2.109-55.721.178-111.443.128-167.165.052-5.676-.007-11.34-.74-16.878-2.147" fill="url(#q)" transform="matrix(.12160158506 0 0 -.12160158506 25.52527764768 51.9644472474)"/><path d="m0 0c-2.079 12.684-2.369 25.462-2.342 38.287.097 45.319.029 90.64.045 135.959.003 10.322 1.244 20.532 2.993 30.688.133.307.229.627.291.957 1.784-.049 3.495.189 5.26.628 41.963 10.43 73.701 34.46 95.035 71.975 7.571 13.313 13.214 27.508 15.222 42.892.193.136.398.251.615.342 5.629.768 11.257 1.537 16.886 2.305.332-.066.647-.181.944-.345 2.605-5.074 7.47-8.575 9.695-13.917-.247-.655-.388-1.378-.755-1.956-23.521-37.014-29.636-76.805-18.485-119.116 4.045-15.351 10.131-29.945 20.078-42.614.049-.39.098-.778.147-1.168-4.004-2.868-5.909-7.482-9.174-10.991-29.523-31.736-60.99-61.544-91.48-92.32-13.405-13.53-26.185-27.754-41.39-39.412-1.124-.862-2.059-2.002-3.585-2.194" fill="url(#l)" transform="matrix(.12160158506 0 0 -.12160158506 50.42629182098 112.06265353886)"/><path d="m0 0c-.05.39-.099.778-.146 1.168.434.775.844 1.569 1.31 2.326 26.411 42.897 30.374 87.871 12.471 134.863-3.56 9.342-8.948 17.742-13.704 26.466 2.18 5.397 7.158 8.848 9.722 13.979.252.156.526.258.819.302 5.538-1.604 11.307-1.43 16.952-2.223.175-.138.345-.28.512-.427-.001-.713-.119-1.446.013-2.133 10.72-55.713 58.257-102.851 114.581-113.65.404-.276.807-.554 1.211-.83 2.037-8.864 2.944-17.927 2.981-26.939.214-51.784.202-103.57-.007-155.353-.03-7.195-.504-14.513-2.38-22.041-6.714 3.358-11.831 8.406-16.783 13.314-37.661 37.341-75.138 74.868-112.558 112.451-5.642 5.668-10.449 12.122-14.994 18.727" fill="url(#j)" transform="matrix(.12160158506 0 0 -.12160158506 68.13505911941 94.440515621)"/><path d="m0 0c-.404.276-.808.554-1.21.83 1.343.93.825 2.095.544 3.342-5.883 26.121-17.834 49.059-36.182 68.573-21.634 23.009-47.987 37.618-78.958 43.868-.167.147-.337.289-.508.428-1.027 5.331-.93 10.858-2.814 16.039.282.578.564 1.157.844 1.735 4.407 3.345 8.814 6.688 13.222 10.032.419-.047.839-.093 1.259-.141 3.939-2.418 7.757-5.062 11.835-7.218 29.949-15.832 61.64-20.773 95.046-15.119 20.279 3.434 38.956 10.737 55.906 22.412h1.728c44.979-38.192 83.951-82.545 126.433-123.299 6.443-6.182 12.615-12.616 17.712-19.994.296-.426.467-.942.695-1.416-5.551-1.262-11.177-2.125-16.858-2.13-55.666-.051-111.333-.106-166.999.062-7.233.022-14.463 1.3-21.695 1.996" fill="url(#h)" transform="matrix(.12160158506 0 0 -.12160158506 85.61421669472 87.16377870718)"/><path d="m0 0c-2.437 8.247-3.078 16.818-3.119 25.261-.252 52.968-.215 105.939-.04 158.907.024 6.88 1.395 13.755 2.143 20.634 6.393-3.655 11.901-8.49 17.056-13.622 37.315-37.145 74.759-74.167 111.663-111.72 23.582-23.996 37.202-52.995 40.754-86.722 3.463-32.896-3.513-63.346-20.314-91.591-4.161-6.992-9.486-13.293-14.276-19.91-.281-.154-.578-.265-.89-.334-5.724.77-11.448 1.542-17.172 2.312-.279 1.929-.423 3.889-.855 5.783-5.341 23.385-16.021 44.203-31.624 62.247-13.999 16.186-30.76 28.993-50.456 37.881-10.62 4.793-21.717 7.847-32.87 10.874" fill="url(#f)" transform="matrix(.12160158506 0 0 -.12160158506 50.5483677744 51.96611333704)"/><path d="m0 0c-.42.048-.84.094-1.26.141-4.053 3.496-8.146 6.943-12.719 9.762-1.173 6.178 1.252 12.087 1.362 18.168.151.202.349.338.594.405 24.713 5.127 46.929 15.487 66.177 31.898 24.954 21.275 41.293 47.829 48.553 79.893.378 1.669 1.155 3.138-1.347 3.561.817.369 1.634.738 2.453 1.108 7.589.681 15.175 1.928 22.766 1.952 54.965.169 109.931.105 164.896.069 6.044-.004 12.025-.813 17.922-2.164-4.593-6.586-9.784-12.644-15.479-18.322-36.928-36.826-73.821-73.685-110.63-110.63-5.81-5.831-13.002-9.933-18.769-15.766-.58 0-1.156 0-1.732.001-5.313 4.612-11.652 7.543-17.893 10.528-29.063 13.902-59.603 17.478-91.123 11.714-19.424-3.552-37.623-10.603-53.771-22.318" fill="url(#d)" transform="matrix(.12160158506 0 0 -.12160158506 72.99164368459 69.56728740591)"/><path d="m-.61742136 1.3230458c2.50199996-.42300004 3.66546716.6658884 3.28746716-1.00311156-4.9667207-32.76962424-24.9220458-62.49893424-49.8760458-83.77393424-19.248-16.41-41.464-26.771-66.178-31.898 5.032 27.567 17.526 51.394 36.523 71.795 21.006 22.559 48.126046 40.7499342 78.1840458 47.4379342" fill="#528000" transform="matrix(.12160158506 0 0 -.12160158506 85.31721710397 52.07762242331)"/><path d="m0 0c-4.428 5.748-10.831 9.658-14.76 15.871 5.652.803 11.305 1.606 16.954 2.41-.113-6.08-2.539-11.989-1.366-18.168-.273-.069-.549-.107-.828-.113" fill="#c1dc73" transform="matrix(.12160158506 0 0 -.12160158506 71.19100365272 68.37692885038)"/><path d="m0 0c-58.688 8.507-108.2 56.069-120.14 115.407-15.065 74.87 28.28 147.714 101.259 170.148 6.138 1.887 12.346 3.5 18.748 4.239.486-.062.972-.122 1.457-.184 3.37-5.259 7.303-10.069 11.717-14.483 38.584-38.581 77.155-77.176 115.785-115.711 5.169-5.157 10.893-9.689 17.161-13.488-.193-2.277-2.028-3.118-3.575-4.329-4.615-3.616-9.47-7.022-13.605-11.137-38.936-38.747-77.745-77.624-116.585-116.47-4.162-4.161-7.798-8.746-10.935-13.727-.429-.088-.858-.177-1.287-.265" fill="url(#o)" transform="matrix(.12160158506 0 0 -.12160158506 25.36413171013 87.18147226367)"/><path d="m0 0c11.153-3.027 22.25-6.081 32.87-10.874 19.696-8.888 36.457-21.695 50.456-37.881 15.603-18.044 26.283-38.862 31.624-62.247.432-1.894.576-3.854.854-5.784.897-6.283 3.094-12.471 1.378-18.944-4.633-2.644-9.306-5.238-12.372-9.849-.635-.013-1.271-.028-1.907-.042-.826 3.731-4.397 4.371-6.99 5.924-19.36 11.597-40.593 17.332-62.864 19.701-7.449 1.767-14.898 1.766-22.345-.001-7.711-1.26-15.469-2.161-23.113-3.897-16.704-3.791-31.861-11.094-46.431-19.823-.76.015-1.517.032-2.276.048-6.269 3.799-11.994 8.332-17.162 13.488-38.63 38.536-77.201 77.131-115.785 115.712-4.414 4.414-8.347 9.223-11.717 14.483 5.539 1.407 11.203 2.14 16.879 2.147 55.722.075 111.443.126 167.165-.052 7.247-.024 14.49-1.374 21.736-2.109" fill="url(#p)" transform="matrix(.12160158506 0 0 -.12261757211 50.5483677744 51.95590322906)"/><path d="m0 0c.636.014 1.272.028 1.909.04 4.966-1.986 8.217-6.431 12.822-8.933.886-6.106-.922-11.986-1.519-17.967-.217-.091-.422-.205-.615-.341-31.921-6.426-58.889-21.717-80.709-45.807-18.052-19.931-29.898-43.117-34.807-69.689-.062-.33-.159-.65-.291-.957-63.191-4.993-126.486-1.063-189.721-2.145-5.263-.09-10.632.595-15.791 2.088 3.139 4.982 6.775 9.566 10.936 13.728 38.841 38.845 77.649 77.722 116.586 116.469 4.135 4.116 8.99 7.522 13.604 11.137 1.548 1.211 3.383 2.053 3.575 4.329.761-.016 1.519-.033 2.278-.048-.34-1.585.808-2.178 1.874-2.852 28.512-18.025 59.806-25.195 93.149-22.363 24.048 2.043 46.325 10.256 66.72 23.311" fill="url(#n)" transform="matrix(.12160158506 0 0 -.12160158506 63.06151158001 69.67381035793)"/><path d="m0 0c3.8515634 27.454031 16.049376 51.345655 34.102376 71.276655 21.819 24.09 50.178683 38.229925 82.100684 44.655925-2.008-15.385-8.33706-30.01658-15.90806-43.32858-22.331468-41.128639-60.712969-70.1271843-100.66921385-73.53953463" fill="#4a1235" transform="matrix(.12160158506 0 0 -.12160158506 50.54634977945 87.02602840568)"/><path d="m0 0c4.757-8.725 10.145-17.124 13.704-26.466 17.903-46.992 16.234279-92.67262-10.1777207-135.56862-.465-.757-3.1692793-3.13866-3.6032793-3.91366-9.948 12.669-16.034 29.55528-20.079 44.90728-11.151 42.311-5.036 82.102 18.485 119.116.367.577.508 1.301.754 1.956-.001 0 .458.01.458.01z" fill="#232160" transform="matrix(.12160158506 0 0 -.12160158506 68.1266194592 74.39775210253)"/><path d="m0 0c.597 5.981 2.405 11.861 1.519 17.97 0 .002.393.1.393.1l.405-.01c4.425-5.65 10.793-9.503 14.57-15.754-5.63-.769-11.258-1.537-16.887-2.306" fill="#aa81b8" transform="matrix(.12160158506 0 0 -.12160158506 64.66810010054 72.94007777621)"/><path d="m0 0-.459.041s-.459-.01-.458-.01c-2.224 5.342-7.089 8.843-9.694 13.917 6.776 1.07 13.554.984 20.334.031-2.565-5.131-7.542-8.583-9.723-13.979" fill="#57afc9" transform="matrix(.12160158506 0 0 -.12160158506 68.1266194592 74.39775210253)"/><path d="m0 0c30.971-6.25 57.323-20.859 78.958-43.868 18.348-19.514 31.13693-42.143289 37.01993-68.26429.281-1.247 1.15081-3.73605-.19119-4.66505-56.324999 10.799-105.05374 58.95134-115.77274 114.66434-.132.687-.015 1.42-.014 2.133" fill="#0c4120" transform="matrix(.12160158506 0 0 -.12160158506 71.53206057531 72.98341673583)"/><path d="m0 0c3.99 5.347 8.287 10.377 14.141 13.816 1.884-5.18 1.788-10.708 2.814-16.039-5.647.792-11.417.619-16.955 2.223" fill="#57afc9" transform="matrix(.12160158506 0 0 -.12160158506 69.40843456545 72.66112364727)"/><path d="m.13230458 1.4994519c16.14800042 11.7150001 34.21469542 17.2665481 53.63869542 20.8185481 31.52 5.764 62.55895 2.188 91.62195-11.714 6.36574-2.985 13.95212-5.791262 19.26512-10.40326205-16.95-11.67599995-37.49807-19.10373795-57.77707-22.53773795-33.406-5.654-65.097-.713-95.046 15.119-4.078 2.156-9.3082488 5.0205076-13.2462488 7.43850763" fill="#0a4f09" transform="matrix(.12160158506 0 0 -.12160158506 72.99164368459 69.56728740591)"/><path d="m0 0c.279.006.555.044.828.113 4.573-2.818 8.666-6.265 12.72-9.761-4.407-3.344-8.815-6.687-13.222-10.032-1.451 6.538-.913 13.109-.326 19.68" fill="#a5d27d" transform="matrix(.12160158506 0 0 -.12160158506 71.19100365272 68.37692885038)"/><path d="m0 0c1.717 6.473-1.3630305 16.013716-2.2600305 22.296716 5.726-.77 12.3310305-4.892716 18.0550305-5.663716-3.059-4.811-7.329-8.509-11.47-12.305-1.453-1.333-2.935-2.517-3.075-4.659-.417.11-.833.221-1.25.331" fill="#ed7985" transform="matrix(.12160158506 0 0 -.12160158506 64.79783666862 68.47115817227)"/><path d="m0 0c.417-.11.833-.221 1.25-.331.742-6.118.606-12.237 0-18.357 0-.003-.405.008-.405.008s-.393-.099-.393-.101c-4.604 2.5-7.856 6.945-12.822 8.931 3.065 4.612 7.737 7.206 12.37 9.85" fill="#ed5e88" transform="matrix(.12160158506 0 0 -.12160158506 64.79783666862 68.47115817227)"/><path d="m.1764061-1.4994519c-20.3950001-13.0550001-42.8484061-21.0159281-66.8964061-23.0589281-37.91498-3.702172-74.75742 6.533605-97.89197 26.337642 49.7597 32.009833 130.322863 34.023307 166.376031-1.779262" fill="#7e0804" transform="matrix(.12160158506 0 0 -.12160158506 63.06151158001 69.67381035793)"/><path d="m0 0c2.502-.423 1.725-1.892 1.347-3.561-7.26-32.064-23.599-58.618-48.553-79.893-19.248-16.41-41.900583-26.08494-66.61458-31.21194 5.032 27.566999 17.96258 50.70794 36.95958 71.10894 21.006 22.559 46.803 36.869 76.861 43.557" fill="#ab0100" transform="matrix(.12160158506 0 0 .12160158506 64.37146576324 65.88485433635)"/><path d="m0 0c4.757-8.725 10.145-17.124 13.704-26.466 17.903-46.992 13.941-91.967-12.471-134.863-.465-.757-.876-1.551-1.31-2.326-9.948 12.669-16.034 27.262-20.079 42.614-11.151 42.311-5.285476 82.361806 18.2355241 119.3758056.367.577.6327379 1.10614581 1.0034759 1.6961944-.001 0 .458.01.458.01z" fill="#a24e00" transform="matrix(.12160158506 0 0 -.1170679161 68.45234423131 45.04871907401)"/><path d="m0 0c-2.079 12.684-2.369 25.462-2.342 38.287.097 45.319.029 90.64.045 135.959.003 10.322-2.0537006 20.18453 2.27998367 29.90619 42.55902833 7.72508 84.35058333 45.41508 101.29901633 74.34181 7.571 13.313 13.93876 25.26598 15.94676 40.64998.193.136-.10618.005.11082.0963 5.629 1.0137 4.79721.95346 6.86544 1.41435 1.11225-.0382 10.29834 1.98024 10.08225 2.41914 4.24649-7.40357 5.77658-10.98277 9.02833-19.50403-23.521-37.01402-29.0626-72.55974-17.9116-114.87074 4.68533-15.17867 11.93245-30.4588 18.61509-39.9005-1.62287-3.15038-2.47346-4.1769-8.1121-13.87094-23.12874-35.32427-60.44199-62.54556-90.93199-93.32156-13.405-13.53-26.185-27.754-41.39-39.412-1.124-.862-2.059-2.002-3.585-2.194" fill="url(#g)" transform="matrix(-.12034092675 0 0 .1234697897 85.64741107356 26.70412925424)"/></g></svg>