<?xml version="1.0" encoding="UTF-8" standalone="no"?>
<!-- Created with Inkscape (http://www.inkscape.org/) -->

<svg
   xmlns:dc="http://purl.org/dc/elements/1.1/"
   xmlns:cc="http://creativecommons.org/ns#"
   xmlns:rdf="http://www.w3.org/1999/02/22-rdf-syntax-ns#"
   xmlns:svg="http://www.w3.org/2000/svg"
   xmlns="http://www.w3.org/2000/svg"
   xmlns:xlink="http://www.w3.org/1999/xlink"
   xmlns:sodipodi="http://sodipodi.sourceforge.net/DTD/sodipodi-0.dtd"
   xmlns:inkscape="http://www.inkscape.org/namespaces/inkscape"
   version="1.1"
   id="svg2"
   width="170.66667"
   height="170.66667"
   viewBox="0 0 170.66667 170.66667"
   sodipodi:docname="ximian-evolution-calendar.svg"
   inkscape:version="0.92.2 2405546, 2018-03-11">
  <metadata
     id="metadata8">
    <rdf:RDF>
      <cc:Work
         rdf:about="">
        <dc:format>image/svg+xml</dc:format>
        <dc:type
           rdf:resource="http://purl.org/dc/dcmitype/StillImage" />
        <dc:title></dc:title>
      </cc:Work>
    </rdf:RDF>
  </metadata>
  <defs
     id="defs6">
    <linearGradient
       inkscape:collect="always"
       id="linearGradient1399">
      <stop
         style="stop-color:#69777e;stop-opacity:1"
         offset="0"
         id="stop1395" />
      <stop
         style="stop-color:#7c8a8e;stop-opacity:1"
         offset="1"
         id="stop1397" />
    </linearGradient>
    <linearGradient
       inkscape:collect="always"
       id="linearGradient1248">
      <stop
         style="stop-color:#a6a7a7;stop-opacity:1"
         offset="0"
         id="stop1268" />
      <stop
         style="stop-color:#686760;stop-opacity:0"
         offset="1"
         id="stop1270" />
    </linearGradient>
    <linearGradient
       id="linearGradient1248-7"
       inkscape:collect="always">
      <stop
         id="stop1261"
         offset="0"
         style="stop-color:#acafac;stop-opacity:1;" />
      <stop
         id="stop1263"
         offset="1"
         style="stop-color:#686760;stop-opacity:1" />
    </linearGradient>
    <linearGradient
       inkscape:collect="always"
       xlink:href="#linearGradient1248-7"
       id="linearGradient1250"
       x1="97.103302"
       y1="147.87509"
       x2="98.018387"
       y2="154.38356"
       gradientUnits="userSpaceOnUse" />
    <linearGradient
       inkscape:collect="always"
       xlink:href="#linearGradient1248"
       id="linearGradient1273"
       gradientUnits="userSpaceOnUse"
       x1="45.035503"
       y1="158.36098"
       x2="96.93364"
       y2="153.6604" />
    <linearGradient
       inkscape:collect="always"
       xlink:href="#linearGradient1248"
       id="linearGradient1281"
       gradientUnits="userSpaceOnUse"
       x1="137.23889"
       y1="132.68866"
       x2="96.93364"
       y2="153.6604" />
    <filter
       inkscape:collect="always"
       style="color-interpolation-filters:sRGB"
       id="filter1342"
       x="-0.022498218"
       width="1.0449964"
       y="-0.020770749"
       height="1.0415415">
      <feGaussianBlur
         inkscape:collect="always"
         stdDeviation="1.2103751"
         id="feGaussianBlur1344" />
    </filter>
    <linearGradient
       inkscape:collect="always"
       xlink:href="#linearGradient1399"
       id="linearGradient1401"
       x1="140.71425"
       y1="213.09308"
       x2="157.68481"
       y2="213.44662"
       gradientUnits="userSpaceOnUse"
       gradientTransform="matrix(1.0732035,0,0,1.0732035,-149.6394,13.608154)" />
    <filter
       inkscape:collect="always"
       style="color-interpolation-filters:sRGB"
       id="filter1409"
       x="-0.0094774002"
       width="1.0189548"
       y="-0.0097258133"
       height="1.0194516">
      <feGaussianBlur
         inkscape:collect="always"
         stdDeviation="0.57345633"
         id="feGaussianBlur1411" />
    </filter>
  </defs>
  <sodipodi:namedview
     pagecolor="#ffffff"
     bordercolor="#666666"
     borderopacity="1"
     objecttolerance="10"
     gridtolerance="10"
     guidetolerance="10"
     inkscape:pageopacity="0"
     inkscape:pageshadow="2"
     inkscape:window-width="1920"
     inkscape:window-height="1031"
     id="namedview4"
     showgrid="false"
     inkscape:zoom="0.70710678"
     inkscape:cx="42.05894"
     inkscape:cy="139.23027"
     inkscape:window-x="0"
     inkscape:window-y="26"
     inkscape:window-maximized="1"
     inkscape:current-layer="svg2" />
  <path
     sodipodi:nodetypes="ccccccc"
     inkscape:connector-curvature="0"
     id="path1351"
     d="M 16.183571,38.653596 135.86906,20.276837 c 2.80624,-0.439258 2.83191,-0.53471 3.61582,3.615819 L 158.93503,142.13315 33.079271,161.58204 14.014081,43.715743 c -0.55115,-3.787698 -0.59393,-4.487634 2.16949,-5.062147 z"
     style="fill:#000000;fill-opacity:0.475;stroke:none;stroke-width:1px;stroke-linecap:butt;stroke-linejoin:miter;stroke-opacity:1;filter:url(#filter1409)"
     transform="matrix(1.0732035,0,0,1.0732035,-6.9033379,-8.929119)" />
  <path
     style="fill:url(#linearGradient1401);fill-opacity:1;stroke:none;stroke-width:1.07320344px;stroke-linecap:butt;stroke-linejoin:miter;stroke-opacity:1"
     d="m 11.01371,32.622654 127.28072,-19.7906 c 3.01167,-0.471414 3.03922,-0.573853 3.88051,3.880509 L 162.35359,140.50083 28.087948,160.67948 8.685405,38.055367 C 8.093909,33.990397 8.047998,33.239223 11.01371,32.622654 Z"
     id="path1288"
     inkscape:connector-curvature="0"
     sodipodi:nodetypes="ccccccc" />
  <path
     sodipodi:nodetypes="ccccc"
     inkscape:connector-curvature="0"
     id="path1324"
     d="M 19.383881,38.0043 131.6261,20.106907 149.01781,132.63887 38.031281,152.54761 Z"
     style="opacity:1;fill:#000000;fill-opacity:0.7125;stroke:none;stroke-width:1px;stroke-linecap:butt;stroke-linejoin:miter;stroke-opacity:1;filter:url(#filter1342)"
     transform="matrix(1.0732035,0,0,1.0732035,-6.9033379,-8.929119)" />
  <path
     style="opacity:1;fill:#000000;fill-opacity:0.22083333;stroke:none;stroke-width:1px;stroke-linecap:butt;stroke-linejoin:miter;stroke-opacity:1;filter:url(#filter1342)"
     d="M 27.883881,38.7543 125.6261,20.856907 147.76781,138.63887 39.781281,156.04761 Z"
     id="path1403"
     inkscape:connector-curvature="0"
     sodipodi:nodetypes="ccccc"
     transform="matrix(1.0732035,0,0,1.0732035,-6.9033379,-8.929119)" />
  <path
     style="opacity:1;fill:#fafafa;fill-opacity:1;stroke:none;stroke-width:1.07320344px;stroke-linecap:butt;stroke-linejoin:miter;stroke-opacity:1"
     d="M 14.72269,23.899818 131.88871,4.692273 151.64504,125.42541 32.009487,145.18173 Z"
     id="path1235"
     inkscape:connector-curvature="0"
     sodipodi:nodetypes="ccccc" />
  <path
     style="fill:#e8574f;fill-opacity:1;stroke:none;stroke-width:1.07320344px;stroke-linecap:butt;stroke-linejoin:miter;stroke-opacity:1"
     d="M 131.88842,4.6932464 14.72269,23.899818 19.960846,60.652844 138.03838,42.274234 Z"
     id="path1237"
     inkscape:connector-curvature="0" />
  <g
     id="g1286"
     transform="matrix(1.0732035,0,0,1.0732035,-12.442258,-22.886699)">
    <path
       sodipodi:nodetypes="ccccc"
       inkscape:connector-curvature="0"
       id="path1242"
       d="m 41.41968,156.60444 1.789739,6.39193 109.301941,-19.43146 0.3835,-5.36921 c -36.6499,4.98241 -74.488967,12.7972 -111.47518,18.40874 z"
       style="fill:url(#linearGradient1250);fill-opacity:1;stroke:none;stroke-width:1px;stroke-linecap:butt;stroke-linejoin:miter;stroke-opacity:1" />
    <path
       style="fill:url(#linearGradient1273);fill-opacity:1;stroke:none;stroke-width:1px;stroke-linecap:butt;stroke-linejoin:miter;stroke-opacity:1"
       d="m 41.41968,156.60444 1.789739,6.39193 109.301941,-19.43146 0.3835,-5.36921 c -36.6499,7.22133 -74.488967,13.87793 -111.47518,18.40874 z"
       id="path1266"
       inkscape:connector-curvature="0"
       sodipodi:nodetypes="ccccc" />
    <path
       sodipodi:nodetypes="ccccc"
       inkscape:connector-curvature="0"
       id="path1279"
       d="m 41.41968,156.60444 1.789739,6.39193 109.301941,-19.43146 0.3835,-5.36921 c -36.6499,7.22133 -74.488967,13.87793 -111.47518,18.40874 z"
       style="fill:url(#linearGradient1281);fill-opacity:1;stroke:none;stroke-width:1px;stroke-linecap:butt;stroke-linejoin:miter;stroke-opacity:1" />
  </g>
  <path
     style="fill:#ffffff;fill-opacity:0.25;stroke:none;stroke-width:1.07320344px;stroke-linecap:butt;stroke-linejoin:miter;stroke-opacity:1"
     d="m 140.05218,12.612507 c -0.35854,0.0051 -0.83155,0.07812 -1.39181,0.165591 l 21.74285,128.015152 1.94937,-0.29345 -20.17706,-123.787321 c -0.63098,-3.340771 -0.80562,-4.118862 -2.12335,-4.099972 z"
     id="path1346"
     inkscape:connector-curvature="0" />
  <path
     style="fill:#1f2427;fill-opacity:1;stroke:none;stroke-width:1.07320344px;stroke-linecap:butt;stroke-linejoin:miter;stroke-opacity:1"
     d="m 28.087948,160.67948 1.314406,1.78955 132.708316,-20.5019 0.24192,-1.46733 z"
     id="path1385"
     inkscape:connector-curvature="0"
     sodipodi:nodetypes="ccccc" />
  <path
     style="fill:#525252;fill-opacity:1;stroke:none;stroke-width:1.07320344px;stroke-linecap:butt;stroke-linejoin:miter;stroke-opacity:1"
     d="m 56.201071,82.013075 0.134151,2.414708 13.280893,-1.207354 6.841672,38.903621 3.756212,-0.67075 -7.914875,-52.184516 -3.756213,0.670752 c 0.891693,10.666559 -6.067828,10.578354 -12.34184,12.073539 z"
     id="path1413"
     inkscape:connector-curvature="0"
     sodipodi:nodetypes="cccccccc" />
  <path
     style="fill:#525252;fill-opacity:1;stroke:none;stroke-width:1.07320344px;stroke-linecap:butt;stroke-linejoin:miter;stroke-opacity:1"
     d="M 85.848318,67.658978 V 71.28104 L 114.01991,67.524828 C 98.032,92.982543 100.73083,108.86282 101.14147,117.96539 l 4.69526,-0.5366 c -2.99241,-21.959869 4.53462,-36.271663 12.74429,-50.038112 l -0.5366,-5.366018 z"
     id="path1415"
     inkscape:connector-curvature="0"
     sodipodi:nodetypes="cccccccc" />
  <path
     style="font-style:normal;font-weight:normal;font-size:2.93219209px;line-height:1.25;font-family:sans-serif;letter-spacing:0px;word-spacing:0px;fill:#ffffff;fill-opacity:1;stroke:none;stroke-width:0.60546196"
     d="m 65.266519,23.693782 0.5237,2.789515 -1.859675,0.349133 0.314156,1.673367 1.859675,-0.349132 1.902746,10.13506 -2.13857,0.401492 0.314157,1.673367 11.529532,-2.164542 -0.314156,-1.673366 -1.766521,0.331645 -1.902746,-10.135062 1.859109,-0.349027 -0.314158,-1.673367 -1.859107,0.349027 -0.523699,-2.789514 -1.859678,0.349133 0.523701,2.789515 -3.905089,0.733137 -0.523701,-2.789514 z m -23.233242,4.939234 1.605972,8.554281 7.345547,-1.379045 0.41898,2.231723 -5.206975,0.977551 0.295883,-1.499758 -1.888729,-0.319297 c -0.39472,1.999192 -1.25812,3.893742 -2.590465,5.683957 l 1.917779,0.98773 c 0.666168,-0.895133 1.216182,-1.896561 1.649849,-3.004696 l 6.136815,-1.15212 0.401492,2.13857 -7.252393,1.361557 0.314156,1.673366 7.252393,-1.361556 0.418981,2.231724 -9.484118,1.780538 0.331645,1.766522 20.455863,-3.840362 -0.331646,-1.766522 -9.019482,1.693308 -0.418982,-2.231724 7.438703,-1.396534 -0.314155,-1.673367 -7.438703,1.396535 -0.401494,-2.138569 8.182233,-1.536124 -0.314263,-1.673936 -8.182232,1.536123 -0.418875,-2.231154 6.9735,-1.309198 -1.60597,-8.554281 z m 41.782817,-7.651385 -7.90323,1.484331 2.024845,10.785436 c 0.5935,3.161301 0.390533,6.183157 -0.60837,9.065849 l 1.90086,0.894468 c 0.809147,-2.526209 1.100906,-5.243839 0.875526,-8.153393 l 4.27714,-0.802985 0.837856,4.462881 c 0.162926,0.867834 -0.0038,1.348485 -0.499685,1.441582 -0.557874,0.104738 -1.350052,0.156869 -2.376774,0.1569 l 0.831715,1.864926 c 0.95306,-0.05063 1.708261,-0.127835 2.266136,-0.232566 0.743834,-0.139646 1.261298,-0.461357 1.551728,-0.965207 0.290452,-0.50374 0.354083,-1.189767 0.191167,-2.057547 z m 4.567597,-0.280067 0.331645,1.766522 7.438134,-1.396427 -0.254025,5.822766 -5.300132,0.995041 0.331645,1.766521 4.928085,-0.925195 -0.230399,8.513876 -4.928081,0.925192 0.331645,1.766523 20.827332,-3.910103 -0.33163,-1.766522 -2.97526,0.55857 -1.86776,-9.94875 -8.925771,1.675714 0.254025,-5.822765 9.669866,-1.815409 -0.33166,-1.766522 z m -44.176476,9.256254 12.551957,-2.356492 0.349026,1.859108 -12.551956,2.356492 z m 33.990016,-6.092525 4.090833,-0.768008 0.733137,3.905089 -4.090832,0.76801 z m -10.233179,3.942237 3.90509,-0.733136 0.436363,2.324307 -3.90509,0.733138 z m -23.128525,5.497024 12.551958,-2.356491 0.349133,1.859674 -12.551958,2.356492 z m 34.408998,-3.860802 4.090833,-0.768008 0.733137,3.905091 -4.090832,0.768007 z m -10.547336,2.268868 3.90509,-0.733137 0.436363,2.324311 -3.90509,0.733138 z m 29.021531,-3.330962 7.43813,-1.396427 1.53611,8.182232 -9.20464,1.728072 z m -28.288394,7.236053 3.90509,-0.733137 0.436471,2.32488 -3.90509,0.733137 z m 0.559068,4.515809 c -0.646701,1.340635 -1.595896,2.609446 -2.847015,3.806901 l 1.691247,1.318985 c 1.189133,-1.185819 2.165089,-2.652683 2.927929,-4.400129 z m 4.46288,-0.837856 -1.313167,1.208555 c 0.980378,0.778518 1.811367,1.617484 2.49345,2.516152 l 1.33055,-1.115969 c -0.693726,-0.960688 -1.530465,-1.830276 -2.510833,-2.608738 z"
     id="path866-5"
     inkscape:connector-curvature="0" />
</svg>
