<?xml version="1.0" encoding="UTF-8" standalone="no"?>
<svg
   xmlns:dc="http://purl.org/dc/elements/1.1/"
   xmlns:cc="http://creativecommons.org/ns#"
   xmlns:rdf="http://www.w3.org/1999/02/22-rdf-syntax-ns#"
   xmlns:svg="http://www.w3.org/2000/svg"
   xmlns="http://www.w3.org/2000/svg"
   xmlns:xlink="http://www.w3.org/1999/xlink"
   xmlns:sodipodi="http://sodipodi.sourceforge.net/DTD/sodipodi-0.dtd"
   xmlns:inkscape="http://www.inkscape.org/namespaces/inkscape"
   height="136.53333"
   viewBox="0 0 136.53333 136.53333"
   width="136.53333"
   version="1.1"
   id="svg59"
   sodipodi:docname="x-plane.svg"
   inkscape:version="0.92.4 5da689c313, 2019-01-14">
  <metadata
     id="metadata65">
    <rdf:RDF>
      <cc:Work
         rdf:about="">
        <dc:format>image/svg+xml</dc:format>
        <dc:type
           rdf:resource="http://purl.org/dc/dcmitype/StillImage" />
        <dc:title></dc:title>
      </cc:Work>
    </rdf:RDF>
  </metadata>
  <defs
     id="defs63">
    <linearGradient
       inkscape:collect="always"
       id="linearGradient903">
      <stop
         style="stop-color:#2c3b42;stop-opacity:1"
         offset="0"
         id="stop899" />
      <stop
         style="stop-color:#000203;stop-opacity:1"
         offset="1"
         id="stop901" />
    </linearGradient>
    <linearGradient
       inkscape:collect="always"
       id="linearGradient857">
      <stop
         style="stop-color:#f1f1f1;stop-opacity:1"
         offset="0"
         id="stop853" />
      <stop
         style="stop-color:#d9dad9;stop-opacity:1"
         offset="1"
         id="stop855" />
    </linearGradient>
    <linearGradient
       inkscape:collect="always"
       xlink:href="#linearGradient857"
       id="linearGradient859"
       x1="73.908607"
       y1="8.693965"
       x2="79.908531"
       y2="137.96426"
       gradientUnits="userSpaceOnUse" />
    <linearGradient
       inkscape:collect="always"
       xlink:href="#linearGradient903"
       id="linearGradient905"
       x1="65.799156"
       y1="12.252974"
       x2="73.030792"
       y2="128.82698"
       gradientUnits="userSpaceOnUse" />
  </defs>
  <sodipodi:namedview
     pagecolor="#ffffff"
     bordercolor="#666666"
     borderopacity="1"
     objecttolerance="10"
     gridtolerance="10"
     guidetolerance="10"
     inkscape:pageopacity="0"
     inkscape:pageshadow="2"
     inkscape:window-width="1920"
     inkscape:window-height="1031"
     id="namedview61"
     showgrid="false"
     inkscape:zoom="3.4570315"
     inkscape:cx="-7.2055733"
     inkscape:cy="55.207593"
     inkscape:window-x="0"
     inkscape:window-y="26"
     inkscape:window-maximized="1"
     inkscape:current-layer="svg59"
     showguides="false" />
  <linearGradient
     id="a">
    <stop
       offset="0"
       stop-color="#9760ef"
       id="stop2" />
    <stop
       offset="1"
       stop-color="#c054f2"
       stop-opacity="0"
       id="stop4" />
  </linearGradient>
  <linearGradient
     id="b">
    <stop
       offset="0"
       stop-color="#17c7e7"
       id="stop7" />
    <stop
       offset="1"
       stop-color="#c054f2"
       stop-opacity="0"
       id="stop9" />
  </linearGradient>
  <linearGradient
     id="c"
     gradientUnits="userSpaceOnUse"
     x1="62.04421"
     x2="66.81698"
     y1="5.831234"
     y2="47.148641">
    <stop
       offset="0"
       stop-color="#e83c2b"
       id="stop12"
       style="stop-color:#2b97e8;stop-opacity:1" />
    <stop
       style="stop-color:#43c3d6;stop-opacity:0.94901961;"
       id="stop874"
       stop-color="#e83c2b"
       offset="0.36997908" />
    <stop
       id="stop872"
       stop-color="#e83c2b"
       offset="0.51604301"
       style="stop-color:#47cbd4;stop-opacity:0.94509804" />
    <stop
       style="stop-color:#57bad8;stop-opacity:0.9372549;"
       offset="0.67000127"
       stop-color="#e83c2b"
       id="stop876" />
    <stop
       offset="1"
       stop-color="#c054f2"
       stop-opacity=".792157"
       id="stop14"
       style="stop-color:#c054f2;stop-opacity:0.89560437" />
  </linearGradient>
  <linearGradient
     id="d"
     gradientUnits="userSpaceOnUse"
     x1="88.22553"
     x2="38.18116"
     xlink:href="#b"
     y1="119.556361"
     y2="35.285226"
     gradientTransform="translate(-227.27608,-22.607353)" />
  <linearGradient
     id="e"
     gradientUnits="userSpaceOnUse"
     x1="61.6262"
     x2="95.3216"
     y1="48.640058"
     y2="103.021981">
    <stop
       offset="0"
       stop-color="#f66456"
       id="stop18" />
    <stop
       offset="1"
       stop-color="#d9493e"
       stop-opacity="0"
       id="stop20" />
  </linearGradient>
  <linearGradient
     id="f"
     gradientUnits="userSpaceOnUse"
     x1="32.31499"
     x2="61.76681"
     xlink:href="#a"
     y1="92.483823"
     y2="57.318029" />
  <linearGradient
     id="g"
     gradientUnits="userSpaceOnUse"
     x1="96.53194"
     x2="61.76681"
     xlink:href="#b"
     y1="97.690601"
     y2="59.053621" />
  <linearGradient
     id="h"
     gradientUnits="userSpaceOnUse"
     x1="139.34325"
     x2="61.76681"
     xlink:href="#a"
     y1="-7.023515"
     y2="59.053621" />
  <filter
     id="i"
     color-interpolation-filters="sRGB"
     height="1.108812"
     width="1.139866"
     x="-.069933"
     y="-.054406">
    <feGaussianBlur
       stdDeviation="1.9764485"
       id="feGaussianBlur26" />
  </filter>
  <path
     style="color:#000000;font-style:normal;font-variant:normal;font-weight:normal;font-stretch:normal;font-size:medium;line-height:normal;font-family:sans-serif;font-variant-ligatures:normal;font-variant-position:normal;font-variant-caps:normal;font-variant-numeric:normal;font-variant-alternates:normal;font-feature-settings:normal;text-indent:0;text-align:start;text-decoration:none;text-decoration-line:none;text-decoration-style:solid;text-decoration-color:#000000;letter-spacing:normal;word-spacing:normal;text-transform:none;writing-mode:lr-tb;direction:ltr;text-orientation:mixed;dominant-baseline:auto;baseline-shift:baseline;text-anchor:start;white-space:normal;shape-padding:0;clip-rule:nonzero;display:inline;overflow:visible;visibility:visible;opacity:1;isolation:auto;mix-blend-mode:normal;color-interpolation:sRGB;color-interpolation-filters:linearRGB;solid-color:#000000;solid-opacity:1;vector-effect:none;fill:url(#linearGradient859);fill-opacity:1;fill-rule:nonzero;stroke:none;stroke-width:6;stroke-linecap:butt;stroke-linejoin:miter;stroke-miterlimit:4;stroke-dasharray:none;stroke-dashoffset:0;stroke-opacity:1;color-rendering:auto;image-rendering:auto;shape-rendering:auto;text-rendering:auto;enable-background:accumulate"
     d="m 68.113281,2.2167969 c -36.979431,0 -67.0214841,30.0420531 -67.0214841,67.0214841 0,36.979429 30.0420531,67.021489 67.0214841,67.021489 36.979429,0 67.021489,-30.04206 67.021489,-67.021489 0,-36.979431 -30.04206,-67.0214841 -67.021489,-67.0214841 z"
     id="circle29"
     inkscape:connector-curvature="0"
     sodipodi:nodetypes="sssss" />
  <path
     style="opacity:1;fill:url(#linearGradient905);fill-opacity:1;stroke:none;stroke-width:9.32212925;stroke-linecap:round;stroke-linejoin:round;stroke-miterlimit:4;stroke-dasharray:none;stroke-dashoffset:0;stroke-opacity:1;paint-order:fill markers stroke"
     id="path897"
     sodipodi:type="arc"
     sodipodi:cx="68.113281"
     sodipodi:cy="69.238281"
     sodipodi:rx="60.167229"
     sodipodi:ry="60.167229"
     sodipodi:start="0"
     sodipodi:end="6.2799564"
     sodipodi:open="true"
     d="M 128.28051,69.238281 A 60.167229,60.167229 0 0 1 68.16185,129.40549 60.167229,60.167229 0 0 1 7.946131,69.335418 60.167229,60.167229 0 0 1 67.967576,9.071229 60.167229,60.167229 0 0 1 128.2802,69.044007" />
  <path
     style="fill:#fcfcfc;fill-opacity:1;stroke-width:2.31202531"
     id="path869-2"
     d="m 96.226723,49.939447 c 2.65733,-3.556983 4.247827,-7.250021 4.255557,-9.888414 -0.004,-0.854379 -0.17458,-1.522069 -0.500657,-2.019459 -0.0342,-0.0609 -0.12827,-0.220036 -0.29397,-0.376898 -0.16488,-0.16346 -0.31289,-0.250899 -0.34496,-0.268582 -0.5217,-0.348228 -1.19257,-0.516202 -2.04717,-0.516202 -2.631821,0.004 -6.325903,1.593908 -9.883951,4.255567 -2.875973,2.152112 -5.752156,5.182939 -9.733646,9.379919 -0.675412,0.711795 -1.386154,1.460186 -2.137832,2.244991 l -7.711962,-2.311327 0.02316,-0.02197 c 0.320518,-0.323892 0.502989,-0.76933 0.498546,-1.20706 0.0044,-0.462046 -0.18235,-0.907505 -0.504046,-1.228018 L 66.45308,46.587075 c -0.321681,-0.323912 -0.766066,-0.509548 -1.225789,-0.509548 -0.464274,0 -0.897552,0.179044 -1.221453,0.506269 l -2.083567,2.084724 -1.103187,-0.329395 c 0.237687,-0.301799 0.369174,-0.678695 0.364733,-1.050089 0.0044,-0.468721 -0.176847,-0.905279 -0.502885,-1.229171 l -1.399376,-1.399392 c -0.319457,-0.320513 -0.761621,-0.504045 -1.225787,-0.504045 -0.462053,0 -0.894274,0.180245 -1.214789,0.506272 l -1.912203,1.911144 -7.841329,-2.348854 c -0.17569,-0.05199 -0.361455,-0.07951 -0.560428,-0.07951 -0.557041,0.006 -1.073251,0.213353 -1.45015,0.586969 l -2.756756,2.757817 c -0.3129,0.312785 -0.488603,0.73613 -0.485217,1.137343 -0.0099,0.591322 0.317237,1.137367 0.841169,1.418107 l 16.489563,9.211945 c 0.08069,0.04531 0.313957,0.217793 0.400167,0.304004 l 4.70101,4.699954 c -4.397101,4.632463 -8.314486,9.119165 -11.367322,13.022054 -0.285187,0.362613 -0.554928,0.716245 -0.820226,1.0667 L 39.3225,77.191889 c -0.06189,-0.0081 -0.1316,-0.01404 -0.220012,-0.01404 -0.584758,0.0122 -1.156186,0.243294 -1.580577,0.653307 l -1.285556,1.28438 c -0.317234,0.310681 -0.496325,0.730629 -0.49188,1.136312 -0.0099,0.619018 0.364731,1.191504 0.927381,1.442422 l 8.97424,4.262225 c 0.07731,0.03863 0.278521,0.181262 0.343786,0.246467 l 0.745016,0.739532 c -0.233248,0.656563 -0.351511,1.225771 -0.358174,1.725488 -0.0023,0.668642 0.213353,1.241228 0.625693,1.653568 l 0.03204,0.02773 0.0088,0.006 c 0.423333,0.410113 0.971595,0.619036 1.650286,0.619036 0.488603,-0.0081 1.052309,-0.123814 1.711111,-0.355856 l 0.756019,0.754967 c 0.05862,0.06192 0.198973,0.258628 0.235468,0.337121 l 4.253346,8.954462 c 0.259797,0.57142 0.82012,0.94166 1.430262,0.94166 h 0.0088 c 0.422278,0 0.825726,-0.16913 1.134077,-0.47856 l 1.316444,-1.320865 c 0.390122,-0.41119 0.620087,-0.97817 0.628868,-1.57615 0,-0.0728 -0.0033,-0.12926 -0.0055,-0.16043 L 59.000709,85.267434 c 0.349287,-0.263079 0.70302,-0.533884 1.066588,-0.816851 3.908498,-3.057389 8.396255,-6.978162 13.019834,-11.368588 l 4.704394,4.708836 c 0.07627,0.07283 0.254191,0.306229 0.306237,0.40344 l 9.194269,16.459744 c 0.280742,0.53163 0.821283,0.85998 1.420425,0.85998 0.427778,0 0.834505,-0.16913 1.146243,-0.48299 l 2.776535,-2.774524 c 0.360397,-0.376796 0.562651,-0.888671 0.568151,-1.447924 0,-0.187945 -0.02645,-0.370241 -0.0751,-0.541615 l -2.348868,-7.843545 1.911037,-1.914423 c 0.321681,-0.319562 0.504153,-0.763845 0.504153,-1.220291 0,-0.458768 -0.178026,-0.889821 -0.501823,-1.218164 l -1.401597,-1.400443 c -0.320517,-0.321667 -0.763845,-0.505099 -1.22029,-0.505099 -0.386842,0 -0.764798,0.12926 -1.060031,0.362614 l -0.328357,-1.098744 2.08579,-2.085795 c 0.320515,-0.321666 0.502988,-0.766052 0.502988,-1.223669 0,-0.460893 -0.178027,-0.892998 -0.502988,-1.216911 l -1.395036,-1.39502 C 89.051671,69.181315 88.60517,68.99673 88.146395,68.99673 c -0.460886,0 -0.907493,0.186719 -1.222509,0.508495 l -0.01434,0.01404 -2.310258,-7.710892 c 0.798119,-0.760469 1.555192,-1.484524 2.279263,-2.166497 4.182049,-3.968372 7.201778,-6.83345 9.348282,-9.702859 z"
     inkscape:connector-curvature="0" />
</svg>
