<?xml version="1.0" encoding="UTF-8" standalone="no"?>
<!-- Created with Inkscape (http://www.inkscape.org/) -->

<svg
   xmlns:dc="http://purl.org/dc/elements/1.1/"
   xmlns:cc="http://creativecommons.org/ns#"
   xmlns:rdf="http://www.w3.org/1999/02/22-rdf-syntax-ns#"
   xmlns:svg="http://www.w3.org/2000/svg"
   xmlns="http://www.w3.org/2000/svg"
   xmlns:xlink="http://www.w3.org/1999/xlink"
   xmlns:sodipodi="http://sodipodi.sourceforge.net/DTD/sodipodi-0.dtd"
   xmlns:inkscape="http://www.inkscape.org/namespaces/inkscape"
   version="1.1"
   id="svg2"
   width="128"
   height="128"
   viewBox="0 0 128 128"
   sodipodi:docname="zeroinstall.svg"
   inkscape:version="0.92.4 5da689c313, 2019-01-14">
  <metadata
     id="metadata8">
    <rdf:RDF>
      <cc:Work
         rdf:about="">
        <dc:format>image/svg+xml</dc:format>
        <dc:type
           rdf:resource="http://purl.org/dc/dcmitype/StillImage" />
        <dc:title />
      </cc:Work>
    </rdf:RDF>
  </metadata>
  <defs
     id="defs6">
    <linearGradient
       inkscape:collect="always"
       id="linearGradient833">
      <stop
         style="stop-color:#1174f7;stop-opacity:1"
         offset="0"
         id="stop829" />
      <stop
         style="stop-color:#02bffd;stop-opacity:1"
         offset="1"
         id="stop831" />
    </linearGradient>
    <linearGradient
       inkscape:collect="always"
       id="linearGradient823">
      <stop
         style="stop-color:#012fcc;stop-opacity:1"
         offset="0"
         id="stop819" />
      <stop
         style="stop-color:#01c2fe;stop-opacity:1"
         offset="1"
         id="stop821" />
    </linearGradient>
    <linearGradient
       inkscape:collect="always"
       xlink:href="#linearGradient823"
       id="linearGradient825"
       x1="-741.83197"
       y1="959.04749"
       x2="-741.83197"
       y2="93.836403"
       gradientUnits="userSpaceOnUse"
       gradientTransform="matrix(0.13667801,0,0,0.13667801,162.31231,-5.989337)" />
    <linearGradient
       inkscape:collect="always"
       xlink:href="#linearGradient833"
       id="linearGradient835"
       x1="-738.76385"
       y1="931.43433"
       x2="-738.76385"
       y2="152.13077"
       gradientUnits="userSpaceOnUse"
       gradientTransform="matrix(0.13667801,0,0,0.13667801,162.31231,-5.989337)" />
  </defs>
  <sodipodi:namedview
     pagecolor="#ffffff"
     bordercolor="#666666"
     borderopacity="1"
     objecttolerance="10"
     gridtolerance="10"
     guidetolerance="10"
     inkscape:pageopacity="0"
     inkscape:pageshadow="2"
     inkscape:window-width="1920"
     inkscape:window-height="1030"
     id="namedview4"
     showgrid="false"
     inkscape:zoom="2.6074563"
     inkscape:cx="45.175392"
     inkscape:cy="42.694467"
     inkscape:window-x="0"
     inkscape:window-y="26"
     inkscape:window-maximized="1"
     inkscape:current-layer="svg2" />
  <circle
     style="opacity:1;fill:url(#linearGradient825);fill-opacity:1;stroke:none;stroke-width:0.78699166;stroke-linecap:round;stroke-linejoin:round;stroke-miterlimit:4;stroke-dasharray:none;stroke-opacity:1"
     id="path817"
     cx="63.591888"
     cy="64.286316"
     r="61.380009" />
  <circle
     r="55.089832"
     cy="64.286316"
     cx="63.591888"
     id="circle827"
     style="opacity:1;fill:url(#linearGradient835);fill-opacity:1;stroke:none;stroke-width:0.70634133;stroke-linecap:round;stroke-linejoin:round;stroke-miterlimit:4;stroke-dasharray:none;stroke-opacity:1" />
  <g
     id="g990"
     transform="translate(-184.81489,23.065977)"
     style="opacity:0.401">
    <g
       style="fill:none"
       transform="translate(23.864407,17.355932)"
       id="g963">
      <path
         style="opacity:1;fill:none;fill-opacity:1;stroke:#000000;stroke-width:0.1;stroke-linecap:round;stroke-linejoin:round;stroke-miterlimit:4;stroke-dasharray:none;stroke-opacity:0.01176471"
         d="m 217.88493,-12.488283 c -1.06882,0 -1.30941,0.04677 -2.01385,0.392625 -1.02063,0.501129 -1.88304,1.364676 -2.33631,2.3392061 -0.48141,1.035022 -0.56864,2.618444 -0.19789,3.592249 0.14088,0.370022 1.42968,2.698881 2.86401,5.17536295 1.43434,2.47648705 2.61124,4.59572205 2.61541,4.70942105 0.004,0.113693 -3.53112,6.3349679 -7.85621,13.8249749 l -7.86383,13.618157 -7.13903,0.03914 -7.13902,0.03914 -0.80733,0.376592 c -1.0516,0.490669 -1.97045,1.4053 -2.44512,2.434078 -0.32158,0.696997 -0.37947,0.996455 -0.38001,1.966024 0,0.971639 0.0562,1.265186 0.37633,1.951044 0.63763,1.365989 1.89874,2.419095 3.28924,2.746809 0.28127,0.06632 10.61818,0.124926 23.32502,0.132455 l 22.81965,0.01367 0.2565,-0.283825 c 0.21604,-0.239078 0.25512,-0.487595 0.24887,-1.581025 -0.0189,-3.316189 -1.93163,-6.482043 -4.54937,-7.530598 -0.48919,-0.195947 -1.53351,-0.231272 -8.63726,-0.291448 l -8.08091,-0.06833 2.30662,-3.969369 c 14.3518,-24.6960699 18.98743,-32.7337449 19.20691,-33.3023099 0.20263,-0.524952 0.24771,-0.909296 0.20446,-1.749217 -0.0981,-1.904614 -1.04496,-3.3510211 -2.73788,-4.1822371 -0.70401,-0.345667 -0.94527,-0.392625 -2.01096,-0.392625 -1.0528,0 -1.32152,0.05094 -2.05748,0.390784 -1.16708,0.538916 -1.87281,1.368348 -3.31446,3.8957861 -0.66033,1.157651 -1.24253,2.104783 -1.29378,2.104783 -0.0512,0 -0.631,-0.945268 -1.28852,-2.100577 -1.44864,-2.5453761 -2.05018,-3.2571411 -3.25349,-3.8495291 -0.81245,-0.39997 -1.01046,-0.441247 -2.11031,-0.441247 z M 231.7178,6.4216601 c -0.28506,-0.0088 -1.02321,0.716567 -1.53556,1.509277 -1.77561,2.7472259 -2.4833,8.3981519 -1.49534,11.9417369 0.1876,0.672893 2.51726,4.805848 10.12473,17.96254 5.43449,9.398651 10.08824,17.318774 10.34179,17.600399 1.35996,1.510456 3.60892,1.953756 5.53278,1.090366 1.81737,-0.815575 2.9518,-2.75034 2.78334,-4.747256 -0.0414,-0.490444 -0.19729,-1.164166 -0.34638,-1.497189 -0.14909,-0.333023 -1.41333,-2.573367 -2.80936,-4.978533 l -2.53814,-4.373024 4.24558,-0.06725 4.24557,-0.06725 0.80732,-0.376859 c 1.05161,-0.490656 1.97046,-1.4053 2.44512,-2.434075 0.32159,-0.696996 0.37921,-0.996188 0.37974,-1.965763 0,-0.971433 -0.0559,-1.265325 -0.37581,-1.951044 -0.49034,-1.050927 -1.40549,-1.970162 -2.43432,-2.445639 l -0.82205,-0.380073 -7.06702,-0.03914 -7.06703,-0.03914 -7.12851,-12.36853 C 235.08354,11.992456 231.80463,6.4243771 231.7178,6.4216601 Z M 198.04703,43.081011 c -0.76339,0.0016 -1.40914,0.06779 -1.67878,0.206034 -0.28856,0.147961 -0.80331,0.910407 -1.99677,2.957845 -2.39891,4.115432 -2.58021,4.526623 -2.57704,5.84472 0.005,2.086969 1.14051,3.734499 3.12604,4.535699 0.90626,0.36571 2.78886,0.28478 3.72022,-0.15978 1.24258,-0.59309 1.8226,-1.364648 4.44662,-5.914887 l 2.44433,-4.238475 -0.21629,-0.385007 c -0.57539,-1.02466 -2.29615,-2.042038 -4.29104,-2.537093 -0.82015,-0.203531 -1.99578,-0.310541 -2.97729,-0.309056 z"
         id="path875-7"
         inkscape:connector-curvature="0" />
      <path
         inkscape:connector-curvature="0"
         id="path893"
         d="m 217.88493,-12.488283 c -1.06882,0 -1.30941,0.04677 -2.01385,0.392625 -1.02063,0.501129 -1.88304,1.364676 -2.33631,2.3392061 -0.48141,1.035022 -0.56864,2.618444 -0.19789,3.592249 0.14088,0.370022 1.42968,2.698881 2.86401,5.17536295 1.43434,2.47648705 2.61124,4.59572205 2.61541,4.70942105 0.004,0.113693 -3.53112,6.3349679 -7.85621,13.8249749 l -7.86383,13.618157 -7.13903,0.03914 -7.13902,0.03914 -0.80733,0.376592 c -1.0516,0.490669 -1.97045,1.4053 -2.44512,2.434078 -0.32158,0.696997 -0.37947,0.996455 -0.38001,1.966024 0,0.971639 0.0562,1.265186 0.37633,1.951044 0.63763,1.365989 1.89874,2.419095 3.28924,2.746809 0.28127,0.06632 10.61818,0.124926 23.32502,0.132455 l 22.81965,0.01367 0.2565,-0.283825 c 0.21604,-0.239078 0.25512,-0.487595 0.24887,-1.581025 -0.0189,-3.316189 -1.93163,-6.482043 -4.54937,-7.530598 -0.48919,-0.195947 -1.53351,-0.231272 -8.63726,-0.291448 l -8.08091,-0.06833 2.30662,-3.969369 c 14.3518,-24.6960699 18.98743,-32.7337449 19.20691,-33.3023099 0.20263,-0.524952 0.24771,-0.909296 0.20446,-1.749217 -0.0981,-1.904614 -1.04496,-3.3510211 -2.73788,-4.1822371 -0.70401,-0.345667 -0.94527,-0.392625 -2.01096,-0.392625 -1.0528,0 -1.32152,0.05094 -2.05748,0.390784 -1.16708,0.538916 -1.87281,1.368348 -3.31446,3.8957861 -0.66033,1.157651 -1.24253,2.104783 -1.29378,2.104783 -0.0512,0 -0.631,-0.945268 -1.28852,-2.100577 -1.44864,-2.5453761 -2.05018,-3.2571411 -3.25349,-3.8495291 -0.81245,-0.39997 -1.01046,-0.441247 -2.11031,-0.441247 z M 231.7178,6.4216601 c -0.28506,-0.0088 -1.02321,0.716567 -1.53556,1.509277 -1.77561,2.7472259 -2.4833,8.3981519 -1.49534,11.9417369 0.1876,0.672893 2.51726,4.805848 10.12473,17.96254 5.43449,9.398651 10.08824,17.318774 10.34179,17.600399 1.35996,1.510456 3.60892,1.953756 5.53278,1.090366 1.81737,-0.815575 2.9518,-2.75034 2.78334,-4.747256 -0.0414,-0.490444 -0.19729,-1.164166 -0.34638,-1.497189 -0.14909,-0.333023 -1.41333,-2.573367 -2.80936,-4.978533 l -2.53814,-4.373024 4.24558,-0.06725 4.24557,-0.06725 0.80732,-0.376859 c 1.05161,-0.490656 1.97046,-1.4053 2.44512,-2.434075 0.32159,-0.696996 0.37921,-0.996188 0.37974,-1.965763 0,-0.971433 -0.0559,-1.265325 -0.37581,-1.951044 -0.49034,-1.050927 -1.40549,-1.970162 -2.43432,-2.445639 l -0.82205,-0.380073 -7.06702,-0.03914 -7.06703,-0.03914 -7.12851,-12.36853 C 235.08354,11.992456 231.80463,6.4243771 231.7178,6.4216601 Z M 198.04703,43.081011 c -0.76339,0.0016 -1.40914,0.06779 -1.67878,0.206034 -0.28856,0.147961 -0.80331,0.910407 -1.99677,2.957845 -2.39891,4.115432 -2.58021,4.526623 -2.57704,5.84472 0.005,2.086969 1.14051,3.734499 3.12604,4.535699 0.90626,0.36571 2.78886,0.28478 3.72022,-0.15978 1.24258,-0.59309 1.8226,-1.364648 4.44662,-5.914887 l 2.44433,-4.238475 -0.21629,-0.385007 c -0.57539,-1.02466 -2.29615,-2.042038 -4.29104,-2.537093 -0.82015,-0.203531 -1.99578,-0.310541 -2.97729,-0.309056 z"
         style="opacity:1;fill:none;fill-opacity:1;stroke:#000000;stroke-width:0.2;stroke-linecap:round;stroke-linejoin:round;stroke-miterlimit:4;stroke-dasharray:none;stroke-opacity:0.01176471" />
      <path
         style="opacity:1;fill:none;fill-opacity:1;stroke:#000000;stroke-width:0.30000001;stroke-linecap:round;stroke-linejoin:round;stroke-miterlimit:4;stroke-dasharray:none;stroke-opacity:0.01176471"
         d="m 217.88493,-12.488283 c -1.06882,0 -1.30941,0.04677 -2.01385,0.392625 -1.02063,0.501129 -1.88304,1.364676 -2.33631,2.3392061 -0.48141,1.035022 -0.56864,2.618444 -0.19789,3.592249 0.14088,0.370022 1.42968,2.698881 2.86401,5.17536295 1.43434,2.47648705 2.61124,4.59572205 2.61541,4.70942105 0.004,0.113693 -3.53112,6.3349679 -7.85621,13.8249749 l -7.86383,13.618157 -7.13903,0.03914 -7.13902,0.03914 -0.80733,0.376592 c -1.0516,0.490669 -1.97045,1.4053 -2.44512,2.434078 -0.32158,0.696997 -0.37947,0.996455 -0.38001,1.966024 0,0.971639 0.0562,1.265186 0.37633,1.951044 0.63763,1.365989 1.89874,2.419095 3.28924,2.746809 0.28127,0.06632 10.61818,0.124926 23.32502,0.132455 l 22.81965,0.01367 0.2565,-0.283825 c 0.21604,-0.239078 0.25512,-0.487595 0.24887,-1.581025 -0.0189,-3.316189 -1.93163,-6.482043 -4.54937,-7.530598 -0.48919,-0.195947 -1.53351,-0.231272 -8.63726,-0.291448 l -8.08091,-0.06833 2.30662,-3.969369 c 14.3518,-24.6960699 18.98743,-32.7337449 19.20691,-33.3023099 0.20263,-0.524952 0.24771,-0.909296 0.20446,-1.749217 -0.0981,-1.904614 -1.04496,-3.3510211 -2.73788,-4.1822371 -0.70401,-0.345667 -0.94527,-0.392625 -2.01096,-0.392625 -1.0528,0 -1.32152,0.05094 -2.05748,0.390784 -1.16708,0.538916 -1.87281,1.368348 -3.31446,3.8957861 -0.66033,1.157651 -1.24253,2.104783 -1.29378,2.104783 -0.0512,0 -0.631,-0.945268 -1.28852,-2.100577 -1.44864,-2.5453761 -2.05018,-3.2571411 -3.25349,-3.8495291 -0.81245,-0.39997 -1.01046,-0.441247 -2.11031,-0.441247 z M 231.7178,6.4216601 c -0.28506,-0.0088 -1.02321,0.716567 -1.53556,1.509277 -1.77561,2.7472259 -2.4833,8.3981519 -1.49534,11.9417369 0.1876,0.672893 2.51726,4.805848 10.12473,17.96254 5.43449,9.398651 10.08824,17.318774 10.34179,17.600399 1.35996,1.510456 3.60892,1.953756 5.53278,1.090366 1.81737,-0.815575 2.9518,-2.75034 2.78334,-4.747256 -0.0414,-0.490444 -0.19729,-1.164166 -0.34638,-1.497189 -0.14909,-0.333023 -1.41333,-2.573367 -2.80936,-4.978533 l -2.53814,-4.373024 4.24558,-0.06725 4.24557,-0.06725 0.80732,-0.376859 c 1.05161,-0.490656 1.97046,-1.4053 2.44512,-2.434075 0.32159,-0.696996 0.37921,-0.996188 0.37974,-1.965763 0,-0.971433 -0.0559,-1.265325 -0.37581,-1.951044 -0.49034,-1.050927 -1.40549,-1.970162 -2.43432,-2.445639 l -0.82205,-0.380073 -7.06702,-0.03914 -7.06703,-0.03914 -7.12851,-12.36853 C 235.08354,11.992456 231.80463,6.4243771 231.7178,6.4216601 Z M 198.04703,43.081011 c -0.76339,0.0016 -1.40914,0.06779 -1.67878,0.206034 -0.28856,0.147961 -0.80331,0.910407 -1.99677,2.957845 -2.39891,4.115432 -2.58021,4.526623 -2.57704,5.84472 0.005,2.086969 1.14051,3.734499 3.12604,4.535699 0.90626,0.36571 2.78886,0.28478 3.72022,-0.15978 1.24258,-0.59309 1.8226,-1.364648 4.44662,-5.914887 l 2.44433,-4.238475 -0.21629,-0.385007 c -0.57539,-1.02466 -2.29615,-2.042038 -4.29104,-2.537093 -0.82015,-0.203531 -1.99578,-0.310541 -2.97729,-0.309056 z"
         id="path895"
         inkscape:connector-curvature="0" />
      <path
         inkscape:connector-curvature="0"
         id="path897"
         d="m 217.88493,-12.488283 c -1.06882,0 -1.30941,0.04677 -2.01385,0.392625 -1.02063,0.501129 -1.88304,1.364676 -2.33631,2.3392061 -0.48141,1.035022 -0.56864,2.618444 -0.19789,3.592249 0.14088,0.370022 1.42968,2.698881 2.86401,5.17536295 1.43434,2.47648705 2.61124,4.59572205 2.61541,4.70942105 0.004,0.113693 -3.53112,6.3349679 -7.85621,13.8249749 l -7.86383,13.618157 -7.13903,0.03914 -7.13902,0.03914 -0.80733,0.376592 c -1.0516,0.490669 -1.97045,1.4053 -2.44512,2.434078 -0.32158,0.696997 -0.37947,0.996455 -0.38001,1.966024 0,0.971639 0.0562,1.265186 0.37633,1.951044 0.63763,1.365989 1.89874,2.419095 3.28924,2.746809 0.28127,0.06632 10.61818,0.124926 23.32502,0.132455 l 22.81965,0.01367 0.2565,-0.283825 c 0.21604,-0.239078 0.25512,-0.487595 0.24887,-1.581025 -0.0189,-3.316189 -1.93163,-6.482043 -4.54937,-7.530598 -0.48919,-0.195947 -1.53351,-0.231272 -8.63726,-0.291448 l -8.08091,-0.06833 2.30662,-3.969369 c 14.3518,-24.6960699 18.98743,-32.7337449 19.20691,-33.3023099 0.20263,-0.524952 0.24771,-0.909296 0.20446,-1.749217 -0.0981,-1.904614 -1.04496,-3.3510211 -2.73788,-4.1822371 -0.70401,-0.345667 -0.94527,-0.392625 -2.01096,-0.392625 -1.0528,0 -1.32152,0.05094 -2.05748,0.390784 -1.16708,0.538916 -1.87281,1.368348 -3.31446,3.8957861 -0.66033,1.157651 -1.24253,2.104783 -1.29378,2.104783 -0.0512,0 -0.631,-0.945268 -1.28852,-2.100577 -1.44864,-2.5453761 -2.05018,-3.2571411 -3.25349,-3.8495291 -0.81245,-0.39997 -1.01046,-0.441247 -2.11031,-0.441247 z M 231.7178,6.4216601 c -0.28506,-0.0088 -1.02321,0.716567 -1.53556,1.509277 -1.77561,2.7472259 -2.4833,8.3981519 -1.49534,11.9417369 0.1876,0.672893 2.51726,4.805848 10.12473,17.96254 5.43449,9.398651 10.08824,17.318774 10.34179,17.600399 1.35996,1.510456 3.60892,1.953756 5.53278,1.090366 1.81737,-0.815575 2.9518,-2.75034 2.78334,-4.747256 -0.0414,-0.490444 -0.19729,-1.164166 -0.34638,-1.497189 -0.14909,-0.333023 -1.41333,-2.573367 -2.80936,-4.978533 l -2.53814,-4.373024 4.24558,-0.06725 4.24557,-0.06725 0.80732,-0.376859 c 1.05161,-0.490656 1.97046,-1.4053 2.44512,-2.434075 0.32159,-0.696996 0.37921,-0.996188 0.37974,-1.965763 0,-0.971433 -0.0559,-1.265325 -0.37581,-1.951044 -0.49034,-1.050927 -1.40549,-1.970162 -2.43432,-2.445639 l -0.82205,-0.380073 -7.06702,-0.03914 -7.06703,-0.03914 -7.12851,-12.36853 C 235.08354,11.992456 231.80463,6.4243771 231.7178,6.4216601 Z M 198.04703,43.081011 c -0.76339,0.0016 -1.40914,0.06779 -1.67878,0.206034 -0.28856,0.147961 -0.80331,0.910407 -1.99677,2.957845 -2.39891,4.115432 -2.58021,4.526623 -2.57704,5.84472 0.005,2.086969 1.14051,3.734499 3.12604,4.535699 0.90626,0.36571 2.78886,0.28478 3.72022,-0.15978 1.24258,-0.59309 1.8226,-1.364648 4.44662,-5.914887 l 2.44433,-4.238475 -0.21629,-0.385007 c -0.57539,-1.02466 -2.29615,-2.042038 -4.29104,-2.537093 -0.82015,-0.203531 -1.99578,-0.310541 -2.97729,-0.309056 z"
         style="opacity:1;fill:none;fill-opacity:1;stroke:#000000;stroke-width:0.40000001;stroke-linecap:round;stroke-linejoin:round;stroke-miterlimit:4;stroke-dasharray:none;stroke-opacity:0.01176471" />
      <path
         style="opacity:1;fill:none;fill-opacity:1;stroke:#000000;stroke-width:0.60000002;stroke-linecap:round;stroke-linejoin:round;stroke-miterlimit:4;stroke-dasharray:none;stroke-opacity:0.01176471"
         d="m 217.88493,-12.488283 c -1.06882,0 -1.30941,0.04677 -2.01385,0.392625 -1.02063,0.501129 -1.88304,1.364676 -2.33631,2.3392061 -0.48141,1.035022 -0.56864,2.618444 -0.19789,3.592249 0.14088,0.370022 1.42968,2.698881 2.86401,5.17536295 1.43434,2.47648705 2.61124,4.59572205 2.61541,4.70942105 0.004,0.113693 -3.53112,6.3349679 -7.85621,13.8249749 l -7.86383,13.618157 -7.13903,0.03914 -7.13902,0.03914 -0.80733,0.376592 c -1.0516,0.490669 -1.97045,1.4053 -2.44512,2.434078 -0.32158,0.696997 -0.37947,0.996455 -0.38001,1.966024 0,0.971639 0.0562,1.265186 0.37633,1.951044 0.63763,1.365989 1.89874,2.419095 3.28924,2.746809 0.28127,0.06632 10.61818,0.124926 23.32502,0.132455 l 22.81965,0.01367 0.2565,-0.283825 c 0.21604,-0.239078 0.25512,-0.487595 0.24887,-1.581025 -0.0189,-3.316189 -1.93163,-6.482043 -4.54937,-7.530598 -0.48919,-0.195947 -1.53351,-0.231272 -8.63726,-0.291448 l -8.08091,-0.06833 2.30662,-3.969369 c 14.3518,-24.6960699 18.98743,-32.7337449 19.20691,-33.3023099 0.20263,-0.524952 0.24771,-0.909296 0.20446,-1.749217 -0.0981,-1.904614 -1.04496,-3.3510211 -2.73788,-4.1822371 -0.70401,-0.345667 -0.94527,-0.392625 -2.01096,-0.392625 -1.0528,0 -1.32152,0.05094 -2.05748,0.390784 -1.16708,0.538916 -1.87281,1.368348 -3.31446,3.8957861 -0.66033,1.157651 -1.24253,2.104783 -1.29378,2.104783 -0.0512,0 -0.631,-0.945268 -1.28852,-2.100577 -1.44864,-2.5453761 -2.05018,-3.2571411 -3.25349,-3.8495291 -0.81245,-0.39997 -1.01046,-0.441247 -2.11031,-0.441247 z M 231.7178,6.4216601 c -0.28506,-0.0088 -1.02321,0.716567 -1.53556,1.509277 -1.77561,2.7472259 -2.4833,8.3981519 -1.49534,11.9417369 0.1876,0.672893 2.51726,4.805848 10.12473,17.96254 5.43449,9.398651 10.08824,17.318774 10.34179,17.600399 1.35996,1.510456 3.60892,1.953756 5.53278,1.090366 1.81737,-0.815575 2.9518,-2.75034 2.78334,-4.747256 -0.0414,-0.490444 -0.19729,-1.164166 -0.34638,-1.497189 -0.14909,-0.333023 -1.41333,-2.573367 -2.80936,-4.978533 l -2.53814,-4.373024 4.24558,-0.06725 4.24557,-0.06725 0.80732,-0.376859 c 1.05161,-0.490656 1.97046,-1.4053 2.44512,-2.434075 0.32159,-0.696996 0.37921,-0.996188 0.37974,-1.965763 0,-0.971433 -0.0559,-1.265325 -0.37581,-1.951044 -0.49034,-1.050927 -1.40549,-1.970162 -2.43432,-2.445639 l -0.82205,-0.380073 -7.06702,-0.03914 -7.06703,-0.03914 -7.12851,-12.36853 C 235.08354,11.992456 231.80463,6.4243771 231.7178,6.4216601 Z M 198.04703,43.081011 c -0.76339,0.0016 -1.40914,0.06779 -1.67878,0.206034 -0.28856,0.147961 -0.80331,0.910407 -1.99677,2.957845 -2.39891,4.115432 -2.58021,4.526623 -2.57704,5.84472 0.005,2.086969 1.14051,3.734499 3.12604,4.535699 0.90626,0.36571 2.78886,0.28478 3.72022,-0.15978 1.24258,-0.59309 1.8226,-1.364648 4.44662,-5.914887 l 2.44433,-4.238475 -0.21629,-0.385007 c -0.57539,-1.02466 -2.29615,-2.042038 -4.29104,-2.537093 -0.82015,-0.203531 -1.99578,-0.310541 -2.97729,-0.309056 z"
         id="path899"
         inkscape:connector-curvature="0" />
      <path
         inkscape:connector-curvature="0"
         id="path901"
         d="m 217.88493,-12.488283 c -1.06882,0 -1.30941,0.04677 -2.01385,0.392625 -1.02063,0.501129 -1.88304,1.364676 -2.33631,2.3392061 -0.48141,1.035022 -0.56864,2.618444 -0.19789,3.592249 0.14088,0.370022 1.42968,2.698881 2.86401,5.17536295 1.43434,2.47648705 2.61124,4.59572205 2.61541,4.70942105 0.004,0.113693 -3.53112,6.3349679 -7.85621,13.8249749 l -7.86383,13.618157 -7.13903,0.03914 -7.13902,0.03914 -0.80733,0.376592 c -1.0516,0.490669 -1.97045,1.4053 -2.44512,2.434078 -0.32158,0.696997 -0.37947,0.996455 -0.38001,1.966024 0,0.971639 0.0562,1.265186 0.37633,1.951044 0.63763,1.365989 1.89874,2.419095 3.28924,2.746809 0.28127,0.06632 10.61818,0.124926 23.32502,0.132455 l 22.81965,0.01367 0.2565,-0.283825 c 0.21604,-0.239078 0.25512,-0.487595 0.24887,-1.581025 -0.0189,-3.316189 -1.93163,-6.482043 -4.54937,-7.530598 -0.48919,-0.195947 -1.53351,-0.231272 -8.63726,-0.291448 l -8.08091,-0.06833 2.30662,-3.969369 c 14.3518,-24.6960699 18.98743,-32.7337449 19.20691,-33.3023099 0.20263,-0.524952 0.24771,-0.909296 0.20446,-1.749217 -0.0981,-1.904614 -1.04496,-3.3510211 -2.73788,-4.1822371 -0.70401,-0.345667 -0.94527,-0.392625 -2.01096,-0.392625 -1.0528,0 -1.32152,0.05094 -2.05748,0.390784 -1.16708,0.538916 -1.87281,1.368348 -3.31446,3.8957861 -0.66033,1.157651 -1.24253,2.104783 -1.29378,2.104783 -0.0512,0 -0.631,-0.945268 -1.28852,-2.100577 -1.44864,-2.5453761 -2.05018,-3.2571411 -3.25349,-3.8495291 -0.81245,-0.39997 -1.01046,-0.441247 -2.11031,-0.441247 z M 231.7178,6.4216601 c -0.28506,-0.0088 -1.02321,0.716567 -1.53556,1.509277 -1.77561,2.7472259 -2.4833,8.3981519 -1.49534,11.9417369 0.1876,0.672893 2.51726,4.805848 10.12473,17.96254 5.43449,9.398651 10.08824,17.318774 10.34179,17.600399 1.35996,1.510456 3.60892,1.953756 5.53278,1.090366 1.81737,-0.815575 2.9518,-2.75034 2.78334,-4.747256 -0.0414,-0.490444 -0.19729,-1.164166 -0.34638,-1.497189 -0.14909,-0.333023 -1.41333,-2.573367 -2.80936,-4.978533 l -2.53814,-4.373024 4.24558,-0.06725 4.24557,-0.06725 0.80732,-0.376859 c 1.05161,-0.490656 1.97046,-1.4053 2.44512,-2.434075 0.32159,-0.696996 0.37921,-0.996188 0.37974,-1.965763 0,-0.971433 -0.0559,-1.265325 -0.37581,-1.951044 -0.49034,-1.050927 -1.40549,-1.970162 -2.43432,-2.445639 l -0.82205,-0.380073 -7.06702,-0.03914 -7.06703,-0.03914 -7.12851,-12.36853 C 235.08354,11.992456 231.80463,6.4243771 231.7178,6.4216601 Z M 198.04703,43.081011 c -0.76339,0.0016 -1.40914,0.06779 -1.67878,0.206034 -0.28856,0.147961 -0.80331,0.910407 -1.99677,2.957845 -2.39891,4.115432 -2.58021,4.526623 -2.57704,5.84472 0.005,2.086969 1.14051,3.734499 3.12604,4.535699 0.90626,0.36571 2.78886,0.28478 3.72022,-0.15978 1.24258,-0.59309 1.8226,-1.364648 4.44662,-5.914887 l 2.44433,-4.238475 -0.21629,-0.385007 c -0.57539,-1.02466 -2.29615,-2.042038 -4.29104,-2.537093 -0.82015,-0.203531 -1.99578,-0.310541 -2.97729,-0.309056 z"
         style="opacity:1;fill:none;fill-opacity:1;stroke:#000000;stroke-width:0.80000001;stroke-linecap:round;stroke-linejoin:round;stroke-miterlimit:4;stroke-dasharray:none;stroke-opacity:0.01176471" />
      <path
         style="opacity:1;fill:none;fill-opacity:1;stroke:#000000;stroke-width:1;stroke-linecap:round;stroke-linejoin:round;stroke-miterlimit:4;stroke-dasharray:none;stroke-opacity:0.01176471"
         d="m 217.88493,-12.488283 c -1.06882,0 -1.30941,0.04677 -2.01385,0.392625 -1.02063,0.501129 -1.88304,1.364676 -2.33631,2.3392061 -0.48141,1.035022 -0.56864,2.618444 -0.19789,3.592249 0.14088,0.370022 1.42968,2.698881 2.86401,5.17536295 1.43434,2.47648705 2.61124,4.59572205 2.61541,4.70942105 0.004,0.113693 -3.53112,6.3349679 -7.85621,13.8249749 l -7.86383,13.618157 -7.13903,0.03914 -7.13902,0.03914 -0.80733,0.376592 c -1.0516,0.490669 -1.97045,1.4053 -2.44512,2.434078 -0.32158,0.696997 -0.37947,0.996455 -0.38001,1.966024 0,0.971639 0.0562,1.265186 0.37633,1.951044 0.63763,1.365989 1.89874,2.419095 3.28924,2.746809 0.28127,0.06632 10.61818,0.124926 23.32502,0.132455 l 22.81965,0.01367 0.2565,-0.283825 c 0.21604,-0.239078 0.25512,-0.487595 0.24887,-1.581025 -0.0189,-3.316189 -1.93163,-6.482043 -4.54937,-7.530598 -0.48919,-0.195947 -1.53351,-0.231272 -8.63726,-0.291448 l -8.08091,-0.06833 2.30662,-3.969369 c 14.3518,-24.6960699 18.98743,-32.7337449 19.20691,-33.3023099 0.20263,-0.524952 0.24771,-0.909296 0.20446,-1.749217 -0.0981,-1.904614 -1.04496,-3.3510211 -2.73788,-4.1822371 -0.70401,-0.345667 -0.94527,-0.392625 -2.01096,-0.392625 -1.0528,0 -1.32152,0.05094 -2.05748,0.390784 -1.16708,0.538916 -1.87281,1.368348 -3.31446,3.8957861 -0.66033,1.157651 -1.24253,2.104783 -1.29378,2.104783 -0.0512,0 -0.631,-0.945268 -1.28852,-2.100577 -1.44864,-2.5453761 -2.05018,-3.2571411 -3.25349,-3.8495291 -0.81245,-0.39997 -1.01046,-0.441247 -2.11031,-0.441247 z M 231.7178,6.4216601 c -0.28506,-0.0088 -1.02321,0.716567 -1.53556,1.509277 -1.77561,2.7472259 -2.4833,8.3981519 -1.49534,11.9417369 0.1876,0.672893 2.51726,4.805848 10.12473,17.96254 5.43449,9.398651 10.08824,17.318774 10.34179,17.600399 1.35996,1.510456 3.60892,1.953756 5.53278,1.090366 1.81737,-0.815575 2.9518,-2.75034 2.78334,-4.747256 -0.0414,-0.490444 -0.19729,-1.164166 -0.34638,-1.497189 -0.14909,-0.333023 -1.41333,-2.573367 -2.80936,-4.978533 l -2.53814,-4.373024 4.24558,-0.06725 4.24557,-0.06725 0.80732,-0.376859 c 1.05161,-0.490656 1.97046,-1.4053 2.44512,-2.434075 0.32159,-0.696996 0.37921,-0.996188 0.37974,-1.965763 0,-0.971433 -0.0559,-1.265325 -0.37581,-1.951044 -0.49034,-1.050927 -1.40549,-1.970162 -2.43432,-2.445639 l -0.82205,-0.380073 -7.06702,-0.03914 -7.06703,-0.03914 -7.12851,-12.36853 C 235.08354,11.992456 231.80463,6.4243771 231.7178,6.4216601 Z M 198.04703,43.081011 c -0.76339,0.0016 -1.40914,0.06779 -1.67878,0.206034 -0.28856,0.147961 -0.80331,0.910407 -1.99677,2.957845 -2.39891,4.115432 -2.58021,4.526623 -2.57704,5.84472 0.005,2.086969 1.14051,3.734499 3.12604,4.535699 0.90626,0.36571 2.78886,0.28478 3.72022,-0.15978 1.24258,-0.59309 1.8226,-1.364648 4.44662,-5.914887 l 2.44433,-4.238475 -0.21629,-0.385007 c -0.57539,-1.02466 -2.29615,-2.042038 -4.29104,-2.537093 -0.82015,-0.203531 -1.99578,-0.310541 -2.97729,-0.309056 z"
         id="path903"
         inkscape:connector-curvature="0" />
      <path
         inkscape:connector-curvature="0"
         id="path905"
         d="m 217.88493,-12.488283 c -1.06882,0 -1.30941,0.04677 -2.01385,0.392625 -1.02063,0.501129 -1.88304,1.364676 -2.33631,2.3392061 -0.48141,1.035022 -0.56864,2.618444 -0.19789,3.592249 0.14088,0.370022 1.42968,2.698881 2.86401,5.17536295 1.43434,2.47648705 2.61124,4.59572205 2.61541,4.70942105 0.004,0.113693 -3.53112,6.3349679 -7.85621,13.8249749 l -7.86383,13.618157 -7.13903,0.03914 -7.13902,0.03914 -0.80733,0.376592 c -1.0516,0.490669 -1.97045,1.4053 -2.44512,2.434078 -0.32158,0.696997 -0.37947,0.996455 -0.38001,1.966024 0,0.971639 0.0562,1.265186 0.37633,1.951044 0.63763,1.365989 1.89874,2.419095 3.28924,2.746809 0.28127,0.06632 10.61818,0.124926 23.32502,0.132455 l 22.81965,0.01367 0.2565,-0.283825 c 0.21604,-0.239078 0.25512,-0.487595 0.24887,-1.581025 -0.0189,-3.316189 -1.93163,-6.482043 -4.54937,-7.530598 -0.48919,-0.195947 -1.53351,-0.231272 -8.63726,-0.291448 l -8.08091,-0.06833 2.30662,-3.969369 c 14.3518,-24.6960699 18.98743,-32.7337449 19.20691,-33.3023099 0.20263,-0.524952 0.24771,-0.909296 0.20446,-1.749217 -0.0981,-1.904614 -1.04496,-3.3510211 -2.73788,-4.1822371 -0.70401,-0.345667 -0.94527,-0.392625 -2.01096,-0.392625 -1.0528,0 -1.32152,0.05094 -2.05748,0.390784 -1.16708,0.538916 -1.87281,1.368348 -3.31446,3.8957861 -0.66033,1.157651 -1.24253,2.104783 -1.29378,2.104783 -0.0512,0 -0.631,-0.945268 -1.28852,-2.100577 -1.44864,-2.5453761 -2.05018,-3.2571411 -3.25349,-3.8495291 -0.81245,-0.39997 -1.01046,-0.441247 -2.11031,-0.441247 z M 231.7178,6.4216601 c -0.28506,-0.0088 -1.02321,0.716567 -1.53556,1.509277 -1.77561,2.7472259 -2.4833,8.3981519 -1.49534,11.9417369 0.1876,0.672893 2.51726,4.805848 10.12473,17.96254 5.43449,9.398651 10.08824,17.318774 10.34179,17.600399 1.35996,1.510456 3.60892,1.953756 5.53278,1.090366 1.81737,-0.815575 2.9518,-2.75034 2.78334,-4.747256 -0.0414,-0.490444 -0.19729,-1.164166 -0.34638,-1.497189 -0.14909,-0.333023 -1.41333,-2.573367 -2.80936,-4.978533 l -2.53814,-4.373024 4.24558,-0.06725 4.24557,-0.06725 0.80732,-0.376859 c 1.05161,-0.490656 1.97046,-1.4053 2.44512,-2.434075 0.32159,-0.696996 0.37921,-0.996188 0.37974,-1.965763 0,-0.971433 -0.0559,-1.265325 -0.37581,-1.951044 -0.49034,-1.050927 -1.40549,-1.970162 -2.43432,-2.445639 l -0.82205,-0.380073 -7.06702,-0.03914 -7.06703,-0.03914 -7.12851,-12.36853 C 235.08354,11.992456 231.80463,6.4243771 231.7178,6.4216601 Z M 198.04703,43.081011 c -0.76339,0.0016 -1.40914,0.06779 -1.67878,0.206034 -0.28856,0.147961 -0.80331,0.910407 -1.99677,2.957845 -2.39891,4.115432 -2.58021,4.526623 -2.57704,5.84472 0.005,2.086969 1.14051,3.734499 3.12604,4.535699 0.90626,0.36571 2.78886,0.28478 3.72022,-0.15978 1.24258,-0.59309 1.8226,-1.364648 4.44662,-5.914887 l 2.44433,-4.238475 -0.21629,-0.385007 c -0.57539,-1.02466 -2.29615,-2.042038 -4.29104,-2.537093 -0.82015,-0.203531 -1.99578,-0.310541 -2.97729,-0.309056 z"
         style="opacity:1;fill:none;fill-opacity:1;stroke:#000000;stroke-width:1.20000005;stroke-linecap:round;stroke-linejoin:round;stroke-miterlimit:4;stroke-dasharray:none;stroke-opacity:0.01176471" />
      <path
         style="opacity:1;fill:none;fill-opacity:1;stroke:#000000;stroke-width:1.60000002;stroke-linecap:round;stroke-linejoin:round;stroke-miterlimit:4;stroke-dasharray:none;stroke-opacity:0.01176471"
         d="m 217.88493,-12.488283 c -1.06882,0 -1.30941,0.04677 -2.01385,0.392625 -1.02063,0.501129 -1.88304,1.364676 -2.33631,2.3392061 -0.48141,1.035022 -0.56864,2.618444 -0.19789,3.592249 0.14088,0.370022 1.42968,2.698881 2.86401,5.17536295 1.43434,2.47648705 2.61124,4.59572205 2.61541,4.70942105 0.004,0.113693 -3.53112,6.3349679 -7.85621,13.8249749 l -7.86383,13.618157 -7.13903,0.03914 -7.13902,0.03914 -0.80733,0.376592 c -1.0516,0.490669 -1.97045,1.4053 -2.44512,2.434078 -0.32158,0.696997 -0.37947,0.996455 -0.38001,1.966024 0,0.971639 0.0562,1.265186 0.37633,1.951044 0.63763,1.365989 1.89874,2.419095 3.28924,2.746809 0.28127,0.06632 10.61818,0.124926 23.32502,0.132455 l 22.81965,0.01367 0.2565,-0.283825 c 0.21604,-0.239078 0.25512,-0.487595 0.24887,-1.581025 -0.0189,-3.316189 -1.93163,-6.482043 -4.54937,-7.530598 -0.48919,-0.195947 -1.53351,-0.231272 -8.63726,-0.291448 l -8.08091,-0.06833 2.30662,-3.969369 c 14.3518,-24.6960699 18.98743,-32.7337449 19.20691,-33.3023099 0.20263,-0.524952 0.24771,-0.909296 0.20446,-1.749217 -0.0981,-1.904614 -1.04496,-3.3510211 -2.73788,-4.1822371 -0.70401,-0.345667 -0.94527,-0.392625 -2.01096,-0.392625 -1.0528,0 -1.32152,0.05094 -2.05748,0.390784 -1.16708,0.538916 -1.87281,1.368348 -3.31446,3.8957861 -0.66033,1.157651 -1.24253,2.104783 -1.29378,2.104783 -0.0512,0 -0.631,-0.945268 -1.28852,-2.100577 -1.44864,-2.5453761 -2.05018,-3.2571411 -3.25349,-3.8495291 -0.81245,-0.39997 -1.01046,-0.441247 -2.11031,-0.441247 z M 231.7178,6.4216601 c -0.28506,-0.0088 -1.02321,0.716567 -1.53556,1.509277 -1.77561,2.7472259 -2.4833,8.3981519 -1.49534,11.9417369 0.1876,0.672893 2.51726,4.805848 10.12473,17.96254 5.43449,9.398651 10.08824,17.318774 10.34179,17.600399 1.35996,1.510456 3.60892,1.953756 5.53278,1.090366 1.81737,-0.815575 2.9518,-2.75034 2.78334,-4.747256 -0.0414,-0.490444 -0.19729,-1.164166 -0.34638,-1.497189 -0.14909,-0.333023 -1.41333,-2.573367 -2.80936,-4.978533 l -2.53814,-4.373024 4.24558,-0.06725 4.24557,-0.06725 0.80732,-0.376859 c 1.05161,-0.490656 1.97046,-1.4053 2.44512,-2.434075 0.32159,-0.696996 0.37921,-0.996188 0.37974,-1.965763 0,-0.971433 -0.0559,-1.265325 -0.37581,-1.951044 -0.49034,-1.050927 -1.40549,-1.970162 -2.43432,-2.445639 l -0.82205,-0.380073 -7.06702,-0.03914 -7.06703,-0.03914 -7.12851,-12.36853 C 235.08354,11.992456 231.80463,6.4243771 231.7178,6.4216601 Z M 198.04703,43.081011 c -0.76339,0.0016 -1.40914,0.06779 -1.67878,0.206034 -0.28856,0.147961 -0.80331,0.910407 -1.99677,2.957845 -2.39891,4.115432 -2.58021,4.526623 -2.57704,5.84472 0.005,2.086969 1.14051,3.734499 3.12604,4.535699 0.90626,0.36571 2.78886,0.28478 3.72022,-0.15978 1.24258,-0.59309 1.8226,-1.364648 4.44662,-5.914887 l 2.44433,-4.238475 -0.21629,-0.385007 c -0.57539,-1.02466 -2.29615,-2.042038 -4.29104,-2.537093 -0.82015,-0.203531 -1.99578,-0.310541 -2.97729,-0.309056 z"
         id="path907"
         inkscape:connector-curvature="0" />
      <path
         inkscape:connector-curvature="0"
         id="path909"
         d="m 217.88493,-12.488283 c -1.06882,0 -1.30941,0.04677 -2.01385,0.392625 -1.02063,0.501129 -1.88304,1.364676 -2.33631,2.3392061 -0.48141,1.035022 -0.56864,2.618444 -0.19789,3.592249 0.14088,0.370022 1.42968,2.698881 2.86401,5.17536295 1.43434,2.47648705 2.61124,4.59572205 2.61541,4.70942105 0.004,0.113693 -3.53112,6.3349679 -7.85621,13.8249749 l -7.86383,13.618157 -7.13903,0.03914 -7.13902,0.03914 -0.80733,0.376592 c -1.0516,0.490669 -1.97045,1.4053 -2.44512,2.434078 -0.32158,0.696997 -0.37947,0.996455 -0.38001,1.966024 0,0.971639 0.0562,1.265186 0.37633,1.951044 0.63763,1.365989 1.89874,2.419095 3.28924,2.746809 0.28127,0.06632 10.61818,0.124926 23.32502,0.132455 l 22.81965,0.01367 0.2565,-0.283825 c 0.21604,-0.239078 0.25512,-0.487595 0.24887,-1.581025 -0.0189,-3.316189 -1.93163,-6.482043 -4.54937,-7.530598 -0.48919,-0.195947 -1.53351,-0.231272 -8.63726,-0.291448 l -8.08091,-0.06833 2.30662,-3.969369 c 14.3518,-24.6960699 18.98743,-32.7337449 19.20691,-33.3023099 0.20263,-0.524952 0.24771,-0.909296 0.20446,-1.749217 -0.0981,-1.904614 -1.04496,-3.3510211 -2.73788,-4.1822371 -0.70401,-0.345667 -0.94527,-0.392625 -2.01096,-0.392625 -1.0528,0 -1.32152,0.05094 -2.05748,0.390784 -1.16708,0.538916 -1.87281,1.368348 -3.31446,3.8957861 -0.66033,1.157651 -1.24253,2.104783 -1.29378,2.104783 -0.0512,0 -0.631,-0.945268 -1.28852,-2.100577 -1.44864,-2.5453761 -2.05018,-3.2571411 -3.25349,-3.8495291 -0.81245,-0.39997 -1.01046,-0.441247 -2.11031,-0.441247 z M 231.7178,6.4216601 c -0.28506,-0.0088 -1.02321,0.716567 -1.53556,1.509277 -1.77561,2.7472259 -2.4833,8.3981519 -1.49534,11.9417369 0.1876,0.672893 2.51726,4.805848 10.12473,17.96254 5.43449,9.398651 10.08824,17.318774 10.34179,17.600399 1.35996,1.510456 3.60892,1.953756 5.53278,1.090366 1.81737,-0.815575 2.9518,-2.75034 2.78334,-4.747256 -0.0414,-0.490444 -0.19729,-1.164166 -0.34638,-1.497189 -0.14909,-0.333023 -1.41333,-2.573367 -2.80936,-4.978533 l -2.53814,-4.373024 4.24558,-0.06725 4.24557,-0.06725 0.80732,-0.376859 c 1.05161,-0.490656 1.97046,-1.4053 2.44512,-2.434075 0.32159,-0.696996 0.37921,-0.996188 0.37974,-1.965763 0,-0.971433 -0.0559,-1.265325 -0.37581,-1.951044 -0.49034,-1.050927 -1.40549,-1.970162 -2.43432,-2.445639 l -0.82205,-0.380073 -7.06702,-0.03914 -7.06703,-0.03914 -7.12851,-12.36853 C 235.08354,11.992456 231.80463,6.4243771 231.7178,6.4216601 Z M 198.04703,43.081011 c -0.76339,0.0016 -1.40914,0.06779 -1.67878,0.206034 -0.28856,0.147961 -0.80331,0.910407 -1.99677,2.957845 -2.39891,4.115432 -2.58021,4.526623 -2.57704,5.84472 0.005,2.086969 1.14051,3.734499 3.12604,4.535699 0.90626,0.36571 2.78886,0.28478 3.72022,-0.15978 1.24258,-0.59309 1.8226,-1.364648 4.44662,-5.914887 l 2.44433,-4.238475 -0.21629,-0.385007 c -0.57539,-1.02466 -2.29615,-2.042038 -4.29104,-2.537093 -0.82015,-0.203531 -1.99578,-0.310541 -2.97729,-0.309056 z"
         style="opacity:1;fill:none;fill-opacity:1;stroke:#000000;stroke-width:2;stroke-linecap:round;stroke-linejoin:round;stroke-miterlimit:4;stroke-dasharray:none;stroke-opacity:0.01176471" />
      <path
         style="opacity:1;fill:none;fill-opacity:1;stroke:#000000;stroke-width:2.4000001;stroke-linecap:round;stroke-linejoin:round;stroke-miterlimit:4;stroke-dasharray:none;stroke-opacity:0.01176471"
         d="m 217.88493,-12.488283 c -1.06882,0 -1.30941,0.04677 -2.01385,0.392625 -1.02063,0.501129 -1.88304,1.364676 -2.33631,2.3392061 -0.48141,1.035022 -0.56864,2.618444 -0.19789,3.592249 0.14088,0.370022 1.42968,2.698881 2.86401,5.17536295 1.43434,2.47648705 2.61124,4.59572205 2.61541,4.70942105 0.004,0.113693 -3.53112,6.3349679 -7.85621,13.8249749 l -7.86383,13.618157 -7.13903,0.03914 -7.13902,0.03914 -0.80733,0.376592 c -1.0516,0.490669 -1.97045,1.4053 -2.44512,2.434078 -0.32158,0.696997 -0.37947,0.996455 -0.38001,1.966024 0,0.971639 0.0562,1.265186 0.37633,1.951044 0.63763,1.365989 1.89874,2.419095 3.28924,2.746809 0.28127,0.06632 10.61818,0.124926 23.32502,0.132455 l 22.81965,0.01367 0.2565,-0.283825 c 0.21604,-0.239078 0.25512,-0.487595 0.24887,-1.581025 -0.0189,-3.316189 -1.93163,-6.482043 -4.54937,-7.530598 -0.48919,-0.195947 -1.53351,-0.231272 -8.63726,-0.291448 l -8.08091,-0.06833 2.30662,-3.969369 c 14.3518,-24.6960699 18.98743,-32.7337449 19.20691,-33.3023099 0.20263,-0.524952 0.24771,-0.909296 0.20446,-1.749217 -0.0981,-1.904614 -1.04496,-3.3510211 -2.73788,-4.1822371 -0.70401,-0.345667 -0.94527,-0.392625 -2.01096,-0.392625 -1.0528,0 -1.32152,0.05094 -2.05748,0.390784 -1.16708,0.538916 -1.87281,1.368348 -3.31446,3.8957861 -0.66033,1.157651 -1.24253,2.104783 -1.29378,2.104783 -0.0512,0 -0.631,-0.945268 -1.28852,-2.100577 -1.44864,-2.5453761 -2.05018,-3.2571411 -3.25349,-3.8495291 -0.81245,-0.39997 -1.01046,-0.441247 -2.11031,-0.441247 z M 231.7178,6.4216601 c -0.28506,-0.0088 -1.02321,0.716567 -1.53556,1.509277 -1.77561,2.7472259 -2.4833,8.3981519 -1.49534,11.9417369 0.1876,0.672893 2.51726,4.805848 10.12473,17.96254 5.43449,9.398651 10.08824,17.318774 10.34179,17.600399 1.35996,1.510456 3.60892,1.953756 5.53278,1.090366 1.81737,-0.815575 2.9518,-2.75034 2.78334,-4.747256 -0.0414,-0.490444 -0.19729,-1.164166 -0.34638,-1.497189 -0.14909,-0.333023 -1.41333,-2.573367 -2.80936,-4.978533 l -2.53814,-4.373024 4.24558,-0.06725 4.24557,-0.06725 0.80732,-0.376859 c 1.05161,-0.490656 1.97046,-1.4053 2.44512,-2.434075 0.32159,-0.696996 0.37921,-0.996188 0.37974,-1.965763 0,-0.971433 -0.0559,-1.265325 -0.37581,-1.951044 -0.49034,-1.050927 -1.40549,-1.970162 -2.43432,-2.445639 l -0.82205,-0.380073 -7.06702,-0.03914 -7.06703,-0.03914 -7.12851,-12.36853 C 235.08354,11.992456 231.80463,6.4243771 231.7178,6.4216601 Z M 198.04703,43.081011 c -0.76339,0.0016 -1.40914,0.06779 -1.67878,0.206034 -0.28856,0.147961 -0.80331,0.910407 -1.99677,2.957845 -2.39891,4.115432 -2.58021,4.526623 -2.57704,5.84472 0.005,2.086969 1.14051,3.734499 3.12604,4.535699 0.90626,0.36571 2.78886,0.28478 3.72022,-0.15978 1.24258,-0.59309 1.8226,-1.364648 4.44662,-5.914887 l 2.44433,-4.238475 -0.21629,-0.385007 c -0.57539,-1.02466 -2.29615,-2.042038 -4.29104,-2.537093 -0.82015,-0.203531 -1.99578,-0.310541 -2.97729,-0.309056 z"
         id="path911"
         inkscape:connector-curvature="0" />
      <path
         inkscape:connector-curvature="0"
         id="path913"
         d="m 217.88493,-12.488283 c -1.06882,0 -1.30941,0.04677 -2.01385,0.392625 -1.02063,0.501129 -1.88304,1.364676 -2.33631,2.3392061 -0.48141,1.035022 -0.56864,2.618444 -0.19789,3.592249 0.14088,0.370022 1.42968,2.698881 2.86401,5.17536295 1.43434,2.47648705 2.61124,4.59572205 2.61541,4.70942105 0.004,0.113693 -3.53112,6.3349679 -7.85621,13.8249749 l -7.86383,13.618157 -7.13903,0.03914 -7.13902,0.03914 -0.80733,0.376592 c -1.0516,0.490669 -1.97045,1.4053 -2.44512,2.434078 -0.32158,0.696997 -0.37947,0.996455 -0.38001,1.966024 0,0.971639 0.0562,1.265186 0.37633,1.951044 0.63763,1.365989 1.89874,2.419095 3.28924,2.746809 0.28127,0.06632 10.61818,0.124926 23.32502,0.132455 l 22.81965,0.01367 0.2565,-0.283825 c 0.21604,-0.239078 0.25512,-0.487595 0.24887,-1.581025 -0.0189,-3.316189 -1.93163,-6.482043 -4.54937,-7.530598 -0.48919,-0.195947 -1.53351,-0.231272 -8.63726,-0.291448 l -8.08091,-0.06833 2.30662,-3.969369 c 14.3518,-24.6960699 18.98743,-32.7337449 19.20691,-33.3023099 0.20263,-0.524952 0.24771,-0.909296 0.20446,-1.749217 -0.0981,-1.904614 -1.04496,-3.3510211 -2.73788,-4.1822371 -0.70401,-0.345667 -0.94527,-0.392625 -2.01096,-0.392625 -1.0528,0 -1.32152,0.05094 -2.05748,0.390784 -1.16708,0.538916 -1.87281,1.368348 -3.31446,3.8957861 -0.66033,1.157651 -1.24253,2.104783 -1.29378,2.104783 -0.0512,0 -0.631,-0.945268 -1.28852,-2.100577 -1.44864,-2.5453761 -2.05018,-3.2571411 -3.25349,-3.8495291 -0.81245,-0.39997 -1.01046,-0.441247 -2.11031,-0.441247 z M 231.7178,6.4216601 c -0.28506,-0.0088 -1.02321,0.716567 -1.53556,1.509277 -1.77561,2.7472259 -2.4833,8.3981519 -1.49534,11.9417369 0.1876,0.672893 2.51726,4.805848 10.12473,17.96254 5.43449,9.398651 10.08824,17.318774 10.34179,17.600399 1.35996,1.510456 3.60892,1.953756 5.53278,1.090366 1.81737,-0.815575 2.9518,-2.75034 2.78334,-4.747256 -0.0414,-0.490444 -0.19729,-1.164166 -0.34638,-1.497189 -0.14909,-0.333023 -1.41333,-2.573367 -2.80936,-4.978533 l -2.53814,-4.373024 4.24558,-0.06725 4.24557,-0.06725 0.80732,-0.376859 c 1.05161,-0.490656 1.97046,-1.4053 2.44512,-2.434075 0.32159,-0.696996 0.37921,-0.996188 0.37974,-1.965763 0,-0.971433 -0.0559,-1.265325 -0.37581,-1.951044 -0.49034,-1.050927 -1.40549,-1.970162 -2.43432,-2.445639 l -0.82205,-0.380073 -7.06702,-0.03914 -7.06703,-0.03914 -7.12851,-12.36853 C 235.08354,11.992456 231.80463,6.4243771 231.7178,6.4216601 Z M 198.04703,43.081011 c -0.76339,0.0016 -1.40914,0.06779 -1.67878,0.206034 -0.28856,0.147961 -0.80331,0.910407 -1.99677,2.957845 -2.39891,4.115432 -2.58021,4.526623 -2.57704,5.84472 0.005,2.086969 1.14051,3.734499 3.12604,4.535699 0.90626,0.36571 2.78886,0.28478 3.72022,-0.15978 1.24258,-0.59309 1.8226,-1.364648 4.44662,-5.914887 l 2.44433,-4.238475 -0.21629,-0.385007 c -0.57539,-1.02466 -2.29615,-2.042038 -4.29104,-2.537093 -0.82015,-0.203531 -1.99578,-0.310541 -2.97729,-0.309056 z"
         style="opacity:1;fill:none;fill-opacity:1;stroke:#000000;stroke-width:2.79999995;stroke-linecap:round;stroke-linejoin:round;stroke-miterlimit:4;stroke-dasharray:none;stroke-opacity:0.01176471" />
      <path
         style="opacity:1;fill:none;fill-opacity:1;stroke:#000000;stroke-width:3.20000005;stroke-linecap:round;stroke-linejoin:round;stroke-miterlimit:4;stroke-dasharray:none;stroke-opacity:0.01176471"
         d="m 217.88493,-12.488283 c -1.06882,0 -1.30941,0.04677 -2.01385,0.392625 -1.02063,0.501129 -1.88304,1.364676 -2.33631,2.3392061 -0.48141,1.035022 -0.56864,2.618444 -0.19789,3.592249 0.14088,0.370022 1.42968,2.698881 2.86401,5.17536295 1.43434,2.47648705 2.61124,4.59572205 2.61541,4.70942105 0.004,0.113693 -3.53112,6.3349679 -7.85621,13.8249749 l -7.86383,13.618157 -7.13903,0.03914 -7.13902,0.03914 -0.80733,0.376592 c -1.0516,0.490669 -1.97045,1.4053 -2.44512,2.434078 -0.32158,0.696997 -0.37947,0.996455 -0.38001,1.966024 0,0.971639 0.0562,1.265186 0.37633,1.951044 0.63763,1.365989 1.89874,2.419095 3.28924,2.746809 0.28127,0.06632 10.61818,0.124926 23.32502,0.132455 l 22.81965,0.01367 0.2565,-0.283825 c 0.21604,-0.239078 0.25512,-0.487595 0.24887,-1.581025 -0.0189,-3.316189 -1.93163,-6.482043 -4.54937,-7.530598 -0.48919,-0.195947 -1.53351,-0.231272 -8.63726,-0.291448 l -8.08091,-0.06833 2.30662,-3.969369 c 14.3518,-24.6960699 18.98743,-32.7337449 19.20691,-33.3023099 0.20263,-0.524952 0.24771,-0.909296 0.20446,-1.749217 -0.0981,-1.904614 -1.04496,-3.3510211 -2.73788,-4.1822371 -0.70401,-0.345667 -0.94527,-0.392625 -2.01096,-0.392625 -1.0528,0 -1.32152,0.05094 -2.05748,0.390784 -1.16708,0.538916 -1.87281,1.368348 -3.31446,3.8957861 -0.66033,1.157651 -1.24253,2.104783 -1.29378,2.104783 -0.0512,0 -0.631,-0.945268 -1.28852,-2.100577 -1.44864,-2.5453761 -2.05018,-3.2571411 -3.25349,-3.8495291 -0.81245,-0.39997 -1.01046,-0.441247 -2.11031,-0.441247 z M 231.7178,6.4216601 c -0.28506,-0.0088 -1.02321,0.716567 -1.53556,1.509277 -1.77561,2.7472259 -2.4833,8.3981519 -1.49534,11.9417369 0.1876,0.672893 2.51726,4.805848 10.12473,17.96254 5.43449,9.398651 10.08824,17.318774 10.34179,17.600399 1.35996,1.510456 3.60892,1.953756 5.53278,1.090366 1.81737,-0.815575 2.9518,-2.75034 2.78334,-4.747256 -0.0414,-0.490444 -0.19729,-1.164166 -0.34638,-1.497189 -0.14909,-0.333023 -1.41333,-2.573367 -2.80936,-4.978533 l -2.53814,-4.373024 4.24558,-0.06725 4.24557,-0.06725 0.80732,-0.376859 c 1.05161,-0.490656 1.97046,-1.4053 2.44512,-2.434075 0.32159,-0.696996 0.37921,-0.996188 0.37974,-1.965763 0,-0.971433 -0.0559,-1.265325 -0.37581,-1.951044 -0.49034,-1.050927 -1.40549,-1.970162 -2.43432,-2.445639 l -0.82205,-0.380073 -7.06702,-0.03914 -7.06703,-0.03914 -7.12851,-12.36853 C 235.08354,11.992456 231.80463,6.4243771 231.7178,6.4216601 Z M 198.04703,43.081011 c -0.76339,0.0016 -1.40914,0.06779 -1.67878,0.206034 -0.28856,0.147961 -0.80331,0.910407 -1.99677,2.957845 -2.39891,4.115432 -2.58021,4.526623 -2.57704,5.84472 0.005,2.086969 1.14051,3.734499 3.12604,4.535699 0.90626,0.36571 2.78886,0.28478 3.72022,-0.15978 1.24258,-0.59309 1.8226,-1.364648 4.44662,-5.914887 l 2.44433,-4.238475 -0.21629,-0.385007 c -0.57539,-1.02466 -2.29615,-2.042038 -4.29104,-2.537093 -0.82015,-0.203531 -1.99578,-0.310541 -2.97729,-0.309056 z"
         id="path915"
         inkscape:connector-curvature="0" />
      <path
         inkscape:connector-curvature="0"
         id="path917"
         d="m 217.88493,-12.488283 c -1.06882,0 -1.30941,0.04677 -2.01385,0.392625 -1.02063,0.501129 -1.88304,1.364676 -2.33631,2.3392061 -0.48141,1.035022 -0.56864,2.618444 -0.19789,3.592249 0.14088,0.370022 1.42968,2.698881 2.86401,5.17536295 1.43434,2.47648705 2.61124,4.59572205 2.61541,4.70942105 0.004,0.113693 -3.53112,6.3349679 -7.85621,13.8249749 l -7.86383,13.618157 -7.13903,0.03914 -7.13902,0.03914 -0.80733,0.376592 c -1.0516,0.490669 -1.97045,1.4053 -2.44512,2.434078 -0.32158,0.696997 -0.37947,0.996455 -0.38001,1.966024 0,0.971639 0.0562,1.265186 0.37633,1.951044 0.63763,1.365989 1.89874,2.419095 3.28924,2.746809 0.28127,0.06632 10.61818,0.124926 23.32502,0.132455 l 22.81965,0.01367 0.2565,-0.283825 c 0.21604,-0.239078 0.25512,-0.487595 0.24887,-1.581025 -0.0189,-3.316189 -1.93163,-6.482043 -4.54937,-7.530598 -0.48919,-0.195947 -1.53351,-0.231272 -8.63726,-0.291448 l -8.08091,-0.06833 2.30662,-3.969369 c 14.3518,-24.6960699 18.98743,-32.7337449 19.20691,-33.3023099 0.20263,-0.524952 0.24771,-0.909296 0.20446,-1.749217 -0.0981,-1.904614 -1.04496,-3.3510211 -2.73788,-4.1822371 -0.70401,-0.345667 -0.94527,-0.392625 -2.01096,-0.392625 -1.0528,0 -1.32152,0.05094 -2.05748,0.390784 -1.16708,0.538916 -1.87281,1.368348 -3.31446,3.8957861 -0.66033,1.157651 -1.24253,2.104783 -1.29378,2.104783 -0.0512,0 -0.631,-0.945268 -1.28852,-2.100577 -1.44864,-2.5453761 -2.05018,-3.2571411 -3.25349,-3.8495291 -0.81245,-0.39997 -1.01046,-0.441247 -2.11031,-0.441247 z M 231.7178,6.4216601 c -0.28506,-0.0088 -1.02321,0.716567 -1.53556,1.509277 -1.77561,2.7472259 -2.4833,8.3981519 -1.49534,11.9417369 0.1876,0.672893 2.51726,4.805848 10.12473,17.96254 5.43449,9.398651 10.08824,17.318774 10.34179,17.600399 1.35996,1.510456 3.60892,1.953756 5.53278,1.090366 1.81737,-0.815575 2.9518,-2.75034 2.78334,-4.747256 -0.0414,-0.490444 -0.19729,-1.164166 -0.34638,-1.497189 -0.14909,-0.333023 -1.41333,-2.573367 -2.80936,-4.978533 l -2.53814,-4.373024 4.24558,-0.06725 4.24557,-0.06725 0.80732,-0.376859 c 1.05161,-0.490656 1.97046,-1.4053 2.44512,-2.434075 0.32159,-0.696996 0.37921,-0.996188 0.37974,-1.965763 0,-0.971433 -0.0559,-1.265325 -0.37581,-1.951044 -0.49034,-1.050927 -1.40549,-1.970162 -2.43432,-2.445639 l -0.82205,-0.380073 -7.06702,-0.03914 -7.06703,-0.03914 -7.12851,-12.36853 C 235.08354,11.992456 231.80463,6.4243771 231.7178,6.4216601 Z M 198.04703,43.081011 c -0.76339,0.0016 -1.40914,0.06779 -1.67878,0.206034 -0.28856,0.147961 -0.80331,0.910407 -1.99677,2.957845 -2.39891,4.115432 -2.58021,4.526623 -2.57704,5.84472 0.005,2.086969 1.14051,3.734499 3.12604,4.535699 0.90626,0.36571 2.78886,0.28478 3.72022,-0.15978 1.24258,-0.59309 1.8226,-1.364648 4.44662,-5.914887 l 2.44433,-4.238475 -0.21629,-0.385007 c -0.57539,-1.02466 -2.29615,-2.042038 -4.29104,-2.537093 -0.82015,-0.203531 -1.99578,-0.310541 -2.97729,-0.309056 z"
         style="opacity:1;fill:none;fill-opacity:1;stroke:#000000;stroke-width:3.79999995;stroke-linecap:round;stroke-linejoin:round;stroke-miterlimit:4;stroke-dasharray:none;stroke-opacity:0.01176471" />
      <path
         style="opacity:1;fill:none;fill-opacity:1;stroke:#000000;stroke-width:4.4000001;stroke-linecap:round;stroke-linejoin:round;stroke-miterlimit:4;stroke-dasharray:none;stroke-opacity:0.01176471"
         d="m 217.88493,-12.488283 c -1.06882,0 -1.30941,0.04677 -2.01385,0.392625 -1.02063,0.501129 -1.88304,1.364676 -2.33631,2.3392061 -0.48141,1.035022 -0.56864,2.618444 -0.19789,3.592249 0.14088,0.370022 1.42968,2.698881 2.86401,5.17536295 1.43434,2.47648705 2.61124,4.59572205 2.61541,4.70942105 0.004,0.113693 -3.53112,6.3349679 -7.85621,13.8249749 l -7.86383,13.618157 -7.13903,0.03914 -7.13902,0.03914 -0.80733,0.376592 c -1.0516,0.490669 -1.97045,1.4053 -2.44512,2.434078 -0.32158,0.696997 -0.37947,0.996455 -0.38001,1.966024 0,0.971639 0.0562,1.265186 0.37633,1.951044 0.63763,1.365989 1.89874,2.419095 3.28924,2.746809 0.28127,0.06632 10.61818,0.124926 23.32502,0.132455 l 22.81965,0.01367 0.2565,-0.283825 c 0.21604,-0.239078 0.25512,-0.487595 0.24887,-1.581025 -0.0189,-3.316189 -1.93163,-6.482043 -4.54937,-7.530598 -0.48919,-0.195947 -1.53351,-0.231272 -8.63726,-0.291448 l -8.08091,-0.06833 2.30662,-3.969369 c 14.3518,-24.6960699 18.98743,-32.7337449 19.20691,-33.3023099 0.20263,-0.524952 0.24771,-0.909296 0.20446,-1.749217 -0.0981,-1.904614 -1.04496,-3.3510211 -2.73788,-4.1822371 -0.70401,-0.345667 -0.94527,-0.392625 -2.01096,-0.392625 -1.0528,0 -1.32152,0.05094 -2.05748,0.390784 -1.16708,0.538916 -1.87281,1.368348 -3.31446,3.8957861 -0.66033,1.157651 -1.24253,2.104783 -1.29378,2.104783 -0.0512,0 -0.631,-0.945268 -1.28852,-2.100577 -1.44864,-2.5453761 -2.05018,-3.2571411 -3.25349,-3.8495291 -0.81245,-0.39997 -1.01046,-0.441247 -2.11031,-0.441247 z M 231.7178,6.4216601 c -0.28506,-0.0088 -1.02321,0.716567 -1.53556,1.509277 -1.77561,2.7472259 -2.4833,8.3981519 -1.49534,11.9417369 0.1876,0.672893 2.51726,4.805848 10.12473,17.96254 5.43449,9.398651 10.08824,17.318774 10.34179,17.600399 1.35996,1.510456 3.60892,1.953756 5.53278,1.090366 1.81737,-0.815575 2.9518,-2.75034 2.78334,-4.747256 -0.0414,-0.490444 -0.19729,-1.164166 -0.34638,-1.497189 -0.14909,-0.333023 -1.41333,-2.573367 -2.80936,-4.978533 l -2.53814,-4.373024 4.24558,-0.06725 4.24557,-0.06725 0.80732,-0.376859 c 1.05161,-0.490656 1.97046,-1.4053 2.44512,-2.434075 0.32159,-0.696996 0.37921,-0.996188 0.37974,-1.965763 0,-0.971433 -0.0559,-1.265325 -0.37581,-1.951044 -0.49034,-1.050927 -1.40549,-1.970162 -2.43432,-2.445639 l -0.82205,-0.380073 -7.06702,-0.03914 -7.06703,-0.03914 -7.12851,-12.36853 C 235.08354,11.992456 231.80463,6.4243771 231.7178,6.4216601 Z M 198.04703,43.081011 c -0.76339,0.0016 -1.40914,0.06779 -1.67878,0.206034 -0.28856,0.147961 -0.80331,0.910407 -1.99677,2.957845 -2.39891,4.115432 -2.58021,4.526623 -2.57704,5.84472 0.005,2.086969 1.14051,3.734499 3.12604,4.535699 0.90626,0.36571 2.78886,0.28478 3.72022,-0.15978 1.24258,-0.59309 1.8226,-1.364648 4.44662,-5.914887 l 2.44433,-4.238475 -0.21629,-0.385007 c -0.57539,-1.02466 -2.29615,-2.042038 -4.29104,-2.537093 -0.82015,-0.203531 -1.99578,-0.310541 -2.97729,-0.309056 z"
         id="path919"
         inkscape:connector-curvature="0" />
      <path
         inkscape:connector-curvature="0"
         id="path921"
         d="m 217.88493,-12.488283 c -1.06882,0 -1.30941,0.04677 -2.01385,0.392625 -1.02063,0.501129 -1.88304,1.364676 -2.33631,2.3392061 -0.48141,1.035022 -0.56864,2.618444 -0.19789,3.592249 0.14088,0.370022 1.42968,2.698881 2.86401,5.17536295 1.43434,2.47648705 2.61124,4.59572205 2.61541,4.70942105 0.004,0.113693 -3.53112,6.3349679 -7.85621,13.8249749 l -7.86383,13.618157 -7.13903,0.03914 -7.13902,0.03914 -0.80733,0.376592 c -1.0516,0.490669 -1.97045,1.4053 -2.44512,2.434078 -0.32158,0.696997 -0.37947,0.996455 -0.38001,1.966024 0,0.971639 0.0562,1.265186 0.37633,1.951044 0.63763,1.365989 1.89874,2.419095 3.28924,2.746809 0.28127,0.06632 10.61818,0.124926 23.32502,0.132455 l 22.81965,0.01367 0.2565,-0.283825 c 0.21604,-0.239078 0.25512,-0.487595 0.24887,-1.581025 -0.0189,-3.316189 -1.93163,-6.482043 -4.54937,-7.530598 -0.48919,-0.195947 -1.53351,-0.231272 -8.63726,-0.291448 l -8.08091,-0.06833 2.30662,-3.969369 c 14.3518,-24.6960699 18.98743,-32.7337449 19.20691,-33.3023099 0.20263,-0.524952 0.24771,-0.909296 0.20446,-1.749217 -0.0981,-1.904614 -1.04496,-3.3510211 -2.73788,-4.1822371 -0.70401,-0.345667 -0.94527,-0.392625 -2.01096,-0.392625 -1.0528,0 -1.32152,0.05094 -2.05748,0.390784 -1.16708,0.538916 -1.87281,1.368348 -3.31446,3.8957861 -0.66033,1.157651 -1.24253,2.104783 -1.29378,2.104783 -0.0512,0 -0.631,-0.945268 -1.28852,-2.100577 -1.44864,-2.5453761 -2.05018,-3.2571411 -3.25349,-3.8495291 -0.81245,-0.39997 -1.01046,-0.441247 -2.11031,-0.441247 z M 231.7178,6.4216601 c -0.28506,-0.0088 -1.02321,0.716567 -1.53556,1.509277 -1.77561,2.7472259 -2.4833,8.3981519 -1.49534,11.9417369 0.1876,0.672893 2.51726,4.805848 10.12473,17.96254 5.43449,9.398651 10.08824,17.318774 10.34179,17.600399 1.35996,1.510456 3.60892,1.953756 5.53278,1.090366 1.81737,-0.815575 2.9518,-2.75034 2.78334,-4.747256 -0.0414,-0.490444 -0.19729,-1.164166 -0.34638,-1.497189 -0.14909,-0.333023 -1.41333,-2.573367 -2.80936,-4.978533 l -2.53814,-4.373024 4.24558,-0.06725 4.24557,-0.06725 0.80732,-0.376859 c 1.05161,-0.490656 1.97046,-1.4053 2.44512,-2.434075 0.32159,-0.696996 0.37921,-0.996188 0.37974,-1.965763 0,-0.971433 -0.0559,-1.265325 -0.37581,-1.951044 -0.49034,-1.050927 -1.40549,-1.970162 -2.43432,-2.445639 l -0.82205,-0.380073 -7.06702,-0.03914 -7.06703,-0.03914 -7.12851,-12.36853 C 235.08354,11.992456 231.80463,6.4243771 231.7178,6.4216601 Z M 198.04703,43.081011 c -0.76339,0.0016 -1.40914,0.06779 -1.67878,0.206034 -0.28856,0.147961 -0.80331,0.910407 -1.99677,2.957845 -2.39891,4.115432 -2.58021,4.526623 -2.57704,5.84472 0.005,2.086969 1.14051,3.734499 3.12604,4.535699 0.90626,0.36571 2.78886,0.28478 3.72022,-0.15978 1.24258,-0.59309 1.8226,-1.364648 4.44662,-5.914887 l 2.44433,-4.238475 -0.21629,-0.385007 c -0.57539,-1.02466 -2.29615,-2.042038 -4.29104,-2.537093 -0.82015,-0.203531 -1.99578,-0.310541 -2.97729,-0.309056 z"
         style="opacity:1;fill:none;fill-opacity:1;stroke:#000000;stroke-width:5;stroke-linecap:round;stroke-linejoin:round;stroke-miterlimit:4;stroke-dasharray:none;stroke-opacity:0.01176471" />
      <path
         style="opacity:1;fill:none;fill-opacity:1;stroke:#000000;stroke-width:5.5999999;stroke-linecap:round;stroke-linejoin:round;stroke-miterlimit:4;stroke-dasharray:none;stroke-opacity:0.01176471"
         d="m 217.88493,-12.488283 c -1.06882,0 -1.30941,0.04677 -2.01385,0.392625 -1.02063,0.501129 -1.88304,1.364676 -2.33631,2.3392061 -0.48141,1.035022 -0.56864,2.618444 -0.19789,3.592249 0.14088,0.370022 1.42968,2.698881 2.86401,5.17536295 1.43434,2.47648705 2.61124,4.59572205 2.61541,4.70942105 0.004,0.113693 -3.53112,6.3349679 -7.85621,13.8249749 l -7.86383,13.618157 -7.13903,0.03914 -7.13902,0.03914 -0.80733,0.376592 c -1.0516,0.490669 -1.97045,1.4053 -2.44512,2.434078 -0.32158,0.696997 -0.37947,0.996455 -0.38001,1.966024 0,0.971639 0.0562,1.265186 0.37633,1.951044 0.63763,1.365989 1.89874,2.419095 3.28924,2.746809 0.28127,0.06632 10.61818,0.124926 23.32502,0.132455 l 22.81965,0.01367 0.2565,-0.283825 c 0.21604,-0.239078 0.25512,-0.487595 0.24887,-1.581025 -0.0189,-3.316189 -1.93163,-6.482043 -4.54937,-7.530598 -0.48919,-0.195947 -1.53351,-0.231272 -8.63726,-0.291448 l -8.08091,-0.06833 2.30662,-3.969369 c 14.3518,-24.6960699 18.98743,-32.7337449 19.20691,-33.3023099 0.20263,-0.524952 0.24771,-0.909296 0.20446,-1.749217 -0.0981,-1.904614 -1.04496,-3.3510211 -2.73788,-4.1822371 -0.70401,-0.345667 -0.94527,-0.392625 -2.01096,-0.392625 -1.0528,0 -1.32152,0.05094 -2.05748,0.390784 -1.16708,0.538916 -1.87281,1.368348 -3.31446,3.8957861 -0.66033,1.157651 -1.24253,2.104783 -1.29378,2.104783 -0.0512,0 -0.631,-0.945268 -1.28852,-2.100577 -1.44864,-2.5453761 -2.05018,-3.2571411 -3.25349,-3.8495291 -0.81245,-0.39997 -1.01046,-0.441247 -2.11031,-0.441247 z M 231.7178,6.4216601 c -0.28506,-0.0088 -1.02321,0.716567 -1.53556,1.509277 -1.77561,2.7472259 -2.4833,8.3981519 -1.49534,11.9417369 0.1876,0.672893 2.51726,4.805848 10.12473,17.96254 5.43449,9.398651 10.08824,17.318774 10.34179,17.600399 1.35996,1.510456 3.60892,1.953756 5.53278,1.090366 1.81737,-0.815575 2.9518,-2.75034 2.78334,-4.747256 -0.0414,-0.490444 -0.19729,-1.164166 -0.34638,-1.497189 -0.14909,-0.333023 -1.41333,-2.573367 -2.80936,-4.978533 l -2.53814,-4.373024 4.24558,-0.06725 4.24557,-0.06725 0.80732,-0.376859 c 1.05161,-0.490656 1.97046,-1.4053 2.44512,-2.434075 0.32159,-0.696996 0.37921,-0.996188 0.37974,-1.965763 0,-0.971433 -0.0559,-1.265325 -0.37581,-1.951044 -0.49034,-1.050927 -1.40549,-1.970162 -2.43432,-2.445639 l -0.82205,-0.380073 -7.06702,-0.03914 -7.06703,-0.03914 -7.12851,-12.36853 C 235.08354,11.992456 231.80463,6.4243771 231.7178,6.4216601 Z M 198.04703,43.081011 c -0.76339,0.0016 -1.40914,0.06779 -1.67878,0.206034 -0.28856,0.147961 -0.80331,0.910407 -1.99677,2.957845 -2.39891,4.115432 -2.58021,4.526623 -2.57704,5.84472 0.005,2.086969 1.14051,3.734499 3.12604,4.535699 0.90626,0.36571 2.78886,0.28478 3.72022,-0.15978 1.24258,-0.59309 1.8226,-1.364648 4.44662,-5.914887 l 2.44433,-4.238475 -0.21629,-0.385007 c -0.57539,-1.02466 -2.29615,-2.042038 -4.29104,-2.537093 -0.82015,-0.203531 -1.99578,-0.310541 -2.97729,-0.309056 z"
         id="path923"
         inkscape:connector-curvature="0" />
      <path
         inkscape:connector-curvature="0"
         id="path925"
         d="m 217.88493,-12.488283 c -1.06882,0 -1.30941,0.04677 -2.01385,0.392625 -1.02063,0.501129 -1.88304,1.364676 -2.33631,2.3392061 -0.48141,1.035022 -0.56864,2.618444 -0.19789,3.592249 0.14088,0.370022 1.42968,2.698881 2.86401,5.17536295 1.43434,2.47648705 2.61124,4.59572205 2.61541,4.70942105 0.004,0.113693 -3.53112,6.3349679 -7.85621,13.8249749 l -7.86383,13.618157 -7.13903,0.03914 -7.13902,0.03914 -0.80733,0.376592 c -1.0516,0.490669 -1.97045,1.4053 -2.44512,2.434078 -0.32158,0.696997 -0.37947,0.996455 -0.38001,1.966024 0,0.971639 0.0562,1.265186 0.37633,1.951044 0.63763,1.365989 1.89874,2.419095 3.28924,2.746809 0.28127,0.06632 10.61818,0.124926 23.32502,0.132455 l 22.81965,0.01367 0.2565,-0.283825 c 0.21604,-0.239078 0.25512,-0.487595 0.24887,-1.581025 -0.0189,-3.316189 -1.93163,-6.482043 -4.54937,-7.530598 -0.48919,-0.195947 -1.53351,-0.231272 -8.63726,-0.291448 l -8.08091,-0.06833 2.30662,-3.969369 c 14.3518,-24.6960699 18.98743,-32.7337449 19.20691,-33.3023099 0.20263,-0.524952 0.24771,-0.909296 0.20446,-1.749217 -0.0981,-1.904614 -1.04496,-3.3510211 -2.73788,-4.1822371 -0.70401,-0.345667 -0.94527,-0.392625 -2.01096,-0.392625 -1.0528,0 -1.32152,0.05094 -2.05748,0.390784 -1.16708,0.538916 -1.87281,1.368348 -3.31446,3.8957861 -0.66033,1.157651 -1.24253,2.104783 -1.29378,2.104783 -0.0512,0 -0.631,-0.945268 -1.28852,-2.100577 -1.44864,-2.5453761 -2.05018,-3.2571411 -3.25349,-3.8495291 -0.81245,-0.39997 -1.01046,-0.441247 -2.11031,-0.441247 z M 231.7178,6.4216601 c -0.28506,-0.0088 -1.02321,0.716567 -1.53556,1.509277 -1.77561,2.7472259 -2.4833,8.3981519 -1.49534,11.9417369 0.1876,0.672893 2.51726,4.805848 10.12473,17.96254 5.43449,9.398651 10.08824,17.318774 10.34179,17.600399 1.35996,1.510456 3.60892,1.953756 5.53278,1.090366 1.81737,-0.815575 2.9518,-2.75034 2.78334,-4.747256 -0.0414,-0.490444 -0.19729,-1.164166 -0.34638,-1.497189 -0.14909,-0.333023 -1.41333,-2.573367 -2.80936,-4.978533 l -2.53814,-4.373024 4.24558,-0.06725 4.24557,-0.06725 0.80732,-0.376859 c 1.05161,-0.490656 1.97046,-1.4053 2.44512,-2.434075 0.32159,-0.696996 0.37921,-0.996188 0.37974,-1.965763 0,-0.971433 -0.0559,-1.265325 -0.37581,-1.951044 -0.49034,-1.050927 -1.40549,-1.970162 -2.43432,-2.445639 l -0.82205,-0.380073 -7.06702,-0.03914 -7.06703,-0.03914 -7.12851,-12.36853 C 235.08354,11.992456 231.80463,6.4243771 231.7178,6.4216601 Z M 198.04703,43.081011 c -0.76339,0.0016 -1.40914,0.06779 -1.67878,0.206034 -0.28856,0.147961 -0.80331,0.910407 -1.99677,2.957845 -2.39891,4.115432 -2.58021,4.526623 -2.57704,5.84472 0.005,2.086969 1.14051,3.734499 3.12604,4.535699 0.90626,0.36571 2.78886,0.28478 3.72022,-0.15978 1.24258,-0.59309 1.8226,-1.364648 4.44662,-5.914887 l 2.44433,-4.238475 -0.21629,-0.385007 c -0.57539,-1.02466 -2.29615,-2.042038 -4.29104,-2.537093 -0.82015,-0.203531 -1.99578,-0.310541 -2.97729,-0.309056 z"
         style="opacity:1;fill:none;fill-opacity:1;stroke:#000000;stroke-width:6;stroke-linecap:round;stroke-linejoin:round;stroke-miterlimit:4;stroke-dasharray:none;stroke-opacity:0.01176471" />
      <path
         style="opacity:1;fill:none;fill-opacity:1;stroke:#000000;stroke-width:6.80000019;stroke-linecap:round;stroke-linejoin:round;stroke-miterlimit:4;stroke-dasharray:none;stroke-opacity:0.01176471"
         d="m 217.88493,-12.488283 c -1.06882,0 -1.30941,0.04677 -2.01385,0.392625 -1.02063,0.501129 -1.88304,1.364676 -2.33631,2.3392061 -0.48141,1.035022 -0.56864,2.618444 -0.19789,3.592249 0.14088,0.370022 1.42968,2.698881 2.86401,5.17536295 1.43434,2.47648705 2.61124,4.59572205 2.61541,4.70942105 0.004,0.113693 -3.53112,6.3349679 -7.85621,13.8249749 l -7.86383,13.618157 -7.13903,0.03914 -7.13902,0.03914 -0.80733,0.376592 c -1.0516,0.490669 -1.97045,1.4053 -2.44512,2.434078 -0.32158,0.696997 -0.37947,0.996455 -0.38001,1.966024 0,0.971639 0.0562,1.265186 0.37633,1.951044 0.63763,1.365989 1.89874,2.419095 3.28924,2.746809 0.28127,0.06632 10.61818,0.124926 23.32502,0.132455 l 22.81965,0.01367 0.2565,-0.283825 c 0.21604,-0.239078 0.25512,-0.487595 0.24887,-1.581025 -0.0189,-3.316189 -1.93163,-6.482043 -4.54937,-7.530598 -0.48919,-0.195947 -1.53351,-0.231272 -8.63726,-0.291448 l -8.08091,-0.06833 2.30662,-3.969369 c 14.3518,-24.6960699 18.98743,-32.7337449 19.20691,-33.3023099 0.20263,-0.524952 0.24771,-0.909296 0.20446,-1.749217 -0.0981,-1.904614 -1.04496,-3.3510211 -2.73788,-4.1822371 -0.70401,-0.345667 -0.94527,-0.392625 -2.01096,-0.392625 -1.0528,0 -1.32152,0.05094 -2.05748,0.390784 -1.16708,0.538916 -1.87281,1.368348 -3.31446,3.8957861 -0.66033,1.157651 -1.24253,2.104783 -1.29378,2.104783 -0.0512,0 -0.631,-0.945268 -1.28852,-2.100577 -1.44864,-2.5453761 -2.05018,-3.2571411 -3.25349,-3.8495291 -0.81245,-0.39997 -1.01046,-0.441247 -2.11031,-0.441247 z M 231.7178,6.4216601 c -0.28506,-0.0088 -1.02321,0.716567 -1.53556,1.509277 -1.77561,2.7472259 -2.4833,8.3981519 -1.49534,11.9417369 0.1876,0.672893 2.51726,4.805848 10.12473,17.96254 5.43449,9.398651 10.08824,17.318774 10.34179,17.600399 1.35996,1.510456 3.60892,1.953756 5.53278,1.090366 1.81737,-0.815575 2.9518,-2.75034 2.78334,-4.747256 -0.0414,-0.490444 -0.19729,-1.164166 -0.34638,-1.497189 -0.14909,-0.333023 -1.41333,-2.573367 -2.80936,-4.978533 l -2.53814,-4.373024 4.24558,-0.06725 4.24557,-0.06725 0.80732,-0.376859 c 1.05161,-0.490656 1.97046,-1.4053 2.44512,-2.434075 0.32159,-0.696996 0.37921,-0.996188 0.37974,-1.965763 0,-0.971433 -0.0559,-1.265325 -0.37581,-1.951044 -0.49034,-1.050927 -1.40549,-1.970162 -2.43432,-2.445639 l -0.82205,-0.380073 -7.06702,-0.03914 -7.06703,-0.03914 -7.12851,-12.36853 C 235.08354,11.992456 231.80463,6.4243771 231.7178,6.4216601 Z M 198.04703,43.081011 c -0.76339,0.0016 -1.40914,0.06779 -1.67878,0.206034 -0.28856,0.147961 -0.80331,0.910407 -1.99677,2.957845 -2.39891,4.115432 -2.58021,4.526623 -2.57704,5.84472 0.005,2.086969 1.14051,3.734499 3.12604,4.535699 0.90626,0.36571 2.78886,0.28478 3.72022,-0.15978 1.24258,-0.59309 1.8226,-1.364648 4.44662,-5.914887 l 2.44433,-4.238475 -0.21629,-0.385007 c -0.57539,-1.02466 -2.29615,-2.042038 -4.29104,-2.537093 -0.82015,-0.203531 -1.99578,-0.310541 -2.97729,-0.309056 z"
         id="path927"
         inkscape:connector-curvature="0" />
      <path
         inkscape:connector-curvature="0"
         id="path929"
         d="m 217.88493,-12.488283 c -1.06882,0 -1.30941,0.04677 -2.01385,0.392625 -1.02063,0.501129 -1.88304,1.364676 -2.33631,2.3392061 -0.48141,1.035022 -0.56864,2.618444 -0.19789,3.592249 0.14088,0.370022 1.42968,2.698881 2.86401,5.17536295 1.43434,2.47648705 2.61124,4.59572205 2.61541,4.70942105 0.004,0.113693 -3.53112,6.3349679 -7.85621,13.8249749 l -7.86383,13.618157 -7.13903,0.03914 -7.13902,0.03914 -0.80733,0.376592 c -1.0516,0.490669 -1.97045,1.4053 -2.44512,2.434078 -0.32158,0.696997 -0.37947,0.996455 -0.38001,1.966024 0,0.971639 0.0562,1.265186 0.37633,1.951044 0.63763,1.365989 1.89874,2.419095 3.28924,2.746809 0.28127,0.06632 10.61818,0.124926 23.32502,0.132455 l 22.81965,0.01367 0.2565,-0.283825 c 0.21604,-0.239078 0.25512,-0.487595 0.24887,-1.581025 -0.0189,-3.316189 -1.93163,-6.482043 -4.54937,-7.530598 -0.48919,-0.195947 -1.53351,-0.231272 -8.63726,-0.291448 l -8.08091,-0.06833 2.30662,-3.969369 c 14.3518,-24.6960699 18.98743,-32.7337449 19.20691,-33.3023099 0.20263,-0.524952 0.24771,-0.909296 0.20446,-1.749217 -0.0981,-1.904614 -1.04496,-3.3510211 -2.73788,-4.1822371 -0.70401,-0.345667 -0.94527,-0.392625 -2.01096,-0.392625 -1.0528,0 -1.32152,0.05094 -2.05748,0.390784 -1.16708,0.538916 -1.87281,1.368348 -3.31446,3.8957861 -0.66033,1.157651 -1.24253,2.104783 -1.29378,2.104783 -0.0512,0 -0.631,-0.945268 -1.28852,-2.100577 -1.44864,-2.5453761 -2.05018,-3.2571411 -3.25349,-3.8495291 -0.81245,-0.39997 -1.01046,-0.441247 -2.11031,-0.441247 z M 231.7178,6.4216601 c -0.28506,-0.0088 -1.02321,0.716567 -1.53556,1.509277 -1.77561,2.7472259 -2.4833,8.3981519 -1.49534,11.9417369 0.1876,0.672893 2.51726,4.805848 10.12473,17.96254 5.43449,9.398651 10.08824,17.318774 10.34179,17.600399 1.35996,1.510456 3.60892,1.953756 5.53278,1.090366 1.81737,-0.815575 2.9518,-2.75034 2.78334,-4.747256 -0.0414,-0.490444 -0.19729,-1.164166 -0.34638,-1.497189 -0.14909,-0.333023 -1.41333,-2.573367 -2.80936,-4.978533 l -2.53814,-4.373024 4.24558,-0.06725 4.24557,-0.06725 0.80732,-0.376859 c 1.05161,-0.490656 1.97046,-1.4053 2.44512,-2.434075 0.32159,-0.696996 0.37921,-0.996188 0.37974,-1.965763 0,-0.971433 -0.0559,-1.265325 -0.37581,-1.951044 -0.49034,-1.050927 -1.40549,-1.970162 -2.43432,-2.445639 l -0.82205,-0.380073 -7.06702,-0.03914 -7.06703,-0.03914 -7.12851,-12.36853 C 235.08354,11.992456 231.80463,6.4243771 231.7178,6.4216601 Z M 198.04703,43.081011 c -0.76339,0.0016 -1.40914,0.06779 -1.67878,0.206034 -0.28856,0.147961 -0.80331,0.910407 -1.99677,2.957845 -2.39891,4.115432 -2.58021,4.526623 -2.57704,5.84472 0.005,2.086969 1.14051,3.734499 3.12604,4.535699 0.90626,0.36571 2.78886,0.28478 3.72022,-0.15978 1.24258,-0.59309 1.8226,-1.364648 4.44662,-5.914887 l 2.44433,-4.238475 -0.21629,-0.385007 c -0.57539,-1.02466 -2.29615,-2.042038 -4.29104,-2.537093 -0.82015,-0.203531 -1.99578,-0.310541 -2.97729,-0.309056 z"
         style="opacity:1;fill:none;fill-opacity:1;stroke:#000000;stroke-width:7.5999999;stroke-linecap:round;stroke-linejoin:round;stroke-miterlimit:4;stroke-dasharray:none;stroke-opacity:0.01176471" />
      <path
         style="opacity:1;fill:none;fill-opacity:1;stroke:#000000;stroke-width:8.39999962;stroke-linecap:round;stroke-linejoin:round;stroke-miterlimit:4;stroke-dasharray:none;stroke-opacity:0.01176471"
         d="m 217.88493,-12.488283 c -1.06882,0 -1.30941,0.04677 -2.01385,0.392625 -1.02063,0.501129 -1.88304,1.364676 -2.33631,2.3392061 -0.48141,1.035022 -0.56864,2.618444 -0.19789,3.592249 0.14088,0.370022 1.42968,2.698881 2.86401,5.17536295 1.43434,2.47648705 2.61124,4.59572205 2.61541,4.70942105 0.004,0.113693 -3.53112,6.3349679 -7.85621,13.8249749 l -7.86383,13.618157 -7.13903,0.03914 -7.13902,0.03914 -0.80733,0.376592 c -1.0516,0.490669 -1.97045,1.4053 -2.44512,2.434078 -0.32158,0.696997 -0.37947,0.996455 -0.38001,1.966024 0,0.971639 0.0562,1.265186 0.37633,1.951044 0.63763,1.365989 1.89874,2.419095 3.28924,2.746809 0.28127,0.06632 10.61818,0.124926 23.32502,0.132455 l 22.81965,0.01367 0.2565,-0.283825 c 0.21604,-0.239078 0.25512,-0.487595 0.24887,-1.581025 -0.0189,-3.316189 -1.93163,-6.482043 -4.54937,-7.530598 -0.48919,-0.195947 -1.53351,-0.231272 -8.63726,-0.291448 l -8.08091,-0.06833 2.30662,-3.969369 c 14.3518,-24.6960699 18.98743,-32.7337449 19.20691,-33.3023099 0.20263,-0.524952 0.24771,-0.909296 0.20446,-1.749217 -0.0981,-1.904614 -1.04496,-3.3510211 -2.73788,-4.1822371 -0.70401,-0.345667 -0.94527,-0.392625 -2.01096,-0.392625 -1.0528,0 -1.32152,0.05094 -2.05748,0.390784 -1.16708,0.538916 -1.87281,1.368348 -3.31446,3.8957861 -0.66033,1.157651 -1.24253,2.104783 -1.29378,2.104783 -0.0512,0 -0.631,-0.945268 -1.28852,-2.100577 -1.44864,-2.5453761 -2.05018,-3.2571411 -3.25349,-3.8495291 -0.81245,-0.39997 -1.01046,-0.441247 -2.11031,-0.441247 z M 231.7178,6.4216601 c -0.28506,-0.0088 -1.02321,0.716567 -1.53556,1.509277 -1.77561,2.7472259 -2.4833,8.3981519 -1.49534,11.9417369 0.1876,0.672893 2.51726,4.805848 10.12473,17.96254 5.43449,9.398651 10.08824,17.318774 10.34179,17.600399 1.35996,1.510456 3.60892,1.953756 5.53278,1.090366 1.81737,-0.815575 2.9518,-2.75034 2.78334,-4.747256 -0.0414,-0.490444 -0.19729,-1.164166 -0.34638,-1.497189 -0.14909,-0.333023 -1.41333,-2.573367 -2.80936,-4.978533 l -2.53814,-4.373024 4.24558,-0.06725 4.24557,-0.06725 0.80732,-0.376859 c 1.05161,-0.490656 1.97046,-1.4053 2.44512,-2.434075 0.32159,-0.696996 0.37921,-0.996188 0.37974,-1.965763 0,-0.971433 -0.0559,-1.265325 -0.37581,-1.951044 -0.49034,-1.050927 -1.40549,-1.970162 -2.43432,-2.445639 l -0.82205,-0.380073 -7.06702,-0.03914 -7.06703,-0.03914 -7.12851,-12.36853 C 235.08354,11.992456 231.80463,6.4243771 231.7178,6.4216601 Z M 198.04703,43.081011 c -0.76339,0.0016 -1.40914,0.06779 -1.67878,0.206034 -0.28856,0.147961 -0.80331,0.910407 -1.99677,2.957845 -2.39891,4.115432 -2.58021,4.526623 -2.57704,5.84472 0.005,2.086969 1.14051,3.734499 3.12604,4.535699 0.90626,0.36571 2.78886,0.28478 3.72022,-0.15978 1.24258,-0.59309 1.8226,-1.364648 4.44662,-5.914887 l 2.44433,-4.238475 -0.21629,-0.385007 c -0.57539,-1.02466 -2.29615,-2.042038 -4.29104,-2.537093 -0.82015,-0.203531 -1.99578,-0.310541 -2.97729,-0.309056 z"
         id="path931"
         inkscape:connector-curvature="0" />
      <path
         inkscape:connector-curvature="0"
         id="path933"
         d="m 217.88493,-12.488283 c -1.06882,0 -1.30941,0.04677 -2.01385,0.392625 -1.02063,0.501129 -1.88304,1.364676 -2.33631,2.3392061 -0.48141,1.035022 -0.56864,2.618444 -0.19789,3.592249 0.14088,0.370022 1.42968,2.698881 2.86401,5.17536295 1.43434,2.47648705 2.61124,4.59572205 2.61541,4.70942105 0.004,0.113693 -3.53112,6.3349679 -7.85621,13.8249749 l -7.86383,13.618157 -7.13903,0.03914 -7.13902,0.03914 -0.80733,0.376592 c -1.0516,0.490669 -1.97045,1.4053 -2.44512,2.434078 -0.32158,0.696997 -0.37947,0.996455 -0.38001,1.966024 0,0.971639 0.0562,1.265186 0.37633,1.951044 0.63763,1.365989 1.89874,2.419095 3.28924,2.746809 0.28127,0.06632 10.61818,0.124926 23.32502,0.132455 l 22.81965,0.01367 0.2565,-0.283825 c 0.21604,-0.239078 0.25512,-0.487595 0.24887,-1.581025 -0.0189,-3.316189 -1.93163,-6.482043 -4.54937,-7.530598 -0.48919,-0.195947 -1.53351,-0.231272 -8.63726,-0.291448 l -8.08091,-0.06833 2.30662,-3.969369 c 14.3518,-24.6960699 18.98743,-32.7337449 19.20691,-33.3023099 0.20263,-0.524952 0.24771,-0.909296 0.20446,-1.749217 -0.0981,-1.904614 -1.04496,-3.3510211 -2.73788,-4.1822371 -0.70401,-0.345667 -0.94527,-0.392625 -2.01096,-0.392625 -1.0528,0 -1.32152,0.05094 -2.05748,0.390784 -1.16708,0.538916 -1.87281,1.368348 -3.31446,3.8957861 -0.66033,1.157651 -1.24253,2.104783 -1.29378,2.104783 -0.0512,0 -0.631,-0.945268 -1.28852,-2.100577 -1.44864,-2.5453761 -2.05018,-3.2571411 -3.25349,-3.8495291 -0.81245,-0.39997 -1.01046,-0.441247 -2.11031,-0.441247 z M 231.7178,6.4216601 c -0.28506,-0.0088 -1.02321,0.716567 -1.53556,1.509277 -1.77561,2.7472259 -2.4833,8.3981519 -1.49534,11.9417369 0.1876,0.672893 2.51726,4.805848 10.12473,17.96254 5.43449,9.398651 10.08824,17.318774 10.34179,17.600399 1.35996,1.510456 3.60892,1.953756 5.53278,1.090366 1.81737,-0.815575 2.9518,-2.75034 2.78334,-4.747256 -0.0414,-0.490444 -0.19729,-1.164166 -0.34638,-1.497189 -0.14909,-0.333023 -1.41333,-2.573367 -2.80936,-4.978533 l -2.53814,-4.373024 4.24558,-0.06725 4.24557,-0.06725 0.80732,-0.376859 c 1.05161,-0.490656 1.97046,-1.4053 2.44512,-2.434075 0.32159,-0.696996 0.37921,-0.996188 0.37974,-1.965763 0,-0.971433 -0.0559,-1.265325 -0.37581,-1.951044 -0.49034,-1.050927 -1.40549,-1.970162 -2.43432,-2.445639 l -0.82205,-0.380073 -7.06702,-0.03914 -7.06703,-0.03914 -7.12851,-12.36853 C 235.08354,11.992456 231.80463,6.4243771 231.7178,6.4216601 Z M 198.04703,43.081011 c -0.76339,0.0016 -1.40914,0.06779 -1.67878,0.206034 -0.28856,0.147961 -0.80331,0.910407 -1.99677,2.957845 -2.39891,4.115432 -2.58021,4.526623 -2.57704,5.84472 0.005,2.086969 1.14051,3.734499 3.12604,4.535699 0.90626,0.36571 2.78886,0.28478 3.72022,-0.15978 1.24258,-0.59309 1.8226,-1.364648 4.44662,-5.914887 l 2.44433,-4.238475 -0.21629,-0.385007 c -0.57539,-1.02466 -2.29615,-2.042038 -4.29104,-2.537093 -0.82015,-0.203531 -1.99578,-0.310541 -2.97729,-0.309056 z"
         style="opacity:1;fill:none;fill-opacity:1;stroke:#000000;stroke-width:9.19999981;stroke-linecap:round;stroke-linejoin:round;stroke-miterlimit:4;stroke-dasharray:none;stroke-opacity:0.01176471" />
      <path
         style="opacity:1;fill:none;fill-opacity:1;stroke:#000000;stroke-width:10.39999962;stroke-linecap:round;stroke-linejoin:round;stroke-miterlimit:4;stroke-dasharray:none;stroke-opacity:0.01176471"
         d="m 217.88493,-12.488283 c -1.06882,0 -1.30941,0.04677 -2.01385,0.392625 -1.02063,0.501129 -1.88304,1.364676 -2.33631,2.3392061 -0.48141,1.035022 -0.56864,2.618444 -0.19789,3.592249 0.14088,0.370022 1.42968,2.698881 2.86401,5.17536295 1.43434,2.47648705 2.61124,4.59572205 2.61541,4.70942105 0.004,0.113693 -3.53112,6.3349679 -7.85621,13.8249749 l -7.86383,13.618157 -7.13903,0.03914 -7.13902,0.03914 -0.80733,0.376592 c -1.0516,0.490669 -1.97045,1.4053 -2.44512,2.434078 -0.32158,0.696997 -0.37947,0.996455 -0.38001,1.966024 0,0.971639 0.0562,1.265186 0.37633,1.951044 0.63763,1.365989 1.89874,2.419095 3.28924,2.746809 0.28127,0.06632 10.61818,0.124926 23.32502,0.132455 l 22.81965,0.01367 0.2565,-0.283825 c 0.21604,-0.239078 0.25512,-0.487595 0.24887,-1.581025 -0.0189,-3.316189 -1.93163,-6.482043 -4.54937,-7.530598 -0.48919,-0.195947 -1.53351,-0.231272 -8.63726,-0.291448 l -8.08091,-0.06833 2.30662,-3.969369 c 14.3518,-24.6960699 18.98743,-32.7337449 19.20691,-33.3023099 0.20263,-0.524952 0.24771,-0.909296 0.20446,-1.749217 -0.0981,-1.904614 -1.04496,-3.3510211 -2.73788,-4.1822371 -0.70401,-0.345667 -0.94527,-0.392625 -2.01096,-0.392625 -1.0528,0 -1.32152,0.05094 -2.05748,0.390784 -1.16708,0.538916 -1.87281,1.368348 -3.31446,3.8957861 -0.66033,1.157651 -1.24253,2.104783 -1.29378,2.104783 -0.0512,0 -0.631,-0.945268 -1.28852,-2.100577 -1.44864,-2.5453761 -2.05018,-3.2571411 -3.25349,-3.8495291 -0.81245,-0.39997 -1.01046,-0.441247 -2.11031,-0.441247 z M 231.7178,6.4216601 c -0.28506,-0.0088 -1.02321,0.716567 -1.53556,1.509277 -1.77561,2.7472259 -2.4833,8.3981519 -1.49534,11.9417369 0.1876,0.672893 2.51726,4.805848 10.12473,17.96254 5.43449,9.398651 10.08824,17.318774 10.34179,17.600399 1.35996,1.510456 3.60892,1.953756 5.53278,1.090366 1.81737,-0.815575 2.9518,-2.75034 2.78334,-4.747256 -0.0414,-0.490444 -0.19729,-1.164166 -0.34638,-1.497189 -0.14909,-0.333023 -1.41333,-2.573367 -2.80936,-4.978533 l -2.53814,-4.373024 4.24558,-0.06725 4.24557,-0.06725 0.80732,-0.376859 c 1.05161,-0.490656 1.97046,-1.4053 2.44512,-2.434075 0.32159,-0.696996 0.37921,-0.996188 0.37974,-1.965763 0,-0.971433 -0.0559,-1.265325 -0.37581,-1.951044 -0.49034,-1.050927 -1.40549,-1.970162 -2.43432,-2.445639 l -0.82205,-0.380073 -7.06702,-0.03914 -7.06703,-0.03914 -7.12851,-12.36853 C 235.08354,11.992456 231.80463,6.4243771 231.7178,6.4216601 Z M 198.04703,43.081011 c -0.76339,0.0016 -1.40914,0.06779 -1.67878,0.206034 -0.28856,0.147961 -0.80331,0.910407 -1.99677,2.957845 -2.39891,4.115432 -2.58021,4.526623 -2.57704,5.84472 0.005,2.086969 1.14051,3.734499 3.12604,4.535699 0.90626,0.36571 2.78886,0.28478 3.72022,-0.15978 1.24258,-0.59309 1.8226,-1.364648 4.44662,-5.914887 l 2.44433,-4.238475 -0.21629,-0.385007 c -0.57539,-1.02466 -2.29615,-2.042038 -4.29104,-2.537093 -0.82015,-0.203531 -1.99578,-0.310541 -2.97729,-0.309056 z"
         id="path935"
         inkscape:connector-curvature="0" />
      <path
         inkscape:connector-curvature="0"
         id="path937"
         d="m 217.88493,-12.488283 c -1.06882,0 -1.30941,0.04677 -2.01385,0.392625 -1.02063,0.501129 -1.88304,1.364676 -2.33631,2.3392061 -0.48141,1.035022 -0.56864,2.618444 -0.19789,3.592249 0.14088,0.370022 1.42968,2.698881 2.86401,5.17536295 1.43434,2.47648705 2.61124,4.59572205 2.61541,4.70942105 0.004,0.113693 -3.53112,6.3349679 -7.85621,13.8249749 l -7.86383,13.618157 -7.13903,0.03914 -7.13902,0.03914 -0.80733,0.376592 c -1.0516,0.490669 -1.97045,1.4053 -2.44512,2.434078 -0.32158,0.696997 -0.37947,0.996455 -0.38001,1.966024 0,0.971639 0.0562,1.265186 0.37633,1.951044 0.63763,1.365989 1.89874,2.419095 3.28924,2.746809 0.28127,0.06632 10.61818,0.124926 23.32502,0.132455 l 22.81965,0.01367 0.2565,-0.283825 c 0.21604,-0.239078 0.25512,-0.487595 0.24887,-1.581025 -0.0189,-3.316189 -1.93163,-6.482043 -4.54937,-7.530598 -0.48919,-0.195947 -1.53351,-0.231272 -8.63726,-0.291448 l -8.08091,-0.06833 2.30662,-3.969369 c 14.3518,-24.6960699 18.98743,-32.7337449 19.20691,-33.3023099 0.20263,-0.524952 0.24771,-0.909296 0.20446,-1.749217 -0.0981,-1.904614 -1.04496,-3.3510211 -2.73788,-4.1822371 -0.70401,-0.345667 -0.94527,-0.392625 -2.01096,-0.392625 -1.0528,0 -1.32152,0.05094 -2.05748,0.390784 -1.16708,0.538916 -1.87281,1.368348 -3.31446,3.8957861 -0.66033,1.157651 -1.24253,2.104783 -1.29378,2.104783 -0.0512,0 -0.631,-0.945268 -1.28852,-2.100577 -1.44864,-2.5453761 -2.05018,-3.2571411 -3.25349,-3.8495291 -0.81245,-0.39997 -1.01046,-0.441247 -2.11031,-0.441247 z M 231.7178,6.4216601 c -0.28506,-0.0088 -1.02321,0.716567 -1.53556,1.509277 -1.77561,2.7472259 -2.4833,8.3981519 -1.49534,11.9417369 0.1876,0.672893 2.51726,4.805848 10.12473,17.96254 5.43449,9.398651 10.08824,17.318774 10.34179,17.600399 1.35996,1.510456 3.60892,1.953756 5.53278,1.090366 1.81737,-0.815575 2.9518,-2.75034 2.78334,-4.747256 -0.0414,-0.490444 -0.19729,-1.164166 -0.34638,-1.497189 -0.14909,-0.333023 -1.41333,-2.573367 -2.80936,-4.978533 l -2.53814,-4.373024 4.24558,-0.06725 4.24557,-0.06725 0.80732,-0.376859 c 1.05161,-0.490656 1.97046,-1.4053 2.44512,-2.434075 0.32159,-0.696996 0.37921,-0.996188 0.37974,-1.965763 0,-0.971433 -0.0559,-1.265325 -0.37581,-1.951044 -0.49034,-1.050927 -1.40549,-1.970162 -2.43432,-2.445639 l -0.82205,-0.380073 -7.06702,-0.03914 -7.06703,-0.03914 -7.12851,-12.36853 C 235.08354,11.992456 231.80463,6.4243771 231.7178,6.4216601 Z M 198.04703,43.081011 c -0.76339,0.0016 -1.40914,0.06779 -1.67878,0.206034 -0.28856,0.147961 -0.80331,0.910407 -1.99677,2.957845 -2.39891,4.115432 -2.58021,4.526623 -2.57704,5.84472 0.005,2.086969 1.14051,3.734499 3.12604,4.535699 0.90626,0.36571 2.78886,0.28478 3.72022,-0.15978 1.24258,-0.59309 1.8226,-1.364648 4.44662,-5.914887 l 2.44433,-4.238475 -0.21629,-0.385007 c -0.57539,-1.02466 -2.29615,-2.042038 -4.29104,-2.537093 -0.82015,-0.203531 -1.99578,-0.310541 -2.97729,-0.309056 z"
         style="opacity:1;fill:none;fill-opacity:1;stroke:#000000;stroke-width:11.60000038;stroke-linecap:round;stroke-linejoin:round;stroke-miterlimit:4;stroke-dasharray:none;stroke-opacity:0.01176471" />
    </g>
  </g>
  <path
     style="opacity:1;fill:#ffffff;fill-opacity:1;stroke:none;stroke-width:0.10764384;stroke-linecap:round;stroke-linejoin:round;stroke-miterlimit:4;stroke-dasharray:none;stroke-opacity:1"
     d="m 56.934447,27.933626 c -1.068823,0 -1.309416,0.04677 -2.013854,0.392625 -1.020629,0.501129 -1.883038,1.364676 -2.336312,2.339206 -0.481406,1.035022 -0.568639,2.618444 -0.19789,3.592249 0.140882,0.370022 1.429681,2.698881 2.864019,5.175363 1.434338,2.476487 2.611234,4.595722 2.615408,4.709421 0.0043,0.113693 -3.531123,6.334968 -7.856212,13.824975 l -7.863835,13.618157 -7.139026,0.03914 -7.139024,0.03914 -0.807329,0.376592 c -1.0516,0.490669 -1.970444,1.4053 -2.445113,2.434078 -0.321586,0.696997 -0.379474,0.996455 -0.380012,1.966024 0,0.971639 0.05618,1.265186 0.376332,1.951044 0.637629,1.365989 1.898733,2.419095 3.289236,2.746809 0.281274,0.06632 10.618177,0.124926 23.32502,0.132455 l 22.819654,0.01367 0.256498,-0.283825 c 0.216034,-0.239078 0.255114,-0.487595 0.248871,-1.581025 -0.01894,-3.316189 -1.931637,-6.482043 -4.549374,-7.530598 -0.489192,-0.195947 -1.533506,-0.231272 -8.637257,-0.291448 l -8.080914,-0.06833 2.306621,-3.969369 c 14.351803,-24.69607 18.987435,-32.733745 19.206908,-33.30231 0.202632,-0.524952 0.247715,-0.909296 0.20446,-1.749217 -0.09809,-1.904614 -1.044957,-3.351021 -2.737875,-4.182237 -0.704014,-0.345667 -0.945267,-0.392625 -2.010961,-0.392625 -1.052802,0 -1.321516,0.05094 -2.057485,0.390784 -1.167076,0.538916 -1.872809,1.368348 -3.31446,3.895786 -0.660328,1.157651 -1.242525,2.104783 -1.293778,2.104783 -0.05124,0 -0.630999,-0.945268 -1.28852,-2.100577 -1.44864,-2.545376 -2.050176,-3.257141 -3.253491,-3.849529 -0.812451,-0.39997 -1.01046,-0.441247 -2.110305,-0.441247 z m 13.83287,18.909943 c -0.285065,-0.0088 -1.023207,0.716567 -1.535558,1.509277 -1.775618,2.747226 -2.483303,8.398152 -1.495344,11.941737 0.187605,0.672893 2.517264,4.805848 10.124726,17.96254 5.434494,9.398651 10.088245,17.318774 10.341797,17.600399 1.359962,1.510456 3.608913,1.953756 5.532775,1.090366 1.817372,-0.815575 2.9518,-2.75034 2.78334,-4.747256 -0.04136,-0.490444 -0.197292,-1.164166 -0.346375,-1.497189 -0.149088,-0.333023 -1.413335,-2.573367 -2.80936,-4.978533 l -2.538145,-4.373024 4.245583,-0.06725 4.245573,-0.06725 0.807321,-0.376859 c 1.05161,-0.490656 1.97046,-1.4053 2.44512,-2.434075 0.32159,-0.696996 0.37921,-0.996188 0.37974,-1.965763 0,-0.971433 -0.0559,-1.265325 -0.37581,-1.951044 -0.49034,-1.050927 -1.40549,-1.970162 -2.43432,-2.445639 l -0.822051,-0.380073 -7.067025,-0.03914 -7.067025,-0.03914 -7.128513,-12.36853 C 74.133056,52.414365 70.854144,46.846286 70.767317,46.843569 Z M 37.09655,83.50292 c -0.763392,0.0016 -1.409143,0.06779 -1.678781,0.206034 -0.288567,0.147961 -0.803311,0.910407 -1.996772,2.957845 -2.39891,4.115432 -2.580216,4.526623 -2.57704,5.84472 0.0049,2.086969 1.140504,3.734499 3.126035,4.535699 0.906267,0.36571 2.788868,0.28478 3.720228,-0.15978 1.242574,-0.59309 1.822591,-1.364648 4.446617,-5.914887 l 2.444324,-4.238475 -0.216286,-0.385007 C 43.789485,85.324409 42.068726,84.307031 40.073839,83.811976 39.25369,83.608445 38.078057,83.501435 37.09655,83.50292 Z"
     id="path875"
     inkscape:connector-curvature="0" />
</svg>
