<?xml version="1.0" encoding="UTF-8" standalone="no"?>
<!-- Created with Inkscape (http://www.inkscape.org/) -->

<svg
   xmlns:dc="http://purl.org/dc/elements/1.1/"
   xmlns:cc="http://creativecommons.org/ns#"
   xmlns:rdf="http://www.w3.org/1999/02/22-rdf-syntax-ns#"
   xmlns:svg="http://www.w3.org/2000/svg"
   xmlns="http://www.w3.org/2000/svg"
   xmlns:xlink="http://www.w3.org/1999/xlink"
   xmlns:sodipodi="http://sodipodi.sourceforge.net/DTD/sodipodi-0.dtd"
   xmlns:inkscape="http://www.inkscape.org/namespaces/inkscape"
   id="svg2"
   version="1.1"
   inkscape:version="0.91 r13725"
   width="128"
   height="128"
   viewBox="0 0 128 128"
   sodipodi:docname="yast-live-install.svg">
  <metadata
     id="metadata8">
    <rdf:RDF>
      <cc:Work
         rdf:about="">
        <dc:format>image/svg+xml</dc:format>
        <dc:type
           rdf:resource="http://purl.org/dc/dcmitype/StillImage" />
        <dc:title />
      </cc:Work>
    </rdf:RDF>
  </metadata>
  <defs
     id="defs6">
    <linearGradient
       inkscape:collect="always"
       id="linearGradient4187">
      <stop
         style="stop-color:#008272;stop-opacity:1;"
         offset="0"
         id="stop4189" />
      <stop
         style="stop-color:#00a591;stop-opacity:1"
         offset="1"
         id="stop4191" />
    </linearGradient>
    <linearGradient
       inkscape:collect="always"
       id="linearGradient4171">
      <stop
         style="stop-color:#ebedee;stop-opacity:1"
         offset="0"
         id="stop4173" />
      <stop
         style="stop-color:#d7dadc;stop-opacity:1"
         offset="1"
         id="stop4175" />
    </linearGradient>
    <linearGradient
       inkscape:collect="always"
       id="linearGradient4178">
      <stop
         style="stop-color:#9af590;stop-opacity:1"
         offset="0"
         id="stop4180" />
      <stop
         style="stop-color:#74ce6d;stop-opacity:1"
         offset="1"
         id="stop4182" />
    </linearGradient>
    <linearGradient
       inkscape:collect="always"
       id="linearGradient4152">
      <stop
         style="stop-color:#a5abae;stop-opacity:1"
         offset="0"
         id="stop4154" />
      <stop
         id="stop4166"
         offset="0.03589743"
         style="stop-color:#c5ccd0;stop-opacity:1" />
      <stop
         id="stop4160"
         offset="0.07179487"
         style="stop-color:#d7dee2;stop-opacity:1" />
      <stop
         style="stop-color:#dde2e5;stop-opacity:1"
         offset="0.11461538"
         id="stop4162" />
      <stop
         id="stop4164"
         offset="0.24576923"
         style="stop-color:#bbbdbd;stop-opacity:1" />
      <stop
         style="stop-color:#bbbcbc;stop-opacity:1"
         offset="0.30291665"
         id="stop4174" />
      <stop
         style="stop-color:#c6cacb;stop-opacity:1"
         offset="0.5113461"
         id="stop4168" />
      <stop
         id="stop4170"
         offset="0.75567305"
         style="stop-color:#d5dbdd;stop-opacity:1" />
      <stop
         style="stop-color:#cbd3d6;stop-opacity:1;"
         offset="0.93333334"
         id="stop4172" />
      <stop
         style="stop-color:#a6aaac;stop-opacity:1"
         offset="1"
         id="stop4156" />
    </linearGradient>
    <linearGradient
       inkscape:collect="always"
       id="linearGradient4141">
      <stop
         style="stop-color:#8e9190;stop-opacity:1"
         offset="0"
         id="stop4143" />
      <stop
         style="stop-color:#dee4e6;stop-opacity:1"
         offset="1"
         id="stop4145" />
    </linearGradient>
    <linearGradient
       inkscape:collect="always"
       xlink:href="#linearGradient4141"
       id="linearGradient4147"
       x1="235.95546"
       y1="125.25424"
       x2="235.95546"
       y2="7.2881422"
       gradientUnits="userSpaceOnUse"
       gradientTransform="matrix(0.81978949,0,0,0.81978949,-127.56266,2.210347)" />
    <linearGradient
       inkscape:collect="always"
       xlink:href="#linearGradient4152"
       id="linearGradient4158"
       x1="145.76271"
       y1="183.4442"
       x2="13.559327"
       y2="183.4442"
       gradientUnits="userSpaceOnUse"
       gradientTransform="matrix(0.81978949,0,0,0.81978949,-7.9269202,-40.233924)" />
    <radialGradient
       inkscape:collect="always"
       xlink:href="#linearGradient4178"
       id="radialGradient4184"
       cx="128.23802"
       cy="137.28868"
       fx="128.23802"
       fy="137.28868"
       r="2.3969722"
       gradientUnits="userSpaceOnUse"
       gradientTransform="matrix(0.81978949,0,0,0.81978949,-11.866607,2.210347)" />
    <linearGradient
       gradientTransform="matrix(2.213863,0,0,2.213863,289.84755,-2436.2025)"
       id="e"
       gradientUnits="userSpaceOnUse"
       x1="-20.764721"
       x2="-22.211618"
       y1="1116.8074"
       y2="1146.8351">
      <stop
         offset="0"
         stop-color="#1296d5"
         id="stop25"
         style="stop-color:#038e86;stop-opacity:1" />
      <stop
         offset="1"
         stop-color="#4fb6e8"
         id="stop27"
         style="stop-color:#04aba1;stop-opacity:1" />
    </linearGradient>
    <linearGradient
       inkscape:collect="always"
       xlink:href="#linearGradient4171"
       id="linearGradient4177"
       x1="98.755257"
       y1="3.1177506"
       x2="103.0698"
       y2="57.289322"
       gradientUnits="userSpaceOnUse"
       gradientTransform="matrix(1.097561,0,0,1.097561,-12.44087,-0.04693473)" />
    <filter
       y="-0.082800001"
       x="-0.082800001"
       width="1.1655999"
       height="1.1655999"
       id="c"
       style="color-interpolation-filters:sRGB">
      <feGaussianBlur
         id="feGaussianBlur10"
         stdDeviation="2.1101835" />
    </filter>
    <filter
       y="-0.015513"
       x="-0.015688"
       width="1.031376"
       height="1.031026"
       id="a"
       style="color-interpolation-filters:sRGB">
      <feGaussianBlur
         id="feGaussianBlur2"
         stdDeviation=".7986332" />
    </filter>
    <clipPath
       clipPathUnits="userSpaceOnUse"
       id="clipPath16">
      <path
         d="m 0,200.303 320,0 L 320,0 0,0 0,200.303 Z"
         id="path18"
         inkscape:connector-curvature="0" />
    </clipPath>
    <linearGradient
       inkscape:collect="always"
       xlink:href="#linearGradient4187"
       id="linearGradient4193"
       x1="98.7575"
       y1="57.289322"
       x2="99.9515"
       y2="10.788062"
       gradientUnits="userSpaceOnUse" />
  </defs>
  <sodipodi:namedview
     pagecolor="#ffffff"
     bordercolor="#666666"
     borderopacity="1"
     objecttolerance="10"
     gridtolerance="10"
     guidetolerance="10"
     inkscape:pageopacity="0"
     inkscape:pageshadow="2"
     inkscape:window-width="1920"
     inkscape:window-height="1025"
     id="namedview4"
     showgrid="false"
     inkscape:zoom="8.34386"
     inkscape:cx="96.950703"
     inkscape:cy="78.992696"
     inkscape:window-x="0"
     inkscape:window-y="26"
     inkscape:window-maximized="1"
     inkscape:current-layer="svg2" />
  <g
     id="g4201"
     transform="matrix(0.81978949,0,0,0.81978949,-263.24534,2.6370639)"
     style="opacity:0.7">
    <path
       inkscape:connector-curvature="0"
       id="path4190"
       d="m 339.38795,6.1015625 c -3.15889,0 -5.42867,2.5540551 -5.70118,5.7011715 l -9.46093,109.244146 -0.19922,0 0,22.32421 c 0,3.15889 2.54423,5.70118 5.70312,5.70118 l 121.47656,0 c 3.1589,0 5.70313,-2.54229 5.70313,-5.70118 l 0,-22.32421 -0.20898,0 L 445.8899,11.802734 c -0.31109,-3.1435376 -2.54424,-5.7011715 -5.70313,-5.7011715 l -100.79882,0 z"
       style="opacity:1;fill:none;fill-opacity:0.04942968;stroke:#000000;stroke-width:2;stroke-linecap:round;stroke-linejoin:round;stroke-miterlimit:4;stroke-dasharray:none;stroke-dashoffset:0;stroke-opacity:0.04562737;paint-order:fill markers stroke" />
    <path
       style="opacity:1;fill:none;fill-opacity:0.04942968;stroke:#000000;stroke-width:4;stroke-linecap:round;stroke-linejoin:round;stroke-miterlimit:4;stroke-dasharray:none;stroke-dashoffset:0;stroke-opacity:0.04562737;paint-order:fill markers stroke"
       d="m 339.38795,6.1015625 c -3.15889,0 -5.42867,2.5540551 -5.70118,5.7011715 l -9.46093,109.244146 -0.19922,0 0,22.32421 c 0,3.15889 2.54423,5.70118 5.70312,5.70118 l 121.47656,0 c 3.1589,0 5.70313,-2.54229 5.70313,-5.70118 l 0,-22.32421 -0.20898,0 L 445.8899,11.802734 c -0.31109,-3.1435376 -2.54424,-5.7011715 -5.70313,-5.7011715 l -100.79882,0 z"
       id="path4197"
       inkscape:connector-curvature="0" />
    <path
       inkscape:connector-curvature="0"
       id="path4199"
       d="m 339.38795,6.1015625 c -3.15889,0 -5.42867,2.5540551 -5.70118,5.7011715 l -9.46093,109.244146 -0.19922,0 0,22.32421 c 0,3.15889 2.54423,5.70118 5.70312,5.70118 l 121.47656,0 c 3.1589,0 5.70313,-2.54229 5.70313,-5.70118 l 0,-22.32421 -0.20898,0 L 445.8899,11.802734 c -0.31109,-3.1435376 -2.54424,-5.7011715 -5.70313,-5.7011715 l -100.79882,0 z"
       style="opacity:1;fill:none;fill-opacity:0.04942968;stroke:#000000;stroke-width:6;stroke-linecap:round;stroke-linejoin:round;stroke-miterlimit:4;stroke-dasharray:none;stroke-dashoffset:0;stroke-opacity:0.04562737;paint-order:fill markers stroke" />
  </g>
  <path
     style="opacity:1;fill:url(#linearGradient4158);fill-opacity:1;stroke:none;stroke-width:2;stroke-linecap:round;stroke-linejoin:round;stroke-miterlimit:4;stroke-dasharray:none;stroke-dashoffset:0;stroke-opacity:1;paint-order:fill markers stroke"
     d="m 111.84571,101.44259 0,18.3017 c 0,2.58962 -2.08479,4.67441 -4.67441,4.67441 l -99.5859094,0 c -2.589625,0 -4.674415,-2.08479 -4.674415,-4.67441 l 0,-18.3017 z"
     id="rect4149"
     inkscape:connector-curvature="0"
     sodipodi:nodetypes="csssscc" />
  <path
     style="opacity:1;fill:url(#linearGradient4147);fill-opacity:1;stroke:none;stroke-width:2;stroke-linecap:round;stroke-linejoin:round;stroke-miterlimit:4;stroke-dasharray:none;stroke-dashoffset:0;stroke-opacity:1;paint-order:fill markers stroke"
     d="m 15.503344,7.2124525 82.63432,0 c 2.589626,0 4.419386,2.0973789 4.674416,4.6744185 l 8.89263,89.859589 c 0.25503,2.57704 -2.08479,4.67442 -4.67441,4.67442 l -99.3080044,0 c -2.589633,0 -4.897824,-2.09444 -4.674423,-4.67442 L 10.828929,11.886871 c 0.223401,-2.5799736 2.08479,-4.6744185 4.674415,-4.6744185 z"
     id="rect4138"
     inkscape:connector-curvature="0"
     sodipodi:nodetypes="sssssssss" />
  <path
     d="m 33.459756,56.455851 c -0.008,-1.138828 -0.452725,-2.208914 -1.261145,-3.008271 -0.808821,-0.802016 -1.882638,-1.235982 -3.022007,-1.234051 -2.350039,0.01352 -4.253879,1.939913 -4.243648,4.287205 0.01013,1.138892 0.454649,2.208971 1.261225,3.005625 0.808684,0.806585 1.879849,1.240713 3.02458,1.236536 2.347225,-0.01601 4.249003,-1.937893 4.240995,-4.287044 z m -11.512762,3.852514 c -0.189765,-0.133753 -0.328726,-0.243837 -0.387903,-0.269202 l -0.06167,-0.102711 c 0.194652,-1.024427 1.878494,-5.968784 3.074898,-7.13383 0.329436,-0.317493 0.595235,-0.63208 1.12261,-0.919804 4.271296,-2.319963 14.274208,-3.497672 14.742798,-3.551016 l 0.07871,0.02427 0.02766,0.07304 c 0,0 -0.02342,2.064644 -0.02456,2.295456 1.02732,-0.311241 8.49265,-2.477623 15.430834,-2.51022 5.884018,-0.03028 14.46694,-0.533725 25.600426,6.781255 l 0.329236,0.218817 c 5.236605,3.488835 8.797928,7.70445 10.580804,12.531096 0.55912,1.518842 1.269954,4.929452 0.369181,8.091684 -0.388578,1.382333 -1.077262,2.762404 -1.986653,3.989018 -2.055567,2.771573 -5.418785,4.550684 -8.988663,4.761106 -5.041143,0.298924 -8.780045,-2.073315 -10.007229,-6.342162 -0.843475,-2.944951 0.215897,-7.197445 3.850181,-9.274135 2.956155,-1.690462 6.065485,-1.192789 7.840277,0.05946 1.539701,1.088728 2.380767,2.733738 2.311815,4.510805 -0.130892,3.151866 -2.897127,4.746201 -4.850379,4.692666 -0.56734,-0.01702 -1.134127,-0.132713 -1.770226,-0.361217 -0.226623,-0.07661 -0.439041,-0.169395 -0.671773,-0.323212 l -0.07301,-0.04576 -0.04572,-0.03266 0.01535,0.0098 c -0.436068,-0.316623 -0.688949,-0.817918 -0.673085,-1.346778 0.0043,-0.1443 0.02891,-0.289917 0.0747,-0.435863 0.25459,-0.791541 1.057923,-1.251044 1.870917,-1.077654 l 0.109603,0.02953 0.14798,0.05018 0.214455,0.08106 c 0.446416,0.12412 0.782828,0.14384 0.854666,0.148402 0.229154,-0.0078 1.363352,-0.310791 1.400281,-1.541911 l 5.34e-4,-0.01683 c 0.01356,-0.45214 -0.158256,-0.774799 -0.253105,-0.9512 -0.33324,-0.558829 -1.274525,-1.125787 -2.571551,-1.052038 -1.702098,0.09602 -2.952357,0.929911 -3.812349,2.547967 -0.798326,1.504362 -0.657699,3.388576 0.364039,4.796363 1.014898,1.395064 2.877027,2.030807 5.384617,1.836663 2.529022,-0.203131 4.70312,-1.589677 5.964695,-3.811921 1.23408,-2.172277 1.376309,-4.787246 0.369753,-6.829588 -2.406973,-4.893509 -7.227861,-4.987808 -9.884176,-4.610367 -3.930881,0.561149 -8.487855,4.034962 -10.190716,8.15285 -0.274849,0.656375 -0.420504,1.178693 -0.548462,1.656768 l -0.191844,0.713988 -4.482689,2.024522 -0.05903,0.0418 -0.106966,-0.01308 -0.01566,-0.127809 c 0.03038,-0.09802 0.09732,-0.187006 0.236383,-1.420358 0.116844,-1.094643 0.377937,-4.09312 -1.089679,-5.626936 -0.569609,-0.59938 -1.448694,-1.145456 -2.150298,-1.332837 -2.874405,-0.794168 -6.284661,-0.408049 -9.606322,3.211623 -1.719671,1.869574 -2.556167,2.720449 -2.974365,3.100032 l -0.145732,0.12369 -0.170652,0.119812 c -0.135407,0.0684 -5.597299,2.388751 -5.597299,2.388751 l -0.110077,-0.02978 0.0013,-0.115264 c 0.03707,-0.03981 3.54708,-4.305452 3.053454,-7.919451 -0.387635,-2.878079 -2.674874,-2.687194 -5.838507,-2.425832 -1.032947,0.08937 -2.208703,0.188905 -3.422593,0.179455 -3.387604,-0.08019 -7.017473,-0.814937 -9.236643,-1.866034 -1.435811,-0.676153 -2.351517,-1.124875 -2.917423,-1.671186 -0.204034,-0.179676 -0.303818,-0.464308 -0.408011,-0.770495 l -0.07313,-0.202229 c -0.08667,-0.248372 -0.209687,-0.769602 -0.261788,-1.054969 -0.02079,-0.125554 -0.03126,-0.258023 0.06006,-0.325331 l 0.309476,0.06705 c 0.969666,0.623897 3.404163,1.823234 5.710559,1.940561 2.863579,0.143909 8.719895,-2.622219 9.330523,-2.916833 l 0.05997,-0.06536 c 0.152043,-0.342071 1.079468,-2.362509 1.277639,-2.789853 -4.235525,2.612061 -7.725824,4.021472 -10.369905,4.175654 -2.943626,0.173361 -5.183931,-1.497251 -6.140777,-2.211514 z m 6.644273,-3.603775 c 0.728956,0.02187 1.329531,-0.354895 1.344031,-0.838299 0.01464,-0.487975 -0.56234,-0.897891 -1.291296,-0.919757 -0.728955,-0.02187 -1.331149,0.35268 -1.345787,0.840654 -0.01402,0.483419 0.564578,0.89555 1.293052,0.917402 m 0.583528,-3.235058 c 0.797154,-0.0047 1.543643,0.299298 2.104611,0.857736 0.560728,0.558432 0.879047,1.301684 0.879283,2.096296 0.0061,1.64211 -1.319798,2.983568 -2.95821,2.994842 -0.796537,1.79e-4 -1.546874,-0.303967 -2.111209,-0.862507 -0.563054,-0.56115 -0.874384,-1.304673 -0.875916,-2.096195 -0.0061,-1.641629 1.319244,-2.981178 2.961441,-2.990172 z"
     style="fill:#4d4d4d;fill-opacity:0.29657796;fill-rule:nonzero;stroke:none"
     id="path22-6"
     inkscape:connector-curvature="0" />
  <circle
     style="opacity:1;fill:url(#radialGradient4184);fill-opacity:1;stroke:#76a578;stroke-width:0.40989473;stroke-linecap:round;stroke-linejoin:round;stroke-miterlimit:4;stroke-dasharray:none;stroke-dashoffset:0;stroke-opacity:1;paint-order:fill markers stroke"
     id="path4176"
     cx="93.261574"
     cy="114.75816"
     r="1.9650126" />
  <circle
     style="opacity:1;fill:#ffffff;fill-opacity:0.29657796;stroke:none;stroke-width:0.5;stroke-linecap:round;stroke-linejoin:round;stroke-miterlimit:4;stroke-dasharray:none;stroke-dashoffset:0;stroke-opacity:1;paint-order:fill markers stroke"
     id="path4188"
     cx="93.261574"
     cy="114.75816"
     r="0.49125314" />
  <path
     style="opacity:1;fill:#e0e3e4;fill-opacity:1;stroke:none;stroke-width:2;stroke-linecap:round;stroke-linejoin:round;stroke-miterlimit:4;stroke-dasharray:none;stroke-dashoffset:0;stroke-opacity:1;paint-order:fill markers stroke"
     d="m 3.1265146,100.83647 -0.07845,0.90945 c -0.223401,2.57998 2.084126,4.67536 4.673759,4.67536 l 99.3082064,0 c 2.58963,0 4.93039,-2.09831 4.67537,-4.67536 l -0.0833,-0.84221 c -0.45186,1.9793 -2.43233,3.43928 -4.5921,3.43928 l -99.3082064,0 c -2.184452,0 -4.161964,-1.4916 -4.595305,-3.50652 z"
     id="path4217"
     inkscape:connector-curvature="0" />
  <g
     id="g4195">
    <circle
       r="33.376072"
       style="opacity:1;fill:#000000;fill-opacity:0.01520913;stroke:none;stroke-width:6;stroke-linecap:round;stroke-linejoin:round;stroke-miterlimit:4;stroke-dasharray:none;stroke-dashoffset:0;stroke-opacity:0.04562737;paint-order:fill markers stroke"
       id="circle4183"
       cx="94.92363"
       cy="33.547253" />
    <path
       style="opacity:1;fill:#000000;fill-opacity:0.01520912;stroke:none;stroke-width:6;stroke-linecap:round;stroke-linejoin:round;stroke-miterlimit:4;stroke-dasharray:none;stroke-dashoffset:0;stroke-opacity:0.04562737;paint-order:fill markers stroke"
       d="M 74.25 7.2128906 A 33.376072 33.376072 0 0 0 60.767578 33.966797 A 33.376072 33.376072 0 0 0 94.144531 67.34375 A 33.376072 33.376072 0 0 0 107.99805 64.287109 L 102.8125 11.886719 C 102.55747 9.3096792 100.72634 7.2128906 98.136719 7.2128906 L 74.25 7.2128906 z "
       id="circle4187" />
    <path
       style="opacity:1;fill:#000000;fill-opacity:0.01520912;stroke:none;stroke-width:6;stroke-linecap:round;stroke-linejoin:round;stroke-miterlimit:4;stroke-dasharray:none;stroke-dashoffset:0;stroke-opacity:0.04562737;paint-order:fill markers stroke"
       d="M 74.679688 7.2128906 A 33.376072 33.376072 0 0 0 59.689453 35.044922 A 33.376072 33.376072 0 0 0 93.066406 68.421875 A 33.376072 33.376072 0 0 0 108.05469 64.857422 L 102.8125 11.886719 C 102.55747 9.3096792 100.72634 7.2128906 98.136719 7.2128906 L 74.679688 7.2128906 z "
       id="circle4191" />
    <path
       style="opacity:1;fill:#000000;fill-opacity:0.01520912;stroke:none;stroke-width:6;stroke-linecap:round;stroke-linejoin:round;stroke-miterlimit:4;stroke-dasharray:none;stroke-dashoffset:0;stroke-opacity:0.04562737;paint-order:fill markers stroke"
       d="M 75.082031 7.2128906 A 33.376072 33.376072 0 0 0 59.03125 35.705078 A 33.376072 33.376072 0 0 0 92.40625 69.080078 A 33.376072 33.376072 0 0 0 108.08203 65.142578 L 102.8125 11.886719 C 102.55747 9.3096792 100.72634 7.2128906 98.136719 7.2128906 L 75.082031 7.2128906 z "
       id="circle4193" />
  </g>
  <path
     style="opacity:1;fill:#000000;fill-opacity:0.01520912;stroke:none;stroke-width:6;stroke-linecap:round;stroke-linejoin:round;stroke-miterlimit:4;stroke-dasharray:none;stroke-dashoffset:0;stroke-opacity:0.04562737;paint-order:fill markers stroke"
     d="M 74.404297 7.2128906 A 33.376072 33.376072 0 0 0 60.169922 34.505859 A 33.376072 33.376072 0 0 0 93.544922 67.882812 A 33.376072 33.376072 0 0 0 108.02344 64.546875 L 102.8125 11.886719 C 102.55747 9.3096792 100.72634 7.2128906 98.136719 7.2128906 L 74.404297 7.2128906 z "
     id="circle4189" />
  <circle
     style="opacity:1;fill:url(#linearGradient4177);fill-opacity:1;stroke:none;stroke-width:6;stroke-linecap:round;stroke-linejoin:round;stroke-miterlimit:4;stroke-dasharray:none;stroke-dashoffset:0;stroke-opacity:0.04562737;paint-order:fill markers stroke"
     id="path4169"
     cx="95.159798"
     cy="32.840206"
     r="32.359123" />
  <circle
     style="opacity:1;fill:url(#linearGradient4193);fill-opacity:1;stroke:none;stroke-width:6;stroke-linecap:round;stroke-linejoin:round;stroke-miterlimit:4;stroke-dasharray:none;stroke-dashoffset:0;stroke-opacity:0.04562737;paint-order:fill markers stroke"
     id="path4297"
     cx="95.159798"
     cy="32.840206"
     r="27.20339" />
  <path
     style="opacity:1;fill:#000000;fill-opacity:0.06844106;stroke:none;stroke-width:6;stroke-linecap:round;stroke-linejoin:round;stroke-miterlimit:4;stroke-dasharray:none;stroke-dashoffset:0;stroke-opacity:0.04562737;paint-order:fill markers stroke"
     d="M 95.160156 5.6367188 A 27.20339 27.20339 0 0 0 67.957031 32.839844 A 27.20339 27.20339 0 0 0 95.160156 60.042969 A 27.20339 27.20339 0 0 0 122.36328 32.839844 A 27.20339 27.20339 0 0 0 95.160156 5.6367188 z M 95.160156 7.796875 A 25.042374 25.042374 0 0 1 120.20312 32.839844 A 25.042374 25.042374 0 0 1 95.160156 57.882812 A 25.042374 25.042374 0 0 1 70.117188 32.839844 A 25.042374 25.042374 0 0 1 95.160156 7.796875 z "
     id="circle4307" />
  <path
     style="opacity:1;fill:#000000;fill-opacity:0.06844106;stroke:none;stroke-width:6;stroke-linecap:round;stroke-linejoin:round;stroke-miterlimit:4;stroke-dasharray:none;stroke-dashoffset:0;stroke-opacity:0.04562737;paint-order:fill markers stroke"
     d="M 95.160156 5.6367188 A 27.20339 27.20339 0 0 0 67.957031 32.839844 A 27.20339 27.20339 0 0 0 95.160156 60.042969 A 27.20339 27.20339 0 0 0 122.36328 32.839844 A 27.20339 27.20339 0 0 0 95.160156 5.6367188 z M 95.160156 6.9921875 A 25.847458 25.847458 0 0 1 121.00781 32.839844 A 25.847458 25.847458 0 0 1 95.160156 58.6875 A 25.847458 25.847458 0 0 1 69.3125 32.839844 A 25.847458 25.847458 0 0 1 95.160156 6.9921875 z "
     id="circle4311" />
  <path
     style="opacity:1;fill:#ffffff;fill-opacity:0.81749052;stroke:none;stroke-width:6;stroke-linecap:round;stroke-linejoin:round;stroke-miterlimit:4;stroke-dasharray:none;stroke-dashoffset:0;stroke-opacity:0.04562737;paint-order:fill markers stroke"
     d="m 89.336554,17.720089 c -0.811434,0 -1.464844,0.65341 -1.464844,1.464844 l 0,10.617187 -7.011719,0 14.638672,18.158204 13.960937,-18.158204 -7.01172,0 0,-10.617187 c 0,-0.811434 -0.65341,-1.464844 -1.46485,-1.464844 l -11.646476,0 z"
     id="rect4315"
     inkscape:connector-curvature="0" />
</svg>
