<?xml version="1.0" encoding="UTF-8" standalone="no"?>
<!-- Created with Inkscape (http://www.inkscape.org/) -->

<svg
   xmlns:dc="http://purl.org/dc/elements/1.1/"
   xmlns:cc="http://creativecommons.org/ns#"
   xmlns:rdf="http://www.w3.org/1999/02/22-rdf-syntax-ns#"
   xmlns:svg="http://www.w3.org/2000/svg"
   xmlns="http://www.w3.org/2000/svg"
   xmlns:xlink="http://www.w3.org/1999/xlink"
   xmlns:sodipodi="http://sodipodi.sourceforge.net/DTD/sodipodi-0.dtd"
   xmlns:inkscape="http://www.inkscape.org/namespaces/inkscape"
   version="1.1"
   id="svg2"
   width="128"
   height="128"
   viewBox="0 0 128 128"
   sodipodi:docname="xsane.svg"
   inkscape:version="0.92.4 5da689c313, 2019-01-14">
  <metadata
     id="metadata8">
    <rdf:RDF>
      <cc:Work
         rdf:about="">
        <dc:format>image/svg+xml</dc:format>
        <dc:type
           rdf:resource="http://purl.org/dc/dcmitype/StillImage" />
        <dc:title></dc:title>
      </cc:Work>
    </rdf:RDF>
  </metadata>
  <defs
     id="defs6">
    <linearGradient
       inkscape:collect="always"
       id="linearGradient922">
      <stop
         style="stop-color:#f2f2f2;stop-opacity:1"
         offset="0"
         id="stop918" />
      <stop
         id="stop932"
         offset="0.05725805"
         style="stop-color:#d2d2d2;stop-opacity:1" />
      <stop
         id="stop930"
         offset="0.11413684"
         style="stop-color:#e3e3e3;stop-opacity:1" />
      <stop
         id="stop928"
         offset="0.91055363"
         style="stop-color:#dfdfdf;stop-opacity:1" />
      <stop
         id="stop926"
         offset="0.96074218"
         style="stop-color:#e3e3e3;stop-opacity:1" />
      <stop
         style="stop-color:#f3f3f3;stop-opacity:1"
         offset="1"
         id="stop920" />
    </linearGradient>
    <linearGradient
       inkscape:collect="always"
       id="linearGradient895">
      <stop
         style="stop-color:#9c9c9c;stop-opacity:1"
         offset="0"
         id="stop891" />
      <stop
         style="stop-color:#f6f6f6;stop-opacity:1"
         offset="1"
         id="stop893" />
    </linearGradient>
    <linearGradient
       inkscape:collect="always"
       id="linearGradient872">
      <stop
         style="stop-color:#a8a8a8;stop-opacity:0.97254902"
         offset="0"
         id="stop868" />
      <stop
         style="stop-color:#d8d8d8;stop-opacity:1"
         offset="1"
         id="stop870" />
    </linearGradient>
    <linearGradient
       inkscape:collect="always"
       id="linearGradient842">
      <stop
         style="stop-color:#ececec;stop-opacity:1"
         offset="0"
         id="stop838" />
      <stop
         id="stop850"
         offset="0.54410732"
         style="stop-color:#ffffff;stop-opacity:1" />
      <stop
         style="stop-color:#000000;stop-opacity:0.94296581"
         offset="1"
         id="stop840" />
    </linearGradient>
    <linearGradient
       inkscape:collect="always"
       id="linearGradient824">
      <stop
         style="stop-color:#d7d7d7;stop-opacity:1;"
         offset="0"
         id="stop820" />
      <stop
         style="stop-color:#ffffff;stop-opacity:1"
         offset="1"
         id="stop822" />
    </linearGradient>
    <linearGradient
       inkscape:collect="always"
       xlink:href="#linearGradient824"
       id="linearGradient826"
       x1="278.66663"
       y1="15.186441"
       x2="278.66663"
       y2="136.41484"
       gradientUnits="userSpaceOnUse"
       gradientTransform="matrix(0.79017001,0,0,0.79017001,-151.52578,4.859111)" />
    <radialGradient
       inkscape:collect="always"
       xlink:href="#linearGradient842"
       id="radialGradient848"
       gradientUnits="userSpaceOnUse"
       gradientTransform="matrix(1.4049762,0,0,0.53499267,-54.601038,30.141726)"
       cx="85.433678"
       cy="152.7588"
       fx="85.433678"
       fy="152.7588"
       r="24.481077" />
    <linearGradient
       inkscape:collect="always"
       xlink:href="#linearGradient872"
       id="linearGradient874"
       x1="279.39313"
       y1="4.9417243"
       x2="277.82266"
       y2="134.82565"
       gradientUnits="userSpaceOnUse"
       gradientTransform="matrix(0.79017001,0,0,0.79017001,-151.52578,4.859111)" />
    <linearGradient
       inkscape:collect="always"
       xlink:href="#linearGradient895"
       id="linearGradient897"
       x1="279.92505"
       y1="101.18586"
       x2="279.92505"
       y2="137.05719"
       gradientUnits="userSpaceOnUse"
       gradientTransform="matrix(0.79017001,0,0,0.79017001,-151.52578,4.859111)" />
    <linearGradient
       inkscape:collect="always"
       xlink:href="#linearGradient922"
       id="linearGradient1133"
       gradientUnits="userSpaceOnUse"
       gradientTransform="matrix(0.79017001,0,0,0.79017001,-3.0349536,-25.849194)"
       x1="10.937853"
       y1="180.19624"
       x2="159.27684"
       y2="180.19624" />
  </defs>
  <sodipodi:namedview
     pagecolor="#ffffff"
     bordercolor="#666666"
     borderopacity="1"
     objecttolerance="10"
     gridtolerance="10"
     guidetolerance="10"
     inkscape:pageopacity="0"
     inkscape:pageshadow="2"
     inkscape:window-width="1920"
     inkscape:window-height="1031"
     id="namedview4"
     showgrid="false"
     inkscape:zoom="1.9555921"
     inkscape:cx="70.024976"
     inkscape:cy="32.371745"
     inkscape:window-x="0"
     inkscape:window-y="26"
     inkscape:window-maximized="1"
     inkscape:current-layer="svg2" />
  <g
     id="g1008"
     style="opacity:0.18200001"
     transform="matrix(0.79017001,0,0,0.79017001,-300.74735,3.848128)">
    <path
       sodipodi:nodetypes="scccccccccccss"
       inkscape:connector-curvature="0"
       id="path977"
       d="m 416.48567,14.824219 c -5.8817,0 -6.41919,1.639355 -7.67969,7.679687 l -20.20508,96.816404 -2.78515,10.54492 c -0.47512,1.79828 0.20856,4.01016 0.5531,5.5474 l 3.35315,12.74557 c 0.87397,3.61564 4.23241,4.25123 8.49804,3.79688 h 129.80664 c 4.12801,-0.14735 6.67573,-1.01283 7.13011,-6.29013 l 0.8901,-9.60584 c 0.81464,-3.35836 -0.0451,-6.55456 -0.32689,-9.59231 L 513.6634,22.503906 c -1.14774,-5.409854 -1.2556,-7.679687 -7.67969,-7.679687 z"
       style="opacity:1;fill:none;fill-opacity:1;stroke:#0c0c0c;stroke-width:3;stroke-linecap:round;stroke-linejoin:round;stroke-miterlimit:4;stroke-dasharray:none;stroke-dashoffset:0;stroke-opacity:0.0646388;paint-order:fill markers stroke" />
    <path
       style="opacity:1;fill:none;fill-opacity:1;stroke:#0c0c0c;stroke-width:5;stroke-linecap:round;stroke-linejoin:round;stroke-miterlimit:4;stroke-dasharray:none;stroke-dashoffset:0;stroke-opacity:0.0646388;paint-order:fill markers stroke"
       d="m 416.48567,14.824219 c -5.8817,0 -6.41919,1.639355 -7.67969,7.679687 l -20.20508,96.816404 -2.78515,10.54492 c -0.47512,1.79828 0.20856,4.01016 0.5531,5.5474 l 3.35315,12.74557 c 0.87397,3.61564 4.23241,4.25123 8.49804,3.79688 h 129.80664 c 4.12801,-0.14735 6.67573,-1.01283 7.13011,-6.29013 l 0.8901,-9.60584 c 0.81464,-3.35836 -0.0451,-6.55456 -0.32689,-9.59231 L 513.6634,22.503906 c -1.14774,-5.409854 -1.2556,-7.679687 -7.67969,-7.679687 z"
       id="path998"
       inkscape:connector-curvature="0"
       sodipodi:nodetypes="scccccccccccss" />
    <path
       sodipodi:nodetypes="scccccccccccss"
       inkscape:connector-curvature="0"
       id="path1000"
       d="m 416.48567,14.824219 c -5.8817,0 -6.41919,1.639355 -7.67969,7.679687 l -20.20508,96.816404 -2.78515,10.54492 c -0.47512,1.79828 0.20856,4.01016 0.5531,5.5474 l 3.35315,12.74557 c 0.87397,3.61564 4.23241,4.25123 8.49804,3.79688 h 129.80664 c 4.12801,-0.14735 6.67573,-1.01283 7.13011,-6.29013 l 0.8901,-9.60584 c 0.81464,-3.35836 -0.0451,-6.55456 -0.32689,-9.59231 L 513.6634,22.503906 c -1.14774,-5.409854 -1.2556,-7.679687 -7.67969,-7.679687 z"
       style="opacity:1;fill:none;fill-opacity:1;stroke:#0c0c0c;stroke-width:8;stroke-linecap:round;stroke-linejoin:round;stroke-miterlimit:4;stroke-dasharray:none;stroke-dashoffset:0;stroke-opacity:0.0646388;paint-order:fill markers stroke" />
    <path
       style="opacity:1;fill:none;fill-opacity:1;stroke:#0c0c0c;stroke-width:10;stroke-linecap:round;stroke-linejoin:round;stroke-miterlimit:4;stroke-dasharray:none;stroke-dashoffset:0;stroke-opacity:0.0646388;paint-order:fill markers stroke"
       d="m 416.48567,14.824219 c -5.8817,0 -6.41919,1.639355 -7.67969,7.679687 l -20.20508,96.816404 -2.78515,10.54492 c -0.47512,1.79828 0.20856,4.01016 0.5531,5.5474 l 3.35315,12.74557 c 0.87397,3.61564 4.23241,4.25123 8.49804,3.79688 h 129.80664 c 4.12801,-0.14735 6.67573,-1.01283 7.13011,-6.29013 l 0.8901,-9.60584 c 0.81464,-3.35836 -0.0451,-6.55456 -0.32689,-9.59231 L 513.6634,22.503906 c -1.14774,-5.409854 -1.2556,-7.679687 -7.67969,-7.679687 z"
       id="path1002"
       inkscape:connector-curvature="0"
       sodipodi:nodetypes="scccccccccccss" />
  </g>
  <path
     style="fill:url(#linearGradient1133);fill-opacity:1;stroke:none;stroke-width:0.79017001px;stroke-linecap:butt;stroke-linejoin:miter;stroke-opacity:1"
     d="m 5.6078075,108.14371 2.928536,13.78557 c 0.6905848,2.85697 3.3436435,3.35898 6.7142165,2.99996 h 102.57033 c 3.26183,-0.11643 5.27447,-1.20444 3.71424,-5.07137 l 1.2857,-8.49991 H 7.0363637 Z"
     id="path908"
     inkscape:connector-curvature="0"
     sodipodi:nodetypes="cccccccc" />
  <path
     style="opacity:1;fill:url(#linearGradient897);fill-opacity:1;stroke:none;stroke-width:2.3705101;stroke-linecap:round;stroke-linejoin:round;stroke-miterlimit:4;stroke-dasharray:none;stroke-dashoffset:0;stroke-opacity:0.97254902;paint-order:fill markers stroke"
     d="m 17.083241,82.338756 95.930689,0.202028 c 3.7585,0.0079 5.92882,3.12447 6.78432,6.784332 l 4.2426,18.149774 c 0.85551,3.65987 -3.02581,6.78434 -6.78433,6.78434 H 12.234568 c -3.7585224,0 -7.7444165,-3.1505 -6.7843362,-6.78434 L 10.298912,89.123086 c 0.960081,-3.633834 3.025822,-6.792245 6.784329,-6.78433 z"
     id="rect880"
     inkscape:connector-curvature="0"
     sodipodi:nodetypes="sssssssss" />
  <path
     style="fill:#000000;fill-opacity:0.03041825;stroke:none;stroke-width:0.79017001px;stroke-linecap:butt;stroke-linejoin:miter;stroke-opacity:1"
     d="m 48.332229,111.9137 c 13.562059,-5.27187 21.713216,-5.40492 34.445826,0 l 2.265038,-12.341327 -35.142479,1.499987 c 0,0 -1.720785,9.85671 -1.568385,10.84134 z"
     id="path906"
     inkscape:connector-curvature="0"
     sodipodi:nodetypes="ccccc" />
  <path
     sodipodi:nodetypes="ccccc"
     inkscape:connector-curvature="0"
     id="path904"
     d="m 48.332229,111.9137 c 12.776354,-6.77186 21.998926,-6.76205 34.445826,0 l 2.265038,-12.341327 -35.142479,1.499987 c 0,0 -1.720785,9.85671 -1.568385,10.84134 z"
     style="fill:#000000;fill-opacity:0.03041825;stroke:none;stroke-width:0.79017001px;stroke-linecap:butt;stroke-linejoin:miter;stroke-opacity:1" />
  <path
     style="fill:#000000;fill-opacity:0.03041825;stroke:none;stroke-width:0.79017001px;stroke-linecap:butt;stroke-linejoin:miter;stroke-opacity:1"
     d="m 48.332229,111.9137 c 11.941223,-7.77955 22.14178,-7.69061 34.445826,0 l 2.265038,-12.341327 -35.142479,1.499987 c 0,0 -1.720785,9.85671 -1.568385,10.84134 z"
     id="path902"
     inkscape:connector-curvature="0"
     sodipodi:nodetypes="ccccc" />
  <path
     style="fill:none;stroke:#c5c5c5;stroke-width:1.58034003;stroke-linecap:butt;stroke-linejoin:miter;stroke-miterlimit:4;stroke-dasharray:none;stroke-opacity:1"
     d="m 6.0563159,105.36998 1.8182523,15.15212 c 0.6517006,3.49855 3.3908958,4.30927 7.3759918,4.40714 L 117.98,124.9667 c 2.09696,-0.13375 3.43333,-1.77381 4.16121,-5.10886 l 1.89965,-13.67978 C 83.89477,87.369469 44.58623,87.545211 6.0563159,105.36998 Z"
     id="path934"
     inkscape:connector-curvature="0"
     sodipodi:nodetypes="ccccccc" />
  <path
     style="fill:#000000;fill-opacity:0.03041825;stroke:none;stroke-width:0.79017001px;stroke-linecap:butt;stroke-linejoin:miter;stroke-opacity:1"
     d="m 48.332229,111.9137 c 12.776354,-6.77186 21.998926,-6.76205 34.445826,0 l 2.265038,-12.341327 -35.142479,1.499987 c 0,0 -1.720785,9.85671 -1.568385,10.84134 z"
     id="path1135"
     inkscape:connector-curvature="0"
     sodipodi:nodetypes="ccccc" />
  <path
     inkscape:connector-curvature="0"
     style="opacity:1;fill:url(#linearGradient826);fill-opacity:1;stroke:none;stroke-width:1.96808326;stroke-linecap:round;stroke-linejoin:round;stroke-miterlimit:4;stroke-dasharray:none;stroke-dashoffset:0;stroke-opacity:1;paint-order:fill markers stroke"
     d="m 29.683972,16.572764 c -4.647543,0 -5.072252,1.295369 -6.068261,6.068259 L 6.4727276,104.78938 c -0.6867605,3.29095 2.7064192,6.06826 6.0682604,6.06826 h 36.495978 a 19.892642,13.321284 0 0 1 16.351264,-5.78583 19.892642,13.321284 0 0 1 16.425351,5.78583 h 36.017559 c 3.36185,0 6.76597,-2.77961 6.06825,-6.06826 L 106.4709,22.641023 c -0.90691,-4.274705 -0.99214,-6.068259 -6.06826,-6.068259 z"
     id="rect817" />
  <path
     style="opacity:0.12300002;fill:url(#radialGradient848);fill-opacity:1;stroke:none;stroke-width:0.79017001px;stroke-linecap:butt;stroke-linejoin:miter;stroke-opacity:1"
     d="m 45.986024,111.83192 c 13.142392,-20.645131 27.357393,-20.919407 38.688431,0 z"
     id="path828"
     inkscape:connector-curvature="0"
     sodipodi:nodetypes="ccc" />
  <path
     style="color:#000000;font-style:normal;font-variant:normal;font-weight:normal;font-stretch:normal;font-size:medium;line-height:normal;font-family:sans-serif;font-variant-ligatures:normal;font-variant-position:normal;font-variant-caps:normal;font-variant-numeric:normal;font-variant-alternates:normal;font-feature-settings:normal;text-indent:0;text-align:start;text-decoration:none;text-decoration-line:none;text-decoration-style:solid;text-decoration-color:#000000;letter-spacing:normal;word-spacing:normal;text-transform:none;writing-mode:lr-tb;direction:ltr;text-orientation:mixed;dominant-baseline:auto;baseline-shift:baseline;text-anchor:start;white-space:normal;shape-padding:0;clip-rule:nonzero;display:inline;overflow:visible;visibility:visible;opacity:1;isolation:auto;mix-blend-mode:normal;color-interpolation:sRGB;color-interpolation-filters:linearRGB;solid-color:#000000;solid-opacity:1;vector-effect:none;fill:url(#linearGradient874);fill-opacity:1;fill-rule:nonzero;stroke:none;stroke-width:1.96808326;stroke-linecap:round;stroke-linejoin:round;stroke-miterlimit:4;stroke-dasharray:none;stroke-dashoffset:0;stroke-opacity:1;paint-order:fill markers stroke;color-rendering:auto;image-rendering:auto;shape-rendering:auto;text-rendering:auto;enable-background:accumulate"
     d="m 82.5998,111.84227 h 35.23134 c 1.95213,0 3.85326,-0.78173 5.2287,-2.06649 1.37544,-1.28475 2.23055,-3.17289 1.80257,-5.19012 L 107.43392,22.437307 c -0.44895,-2.116145 -0.64863,-3.749925 -1.6575,-5.038877 -0.50445,-0.644476 -1.22619,-1.132683 -2.11124,-1.415207 -0.88505,-0.282524 -1.93556,-0.393542 -3.26254,-0.393542 H 29.683972 c -2.415202,0 -4.070095,0.361302 -5.142277,1.577254 -1.072189,1.215951 -1.390462,2.877058 -1.890545,5.273459 L 5.5097079,104.58875 c -0.4208999,2.01693 0.4332739,3.90408 1.8072057,5.18858 1.3739318,1.2845 3.2721654,2.06494 5.2240744,2.06494 h 35.719817 l 1.826486,-1.96772 H 12.540988 c -1.40994,0 -2.8884109,-0.60866 -3.8798609,-1.53558 -0.99145,-0.92692 -1.4912483,-2.07494 -1.2253798,-3.34896 L 24.578731,22.843196 c 0.495926,-2.37649 0.888814,-3.750276 1.439903,-4.375259 0.551088,-0.624982 1.432997,-0.910547 3.665338,-0.910547 h 70.718668 c 1.21108,0 2.0768,0.113582 2.66374,0.300944 0.58694,0.187362 0.89425,0.414867 1.15902,0.753131 0.52953,0.676528 0.82607,2.076258 1.28403,4.234817 l 17.42849,82.148358 c 0.26974,1.27142 -0.22961,2.41556 -1.22229,3.34279 -0.99269,0.92723 -2.47478,1.53712 -3.88449,1.53712 H 80.756286 Z"
     id="path866"
     inkscape:connector-curvature="0"
     sodipodi:nodetypes="cscscccsscccssccscccsssscscsscc" />
  <g
     id="g975"
     transform="matrix(0.79017001,0,0,0.79017001,-1.6207626,4.859111)">
    <g
       transform="translate(0,0.25567704)"
       id="g945">
      <path
         d="m 149.9661,145.17516 a 3.7062147,3.7062147 0 0 1 -3.70322,3.70621 3.7062147,3.7062147 0 0 1 -3.7092,-3.70023 3.7062147,3.7062147 0 0 1 3.69723,-3.71219 3.7062147,3.7062147 0 0 1 3.71517,3.69424"
         sodipodi:open="true"
         sodipodi:end="6.2799564"
         sodipodi:start="0"
         sodipodi:ry="3.7062147"
         sodipodi:rx="3.7062147"
         sodipodi:cy="145.17516"
         sodipodi:cx="146.25989"
         sodipodi:type="arc"
         id="path940"
         style="opacity:1;fill:none;fill-opacity:1;stroke:#191919;stroke-width:1;stroke-linecap:round;stroke-linejoin:round;stroke-miterlimit:4;stroke-dasharray:none;stroke-dashoffset:0;stroke-opacity:0.36882133;paint-order:fill markers stroke" />
      <path
         style="opacity:1;fill:#5f5f5f;fill-opacity:1;stroke:none;stroke-width:2.15789485;stroke-linecap:round;stroke-linejoin:round;stroke-miterlimit:4;stroke-dasharray:none;stroke-dashoffset:0;stroke-opacity:1;paint-order:fill markers stroke"
         id="path936"
         sodipodi:type="arc"
         sodipodi:cx="146.25989"
         sodipodi:cy="145.17516"
         sodipodi:rx="3.7062147"
         sodipodi:ry="3.7062147"
         sodipodi:start="0"
         sodipodi:end="6.2799564"
         sodipodi:open="true"
         d="m 149.9661,145.17516 a 3.7062147,3.7062147 0 0 1 -3.70322,3.70621 3.7062147,3.7062147 0 0 1 -3.7092,-3.70023 3.7062147,3.7062147 0 0 1 3.69723,-3.71219 3.7062147,3.7062147 0 0 1 3.71517,3.69424" />
      <path
         style="opacity:1;fill:#ffffff;fill-opacity:0.60456274;stroke:none;stroke-width:2;stroke-linecap:round;stroke-linejoin:round;stroke-miterlimit:4;stroke-dasharray:none;stroke-dashoffset:0;stroke-opacity:1;paint-order:fill markers stroke"
         id="path938"
         sodipodi:type="arc"
         sodipodi:cx="146.19395"
         sodipodi:cy="144.09039"
         sodipodi:rx="2.1939445"
         sodipodi:ry="1.3559322"
         sodipodi:start="0"
         sodipodi:end="6.2799564"
         sodipodi:open="true"
         d="m 148.3879,144.09039 a 2.1939445,1.3559322 0 0 1 -2.19217,1.35593 2.1939445,1.3559322 0 0 1 -2.19572,-1.35374 2.1939445,1.3559322 0 0 1 2.18863,-1.35812 2.1939445,1.3559322 0 0 1 2.19925,1.35155" />
    </g>
    <g
       transform="matrix(0.60489399,0,0,0.60489399,49.606496,57.615253)"
       id="g953">
      <path
         style="opacity:1;fill:none;fill-opacity:1;stroke:#191919;stroke-width:1;stroke-linecap:round;stroke-linejoin:round;stroke-miterlimit:4;stroke-dasharray:none;stroke-dashoffset:0;stroke-opacity:0.36882133;paint-order:fill markers stroke"
         id="path947"
         sodipodi:type="arc"
         sodipodi:cx="146.25989"
         sodipodi:cy="145.17516"
         sodipodi:rx="3.7062147"
         sodipodi:ry="3.7062147"
         sodipodi:start="0"
         sodipodi:end="6.2799564"
         sodipodi:open="true"
         d="m 149.9661,145.17516 a 3.7062147,3.7062147 0 0 1 -3.70322,3.70621 3.7062147,3.7062147 0 0 1 -3.7092,-3.70023 3.7062147,3.7062147 0 0 1 3.69723,-3.71219 3.7062147,3.7062147 0 0 1 3.71517,3.69424" />
      <path
         d="m 149.9661,145.17516 a 3.7062147,3.7062147 0 0 1 -3.70322,3.70621 3.7062147,3.7062147 0 0 1 -3.7092,-3.70023 3.7062147,3.7062147 0 0 1 3.69723,-3.71219 3.7062147,3.7062147 0 0 1 3.71517,3.69424"
         sodipodi:open="true"
         sodipodi:end="6.2799564"
         sodipodi:start="0"
         sodipodi:ry="3.7062147"
         sodipodi:rx="3.7062147"
         sodipodi:cy="145.17516"
         sodipodi:cx="146.25989"
         sodipodi:type="arc"
         id="path949"
         style="opacity:1;fill:#5f5f5f;fill-opacity:1;stroke:none;stroke-width:2.15789485;stroke-linecap:round;stroke-linejoin:round;stroke-miterlimit:4;stroke-dasharray:none;stroke-dashoffset:0;stroke-opacity:1;paint-order:fill markers stroke" />
      <path
         d="m 148.3879,144.09039 a 2.1939445,1.3559322 0 0 1 -2.19217,1.35593 2.1939445,1.3559322 0 0 1 -2.19572,-1.35374 2.1939445,1.3559322 0 0 1 2.18863,-1.35812 2.1939445,1.3559322 0 0 1 2.19925,1.35155"
         sodipodi:open="true"
         sodipodi:end="6.2799564"
         sodipodi:start="0"
         sodipodi:ry="1.3559322"
         sodipodi:rx="2.1939445"
         sodipodi:cy="144.09039"
         sodipodi:cx="146.19395"
         sodipodi:type="arc"
         id="path951"
         style="opacity:1;fill:#ffffff;fill-opacity:0.60456274;stroke:none;stroke-width:2;stroke-linecap:round;stroke-linejoin:round;stroke-miterlimit:4;stroke-dasharray:none;stroke-dashoffset:0;stroke-opacity:1;paint-order:fill markers stroke" />
    </g>
    <g
       id="g961"
       transform="matrix(0.48332368,0,0,0.48332368,60.739757,75.264242)">
      <path
         d="m 149.9661,145.17516 a 3.7062147,3.7062147 0 0 1 -3.70322,3.70621 3.7062147,3.7062147 0 0 1 -3.7092,-3.70023 3.7062147,3.7062147 0 0 1 3.69723,-3.71219 3.7062147,3.7062147 0 0 1 3.71517,3.69424"
         sodipodi:open="true"
         sodipodi:end="6.2799564"
         sodipodi:start="0"
         sodipodi:ry="3.7062147"
         sodipodi:rx="3.7062147"
         sodipodi:cy="145.17516"
         sodipodi:cx="146.25989"
         sodipodi:type="arc"
         id="path955"
         style="opacity:1;fill:none;fill-opacity:1;stroke:#191919;stroke-width:1;stroke-linecap:round;stroke-linejoin:round;stroke-miterlimit:4;stroke-dasharray:none;stroke-dashoffset:0;stroke-opacity:0.36882133;paint-order:fill markers stroke" />
      <path
         style="opacity:1;fill:#5f5f5f;fill-opacity:1;stroke:none;stroke-width:2.15789485;stroke-linecap:round;stroke-linejoin:round;stroke-miterlimit:4;stroke-dasharray:none;stroke-dashoffset:0;stroke-opacity:1;paint-order:fill markers stroke"
         id="path957"
         sodipodi:type="arc"
         sodipodi:cx="146.25989"
         sodipodi:cy="145.17516"
         sodipodi:rx="3.7062147"
         sodipodi:ry="3.7062147"
         sodipodi:start="0"
         sodipodi:end="6.2799564"
         sodipodi:open="true"
         d="m 149.9661,145.17516 a 3.7062147,3.7062147 0 0 1 -3.70322,3.70621 3.7062147,3.7062147 0 0 1 -3.7092,-3.70023 3.7062147,3.7062147 0 0 1 3.69723,-3.71219 3.7062147,3.7062147 0 0 1 3.71517,3.69424" />
      <path
         style="opacity:1;fill:#ffffff;fill-opacity:0.60456274;stroke:none;stroke-width:2;stroke-linecap:round;stroke-linejoin:round;stroke-miterlimit:4;stroke-dasharray:none;stroke-dashoffset:0;stroke-opacity:1;paint-order:fill markers stroke"
         id="path959"
         sodipodi:type="arc"
         sodipodi:cx="146.19395"
         sodipodi:cy="144.09039"
         sodipodi:rx="2.1939445"
         sodipodi:ry="1.3559322"
         sodipodi:start="0"
         sodipodi:end="6.2799564"
         sodipodi:open="true"
         d="m 148.3879,144.09039 a 2.1939445,1.3559322 0 0 1 -2.19217,1.35593 2.1939445,1.3559322 0 0 1 -2.19572,-1.35374 2.1939445,1.3559322 0 0 1 2.18863,-1.35812 2.1939445,1.3559322 0 0 1 2.19925,1.35155" />
    </g>
  </g>
</svg>
