<?xml version="1.0" encoding="UTF-8" standalone="no"?>
<!-- Created with Inkscape (http://www.inkscape.org/) -->

<svg
   xmlns:dc="http://purl.org/dc/elements/1.1/"
   xmlns:cc="http://creativecommons.org/ns#"
   xmlns:rdf="http://www.w3.org/1999/02/22-rdf-syntax-ns#"
   xmlns:svg="http://www.w3.org/2000/svg"
   xmlns="http://www.w3.org/2000/svg"
   xmlns:sodipodi="http://sodipodi.sourceforge.net/DTD/sodipodi-0.dtd"
   xmlns:inkscape="http://www.inkscape.org/namespaces/inkscape"
   id="svg7384"
   sodipodi:docname="bookmark-missing.svg"
   version="1.1"
   inkscape:version="0.92.4 (unknown)"
   height="36"
   width="36">
  <metadata
     id="metadata90">
    <rdf:RDF>
      <cc:Work
         rdf:about="">
        <dc:format>image/svg+xml</dc:format>
        <dc:type
           rdf:resource="http://purl.org/dc/dcmitype/StillImage" />
        <dc:title>Gnome Symbolic Icon Theme</dc:title>
      </cc:Work>
    </rdf:RDF>
  </metadata>
  <sodipodi:namedview
     inkscape:cy="12.986791"
     pagecolor="#ffffff"
     borderopacity="1"
     showborder="true"
     inkscape:bbox-paths="false"
     guidetolerance="10"
     inkscape:window-width="1360"
     showguides="true"
     inkscape:object-nodes="true"
     inkscape:snap-bbox="true"
     inkscape:pageshadow="2"
     inkscape:guide-bbox="true"
     inkscape:snap-nodes="true"
     bordercolor="#666666"
     objecttolerance="10"
     id="namedview88"
     showgrid="false"
     inkscape:window-maximized="0"
     inkscape:window-x="0"
     inkscape:snap-global="true"
     inkscape:window-y="27"
     gridtolerance="10"
     inkscape:window-height="768"
     inkscape:snap-to-guides="true"
     inkscape:current-layer="layer13"
     inkscape:zoom="7.9999996"
     inkscape:cx="-13.12651"
     inkscape:snap-grids="true"
     inkscape:pageopacity="1">
    <inkscape:grid
       spacingx="1"
       spacingy="1"
       id="grid4866"
       empspacing="2"
       enabled="true"
       type="xygrid"
       snapvisiblegridlinesonly="true"
       visible="true"
       originx="0"
       originy="0" />
  </sodipodi:namedview>
  <title
     id="title9167">Gnome Symbolic Icon Theme</title>
  <defs
     id="defs7386">
    <linearGradient
       gradientTransform="matrix(1.4219637,0,0,1.4219637,445.86862,-1429.6129)"
       id="e"
       gradientUnits="userSpaceOnUse"
       x1="-21.401199"
       x2="-21.939327"
       y1="1115.608"
       y2="1136.8896">
      <stop
         offset="0"
         stop-color="#1296d5"
         id="stop22" />
      <stop
         offset="1"
         stop-color="#4fb6e8"
         id="stop24" />
    </linearGradient>
  </defs>
  <g
     inkscape:label="status"
     transform="translate(-442,-156)"
     inkscape:groupmode="layer"
     id="layer9"
     style="display:inline" />
  <g
     inkscape:label="devices"
     transform="translate(-442,-156)"
     inkscape:groupmode="layer"
     id="layer10" />
  <g
     inkscape:label="apps"
     transform="translate(-442,-156)"
     inkscape:groupmode="layer"
     id="layer11" />
  <g
     inkscape:label="actions"
     transform="translate(-442,-156)"
     inkscape:groupmode="layer"
     id="layer12" />
  <g
     inkscape:label="places"
     transform="translate(-442,-156)"
     inkscape:groupmode="layer"
     id="layer13">
    <path
       style="opacity:1;fill:#000000;fill-opacity:0.11049727;stroke-width:1.3800087"
       d="m 461.59396,157.81229 a 16.445992,16.445992 0 0 1 0.89657,0.10804 c -0.29751,-0.0418 -0.59416,-0.0824 -0.89657,-0.10804 z m -3.04986,0.0114 c -0.5073,0.0504 -1.00665,0.13017 -1.49933,0.22557 a 16.445992,16.445992 0 0 1 1.49933,-0.22557 z m 4.65724,0.20661 a 16.445992,16.445992 0 0 1 0.97239,0.21798 c -0.32156,-0.0803 -0.64363,-0.157 -0.97239,-0.21798 z m -6.28547,0.0379 c -1.63991,0.33102 -3.19003,0.90753 -4.61364,1.68699 a 16.445992,16.445992 0 0 1 4.61364,-1.68699 z m -4.61364,1.68699 c -0.47292,0.25894 -0.93099,0.53897 -1.37423,0.84159 a 16.445992,16.445992 0 0 1 1.37423,-0.84159 z m 12.46101,-1.35718 a 16.445992,16.445992 0 0 1 1.00272,0.33361 c -0.33074,-0.11945 -0.66252,-0.23516 -1.00272,-0.33361 z m 1.54673,0.53264 a 16.445992,16.445992 0 0 1 0.9667,0.43406 c -0.31806,-0.15241 -0.63773,-0.3019 -0.9667,-0.43406 z m -6.12247,0.60845 a 14.649842,14.649842 0 0 0 -14.6503,14.64841 14.649842,14.649842 0 0 0 14.6503,14.6503 14.649842,14.649842 0 0 0 14.64841,-14.6503 14.649842,14.649842 0 0 0 -14.64841,-14.64841 z m 7.59716,0.0702 a 16.445992,16.445992 0 0 1 0.89278,0.51178 c -0.29354,-0.17756 -0.58761,-0.35244 -0.89278,-0.51178 z m 1.41215,0.82832 a 16.445992,16.445992 0 0 1 0.79042,0.56486 c -0.25984,-0.19345 -0.51909,-0.3867 -0.79042,-0.56486 z m -18.61948,0.4227 c -0.31095,0.22465 -0.62145,0.45031 -0.91553,0.69565 a 16.445992,16.445992 0 0 1 0.91553,-0.69565 z m 9.48697,0.36583 0.0569,1.12403 -1.12214,0.0569 -0.0549,-1.12214 z m 10.45557,0.17439 a 16.445992,16.445992 0 0 1 0.67859,0.59708 c -0.2237,-0.20219 -0.444,-0.40728 -0.67859,-0.59708 z m -8.10895,0.0209 0.36204,0.0549 0.0549,0.0151 0.72976,0.18766 -0.27674,1.08612 -0.71271,-0.18197 -0.32792,-0.0493 z m -5.77748,0.30519 0.27675,1.08801 -0.23883,0.0625 -0.76957,0.28054 -0.3848,-1.0539 0.78664,-0.29001 0.0549,-0.0189 z m -7.49669,0.30706 c -0.22176,0.20177 -0.44731,0.39878 -0.65774,0.61225 a 16.445992,16.445992 0 0 1 0.65774,-0.61225 z m 22.59244,0.44545 a 16.445992,16.445992 0 0 1 0.60845,0.65395 c -0.20063,-0.2204 -0.39625,-0.44476 -0.60845,-0.65395 z m -5.96703,0.01 0.58382,0.28054 0.0455,0.0265 0.40943,0.24831 -0.58571,0.95723 -0.39806,-0.24073 h -0.01 l -0.53263,-0.25589 z m -12.34917,0.65395 0.58382,0.95912 -0.40943,0.24642 -0.0133,0.0133 -0.4606,0.34309 -0.67101,-0.89848 0.47387,-0.35445 0.0436,-0.0303 z m -5.41923,0.036 c -0.20064,0.22211 -0.40296,0.44194 -0.5914,0.67479 a 16.445992,16.445992 0 0 1 0.5914,-0.67479 z m 24.82913,0.48714 a 16.445992,16.445992 0 0 1 0.68428,0.90036 c -0.22119,-0.30563 -0.44309,-0.61104 -0.68428,-0.90036 z m -25.82995,0.73356 c -0.19039,0.25623 -0.38174,0.51167 -0.55728,0.77905 a 16.445992,16.445992 0 0 1 0.55728,-0.77905 z m 21.70725,0.0247 0.63689,0.57813 0.036,0.036 0.17817,0.19333 -0.11941,0.10995 0.34308,-0.22178 -7.89664,10.85552 -11.27821,7.2806 7.89663,-10.85552 10.11628,-6.52998 -0.0493,-0.0549 -0.61793,-0.56107 z m 5.07804,0.5042 a 16.445992,16.445992 0 0 1 0.84349,1.37613 c -0.25927,-0.47377 -0.54039,-0.93213 -0.84349,-1.37613 z m 0.84349,1.37613 a 16.445992,16.445992 0 0 1 1.6851,4.61365 c -0.33076,-1.63916 -0.9063,-3.19055 -1.6851,-4.61365 z m -23.92687,-0.93258 0.83023,0.75441 -0.45872,0.5042 -0.01,0.0133 -0.22367,0.2976 -0.89658,-0.6729 0.23125,-0.30897 0.0322,-0.0398 z m -4.57573,0.32982 c -0.1749,0.28925 -0.34889,0.57896 -0.50611,0.87951 a 16.445992,16.445992 0 0 1 0.50611,-0.87951 z m 24.89926,1.36286 0.55728,0.91553 0.0265,0.0455 0.0209,0.0474 -0.96482,0.46629 -0.0398,0.0247 h -0.002 -0.006 l -0.0133,-0.0266 -0.53831,-0.88709 z m -25.66504,0.0569 c -0.14958,0.31334 -0.29465,0.62764 -0.42459,0.95154 a 16.445992,16.445992 0 0 1 0.42459,-0.95154 z m 3.31901,1.12025 1.0103,0.48903 -0.41322,0.85677 -0.004,0.0133 -0.036,0.0986 -1.0539,-0.38478 0.0569,-0.15164 0.0189,-0.0455 z m -3.93316,0.34876 c -0.12323,0.33993 -0.24204,0.68122 -0.34308,1.03115 a 16.445992,16.445992 0 0 1 0.34308,-1.03115 z m 27.78042,1.59601 0.0398,0.11563 0.0209,0.0549 0.24642,0.96671 -1.08612,0.28053 -0.25021,-0.96481 -0.0247,-0.0664 z m -28.26945,0.006 c -0.0813,0.32522 -0.15824,0.65122 -0.21989,0.98377 a 16.445992,16.445992 0 0 1 0.21989,-0.98377 z m 32.07372,0.8435 a 16.445992,16.445992 0 0 1 0.22746,1.51071 c -0.0508,-0.51177 -0.13092,-1.01383 -0.22746,-1.51071 z m -28.82105,0.47578 0.90604,0.23504 0.18197,0.0265 -0.004,0.0189 -0.16112,1.052 -1.11076,-0.1706 0.1649,-1.06906 0.0114,-0.0569 z m -3.5825,0.3734 c -0.0418,0.29751 -0.0824,0.59419 -0.10803,0.89658 a 16.445992,16.445992 0 0 1 0.10803,-0.89658 z m 16.26717,1.17711 a 1.1257689,1.1257689 0 0 0 -1.12592,1.12593 1.1257689,1.1257689 0 0 0 1.12592,1.12593 1.1257689,1.1257689 0 0 0 1.12593,-1.12593 1.1257689,1.1257689 0 0 0 -1.12593,-1.12593 z m 12.93867,0.59708 0.0266,0.49852 -0.55917,0.0284 0.55917,0.0303 -0.0549,1.12024 -1.12213,-0.0569 0.0531,-1.0937 -0.0209,-0.46819 z m -24.74194,1.31169 0.0209,0.42648 0.0967,0.6312 -1.11076,0.1687 -0.10047,-0.65773 -0.004,-0.0569 -0.0227,-0.45492 z m 28.17848,0.62362 a 16.445992,16.445992 0 0 1 -0.10993,0.90035 c 0.042,-0.29857 0.0841,-0.59685 0.10993,-0.90035 z m -32.73905,0.23693 c 0.0504,0.50728 0.13018,1.00669 0.22558,1.49934 a 16.445992,16.445992 0 0 1 -0.22558,-1.49934 z m 32.52296,1.36666 a 16.445992,16.445992 0 0 1 -0.21608,0.95912 c 0.0788,-0.31739 0.15601,-0.63474 0.21608,-0.95912 z m -4.76149,0.18007 1.08612,0.27675 -0.0929,0.36772 -0.0171,0.0531 -0.25589,0.69755 -1.05199,-0.38478 0.23693,-0.64637 0.002,-0.0151 z m -27.51694,0.0815 c 0.331,1.63985 0.9076,3.1901 1.68699,4.61365 a 16.445992,16.445992 0 0 1 -1.68699,-4.61365 z m 1.68699,4.61365 c 0.25892,0.47291 0.539,0.931 0.84161,1.37424 a 16.445992,16.445992 0 0 1 -0.84161,-1.37424 z m 3.26216,-3.98434 0.24831,0.68048 0.004,0.0151 0.14217,0.2957 -1.01031,0.48903 -0.14975,-0.31085 -0.0189,-0.0511 -0.27105,-0.72977 z m 26.95208,0.69376 a 16.445992,16.445992 0 0 1 -0.31844,0.9629 c 0.11418,-0.31754 0.22358,-0.63664 0.31844,-0.9629 z m -5.65238,1.51449 0.95912,0.58382 -0.32223,0.53453 -0.0303,0.0436 -0.29948,0.39805 -0.89658,-0.671 0.28622,-0.38479 0.01,-0.0133 z m 5.12733,0.0114 a 16.445992,16.445992 0 0 1 -0.43976,0.98187 c 0.15512,-0.32296 0.30553,-0.64763 0.43976,-0.98187 z m -24.98267,0.62173 0.59519,0.7961 0.008,0.0133 0.0436,0.0455 -0.83023,0.75629 -0.0777,-0.0872 -0.0322,-0.0398 -0.60466,-0.80559 z m 24.30408,0.85297 a 16.445992,16.445992 0 0 1 -0.51179,0.89468 c 0.17791,-0.29409 0.35217,-0.58893 0.51179,-0.89468 z m -6.44848,1.00651 0.7544,0.83023 -0.61604,0.56296 -0.0417,0.0303 -0.23125,0.17628 -0.67479,-0.90226 0.22177,-0.16301 0.0114,-0.0151 z m 5.62015,0.40753 a 16.445992,16.445992 0 0 1 -0.56486,0.79043 c 0.19346,-0.25983 0.3867,-0.51911 0.56486,-0.79043 z m -21.30351,0.11184 0.88141,0.66152 -0.671,0.89658 -0.8852,-0.65964 -0.0398,-0.0322 -0.0171,-0.0151 0.52695,-0.57812 z m -5.77368,0.48903 c 0.22464,0.31094 0.45033,0.62146 0.69565,0.91553 a 16.445992,16.445992 0 0 1 -0.69565,-0.91553 z m 26.11427,0.72218 a 16.445992,16.445992 0 0 1 -0.59708,0.67859 c 0.20219,-0.22367 0.40728,-0.444 0.59708,-0.67859 z m -7.24648,0.12511 0.48334,1.0103 -0.95343,0.46061 -0.0474,0.0227 -0.0607,0.0209 -0.38857,-1.05201 0.0455,-0.0171 h 0.0151 z m -10.34753,0.36014 0.19903,0.0967 0.79231,0.29001 -0.38478,1.0539 -0.81885,-0.29948 -0.0512,-0.0227 -0.2256,-0.10851 z m -7.34696,0.23315 c 0.20176,0.22176 0.3988,0.44731 0.61225,0.65774 a 16.445992,16.445992 0 0 1 -0.61225,-0.65774 z m 23.86244,0.49094 a 16.445992,16.445992 0 0 1 -0.65395,0.60845 c 0.22039,-0.20062 0.44475,-0.39627 0.65395,-0.60845 z m -9.2197,0.0303 0.28053,1.08612 -0.12889,0.0342 -0.0549,0.0133 -0.97808,0.14785 -0.17059,-1.10697 0.96291,-0.14785 z m -4.23455,0.11942 0.53453,0.0853 0.52505,0.0247 -0.0569,1.12214 -0.55159,-0.0284 h -0.0569 l -0.56486,-0.0871 z m -9.2633,0.50229 c 0.22209,0.20065 0.44196,0.40296 0.67479,0.59141 a 16.445992,16.445992 0 0 1 -0.67479,-0.59141 z m 21.53096,0.44166 a 16.445992,16.445992 0 0 1 -0.90036,0.68427 c 0.30564,-0.22116 0.61105,-0.4431 0.90036,-0.68427 z m -20.31026,0.55917 c 0.25604,0.19027 0.51187,0.37995 0.77905,0.55538 a 16.445992,16.445992 0 0 1 -0.77905,-0.55538 z m 19.04786,0.39616 a 16.445992,16.445992 0 0 1 -1.37613,0.8435 c 0.47297,-0.25892 0.93284,-0.5409 1.37613,-0.8435 z m -1.37613,0.8435 a 16.445992,16.445992 0 0 1 -4.61365,1.6851 c 1.63994,-0.33091 3.19,-0.90576 4.61365,-1.6851 z m -16.35815,-0.35825 c 0.2826,0.17053 0.5653,0.33915 0.85867,0.49283 a 16.445992,16.445992 0 0 1 -0.85867,-0.49283 z m 1.41973,0.76389 c 0.30753,0.14649 0.61678,0.2894 0.93448,0.417 a 16.445992,16.445992 0 0 1 -0.93448,-0.417 z m 1.48796,0.61982 c 0.32388,0.11671 0.64892,0.22755 0.98187,0.32413 a 16.445992,16.445992 0 0 1 -0.98187,-0.32413 z m 1.58843,0.48146 c 0.32044,0.0798 0.64104,0.15732 0.9686,0.21798 a 16.445992,16.445992 0 0 1 -0.9686,-0.21798 z m 7.13087,0.19523 a 16.445992,16.445992 0 0 1 -1.51071,0.22747 c 0.51174,-0.0508 1.01384,-0.13093 1.51071,-0.22747 z m -5.45904,0.1289 c 0.29857,0.042 0.59688,0.0841 0.90036,0.10994 a 16.445992,16.445992 0 0 1 -0.90036,-0.10994 z"
       id="path840"
       inkscape:connector-curvature="0" />
    <path
       inkscape:connector-curvature="0"
       style="opacity:1;fill:#000000;fill-opacity:0.70999995;stroke-width:1.3800087"
       d="m 460.18691,157.74117 a 16.445992,16.445992 0 0 0 -16.4457,16.44695 16.445992,16.445992 0 0 0 16.4457,16.4457 16.445992,16.445992 0 0 0 16.4469,-16.4457 16.445992,16.445992 0 0 0 -16.4469,-16.44695 z m 0,1.79705 a 14.649842,14.649842 0 0 1 14.64991,14.6499 14.649842,14.649842 0 0 1 -14.64991,14.64989 14.649842,14.649842 0 0 1 -14.64993,-14.64989 14.649842,14.649842 0 0 1 14.64993,-14.6499 z m -0.12173,1.68858 -1.12129,0.058 0.056,1.12125 1.1213,-0.0566 z m 2.34487,0.19361 -0.17047,1.11395 0.32873,0.0483 0.71224,0.1827 0.27759,-1.08606 -0.7305,-0.18864 -0.0548,-0.0138 z m -5.77694,0.30554 -0.27515,0.069 -0.0536,0.0193 -0.78648,0.28857 0.38471,1.05432 0.76822,-0.28 0.23985,-0.0621 z m 9.12987,0.76218 -0.48821,1.01665 0.53325,0.25558 h 0.009 l 0.39934,0.23984 0.58438,-0.9569 -0.40907,-0.24716 -0.0463,-0.0277 z m -12.3501,0.65509 -0.45291,0.27751 -0.0438,0.0304 -0.4736,0.35549 0.67084,0.89728 0.46142,-0.3421 0.0134,-0.0138 0.40906,-0.24592 z m 15.28787,1.28078 -0.75484,0.8291 0.61726,0.56126 0.0499,0.0551 -10.11602,6.53048 -7.89656,10.85625 11.27749,-7.28051 7.89657,-10.85625 -0.34333,0.22163 0.12048,-0.10902 -0.17775,-0.19362 -0.0377,-0.0359 z m -18.00528,0.94711 -0.49551,0.54786 -0.0329,0.04 -0.23132,0.30927 0.89729,0.67207 0.22401,-0.29699 0.009,-0.0138 0.46022,-0.50398 z m 20.32337,1.6923 -0.95939,0.58567 0.53814,0.88749 0.0138,0.0262 h 0.005 0.002 l 0.0402,-0.0248 0.96545,-0.46631 -0.0219,-0.0469 -0.0268,-0.0455 z m -22.34682,1.17853 -0.42124,0.87423 -0.0183,0.0469 -0.0572,0.15097 1.05433,0.38585 0.0352,-0.0994 0.005,-0.0138 0.41274,-0.85712 z m 23.84796,1.94429 -1.05434,0.38723 0.0244,0.0662 0.25081,0.96422 1.08598,-0.28 -0.24714,-0.96781 -0.0194,-0.0538 z m -25.01796,1.32466 -0.011,0.0359 -0.011,0.0566 -0.16436,1.0702 1.11034,0.16918 0.16193,-1.05059 0.002,-0.0193 -0.18019,-0.0277 z m 12.68491,1.551 a 1.1257689,1.1257689 0 0 1 1.12616,1.12498 1.1257689,1.1257689 0 0 1 -1.12616,1.12623 1.1257689,1.1257689 0 0 1 -1.12495,-1.12623 1.1257689,1.1257689 0 0 1 1.12495,-1.12498 z m 12.93936,0.59658 -1.11887,0.058 0.0219,0.46865 -0.0536,1.09462 1.1213,0.0566 0.056,-1.12126 -0.56004,-0.0304 0.56004,-0.0276 z m -24.74281,1.31128 -1.11887,0.058 0.0219,0.45526 0.005,0.0566 0.0998,0.65744 1.11034,-0.16919 -0.0974,-0.63067 z m 23.20148,2.40812 -0.0926,0.34941 -0.002,0.0138 -0.23741,0.64778 1.0519,0.38474 0.25566,-0.69772 0.0182,-0.0538 0.0926,-0.36763 z m -22.56839,0.70987 -1.05434,0.38833 0.27029,0.73045 0.0183,0.051 0.15095,0.3105 1.01052,-0.48825 -0.14246,-0.29588 -0.005,-0.0151 z m 21.30101,2.20843 -0.29342,0.49074 -0.011,0.0138 -0.28611,0.38585 0.89728,0.67081 0.2995,-0.39923 0.0305,-0.0428 0.32264,-0.53572 z m -19.85587,0.6344 -0.8985,0.67813 0.60387,0.80592 0.0329,0.04 0.0778,0.0855 0.83032,-0.75486 -0.0438,-0.0455 -0.007,-0.0138 z m 17.85553,1.859 -0.57585,0.51985 -0.011,0.0138 -0.22157,0.16436 0.67448,0.901 0.23132,-0.1754 0.0402,-0.0316 0.61726,-0.56125 z m -15.68355,0.51985 -0.20453,0.27159 -0.52595,0.57946 0.0158,0.0151 0.0402,0.0317 0.88512,0.65991 0.67082,-0.89728 z m 13.09398,1.33557 -0.9058,0.4456 h -0.0159 l -0.0438,0.0166 0.38836,1.05308 0.0596,-0.0221 0.0487,-0.0221 0.95328,-0.46009 z m -10.34734,0.36046 -0.48821,1.01044 0.22401,0.10764 0.0512,0.0221 0.81936,0.2996 0.38593,-1.05434 -0.79257,-0.28855 z m 7.29634,0.75363 -0.0889,0.0262 -0.96302,0.1485 0.17044,1.10786 0.97763,-0.14848 0.0548,-0.0139 0.12901,-0.0345 z m -4.23439,0.12006 -0.17044,1.11642 0.56368,0.087 h 0.0572 l 0.55152,0.0277 0.0573,-1.1214 -0.52595,-0.0248 z"
       id="path51" />
  </g>
  <g
     inkscape:label="mimetypes"
     transform="translate(-442,-156)"
     inkscape:groupmode="layer"
     id="layer14" />
  <g
     inkscape:label="emblems"
     transform="translate(-442,-156)"
     inkscape:groupmode="layer"
     id="layer15"
     style="display:inline" />
</svg>
