<?xml version="1.0" encoding="UTF-8" standalone="no"?>
<!-- Created with Inkscape (http://www.inkscape.org/) -->

<svg
   xmlns:dc="http://purl.org/dc/elements/1.1/"
   xmlns:cc="http://creativecommons.org/ns#"
   xmlns:rdf="http://www.w3.org/1999/02/22-rdf-syntax-ns#"
   xmlns:svg="http://www.w3.org/2000/svg"
   xmlns="http://www.w3.org/2000/svg"
   xmlns:sodipodi="http://sodipodi.sourceforge.net/DTD/sodipodi-0.dtd"
   xmlns:inkscape="http://www.inkscape.org/namespaces/inkscape"
   id="svg2"
   version="1.1"
   inkscape:version="0.48.4 r9939"
   width="1000"
   height="1000"
   sodipodi:docname="Ubuntu OS X Logo.png">
  <metadata
     id="metadata8">
    <rdf:RDF>
      <cc:Work
         rdf:about="">
        <dc:format>image/svg+xml</dc:format>
        <dc:type
           rdf:resource="http://purl.org/dc/dcmitype/StillImage" />
        <dc:title></dc:title>
      </cc:Work>
    </rdf:RDF>
  </metadata>
  <defs
     id="defs6" />
  <sodipodi:namedview
     pagecolor="#ffffff"
     bordercolor="#666666"
     borderopacity="1"
     objecttolerance="10"
     gridtolerance="10"
     guidetolerance="10"
     inkscape:pageopacity="0"
     inkscape:pageshadow="2"
     inkscape:window-width="1280"
     inkscape:window-height="943"
     id="namedview4"
     showgrid="false"
     borderlayer="false"
     inkscape:showpageshadow="true"
     inkscape:zoom="0.5265625"
     inkscape:cx="612.81786"
     inkscape:cy="536.87481"
     inkscape:window-x="0"
     inkscape:window-y="24"
     inkscape:window-maximized="1"
     inkscape:current-layer="svg2" />
  <path
     style="fill:#000000"
     d="m 219.13788,999.4452 c -20.58171,-3.2671 -37.50922,-11.9481 -51.1846,-26.2491 -7.75986,-8.1149 -11.46183,-13.5089 -16.17756,-23.572 -5.62045,-11.99375 -7.85745,-22.42079 -7.85745,-36.62489 0,-14.20409 2.237,-24.63113 7.85745,-36.62492 4.71573,-10.06317 8.4177,-15.4572 16.17756,-23.5721 16.83431,-17.60433 38.05931,-26.60002 62.76197,-26.60002 14.20406,0 24.6312,2.237 36.62498,7.85743 10.06308,4.71579 15.45711,8.41768 23.57201,16.17763 17.60443,16.83432 26.60002,38.05931 26.60002,62.76198 0,24.70268 -8.99559,45.92769 -26.60002,62.76189 -3.58532,3.4286 -8.58232,7.6401 -11.10444,9.3589 -7.14137,4.8669 -19.53778,10.3094 -28.29245,12.4214 -9.25933,2.2337 -24.61248,3.1365 -32.37747,1.9038 z m 381.21871,-99.41349 c -11.84984,-1.82648 -25.97051,-6.48393 -47.09755,-15.53416 -33.87422,-14.51095 -49.86042,-18.25474 -78.37955,-18.35611 -29.26132,-0.10403 -45.72806,3.59358 -80.75469,18.13361 -19.82841,8.23099 -32.3033,12.94288 -32.76436,12.37542 -0.12389,-0.15249 -0.93761,-5.313 -1.80833,-11.46793 -5.76389,-40.74425 -30.71994,-76.01562 -66.95276,-94.6271 -31.06491,-15.95694 -65.39341,-18.60854 -98.33828,-7.59598 -6.20282,2.0734 -11.38993,3.64327 -11.52702,3.4886 -1.69984,-1.91835 -14.38782,-22.37332 -20.50561,-33.05813 -33.46618,-58.44912 -58.57327,-131.69729 -68.223274,-199.03654 -3.56482,-24.8759 -4.35542,-36.699 -4.35179,-65.07878 0.007,-51.64581 7.06756,-89.58193 24.171604,-129.86597 4.18084,-9.84682 15.01901,-30.06689 20.01875,-37.34766 l 1.4592,-2.12493 6.89037,3.46994 c 30.89921,15.56061 68.90208,15.73431 99.18392,0.45335 22.69074,-11.45024 42.30757,-32.18529 52.23527,-55.21288 5.77168,-13.38754 9.24736,-29.26535 9.28821,-42.43099 l 0.019,-6.06922 15.91342,0.54169 c 25.70517,0.87501 45.32229,5.97465 89.67504,23.31187 52.01761,20.33336 55.07745,20.33714 106.74886,0.13204 54.13509,-21.16847 81.63881,-27.52789 113.53159,-26.25076 25.66963,1.02792 45.89308,4.53605 67.45391,11.7011 40.29638,13.39122 74.4387,37.82815 99.69098,71.35249 l 4.82409,6.40437 -2.10912,1.42509 c -46.91106,31.69582 -78.00302,74.29851 -89.95566,123.25821 -3.99708,16.37283 -5.22711,27.21889 -5.19975,45.8516 0.0361,24.66943 2.90242,43.47265 9.87031,64.75051 15.85802,48.42545 52.54677,90.34428 100.24657,114.53706 l 10.67567,5.41457 -4.08799,11.93498 c -17.42068,50.85927 -42.14549,95.92372 -82.11041,149.65789 -18.44682,24.80242 -37.07855,44.44889 -52.88689,55.76738 -25.88521,18.5332 -53.12329,24.98455 -84.84354,20.09537 z M 385.09928,761.95089 c 4.18024,-1.07423 14.86836,-4.88618 23.75138,-8.47095 24.67815,-9.95892 29.63735,-11.02763 50.82795,-10.95326 20.45858,0.0718 23.55139,0.77983 49.28145,11.28212 18.69233,7.62963 23.83355,9.0036 36.22351,9.68023 16.64829,0.9093 31.34213,-3.71092 45.23953,-14.22468 22.57683,-17.08002 56.32041,-64.84697 72.93592,-103.24727 5.27186,-12.18382 11.57795,-29.32995 10.92383,-29.70169 -0.20179,-0.11463 -2.93196,-1.48399 -6.06714,-3.04302 -23.03057,-11.45241 -44.53317,-32.81256 -55.45472,-55.08714 -8.40951,-17.15153 -11.48522,-29.71632 -12.21714,-49.90952 -1.20572,-33.26371 7.35162,-57.9413 29.11406,-83.95846 6.14971,-7.35204 20.37887,-20.08491 26.4445,-23.66375 1.69832,-1.002 3.08777,-2.38248 3.08777,-3.06774 0,-1.76198 -6.85702,-10.28875 -14.19154,-17.64722 -13.16767,-13.21078 -30.2432,-23.66171 -48.64862,-29.77495 -12.18446,-4.04698 -20.81998,-5.80387 -35.48484,-7.21936 -22.43023,-2.16501 -38.79199,1.25294 -77.4352,16.17613 -9.14428,3.53134 -19.90128,7.14732 -23.90452,8.03552 -6.6254,1.47 -7.95234,1.48782 -14.78809,0.19853 -4.13036,-0.779 -16.45961,-4.83341 -27.39854,-9.00979 -31.69859,-12.10228 -39.27433,-13.92986 -57.41601,-13.85096 -25.76721,0.11206 -50.46389,8.0276 -73.02836,23.40633 -10.487,7.14741 -28.9194,25.90319 -36.13507,36.76908 -17.36223,26.1451 -26.39706,54.98083 -28.47778,90.88956 -3.8709,66.80313 19.41863,143.44086 62.21652,204.73228 32.83201,47.01912 57.22258,65.52347 84.45021,64.0697 4.70277,-0.2511 11.9707,-1.33549 16.15094,-2.40972 z m 426.87305,-191.9306 c -20.58171,-3.26718 -37.50922,-11.94813 -51.18451,-26.24909 -7.75995,-8.11491 -11.46194,-13.50893 -16.17763,-23.57201 -5.62043,-11.99374 -7.85743,-22.42078 -7.85743,-36.62491 0,-14.20413 2.237,-24.63117 7.85743,-36.62491 4.71569,-10.06308 8.41768,-15.4571 16.17763,-23.57201 16.83422,-17.60439 38.05921,-26.60005 62.76188,-26.60005 14.20408,0 24.63113,2.237 36.62491,7.85746 10.06308,4.71572 15.45711,8.41766 23.57201,16.17758 17.60442,16.8343 26.60002,38.05926 26.60002,62.76193 0,24.70267 -8.9956,45.92763 -26.60002,62.76192 -3.58532,3.4285 -8.58232,7.63997 -11.10444,9.35882 -7.14137,4.86695 -19.53778,10.30942 -28.29245,12.4214 -9.25923,2.23371 -24.61241,3.13651 -32.3774,1.90387 z M 173.71195,295.37751 c -27.2777,-3.51151 -52.24212,-20.90953 -65.42293,-45.59405 -22.551695,-42.23395 -6.39713,-94.93398 36.04846,-117.59868 37.29916,-19.91665 83.58328,-9.88418 109.74283,23.78767 13.32547,17.15212 20.07362,40.95126 17.5879,62.02819 -4.83559,41.00156 -35.69595,72.33958 -76.24342,77.42381 -8.85736,1.11061 -12.78689,1.10212 -21.71284,-0.0469 z m 281.68647,-89.23493 c -1.28144,-4.03734 -0.66618,-28.68802 0.96981,-38.858 4.10861,-25.54139 15.02693,-53.0161 30.61249,-77.033116 C 512.84759,50.391194 556.05818,18.644509 602.18688,5.6099897 612.76564,2.6207647 626.98901,0.00637472 632.7074,3.7719526e-5 635.80572,-0.00376228 636.21091,0.29416572 636.74513,2.9651407 c 0.92431,4.621696 0.69943,22.7355043 -0.4089,32.9331013 -5.77957,53.176192 -36.89891,107.371078 -79.92453,139.190058 -27.36187,20.23504 -56.93614,31.35312 -86.88634,32.66386 l -13.42951,0.58773 -0.69743,-2.19731 z"
     id="path2987"
     inkscape:connector-curvature="0" />
</svg>
