<?xml version="1.0" encoding="UTF-8" standalone="no"?>
<!-- Created with Inkscape (http://www.inkscape.org/) -->

<svg
   xmlns:dc="http://purl.org/dc/elements/1.1/"
   xmlns:cc="http://creativecommons.org/ns#"
   xmlns:rdf="http://www.w3.org/1999/02/22-rdf-syntax-ns#"
   xmlns:svg="http://www.w3.org/2000/svg"
   xmlns="http://www.w3.org/2000/svg"
   xmlns:sodipodi="http://sodipodi.sourceforge.net/DTD/sodipodi-0.dtd"
   xmlns:inkscape="http://www.inkscape.org/namespaces/inkscape"
   id="svg7384"
   sodipodi:docname="network-workgroup.svg"
   version="1.1"
   inkscape:version="0.91 r13725"
   height="36"
   width="36">
  <metadata
     id="metadata90">
    <rdf:RDF>
      <cc:Work
         rdf:about="">
        <dc:format>image/svg+xml</dc:format>
        <dc:type
           rdf:resource="http://purl.org/dc/dcmitype/StillImage" />
        <dc:title>Gnome Symbolic Icon Theme</dc:title>
      </cc:Work>
    </rdf:RDF>
  </metadata>
  <sodipodi:namedview
     inkscape:cy="20.160757"
     pagecolor="#ffffff"
     borderopacity="1"
     showborder="true"
     inkscape:bbox-paths="false"
     guidetolerance="10"
     inkscape:window-width="1920"
     showguides="true"
     inkscape:object-nodes="true"
     inkscape:snap-bbox="true"
     inkscape:pageshadow="2"
     inkscape:guide-bbox="true"
     inkscape:snap-nodes="true"
     bordercolor="#666666"
     objecttolerance="10"
     id="namedview88"
     showgrid="false"
     inkscape:window-maximized="1"
     inkscape:window-x="0"
     inkscape:snap-global="true"
     inkscape:window-y="26"
     gridtolerance="10"
     inkscape:window-height="1031"
     inkscape:snap-to-guides="true"
     inkscape:current-layer="layer13"
     inkscape:zoom="2.828427"
     inkscape:cx="18.987987"
     inkscape:snap-grids="true"
     inkscape:pageopacity="1">
    <inkscape:grid
       spacingx="1"
       spacingy="1"
       id="grid4866"
       empspacing="2"
       enabled="true"
       type="xygrid"
       snapvisiblegridlinesonly="true"
       visible="true"
       originx="0"
       originy="0" />
  </sodipodi:namedview>
  <title
     id="title9167">Gnome Symbolic Icon Theme</title>
  <defs
     id="defs7386" />
  <g
     inkscape:label="status"
     transform="translate(-442,-156)"
     inkscape:groupmode="layer"
     id="layer9"
     style="display:inline" />
  <g
     inkscape:label="devices"
     transform="translate(-442,-156)"
     inkscape:groupmode="layer"
     id="layer10" />
  <g
     inkscape:label="apps"
     transform="translate(-442,-156)"
     inkscape:groupmode="layer"
     id="layer11" />
  <g
     inkscape:label="actions"
     transform="translate(-442,-156)"
     inkscape:groupmode="layer"
     id="layer12" />
  <g
     inkscape:label="places"
     transform="translate(-442,-156)"
     inkscape:groupmode="layer"
     id="layer13">
    <path
       id="circle4403"
       d="m 460,158.66668 c -8.46836,0 -15.33332,6.86496 -15.33333,15.33332 10e-6,8.46836 6.86497,15.33332 15.33333,15.33332 8.46836,0 15.33332,-6.86496 15.33333,-15.33332 -10e-6,-8.46836 -6.86497,-15.33332 -15.33333,-15.33332 z"
       style="opacity:1;fill:#504f4f;fill-opacity:0.56395347;stroke:none;stroke-width:0.99999994"
       inkscape:connector-curvature="0"
       sodipodi:nodetypes="sssss" />
    <path
       style="color:#000000;font-style:normal;font-variant:normal;font-weight:normal;font-stretch:normal;font-size:medium;line-height:normal;font-family:sans-serif;text-indent:0;text-align:start;text-decoration:none;text-decoration-line:none;text-decoration-style:solid;text-decoration-color:#000000;letter-spacing:normal;word-spacing:normal;text-transform:none;direction:ltr;block-progression:tb;writing-mode:lr-tb;baseline-shift:baseline;text-anchor:start;white-space:normal;clip-rule:nonzero;display:inline;overflow:visible;visibility:visible;opacity:1;isolation:auto;mix-blend-mode:normal;color-interpolation:sRGB;color-interpolation-filters:linearRGB;solid-color:#000000;solid-opacity:1;fill:#e5e5e5;fill-opacity:0.63498098;fill-rule:nonzero;stroke:none;stroke-width:1.70000005;stroke-linecap:butt;stroke-linejoin:miter;stroke-miterlimit:4;stroke-dasharray:none;stroke-dashoffset:0;stroke-opacity:1;color-rendering:auto;image-rendering:auto;shape-rendering:auto;text-rendering:auto;enable-background:accumulate"
       d="M 15.140625 2.9472656 A 15.333333 15.333333 0 0 0 11.5625 4.1035156 C 9.5282445 6.5699418 8.3125705 9.4207689 7.6953125 12.425781 A 1.9887379 1.9887379 0 0 0 6.5117188 13.550781 C 5.4946337 13.503019 4.4628927 13.400003 3.4238281 13.271484 A 15.333333 15.333333 0 0 0 2.9804688 14.921875 C 4.1964923 15.077683 5.4075089 15.198871 6.6054688 15.246094 A 1.9887379 1.9887379 0 0 0 7.2089844 15.925781 C 7.2011231 16.011061 7.1903936 16.095978 7.1855469 16.181641 C 7.050978 18.559965 7.2104127 20.970993 7.5253906 23.333984 A 1.9887379 1.9887379 0 0 0 7.3515625 23.462891 C 5.7614827 22.611163 4.2546263 21.585063 2.8632812 20.384766 A 15.333333 15.333333 0 0 0 3.5566406 23.095703 C 4.5438429 23.800499 5.5698981 24.436028 6.6289062 25 A 1.9887379 1.9887379 0 0 0 8.1269531 26.921875 C 8.3577858 28.08346 8.6184716 29.209525 8.8886719 30.310547 A 15.333333 15.333333 0 0 0 10.978516 31.617188 C 10.55057 30.018259 10.13775 28.339009 9.7910156 26.599609 A 1.9887379 1.9887379 0 0 0 9.9160156 26.498047 C 12.141203 27.33577 14.453972 27.872901 16.787109 28.138672 A 1.9887379 1.9887379 0 0 0 17.568359 29.03125 C 17.510231 30.436156 17.545719 31.86849 17.675781 33.318359 A 15.333333 15.333333 0 0 0 18 33.333984 A 15.333333 15.333333 0 0 0 19.394531 33.257812 C 19.265994 31.886366 19.204931 30.533564 19.248047 29.216797 A 1.9887379 1.9887379 0 0 0 20.324219 28.335938 C 21.871751 28.322209 23.406778 28.182283 24.914062 27.921875 A 1.9887379 1.9887379 0 0 0 26.384766 28.576172 A 1.9887379 1.9887379 0 0 0 26.765625 28.537109 C 27.127171 28.93001 27.515765 29.3099 27.892578 29.695312 A 15.333333 15.333333 0 0 0 29.123047 28.527344 C 28.794897 28.191592 28.45431 27.858959 28.138672 27.519531 A 1.9887379 1.9887379 0 0 0 28.296875 27.125 C 29.205982 26.846687 30.096918 26.521558 30.964844 26.152344 A 15.333333 15.333333 0 0 0 32.240234 23.648438 C 30.907119 24.382853 29.48498 24.978135 28.005859 25.441406 A 1.9887379 1.9887379 0 0 0 26.384766 24.597656 A 1.9887379 1.9887379 0 0 0 25.777344 24.695312 C 24.569134 23.075197 23.555417 21.379783 22.832031 19.544922 A 1.9887379 1.9887379 0 0 0 23.554688 18.013672 A 1.9887379 1.9887379 0 0 0 23.130859 16.785156 C 25.05868 14.06364 27.731335 11.817158 31.185547 10.208984 A 15.333333 15.333333 0 0 0 30.234375 8.7792969 C 26.644313 10.500776 23.844708 12.907571 21.802734 15.798828 C 21.65952 14.958986 21.591941 14.0755 21.560547 13.169922 A 1.9887379 1.9887379 0 0 0 22.892578 11.294922 A 1.9887379 1.9887379 0 0 0 22.890625 11.267578 C 24.826472 10.089415 26.693626 8.623651 28.482422 6.8339844 A 15.333333 15.333333 0 0 0 27.177734 5.7402344 C 25.558759 7.3477696 23.884821 8.6771644 22.158203 9.7539062 A 1.9887379 1.9887379 0 0 0 21.732422 9.4902344 C 21.964065 7.6571821 22.40902 5.6918169 23.109375 3.5625 A 15.333333 15.333333 0 0 0 21.480469 3.0839844 C 20.731663 5.371745 20.254231 7.5097045 20.019531 9.515625 A 1.9887379 1.9887379 0 0 0 18.916016 11.294922 A 1.9887379 1.9887379 0 0 0 18.923828 11.462891 C 16.13045 12.681196 13.212617 13.332647 10.183594 13.527344 A 1.9887379 1.9887379 0 0 0 9.390625 12.605469 C 10.167463 8.9084736 11.894113 5.5643402 15.140625 2.9472656 z M 19.761719 12.921875 A 1.9887379 1.9887379 0 0 0 19.837891 12.972656 C 19.865578 14.219601 19.997358 15.409864 20.21875 16.552734 A 1.9887379 1.9887379 0 0 0 19.578125 18.013672 A 1.9887379 1.9887379 0 0 0 19.902344 19.103516 C 18.969275 21.087914 18.313137 23.223273 17.935547 25.466797 A 1.9887379 1.9887379 0 0 0 16.849609 26.40625 C 14.72826 26.154991 12.628066 25.660976 10.603516 24.912109 A 1.9887379 1.9887379 0 0 0 9.2089844 23.097656 C 8.9056052 20.820003 8.756132 18.516338 8.8828125 16.277344 C 8.884005 16.256267 8.8873026 16.235862 8.8886719 16.214844 A 1.9887379 1.9887379 0 0 0 10.115234 15.216797 C 13.445093 15.009341 16.674685 14.28425 19.761719 12.921875 z M 21.244141 20.121094 C 22.055543 22.196415 23.183875 24.093198 24.529297 25.875 A 1.9887379 1.9887379 0 0 0 24.421875 26.283203 C 23.120382 26.492354 21.794824 26.602743 20.458984 26.617188 A 1.9887379 1.9887379 0 0 0 19.611328 25.623047 C 19.938695 23.68458 20.474322 21.83822 21.244141 20.121094 z M 1.0214844 20.951172 L 0.98046875 20.994141 C 0.99840222 21.01098 1.0171806 21.026194 1.0351562 21.042969 A 17.25 17.25 0 0 1 1.0214844 20.951172 z "
       transform="translate(442,156)"
       id="path4149" />
    <path
       id="path4401"
       d="M 460,156.75 A 17.25,17.25 0 0 0 442.75,174 17.25,17.25 0 0 0 460,191.25 17.25,17.25 0 0 0 477.25,174 17.25,17.25 0 0 0 460,156.75 Z m 0,1.91668 A 15.333333,15.333333 0 0 1 475.33333,174 15.333333,15.333333 0 0 1 460,189.33332 15.333333,15.333333 0 0 1 444.66667,174 15.333333,15.333333 0 0 1 460,158.66668 Z"
       style="opacity:1;fill:#656363;fill-opacity:0.75665396;stroke:none;stroke-width:0.99999994"
       inkscape:connector-curvature="0" />
  </g>
  <g
     inkscape:label="mimetypes"
     transform="translate(-442,-156)"
     inkscape:groupmode="layer"
     id="layer14" />
  <g
     inkscape:label="emblems"
     transform="translate(-442,-156)"
     inkscape:groupmode="layer"
     id="layer15"
     style="display:inline" />
</svg>
