<?xml version="1.0" encoding="UTF-8" standalone="no"?>
<!-- Created with Inkscape (http://www.inkscape.org/) -->

<svg
   xmlns:dc="http://purl.org/dc/elements/1.1/"
   xmlns:cc="http://creativecommons.org/ns#"
   xmlns:rdf="http://www.w3.org/1999/02/22-rdf-syntax-ns#"
   xmlns:svg="http://www.w3.org/2000/svg"
   xmlns="http://www.w3.org/2000/svg"
   xmlns:sodipodi="http://sodipodi.sourceforge.net/DTD/sodipodi-0.dtd"
   xmlns:inkscape="http://www.inkscape.org/namespaces/inkscape"
   width="36"
   height="36"
   viewBox="0 0 9.5249998 9.5250003"
   version="1.1"
   id="svg1417"
   inkscape:version="0.92.4 (unknown)"
   sodipodi:docname="gtk-directory.svg">
  <defs
     id="defs1411" />
  <sodipodi:namedview
     id="base"
     pagecolor="#ffffff"
     bordercolor="#666666"
     borderopacity="1.0"
     inkscape:pageopacity="0.0"
     inkscape:pageshadow="2"
     inkscape:zoom="22.627417"
     inkscape:cx="6.6841167"
     inkscape:cy="13.60693"
     inkscape:document-units="mm"
     inkscape:current-layer="layer1"
     showgrid="true"
     units="px"
     inkscape:window-width="1920"
     inkscape:window-height="1016"
     inkscape:window-x="0"
     inkscape:window-y="27"
     inkscape:window-maximized="1"
     showguides="false">
    <inkscape:grid
       type="xygrid"
       id="grid1976" />
  </sodipodi:namedview>
  <metadata
     id="metadata1414">
    <rdf:RDF>
      <cc:Work
         rdf:about="">
        <dc:format>image/svg+xml</dc:format>
        <dc:type
           rdf:resource="http://purl.org/dc/dcmitype/StillImage" />
        <dc:title />
      </cc:Work>
    </rdf:RDF>
  </metadata>
  <g
     inkscape:label="Capa 1"
     inkscape:groupmode="layer"
     id="layer1"
     transform="translate(0,-287.47498)">
    <path
       style="opacity:1;fill:#000000;fill-opacity:0.01777778;stroke:none;stroke-width:1.48814583;stroke-linecap:round;stroke-linejoin:round;stroke-miterlimit:4;stroke-dasharray:none;stroke-dashoffset:0;stroke-opacity:1"
       d="M 2.1523438 9.4082031 C 1.9250782 9.4082031 1.7675781 9.5677723 1.7675781 9.7949219 L 1.7675781 14.587891 C 1.8959168 14.559544 2.0161946 14.511719 2.1523438 14.511719 L 33.613281 14.511719 C 33.749425 14.511719 33.871666 14.561434 34 14.587891 L 34 12.867188 C 34 12.64 33.840571 12.486328 33.613281 12.486328 L 16.373047 12.486328 A 0.74414729 0.74414729 0 0 1 15.900391 12.308594 L 12.414062 9.4101562 L 2.1523438 9.4101562 L 2.1523438 9.4082031 z "
       transform="matrix(0.26458333,0,0,0.26458333,0,287.47498)"
       id="rect836" />
    <path
       style="color:#000000;font-style:normal;font-variant:normal;font-weight:normal;font-stretch:normal;font-size:medium;line-height:normal;font-family:sans-serif;font-variant-ligatures:normal;font-variant-position:normal;font-variant-caps:normal;font-variant-numeric:normal;font-variant-alternates:normal;font-feature-settings:normal;text-indent:0;text-align:start;text-decoration:none;text-decoration-line:none;text-decoration-style:solid;text-decoration-color:#000000;letter-spacing:normal;word-spacing:normal;text-transform:none;writing-mode:lr-tb;direction:ltr;text-orientation:mixed;dominant-baseline:auto;baseline-shift:baseline;text-anchor:start;white-space:normal;shape-padding:0;clip-rule:nonzero;display:inline;overflow:visible;visibility:visible;opacity:1;isolation:auto;mix-blend-mode:normal;color-interpolation:sRGB;color-interpolation-filters:linearRGB;solid-color:#000000;solid-opacity:1;vector-effect:none;fill:#000000;fill-opacity:0.65098041;fill-rule:nonzero;stroke:none;stroke-width:0.3937386;stroke-linecap:round;stroke-linejoin:round;stroke-miterlimit:4;stroke-dasharray:none;stroke-dashoffset:0;stroke-opacity:1;color-rendering:auto;image-rendering:auto;shape-rendering:auto;text-rendering:auto;enable-background:accumulate"
       d="m 0.5695571,289.57093 c -0.27144837,0 -0.49571747,0.22426 -0.49571743,0.49571 v 1.74376 2.80876 1.62879 c 0,0.27143 0.22426712,0.49571 0.49571743,0.49571 H 8.893748 c 0.2714486,0 0.4966369,-0.22428 0.4966369,-0.49571 v -1.62879 -2.80876 -0.93075 c 0,-0.27143 -0.2251921,-0.49571 -0.4966369,-0.49571 H 4.4046994 l -0.9224573,-0.76887 a 0.19688897,0.19688897 0 0 0 -0.1269184,-0.0442 z m 0,0.39363 h 2.7149498 l 0.9224573,0.76703 a 0.19688897,0.19688897 0 0 0 0.1250795,0.0469 H 8.893748 c 0.060137,0 0.1020853,0.041 0.1020853,0.10111 v 0.45526 c -0.033955,-0.007 -0.066064,-0.0203 -0.1020853,-0.0203 H 0.5695571 c -0.0360228,0 -0.0681303,0.0128 -0.10208658,0.0203 v -1.26827 c 0,-0.0601 0.0419559,-0.10215 0.10208658,-0.10215 z m 0,1.74375 H 8.893748 c 0.060138,0 0.1020853,0.0419 0.1020853,0.10215 v 4.43755 c 0,0.0602 -0.041946,0.10112 -0.1020853,0.10112 H 0.5695571 c -0.0601328,0 -0.10208658,-0.041 -0.10208658,-0.10112 v -4.43755 c 0,-0.0602 0.0419559,-0.10215 0.10208658,-0.10215 z"
       id="path843"
       inkscape:connector-curvature="0" />
    <path
       style="opacity:1;fill:#000000;fill-opacity:0.18907563;stroke:none;stroke-width:0.3937386;stroke-linecap:round;stroke-linejoin:round;stroke-miterlimit:4;stroke-dasharray:none;stroke-dashoffset:0;stroke-opacity:1"
       d="m 0.5695571,291.70831 c -0.060131,0 -0.10208658,0.0419 -0.10208658,0.10215 v 4.43755 c 0,0.0602 0.0419535,0.10112 0.10208658,0.10112 H 8.893748 c 0.060138,0 0.1020853,-0.041 0.1020853,-0.10112 v -4.43755 c 0,-0.0602 -0.041946,-0.10215 -0.1020853,-0.10215 z"
       id="rect826"
       inkscape:connector-curvature="0" />
  </g>
</svg>
