<?xml version="1.0" encoding="UTF-8" standalone="no"?>
<svg
   xmlns:dc="http://purl.org/dc/elements/1.1/"
   xmlns:cc="http://creativecommons.org/ns#"
   xmlns:rdf="http://www.w3.org/1999/02/22-rdf-syntax-ns#"
   xmlns:svg="http://www.w3.org/2000/svg"
   xmlns="http://www.w3.org/2000/svg"
   xmlns:sodipodi="http://sodipodi.sourceforge.net/DTD/sodipodi-0.dtd"
   xmlns:inkscape="http://www.inkscape.org/namespaces/inkscape"
   width="16"
   height="16"
   viewBox="0 0 16 16"
   version="1.1"
   id="svg7"
   sodipodi:docname="address-book-new.svg"
   inkscape:version="0.92.4 5da689c313, 2019-01-14">
  <metadata
     id="metadata11">
    <rdf:RDF>
      <cc:Work
         rdf:about="">
        <dc:format>image/svg+xml</dc:format>
        <dc:type
           rdf:resource="http://purl.org/dc/dcmitype/StillImage" />
      </cc:Work>
    </rdf:RDF>
  </metadata>
  <sodipodi:namedview
     pagecolor="#ffffff"
     bordercolor="#666666"
     borderopacity="1"
     objecttolerance="10"
     gridtolerance="10"
     guidetolerance="10"
     inkscape:pageopacity="0"
     inkscape:pageshadow="2"
     inkscape:window-width="640"
     inkscape:window-height="480"
     id="namedview9"
     showgrid="false"
     inkscape:zoom="14.75"
     inkscape:cx="6.8135593"
     inkscape:cy="8"
     inkscape:window-x="0"
     inkscape:window-y="26"
     inkscape:window-maximized="0"
     inkscape:current-layer="svg7" />
  <defs
     id="defs3">
    <style
       id="current-color-scheme"
       type="text/css">
   .ColorScheme-Text { color:#5c616c; } .ColorScheme-Highlight { color:#5294e2; }
  </style>
  </defs>
  <path
     style="fill:#f1f6f8;fill-opacity:0.8509804"
     class="ColorScheme-Text"
     d="M 3 1.0097656 C 1.892 1.0097656 1 1.9017656 1 3.0097656 L 1 13.009766 C 1 14.117766 1.892 15.009766 3 15.009766 L 13 15.009766 C 14.108 15.009766 15 14.117766 15 13.009766 L 15 3.0097656 C 15 1.9017656 14.108 1.0097656 13 1.0097656 L 3 1.0097656 z M 8 4 C 10.2091 4 12 5.7909 12 8 L 12 8.5 C 12 9.32843 11.32843 10 10.5 10 C 10.05709 10.00022 9.6366925 9.8037238 9.3515625 9.4648438 C 8.9951725 9.7935738 8.52312 10 8 10 C 6.8954 10 6 9.10457 6 8 C 6 6.89543 6.89543 6 8 6 C 9.10457 6 10 6.89543 10 8 L 10 8.5 C 10 8.77614 10.22386 9 10.5 9 C 10.77614 9 11 8.77614 11 8.5 L 11 8 C 11 6.3431 9.6569 5 8 5 C 6.3431 5 5 6.3431 5 8 C 5 9.6568 6.3431 11 8 11 L 10.5 11 C 10.5 11 11 11 11 11.5 C 10.9688 12 10.5 12 10.5 12 L 8 12 C 5.7909 12 4 10.2091 4 8 C 4 5.7909 5.7909 4 8 4 z M 8 7 C 7.44771 7 7 7.44772 7 8 C 7 8.55228 7.44771 9 8 9 C 8.55229 9 9 8.55228 9 8 C 9 7.44772 8.55229 7 8 7 z"
     id="path5" />
</svg>
