<?xml version="1.0" encoding="UTF-8" standalone="no"?>
<svg
   xmlns:dc="http://purl.org/dc/elements/1.1/"
   xmlns:cc="http://creativecommons.org/ns#"
   xmlns:rdf="http://www.w3.org/1999/02/22-rdf-syntax-ns#"
   xmlns:svg="http://www.w3.org/2000/svg"
   xmlns="http://www.w3.org/2000/svg"
   xmlns:sodipodi="http://sodipodi.sourceforge.net/DTD/sodipodi-0.dtd"
   xmlns:inkscape="http://www.inkscape.org/namespaces/inkscape"
   width="16"
   height="16"
   viewBox="0 0 16 16"
   version="1.1"
   id="svg7"
   sodipodi:docname="archive.svg"
   inkscape:version="0.92.4 5da689c313, 2019-01-14">
  <metadata
     id="metadata11">
    <rdf:RDF>
      <cc:Work
         rdf:about="">
        <dc:format>image/svg+xml</dc:format>
        <dc:type
           rdf:resource="http://purl.org/dc/dcmitype/StillImage" />
      </cc:Work>
    </rdf:RDF>
  </metadata>
  <sodipodi:namedview
     pagecolor="#ffffff"
     bordercolor="#666666"
     borderopacity="1"
     objecttolerance="10"
     gridtolerance="10"
     guidetolerance="10"
     inkscape:pageopacity="0"
     inkscape:pageshadow="2"
     inkscape:window-width="640"
     inkscape:window-height="480"
     id="namedview9"
     showgrid="false"
     inkscape:zoom="14.75"
     inkscape:cx="6.8135593"
     inkscape:cy="8"
     inkscape:window-x="0"
     inkscape:window-y="26"
     inkscape:window-maximized="0"
     inkscape:current-layer="svg7" />
  <defs
     id="defs3">
    <style
       id="current-color-scheme"
       type="text/css">
   .ColorScheme-Text { color:#5c616c; } .ColorScheme-Highlight { color:#5294e2; }
  </style>
  </defs>
  <path
     style="fill:#f1f6f8;fill-opacity:0.8509804"
     class="ColorScheme-Text"
     d="M 2.9101562 1.0351562 C 2.4118663 1.0778563 2.0728562 1.5150462 1.9726562 1.9726562 C 1.6809063 2.8641762 1.3807562 3.7660562 1.0976562 4.6601562 L 1.0039062 5.0351562 L 1.0039062 13.035156 C 1.0039062 13.589156 1.4499063 14.035156 2.0039062 14.035156 L 14.003906 14.035156 C 14.557906 14.035156 15.003906 13.589156 15.003906 13.035156 L 15.003906 5.0351562 L 14.878906 4.5664062 C 14.540676 3.5766762 14.236256 2.5486062 13.878906 1.5664062 C 13.664926 1.1282762 13.177006 0.98963625 12.722656 1.0351562 L 2.9101562 1.0351562 z M 3.7285156 3.0351562 L 12.261719 3.0351562 C 12.369759 3.3581662 12.48376 3.7029962 12.59375 4.0351562 L 3.4023438 4.0351562 C 3.5110937 3.7013862 3.6181656 3.3711062 3.7285156 3.0351562 z M 7.0039062 6.0351562 L 9.0039062 6.0351562 L 9.0039062 9.0351562 L 10.753906 9.0351562 L 8.0039062 12.035156 L 5.2539062 9.0351562 L 7.0039062 9.0351562 L 7.0039062 6.0351562 z"
     id="path5" />
</svg>
