<?xml version="1.0" encoding="UTF-8" standalone="no"?>
<svg
   xmlns:dc="http://purl.org/dc/elements/1.1/"
   xmlns:cc="http://creativecommons.org/ns#"
   xmlns:rdf="http://www.w3.org/1999/02/22-rdf-syntax-ns#"
   xmlns:svg="http://www.w3.org/2000/svg"
   xmlns="http://www.w3.org/2000/svg"
   xmlns:sodipodi="http://sodipodi.sourceforge.net/DTD/sodipodi-0.dtd"
   xmlns:inkscape="http://www.inkscape.org/namespaces/inkscape"
   width="16"
   height="16"
   viewBox="0 0 16 16"
   version="1.1"
   id="svg7"
   sodipodi:docname="automated-tasks.svg"
   inkscape:version="0.92.4 5da689c313, 2019-01-14">
  <metadata
     id="metadata11">
    <rdf:RDF>
      <cc:Work
         rdf:about="">
        <dc:format>image/svg+xml</dc:format>
        <dc:type
           rdf:resource="http://purl.org/dc/dcmitype/StillImage" />
      </cc:Work>
    </rdf:RDF>
  </metadata>
  <sodipodi:namedview
     pagecolor="#ffffff"
     bordercolor="#666666"
     borderopacity="1"
     objecttolerance="10"
     gridtolerance="10"
     guidetolerance="10"
     inkscape:pageopacity="0"
     inkscape:pageshadow="2"
     inkscape:window-width="640"
     inkscape:window-height="480"
     id="namedview9"
     showgrid="false"
     inkscape:zoom="14.75"
     inkscape:cx="6.8135593"
     inkscape:cy="8"
     inkscape:window-x="0"
     inkscape:window-y="26"
     inkscape:window-maximized="0"
     inkscape:current-layer="svg7" />
  <defs
     id="defs3">
    <style
       id="current-color-scheme"
       type="text/css">
   .ColorScheme-Text { color:#5c616c; } .ColorScheme-Highlight { color:#5294e2; }
  </style>
  </defs>
  <path
     style="fill:#f1f6f8;fill-opacity:0.8509804"
     class="ColorScheme-Text"
     d="M 8 0 A 1 1 0 0 0 7 1 A 1 1 0 0 0 8 2 A 1 1 0 0 0 9 1 A 1 1 0 0 0 8 0 z M 8 2 L 2.4003906 2 C 1.6247906 2 1 2.8941125 1 3.6328125 L 1 10.300781 C 1 11.038781 1.6247906 12 2.4003906 12 L 6.5996094 12 L 6.5996094 13 L 3.8007812 13 L 3.8007812 15 L 12.199219 15 L 12.199219 13 L 9.4003906 13 L 9.4003906 12 L 13.599609 12 C 14.374609 12 15 11.038781 15 10.300781 L 15 3.6328125 C 15 2.8941125 14.374609 2 13.599609 2 L 8 2 z M 3.5 4 L 12.5 4 C 13.331 4 14 4.446 14 5 C 14 5.554 13.331 6 12.5 6 L 3.5 6 C 2.669 6 2 5.554 2 5 C 2 4.446 2.669 4 3.5 4 z"
     id="path5" />
</svg>
