<?xml version="1.0" encoding="UTF-8" standalone="no"?>
<svg
   xmlns:dc="http://purl.org/dc/elements/1.1/"
   xmlns:cc="http://creativecommons.org/ns#"
   xmlns:rdf="http://www.w3.org/1999/02/22-rdf-syntax-ns#"
   xmlns:svg="http://www.w3.org/2000/svg"
   xmlns="http://www.w3.org/2000/svg"
   xmlns:sodipodi="http://sodipodi.sourceforge.net/DTD/sodipodi-0.dtd"
   xmlns:inkscape="http://www.inkscape.org/namespaces/inkscape"
   width="16"
   height="16"
   viewBox="0 0 16 16"
   version="1.1"
   id="svg7"
   sodipodi:docname="blurfx.svg"
   inkscape:version="0.92.4 5da689c313, 2019-01-14">
  <metadata
     id="metadata11">
    <rdf:RDF>
      <cc:Work
         rdf:about="">
        <dc:format>image/svg+xml</dc:format>
        <dc:type
           rdf:resource="http://purl.org/dc/dcmitype/StillImage" />
      </cc:Work>
    </rdf:RDF>
  </metadata>
  <sodipodi:namedview
     pagecolor="#ffffff"
     bordercolor="#666666"
     borderopacity="1"
     objecttolerance="10"
     gridtolerance="10"
     guidetolerance="10"
     inkscape:pageopacity="0"
     inkscape:pageshadow="2"
     inkscape:window-width="640"
     inkscape:window-height="480"
     id="namedview9"
     showgrid="false"
     inkscape:zoom="14.75"
     inkscape:cx="7.4237288"
     inkscape:cy="7.3898305"
     inkscape:window-x="0"
     inkscape:window-y="26"
     inkscape:window-maximized="0"
     inkscape:current-layer="svg7" />
  <defs
     id="defs3">
    <style
       id="current-color-scheme"
       type="text/css">
   .ColorScheme-Text { color:#5c616c; } .ColorScheme-Highlight { color:#5294e2; }
  </style>
  </defs>
  <path
     style="fill:#f1f6f8;fill-opacity:0.8509804"
     class="ColorScheme-Text"
     d="M 11 1 L 10.425781 2.6132812 L 8.8789062 1.8789062 L 9.6132812 3.4257812 L 8 4 L 9.6132812 4.5742188 L 8.8789062 6.1210938 L 10.425781 5.3867188 L 11 7 L 11.574219 5.3867188 L 13.121094 6.1210938 L 12.386719 4.5742188 L 14 4 L 12.386719 3.4257812 L 13.121094 1.8789062 L 11.574219 2.6132812 L 11 1 z M 6 2 C 5.79297 2.66364 5.5132275 3.3130187 5.2109375 3.9492188 C 3.6704375 7.0994188 1.2598438 9.2539875 1.0273438 11.242188 C 1.0213438 11.271888 1.0052 11.304384 1 11.333984 L 1.0195312 11.339844 C 1.0145313 11.408244 1 11.476732 1 11.544922 C 1 14.005122 3.2386 16 6 16 C 8.7614 16 11 14.005122 11 11.544922 C 11 11.476722 10.985469 11.408204 10.980469 11.339844 L 11 11.333984 C 10.995 11.304484 10.978956 11.271888 10.972656 11.242188 C 10.740106 9.2539875 8.3295625 7.0974656 6.7890625 3.9472656 C 6.4867825 3.3110556 6.20702 2.6637 6 2 z"
     id="path5" />
</svg>
