<?xml version="1.0" encoding="UTF-8" standalone="no"?>
<svg
   xmlns:dc="http://purl.org/dc/elements/1.1/"
   xmlns:cc="http://creativecommons.org/ns#"
   xmlns:rdf="http://www.w3.org/1999/02/22-rdf-syntax-ns#"
   xmlns:svg="http://www.w3.org/2000/svg"
   xmlns="http://www.w3.org/2000/svg"
   xmlns:sodipodi="http://sodipodi.sourceforge.net/DTD/sodipodi-0.dtd"
   xmlns:inkscape="http://www.inkscape.org/namespaces/inkscape"
   width="16"
   height="16"
   viewBox="0 0 16 16"
   version="1.1"
   id="svg7"
   sodipodi:docname="cache.svg"
   inkscape:version="0.92.4 5da689c313, 2019-01-14">
  <metadata
     id="metadata11">
    <rdf:RDF>
      <cc:Work
         rdf:about="">
        <dc:format>image/svg+xml</dc:format>
        <dc:type
           rdf:resource="http://purl.org/dc/dcmitype/StillImage" />
      </cc:Work>
    </rdf:RDF>
  </metadata>
  <sodipodi:namedview
     pagecolor="#ffffff"
     bordercolor="#666666"
     borderopacity="1"
     objecttolerance="10"
     gridtolerance="10"
     guidetolerance="10"
     inkscape:pageopacity="0"
     inkscape:pageshadow="2"
     inkscape:window-width="640"
     inkscape:window-height="480"
     id="namedview9"
     showgrid="false"
     inkscape:zoom="14.75"
     inkscape:cx="6.8135593"
     inkscape:cy="8"
     inkscape:window-x="0"
     inkscape:window-y="26"
     inkscape:window-maximized="0"
     inkscape:current-layer="svg7" />
  <defs
     id="defs3">
    <style
       id="current-color-scheme"
       type="text/css">
   .ColorScheme-Text { color:#5c616c; } .ColorScheme-Highlight { color:#5294e2; }
  </style>
  </defs>
  <path
     style="fill:#f1f6f8;fill-opacity:0.8509804"
     class="ColorScheme-Text"
     d="M 3 1.0292969 C 2 1.0292969 2 2.0292969 2 2.0292969 L 2 14.029297 C 2 14.029297 2 15.029297 3 15.029297 L 13 15.029297 C 13 15.029297 14 15.029297 14 14.029297 L 14 2.0292969 C 14 2.0292969 14 1.0292969 13 1.0292969 L 3 1.0292969 z M 8 3.0292969 C 10.2091 3.0292969 12 4.8201969 12 7.0292969 C 12 9.2383969 10.2091 11.029297 8 11.029297 L 4 11.029297 L 4 7.0292969 C 4 4.8201969 5.7909 3.0292969 8 3.0292969 z M 8 5.0292969 C 6.8954 5.0292969 6 5.9247269 6 7.0292969 C 6 8.1338669 6.89543 9.0292969 8 9.0292969 C 9.10457 9.0292969 10 8.1338669 10 7.0292969 C 10 5.9247269 9.10457 5.0292969 8 5.0292969 z"
     id="path5" />
</svg>
