<?xml version="1.0" encoding="UTF-8" standalone="no"?>
<svg
   xmlns:dc="http://purl.org/dc/elements/1.1/"
   xmlns:cc="http://creativecommons.org/ns#"
   xmlns:rdf="http://www.w3.org/1999/02/22-rdf-syntax-ns#"
   xmlns:svg="http://www.w3.org/2000/svg"
   xmlns="http://www.w3.org/2000/svg"
   xmlns:sodipodi="http://sodipodi.sourceforge.net/DTD/sodipodi-0.dtd"
   xmlns:inkscape="http://www.inkscape.org/namespaces/inkscape"
   width="16"
   height="16"
   viewBox="0 0 16 16"
   version="1.1"
   id="svg7"
   sodipodi:docname="calendar-go-today.svg"
   inkscape:version="0.92.4 5da689c313, 2019-01-14">
  <metadata
     id="metadata11">
    <rdf:RDF>
      <cc:Work
         rdf:about="">
        <dc:format>image/svg+xml</dc:format>
        <dc:type
           rdf:resource="http://purl.org/dc/dcmitype/StillImage" />
      </cc:Work>
    </rdf:RDF>
  </metadata>
  <sodipodi:namedview
     pagecolor="#ffffff"
     bordercolor="#666666"
     borderopacity="1"
     objecttolerance="10"
     gridtolerance="10"
     guidetolerance="10"
     inkscape:pageopacity="0"
     inkscape:pageshadow="2"
     inkscape:window-width="640"
     inkscape:window-height="480"
     id="namedview9"
     showgrid="false"
     inkscape:zoom="14.75"
     inkscape:cx="6.8135593"
     inkscape:cy="8"
     inkscape:window-x="0"
     inkscape:window-y="26"
     inkscape:window-maximized="0"
     inkscape:current-layer="svg7" />
  <defs
     id="defs3">
    <style
       id="current-color-scheme"
       type="text/css">
   .ColorScheme-Text { color:#5c616c; } .ColorScheme-Highlight { color:#5294e2; }
  </style>
  </defs>
  <path
     style="fill:#f1f6f8;fill-opacity:0.8509804"
     class="ColorScheme-Text"
     d="M 2 1 C 2 1 1 1 1 2 L 1 6.9941406 L 3 7 L 3 6 L 3.7988281 6 L 5.5039062 4.2929688 L 6.2109375 3.5859375 L 8.625 6 L 13 6 L 13 13 L 7.6601562 13 L 6.2148438 14.458984 L 4.765625 13 L 3.0097656 13 L 3.0097656 11.009766 L 1.0097656 11.003906 L 1.0097656 14 C 1.0097656 14 1.0097656 15 2.0097656 15 L 14.009766 15 C 15.009766 15 15.009766 14 15.009766 14 L 15.009766 2 C 15.009766 2 15.009766 1 14.009766 1 L 2 1 z M 6.2109375 5 L 4.8242188 6.3867188 L 6.4589844 8.0214844 L 0.009765625 8 L 0.009765625 10 L 6.4707031 10.021484 L 4.8359375 11.654297 L 6.2207031 13.041016 L 10.222656 9 L 6.2109375 5 z"
     id="path5" />
</svg>
