<?xml version="1.0" encoding="UTF-8" standalone="no"?>
<svg
   xmlns:dc="http://purl.org/dc/elements/1.1/"
   xmlns:cc="http://creativecommons.org/ns#"
   xmlns:rdf="http://www.w3.org/1999/02/22-rdf-syntax-ns#"
   xmlns:svg="http://www.w3.org/2000/svg"
   xmlns="http://www.w3.org/2000/svg"
   xmlns:sodipodi="http://sodipodi.sourceforge.net/DTD/sodipodi-0.dtd"
   xmlns:inkscape="http://www.inkscape.org/namespaces/inkscape"
   width="16"
   height="16"
   viewBox="0 0 16 16"
   version="1.1"
   id="svg7"
   sodipodi:docname="code-typedef.svg"
   inkscape:version="0.92.4 5da689c313, 2019-01-14">
  <metadata
     id="metadata11">
    <rdf:RDF>
      <cc:Work
         rdf:about="">
        <dc:format>image/svg+xml</dc:format>
        <dc:type
           rdf:resource="http://purl.org/dc/dcmitype/StillImage" />
      </cc:Work>
    </rdf:RDF>
  </metadata>
  <sodipodi:namedview
     pagecolor="#ffffff"
     bordercolor="#666666"
     borderopacity="1"
     objecttolerance="10"
     gridtolerance="10"
     guidetolerance="10"
     inkscape:pageopacity="0"
     inkscape:pageshadow="2"
     inkscape:window-width="640"
     inkscape:window-height="480"
     id="namedview9"
     showgrid="false"
     inkscape:zoom="14.75"
     inkscape:cx="6.8135593"
     inkscape:cy="8"
     inkscape:window-x="0"
     inkscape:window-y="26"
     inkscape:window-maximized="0"
     inkscape:current-layer="svg7" />
  <defs
     id="defs3">
    <style
       id="current-color-scheme"
       type="text/css">
   .ColorScheme-Text { color:#5c616c; } .ColorScheme-Highlight { color:#5294e2; }
  </style>
  </defs>
  <path
     style="fill:#f1f6f8;fill-opacity:0.8509804"
     class="ColorScheme-Text"
     d="M 3 1.0039062 A 1.99995 1.99995 0 0 0 1 3.0039062 A 1.99995 1.99995 0 0 0 3 5.0039062 A 1.99995 1.99995 0 0 0 4 4.734375 L 4 7.0039062 L 1 7.0039062 L 1 14.003906 L 4 14.003906 L 4 15.003906 L 15 15.003906 L 15 11.003906 L 4 11.003906 L 4 12.003906 L 3 12.003906 L 3 9.0039062 L 4 9.0039062 L 4 10.003906 L 15 10.003906 L 15 4.0039062 L 4.7285156 4.0039062 A 1.99995 1.99995 0 0 0 5 3.0039062 A 1.99995 1.99995 0 0 0 3 1.0039062 z M 3 2.0039062 A 0.999975 0.999975 0 0 1 4 3.0039062 A 0.999975 0.999975 0 0 1 3 4.0039062 A 0.999975 0.999975 0 0 1 2 3.0039062 A 0.999975 0.999975 0 0 1 3 2.0039062 z"
     id="path5" />
</svg>
