<?xml version="1.0" encoding="UTF-8" standalone="no"?>
<svg
   xmlns:dc="http://purl.org/dc/elements/1.1/"
   xmlns:cc="http://creativecommons.org/ns#"
   xmlns:rdf="http://www.w3.org/1999/02/22-rdf-syntax-ns#"
   xmlns:svg="http://www.w3.org/2000/svg"
   xmlns="http://www.w3.org/2000/svg"
   xmlns:sodipodi="http://sodipodi.sourceforge.net/DTD/sodipodi-0.dtd"
   xmlns:inkscape="http://www.inkscape.org/namespaces/inkscape"
   width="16"
   height="16"
   viewBox="0 0 16 16"
   version="1.1"
   id="svg7"
   sodipodi:docname="contrast.svg"
   inkscape:version="0.92.4 5da689c313, 2019-01-14">
  <metadata
     id="metadata11">
    <rdf:RDF>
      <cc:Work
         rdf:about="">
        <dc:format>image/svg+xml</dc:format>
        <dc:type
           rdf:resource="http://purl.org/dc/dcmitype/StillImage" />
      </cc:Work>
    </rdf:RDF>
  </metadata>
  <sodipodi:namedview
     pagecolor="#ffffff"
     bordercolor="#666666"
     borderopacity="1"
     objecttolerance="10"
     gridtolerance="10"
     guidetolerance="10"
     inkscape:pageopacity="0"
     inkscape:pageshadow="2"
     inkscape:window-width="715"
     inkscape:window-height="480"
     id="namedview9"
     showgrid="false"
     inkscape:zoom="14.75"
     inkscape:cx="-0.54237288"
     inkscape:cy="8"
     inkscape:window-x="0"
     inkscape:window-y="26"
     inkscape:window-maximized="0"
     inkscape:current-layer="svg7" />
  <defs
     id="defs3">
    <style
       id="current-color-scheme"
       type="text/css">
   .ColorScheme-Text { color:#5c616c; } .ColorScheme-Highlight { color:#5294e2; }
  </style>
  </defs>
  <path
     style="fill:#f1f6f8;fill-opacity:0.8509804"
     class="ColorScheme-Text"
     d="M 7.5 0.0390625 L 7.5 1.8515625 L 8.5 1.8515625 L 8.5 0.0390625 L 7.5 0.0390625 z M 2.6875 2.0097656 L 1.96875 2.7265625 L 3.25 4.0390625 L 3.96875 3.2890625 L 2.6875 2.0097656 z M 13.3125 2.0097656 L 12.03125 3.2890625 L 12.75 4.0390625 L 14.03125 2.7265625 L 13.3125 2.0097656 z M 8 3.0390625 C 5.2386 3.0390625 3 5.2776625 3 8.0390625 C 3 10.800463 5.2386 13.039062 8 13.039062 C 10.7614 13.039062 13 10.800463 13 8.0390625 C 13 5.2776625 10.7614 3.0390625 8 3.0390625 z M 8 4.0390625 L 8 12.039062 C 5.7909 12.039062 4 10.248062 4 8.0390625 C 4 5.8299625 5.7909 4.0390625 8 4.0390625 z M 0 7.5390625 L 0 8.5390625 L 1.8125 8.5390625 L 1.8125 7.5390625 L 0 7.5390625 z M 14.189453 7.5390625 L 14.189453 8.5390625 L 16.001953 8.5390625 L 16.001953 7.5390625 L 14.189453 7.5390625 z M 3.25 12.070312 L 1.96875 13.351562 L 2.6875 14.070312 L 3.96875 12.789062 L 3.25 12.070312 z M 12.75 12.070312 L 12.03125 12.789062 L 13.3125 14.070312 L 14.03125 13.351562 L 12.75 12.070312 z M 7.5 14.226562 L 7.5 16.039062 L 8.5 16.039062 L 8.5 14.226562 L 7.5 14.226562 z"
     id="path5" />
</svg>
