<?xml version="1.0" encoding="UTF-8" standalone="no"?>
<svg
   xmlns:dc="http://purl.org/dc/elements/1.1/"
   xmlns:cc="http://creativecommons.org/ns#"
   xmlns:rdf="http://www.w3.org/1999/02/22-rdf-syntax-ns#"
   xmlns:svg="http://www.w3.org/2000/svg"
   xmlns="http://www.w3.org/2000/svg"
   xmlns:sodipodi="http://sodipodi.sourceforge.net/DTD/sodipodi-0.dtd"
   xmlns:inkscape="http://www.inkscape.org/namespaces/inkscape"
   width="16"
   height="16"
   viewBox="0 0 16 16"
   version="1.1"
   id="svg7"
   sodipodi:docname="curve-connector.svg"
   inkscape:version="0.92.4 5da689c313, 2019-01-14">
  <metadata
     id="metadata11">
    <rdf:RDF>
      <cc:Work
         rdf:about="">
        <dc:format>image/svg+xml</dc:format>
        <dc:type
           rdf:resource="http://purl.org/dc/dcmitype/StillImage" />
      </cc:Work>
    </rdf:RDF>
  </metadata>
  <sodipodi:namedview
     pagecolor="#ffffff"
     bordercolor="#666666"
     borderopacity="1"
     objecttolerance="10"
     gridtolerance="10"
     guidetolerance="10"
     inkscape:pageopacity="0"
     inkscape:pageshadow="2"
     inkscape:window-width="715"
     inkscape:window-height="480"
     id="namedview9"
     showgrid="false"
     inkscape:zoom="14.75"
     inkscape:cx="-0.54237288"
     inkscape:cy="8"
     inkscape:window-x="0"
     inkscape:window-y="26"
     inkscape:window-maximized="0"
     inkscape:current-layer="svg7" />
  <defs
     id="defs3">
    <style
       id="current-color-scheme"
       type="text/css">
   .ColorScheme-Text { color:#5c616c; } .ColorScheme-Highlight { color:#5294e2; }
  </style>
  </defs>
  <path
     style="fill:#f1f6f8;fill-opacity:0.8509804"
     class="ColorScheme-Text"
     d="M 12.5 1 A 2.4999375 2.4999275 0 0 0 10.050781 3 L 4.5 3 C 3.1193345 3 2 4.61934 2 6 C 2 7.38066 3.1193345 9 4.5 9 L 11.5 9 C 12.327979 9 13 10.172024 13 11 C 13 11.827976 12.327979 13 11.5 13 L 5.9453125 13 A 2.4999375 2.4999275 0 0 0 3.5 11 A 2.4999375 2.4999275 0 0 0 1 13.5 A 2.4999375 2.4999275 0 0 0 3.5 16 A 2.4999375 2.4999275 0 0 0 5.9492188 14 L 11.5 14 C 12.880965 14 14 12.38096 14 11 C 14 9.61934 12.880965 8 11.5 8 L 4.5 8 C 3.6716207 8 3 6.828376 3 6 C 3 5.171624 3.6716207 4 4.5 4 L 10.054688 4 A 2.4999375 2.4999275 0 0 0 12.5 6 A 2.4999375 2.4999275 0 0 0 15 3.5 A 2.4999375 2.4999275 0 0 0 12.5 1 z"
     id="path5" />
</svg>
