<?xml version="1.0" encoding="UTF-8" standalone="no"?>
<svg
   xmlns:dc="http://purl.org/dc/elements/1.1/"
   xmlns:cc="http://creativecommons.org/ns#"
   xmlns:rdf="http://www.w3.org/1999/02/22-rdf-syntax-ns#"
   xmlns:svg="http://www.w3.org/2000/svg"
   xmlns="http://www.w3.org/2000/svg"
   xmlns:sodipodi="http://sodipodi.sourceforge.net/DTD/sodipodi-0.dtd"
   xmlns:inkscape="http://www.inkscape.org/namespaces/inkscape"
   width="16"
   height="16"
   viewBox="0 0 16 16"
   version="1.1"
   id="svg7"
   sodipodi:docname="distribute-horizontal-baseline.svg"
   inkscape:version="0.92.4 5da689c313, 2019-01-14">
  <metadata
     id="metadata11">
    <rdf:RDF>
      <cc:Work
         rdf:about="">
        <dc:format>image/svg+xml</dc:format>
        <dc:type
           rdf:resource="http://purl.org/dc/dcmitype/StillImage" />
      </cc:Work>
    </rdf:RDF>
  </metadata>
  <sodipodi:namedview
     pagecolor="#ffffff"
     bordercolor="#666666"
     borderopacity="1"
     objecttolerance="10"
     gridtolerance="10"
     guidetolerance="10"
     inkscape:pageopacity="0"
     inkscape:pageshadow="2"
     inkscape:window-width="640"
     inkscape:window-height="480"
     id="namedview9"
     showgrid="false"
     inkscape:zoom="14.75"
     inkscape:cx="6.8135593"
     inkscape:cy="8"
     inkscape:window-x="0"
     inkscape:window-y="26"
     inkscape:window-maximized="0"
     inkscape:current-layer="svg7" />
  <defs
     id="defs3">
    <style
       id="current-color-scheme"
       type="text/css">
   .ColorScheme-Text { color:#5c616c; } .ColorScheme-Highlight { color:#5294e2; }
  </style>
  </defs>
  <path
     style="fill:#f1f6f8;fill-opacity:0.8509804"
     class="ColorScheme-Text"
     d="M 1 2 L 1 14 L 3 14 L 3 2 L 1 2 z M 5 3 L 5 5 L 10.996094 5 C 11.423954 5 11.994141 5.61414 11.994141 6 L 11.994141 7 L 6.9980469 7 C 6.0794269 7 5.264 7.38396 4.75 7.96875 C 4.23596 8.55354 3.99361 9.2794 4 10 C 4.006 10.72062 4.26929 11.45275 4.78125 12.03125 C 5.29321 12.60979 6.0903469 13 6.9980469 13 L 13.994141 13 L 13.994141 12.15625 C 14.009741 12.0625 13.994141 12 13.994141 12 L 13.994141 6 C 13.994141 4.3657 12.675094 3 10.996094 3 L 5 3 z M 6.9980469 9 L 11.994141 9 L 11.994141 11 L 6.9980469 11 C 6.6004569 11 6.43298 10.89021 6.28125 10.71875 C 6.12952 10.54729 6.00248 10.27938 6 10 C 5.998 9.72062 6.10478 9.44646 6.25 9.28125 C 6.39523 9.11604 6.5759869 9 6.9980469 9 z"
     id="path5" />
</svg>
