<?xml version="1.0" encoding="UTF-8" standalone="no"?>
<svg
   xmlns:dc="http://purl.org/dc/elements/1.1/"
   xmlns:cc="http://creativecommons.org/ns#"
   xmlns:rdf="http://www.w3.org/1999/02/22-rdf-syntax-ns#"
   xmlns:svg="http://www.w3.org/2000/svg"
   xmlns="http://www.w3.org/2000/svg"
   xmlns:sodipodi="http://sodipodi.sourceforge.net/DTD/sodipodi-0.dtd"
   xmlns:inkscape="http://www.inkscape.org/namespaces/inkscape"
   width="16"
   height="16"
   viewBox="0 0 16 16"
   version="1.1"
   id="svg7"
   sodipodi:docname="distribute-graph.svg"
   inkscape:version="0.92.4 5da689c313, 2019-01-14">
  <metadata
     id="metadata11">
    <rdf:RDF>
      <cc:Work
         rdf:about="">
        <dc:format>image/svg+xml</dc:format>
        <dc:type
           rdf:resource="http://purl.org/dc/dcmitype/StillImage" />
      </cc:Work>
    </rdf:RDF>
  </metadata>
  <sodipodi:namedview
     pagecolor="#ffffff"
     bordercolor="#666666"
     borderopacity="1"
     objecttolerance="10"
     gridtolerance="10"
     guidetolerance="10"
     inkscape:pageopacity="0"
     inkscape:pageshadow="2"
     inkscape:window-width="640"
     inkscape:window-height="480"
     id="namedview9"
     showgrid="false"
     inkscape:zoom="14.75"
     inkscape:cx="6.8135593"
     inkscape:cy="8"
     inkscape:window-x="0"
     inkscape:window-y="26"
     inkscape:window-maximized="0"
     inkscape:current-layer="svg7" />
  <defs
     id="defs3">
    <style
       id="current-color-scheme"
       type="text/css">
   .ColorScheme-Text { color:#5c616c; } .ColorScheme-Highlight { color:#5294e2; }
  </style>
  </defs>
  <path
     style="fill:#f1f6f8;fill-opacity:0.8509804"
     class="ColorScheme-Text"
     d="M 7.4921875 -0.00390625 L 7.5 0 A 1.5 1.5 0 0 0 6 1.5 A 1.5 1.5 0 0 0 6.1132812 2.0703125 L 2.2207031 5.1855469 A 1.5 1.5 0 0 0 1.5 5 A 1.5 1.5 0 0 0 0 6.5 A 1.5 1.5 0 0 0 1 7.9121094 L 1 13.087891 A 1.5 1.5 0 0 0 0 14.5 A 1.5 1.5 0 0 0 1.5 16 A 1.5 1.5 0 0 0 2.9121094 15 L 7.0878906 15 A 1.5 1.5 0 0 0 8.5 16 A 1.5 1.5 0 0 0 10 14.5 A 1.5 1.5 0 0 0 9.8144531 13.783203 L 12.931641 9.8867188 A 1.5 1.5 0 0 0 13.5 10 A 1.5 1.5 0 0 0 15 8.5 A 1.5 1.5 0 0 0 13.5 7 A 1.5 1.5 0 0 0 12.916016 7.1191406 L 8.8222656 2.2070312 A 1.5 1.5 0 0 0 8.9921875 1.4960938 A 1.5 1.5 0 0 0 7.4921875 -0.00390625 z M 6.78125 2.8164062 A 1.5 1.5 0 0 0 7.5 3 A 1.5 1.5 0 0 0 8.0820312 2.8808594 L 12.177734 7.7949219 A 1.5 1.5 0 0 0 11.998047 8.5058594 A 1.5 1.5 0 0 0 12.183594 9.2246094 L 9.0683594 13.119141 A 1.5 1.5 0 0 0 8.4980469 13.007812 A 1.5 1.5 0 0 0 7.0859375 14.007812 L 2.9101562 14.007812 A 1.5 1.5 0 0 0 2 13.097656 L 2 7.921875 A 1.5 1.5 0 0 0 3 6.5097656 A 1.5 1.5 0 0 0 2.8867188 5.9414062 L 6.78125 2.8261719 L 6.78125 2.8164062 z"
     id="path5" />
</svg>
