<?xml version="1.0" encoding="UTF-8" standalone="no"?>
<svg
   xmlns:dc="http://purl.org/dc/elements/1.1/"
   xmlns:cc="http://creativecommons.org/ns#"
   xmlns:rdf="http://www.w3.org/1999/02/22-rdf-syntax-ns#"
   xmlns:svg="http://www.w3.org/2000/svg"
   xmlns="http://www.w3.org/2000/svg"
   xmlns:sodipodi="http://sodipodi.sourceforge.net/DTD/sodipodi-0.dtd"
   xmlns:inkscape="http://www.inkscape.org/namespaces/inkscape"
   width="16"
   height="16"
   viewBox="0 0 16 16"
   version="1.1"
   id="svg7"
   sodipodi:docname="button_cancel.svg"
   inkscape:version="0.92.4 5da689c313, 2019-01-14">
  <metadata
     id="metadata11">
    <rdf:RDF>
      <cc:Work
         rdf:about="">
        <dc:format>image/svg+xml</dc:format>
        <dc:type
           rdf:resource="http://purl.org/dc/dcmitype/StillImage" />
      </cc:Work>
    </rdf:RDF>
  </metadata>
  <sodipodi:namedview
     pagecolor="#ffffff"
     bordercolor="#666666"
     borderopacity="1"
     objecttolerance="10"
     gridtolerance="10"
     guidetolerance="10"
     inkscape:pageopacity="0"
     inkscape:pageshadow="2"
     inkscape:window-width="640"
     inkscape:window-height="480"
     id="namedview9"
     showgrid="false"
     inkscape:zoom="14.75"
     inkscape:cx="6.8135593"
     inkscape:cy="8"
     inkscape:window-x="0"
     inkscape:window-y="26"
     inkscape:window-maximized="0"
     inkscape:current-layer="svg7" />
  <defs
     id="defs3">
    <style
       id="current-color-scheme"
       type="text/css">
   .ColorScheme-Text { color:#5c616c; } .ColorScheme-Highlight { color:#5294e2; }
  </style>
  </defs>
  <path
     style="fill:#f1f6f8;fill-opacity:0.8509804"
     class="ColorScheme-Text"
     d="M 11.003906 3.9824219 A 1 1 0 0 0 10.296875 4.2753906 L 8.0039062 6.5683594 L 5.7207031 4.2851562 A 1 1 0 0 0 5.7109375 4.2753906 A 1 1 0 0 0 5.0097656 3.9863281 L 5 4 A 1 1 0 0 0 4 5 A 1 1 0 0 0 4.2929688 5.7070312 L 6.5859375 8 L 4.2929688 10.292969 A 1 1 0 0 0 4.0039062 10.992188 A 1 1 0 0 0 5.0039062 11.992188 A 1 1 0 0 0 5.7109375 11.699219 L 8.0039062 9.40625 L 10.287109 11.689453 A 1 1 0 0 0 11.003906 11.992188 A 1 1 0 0 0 12.003906 10.992188 A 1 1 0 0 0 11.710938 10.285156 L 9.4101562 7.9863281 L 11.693359 5.703125 A 1 1 0 0 0 12.003906 4.9824219 A 1 1 0 0 0 11.003906 3.9824219 z"
     id="path5" />
</svg>
