<?xml version="1.0" encoding="UTF-8" standalone="no"?>
<svg
   xmlns:dc="http://purl.org/dc/elements/1.1/"
   xmlns:cc="http://creativecommons.org/ns#"
   xmlns:rdf="http://www.w3.org/1999/02/22-rdf-syntax-ns#"
   xmlns:svg="http://www.w3.org/2000/svg"
   xmlns="http://www.w3.org/2000/svg"
   xmlns:sodipodi="http://sodipodi.sourceforge.net/DTD/sodipodi-0.dtd"
   xmlns:inkscape="http://www.inkscape.org/namespaces/inkscape"
   width="16"
   height="16"
   viewBox="0 0 16 16"
   version="1.1"
   id="svg7"
   sodipodi:docname="earthquake.svg"
   inkscape:version="0.92.4 5da689c313, 2019-01-14">
  <metadata
     id="metadata11">
    <rdf:RDF>
      <cc:Work
         rdf:about="">
        <dc:format>image/svg+xml</dc:format>
        <dc:type
           rdf:resource="http://purl.org/dc/dcmitype/StillImage" />
      </cc:Work>
    </rdf:RDF>
  </metadata>
  <sodipodi:namedview
     pagecolor="#ffffff"
     bordercolor="#666666"
     borderopacity="1"
     objecttolerance="10"
     gridtolerance="10"
     guidetolerance="10"
     inkscape:pageopacity="0"
     inkscape:pageshadow="2"
     inkscape:window-width="640"
     inkscape:window-height="480"
     id="namedview9"
     showgrid="false"
     inkscape:zoom="14.75"
     inkscape:cx="6.8135593"
     inkscape:cy="8"
     inkscape:window-x="0"
     inkscape:window-y="26"
     inkscape:window-maximized="0"
     inkscape:current-layer="svg7" />
  <defs
     id="defs3">
    <style
       id="current-color-scheme"
       type="text/css">
   .ColorScheme-Text { color:#5c616c; } .ColorScheme-Highlight { color:#5294e2; }
  </style>
  </defs>
  <path
     style="fill:#f1f6f8;fill-opacity:0.8509804"
     class="ColorScheme-Text"
     d="M 8.1308594 1 C 8.7354194 2.5973 11.272384 9.2953219 11.271484 9.2949219 L 14.773438 7.5449219 L 14.998047 7.9921875 C 14.998047 4.1710875 11.934859 1.0717 8.1308594 1 z M 7.6445312 1.0097656 C 4.1143312 1.1867356 1.2792906 3.9730219 1.0253906 7.4824219 L 4.1855469 5.2480469 L 6.671875 10.222656 L 7.6445312 1.0097656 z M 8.2832031 4.1777344 L 7.3242188 13.761719 L 3.8105469 6.7363281 L 1.2558594 8.5429688 L 1.0078125 8.1933594 C 1.1153725 11.965359 4.2000469 14.992188 7.9980469 14.992188 C 11.669947 14.992188 14.67565 12.162806 14.96875 8.5664062 L 10.724609 10.6875 L 8.2832031 4.1777344 z"
     id="path5" />
</svg>
