<?xml version="1.0" encoding="UTF-8" standalone="no"?>
<svg
   xmlns:dc="http://purl.org/dc/elements/1.1/"
   xmlns:cc="http://creativecommons.org/ns#"
   xmlns:rdf="http://www.w3.org/1999/02/22-rdf-syntax-ns#"
   xmlns:svg="http://www.w3.org/2000/svg"
   xmlns="http://www.w3.org/2000/svg"
   xmlns:sodipodi="http://sodipodi.sourceforge.net/DTD/sodipodi-0.dtd"
   xmlns:inkscape="http://www.inkscape.org/namespaces/inkscape"
   width="16"
   height="16"
   viewBox="0 0 16 16"
   version="1.1"
   id="svg7"
   sodipodi:docname="edit-clone-unlink.svg"
   inkscape:version="0.92.4 5da689c313, 2019-01-14">
  <metadata
     id="metadata11">
    <rdf:RDF>
      <cc:Work
         rdf:about="">
        <dc:format>image/svg+xml</dc:format>
        <dc:type
           rdf:resource="http://purl.org/dc/dcmitype/StillImage" />
      </cc:Work>
    </rdf:RDF>
  </metadata>
  <sodipodi:namedview
     pagecolor="#ffffff"
     bordercolor="#666666"
     borderopacity="1"
     objecttolerance="10"
     gridtolerance="10"
     guidetolerance="10"
     inkscape:pageopacity="0"
     inkscape:pageshadow="2"
     inkscape:window-width="640"
     inkscape:window-height="480"
     id="namedview9"
     showgrid="false"
     inkscape:zoom="14.75"
     inkscape:cx="6.8135593"
     inkscape:cy="8"
     inkscape:window-x="0"
     inkscape:window-y="26"
     inkscape:window-maximized="0"
     inkscape:current-layer="svg7" />
  <defs
     id="defs3">
    <style
       id="current-color-scheme"
       type="text/css">
   .ColorScheme-Text { color:#5c616c; } .ColorScheme-Highlight { color:#5294e2; }
  </style>
  </defs>
  <path
     style="fill:#f1f6f8;fill-opacity:0.8509804"
     class="ColorScheme-Text"
     d="M 2 2 L 2 10 L 6 10 L 6 14 L 14 14 L 14 6 L 10 6 L 10 2 L 2 2 z M 10 7 C 10.739 7 11.333984 7.6834375 11.333984 8.5234375 L 11.333984 10 L 11.666016 10 C 11.851016 10 12 10.167 12 10.375 L 12 12.625 C 12 12.833 11.851016 13 11.666016 13 L 8.3339844 13 C 8.1492844 13 8 12.833 8 12.625 L 8 10.375 C 8 10.167 8.1492844 10 8.3339844 10 L 10.666016 10 L 10.666016 8.5 C 10.666016 8.0845 10.369 7.75 10 7.75 C 9.6307 7.75 9.3339844 8.0845 9.3339844 8.5 L 9.3339844 8.875 L 8.6660156 8.875 L 8.6660156 8.5 C 8.6772156 7.6706 9.2683 7 10 7 z"
     id="path5" />
</svg>
