<?xml version="1.0" encoding="UTF-8" standalone="no"?>
<svg
   xmlns:dc="http://purl.org/dc/elements/1.1/"
   xmlns:cc="http://creativecommons.org/ns#"
   xmlns:rdf="http://www.w3.org/1999/02/22-rdf-syntax-ns#"
   xmlns:svg="http://www.w3.org/2000/svg"
   xmlns="http://www.w3.org/2000/svg"
   xmlns:sodipodi="http://sodipodi.sourceforge.net/DTD/sodipodi-0.dtd"
   xmlns:inkscape="http://www.inkscape.org/namespaces/inkscape"
   width="16"
   height="16"
   viewBox="0 0 16 16"
   version="1.1"
   id="svg7"
   sodipodi:docname="edit-clear-all.svg"
   inkscape:version="0.92.4 5da689c313, 2019-01-14">
  <metadata
     id="metadata11">
    <rdf:RDF>
      <cc:Work
         rdf:about="">
        <dc:format>image/svg+xml</dc:format>
        <dc:type
           rdf:resource="http://purl.org/dc/dcmitype/StillImage" />
      </cc:Work>
    </rdf:RDF>
  </metadata>
  <sodipodi:namedview
     pagecolor="#ffffff"
     bordercolor="#666666"
     borderopacity="1"
     objecttolerance="10"
     gridtolerance="10"
     guidetolerance="10"
     inkscape:pageopacity="0"
     inkscape:pageshadow="2"
     inkscape:window-width="640"
     inkscape:window-height="480"
     id="namedview9"
     showgrid="false"
     inkscape:zoom="14.75"
     inkscape:cx="6.8135593"
     inkscape:cy="8"
     inkscape:window-x="0"
     inkscape:window-y="26"
     inkscape:window-maximized="0"
     inkscape:current-layer="svg7" />
  <defs
     id="defs3">
    <style
       id="current-color-scheme"
       type="text/css">
   .ColorScheme-Text { color:#5c616c; } .ColorScheme-Highlight { color:#5294e2; }
  </style>
  </defs>
  <path
     style="fill:#f1f6f8;fill-opacity:0.8509804"
     class="ColorScheme-Text"
     d="M 8.0292969 1.0625 C 4.1759969 1.0625 1.0605469 4.17785 1.0605469 8.03125 C 1.0605469 11.88455 4.1758969 15 8.0292969 15 C 11.882597 15 14.998047 11.88465 14.998047 8.03125 C 14.998047 4.17795 11.882697 1.0625 8.0292969 1.0625 z M 5 5.0039062 L 6 5.0039062 C 6.27614 5.0039062 6.53779 5.1041862 6.71875 5.2851562 L 8 6.5625 L 9.28125 5.2851562 C 9.46125 5.1041563 9.7219531 5.0039062 10.001953 5.0039062 L 11.001953 5.0039062 L 11.001953 6.0039062 C 11.001953 6.2800462 10.901663 6.5416862 10.720703 6.7226562 L 9.4394531 8 L 10.720703 9.2851562 C 10.901663 9.4661263 11.003323 9.7277663 11.001953 10.003906 L 11.001953 11.003906 L 10.001953 11.003906 C 9.7258131 11.003906 9.4641631 10.903626 9.2832031 10.722656 L 8.0019531 9.4375 L 6.7207031 10.722656 C 6.5407031 10.902656 6.28 11.001953 6 11.001953 L 5 11.001953 L 5 10.001953 C 5 9.7258131 5.10029 9.4641731 5.28125 9.2832031 L 6.5625 7.9980469 L 5.28125 6.7207031 C 5.10125 6.5407031 5.0019531 6.2779531 5.0019531 6.0019531 L 5 5.0039062 z"
     id="path5" />
</svg>
