<?xml version="1.0" encoding="UTF-8" standalone="no"?>
<svg
   xmlns:dc="http://purl.org/dc/elements/1.1/"
   xmlns:cc="http://creativecommons.org/ns#"
   xmlns:rdf="http://www.w3.org/1999/02/22-rdf-syntax-ns#"
   xmlns:svg="http://www.w3.org/2000/svg"
   xmlns="http://www.w3.org/2000/svg"
   xmlns:sodipodi="http://sodipodi.sourceforge.net/DTD/sodipodi-0.dtd"
   xmlns:inkscape="http://www.inkscape.org/namespaces/inkscape"
   width="16"
   height="16"
   viewBox="0 0 16 16"
   version="1.1"
   id="svg7"
   sodipodi:docname="favorite-genres-amarok.svg"
   inkscape:version="0.92.4 5da689c313, 2019-01-14">
  <metadata
     id="metadata11">
    <rdf:RDF>
      <cc:Work
         rdf:about="">
        <dc:format>image/svg+xml</dc:format>
        <dc:type
           rdf:resource="http://purl.org/dc/dcmitype/StillImage" />
      </cc:Work>
    </rdf:RDF>
  </metadata>
  <sodipodi:namedview
     pagecolor="#ffffff"
     bordercolor="#666666"
     borderopacity="1"
     objecttolerance="10"
     gridtolerance="10"
     guidetolerance="10"
     inkscape:pageopacity="0"
     inkscape:pageshadow="2"
     inkscape:window-width="640"
     inkscape:window-height="480"
     id="namedview9"
     showgrid="false"
     inkscape:zoom="14.75"
     inkscape:cx="6.8135593"
     inkscape:cy="8"
     inkscape:window-x="0"
     inkscape:window-y="26"
     inkscape:window-maximized="0"
     inkscape:current-layer="svg7" />
  <defs
     id="defs3">
    <style
       id="current-color-scheme"
       type="text/css">
   .ColorScheme-Text { color:#5c616c; } .ColorScheme-Highlight { color:#5294e2; }
  </style>
  </defs>
  <path
     style="fill:#f1f6f8;fill-opacity:0.8509804"
     class="ColorScheme-Text"
     d="m8 1c-1.6292 0-3.1274 0.3839-4.2207 1.1621s-1.7807 1.958-1.7793 3.5254c0.007 1.7713 1.0562 4.0562 2.3223 5.9235 0.633 0.934 1.3213 1.763 1.9648 2.368 0.6435 0.604 1.2374 0.989 1.707 1.021h0.0118c0.4696-0.033 1.0635-0.417 1.707-1.021 0.6431-0.605 1.3321-1.434 1.9651-2.368 1.266-1.8673 2.314-4.1522 2.322-5.9235 0.001-1.5674-0.686-2.7472-1.779-3.5254-1.094-0.7782-2.5918-1.1621-4.221-1.1621zm0.0176 2l1.2226 2.6348 2.7598 0.4297-2.0098 2.0429 0.4548 2.8926-2.4665-1.375-2.4785 1.359 0.4902-2.8902-1.9902-2.0547 2.7676-0.4141 1.25-2.625z"
     id="path5" />
</svg>
