<?xml version="1.0" encoding="UTF-8" standalone="no"?>
<svg
   xmlns:dc="http://purl.org/dc/elements/1.1/"
   xmlns:cc="http://creativecommons.org/ns#"
   xmlns:rdf="http://www.w3.org/1999/02/22-rdf-syntax-ns#"
   xmlns:svg="http://www.w3.org/2000/svg"
   xmlns="http://www.w3.org/2000/svg"
   xmlns:sodipodi="http://sodipodi.sourceforge.net/DTD/sodipodi-0.dtd"
   xmlns:inkscape="http://www.inkscape.org/namespaces/inkscape"
   width="16"
   height="16"
   viewBox="0 0 16 16"
   version="1.1"
   id="svg7"
   sodipodi:docname="filename-initial-amarok.svg"
   inkscape:version="0.92.4 5da689c313, 2019-01-14">
  <metadata
     id="metadata11">
    <rdf:RDF>
      <cc:Work
         rdf:about="">
        <dc:format>image/svg+xml</dc:format>
        <dc:type
           rdf:resource="http://purl.org/dc/dcmitype/StillImage" />
      </cc:Work>
    </rdf:RDF>
  </metadata>
  <sodipodi:namedview
     pagecolor="#ffffff"
     bordercolor="#666666"
     borderopacity="1"
     objecttolerance="10"
     gridtolerance="10"
     guidetolerance="10"
     inkscape:pageopacity="0"
     inkscape:pageshadow="2"
     inkscape:window-width="640"
     inkscape:window-height="480"
     id="namedview9"
     showgrid="false"
     inkscape:zoom="14.75"
     inkscape:cx="6.8135593"
     inkscape:cy="8"
     inkscape:window-x="0"
     inkscape:window-y="26"
     inkscape:window-maximized="0"
     inkscape:current-layer="svg7" />
  <defs
     id="defs3">
    <style
       id="current-color-scheme"
       type="text/css">
   .ColorScheme-Text { color:#5c616c; } .ColorScheme-Highlight { color:#5294e2; }
  </style>
  </defs>
  <path
     style="fill:#f1f6f8;fill-opacity:0.8509804"
     class="ColorScheme-Text"
     d="M 3.890625 2 A 1.0001 1.0001 0 0 0 2.9296875 2.7226562 L 0.04296875 12.722656 A 1.0001 1.0001 0 0 0 1.0039062 14 L 2.1699219 14 A 1.0001 1.0001 0 0 0 3.1328125 13.267578 L 3.7636719 11 L 5.2441406 11 L 5.875 13.267578 A 1.0001 1.0001 0 0 0 6.8378906 14 L 8.0039062 14 A 1.0001 1.0001 0 0 0 8.5039062 13.865234 A 1.0001 1.0001 0 0 0 9.0039062 14 L 10.003906 14 A 1.0001 1.0001 0 0 0 10.664062 13.751953 C 11.091273 13.904803 11.540823 13.99937 12.001953 14 A 1.0001 1.0001 0 0 0 12.003906 14 C 14.201206 14 16.003906 12.1973 16.003906 10 C 16.003906 7.8027 14.201206 6 12.003906 6 A 1.0001 1.0001 0 0 0 12.001953 6 C 11.657933 6.00047 11.331716 6.0992969 11.003906 6.1855469 L 11.003906 3 A 1.0001 1.0001 0 0 0 10.003906 2 L 9.0039062 2 A 1.0001 1.0001 0 0 0 8.0039062 3 L 8.0039062 9.0878906 L 6.3261719 2.7441406 A 1.0001 1.0001 0 0 0 5.359375 2 L 3.890625 2 z M 4.5546875 5 L 5.5039062 9 L 3.5039062 9 L 4.5546875 5 z M 12.003906 8 A 2 2 0 0 1 14.003906 10 A 2 2 0 0 1 12.003906 12 A 2 2 0 0 1 10.003906 10 A 2 2 0 0 1 12.003906 8 z"
     id="path5" />
</svg>
