<?xml version="1.0" encoding="UTF-8" standalone="no"?>
<svg
   xmlns:dc="http://purl.org/dc/elements/1.1/"
   xmlns:cc="http://creativecommons.org/ns#"
   xmlns:rdf="http://www.w3.org/1999/02/22-rdf-syntax-ns#"
   xmlns:svg="http://www.w3.org/2000/svg"
   xmlns="http://www.w3.org/2000/svg"
   xmlns:sodipodi="http://sodipodi.sourceforge.net/DTD/sodipodi-0.dtd"
   xmlns:inkscape="http://www.inkscape.org/namespaces/inkscape"
   width="16"
   height="16"
   viewBox="0 0 16 16"
   version="1.1"
   id="svg7"
   sodipodi:docname="find-location.svg"
   inkscape:version="0.92.4 5da689c313, 2019-01-14">
  <metadata
     id="metadata11">
    <rdf:RDF>
      <cc:Work
         rdf:about="">
        <dc:format>image/svg+xml</dc:format>
        <dc:type
           rdf:resource="http://purl.org/dc/dcmitype/StillImage" />
      </cc:Work>
    </rdf:RDF>
  </metadata>
  <sodipodi:namedview
     pagecolor="#ffffff"
     bordercolor="#666666"
     borderopacity="1"
     objecttolerance="10"
     gridtolerance="10"
     guidetolerance="10"
     inkscape:pageopacity="0"
     inkscape:pageshadow="2"
     inkscape:window-width="640"
     inkscape:window-height="480"
     id="namedview9"
     showgrid="false"
     inkscape:zoom="14.75"
     inkscape:cx="6.8135593"
     inkscape:cy="8"
     inkscape:window-x="0"
     inkscape:window-y="26"
     inkscape:window-maximized="0"
     inkscape:current-layer="svg7" />
  <defs
     id="defs3">
    <style
       id="current-color-scheme"
       type="text/css">
   .ColorScheme-Text { color:#5c616c; } .ColorScheme-Highlight { color:#5294e2; }
  </style>
  </defs>
  <path
     style="fill:#f1f6f8;fill-opacity:0.8509804"
     class="ColorScheme-Text"
     d="M 7 1.0976562 L 7 3.0976562 C 5.0471 3.4972863 3.49335 5.0510063 3.09375 7.0039062 L 1 7.0039062 L 1 9.0039062 L 3.09375 9.0039062 C 3.49338 10.956806 5.0471 12.510556 7 12.910156 L 7 15.003906 L 9 15.003906 L 9 12.910156 C 10.9529 12.510526 12.50665 10.956806 12.90625 9.0039062 L 15 9.0039062 L 15 7.0039062 L 12.90625 7.0039062 C 12.50662 5.0510063 10.9529 3.4972562 9 3.0976562 L 9 1.0976562 L 7 1.0976562 z M 8 6.0039062 C 9.1046 6.0039062 10 6.8993362 10 8.0039062 C 10 9.1084763 9.10457 10.003906 8 10.003906 C 6.89543 10.003906 6 9.1084762 6 8.0039062 C 6 6.8993362 6.89543 6.0039062 8 6.0039062 z"
     id="path5" />
</svg>
