<?xml version="1.0" encoding="UTF-8" standalone="no"?>
<svg
   xmlns:dc="http://purl.org/dc/elements/1.1/"
   xmlns:cc="http://creativecommons.org/ns#"
   xmlns:rdf="http://www.w3.org/1999/02/22-rdf-syntax-ns#"
   xmlns:svg="http://www.w3.org/2000/svg"
   xmlns="http://www.w3.org/2000/svg"
   xmlns:sodipodi="http://sodipodi.sourceforge.net/DTD/sodipodi-0.dtd"
   xmlns:inkscape="http://www.inkscape.org/namespaces/inkscape"
   width="16"
   height="16"
   viewBox="0 0 16 16"
   version="1.1"
   id="svg7"
   sodipodi:docname="format-text-direction-ltr.svg"
   inkscape:version="0.92.4 5da689c313, 2019-01-14">
  <metadata
     id="metadata11">
    <rdf:RDF>
      <cc:Work
         rdf:about="">
        <dc:format>image/svg+xml</dc:format>
        <dc:type
           rdf:resource="http://purl.org/dc/dcmitype/StillImage" />
      </cc:Work>
    </rdf:RDF>
  </metadata>
  <sodipodi:namedview
     pagecolor="#ffffff"
     bordercolor="#666666"
     borderopacity="1"
     objecttolerance="10"
     gridtolerance="10"
     guidetolerance="10"
     inkscape:pageopacity="0"
     inkscape:pageshadow="2"
     inkscape:window-width="640"
     inkscape:window-height="480"
     id="namedview9"
     showgrid="false"
     inkscape:zoom="14.75"
     inkscape:cx="6.8135593"
     inkscape:cy="8"
     inkscape:window-x="0"
     inkscape:window-y="26"
     inkscape:window-maximized="0"
     inkscape:current-layer="svg7" />
  <defs
     id="defs3">
    <style
       id="current-color-scheme"
       type="text/css">
   .ColorScheme-Text { color:#5c616c; } .ColorScheme-Highlight { color:#5294e2; }
  </style>
  </defs>
  <path
     style="fill:#f1f6f8;fill-opacity:0.8509804"
     class="ColorScheme-Text"
     d="M 2 0 L 2 2 L 8 2 C 8.42816 2 9 2.61414 9 3 L 9 4 L 4 4 C 3.08073 4 2.2644 4.38396 1.75 4.96875 C 1.2356 5.55354 0.99361 6.2794 1 7 C 1.006 7.72062 1.26893 8.45275 1.78125 9.03125 C 2.29357 9.60979 3.0917 10 4 10 L 11 10 L 11 3 C 11.00009 1.3657 9.6802 0 8 0 L 2 0 z M 4 6 L 9 6 L 9 8 L 4 8 C 3.60213 8 3.43309 7.89021 3.28125 7.71875 C 3.12941 7.54729 3.00248 7.27938 3 7 C 2.998 6.72062 3.10467 6.44646 3.25 6.28125 C 3.39533 6.11604 3.57764 6 4 6 z M 12 8.9980469 C 12 8.9980469 12.00002 10.109147 12 10.998047 L 0.9375 10.998047 L 0.9375 12.998047 L 12 12.998047 C 12 13.886937 11.99995 14.998047 12 14.998047 L 16 11.998047 L 12 8.9980469 z"
     id="path5" />
</svg>
