<?xml version="1.0" encoding="UTF-8" standalone="no"?>
<svg
   xmlns:dc="http://purl.org/dc/elements/1.1/"
   xmlns:cc="http://creativecommons.org/ns#"
   xmlns:rdf="http://www.w3.org/1999/02/22-rdf-syntax-ns#"
   xmlns:svg="http://www.w3.org/2000/svg"
   xmlns="http://www.w3.org/2000/svg"
   xmlns:sodipodi="http://sodipodi.sourceforge.net/DTD/sodipodi-0.dtd"
   xmlns:inkscape="http://www.inkscape.org/namespaces/inkscape"
   width="16"
   height="16"
   viewBox="0 0 16 16"
   version="1.1"
   id="svg7"
   sodipodi:docname="games-config-tiles.svg"
   inkscape:version="0.92.4 5da689c313, 2019-01-14">
  <metadata
     id="metadata11">
    <rdf:RDF>
      <cc:Work
         rdf:about="">
        <dc:format>image/svg+xml</dc:format>
        <dc:type
           rdf:resource="http://purl.org/dc/dcmitype/StillImage" />
      </cc:Work>
    </rdf:RDF>
  </metadata>
  <sodipodi:namedview
     pagecolor="#ffffff"
     bordercolor="#666666"
     borderopacity="1"
     objecttolerance="10"
     gridtolerance="10"
     guidetolerance="10"
     inkscape:pageopacity="0"
     inkscape:pageshadow="2"
     inkscape:window-width="640"
     inkscape:window-height="480"
     id="namedview9"
     showgrid="false"
     inkscape:zoom="14.75"
     inkscape:cx="6.8135593"
     inkscape:cy="8"
     inkscape:window-x="0"
     inkscape:window-y="26"
     inkscape:window-maximized="0"
     inkscape:current-layer="svg7" />
  <defs
     id="defs3">
    <style
       id="current-color-scheme"
       type="text/css">
   .ColorScheme-Text { color:#5c616c; } .ColorScheme-Highlight { color:#5294e2; }
  </style>
  </defs>
  <path
     style="fill:#f1f6f8;fill-opacity:0.8509804"
     class="ColorScheme-Text"
     d="m1 1v14h14v-14h-14zm2 2h10v10h-10v-10zm1.0215 1c-0.0116 0-0.0215 0.0099-0.0215 0.0215v0.957c0 0.0116 0.0099 0.0215 0.0215 0.0215h7.9575c0.011 0 0.021-0.0099 0.021-0.0215v-0.957c0-0.0116-0.01-0.0215-0.021-0.0215h-7.9575zm0 3c-0.0116 0-0.0215 0.0099-0.0215 0.0215v0.957c0 0.0116 0.0099 0.0215 0.0215 0.0215h7.9575c0.011 0 0.021-0.0099 0.021-0.0215v-0.957c0-0.0116-0.01-0.0215-0.021-0.0215h-7.9575zm0 2.8008c-0.0116 0-0.0215 0.008-0.0215 0.0195v0.9587c0 0.012 0.0099 0.022 0.0215 0.022h7.9575c0.011 0 0.021-0.01 0.021-0.022v-0.9587c0-0.0115-0.01-0.0195-0.021-0.0195h-7.9575z"
     id="path5" />
</svg>
