<?xml version="1.0" encoding="UTF-8" standalone="no"?>
<svg
   xmlns:dc="http://purl.org/dc/elements/1.1/"
   xmlns:cc="http://creativecommons.org/ns#"
   xmlns:rdf="http://www.w3.org/1999/02/22-rdf-syntax-ns#"
   xmlns:svg="http://www.w3.org/2000/svg"
   xmlns="http://www.w3.org/2000/svg"
   xmlns:sodipodi="http://sodipodi.sourceforge.net/DTD/sodipodi-0.dtd"
   xmlns:inkscape="http://www.inkscape.org/namespaces/inkscape"
   style="enable-background:new"
   width="16"
   height="16"
   version="1.1"
   id="svg8"
   sodipodi:docname="gnome-shutdown.svg"
   inkscape:version="0.92.4 5da689c313, 2019-01-14">
  <metadata
     id="metadata14">
    <rdf:RDF>
      <cc:Work
         rdf:about="">
        <dc:format>image/svg+xml</dc:format>
        <dc:type
           rdf:resource="http://purl.org/dc/dcmitype/StillImage" />
      </cc:Work>
    </rdf:RDF>
  </metadata>
  <defs
     id="defs12" />
  <sodipodi:namedview
     pagecolor="#ffffff"
     bordercolor="#666666"
     borderopacity="1"
     objecttolerance="10"
     gridtolerance="10"
     guidetolerance="10"
     inkscape:pageopacity="0"
     inkscape:pageshadow="2"
     inkscape:window-width="715"
     inkscape:window-height="480"
     id="namedview10"
     showgrid="false"
     inkscape:zoom="14.75"
     inkscape:cx="6.8135593"
     inkscape:cy="8"
     inkscape:window-x="0"
     inkscape:window-y="26"
     inkscape:window-maximized="0"
     inkscape:current-layer="svg8" />
  <g
     transform="translate(-425.0002,-200.9687)"
     id="g6"
     style="fill:#f1f6f8;fill-opacity:0.6745562">
    <rect
       style="fill-opacity:0.6745562;fill:#f1f6f8"
       width="2"
       height="7.003"
       x="432"
       y="201.97"
       rx="0"
       ry=".003"
       id="rect2" />
    <path
       style="fill-opacity:0.6745562;fill:#f1f6f8"
       d="m 436.01149,203.78219 -1.00391,1.73047 c 1.56527,0.90865 2.32376,2.74145 1.85742,4.49023 -0.46633,1.74879 -2.03583,2.96013 -3.8457,2.96875 -1.80987,0.009 -3.39203,-1.18738 -3.875,-2.93164 -0.48297,-1.74426 0.25791,-3.5843 1.81445,-4.50781 l -1.01953,-1.7207 c -2.32456,1.37919 -3.44198,4.15681 -2.7207,6.76171 0.72128,2.60491 3.10766,4.41131 5.81055,4.39844 2.70289,-0.0129 5.07114,-1.84146 5.76758,-4.45312 0.69643,-2.61166 -0.44756,-5.37934 -2.78516,-6.73633 z"
       id="path4" />
  </g>
</svg>
