<?xml version="1.0" encoding="UTF-8" standalone="no"?>
<svg
   xmlns:dc="http://purl.org/dc/elements/1.1/"
   xmlns:cc="http://creativecommons.org/ns#"
   xmlns:rdf="http://www.w3.org/1999/02/22-rdf-syntax-ns#"
   xmlns:svg="http://www.w3.org/2000/svg"
   xmlns="http://www.w3.org/2000/svg"
   xmlns:sodipodi="http://sodipodi.sourceforge.net/DTD/sodipodi-0.dtd"
   xmlns:inkscape="http://www.inkscape.org/namespaces/inkscape"
   width="16"
   height="16"
   viewBox="0 0 16 16"
   version="1.1"
   id="svg7"
   sodipodi:docname="grid-rectangular.svg"
   inkscape:version="0.92.4 5da689c313, 2019-01-14">
  <metadata
     id="metadata11">
    <rdf:RDF>
      <cc:Work
         rdf:about="">
        <dc:format>image/svg+xml</dc:format>
        <dc:type
           rdf:resource="http://purl.org/dc/dcmitype/StillImage" />
      </cc:Work>
    </rdf:RDF>
  </metadata>
  <sodipodi:namedview
     pagecolor="#ffffff"
     bordercolor="#666666"
     borderopacity="1"
     objecttolerance="10"
     gridtolerance="10"
     guidetolerance="10"
     inkscape:pageopacity="0"
     inkscape:pageshadow="2"
     inkscape:window-width="640"
     inkscape:window-height="480"
     id="namedview9"
     showgrid="false"
     inkscape:zoom="14.75"
     inkscape:cx="6.8135593"
     inkscape:cy="8"
     inkscape:window-x="0"
     inkscape:window-y="26"
     inkscape:window-maximized="0"
     inkscape:current-layer="svg7" />
  <defs
     id="defs3">
    <style
       id="current-color-scheme"
       type="text/css">
   .ColorScheme-Text { color:#5c616c; } .ColorScheme-Highlight { color:#5294e2; }
  </style>
  </defs>
  <path
     style="fill:#f1f6f8;fill-opacity:0.8509804"
     class="ColorScheme-Text"
     d="M 2 1.0039062 L 2 2.0039062 L 1 2.0039062 L 1 4.0039062 L 2 4.0039062 L 2 7.0039062 L 1 7.0039062 L 1 9.0039062 L 2 9.0039062 L 2 12.003906 L 1 12.003906 L 1 14.003906 L 2 14.003906 L 2 15.003906 L 4 15.003906 L 4 14.003906 L 7 14.003906 L 7 15.003906 L 9 15.003906 L 9 14.003906 L 12 14.003906 L 12 15.003906 L 14 15.003906 L 14 14.003906 L 15 14.003906 L 15 12.003906 L 14 12.003906 L 14 9.0039062 L 15 9.0039062 L 15 7.0039062 L 14 7.0039062 L 14 4.0039062 L 15 4.0039062 L 15 2.0039062 L 14 2.0039062 L 14 1.0039062 L 12 1.0039062 L 12 2.0039062 L 9 2.0039062 L 9 1.0039062 L 7 1.0039062 L 7 2.0039062 L 4 2.0039062 L 4 1.0039062 L 2 1.0039062 z M 4 4.0039062 L 7 4.0039062 L 7 7.0039062 L 4 7.0039062 L 4 4.0039062 z M 9 4.0039062 L 12 4.0039062 L 12 7.0039062 L 9 7.0039062 L 9 4.0039062 z M 4 9.0039062 L 7 9.0039062 L 7 12.003906 L 4 12.003906 L 4 9.0039062 z M 9 9.0039062 L 12 9.0039062 L 12 12.003906 L 9 12.003906 L 9 9.0039062 z"
     id="path5" />
</svg>
