<?xml version="1.0" encoding="UTF-8" standalone="no"?>
<svg
   xmlns:dc="http://purl.org/dc/elements/1.1/"
   xmlns:cc="http://creativecommons.org/ns#"
   xmlns:rdf="http://www.w3.org/1999/02/22-rdf-syntax-ns#"
   xmlns:svg="http://www.w3.org/2000/svg"
   xmlns="http://www.w3.org/2000/svg"
   xmlns:sodipodi="http://sodipodi.sourceforge.net/DTD/sodipodi-0.dtd"
   xmlns:inkscape="http://www.inkscape.org/namespaces/inkscape"
   width="16"
   height="16"
   viewBox="0 0 16 16"
   version="1.1"
   id="svg7"
   sodipodi:docname="im-facebook.svg"
   inkscape:version="0.92.4 5da689c313, 2019-01-14">
  <metadata
     id="metadata11">
    <rdf:RDF>
      <cc:Work
         rdf:about="">
        <dc:format>image/svg+xml</dc:format>
        <dc:type
           rdf:resource="http://purl.org/dc/dcmitype/StillImage" />
      </cc:Work>
    </rdf:RDF>
  </metadata>
  <sodipodi:namedview
     pagecolor="#ffffff"
     bordercolor="#666666"
     borderopacity="1"
     objecttolerance="10"
     gridtolerance="10"
     guidetolerance="10"
     inkscape:pageopacity="0"
     inkscape:pageshadow="2"
     inkscape:window-width="640"
     inkscape:window-height="480"
     id="namedview9"
     showgrid="false"
     inkscape:zoom="14.75"
     inkscape:cx="6.8135593"
     inkscape:cy="8"
     inkscape:window-x="0"
     inkscape:window-y="26"
     inkscape:window-maximized="0"
     inkscape:current-layer="svg7" />
  <defs
     id="defs3">
    <style
       id="current-color-scheme"
       type="text/css">
   .ColorScheme-Text { color:#5c616c; } .ColorScheme-Highlight { color:#5294e2; }
  </style>
  </defs>
  <path
     style="fill:#f1f6f8;fill-opacity:0.8509804"
     class="ColorScheme-Text"
     d="M 9 2 C 8.0832 2.001 7.1898313 2.29295 6.6445312 2.96875 C 6.0993312 3.64445 5.9454531 4.4723406 5.8769531 5.4316406 C 5.8431531 5.9043406 5.8332906 6.4261 5.8378906 7 L 5 7 C 4.446 7 4 7.446 4 8 C 4 8.554 4.446 9 5 9 L 5.8886719 9 C 5.9363719 10.398 6 12.043 6 14 A 1.0001 1.0001 0 1 0 8 14 C 8 12.038 7.9437375 10.381 7.8984375 9 L 9 9 C 9.554 9 10 8.554 10 8 C 10 7.446 9.554 7 9 7 L 7.8457031 7 C 7.8389031 6.4472 7.8446469 5.9720188 7.8730469 5.5742188 C 7.9295469 4.7836187 8.0900719 4.3622094 8.2011719 4.2246094 C 8.3121719 4.0870094 8.4185531 4.0007 9.0019531 4 A 1.0001 1.0001 0 1 0 9 2 z"
     id="path5" />
</svg>
