<?xml version="1.0" encoding="UTF-8" standalone="no"?>
<svg
   xmlns:dc="http://purl.org/dc/elements/1.1/"
   xmlns:cc="http://creativecommons.org/ns#"
   xmlns:rdf="http://www.w3.org/1999/02/22-rdf-syntax-ns#"
   xmlns:svg="http://www.w3.org/2000/svg"
   xmlns="http://www.w3.org/2000/svg"
   xmlns:sodipodi="http://sodipodi.sourceforge.net/DTD/sodipodi-0.dtd"
   xmlns:inkscape="http://www.inkscape.org/namespaces/inkscape"
   width="16"
   height="16"
   viewBox="0 0 16 16"
   version="1.1"
   id="svg7"
   sodipodi:docname="im-gadugadu.svg"
   inkscape:version="0.92.4 5da689c313, 2019-01-14">
  <metadata
     id="metadata11">
    <rdf:RDF>
      <cc:Work
         rdf:about="">
        <dc:format>image/svg+xml</dc:format>
        <dc:type
           rdf:resource="http://purl.org/dc/dcmitype/StillImage" />
      </cc:Work>
    </rdf:RDF>
  </metadata>
  <sodipodi:namedview
     pagecolor="#ffffff"
     bordercolor="#666666"
     borderopacity="1"
     objecttolerance="10"
     gridtolerance="10"
     guidetolerance="10"
     inkscape:pageopacity="0"
     inkscape:pageshadow="2"
     inkscape:window-width="640"
     inkscape:window-height="480"
     id="namedview9"
     showgrid="false"
     inkscape:zoom="14.75"
     inkscape:cx="6.8135593"
     inkscape:cy="8"
     inkscape:window-x="0"
     inkscape:window-y="26"
     inkscape:window-maximized="0"
     inkscape:current-layer="svg7" />
  <defs
     id="defs3">
    <style
       id="current-color-scheme"
       type="text/css">
   .ColorScheme-Text { color:#5c616c; } .ColorScheme-Highlight { color:#5294e2; }
  </style>
  </defs>
  <path
     style="fill:#f1f6f8;fill-opacity:0.8509804"
     class="ColorScheme-Text"
     d="m8 0l-1.1152 3.1348c-0.5527 0.1265-1.067 0.3456-1.5332 0.6386l-3.0078-1.4296 1.4296 3.0078c-0.293 0.4662-0.5121 0.9805-0.6386 1.5332l-3.1348 1.1152 3.1348 1.1152c0.1265 0.5527 0.3456 1.0668 0.6386 1.5328l-1.4296 3.008 3.0097-1.431c0.4659 0.292 0.9791 0.514 1.5313 0.64l1.1152 3.135 1.1152-3.135c0.5522-0.126 1.0658-0.348 1.5308-0.64l3.01 1.431-1.431-3.01c0.292-0.465 0.514-0.9786 0.64-1.5308l3.135-1.1152-3.135-1.1152c-0.126-0.5522-0.348-1.0654-0.64-1.5313l1.431-3.0097-3.008 1.4296c-0.466-0.293-0.9801-0.5121-1.5328-0.6386l-1.1152-3.1348zm-2 6a1 1 0 0 1 1 1 1 1 0 0 1 -1 1 1 1 0 0 1 -1 -1 1 1 0 0 1 1 -1zm4 0a1 1 0 0 1 1 1 1 1 0 0 1 -1 1 1 1 0 0 1 -1 -1 1 1 0 0 1 1 -1zm0.498 3.4961a0.50005 0.50005 0 0 1 0.314 0.8949s-1.2948 1.105-2.81 1.109c-1.5104 0.004-2.8086-1.074-2.8086-1.074a0.50005 0.50005 0 1 1 0.6132 -0.7893s1.2034 0.8663 2.1934 0.8633c0.9852-0.002 2.189-0.8906 2.189-0.8906a0.50005 0.50005 0 0 1 0.309 -0.1133z"
     id="path5" />
</svg>
