<?xml version="1.0" encoding="UTF-8" standalone="no"?>
<svg
   xmlns:dc="http://purl.org/dc/elements/1.1/"
   xmlns:cc="http://creativecommons.org/ns#"
   xmlns:rdf="http://www.w3.org/1999/02/22-rdf-syntax-ns#"
   xmlns:svg="http://www.w3.org/2000/svg"
   xmlns="http://www.w3.org/2000/svg"
   xmlns:sodipodi="http://sodipodi.sourceforge.net/DTD/sodipodi-0.dtd"
   xmlns:inkscape="http://www.inkscape.org/namespaces/inkscape"
   width="16"
   height="16"
   viewBox="0 0 16 16"
   version="1.1"
   id="svg7"
   sodipodi:docname="im-identi.ca.svg"
   inkscape:version="0.92.4 5da689c313, 2019-01-14">
  <metadata
     id="metadata11">
    <rdf:RDF>
      <cc:Work
         rdf:about="">
        <dc:format>image/svg+xml</dc:format>
        <dc:type
           rdf:resource="http://purl.org/dc/dcmitype/StillImage" />
      </cc:Work>
    </rdf:RDF>
  </metadata>
  <sodipodi:namedview
     pagecolor="#ffffff"
     bordercolor="#666666"
     borderopacity="1"
     objecttolerance="10"
     gridtolerance="10"
     guidetolerance="10"
     inkscape:pageopacity="0"
     inkscape:pageshadow="2"
     inkscape:window-width="640"
     inkscape:window-height="480"
     id="namedview9"
     showgrid="false"
     inkscape:zoom="14.75"
     inkscape:cx="6.8135593"
     inkscape:cy="8"
     inkscape:window-x="0"
     inkscape:window-y="26"
     inkscape:window-maximized="0"
     inkscape:current-layer="svg7" />
  <defs
     id="defs3">
    <style
       id="current-color-scheme"
       type="text/css">
   .ColorScheme-Text { color:#5c616c; } .ColorScheme-Highlight { color:#5294e2; }
  </style>
  </defs>
  <path
     style="fill:#f1f6f8;fill-opacity:0.8509804"
     class="ColorScheme-Text"
     d="M 7 0.0390625 C 3.676 0.0390625 1 2.7150625 1 6.0390625 L 1 10.039062 L 0 14.039062 L 4 12.039062 L 7 12.039062 C 7.8186 12.039062 8.5970406 11.874078 9.3066406 11.580078 C 9.1777406 11.270078 9.1021875 10.935797 9.0546875 10.591797 C 8.4269875 10.873797 7.7354 11.039062 7 11.039062 L 2 11.039062 L 2 6.0390625 C 2 3.2690625 4.23 1.0390625 7 1.0390625 C 9.77 1.0390625 12 3.2690625 12 6.0390625 C 12 6.0870625 11.993188 6.1320875 11.992188 6.1796875 C 12.316187 6.0956875 12.65 6.0390625 13 6.0390625 C 13 2.7150625 10.324 0.0390625 7 0.0390625 z M 13 7.0390625 C 11.338 7.0390625 10 8.3770625 10 10.039062 C 10 11.017062 10.471406 11.874875 11.191406 12.421875 L 13 16.039062 L 14.808594 12.421875 C 15.528594 11.874875 16 11.017062 16 10.039062 C 16 8.3770625 14.662 7.0390625 13 7.0390625 z"
     id="path5" />
</svg>
