<?xml version="1.0" encoding="UTF-8" standalone="no"?>
<svg
   xmlns:dc="http://purl.org/dc/elements/1.1/"
   xmlns:cc="http://creativecommons.org/ns#"
   xmlns:rdf="http://www.w3.org/1999/02/22-rdf-syntax-ns#"
   xmlns:svg="http://www.w3.org/2000/svg"
   xmlns="http://www.w3.org/2000/svg"
   xmlns:sodipodi="http://sodipodi.sourceforge.net/DTD/sodipodi-0.dtd"
   xmlns:inkscape="http://www.inkscape.org/namespaces/inkscape"
   width="16"
   height="16"
   viewBox="0 0 16 16"
   version="1.1"
   id="svg9"
   sodipodi:docname="image-filter.svg"
   inkscape:version="0.92.4 5da689c313, 2019-01-14">
  <metadata
     id="metadata13">
    <rdf:RDF>
      <cc:Work
         rdf:about="">
        <dc:format>image/svg+xml</dc:format>
        <dc:type
           rdf:resource="http://purl.org/dc/dcmitype/StillImage" />
      </cc:Work>
    </rdf:RDF>
  </metadata>
  <sodipodi:namedview
     pagecolor="#ffffff"
     bordercolor="#666666"
     borderopacity="1"
     objecttolerance="10"
     gridtolerance="10"
     guidetolerance="10"
     inkscape:pageopacity="0"
     inkscape:pageshadow="2"
     inkscape:window-width="715"
     inkscape:window-height="480"
     id="namedview11"
     showgrid="false"
     inkscape:zoom="14.75"
     inkscape:cx="16.711864"
     inkscape:cy="8"
     inkscape:window-x="0"
     inkscape:window-y="26"
     inkscape:window-maximized="0"
     inkscape:current-layer="svg9" />
  <defs
     id="defs3">
    <style
       id="current-color-scheme"
       type="text/css">
   .ColorScheme-Text { color:#5c616c; } .ColorScheme-Highlight { color:#5294e2; }
  </style>
  </defs>
  <path
     style="fill:#f1f6f8;fill-opacity:0.8509804"
     class="ColorScheme-Text"
     d="M 1 1 L 1 15 L 1.390625 15 A 0.50009 0.50009 0 0 0 1.6191406 15 L 15 15 L 15 13 L 3 13 L 3 11.388672 C 3.12 11.156142 3.2395581 10.923138 3.3925781 10.705078 C 4.2091181 9.5414781 5.5389719 8.5588281 8.0761719 8.0488281 C 10.750072 7.5112681 12.289194 6.5649406 13.121094 5.3691406 C 13.953024 4.1733406 14.031912 2.8102656 14.013672 1.5722656 A 0.50005 0.50005 0 0 0 13.5 1.0742188 A 0.50005 0.50005 0 0 0 13.013672 1.5878906 C 13.031072 2.7696906 12.943668 3.8720281 12.298828 4.7988281 C 11.654018 5.7256581 10.405606 6.5604594 7.8789062 7.0683594 C 5.5249063 7.5415994 3.9946 8.4605437 3 9.5898438 L 3 1 L 1 1 z"
     id="path5" />
  <path
     style="fill:#f1f6f8;opacity:0.3;fill-opacity:0.35502958"
     class="ColorScheme-Text"
     d="M 14 2.4003906 C 13.9566 3.3996306 13.771204 4.4346406 13.121094 5.3691406 C 12.289174 6.5649406 10.750072 7.5112281 8.0761719 8.0488281 C 5.5389719 8.5588881 4.2091781 9.5414781 3.3925781 10.705078 C 3.2395581 10.923138 3.12 11.156142 3 11.388672 L 3 13 L 14 13 L 14 2.4003906 z"
     id="path7" />
</svg>
