<?xml version="1.0" encoding="UTF-8" standalone="no"?>
<svg
   xmlns:dc="http://purl.org/dc/elements/1.1/"
   xmlns:cc="http://creativecommons.org/ns#"
   xmlns:rdf="http://www.w3.org/1999/02/22-rdf-syntax-ns#"
   xmlns:svg="http://www.w3.org/2000/svg"
   xmlns="http://www.w3.org/2000/svg"
   xmlns:sodipodi="http://sodipodi.sourceforge.net/DTD/sodipodi-0.dtd"
   xmlns:inkscape="http://www.inkscape.org/namespaces/inkscape"
   width="16"
   height="16"
   viewBox="0 0 16 16"
   version="1.1"
   id="svg7"
   sodipodi:docname="insert-math-expression.svg"
   inkscape:version="0.92.4 5da689c313, 2019-01-14">
  <metadata
     id="metadata11">
    <rdf:RDF>
      <cc:Work
         rdf:about="">
        <dc:format>image/svg+xml</dc:format>
        <dc:type
           rdf:resource="http://purl.org/dc/dcmitype/StillImage" />
      </cc:Work>
    </rdf:RDF>
  </metadata>
  <sodipodi:namedview
     pagecolor="#ffffff"
     bordercolor="#666666"
     borderopacity="1"
     objecttolerance="10"
     gridtolerance="10"
     guidetolerance="10"
     inkscape:pageopacity="0"
     inkscape:pageshadow="2"
     inkscape:window-width="640"
     inkscape:window-height="480"
     id="namedview9"
     showgrid="false"
     inkscape:zoom="14.75"
     inkscape:cx="6.8135593"
     inkscape:cy="8"
     inkscape:window-x="0"
     inkscape:window-y="26"
     inkscape:window-maximized="0"
     inkscape:current-layer="svg7" />
  <defs
     id="defs3">
    <style
       id="current-color-scheme"
       type="text/css">
   .ColorScheme-Text { color:#5c616c; } .ColorScheme-Highlight { color:#5294e2; }
  </style>
  </defs>
  <path
     style="fill:#f1f6f8;fill-opacity:0.8509804"
     class="ColorScheme-Text"
     d="M 8 1.9804688 C 7.08323 1.9814687 6.1898312 2.2734787 5.6445312 2.9492188 C 5.0992612 3.6249588 4.9454831 4.4527094 4.8769531 5.4121094 C 4.8431531 5.8847494 4.8332906 6.4065288 4.8378906 6.9804688 L 4 6.9804688 C 3.446 6.9804688 3 7.4264688 3 7.9804688 C 3 8.5344687 3.446 8.9804688 4 8.9804688 L 4.8886719 8.9804688 C 4.9363719 10.378569 4.99995 12.023069 5 13.980469 A 1.0001 1.0001 0 1 0 7 13.980469 C 6.99995 12.018769 6.9437075 10.360969 6.8984375 8.9804688 L 8 8.9804688 C 8.554 8.9804688 9 8.5344687 9 7.9804688 C 9 7.4264688 8.554 6.9804688 8 6.9804688 L 6.8457031 6.9804688 C 6.8387031 6.4276688 6.8447469 5.9524875 6.8730469 5.5546875 C 6.9295469 4.7640775 7.0901419 4.3426781 7.2011719 4.2050781 C 7.3122019 4.0674781 7.4186231 3.9811287 8.0019531 3.9804688 A 1.0001 1.0001 0 1 0 8 1.9804688 z M 8.7070312 10.738281 L 8 11.445312 L 9.4140625 12.859375 L 8 14.273438 L 8.7070312 14.980469 L 10.121094 13.566406 L 11.535156 14.980469 L 12.242188 14.273438 L 10.828125 12.859375 L 12.242188 11.445312 L 11.535156 10.738281 L 10.121094 12.152344 L 8.7070312 10.738281 z"
     id="path5" />
</svg>
