<?xml version="1.0" encoding="UTF-8" standalone="no"?>
<svg
   xmlns:dc="http://purl.org/dc/elements/1.1/"
   xmlns:cc="http://creativecommons.org/ns#"
   xmlns:rdf="http://www.w3.org/1999/02/22-rdf-syntax-ns#"
   xmlns:svg="http://www.w3.org/2000/svg"
   xmlns="http://www.w3.org/2000/svg"
   xmlns:sodipodi="http://sodipodi.sourceforge.net/DTD/sodipodi-0.dtd"
   xmlns:inkscape="http://www.inkscape.org/namespaces/inkscape"
   width="16"
   height="16"
   viewBox="0 0 16 16"
   version="1.1"
   id="svg9"
   sodipodi:docname="im-irc.svg"
   inkscape:version="0.92.4 5da689c313, 2019-01-14">
  <metadata
     id="metadata13">
    <rdf:RDF>
      <cc:Work
         rdf:about="">
        <dc:format>image/svg+xml</dc:format>
        <dc:type
           rdf:resource="http://purl.org/dc/dcmitype/StillImage" />
      </cc:Work>
    </rdf:RDF>
  </metadata>
  <sodipodi:namedview
     pagecolor="#ffffff"
     bordercolor="#666666"
     borderopacity="1"
     objecttolerance="10"
     gridtolerance="10"
     guidetolerance="10"
     inkscape:pageopacity="0"
     inkscape:pageshadow="2"
     inkscape:window-width="715"
     inkscape:window-height="480"
     id="namedview11"
     showgrid="false"
     inkscape:zoom="14.75"
     inkscape:cx="-0.54237288"
     inkscape:cy="8"
     inkscape:window-x="0"
     inkscape:window-y="26"
     inkscape:window-maximized="0"
     inkscape:current-layer="svg9" />
  <defs
     id="defs3">
    <style
       id="current-color-scheme"
       type="text/css">
   .ColorScheme-Text { color:#5c616c; } .ColorScheme-Highlight { color:#5294e2; }
  </style>
  </defs>
  <path
     style="fill:#f1f6f8;fill-opacity:0.8509804"
     class="ColorScheme-Text"
     d="M 5.4042969 6 C 5.4042969 6 3.9980469 6.0003906 3.9980469 7.4003906 L 3.9980469 11.599609 C 3.9980469 12.375219 4.6363044 13 5.4277344 13 L 8.9980469 13 L 10.498047 15 L 11.998047 13 L 12.570312 13 C 12.570312 13 13.998047 12.999609 13.998047 11.599609 L 13.998047 7.4003906 C 13.998047 6.0003906 12.570312 6 12.570312 6 L 5.4042969 6 z"
     id="path5" />
  <path
     style="fill:#f1f6f8;opacity:0.3;fill-opacity:0.59763312"
     class="ColorScheme-Text"
     d="M 3.40625 2 C 3.40625 2 2 2.0003906 2 3.4003906 L 2 7.5996094 C 2 8.2278094 2.4207 8.7512875 3 8.9296875 L 3 6.4003906 C 3 5.0003906 4.40625 5 4.40625 5 L 11.572266 5 C 11.572266 5 11.768 5.0235375 12 5.0859375 L 12 3.4003906 C 12 2.0003906 10.572266 2 10.572266 2 L 3.40625 2 z"
     id="path7" />
</svg>
