<?xml version="1.0" encoding="UTF-8" standalone="no"?>
<svg
   xmlns:dc="http://purl.org/dc/elements/1.1/"
   xmlns:cc="http://creativecommons.org/ns#"
   xmlns:rdf="http://www.w3.org/1999/02/22-rdf-syntax-ns#"
   xmlns:svg="http://www.w3.org/2000/svg"
   xmlns="http://www.w3.org/2000/svg"
   xmlns:sodipodi="http://sodipodi.sourceforge.net/DTD/sodipodi-0.dtd"
   xmlns:inkscape="http://www.inkscape.org/namespaces/inkscape"
   width="16"
   height="16"
   viewBox="0 0 16 16"
   version="1.1"
   id="svg7"
   sodipodi:docname="kr_syncbrowse_off.svg"
   inkscape:version="0.92.4 5da689c313, 2019-01-14">
  <metadata
     id="metadata11">
    <rdf:RDF>
      <cc:Work
         rdf:about="">
        <dc:format>image/svg+xml</dc:format>
        <dc:type
           rdf:resource="http://purl.org/dc/dcmitype/StillImage" />
      </cc:Work>
    </rdf:RDF>
  </metadata>
  <sodipodi:namedview
     pagecolor="#ffffff"
     bordercolor="#666666"
     borderopacity="1"
     objecttolerance="10"
     gridtolerance="10"
     guidetolerance="10"
     inkscape:pageopacity="0"
     inkscape:pageshadow="2"
     inkscape:window-width="715"
     inkscape:window-height="480"
     id="namedview9"
     showgrid="false"
     inkscape:zoom="14.75"
     inkscape:cx="16.711864"
     inkscape:cy="8"
     inkscape:window-x="0"
     inkscape:window-y="26"
     inkscape:window-maximized="0"
     inkscape:current-layer="svg7" />
  <defs
     id="defs3">
    <style
       id="current-color-scheme"
       type="text/css">
   .ColorScheme-Text { color:#5c616c; } .ColorScheme-Highlight { color:#5294e2; }
  </style>
  </defs>
  <path
     style="fill:#f1f6f8;opacity:0.3;fill-opacity:0.47337279"
     class="ColorScheme-Text"
     d="m2 1.0039s-1 0-1 1v11s0 1 1 1h12s1 0 1-1v-9.0001c0-1-1-1-1-1h-5l-2-2h-5zm9.5 5.9961l1.666 1.2852-1.666 1.2871v-0.8575c-0.92 0-1.666 0.7662-1.666 1.7132s0.746 1.715 1.666 1.715 1.666-0.768 1.666-1.715a0.41663 0.42857 0 0 1 0.418 -0.428 0.41663 0.42857 0 0 1 0.416 0.428 0.41663 0.42857 0 0 1 -0.002 0.043c-0.022 1.4-1.131 2.529-2.498 2.529-1.381 0-2.5-1.152-2.5-2.572 0-1.4204 1.119-2.5706 2.5-2.5706v-0.8574z"
     id="path5" />
</svg>
