<?xml version="1.0" encoding="UTF-8" standalone="no"?>
<svg
   xmlns:dc="http://purl.org/dc/elements/1.1/"
   xmlns:cc="http://creativecommons.org/ns#"
   xmlns:rdf="http://www.w3.org/1999/02/22-rdf-syntax-ns#"
   xmlns:svg="http://www.w3.org/2000/svg"
   xmlns="http://www.w3.org/2000/svg"
   xmlns:sodipodi="http://sodipodi.sourceforge.net/DTD/sodipodi-0.dtd"
   xmlns:inkscape="http://www.inkscape.org/namespaces/inkscape"
   width="16"
   height="16"
   viewBox="0 0 16 16"
   version="1.1"
   id="svg7"
   sodipodi:docname="kstars_deepsky.svg"
   inkscape:version="0.92.4 5da689c313, 2019-01-14">
  <metadata
     id="metadata11">
    <rdf:RDF>
      <cc:Work
         rdf:about="">
        <dc:format>image/svg+xml</dc:format>
        <dc:type
           rdf:resource="http://purl.org/dc/dcmitype/StillImage" />
      </cc:Work>
    </rdf:RDF>
  </metadata>
  <sodipodi:namedview
     pagecolor="#ffffff"
     bordercolor="#666666"
     borderopacity="1"
     objecttolerance="10"
     gridtolerance="10"
     guidetolerance="10"
     inkscape:pageopacity="0"
     inkscape:pageshadow="2"
     inkscape:window-width="640"
     inkscape:window-height="480"
     id="namedview9"
     showgrid="false"
     inkscape:zoom="14.75"
     inkscape:cx="6.8135593"
     inkscape:cy="8"
     inkscape:window-x="0"
     inkscape:window-y="26"
     inkscape:window-maximized="0"
     inkscape:current-layer="svg7" />
  <defs
     id="defs3">
    <style
       id="current-color-scheme"
       type="text/css">
   .ColorScheme-Text { color:#5c616c; } .ColorScheme-Highlight { color:#5294e2; }
  </style>
  </defs>
  <path
     style="fill:#f1f6f8;fill-opacity:0.8509804"
     class="ColorScheme-Text"
     d="M 6.5 0 A 0.5 0.5 0 0 0 6 0.5 A 0.5 0.5 0 0 0 6.5 1 A 0.5 0.5 0 0 0 7 0.5 A 0.5 0.5 0 0 0 6.5 0 z M 9.5 0 A 0.5 0.5 0 0 0 9 0.5 A 0.5 0.5 0 0 0 9.5 1 A 0.5 0.5 0 0 0 10 0.5 A 0.5 0.5 0 0 0 9.5 0 z M 4.5 1 A 0.5 0.5 0 0 0 4 1.5 A 0.5 0.5 0 0 0 4.5 2 A 0.5 0.5 0 0 0 5 1.5 A 0.5 0.5 0 0 0 4.5 1 z M 11.5 1 A 0.5 0.5 0 0 0 11 1.5 A 0.5 0.5 0 0 0 11.5 2 A 0.5 0.5 0 0 0 12 1.5 A 0.5 0.5 0 0 0 11.5 1 z M 2.5 2 A 0.5 0.5 0 0 0 2 2.5 A 0.5 0.5 0 0 0 2.5 3 A 0.5 0.5 0 0 0 3 2.5 A 0.5 0.5 0 0 0 2.5 2 z M 13.5 2 A 0.5 0.5 0 0 0 13 2.5 A 0.5 0.5 0 0 0 13.5 3 A 0.5 0.5 0 0 0 14 2.5 A 0.5 0.5 0 0 0 13.5 2 z M 1.5 4 A 0.5 0.5 0 0 0 1 4.5 A 0.5 0.5 0 0 0 1.5 5 A 0.5 0.5 0 0 0 2 4.5 A 0.5 0.5 0 0 0 1.5 4 z M 14.5 4 A 0.5 0.5 0 0 0 14 4.5 A 0.5 0.5 0 0 0 14.5 5 A 0.5 0.5 0 0 0 15 4.5 A 0.5 0.5 0 0 0 14.5 4 z M 0.5 6 A 0.5 0.5 0 0 0 0 6.5 A 0.5 0.5 0 0 0 0.5 7 A 0.5 0.5 0 0 0 1 6.5 A 0.5 0.5 0 0 0 0.5 6 z M 15.5 6 A 0.5 0.5 0 0 0 15 6.5 A 0.5 0.5 0 0 0 15.5 7 A 0.5 0.5 0 0 0 16 6.5 A 0.5 0.5 0 0 0 15.5 6 z M 0.5 9 A 0.5 0.5 0 0 0 0 9.5 A 0.5 0.5 0 0 0 0.5 10 A 0.5 0.5 0 0 0 1 9.5 A 0.5 0.5 0 0 0 0.5 9 z M 15.5 9 A 0.5 0.5 0 0 0 15 9.5 A 0.5 0.5 0 0 0 15.5 10 A 0.5 0.5 0 0 0 16 9.5 A 0.5 0.5 0 0 0 15.5 9 z M 1.5 11 A 0.5 0.5 0 0 0 1 11.5 A 0.5 0.5 0 0 0 1.5 12 A 0.5 0.5 0 0 0 2 11.5 A 0.5 0.5 0 0 0 1.5 11 z M 14.5 11 A 0.5 0.5 0 0 0 14 11.5 A 0.5 0.5 0 0 0 14.5 12 A 0.5 0.5 0 0 0 15 11.5 A 0.5 0.5 0 0 0 14.5 11 z M 2.5 13 A 0.5 0.5 0 0 0 2 13.5 A 0.5 0.5 0 0 0 2.5 14 A 0.5 0.5 0 0 0 3 13.5 A 0.5 0.5 0 0 0 2.5 13 z M 13.5 13 A 0.5 0.5 0 0 0 13 13.5 A 0.5 0.5 0 0 0 13.5 14 A 0.5 0.5 0 0 0 14 13.5 A 0.5 0.5 0 0 0 13.5 13 z M 4.5 14 A 0.5 0.5 0 0 0 4 14.5 A 0.5 0.5 0 0 0 4.5 15 A 0.5 0.5 0 0 0 5 14.5 A 0.5 0.5 0 0 0 4.5 14 z M 11.5 14 A 0.5 0.5 0 0 0 11 14.5 A 0.5 0.5 0 0 0 11.5 15 A 0.5 0.5 0 0 0 12 14.5 A 0.5 0.5 0 0 0 11.5 14 z M 6.5 15 A 0.5 0.5 0 0 0 6 15.5 A 0.5 0.5 0 0 0 6.5 16 A 0.5 0.5 0 0 0 7 15.5 A 0.5 0.5 0 0 0 6.5 15 z M 9.5 15 A 0.5 0.5 0 0 0 9 15.5 A 0.5 0.5 0 0 0 9.5 16 A 0.5 0.5 0 0 0 10 15.5 A 0.5 0.5 0 0 0 9.5 15 z"
     id="path5" />
</svg>
