<?xml version="1.0" encoding="UTF-8" standalone="no"?>
<svg
   xmlns:dc="http://purl.org/dc/elements/1.1/"
   xmlns:cc="http://creativecommons.org/ns#"
   xmlns:rdf="http://www.w3.org/1999/02/22-rdf-syntax-ns#"
   xmlns:svg="http://www.w3.org/2000/svg"
   xmlns="http://www.w3.org/2000/svg"
   xmlns:sodipodi="http://sodipodi.sourceforge.net/DTD/sodipodi-0.dtd"
   xmlns:inkscape="http://www.inkscape.org/namespaces/inkscape"
   width="16"
   height="16"
   viewBox="0 0 16 16"
   version="1.1"
   id="svg7"
   sodipodi:docname="kstars_satellites.svg"
   inkscape:version="0.92.4 5da689c313, 2019-01-14">
  <metadata
     id="metadata11">
    <rdf:RDF>
      <cc:Work
         rdf:about="">
        <dc:format>image/svg+xml</dc:format>
        <dc:type
           rdf:resource="http://purl.org/dc/dcmitype/StillImage" />
      </cc:Work>
    </rdf:RDF>
  </metadata>
  <sodipodi:namedview
     pagecolor="#ffffff"
     bordercolor="#666666"
     borderopacity="1"
     objecttolerance="10"
     gridtolerance="10"
     guidetolerance="10"
     inkscape:pageopacity="0"
     inkscape:pageshadow="2"
     inkscape:window-width="640"
     inkscape:window-height="480"
     id="namedview9"
     showgrid="false"
     inkscape:zoom="14.75"
     inkscape:cx="6.8135593"
     inkscape:cy="8"
     inkscape:window-x="0"
     inkscape:window-y="26"
     inkscape:window-maximized="0"
     inkscape:current-layer="svg7" />
  <defs
     id="defs3">
    <style
       id="current-color-scheme"
       type="text/css">
   .ColorScheme-Text { color:#5c616c; } .ColorScheme-Highlight { color:#5294e2; }
  </style>
  </defs>
  <path
     style="fill:#f1f6f8;fill-opacity:0.8509804"
     class="ColorScheme-Text"
     d="M 11 -0.13867188 L 11 0 L 5.7363281 7.1777344 A 4.5 4.5 0 0 1 6.1855469 7.3339844 C 5.6642369 7.1228844 5.097 7 4.5 7 C 3.307 7 2.1633125 7.4761125 1.3203125 8.3203125 A 4.5 4.5 0 0 0 0.69335938 9.1074219 L 2.7871094 11.201172 L 1.390625 13.105469 A 3.5 3.5 0 0 0 2.8964844 14.607422 L 4.7988281 13.212891 L 6.8945312 15.308594 A 4.5 4.5 0 0 0 7.6796875 14.679688 C 8.5238775 13.836687 8.9988 12.693 9 11.5 C 9.000001 10.9188 8.8803075 10.367422 8.6796875 9.8574219 A 4.5 4.5 0 0 1 8.8242188 10.261719 L 16 4.8613281 L 11 -0.13867188 z M 2.9140625 0.0859375 L 0.0859375 2.9160156 L 3.7578125 6.5859375 L 6.5859375 3.7578125 L 2.9140625 0.0859375 z M 12.242188 9.4140625 L 9.4140625 12.244141 L 13.085938 15.916016 L 15.914062 13.085938 L 12.242188 9.4140625 z M 0.74804688 13.914062 L 0 15.013672 L 1 16.013672 L 2.0195312 15.265625 A 4.5 4.5 0 0 1 0.74804688 13.994141 L 0.74804688 13.914062 z"
     id="path5" />
</svg>
