<?xml version="1.0" encoding="UTF-8" standalone="no"?>
<svg
   xmlns:dc="http://purl.org/dc/elements/1.1/"
   xmlns:cc="http://creativecommons.org/ns#"
   xmlns:rdf="http://www.w3.org/1999/02/22-rdf-syntax-ns#"
   xmlns:svg="http://www.w3.org/2000/svg"
   xmlns="http://www.w3.org/2000/svg"
   xmlns:sodipodi="http://sodipodi.sourceforge.net/DTD/sodipodi-0.dtd"
   xmlns:inkscape="http://www.inkscape.org/namespaces/inkscape"
   width="16"
   height="16"
   viewBox="0 0 16 16"
   version="1.1"
   id="svg7"
   sodipodi:docname="kstars_mw.svg"
   inkscape:version="0.92.4 5da689c313, 2019-01-14">
  <metadata
     id="metadata11">
    <rdf:RDF>
      <cc:Work
         rdf:about="">
        <dc:format>image/svg+xml</dc:format>
        <dc:type
           rdf:resource="http://purl.org/dc/dcmitype/StillImage" />
      </cc:Work>
    </rdf:RDF>
  </metadata>
  <sodipodi:namedview
     pagecolor="#ffffff"
     bordercolor="#666666"
     borderopacity="1"
     objecttolerance="10"
     gridtolerance="10"
     guidetolerance="10"
     inkscape:pageopacity="0"
     inkscape:pageshadow="2"
     inkscape:window-width="640"
     inkscape:window-height="480"
     id="namedview9"
     showgrid="false"
     inkscape:zoom="14.75"
     inkscape:cx="6.8135593"
     inkscape:cy="8"
     inkscape:window-x="0"
     inkscape:window-y="26"
     inkscape:window-maximized="0"
     inkscape:current-layer="svg7" />
  <defs
     id="defs3">
    <style
       id="current-color-scheme"
       type="text/css">
   .ColorScheme-Text { color:#5c616c; } .ColorScheme-Highlight { color:#5294e2; }
  </style>
  </defs>
  <path
     style="fill:#f1f6f8;fill-opacity:0.8509804"
     class="ColorScheme-Text"
     d="M 10.931641 -0.05078125 C 9.8364406 -0.02378125 8.833625 -0.092528125 7.703125 0.20117188 L 7.703125 0.19921875 C 5.801625 0.99571875 4.6923594 2.759875 4.1933594 4.671875 C 4.1534984 4.830475 3.9335937 5.4610281 3.9335938 6.2363281 L 3.9335938 9.1035156 C 3.8754468 10.660416 2.7694406 11.612703 1.6191406 12.470703 C 1.0834106 12.849303 0.5249 13.178859 0 13.568359 L 0.00390625 15.949219 C 2.9728063 15.939219 4.2843437 15.928594 6.2773438 15.933594 C 7.8816438 13.471194 8.9471031 11.741741 8.9707031 9.1816406 L 8.9707031 6.2382812 C 9.0404831 5.6139813 9.27419 4.9565375 9.78125 4.8984375 C 10.66854 4.8504375 11.3975 5.1032031 11.875 5.4082031 C 12.14069 5.5797031 12.726154 5.9550781 13.646484 5.9550781 L 16 5.9550781 L 16 0.94335938 L 14.859375 0.94335938 C 14.054065 1.0083594 13.422747 0.46617187 12.685547 0.20117188 C 12.317997 0.11017188 11.688231 -0.05078125 10.931641 -0.05078125 z"
     id="path5" />
</svg>
