<?xml version="1.0" encoding="UTF-8" standalone="no"?>
<svg
   xmlns:dc="http://purl.org/dc/elements/1.1/"
   xmlns:cc="http://creativecommons.org/ns#"
   xmlns:rdf="http://www.w3.org/1999/02/22-rdf-syntax-ns#"
   xmlns:svg="http://www.w3.org/2000/svg"
   xmlns="http://www.w3.org/2000/svg"
   xmlns:sodipodi="http://sodipodi.sourceforge.net/DTD/sodipodi-0.dtd"
   xmlns:inkscape="http://www.inkscape.org/namespaces/inkscape"
   width="16"
   height="16"
   viewBox="0 0 16 16"
   version="1.1"
   id="svg7"
   sodipodi:docname="labplot-xy-plot-two-axes-centered-origin.svg"
   inkscape:version="0.92.4 5da689c313, 2019-01-14">
  <metadata
     id="metadata11">
    <rdf:RDF>
      <cc:Work
         rdf:about="">
        <dc:format>image/svg+xml</dc:format>
        <dc:type
           rdf:resource="http://purl.org/dc/dcmitype/StillImage" />
      </cc:Work>
    </rdf:RDF>
  </metadata>
  <sodipodi:namedview
     pagecolor="#ffffff"
     bordercolor="#666666"
     borderopacity="1"
     objecttolerance="10"
     gridtolerance="10"
     guidetolerance="10"
     inkscape:pageopacity="0"
     inkscape:pageshadow="2"
     inkscape:window-width="640"
     inkscape:window-height="480"
     id="namedview9"
     showgrid="false"
     inkscape:zoom="14.75"
     inkscape:cx="6.8135593"
     inkscape:cy="8"
     inkscape:window-x="0"
     inkscape:window-y="26"
     inkscape:window-maximized="0"
     inkscape:current-layer="svg7" />
  <defs
     id="defs3">
    <style
       id="current-color-scheme"
       type="text/css">
   .ColorScheme-Text { color:#5c616c; } .ColorScheme-Highlight { color:#5294e2; }
  </style>
  </defs>
  <path
     style="fill:#f1f6f8;fill-opacity:0.8509804"
     class="ColorScheme-Text"
     d="M 13.720703 0 L 11.994141 2.9902344 L 11.994141 5 L 8.9941406 5 L 7.9941406 6 L 7.9941406 1 L 6.9941406 1 L 6.9941406 6.9941406 L 6.9882812 7 L 6.9941406 7 L 5.9921875 8 L -0.005859375 8 L -0.005859375 9 L 4.9902344 9 L 3.9941406 9.9980469 L 2.9941406 10.996094 L 2.9941406 15 L -0.005859375 15 L -0.005859375 16 L 3.9941406 16 L 3.9941406 11.410156 L 4.4042969 11 L 4.40625 11 L 6.40625 9 L 6.9941406 9 L 6.9941406 16 L 7.9941406 16 L 7.9941406 9 L 14.994141 9 L 14.994141 8 L 7.9941406 8 L 7.9941406 7.4121094 L 9.40625 6 L 12.994141 6 L 12.994141 3.2578125 L 14.296875 1 L 15.994141 1 L 15.994141 0 L 13.720703 0 z"
     id="path5" />
</svg>
