<?xml version="1.0" encoding="UTF-8" standalone="no"?>
<svg
   xmlns:dc="http://purl.org/dc/elements/1.1/"
   xmlns:cc="http://creativecommons.org/ns#"
   xmlns:rdf="http://www.w3.org/1999/02/22-rdf-syntax-ns#"
   xmlns:svg="http://www.w3.org/2000/svg"
   xmlns="http://www.w3.org/2000/svg"
   xmlns:sodipodi="http://sodipodi.sourceforge.net/DTD/sodipodi-0.dtd"
   xmlns:inkscape="http://www.inkscape.org/namespaces/inkscape"
   width="16"
   height="16"
   viewBox="0 0 16 16"
   version="1.1"
   id="svg7"
   sodipodi:docname="labplot-xy-plot-two-axes.svg"
   inkscape:version="0.92.4 5da689c313, 2019-01-14">
  <metadata
     id="metadata11">
    <rdf:RDF>
      <cc:Work
         rdf:about="">
        <dc:format>image/svg+xml</dc:format>
        <dc:type
           rdf:resource="http://purl.org/dc/dcmitype/StillImage" />
      </cc:Work>
    </rdf:RDF>
  </metadata>
  <sodipodi:namedview
     pagecolor="#ffffff"
     bordercolor="#666666"
     borderopacity="1"
     objecttolerance="10"
     gridtolerance="10"
     guidetolerance="10"
     inkscape:pageopacity="0"
     inkscape:pageshadow="2"
     inkscape:window-width="640"
     inkscape:window-height="480"
     id="namedview9"
     showgrid="false"
     inkscape:zoom="14.75"
     inkscape:cx="6.8135593"
     inkscape:cy="8"
     inkscape:window-x="0"
     inkscape:window-y="26"
     inkscape:window-maximized="0"
     inkscape:current-layer="svg7" />
  <defs
     id="defs3">
    <style
       id="current-color-scheme"
       type="text/css">
   .ColorScheme-Text { color:#5c616c; } .ColorScheme-Highlight { color:#5294e2; }
  </style>
  </defs>
  <path
     style="fill:#f1f6f8;fill-opacity:0.8509804"
     class="ColorScheme-Text"
     d="M 1 0 L 1 14 L 0 14 L 0 15 L 1 15 L 1 16 L 2 16 L 2 15 L 16 15 L 16 14 L 15.15625 14 L 14.96875 13.8125 L 14.125 13 L 12.84375 11.6875 L 12.125 11 L 10 13.09375 L 8.6875 11.8125 L 7.875 11 L 5.875 9 L 2 9 L 2 7 L 5.875 7 L 7.875 5 L 8.6875 4.15625 L 10 2.875 L 12.125 5 L 14.125 3 L 14.96875 2.15625 L 16 1.125 L 16 0.90625 L 15.78125 0.90625 L 15.28125 0.4375 L 14.25 1.46875 L 13.4375 2.28125 L 12.125 3.59375 L 10 1.46875 L 8.46875 3 L 8 3.46875 L 7.15625 4.28125 L 5.46875 6 L 2 6 L 2 0 L 1 0 z M 2 10 L 5.46875 10 L 7.15625 11.6875 L 8 12.53125 L 8.46875 13 L 9.46875 14 L 2 14 L 2 10 z M 12.125 12.40625 L 13.4375 13.6875 L 13.732422 14 L 10.53125 14 L 12.125 12.40625 z"
     id="path5" />
</svg>
