<?xml version="1.0" encoding="UTF-8" standalone="no"?>
<svg
   xmlns:dc="http://purl.org/dc/elements/1.1/"
   xmlns:cc="http://creativecommons.org/ns#"
   xmlns:rdf="http://www.w3.org/1999/02/22-rdf-syntax-ns#"
   xmlns:svg="http://www.w3.org/2000/svg"
   xmlns="http://www.w3.org/2000/svg"
   xmlns:sodipodi="http://sodipodi.sourceforge.net/DTD/sodipodi-0.dtd"
   xmlns:inkscape="http://www.inkscape.org/namespaces/inkscape"
   width="16"
   height="16"
   viewBox="0 0 16 16"
   version="1.1"
   id="svg7"
   sodipodi:docname="lensdistortion.svg"
   inkscape:version="0.92.4 5da689c313, 2019-01-14">
  <metadata
     id="metadata11">
    <rdf:RDF>
      <cc:Work
         rdf:about="">
        <dc:format>image/svg+xml</dc:format>
        <dc:type
           rdf:resource="http://purl.org/dc/dcmitype/StillImage" />
      </cc:Work>
    </rdf:RDF>
  </metadata>
  <sodipodi:namedview
     pagecolor="#ffffff"
     bordercolor="#666666"
     borderopacity="1"
     objecttolerance="10"
     gridtolerance="10"
     guidetolerance="10"
     inkscape:pageopacity="0"
     inkscape:pageshadow="2"
     inkscape:window-width="640"
     inkscape:window-height="480"
     id="namedview9"
     showgrid="false"
     inkscape:zoom="14.75"
     inkscape:cx="6.8135593"
     inkscape:cy="8"
     inkscape:window-x="0"
     inkscape:window-y="26"
     inkscape:window-maximized="0"
     inkscape:current-layer="svg7" />
  <defs
     id="defs3">
    <style
       id="current-color-scheme"
       type="text/css">
   .ColorScheme-Text { color:#5c616c; } .ColorScheme-Highlight { color:#5294e2; }
  </style>
  </defs>
  <path
     style="fill:#f1f6f8;fill-opacity:0.8509804"
     class="ColorScheme-Text"
     d="M 0 0 L 0 3.8886719 L 0 5.0097656 L 0 8 L 0 10.990234 L 0 12 L 0 12.111328 L 0 16 L 16 16 L 16 12.107422 L 16 12 L 16 10.990234 L 16 8 L 16 5.0097656 L 16 3.8925781 L 16 0 L 0 0 z M 1 1 L 15 1 L 15 3.3867188 A 11 6 0 0 0 8 2 A 11 6 0 0 0 1 3.3808594 L 1 1 z M 8 3 A 10 5 0 0 1 15 4.4414062 L 15 6.5488281 A 8 3 0 0 0 8 5 A 8 3 0 0 0 1 6.5546875 L 1 4.4453125 A 10 5 0 0 1 8 3 z M 8 6 A 7 2 0 0 1 15 8 A 7 2 0 0 1 8 10 A 7 2 0 0 1 1 8 A 7 2 0 0 1 8 6 z M 15 9.4453125 L 15 11.558594 A 10 5 0 0 1 8 13 A 10 5 0 0 1 1 11.554688 L 1 9.4511719 A 8 3 0 0 0 8 11 A 8 3 0 0 0 15 9.4453125 z M 15 12.613281 L 15 15 L 1 15 L 1 12.619141 A 11 6 0 0 0 8 14 A 11 6 0 0 0 15 12.613281 z"
     id="path5" />
</svg>
