<?xml version="1.0" encoding="UTF-8" standalone="no"?>
<svg
   xmlns:dc="http://purl.org/dc/elements/1.1/"
   xmlns:cc="http://creativecommons.org/ns#"
   xmlns:rdf="http://www.w3.org/1999/02/22-rdf-syntax-ns#"
   xmlns:svg="http://www.w3.org/2000/svg"
   xmlns="http://www.w3.org/2000/svg"
   xmlns:sodipodi="http://sodipodi.sourceforge.net/DTD/sodipodi-0.dtd"
   xmlns:inkscape="http://www.inkscape.org/namespaces/inkscape"
   width="16"
   height="16"
   viewBox="0 0 16 16"
   version="1.1"
   id="svg7"
   sodipodi:docname="license.svg"
   inkscape:version="0.92.4 5da689c313, 2019-01-14">
  <metadata
     id="metadata11">
    <rdf:RDF>
      <cc:Work
         rdf:about="">
        <dc:format>image/svg+xml</dc:format>
        <dc:type
           rdf:resource="http://purl.org/dc/dcmitype/StillImage" />
      </cc:Work>
    </rdf:RDF>
  </metadata>
  <sodipodi:namedview
     pagecolor="#ffffff"
     bordercolor="#666666"
     borderopacity="1"
     objecttolerance="10"
     gridtolerance="10"
     guidetolerance="10"
     inkscape:pageopacity="0"
     inkscape:pageshadow="2"
     inkscape:window-width="715"
     inkscape:window-height="480"
     id="namedview9"
     showgrid="false"
     inkscape:zoom="14.75"
     inkscape:cx="-0.54237288"
     inkscape:cy="8"
     inkscape:window-x="0"
     inkscape:window-y="26"
     inkscape:window-maximized="0"
     inkscape:current-layer="svg7" />
  <defs
     id="defs3">
    <style
       id="current-color-scheme"
       type="text/css">
   .ColorScheme-Text { color:#5c616c; } .ColorScheme-Highlight { color:#5294e2; }
  </style>
  </defs>
  <path
     style="fill:#f1f6f8;fill-opacity:0.8509804"
     class="ColorScheme-Text"
     d="M 8 1.0039062 C 4.1340967 1.0039062 1 4.1380029 1 8.0039062 C 1 11.86981 4.1340967 15.003906 8 15.003906 C 11.865903 15.003906 15 11.86981 15 8.0039062 C 15 4.1380029 11.865903 1.0039062 8 1.0039062 z M 8 3.0039062 C 10.760931 3.0039062 13 5.2425753 13 8.0039062 C 13 10.764837 10.760931 13.003906 8 13.003906 C 5.238669 13.003906 3 10.764837 3 8.0039062 C 3 5.2425753 5.238669 3.0039062 8 3.0039062 z M 8 5.0039062 A 2.999925 2.999925 0 0 0 5 8.0039062 A 2.999925 2.999925 0 0 0 8 11.003906 A 2.999925 2.999925 0 0 0 10.396484 9.8027344 L 9.5976562 9.203125 A 1.99995 1.99995 0 0 1 8 10.003906 A 1.99995 1.99995 0 0 1 6 8.0039062 A 1.99995 1.99995 0 0 1 8 6.0039062 A 1.99995 1.99995 0 0 1 9.5996094 6.8046875 L 10.396484 6.2050781 A 2.999925 2.999925 0 0 0 8 5.0039062 z"
     id="path5" />
</svg>
