<?xml version="1.0" encoding="UTF-8" standalone="no"?>
<svg
   xmlns:dc="http://purl.org/dc/elements/1.1/"
   xmlns:cc="http://creativecommons.org/ns#"
   xmlns:rdf="http://www.w3.org/1999/02/22-rdf-syntax-ns#"
   xmlns:svg="http://www.w3.org/2000/svg"
   xmlns="http://www.w3.org/2000/svg"
   xmlns:sodipodi="http://sodipodi.sourceforge.net/DTD/sodipodi-0.dtd"
   xmlns:inkscape="http://www.inkscape.org/namespaces/inkscape"
   width="16"
   height="16"
   version="1.1"
   viewBox="0 0 16 16"
   id="svg9"
   sodipodi:docname="mail-unread-multiple.svg"
   inkscape:version="0.92.4 5da689c313, 2019-01-14">
  <metadata
     id="metadata13">
    <rdf:RDF>
      <cc:Work
         rdf:about="">
        <dc:format>image/svg+xml</dc:format>
        <dc:type
           rdf:resource="http://purl.org/dc/dcmitype/StillImage" />
      </cc:Work>
    </rdf:RDF>
  </metadata>
  <sodipodi:namedview
     pagecolor="#ffffff"
     bordercolor="#666666"
     borderopacity="1"
     objecttolerance="10"
     gridtolerance="10"
     guidetolerance="10"
     inkscape:pageopacity="0"
     inkscape:pageshadow="2"
     inkscape:window-width="640"
     inkscape:window-height="480"
     id="namedview11"
     showgrid="false"
     inkscape:zoom="14.75"
     inkscape:cx="6.8135593"
     inkscape:cy="8"
     inkscape:window-x="0"
     inkscape:window-y="26"
     inkscape:window-maximized="0"
     inkscape:current-layer="svg9" />
  <defs
     id="defs3">
    <style
       id="current-color-scheme"
       type="text/css">
   .ColorScheme-Text { color:#5c616c; } .ColorScheme-Highlight { color:#5294e2; }
  </style>
  </defs>
  <path
     style="fill:#f1f6f8;fill-opacity:0.8509804"
     class="ColorScheme-Text"
     d="M 2 2 C 0.892 2 0 2.892 0 4 L 0 12 C 0 13.108 0.892 14 2 14 L 8 14 L 8 9 L 2 6 L 2 4 L 8 7 L 14 4 L 14 6 L 12 7 L 15 7 C 15.363969 7 15.703481 7.1077387 16 7.2832031 L 16 4 C 16 2.892 15.108 2 14 2 L 2 2 z M 10 8 C 9.4459998 8 9 8.4460005 9 9 L 9 14 C 9 14.554 9.4459998 15 10 15 L 15 15 C 15.554 15 16 14.554 16 14 L 16 9 C 16 8.4460005 15.554 8 15 8 L 10 8 z M 10 9 L 11 9 L 11 10 L 12 10 L 12 11 L 13 11 L 13 10 L 14 10 L 14 9 L 15 9 L 15 14 L 14 14 L 14 11 L 13 11 L 13 12 L 12 12 L 12 11 L 11 11 L 11 14 L 10 14 L 10 9 z"
     id="path5" />
  <path
     style="fill:none"
     d="m 10,8.0000005 c -0.5540002,0 -1.0000002,0.446 -1.0000002,0.9999995 l 0,5 c 0,0.554 0.446,1 1.0000002,1 l 5,0 c 0.554,0 1,-0.446 1,-1 L 16,9 C 16,8.4460005 15.554,8.0000005 15,8.0000005 l -5,0 z M 10,9 l 1,0 0,1 1,0 0,1 1,0 0,-1 1,0 0,-1 1,0 0,5 -1,0 0,-3 -1,0 0,1 -1,0 0,-1 -1,0 0,3 -1,0 0,-5 z"
     id="path7" />
</svg>
