<?xml version="1.0" encoding="UTF-8" standalone="no"?>
<svg
   xmlns:dc="http://purl.org/dc/elements/1.1/"
   xmlns:cc="http://creativecommons.org/ns#"
   xmlns:rdf="http://www.w3.org/1999/02/22-rdf-syntax-ns#"
   xmlns:svg="http://www.w3.org/2000/svg"
   xmlns="http://www.w3.org/2000/svg"
   xmlns:sodipodi="http://sodipodi.sourceforge.net/DTD/sodipodi-0.dtd"
   xmlns:inkscape="http://www.inkscape.org/namespaces/inkscape"
   style="enable-background:new"
   width="16"
   height="16"
   version="1.1"
   id="svg6"
   sodipodi:docname="mail-reply-all-rtl.svg"
   inkscape:version="0.92.4 5da689c313, 2019-01-14">
  <metadata
     id="metadata12">
    <rdf:RDF>
      <cc:Work
         rdf:about="">
        <dc:format>image/svg+xml</dc:format>
        <dc:type
           rdf:resource="http://purl.org/dc/dcmitype/StillImage" />
      </cc:Work>
    </rdf:RDF>
  </metadata>
  <defs
     id="defs10" />
  <sodipodi:namedview
     pagecolor="#ffffff"
     bordercolor="#666666"
     borderopacity="1"
     objecttolerance="10"
     gridtolerance="10"
     guidetolerance="10"
     inkscape:pageopacity="0"
     inkscape:pageshadow="2"
     inkscape:window-width="640"
     inkscape:window-height="480"
     id="namedview8"
     showgrid="false"
     inkscape:zoom="14.75"
     inkscape:cx="6.8135593"
     inkscape:cy="8"
     inkscape:window-x="0"
     inkscape:window-y="26"
     inkscape:window-maximized="0"
     inkscape:current-layer="svg6" />
  <g
     transform="translate(-465.0002,59.003357)"
     id="g4"
     style="fill:#f1f6f8;fill-opacity:0.8509804">
    <path
       style="fill-opacity:0.8509804;fill:#f1f6f8"
       d="m 474.0002,-57.5 0,2.5 -2.5,0 c -1.30589,0 -2.42118,0.40451 -3.26562,1.11719 0.79034,0.24719 1.41717,0.87535 1.65429,1.66797 l 0.12891,0.43164 c 0.55945,0.13676 1.06281,0.42914 1.42383,0.83593 C 471.62377,-50.97947 471.81005,-51 472.0002,-51 l 2,0 0,2.5 6.46875,-4.5 -6.46875,-4.5 z m -6.5,4.5 c -0.82843,0 -1.5,0.67157 -1.5,1.5 0,0.67896 0.45342,1.24676 1.07227,1.43164 0.21796,-0.91448 0.9432,-1.6407 1.85742,-1.85937 C 468.74483,-52.54629 468.17896,-53 467.5002,-53 Z m 2,2 c -0.82843,0 -1.5,0.67157 -1.5,1.5 0,0.82842 0.67157,1.5 1.5,1.5 0.82843,0 1.5,-0.67158 1.5,-1.5 0,-0.82843 -0.67157,-1.5 -1.5,-1.5 z m -2.43555,2.0332 C 465.028,-48.79397 465.0002,-47.5 465.0002,-47.5 l 0,0.5 1.6543,0 c 0.28017,-0.28658 0.67161,-0.52673 1.1582,-0.70508 -0.36241,-0.3396 -0.63182,-0.77065 -0.74805,-1.26172 z M 469.5002,-47 c -2.5,0 -2.5,1.5 -2.5,1.5 l 0,0.5 5,0 0,-0.5 c 0,0 0,-1.5 -2.5,-1.5 z"
       id="path2" />
  </g>
</svg>
