<?xml version="1.0" encoding="UTF-8" standalone="no"?>
<svg
   xmlns:dc="http://purl.org/dc/elements/1.1/"
   xmlns:cc="http://creativecommons.org/ns#"
   xmlns:rdf="http://www.w3.org/1999/02/22-rdf-syntax-ns#"
   xmlns:svg="http://www.w3.org/2000/svg"
   xmlns="http://www.w3.org/2000/svg"
   xmlns:sodipodi="http://sodipodi.sourceforge.net/DTD/sodipodi-0.dtd"
   xmlns:inkscape="http://www.inkscape.org/namespaces/inkscape"
   width="16"
   height="16"
   viewBox="0 0 16 16"
   version="1.1"
   id="svg7"
   sodipodi:docname="map-mercator.svg"
   inkscape:version="0.92.4 5da689c313, 2019-01-14">
  <metadata
     id="metadata11">
    <rdf:RDF>
      <cc:Work
         rdf:about="">
        <dc:format>image/svg+xml</dc:format>
        <dc:type
           rdf:resource="http://purl.org/dc/dcmitype/StillImage" />
      </cc:Work>
    </rdf:RDF>
  </metadata>
  <sodipodi:namedview
     pagecolor="#ffffff"
     bordercolor="#666666"
     borderopacity="1"
     objecttolerance="10"
     gridtolerance="10"
     guidetolerance="10"
     inkscape:pageopacity="0"
     inkscape:pageshadow="2"
     inkscape:window-width="640"
     inkscape:window-height="480"
     id="namedview9"
     showgrid="false"
     inkscape:zoom="14.75"
     inkscape:cx="6.8135593"
     inkscape:cy="8"
     inkscape:window-x="0"
     inkscape:window-y="26"
     inkscape:window-maximized="0"
     inkscape:current-layer="svg7" />
  <defs
     id="defs3">
    <style
       id="current-color-scheme"
       type="text/css">
   .ColorScheme-Text { color:#5c616c; } .ColorScheme-Highlight { color:#5294e2; }
  </style>
  </defs>
  <path
     style="fill:#f1f6f8;fill-opacity:0.8509804"
     class="ColorScheme-Text"
     d="M 0 1 L 0 16 L 16 16 L 16 1 L 0 1 z M 1 2 L 5 2 L 5 5 L 1 5 L 1 2 z M 6 2 L 10 2 L 10 5 L 6 5 L 6 2 z M 11 2 L 15 2 L 15 5 L 11 5 L 11 2 z M 1 6 L 5 6 L 5 8 L 1 8 L 1 6 z M 6 6 L 10 6 L 10 8 L 6 8 L 6 6 z M 11 6 L 15 6 L 15 8 L 11 8 L 11 6 z M 1 9 L 5 9 L 5 11 L 1 11 L 1 9 z M 6 9 L 10 9 L 10 11 L 6 11 L 6 9 z M 11 9 L 15 9 L 15 11 L 11 11 L 11 9 z M 1 12 L 5 12 L 5 15 L 1 15 L 1 12 z M 6 12 L 10 12 L 10 15 L 6 15 L 6 12 z M 11 12 L 15 12 L 15 15 L 11 15 L 11 12 z"
     id="path5" />
</svg>
