<?xml version="1.0" encoding="UTF-8" standalone="no"?>
<svg
   xmlns:dc="http://purl.org/dc/elements/1.1/"
   xmlns:cc="http://creativecommons.org/ns#"
   xmlns:rdf="http://www.w3.org/1999/02/22-rdf-syntax-ns#"
   xmlns:svg="http://www.w3.org/2000/svg"
   xmlns="http://www.w3.org/2000/svg"
   xmlns:sodipodi="http://sodipodi.sourceforge.net/DTD/sodipodi-0.dtd"
   xmlns:inkscape="http://www.inkscape.org/namespaces/inkscape"
   width="16"
   height="16"
   viewBox="0 0 16 16"
   version="1.1"
   id="svg7"
   sodipodi:docname="map-globe.svg"
   inkscape:version="0.92.4 5da689c313, 2019-01-14">
  <metadata
     id="metadata11">
    <rdf:RDF>
      <cc:Work
         rdf:about="">
        <dc:format>image/svg+xml</dc:format>
        <dc:type
           rdf:resource="http://purl.org/dc/dcmitype/StillImage" />
      </cc:Work>
    </rdf:RDF>
  </metadata>
  <sodipodi:namedview
     pagecolor="#ffffff"
     bordercolor="#666666"
     borderopacity="1"
     objecttolerance="10"
     gridtolerance="10"
     guidetolerance="10"
     inkscape:pageopacity="0"
     inkscape:pageshadow="2"
     inkscape:window-width="640"
     inkscape:window-height="480"
     id="namedview9"
     showgrid="false"
     inkscape:zoom="14.75"
     inkscape:cx="6.8135593"
     inkscape:cy="8"
     inkscape:window-x="0"
     inkscape:window-y="26"
     inkscape:window-maximized="0"
     inkscape:current-layer="svg7" />
  <defs
     id="defs3">
    <style
       id="current-color-scheme"
       type="text/css">
   .ColorScheme-Text { color:#5c616c; } .ColorScheme-Highlight { color:#5294e2; }
  </style>
  </defs>
  <path
     style="fill:#f1f6f8;fill-opacity:0.8509804"
     class="ColorScheme-Text"
     d="M 8.109375 0 A 8 8 0 0 0 2.3359375 2.34375 A 8 8 0 0 0 2.3359375 13.65625 A 8 8 0 0 0 13.648438 13.65625 A 8 8 0 0 0 13.648438 2.34375 A 8 8 0 0 0 8.109375 0 z M 7.890625 1 A 7 7 0 0 1 12.570312 2.7148438 L 11.166016 4.1191406 A 8 5 45 0 0 5.7421875 1.3769531 A 7 7 0 0 1 7.890625 1 z M 4.8632812 2.3066406 A 7 4 45 0 1 10.457031 4.828125 L 7.9921875 7.2929688 L 3.4414062 2.7421875 A 7 4 45 0 1 4.8632812 2.3066406 z M 13.283203 3.4160156 A 7 7 0 0 1 14.619141 10.226562 A 8 5 45 0 0 11.869141 4.8300781 L 13.283203 3.4160156 z M 2.7324219 3.4472656 L 7.2851562 8 L 4.8183594 10.466797 A 7 4 45 0 1 2.7324219 3.4472656 z M 11.166016 5.5332031 A 7 4 45 0 1 13.251953 12.552734 L 8.6992188 8 L 11.166016 5.5332031 z M 1.3652344 5.7734375 A 8 5 45 0 0 4.1152344 11.169922 L 2.7011719 12.583984 A 7 7 0 0 1 1.3652344 5.7734375 z M 7.9921875 8.7070312 L 12.542969 13.257812 A 7 4 45 0 1 5.5273438 11.171875 L 7.9921875 8.7070312 z M 4.8183594 11.880859 A 8 5 45 0 0 10.242188 14.623047 A 7 7 0 0 1 3.4140625 13.285156 L 4.8183594 11.880859 z"
     id="path5" />
</svg>
