<?xml version="1.0" encoding="UTF-8" standalone="no"?>
<svg
   xmlns:dc="http://purl.org/dc/elements/1.1/"
   xmlns:cc="http://creativecommons.org/ns#"
   xmlns:rdf="http://www.w3.org/1999/02/22-rdf-syntax-ns#"
   xmlns:svg="http://www.w3.org/2000/svg"
   xmlns="http://www.w3.org/2000/svg"
   xmlns:sodipodi="http://sodipodi.sourceforge.net/DTD/sodipodi-0.dtd"
   xmlns:inkscape="http://www.inkscape.org/namespaces/inkscape"
   width="16"
   height="16"
   viewBox="0 0 16 16"
   version="1.1"
   id="svg7"
   sodipodi:docname="media-playlist-repeat-amarok.svg"
   inkscape:version="0.92.4 5da689c313, 2019-01-14">
  <metadata
     id="metadata11">
    <rdf:RDF>
      <cc:Work
         rdf:about="">
        <dc:format>image/svg+xml</dc:format>
        <dc:type
           rdf:resource="http://purl.org/dc/dcmitype/StillImage" />
      </cc:Work>
    </rdf:RDF>
  </metadata>
  <sodipodi:namedview
     pagecolor="#ffffff"
     bordercolor="#666666"
     borderopacity="1"
     objecttolerance="10"
     gridtolerance="10"
     guidetolerance="10"
     inkscape:pageopacity="0"
     inkscape:pageshadow="2"
     inkscape:window-width="640"
     inkscape:window-height="480"
     id="namedview9"
     showgrid="false"
     inkscape:zoom="14.75"
     inkscape:cx="6.8135593"
     inkscape:cy="8"
     inkscape:window-x="0"
     inkscape:window-y="26"
     inkscape:window-maximized="0"
     inkscape:current-layer="svg7" />
  <defs
     id="defs3">
    <style
       id="current-color-scheme"
       type="text/css">
   .ColorScheme-Text { color:#5c616c; } .ColorScheme-Highlight { color:#5294e2; }
  </style>
  </defs>
  <path
     style="fill:#f1f6f8;fill-opacity:0.8509804"
     class="ColorScheme-Text"
     d="M 5 2 L 5 4 L 2.9316406 4 C 1.8618406 4 1 4.9391187 1 6.1054688 L 1 11.894531 C 1 13.060831 1.8618906 14 2.9316406 14 L 13.068359 14 C 14.138159 14 15 13.060881 15 11.894531 L 15 6.1054688 C 15 4.9391687 14.138109 4 13.068359 4 L 11 4 L 11 6 L 12.998047 6 C 12.996047 6.009 13 6.0262987 13 6.1054688 L 13 11.894531 C 13 11.973631 12.996047 11.99113 12.998047 12 L 12 12 L 12 11 L 9 11 L 9 12 L 3.0039062 12 C 3.0049062 11.991 3 11.973701 3 11.894531 L 3 6.1054688 C 3 6.0262687 3.0049062 6.00887 3.0039062 6 L 5 6 L 5 8 L 9 5 L 5 2 z M 9 7 L 9 8 L 12 8 L 12 7 L 9 7 z M 9 9 L 9 10 L 12 10 L 12 9 L 9 9 z"
     id="path5" />
</svg>
