<?xml version="1.0" encoding="UTF-8" standalone="no"?>
<svg
   xmlns:dc="http://purl.org/dc/elements/1.1/"
   xmlns:cc="http://creativecommons.org/ns#"
   xmlns:rdf="http://www.w3.org/1999/02/22-rdf-syntax-ns#"
   xmlns:svg="http://www.w3.org/2000/svg"
   xmlns="http://www.w3.org/2000/svg"
   xmlns:sodipodi="http://sodipodi.sourceforge.net/DTD/sodipodi-0.dtd"
   xmlns:inkscape="http://www.inkscape.org/namespaces/inkscape"
   width="16"
   height="16"
   viewBox="0 0 16 16"
   version="1.1"
   id="svg7"
   sodipodi:docname="media-view-subtitles.svg"
   inkscape:version="0.92.4 5da689c313, 2019-01-14">
  <metadata
     id="metadata11">
    <rdf:RDF>
      <cc:Work
         rdf:about="">
        <dc:format>image/svg+xml</dc:format>
        <dc:type
           rdf:resource="http://purl.org/dc/dcmitype/StillImage" />
      </cc:Work>
    </rdf:RDF>
  </metadata>
  <sodipodi:namedview
     pagecolor="#ffffff"
     bordercolor="#666666"
     borderopacity="1"
     objecttolerance="10"
     gridtolerance="10"
     guidetolerance="10"
     inkscape:pageopacity="0"
     inkscape:pageshadow="2"
     inkscape:window-width="640"
     inkscape:window-height="480"
     id="namedview9"
     showgrid="false"
     inkscape:zoom="14.75"
     inkscape:cx="6.8135593"
     inkscape:cy="8"
     inkscape:window-x="0"
     inkscape:window-y="26"
     inkscape:window-maximized="0"
     inkscape:current-layer="svg7" />
  <defs
     id="defs3">
    <style
       id="current-color-scheme"
       type="text/css">
   .ColorScheme-Text { color:#5c616c; } .ColorScheme-Highlight { color:#5294e2; }
  </style>
  </defs>
  <path
     style="fill:#f1f6f8;fill-opacity:0.8509804"
     class="ColorScheme-Text"
     d="M 2 3.0351562 C 1.446 3.0351562 1 3.4811562 1 4.0351562 L 1 12.035156 C 1 12.589156 1.446 13.035156 2 13.035156 L 14 13.035156 C 14.554 13.035156 15 12.589156 15 12.035156 L 15 4.0351562 C 15 3.4811562 14.554 3.0351562 14 3.0351562 L 2 3.0351562 z M 3 8.0351562 L 5 8.0351562 L 5 9.0351562 L 3 9.0351562 L 3 8.0351562 z M 6 8.0351562 L 10 8.0351562 L 10 9.0351562 L 6 9.0351562 L 6 8.0351562 z M 11 8.0351562 L 13 8.0351562 L 13 9.0351562 L 11 9.0351562 L 11 8.0351562 z M 3 10.035156 L 4 10.035156 L 4 11.035156 L 3 11.035156 L 3 10.035156 z M 5 10.035156 L 9 10.035156 L 9 11.035156 L 5 11.035156 L 5 10.035156 z M 10 10.035156 L 13 10.035156 L 13 11.035156 L 10 11.035156 L 10 10.035156 z"
     id="path5" />
</svg>
