<?xml version="1.0" encoding="UTF-8" standalone="no"?>
<svg
   xmlns:dc="http://purl.org/dc/elements/1.1/"
   xmlns:cc="http://creativecommons.org/ns#"
   xmlns:rdf="http://www.w3.org/1999/02/22-rdf-syntax-ns#"
   xmlns:svg="http://www.w3.org/2000/svg"
   xmlns="http://www.w3.org/2000/svg"
   xmlns:sodipodi="http://sodipodi.sourceforge.net/DTD/sodipodi-0.dtd"
   xmlns:inkscape="http://www.inkscape.org/namespaces/inkscape"
   width="16"
   height="16"
   viewBox="0 0 16 16"
   version="1.1"
   id="svg7"
   sodipodi:docname="mic-ready.svg"
   inkscape:version="0.92.4 5da689c313, 2019-01-14">
  <metadata
     id="metadata11">
    <rdf:RDF>
      <cc:Work
         rdf:about="">
        <dc:format>image/svg+xml</dc:format>
        <dc:type
           rdf:resource="http://purl.org/dc/dcmitype/StillImage" />
      </cc:Work>
    </rdf:RDF>
  </metadata>
  <sodipodi:namedview
     pagecolor="#ffffff"
     bordercolor="#666666"
     borderopacity="1"
     objecttolerance="10"
     gridtolerance="10"
     guidetolerance="10"
     inkscape:pageopacity="0"
     inkscape:pageshadow="2"
     inkscape:window-width="715"
     inkscape:window-height="480"
     id="namedview9"
     showgrid="false"
     inkscape:zoom="14.75"
     inkscape:cx="16.711864"
     inkscape:cy="8"
     inkscape:window-x="0"
     inkscape:window-y="26"
     inkscape:window-maximized="0"
     inkscape:current-layer="svg7" />
  <defs
     id="defs3">
    <style
       id="current-color-scheme"
       type="text/css">
   .ColorScheme-Text { color:#5c616c; } .ColorScheme-Highlight { color:#5294e2; }
  </style>
  </defs>
  <path
     style="fill:#f1f6f8;opacity:0.3;fill-opacity:0.28994083"
     class="ColorScheme-Text"
     d="M 8 0 C 6.3379 0 5 1.3381 5 3 L 5 8.0019531 C 5 9.6638531 6.3379 11 8 11 C 9.6621 11 11 9.6637531 11 8.0019531 L 11 3 C 11 1.3381 9.6621 0 8 0 z M 2 7.0039062 L 2 8.0019531 C 2.00001 10.967153 4.168 13.429603 7 13.908203 L 7 16 L 9 16 L 9 13.908203 C 11.832 13.429543 14 10.967053 14 8.0019531 L 14 7.0039062 L 12 7.0039062 L 12 8.0019531 C 12 10.235053 10.2334 12 8 12 C 5.7666 12 4 10.235053 4 8.0019531 L 4 7.0039062 L 2 7.0039062 z"
     id="path5" />
</svg>
