<?xml version="1.0" encoding="UTF-8" standalone="no"?>
<svg
   xmlns:dc="http://purl.org/dc/elements/1.1/"
   xmlns:cc="http://creativecommons.org/ns#"
   xmlns:rdf="http://www.w3.org/1999/02/22-rdf-syntax-ns#"
   xmlns:svg="http://www.w3.org/2000/svg"
   xmlns="http://www.w3.org/2000/svg"
   xmlns:sodipodi="http://sodipodi.sourceforge.net/DTD/sodipodi-0.dtd"
   xmlns:inkscape="http://www.inkscape.org/namespaces/inkscape"
   width="16"
   height="16"
   viewBox="0 0 16 16"
   version="1.1"
   id="svg7"
   sodipodi:docname="node-type-cusp.svg"
   inkscape:version="0.92.4 5da689c313, 2019-01-14">
  <metadata
     id="metadata11">
    <rdf:RDF>
      <cc:Work
         rdf:about="">
        <dc:format>image/svg+xml</dc:format>
        <dc:type
           rdf:resource="http://purl.org/dc/dcmitype/StillImage" />
      </cc:Work>
    </rdf:RDF>
  </metadata>
  <sodipodi:namedview
     pagecolor="#ffffff"
     bordercolor="#666666"
     borderopacity="1"
     objecttolerance="10"
     gridtolerance="10"
     guidetolerance="10"
     inkscape:pageopacity="0"
     inkscape:pageshadow="2"
     inkscape:window-width="640"
     inkscape:window-height="480"
     id="namedview9"
     showgrid="false"
     inkscape:zoom="14.75"
     inkscape:cx="6.8135593"
     inkscape:cy="8"
     inkscape:window-x="0"
     inkscape:window-y="26"
     inkscape:window-maximized="0"
     inkscape:current-layer="svg7" />
  <defs
     id="defs3">
    <style
       id="current-color-scheme"
       type="text/css">
   .ColorScheme-Text { color:#5c616c; } .ColorScheme-Highlight { color:#5294e2; }
  </style>
  </defs>
  <path
     style="fill:#f1f6f8;fill-opacity:0.8509804"
     class="ColorScheme-Text"
     d="M 15.496094 0.99609375 A 0.50005 0.50005 0 0 0 15.007812 1.4570312 C 14.616953 5.5911313 12.771397 8.2578031 9.9042969 10.408203 L 7.578125 8.0820312 C 7.456285 7.4592212 7.304315 6.8195563 7.078125 6.1601562 C 6.625185 4.8397562 5.9391469 3.5564969 4.8730469 2.5917969 C 3.8069469 1.6271469 2.3558 1.0039062 0.5 1.0039062 A 0.50005 0.50005 0 1 0 0.5 2.0039062 C 2.138 2.0039062 3.3050719 2.5231344 4.2011719 3.3339844 C 5.0972419 4.1448144 5.7165125 5.270775 6.1328125 6.484375 C 6.3986925 7.259445 6.5596838 8.0500125 6.6835938 8.8203125 L 4 11.503906 L 7.5 15.003906 L 11 11.503906 L 10.648438 11.152344 C 13.617437 8.8535438 15.592806 5.8987812 16.003906 1.5507812 A 0.50005 0.50005 0 0 0 15.496094 0.99609375 z"
     id="path5" />
</svg>
