<?xml version="1.0" encoding="UTF-8" standalone="no"?>
<svg
   xmlns:dc="http://purl.org/dc/elements/1.1/"
   xmlns:cc="http://creativecommons.org/ns#"
   xmlns:rdf="http://www.w3.org/1999/02/22-rdf-syntax-ns#"
   xmlns:svg="http://www.w3.org/2000/svg"
   xmlns="http://www.w3.org/2000/svg"
   xmlns:sodipodi="http://sodipodi.sourceforge.net/DTD/sodipodi-0.dtd"
   xmlns:inkscape="http://www.inkscape.org/namespaces/inkscape"
   width="16"
   height="16"
   viewBox="0 0 16 16"
   version="1.1"
   id="svg7"
   sodipodi:docname="node-type-auto-smooth.svg"
   inkscape:version="0.92.4 5da689c313, 2019-01-14">
  <metadata
     id="metadata11">
    <rdf:RDF>
      <cc:Work
         rdf:about="">
        <dc:format>image/svg+xml</dc:format>
        <dc:type
           rdf:resource="http://purl.org/dc/dcmitype/StillImage" />
      </cc:Work>
    </rdf:RDF>
  </metadata>
  <sodipodi:namedview
     pagecolor="#ffffff"
     bordercolor="#666666"
     borderopacity="1"
     objecttolerance="10"
     gridtolerance="10"
     guidetolerance="10"
     inkscape:pageopacity="0"
     inkscape:pageshadow="2"
     inkscape:window-width="640"
     inkscape:window-height="480"
     id="namedview9"
     showgrid="false"
     inkscape:zoom="14.75"
     inkscape:cx="6.8135593"
     inkscape:cy="8"
     inkscape:window-x="0"
     inkscape:window-y="26"
     inkscape:window-maximized="0"
     inkscape:current-layer="svg7" />
  <defs
     id="defs3">
    <style
       id="current-color-scheme"
       type="text/css">
   .ColorScheme-Text { color:#5c616c; } .ColorScheme-Highlight { color:#5294e2; }
  </style>
  </defs>
  <path
     style="fill:#f1f6f8;fill-opacity:0.8509804"
     class="ColorScheme-Text"
     d="M 15.419922 2 A 0.49828 0.50178 0 0 0 14.939453 2.5878906 C 15.157103 4.1880906 14.796314 6.4573719 13.683594 8.2636719 C 13.110574 9.1938319 12.349234 10.003319 11.365234 10.574219 A 3.4876 3.5121 0 0 0 7.9980469 7.9746094 A 3.4876 3.5121 0 0 0 4.6230469 10.621094 C 3.6057469 10.049094 2.8281531 9.2253312 2.2519531 8.2695312 C 1.1643531 6.4653313 0.83357187 4.1959031 1.0761719 2.5957031 A 0.49828 0.50178 0 0 0 0.55273438 2.0117188 A 0.49828 0.50178 0 0 0 0.091796875 2.4453125 C -0.19083312 4.3095125 0.1690575 6.7496625 1.3984375 8.7890625 C 2.1142375 9.9763625 3.1577781 11.007875 4.5175781 11.671875 A 3.4876 3.5121 0 0 0 7.9980469 15 A 3.4876 3.5121 0 0 0 11.480469 11.623047 C 12.798069 10.957707 13.81875 9.9496688 14.53125 8.7929688 C 15.78625 6.7558687 16.181334 4.317325 15.927734 2.453125 A 0.49828 0.50178 0 0 0 15.419922 2 z"
     id="path5" />
</svg>
