<?xml version="1.0" encoding="UTF-8" standalone="no"?>
<svg
   xmlns:dc="http://purl.org/dc/elements/1.1/"
   xmlns:cc="http://creativecommons.org/ns#"
   xmlns:rdf="http://www.w3.org/1999/02/22-rdf-syntax-ns#"
   xmlns:svg="http://www.w3.org/2000/svg"
   xmlns="http://www.w3.org/2000/svg"
   xmlns:sodipodi="http://sodipodi.sourceforge.net/DTD/sodipodi-0.dtd"
   xmlns:inkscape="http://www.inkscape.org/namespaces/inkscape"
   width="16"
   height="16"
   viewBox="0 0 16 16"
   version="1.1"
   id="svg7"
   sodipodi:docname="node-type-symmetric.svg"
   inkscape:version="0.92.4 5da689c313, 2019-01-14">
  <metadata
     id="metadata11">
    <rdf:RDF>
      <cc:Work
         rdf:about="">
        <dc:format>image/svg+xml</dc:format>
        <dc:type
           rdf:resource="http://purl.org/dc/dcmitype/StillImage" />
      </cc:Work>
    </rdf:RDF>
  </metadata>
  <sodipodi:namedview
     pagecolor="#ffffff"
     bordercolor="#666666"
     borderopacity="1"
     objecttolerance="10"
     gridtolerance="10"
     guidetolerance="10"
     inkscape:pageopacity="0"
     inkscape:pageshadow="2"
     inkscape:window-width="640"
     inkscape:window-height="480"
     id="namedview9"
     showgrid="false"
     inkscape:zoom="14.75"
     inkscape:cx="6.8135593"
     inkscape:cy="8"
     inkscape:window-x="0"
     inkscape:window-y="26"
     inkscape:window-maximized="0"
     inkscape:current-layer="svg7" />
  <defs
     id="defs3">
    <style
       id="current-color-scheme"
       type="text/css">
   .ColorScheme-Text { color:#5c616c; } .ColorScheme-Highlight { color:#5294e2; }
  </style>
  </defs>
  <path
     style="fill:#f1f6f8;fill-opacity:0.8509804"
     class="ColorScheme-Text"
     d="M 15.390625 2.34375 A 0.49918 0.49918 0 0 0 14.910156 2.9316406 C 15.128156 4.5264406 14.767344 6.8304688 13.652344 8.6679688 C 13.016344 9.7168687 12.146 10.611359 11 11.193359 L 11 9 L 5 9 L 5 11.275391 C 3.7819 10.698391 2.8773625 9.768275 2.2265625 8.671875 C 1.1369625 6.836475 0.80632813 4.5340531 1.0488281 2.9394531 A 0.49918 0.49918 0 0 0 0.52539062 2.359375 A 0.49918 0.49918 0 0 0 0.0625 2.7890625 C -0.22015 4.6473625 0.1400075 7.1123875 1.3671875 9.1796875 C 2.0533875 10.335987 3.0658562 11.322953 4.3476562 12.001953 L 2.9140625 12.001953 A 1.5 1.5 0 0 0 1.5 11 A 1.5 1.5 0 0 0 0 12.5 A 1.5 1.5 0 0 0 1.5 14 A 1.5 1.5 0 0 0 2.9121094 13 L 5 13 L 5 15 L 11 15 L 11 13 L 13.087891 13 A 1.5 1.5 0 0 0 14.5 14 A 1.5 1.5 0 0 0 16 12.5 A 1.5 1.5 0 0 0 14.5 11 A 1.5 1.5 0 0 0 13.085938 12.001953 L 11.494141 12.001953 C 12.783141 11.323953 13.804859 10.340047 14.505859 9.1855469 C 15.758859 7.1204469 16.152438 4.655075 15.898438 2.796875 A 0.49918 0.49918 0 0 0 15.390625 2.34375 z"
     id="path5" />
</svg>
