<?xml version="1.0" encoding="UTF-8" standalone="no"?>
<svg
   xmlns:dc="http://purl.org/dc/elements/1.1/"
   xmlns:cc="http://creativecommons.org/ns#"
   xmlns:rdf="http://www.w3.org/1999/02/22-rdf-syntax-ns#"
   xmlns:svg="http://www.w3.org/2000/svg"
   xmlns="http://www.w3.org/2000/svg"
   xmlns:sodipodi="http://sodipodi.sourceforge.net/DTD/sodipodi-0.dtd"
   xmlns:inkscape="http://www.inkscape.org/namespaces/inkscape"
   width="16"
   height="16"
   viewBox="0 0 16 16"
   version="1.1"
   id="svg7"
   sodipodi:docname="node-type-smooth.svg"
   inkscape:version="0.92.4 5da689c313, 2019-01-14">
  <metadata
     id="metadata11">
    <rdf:RDF>
      <cc:Work
         rdf:about="">
        <dc:format>image/svg+xml</dc:format>
        <dc:type
           rdf:resource="http://purl.org/dc/dcmitype/StillImage" />
      </cc:Work>
    </rdf:RDF>
  </metadata>
  <sodipodi:namedview
     pagecolor="#ffffff"
     bordercolor="#666666"
     borderopacity="1"
     objecttolerance="10"
     gridtolerance="10"
     guidetolerance="10"
     inkscape:pageopacity="0"
     inkscape:pageshadow="2"
     inkscape:window-width="640"
     inkscape:window-height="480"
     id="namedview9"
     showgrid="false"
     inkscape:zoom="14.75"
     inkscape:cx="6.8135593"
     inkscape:cy="8"
     inkscape:window-x="0"
     inkscape:window-y="26"
     inkscape:window-maximized="0"
     inkscape:current-layer="svg7" />
  <defs
     id="defs3">
    <style
       id="current-color-scheme"
       type="text/css">
   .ColorScheme-Text { color:#5c616c; } .ColorScheme-Highlight { color:#5294e2; }
  </style>
  </defs>
  <path
     style="fill:#f1f6f8;fill-opacity:0.8509804"
     class="ColorScheme-Text"
     d="M 14.533203 2.0058594 A 0.50005 0.50005 0 0 0 14.064453 2.5800781 C 14.285963 4.1972781 14.020872 6.3624 13.013672 8.0625 C 12.362402 9.1618 11.421266 10.075091 10.072266 10.587891 L 10.072266 8.9941406 L 5.0722656 8.9941406 L 5.0722656 10.658203 C 3.6411656 10.173203 2.6709375 9.2553125 2.0234375 8.1328125 C 1.0640375 6.4698125 0.84995625 4.3390969 1.0976562 2.7167969 A 0.50005 0.50005 0 1 0 0.109375 2.5644531 C -0.170055 4.3945531 0.050303125 6.7102594 1.1582031 8.6308594 C 1.9531431 10.008859 3.2463656 11.150506 5.0722656 11.691406 L 5.0722656 13.994141 L 10.072266 13.994141 L 10.072266 11.621094 C 11.813566 11.047574 13.0755 9.9217656 13.875 8.5722656 C 15.029 6.6242656 15.306088 4.2785594 15.054688 2.4433594 A 0.50005 0.50005 0 0 0 14.533203 2.0058594 z"
     id="path5" />
</svg>
