<?xml version="1.0" encoding="UTF-8" standalone="no"?>
<svg
   xmlns:dc="http://purl.org/dc/elements/1.1/"
   xmlns:cc="http://creativecommons.org/ns#"
   xmlns:rdf="http://www.w3.org/1999/02/22-rdf-syntax-ns#"
   xmlns:svg="http://www.w3.org/2000/svg"
   xmlns="http://www.w3.org/2000/svg"
   xmlns:sodipodi="http://sodipodi.sourceforge.net/DTD/sodipodi-0.dtd"
   xmlns:inkscape="http://www.inkscape.org/namespaces/inkscape"
   style="enable-background:new"
   width="16"
   height="16"
   version="1.1"
   id="svg6"
   sodipodi:docname="object-merge.svg"
   inkscape:version="0.92.4 5da689c313, 2019-01-14">
  <metadata
     id="metadata12">
    <rdf:RDF>
      <cc:Work
         rdf:about="">
        <dc:format>image/svg+xml</dc:format>
        <dc:type
           rdf:resource="http://purl.org/dc/dcmitype/StillImage" />
      </cc:Work>
    </rdf:RDF>
  </metadata>
  <defs
     id="defs10" />
  <sodipodi:namedview
     pagecolor="#ffffff"
     bordercolor="#666666"
     borderopacity="1"
     objecttolerance="10"
     gridtolerance="10"
     guidetolerance="10"
     inkscape:pageopacity="0"
     inkscape:pageshadow="2"
     inkscape:window-width="640"
     inkscape:window-height="480"
     id="namedview8"
     showgrid="false"
     inkscape:zoom="14.75"
     inkscape:cx="6.8135593"
     inkscape:cy="8"
     inkscape:window-x="0"
     inkscape:window-y="26"
     inkscape:window-maximized="0"
     inkscape:current-layer="svg6" />
  <g
     transform="translate(-625.00043,19.003361)"
     id="g4"
     style="fill:#f1f6f8;fill-opacity:0.8509804">
    <path
       style="fill-opacity:0.8509804;fill:#f1f6f8"
       d="m 633.0002,-17.000418 -3,5 2,0 0,2 c 0,1.6793 -1.3207,3 -3,3 l -3,0 0,2 3,0 c 1.61598,0 3.07648,-0.78766 4,-1.98438 0.92352,1.19673 2.38402,1.98438 4,1.98438 l 3,0 0,-2 -3,0 c -1.6793,0 -3,-1.3207 -3,-3 l 0,-2 2,0 -3,-5 z m 0.95703,7.7793 c -0.004,0.028 -0.007,0.0561 -0.0117,0.084 0.004,-0.0279 0.008,-0.0559 0.0117,-0.084 z m -0.48437,1.48437 c -0.0285,0.0547 -0.0573,0.10856 -0.0879,0.16211 0.0301,-0.0536 0.0599,-0.10731 0.0879,-0.16211 z"
       id="path2" />
  </g>
</svg>
