<?xml version="1.0" encoding="UTF-8" standalone="no"?>
<svg
   xmlns:dc="http://purl.org/dc/elements/1.1/"
   xmlns:cc="http://creativecommons.org/ns#"
   xmlns:rdf="http://www.w3.org/1999/02/22-rdf-syntax-ns#"
   xmlns:svg="http://www.w3.org/2000/svg"
   xmlns="http://www.w3.org/2000/svg"
   xmlns:sodipodi="http://sodipodi.sourceforge.net/DTD/sodipodi-0.dtd"
   xmlns:inkscape="http://www.inkscape.org/namespaces/inkscape"
   width="16"
   height="16"
   viewBox="0 0 16 16"
   version="1.1"
   id="svg7"
   sodipodi:docname="office-chart-line.svg"
   inkscape:version="0.92.4 5da689c313, 2019-01-14">
  <metadata
     id="metadata11">
    <rdf:RDF>
      <cc:Work
         rdf:about="">
        <dc:format>image/svg+xml</dc:format>
        <dc:type
           rdf:resource="http://purl.org/dc/dcmitype/StillImage" />
      </cc:Work>
    </rdf:RDF>
  </metadata>
  <sodipodi:namedview
     pagecolor="#ffffff"
     bordercolor="#666666"
     borderopacity="1"
     objecttolerance="10"
     gridtolerance="10"
     guidetolerance="10"
     inkscape:pageopacity="0"
     inkscape:pageshadow="2"
     inkscape:window-width="640"
     inkscape:window-height="480"
     id="namedview9"
     showgrid="false"
     inkscape:zoom="14.75"
     inkscape:cx="6.8135593"
     inkscape:cy="8"
     inkscape:window-x="0"
     inkscape:window-y="26"
     inkscape:window-maximized="0"
     inkscape:current-layer="svg7" />
  <defs
     id="defs3">
    <style
       id="current-color-scheme"
       type="text/css">
   .ColorScheme-Text { color:#5c616c; } .ColorScheme-Highlight { color:#5294e2; }
  </style>
  </defs>
  <path
     style="fill:#f1f6f8;fill-opacity:0.8509804"
     class="ColorScheme-Text"
     d="M 2 2 L 2 3 L 2 4 L 2 8 L 2 9 L 2 10.626953 L 2 11.626953 L 2 13 L 2 14 L 14 14 L 14 13.001953 L 14 13 L 14 11.867188 L 13.958984 11.828125 L 11.130859 9 L 11.126953 9.0039062 L 11.121094 9 L 8.9980469 11.123047 L 5.875 8 L 4.4609375 8 L 3 8 L 3 4 L 3 3 L 3 2 L 2 2 z M 9 2 L 4.9980469 6.0019531 L 3.0019531 6.0019531 L 3.0019531 7.0019531 L 5.4121094 7.0019531 L 9.0019531 3.4121094 L 11.125 5.5351562 L 11.130859 5.53125 L 11.134766 5.5351562 L 13.962891 2.7070312 C 13.965857 2.7120315 13.255859 2 13.255859 2 L 11.130859 4.125 L 9.0039062 2 L 9.0019531 2.0019531 L 9 2 z M 3 9 L 5.4609375 9 L 8.9960938 12.535156 L 8.9980469 12.533203 L 9 12.535156 L 11.126953 10.410156 L 13.251953 12.535156 L 13.734375 13 L 3 13 L 3 11.626953 L 3 10.626953 L 3 9 z"
     id="path5" />
</svg>
