<?xml version="1.0" encoding="UTF-8" standalone="no"?>
<svg
   xmlns:dc="http://purl.org/dc/elements/1.1/"
   xmlns:cc="http://creativecommons.org/ns#"
   xmlns:rdf="http://www.w3.org/1999/02/22-rdf-syntax-ns#"
   xmlns:svg="http://www.w3.org/2000/svg"
   xmlns="http://www.w3.org/2000/svg"
   xmlns:sodipodi="http://sodipodi.sourceforge.net/DTD/sodipodi-0.dtd"
   xmlns:inkscape="http://www.inkscape.org/namespaces/inkscape"
   width="16"
   height="16"
   viewBox="0 0 16 16"
   version="1.1"
   id="svg7"
   sodipodi:docname="raindrop.svg"
   inkscape:version="0.92.4 5da689c313, 2019-01-14">
  <metadata
     id="metadata11">
    <rdf:RDF>
      <cc:Work
         rdf:about="">
        <dc:format>image/svg+xml</dc:format>
        <dc:type
           rdf:resource="http://purl.org/dc/dcmitype/StillImage" />
      </cc:Work>
    </rdf:RDF>
  </metadata>
  <sodipodi:namedview
     pagecolor="#ffffff"
     bordercolor="#666666"
     borderopacity="1"
     objecttolerance="10"
     gridtolerance="10"
     guidetolerance="10"
     inkscape:pageopacity="0"
     inkscape:pageshadow="2"
     inkscape:window-width="640"
     inkscape:window-height="480"
     id="namedview9"
     showgrid="false"
     inkscape:zoom="14.75"
     inkscape:cx="6.8135593"
     inkscape:cy="8"
     inkscape:window-x="0"
     inkscape:window-y="26"
     inkscape:window-maximized="0"
     inkscape:current-layer="svg7" />
  <defs
     id="defs3">
    <style
       id="current-color-scheme"
       type="text/css">
   .ColorScheme-Text { color:#5c616c; } .ColorScheme-Highlight { color:#5294e2; }
  </style>
  </defs>
  <path
     style="fill:#f1f6f8;fill-opacity:0.8509804"
     class="ColorScheme-Text"
     d="M 8 0 C 7.51354 1.7025 6.3374 3.17195 5.8125 4.34375 C 5.6288 4.69215 5.5 5.07735 5.5 5.5 C 5.5 6.885 6.615 8 8 8 C 9.385 8 10.5 6.885 10.5 5.5 C 10.5 5.0773 10.4025 4.6921 10.21875 4.34375 C 9.69384 3.17195 8.4865 1.7026 8 0 z M 3.5 8 C 3.01354 9.7025 1.8374 11.17195 1.3125 12.34375 C 1.1288 12.69215 1 13.07735 1 13.5 C 1 14.885 2.115 16 3.5 16 C 4.885 16 6 14.885 6 13.5 C 6 13.0773 5.9025 12.6921 5.71875 12.34375 C 5.19384 11.17195 3.9865 9.7026 3.5 8 z M 12.5 8 C 12.01354 9.7025 10.8374 11.17195 10.3125 12.34375 C 10.1288 12.69215 10 13.07735 10 13.5 C 10 14.885 11.115 16 12.5 16 C 13.885 16 15 14.885 15 13.5 C 15 13.0773 14.9025 12.6921 14.71875 12.34375 C 14.19384 11.17195 12.9865 9.7026 12.5 8 z"
     id="path5" />
</svg>
