<?xml version="1.0" encoding="UTF-8" standalone="no"?>
<svg
   xmlns:dc="http://purl.org/dc/elements/1.1/"
   xmlns:cc="http://creativecommons.org/ns#"
   xmlns:rdf="http://www.w3.org/1999/02/22-rdf-syntax-ns#"
   xmlns:svg="http://www.w3.org/2000/svg"
   xmlns="http://www.w3.org/2000/svg"
   xmlns:sodipodi="http://sodipodi.sourceforge.net/DTD/sodipodi-0.dtd"
   xmlns:inkscape="http://www.inkscape.org/namespaces/inkscape"
   width="16"
   height="16"
   viewBox="0 0 16 16"
   version="1.1"
   id="svg7"
   sodipodi:docname="show-node-handles.svg"
   inkscape:version="0.92.4 5da689c313, 2019-01-14">
  <metadata
     id="metadata11">
    <rdf:RDF>
      <cc:Work
         rdf:about="">
        <dc:format>image/svg+xml</dc:format>
        <dc:type
           rdf:resource="http://purl.org/dc/dcmitype/StillImage" />
      </cc:Work>
    </rdf:RDF>
  </metadata>
  <sodipodi:namedview
     pagecolor="#ffffff"
     bordercolor="#666666"
     borderopacity="1"
     objecttolerance="10"
     gridtolerance="10"
     guidetolerance="10"
     inkscape:pageopacity="0"
     inkscape:pageshadow="2"
     inkscape:window-width="640"
     inkscape:window-height="480"
     id="namedview9"
     showgrid="false"
     inkscape:zoom="14.75"
     inkscape:cx="6.8135593"
     inkscape:cy="8"
     inkscape:window-x="0"
     inkscape:window-y="26"
     inkscape:window-maximized="0"
     inkscape:current-layer="svg7" />
  <defs
     id="defs3">
    <style
       id="current-color-scheme"
       type="text/css">
   .ColorScheme-Text { color:#5c616c; } .ColorScheme-Highlight { color:#5294e2; }
  </style>
  </defs>
  <path
     style="fill:#f1f6f8;fill-opacity:0.8509804"
     class="ColorScheme-Text"
     d="M 4.5078125 2 A 1.5049 1.5 0 0 0 3.0039062 3.5 A 1.5049 1.5 0 0 0 3.9628906 4.8964844 L 3.9628906 9 L 2 9 L 2 14 L 7.015625 14 L 7.015625 9 L 5.7460938 9 C 6.1771338 7.7569 7.0829813 6.5785563 8.2382812 5.5976562 C 9.8605813 4.2202563 11.937453 3.2551375 13.564453 3.0234375 A 0.50168 0.50005 0 0 0 13.458984 2.0292969 A 0.50168 0.50005 0 0 0 13.423828 2.0351562 C 11.539028 2.3035363 9.3516906 3.3382375 7.5878906 4.8359375 C 6.4685906 5.7862775 5.5163969 6.9348375 4.9667969 8.2109375 L 4.9667969 4.9257812 A 1.5049 1.5 0 0 0 6.0136719 3.5 A 1.5049 1.5 0 0 0 4.5078125 2 z"
     id="path5" />
</svg>
