<?xml version="1.0" encoding="UTF-8" standalone="no"?>
<svg
   xmlns:dc="http://purl.org/dc/elements/1.1/"
   xmlns:cc="http://creativecommons.org/ns#"
   xmlns:rdf="http://www.w3.org/1999/02/22-rdf-syntax-ns#"
   xmlns:svg="http://www.w3.org/2000/svg"
   xmlns="http://www.w3.org/2000/svg"
   xmlns:sodipodi="http://sodipodi.sourceforge.net/DTD/sodipodi-0.dtd"
   xmlns:inkscape="http://www.inkscape.org/namespaces/inkscape"
   width="16"
   height="16"
   viewBox="0 0 16 16"
   version="1.1"
   id="svg7"
   sodipodi:docname="show-guides.svg"
   inkscape:version="0.92.4 5da689c313, 2019-01-14">
  <metadata
     id="metadata11">
    <rdf:RDF>
      <cc:Work
         rdf:about="">
        <dc:format>image/svg+xml</dc:format>
        <dc:type
           rdf:resource="http://purl.org/dc/dcmitype/StillImage" />
      </cc:Work>
    </rdf:RDF>
  </metadata>
  <sodipodi:namedview
     pagecolor="#ffffff"
     bordercolor="#666666"
     borderopacity="1"
     objecttolerance="10"
     gridtolerance="10"
     guidetolerance="10"
     inkscape:pageopacity="0"
     inkscape:pageshadow="2"
     inkscape:window-width="640"
     inkscape:window-height="480"
     id="namedview9"
     showgrid="false"
     inkscape:zoom="14.75"
     inkscape:cx="6.8135593"
     inkscape:cy="8"
     inkscape:window-x="0"
     inkscape:window-y="26"
     inkscape:window-maximized="0"
     inkscape:current-layer="svg7" />
  <defs
     id="defs3">
    <style
       id="current-color-scheme"
       type="text/css">
   .ColorScheme-Text { color:#5c616c; } .ColorScheme-Highlight { color:#5294e2; }
  </style>
  </defs>
  <path
     style="fill:#f1f6f8;fill-opacity:0.8509804"
     class="ColorScheme-Text"
     d="M 3 2.0292969 L 3 3.0292969 L 4 3.0292969 L 4 2.0292969 L 3 2.0292969 z M 3 4.0292969 L 3 5.0292969 L 4 5.0292969 L 4 4.0292969 L 3 4.0292969 z M 3 6.0292969 L 3 7.0292969 L 4 7.0292969 L 4 6.0292969 L 3 6.0292969 z M 3 8.0292969 L 3 9.0292969 L 4 9.0292969 L 4 8.0292969 L 3 8.0292969 z M 3 10.029297 L 3 11.029297 L 4 11.029297 L 4 10.029297 L 3 10.029297 z M 1 12.029297 L 1 13.029297 L 2 13.029297 L 2 12.029297 L 1 12.029297 z M 3 12.029297 L 3 13.029297 L 4 13.029297 L 4 12.029297 L 3 12.029297 z M 5 12.029297 L 5 13.029297 L 6 13.029297 L 6 12.029297 L 5 12.029297 z M 7 12.029297 L 7 13.029297 L 8 13.029297 L 8 12.029297 L 7 12.029297 z M 9 12.029297 L 9 13.029297 L 10 13.029297 L 10 12.029297 L 9 12.029297 z M 11 12.029297 L 11 13.029297 L 12 13.029297 L 12 12.029297 L 11 12.029297 z M 13 12.029297 L 13 13.029297 L 14 13.029297 L 14 12.029297 L 13 12.029297 z M 3 14.029297 L 3 15.029297 L 4 15.029297 L 4 14.029297 L 3 14.029297 z"
     id="path5" />
</svg>
