<?xml version="1.0" encoding="UTF-8" standalone="no"?>
<svg
   xmlns:dc="http://purl.org/dc/elements/1.1/"
   xmlns:cc="http://creativecommons.org/ns#"
   xmlns:rdf="http://www.w3.org/1999/02/22-rdf-syntax-ns#"
   xmlns:svg="http://www.w3.org/2000/svg"
   xmlns="http://www.w3.org/2000/svg"
   xmlns:sodipodi="http://sodipodi.sourceforge.net/DTD/sodipodi-0.dtd"
   xmlns:inkscape="http://www.inkscape.org/namespaces/inkscape"
   width="16"
   height="16"
   viewBox="0 0 16 16"
   version="1.1"
   id="svg7"
   sodipodi:docname="snap-nodes-path.svg"
   inkscape:version="0.92.4 5da689c313, 2019-01-14">
  <metadata
     id="metadata11">
    <rdf:RDF>
      <cc:Work
         rdf:about="">
        <dc:format>image/svg+xml</dc:format>
        <dc:type
           rdf:resource="http://purl.org/dc/dcmitype/StillImage" />
      </cc:Work>
    </rdf:RDF>
  </metadata>
  <sodipodi:namedview
     pagecolor="#ffffff"
     bordercolor="#666666"
     borderopacity="1"
     objecttolerance="10"
     gridtolerance="10"
     guidetolerance="10"
     inkscape:pageopacity="0"
     inkscape:pageshadow="2"
     inkscape:window-width="640"
     inkscape:window-height="480"
     id="namedview9"
     showgrid="false"
     inkscape:zoom="14.75"
     inkscape:cx="6.8135593"
     inkscape:cy="8"
     inkscape:window-x="0"
     inkscape:window-y="26"
     inkscape:window-maximized="0"
     inkscape:current-layer="svg7" />
  <defs
     id="defs3">
    <style
       id="current-color-scheme"
       type="text/css">
   .ColorScheme-Text { color:#5c616c; } .ColorScheme-Highlight { color:#5294e2; }
  </style>
  </defs>
  <path
     style="fill:#f1f6f8;fill-opacity:0.8509804"
     class="ColorScheme-Text"
     d="M 1.0058594 1.4941406 L 1.0195312 1.5 A 0.50005 0.50005 0 0 0 0.9375 2.4960938 C 0.9375 2.4960938 4.6236281 3.0112381 7.2363281 4.6738281 C 8.5427281 5.5051381 9.5440688 6.5832406 9.7929688 7.9941406 C 10.041949 9.4050406 9.5606013 11.255353 7.6132812 13.689453 A 0.50005 0.50005 0 0 0 7.9941406 14.5 C 11.613141 14.5 13.564497 13.165409 14.529297 11.787109 C 15.489297 10.407109 15.488281 8.9960938 15.488281 8.9960938 A 0.50005 0.50005 0 1 0 14.488281 8.9960938 C 14.488281 8.9960938 14.488325 10.087284 13.703125 11.208984 C 13.017775 12.188054 11.522291 13.071 8.9628906 13.3125 C 10.394391 11.2069 11.031219 9.3412531 10.761719 7.8144531 C 10.448199 6.0378531 9.2014125 4.7428187 7.7578125 3.8242188 C 4.8705125 1.9868188 1.0546875 1.5 1.0546875 1.5 A 0.50005 0.50005 0 0 0 1.0058594 1.4941406 z"
     id="path5" />
</svg>
