<?xml version="1.0" encoding="UTF-8" standalone="no"?>
<svg
   xmlns:dc="http://purl.org/dc/elements/1.1/"
   xmlns:cc="http://creativecommons.org/ns#"
   xmlns:rdf="http://www.w3.org/1999/02/22-rdf-syntax-ns#"
   xmlns:svg="http://www.w3.org/2000/svg"
   xmlns="http://www.w3.org/2000/svg"
   xmlns:sodipodi="http://sodipodi.sourceforge.net/DTD/sodipodi-0.dtd"
   xmlns:inkscape="http://www.inkscape.org/namespaces/inkscape"
   width="16"
   height="16"
   viewBox="0 0 16 16"
   version="1.1"
   id="svg7"
   sodipodi:docname="snap-nodes-smooth.svg"
   inkscape:version="0.92.4 5da689c313, 2019-01-14">
  <metadata
     id="metadata11">
    <rdf:RDF>
      <cc:Work
         rdf:about="">
        <dc:format>image/svg+xml</dc:format>
        <dc:type
           rdf:resource="http://purl.org/dc/dcmitype/StillImage" />
      </cc:Work>
    </rdf:RDF>
  </metadata>
  <sodipodi:namedview
     pagecolor="#ffffff"
     bordercolor="#666666"
     borderopacity="1"
     objecttolerance="10"
     gridtolerance="10"
     guidetolerance="10"
     inkscape:pageopacity="0"
     inkscape:pageshadow="2"
     inkscape:window-width="640"
     inkscape:window-height="480"
     id="namedview9"
     showgrid="false"
     inkscape:zoom="14.75"
     inkscape:cx="6.8135593"
     inkscape:cy="8"
     inkscape:window-x="0"
     inkscape:window-y="26"
     inkscape:window-maximized="0"
     inkscape:current-layer="svg7" />
  <defs
     id="defs3">
    <style
       id="current-color-scheme"
       type="text/css">
   .ColorScheme-Text { color:#5c616c; } .ColorScheme-Highlight { color:#5294e2; }
  </style>
  </defs>
  <path
     style="fill:#f1f6f8;fill-opacity:0.8509804"
     class="ColorScheme-Text"
     d="M 1.0195312 1.5 A 0.50005 0.50005 0 0 0 0.96875 1.5019531 A 0.50005 0.50005 0 0 0 0.93554688 2.4980469 C 0.93554688 2.4980469 3.5980531 2.8748925 6.0019531 4.0078125 L 6.0019531 6.0019531 L 8.8085938 6.0019531 C 9.3046338 6.5797831 9.6577056 7.2386406 9.7910156 7.9941406 C 10.039996 9.4050406 9.5586481 11.255353 7.6113281 13.689453 A 0.50005 0.50005 0 0 0 8.0019531 14.501953 C 11.620953 14.501953 13.572309 13.167363 14.537109 11.789062 C 15.501909 10.410763 15.501953 9.0019531 15.501953 9.0019531 A 0.50005 0.50005 0 1 0 14.501953 9.0019531 C 14.501953 9.0019531 14.501997 10.093144 13.716797 11.214844 C 13.031447 12.193914 11.535962 13.076859 8.9765625 13.318359 C 10.408062 11.212759 11.044891 9.3491656 10.775391 7.8222656 C 10.556791 6.5835656 9.8788631 5.5820906 9.0019531 4.7753906 L 9.0019531 3.0019531 L 6.203125 3.0019531 C 3.670125 1.8505531 1.0683594 1.5058594 1.0683594 1.5058594 A 0.50005 0.50005 0 0 0 1.0195312 1.5 z"
     id="path5" />
</svg>
