<?xml version="1.0" encoding="UTF-8" standalone="no"?>
<svg
   xmlns:dc="http://purl.org/dc/elements/1.1/"
   xmlns:cc="http://creativecommons.org/ns#"
   xmlns:rdf="http://www.w3.org/1999/02/22-rdf-syntax-ns#"
   xmlns:svg="http://www.w3.org/2000/svg"
   xmlns="http://www.w3.org/2000/svg"
   xmlns:sodipodi="http://sodipodi.sourceforge.net/DTD/sodipodi-0.dtd"
   xmlns:inkscape="http://www.inkscape.org/namespaces/inkscape"
   width="16"
   height="16"
   version="1.1"
   viewBox="0 0 16 16"
   id="svg7"
   sodipodi:docname="stock_xfburn.svg"
   inkscape:version="0.92.4 5da689c313, 2019-01-14">
  <metadata
     id="metadata11">
    <rdf:RDF>
      <cc:Work
         rdf:about="">
        <dc:format>image/svg+xml</dc:format>
        <dc:type
           rdf:resource="http://purl.org/dc/dcmitype/StillImage" />
      </cc:Work>
    </rdf:RDF>
  </metadata>
  <sodipodi:namedview
     pagecolor="#ffffff"
     bordercolor="#666666"
     borderopacity="1"
     objecttolerance="10"
     gridtolerance="10"
     guidetolerance="10"
     inkscape:pageopacity="0"
     inkscape:pageshadow="2"
     inkscape:window-width="640"
     inkscape:window-height="480"
     id="namedview9"
     showgrid="false"
     inkscape:zoom="14.75"
     inkscape:cx="6.8135593"
     inkscape:cy="8"
     inkscape:window-x="0"
     inkscape:window-y="26"
     inkscape:window-maximized="0"
     inkscape:current-layer="svg7" />
  <defs
     id="defs3">
    <style
       id="current-color-scheme"
       type="text/css">
   .ColorScheme-Text { color:#5c616c; } .ColorScheme-Highlight { color:#5294e2; }
  </style>
  </defs>
  <path
     style="fill:#f1f6f8;fill-opacity:0.8509804"
     class="ColorScheme-Text"
     d="M 8,-8.4999999e-8 A 8,8 0 0 0 -5.0000001e-8,7.9999999 8,8 0 0 0 8,16 8,8 0 0 0 16,7.9999999 8,8 0 0 0 8,-8.4999999e-8 Z M 9.544922,1.9101559 c 0,5.7268 4.390984,6.553607 3.271484,9.8164061 C 12.178206,13.586662 10.619203,15 7.908203,15 c -0.0086,0 -0.01729,4e-5 -0.02539,0 1.342,-0.0075 2.116214,-0.709746 2.433594,-1.634766 0.5598,-1.6314 -1.636718,-2.046656 -1.636718,-4.9101561 -2.0453,0.8181 -3.271485,2.7362971 -3.271485,4.0917971 0,1.171625 0.821556,2.147234 1.919922,2.390625 -2.433489,-0.290552 -4.3281261,-2.333992 -4.3281261,-4.845703 0,-2.7110001 2.4539221,-6.5456411 6.5449221,-8.1816411 z"
     id="path5" />
</svg>
