<?xml version="1.0" encoding="UTF-8" standalone="no"?>
<svg
   xmlns:dc="http://purl.org/dc/elements/1.1/"
   xmlns:cc="http://creativecommons.org/ns#"
   xmlns:rdf="http://www.w3.org/1999/02/22-rdf-syntax-ns#"
   xmlns:svg="http://www.w3.org/2000/svg"
   xmlns="http://www.w3.org/2000/svg"
   xmlns:sodipodi="http://sodipodi.sourceforge.net/DTD/sodipodi-0.dtd"
   xmlns:inkscape="http://www.inkscape.org/namespaces/inkscape"
   width="16"
   height="16"
   viewBox="0 0 16 16"
   version="1.1"
   id="svg7"
   sodipodi:docname="insert-emoticon.svg"
   inkscape:version="0.92.4 5da689c313, 2019-01-14">
  <metadata
     id="metadata11">
    <rdf:RDF>
      <cc:Work
         rdf:about="">
        <dc:format>image/svg+xml</dc:format>
        <dc:type
           rdf:resource="http://purl.org/dc/dcmitype/StillImage" />
      </cc:Work>
    </rdf:RDF>
  </metadata>
  <sodipodi:namedview
     pagecolor="#ffffff"
     bordercolor="#666666"
     borderopacity="1"
     objecttolerance="10"
     gridtolerance="10"
     guidetolerance="10"
     inkscape:pageopacity="0"
     inkscape:pageshadow="2"
     inkscape:window-width="640"
     inkscape:window-height="480"
     id="namedview9"
     showgrid="false"
     inkscape:zoom="14.75"
     inkscape:cx="6.8135593"
     inkscape:cy="8"
     inkscape:window-x="0"
     inkscape:window-y="26"
     inkscape:window-maximized="0"
     inkscape:current-layer="svg7" />
  <defs
     id="defs3">
    <style
       id="current-color-scheme"
       type="text/css">
   .ColorScheme-Text { color:#5c616c; } .ColorScheme-Highlight { color:#5294e2; }
  </style>
  </defs>
  <path
     style="fill:#f1f6f8;fill-opacity:0.8509804"
     class="ColorScheme-Text"
     d="M 8 0.99804688 C 4.134 0.99804688 1 4.1320469 1 7.9980469 C 1 11.864047 4.134 14.998047 8 14.998047 C 11.866 14.998047 15 11.864047 15 7.9980469 C 15 4.1320469 11.866 0.99804688 8 0.99804688 z M 5 5.0019531 C 5.55407 5.0019531 6 5.4514031 6 6.0019531 C 6 6.5525931 5.55407 7.0019531 5 7.0019531 C 4.44576 7.0019531 4 6.5525931 4 6.0019531 C 4 5.4514031 4.44576 5.0019531 5 5.0019531 z M 11 5.0019531 C 11.55415 5.0019531 12 5.4514031 12 6.0019531 C 12 6.5525931 11.55415 7.0019531 11 7.0019531 C 10.44593 7.0019531 10 6.5525931 10 6.0019531 C 10 5.4514031 10.44593 5.0019531 11 5.0019531 z M 4.0078125 10.001953 L 11.992188 10.001953 C 11.049568 11.258753 9.571 11.999453 8 12.001953 C 6.429 11.999953 4.9504125 11.258783 4.0078125 10.001953 z"
     id="path5" />
</svg>
