<?xml version="1.0" encoding="UTF-8" standalone="no"?>
<svg
   xmlns:dc="http://purl.org/dc/elements/1.1/"
   xmlns:cc="http://creativecommons.org/ns#"
   xmlns:rdf="http://www.w3.org/1999/02/22-rdf-syntax-ns#"
   xmlns:svg="http://www.w3.org/2000/svg"
   xmlns="http://www.w3.org/2000/svg"
   xmlns:sodipodi="http://sodipodi.sourceforge.net/DTD/sodipodi-0.dtd"
   xmlns:inkscape="http://www.inkscape.org/namespaces/inkscape"
   style="enable-background:new"
   width="16"
   height="16"
   version="1.1"
   id="svg8"
   sodipodi:docname="gnome-logout.svg"
   inkscape:version="0.92.4 5da689c313, 2019-01-14">
  <metadata
     id="metadata14">
    <rdf:RDF>
      <cc:Work
         rdf:about="">
        <dc:format>image/svg+xml</dc:format>
        <dc:type
           rdf:resource="http://purl.org/dc/dcmitype/StillImage" />
      </cc:Work>
    </rdf:RDF>
  </metadata>
  <defs
     id="defs12" />
  <sodipodi:namedview
     pagecolor="#ffffff"
     bordercolor="#666666"
     borderopacity="1"
     objecttolerance="10"
     gridtolerance="10"
     guidetolerance="10"
     inkscape:pageopacity="0"
     inkscape:pageshadow="2"
     inkscape:window-width="715"
     inkscape:window-height="480"
     id="namedview10"
     showgrid="false"
     inkscape:zoom="14.75"
     inkscape:cx="9.3559322"
     inkscape:cy="8"
     inkscape:window-x="0"
     inkscape:window-y="26"
     inkscape:window-maximized="0"
     inkscape:current-layer="svg8" />
  <g
     transform="translate(-445.00021,-200.9687)"
     id="g6"
     style="fill:#f1f6f8;fill-opacity:0.68047339">
    <path
       style="fill-opacity:0.68047339;fill:#f1f6f8"
       d="m 457.24001,204.72555 c -1.71395,-1.71396 -4.29967,-2.22837 -6.53906,-1.30079 -2.23939,0.92759 -3.70312,3.11907 -3.70312,5.54297 0,2.42391 1.46373,4.61539 3.70312,5.54297 2.23939,0.92759 4.82511,0.41318 6.53906,-1.30078 l -1.41406,-1.41406 c -1.14602,1.14602 -2.86202,1.48741 -4.35937,0.86719 -1.49735,-0.62023 -2.47071,-2.0746 -2.47071,-3.69532 0,-1.62072 0.97336,-3.07509 2.47071,-3.69531 1.49735,-0.62022 3.21335,-0.27883 4.35937,0.86719 l 1.41406,-1.41406 z"
       id="path2" />
    <path
       style="fill-opacity:0.68047339;fill:#f1f6f8"
       d="m 456.99998,205.97164 4,3 -4,3 0,-2 -4,0 0,-2 4,0 z"
       id="path4" />
  </g>
</svg>
