<?xml version="1.0" encoding="UTF-8" standalone="no"?>
<svg
   xmlns:dc="http://purl.org/dc/elements/1.1/"
   xmlns:cc="http://creativecommons.org/ns#"
   xmlns:rdf="http://www.w3.org/1999/02/22-rdf-syntax-ns#"
   xmlns:svg="http://www.w3.org/2000/svg"
   xmlns="http://www.w3.org/2000/svg"
   xmlns:sodipodi="http://sodipodi.sourceforge.net/DTD/sodipodi-0.dtd"
   xmlns:inkscape="http://www.inkscape.org/namespaces/inkscape"
   width="16"
   height="16"
   viewBox="0 0 16 16"
   version="1.1"
   id="svg7"
   sodipodi:docname="tool-tweak.svg"
   inkscape:version="0.92.4 5da689c313, 2019-01-14">
  <metadata
     id="metadata11">
    <rdf:RDF>
      <cc:Work
         rdf:about="">
        <dc:format>image/svg+xml</dc:format>
        <dc:type
           rdf:resource="http://purl.org/dc/dcmitype/StillImage" />
      </cc:Work>
    </rdf:RDF>
  </metadata>
  <sodipodi:namedview
     pagecolor="#ffffff"
     bordercolor="#666666"
     borderopacity="1"
     objecttolerance="10"
     gridtolerance="10"
     guidetolerance="10"
     inkscape:pageopacity="0"
     inkscape:pageshadow="2"
     inkscape:window-width="640"
     inkscape:window-height="480"
     id="namedview9"
     showgrid="false"
     inkscape:zoom="14.75"
     inkscape:cx="6.8135593"
     inkscape:cy="8"
     inkscape:window-x="0"
     inkscape:window-y="26"
     inkscape:window-maximized="0"
     inkscape:current-layer="svg7" />
  <defs
     id="defs3">
    <style
       id="current-color-scheme"
       type="text/css">
   .ColorScheme-Text { color:#5c616c; } .ColorScheme-Highlight { color:#5294e2; }
  </style>
  </defs>
  <path
     style="fill:#f1f6f8;fill-opacity:0.8509804"
     class="ColorScheme-Text"
     d="M 9.7851562 0.98632812 C 9.6058244 0.97506172 9.4255594 0.9795875 9.2480469 1 C 7.4815469 1.369 6.6307438 3.2845656 6.0898438 4.9472656 C 5.6167938 6.4576656 5.1670375 8.3052437 3.6484375 8.9648438 C 2.9897975 9.2243437 1.7200312 9.3291031 1.0195312 9.2207031 L 1 14.941406 L 15 14.980469 L 15 9.2597656 C 13.1869 9.5457656 11.140384 9.5036438 9.6464844 8.2773438 C 8.3327844 7.1489437 7.9007294 4.8738344 8.8496094 3.3652344 C 9.7949794 2.2396344 11.759753 2.7087969 12.376953 3.9667969 C 12.887763 4.2327969 12.721979 3.4627562 12.636719 3.1601562 C 12.277391 1.8974438 11.040479 1.065193 9.7851562 0.98632812 z"
     id="path5" />
</svg>
