<?xml version="1.0" encoding="UTF-8" standalone="no"?>
<svg
   xmlns:dc="http://purl.org/dc/elements/1.1/"
   xmlns:cc="http://creativecommons.org/ns#"
   xmlns:rdf="http://www.w3.org/1999/02/22-rdf-syntax-ns#"
   xmlns:svg="http://www.w3.org/2000/svg"
   xmlns="http://www.w3.org/2000/svg"
   xmlns:sodipodi="http://sodipodi.sourceforge.net/DTD/sodipodi-0.dtd"
   xmlns:inkscape="http://www.inkscape.org/namespaces/inkscape"
   width="16"
   height="16"
   viewBox="0 0 16 16"
   version="1.1"
   id="svg7"
   sodipodi:docname="tool_color_eraser.svg"
   inkscape:version="0.92.4 5da689c313, 2019-01-14">
  <metadata
     id="metadata11">
    <rdf:RDF>
      <cc:Work
         rdf:about="">
        <dc:format>image/svg+xml</dc:format>
        <dc:type
           rdf:resource="http://purl.org/dc/dcmitype/StillImage" />
      </cc:Work>
    </rdf:RDF>
  </metadata>
  <sodipodi:namedview
     pagecolor="#ffffff"
     bordercolor="#666666"
     borderopacity="1"
     objecttolerance="10"
     gridtolerance="10"
     guidetolerance="10"
     inkscape:pageopacity="0"
     inkscape:pageshadow="2"
     inkscape:window-width="640"
     inkscape:window-height="480"
     id="namedview9"
     showgrid="false"
     inkscape:zoom="14.75"
     inkscape:cx="6.8135593"
     inkscape:cy="8"
     inkscape:window-x="0"
     inkscape:window-y="26"
     inkscape:window-maximized="0"
     inkscape:current-layer="svg7" />
  <defs
     id="defs3">
    <style
       id="current-color-scheme"
       type="text/css">
   .ColorScheme-Text { color:#5c616c; } .ColorScheme-Highlight { color:#5294e2; }
  </style>
  </defs>
  <path
     style="fill:#f1f6f8;fill-opacity:0.8509804"
     class="ColorScheme-Text"
     d="M 6.9492188 2.0429688 C 6.7179987 2.0842988 6.4323594 2.32767 6.2246094 2.6875 L 1.2246094 11.347656 C 0.94760938 11.827436 0.91833313 12.326334 1.1582031 12.464844 L 5.4882812 14.964844 C 5.7281713 15.103344 6.144875 14.827436 6.421875 14.347656 L 11.421875 5.6875 C 11.698875 5.20772 11.728161 4.7107356 11.488281 4.5722656 L 7.1582031 2.0722656 C 7.0982031 2.0376456 7.0262988 2.0291987 6.9492188 2.0429688 z M 11.496094 8.9980469 C 11.392574 9.2824569 11.252702 9.5613244 11.101562 9.8339844 C 10.331293 11.184084 9.1260656 12.106984 9.0097656 12.958984 C 9.0067656 12.971714 8.9986937 12.985367 8.9960938 12.998047 L 9.0078125 13.001953 C 9.0058125 13.031263 8.9960938 13.060614 8.9960938 13.089844 C 8.9960938 14.144144 10.115394 14.998047 11.496094 14.998047 C 12.876794 14.998047 13.996094 14.144174 13.996094 13.089844 C 13.996094 13.060614 13.989328 13.031253 13.986328 13.001953 L 13.996094 12.998047 C 13.994094 12.985407 13.985622 12.971714 13.982422 12.958984 C 13.866142 12.106924 12.660925 11.182131 11.890625 9.8320312 C 11.739485 9.5593712 11.599604 9.2824569 11.496094 8.9980469 z"
     id="path5" />
</svg>
