<?xml version="1.0" encoding="UTF-8" standalone="no"?>
<svg
   xmlns:dc="http://purl.org/dc/elements/1.1/"
   xmlns:cc="http://creativecommons.org/ns#"
   xmlns:rdf="http://www.w3.org/1999/02/22-rdf-syntax-ns#"
   xmlns:svg="http://www.w3.org/2000/svg"
   xmlns="http://www.w3.org/2000/svg"
   xmlns:sodipodi="http://sodipodi.sourceforge.net/DTD/sodipodi-0.dtd"
   xmlns:inkscape="http://www.inkscape.org/namespaces/inkscape"
   width="24"
   height="24"
   viewBox="0 0 24 24"
   version="1.1"
   id="svg9"
   sodipodi:docname="transform-move-vertical.svg"
   inkscape:version="0.92.4 5da689c313, 2019-01-14">
  <metadata
     id="metadata13">
    <rdf:RDF>
      <cc:Work
         rdf:about="">
        <dc:format>image/svg+xml</dc:format>
        <dc:type
           rdf:resource="http://purl.org/dc/dcmitype/StillImage" />
      </cc:Work>
    </rdf:RDF>
  </metadata>
  <sodipodi:namedview
     pagecolor="#ffffff"
     bordercolor="#666666"
     borderopacity="1"
     objecttolerance="10"
     gridtolerance="10"
     guidetolerance="10"
     inkscape:pageopacity="0"
     inkscape:pageshadow="2"
     inkscape:window-width="715"
     inkscape:window-height="480"
     id="namedview11"
     showgrid="false"
     inkscape:zoom="9.8333333"
     inkscape:cx="14.542373"
     inkscape:cy="12.711864"
     inkscape:window-x="0"
     inkscape:window-y="26"
     inkscape:window-maximized="0"
     inkscape:current-layer="svg9" />
  <defs
     id="defs3">
    <style
       id="current-color-scheme"
       type="text/css">
   .ColorScheme-Text { color:#5c616c; } .ColorScheme-Highlight { color:#5294e2; }
  </style>
  </defs>
  <path
     style="fill:#f1f6f8;fill-opacity:0.8509804"
     class="ColorScheme-Text"
     d="M 13.5 0 A 0.50005 0.50005 0 0 0 13 0.5 L 13 9.4765625 A 0.50005 0.50005 0 0 0 13.5 9.9765625 L 21.492188 9.9765625 A 0.50005 0.50005 0 0 0 21.992188 9.4765625 L 21.992188 0.5 A 0.50005 0.50005 0 0 0 21.492188 0 L 13.5 0 z M 14.501953 0.98632812 L 20.496094 0.98632812 C 20.772224 0.98635812 20.996066 1.2101981 20.996094 1.4863281 L 20.996094 8.484375 C 20.996064 8.760505 20.772224 8.984348 20.496094 8.984375 L 14.501953 8.984375 C 14.225823 8.984345 14.001981 8.760505 14.001953 8.484375 L 14.001953 1.4863281 C 14.001983 1.2101981 14.225823 0.98635512 14.501953 0.98632812 z M 9.5 3.9765625 L 7 6.9765625 L 9 6.9765625 L 9 18.976562 L 10 18.976562 L 10 6.9765625 L 12 6.9765625 L 9.5 3.9765625 z M 13.5 13.976562 A 0.50005 0.50005 0 0 0 13 14.476562 L 13 23.451172 A 0.50005 0.50005 0 0 0 13.5 23.951172 L 21.492188 23.951172 A 0.50005 0.50005 0 0 0 21.992188 23.451172 L 21.992188 14.476562 A 0.50005 0.50005 0 0 0 21.492188 13.976562 L 13.5 13.976562 z M 14.501953 14.962891 L 20.496094 14.962891 C 20.772224 14.962891 20.996064 15.186791 20.996094 15.462891 L 20.996094 22.460938 C 20.996064 22.737037 20.772224 22.960938 20.496094 22.960938 L 14.501953 22.960938 C 14.225823 22.960938 14.001983 22.737037 14.001953 22.460938 L 14.001953 15.462891 C 14.001983 15.186791 14.225823 14.962891 14.501953 14.962891 z"
     id="path5" />
  <path
     style="fill:#f1f6f8;opacity:0.3;fill-opacity:0.20710059"
     class="ColorScheme-Text"
     d="M 14 1 L 14 8.9765625 L 20.992188 8.9765625 L 20.992188 1 L 14 1 z M 14 14.976562 L 14 22.951172 L 20.992188 22.951172 L 20.992188 14.976562 L 14 14.976562 z"
     id="path7" />
</svg>
