<?xml version="1.0" encoding="UTF-8" standalone="no"?>
<svg
   xmlns:dc="http://purl.org/dc/elements/1.1/"
   xmlns:cc="http://creativecommons.org/ns#"
   xmlns:rdf="http://www.w3.org/1999/02/22-rdf-syntax-ns#"
   xmlns:svg="http://www.w3.org/2000/svg"
   xmlns="http://www.w3.org/2000/svg"
   xmlns:sodipodi="http://sodipodi.sourceforge.net/DTD/sodipodi-0.dtd"
   xmlns:inkscape="http://www.inkscape.org/namespaces/inkscape"
   width="24"
   height="24"
   viewBox="0 0 24 24"
   version="1.1"
   id="svg9"
   sodipodi:docname="transform-skew-horizontal.svg"
   inkscape:version="0.92.4 5da689c313, 2019-01-14">
  <metadata
     id="metadata13">
    <rdf:RDF>
      <cc:Work
         rdf:about="">
        <dc:format>image/svg+xml</dc:format>
        <dc:type
           rdf:resource="http://purl.org/dc/dcmitype/StillImage" />
      </cc:Work>
    </rdf:RDF>
  </metadata>
  <sodipodi:namedview
     pagecolor="#ffffff"
     bordercolor="#666666"
     borderopacity="1"
     objecttolerance="10"
     gridtolerance="10"
     guidetolerance="10"
     inkscape:pageopacity="0"
     inkscape:pageshadow="2"
     inkscape:window-width="715"
     inkscape:window-height="480"
     id="namedview11"
     showgrid="false"
     inkscape:zoom="9.8333333"
     inkscape:cx="-0.81355932"
     inkscape:cy="12"
     inkscape:window-x="0"
     inkscape:window-y="26"
     inkscape:window-maximized="0"
     inkscape:current-layer="svg9" />
  <defs
     id="defs3">
    <style
       id="current-color-scheme"
       type="text/css">
   .ColorScheme-Text { color:#5c616c; } .ColorScheme-Highlight { color:#5294e2; }
  </style>
  </defs>
  <path
     style="fill:#f1f6f8;fill-opacity:0.8509804"
     class="ColorScheme-Text"
     d="M 3 0 L 0 2.5 L 3 5 L 3 3 L 6 3 L 6 2 L 3 2 L 3 0 z M 3 5 L 0.25390625 5 A 0.71624863 0.34803699 34.650572 0 0 0.12109375 5.4980469 L 9.7382812 18.5 A 0.71624863 0.34803699 34.650572 0 0 10.607422 18.998047 L 23.746094 18.998047 A 0.71624863 0.34803699 34.650572 0 0 23.878906 18.5 L 14.261719 5.4980469 A 0.71624863 0.34803699 34.650572 0 0 13.392578 5 L 3 5 z M 1.4902344 5.9960938 L 13.628906 5.9960938 L 22.509766 18.003906 L 10.373047 18.003906 L 1.4902344 5.9960938 z M 21 19 L 21 21 L 18 21 L 18 22 L 21 22 L 21 24 L 24 21.5 L 21 19 z"
     id="path5" />
  <path
     style="fill:#f1f6f8;opacity:0.3;fill-opacity:0.17159763"
     class="ColorScheme-Text"
     d="M 1.9921875 6 C 1.7154326 5.99991 1.656172 6.2229869 1.859375 6.4980469 L 10 17.501953 C 10.203354 17.777013 10.592522 18.00009 10.869141 18 L 22.005859 18 C 22.282614 18.00009 22.341875 17.777013 22.138672 17.501953 L 14 6.4980469 C 13.796646 6.2229869 13.407478 5.99991 13.130859 6 L 1.9921875 6 z"
     id="path7" />
</svg>
