<?xml version="1.0" encoding="UTF-8" standalone="no"?>
<svg
   xmlns:dc="http://purl.org/dc/elements/1.1/"
   xmlns:cc="http://creativecommons.org/ns#"
   xmlns:rdf="http://www.w3.org/1999/02/22-rdf-syntax-ns#"
   xmlns:svg="http://www.w3.org/2000/svg"
   xmlns="http://www.w3.org/2000/svg"
   xmlns:sodipodi="http://sodipodi.sourceforge.net/DTD/sodipodi-0.dtd"
   xmlns:inkscape="http://www.inkscape.org/namespaces/inkscape"
   width="16"
   height="16"
   viewBox="0 0 16 16"
   version="1.1"
   id="svg7"
   sodipodi:docname="view-barcode-add.svg"
   inkscape:version="0.92.4 5da689c313, 2019-01-14">
  <metadata
     id="metadata11">
    <rdf:RDF>
      <cc:Work
         rdf:about="">
        <dc:format>image/svg+xml</dc:format>
        <dc:type
           rdf:resource="http://purl.org/dc/dcmitype/StillImage" />
      </cc:Work>
    </rdf:RDF>
  </metadata>
  <sodipodi:namedview
     pagecolor="#ffffff"
     bordercolor="#666666"
     borderopacity="1"
     objecttolerance="10"
     gridtolerance="10"
     guidetolerance="10"
     inkscape:pageopacity="0"
     inkscape:pageshadow="2"
     inkscape:window-width="715"
     inkscape:window-height="480"
     id="namedview9"
     showgrid="false"
     inkscape:zoom="14.75"
     inkscape:cx="-0.54237288"
     inkscape:cy="8"
     inkscape:window-x="0"
     inkscape:window-y="26"
     inkscape:window-maximized="0"
     inkscape:current-layer="svg7" />
  <defs
     id="defs3">
    <style
       id="current-color-scheme"
       type="text/css">
   .ColorScheme-Text { color:#5c616c; } .ColorScheme-Highlight { color:#5294e2; }
  </style>
  </defs>
  <path
     style="fill:#f1f6f8;fill-opacity:0.8509804"
     class="ColorScheme-Text"
     d="M 1 1.0039062 L 1 14.003906 L 3 14.003906 L 3 1.0039062 L 1 1.0039062 z M 4 1.0039062 L 4 7.0039062 L 5 7.0039062 L 5 1.0039062 L 4 1.0039062 z M 6 1.0039062 L 6 14.003906 L 7 14.003906 L 7 1.0039062 L 6 1.0039062 z M 8 1.0039062 L 8 9.0039062 L 9 9.0039062 L 9 1.0039062 L 8 1.0039062 z M 10 1.0039062 L 10 7.0039062 L 11 7.0039062 L 11 1.0039062 L 10 1.0039062 z M 12 1.0039062 L 12 7.0039062 L 15 7.0039062 L 15 1.0039062 L 12 1.0039062 z M 11 8.0039062 A 1.000075 1.000075 0 0 0 10 9.0039062 L 10 10.003906 L 9 10.003906 A 1.000075 1.000075 0 0 0 8 11.003906 L 8 12.003906 A 1.000075 1.000075 0 0 0 9 13.003906 L 10 13.003906 L 10 14.003906 A 1.000075 1.000075 0 0 0 11 15.003906 L 12 15.003906 A 1.000075 1.000075 0 0 0 13 14.003906 L 13 13.003906 L 14 13.003906 A 1.000075 1.000075 0 0 0 15 12.003906 L 15 11.003906 A 1.000075 1.000075 0 0 0 14 10.003906 L 13 10.003906 L 13 9.0039062 A 1.000075 1.000075 0 0 0 12 8.0039062 L 11 8.0039062 z"
     id="path5" />
</svg>
