<?xml version="1.0" encoding="UTF-8" standalone="no"?>
<svg
   xmlns:dc="http://purl.org/dc/elements/1.1/"
   xmlns:cc="http://creativecommons.org/ns#"
   xmlns:rdf="http://www.w3.org/1999/02/22-rdf-syntax-ns#"
   xmlns:svg="http://www.w3.org/2000/svg"
   xmlns="http://www.w3.org/2000/svg"
   xmlns:sodipodi="http://sodipodi.sourceforge.net/DTD/sodipodi-0.dtd"
   xmlns:inkscape="http://www.inkscape.org/namespaces/inkscape"
   width="16"
   height="16"
   viewBox="0 0 16 16"
   version="1.1"
   id="svg7"
   sodipodi:docname="view-bank-account-checking.svg"
   inkscape:version="0.92.4 5da689c313, 2019-01-14">
  <metadata
     id="metadata11">
    <rdf:RDF>
      <cc:Work
         rdf:about="">
        <dc:format>image/svg+xml</dc:format>
        <dc:type
           rdf:resource="http://purl.org/dc/dcmitype/StillImage" />
      </cc:Work>
    </rdf:RDF>
  </metadata>
  <sodipodi:namedview
     pagecolor="#ffffff"
     bordercolor="#666666"
     borderopacity="1"
     objecttolerance="10"
     gridtolerance="10"
     guidetolerance="10"
     inkscape:pageopacity="0"
     inkscape:pageshadow="2"
     inkscape:window-width="715"
     inkscape:window-height="480"
     id="namedview9"
     showgrid="false"
     inkscape:zoom="14.75"
     inkscape:cx="-0.54237288"
     inkscape:cy="8"
     inkscape:window-x="0"
     inkscape:window-y="26"
     inkscape:window-maximized="0"
     inkscape:current-layer="svg7" />
  <defs
     id="defs3">
    <style
       id="current-color-scheme"
       type="text/css">
   .ColorScheme-Text { color:#5c616c; } .ColorScheme-Highlight { color:#5294e2; }
  </style>
  </defs>
  <path
     style="fill:#f1f6f8;fill-opacity:0.8509804"
     class="ColorScheme-Text"
     d="M 7 1 L 0 8 L 2 8 L 2 15 L 10.376953 15 C 10.143093 14.52135 10 13.991934 10 13.427734 C 10 12.030034 10.82389 10.840778 12 10.267578 L 12 8 L 14 8 L 7 1 z M 7 6 C 8.1046 6 9 6.89547 9 8 C 9 9.10453 8.10457 10 7 10 C 9.9999 9.9982 10 12.400391 10 12.400391 L 10 13 L 4 13 L 4 12.400391 C 4 12.400391 3.99989 10.0018 7 10 C 5.8954 10 5 9.10453 5 8 C 5 6.89547 5.89543 6 7 6 z M 13.5 10 L 13.5 10.857422 C 12.1194 10.857422 11 12.007634 11 13.427734 C 11 14.847934 12.1194 16 13.5 16 C 14.8666 16 15.975647 14.870903 15.998047 13.470703 A 0.41663 0.42857 0 0 0 16 13.427734 A 0.41663 0.42857 0 0 0 15.583984 13 A 0.41663 0.42857 0 0 0 15.166016 13.427734 C 15.166016 14.374504 14.42038 15.142578 13.5 15.142578 C 12.57962 15.142578 11.833984 14.374464 11.833984 13.427734 C 11.833984 12.480964 12.57964 11.714844 13.5 11.714844 L 13.5 12.572266 L 15.166016 11.285156 L 13.5 10 z"
     id="path5" />
</svg>
