<?xml version="1.0" encoding="UTF-8" standalone="no"?>
<svg
   xmlns:dc="http://purl.org/dc/elements/1.1/"
   xmlns:cc="http://creativecommons.org/ns#"
   xmlns:rdf="http://www.w3.org/1999/02/22-rdf-syntax-ns#"
   xmlns:svg="http://www.w3.org/2000/svg"
   xmlns="http://www.w3.org/2000/svg"
   xmlns:sodipodi="http://sodipodi.sourceforge.net/DTD/sodipodi-0.dtd"
   xmlns:inkscape="http://www.inkscape.org/namespaces/inkscape"
   width="16"
   height="16"
   viewBox="0 0 16 16"
   version="1.1"
   id="svg7"
   sodipodi:docname="window-previous.svg"
   inkscape:version="0.92.4 5da689c313, 2019-01-14">
  <metadata
     id="metadata11">
    <rdf:RDF>
      <cc:Work
         rdf:about="">
        <dc:format>image/svg+xml</dc:format>
        <dc:type
           rdf:resource="http://purl.org/dc/dcmitype/StillImage" />
      </cc:Work>
    </rdf:RDF>
  </metadata>
  <sodipodi:namedview
     pagecolor="#ffffff"
     bordercolor="#666666"
     borderopacity="1"
     objecttolerance="10"
     gridtolerance="10"
     guidetolerance="10"
     inkscape:pageopacity="0"
     inkscape:pageshadow="2"
     inkscape:window-width="640"
     inkscape:window-height="480"
     id="namedview9"
     showgrid="false"
     inkscape:zoom="14.75"
     inkscape:cx="6.8135593"
     inkscape:cy="8"
     inkscape:window-x="0"
     inkscape:window-y="26"
     inkscape:window-maximized="0"
     inkscape:current-layer="svg7" />
  <defs
     id="defs3">
    <style
       id="current-color-scheme"
       type="text/css">
   .ColorScheme-Text { color:#5c616c; } .ColorScheme-Highlight { color:#5294e2; }
  </style>
  </defs>
  <path
     style="fill:#f1f6f8;fill-opacity:0.8509804"
     class="ColorScheme-Text"
     d="M 1.9980469 1 C 1.9980469 1 1.9183594 1.0044375 1.8183594 1.0234375 C 1.6142394 1.0535875 1.4596731 1.1269325 1.3457031 1.2265625 C 1.3237031 1.2435025 1.30225 1.26163 1.28125 1.28125 C 1.26165 1.30222 1.2434625 1.3236331 1.2265625 1.3457031 C 1.1269325 1.4596831 1.0535375 1.6142394 1.0234375 1.8183594 C 1.0040375 1.9237694 1 2 1 2 L 1 14 C 1 15 2 15 2 15 L 14 15 C 14 15 15 15 15 14 L 15 2 C 15 2 14.995963 1.9237694 14.976562 1.8183594 C 14.946412 1.6142394 14.873038 1.4596731 14.773438 1.3457031 C 14.756437 1.3236331 14.73835 1.30222 14.71875 1.28125 C 14.69785 1.26163 14.676397 1.2435025 14.654297 1.2265625 C 14.540327 1.1269325 14.385761 1.0535875 14.181641 1.0234375 C 14.076201 1.0040975 14 1 14 1 L 13.998047 1 L 1.9980469 1 z M 3 6 L 13 6 L 13 13 L 3 13 L 3 6 z M 8 7 L 5 9.5 L 8 12 L 8 10 L 11 10 L 11 9 L 8 9 L 8 7 z"
     id="path5" />
</svg>
