<?xml version="1.0" encoding="UTF-8" standalone="no"?>
<svg
   xmlns:dc="http://purl.org/dc/elements/1.1/"
   xmlns:cc="http://creativecommons.org/ns#"
   xmlns:rdf="http://www.w3.org/1999/02/22-rdf-syntax-ns#"
   xmlns:svg="http://www.w3.org/2000/svg"
   xmlns="http://www.w3.org/2000/svg"
   xmlns:sodipodi="http://sodipodi.sourceforge.net/DTD/sodipodi-0.dtd"
   xmlns:inkscape="http://www.inkscape.org/namespaces/inkscape"
   width="16"
   height="16"
   viewBox="0 0 16 16"
   version="1.1"
   id="svg7"
   sodipodi:docname="zoom-2-to-1.svg"
   inkscape:version="0.92.4 5da689c313, 2019-01-14">
  <metadata
     id="metadata11">
    <rdf:RDF>
      <cc:Work
         rdf:about="">
        <dc:format>image/svg+xml</dc:format>
        <dc:type
           rdf:resource="http://purl.org/dc/dcmitype/StillImage" />
      </cc:Work>
    </rdf:RDF>
  </metadata>
  <sodipodi:namedview
     pagecolor="#ffffff"
     bordercolor="#666666"
     borderopacity="1"
     objecttolerance="10"
     gridtolerance="10"
     guidetolerance="10"
     inkscape:pageopacity="0"
     inkscape:pageshadow="2"
     inkscape:window-width="640"
     inkscape:window-height="480"
     id="namedview9"
     showgrid="false"
     inkscape:zoom="14.75"
     inkscape:cx="6.8135593"
     inkscape:cy="8"
     inkscape:window-x="0"
     inkscape:window-y="26"
     inkscape:window-maximized="0"
     inkscape:current-layer="svg7" />
  <defs
     id="defs3">
    <style
       id="current-color-scheme"
       type="text/css">
   .ColorScheme-Text { color:#5c616c; } .ColorScheme-Highlight { color:#5294e2; }
  </style>
  </defs>
  <path
     style="fill:#f1f6f8;fill-opacity:0.8509804"
     class="ColorScheme-Text"
     d="M 3.1894531 2 C 2.5267531 2 2.0019531 2.54894 2.0019531 3.21875 L 2.0019531 7 L 4.0019531 7 L 4.0019531 4 L 7.0019531 4 L 7.0019531 2 L 3.1894531 2 z M 9.0019531 2 L 9.0019531 4 L 12.001953 4 L 12.001953 7 L 14.001953 7 L 14.001953 3.21875 C 14.001953 2.54894 13.477153 2 12.814453 2 L 9.0019531 2 z M 5.0019531 5 L 5.0019531 11 L 7.0019531 11 L 7.0019531 5 L 5.0019531 5 z M 8.0019531 6 L 8.0019531 10 L 10.001953 8 L 8.0019531 6 z M 10.001953 8 L 10.001953 10 L 11.001953 10 L 11.001953 6 L 10.001953 6 L 10.001953 8 z M 2.0019531 9 L 2.0019531 12.78125 C 2.0019531 13.45106 2.5267531 14 3.1894531 14 L 7.0019531 14 L 7.0019531 12 L 4.0019531 12 L 4.0019531 9 L 2.0019531 9 z M 12.001953 9 L 12.001953 12 L 9.0019531 12 L 9.0019531 14 L 12.814453 14 C 13.477153 14 14.001953 13.45106 14.001953 12.78125 L 14.001953 9 L 12.001953 9 z"
     id="path5" />
</svg>
