<?xml version="1.0" encoding="UTF-8" standalone="no"?>
<!-- Created with Inkscape (http://www.inkscape.org/) -->

<svg
   xmlns:dc="http://purl.org/dc/elements/1.1/"
   xmlns:cc="http://creativecommons.org/ns#"
   xmlns:rdf="http://www.w3.org/1999/02/22-rdf-syntax-ns#"
   xmlns:svg="http://www.w3.org/2000/svg"
   xmlns="http://www.w3.org/2000/svg"
   xmlns:sodipodi="http://sodipodi.sourceforge.net/DTD/sodipodi-0.dtd"
   xmlns:inkscape="http://www.inkscape.org/namespaces/inkscape"
   id="svg7384"
   sodipodi:docname="drive-removable-media.svg"
   version="1.1"
   inkscape:version="0.92.4 (5da689c313, 2019-01-14)"
   height="36"
   width="36">
  <metadata
     id="metadata90">
    <rdf:RDF>
      <cc:Work
         rdf:about="">
        <dc:format>image/svg+xml</dc:format>
        <dc:type
           rdf:resource="http://purl.org/dc/dcmitype/StillImage" />
        <dc:title>Gnome Symbolic Icon Theme</dc:title>
      </cc:Work>
    </rdf:RDF>
  </metadata>
  <sodipodi:namedview
     inkscape:cy="19.919765"
     pagecolor="#ffffff"
     borderopacity="1"
     showborder="true"
     inkscape:bbox-paths="false"
     guidetolerance="10"
     inkscape:window-width="1920"
     showguides="true"
     inkscape:object-nodes="true"
     inkscape:snap-bbox="true"
     inkscape:pageshadow="2"
     inkscape:guide-bbox="true"
     inkscape:snap-nodes="true"
     bordercolor="#666666"
     objecttolerance="10"
     id="namedview88"
     showgrid="false"
     inkscape:window-maximized="1"
     inkscape:window-x="0"
     inkscape:snap-global="true"
     inkscape:window-y="29"
     gridtolerance="10"
     inkscape:window-height="1025"
     inkscape:snap-to-guides="true"
     inkscape:current-layer="layer13"
     inkscape:zoom="11.313709"
     inkscape:cx="-4.430545"
     inkscape:snap-grids="true"
     inkscape:pageopacity="1">
    <inkscape:grid
       spacingx="1"
       spacingy="1"
       id="grid4866"
       empspacing="2"
       enabled="true"
       type="xygrid"
       snapvisiblegridlinesonly="true"
       visible="true"
       originx="0"
       originy="0" />
  </sodipodi:namedview>
  <title
     id="title9167">Gnome Symbolic Icon Theme</title>
  <defs
     id="defs7386" />
  <g
     inkscape:label="status"
     transform="translate(-442,-156)"
     inkscape:groupmode="layer"
     id="layer9"
     style="display:inline" />
  <g
     inkscape:label="devices"
     transform="translate(-442,-156)"
     inkscape:groupmode="layer"
     id="layer10" />
  <g
     inkscape:label="apps"
     transform="translate(-442,-156)"
     inkscape:groupmode="layer"
     id="layer11" />
  <g
     inkscape:label="actions"
     transform="translate(-442,-156)"
     inkscape:groupmode="layer"
     id="layer12" />
  <g
     inkscape:label="places"
     transform="translate(-442,-156)"
     inkscape:groupmode="layer"
     id="layer13">
    <path
       style="opacity:1;fill:#e8f1f5;fill-opacity:0.50588238"
       d="M 7.9863281 2 C 6.8860381 2 6.10933 2.8914781 6 3.9863281 L 4 24.013672 C 3.89067 25.108522 4.8860381 26 5.9863281 26 L 11.257812 26 L 28 26 L 30 26 L 30.013672 26 C 31.113962 26 32.10933 25.108522 32 24.013672 L 30 3.9863281 C 29.89064 2.8914781 29.113972 2 28.013672 2 L 28 2 L 26 2 L 13.257812 2 L 7.9863281 2 z M 18.394531 3.4414062 C 18.434671 3.4399063 18.474872 3.4445781 18.513672 3.4550781 C 18.631162 3.4874081 18.727491 3.5715337 18.775391 3.6835938 C 18.777391 3.6872937 18.77925 3.6913125 18.78125 3.6953125 L 18.785156 3.7050781 L 20.023438 6.5722656 C 20.137428 6.8363256 19.94386 7.1307994 19.65625 7.1308594 L 18.982422 7.1308594 L 18.982422 14.316406 C 19.071102 14.237506 19.142022 14.129541 19.232422 14.056641 C 19.955202 13.473991 20.695107 12.999046 21.154297 12.410156 C 21.161297 12.354886 21.169781 12.280694 21.175781 12.183594 C 21.187481 11.948984 21.192453 11.641441 21.189453 11.337891 C 21.186953 11.093801 21.177875 10.866397 21.171875 10.654297 L 20.679688 10.654297 C 20.458477 10.654487 20.279107 10.475116 20.279297 10.253906 L 20.279297 7.7949219 C 20.279107 7.5737119 20.458478 7.3943412 20.679688 7.3945312 L 23.134766 7.3945312 C 23.355976 7.3943412 23.535346 7.5737119 23.535156 7.7949219 L 23.535156 10.253906 C 23.535346 10.475116 23.355976 10.654487 23.134766 10.654297 L 22.421875 10.654297 C 22.427575 10.863727 22.433547 11.081842 22.435547 11.326172 C 22.438647 11.644942 22.440681 11.967367 22.425781 12.248047 C 22.418381 12.385847 22.408825 12.513916 22.390625 12.634766 C 22.378405 12.716086 22.354124 12.900556 22.240234 13.072266 C 22.235534 13.078866 22.231562 13.085797 22.226562 13.091797 L 22.224609 13.095703 C 22.213309 13.110903 22.2009 13.125272 22.1875 13.138672 L 22.222656 13.095703 C 21.568016 13.984663 20.662335 14.507987 20.015625 15.029297 C 19.362795 15.555537 18.990234 15.961896 18.990234 16.759766 C 18.990234 16.785366 18.987422 16.810837 18.982422 16.835938 L 18.982422 18.890625 C 18.983422 18.897425 18.983375 18.894356 18.984375 18.910156 C 18.986375 18.936856 18.985422 18.963634 18.982422 18.990234 L 18.982422 20.166016 C 19.778682 20.438416 20.404297 21.101248 20.404297 21.986328 C 20.404297 23.099418 19.493949 24.009766 18.380859 24.009766 C 17.267779 24.009766 16.355469 23.100438 16.355469 21.986328 C 16.355469 21.117198 16.958862 20.462484 17.732422 20.177734 L 17.732422 18.996094 C 17.636572 18.265964 17.005356 17.600764 16.259766 16.964844 C 15.879616 16.640614 15.483184 16.328055 15.152344 15.984375 C 14.822794 15.642015 14.504 15.217676 14.5 14.666016 C 14.4966 14.166336 14.509578 13.829224 14.517578 13.427734 C 13.860728 13.132194 13.355469 12.546113 13.355469 11.783203 C 13.355469 10.745973 14.206097 9.9003906 15.242188 9.9003906 C 16.278278 9.9003906 17.126953 10.747113 17.126953 11.783203 C 17.126953 12.619553 16.523905 13.238352 15.765625 13.482422 C 15.758025 13.870912 15.747 14.19554 15.75 14.65625 C 15.7502 14.68495 15.813251 14.870418 16.050781 15.117188 C 16.291071 15.366797 16.669762 15.670089 17.070312 16.011719 C 17.297292 16.205309 17.502932 16.486937 17.732422 16.716797 L 17.732422 7.1308594 L 17.097656 7.1308594 C 16.807876 7.1298394 16.615265 6.8305963 16.734375 6.5664062 L 18.03125 3.7089844 C 18.03495 3.6976844 18.039922 3.6866812 18.044922 3.6757812 C 18.107622 3.5377113 18.242991 3.4474063 18.394531 3.4414062 z "
       transform="translate(442,156)"
       id="path4250" />
    <path
       inkscape:connector-curvature="0"
       style="opacity:0.813;fill:#e8f1f5;fill-opacity:0.83137256"
       d="m 450.10352,156 c -2.27338,0 -3.87497,1.84165 -4.10352,4.10352 l -2,19.79296 c -0.006,0.0568 -0.003,0.11172 -0.006,0.16797 -0.002,-0.0564 -0.0117,-0.11098 -0.0117,-0.16797 l 0,8 c 0,2.27338 1.83014,4.10352 4.10352,4.10352 l 23.79297,0 c 2.27338,0 4.10351,-1.83014 4.10351,-4.10352 l 0,-7.17382 c 0.0389,-0.26683 0.0462,-0.54344 0.0176,-0.82618 l -2,-19.79296 C 473.77145,157.84165 472.16986,156 469.89648,156 l -19.79296,0 z m -0.11719,2 5.27148,0 12.74219,0 2,0 0.0137,0 c 1.10029,0 1.877,0.89148 1.98633,1.98633 l 2,20.02734 C 474.10933,181.10852 473.11396,182 472.01367,182 l -0.0137,0 -2,0 -16.74219,0 -5.27148,0 c -1.10029,0 -2.09566,-0.89148 -1.98633,-1.98633 l 2,-20.02734 C 448.10933,158.89148 448.88604,158 449.98633,158 Z m -4.00391,25.42187 c 0.63454,0.35847 1.36117,0.57813 2.1211,0.57813 l 23.79296,0 c 0.74595,0 1.45944,-0.21225 2.08594,-0.55859 l 0,4.57226 c 0,1.10029 -0.88604,1.98633 -1.98633,1.98633 l -0.0137,0 -2,0 -16.74218,0 -5.27149,0 c -1.10029,0 -1.98633,-0.88604 -1.98633,-1.98633 l 0,-4.5918 z"
       id="rect4156" />
    <rect
       y="-472"
       x="186"
       height="2"
       width="2"
       id="rect4328"
       style="opacity:0.75;fill:#f5f7f8;fill-opacity:0.94999999;stroke:none"
       transform="matrix(0,1,-1,0,0,0)" />
    <path
       style="opacity:0.2;fill:#e8f1f5;fill-opacity:0.91709846"
       d="M 6.0683594 30.009766 C 5.3224094 30.009766 4.6089219 30.222019 3.9824219 30.568359 L 3.9824219 32.013672 C 3.9824219 33.113962 4.86846 34 5.96875 34 L 29.996094 34 C 31.096384 34 31.982422 33.113962 31.982422 32.013672 L 31.982422 30.587891 C 31.347882 30.229421 30.621258 30.009766 29.861328 30.009766 L 6.0683594 30.009766 z "
       id="path4172"
       transform="translate(442,156)" />
  </g>
  <g
     inkscape:label="mimetypes"
     transform="translate(-442,-156)"
     inkscape:groupmode="layer"
     id="layer14" />
  <g
     inkscape:label="emblems"
     transform="translate(-442,-156)"
     inkscape:groupmode="layer"
     id="layer15"
     style="display:inline" />
</svg>
