<?xml version="1.0" encoding="UTF-8" standalone="no"?>
<!-- Created with Inkscape (http://www.inkscape.org/) -->

<svg
   xmlns:dc="http://purl.org/dc/elements/1.1/"
   xmlns:cc="http://creativecommons.org/ns#"
   xmlns:rdf="http://www.w3.org/1999/02/22-rdf-syntax-ns#"
   xmlns:svg="http://www.w3.org/2000/svg"
   xmlns="http://www.w3.org/2000/svg"
   xmlns:sodipodi="http://sodipodi.sourceforge.net/DTD/sodipodi-0.dtd"
   xmlns:inkscape="http://www.inkscape.org/namespaces/inkscape"
   version="1.1"
   width="36"
   height="36"
   id="svg3021"
   inkscape:version="0.92.3 (2405546, 2018-03-11)"
   sodipodi:docname="folder-video.svg">
  <sodipodi:namedview
     pagecolor="#121212"
     bordercolor="#666666"
     borderopacity="1"
     objecttolerance="10"
     gridtolerance="10"
     guidetolerance="10"
     inkscape:pageopacity="0"
     inkscape:pageshadow="2"
     inkscape:window-width="1920"
     inkscape:window-height="1024"
     id="namedview7"
     showgrid="false"
     inkscape:zoom="7.3750007"
     inkscape:cx="45.308784"
     inkscape:cy="9.8906623"
     inkscape:window-x="0"
     inkscape:window-y="30"
     inkscape:window-maximized="1"
     inkscape:current-layer="svg3021" />
  <defs
     id="defs3023" />
  <metadata
     id="metadata3026">
    <rdf:RDF>
      <cc:Work
         rdf:about="">
        <dc:format>image/svg+xml</dc:format>
        <dc:type
           rdf:resource="http://purl.org/dc/dcmitype/StillImage" />
        <dc:title></dc:title>
      </cc:Work>
    </rdf:RDF>
  </metadata>
  <path
     style="color:#bebebe;display:inline;overflow:visible;visibility:visible;opacity:1;fill:#ffffff;fill-opacity:0.84313726;fill-rule:nonzero;stroke:none;stroke-width:0.94350284;marker:none;enable-background:accumulate"
     id="rect3032"
     inkscape:connector-curvature="0"
     d="m 3.8474576,1.3559321 c -0.940861,0 -1.6983051,0.7574441 -1.6983051,1.6983051 V 33.623729 c 0,0.940861 0.7574441,1.698305 1.6983051,1.698305 H 32.152542 c 0.940861,0 1.698305,-0.757444 1.698305,-1.698305 V 3.0542372 c 0,-0.940861 -0.757444,-1.6983051 -1.698305,-1.6983051 z M 4.4135593,3.6203389 H 6.6779661 V 5.8847457 H 4.4135593 Z m 5.6610167,0 h 15.850847 c 0.627241,0 1.132204,0.5049627 1.132204,1.1322034 V 16.074576 c 0,0.627241 -0.504963,1.132204 -1.132204,1.132204 H 10.074576 c -0.6272404,0 -1.1322031,-0.504963 -1.1322031,-1.132204 V 4.7525423 c 0,-0.6272407 0.5049627,-1.1322034 1.1322031,-1.1322034 z m 19.247458,0 H 31.58644 V 5.8847457 H 29.322034 Z M 4.4135593,8.1491525 H 6.6779661 V 10.413559 H 4.4135593 Z m 24.9084747,0 H 31.58644 V 10.413559 H 29.322034 Z M 4.4135593,12.677966 h 2.2644068 v 2.264407 H 4.4135593 Z m 24.9084747,0 h 2.264406 v 2.264407 H 29.322034 Z M 4.4135593,17.20678 h 2.2644068 v 2.264406 H 4.4135593 Z m 24.9084747,0 h 2.264406 v 2.264406 h -2.264406 z m -19.247458,2.264406 h 15.850847 c 0.627241,0 1.132204,0.504963 1.132204,1.132204 v 11.322034 c 0,0.62724 -0.504963,1.132203 -1.132204,1.132203 H 10.074576 c -0.6272404,0 -1.1322031,-0.504963 -1.1322031,-1.132203 V 20.60339 c 0,-0.627241 0.5049627,-1.132204 1.1322031,-1.132204 z M 4.4135593,21.735593 H 6.6779661 V 24 H 4.4135593 Z m 24.9084747,0 H 31.58644 V 24 H 29.322034 Z M 4.4135593,26.264407 h 2.2644068 v 2.264407 H 4.4135593 Z m 24.9084747,0 h 2.264406 v 2.264407 H 29.322034 Z M 4.4135593,30.79322 h 2.2644068 v 2.264407 H 4.4135593 Z m 24.9084747,0 h 2.264406 v 2.264407 h -2.264406 z" />
  <path
     style="opacity:1;fill:#ffffff;fill-opacity:0.23529412;stroke:none;stroke-width:0.94350284"
     d="m 10.074208,3.6207074 c -0.6272409,0 -1.1314666,0.5042257 -1.1314666,1.1314664 V 16.074207 c 0,0.627241 0.5042257,1.13331 1.1314666,1.13331 h 15.851584 c 0.627241,0 1.131466,-0.506069 1.131466,-1.13331 V 4.7521738 c 0,-0.6272407 -0.504225,-1.1314664 -1.131466,-1.1314664 z"
     id="path8139"
     inkscape:connector-curvature="0" />
  <path
     style="opacity:1;fill:#ffffff;fill-opacity:0.23529412;stroke:none;stroke-width:0.94350284"
     d="m 10.074208,19.47045 c -0.6272409,0 -1.1314666,0.506068 -1.1314666,1.133309 v 11.322034 c 0,0.62724 0.5042257,1.131465 1.1314666,1.131465 h 15.851584 c 0.627241,0 1.131466,-0.504225 1.131466,-1.131465 V 20.603759 c 0,-0.627241 -0.504225,-1.133309 -1.131466,-1.133309 z"
     id="rect4136"
     inkscape:connector-curvature="0" />
</svg>
