<?xml version="1.0" encoding="UTF-8" standalone="no"?>
<!-- Created with Inkscape (http://www.inkscape.org/) -->

<svg
   xmlns:dc="http://purl.org/dc/elements/1.1/"
   xmlns:cc="http://creativecommons.org/ns#"
   xmlns:rdf="http://www.w3.org/1999/02/22-rdf-syntax-ns#"
   xmlns:svg="http://www.w3.org/2000/svg"
   xmlns="http://www.w3.org/2000/svg"
   xmlns:sodipodi="http://sodipodi.sourceforge.net/DTD/sodipodi-0.dtd"
   xmlns:inkscape="http://www.inkscape.org/namespaces/inkscape"
   version="1.1"
   width="36"
   height="36"
   id="svg3021"
   inkscape:version="0.92.3 (2405546, 2018-03-11)"
   sodipodi:docname="folder-pictures-symbolic.svg">
  <sodipodi:namedview
     pagecolor="#1c1c1c"
     bordercolor="#666666"
     borderopacity="1"
     objecttolerance="10"
     gridtolerance="10"
     guidetolerance="10"
     inkscape:pageopacity="0"
     inkscape:pageshadow="2"
     inkscape:window-width="1920"
     inkscape:window-height="1024"
     id="namedview7"
     showgrid="false"
     inkscape:zoom="10.429825"
     inkscape:cx="17.975167"
     inkscape:cy="4.7809484"
     inkscape:window-x="0"
     inkscape:window-y="30"
     inkscape:window-maximized="1"
     inkscape:current-layer="svg3021" />
  <defs
     id="defs3023" />
  <metadata
     id="metadata3026">
    <rdf:RDF>
      <cc:Work
         rdf:about="">
        <dc:format>image/svg+xml</dc:format>
        <dc:type
           rdf:resource="http://purl.org/dc/dcmitype/StillImage" />
        <dc:title />
      </cc:Work>
    </rdf:RDF>
  </metadata>
  <path
     style="opacity:1;fill:#ffffff;fill-opacity:0.84313725;stroke:none;stroke-width:0.94673395"
     d="m 13.702716,4.1915474 c -1.894813,0 -3.003365,0.2057001 -4.1197725,1.3220992 C 8.4665397,6.6300485 7.8226829,8.4518502 6.2675256,8.4518502 H 5.0027482 c -2.2402007,0 -4.04395934,1.8037588 -4.04395934,4.0439598 v 15.343747 c 0,2.240201 1.80375864,4.043959 4.04395934,4.043959 H 30.997252 c 2.240191,0 4.043959,-1.80376 4.043959,-4.043959 V 12.49581 c 0,-2.240201 -1.803768,-4.0439598 -4.043959,-4.0439598 h -1.264778 c -1.555162,0 -2.199019,-1.8218017 -3.315417,-2.9382036 -1.116408,-1.1164095 -2.22495,-1.3220992 -4.119773,-1.3220992 z m 0.09985,2.1301514 h 8.394868 c 1.214669,0 2.549474,0.509928 3.594631,1.5550844 1.045156,1.0451593 1.558367,2.7052188 3.258095,2.7052188 h 1.776976 c 1.154012,0 2.083924,0.929917 2.083924,2.083924 V 27.66944 c 0,1.154007 -0.929912,2.083925 -2.083924,2.083925 H 5.1728645 c -1.1540072,0 -2.0839242,-0.929918 -2.0839242,-2.083925 V 12.665926 c 0,-1.154007 0.929917,-2.083924 2.0839242,-2.083924 h 1.7769752 c 1.6997245,0 2.2129435,-1.6600595 3.2580963,-2.7052188 1.045156,-1.0451564 2.37998,-1.5550844 3.59463,-1.5550844 z M 18,13.682926 A 5.3253785,5.3253785 0 0 0 12.674622,19.008304 5.3253785,5.3253785 0 0 0 18,24.333683 5.3253785,5.3253785 0 0 0 23.325379,19.008304 5.3253785,5.3253785 0 0 0 18,13.682926 Z m 0,2.130151 A 3.1952271,3.1952271 0 0 1 21.195227,19.008304 3.1952271,3.1952271 0 0 1 18,22.203532 3.1952271,3.1952271 0 0 1 14.804773,19.008304 3.1952271,3.1952271 0 0 1 18,15.813077 Z"
     id="path8213"
     inkscape:connector-curvature="0" />
  <path
     style="opacity:1;fill:#ffffff;fill-opacity:0.23529412;stroke:none;stroke-width:0.94673395"
     d="m 13.802566,6.3216988 c -1.21465,0 -2.549474,0.509928 -3.59463,1.5550844 C 9.1627832,8.9219425 8.6495642,10.582002 6.9498397,10.582002 H 5.1728645 c -1.1540072,0 -2.0839242,0.929917 -2.0839242,2.083924 V 27.66944 c 0,1.154007 0.929917,2.083925 2.0839242,2.083925 H 30.827136 c 1.154012,0 2.083924,-0.929918 2.083924,-2.083925 V 12.665926 c 0,-1.154007 -0.929912,-2.083924 -2.083924,-2.083924 H 29.05016 c -1.699728,0 -2.212939,-1.6600595 -3.258095,-2.7052188 C 24.746908,6.8316268 23.412103,6.3216988 22.197434,6.3216988 Z M 18,8.3575466 A 10.650757,10.650757 0 0 1 28.650757,19.008304 10.650757,10.650757 0 0 1 18,29.659061 10.650757,10.650757 0 0 1 7.3492431,19.008304 10.650757,10.650757 0 0 1 18,8.3575466 Z m 0,7.4555304 A 3.1952271,3.1952271 0 0 0 14.804773,19.008304 3.1952271,3.1952271 0 0 0 18,22.203532 3.1952271,3.1952271 0 0 0 21.195227,19.008304 3.1952271,3.1952271 0 0 0 18,15.813077 Z"
     id="rect8180"
     inkscape:connector-curvature="0" />
  <path
     inkscape:connector-curvature="0"
     style="opacity:1;fill:#ffffff;fill-opacity:0.84313725;stroke:none;stroke-width:0.94673395"
     d="M 18,8.357546 A 10.650757,10.650757 0 0 0 7.349244,19.008303 10.650757,10.650757 0 0 0 18,29.65906 10.650757,10.650757 0 0 0 28.650757,19.008303 10.650757,10.650757 0 0 0 18,8.357546 Z m 0,2.130152 A 8.5206056,8.5206056 0 0 1 26.520606,19.008303 8.5206056,8.5206056 0 0 1 18,27.528909 8.5206056,8.5206056 0 0 1 9.4793945,19.008303 8.5206056,8.5206056 0 0 1 18,10.487698 Z"
     id="circle8202" />
</svg>
