<?xml version="1.0" encoding="UTF-8" standalone="no"?>
<!-- Created with Inkscape (http://www.inkscape.org/) -->

<svg
   xmlns:dc="http://purl.org/dc/elements/1.1/"
   xmlns:cc="http://creativecommons.org/ns#"
   xmlns:rdf="http://www.w3.org/1999/02/22-rdf-syntax-ns#"
   xmlns:svg="http://www.w3.org/2000/svg"
   xmlns="http://www.w3.org/2000/svg"
   xmlns:sodipodi="http://sodipodi.sourceforge.net/DTD/sodipodi-0.dtd"
   xmlns:inkscape="http://www.inkscape.org/namespaces/inkscape"
   width="128"
   height="128"
   viewBox="0 0 33.866666 33.866668"
   version="1.1"
   id="svg830"
   inkscape:version="0.92.2 5c3e80d, 2017-08-06"
   sodipodi:docname="application-apk.svg">
  <defs
     id="defs824" />
  <sodipodi:namedview
     id="base"
     pagecolor="#ffffff"
     bordercolor="#666666"
     borderopacity="1.0"
     inkscape:pageopacity="0.0"
     inkscape:pageshadow="2"
     inkscape:zoom="3.959798"
     inkscape:cx="46.023991"
     inkscape:cy="44.734552"
     inkscape:document-units="mm"
     inkscape:current-layer="layer1"
     showgrid="false"
     units="px"
     inkscape:window-width="1600"
     inkscape:window-height="814"
     inkscape:window-x="0"
     inkscape:window-y="0"
     inkscape:window-maximized="1" />
  <metadata
     id="metadata827">
    <rdf:RDF>
      <cc:Work
         rdf:about="">
        <dc:format>image/svg+xml</dc:format>
        <dc:type
           rdf:resource="http://purl.org/dc/dcmitype/StillImage" />
        <dc:title></dc:title>
      </cc:Work>
    </rdf:RDF>
  </metadata>
  <g
     inkscape:label="Layer 1"
     inkscape:groupmode="layer"
     id="layer1"
     transform="translate(0,-263.13332)">
    <g
       transform="matrix(0.2347711,0,0,0.2347711,-0.02861802,227.30159)"
       id="layer1-9"
       inkscape:label="Layer 1"
       style="stroke-width:3.99325132">
      <g
         transform="matrix(0.77701083,0,0,0.77701083,414.0406,216.91761)"
         id="g4146"
         style="stroke-width:3.99325132">
        <path
           inkscape:connector-curvature="0"
           id="path4623"
           d="m -440.37161,-64.326787 c -45.1218,0 -81.62522,35.583799 -83.09829,80.334629 v 13.514421 31.092675 30.379024 c 0,5.796726 4.66672,10.463448 10.46345,10.463448 h 11.94657 122.35944 11.94654 c 5.79673,0 10.46345,-4.666722 10.46345,-10.463448 V 59.211922 29.522263 17.410857 c -0.74715,-45.407874 -37.54101,-81.737644 -83.13342,-81.737644 z"
           style="opacity:0.2;fill:#000000;fill-opacity:1;stroke:none;stroke-width:4.05802298;stroke-linecap:round;stroke-linejoin:round;stroke-miterlimit:4;stroke-dasharray:none;stroke-opacity:1" />
        <g
           id="g4569"
           style="fill:#93c757;fill-opacity:1;stroke-width:3.99325132">
          <rect
             transform="rotate(-58.441526)"
             ry="4.4767647"
             y="-370.71439"
             x="-178.29784"
             height="8.9535294"
             width="47.97488"
             id="rect4551"
             style="opacity:1;fill:#93c757;fill-opacity:1;stroke:none;stroke-width:3.32637835;stroke-linecap:round;stroke-linejoin:round;stroke-miterlimit:4;stroke-dasharray:none;stroke-opacity:1" />
          <rect
             style="opacity:1;fill:#93c757;fill-opacity:1;stroke:none;stroke-width:3.32637835;stroke-linecap:round;stroke-linejoin:round;stroke-miterlimit:4;stroke-dasharray:none;stroke-opacity:1"
             id="rect4553"
             width="47.97488"
             height="8.9535294"
             x="282.00293"
             y="378.7103"
             ry="4.4767647"
             transform="matrix(-0.52336847,-0.85210648,-0.85210648,0.52336847,0,0)" />
        </g>
        <path
           style="opacity:1;fill:#93c757;fill-opacity:1;stroke:none;stroke-width:4.05802298;stroke-linecap:round;stroke-linejoin:round;stroke-miterlimit:4;stroke-dasharray:none;stroke-opacity:1"
           d="m -440.37161,-66.443455 c -45.1218,0 -81.62522,35.583799 -83.09829,80.334629 V 27.405595 58.49827 88.877294 c 0,5.796726 4.66672,10.463446 10.46345,10.463446 h 11.94657 122.35944 11.94654 c 5.79673,0 10.46345,-4.66672 10.46345,-10.463446 V 57.095254 27.405595 15.294189 c -0.74715,-45.407874 -37.54101,-81.737644 -83.13342,-81.737644 z"
           id="rect4528"
           inkscape:connector-curvature="0" />
        <path
           inkscape:connector-curvature="0"
           style="opacity:1;fill:#87ba4c;fill-opacity:1;stroke:none;stroke-width:15.33740997;stroke-linecap:round;stroke-linejoin:round;stroke-miterlimit:4;stroke-dasharray:none;stroke-opacity:1"
           d="m -1347.9238,33.626953 -630.545,24.78125 301.625,317.052737 h 245.5352 45.1524 c 21.9089,0 39.5468,-17.63799 39.5468,-39.54688 V 215.79297 103.58008 57.804688 c -0.1339,-8.140713 -0.5784,-16.202416 -1.3144,-24.177735 z"
           transform="scale(0.26458333)"
           id="path4618" />
        <path
           inkscape:connector-curvature="0"
           id="path4625"
           d="m -440.37179,-63.762377 c -45.1218,0 -81.62522,35.583802 -83.09829,80.334631 v 1.562695 h 167.17946 v -0.15968 c -0.74715,-45.407873 -37.54101,-81.737646 -83.13342,-81.737646 z"
           style="opacity:0.15;fill:#000000;fill-opacity:1;stroke:none;stroke-width:4.05802298;stroke-linecap:round;stroke-linejoin:round;stroke-miterlimit:4;stroke-dasharray:none;stroke-opacity:1" />
        <path
           style="opacity:1;fill:#93c756;fill-opacity:1;stroke:none;stroke-width:4.05802298;stroke-linecap:round;stroke-linejoin:round;stroke-miterlimit:4;stroke-dasharray:none;stroke-opacity:1"
           d="m -440.37179,-66.443489 c -45.1218,0 -81.62522,35.583802 -83.09829,80.334631 v 1.562695 h 167.17946 v -0.15968 c -0.74715,-45.407873 -37.54101,-81.737646 -83.13342,-81.737646 z"
           id="path4538"
           inkscape:connector-curvature="0" />
        <g
           id="g4563"
           style="stroke-width:3.99325132">
          <circle
             r="11.244792"
             cy="-19.416674"
             cx="-475.02155"
             id="path4543"
             style="opacity:1;fill:#fcfcfc;fill-opacity:1;stroke:none;stroke-width:4.52387428;stroke-linecap:round;stroke-linejoin:round;stroke-miterlimit:4;stroke-dasharray:none;stroke-opacity:1" />
          <circle
             style="opacity:1;fill:#fcfcfc;fill-opacity:1;stroke:none;stroke-width:4.52387428;stroke-linecap:round;stroke-linejoin:round;stroke-miterlimit:4;stroke-dasharray:none;stroke-opacity:1"
             id="circle4545"
             cx="-404.60727"
             cy="-19.416674"
             r="11.244792" />
        </g>
      </g>
    </g>
  </g>
</svg>
