<?xml version="1.0" encoding="UTF-8" standalone="no"?>
<!-- Created with Inkscape (http://www.inkscape.org/) -->

<svg
   xmlns:osb="http://www.openswatchbook.org/uri/2009/osb"
   xmlns:dc="http://purl.org/dc/elements/1.1/"
   xmlns:cc="http://creativecommons.org/ns#"
   xmlns:rdf="http://www.w3.org/1999/02/22-rdf-syntax-ns#"
   xmlns:svg="http://www.w3.org/2000/svg"
   xmlns="http://www.w3.org/2000/svg"
   xmlns:xlink="http://www.w3.org/1999/xlink"
   xmlns:sodipodi="http://sodipodi.sourceforge.net/DTD/sodipodi-0.dtd"
   xmlns:inkscape="http://www.inkscape.org/namespaces/inkscape"
   width="128"
   height="128"
   viewBox="0 0 33.866666 33.866668"
   version="1.1"
   id="svg8"
   inkscape:version="0.92.2 5c3e80d, 2017-08-06"
   sodipodi:docname="application-table.svg">
  <defs
     id="defs2">
    <linearGradient
       id="linearGradient1830">
      <stop
         id="stop1826"
         style="stop-color:#d9d9d9;stop-opacity:1"
         offset="0" />
      <stop
         id="stop1828"
         style="stop-color:#ffffff;stop-opacity:1;"
         offset="1" />
    </linearGradient>
    <linearGradient
       osb:paint="solid"
       id="linearGradient6987">
      <stop
         id="stop6985"
         offset="0"
         style="stop-color:#77d2fb;stop-opacity:1;" />
    </linearGradient>
    <linearGradient
       inkscape:collect="always"
       id="linearGradient4730">
      <stop
         style="stop-color:#196138;stop-opacity:1"
         offset="0"
         id="stop4732" />
      <stop
         style="stop-color:#318358;stop-opacity:1"
         offset="1"
         id="stop4734" />
    </linearGradient>
    <linearGradient
       y2="233.70825"
       x2="46.972088"
       y1="232.64992"
       x1="-6.8459705"
       gradientTransform="matrix(0.20006137,0,0,0.19453105,45.823456,238.85125)"
       gradientUnits="userSpaceOnUse"
       id="linearGradient4614"
       xlink:href="#linearGradient4730"
       inkscape:collect="always" />
    <linearGradient
       inkscape:collect="always"
       xlink:href="#linearGradient1830"
       id="linearGradient1503-8"
       x1="29.203474"
       y1="263.52237"
       x2="4.5843229"
       y2="296.16849"
       gradientUnits="userSpaceOnUse"
       gradientTransform="matrix(1.0010487,0,0,1.0010383,1.5591016,-0.26586232)" />
  </defs>
  <sodipodi:namedview
     id="base"
     pagecolor="#ffffff"
     bordercolor="#666666"
     borderopacity="1.0"
     inkscape:pageopacity="0.0"
     inkscape:pageshadow="2"
     inkscape:zoom="1.4"
     inkscape:cx="44.644248"
     inkscape:cy="31.719716"
     inkscape:document-units="mm"
     inkscape:current-layer="layer1"
     showgrid="false"
     units="px"
     inkscape:window-width="1600"
     inkscape:window-height="814"
     inkscape:window-x="0"
     inkscape:window-y="0"
     inkscape:window-maximized="1"
     showguides="false" />
  <metadata
     id="metadata5">
    <rdf:RDF>
      <cc:Work
         rdf:about="">
        <dc:format>image/svg+xml</dc:format>
        <dc:type
           rdf:resource="http://purl.org/dc/dcmitype/StillImage" />
        <dc:title />
      </cc:Work>
    </rdf:RDF>
  </metadata>
  <g
     inkscape:label="Layer 1"
     inkscape:groupmode="layer"
     id="layer1"
     transform="translate(0,-263.13332)">
    <path
       style="opacity:0.25;fill:#000000;fill-opacity:1;stroke:none;stroke-width:1.87499988;stroke-miterlimit:4;stroke-dasharray:none;stroke-opacity:1"
       d="M 6.1482316,264.12318 V 296.7354 H 30.872154 v -18.3 c -0.04716,-0.8313 -0.101653,-1.57532 -0.312496,-2.32966 -0.21448,-0.76736 -0.552469,-1.49394 -0.956412,-2.18925 -0.516871,-0.8897 -1.39035,-1.46334 -2.166671,-2.19248 -0.47098,-0.42711 -1.488209,-1.44169 -2.719481,-2.65304 -1.221196,-1.20143 -2.653456,-2.59692 -3.849171,-3.68107 -0.35316,-0.3187 -0.866164,-0.64943 -1.342771,-0.84044 -0.370088,-0.14831 -0.80547,-0.24063 -1.22583,-0.30267 -0.433449,-0.064 -0.850926,-0.0958 -1.164384,-0.12361 z"
       id="path5023-4"
       inkscape:connector-curvature="0"
       sodipodi:nodetypes="ccccascscsscc" />
    <path
       sodipodi:nodetypes="ccccascscsscc"
       inkscape:connector-curvature="0"
       id="path4623-8"
       d="m 6.1482316,263.5979 v 32.61222 H 30.872154 v -18.3 c -0.04716,-0.83129 -0.101653,-1.57532 -0.312496,-2.32966 -0.21448,-0.76736 -0.552469,-1.49394 -0.956412,-2.18925 -0.516871,-0.88969 -1.39035,-1.46334 -2.166671,-2.19247 -0.47098,-0.42712 -1.488209,-1.4417 -2.719481,-2.65305 -1.221196,-1.20142 -2.653456,-2.59692 -3.849171,-3.68107 -0.35316,-0.3187 -0.866164,-0.64944 -1.342771,-0.84044 -0.370088,-0.14831 -0.80547,-0.24063 -1.22583,-0.30267 -0.433449,-0.064 -0.850926,-0.0958 -1.164384,-0.12361 z"
       style="opacity:1;fill:url(#linearGradient1503-8);fill-opacity:1;stroke:#808080;stroke-width:0.30000001;stroke-miterlimit:4;stroke-dasharray:none;stroke-opacity:1" />
    <g
       id="g2117"
       transform="translate(-41.680765,-1.1078858)">
      <rect
         y="267.58694"
         x="50.561131"
         height="2.7712202"
         width="5.5517154"
         id="rect4935"
         style="opacity:1;fill:#afafaf;fill-opacity:1;fill-rule:evenodd;stroke:none;stroke-width:0.35433072;stroke-linecap:round;stroke-linejoin:bevel;stroke-miterlimit:4;stroke-dasharray:none;stroke-opacity:1" />
      <rect
         style="opacity:1;fill:#afafaf;fill-opacity:1;fill-rule:evenodd;stroke:none;stroke-width:0.35433072;stroke-linecap:round;stroke-linejoin:bevel;stroke-miterlimit:4;stroke-dasharray:none;stroke-opacity:1"
         id="rect4937"
         width="5.5517154"
         height="2.7712202"
         x="57.173199"
         y="267.58694" />
      <rect
         style="opacity:1;fill:#afafaf;fill-opacity:1;fill-rule:evenodd;stroke:none;stroke-width:0.35433072;stroke-linecap:round;stroke-linejoin:bevel;stroke-miterlimit:4;stroke-dasharray:none;stroke-opacity:1"
         id="rect4948"
         width="5.5517154"
         height="2.7712202"
         x="50.561131"
         y="271.44952" />
      <rect
         y="271.44952"
         x="57.173195"
         height="2.7712202"
         width="5.5517154"
         id="rect4950"
         style="opacity:1;fill:#92c897;fill-opacity:1;fill-rule:evenodd;stroke:none;stroke-width:0.35433072;stroke-linecap:round;stroke-linejoin:bevel;stroke-miterlimit:4;stroke-dasharray:none;stroke-opacity:1" />
      <path
         sodipodi:nodetypes="cccccc"
         inkscape:connector-curvature="0"
         id="rect4952"
         d="m 63.758702,271.44953 3.759332,0.35882 1.769156,0.70792 v 1.70449 h -5.528488 z"
         style="opacity:1;fill:#92c897;fill-opacity:1;fill-rule:evenodd;stroke:none;stroke-width:0.35433072;stroke-linecap:round;stroke-linejoin:bevel;stroke-miterlimit:4;stroke-dasharray:none;stroke-opacity:1" />
      <rect
         y="275.66376"
         x="50.561131"
         height="2.7712202"
         width="5.5517154"
         id="rect4956"
         style="opacity:1;fill:#afafaf;fill-opacity:1;fill-rule:evenodd;stroke:none;stroke-width:0.35433072;stroke-linecap:round;stroke-linejoin:bevel;stroke-miterlimit:4;stroke-dasharray:none;stroke-opacity:1" />
      <rect
         style="opacity:1;fill:#92c897;fill-opacity:1;fill-rule:evenodd;stroke:none;stroke-width:0.35433072;stroke-linecap:round;stroke-linejoin:bevel;stroke-miterlimit:4;stroke-dasharray:none;stroke-opacity:1"
         id="rect4958"
         width="5.5517154"
         height="2.7712202"
         x="57.173199"
         y="275.66376" />
      <rect
         y="275.66376"
         x="63.758705"
         height="2.7712202"
         width="5.5052576"
         id="rect4960"
         style="opacity:1;fill:#92c897;fill-opacity:1;fill-rule:evenodd;stroke:none;stroke-width:0.35433072;stroke-linecap:round;stroke-linejoin:bevel;stroke-miterlimit:4;stroke-dasharray:none;stroke-opacity:1" />
      <g
         style="fill:#92c897;fill-opacity:1;stroke-width:4.03046417"
         transform="matrix(0.24831791,0,0,0.24790304,8.5823212,227.97954)"
         id="g4973">
        <rect
           y="207.86853"
           x="169.05269"
           height="11.178645"
           width="22.35729"
           id="rect4975"
           style="opacity:1;fill:#92c897;fill-opacity:1;fill-rule:evenodd;stroke:none;stroke-width:1.42811728;stroke-linecap:round;stroke-linejoin:bevel;stroke-miterlimit:4;stroke-dasharray:none;stroke-opacity:1" />
        <rect
           style="opacity:1;fill:#92c897;fill-opacity:1;fill-rule:evenodd;stroke:none;stroke-width:1.42811728;stroke-linecap:round;stroke-linejoin:bevel;stroke-miterlimit:4;stroke-dasharray:none;stroke-opacity:1"
           id="rect4977"
           width="22.35729"
           height="11.178645"
           x="195.68011"
           y="207.86853" />
        <rect
           y="207.86855"
           x="222.20058"
           height="11.178645"
           width="22.1702"
           id="rect4979"
           style="opacity:1;fill:#92c897;fill-opacity:1;fill-rule:evenodd;stroke:none;stroke-width:1.42811728;stroke-linecap:round;stroke-linejoin:bevel;stroke-miterlimit:4;stroke-dasharray:none;stroke-opacity:1" />
      </g>
      <g
         style="fill:#92c897;fill-opacity:1;stroke-width:4.03046417"
         id="g4981"
         transform="matrix(0.24831791,0,0,0.24790304,8.5823212,231.87544)">
        <rect
           style="opacity:1;fill:#92c897;fill-opacity:1;fill-rule:evenodd;stroke:none;stroke-width:1.42811728;stroke-linecap:round;stroke-linejoin:bevel;stroke-miterlimit:4;stroke-dasharray:none;stroke-opacity:1"
           id="rect4983"
           width="22.35729"
           height="11.178645"
           x="169.05269"
           y="207.86853" />
        <rect
           y="207.86853"
           x="195.68011"
           height="11.178645"
           width="22.35729"
           id="rect4985"
           style="opacity:1;fill:#92c897;fill-opacity:1;fill-rule:evenodd;stroke:none;stroke-width:1.42811728;stroke-linecap:round;stroke-linejoin:bevel;stroke-miterlimit:4;stroke-dasharray:none;stroke-opacity:1" />
        <rect
           style="opacity:1;fill:#92c897;fill-opacity:1;fill-rule:evenodd;stroke:none;stroke-width:1.42811728;stroke-linecap:round;stroke-linejoin:bevel;stroke-miterlimit:4;stroke-dasharray:none;stroke-opacity:1"
           id="rect4987"
           width="22.1702"
           height="11.178645"
           x="222.20058"
           y="207.86855" />
      </g>
      <g
         style="fill:#92c897;fill-opacity:1;stroke-width:4.03046417"
         transform="matrix(0.24831791,0,0,0.24790304,8.5823212,235.77447)"
         id="g4989">
        <rect
           y="207.86853"
           x="169.05269"
           height="11.178645"
           width="22.35729"
           id="rect4991"
           style="opacity:1;fill:#92c897;fill-opacity:1;fill-rule:evenodd;stroke:none;stroke-width:1.42811728;stroke-linecap:round;stroke-linejoin:bevel;stroke-miterlimit:4;stroke-dasharray:none;stroke-opacity:1" />
        <rect
           style="opacity:1;fill:#92c897;fill-opacity:1;fill-rule:evenodd;stroke:none;stroke-width:1.42811728;stroke-linecap:round;stroke-linejoin:bevel;stroke-miterlimit:4;stroke-dasharray:none;stroke-opacity:1"
           id="rect4993"
           width="22.35729"
           height="11.178645"
           x="195.68011"
           y="207.86853" />
        <rect
           y="207.86855"
           x="222.20058"
           height="11.178645"
           width="22.1702"
           id="rect4995"
           style="opacity:1;fill:#92c897;fill-opacity:1;fill-rule:evenodd;stroke:none;stroke-width:1.42811728;stroke-linecap:round;stroke-linejoin:bevel;stroke-miterlimit:4;stroke-dasharray:none;stroke-opacity:1" />
      </g>
      <rect
         y="291.16034"
         x="50.561131"
         height="2.7712202"
         width="5.5517154"
         id="rect4999"
         style="opacity:1;fill:#afafaf;fill-opacity:1;fill-rule:evenodd;stroke:none;stroke-width:0.35433072;stroke-linecap:round;stroke-linejoin:bevel;stroke-miterlimit:4;stroke-dasharray:none;stroke-opacity:1" />
      <rect
         style="opacity:1;fill:#92c897;fill-opacity:1;fill-rule:evenodd;stroke:none;stroke-width:0.35433072;stroke-linecap:round;stroke-linejoin:bevel;stroke-miterlimit:4;stroke-dasharray:none;stroke-opacity:1"
         id="rect5001"
         width="5.5517154"
         height="2.7712202"
         x="57.173199"
         y="291.16034" />
      <rect
         y="291.16034"
         x="63.758705"
         height="2.7712202"
         width="5.5052576"
         id="rect5003"
         style="opacity:1;fill:#92c897;fill-opacity:1;fill-rule:evenodd;stroke:none;stroke-width:0.35433072;stroke-linecap:round;stroke-linejoin:bevel;stroke-miterlimit:4;stroke-dasharray:none;stroke-opacity:1" />
    </g>
    <path
       sodipodi:nodetypes="ccccsccsc"
       inkscape:connector-curvature="0"
       id="path1355-8"
       d="m 21.328004,265.50926 c 0.01633,0.0263 0.561139,0.90462 0.727791,1.39886 0.451585,1.01234 0.25858,3.97236 0.250369,5.65885 0.02772,-0.19401 4.690513,-1.39583 7.111042,0.80464 -0.01547,-0.0273 -0.04888,-0.0804 -0.12512,-0.18628 -0.07235,-0.10046 -0.182749,-0.24915 -0.371644,-0.44224 -0.528108,-0.60452 -0.230926,-0.0845 -0.805409,-0.682 -0.496688,-0.45047 -1.569491,-1.52048 -2.867987,-2.79805 -1.241182,-1.22116 -2.686924,-2.62954 -3.919042,-3.75378 z"
       style="opacity:0.24800002;fill:#000000;fill-opacity:1;stroke:none;stroke-width:0.30000001;stroke-miterlimit:4;stroke-dasharray:none;stroke-opacity:1" />
    <path
       style="opacity:1;fill:#ffffff;fill-opacity:1;stroke:#808080;stroke-width:0.30000001;stroke-miterlimit:4;stroke-dasharray:none;stroke-opacity:1"
       d="m 21.0009,264.98645 c 0.01548,0.0249 0.53209,0.85773 0.690114,1.32635 0.428208,0.95987 0.292236,3.21802 0.28445,4.8171 0.428992,-0.0223 5.159507,-0.73701 7.328403,1.82407 -0.02928,-0.0506 -0.102779,-0.0927 -0.143771,-0.17312 -0.500768,-0.57318 -1.139582,-1.03373 -1.723521,-1.58216 -0.470975,-0.42712 -1.488241,-1.44167 -2.719516,-2.65302 -1.176928,-1.15787 -2.547826,-2.49325 -3.716159,-3.55922 z"
       id="path4753-0"
       inkscape:connector-curvature="0"
       sodipodi:nodetypes="ccccccsc" />
    <g
       style="stroke-width:4.08449793"
       inkscape:transform-center-y="-9.4924686"
       inkscape:transform-center-x="5.4653607"
       inkscape:label="Capa 1"
       id="layer1-4-3"
       transform="matrix(0.53602412,0,0,0.5372689,-233.35679,-13.760303)">
      <g
         style="stroke-width:4.08449793"
         id="layer1-3-65-9"
         inkscape:label="Capa 1"
         transform="translate(0.41988239,0.03484499)" />
    </g>
    <g
       style="stroke-width:4.08449793"
       inkscape:transform-center-y="-9.4924686"
       inkscape:transform-center-x="5.4653607"
       inkscape:label="Capa 1"
       id="layer1-4"
       transform="matrix(0.53602412,0,0,0.5372689,-236.26329,-13.760297)">
      <g
         style="stroke-width:4.08449793"
         id="layer1-3-65"
         inkscape:label="Capa 1"
         transform="translate(0.41988239,0.03484499)" />
    </g>
    <g
       id="g2092"
       transform="translate(-41.668746,-1.1022873)">
      <path
         style="opacity:1;fill:url(#linearGradient4614);fill-opacity:1;fill-rule:evenodd;stroke:none;stroke-width:0.09375;stroke-linecap:butt;stroke-linejoin:miter;stroke-miterlimit:4;stroke-dasharray:none;stroke-opacity:1"
         d="m 56.268301,275.20456 0.425195,0.0881 -0.0039,17.63635 -0.425195,0.0842 -11.801142,-1.76287 0.0089,-14.58193 c 3.907064,-0.48155 7.867638,-0.98489 11.796179,-1.46382 z"
         id="path4612"
         inkscape:connector-curvature="0"
         sodipodi:nodetypes="ccccccc" />
      <path
         sodipodi:nodetypes="cccscsccssssssccscscscsccssc"
         inkscape:connector-curvature="0"
         id="path4907"
         d="m 52.879867,280.54214 c -0.473341,0.004 -0.979806,0.0301 -1.429378,0.0779 l -0.482233,1.01282 c -0.265226,0.55705 -0.516367,1.11324 -0.558072,1.23598 -0.04171,0.12274 -0.08709,0.22316 -0.10086,0.22316 -0.01378,0 -0.05491,-0.0882 -0.09137,-0.196 -0.03646,-0.10779 -0.258563,-0.64082 -0.493653,-1.18448 l -0.42744,-0.98848 -0.475432,0.008 c -0.672755,0.0117 -1.042744,0.0424 -1.042744,0.0867 0,0.0206 0.355939,0.7278 0.790975,1.57162 0.435035,0.84382 0.790977,1.55269 0.790977,1.57521 0,0.0225 -0.38689,0.72538 -0.859756,1.56201 -0.472867,0.83664 -0.859756,1.54491 -0.859756,1.5738 0,0.0442 0.09134,0.0558 0.576035,0.074 0.316821,0.0119 0.630204,0.0285 0.696403,0.0369 0.0662,0.008 0.139107,0.004 0.162069,-0.0106 0.05465,-0.0339 0.958522,-1.88033 1.061609,-2.1686 0.04378,-0.12243 0.09395,-0.22736 0.111383,-0.23316 0.01743,-0.006 0.04851,0.0558 0.06916,0.13682 0.03458,0.13564 1.04623,2.31416 1.099847,2.36845 0.01299,0.0132 0.302173,0.0379 0.642637,0.055 0.871588,0.0436 0.973739,0.0449 0.993468,0.0131 0.0093,-0.016 -0.409164,-0.79568 -0.930333,-1.73304 l -0.947914,-1.70485 0.91519,-1.66296 c 0.5034,-0.91464 0.91532,-1.68104 0.91532,-1.70319 0,-0.0151 -0.03608,-0.0237 -0.12614,-0.0263 z"
         style="fill:#ffffff;fill-opacity:1;stroke-width:1" />
    </g>
  </g>
</svg>
