<?xml version="1.0" encoding="UTF-8" standalone="no"?>
<!-- Created with Inkscape (http://www.inkscape.org/) -->

<svg
   xmlns:osb="http://www.openswatchbook.org/uri/2009/osb"
   xmlns:dc="http://purl.org/dc/elements/1.1/"
   xmlns:cc="http://creativecommons.org/ns#"
   xmlns:rdf="http://www.w3.org/1999/02/22-rdf-syntax-ns#"
   xmlns:svg="http://www.w3.org/2000/svg"
   xmlns="http://www.w3.org/2000/svg"
   xmlns:xlink="http://www.w3.org/1999/xlink"
   xmlns:sodipodi="http://sodipodi.sourceforge.net/DTD/sodipodi-0.dtd"
   xmlns:inkscape="http://www.inkscape.org/namespaces/inkscape"
   width="128"
   height="128"
   viewBox="0 0 33.866666 33.866668"
   version="1.1"
   id="svg1038"
   inkscape:version="0.92.2 5c3e80d, 2017-08-06"
   sodipodi:docname="gnome-mime-application-pdf.svg">
  <defs
     id="defs1032">
    <linearGradient
       osb:paint="solid"
       id="linearGradient6987">
      <stop
         id="stop6985"
         offset="0"
         style="stop-color:#77d2fb;stop-opacity:1;" />
    </linearGradient>
    <linearGradient
       osb:paint="solid"
       id="h">
      <stop
         id="stop1059"
         stop-opacity=".196"
         offset="0" />
    </linearGradient>
    <linearGradient
       osb:paint="solid"
       id="g">
      <stop
         id="stop1062"
         stop-opacity=".162"
         stop-color="#fff"
         offset="0" />
    </linearGradient>
    <linearGradient
       osb:paint="solid"
       id="f">
      <stop
         id="stop1065"
         stop-opacity=".078"
         offset="0" />
    </linearGradient>
    <linearGradient
       osb:paint="solid"
       id="e">
      <stop
         id="stop1068"
         stop-opacity=".157"
         offset="0" />
    </linearGradient>
    <linearGradient
       id="linearGradient1830">
      <stop
         id="stop1826"
         style="stop-color:#d9d9d9;stop-opacity:1"
         offset="0" />
      <stop
         id="stop1828"
         style="stop-color:#ffffff;stop-opacity:1;"
         offset="1" />
    </linearGradient>
    <linearGradient
       inkscape:collect="always"
       xlink:href="#linearGradient1830"
       id="linearGradient1503-8"
       x1="29.203474"
       y1="263.52237"
       x2="4.5843229"
       y2="296.16849"
       gradientUnits="userSpaceOnUse"
       gradientTransform="matrix(1.0010487,0,0,1.0010383,-37.248412,-0.29086231)" />
  </defs>
  <sodipodi:namedview
     id="base"
     pagecolor="#ffffff"
     bordercolor="#666666"
     borderopacity="1.0"
     inkscape:pageopacity="0.0"
     inkscape:pageshadow="2"
     inkscape:zoom="1.4"
     inkscape:cx="-80.18366"
     inkscape:cy="72.208481"
     inkscape:document-units="mm"
     inkscape:current-layer="layer1"
     showgrid="false"
     inkscape:window-width="1600"
     inkscape:window-height="814"
     inkscape:window-x="0"
     inkscape:window-y="0"
     inkscape:window-maximized="1"
     units="px" />
  <metadata
     id="metadata1035">
    <rdf:RDF>
      <cc:Work
         rdf:about="">
        <dc:format>image/svg+xml</dc:format>
        <dc:type
           rdf:resource="http://purl.org/dc/dcmitype/StillImage" />
        <dc:title />
      </cc:Work>
    </rdf:RDF>
  </metadata>
  <g
     inkscape:label="Layer 1"
     inkscape:groupmode="layer"
     id="layer1"
     transform="translate(0,-263.13332)">
    <g
       id="g3051"
       transform="translate(37.230654,3.3363136e-6)">
      <g
         transform="matrix(0.53602412,0,0,0.5372689,-234.93365,-13.785303)"
         id="layer1-4-9"
         inkscape:label="Capa 1"
         inkscape:transform-center-x="5.4653607"
         inkscape:transform-center-y="-9.4924686"
         style="stroke-width:4.08449793">
        <g
           transform="translate(0.41988239,0.03484499)"
           inkscape:label="Capa 1"
           id="layer1-3-65-0"
           style="stroke-width:4.08449793" />
      </g>
      <g
         transform="matrix(0.53602412,0,0,0.5372689,-234.93365,-13.760303)"
         id="layer1-4"
         inkscape:label="Capa 1"
         inkscape:transform-center-x="5.4653607"
         inkscape:transform-center-y="-9.4924686"
         style="stroke-width:4.08449793">
        <g
           transform="translate(0.41988239,0.03484499)"
           inkscape:label="Capa 1"
           id="layer1-3-65"
           style="stroke-width:4.08449793" />
      </g>
      <path
         sodipodi:nodetypes="ccccascscsscc"
         inkscape:connector-curvature="0"
         id="path5023-3"
         d="M -32.659282,264.09818 V 296.7104 H -7.93536 v -18.3 c -0.04716,-0.8313 -0.101653,-1.57532 -0.312496,-2.32966 -0.21448,-0.76736 -0.552469,-1.49394 -0.956412,-2.18925 -0.516871,-0.8897 -1.39035,-1.46334 -2.166671,-2.19248 -0.47098,-0.42711 -1.488209,-1.44169 -2.719481,-2.65304 -1.221196,-1.20143 -2.653456,-2.59692 -3.849171,-3.68107 -0.35316,-0.3187 -0.866164,-0.64943 -1.342771,-0.84044 -0.370088,-0.14831 -0.80547,-0.24063 -1.22583,-0.30267 -0.433449,-0.064 -0.850926,-0.0958 -1.164384,-0.12361 z"
         style="opacity:0.25;fill:#000000;fill-opacity:1;stroke:none;stroke-width:1.87499988;stroke-miterlimit:4;stroke-dasharray:none;stroke-opacity:1" />
      <path
         style="opacity:1;fill:url(#linearGradient1503-8);fill-opacity:1;stroke:#808080;stroke-width:0.30000001;stroke-miterlimit:4;stroke-dasharray:none;stroke-opacity:1"
         d="m -32.659282,263.5729 v 32.61222 H -7.93536 v -18.3 c -0.04716,-0.83129 -0.101653,-1.57532 -0.312496,-2.32966 -0.21448,-0.76736 -0.552469,-1.49394 -0.956412,-2.18925 -0.516871,-0.88969 -1.39035,-1.46334 -2.166671,-2.19247 -0.47098,-0.42712 -1.488209,-1.4417 -2.719481,-2.65305 -1.221196,-1.20142 -2.653456,-2.59692 -3.849171,-3.68107 -0.35316,-0.3187 -0.866164,-0.64944 -1.342771,-0.84044 -0.370088,-0.14831 -0.80547,-0.24063 -1.22583,-0.30267 -0.433449,-0.064 -0.850926,-0.0958 -1.164384,-0.12361 z"
         id="path4623-8-9"
         inkscape:connector-curvature="0"
         sodipodi:nodetypes="ccccascscsscc" />
      <path
         style="opacity:0.24800002;fill:#000000;fill-opacity:1;stroke:none;stroke-width:0.30000001;stroke-miterlimit:4;stroke-dasharray:none;stroke-opacity:1"
         d="m -17.47951,265.48426 c 0.01633,0.0263 0.561139,0.90462 0.727791,1.39886 0.451585,1.01234 0.25858,3.97236 0.250369,5.65885 0.02772,-0.19401 4.690513,-1.39583 7.111042,0.80464 -0.01547,-0.0273 -0.04888,-0.0804 -0.12512,-0.18628 -0.07235,-0.10046 -0.182749,-0.24915 -0.371644,-0.44224 -0.528108,-0.60452 -0.230926,-0.0845 -0.805409,-0.682 -0.496688,-0.45047 -1.569491,-1.52048 -2.867987,-2.79805 -1.241182,-1.22116 -2.686924,-2.62954 -3.919042,-3.75378 z"
         id="path1355"
         inkscape:connector-curvature="0"
         sodipodi:nodetypes="ccccsccsc" />
      <path
         sodipodi:nodetypes="ccccccsc"
         inkscape:connector-curvature="0"
         id="path4753-0-0"
         d="m -17.806614,264.96145 c 0.01548,0.0249 0.53209,0.85773 0.690114,1.32635 0.428208,0.95987 0.292236,3.21802 0.28445,4.8171 0.428992,-0.0223 5.159507,-0.73701 7.328403,1.82407 -0.02928,-0.0506 -0.102779,-0.0927 -0.143771,-0.17312 -0.500768,-0.57318 -1.139582,-1.03373 -1.723521,-1.58216 -0.470975,-0.42712 -1.488241,-1.44167 -2.719516,-2.65302 -1.176928,-1.15787 -2.547826,-2.49325 -3.716159,-3.55922 z"
         style="opacity:1;fill:#ffffff;fill-opacity:1;stroke:#808080;stroke-width:0.30000001;stroke-miterlimit:4;stroke-dasharray:none;stroke-opacity:1" />
      <g
         transform="matrix(0.53602412,0,0,0.5372689,-272.1643,-13.785303)"
         id="layer1-4-5"
         inkscape:label="Capa 1"
         inkscape:transform-center-x="5.4653607"
         inkscape:transform-center-y="-9.4924686"
         style="stroke-width:4.08449793">
        <g
           transform="translate(0.41988239,0.03484499)"
           inkscape:label="Capa 1"
           id="layer1-3-65-2"
           style="stroke-width:4.08449793" />
      </g>
      <path
         id="path1123"
         d="m -10.701724,282.05533 c -0.396419,-0.39046 -1.275953,-0.5976 -2.613784,-0.61513 -0.905677,-0.0103 -1.995334,0.0695 -3.142237,0.2303 -0.513227,-0.29614 -1.042337,-0.61878 -1.457949,-1.00694 -1.117121,-1.04332 -2.049931,-2.49168 -2.630993,-4.08398 0.03773,-0.14889 0.07015,-0.27961 0.09992,-0.41296 0,0 0.629375,-3.57471 0.462931,-4.78317 a 1.3980564,1.3980564 0 0 0 -0.08173,-0.34282 l -0.05461,-0.1403 c -0.171076,-0.39509 -0.506941,-0.81334 -1.033073,-0.79052 l -0.308399,-0.0103 h -0.0087 c -0.587018,0 -1.06517,0.30014 -1.190582,0.74851 -0.381528,1.407 0.01188,3.51184 0.725665,6.23815 l -0.182657,0.44406 c -0.51091,1.24551 -1.151535,2.49995 -1.716051,3.60683 l -0.07347,0.1436 c -0.594631,1.16313 -1.133667,2.15052 -1.62274,2.98705 l -0.504622,0.2667 c -0.03673,0.0195 -0.901706,0.47715 -1.104879,0.59992 -1.721015,1.02778 -2.861632,2.1942 -3.050906,3.1204 -0.06022,0.29516 -0.01555,0.67338 0.290861,0.84843 l 0.48808,0.24554 c 0.211776,0.10593 0.435135,0.15981 0.663787,0.15981 1.225988,0 2.649524,-1.52711 4.610111,-4.94895 2.263692,-0.73692 4.84108,-1.34941 7.09981,-1.68759 1.721678,0.96954 3.838449,1.64259 5.17529,1.64259 0.236925,0 0.44142,-0.0225 0.607864,-0.0662 0.256117,-0.0683 0.472196,-0.21442 0.603894,-0.41263 0.259096,-0.39047 0.311709,-0.92752 0.241558,-1.47781 -0.02117,-0.16347 -0.151552,-0.3653 -0.292516,-0.50296 z m -18.311724,6.52339 c 0.223689,-0.61118 1.108519,-1.81996 2.4169,-2.89207 0.08239,-0.0665 0.284905,-0.25645 0.470542,-0.43283 -1.368275,2.1823 -2.28454,3.05224 -2.887442,3.3249 z m 7.749699,-17.84681 c 0.394433,0 0.618785,0.99336 0.637314,1.92485 0.01854,0.93117 -0.199202,1.58501 -0.469546,2.06813 -0.223691,-0.71574 -0.331894,-1.84443 -0.331894,-2.58234 0,0 -0.01655,-1.41064 0.164458,-1.41064 z m -2.311673,12.71818 c 0.274647,-0.49139 0.560214,-1.00991 0.852069,-1.55953 0.711437,-1.34546 1.1608,-2.39806 1.495673,-3.26335 0.66511,1.21077 1.494347,2.2402 2.46852,3.06512 0.121775,0.10251 0.250492,0.20616 0.38583,0.30941 -1.981765,0.39177 -3.694178,0.86861 -5.201762,1.44835 z m 12.492832,-0.11187 c -0.120775,0.0755 -0.466571,0.11907 -0.688605,0.11907 -0.718055,0 -1.605862,-0.32792 -2.850381,-0.86166 a 17.903724,17.903724 0 0 1 1.310038,-0.0533 c 0.719709,0 0.93314,-0.003 1.636965,0.17635 0.703827,0.17935 0.712761,0.544 0.592313,0.61945 z"
         inkscape:connector-curvature="0"
         style="fill:#e50f0f;fill-opacity:1;stroke:none;stroke-width:0.26458332" />
    </g>
  </g>
</svg>
