<?xml version="1.0" encoding="UTF-8" standalone="no"?>
<!-- Created with Inkscape (http://www.inkscape.org/) -->

<svg
   xmlns:osb="http://www.openswatchbook.org/uri/2009/osb"
   xmlns:dc="http://purl.org/dc/elements/1.1/"
   xmlns:cc="http://creativecommons.org/ns#"
   xmlns:rdf="http://www.w3.org/1999/02/22-rdf-syntax-ns#"
   xmlns:svg="http://www.w3.org/2000/svg"
   xmlns="http://www.w3.org/2000/svg"
   xmlns:xlink="http://www.w3.org/1999/xlink"
   xmlns:sodipodi="http://sodipodi.sourceforge.net/DTD/sodipodi-0.dtd"
   xmlns:inkscape="http://www.inkscape.org/namespaces/inkscape"
   width="128"
   height="128"
   viewBox="0 0 33.866666 33.866668"
   version="1.1"
   id="svg8"
   inkscape:version="0.92.2 5c3e80d, 2017-08-06"
   sodipodi:docname="application-vnd.ms-powerpoint copy.svg">
  <defs
     id="defs2">
    <linearGradient
       id="linearGradient1830">
      <stop
         id="stop1826"
         style="stop-color:#d9d9d9;stop-opacity:1"
         offset="0" />
      <stop
         id="stop1828"
         style="stop-color:#ffffff;stop-opacity:1;"
         offset="1" />
    </linearGradient>
    <linearGradient
       osb:paint="solid"
       id="linearGradient6987">
      <stop
         id="stop6985"
         offset="0"
         style="stop-color:#77d2fb;stop-opacity:1;" />
    </linearGradient>
    <linearGradient
       inkscape:collect="always"
       xlink:href="#linearGradient1830"
       id="linearGradient1503-8"
       x1="29.203474"
       y1="263.52237"
       x2="4.5843229"
       y2="296.16849"
       gradientUnits="userSpaceOnUse"
       gradientTransform="matrix(1.0010487,0,0,1.0010383,1.4828141,-0.26586565)" />
  </defs>
  <sodipodi:namedview
     id="base"
     pagecolor="#ffffff"
     bordercolor="#666666"
     borderopacity="1.0"
     inkscape:pageopacity="0.0"
     inkscape:pageshadow="2"
     inkscape:zoom="0.70000001"
     inkscape:cx="305.84872"
     inkscape:cy="-53.865076"
     inkscape:document-units="mm"
     inkscape:current-layer="layer1"
     showgrid="false"
     units="px"
     inkscape:window-width="1600"
     inkscape:window-height="814"
     inkscape:window-x="0"
     inkscape:window-y="0"
     inkscape:window-maximized="1"
     showguides="false" />
  <metadata
     id="metadata5">
    <rdf:RDF>
      <cc:Work
         rdf:about="">
        <dc:format>image/svg+xml</dc:format>
        <dc:type
           rdf:resource="http://purl.org/dc/dcmitype/StillImage" />
        <dc:title />
      </cc:Work>
    </rdf:RDF>
  </metadata>
  <g
     inkscape:label="Layer 1"
     inkscape:groupmode="layer"
     id="layer1"
     transform="translate(0,-263.13332)">
    <g
       id="g5689"
       transform="translate(0.39152099,-0.02499666)">
      <path
         sodipodi:nodetypes="ccccascscsscc"
         inkscape:connector-curvature="0"
         id="path5023-4"
         d="M 6.0719441,264.12318 V 296.7354 H 30.795866 v -18.3 c -0.04716,-0.8313 -0.101653,-1.57532 -0.312496,-2.32966 -0.21448,-0.76736 -0.552469,-1.49394 -0.956412,-2.18925 -0.516871,-0.8897 -1.39035,-1.46334 -2.166671,-2.19248 -0.47098,-0.42711 -1.488209,-1.44169 -2.719481,-2.65304 -1.221196,-1.20143 -2.653456,-2.59692 -3.849171,-3.68107 -0.35316,-0.3187 -0.866164,-0.64943 -1.342771,-0.84044 -0.370088,-0.14831 -0.80547,-0.24063 -1.22583,-0.30267 -0.433449,-0.064 -0.850926,-0.0958 -1.164384,-0.12361 z"
         style="opacity:0.25;fill:#000000;fill-opacity:1;stroke:none;stroke-width:1.87499988;stroke-miterlimit:4;stroke-dasharray:none;stroke-opacity:1" />
      <path
         style="opacity:1;fill:url(#linearGradient1503-8);fill-opacity:1;stroke:#808080;stroke-width:0.30000001;stroke-miterlimit:4;stroke-dasharray:none;stroke-opacity:1"
         d="m 6.0719441,263.5979 v 32.61222 H 30.795866 v -18.3 c -0.04716,-0.83129 -0.101653,-1.57532 -0.312496,-2.32966 -0.21448,-0.76736 -0.552469,-1.49394 -0.956412,-2.18925 -0.516871,-0.88969 -1.39035,-1.46334 -2.166671,-2.19247 -0.47098,-0.42712 -1.488209,-1.4417 -2.719481,-2.65305 -1.221196,-1.20142 -2.653456,-2.59692 -3.849171,-3.68107 -0.35316,-0.3187 -0.866164,-0.64944 -1.342771,-0.84044 -0.370088,-0.14831 -0.80547,-0.24063 -1.22583,-0.30267 -0.433449,-0.064 -0.850926,-0.0958 -1.164384,-0.12361 z"
         id="path4623-8"
         inkscape:connector-curvature="0"
         sodipodi:nodetypes="ccccascscsscc" />
      <g
         id="g2301"
         transform="matrix(0.24831791,0,0,0.24790304,-1.4482666,223.26228)"
         style="stroke-width:4.03046417">
        <g
           id="g2281"
           style="stroke-width:4.03046417">
          <path
             inkscape:connector-curvature="0"
             style="opacity:1;fill:#b2b2b2;fill-opacity:1;fill-rule:evenodd;stroke:none;stroke-width:1.42811728;stroke-linecap:round;stroke-linejoin:bevel;stroke-miterlimit:4;stroke-dasharray:none;stroke-opacity:1"
             d="m 77.895643,177.90403 a 23.573172,23.573172 0 0 0 -23.573236,23.57324 23.573172,23.573172 0 0 0 23.573236,23.57323 23.573172,23.573172 0 0 0 23.573237,-23.57323 23.573172,23.573172 0 0 0 -0.002,-0.0444 H 77.929304 v -23.52725 a 23.573172,23.573172 0 0 0 -0.03411,-0.002 z"
             id="path2277" />
          <path
             style="opacity:1;fill:#f0c19c;fill-opacity:1;fill-rule:evenodd;stroke:none;stroke-width:1.42811728;stroke-linecap:round;stroke-linejoin:bevel;stroke-miterlimit:4;stroke-dasharray:none;stroke-opacity:1"
             d="m 81.25903,174.78894 0.008,23.03267 23.17585,0.0269 c 0.0148,-0.22598 0.0262,-0.45218 0.0341,-0.67851 -3e-5,-12.37347 -10.03086,-22.40406 -22.40434,-22.4038 -0.2691,0.009 -0.54533,0.004 -0.81396,0.0228 z"
             id="path2279"
             inkscape:connector-curvature="0"
             sodipodi:nodetypes="ccccccc" />
        </g>
        <g
           transform="translate(-150.32969,-0.18124715)"
           style="fill:#f2c39e;fill-opacity:1;stroke-width:4.03046417"
           id="g2299">
          <rect
             style="opacity:1;fill:#f2c39e;fill-opacity:1;fill-rule:evenodd;stroke:none;stroke-width:1.42811728;stroke-linecap:round;stroke-linejoin:bevel;stroke-miterlimit:4;stroke-dasharray:none;stroke-opacity:1"
             id="rect2283"
             width="66.045387"
             height="5.6126599"
             x="202.37042"
             y="276.62665" />
          <rect
             y="276.62048"
             x="192.37839"
             height="5.6249995"
             width="5.6249995"
             id="rect2285"
             style="opacity:1;fill:#f2c39e;fill-opacity:1;fill-rule:evenodd;stroke:none;stroke-width:1.42811728;stroke-linecap:round;stroke-linejoin:bevel;stroke-miterlimit:4;stroke-dasharray:none;stroke-opacity:1" />
          <rect
             y="263.06741"
             x="202.37042"
             height="5.6126599"
             width="66.045387"
             id="rect2287"
             style="opacity:1;fill:#f2c39e;fill-opacity:1;fill-rule:evenodd;stroke:none;stroke-width:1.42811728;stroke-linecap:round;stroke-linejoin:bevel;stroke-miterlimit:4;stroke-dasharray:none;stroke-opacity:1" />
          <rect
             style="opacity:1;fill:#f2c39e;fill-opacity:1;fill-rule:evenodd;stroke:none;stroke-width:1.42811728;stroke-linecap:round;stroke-linejoin:bevel;stroke-miterlimit:4;stroke-dasharray:none;stroke-opacity:1"
             id="rect2289"
             width="5.6249995"
             height="5.6249995"
             x="192.37839"
             y="263.06125" />
          <rect
             style="opacity:1;fill:#f2c39e;fill-opacity:1;fill-rule:evenodd;stroke:none;stroke-width:1.42811728;stroke-linecap:round;stroke-linejoin:bevel;stroke-miterlimit:4;stroke-dasharray:none;stroke-opacity:1"
             id="rect2291"
             width="66.045387"
             height="5.6126599"
             x="202.37042"
             y="249.68326" />
          <rect
             y="249.67709"
             x="192.37839"
             height="5.6249995"
             width="5.6249995"
             id="rect2293"
             style="opacity:1;fill:#f2c39e;fill-opacity:1;fill-rule:evenodd;stroke:none;stroke-width:1.42811728;stroke-linecap:round;stroke-linejoin:bevel;stroke-miterlimit:4;stroke-dasharray:none;stroke-opacity:1" />
          <rect
             y="236.39996"
             x="202.37042"
             height="5.6126599"
             width="66.045387"
             id="rect2295"
             style="opacity:1;fill:#f2c39e;fill-opacity:1;fill-rule:evenodd;stroke:none;stroke-width:1.42811728;stroke-linecap:round;stroke-linejoin:bevel;stroke-miterlimit:4;stroke-dasharray:none;stroke-opacity:1" />
          <rect
             style="opacity:1;fill:#f2c39e;fill-opacity:1;fill-rule:evenodd;stroke:none;stroke-width:1.42811728;stroke-linecap:round;stroke-linejoin:bevel;stroke-miterlimit:4;stroke-dasharray:none;stroke-opacity:1"
             id="rect2297"
             width="5.6249995"
             height="5.6249995"
             x="192.37839"
             y="236.3938" />
        </g>
      </g>
      <path
         style="opacity:0.24800002;fill:#000000;fill-opacity:1;stroke:none;stroke-width:0.30000001;stroke-miterlimit:4;stroke-dasharray:none;stroke-opacity:1"
         d="m 21.251716,265.50926 c 0.01633,0.0263 0.561139,0.90462 0.727791,1.39886 0.451585,1.01234 0.25858,3.97236 0.250369,5.65885 0.02772,-0.19401 4.690513,-1.39583 7.111042,0.80464 -0.01547,-0.0273 -0.04888,-0.0804 -0.12512,-0.18628 -0.07235,-0.10046 -0.182749,-0.24915 -0.371644,-0.44224 -0.528108,-0.60452 -0.230926,-0.0845 -0.805409,-0.682 -0.496688,-0.45047 -1.569491,-1.52048 -2.867987,-2.79805 -1.241182,-1.22116 -2.686924,-2.62954 -3.919042,-3.75378 z"
         id="path1355-8"
         inkscape:connector-curvature="0"
         sodipodi:nodetypes="ccccsccsc" />
      <path
         sodipodi:nodetypes="ccccccsc"
         inkscape:connector-curvature="0"
         id="path4753-0"
         d="m 20.924612,264.98645 c 0.01548,0.0249 0.53209,0.85773 0.690114,1.32635 0.428208,0.95987 0.292236,3.21802 0.28445,4.8171 0.428992,-0.0223 5.159507,-0.73701 7.328403,1.82407 -0.02928,-0.0506 -0.102779,-0.0927 -0.143771,-0.17312 -0.500768,-0.57318 -1.139582,-1.03373 -1.723521,-1.58216 -0.470975,-0.42712 -1.488241,-1.44167 -2.719516,-2.65302 -1.176928,-1.15787 -2.547826,-2.49325 -3.716159,-3.55922 z"
         style="opacity:1;fill:#ffffff;fill-opacity:1;stroke:#808080;stroke-width:0.30000001;stroke-miterlimit:4;stroke-dasharray:none;stroke-opacity:1" />
      <g
         transform="matrix(0.53602412,0,0,0.5372689,-233.43308,-13.760306)"
         id="layer1-4-3"
         inkscape:label="Capa 1"
         inkscape:transform-center-x="5.4653607"
         inkscape:transform-center-y="-9.4924686"
         style="stroke-width:4.08449793">
        <g
           transform="translate(0.41988239,0.03484499)"
           inkscape:label="Capa 1"
           id="layer1-3-65-9"
           style="stroke-width:4.08449793" />
      </g>
      <g
         transform="matrix(0.53602412,0,0,0.5372689,-234.93365,-13.7603)"
         id="layer1-4"
         inkscape:label="Capa 1"
         inkscape:transform-center-x="5.4653607"
         inkscape:transform-center-y="-9.4924686"
         style="stroke-width:4.08449793">
        <g
           transform="translate(0.41988239,0.03484499)"
           inkscape:label="Capa 1"
           id="layer1-3-65"
           style="stroke-width:4.08449793" />
      </g>
      <g
         transform="matrix(0.53602412,0,0,0.5372689,-272.03245,-13.7853)"
         id="layer1-4-3-1"
         inkscape:label="Capa 1"
         inkscape:transform-center-x="5.4653607"
         inkscape:transform-center-y="-9.4924686"
         style="stroke-width:4.08449793">
        <g
           transform="translate(0.41988239,0.03484499)"
           inkscape:label="Capa 1"
           id="layer1-3-65-9-4"
           style="stroke-width:4.08449793" />
      </g>
      <g
         transform="matrix(0.53602412,0,0,0.5372689,-274.93895,-13.785294)"
         id="layer1-4-7"
         inkscape:label="Capa 1"
         inkscape:transform-center-x="5.4653607"
         inkscape:transform-center-y="-9.4924686"
         style="stroke-width:4.08449793">
        <g
           transform="translate(0.41988239,0.03484499)"
           inkscape:label="Capa 1"
           id="layer1-3-65-1"
           style="stroke-width:4.08449793" />
      </g>
      <g
         transform="matrix(0.53602412,0,0,0.5372689,-306.20737,-13.8103)"
         id="layer1-4-3-2"
         inkscape:label="Capa 1"
         inkscape:transform-center-x="5.4653607"
         inkscape:transform-center-y="-9.4924686"
         style="stroke-width:4.08449793">
        <g
           transform="translate(0.41988239,0.03484499)"
           inkscape:label="Capa 1"
           id="layer1-3-65-9-7"
           style="stroke-width:4.08449793" />
      </g>
      <g
         transform="matrix(0.53602412,0,0,0.5372689,-309.11387,-13.810294)"
         id="layer1-4-37"
         inkscape:label="Capa 1"
         inkscape:transform-center-x="5.4653607"
         inkscape:transform-center-y="-9.4924686"
         style="stroke-width:4.08449793">
        <g
           transform="translate(0.41988239,0.03484499)"
           inkscape:label="Capa 1"
           id="layer1-3-65-90"
           style="stroke-width:4.08449793" />
      </g>
      <g
         transform="translate(38.526648,-0.07087054)"
         id="g5654">
        <rect
           style="opacity:1;fill:#d24726;fill-opacity:1;fill-rule:nonzero;stroke:none;stroke-width:0.2;stroke-miterlimit:4;stroke-dasharray:none;stroke-opacity:1"
           id="rect1983"
           width="13.463702"
           height="13.463702"
           x="-36.388889"
           y="276.27002"
           ry="0" />
        <rect
           ry="0"
           y="277.95911"
           x="-34.699806"
           height="10.08554"
           width="10.08554"
           id="rect1985"
           style="opacity:1;fill:#ffffff;fill-opacity:1;fill-rule:nonzero;stroke:none;stroke-width:0.2;stroke-miterlimit:4;stroke-dasharray:none;stroke-opacity:1" />
        <path
           style="fill:#d24726;fill-opacity:1;stroke-width:1"
           d="m -33.826384,278.82107 -0.0088,4.14032 c -0.0049,2.27721 -0.0019,4.15982 0.0072,4.18372 v 5.2e-4 c 0.01316,0.0345 0.868556,0.0416 4.18424,0.0346 l 4.167187,-0.009 v -4.17494 -4.17494 h -4.174937 z m 5.058606,0.90072 h 1.195277 1.195276 v 0.3638 0.36381 l -1.187527,0.009 c -0.966213,0.007 -1.19113,-3e-5 -1.205611,-0.0377 -0.0097,-0.0255 -0.01325,-0.19298 -0.0077,-0.37259 z m -1.767334,0.83148 0.01757,1.22989 0.01705,1.2299 1.230416,0.0176 1.229899,0.0171 -0.01085,0.17363 c -0.05958,0.96329 -0.804614,1.85969 -1.767332,2.12648 -0.292663,0.0807 -0.744326,0.11567 -0.994772,0.076 -1.243904,-0.19732 -2.107364,-1.19219 -2.107364,-2.42776 0,-0.75281 0.296775,-1.38899 0.881083,-1.88774 0.340421,-0.29058 0.895305,-0.51725 1.331183,-0.54415 z m 1.767334,0.83147 h 1.195277 1.195276 v 0.3638 0.3638 l -1.187527,0.009 c -0.966213,0.007 -1.19113,5e-4 -1.205611,-0.0372 -0.0097,-0.0255 -0.01325,-0.1935 -0.0077,-0.37311 z"
           id="path5552"
           inkscape:connector-curvature="0" />
      </g>
    </g>
  </g>
</svg>
