<?xml version="1.0" encoding="UTF-8" standalone="no"?>
<!-- Created with Inkscape (http://www.inkscape.org/) -->

<svg
   xmlns:osb="http://www.openswatchbook.org/uri/2009/osb"
   xmlns:dc="http://purl.org/dc/elements/1.1/"
   xmlns:cc="http://creativecommons.org/ns#"
   xmlns:rdf="http://www.w3.org/1999/02/22-rdf-syntax-ns#"
   xmlns:svg="http://www.w3.org/2000/svg"
   xmlns="http://www.w3.org/2000/svg"
   xmlns:xlink="http://www.w3.org/1999/xlink"
   xmlns:sodipodi="http://sodipodi.sourceforge.net/DTD/sodipodi-0.dtd"
   xmlns:inkscape="http://www.inkscape.org/namespaces/inkscape"
   width="128"
   height="128"
   viewBox="0 0 33.866666 33.866668"
   version="1.1"
   id="svg8"
   inkscape:version="0.92.2 5c3e80d, 2017-08-06"
   sodipodi:docname="application-vnd.oasis.opendocument.chart.svg">
  <defs
     id="defs2">
    <linearGradient
       id="linearGradient1830">
      <stop
         id="stop1826"
         style="stop-color:#d9d9d9;stop-opacity:1"
         offset="0" />
      <stop
         id="stop1828"
         style="stop-color:#ffffff;stop-opacity:1;"
         offset="1" />
    </linearGradient>
    <linearGradient
       osb:paint="solid"
       id="linearGradient6987">
      <stop
         id="stop6985"
         offset="0"
         style="stop-color:#77d2fb;stop-opacity:1;" />
    </linearGradient>
    <linearGradient
       id="linearGradient865"
       inkscape:collect="always">
      <stop
         id="stop861"
         offset="0"
         style="stop-color:#017bf5;stop-opacity:1" />
      <stop
         id="stop863"
         offset="1"
         style="stop-color:#52cdfb;stop-opacity:1" />
    </linearGradient>
    <linearGradient
       id="linearGradient857"
       inkscape:collect="always">
      <stop
         id="stop853"
         offset="0"
         style="stop-color:#01bb22;stop-opacity:1" />
      <stop
         id="stop855"
         offset="1"
         style="stop-color:#51e784;stop-opacity:1" />
    </linearGradient>
    <linearGradient
       id="linearGradient849"
       inkscape:collect="always">
      <stop
         id="stop845"
         offset="0"
         style="stop-color:#f06712;stop-opacity:1" />
      <stop
         id="stop847"
         offset="1"
         style="stop-color:#ffb436;stop-opacity:1" />
    </linearGradient>
    <linearGradient
       id="linearGradient839"
       inkscape:collect="always">
      <stop
         style="stop-color:#f35966;stop-opacity:1"
         offset="0"
         id="stop837" />
      <stop
         style="stop-color:#e0283f;stop-opacity:1"
         offset="1"
         id="stop835" />
    </linearGradient>
    <linearGradient
       gradientTransform="matrix(0.13783991,0,0,0.14035423,34.95367,315.43533)"
       gradientUnits="userSpaceOnUse"
       y2="-166.6429"
       x2="-194.66144"
       y1="-239.97028"
       x1="-194.48117"
       id="linearGradient841"
       xlink:href="#linearGradient839"
       inkscape:collect="always" />
    <linearGradient
       gradientTransform="matrix(0.13783991,0,0,0.14035423,34.95367,315.43533)"
       gradientUnits="userSpaceOnUse"
       y2="-280.65155"
       x2="-145.57553"
       y1="-167.25871"
       x1="-145.39529"
       id="linearGradient851"
       xlink:href="#linearGradient849"
       inkscape:collect="always" />
    <linearGradient
       gradientTransform="matrix(0.13783991,0,0,0.14035423,34.95367,315.43533)"
       gradientUnits="userSpaceOnUse"
       y2="-348.9743"
       x2="-101.02538"
       y1="-166.03384"
       x1="-98.577271"
       id="linearGradient859"
       xlink:href="#linearGradient857"
       inkscape:collect="always" />
    <linearGradient
       gradientTransform="matrix(0.13783991,0,0,0.14035423,34.95367,315.43533)"
       gradientUnits="userSpaceOnUse"
       y2="-309.35464"
       x2="-52.706074"
       y1="-167.99155"
       x1="-50.257969"
       id="linearGradient867"
       xlink:href="#linearGradient865"
       inkscape:collect="always" />
    <linearGradient
       gradientTransform="matrix(0.13783991,0,0,0.14035423,34.95367,315.43533)"
       gradientUnits="userSpaceOnUse"
       y2="-149.55367"
       x2="-124.83386"
       y1="-218.51097"
       x1="-123.60616"
       id="linearGradient875"
       xlink:href="#linearGradient1830"
       inkscape:collect="always" />
  </defs>
  <sodipodi:namedview
     id="base"
     pagecolor="#ffffff"
     bordercolor="#666666"
     borderopacity="1.0"
     inkscape:pageopacity="0.0"
     inkscape:pageshadow="2"
     inkscape:zoom="5.6"
     inkscape:cx="77.631876"
     inkscape:cy="78.931381"
     inkscape:document-units="mm"
     inkscape:current-layer="layer1"
     showgrid="false"
     units="px"
     inkscape:window-width="1600"
     inkscape:window-height="814"
     inkscape:window-x="0"
     inkscape:window-y="0"
     inkscape:window-maximized="1"
     showguides="false" />
  <metadata
     id="metadata5">
    <rdf:RDF>
      <cc:Work
         rdf:about="">
        <dc:format>image/svg+xml</dc:format>
        <dc:type
           rdf:resource="http://purl.org/dc/dcmitype/StillImage" />
        <dc:title />
      </cc:Work>
    </rdf:RDF>
  </metadata>
  <g
     inkscape:label="Layer 1"
     inkscape:groupmode="layer"
     id="layer1"
     transform="translate(0,-263.13332)">
    <g
       id="g3399"
       transform="matrix(0.98973327,0,0,0.98980963,-70.183326,2.585298)"
       style="stroke-width:1.01033425">
      <rect
         style="opacity:0.25;fill:#000000;fill-opacity:1;fill-rule:nonzero;stroke:none;stroke-width:0.30310029;stroke-linecap:round;stroke-miterlimit:4;stroke-dasharray:none;stroke-dashoffset:0;stroke-opacity:1"
         id="rect3356"
         width="25"
         height="33"
         x="75.52034"
         y="264.17847" />
      <g
         transform="matrix(0.53602412,0,0,0.5372689,-233.35679,-13.760303)"
         id="layer1-4-3"
         inkscape:label="Capa 1"
         inkscape:transform-center-x="5.4653607"
         inkscape:transform-center-y="-9.4924686"
         style="stroke-width:4.12670803">
        <g
           transform="translate(0.41988239,0.03484499)"
           inkscape:label="Capa 1"
           id="layer1-3-65-9"
           style="stroke-width:4.12670803" />
      </g>
      <g
         transform="matrix(0.53602412,0,0,0.5372689,-236.26329,-13.760297)"
         id="layer1-4"
         inkscape:label="Capa 1"
         inkscape:transform-center-x="5.4653607"
         inkscape:transform-center-y="-9.4924686"
         style="stroke-width:4.12670803">
        <g
           transform="translate(0.41988239,0.03484499)"
           inkscape:label="Capa 1"
           id="layer1-3-65"
           style="stroke-width:4.12670803" />
      </g>
      <rect
         y="263.64929"
         x="75.52034"
         height="33"
         width="25"
         id="rect3338"
         style="opacity:1;fill:#f2f2f2;fill-opacity:1;fill-rule:nonzero;stroke:#808080;stroke-width:0.30310029;stroke-linecap:round;stroke-miterlimit:4;stroke-dasharray:none;stroke-dashoffset:0;stroke-opacity:1" />
      <g
         style="stroke-width:1.77132761"
         inkscape:label="Layer 1"
         id="layer1-2"
         transform="matrix(0.57038249,0,0,0.57038249,78.361758,119.69012)">
        <path
           style="opacity:0.25;fill:#000000;fill-opacity:1;stroke:none;stroke-width:1.5212239;stroke-miterlimit:4;stroke-dasharray:none;stroke-opacity:1"
           d="m 1.282917,295.85599 h 31.381571 c 0.367604,0 0.577701,-0.25489 0.582404,-0.61008 l 0.0074,-0.55577 -2.605632,-11.43208 c -0.0754,-0.3308 -0.337412,-0.59166 -0.705015,-0.59185 l -25.9560164,-0.0133 c -0.3676039,-1.4e-4 -0.6376391,0.1879 -0.6923933,0.43665 l -2.68575274,11.56155 0.009938,0.59476 c 0.005651,0.33794 0.29593953,0.61008 0.66354334,0.61008 z"
           id="path962"
           inkscape:connector-curvature="0"
           sodipodi:nodetypes="csscsssscssc" />
        <path
           sodipodi:nodetypes="sssssssss"
           inkscape:connector-curvature="0"
           id="path964"
           d="m 1.282917,295.18755 h 31.381571 c 0.367604,0 0.606882,-0.27156 0.582404,-0.61008 l -0.86678,-11.98785 c -0.02448,-0.33852 -0.232379,-0.59168 -0.599983,-0.59184 l -29.9612188,-0.0133 c -0.3676039,-1.4e-4 -0.4956089,0.18215 -0.5100435,0.43665 l -0.68949315,12.15631 c -0.0192232,0.33892 0.29594091,0.61008 0.66354345,0.61008 z"
           style="opacity:1;fill:url(#linearGradient875);fill-opacity:1;stroke:#999999;stroke-width:0.17713277;stroke-miterlimit:4;stroke-dasharray:none;stroke-opacity:1" />
        <rect
           style="opacity:1;fill:url(#linearGradient841);fill-opacity:1;stroke:none;stroke-width:0.17713277;stroke-miterlimit:4;stroke-dasharray:none;stroke-opacity:1"
           id="rect933"
           width="5.7061772"
           height="11.299056"
           x="5.3329911"
           y="280.9856"
           ry="0.69735622" />
        <path
           style="opacity:1;fill:#fe8f8a;fill-opacity:1;stroke:none;stroke-width:0.17713277;stroke-miterlimit:4;stroke-dasharray:none;stroke-opacity:1"
           d="M 5.8030887,279.84497 H 10.56907 c 0.259284,0 0.38072,0.21295 0.39508,0.47656 l 0.07294,1.33891 c 0.01436,0.26361 -0.208737,0.47656 -0.468021,0.47656 H 5.8030887 c -0.2592837,0 -0.4823818,-0.21295 -0.4680216,-0.47656 l 0.072941,-1.33891 c 0.01436,-0.26361 0.1357972,-0.47656 0.3950806,-0.47656 z"
           id="rect935"
           inkscape:connector-curvature="0"
           sodipodi:nodetypes="sssssssss" />
        <rect
           ry="0.69960886"
           y="274.87109"
           x="11.890583"
           height="17.41358"
           width="5.7061772"
           id="rect944"
           style="opacity:1;fill:url(#linearGradient851);fill-opacity:1;stroke:none;stroke-width:0.17713277;stroke-miterlimit:4;stroke-dasharray:none;stroke-opacity:1" />
        <path
           sodipodi:nodetypes="sssssssss"
           inkscape:connector-curvature="0"
           id="path946"
           d="m 12.360682,273.73045 h 4.765982 c 0.259283,0 0.380719,0.17549 0.395079,0.39271 l 0.07294,1.10335 c 0.01436,0.21723 -0.208737,0.39271 -0.46802,0.39271 h -4.765982 c -0.259284,0 -0.482382,-0.17548 -0.468022,-0.39271 l 0.07294,-1.10335 c 0.01436,-0.21722 0.135797,-0.39271 0.395081,-0.39271 z"
           style="opacity:1;fill:#ffc966;fill-opacity:1;stroke:none;stroke-width:0.17713277;stroke-miterlimit:4;stroke-dasharray:none;stroke-opacity:1" />
        <rect
           style="opacity:1;fill:url(#linearGradient859);fill-opacity:1;stroke:none;stroke-width:0.17713277;stroke-miterlimit:4;stroke-dasharray:none;stroke-opacity:1"
           id="rect954"
           width="5.7061772"
           height="27.447397"
           x="18.448175"
           y="264.82715"
           ry="0.83164001" />
        <path
           style="opacity:1;fill:#87ffa3;fill-opacity:1;stroke:none;stroke-width:0.17713277;stroke-miterlimit:4;stroke-dasharray:none;stroke-opacity:1"
           d="m 18.918274,264.27732 h 4.765982 c 0.259283,0 0.380719,0.15022 0.395079,0.33617 l 0.07294,0.94447 c 0.01436,0.18595 -0.208737,0.33617 -0.46802,0.33617 h -4.765982 c -0.259284,0 -0.482382,-0.15022 -0.468022,-0.33617 l 0.07294,-0.94447 c 0.01436,-0.18595 0.135797,-0.33617 0.395081,-0.33617 z"
           id="path956"
           inkscape:connector-curvature="0"
           sodipodi:nodetypes="sssssssss" />
        <rect
           ry="0.6554026"
           y="270.64368"
           x="25.004305"
           height="21.630869"
           width="5.7061772"
           id="rect958"
           style="opacity:1;fill:url(#linearGradient867);fill-opacity:1;stroke:none;stroke-width:0.17713277;stroke-miterlimit:4;stroke-dasharray:none;stroke-opacity:1" />
        <path
           sodipodi:nodetypes="sssssssss"
           inkscape:connector-curvature="0"
           id="path960"
           d="m 25.474405,269.68848 h 4.765981 c 0.259284,0 0.38072,0.17486 0.39508,0.39132 l 0.07294,1.09942 c 0.01436,0.21646 -0.208736,0.39132 -0.46802,0.39132 h -4.765981 c -0.259284,0 -0.482382,-0.17486 -0.468022,-0.39132 l 0.07294,-1.09942 c 0.01436,-0.21646 0.135797,-0.39132 0.395081,-0.39132 z"
           style="opacity:1;fill:#79d7ff;fill-opacity:1;stroke:none;stroke-width:0.17713277;stroke-miterlimit:4;stroke-dasharray:none;stroke-opacity:1" />
        <g
           aria-label="1 2 3 4 5"
           transform="matrix(1.525855,0.0531554,-0.02351619,0.67504548,7.7610359,-4.486126)"
           style="font-style:normal;font-weight:normal;font-size:2.51442957px;line-height:1.25;font-family:sans-serif;letter-spacing:0px;word-spacing:0px;fill:#808080;fill-opacity:1;stroke:none;stroke-width:0.46150336"
           id="text901">
          <path
             d="m 3.4407384,426.18099 v -0.21875 h 0.4777417 v 1.52625 H 3.6594938 v -1.3075 z"
             style="font-style:normal;font-variant:normal;font-weight:normal;font-stretch:normal;font-family:'Apple LiGothic';-inkscape-font-specification:'Apple LiGothic';fill:#808080;fill-opacity:1;stroke-width:0.46150336"
             id="path911"
             inkscape:connector-curvature="0" />
          <path
             d="m 4.2302693,430.59692 v 0.21875 H 3.2043821 l 0.3872221,-0.49031 q 0.2765873,-0.34196 0.3243614,-0.42745 0.050289,-0.088 0.050289,-0.14332 0.00251,-0.0151 0.00251,-0.0302 0,-0.10058 -0.06789,-0.17852 -0.065375,-0.0779 -0.1734956,-0.0779 -0.1081205,0 -0.1709812,0.088 -0.060346,0.088 -0.060346,0.21372 H 3.2244975 q 0,-0.2263 0.1332648,-0.37213 0.1357792,-0.14836 0.3671067,-0.14836 0.2086976,0 0.3520201,0.14081 0.1433225,0.14081 0.1433225,0.35202 0,0.19864 -0.304246,0.55318 l -0.2589862,0.30173 z"
             style="font-style:normal;font-variant:normal;font-weight:normal;font-stretch:normal;font-family:'Apple LiGothic';-inkscape-font-specification:'Apple LiGothic';fill:#808080;fill-opacity:1;stroke-width:0.46150336"
             id="path913"
             inkscape:connector-curvature="0" />
          <path
             d="m 3.2647284,433.01639 q 0.020115,-0.20367 0.1433225,-0.32185 0.123207,-0.11818 0.3218469,-0.11818 0.2011544,0 0.321847,0.11567 0.1206926,0.11566 0.1206926,0.3143 0,0.22127 -0.1458369,0.31933 0.1961255,0.0855 0.1961255,0.37214 0,0.22127 -0.1433225,0.35453 -0.140808,0.13076 -0.3645922,0.13076 -0.2086977,0 -0.357049,-0.1383 -0.1483514,-0.13829 -0.1483514,-0.34196 h 0.2589863 q 0,0.11063 0.072918,0.18607 0.072919,0.0754 0.1835534,0.0754 0.1131493,0 0.1785245,-0.083 0.06789,-0.083 0.06789,-0.20115 0,-0.0981 -0.072919,-0.18104 -0.070404,-0.0855 -0.1609235,-0.0855 -0.010058,0 -0.020115,0.003 l -0.055318,0.005 v -0.17349 h 0.032688 q 0.095548,0 0.1634379,-0.0654 0.070404,-0.0679 0.070404,-0.16595 0,-0.23384 -0.2112121,-0.23384 -0.2086977,0 -0.2086977,0.23384 z"
             style="font-style:normal;font-variant:normal;font-weight:normal;font-stretch:normal;font-family:'Apple LiGothic';-inkscape-font-specification:'Apple LiGothic';fill:#808080;fill-opacity:1;stroke-width:0.46150336"
             id="path915"
             inkscape:connector-curvature="0" />
          <path
             d="m 4.2654713,436.98223 v 0.19864 H 4.0844324 v 0.28916 H 3.8455616 v -0.28916 H 3.151579 v -0.11314 l 0.6814105,-1.15161 h 0.2514429 v 1.06611 z m -0.4199097,-0.70404 -0.392251,0.70404 h 0.392251 z"
             style="font-style:normal;font-variant:normal;font-weight:normal;font-stretch:normal;font-family:'Apple LiGothic';-inkscape-font-specification:'Apple LiGothic';fill:#808080;fill-opacity:1;stroke-width:0.46150336"
             id="path917"
             inkscape:connector-curvature="0" />
          <path
             d="m 3.6695515,439.48971 -0.060346,0.27407 0.1181782,-0.005 q 0.2187554,0 0.3545346,0.1559 0.1382936,0.15338 0.1382936,0.37465 0,0.24641 -0.1533802,0.39728 -0.1533802,0.15086 -0.4023087,0.15086 -0.2765873,0 -0.4525974,-0.20115 l 0.075433,-0.22127 q 0.1458369,0.20367 0.357049,0.20367 0.1307504,0 0.2212698,-0.0905 0.093034,-0.093 0.093034,-0.24893 0,-0.15841 -0.095548,-0.24641 -0.095548,-0.088 -0.2413852,-0.088 -0.1458369,0 -0.2388708,0.10058 h -0.047774 l 0.1584091,-0.77445 h 0.6638094 v 0.21876 z"
             style="font-style:normal;font-variant:normal;font-weight:normal;font-stretch:normal;font-family:'Apple LiGothic';-inkscape-font-specification:'Apple LiGothic';fill:#808080;fill-opacity:1;stroke-width:0.46150336"
             id="path919"
             inkscape:connector-curvature="0" />
        </g>
      </g>
    </g>
  </g>
</svg>
