<?xml version="1.0" encoding="UTF-8" standalone="no"?>
<!-- Created with Inkscape (http://www.inkscape.org/) -->

<svg
   xmlns:dc="http://purl.org/dc/elements/1.1/"
   xmlns:cc="http://creativecommons.org/ns#"
   xmlns:rdf="http://www.w3.org/1999/02/22-rdf-syntax-ns#"
   xmlns:svg="http://www.w3.org/2000/svg"
   xmlns="http://www.w3.org/2000/svg"
   xmlns:xlink="http://www.w3.org/1999/xlink"
   xmlns:sodipodi="http://sodipodi.sourceforge.net/DTD/sodipodi-0.dtd"
   xmlns:inkscape="http://www.inkscape.org/namespaces/inkscape"
   width="128"
   height="128"
   viewBox="0 0 33.866666 33.866668"
   version="1.1"
   id="svg8"
   inkscape:version="0.92.2 5c3e80d, 2017-08-06"
   sodipodi:docname="drawing.svg">
  <defs
     id="defs2">
    <linearGradient
       inkscape:collect="always"
       id="linearGradient910">
      <stop
         style="stop-color:#aab1b2;stop-opacity:1"
         offset="0"
         id="stop906" />
      <stop
         style="stop-color:#d3e5e9;stop-opacity:1"
         offset="1"
         id="stop908" />
    </linearGradient>
    <linearGradient
       inkscape:collect="always"
       xlink:href="#linearGradient910"
       id="linearGradient912"
       x1="82.212303"
       y1="195.96344"
       x2="84.651352"
       y2="56.983292"
       gradientUnits="userSpaceOnUse"
       gradientTransform="matrix(0.22591002,0,0,0.22591002,7.1071831,162.28443)" />
  </defs>
  <sodipodi:namedview
     id="base"
     pagecolor="#ffffff"
     bordercolor="#666666"
     borderopacity="1.0"
     inkscape:pageopacity="0.0"
     inkscape:pageshadow="2"
     inkscape:zoom="3.959798"
     inkscape:cx="86.952101"
     inkscape:cy="51.343961"
     inkscape:document-units="mm"
     inkscape:current-layer="layer1"
     showgrid="false"
     units="px"
     inkscape:window-width="1600"
     inkscape:window-height="814"
     inkscape:window-x="0"
     inkscape:window-y="0"
     inkscape:window-maximized="1" />
  <metadata
     id="metadata5">
    <rdf:RDF>
      <cc:Work
         rdf:about="">
        <dc:format>image/svg+xml</dc:format>
        <dc:type
           rdf:resource="http://purl.org/dc/dcmitype/StillImage" />
        <dc:title></dc:title>
      </cc:Work>
    </rdf:RDF>
  </metadata>
  <g
     inkscape:label="Layer 1"
     inkscape:groupmode="layer"
     id="layer1"
     transform="translate(0,-263.13332)">
    <g
       id="g920"
       transform="matrix(0.88932548,0,0,0.88959129,-8.7268027,110.31247)"
       style="stroke-width:1.12427974">
      <path
         inkscape:connector-curvature="0"
         id="path916"
         d="m 13.517105,207.78754 c -0.812043,-0.12429 -1.56874,-0.50873 -2.153257,-1.09395 -0.4914,-0.49199 -0.832806,-1.09976 -1.027726,-1.82953 l -0.08655,-0.32407 v -4.92123 c 0,-4.73982 0.0028,-4.92931 0.07607,-5.14039 0.275662,-0.79426 0.59783,-1.17042 1.140419,-1.33155 0.394726,-0.11722 0.888009,-0.0598 1.306184,0.15214 0.104622,0.053 0.332949,0.21539 0.507392,0.36083 0.719133,0.59956 1.392946,0.72181 2.11532,0.38377 0.634443,-0.2969 0.999909,-0.92042 1.154879,-1.97036 0.08651,-0.58611 0.05668,-1.67593 -0.05979,-2.18437 -0.170433,-0.74403 -0.512226,-1.321 -0.959474,-1.61966 -0.317403,-0.21196 -0.571471,-0.28603 -0.981095,-0.28603 -0.433029,0 -0.69227,0.0847 -1.320607,0.43122 -0.582717,0.3214 -0.887393,0.43378 -1.27324,0.46964 -0.835287,0.0776 -1.474452,-0.37671 -1.664562,-1.18325 -0.08981,-0.38101 -0.09159,-9.37663 -0.002,-9.89062 0.115149,-0.66032 0.418519,-1.32402 0.881447,-1.92841 0.489219,-0.63872 1.258856,-1.1362 2.051934,-1.32632 0.331218,-0.0794 0.448677,-0.0802 12.101272,-0.0805 10.527652,-2.2e-4 11.799153,0.006 12.07395,0.0622 1.392599,0.28318 2.529346,1.43353 2.969044,3.00457 0.08245,0.29461 0.08445,0.3833 0.108753,4.82288 0.02237,4.08439 0.03129,4.54543 0.09223,4.75677 0.08537,0.29607 0.190801,0.44408 0.387955,0.54466 0.505542,0.25791 1.089933,0.0789 1.739862,-0.53289 0.441932,-0.41602 0.720095,-0.56318 1.195439,-0.63247 0.926116,-0.13498 1.906249,0.34926 2.567002,1.26826 0.826919,1.1501 1.169766,2.70274 0.971268,4.39853 -0.251474,2.14835 -1.399379,3.50638 -2.963858,3.50638 -0.689574,0 -1.158543,-0.18436 -1.8194,-0.71525 -0.546065,-0.43866 -0.86899,-0.59974 -1.202381,-0.59974 -0.49477,0 -0.758716,0.24623 -0.897043,0.83681 -0.02728,0.11648 -0.05146,1.79217 -0.069,4.78176 -0.02664,4.54079 -0.02815,4.60655 -0.112377,4.9083 -0.335034,1.20026 -1.065902,2.08411 -2.137592,2.58502 -0.177936,0.0832 -0.466971,0.19254 -0.642302,0.24305 l -0.318784,0.0918 -11.775091,0.006 c -6.476298,0.003 -11.864747,-0.008 -11.974329,-0.0243 z"
         style="opacity:0.25;fill:#000000;fill-opacity:1;stroke-width:1.12427974" />
      <path
         style="fill:url(#linearGradient912);fill-opacity:1;stroke:#b3b3b3;stroke-width:0.22485594;stroke-miterlimit:4;stroke-dasharray:none"
         d="m 13.517105,207.25837 c -0.812043,-0.12429 -1.56874,-0.50873 -2.153257,-1.09395 -0.4914,-0.49199 -0.832806,-1.09976 -1.027726,-1.82953 l -0.08655,-0.32407 v -4.92123 c 0,-4.73982 0.0028,-4.92931 0.07607,-5.14039 0.275662,-0.79426 0.59783,-1.17042 1.140419,-1.33155 0.394726,-0.11722 0.888009,-0.0598 1.306184,0.15214 0.104622,0.053 0.332949,0.21539 0.507392,0.36083 0.719133,0.59956 1.392946,0.72181 2.11532,0.38377 0.634443,-0.2969 0.999909,-0.92042 1.154879,-1.97036 0.08651,-0.58611 0.05668,-1.67593 -0.05979,-2.18437 -0.170433,-0.74403 -0.512226,-1.321 -0.959474,-1.61966 -0.317403,-0.21196 -0.571471,-0.28603 -0.981095,-0.28603 -0.433029,0 -0.69227,0.0847 -1.320607,0.43122 -0.582717,0.3214 -0.887393,0.43378 -1.27324,0.46964 -0.835287,0.0776 -1.474452,-0.37671 -1.664562,-1.18325 -0.08981,-0.38101 -0.09159,-9.37663 -0.002,-9.89062 0.115149,-0.66032 0.418519,-1.32402 0.881447,-1.92841 0.489219,-0.63872 1.258856,-1.1362 2.051934,-1.32632 0.331218,-0.0794 0.448677,-0.0802 12.101272,-0.0805 10.527652,-2.2e-4 11.799153,0.006 12.07395,0.0622 1.392599,0.28318 2.529346,1.43353 2.969044,3.00457 0.08245,0.29461 0.08445,0.3833 0.108753,4.82288 0.02237,4.08439 0.03129,4.54543 0.09223,4.75677 0.08537,0.29607 0.190801,0.44408 0.387955,0.54466 0.505542,0.25791 1.089933,0.0789 1.739862,-0.53289 0.441932,-0.41602 0.720095,-0.56318 1.195439,-0.63247 0.926116,-0.13498 1.906249,0.34926 2.567002,1.26826 0.826919,1.1501 1.169766,2.70274 0.971268,4.39853 -0.251474,2.14835 -1.399379,3.50638 -2.963858,3.50638 -0.689574,0 -1.158543,-0.18436 -1.8194,-0.71525 -0.546065,-0.43866 -0.86899,-0.59974 -1.202381,-0.59974 -0.49477,0 -0.758716,0.24623 -0.897043,0.83681 -0.02728,0.11648 -0.05146,1.79217 -0.069,4.78176 -0.02664,4.54079 -0.02815,4.60655 -0.112377,4.9083 -0.335034,1.20026 -1.065902,2.08411 -2.137592,2.58502 -0.177936,0.0832 -0.466971,0.19254 -0.642302,0.24305 l -0.318784,0.0918 -11.775091,0.006 c -6.476298,0.003 -11.864747,-0.008 -11.974329,-0.0243 z"
         id="path894"
         inkscape:connector-curvature="0" />
    </g>
  </g>
</svg>
