<?xml version="1.0" encoding="UTF-8" standalone="no"?>
<!-- Created with Inkscape (http://www.inkscape.org/) -->

<svg
   xmlns:osb="http://www.openswatchbook.org/uri/2009/osb"
   xmlns:dc="http://purl.org/dc/elements/1.1/"
   xmlns:cc="http://creativecommons.org/ns#"
   xmlns:rdf="http://www.w3.org/1999/02/22-rdf-syntax-ns#"
   xmlns:svg="http://www.w3.org/2000/svg"
   xmlns="http://www.w3.org/2000/svg"
   xmlns:xlink="http://www.w3.org/1999/xlink"
   xmlns:sodipodi="http://sodipodi.sourceforge.net/DTD/sodipodi-0.dtd"
   xmlns:inkscape="http://www.inkscape.org/namespaces/inkscape"
   width="128"
   height="128"
   viewBox="0 0 33.866666 33.866668"
   version="1.1"
   id="svg1038"
   inkscape:version="0.92.2 5c3e80d, 2017-08-06"
   sodipodi:docname="application-x-flash-video.svg">
  <defs
     id="defs1032">
    <linearGradient
       inkscape:collect="always"
       id="linearGradient1297">
      <stop
         style="stop-color:#ffffff;stop-opacity:1"
         offset="0"
         id="stop1293" />
      <stop
         style="stop-color:#dbdbdb;stop-opacity:1"
         offset="1"
         id="stop1295" />
    </linearGradient>
    <linearGradient
       osb:paint="solid"
       id="linearGradient6987">
      <stop
         id="stop6985"
         offset="0"
         style="stop-color:#77d2fb;stop-opacity:1;" />
    </linearGradient>
    <linearGradient
       id="linearGradient1830">
      <stop
         offset="0"
         style="stop-color:#d9d9d9;stop-opacity:1"
         id="stop1826" />
      <stop
         offset="1"
         style="stop-color:#ffffff;stop-opacity:1;"
         id="stop1828" />
    </linearGradient>
    <linearGradient
       gradientTransform="matrix(1.0010487,0,0,1.0010383,-0.017758,-0.26586565)"
       gradientUnits="userSpaceOnUse"
       y2="296.16849"
       x2="4.5843229"
       y1="263.52237"
       x1="29.203474"
       id="linearGradient1503"
       xlink:href="#linearGradient1830"
       inkscape:collect="always" />
    <radialGradient
       inkscape:collect="always"
       xlink:href="#linearGradient1297"
       id="radialGradient1307"
       cx="16.933332"
       cy="282.60522"
       fx="16.933332"
       fy="282.60522"
       r="9.75"
       gradientUnits="userSpaceOnUse"
       gradientTransform="matrix(0.75576923,1.0448967e-7,-9.8861941e-8,0.7150641,4.1356687,80.524371)" />
  </defs>
  <sodipodi:namedview
     id="base"
     pagecolor="#ffffff"
     bordercolor="#666666"
     borderopacity="1.0"
     inkscape:pageopacity="0.0"
     inkscape:pageshadow="2"
     inkscape:zoom="1"
     inkscape:cx="112.65434"
     inkscape:cy="75.79567"
     inkscape:document-units="mm"
     inkscape:current-layer="layer1"
     showgrid="false"
     inkscape:window-width="1600"
     inkscape:window-height="814"
     inkscape:window-x="0"
     inkscape:window-y="0"
     inkscape:window-maximized="1"
     units="px" />
  <metadata
     id="metadata1035">
    <rdf:RDF>
      <cc:Work
         rdf:about="">
        <dc:format>image/svg+xml</dc:format>
        <dc:type
           rdf:resource="http://purl.org/dc/dcmitype/StillImage" />
        <dc:title />
      </cc:Work>
    </rdf:RDF>
  </metadata>
  <g
     inkscape:label="Layer 1"
     inkscape:groupmode="layer"
     id="layer1"
     transform="translate(0,-263.13332)">
    <path
       style="opacity:0.25;fill:#000000;fill-opacity:1;stroke:none;stroke-width:1.87499988;stroke-miterlimit:4;stroke-dasharray:none;stroke-opacity:1"
       d="m 4.571372,264.12318 v 32.61222 h 24.723922 v -18.3 c -0.04716,-0.8313 -0.101653,-1.57532 -0.312496,-2.32966 -0.21448,-0.76736 -0.552469,-1.49394 -0.956412,-2.18925 -0.516871,-0.8897 -1.39035,-1.46334 -2.166671,-2.19248 -0.47098,-0.42711 -1.488209,-1.44169 -2.719481,-2.65304 -1.221196,-1.20143 -2.653456,-2.59692 -3.849171,-3.68107 -0.35316,-0.3187 -0.866164,-0.64943 -1.342771,-0.84044 -0.370088,-0.14831 -0.80547,-0.24063 -1.22583,-0.30267 -0.433449,-0.064 -0.850926,-0.0958 -1.164384,-0.12361 z"
       id="path5023"
       inkscape:connector-curvature="0"
       sodipodi:nodetypes="ccccascscsscc" />
    <path
       sodipodi:nodetypes="ccccascscsscc"
       inkscape:connector-curvature="0"
       id="path4623-8"
       d="m 4.571372,263.5979 v 32.61222 h 24.723922 v -18.3 c -0.04716,-0.83129 -0.101653,-1.57532 -0.312496,-2.32966 -0.21448,-0.76736 -0.552469,-1.49394 -0.956412,-2.18925 -0.516871,-0.88969 -1.39035,-1.46334 -2.166671,-2.19247 -0.47098,-0.42712 -1.488209,-1.4417 -2.719481,-2.65305 -1.221196,-1.20142 -2.653456,-2.59692 -3.849171,-3.68107 -0.35316,-0.3187 -0.866164,-0.64944 -1.342771,-0.84044 -0.370088,-0.14831 -0.80547,-0.24063 -1.22583,-0.30267 -0.433449,-0.064 -0.850926,-0.0958 -1.164384,-0.12361 z"
       style="opacity:1;fill:url(#linearGradient1503);fill-opacity:1;stroke:#808080;stroke-width:0.30000001;stroke-miterlimit:4;stroke-dasharray:none;stroke-opacity:1" />
    <path
       sodipodi:nodetypes="ccccsccsc"
       inkscape:connector-curvature="0"
       id="path1355"
       d="m 19.751144,265.50926 c 0.01633,0.0263 0.561139,0.90462 0.727791,1.39886 0.451585,1.01234 0.25858,3.97236 0.250369,5.65885 0.02772,-0.19401 4.690513,-1.39583 7.111042,0.80464 -0.01547,-0.0273 -0.04888,-0.0804 -0.12512,-0.18628 -0.07235,-0.10046 -0.182749,-0.24915 -0.371644,-0.44224 -0.528108,-0.60452 -0.230926,-0.0845 -0.805409,-0.682 -0.496688,-0.45047 -1.569491,-1.52048 -2.867987,-2.79805 -1.241182,-1.22116 -2.686924,-2.62954 -3.919042,-3.75378 z"
       style="opacity:0.24800002;fill:#000000;fill-opacity:1;stroke:none;stroke-width:0.30000001;stroke-miterlimit:4;stroke-dasharray:none;stroke-opacity:1" />
    <path
       style="opacity:1;fill:#ffffff;fill-opacity:1;stroke:#808080;stroke-width:0.30000001;stroke-miterlimit:4;stroke-dasharray:none;stroke-opacity:1"
       d="m 19.42404,264.98645 c 0.01548,0.0249 0.53209,0.85773 0.690114,1.32635 0.428208,0.95987 0.292236,3.21802 0.28445,4.8171 0.428992,-0.0223 5.159507,-0.73701 7.328403,1.82407 -0.02928,-0.0506 -0.102779,-0.0927 -0.143771,-0.17312 -0.500768,-0.57318 -1.139582,-1.03373 -1.723521,-1.58216 -0.470975,-0.42712 -1.488241,-1.44167 -2.719516,-2.65302 -1.176928,-1.15787 -2.547826,-2.49325 -3.716159,-3.55922 z"
       id="path4753-0"
       inkscape:connector-curvature="0"
       sodipodi:nodetypes="ccccccsc" />
    <g
       style="stroke-width:4.08449793"
       inkscape:transform-center-y="-9.4924686"
       inkscape:transform-center-x="5.4653607"
       inkscape:label="Capa 1"
       id="layer1-4"
       transform="matrix(0.53602412,0,0,0.5372689,-234.93365,-13.760306)">
      <g
         style="stroke-width:4.08449793"
         id="layer1-3-65"
         inkscape:label="Capa 1"
         transform="translate(0.41988239,0.03484499)" />
    </g>
    <circle
       style="opacity:1;fill:url(#radialGradient1307);fill-opacity:1;fill-rule:nonzero;stroke:#808080;stroke-width:0.5;stroke-linecap:round;stroke-miterlimit:4;stroke-dasharray:none;stroke-dashoffset:0;stroke-opacity:1"
       id="path1269"
       cx="16.933332"
       cy="282.60522"
       r="9.5" />
    <path
       style="fill:#666666;fill-opacity:1;stroke:#1a1a1a;stroke-width:0.1;stroke-miterlimit:4;stroke-dasharray:none;stroke-opacity:1"
       d="m 11.560882,287.82564 v -1.21252 l 0.207807,-0.0199 c 0.998755,-0.10018 1.476372,-0.31588 2.116654,-0.95617 0.746789,-0.7468 1.246875,-1.68279 2.074938,-3.88371 0.547929,-1.45635 1.002138,-2.3405 1.713749,-3.33601 0.621096,-0.86886 1.605366,-1.57295 2.707516,-1.93678 0.543047,-0.17931 1.281727,-0.31072 1.746034,-0.31072 h 0.178202 v 1.21366 1.21369 l -0.207807,0.0177 c -0.550754,0.0479 -0.997148,0.18483 -1.428141,0.4371 -0.573308,0.33571 -1.277454,1.19754 -1.67343,2.04813 -0.13741,0.29516 -0.213224,0.27243 0.907947,0.27243 h 0.985206 v 1.23122 1.23121 l -1.51129,0.009 -1.51129,0.009 -0.166219,0.36737 c -0.4261,0.94184 -0.923157,1.82879 -1.410134,2.51624 -0.935799,1.32103 -2.185095,2.03928 -3.929265,2.25901 -0.19474,0.0246 -0.454503,0.0446 -0.577269,0.0448 l -0.22321,2.3e-4 v -1.21252 z"
       id="path3820"
       inkscape:connector-curvature="0" />
  </g>
</svg>
