<?xml version="1.0" encoding="UTF-8" standalone="no"?>
<!-- Created with Inkscape (http://www.inkscape.org/) -->

<svg
   xmlns:osb="http://www.openswatchbook.org/uri/2009/osb"
   xmlns:dc="http://purl.org/dc/elements/1.1/"
   xmlns:cc="http://creativecommons.org/ns#"
   xmlns:rdf="http://www.w3.org/1999/02/22-rdf-syntax-ns#"
   xmlns:svg="http://www.w3.org/2000/svg"
   xmlns="http://www.w3.org/2000/svg"
   xmlns:xlink="http://www.w3.org/1999/xlink"
   xmlns:sodipodi="http://sodipodi.sourceforge.net/DTD/sodipodi-0.dtd"
   xmlns:inkscape="http://www.inkscape.org/namespaces/inkscape"
   width="128"
   height="128"
   viewBox="0 0 33.866666 33.866668"
   version="1.1"
   id="svg1038"
   inkscape:version="0.92.2 5c3e80d, 2017-08-06"
   sodipodi:docname="application-template.svg">
  <defs
     id="defs1032">
    <linearGradient
       id="linearGradient8130">
      <stop
         id="stop8128"
         offset="0"
         style="stop-color:#4bb6ed;stop-opacity:1" />
      <stop
         id="stop8126"
         offset="1"
         style="stop-color:#0b82fe;stop-opacity:1" />
    </linearGradient>
    <linearGradient
       osb:paint="solid"
       id="linearGradient6987">
      <stop
         id="stop6985"
         offset="0"
         style="stop-color:#77d2fb;stop-opacity:1;" />
    </linearGradient>
    <linearGradient
       gradientTransform="matrix(1.0010487,0,0,1.0010383,-0.017758,-0.26586565)"
       gradientUnits="userSpaceOnUse"
       y2="294.83975"
       x2="5.8018413"
       y1="268.28818"
       x1="18.924377"
       id="linearGradient1503"
       xlink:href="#linearGradient8130"
       inkscape:collect="always" />
    <linearGradient
       id="linearGradient4590"
       inkscape:collect="always">
      <stop
         id="stop4592"
         offset="0"
         style="stop-color:#ffffff;stop-opacity:1" />
      <stop
         id="stop4594"
         offset="1"
         style="stop-color:#d9d9d9;stop-opacity:1" />
    </linearGradient>
    <linearGradient
       inkscape:collect="always"
       xlink:href="#linearGradient4590"
       id="linearGradient8140"
       x1="22.367529"
       y1="269.73138"
       x2="23.350012"
       y2="268.83844"
       gradientUnits="userSpaceOnUse" />
  </defs>
  <sodipodi:namedview
     id="base"
     pagecolor="#ffffff"
     bordercolor="#666666"
     borderopacity="1.0"
     inkscape:pageopacity="0.0"
     inkscape:pageshadow="2"
     inkscape:zoom="0.5"
     inkscape:cx="184.62519"
     inkscape:cy="5.0711572"
     inkscape:document-units="mm"
     inkscape:current-layer="layer1"
     showgrid="false"
     inkscape:window-width="1600"
     inkscape:window-height="814"
     inkscape:window-x="0"
     inkscape:window-y="0"
     inkscape:window-maximized="1"
     units="px" />
  <metadata
     id="metadata1035">
    <rdf:RDF>
      <cc:Work
         rdf:about="">
        <dc:format>image/svg+xml</dc:format>
        <dc:type
           rdf:resource="http://purl.org/dc/dcmitype/StillImage" />
        <dc:title />
      </cc:Work>
    </rdf:RDF>
  </metadata>
  <g
     inkscape:label="Layer 1"
     inkscape:groupmode="layer"
     id="layer1"
     transform="translate(0,-263.13332)">
    <path
       style="opacity:0.25;fill:#000000;fill-opacity:1;stroke:none;stroke-width:1.87499988;stroke-miterlimit:4;stroke-dasharray:none;stroke-opacity:1"
       d="m 4.571372,264.12318 v 32.61222 h 24.723922 v -18.3 c -0.04716,-0.8313 -0.101653,-1.57532 -0.312496,-2.32966 -0.21448,-0.76736 -0.552469,-1.49394 -0.956412,-2.18925 -0.516871,-0.8897 -1.39035,-1.46334 -2.166671,-2.19248 -0.47098,-0.42711 -1.488209,-1.44169 -2.719481,-2.65304 -1.221196,-1.20143 -2.653456,-2.59692 -3.849171,-3.68107 -0.35316,-0.3187 -0.866164,-0.64943 -1.342771,-0.84044 -0.370088,-0.14831 -0.80547,-0.24063 -1.22583,-0.30267 -0.433449,-0.064 -0.850926,-0.0958 -1.164384,-0.12361 z"
       id="path5023"
       inkscape:connector-curvature="0"
       sodipodi:nodetypes="ccccascscsscc" />
    <path
       sodipodi:nodetypes="ccccascscsscc"
       inkscape:connector-curvature="0"
       id="path4623-8"
       d="m 4.571372,263.5979 v 32.61222 h 24.723922 v -18.3 c -0.04716,-0.83129 -0.101653,-1.57532 -0.312496,-2.32966 -0.21448,-0.76736 -0.552469,-1.49394 -0.956412,-2.18925 -0.516871,-0.88969 -1.39035,-1.46334 -2.166671,-2.19247 -0.47098,-0.42712 -1.488209,-1.4417 -2.719481,-2.65305 -1.221196,-1.20142 -2.653456,-2.59692 -3.849171,-3.68107 -0.35316,-0.3187 -0.866164,-0.64944 -1.342771,-0.84044 -0.370088,-0.14831 -0.80547,-0.24063 -1.22583,-0.30267 -0.433449,-0.064 -0.850926,-0.0958 -1.164384,-0.12361 z"
       style="opacity:1;fill:url(#linearGradient1503);fill-opacity:1;stroke:none;stroke-width:0.40000001;stroke-miterlimit:4;stroke-dasharray:none;stroke-opacity:1" />
    <g
       id="g8124"
       transform="translate(0.00446975,0.08443272)"
       style="stroke-width:0.2;stroke-miterlimit:4;stroke-dasharray:none">
      <path
         style="opacity:1;fill:none;fill-opacity:1;stroke:#ffffff;stroke-width:0.2;stroke-miterlimit:4;stroke-dasharray:none;stroke-opacity:1"
         d="m 5.7901675,264.7606 v 30.11943 H 28.067559 l -0.220138,-16.64072 c -0.04798,-1.84435 -0.860498,-6.65872 -2.422118,-7.04249 -0.79989,-1.20945 -1.00047,-0.85575 -2.128352,-2.02271 -1.100357,-1.1096 -1.650438,-1.58847 -2.727836,-2.58975 -1.221725,-1.24268 -3.153437,-1.55226 -4.87942,-1.72686 z"
         id="path7427"
         inkscape:connector-curvature="0"
         sodipodi:nodetypes="ccccccccc" />
      <path
         style="fill:none;fill-rule:evenodd;stroke:#ffffff;stroke-width:0.2;stroke-linecap:butt;stroke-linejoin:miter;stroke-miterlimit:4;stroke-dasharray:none;stroke-opacity:1"
         d="M 5.7671545,292.54851 H 28.090573"
         id="path7433"
         inkscape:connector-curvature="0" />
    </g>
    <path
       style="opacity:0.25;fill:#000000;fill-opacity:1;stroke:none;stroke-width:1.51181102;stroke-miterlimit:4;stroke-dasharray:none;stroke-opacity:1"
       d="M 75.416016 10.140625 C 75.475354 10.234735 77.454779 13.383135 78.060547 15.154297 C 79.702026 18.782152 79.182191 27.315608 79.152344 33.359375 C 80.729797 33.278527 97.432887 30.801445 106.13086 39.142578 C 106.06056 39.01914 105.99719 38.892449 105.92578 38.769531 C 103.97225 35.406923 100.67241 33.240142 97.738281 30.484375 C 96.840635 29.670322 95.409687 28.283215 93.623047 26.529297 C 92.220432 25.71146 90.855783 24.751613 89.662109 23.59375 C 85.15051 19.217548 79.894665 14.169488 75.416016 10.140625 z "
       transform="matrix(0.26458333,0,0,0.26458333,0,263.13332)"
       id="path1488" />
    <path
       style="opacity:1;fill:url(#linearGradient8140);fill-opacity:1;stroke:none;stroke-width:0.3;stroke-miterlimit:4;stroke-dasharray:none;stroke-opacity:1"
       d="m 19.42404,264.98645 c 0.01548,0.0249 0.53209,0.85773 0.690114,1.32635 0.428208,0.95987 0.292236,3.21802 0.28445,4.8171 0.428992,-0.0223 5.148138,-0.73598 7.317034,1.8251 -0.02928,-0.0506 -0.09141,-0.0937 -0.132402,-0.17415 -0.500768,-0.57318 -1.139582,-1.03373 -1.723521,-1.58216 -0.470975,-0.42712 -1.488241,-1.44167 -2.719516,-2.65302 -1.176928,-1.15787 -2.547826,-2.49325 -3.716159,-3.55922 z"
       id="path4753-0"
       inkscape:connector-curvature="0"
       sodipodi:nodetypes="ccccccsc" />
    <g
       id="g7451"
       style="font-style:normal;font-weight:normal;font-size:6.53817463px;line-height:125%;font-family:sans-serif;letter-spacing:0px;word-spacing:0px;fill:#ffffff;fill-opacity:1;stroke:none;stroke-width:4.02098608px;stroke-linecap:butt;stroke-linejoin:miter;stroke-opacity:1"
       transform="matrix(0.2486952,0,0,0.2486952,-0.07131306,223.06555)">
      <path
         id="path7435"
         style="font-style:normal;font-variant:normal;font-weight:bold;font-stretch:normal;font-size:6.28385401px;font-family:'Liberation Sans';-inkscape-font-specification:'Liberation Sans Bold';fill:#ffffff;fill-opacity:1;stroke-width:4.02098608px"
         d="m 80.796149,282.72285 v 3.62365 h -0.905145 v -3.62365 h -1.396071 v -0.69957 h 3.700355 v 0.69957 z"
         inkscape:connector-curvature="0" />
      <path
         id="path7437"
         style="font-style:normal;font-variant:normal;font-weight:bold;font-stretch:normal;font-size:6.28385401px;font-family:'Liberation Sans';-inkscape-font-specification:'Liberation Sans Bold';fill:#ffffff;fill-opacity:1;stroke-width:4.02098608px"
         d="m 82.686214,286.3465 v -4.32322 h 3.399664 v 0.69957 h -2.494519 v 1.08617 h 2.307353 v 0.69957 h -2.307353 v 1.13834 h 2.620318 v 0.69957 z"
         inkscape:connector-curvature="0" />
      <path
         id="path7439"
         style="font-style:normal;font-variant:normal;font-weight:bold;font-stretch:normal;font-size:6.28385401px;font-family:'Liberation Sans';-inkscape-font-specification:'Liberation Sans Bold';fill:#ffffff;fill-opacity:1;stroke-width:4.02098608px"
         d="m 90.473529,286.3465 v -2.62032 q 0,-0.15648 0.0031,-0.32217 0.0061,-0.16569 0.01227,-0.30376 0.0092,-0.16262 0.01534,-0.31604 -0.06443,0.2424 -0.122731,0.46025 -0.02455,0.092 -0.05216,0.19023 -0.02761,0.0982 -0.05523,0.19024 -0.02455,0.092 -0.04909,0.17182 -0.02455,0.0798 -0.04296,0.13807 l -0.779345,2.41168 h -0.644341 l -0.779345,-2.41168 q -0.01841,-0.0583 -0.04296,-0.13807 -0.02148,-0.0798 -0.04909,-0.17182 -0.02455,-0.0921 -0.05216,-0.19024 -0.02761,-0.0982 -0.05523,-0.19023 -0.06136,-0.21785 -0.128868,-0.46025 0.0092,0.17796 0.01841,0.34979 0.0061,0.14728 0.01227,0.3099 0.0061,0.16262 0.0061,0.28228 v 2.62032 h -0.803892 v -4.32322 h 1.211974 l 0.773209,2.41781 q 0.03068,0.0951 0.06443,0.23319 0.03682,0.13807 0.07057,0.26694 0.03682,0.15035 0.07978,0.31297 0.04296,-0.15955 0.08284,-0.30683 0.01841,-0.0644 0.03682,-0.13194 0.01841,-0.0675 0.03682,-0.13194 0.01841,-0.0644 0.03682,-0.12273 0.01841,-0.0583 0.03375,-0.10432 l 0.760936,-2.43315 h 1.205837 v 4.32322 h -0.803892 z"
         inkscape:connector-curvature="0" />
      <path
         id="path7441"
         style="font-style:normal;font-variant:normal;font-weight:bold;font-stretch:normal;font-size:6.28385401px;font-family:'Liberation Sans';-inkscape-font-specification:'Liberation Sans Bold';fill:#ffffff;fill-opacity:1;stroke-width:4.02098608px"
         d="m 95.680414,283.39174 q 0,0.27921 -0.09512,0.54001 -0.09205,0.25774 -0.285351,0.45718 -0.193302,0.19944 -0.490926,0.3191 -0.297624,0.1166 -0.705706,0.1166 H 93.02941 v 1.52187 h -0.905145 v -4.32322 h 1.942227 q 0.414218,0 0.717979,0.10125 0.30376,0.0982 0.503199,0.27922 0.199439,0.18103 0.294556,0.43263 0.09819,0.25159 0.09819,0.55536 z m -0.911281,0.0153 q 0,-0.33445 -0.202507,-0.50627 -0.199439,-0.17489 -0.601385,-0.17489 h -0.935828 v 1.4022 h 0.960374 q 0.202507,0 0.346717,-0.0522 0.147278,-0.0522 0.242395,-0.14727 0.09818,-0.0951 0.144209,-0.22706 0.04603,-0.135 0.04603,-0.29455 z"
         inkscape:connector-curvature="0" />
      <path
         id="path7443"
         style="font-style:normal;font-variant:normal;font-weight:bold;font-stretch:normal;font-size:6.28385401px;font-family:'Liberation Sans';-inkscape-font-specification:'Liberation Sans Bold';fill:#ffffff;fill-opacity:1;stroke-width:4.02098608px"
         d="m 96.321686,286.3465 v -4.32322 h 0.905145 v 3.62365 h 2.319626 v 0.69957 z"
         inkscape:connector-curvature="0" />
      <path
         id="path7445"
         style="font-style:normal;font-variant:normal;font-weight:bold;font-stretch:normal;font-size:6.28385401px;font-family:'Liberation Sans';-inkscape-font-specification:'Liberation Sans Bold';fill:#ffffff;fill-opacity:1;stroke-width:4.02098608px"
         d="m 103.2192,286.3465 -0.38354,-1.10459 h -1.64767 l -0.38353,1.10459 h -0.905149 l 1.577099,-4.32322 h 1.06777 l 1.57096,4.32322 z m -1.01254,-3.0284 q -0.0368,-0.10739 -0.0736,-0.21478 -0.0337,-0.11046 -0.0614,-0.19944 -0.0245,-0.0921 -0.043,-0.15035 -0.0153,-0.0583 -0.0184,-0.0644 -0.003,0.009 -0.0184,0.0675 -0.0153,0.0583 -0.0429,0.14728 -0.0246,0.089 -0.0614,0.19944 -0.0337,0.10739 -0.0706,0.21478 l -0.42649,1.24265 h 1.24266 l -0.4265,-1.24265 z"
         inkscape:connector-curvature="0" />
      <path
         id="path7447"
         style="font-style:normal;font-variant:normal;font-weight:bold;font-stretch:normal;font-size:6.28385401px;font-family:'Liberation Sans';-inkscape-font-specification:'Liberation Sans Bold';fill:#ffffff;fill-opacity:1;stroke-width:4.02098608px"
         d="m 106.1893,282.72285 v 3.62365 h -0.90514 v -3.62365 h -1.39607 v -0.69957 h 3.70035 v 0.69957 z"
         inkscape:connector-curvature="0" />
      <path
         id="path7449"
         style="font-style:normal;font-variant:normal;font-weight:bold;font-stretch:normal;font-size:6.28385401px;font-family:'Liberation Sans';-inkscape-font-specification:'Liberation Sans Bold';fill:#ffffff;fill-opacity:1;stroke-width:4.02098608px"
         d="m 108.07937,286.3465 v -4.32322 h 3.39966 v 0.69957 h -2.49452 v 1.08617 h 2.30735 v 0.69957 h -2.30735 v 1.13834 h 2.62032 v 0.69957 z"
         inkscape:connector-curvature="0" />
    </g>
    <path
       sodipodi:nodetypes="ccccsssscscssccccsscsccscccccccccsscsccsccsccccsccscsccccssscssccsccscsscccscsscssscscccscscccccccccccscccccccccscssssccccsccccccccccccccscccccccccccccccsccssscccsscscsssccsscsssscsssssccsscscssscccccsssssscccscsc"
       inkscape:connector-curvature="0"
       id="path2195"
       d="m 17.26571,271.88612 c -0.03535,7.5e-4 -0.07655,0.007 -0.127571,0.0185 -0.423459,0.0415 -1.038121,0.4093 -1.261364,0.7547 -0.236946,0.3706 -0.0075,0.7892 0.230736,1.16401 0.02301,0.0286 0.166682,0.26228 0.319312,0.51945 0.152632,0.25716 0.952022,1.59756 1.776289,2.97864 0.824268,1.38109 1.753298,2.93964 2.064486,3.4635 0.594042,1 0.755134,1.2469 0.813579,1.2469 0.01949,0 0.132984,-0.0585 0.25217,-0.12989 0.119186,-0.0714 0.507019,-0.30126 0.861999,-0.5108 0.354982,-0.20955 0.654835,-0.40734 0.666253,-0.43939 0.02426,-0.068 0.137501,0.12666 -2.714468,-4.6643 -1.183345,-1.98788 -2.151513,-3.62036 -2.151513,-3.62773 0,-0.0574 -0.333217,-0.51106 -0.462504,-0.62971 -0.107965,-0.0991 -0.161366,-0.14607 -0.267404,-0.14384 z m -0.08857,0.2656 c 0.02039,-0.001 0.038,-0.001 0.05216,10e-4 0.133233,0.0196 0.279826,0.16727 0.450883,0.45463 0.06871,0.11542 1.19862,2.00557 2.510978,4.20024 1.312363,2.19467 2.387865,4.01358 2.389864,4.04207 0.0022,0.0322 -0.265409,0.21326 -0.706281,0.47774 -0.390515,0.23427 -0.72066,0.42611 -0.733653,0.42661 -0.01299,2.5e-4 -0.05333,-0.0423 -0.08961,-0.0946 -0.03628,-0.0524 -0.191043,-0.30567 -0.343845,-0.56283 -0.152803,-0.25717 -0.620827,-1.04422 -1.040183,-1.74905 -2.199208,-3.69649 -1.232777,-2.07055 -3.418686,-5.76491 -0.0909,-0.0754 -0.256052,-0.52924 -0.237062,-0.6514 0.02141,-0.13763 0.263473,-0.39368 0.47051,-0.49776 0.07994,-0.0402 0.168718,-0.0925 0.197292,-0.11646 0.08205,-0.0687 0.354832,-0.15573 0.497628,-0.16527 z m -2.160938,2.50801 c -0.131999,0.002 -0.200161,0.0458 -0.323702,0.2062 -0.1301,0.13346 -0.289301,0.35213 -0.400786,0.55043 -0.101743,0.18097 -0.238005,0.4123 -0.302784,0.5139 -0.07236,0.11348 -0.110116,0.20889 -0.09787,0.24752 0.01097,0.0346 0.14798,0.13524 0.304463,0.22363 0.156485,0.0884 0.53397,0.31419 0.838757,0.50189 0.304793,0.1877 0.593904,0.34313 0.642497,0.34513 0.07851,0.003 0.127184,-0.061 0.435907,-0.57651 0.241135,-0.40265 0.366173,-0.65054 0.409179,-0.81035 0.0536,-0.19895 0.07421,-0.26285 -0.06998,-0.42932 -0.147208,-0.22178 -0.41403,-0.43466 -0.77549,-0.61887 -0.181697,-0.0926 -0.299066,-0.12644 -0.50253,-0.14488 -0.06262,-0.006 -0.113657,-0.01 -0.157655,-0.009 z m 0.140095,0.24765 c 0.114183,0.001 0.243756,0.0423 0.391616,0.12214 0.09408,0.0508 0.220725,0.11858 0.281351,0.15043 0.178063,0.0935 0.434348,0.34901 0.466377,0.46495 0.02249,0.0814 0.01204,0.14825 -0.04351,0.27709 -0.119553,0.27729 -0.568567,1.03513 -0.617965,1.04303 -0.02513,0.004 -0.357316,-0.17934 -0.738303,-0.4075 -0.38099,-0.22817 -0.697619,-0.43665 -0.70344,-0.46315 -0.01132,-0.0515 0.424385,-0.78288 0.594076,-0.99732 0.101731,-0.12855 0.222988,-0.19167 0.369798,-0.18967 z m -1.421343,1.53096 c -0.03252,0.0103 -0.297426,0.4197 -0.588526,0.90977 -0.291101,0.49008 -0.84442,1.42107 -1.22973,2.06875 -0.385307,0.64768 -1.117327,1.87894 -1.626642,2.73616 -0.5093161,0.85723 -0.9647654,1.61014 -1.0121634,1.67313 -0.126053,0.16752 -0.09036,0.24281 0.187737,0.3951 0.1291233,0.0707 0.5153653,0.29914 0.8582574,0.50783 0.342891,0.20868 0.656314,0.38095 0.696466,0.38245 0.05333,0.002 0.096,-0.0415 0.158429,-0.16166 0.04701,-0.0905 0.481754,-0.82588 0.966069,-1.63413 0.484315,-0.80826 0.917613,-1.53296 0.962843,-1.6105 0.253661,-0.43491 0.995083,-1.6779 1.04483,-1.75163 0.03213,-0.0476 0.343473,-0.56973 0.691819,-1.16027 0.348346,-0.59053 0.656237,-1.10019 0.684203,-1.13276 0.07514,-0.0875 0.02819,-0.21279 -0.103554,-0.27631 -0.0625,-0.0301 -0.454939,-0.25952 -0.872199,-0.50977 -0.477598,-0.28643 -0.780614,-0.44798 -0.817839,-0.43616 z m 0.09735,0.29581 c 0.09222,0.002 1.407743,0.80682 1.419536,0.86807 0.0058,0.0301 -0.295872,0.56748 -0.670386,1.19435 -0.374511,0.62687 -0.710039,1.19054 -0.745661,1.25259 -0.03562,0.062 -0.279347,0.47222 -0.541526,0.91145 -0.262176,0.43922 -0.505481,0.84818 -0.540751,0.90887 -0.676605,1.16422 -1.771367,2.96767 -1.80134,2.96754 -0.02176,-7e-5 -0.348926,-0.1854 -0.72707,-0.41202 -0.3781411,-0.22662 -0.7029651,-0.42755 -0.7219051,-0.44649 -0.02281,-0.0228 0.166542,-0.37181 0.5608951,-1.03386 0.327422,-0.54968 0.630361,-1.05395 0.673227,-1.12062 0.06227,-0.0969 0.836316,-1.39221 1.142833,-1.91252 1.190751,-2.02128 1.901789,-3.17861 1.952148,-3.17736 z m 9.900851,3.11035 c -0.734548,-0.002 -1.129402,0.006 -1.150968,0.0226 -0.03372,0.0265 0.08711,0.25401 0.517639,0.97485 0.308888,0.51716 0.58253,0.96556 0.608023,0.99628 0.04146,0.05 0.19281,0.0548 1.435805,0.0467 l 1.389448,-0.009 v -1.00441 -1.00442 l -1.953441,-0.0173 c -0.319102,-0.003 -0.601657,-0.005 -0.846506,-0.005 z m -13.627612,7.5e-4 c -0.2399311,5e-4 -0.5018551,0.002 -0.7748454,0.005 l -1.985463,0.0173 -0.0093,0.96929 c -0.0051,0.53313 -0.0017,0.98899 0.0076,1.01307 0.01317,0.0343 0.321221,0.0438 1.419018,0.0438 h 1.4021064 l 0.05526,-0.0779 c 0.03032,-0.0429 0.285051,-0.45206 0.566059,-0.90925 0.281001,-0.45719 0.538392,-0.87279 0.571996,-0.92359 0.05319,-0.0804 0.0543,-0.0961 0.0094,-0.12124 -0.02126,-0.0119 -0.541958,-0.0178 -1.261754,-0.016 h -1.28e-4 z m 6.866163,0.003 c -1.925256,5e-4 -2.463189,0.01 -2.496905,0.0442 -0.0813,0.0824 -1.216301,1.94866 -1.200935,1.97462 0.0085,0.0143 1.666685,0.026 3.6848,0.026 3.001593,0 3.669176,-0.008 3.669176,-0.0453 0,-0.025 -0.241483,-0.4465 -0.536748,-0.93675 -0.295265,-0.49027 -0.536876,-0.90386 -0.536876,-0.91907 0,-0.0152 -0.02905,-0.054 -0.06443,-0.086 -0.059,-0.0534 -0.267589,-0.0581 -2.518081,-0.0576 z m 1.25478,0.21408 c 0.963186,6e-5 1.054944,0.0126 1.091831,0.0554 0.08281,0.0961 0.893892,1.4814 0.893892,1.52671 0,0.0525 -6.49555,0.0596 -6.528002,0.007 -0.01144,-0.0185 0.194217,-0.3808 0.45708,-0.80518 l 0.477999,-0.77175 2.323239,-0.009 c 0.544918,-0.002 0.962898,-0.003 1.283961,-0.003 z m 5.58995,0.001 c 0.220145,-1.2e-4 0.490672,7.5e-4 0.820553,0.002 l 1.688491,0.009 v 0.79666 0.79667 l -1.218238,0.009 -1.218239,0.009 -0.06624,-0.0957 c -0.151955,-0.21988 -0.874265,-1.45169 -0.874265,-1.49094 0,-0.025 0.207497,-0.0354 0.867936,-0.0362 v -1.3e-4 z m -13.9078011,10e-4 c 0.6121711,0.001 1.0512941,0.009 1.0630371,0.0207 0.01564,0.0156 -0.186343,0.37825 -0.448687,0.8057 l -0.476836,0.77717 -1.2387704,0.009 c -0.984306,0.007 -1.242374,1e-5 -1.255942,-0.0354 -0.0095,-0.0245 -0.01289,-0.38706 -0.0077,-0.8057 l 0.0094,-0.76116 1.694948,-0.009 c 0.233072,-10e-4 0.4565153,-0.002 0.6605713,-10e-4 z m 13.1177221,1.12011 c -0.02623,-0.0101 -0.237595,0.0963 -0.469736,0.23642 -0.232133,0.14009 -0.487358,0.29188 -0.567218,0.33739 -0.488196,0.27819 -0.769956,0.45868 -0.787496,0.50434 -0.01199,0.0312 0.177633,0.38259 0.47025,0.87168 0.563846,0.94242 0.539147,0.90615 0.616414,0.90615 0.0324,0 0.381495,-0.19481 0.775877,-0.4328 0.39438,-0.23799 0.777876,-0.46372 0.852185,-0.50163 0.07431,-0.0379 0.144129,-0.0971 0.155073,-0.13157 0.01312,-0.0413 -0.09229,-0.25168 -0.308208,-0.61538 -0.180452,-0.30395 -0.348903,-0.58374 -0.374316,-0.62184 -0.02541,-0.0381 -0.106808,-0.17396 -0.180767,-0.30188 -0.07396,-0.12791 -0.15583,-0.24081 -0.182058,-0.25088 z m -0.09787,0.29297 c 0.02919,0 0.07427,0.035 0.100324,0.0779 0.739278,1.21624 0.792116,1.31636 0.72733,1.37796 -0.09048,0.086 -1.358615,0.83011 -1.414759,0.83011 -0.02583,0 -0.233867,-0.31511 -0.462504,-0.70022 -0.300093,-0.50546 -0.406006,-0.7121 -0.380513,-0.74282 0.01941,-0.0234 0.217281,-0.14685 0.43965,-0.27451 0.222371,-0.12764 0.524325,-0.3078 0.670903,-0.40026 0.146576,-0.0925 0.290381,-0.16812 0.319569,-0.16812 z m 1.219143,1.88475 c -0.151675,0.002 -0.351244,0.10964 -0.800798,0.37587 -0.707691,0.41909 -0.813966,0.51943 -0.813966,0.76942 0,0.42029 0.279656,1.04796 0.620029,1.39152 0.110481,0.11151 0.428089,0.35475 0.705894,0.54062 0.288311,0.19289 0.566114,0.40839 0.647274,0.50201 0.122726,0.14159 0.357868,0.57292 0.481099,0.88266 0.06195,0.15571 0.162325,0.1238 0.268308,-0.0854 0.240059,-0.47374 0.353193,-0.90127 0.395235,-1.49455 0.05612,-0.79194 -0.151805,-1.50079 -0.641205,-2.18663 -0.199152,-0.27909 -0.371971,-0.45152 -0.597048,-0.5955 -0.100171,-0.0641 -0.173815,-0.10107 -0.264822,-0.10007 z m -0.04416,0.22803 c 0.14261,0 0.259742,0.0753 0.494009,0.31776 0.354662,0.36699 0.545247,0.69751 0.714805,1.23993 0.184372,0.5898 0.186686,1.2363 0.0066,1.85777 -0.08147,0.28111 -0.171252,0.49827 -0.205948,0.49827 -0.0086,0 -0.04934,-0.0662 -0.09051,-0.1472 -0.240124,-0.47223 -0.472319,-0.70692 -1.135085,-1.14774 -0.528835,-0.35174 -0.750881,-0.58089 -0.938309,-0.96852 -0.228048,-0.47164 -0.261009,-0.79912 -0.09529,-0.9458 0.163758,-0.14494 1.1564,-0.70447 1.249743,-0.70447 z m -15.0325574,0.7312 c -0.072,0.005 -0.112157,0.0963 -0.17031,0.30782 -0.271775,0.9883 -0.81564,3.19299 -0.798599,3.2374 0.01117,0.0291 0.04513,0.0529 0.07541,0.0529 0.03027,0 0.268431,-0.19829 0.529258,-0.44068 0.706478,-0.65655 1.4054414,-1.30274 1.8017274,-1.66577 0.196738,-0.18023 0.352366,-0.35034 0.352366,-0.38516 0,-0.0445 -0.213845,-0.18887 -0.744887,-0.50318 -0.4096741,-0.24247 -0.8012304,-0.47914 -0.8701324,-0.5259 -0.07695,-0.0522 -0.131627,-0.0804 -0.174828,-0.0775 z m 0.09348,0.31686 c 0.05838,-0.0102 1.3557514,0.75288 1.3742164,0.80828 0.0066,0.0199 -0.389613,0.40973 -0.8805941,0.86626 -1.2280003,1.14183 -1.2133763,1.12878 -1.2347643,1.09416 -0.01047,-0.017 0.140382,-0.64479 0.335321,-1.39526 0.254425,-0.9795 0.369039,-1.36702 0.405821,-1.37344 z"
       style="fill:#ffffff;fill-opacity:1;stroke-width:0.99999994" />
  </g>
</svg>
