<?xml version="1.0" encoding="UTF-8" standalone="no"?>
<!-- Created with Inkscape (http://www.inkscape.org/) -->

<svg
   xmlns:osb="http://www.openswatchbook.org/uri/2009/osb"
   xmlns:dc="http://purl.org/dc/elements/1.1/"
   xmlns:cc="http://creativecommons.org/ns#"
   xmlns:rdf="http://www.w3.org/1999/02/22-rdf-syntax-ns#"
   xmlns:svg="http://www.w3.org/2000/svg"
   xmlns="http://www.w3.org/2000/svg"
   xmlns:xlink="http://www.w3.org/1999/xlink"
   xmlns:sodipodi="http://sodipodi.sourceforge.net/DTD/sodipodi-0.dtd"
   xmlns:inkscape="http://www.inkscape.org/namespaces/inkscape"
   width="128"
   height="128"
   viewBox="0 0 33.866666 33.866668"
   version="1.1"
   id="svg917"
   inkscape:version="0.92.2 5c3e80d, 2017-08-06"
   sodipodi:docname="text-x-script copy.svg">
  <defs
     id="defs911">
    <linearGradient
       inkscape:collect="always"
       id="linearGradient1102">
      <stop
         style="stop-color:#f2e8ec;stop-opacity:1"
         offset="0"
         id="stop1098" />
      <stop
         style="stop-color:#6e6a6b;stop-opacity:1"
         offset="1"
         id="stop1100" />
    </linearGradient>
    <linearGradient
       inkscape:collect="always"
       id="linearGradient1080">
      <stop
         style="stop-color:#f2e8ec;stop-opacity:1"
         offset="0"
         id="stop1076" />
      <stop
         style="stop-color:#8c8789;stop-opacity:1"
         offset="1"
         id="stop1078" />
    </linearGradient>
    <linearGradient
       id="linearGradient1044"
       inkscape:collect="always">
      <stop
         id="stop1040"
         offset="0"
         style="stop-color:#f4ecee;stop-opacity:1" />
      <stop
         id="stop1042"
         offset="1"
         style="stop-color:#999496;stop-opacity:1" />
    </linearGradient>
    <linearGradient
       osb:paint="solid"
       id="linearGradient6987">
      <stop
         id="stop6985"
         offset="0"
         style="stop-color:#77d2fb;stop-opacity:1;" />
    </linearGradient>
    <radialGradient
       gradientUnits="userSpaceOnUse"
       gradientTransform="matrix(0.22331678,0.05969703,-0.0665766,0.24905214,5.9215019,257.59333)"
       r="18.709421"
       fy="110.96981"
       fx="66.918404"
       cy="110.96981"
       cx="66.918404"
       id="radialGradient1082"
       xlink:href="#linearGradient1080"
       inkscape:collect="always" />
    <linearGradient
       gradientTransform="matrix(0.18610887,0,0,0.18610887,1.0685247,268.46723)"
       spreadMethod="reflect"
       gradientUnits="userSpaceOnUse"
       y2="8.2757807"
       x2="105.62272"
       y1="-4.3495493"
       x1="93.021446"
       id="linearGradient1090"
       xlink:href="#linearGradient1044"
       inkscape:collect="always" />
    <radialGradient
       spreadMethod="reflect"
       gradientUnits="userSpaceOnUse"
       gradientTransform="matrix(0.67721139,-0.77740139,0.18475661,0.16094547,-39.814526,326.46911)"
       r="49.52496"
       fy="69.367668"
       fx="66.996826"
       cy="69.367668"
       cx="66.996826"
       id="radialGradient1096"
       xlink:href="#linearGradient1102"
       inkscape:collect="always" />
    <linearGradient
       gradientTransform="matrix(0.18610887,0,0,0.18610887,1.4086251,268.46723)"
       gradientUnits="userSpaceOnUse"
       y2="92.078621"
       x2="114.88079"
       y1="80.511803"
       x1="56.449543"
       id="linearGradient4632"
       xlink:href="#linearGradient4626-3"
       inkscape:collect="always" />
    <linearGradient
       inkscape:collect="always"
       id="linearGradient4626-3">
      <stop
         style="stop-color:#dedede;stop-opacity:1"
         offset="0"
         id="stop4628-9" />
      <stop
         style="stop-color:#d1d1d1;stop-opacity:1"
         offset="1"
         id="stop4630-9" />
    </linearGradient>
  </defs>
  <sodipodi:namedview
     id="base"
     pagecolor="#ffffff"
     bordercolor="#666666"
     borderopacity="1.0"
     inkscape:pageopacity="0.0"
     inkscape:pageshadow="2"
     inkscape:zoom="0.35"
     inkscape:cx="274.12533"
     inkscape:cy="-176.27906"
     inkscape:document-units="mm"
     inkscape:current-layer="layer1"
     showgrid="false"
     units="px"
     inkscape:window-width="1600"
     inkscape:window-height="814"
     inkscape:window-x="0"
     inkscape:window-y="0"
     inkscape:window-maximized="1" />
  <metadata
     id="metadata914">
    <rdf:RDF>
      <cc:Work
         rdf:about="">
        <dc:format>image/svg+xml</dc:format>
        <dc:type
           rdf:resource="http://purl.org/dc/dcmitype/StillImage" />
        <dc:title />
      </cc:Work>
    </rdf:RDF>
  </metadata>
  <g
     inkscape:label="Layer 1"
     inkscape:groupmode="layer"
     id="layer1"
     transform="translate(0,-263.13332)">
    <path
       sodipodi:nodetypes="ccccccc"
       inkscape:connector-curvature="0"
       id="path4361"
       d="m 17.291128,276.89105 16.310955,7.55618 -2.49e-4,0.52294 -16.66637,10.77217 -16.66637097,-11.02623 -0.00451,-0.52565 z"
       style="opacity:1;fill:#808080;fill-opacity:1;fill-rule:nonzero;stroke:none;stroke-width:0.1;stroke-linecap:butt;stroke-linejoin:round;stroke-miterlimit:4;stroke-dasharray:none;stroke-dashoffset:0;stroke-opacity:1" />
    <path
       style="opacity:1;fill:url(#linearGradient4632);fill-opacity:1;fill-rule:nonzero;stroke:#999999;stroke-width:0.1;stroke-linecap:butt;stroke-linejoin:round;stroke-miterlimit:4;stroke-dasharray:none;stroke-dashoffset:0;stroke-opacity:1"
       d="M 17.291128,276.36454 33.601815,284.44367 16.935444,295.21583 0.26907313,284.1896 Z"
       id="rect1114"
       inkscape:connector-curvature="0"
       sodipodi:nodetypes="ccccc" />
    <path
       style="opacity:0.2;fill:#000000;fill-opacity:1;stroke:none;stroke-width:0.2;stroke-linecap:butt;stroke-linejoin:miter;stroke-miterlimit:4;stroke-dasharray:none;stroke-opacity:1"
       d="m 22.123419,283.49929 -7.914838,6.00272 -0.01715,-10e-6 c -0.09019,0.0687 -0.177577,0.13553 -0.271606,0.20668 0,0 0.04881,0.77875 1.803457,0.5136 1.70425,-0.25754 2.856853,-1.13721 2.922203,-1.18794 -0.323168,0.28293 1.604444,-1.2217 3.538332,-2.70031 1.039134,-0.7945 1.019405,-0.77282 2.702317,-2.07457 0.409069,-0.31642 0.03413,-0.61127 -0.50999,-0.63739 -0.320514,-0.0154 -1.194414,-0.0635 -2.252727,-0.12278 z"
       id="path4049"
       inkscape:connector-curvature="0" />
    <path
       style="fill:url(#radialGradient1082);fill-opacity:1;stroke:#808080;stroke-width:0.07482011;stroke-linecap:butt;stroke-linejoin:miter;stroke-miterlimit:4;stroke-dasharray:none;stroke-opacity:1"
       d="m 15.426665,283.07174 c -1.091162,1.25001 -1.934391,2.31045 -2.98367,3.5612 0,0 -0.179384,2.56166 1.789585,3.27303 1.968969,0.71137 3.517582,-1.24759 3.517582,-1.24759 l 1.652549,-1.99168 z"
       id="path863"
       inkscape:connector-curvature="0"
       sodipodi:nodetypes="ccsccc" />
    <path
       style="fill:url(#radialGradient1096);fill-opacity:1;stroke:#808080;stroke-width:0.1;stroke-linecap:butt;stroke-linejoin:miter;stroke-miterlimit:4;stroke-dasharray:none;stroke-opacity:1"
       d="m 15.785836,266.51024 c -1.300477,1.28364 -2.173279,1.75267 -3.357181,2.9538 -1.046433,1.06165 -2.8892097,2.69938 -4.169199,4.02615 0,0 -1.441333,1.64011 0.3809933,3.63539 1.2692763,1.26928 3.0827797,3.08109 5.0773787,5.11755 2.54885,2.60235 5.238701,3.88821 4.041316,6.39728 -0.578376,0.81365 2.010796,-2.41089 4.590388,-5.53078 1.355916,-1.63992 1.328247,-1.58748 3.528679,-4.292 0.534862,-0.65739 0.218756,-1.94599 -0.359562,-2.51692 -1.245615,-1.22971 -9.732813,-9.79047 -9.732813,-9.79047 z"
       id="path861"
       inkscape:connector-curvature="0"
       sodipodi:nodetypes="csscscsssc" />
    <path
       style="fill:url(#linearGradient1090);fill-opacity:1;stroke:none;stroke-width:0.1;stroke-linecap:butt;stroke-linejoin:miter;stroke-miterlimit:4;stroke-dasharray:none;stroke-opacity:1"
       d="m 13.010495,276.41222 c 0,0 2.193497,-2.36293 4.461869,-4.57297 1.25126,-1.21908 3.247989,-3.0933 3.425146,-3.40015 0.201947,-0.34978 0.872573,-1.95389 -0.346233,-3.21773 -1.021818,-1.05958 -2.116334,-0.80311 -2.116334,-0.80311 0,0 -0.914071,0.0341 -1.633192,0.66858 -0.719121,0.63452 -8.1114171,7.95236 -8.1114171,7.95236 0,0 1.8440581,-1.32976 3.4032751,0.12724 1.683918,1.57353 0.916886,3.24578 0.916886,3.24578 z"
       id="path860"
       inkscape:connector-curvature="0"
       sodipodi:nodetypes="cssscscsc" />
  </g>
</svg>
