<?xml version="1.0" encoding="UTF-8" standalone="no"?>
<!-- Created with Inkscape (http://www.inkscape.org/) -->

<svg
   xmlns:osb="http://www.openswatchbook.org/uri/2009/osb"
   xmlns:dc="http://purl.org/dc/elements/1.1/"
   xmlns:cc="http://creativecommons.org/ns#"
   xmlns:rdf="http://www.w3.org/1999/02/22-rdf-syntax-ns#"
   xmlns:svg="http://www.w3.org/2000/svg"
   xmlns="http://www.w3.org/2000/svg"
   xmlns:xlink="http://www.w3.org/1999/xlink"
   xmlns:sodipodi="http://sodipodi.sourceforge.net/DTD/sodipodi-0.dtd"
   xmlns:inkscape="http://www.inkscape.org/namespaces/inkscape"
   width="128"
   height="128"
   viewBox="0 0 33.866666 33.866668"
   version="1.1"
   id="svg8"
   inkscape:version="0.92.2 5c3e80d, 2017-08-06"
   sodipodi:docname="libreoffice-oasis-database copy.svg">
  <defs
     id="defs2">
    <linearGradient
       inkscape:collect="always"
       id="linearGradient1319">
      <stop
         style="stop-color:#4d4d4d;stop-opacity:1"
         offset="0"
         id="stop1315" />
      <stop
         style="stop-color:#333333;stop-opacity:1"
         offset="1"
         id="stop1317" />
    </linearGradient>
    <linearGradient
       id="linearGradient1830">
      <stop
         id="stop1826"
         style="stop-color:#d9d9d9;stop-opacity:1"
         offset="0" />
      <stop
         id="stop1828"
         style="stop-color:#ffffff;stop-opacity:1;"
         offset="1" />
    </linearGradient>
    <linearGradient
       osb:paint="solid"
       id="linearGradient6987">
      <stop
         id="stop6985"
         offset="0"
         style="stop-color:#77d2fb;stop-opacity:1;" />
    </linearGradient>
    <linearGradient
       inkscape:collect="always"
       xlink:href="#linearGradient1830"
       id="linearGradient1503-8"
       x1="29.203474"
       y1="263.52237"
       x2="4.5843229"
       y2="296.16849"
       gradientUnits="userSpaceOnUse"
       gradientTransform="matrix(1.0010487,0,0,1.0010383,-0.0177579,-0.29085898)" />
    <linearGradient
       inkscape:collect="always"
       xlink:href="#linearGradient1319"
       id="linearGradient1270"
       x1="7.3738756"
       y1="264.52911"
       x2="7.516078"
       y2="268.60965"
       gradientUnits="userSpaceOnUse"
       gradientTransform="translate(-1.5768595,-0.02499666)" />
  </defs>
  <sodipodi:namedview
     id="base"
     pagecolor="#ffffff"
     bordercolor="#666666"
     borderopacity="1.0"
     inkscape:pageopacity="0.0"
     inkscape:pageshadow="2"
     inkscape:zoom="0.49497475"
     inkscape:cx="89.195285"
     inkscape:cy="-125.67113"
     inkscape:document-units="mm"
     inkscape:current-layer="layer1"
     showgrid="false"
     units="px"
     inkscape:window-width="1600"
     inkscape:window-height="792"
     inkscape:window-x="0"
     inkscape:window-y="0"
     inkscape:window-maximized="1"
     showguides="false" />
  <metadata
     id="metadata5">
    <rdf:RDF>
      <cc:Work
         rdf:about="">
        <dc:format>image/svg+xml</dc:format>
        <dc:type
           rdf:resource="http://purl.org/dc/dcmitype/StillImage" />
        <dc:title></dc:title>
      </cc:Work>
    </rdf:RDF>
  </metadata>
  <g
     inkscape:label="Layer 1"
     inkscape:groupmode="layer"
     id="layer1"
     transform="translate(0,-263.13332)">
    <path
       style="opacity:0.25;fill:#000000;fill-opacity:1;stroke:none;stroke-width:1.87499988;stroke-miterlimit:4;stroke-dasharray:none;stroke-opacity:1"
       d="M 4.5713721,264.09818 V 296.7104 H 29.295294 v -18.3 c -0.04716,-0.8313 -0.101653,-1.57532 -0.312496,-2.32966 -0.21448,-0.76736 -0.552469,-1.49394 -0.956412,-2.18925 -0.516871,-0.8897 -1.39035,-1.46334 -2.166671,-2.19248 -0.47098,-0.42711 -1.488209,-1.44169 -2.719481,-2.65304 -1.221196,-1.20143 -2.653456,-2.59692 -3.849171,-3.68107 -0.35316,-0.3187 -0.866164,-0.64943 -1.342771,-0.84044 -0.370088,-0.14831 -0.80547,-0.24063 -1.22583,-0.30267 -0.433449,-0.064 -0.850925,-0.0958 -1.164384,-0.12361 z"
       id="path5023-4"
       inkscape:connector-curvature="0"
       sodipodi:nodetypes="ccccascscsscc" />
    <path
       sodipodi:nodetypes="ccccascscsscc"
       inkscape:connector-curvature="0"
       id="path4623-8"
       d="m 4.5713721,263.5729 v 32.61222 H 29.295294 v -18.3 c -0.04716,-0.83129 -0.101653,-1.57532 -0.312496,-2.32966 -0.21448,-0.76736 -0.552469,-1.49394 -0.956412,-2.18925 -0.516871,-0.88969 -1.39035,-1.46334 -2.166671,-2.19247 -0.47098,-0.42712 -1.488209,-1.4417 -2.719481,-2.65305 -1.221196,-1.20142 -2.653456,-2.59692 -3.849171,-3.68107 -0.35316,-0.3187 -0.866164,-0.64944 -1.342771,-0.84044 -0.370088,-0.14831 -0.80547,-0.24063 -1.22583,-0.30267 -0.433449,-0.064 -0.850925,-0.0958 -1.164384,-0.12361 z"
       style="opacity:1;fill:url(#linearGradient1503-8);fill-opacity:1;stroke:#808080;stroke-width:0.30000001;stroke-miterlimit:4;stroke-dasharray:none;stroke-opacity:1" />
    <path
       style="opacity:1;fill:#000000;fill-opacity:1;stroke:none;stroke-width:0.30000001;stroke-miterlimit:4;stroke-dasharray:none;stroke-opacity:1"
       d="m 9.4291715,263.73235 -3.6225024,2.46385 0.1325493,2.38844 9.1315196,0.57009 8.89776,0.28705 c -0.305883,-0.29521 -0.581565,-0.56101 -0.929387,-0.89585 -1.214089,-1.16878 -2.637706,-2.52671 -3.826463,-3.58141 -0.351104,-0.31004 -0.861421,-0.63161 -1.335255,-0.81742 -0.367933,-0.14428 -0.800718,-0.23425 -1.218632,-0.2946 -0.430927,-0.0623 -0.84586,-0.0931 -1.157494,-0.12015 z"
       id="path1119"
       inkscape:connector-curvature="0" />
    <path
       sodipodi:nodetypes="ccccsccsc"
       inkscape:connector-curvature="0"
       id="path1355-8"
       d="m 19.751144,265.48426 c 0.01633,0.0263 0.561139,0.90462 0.727791,1.39886 0.451585,1.01234 0.25858,3.97236 0.250369,5.65885 0.02772,-0.19401 4.690513,-1.39583 7.111042,0.80464 -0.01547,-0.0273 -0.04888,-0.0804 -0.12512,-0.18628 -0.07235,-0.10046 -0.182749,-0.24915 -0.371644,-0.44224 -0.528108,-0.60452 -0.230926,-0.0845 -0.805409,-0.682 -0.496688,-0.45047 -1.569491,-1.52048 -2.867987,-2.79805 -1.241181,-1.22116 -2.686924,-2.62954 -3.919042,-3.75378 z"
       style="opacity:0.24800002;fill:#000000;fill-opacity:1;stroke:none;stroke-width:0.30000001;stroke-miterlimit:4;stroke-dasharray:none;stroke-opacity:1" />
    <path
       inkscape:connector-curvature="0"
       id="path1272"
       d="m 4.7251551,263.98792 v 6.13662 c 2.2235898,-0.32948 4.4562444,-0.59378 6.6859769,-0.8807 l 10.863694,-1.08851 c -1.032811,-1.00442 -2.133076,-2.06336 -3.095866,-2.93111 -0.346785,-0.31108 -0.850823,-0.63373 -1.318826,-0.82017 -0.363408,-0.14476 -0.790866,-0.23502 -1.203639,-0.29558 -0.425624,-0.0625 -0.835453,-0.0934 -1.143253,-0.12055 z"
       style="opacity:0.25;fill:#000000;fill-opacity:1;stroke:none;stroke-width:0.30000001;stroke-miterlimit:4;stroke-dasharray:none;stroke-opacity:1" />
    <path
       style="opacity:1;fill:url(#linearGradient1270);fill-opacity:1.0;stroke:none;stroke-width:0.30000001;stroke-miterlimit:4;stroke-dasharray:none;stroke-opacity:1"
       d="m 4.7251551,263.72323 v 6.13662 c 2.2235898,-0.32948 4.4562444,-0.59378 6.6859769,-0.8807 l 10.863694,-1.08851 c -1.032811,-1.00442 -2.133076,-2.06336 -3.095866,-2.93111 -0.346785,-0.31108 -0.850823,-0.63373 -1.318826,-0.82017 -0.363408,-0.14476 -0.790866,-0.23502 -1.203639,-0.29558 -0.425624,-0.0625 -0.835453,-0.0934 -1.143253,-0.12055 z"
       id="path1126"
       inkscape:connector-curvature="0" />
    <path
       style="opacity:1;fill:#ffffff;fill-opacity:1;stroke:#808080;stroke-width:0.30000001;stroke-miterlimit:4;stroke-dasharray:none;stroke-opacity:1"
       d="m 19.42404,264.96145 c 0.01548,0.0249 0.53209,0.85773 0.690115,1.32635 0.428208,0.95987 0.292235,3.21802 0.284449,4.8171 0.428993,-0.0223 5.159507,-0.73701 7.328404,1.82407 -0.02928,-0.0506 -0.10278,-0.0927 -0.143771,-0.17312 -0.500769,-0.57318 -1.139583,-1.03373 -1.723522,-1.58216 -0.470975,-0.42712 -1.48824,-1.44167 -2.719515,-2.65302 -1.176929,-1.15787 -2.547827,-2.49325 -3.71616,-3.55922 z"
       id="path4753-0"
       inkscape:connector-curvature="0"
       sodipodi:nodetypes="ccccccsc" />
    <g
       style="stroke-width:4.08449793"
       inkscape:transform-center-y="-9.4924686"
       inkscape:transform-center-x="5.4653607"
       inkscape:label="Capa 1"
       id="layer1-4-3"
       transform="matrix(0.53602412,0,0,0.5372689,-234.93365,-13.7853)">
      <g
         style="stroke-width:4.08449793"
         id="layer1-3-65-9"
         inkscape:label="Capa 1"
         transform="translate(0.41988239,0.03484499)" />
    </g>
    <g
       style="stroke-width:4.08449793"
       inkscape:transform-center-y="-9.4924686"
       inkscape:transform-center-x="5.4653607"
       inkscape:label="Capa 1"
       id="layer1-4"
       transform="matrix(0.53602412,0,0,0.5372689,-237.84015,-13.785294)">
      <g
         style="stroke-width:4.08449793"
         id="layer1-3-65"
         inkscape:label="Capa 1"
         transform="translate(0.41988239,0.03484499)" />
    </g>
    <g
       id="g3940"
       style="font-style:normal;font-variant:normal;font-weight:normal;font-stretch:normal;font-size:6.35981083px;line-height:125%;font-family:'Lucida Grande';-inkscape-font-specification:'Lucida Grande';letter-spacing:0px;word-spacing:0px;fill:#000000;fill-opacity:1;stroke:none"
       transform="matrix(0.23579897,0,0,0.23579897,-24.435199,276.50375)" />
    <g
       aria-label="F"
       style="font-style:normal;font-weight:normal;font-size:5.09481287px;line-height:1.25;font-family:sans-serif;letter-spacing:0px;word-spacing:0px;opacity:0.8;fill:#ffffff;fill-opacity:1;stroke:none;stroke-width:0.26458332"
       id="text1323">
      <path
         d="m 9.0116752,265.03014 q -0.044779,0 -0.094533,-0.0199 -0.308475,-0.11444 -0.8159661,-0.11444 -0.1641884,0 -0.3855938,0.0249 -0.2189177,0.0224 -0.4925649,0.0722 l -0.00498,1.07468 q 0.4801264,-0.12687 0.7214334,-0.12687 0.3831061,0 0.7935769,0.0448 0.2338439,0.0249 0.2338439,0.25374 0,0.11195 -0.072143,0.18658 -0.072143,0.0721 -0.1791146,0.0721 -0.1293604,0 -0.3880814,-0.0224 -0.258721,-0.0224 -0.3880815,-0.0224 -0.1691637,0 -0.7313842,0.14428 l -0.022389,1.71154 q 0,0.10697 -0.069656,0.17912 -0.069656,0.0746 -0.1766268,0.0746 -0.1069712,0 -0.1791145,-0.0746 -0.069656,-0.0721 -0.069656,-0.17912 0,-0.49008 0.017414,-1.47023 0.019902,-0.98264 0.019902,-1.47272 0,-0.10946 -0.00498,-0.32838 -0.00249,-0.2214 -0.00249,-0.33086 0,-0.10946 0.067168,-0.18409 0.069656,-0.0746 0.1791145,-0.0746 0.082094,0 0.1467744,0.0448 0.308475,-0.0547 0.5547575,-0.0796 0.2462824,-0.0274 0.4328601,-0.0274 0.2860856,0 0.6542655,0.0821 0.500028,0.11443 0.500028,0.29852 0,0.0995 -0.06468,0.17663 -0.072143,0.0871 -0.1791146,0.0871 z"
         style="font-style:normal;font-variant:normal;font-weight:normal;font-stretch:normal;font-family:'Comic Sans MS';-inkscape-font-specification:'Comic Sans MS';fill:#ffffff;stroke-width:0.26458332"
         id="path1325" />
    </g>
    <g
       style="stroke-width:4.08449793"
       inkscape:transform-center-y="-9.4924686"
       inkscape:transform-center-x="5.4653607"
       inkscape:label="Capa 1"
       id="layer1-4-3-9"
       transform="matrix(0.53602412,0,0,0.5372689,-297.49529,-30.764224)">
      <g
         style="stroke-width:4.08449793"
         id="layer1-3-65-9-29"
         inkscape:label="Capa 1"
         transform="translate(0.41988239,0.03484499)" />
    </g>
    <g
       style="stroke-width:4.08449793"
       inkscape:transform-center-y="-9.4924686"
       inkscape:transform-center-x="5.4653607"
       inkscape:label="Capa 1"
       id="layer1-4-6"
       transform="matrix(0.53602412,0,0,0.5372689,-297.49529,-30.739221)">
      <g
         style="stroke-width:4.08449793"
         id="layer1-3-65-91"
         inkscape:label="Capa 1"
         transform="translate(0.41988239,0.03484499)" />
    </g>
    <g
       id="g1865"
       transform="matrix(0.56124617,0,0,0.56124617,-111.36839,212.36116)"
       style="fill:#4d4d4d;fill-opacity:1;stroke-width:0.17817494;stroke:none;stroke-miterlimit:4;stroke-dasharray:none">
      <path
         id="path1759"
         d="m 228.12971,113.12621 c -0.89435,0 -1.6633,0.63389 -1.83142,1.51308 l -3.0744,15.97974 -1.68534,-6.7455 c -0.20809,-0.83096 -0.9536,-1.41249 -1.81074,-1.41249 h -3.73311 c -0.67249,-0.01 -1.29812,0.34451 -1.63574,0.92467 -0.33899,0.58153 -0.33899,1.29949 0,1.87964 0.33762,0.58153 0.96325,0.93431 1.63574,0.92604 h 2.27652 l 3.38171,13.5227 c 0.21221,0.84887 0.98529,1.43592 1.86035,1.41249 0.87505,-0.0248 1.61506,-0.65319 1.78042,-1.51309 l 4.37666,-22.75693 h 11.52729 c 0.67524,0.0124 1.30363,-0.34038 1.64538,-0.92191 0.34038,-0.58291 0.34038,-1.30362 0,-1.88654 -0.34175,-0.58153 -0.97014,-0.93431 -1.64538,-0.9219 z m 0,0"
         style="fill:#4d4d4d;fill-opacity:1;fill-rule:evenodd;stroke:none;stroke-width:0.17817494;stroke-linecap:round;stroke-linejoin:round;stroke-miterlimit:4;stroke-opacity:1;stroke-dasharray:none"
         inkscape:connector-curvature="0" />
      <path
         id="path1761"
         d="m 231.31987,126.1721 c -0.69178,0.003 -1.32568,0.38723 -1.64676,0.99908 -0.32108,0.61323 -0.27698,1.35323 0.11576,1.92374 l 3.04271,4.56544 -3.04271,4.56683 c -0.38034,0.55397 -0.43271,1.27055 -0.13781,1.87413 0.29628,0.60358 0.89297,1.00183 1.56408,1.0418 0.6711,0.0413 1.31189,-0.2825 1.67707,-0.84612 l 2.18144,-3.27284 2.18281,3.27284 c 0.36518,0.56362 1.00597,0.88746 1.67707,0.84612 0.67111,-0.04 1.2678,-0.43822 1.56408,-1.0418 0.2949,-0.60358 0.24253,-1.32016 -0.13781,-1.87413 l -3.04271,-4.56683 3.04271,-4.56544 c 0.39826,-0.57877 0.43684,-1.33118 0.10198,-1.94855 -0.33486,-0.61598 -0.98805,-0.99218 -1.68948,-0.97289 -0.6146,0.0165 -1.18235,0.33486 -1.51584,0.85163 l -2.18281,3.27284 -2.18144,-3.27284 c -0.34451,-0.5333 -0.93707,-0.85439 -1.57234,-0.85301 z m 0,0"
         style="fill:#4d4d4d;fill-opacity:1;fill-rule:evenodd;stroke:none;stroke-width:0.17817494;stroke-linecap:round;stroke-linejoin:round;stroke-miterlimit:4;stroke-opacity:1;stroke-dasharray:none"
         inkscape:connector-curvature="0" />
    </g>
  </g>
</svg>
