<?xml version="1.0" encoding="UTF-8"?>
<!-- Created with Inkscape (http://www.inkscape.org/) -->
<svg id="svg3624" width="48" height="48" version="1.0" xmlns="http://www.w3.org/2000/svg" xmlns:xlink="http://www.w3.org/1999/xlink">
 <defs id="defs3626">
  <linearGradient id="linearGradient2643" x1="302.86" x2="302.86" y1="366.65" y2="609.51" gradientTransform="matrix(.067325 0 0 .0147 -.34114 37.04)" gradientUnits="userSpaceOnUse">
   <stop id="stop5050" style="stop-opacity:0" offset="0"/>
   <stop id="stop5056" offset=".5"/>
   <stop id="stop5052" style="stop-opacity:0" offset="1"/>
  </linearGradient>
  <radialGradient id="radialGradient2640" cx="605.71" cy="486.65" r="117.14" gradientTransform="matrix(-.02304 0 0 .0147 21.623 37.04)" gradientUnits="userSpaceOnUse" xlink:href="#linearGradient5060"/>
  <linearGradient id="linearGradient5060">
   <stop id="stop5062" offset="0"/>
   <stop id="stop5064" style="stop-opacity:0" offset="1"/>
  </linearGradient>
  <radialGradient id="radialGradient2637" cx="605.71" cy="486.65" r="117.14" gradientTransform="matrix(.02304 0 0 .0147 26.361 37.04)" gradientUnits="userSpaceOnUse" xlink:href="#linearGradient5060"/>
  <linearGradient id="linearGradient2634" x1="-51.786" x2="-51.786" y1="53.624" y2="2.9062" gradientTransform="matrix(.8075 0 0 .89483 59.41 -2.9806)" gradientUnits="userSpaceOnUse">
   <stop id="stop2492" style="stop-color:#2e4a5a" offset="0"/>
   <stop id="stop2494" style="stop-color:#6e8796" offset="1"/>
  </linearGradient>
  <radialGradient id="radialGradient2632" cx="14.766" cy="10.898" r="18" gradientTransform="matrix(-2.2703e-8 2.1357 -3.5601 -3.7845e-8 54.621 -24.438)" gradientUnits="userSpaceOnUse">
   <stop id="stop3995" style="stop-color:#a3c0d0" offset="0"/>
   <stop id="stop4001" style="stop-color:#427da1" offset="1"/>
  </radialGradient>
  <radialGradient id="radialGradient2629" cx="102" cy="112.3" r="139.56" gradientTransform="matrix(.3617 0 0 -.39078 .85106 47.517)" gradientUnits="userSpaceOnUse">
   <stop id="stop41" offset="0"/>
   <stop id="stop47" offset=".18851"/>
   <stop id="stop49" style="stop-opacity:0" offset=".25718"/>
   <stop id="stop51" style="stop-opacity:0" offset="1"/>
  </radialGradient>
  <linearGradient id="linearGradient2623" x1="35.517" x2="34.103" y1="4.8577" y2="6.5436" gradientUnits="userSpaceOnUse">
   <stop id="stop4269" style="stop-color:#c4c4c4" offset="0"/>
   <stop id="stop4271" style="stop-color:#c4c4c4;stop-opacity:0" offset="1"/>
  </linearGradient>
  <linearGradient id="linearGradient2626" x1="24" x2="24" y1="2" y2="46.017" gradientTransform="matrix(1 0 0 .97778 0 -.96667)" gradientUnits="userSpaceOnUse">
   <stop id="stop3213" style="stop-color:#fff" offset="0"/>
   <stop id="stop3215" style="stop-color:#fff;stop-opacity:0" offset="1"/>
  </linearGradient>
  <filter id="filter3212" x="-.14846" y="-.16434" width="1.2969" height="1.3287">
   <feGaussianBlur id="feGaussianBlur3214" stdDeviation="0.77391625"/>
  </filter>
  <linearGradient id="linearGradient2601" x1="32.892" x2="36.358" y1="8.059" y2="5.4565" gradientTransform="matrix(.9977 0 0 1.0407 .1638 -1.1058)" gradientUnits="userSpaceOnUse">
   <stop id="stop8591" style="stop-color:#fefefe" offset="0"/>
   <stop id="stop8593" style="stop-color:#cbcbcb" offset="1"/>
  </linearGradient>
 </defs>
 <g id="layer1">
  <rect id="rect2879" x="7.7378" y="42.43" width="32.508" height="3.5701" style="fill:url(#linearGradient2643);opacity:.3"/>
  <path id="path2881" d="m7.7378 42.43v3.5699c-1.1865 0.006721-2.8684-0.79982-2.8684-1.7852 0-0.98533 1.324-1.7847 2.8684-1.7847z" style="fill:url(#radialGradient2640);opacity:.3"/>
  <path id="path2883" d="m40.246 42.43v3.5699c1.1865 0.006721 2.8684-0.79982 2.8684-1.7852 0-0.98533-1.324-1.7847-2.8684-1.7847z" style="fill:url(#radialGradient2637);opacity:.3"/>
  <path id="path4160" d="m6.5 0.4972h24.061c0.52523 1.9602 6.1331 6.8516 10.939 9.6264v34.379h-35v-44.006z" style="fill:url(#radialGradient2632);stroke-linejoin:round;stroke-width:.99992;stroke:url(#linearGradient2634)"/>
  <path id="path4191" d="m7.3617 44c-0.1993 0-0.3617-0.17546-0.3617-0.39078v-42.204c0-0.21571 0.1624-0.39078 0.3617-0.39078 7.4831 0.10801 15.776-0.16158 23.25 0.026895l10.283 8.866 0.10598 33.702c0 0.21532-0.16204 0.39078-0.3617 0.39078h-33.277z" style="fill:url(#radialGradient2629);opacity:.05"/>
  <path id="path4238" d="m30.561 0.5c1.4069 0.47465 8.9655 5.8794 10.939 9.6236v12.285c-40.446 15.729-35.236-21.909-10.939-21.909z" style="fill:none;stroke-linejoin:round;stroke-width:.99992;stroke:url(#linearGradient2623)"/>
  <path id="path3605" d="m17.25 11.688c-3.8123 4.34e-4 -8.4108 2.816-10.25 7.4688v10.906c0.8473 3.3307 2.2041 5.8974 3.3438 8.6562l5.25-2.1875c-1.2055-2.4694-2.7552-4.9339-3.3125-6.1562-1.5602-3.4225-2.1302-4.9539-2-7.5625 0.12595-2.522 0.96662-4.0757 2.5-5.5625 1.5334-1.4867 3.6545-2.2256 6.1875-1.875 5.3645 0.7432 7.0907 4.8033 7.2188 6.7812 0.10537 1.6268-1.0661 5.6333-5.1875 5.4375-2.8571-0.13595-4.4631-1.7197-4.6562-4.4062-0.14229-1.98 1.7736-3.9786 4.875-2.9688 0.4992 0.16244 0.53295-0.73279-0.03125-1.1875-1.4526-1.1706-7.207-0.72309-7.1875 3.875 0.01803 4.2611 3.4265 7.1059 6.7188 7.125 6.895 0.04058 8.249-5.4023 8-9.1562-0.27589-4.1597-5.5219-9.1882-11.469-9.1875z" style="fill-rule:evenodd;fill:#4a6574"/>
  <path id="path3607" d="m17.25 10.688c-3.8165 4.35e-4 -8.4121 2.8385-10.25 7.5v10.875c0.85357 3.3295 2.2041 5.8974 3.3438 8.6562l5.25-2.1875c-1.2055-2.4694-2.7865-4.9339-3.3438-6.1562-1.5602-3.4225-2.1303-4.9539-2-7.5625 0.12595-2.522 0.99787-4.0757 2.5312-5.5625 1.5334-1.4867 3.6233-2.2255 6.1562-1.875 5.3645 0.7432 7.0907 4.8033 7.2188 6.7812 0.10537 1.6268-1.0348 5.6333-5.1562 5.4375-2.8571-0.13595-4.4631-1.751-4.6562-4.4375-0.14229-1.98 1.7736-3.9473 4.875-2.9375 0.4992 0.16244 0.53298-0.7328-0.03125-1.1875-1.4526-1.1706-7.207-0.72308-7.1875 3.875 0.01803 4.2611 3.4265 7.1059 6.7188 7.125 6.895 0.04058 8.2177-5.4023 7.9688-9.1562-0.27589-4.1597-5.4907-9.1882-11.438-9.1875z" style="fill-rule:evenodd;fill:#eeeeec"/>
  <path id="path3609" d="m37.656 11.969-5.25 2.1875c1.2055 2.4697 2.7865 4.9335 3.3438 6.1562 1.5602 3.4225 2.1303 4.9538 2 7.5625-0.12594 2.5216-0.99784 4.0443-2.5312 5.5312-1.5334 1.4867-3.6233 2.2569-6.1562 1.9062-5.3645-0.74264-7.0907-4.8033-7.2188-6.7812-0.10536-1.6265 1.0349-5.6333 5.1562-5.4375 2.8571 0.13595 4.4631 1.7197 4.6562 4.4062 0.14229 1.9799-1.7736 3.9787-4.875 2.9688-0.49923-0.1623-0.53297 0.7328 0.03125 1.1875 1.4526 1.1707 7.2069 0.72294 7.1875-3.875-0.01803-4.2609-3.4265-7.1371-6.7188-7.1562-6.895-0.04085-8.2177 5.4332-7.9688 9.1875 0.27588 4.1593 5.4906 9.1886 11.438 9.1875 3.8122-2.1e-4 8.4081-2.8477 10.25-7.5v-10.875c-0.85357-3.3295-2.2041-5.8972-3.3438-8.6562z" style="fill-rule:evenodd;fill:#466170;opacity:.77381"/>
  <path id="path3611" d="m37.5 10.688-5.25 2.1875c1.2055 2.4697 2.7865 4.9335 3.3438 6.1562 1.5602 3.4225 2.1303 4.9538 2 7.5625-0.12594 2.5216-0.99784 4.0443-2.5312 5.5312-1.5334 1.4867-3.6233 2.2569-6.1562 1.9062-5.3645-0.74264-7.0907-4.8033-7.2188-6.7812-0.10536-1.6265 1.0348-5.6333 5.1562-5.4375 2.8571 0.13595 4.4631 1.7197 4.6562 4.4062 0.14229 1.9799-1.7736 3.9787-4.875 2.9688-0.49923-0.1623-0.53297 0.7328 0.03125 1.1875 1.4526 1.1707 7.2382 0.72294 7.2188-3.875-0.01803-4.2609-3.4578-7.1371-6.75-7.1562-6.895-0.04085-8.2177 5.4332-7.9688 9.1875 0.27588 4.1593 5.4907 9.1886 11.438 9.1875 3.9229-2.16e-4 8.6786-3.0105 10.406-7.9062v-9.9062c-0.83726-3.6057-2.2978-6.3084-3.5-9.2188z" style="fill-rule:evenodd;fill:#a9c5d3"/>
  <path id="path2435" d="m40.5 10.259v33.263h-33v-42.045h22.866" style="fill:none;opacity:.4;stroke:url(#linearGradient2626)"/>
  <path id="path12038" d="m28.617 0.92126c4.2825 0 2.1532 8.4832 2.1532 8.4832s10.358-1.8023 10.358 2.8187c0-2.6097-11.302-10.729-12.511-11.302z" style="fill-rule:evenodd;filter:url(#filter3212);opacity:.4"/>
  <path id="path4474" d="m28.617 0.92126c3.1865 0 2.3358 7.6619 2.3358 7.6619s10.175-0.98105 10.175 3.64c0-1.1259 0.085913-1.9322-0.13378-2.2836-1.5783-2.5242-8.1132-8.1884-10.575-8.9308-0.18422-0.055555-0.87504-0.087535-1.8022-0.087535z" style="fill-rule:evenodd;fill:url(#linearGradient2601)"/>
 </g>
</svg>
