<?xml version="1.0" encoding="UTF-8" standalone="no"?>
<!-- Created with Inkscape (http://www.inkscape.org/) -->

<svg
   xmlns:osb="http://www.openswatchbook.org/uri/2009/osb"
   xmlns:dc="http://purl.org/dc/elements/1.1/"
   xmlns:cc="http://creativecommons.org/ns#"
   xmlns:rdf="http://www.w3.org/1999/02/22-rdf-syntax-ns#"
   xmlns:svg="http://www.w3.org/2000/svg"
   xmlns="http://www.w3.org/2000/svg"
   xmlns:xlink="http://www.w3.org/1999/xlink"
   xmlns:sodipodi="http://sodipodi.sourceforge.net/DTD/sodipodi-0.dtd"
   xmlns:inkscape="http://www.inkscape.org/namespaces/inkscape"
   width="128"
   height="128"
   viewBox="0 0 33.866666 33.866668"
   version="1.1"
   id="svg8"
   inkscape:version="0.92.2 5c3e80d, 2017-08-06"
   sodipodi:docname="audio-x-ms-wma.svg">
  <defs
     id="defs2">
    <linearGradient
       id="linearGradient1830">
      <stop
         id="stop1826"
         style="stop-color:#d9d9d9;stop-opacity:1"
         offset="0" />
      <stop
         id="stop1828"
         style="stop-color:#ffffff;stop-opacity:1;"
         offset="1" />
    </linearGradient>
    <linearGradient
       osb:paint="solid"
       id="linearGradient6987">
      <stop
         id="stop6985"
         offset="0"
         style="stop-color:#77d2fb;stop-opacity:1;" />
    </linearGradient>
    <linearGradient
       inkscape:collect="always"
       xlink:href="#linearGradient1830"
       id="linearGradient1503-8"
       x1="29.203474"
       y1="263.52237"
       x2="4.5843229"
       y2="296.16849"
       gradientUnits="userSpaceOnUse"
       gradientTransform="matrix(1.0010487,0,0,1.0010383,-0.01775767,-0.29086231)" />
    <linearGradient
       id="linearGradient3580"
       inkscape:collect="always">
      <stop
         id="stop3576"
         offset="0"
         style="stop-color:#fbf9f9;stop-opacity:1" />
      <stop
         id="stop3578"
         offset="1"
         style="stop-color:#dee6e9;stop-opacity:1" />
    </linearGradient>
    <linearGradient
       id="linearGradient4574"
       inkscape:collect="always">
      <stop
         id="stop4570"
         offset="0"
         style="stop-color:#fe5d6a;stop-opacity:1" />
      <stop
         id="stop4572"
         offset="1"
         style="stop-color:#46a2fb;stop-opacity:1" />
    </linearGradient>
    <linearGradient
       spreadMethod="pad"
       gradientTransform="matrix(0.18186594,0,0,0.17906544,4.2031849,237.22874)"
       inkscape:collect="always"
       xlink:href="#linearGradient4574"
       id="linearGradient4568"
       x1="66.163536"
       y1="213.13301"
       x2="92.102058"
       y2="249.97525"
       gradientUnits="userSpaceOnUse" />
    <linearGradient
       gradientTransform="matrix(0.59056424,0,0,0.59056424,-22.574073,235.54308)"
       y2="82.708549"
       x2="73.504013"
       y1="62.201996"
       x1="66.085709"
       gradientUnits="userSpaceOnUse"
       id="linearGradient3548"
       xlink:href="#linearGradient4574"
       inkscape:collect="always" />
    <linearGradient
       gradientTransform="matrix(0.59056424,0,0,0.59056424,-22.736119,235.63018)"
       gradientUnits="userSpaceOnUse"
       y2="83.408073"
       x2="72.600494"
       y1="64.131287"
       x1="60.893303"
       id="linearGradient3582"
       xlink:href="#linearGradient3580"
       inkscape:collect="always" />
  </defs>
  <sodipodi:namedview
     id="base"
     pagecolor="#ffffff"
     bordercolor="#666666"
     borderopacity="1.0"
     inkscape:pageopacity="0.0"
     inkscape:pageshadow="2"
     inkscape:zoom="5.6568543"
     inkscape:cx="75.497168"
     inkscape:cy="25.811655"
     inkscape:document-units="mm"
     inkscape:current-layer="layer1"
     showgrid="false"
     units="px"
     inkscape:window-width="1600"
     inkscape:window-height="814"
     inkscape:window-x="0"
     inkscape:window-y="0"
     inkscape:window-maximized="1"
     showguides="false" />
  <metadata
     id="metadata5">
    <rdf:RDF>
      <cc:Work
         rdf:about="">
        <dc:format>image/svg+xml</dc:format>
        <dc:type
           rdf:resource="http://purl.org/dc/dcmitype/StillImage" />
        <dc:title />
      </cc:Work>
    </rdf:RDF>
  </metadata>
  <g
     inkscape:label="Layer 1"
     inkscape:groupmode="layer"
     id="layer1"
     transform="translate(0,-263.13332)">
    <path
       style="opacity:0.25;fill:#000000;fill-opacity:1;stroke:none;stroke-width:1.87499988;stroke-miterlimit:4;stroke-dasharray:none;stroke-opacity:1"
       d="M 4.5713723,264.09818 V 296.7104 H 29.295294 v -18.3 c -0.04716,-0.8313 -0.101653,-1.57532 -0.312496,-2.32966 -0.21448,-0.76736 -0.552469,-1.49394 -0.956412,-2.18925 -0.516871,-0.8897 -1.39035,-1.46334 -2.166671,-2.19248 -0.47098,-0.42711 -1.488209,-1.44169 -2.719481,-2.65304 -1.221196,-1.20143 -2.653456,-2.59692 -3.849171,-3.68107 -0.35316,-0.3187 -0.866164,-0.64943 -1.342771,-0.84044 -0.370088,-0.14831 -0.80547,-0.24063 -1.22583,-0.30267 -0.433449,-0.064 -0.850926,-0.0958 -1.164384,-0.12361 z"
       id="path5023-4"
       inkscape:connector-curvature="0"
       sodipodi:nodetypes="ccccascscsscc" />
    <path
       sodipodi:nodetypes="ccccascscsscc"
       inkscape:connector-curvature="0"
       id="path4623-8"
       d="m 4.5713723,263.5729 v 32.61222 H 29.295294 v -18.3 c -0.04716,-0.83129 -0.101653,-1.57532 -0.312496,-2.32966 -0.21448,-0.76736 -0.552469,-1.49394 -0.956412,-2.18925 -0.516871,-0.88969 -1.39035,-1.46334 -2.166671,-2.19247 -0.47098,-0.42712 -1.488209,-1.4417 -2.719481,-2.65305 -1.221196,-1.20142 -2.653456,-2.59692 -3.849171,-3.68107 -0.35316,-0.3187 -0.866164,-0.64944 -1.342771,-0.84044 -0.370088,-0.14831 -0.80547,-0.24063 -1.22583,-0.30267 -0.433449,-0.064 -0.850926,-0.0958 -1.164384,-0.12361 z"
       style="opacity:1;fill:url(#linearGradient1503-8);fill-opacity:1;stroke:#808080;stroke-width:0.30000001;stroke-miterlimit:4;stroke-dasharray:none;stroke-opacity:1" />
    <circle
       r="8.8490276"
       cy="279.55768"
       cx="16.933332"
       id="circle970"
       style="opacity:0.25;fill:#000000;fill-opacity:1;fill-rule:nonzero;stroke:none;stroke-width:0.09999999;stroke-linecap:round;stroke-miterlimit:4;stroke-dasharray:0.02499999, 0.02499999000000000;stroke-dashoffset:0;stroke-opacity:1" />
    <circle
       style="opacity:1;fill:url(#linearGradient3548);fill-opacity:1;fill-rule:nonzero;stroke:none;stroke-width:0.09999999;stroke-linecap:round;stroke-miterlimit:4;stroke-dasharray:0.02499999, 0.02499999;stroke-dashoffset:0;stroke-opacity:1"
       id="path2069"
       cx="16.933332"
       cy="279.0285"
       r="8.8490276" />
    <circle
       r="8.0608196"
       cy="279.0285"
       cx="16.933332"
       id="circle2071"
       style="opacity:1;fill:url(#linearGradient3582);fill-opacity:1;stroke:none;stroke-width:1;stroke-linecap:round;stroke-miterlimit:4;stroke-dasharray:0.24999999, 0.24999999;stroke-dashoffset:0;stroke-opacity:1" />
    <path
       style="fill:url(#linearGradient4568);fill-opacity:1;stroke:none;stroke-width:0.22749859px;stroke-linecap:butt;stroke-linejoin:miter;stroke-opacity:1"
       d="m 13.417362,284.40828 c 0,0 0.86201,0.0129 1.449742,-0.55296 0.587734,-0.56583 0.424341,-1.18927 0.441904,-1.80933 0.02818,-0.99469 -0.05922,-4.80927 -0.05922,-4.80927 0,0 -0.0035,-0.37657 0.379825,-0.45303 0.455689,-0.0921 4.448726,-0.86276 4.448726,-0.86276 0,0 0.274275,-0.0643 0.274275,0.1929 0,0.25719 0.07728,3.54542 -0.02612,4.05077 -0.03439,0.16809 -0.247303,0.27442 -0.417943,0.30863 -0.534072,0.1071 -1.118854,0.0954 -1.697897,0.51439 -0.777382,0.65345 -0.46541,1.80475 0.340586,2.21464 0.985823,0.36476 2.255736,-0.14747 2.40217,-1.21159 0.06531,-0.32149 0.120465,-5.6862 0.03919,-8.48735 -0.004,-0.13664 -0.09143,-0.29577 -0.313457,-0.27005 -0.222033,0.0257 -5.668361,1.10593 -5.668361,1.10593 0,0 -0.326519,0.09 -0.352641,0.38579 -0.02612,0.29577 -0.06843,6.48613 -0.06843,6.48613 0,0 0.02925,0.3166 -0.388693,0.39376 -0.417943,0.0772 -1.162945,0.0915 -1.697895,0.52725 -1.010345,0.95904 -0.350498,2.30575 0.91425,2.27615 z"
       id="path4534"
       inkscape:connector-curvature="0"
       sodipodi:nodetypes="ccscccssscccssccccccc" />
    <path
       sodipodi:nodetypes="ccccsccsc"
       inkscape:connector-curvature="0"
       id="path1355-8"
       d="m 19.751144,265.48426 c 0.01633,0.0263 0.561139,0.90462 0.727791,1.39886 0.451585,1.01234 0.25858,3.97236 0.250369,5.65885 0.02772,-0.19401 4.690513,-1.39583 7.111042,0.80464 -0.01547,-0.0273 -0.04888,-0.0804 -0.12512,-0.18628 -0.07235,-0.10046 -0.182749,-0.24915 -0.371644,-0.44224 -0.528108,-0.60452 -0.230926,-0.0845 -0.805409,-0.682 -0.496688,-0.45047 -1.569491,-1.52048 -2.867987,-2.79805 -1.241182,-1.22116 -2.686924,-2.62954 -3.919042,-3.75378 z"
       style="opacity:0.24800002;fill:#000000;fill-opacity:1;stroke:none;stroke-width:0.30000001;stroke-miterlimit:4;stroke-dasharray:none;stroke-opacity:1" />
    <path
       style="opacity:1;fill:#ffffff;fill-opacity:1;stroke:#808080;stroke-width:0.30000001;stroke-miterlimit:4;stroke-dasharray:none;stroke-opacity:1"
       d="m 19.42404,264.96145 c 0.01548,0.0249 0.53209,0.85773 0.690114,1.32635 0.428208,0.95987 0.292236,3.21802 0.28445,4.8171 0.428992,-0.0223 5.159507,-0.73701 7.328403,1.82407 -0.02928,-0.0506 -0.102779,-0.0927 -0.143771,-0.17312 -0.500768,-0.57318 -1.139582,-1.03373 -1.723521,-1.58216 -0.470975,-0.42712 -1.488241,-1.44167 -2.719516,-2.65302 -1.176928,-1.15787 -2.547826,-2.49325 -3.716159,-3.55922 z"
       id="path4753-0"
       inkscape:connector-curvature="0"
       sodipodi:nodetypes="ccccccsc" />
    <g
       style="stroke-width:4.08449793"
       inkscape:transform-center-y="-9.4924686"
       inkscape:transform-center-x="5.4653607"
       inkscape:label="Capa 1"
       id="layer1-4-3"
       transform="matrix(0.53602412,0,0,0.5372689,-234.93365,-13.785303)">
      <g
         style="stroke-width:4.08449793"
         id="layer1-3-65-9"
         inkscape:label="Capa 1"
         transform="translate(0.41988239,0.03484499)" />
    </g>
    <g
       style="stroke-width:4.08449793"
       inkscape:transform-center-y="-9.4924686"
       inkscape:transform-center-x="5.4653607"
       inkscape:label="Capa 1"
       id="layer1-4"
       transform="matrix(0.53602412,0,0,0.5372689,-234.93365,-13.7603)">
      <g
         style="stroke-width:4.08449793"
         id="layer1-3-65"
         inkscape:label="Capa 1"
         transform="translate(0.41988239,0.03484499)" />
    </g>
    <g
       aria-label="WMA"
       style="font-style:normal;font-weight:normal;font-size:10.58333302px;line-height:1.25;font-family:sans-serif;letter-spacing:0px;word-spacing:0px;fill:#575757;fill-opacity:1;stroke:none;stroke-width:0.26458332"
       id="text845"
       transform="translate(-0.38092885)">
      <path
         d="m 12.003992,290.70606 0.470256,2.03536 0.101285,0.56672 0.103698,-0.55466 0.40032,-2.04742 h 0.783759 l 0.422024,2.03536 0.108521,0.56672 0.10852,-0.54501 0.475079,-2.05707 h 0.75482 l -1.0008,3.55465 h -0.709001 l -0.429258,-2.07877 -0.125402,-0.6873 -0.125401,0.6873 -0.429259,2.07877 h -0.689708 l -1.008035,-3.55465 z"
         style="font-style:normal;font-variant:normal;font-weight:bold;font-stretch:normal;font-size:4.93888903px;font-family:Helvetica;-inkscape-font-specification:'Helvetica Bold';fill:#575757;fill-opacity:1;stroke-width:0.26458332"
         id="path847"
         inkscape:connector-curvature="0" />
      <path
         d="m 18.534515,290.70606 h 1.068324 v 3.55465 H 18.91072 v -2.40433 q 0,-0.1037 0.0024,-0.28939 0.0024,-0.1881 0.0024,-0.28939 l -0.672827,2.98311 H 17.521634 L 16.85363,291.2776 q 0,0.10129 0.0024,0.28939 0.0024,0.18569 0.0024,0.28939 v 2.40433 h -0.69212 v -3.55465 h 1.080382 l 0.6463,2.79501 z"
         style="font-style:normal;font-variant:normal;font-weight:bold;font-stretch:normal;font-size:4.93888903px;font-family:Helvetica;-inkscape-font-specification:'Helvetica Bold';fill:#575757;fill-opacity:1;stroke-width:0.26458332"
         id="path849"
         inkscape:connector-curvature="0" />
      <path
         d="m 21.269231,292.91747 h 0.901926 l -0.443728,-1.39871 z m 0.04582,-2.21141 h 0.839225 l 1.258838,3.55465 h -0.805463 l -0.229099,-0.7307 h -1.309481 l -0.24598,0.7307 h -0.776524 z m 0.41479,0 z"
         style="font-style:normal;font-variant:normal;font-weight:bold;font-stretch:normal;font-size:4.93888903px;font-family:Helvetica;-inkscape-font-specification:'Helvetica Bold';fill:#575757;fill-opacity:1;stroke-width:0.26458332"
         id="path851"
         inkscape:connector-curvature="0" />
    </g>
  </g>
</svg>
