<?xml version="1.0" encoding="UTF-8" standalone="no"?>
<!-- Created with Inkscape (http://www.inkscape.org/) -->

<svg
   xmlns:osb="http://www.openswatchbook.org/uri/2009/osb"
   xmlns:dc="http://purl.org/dc/elements/1.1/"
   xmlns:cc="http://creativecommons.org/ns#"
   xmlns:rdf="http://www.w3.org/1999/02/22-rdf-syntax-ns#"
   xmlns:svg="http://www.w3.org/2000/svg"
   xmlns="http://www.w3.org/2000/svg"
   xmlns:xlink="http://www.w3.org/1999/xlink"
   xmlns:sodipodi="http://sodipodi.sourceforge.net/DTD/sodipodi-0.dtd"
   xmlns:inkscape="http://www.inkscape.org/namespaces/inkscape"
   width="128"
   height="128"
   viewBox="0 0 33.866666 33.866668"
   version="1.1"
   id="svg880"
   inkscape:version="0.92.2 5c3e80d, 2017-08-06"
   sodipodi:docname="application-executable.svg">
  <defs
     id="defs874">
    <linearGradient
       id="linearGradient939"
       inkscape:collect="always">
      <stop
         id="stop935"
         offset="0"
         style="stop-color:#d4e8ee;stop-opacity:1" />
      <stop
         id="stop937"
         offset="1"
         style="stop-color:#757574;stop-opacity:1" />
    </linearGradient>
    <linearGradient
       osb:paint="solid"
       id="linearGradient6987">
      <stop
         id="stop6985"
         offset="0"
         style="stop-color:#77d2fb;stop-opacity:1;" />
    </linearGradient>
    <linearGradient
       gradientTransform="matrix(0.85192363,0,0,0.85192363,151.00541,19.357476)"
       y2="220.38788"
       x2="-219.88927"
       y1="84.454018"
       x1="-218.42142"
       gradientUnits="userSpaceOnUse"
       id="linearGradient1025"
       xlink:href="#linearGradient939"
       inkscape:collect="always" />
  </defs>
  <sodipodi:namedview
     id="base"
     pagecolor="#ffffff"
     bordercolor="#666666"
     borderopacity="1.0"
     inkscape:pageopacity="0.0"
     inkscape:pageshadow="2"
     inkscape:zoom="5.6"
     inkscape:cx="20.523504"
     inkscape:cy="53.590778"
     inkscape:document-units="mm"
     inkscape:current-layer="layer1"
     showgrid="false"
     inkscape:window-width="1600"
     inkscape:window-height="814"
     inkscape:window-x="0"
     inkscape:window-y="0"
     inkscape:window-maximized="1"
     units="px" />
  <metadata
     id="metadata877">
    <rdf:RDF>
      <cc:Work
         rdf:about="">
        <dc:format>image/svg+xml</dc:format>
        <dc:type
           rdf:resource="http://purl.org/dc/dcmitype/StillImage" />
        <dc:title />
      </cc:Work>
    </rdf:RDF>
  </metadata>
  <g
     inkscape:label="Layer 1"
     inkscape:groupmode="layer"
     id="layer1"
     transform="translate(0,-263.13332)">
    <g
       id="g2190"
       transform="matrix(0.25042254,0,0,0.25042254,24.505635,242.79543)"
       style="stroke-width:3.99325085">
      <rect
         ry="6.159574"
         y="90.564674"
         x="-96.800598"
         height="116.53732"
         width="133.125"
         id="rect1015"
         style="opacity:1;fill:url(#linearGradient1025);fill-opacity:1;fill-rule:nonzero;stroke:none;stroke-width:0.42144713;stroke-linecap:round;stroke-linejoin:round;stroke-miterlimit:4;stroke-dasharray:none;stroke-dashoffset:0;stroke-opacity:1" />
      <rect
         style="opacity:1;fill:#000000;fill-opacity:1;fill-rule:nonzero;stroke:none;stroke-width:0.33944812;stroke-linecap:round;stroke-linejoin:round;stroke-miterlimit:4;stroke-dasharray:none;stroke-dashoffset:0;stroke-opacity:1"
         id="rect1017"
         width="129.71747"
         height="113.55439"
         x="-95.096855"
         y="92.056152"
         ry="4.7834215" />
      <rect
         style="opacity:1;fill:#262626;fill-opacity:1;fill-rule:nonzero;stroke:none;stroke-width:0.49204934;stroke-linecap:round;stroke-linejoin:round;stroke-miterlimit:4;stroke-dasharray:none;stroke-dashoffset:0;stroke-opacity:1"
         id="rect1019"
         width="113.55167"
         height="97.356285"
         x="-87.013954"
         y="100.1552" />
      <g
         transform="matrix(1.0306452,0,0,1.0306452,-100.04713,-87.459227)"
         id="text1023"
         style="font-style:normal;font-weight:normal;font-size:20.09701157px;line-height:1.25;font-family:sans-serif;letter-spacing:0px;word-spacing:0px;fill:#4cf569;fill-opacity:1;stroke:none;stroke-width:2.00630999"
         aria-label="exec">
        <path
           id="path876"
           style="fill:#4cf569;fill-opacity:1;stroke-width:2.00630999"
           d="m 30.724201,196.12092 v 0.88317 h -8.301793 q 0.117756,1.86447 1.118682,2.84577 1.010738,0.97149 2.806516,0.97149 1.040177,0 2.011664,-0.25514 0.981299,-0.25514 1.942973,-0.76542 v 1.70747 q -0.971487,0.41214 -1.992038,0.62803 -1.020552,0.21588 -2.070542,0.21588 -2.629882,0 -4.170522,-1.53082 -1.530827,-1.53083 -1.530827,-4.14109 0,-2.69857 1.452323,-4.27846 1.462136,-1.58971 3.93501,-1.58971 2.217737,0 3.503239,1.4327 1.295315,1.42288 1.295315,3.87613 z m -1.805591,-0.5299 q -0.01963,-1.48176 -0.834104,-2.36493 -0.804666,-0.88317 -2.139233,-0.88317 -1.511201,0 -2.423809,0.85373 -0.902796,0.85373 -1.040178,2.40418 z"
           inkscape:connector-curvature="0" />
        <path
           id="path878"
           style="fill:#4cf569;fill-opacity:1;stroke-width:2.00630999"
           d="m 42.489981,191.07704 -3.974263,5.34808 4.180336,5.64248 h -2.12942 l -3.199036,-4.31772 -3.199036,4.31772 h -2.12942 l 4.268653,-5.75042 -3.905572,-5.24014 h 2.12942 l 2.914459,3.91539 2.914459,-3.91539 z"
           inkscape:connector-curvature="0" />
        <path
           id="path880"
           style="fill:#4cf569;fill-opacity:1;stroke-width:2.00630999"
           d="m 54.039875,196.12092 v 0.88317 h -8.301793 q 0.117756,1.86447 1.118682,2.84577 1.010738,0.97149 2.806516,0.97149 1.040177,0 2.011664,-0.25514 0.981299,-0.25514 1.942972,-0.76542 v 1.70747 q -0.971486,0.41214 -1.992037,0.62803 -1.020552,0.21588 -2.070542,0.21588 -2.629882,0 -4.170523,-1.53082 -1.530827,-1.53083 -1.530827,-4.14109 0,-2.69857 1.452324,-4.27846 1.462136,-1.58971 3.93501,-1.58971 2.217737,0 3.503239,1.4327 1.295315,1.42288 1.295315,3.87613 z m -1.805591,-0.5299 q -0.01963,-1.48176 -0.834104,-2.36493 -0.804666,-0.88317 -2.139233,-0.88317 -1.511201,0 -2.423809,0.85373 -0.902796,0.85373 -1.040178,2.40418 z"
           inkscape:connector-curvature="0" />
        <path
           id="path882"
           style="fill:#4cf569;fill-opacity:1;stroke-width:2.00630999"
           d="m 64.912672,191.499 v 1.68784 q -0.765413,-0.42196 -1.54064,-0.62803 -0.765413,-0.21589 -1.550453,-0.21589 -1.756526,0 -2.728012,1.11868 -0.971487,1.10887 -0.971487,3.12053 0,2.01167 0.971487,3.13035 0.971486,1.10887 2.728012,1.10887 0.78504,0 1.550453,-0.20608 0.775227,-0.21588 1.54064,-0.63784 v 1.66821 q -0.7556,0.35327 -1.570079,0.5299 -0.804665,0.17663 -1.717274,0.17663 -2.482687,0 -3.944823,-1.56026 -1.462136,-1.56027 -1.462136,-4.20978 0,-2.68876 1.471949,-4.2294 1.481762,-1.54064 4.052766,-1.54064 0.834105,0 1.628957,0.17664 0.794853,0.16682 1.54064,0.51027 z"
           inkscape:connector-curvature="0" />
      </g>
    </g>
  </g>
</svg>
