<?xml version="1.0" encoding="UTF-8" standalone="no"?>
<!-- Created with Inkscape (http://www.inkscape.org/) -->

<svg
   xmlns:dc="http://purl.org/dc/elements/1.1/"
   xmlns:cc="http://creativecommons.org/ns#"
   xmlns:rdf="http://www.w3.org/1999/02/22-rdf-syntax-ns#"
   xmlns:svg="http://www.w3.org/2000/svg"
   xmlns="http://www.w3.org/2000/svg"
   xmlns:xlink="http://www.w3.org/1999/xlink"
   xmlns:sodipodi="http://sodipodi.sourceforge.net/DTD/sodipodi-0.dtd"
   xmlns:inkscape="http://www.inkscape.org/namespaces/inkscape"
   width="128"
   height="128"
   viewBox="0 0 33.866666 33.866668"
   version="1.1"
   id="svg8"
   inkscape:version="0.92.2 5c3e80d, 2017-08-06"
   sodipodi:docname="image-x-generic.svg">
  <defs
     id="defs2">
    <linearGradient
       inkscape:collect="always"
       id="linearGradient1025">
      <stop
         style="stop-color:#ffc93e;stop-opacity:1"
         offset="0"
         id="stop1021" />
      <stop
         style="stop-color:#f15e55;stop-opacity:1"
         offset="1"
         id="stop1023" />
    </linearGradient>
    <radialGradient
       inkscape:collect="always"
       xlink:href="#linearGradient1025"
       id="radialGradient1071"
       cx="16.571993"
       cy="285.90524"
       fx="16.571993"
       fy="285.90524"
       r="15.367968"
       gradientTransform="matrix(0.99985601,-6.4607964e-4,5.4625869e-4,0.84537847,-0.09622647,39.231084)"
       gradientUnits="userSpaceOnUse" />
    <clipPath
       clipPathUnits="userSpaceOnUse"
       id="clipPath901">
      <path
         style="fill:#5d1b1c;stroke-width:0.99999994"
         d="m -24.237555,320.36228 c -0.384279,-0.0312 -0.0874,-0.0624 1.284914,-0.13505 3.898072,-0.20629 4.608301,-0.28074 5.963088,-0.62508 1.250249,-0.31778 2.855681,-0.9221 2.739214,-1.03111 -0.03594,-0.0337 -0.483021,-0.1301 -0.993506,-0.21447 -0.510485,-0.0843 -1.112536,-0.20063 -1.337891,-0.25843 -0.362583,-0.093 -0.555643,-0.0924 -1.677636,0.005 -0.697346,0.0607 -1.73368,0.16353 -2.302966,0.22841 -0.569284,0.0649 -1.500874,0.1185 -2.070201,0.11916 -1.468459,0.002 -2.205195,-0.14581 -3.677007,-0.73683 -0.198921,-0.08 -0.247004,-0.0642 -0.67325,0.21953 -0.550628,0.36653 -1.762554,0.94477 -1.980478,0.94493 -0.08573,5e-5 -0.246397,-0.0706 -0.357046,-0.15726 -0.333517,-0.2609 -0.736913,-0.64734 -0.736951,-0.70596 -1.9e-5,-0.0303 0.465649,-0.25802 1.034813,-0.50609 0.569168,-0.24805 1.034823,-0.49166 1.034791,-0.54133 -3.2e-5,-0.0496 -0.0804,-0.14279 -0.178606,-0.20712 -0.360399,-0.2358 -0.233421,-0.29047 1.052693,-0.45319 1.19427,-0.15109 1.251231,-0.16593 1.891126,-0.49266 0.362872,-0.18529 0.679282,-0.31738 0.703134,-0.29356 0.02385,0.0239 -0.0081,0.11682 -0.07089,0.20667 -0.06284,0.0897 -0.114238,0.18832 -0.114219,0.21885 2e-5,0.0305 0.602381,0.0552 1.33858,0.0549 1.957266,-7.4e-4 2.666314,0.1366 4.818017,0.93459 0.638928,0.23692 1.30628,0.47806 1.483004,0.53586 0.276803,0.0905 2.357793,0.52157 2.521011,0.52222 0.173297,6.8e-4 -0.149708,-0.1979 -1.274745,-0.78369 -0.687617,-0.35802 -1.739575,-0.97529 -2.33768,-1.3717 -0.598108,-0.3964 -1.537373,-0.96056 -2.087257,-1.25367 -1.069166,-0.56993 -1.391337,-0.77303 -2.080682,-1.31166 -0.24096,-0.18829 -0.462464,-0.34232 -0.492229,-0.3423 -0.02977,2e-5 -0.262914,0.13205 -0.518108,0.29349 -0.768389,0.48597 -1.335414,0.70243 -2.898737,1.10653 -0.820513,0.21208 -1.508402,0.4022 -1.52864,0.42247 -0.09878,0.0989 0.101119,0.099 0.844886,5.1e-4 0.445817,-0.0591 0.96681,-0.10762 1.15776,-0.10775 0.346855,-2.2e-4 0.803836,0.17016 0.73884,0.27547 -0.08738,0.1416 -1.555752,0.62833 -3.6103,1.19675 -1.236593,0.34212 -2.31238,0.62545 -2.390639,0.62965 -0.10398,0.006 -0.20442,-0.10774 -0.373059,-0.4206 -0.126922,-0.23549 -0.231702,-0.48091 -0.232847,-0.54536 -0.0022,-0.12016 0.332087,-0.28625 0.764361,-0.37981 0.424443,-0.0919 0.310514,-0.16858 -0.320333,-0.21566 -0.343708,-0.0257 -0.663404,-0.0589 -0.710436,-0.0737 -0.107371,-0.0339 -0.267213,-0.6063 -0.187844,-0.6726 0.03228,-0.0269 0.235361,-0.101 0.45127,-0.1645 0.215912,-0.0635 0.631719,-0.18544 0.924015,-0.27097 0.657958,-0.19248 0.57307,-0.26059 -0.366418,-0.29398 -0.673214,-0.0239 -0.696769,-0.0193 -0.897202,0.17289 -0.113206,0.10853 -0.227717,0.1756 -0.254459,0.14889 -0.08873,-0.0886 -0.05059,-0.47569 0.05882,-0.59674 0.09687,-0.1072 0.08454,-0.16879 -0.122704,-0.61234 l -0.230422,-0.49316 -0.0197,-3.17681 -0.0197,-3.17679 0.13869,0.89009 c 0.07629,0.48956 0.272477,1.6138 0.435997,2.49833 0.195963,1.06002 0.312746,1.9246 0.342581,2.53626 l 0.04527,0.92803 0.371877,-0.35718 c 0.368474,-0.35391 0.372606,-0.36272 0.450965,-0.9608 0.11505,-0.87808 0.743773,-3.2756 1.085311,-4.1386 0.344151,-0.86963 1.047136,-2.08409 1.772513,-3.06219 0.563308,-0.75956 2.767935,-3.0147 2.947282,-3.01481 0.145801,-10e-5 -0.335169,0.96434 -1.762856,3.53488 -1.212244,2.18263 -3.224469,6.09384 -3.165455,6.15279 0.03677,0.0367 0.283226,-0.28629 1.296408,-1.69921 0.533851,-0.74447 1.534389,-1.75971 2.280677,-2.3142 0.804551,-0.59778 2.134181,-1.36198 3.734144,-2.1462 0.757342,-0.37122 1.391614,-0.67495 1.409495,-0.67496 0.176092,-1.1e-4 -0.365714,1.06949 -1.121389,2.21378 -0.969315,1.4678 -2.057016,2.38818 -4.089521,3.46045 -1.895052,0.99976 -3.288441,1.78456 -3.478945,1.95947 -0.16716,0.15347 -0.264086,0.36765 -0.166354,0.36759 0.0565,-3e-5 2.007536,-0.84521 2.932094,-1.27016 1.290855,-0.59331 2.652734,-1.28155 4.010886,-2.02692 1.272051,-0.69814 2.027667,-1.04835 2.733238,-1.26674 0.573801,-0.17763 1.142055,-0.26011 1.142116,-0.16578 2.4e-5,0.0381 -0.209635,0.18465 -0.46591,0.32573 -0.256274,0.14113 -1.163038,0.71399 -2.015029,1.27312 -1.582748,1.03873 -2.767343,1.702 -3.601699,2.01667 -0.694999,0.26212 -2.710719,0.86686 -4.058108,1.21751 -0.651398,0.16951 -1.245599,0.34183 -1.320447,0.38292 -0.185132,0.10171 -0.92118,0.85883 -0.877384,0.90256 0.04874,0.0487 2.658942,-0.83482 4.397049,-1.48833 1.657473,-0.62318 2.489656,-0.87459 4.735051,-1.43049 1.827998,-0.45256 3.187594,-0.73442 3.248639,-0.67344 0.08088,0.0807 -0.18528,0.47538 -0.485138,0.71925 -0.418332,0.3402 -1.210837,0.84267 -1.76726,1.12048 -0.547894,0.27355 -0.713625,0.40748 -0.713516,0.57658 6.3e-5,0.0975 0.120414,0.15049 0.553421,0.24386 2.110506,0.45513 3.848943,1.2081 4.995762,2.16382 0.641054,0.53424 2.420173,2.60493 2.690526,3.13146 0.134744,0.26244 0.259158,0.34345 0.635527,0.41381 0.31496,0.0589 0.338717,-0.0165 0.08107,-0.25692 -0.623354,-0.58192 -1.281548,-1.78039 -1.956663,-3.56278 -0.200722,-0.52994 -0.544832,-1.3421 -0.764688,-1.80481 -0.387451,-0.81544 -0.457627,-1.16598 -0.145891,-0.72879 0.08391,0.11762 0.428985,0.50289 0.766855,0.85604 0.795649,0.83165 1.682034,2.17356 2.224217,3.36728 0.23513,0.51766 0.544493,1.54457 0.617949,2.05123 0.04899,0.33786 0.0644,0.35717 0.392062,0.4914 0.18759,0.0769 0.359617,0.12111 0.382287,0.0985 0.02268,-0.0227 -0.05629,-0.21178 -0.175447,-0.42016 -0.119165,-0.20839 -0.464309,-0.95697 -0.766988,-1.66354 -0.524641,-1.2247 -1.70596,-3.81753 -2.560611,-5.62021 -0.218659,-0.46121 -0.364209,-0.8386 -0.323445,-0.83862 0.09839,-7e-5 0.802117,0.54745 1.212313,0.94317 0.455342,0.43931 0.831785,0.95922 1.355503,1.87207 1.039616,1.81211 1.784134,3.64646 2.177549,5.36505 l 0.198212,0.86585 0.7522003,0.36451 c 0.4137089,0.20047 0.7671894,0.34949 0.7855034,0.33116 0.018289,-0.0183 -0.082364,-0.16118 -0.2236702,-0.31741 -0.3030745,-0.33504 -0.4365841,-0.58488 -0.8232865,-1.54073 -0.506998,-1.2532 -0.692107,-1.67238 -1.622523,-3.67417 -1.370449,-2.94857 -1.531189,-3.31052 -1.488612,-3.35198 0.07603,-0.0739 0.662891,0.6509 1.139399,1.4075 0.265495,0.42156 0.764942,1.19995 1.109881,1.7298 1.2092844,1.85751 2.0997151,4.05739 2.2532834,5.56689 0.025925,0.25519 0.082575,0.48757 0.1259198,0.51639 0.043199,0.0288 -0.1643117,0.0531 -0.4612693,0.0539 -0.4286775,10e-4 -0.6148355,-0.0346 -0.9037079,-0.17377 -0.200096,-0.0964 -0.455143,-0.19691 -0.56677,-0.22339 -0.111626,-0.0264 -0.25117,-0.0876 -0.310096,-0.13594 -0.13119,-0.10749 -1.525424,-0.67742 -1.655706,-0.67689 -0.05157,1.9e-4 -0.232975,0.27338 -0.403125,0.60707 l -0.309364,0.60669 -1.189413,5.5e-4 -1.189409,5.5e-4 1.079734,-0.58945 c 1.594193,-0.8703 1.604814,-0.88157 0.99264,-1.05255 l -0.32183,-0.0898 -0.447229,0.41521 c -0.245978,0.22838 -0.703242,0.61818 -1.016146,0.86624 l -0.568914,0.45104 -3.963998,-0.0106 c -2.180198,-0.006 -4.188884,-0.0283 -4.463747,-0.0507 z m 12.13611,-0.0149 c 0.117764,-0.0323 0.463201,-0.13086 0.767623,-0.21893 0.304422,-0.0882 0.577455,-0.13606 0.606738,-0.10666 0.02928,0.0296 -0.04308,0.13089 -0.160816,0.22549 -0.19039,0.15285 -0.281138,0.17112 -0.820865,0.16528 -0.45162,-0.006 -0.552047,-0.0216 -0.39268,-0.0651 z m 4.2942479,-0.44719 c -0.134992,-0.28458 -0.5041179,-1.224 -0.8201951,-2.08761 -0.3160912,-0.86359 -0.6919088,-1.87528 -0.835155,-2.24821 -0.5708098,-1.486 -1.0949838,-3.49734 -0.9114688,-3.49746 0.09915,-7e-5 0.9987697,0.96824 1.4470476,1.55755 0.9421885,1.23857 1.8565618,3.808 2.1695777,6.09658 l 0.09515,0.69598 -0.4497558,2.9e-4 -0.4497408,2.9e-4 z m 1.7063504,0.35584 c -0.018938,-0.0884 -0.1177945,-0.62584 -0.2194651,-1.19446 -0.1016563,-0.56861 -0.277974,-1.40374 -0.3917041,-1.85585 -0.4189815,-1.66551 -0.7088045,-3.78433 -0.5176436,-3.78445 0.2410888,-1.6e-4 1.0407754,1.51842 1.3341304,2.53345 0.228146,0.78945 0.671177,3.15671 0.7313813,3.90806 l 0.044268,0.55324 -0.4732487,3.1e-4 c -0.432981,2.8e-4 -0.4761836,-0.0129 -0.5077928,-0.1603 z m 3.3458545,-0.71348 c -0.2609765,-0.24382 -0.6112244,-0.62108 -0.7783158,-0.83833 -0.5173308,-0.67264 -0.7626659,-1.28706 -0.5139809,-1.28722 0.182818,-1.2e-4 2.1999938,1.33922 2.9391116,1.95147 0.26151606,0.21662 0.21707258,0.27626 -0.3519227,0.47245 -0.6592563,0.22729 -0.7561108,0.20497 -1.2948922,-0.29837 z m -25.1553288,-0.007 c -0.306308,-0.14655 -0.500004,-0.27827 -0.462219,-0.31431 0.07656,-0.073 1.820972,-0.43341 2.098888,-0.43359 0.104977,-7e-5 0.210623,0.0197 0.234771,0.0437 0.149767,0.14956 -0.826411,0.95611 -1.157476,0.95632 -0.102693,7e-5 -0.423976,-0.11346 -0.713964,-0.25215 z m 26.873244,-0.60943 c -1.1716025,-0.99851 -2.0158628,-2.02466 -2.5371171,-3.08371 -0.218454,-0.44383 -0.2567828,-0.48096 -0.7676577,-0.74353 -1.1697208,-0.60119 -1.6026955,-0.99857 -2.1494812,-1.97278 -0.2294961,-0.40888 -0.2819726,-0.66158 -0.1538758,-0.74088 0.039354,-0.0243 0.3175391,0.0231 0.6182532,0.10543 0.3076106,0.0841 0.5737534,0.12258 0.608465,0.0879 0.034668,-0.0347 -0.044039,-0.20002 -0.179915,-0.37782 -0.4024082,-0.52631 -0.677477,-1.01314 -0.7723495,-1.36693 -0.049449,-0.18465 -0.070629,-0.35506 -0.047085,-0.37871 0.060121,-0.0602 0.4838688,0.17149 1.2301306,0.67246 0.3507704,0.23548 0.6609596,0.41378 0.6893002,0.39622 0.028389,-0.0176 -0.073144,-0.39328 -0.2256296,-0.83496 -0.1524383,-0.44169 -0.2780508,-0.84321 -0.2791215,-0.89229 -0.00454,-0.21006 0.1480817,-0.0484 0.5392648,0.57076 0.6749065,1.06831 1.3858541,2.02991 1.8499954,2.50224 0.4705715,0.47886 0.4434237,0.46222 1.5378177,0.94319 0.41238724,0.18123 1.4085903,0.67779 2.2137805,1.10344 0.8051862,0.42566 1.5523408,0.81316 1.6603358,0.86113 0.236926,0.10523 0.2404898,0.16079 0.03371,0.52638 -0.1356781,0.23984 -0.2098245,0.29334 -0.4804892,0.34653 -0.1760337,0.0346 -0.333576,0.0759 -0.3500758,0.0917 -0.01653,0.0158 0.04427,0.10784 0.135086,0.20429 0.1538978,0.16362 0.1575578,0.18684 0.054233,0.34472 -0.1739813,0.26589 -1.19492109,1.26465 -1.29281407,1.26472 -0.17727498,1.1e-4 -1.10677827,-0.86204 -1.61337031,-1.49644 -0.50235762,-0.62912 -1.13908882,-1.12756 -1.30736252,-1.02341 -0.035696,0.0221 0.5409983,0.64875 1.28148909,1.3926 l 1.34633519,1.35245 -0.17768932,0.14503 c -0.14784513,0.12056 -0.80440625,0.48734 -0.87251326,0.48735 -0.0117099,10e-6 -0.27736867,-0.21915 -0.5916408,-0.48699 z m 3.2813245,-3.97292 c -1.2067115,-0.31137 -1.42749859,-0.39503 -2.20577664,-0.83593 -1.33750586,-0.75771 -1.56271606,-0.94361 -3.11882036,-2.57464 -0.7522877,-0.78851 -1.2780707,-1.40263 -1.3904808,-1.62414 -0.3104393,-0.61161 -0.5955911,-1.57262 -0.7837549,-2.64123 -0.2758393,-1.56658 -0.2529155,-1.63212 0.3036723,-0.86792 0.1945106,0.26707 0.5928796,0.77278 0.8852644,1.1238 0.2923689,0.35102 1.0091403,1.26435 1.5928078,2.02962 2.02884733,2.66009 2.92885219,3.56027 4.8384401,4.83933 0.5404179,0.36198 0.6995388,0.43135 0.6994571,0.30497 -2.26e-5,-0.035 -0.2044437,-0.50866 -0.4542702,-1.05271 -0.2498416,-0.54403 -0.4953976,-1.11492 -0.5456879,-1.26866 -0.050299,-0.15372 -0.2088734,-0.4106 -0.352407,-0.57088 -0.1435476,-0.16026 -0.4400916,-0.51615 -0.6590212,-0.79085 -0.21892951,-0.2747 -0.82379845,-0.99713 -1.34416159,-1.60539 -1.83817381,-2.14864 -2.37679131,-3.16751 -2.79171511,-5.28097 -0.3440956,-1.75265 -0.3479169,-2.38766 -0.013025,-2.03458 1.2108323,1.27362 2.78175228,3.18125 3.40790386,4.13835 0.81541054,1.2464 1.10774674,1.97553 1.68049574,4.19137 0.329207,1.27362 0.5137048,1.83338 0.8587036,2.60513 0.2416562,0.54065 0.4685449,1.01348 0.5041959,1.05076 0.096816,0.10122 0.08099,-0.15558 -0.084767,-1.38846 -0.088545,-0.65825 -0.1740845,-1.84382 -0.2111142,-2.92681 -0.034167,-1.00122 -0.1142877,-2.22192 -0.1780718,-2.71268 -0.073697,-0.56781 -0.1001009,-1.09995 -0.072526,-1.46341 0.023797,-0.31414 0.044177,-0.94862 0.045049,-1.40997 9.984e-4,-0.46135 0.023167,-0.83883 0.049518,-0.83884 0.026199,-2e-5 0.2805626,0.53926 0.5650955,1.19837 l 0.5173184,1.19842 -0.00258,2.81687 c -0.00258,2.81045 -0.050852,3.97384 -0.199135,4.8516 -0.1608187,0.95226 -0.4084518,1.78634 -0.5290647,1.78199 -0.045961,-0.001 -0.5012035,-0.11077 -1.0117158,-0.24251 z"
         id="path903"
         inkscape:connector-curvature="0" />
    </clipPath>
  </defs>
  <sodipodi:namedview
     id="base"
     pagecolor="#ffffff"
     bordercolor="#666666"
     borderopacity="1.0"
     inkscape:pageopacity="0.0"
     inkscape:pageshadow="2"
     inkscape:zoom="2.2698934"
     inkscape:cx="119.06976"
     inkscape:cy="28.598675"
     inkscape:document-units="mm"
     inkscape:current-layer="layer1"
     showgrid="false"
     inkscape:window-width="1600"
     inkscape:window-height="792"
     inkscape:window-x="0"
     inkscape:window-y="0"
     inkscape:window-maximized="1"
     units="px" />
  <metadata
     id="metadata5">
    <rdf:RDF>
      <cc:Work
         rdf:about="">
        <dc:format>image/svg+xml</dc:format>
        <dc:type
           rdf:resource="http://purl.org/dc/dcmitype/StillImage" />
        <dc:title />
      </cc:Work>
    </rdf:RDF>
  </metadata>
  <g
     inkscape:label="Layer 1"
     inkscape:groupmode="layer"
     id="layer1"
     transform="translate(0,-263.13332)">
    <g
       style="opacity:0.25;fill:#000000;stroke-width:0.80876845"
       transform="matrix(1.2364425,0,0,1.2364533,0.291313,-65.0167)"
       id="g869">
      <rect
         y="268.64136"
         x="0.28721386"
         height="21.441429"
         width="26.705799"
         id="rect863"
         style="opacity:1;fill:#000000;fill-opacity:1;stroke:none;stroke-width:0.74491382;stroke-miterlimit:4;stroke-dasharray:none;stroke-opacity:1"
         transform="rotate(0.0370229)" />
      <rect
         style="opacity:1;fill:#000000;fill-opacity:1;stroke:none;stroke-width:0.69205528;stroke-miterlimit:4;stroke-dasharray:none;stroke-opacity:1"
         id="rect865"
         width="24.858364"
         height="19.881824"
         x="1.140329"
         y="269.45447"
         transform="rotate(0.0370229)" />
      <path
         style="opacity:1;fill:#000000;fill-opacity:1;stroke:none;stroke-width:0.69205534;stroke-miterlimit:4;stroke-dasharray:none;stroke-opacity:1"
         d="m 0.95899542,280.67895 -0.005595,8.658 24.85831858,0.0161 0.0056,-8.65801 z"
         id="path867"
         inkscape:connector-curvature="0" />
    </g>
    <rect
       y="266.60446"
       x="0.60407501"
       height="26.511324"
       width="33.020184"
       id="rect830"
       style="opacity:1;fill:#ececec;fill-opacity:1;stroke:#999999;stroke-width:0.30000001;stroke-miterlimit:4;stroke-dasharray:none;stroke-opacity:1"
       transform="rotate(0.03702323)" />
    <rect
       style="opacity:1;fill:url(#radialGradient1071);fill-opacity:1;stroke:none;stroke-width:0.85569018;stroke-miterlimit:4;stroke-dasharray:none;stroke-opacity:1"
       id="rect826"
       width="30.735935"
       height="24.582947"
       x="1.6589028"
       y="267.60983"
       transform="rotate(0.03702323)" />
    <path
       id="path970"
       d="m 16.846002,273.45411 c 3.647782,0 6.605011,2.95725 6.605011,6.60501 0,3.64779 -2.957229,6.60501 -6.605011,6.60501 -3.647782,0 -6.605013,-2.95722 -6.605013,-6.60501 0,-3.64776 2.957231,-6.60501 6.605013,-6.60501 z"
       style="fill:#ffc942;fill-opacity:1;fill-rule:evenodd;stroke-width:0.26458335"
       inkscape:connector-curvature="0" />
    <path
       style="opacity:1;fill:#f93f52;fill-opacity:1;stroke:none;stroke-width:0.8556903;stroke-miterlimit:4;stroke-dasharray:none;stroke-opacity:1"
       d="m 1.4815105,281.48857 -0.00692,10.70521 30.7358805,0.0199 0.0069,-10.70523 z"
       id="rect834"
       inkscape:connector-curvature="0" />
    <rect
       transform="rotate(0.03702323,40293.616,49210.636)"
       y="293.65695"
       x="-30.131506"
       height="24.582947"
       width="30.735935"
       id="rect895"
       style="opacity:1;fill:#5d1b1c;fill-opacity:1;stroke:none;stroke-width:0.85569018;stroke-miterlimit:4;stroke-dasharray:none;stroke-opacity:1"
       clip-path="url(#clipPath901)" />
  </g>
</svg>
