<?xml version="1.0" encoding="UTF-8" standalone="no"?>
<!-- Created with Inkscape (http://www.inkscape.org/) -->

<svg
   xmlns:osb="http://www.openswatchbook.org/uri/2009/osb"
   xmlns:dc="http://purl.org/dc/elements/1.1/"
   xmlns:cc="http://creativecommons.org/ns#"
   xmlns:rdf="http://www.w3.org/1999/02/22-rdf-syntax-ns#"
   xmlns:svg="http://www.w3.org/2000/svg"
   xmlns="http://www.w3.org/2000/svg"
   xmlns:xlink="http://www.w3.org/1999/xlink"
   xmlns:sodipodi="http://sodipodi.sourceforge.net/DTD/sodipodi-0.dtd"
   xmlns:inkscape="http://www.inkscape.org/namespaces/inkscape"
   width="128"
   height="128"
   viewBox="0 0 33.866666 33.866668"
   version="1.1"
   id="svg8"
   inkscape:version="0.92.2 5c3e80d, 2017-08-06"
   sodipodi:docname="application-vnd.ms-excel copy.svg">
  <defs
     id="defs2">
    <linearGradient
       id="linearGradient1830">
      <stop
         id="stop1826"
         style="stop-color:#d9d9d9;stop-opacity:1"
         offset="0" />
      <stop
         id="stop1828"
         style="stop-color:#ffffff;stop-opacity:1;"
         offset="1" />
    </linearGradient>
    <linearGradient
       osb:paint="solid"
       id="linearGradient6987">
      <stop
         id="stop6985"
         offset="0"
         style="stop-color:#77d2fb;stop-opacity:1;" />
    </linearGradient>
    <linearGradient
       inkscape:collect="always"
       xlink:href="#linearGradient1830"
       id="linearGradient1503-8"
       x1="29.203474"
       y1="263.52237"
       x2="4.5843229"
       y2="296.16849"
       gradientUnits="userSpaceOnUse"
       gradientTransform="matrix(1.0010487,0,0,1.0010383,1.5591016,-0.26586232)" />
  </defs>
  <sodipodi:namedview
     id="base"
     pagecolor="#ffffff"
     bordercolor="#666666"
     borderopacity="1.0"
     inkscape:pageopacity="0.0"
     inkscape:pageshadow="2"
     inkscape:zoom="1.979899"
     inkscape:cx="0.41084157"
     inkscape:cy="95.701424"
     inkscape:document-units="mm"
     inkscape:current-layer="layer1"
     showgrid="false"
     units="px"
     inkscape:window-width="1600"
     inkscape:window-height="814"
     inkscape:window-x="0"
     inkscape:window-y="0"
     inkscape:window-maximized="1"
     showguides="false" />
  <metadata
     id="metadata5">
    <rdf:RDF>
      <cc:Work
         rdf:about="">
        <dc:format>image/svg+xml</dc:format>
        <dc:type
           rdf:resource="http://purl.org/dc/dcmitype/StillImage" />
        <dc:title />
      </cc:Work>
    </rdf:RDF>
  </metadata>
  <g
     inkscape:label="Layer 1"
     inkscape:groupmode="layer"
     id="layer1"
     transform="translate(0,-263.13332)">
    <g
       id="g898"
       transform="translate(0.27886996,-0.02499666)">
      <path
         sodipodi:nodetypes="ccccascscsscc"
         inkscape:connector-curvature="0"
         id="path5023-4"
         d="M 6.1482316,264.12318 V 296.7354 H 30.872154 v -18.3 c -0.04716,-0.8313 -0.101653,-1.57532 -0.312496,-2.32966 -0.21448,-0.76736 -0.552469,-1.49394 -0.956412,-2.18925 -0.516871,-0.8897 -1.39035,-1.46334 -2.166671,-2.19248 -0.47098,-0.42711 -1.488209,-1.44169 -2.719481,-2.65304 -1.221196,-1.20143 -2.653456,-2.59692 -3.849171,-3.68107 -0.35316,-0.3187 -0.866164,-0.64943 -1.342771,-0.84044 -0.370088,-0.14831 -0.80547,-0.24063 -1.22583,-0.30267 -0.433449,-0.064 -0.850926,-0.0958 -1.164384,-0.12361 z"
         style="opacity:0.25;fill:#000000;fill-opacity:1;stroke:none;stroke-width:1.87499988;stroke-miterlimit:4;stroke-dasharray:none;stroke-opacity:1" />
      <path
         style="opacity:1;fill:url(#linearGradient1503-8);fill-opacity:1;stroke:#808080;stroke-width:0.30000001;stroke-miterlimit:4;stroke-dasharray:none;stroke-opacity:1"
         d="m 6.1482316,263.5979 v 32.61222 H 30.872154 v -18.3 c -0.04716,-0.83129 -0.101653,-1.57532 -0.312496,-2.32966 -0.21448,-0.76736 -0.552469,-1.49394 -0.956412,-2.18925 -0.516871,-0.88969 -1.39035,-1.46334 -2.166671,-2.19247 -0.47098,-0.42712 -1.488209,-1.4417 -2.719481,-2.65305 -1.221196,-1.20142 -2.653456,-2.59692 -3.849171,-3.68107 -0.35316,-0.3187 -0.866164,-0.64944 -1.342771,-0.84044 -0.370088,-0.14831 -0.80547,-0.24063 -1.22583,-0.30267 -0.433449,-0.064 -0.850926,-0.0958 -1.164384,-0.12361 z"
         id="path4623-8"
         inkscape:connector-curvature="0"
         sodipodi:nodetypes="ccccascscsscc" />
      <g
         transform="translate(-41.680765,-1.1078858)"
         id="g2117">
        <rect
           style="opacity:1;fill:#afafaf;fill-opacity:1;fill-rule:evenodd;stroke:none;stroke-width:0.35433072;stroke-linecap:round;stroke-linejoin:bevel;stroke-miterlimit:4;stroke-dasharray:none;stroke-opacity:1"
           id="rect4935"
           width="5.5517154"
           height="2.7712202"
           x="50.561131"
           y="267.58694" />
        <rect
           y="267.58694"
           x="57.173199"
           height="2.7712202"
           width="5.5517154"
           id="rect4937"
           style="opacity:1;fill:#afafaf;fill-opacity:1;fill-rule:evenodd;stroke:none;stroke-width:0.35433072;stroke-linecap:round;stroke-linejoin:bevel;stroke-miterlimit:4;stroke-dasharray:none;stroke-opacity:1" />
        <rect
           y="271.44952"
           x="50.561131"
           height="2.7712202"
           width="5.5517154"
           id="rect4948"
           style="opacity:1;fill:#afafaf;fill-opacity:1;fill-rule:evenodd;stroke:none;stroke-width:0.35433072;stroke-linecap:round;stroke-linejoin:bevel;stroke-miterlimit:4;stroke-dasharray:none;stroke-opacity:1" />
        <rect
           style="opacity:1;fill:#92c897;fill-opacity:1;fill-rule:evenodd;stroke:none;stroke-width:0.35433072;stroke-linecap:round;stroke-linejoin:bevel;stroke-miterlimit:4;stroke-dasharray:none;stroke-opacity:1"
           id="rect4950"
           width="5.5517154"
           height="2.7712202"
           x="57.173195"
           y="271.44952" />
        <path
           style="opacity:1;fill:#92c897;fill-opacity:1;fill-rule:evenodd;stroke:none;stroke-width:0.35433072;stroke-linecap:round;stroke-linejoin:bevel;stroke-miterlimit:4;stroke-dasharray:none;stroke-opacity:1"
           d="m 63.758702,271.44953 3.759332,0.35882 1.769156,0.70792 v 1.70449 h -5.528488 z"
           id="rect4952"
           inkscape:connector-curvature="0"
           sodipodi:nodetypes="cccccc" />
        <rect
           style="opacity:1;fill:#afafaf;fill-opacity:1;fill-rule:evenodd;stroke:none;stroke-width:0.35433072;stroke-linecap:round;stroke-linejoin:bevel;stroke-miterlimit:4;stroke-dasharray:none;stroke-opacity:1"
           id="rect4956"
           width="5.5517154"
           height="2.7712202"
           x="50.561131"
           y="275.66376" />
        <rect
           y="275.66376"
           x="57.173199"
           height="2.7712202"
           width="5.5517154"
           id="rect4958"
           style="opacity:1;fill:#92c897;fill-opacity:1;fill-rule:evenodd;stroke:none;stroke-width:0.35433072;stroke-linecap:round;stroke-linejoin:bevel;stroke-miterlimit:4;stroke-dasharray:none;stroke-opacity:1" />
        <rect
           style="opacity:1;fill:#92c897;fill-opacity:1;fill-rule:evenodd;stroke:none;stroke-width:0.35433072;stroke-linecap:round;stroke-linejoin:bevel;stroke-miterlimit:4;stroke-dasharray:none;stroke-opacity:1"
           id="rect4960"
           width="5.5052576"
           height="2.7712202"
           x="63.758705"
           y="275.66376" />
        <g
           id="g4973"
           transform="matrix(0.24831791,0,0,0.24790304,8.5823212,227.97954)"
           style="fill:#92c897;fill-opacity:1;stroke-width:4.03046417">
          <rect
             style="opacity:1;fill:#92c897;fill-opacity:1;fill-rule:evenodd;stroke:none;stroke-width:1.42811728;stroke-linecap:round;stroke-linejoin:bevel;stroke-miterlimit:4;stroke-dasharray:none;stroke-opacity:1"
             id="rect4975"
             width="22.35729"
             height="11.178645"
             x="169.05269"
             y="207.86853" />
          <rect
             y="207.86853"
             x="195.68011"
             height="11.178645"
             width="22.35729"
             id="rect4977"
             style="opacity:1;fill:#92c897;fill-opacity:1;fill-rule:evenodd;stroke:none;stroke-width:1.42811728;stroke-linecap:round;stroke-linejoin:bevel;stroke-miterlimit:4;stroke-dasharray:none;stroke-opacity:1" />
          <rect
             style="opacity:1;fill:#92c897;fill-opacity:1;fill-rule:evenodd;stroke:none;stroke-width:1.42811728;stroke-linecap:round;stroke-linejoin:bevel;stroke-miterlimit:4;stroke-dasharray:none;stroke-opacity:1"
             id="rect4979"
             width="22.1702"
             height="11.178645"
             x="222.20058"
             y="207.86855" />
        </g>
        <g
           transform="matrix(0.24831791,0,0,0.24790304,8.5823212,231.87544)"
           id="g4981"
           style="fill:#92c897;fill-opacity:1;stroke-width:4.03046417">
          <rect
             y="207.86853"
             x="169.05269"
             height="11.178645"
             width="22.35729"
             id="rect4983"
             style="opacity:1;fill:#92c897;fill-opacity:1;fill-rule:evenodd;stroke:none;stroke-width:1.42811728;stroke-linecap:round;stroke-linejoin:bevel;stroke-miterlimit:4;stroke-dasharray:none;stroke-opacity:1" />
          <rect
             style="opacity:1;fill:#92c897;fill-opacity:1;fill-rule:evenodd;stroke:none;stroke-width:1.42811728;stroke-linecap:round;stroke-linejoin:bevel;stroke-miterlimit:4;stroke-dasharray:none;stroke-opacity:1"
             id="rect4985"
             width="22.35729"
             height="11.178645"
             x="195.68011"
             y="207.86853" />
          <rect
             y="207.86855"
             x="222.20058"
             height="11.178645"
             width="22.1702"
             id="rect4987"
             style="opacity:1;fill:#92c897;fill-opacity:1;fill-rule:evenodd;stroke:none;stroke-width:1.42811728;stroke-linecap:round;stroke-linejoin:bevel;stroke-miterlimit:4;stroke-dasharray:none;stroke-opacity:1" />
        </g>
        <g
           id="g4989"
           transform="matrix(0.24831791,0,0,0.24790304,8.5823212,235.77447)"
           style="fill:#92c897;fill-opacity:1;stroke-width:4.03046417">
          <rect
             style="opacity:1;fill:#92c897;fill-opacity:1;fill-rule:evenodd;stroke:none;stroke-width:1.42811728;stroke-linecap:round;stroke-linejoin:bevel;stroke-miterlimit:4;stroke-dasharray:none;stroke-opacity:1"
             id="rect4991"
             width="22.35729"
             height="11.178645"
             x="169.05269"
             y="207.86853" />
          <rect
             y="207.86853"
             x="195.68011"
             height="11.178645"
             width="22.35729"
             id="rect4993"
             style="opacity:1;fill:#92c897;fill-opacity:1;fill-rule:evenodd;stroke:none;stroke-width:1.42811728;stroke-linecap:round;stroke-linejoin:bevel;stroke-miterlimit:4;stroke-dasharray:none;stroke-opacity:1" />
          <rect
             style="opacity:1;fill:#92c897;fill-opacity:1;fill-rule:evenodd;stroke:none;stroke-width:1.42811728;stroke-linecap:round;stroke-linejoin:bevel;stroke-miterlimit:4;stroke-dasharray:none;stroke-opacity:1"
             id="rect4995"
             width="22.1702"
             height="11.178645"
             x="222.20058"
             y="207.86855" />
        </g>
        <rect
           style="opacity:1;fill:#afafaf;fill-opacity:1;fill-rule:evenodd;stroke:none;stroke-width:0.35433072;stroke-linecap:round;stroke-linejoin:bevel;stroke-miterlimit:4;stroke-dasharray:none;stroke-opacity:1"
           id="rect4999"
           width="5.5517154"
           height="2.7712202"
           x="50.561131"
           y="291.16034" />
        <rect
           y="291.16034"
           x="57.173199"
           height="2.7712202"
           width="5.5517154"
           id="rect5001"
           style="opacity:1;fill:#92c897;fill-opacity:1;fill-rule:evenodd;stroke:none;stroke-width:0.35433072;stroke-linecap:round;stroke-linejoin:bevel;stroke-miterlimit:4;stroke-dasharray:none;stroke-opacity:1" />
        <rect
           style="opacity:1;fill:#92c897;fill-opacity:1;fill-rule:evenodd;stroke:none;stroke-width:0.35433072;stroke-linecap:round;stroke-linejoin:bevel;stroke-miterlimit:4;stroke-dasharray:none;stroke-opacity:1"
           id="rect5003"
           width="5.5052576"
           height="2.7712202"
           x="63.758705"
           y="291.16034" />
      </g>
      <path
         style="opacity:0.24800002;fill:#000000;fill-opacity:1;stroke:none;stroke-width:0.30000001;stroke-miterlimit:4;stroke-dasharray:none;stroke-opacity:1"
         d="m 21.328004,265.50926 c 0.01633,0.0263 0.561139,0.90462 0.727791,1.39886 0.451585,1.01234 0.25858,3.97236 0.250369,5.65885 0.02772,-0.19401 4.690513,-1.39583 7.111042,0.80464 -0.01547,-0.0273 -0.04888,-0.0804 -0.12512,-0.18628 -0.07235,-0.10046 -0.182749,-0.24915 -0.371644,-0.44224 -0.528108,-0.60452 -0.230926,-0.0845 -0.805409,-0.682 -0.496688,-0.45047 -1.569491,-1.52048 -2.867987,-2.79805 -1.241182,-1.22116 -2.686924,-2.62954 -3.919042,-3.75378 z"
         id="path1355-8"
         inkscape:connector-curvature="0"
         sodipodi:nodetypes="ccccsccsc" />
      <path
         sodipodi:nodetypes="ccccccsc"
         inkscape:connector-curvature="0"
         id="path4753-0"
         d="m 21.0009,264.98645 c 0.01548,0.0249 0.53209,0.85773 0.690114,1.32635 0.428208,0.95987 0.292236,3.21802 0.28445,4.8171 0.428992,-0.0223 5.159507,-0.73701 7.328403,1.82407 -0.02928,-0.0506 -0.102779,-0.0927 -0.143771,-0.17312 -0.500768,-0.57318 -1.139582,-1.03373 -1.723521,-1.58216 -0.470975,-0.42712 -1.488241,-1.44167 -2.719516,-2.65302 -1.176928,-1.15787 -2.547826,-2.49325 -3.716159,-3.55922 z"
         style="opacity:1;fill:#ffffff;fill-opacity:1;stroke:#808080;stroke-width:0.30000001;stroke-miterlimit:4;stroke-dasharray:none;stroke-opacity:1" />
      <g
         transform="matrix(0.53602412,0,0,0.5372689,-233.35679,-13.760303)"
         id="layer1-4-3"
         inkscape:label="Capa 1"
         inkscape:transform-center-x="5.4653607"
         inkscape:transform-center-y="-9.4924686"
         style="stroke-width:4.08449793">
        <g
           transform="translate(0.41988239,0.03484499)"
           inkscape:label="Capa 1"
           id="layer1-3-65-9"
           style="stroke-width:4.08449793" />
      </g>
      <g
         transform="matrix(0.53602412,0,0,0.5372689,-236.26329,-13.760297)"
         id="layer1-4"
         inkscape:label="Capa 1"
         inkscape:transform-center-x="5.4653607"
         inkscape:transform-center-y="-9.4924686"
         style="stroke-width:4.08449793">
        <g
           transform="translate(0.41988239,0.03484499)"
           inkscape:label="Capa 1"
           id="layer1-3-65"
           style="stroke-width:4.08449793" />
      </g>
      <g
         transform="matrix(0.53602412,0,0,0.5372689,-267.53171,-13.785303)"
         id="layer1-4-3-2"
         inkscape:label="Capa 1"
         inkscape:transform-center-x="5.4653607"
         inkscape:transform-center-y="-9.4924686"
         style="stroke-width:4.08449793">
        <g
           transform="translate(0.41988239,0.03484499)"
           inkscape:label="Capa 1"
           id="layer1-3-65-9-7"
           style="stroke-width:4.08449793" />
      </g>
      <g
         transform="matrix(0.53602412,0,0,0.5372689,-270.43821,-13.785297)"
         id="layer1-4-37"
         inkscape:label="Capa 1"
         inkscape:transform-center-x="5.4653607"
         inkscape:transform-center-y="-9.4924686"
         style="stroke-width:4.08449793">
        <g
           transform="translate(0.41988239,0.03484499)"
           inkscape:label="Capa 1"
           id="layer1-3-65-90"
           style="stroke-width:4.08449793" />
      </g>
      <g
         transform="translate(34.089242)"
         id="g2044">
        <rect
           style="opacity:1;fill:#217245;fill-opacity:1;fill-rule:nonzero;stroke:none;stroke-width:0.2;stroke-miterlimit:4;stroke-dasharray:none;stroke-opacity:1"
           id="rect1983"
           width="13.463702"
           height="13.463702"
           x="-31.802469"
           y="276.29501"
           ry="0" />
        <rect
           ry="0"
           y="277.9841"
           x="-30.113388"
           height="10.08554"
           width="10.08554"
           id="rect1985"
           style="opacity:1;fill:#ffffff;fill-opacity:1;fill-rule:nonzero;stroke:none;stroke-width:0.2;stroke-miterlimit:4;stroke-dasharray:none;stroke-opacity:1" />
        <path
           style="fill:#217245;stroke-width:1"
           d="m -29.179671,279.75369 v 0.63562 0.63562 l 0.975136,0.97461 c 0.536244,0.53599 0.975135,0.99833 0.975135,1.02733 0,0.029 -0.438891,0.49134 -0.975135,1.02733 l -0.975136,0.97462 v 0.21755 0.21808 h 2.217436 2.21692 l 0.420645,0.41754 0.420648,0.41755 h 1.471226 l 1.471229,5.2e-4 v -0.63614 -0.63614 l -0.348297,-0.34675 c -0.191522,-0.1908 -0.3483,-0.37109 -0.3483,-0.40049 0,-0.0294 0.156778,-0.20969 0.3483,-0.40049 l 0.348297,-0.34675 v -0.21859 -0.21808 h -0.91984 c -0.505949,0 -0.944835,-0.01 -0.975135,-0.0212 -0.0303,-0.0117 -0.05529,-0.0395 -0.05529,-0.0615 0,-0.022 0.438883,-0.47842 0.975132,-1.01441 l 0.975135,-0.97461 v -0.63562 -0.63562 h -1.471745 -1.471744 l -0.556038,0.55707 c -0.30597,0.30643 -0.580065,0.55707 -0.609267,0.55707 -0.02917,0 -0.3038,-0.25064 -0.60978,-0.55707 l -0.55604,-0.55707 h -1.471745 z m 1.025261,0.69659 h 0.245464 l 2.289784,2.28979 2.289781,2.28978 v 0.24495 c 0,0.14428 -0.01726,0.2622 -0.04186,0.2868 -0.02459,0.0246 -0.142523,0.0419 -0.286803,0.0419 h -0.245465 l -2.289783,-2.28978 -2.289781,-2.28979 v -0.24494 c 0,-0.14428 0.01727,-0.26221 0.04186,-0.28681 0.02459,-0.0246 0.142526,-0.0419 0.286803,-0.0419 z"
           id="path1987"
           inkscape:connector-curvature="0" />
      </g>
    </g>
  </g>
</svg>
