<?xml version="1.0" encoding="UTF-8" standalone="no"?>
<!-- Created with Inkscape (http://www.inkscape.org/) -->

<svg
   xmlns:osb="http://www.openswatchbook.org/uri/2009/osb"
   xmlns:dc="http://purl.org/dc/elements/1.1/"
   xmlns:cc="http://creativecommons.org/ns#"
   xmlns:rdf="http://www.w3.org/1999/02/22-rdf-syntax-ns#"
   xmlns:svg="http://www.w3.org/2000/svg"
   xmlns="http://www.w3.org/2000/svg"
   xmlns:xlink="http://www.w3.org/1999/xlink"
   xmlns:sodipodi="http://sodipodi.sourceforge.net/DTD/sodipodi-0.dtd"
   xmlns:inkscape="http://www.inkscape.org/namespaces/inkscape"
   width="128"
   height="128"
   viewBox="0 0 33.866666 33.866668"
   version="1.1"
   id="svg1038"
   inkscape:version="0.92.2 5c3e80d, 2017-08-06"
   sodipodi:docname="EPS.svg">
  <defs
     id="defs1032">
    <linearGradient
       osb:paint="solid"
       id="linearGradient6987">
      <stop
         id="stop6985"
         offset="0"
         style="stop-color:#77d2fb;stop-opacity:1;" />
    </linearGradient>
    <linearGradient
       id="linearGradient1830">
      <stop
         offset="0"
         style="stop-color:#d9d9d9;stop-opacity:1"
         id="stop1826" />
      <stop
         offset="1"
         style="stop-color:#ffffff;stop-opacity:1;"
         id="stop1828" />
    </linearGradient>
    <linearGradient
       inkscape:collect="always"
       xlink:href="#linearGradient1830"
       id="linearGradient1503"
       x1="29.203474"
       y1="263.52237"
       x2="4.5843229"
       y2="296.16849"
       gradientUnits="userSpaceOnUse"
       gradientTransform="matrix(1.0010487,0,0,1.0010383,-0.01775767,-0.29086231)" />
  </defs>
  <sodipodi:namedview
     id="base"
     pagecolor="#ffffff"
     bordercolor="#666666"
     borderopacity="1.0"
     inkscape:pageopacity="0.0"
     inkscape:pageshadow="2"
     inkscape:zoom="0.9899495"
     inkscape:cx="-68.407231"
     inkscape:cy="-33.222031"
     inkscape:document-units="mm"
     inkscape:current-layer="layer1"
     showgrid="false"
     inkscape:window-width="1600"
     inkscape:window-height="814"
     inkscape:window-x="0"
     inkscape:window-y="0"
     inkscape:window-maximized="1"
     units="px" />
  <metadata
     id="metadata1035">
    <rdf:RDF>
      <cc:Work
         rdf:about="">
        <dc:format>image/svg+xml</dc:format>
        <dc:type
           rdf:resource="http://purl.org/dc/dcmitype/StillImage" />
        <dc:title />
      </cc:Work>
    </rdf:RDF>
  </metadata>
  <g
     inkscape:label="Layer 1"
     inkscape:groupmode="layer"
     id="layer1"
     transform="translate(0,-263.13332)">
    <path
       style="opacity:0.25;fill:#000000;fill-opacity:1;stroke:none;stroke-width:1.87499988;stroke-miterlimit:4;stroke-dasharray:none;stroke-opacity:1"
       d="M 4.5713723,264.09818 V 296.7104 H 29.295294 v -18.3 c -0.04716,-0.8313 -0.101653,-1.57532 -0.312496,-2.32966 -0.21448,-0.76736 -0.552469,-1.49394 -0.956412,-2.18925 -0.516871,-0.8897 -1.39035,-1.46334 -2.166671,-2.19248 -0.47098,-0.42711 -1.488209,-1.44169 -2.719481,-2.65304 -1.221196,-1.20143 -2.653456,-2.59692 -3.849171,-3.68107 -0.35316,-0.3187 -0.866164,-0.64943 -1.342771,-0.84044 -0.370088,-0.14831 -0.80547,-0.24063 -1.22583,-0.30267 -0.433449,-0.064 -0.850926,-0.0958 -1.164384,-0.12361 z"
       id="path5023"
       inkscape:connector-curvature="0"
       sodipodi:nodetypes="ccccascscsscc" />
    <path
       sodipodi:nodetypes="ccccascscsscc"
       inkscape:connector-curvature="0"
       id="path4623-8"
       d="m 4.5713723,263.5729 v 32.61222 H 29.295294 v -18.3 c -0.04716,-0.83129 -0.101653,-1.57532 -0.312496,-2.32966 -0.21448,-0.76736 -0.552469,-1.49394 -0.956412,-2.18925 -0.516871,-0.88969 -1.39035,-1.46334 -2.166671,-2.19247 -0.47098,-0.42712 -1.488209,-1.4417 -2.719481,-2.65305 -1.221196,-1.20142 -2.653456,-2.59692 -3.849171,-3.68107 -0.35316,-0.3187 -0.866164,-0.64944 -1.342771,-0.84044 -0.370088,-0.14831 -0.80547,-0.24063 -1.22583,-0.30267 -0.433449,-0.064 -0.850926,-0.0958 -1.164384,-0.12361 z"
       style="opacity:1;fill:url(#linearGradient1503);fill-opacity:1;stroke:#808080;stroke-width:0.30000001;stroke-miterlimit:4;stroke-dasharray:none;stroke-opacity:1" />
    <path
       sodipodi:nodetypes="ccccsccsc"
       inkscape:connector-curvature="0"
       id="path1355-3"
       d="m 19.751144,265.48426 c 0.01633,0.0263 0.561139,0.90462 0.727791,1.39886 0.451585,1.01234 0.25858,3.97236 0.250369,5.65885 0.02772,-0.19401 4.690513,-1.39583 7.111042,0.80464 -0.01547,-0.0273 -0.04888,-0.0804 -0.12512,-0.18628 -0.07235,-0.10046 -0.182749,-0.24915 -0.371644,-0.44224 -0.528108,-0.60452 -0.230926,-0.0845 -0.805409,-0.682 -0.496688,-0.45047 -1.569491,-1.52048 -2.867987,-2.79805 -1.241182,-1.22116 -2.686924,-2.62954 -3.919042,-3.75378 z"
       style="opacity:0.24800002;fill:#000000;fill-opacity:1;stroke:none;stroke-width:0.30000001;stroke-miterlimit:4;stroke-dasharray:none;stroke-opacity:1" />
    <path
       style="opacity:1;fill:#ffffff;fill-opacity:1;stroke:#808080;stroke-width:0.30000001;stroke-miterlimit:4;stroke-dasharray:none;stroke-opacity:1"
       d="m 19.42404,264.96145 c 0.01548,0.0249 0.53209,0.85773 0.690114,1.32635 0.428208,0.95987 0.292236,3.21802 0.28445,4.8171 0.428992,-0.0223 5.159507,-0.73701 7.328403,1.82407 -0.02928,-0.0506 -0.102779,-0.0927 -0.143771,-0.17312 -0.500768,-0.57318 -1.139582,-1.03373 -1.723521,-1.58216 -0.470975,-0.42712 -1.488241,-1.44167 -2.719516,-2.65302 -1.176928,-1.15787 -2.547826,-2.49325 -3.716159,-3.55922 z"
       id="path4753-0"
       inkscape:connector-curvature="0"
       sodipodi:nodetypes="ccccccsc" />
    <g
       style="stroke-width:4.08449793"
       inkscape:transform-center-y="-9.4924686"
       inkscape:transform-center-x="5.4653607"
       inkscape:label="Capa 1"
       id="layer1-4-9"
       transform="matrix(0.53602412,0,0,0.5372689,-234.93365,-13.785303)">
      <g
         style="stroke-width:4.08449793"
         id="layer1-3-65-0"
         inkscape:label="Capa 1"
         transform="translate(0.41988239,0.03484499)" />
    </g>
    <g
       style="stroke-width:4.08449793"
       inkscape:transform-center-y="-9.4924686"
       inkscape:transform-center-x="5.4653607"
       inkscape:label="Capa 1"
       id="layer1-4"
       transform="matrix(0.53602412,0,0,0.5372689,-234.93365,-13.760303)">
      <g
         style="stroke-width:4.08449793"
         id="layer1-3-65"
         inkscape:label="Capa 1"
         transform="translate(0.41988239,0.03484499)" />
    </g>
    <g
       id="g1761"
       transform="translate(1.1208919)">
      <g
         style="opacity:0.25;fill:#000000;fill-opacity:1;stroke-width:4.04567337"
         transform="matrix(0.03387517,0,0,0.03463008,5.6337472,272.03711)"
         id="g1751">
        <path
           inkscape:connector-curvature="0"
           d="m 141,238 c 18.514,0.807 38.845,12.452 54,22.344 44.528,29.067 79.993,77.323 73,132.66 6.644,-10.558 7.005,-25.915 7,-38 -0.02,-38.88 -21.15,-78.83 -48,-106 -8.95,-9.05 -18.34,-19.46 -30,-25 l 132.27,-154 31.73,-37 c 2.449,-2.8377 10.588,-9.4499 8.824,-13.671 -1.64,-3.935 -9.22,-6.395 -12.82,-8.017 -4.07,-1.8334 -11.48,-5.6272 -15.98,-3.9841 -4.6,1.6755 -8.51,8.0781 -11.6,11.672 l -24.29,28 -114.41,132 -33.85,39 c -5.391,6.261 -12.41,12.447 -15.87,20 z"
           id="path1745"
           style="fill:#000000;fill-opacity:1;stroke-width:4.04567337" />
        <path
           inkscape:connector-curvature="0"
           d="m 66,283 c 45.491,-47.531 85.688,-100.6 129.16,-150 l 55,-64 C 262.77,54.669 277.87,40.19 288,24 281.41,22.052 266.29,20.868 260,24.028 253.28,27.402 247.61,36.42 242.72,42 l -31.291,35 c -4.612,5.3198 -10.069,13.749 -16.425,16.973 -9.153,4.6431 -25.879,2.7931 -35.999,3.0416 l -37,2.8959 c -27.603,1.929 -59.063,1.989 -72.687,31.089 -10.927,23.337 -9.2531,56.661 -10.363,82 -2.3249,53.095 -4.1748,106.99 0.8696,160 2.1611,22.708 -0.3947,51.687 11.402,72 11.525,19.844 33.79,24.124 54.768,26.075 40.603,3.775 89.231,2.673 122,-25.375 38.892,-33.29 33.398,-92.806 -2,-125.61 -38.72,-35.88 -109.61,-54.11 -160,-37.09 z"
           id="path1747"
           style="fill:#000000;fill-opacity:1;stroke-width:4.04567337" />
        <path
           inkscape:connector-curvature="0"
           d="m 203,476 c 7.355,3.086 19.953,2 28,2 l 51,1 c 64.687,0 128.55,-4.035 193,-6.961 30.612,-1.389 65.241,-2.494 77.934,-36.039 8.056,-21.288 6.617,-48.539 8.155,-71 3.554,-51.884 5.016,-105.15 0.081,-157 -2.312,-24.294 0.591,-54.495 -10.06,-77 -16.48,-34.847 -66.34,-32.199 -99.1,-33.015 -8.109,-0.2019 -23.216,-4.892 -30.606,-1.382 -5.623,2.6707 -9.033,16.969 -11.652,22.397 l -29.051,63 c -34.22,74.54 -66.29,150.89 -103.45,224 -14.41,28.35 -40.43,64.18 -74.24,70 z"
           id="path1749"
           style="fill:#000000;fill-opacity:1;stroke-width:4.04567337" />
      </g>
      <g
         id="g18"
         transform="matrix(0.03387517,0,0,0.03463008,5.6337472,271.50794)"
         style="fill:#d41a1a;fill-opacity:1;stroke-width:4.04567337">
        <path
           style="fill:#d41a1a;fill-opacity:1;stroke-width:4.04567337"
           id="path20"
           d="m 141,238 c 18.514,0.807 38.845,12.452 54,22.344 44.528,29.067 79.993,77.323 73,132.66 6.644,-10.558 7.005,-25.915 7,-38 -0.02,-38.88 -21.15,-78.83 -48,-106 -8.95,-9.05 -18.34,-19.46 -30,-25 l 132.27,-154 31.73,-37 c 2.449,-2.8377 10.588,-9.4499 8.824,-13.671 -1.64,-3.935 -9.22,-6.395 -12.82,-8.017 -4.07,-1.8334 -11.48,-5.6272 -15.98,-3.9841 -4.6,1.6755 -8.51,8.0781 -11.6,11.672 l -24.29,28 -114.41,132 -33.85,39 c -5.391,6.261 -12.41,12.447 -15.87,20 z"
           inkscape:connector-curvature="0" />
        <path
           style="fill:#d41a1a;fill-opacity:1;stroke-width:4.04567337"
           id="path22"
           d="m 66,283 c 45.491,-47.531 85.688,-100.6 129.16,-150 l 55,-64 C 262.77,54.669 277.87,40.19 288,24 281.41,22.052 266.29,20.868 260,24.028 253.28,27.402 247.61,36.42 242.72,42 l -31.291,35 c -4.612,5.3198 -10.069,13.749 -16.425,16.973 -9.153,4.6431 -25.879,2.7931 -35.999,3.0416 l -37,2.8959 c -27.603,1.929 -59.063,1.989 -72.687,31.089 -10.927,23.337 -9.2531,56.661 -10.363,82 -2.3249,53.095 -4.1748,106.99 0.8696,160 2.1611,22.708 -0.3947,51.687 11.402,72 11.525,19.844 33.79,24.124 54.768,26.075 40.603,3.775 89.231,2.673 122,-25.375 38.892,-33.29 33.398,-92.806 -2,-125.61 -38.72,-35.88 -109.61,-54.11 -160,-37.09 z"
           inkscape:connector-curvature="0" />
        <path
           style="fill:#d41a1a;fill-opacity:1;stroke-width:4.04567337"
           id="path24"
           d="m 203,476 c 7.355,3.086 19.953,2 28,2 l 51,1 c 64.687,0 128.55,-4.035 193,-6.961 30.612,-1.389 65.241,-2.494 77.934,-36.039 8.056,-21.288 6.617,-48.539 8.155,-71 3.554,-51.884 5.016,-105.15 0.081,-157 -2.312,-24.294 0.591,-54.495 -10.06,-77 -16.48,-34.847 -66.34,-32.199 -99.1,-33.015 -8.109,-0.2019 -23.216,-4.892 -30.606,-1.382 -5.623,2.6707 -9.033,16.969 -11.652,22.397 l -29.051,63 c -34.22,74.54 -66.29,150.89 -103.45,224 -14.41,28.35 -40.43,64.18 -74.24,70 z"
           inkscape:connector-curvature="0" />
      </g>
    </g>
  </g>
</svg>
