<?xml version="1.0" encoding="UTF-8" standalone="no"?>
<!-- Created with Inkscape (http://www.inkscape.org/) -->

<svg
   xmlns:osb="http://www.openswatchbook.org/uri/2009/osb"
   xmlns:dc="http://purl.org/dc/elements/1.1/"
   xmlns:cc="http://creativecommons.org/ns#"
   xmlns:rdf="http://www.w3.org/1999/02/22-rdf-syntax-ns#"
   xmlns:svg="http://www.w3.org/2000/svg"
   xmlns="http://www.w3.org/2000/svg"
   xmlns:xlink="http://www.w3.org/1999/xlink"
   xmlns:sodipodi="http://sodipodi.sourceforge.net/DTD/sodipodi-0.dtd"
   xmlns:inkscape="http://www.inkscape.org/namespaces/inkscape"
   width="128"
   height="128"
   viewBox="0 0 33.866666 33.866668"
   version="1.1"
   id="svg1038"
   inkscape:version="0.92.2 5c3e80d, 2017-08-06"
   sodipodi:docname="application-rss+xml.svg">
  <defs
     id="defs1032">
    <linearGradient
       id="linearGradient1283">
      <stop
         offset="0"
         style="stop-color:#fcad3c;stop-opacity:1"
         id="stop1281" />
      <stop
         offset="1"
         style="stop-color:#e64815;stop-opacity:1"
         id="stop1279" />
    </linearGradient>
    <linearGradient
       osb:paint="solid"
       id="linearGradient6987">
      <stop
         id="stop6985"
         offset="0"
         style="stop-color:#77d2fb;stop-opacity:1;" />
    </linearGradient>
    <linearGradient
       gradientTransform="matrix(1.0010487,0,0,1.0010383,-0.017758,-0.26586565)"
       gradientUnits="userSpaceOnUse"
       y2="296.16849"
       x2="4.5843229"
       y1="263.52237"
       x1="29.203474"
       id="linearGradient1503"
       xlink:href="#linearGradient1283"
       inkscape:collect="always" />
  </defs>
  <sodipodi:namedview
     id="base"
     pagecolor="#ffffff"
     bordercolor="#666666"
     borderopacity="1.0"
     inkscape:pageopacity="0.0"
     inkscape:pageshadow="2"
     inkscape:zoom="0.70710678"
     inkscape:cx="-146.86123"
     inkscape:cy="99.170284"
     inkscape:document-units="mm"
     inkscape:current-layer="layer1"
     showgrid="false"
     inkscape:window-width="1600"
     inkscape:window-height="814"
     inkscape:window-x="0"
     inkscape:window-y="0"
     inkscape:window-maximized="1"
     units="px" />
  <metadata
     id="metadata1035">
    <rdf:RDF>
      <cc:Work
         rdf:about="">
        <dc:format>image/svg+xml</dc:format>
        <dc:type
           rdf:resource="http://purl.org/dc/dcmitype/StillImage" />
        <dc:title />
      </cc:Work>
    </rdf:RDF>
  </metadata>
  <g
     inkscape:label="Layer 1"
     inkscape:groupmode="layer"
     id="layer1"
     transform="translate(0,-263.13332)">
    <path
       style="opacity:0.25;fill:#000000;fill-opacity:1;stroke:none;stroke-width:1.87499988;stroke-miterlimit:4;stroke-dasharray:none;stroke-opacity:1"
       d="m 4.571372,264.12318 v 32.61222 h 24.723922 v -18.3 c -0.04716,-0.8313 -0.101653,-1.57532 -0.312496,-2.32966 -0.21448,-0.76736 -0.552469,-1.49394 -0.956412,-2.18925 -0.516871,-0.8897 -1.39035,-1.46334 -2.166671,-2.19248 -0.47098,-0.42711 -1.488209,-1.44169 -2.719481,-2.65304 -1.221196,-1.20143 -2.653456,-2.59692 -3.849171,-3.68107 -0.35316,-0.3187 -0.866164,-0.64943 -1.342771,-0.84044 -0.370088,-0.14831 -0.80547,-0.24063 -1.22583,-0.30267 -0.433449,-0.064 -0.850926,-0.0958 -1.164384,-0.12361 z"
       id="path5023"
       inkscape:connector-curvature="0"
       sodipodi:nodetypes="ccccascscsscc" />
    <path
       sodipodi:nodetypes="ccccascscsscc"
       inkscape:connector-curvature="0"
       id="path4623-8"
       d="m 4.571372,263.5979 v 32.61222 h 24.723922 v -18.3 c -0.04716,-0.83129 -0.101653,-1.57532 -0.312496,-2.32966 -0.21448,-0.76736 -0.552469,-1.49394 -0.956412,-2.18925 -0.516871,-0.88969 -1.39035,-1.46334 -2.166671,-2.19247 -0.47098,-0.42712 -1.488209,-1.4417 -2.719481,-2.65305 -1.221196,-1.20142 -2.653456,-2.59692 -3.849171,-3.68107 -0.35316,-0.3187 -0.866164,-0.64944 -1.342771,-0.84044 -0.370088,-0.14831 -0.80547,-0.24063 -1.22583,-0.30267 -0.433449,-0.064 -0.850926,-0.0958 -1.164384,-0.12361 z"
       style="opacity:1;fill:url(#linearGradient1503);fill-opacity:1.0;stroke:none;stroke-width:0.30000001;stroke-miterlimit:4;stroke-dasharray:none;stroke-opacity:1" />
    <path
       sodipodi:nodetypes="ccccsccsc"
       inkscape:connector-curvature="0"
       id="path1355"
       d="m 19.751144,265.50926 c 0.01633,0.0263 0.561139,0.90462 0.727791,1.39886 0.451585,1.01234 0.25858,3.97236 0.250369,5.65885 0.02772,-0.19401 4.690513,-1.39583 7.111042,0.80464 -0.01547,-0.0273 -0.04888,-0.0804 -0.12512,-0.18628 -0.07235,-0.10046 -0.182749,-0.24915 -0.371644,-0.44224 -0.528108,-0.60452 -0.230926,-0.0845 -0.805409,-0.682 -0.496688,-0.45047 -1.569491,-1.52048 -2.867987,-2.79805 -1.241182,-1.22116 -2.686924,-2.62954 -3.919042,-3.75378 z"
       style="opacity:0.24800002;fill:#000000;fill-opacity:1;stroke:none;stroke-width:0.30000001;stroke-miterlimit:4;stroke-dasharray:none;stroke-opacity:1" />
    <path
       style="opacity:1;fill:#ffe6d5;fill-opacity:1;stroke:none;stroke-width:0.30000001;stroke-miterlimit:4;stroke-dasharray:none;stroke-opacity:1"
       d="m 19.42404,264.98645 c 0.01548,0.0249 0.53209,0.85773 0.690114,1.32635 0.428208,0.95987 0.292236,3.21802 0.28445,4.8171 0.428992,-0.0223 5.159507,-0.73701 7.328403,1.82407 -0.02928,-0.0506 -0.102779,-0.0927 -0.143771,-0.17312 -0.500768,-0.57318 -1.139582,-1.03373 -1.723521,-1.58216 -0.470975,-0.42712 -1.488241,-1.44167 -2.719516,-2.65302 -1.176928,-1.15787 -2.547826,-2.49325 -3.716159,-3.55922 z"
       id="path4753-0"
       inkscape:connector-curvature="0"
       sodipodi:nodetypes="ccccccsc" />
    <g
       style="stroke-width:4.08449793"
       inkscape:transform-center-y="-9.4924686"
       inkscape:transform-center-x="5.4653607"
       inkscape:label="Capa 1"
       id="layer1-4"
       transform="matrix(0.53602412,0,0,0.5372689,-234.93365,-13.760306)">
      <g
         style="stroke-width:4.08449793"
         id="layer1-3-65"
         inkscape:label="Capa 1"
         transform="translate(0.41988239,0.03484499)" />
    </g>
    <path
       style="font-style:normal;font-variant:normal;font-weight:bold;font-stretch:normal;font-size:13.58991337px;line-height:125%;font-family:'Bitstream Vera Serif';text-align:start;writing-mode:lr-tb;text-anchor:start;fill:#000000;fill-opacity:1;stroke:none;stroke-width:0.26458335;opacity:0.25"
       id="path1436"
       inkscape:connector-curvature="0"
       d="m 8.13436,291.99104 c 0,-0.34534 0.119159,-0.63526 0.357443,-0.86977 0.238301,-0.23874 0.529791,-0.35813 0.874466,-0.35813 0.3361641,0 0.6212691,0.11939 0.855307,0.35813 0.238293,0.23451 0.357443,0.52443 0.357443,0.86977 0,0.33684 -0.11915,0.62462 -0.357443,0.86336 -0.2340379,0.23451 -0.5191429,0.35175 -0.855307,0.35175 -0.344675,0 -0.636165,-0.11724 -0.874466,-0.35175 -0.238284,-0.23448 -0.357443,-0.52227 -0.357443,-0.86336 m -0.07111,-5.54521 v 2.0427 c 2.607687,0 4.725689,2.12342 4.725689,4.73778 h 2.048155 c 0,-3.7449 -3.038511,-6.78048 -6.773844,-6.78048 z m 0.0038,-4.4697 v 2.25797 c 4.951152,0 8.971238,4.0279 8.971238,8.98866 h 2.264374 c 1.5e-5,-6.20988 -5.037747,-11.24663 -11.235591,-11.24663 z" />
    <path
       d="m 8.13436,291.46187 c 0,-0.34534 0.119159,-0.63526 0.357443,-0.86977 0.238301,-0.23874 0.529791,-0.35813 0.874466,-0.35813 0.3361641,0 0.6212691,0.11939 0.855307,0.35813 0.238293,0.23451 0.357443,0.52443 0.357443,0.86977 0,0.33684 -0.11915,0.62462 -0.357443,0.86336 -0.2340379,0.23451 -0.5191429,0.35175 -0.855307,0.35175 -0.344675,0 -0.636165,-0.11724 -0.874466,-0.35175 -0.238284,-0.23448 -0.357443,-0.52227 -0.357443,-0.86336 m -0.07111,-5.54521 v 2.0427 c 2.607687,0 4.725689,2.12342 4.725689,4.73778 h 2.048155 c 0,-3.7449 -3.038511,-6.78048 -6.773844,-6.78048 z m 0.0038,-4.4697 v 2.25797 c 4.951152,0 8.971238,4.0279 8.971238,8.98866 h 2.264374 c 1.5e-5,-6.20988 -5.037747,-11.24663 -11.235591,-11.24663 z"
       inkscape:connector-curvature="0"
       id="path4311"
       style="font-style:normal;font-variant:normal;font-weight:bold;font-stretch:normal;font-size:13.58991337px;line-height:125%;font-family:'Bitstream Vera Serif';text-align:start;writing-mode:lr-tb;text-anchor:start;fill:#ffffff;fill-opacity:1;stroke:none;stroke-width:0.26458335" />
  </g>
</svg>
