<?xml version="1.0" encoding="UTF-8" standalone="no"?>
<!-- Created with Inkscape (http://www.inkscape.org/) -->

<svg
   xmlns:osb="http://www.openswatchbook.org/uri/2009/osb"
   xmlns:dc="http://purl.org/dc/elements/1.1/"
   xmlns:cc="http://creativecommons.org/ns#"
   xmlns:rdf="http://www.w3.org/1999/02/22-rdf-syntax-ns#"
   xmlns:svg="http://www.w3.org/2000/svg"
   xmlns="http://www.w3.org/2000/svg"
   xmlns:xlink="http://www.w3.org/1999/xlink"
   xmlns:sodipodi="http://sodipodi.sourceforge.net/DTD/sodipodi-0.dtd"
   xmlns:inkscape="http://www.inkscape.org/namespaces/inkscape"
   width="128"
   height="128"
   viewBox="0 0 33.866666 33.866668"
   version="1.1"
   id="svg1038"
   inkscape:version="0.92.2 5c3e80d, 2017-08-06"
   sodipodi:docname="rb.svg">
  <defs
     id="defs1032">
    <linearGradient
       osb:paint="solid"
       id="linearGradient6987">
      <stop
         id="stop6985"
         offset="0"
         style="stop-color:#77d2fb;stop-opacity:1;" />
    </linearGradient>
    <linearGradient
       id="linearGradient1830">
      <stop
         offset="0"
         style="stop-color:#d9d9d9;stop-opacity:1"
         id="stop1826" />
      <stop
         offset="1"
         style="stop-color:#ffffff;stop-opacity:1;"
         id="stop1828" />
    </linearGradient>
    <linearGradient
       inkscape:collect="always"
       xlink:href="#linearGradient1830"
       id="linearGradient2404"
       gradientUnits="userSpaceOnUse"
       gradientTransform="matrix(1.0010487,0,0,1.0010383,-0.01775749,-0.29085897)"
       x1="29.203474"
       y1="263.52237"
       x2="4.5843229"
       y2="296.16849" />
  </defs>
  <sodipodi:namedview
     id="base"
     pagecolor="#ffffff"
     bordercolor="#666666"
     borderopacity="1.0"
     inkscape:pageopacity="0.0"
     inkscape:pageshadow="2"
     inkscape:zoom="2.40842"
     inkscape:cx="25.4753"
     inkscape:cy="87.283769"
     inkscape:document-units="mm"
     inkscape:current-layer="layer1"
     showgrid="false"
     inkscape:window-width="1600"
     inkscape:window-height="814"
     inkscape:window-x="0"
     inkscape:window-y="0"
     inkscape:window-maximized="1"
     units="px" />
  <metadata
     id="metadata1035">
    <rdf:RDF>
      <cc:Work
         rdf:about="">
        <dc:format>image/svg+xml</dc:format>
        <dc:type
           rdf:resource="http://purl.org/dc/dcmitype/StillImage" />
        <dc:title />
      </cc:Work>
    </rdf:RDF>
  </metadata>
  <g
     inkscape:label="Layer 1"
     inkscape:groupmode="layer"
     id="layer1"
     transform="translate(0,-263.13332)">
    <path
       style="opacity:0.25;fill:#000000;fill-opacity:1;stroke:none;stroke-width:1.87499988;stroke-miterlimit:4;stroke-dasharray:none;stroke-opacity:1"
       d="M 4.5713725,264.09818 V 296.7104 H 29.295294 v -18.3 c -0.04716,-0.8313 -0.101653,-1.57532 -0.312496,-2.32966 -0.21448,-0.76736 -0.552469,-1.49394 -0.956412,-2.18925 -0.516871,-0.8897 -1.39035,-1.46334 -2.166671,-2.19248 -0.47098,-0.42711 -1.488209,-1.44169 -2.719481,-2.65304 -1.221196,-1.20143 -2.653456,-2.59692 -3.849171,-3.68107 -0.35316,-0.3187 -0.866164,-0.64943 -1.342771,-0.84044 -0.370088,-0.14831 -0.80547,-0.24063 -1.22583,-0.30267 -0.433449,-0.064 -0.850926,-0.0958 -1.164384,-0.12361 z"
       id="path5023-3"
       inkscape:connector-curvature="0"
       sodipodi:nodetypes="ccccascscsscc" />
    <path
       sodipodi:nodetypes="ccccascscsscc"
       inkscape:connector-curvature="0"
       id="path4623-8-9"
       d="m 4.5713725,263.5729 v 32.61222 H 29.295294 v -18.3 c -0.04716,-0.83129 -0.101653,-1.57532 -0.312496,-2.32966 -0.21448,-0.76736 -0.552469,-1.49394 -0.956412,-2.18925 -0.516871,-0.88969 -1.39035,-1.46334 -2.166671,-2.19247 -0.47098,-0.42712 -1.488209,-1.4417 -2.719481,-2.65305 -1.221196,-1.20142 -2.653456,-2.59692 -3.849171,-3.68107 -0.35316,-0.3187 -0.866164,-0.64944 -1.342771,-0.84044 -0.370088,-0.14831 -0.80547,-0.24063 -1.22583,-0.30267 -0.433449,-0.064 -0.850926,-0.0958 -1.164384,-0.12361 z"
       style="opacity:1;fill:url(#linearGradient2404);fill-opacity:1;stroke:#808080;stroke-width:0.30000001;stroke-miterlimit:4;stroke-dasharray:none;stroke-opacity:1" />
    <g
       transform="matrix(0.24641215,0,0,0.24790292,-1.3753054,225.49044)"
       style="font-style:normal;font-weight:normal;font-size:10.58333302px;line-height:125%;font-family:sans-serif;letter-spacing:0px;word-spacing:0px;fill:#4d4d4d;fill-opacity:1;stroke:none;stroke-width:4.04602098px;stroke-linecap:butt;stroke-linejoin:miter;stroke-opacity:1"
       id="flowRoot4678">
      <path
         inkscape:connector-curvature="0"
         d="m 34.081265,178.98971 q -0.08334,-0.0774 -0.244078,-0.14287 -0.160734,-0.0714 -0.333375,-0.0714 -0.196453,0 -0.339328,0.0774 -0.136922,0.0774 -0.226218,0.21431 -0.0893,0.13097 -0.130969,0.32147 -0.04167,0.18455 -0.04167,0.39886 0,0.4822 0.226219,0.74414 0.226218,0.26194 0.589359,0.26194 0.184547,0 0.309562,-0.0179 0.130969,-0.0179 0.1905,-0.0357 v -1.75022 z m 0,-1.86333 0.49411,-0.0833 v 4.04812 q -0.160735,0.0476 -0.410766,0.0952 -0.250031,0.0476 -0.583406,0.0476 -0.297656,0 -0.541734,-0.1012 -0.244078,-0.10121 -0.416719,-0.28575 -0.172641,-0.1905 -0.267891,-0.4584 -0.09525,-0.26789 -0.09525,-0.60126 0,-0.32147 0.07739,-0.58341 0.08334,-0.26789 0.238125,-0.45839 0.154781,-0.1905 0.369094,-0.29765 0.220265,-0.10716 0.500062,-0.10716 0.220266,0 0.386953,0.0536 0.166688,0.0536 0.250031,0.11311 v -1.38113 z"
         style="font-style:normal;font-variant:normal;font-weight:normal;font-stretch:normal;font-size:5.95312452px;font-family:'Ubuntu Mono';-inkscape-font-specification:'Ubuntu Mono';stroke-width:4.04602098px;fill:#4d4d4d;fill-opacity:1"
         id="path4406" />
      <path
         inkscape:connector-curvature="0"
         d="m 36.539906,178.34082 q 0.559594,0 0.863203,0.35123 0.303609,0.34529 0.303609,1.05371 v 0.17264 h -1.976437 q 0.02977,0.42862 0.279797,0.65484 0.255984,0.22027 0.714375,0.22027 0.261937,0 0.446484,-0.0417 0.184547,-0.0417 0.279797,-0.0893 l 0.06548,0.41672 q -0.0893,0.0476 -0.321468,0.1012 -0.232172,0.0536 -0.523875,0.0536 -0.357188,0 -0.631032,-0.10716 -0.26789,-0.11311 -0.446484,-0.30361 -0.178594,-0.1905 -0.267891,-0.45243 -0.0893,-0.2679 -0.0893,-0.57746 0,-0.36909 0.113109,-0.64294 0.113109,-0.27384 0.297656,-0.45243 0.184547,-0.1786 0.416719,-0.26789 0.232172,-0.0893 0.47625,-0.0893 z m 0.66675,1.17872 q 0,-0.35124 -0.184547,-0.55364 -0.184547,-0.20836 -0.488156,-0.20836 -0.172641,0 -0.315516,0.0655 -0.136922,0.0655 -0.238125,0.17264 -0.101203,0.10716 -0.160734,0.24408 -0.05953,0.13692 -0.07739,0.2798 h 1.464469 z"
         style="font-style:normal;font-variant:normal;font-weight:normal;font-stretch:normal;font-size:5.95312452px;font-family:'Ubuntu Mono';-inkscape-font-specification:'Ubuntu Mono';stroke-width:4.04602098px;fill:#4d4d4d;fill-opacity:1"
         id="path4408" />
      <path
         inkscape:connector-curvature="0"
         d="m 38.933062,181.16855 v -2.35148 h -0.583406 v -0.41077 h 0.583406 v -0.25003 q 0,-0.32147 0.0893,-0.52982 0.0893,-0.21432 0.232172,-0.34529 0.148828,-0.13096 0.339328,-0.18454 0.196453,-0.0536 0.410765,-0.0536 0.214313,0 0.428625,0.0476 0.220266,0.0476 0.410766,0.11311 l -0.0893,0.42268 q -0.130969,-0.0655 -0.327422,-0.11311 -0.196453,-0.0476 -0.398859,-0.0476 -0.125016,0 -0.238125,0.0357 -0.107156,0.0298 -0.1905,0.11311 -0.08334,0.0774 -0.130969,0.21431 -0.04762,0.13097 -0.04762,0.33338 v 0.24407 h 1.113234 v 0.41077 h -1.113234 v 2.35148 h -0.488156 z"
         style="font-style:normal;font-variant:normal;font-weight:normal;font-stretch:normal;font-size:5.95312452px;font-family:'Ubuntu Mono';-inkscape-font-specification:'Ubuntu Mono';stroke-width:4.04602098px;fill:#4d4d4d;fill-opacity:1"
         id="path4410" />
      <path
         inkscape:connector-curvature="0"
         d="m 46.01728,180.47799 q 0,-0.14883 -0.125015,-0.24408 -0.119063,-0.0953 -0.30361,-0.16668 -0.178594,-0.0714 -0.392906,-0.13693 -0.214313,-0.0714 -0.398859,-0.17264 -0.178594,-0.1012 -0.30361,-0.25003 -0.119062,-0.14883 -0.119062,-0.38695 0,-0.33338 0.26789,-0.55364 0.273844,-0.22622 0.851297,-0.22622 0.226219,0 0.464344,0.0357 0.244078,0.0298 0.416719,0.0833 l -0.0893,0.44053 q -0.04762,-0.0238 -0.130969,-0.0476 -0.08334,-0.0298 -0.1905,-0.0476 -0.107156,-0.0238 -0.232172,-0.0357 -0.119062,-0.0119 -0.232172,-0.0119 -0.642937,0 -0.642937,0.35123 0,0.12502 0.119062,0.21432 0.125016,0.0833 0.309563,0.15478 0.184547,0.0714 0.398859,0.14882 0.214313,0.0714 0.398859,0.1786 0.184547,0.10715 0.30361,0.26194 0.125015,0.14882 0.125015,0.381 0,0.37504 -0.291703,0.5834 -0.291703,0.20241 -0.922734,0.20241 -0.28575,0 -0.523875,-0.0476 -0.238125,-0.0476 -0.452437,-0.14287 l 0.09525,-0.44649 q 0.208359,0.0952 0.434578,0.16074 0.232172,0.0595 0.494109,0.0595 0.672703,0 0.672703,-0.33933 z"
         style="font-style:normal;font-variant:normal;font-weight:normal;font-stretch:normal;font-size:5.95312452px;font-family:'Ubuntu Mono';-inkscape-font-specification:'Ubuntu Mono';stroke-width:4.04602098px;fill:#4d4d4d;fill-opacity:1"
         id="path4412" />
      <path
         inkscape:connector-curvature="0"
         d="m 47.648436,179.79338 q 0,0.21431 0.04167,0.39886 0.04762,0.1786 0.136922,0.31552 0.0893,0.13097 0.226219,0.20836 0.142875,0.0774 0.339328,0.0774 0.172641,0 0.333375,-0.0655 0.160734,-0.0655 0.244078,-0.14287 v -1.74427 q -0.06548,-0.0238 -0.184547,-0.0417 -0.113109,-0.0179 -0.315515,-0.0179 -0.363141,0 -0.595313,0.26789 -0.226219,0.26194 -0.226219,0.74414 z m -0.506015,0 q 0,-0.33337 0.09525,-0.60126 0.09525,-0.26789 0.26789,-0.45244 0.172641,-0.1905 0.416719,-0.2917 0.250031,-0.10121 0.547688,-0.10121 0.321468,0 0.565547,0.0536 0.250031,0.0476 0.422671,0.0952 v 3.65522 h -0.494109 v -1.08942 q -0.0893,0.0595 -0.255984,0.11311 -0.166688,0.0595 -0.375047,0.0595 -0.279797,0 -0.500063,-0.10716 -0.220265,-0.10715 -0.375046,-0.29765 -0.148829,-0.1905 -0.232172,-0.45244 -0.08334,-0.26789 -0.08334,-0.58341 z"
         style="font-style:normal;font-variant:normal;font-weight:normal;font-stretch:normal;font-size:5.95312452px;font-family:'Ubuntu Mono';-inkscape-font-specification:'Ubuntu Mono';stroke-width:4.04602098px;fill:#4d4d4d;fill-opacity:1"
         id="path4414" />
      <path
         inkscape:connector-curvature="0"
         d="m 50.517842,181.16855 v -2.61342 q 0.607218,-0.20836 1.226343,-0.20836 0.1905,0 0.363141,0.0179 0.172641,0.0119 0.381,0.0595 l -0.0893,0.43458 q -0.1905,-0.0536 -0.339328,-0.0655 -0.142875,-0.0179 -0.315516,-0.0179 -0.36314,0 -0.738187,0.1012 v 2.29195 h -0.488156 z"
         style="font-style:normal;font-variant:normal;font-weight:normal;font-stretch:normal;font-size:5.95312452px;font-family:'Ubuntu Mono';-inkscape-font-specification:'Ubuntu Mono';stroke-width:4.04602098px;fill:#4d4d4d;fill-opacity:1"
         id="path4416" />
      <path
         inkscape:connector-curvature="0"
         d="m 55.14342,177.3526 q -0.553641,0.42863 -0.845344,0.98822 -0.291703,0.55959 -0.291703,1.22039 0,0.33338 0.06548,0.63103 0.07144,0.29766 0.20836,0.5715 0.142875,0.27385 0.357187,0.52983 0.220266,0.25598 0.517922,0.51197 l -0.267891,0.35719 q -0.684609,-0.50602 -1.023937,-1.17277 -0.333375,-0.6727 -0.333375,-1.41684 0,-0.73819 0.339328,-1.41089 0.339328,-0.67271 1.017984,-1.16682 l 0.261938,0.35719 h -0.006 z"
         style="font-style:normal;font-variant:normal;font-weight:normal;font-stretch:normal;font-size:5.95312452px;font-family:'Ubuntu Mono';-inkscape-font-specification:'Ubuntu Mono';stroke-width:4.04602098px;fill:#4d4d4d;fill-opacity:1"
         id="path4418" />
      <path
         inkscape:connector-curvature="0"
         d="m 58.09617,181.16855 q -0.05953,-0.11906 -0.148828,-0.26193 -0.08334,-0.14288 -0.184547,-0.29171 -0.101203,-0.15478 -0.214313,-0.30361 -0.107156,-0.14882 -0.214312,-0.27979 -0.107156,0.13692 -0.226219,0.28575 -0.119062,0.14883 -0.232172,0.30361 -0.107156,0.14882 -0.202406,0.2917 -0.09525,0.14287 -0.160734,0.25598 h -0.506016 q 0.196453,-0.35718 0.47625,-0.73223 0.28575,-0.381 0.559594,-0.72033 l -0.994172,-1.30969 h 0.553641 l 0.74414,0.96441 0.684609,-0.96441 h 0.523875 l -0.910828,1.27993 q 0.267891,0.35123 0.535782,0.73223 0.273843,0.381 0.464343,0.75009 z"
         style="font-style:normal;font-variant:normal;font-weight:normal;font-stretch:normal;font-size:5.95312452px;font-family:'Ubuntu Mono';-inkscape-font-specification:'Ubuntu Mono';stroke-width:4.04602098px;fill:#4d4d4d;fill-opacity:1"
         id="path4420" />
      <path
         inkscape:connector-curvature="0"
         d="m 59.495154,181.80554 q 0.553641,-0.42863 0.845344,-0.98822 0.297656,-0.55959 0.297656,-1.22039 0,-0.33338 -0.07144,-0.63103 -0.06548,-0.29766 -0.20836,-0.5715 -0.142875,-0.27385 -0.36314,-0.52983 -0.214313,-0.25598 -0.511969,-0.51197 l 0.267891,-0.35719 q 0.684609,0.50602 1.017984,1.17872 0.339328,0.66675 0.339328,1.41089 0,0.3691 -0.0893,0.72628 -0.08334,0.35719 -0.255984,0.69057 -0.166688,0.32742 -0.422672,0.61912 -0.250031,0.29766 -0.589359,0.54174 l -0.261938,-0.35719 h 0.006 z"
         style="font-style:normal;font-variant:normal;font-weight:normal;font-stretch:normal;font-size:5.95312452px;font-family:'Ubuntu Mono';-inkscape-font-specification:'Ubuntu Mono';stroke-width:4.04602098px;fill:#4d4d4d;fill-opacity:1"
         id="path4422" />
      <path
         inkscape:connector-curvature="0"
         d="m 44.564718,188.60996 v -2.61342 q 0.607218,-0.20836 1.226343,-0.20836 0.1905,0 0.363141,0.0179 0.172641,0.0119 0.381,0.0595 l -0.0893,0.43458 q -0.1905,-0.0536 -0.339328,-0.0655 -0.142875,-0.0179 -0.315516,-0.0179 -0.36314,0 -0.738187,0.10121 v 2.29195 h -0.488156 z"
         style="font-style:normal;font-variant:normal;font-weight:normal;font-stretch:normal;font-size:5.95312452px;font-family:'Ubuntu Mono';-inkscape-font-specification:'Ubuntu Mono';stroke-width:4.04602098px;fill:#4d4d4d;fill-opacity:1"
         id="path4424" />
      <path
         inkscape:connector-curvature="0"
         d="m 48.446155,185.78223 q 0.559594,0 0.863203,0.35123 0.30361,0.34528 0.30361,1.0537 v 0.17264 H 47.63653 q 0.02977,0.42863 0.279797,0.65485 0.255984,0.22026 0.714375,0.22026 0.261938,0 0.446484,-0.0417 0.184547,-0.0417 0.279797,-0.0893 l 0.06549,0.41672 q -0.0893,0.0476 -0.321469,0.10121 -0.232172,0.0536 -0.523875,0.0536 -0.357188,0 -0.631031,-0.10715 -0.267891,-0.11311 -0.446485,-0.30361 -0.178593,-0.1905 -0.26789,-0.45244 -0.0893,-0.26789 -0.0893,-0.57745 0,-0.3691 0.113109,-0.64294 0.11311,-0.27384 0.297656,-0.45244 0.184547,-0.17859 0.416719,-0.26789 0.232172,-0.0893 0.47625,-0.0893 z m 0.66675,1.17871 q 0,-0.35123 -0.184547,-0.55364 -0.184547,-0.20835 -0.488156,-0.20835 -0.172641,0 -0.315516,0.0655 -0.136921,0.0655 -0.238125,0.17264 -0.101203,0.10716 -0.160734,0.24408 -0.05953,0.13692 -0.07739,0.27979 h 1.464469 z"
         style="font-style:normal;font-variant:normal;font-weight:normal;font-stretch:normal;font-size:5.95312452px;font-family:'Ubuntu Mono';-inkscape-font-specification:'Ubuntu Mono';stroke-width:4.04602098px;fill:#4d4d4d;fill-opacity:1"
         id="path4426" />
      <path
         inkscape:connector-curvature="0"
         d="m 51.327467,185.84771 h 1.166812 v 0.41077 h -1.166812 v 1.28587 q 0,0.20836 0.02977,0.33933 0.02977,0.13097 0.09525,0.21431 0.07144,0.0774 0.178594,0.10716 0.107156,0.0298 0.261938,0.0298 0.214312,0 0.345281,-0.0357 0.130969,-0.0357 0.250031,-0.0952 l 0.07144,0.41672 q -0.08334,0.0357 -0.267891,0.0953 -0.178594,0.0595 -0.446484,0.0595 -0.309563,0 -0.506016,-0.0714 -0.196453,-0.0714 -0.309562,-0.21432 -0.107157,-0.14287 -0.148829,-0.35123 -0.04167,-0.21431 -0.04167,-0.49411 v -1.28587 h -0.583407 v -0.41077 h 0.583407 v -0.77391 l 0.488156,-0.0833 v 0.85725 z"
         style="font-style:normal;font-variant:normal;font-weight:normal;font-stretch:normal;font-size:5.95312452px;font-family:'Ubuntu Mono';-inkscape-font-specification:'Ubuntu Mono';stroke-width:4.04602098px;fill:#4d4d4d;fill-opacity:1"
         id="path4428" />
      <path
         inkscape:connector-curvature="0"
         d="m 55.41131,188.53257 q -0.160734,0.0417 -0.428625,0.0893 -0.261937,0.0476 -0.619125,0.0476 -0.315515,0 -0.523874,-0.0893 -0.20836,-0.0952 -0.339329,-0.26193 -0.130968,-0.17264 -0.184546,-0.40482 -0.05358,-0.23217 -0.05358,-0.51196 v -1.55377 h 0.488157 v 1.44661 q 0,0.51197 0.148828,0.72628 0.154781,0.21431 0.511968,0.21431 0.07739,0 0.154782,-0.006 0.08334,-0.006 0.154781,-0.0119 0.07144,-0.0119 0.125016,-0.0179 0.05358,-0.0119 0.07144,-0.0178 v -2.33363 h 0.494109 v 2.68486 z"
         style="font-style:normal;font-variant:normal;font-weight:normal;font-stretch:normal;font-size:5.95312452px;font-family:'Ubuntu Mono';-inkscape-font-specification:'Ubuntu Mono';stroke-width:4.04602098px;fill:#4d4d4d;fill-opacity:1"
         id="path4430" />
      <path
         inkscape:connector-curvature="0"
         d="m 56.470967,188.60996 v -2.61342 q 0.607218,-0.20836 1.226343,-0.20836 0.1905,0 0.363141,0.0179 0.172641,0.0119 0.381,0.0595 l -0.0893,0.43458 q -0.1905,-0.0536 -0.339328,-0.0655 -0.142875,-0.0179 -0.315516,-0.0179 -0.36314,0 -0.738187,0.10121 v 2.29195 h -0.488156 z"
         style="font-style:normal;font-variant:normal;font-weight:normal;font-stretch:normal;font-size:5.95312452px;font-family:'Ubuntu Mono';-inkscape-font-specification:'Ubuntu Mono';stroke-width:4.04602098px;fill:#4d4d4d;fill-opacity:1"
         id="path4432" />
      <path
         inkscape:connector-curvature="0"
         d="m 59.233217,185.9251 q 0.26789,-0.0655 0.529828,-0.1012 0.26789,-0.0357 0.500062,-0.0357 0.553641,0 0.833438,0.28575 0.28575,0.28575 0.28575,0.91678 v 1.61925 h -0.488156 v -1.52995 q 0,-0.26789 -0.04763,-0.43458 -0.04762,-0.16669 -0.136922,-0.25599 -0.08334,-0.0952 -0.20836,-0.13096 -0.119062,-0.0357 -0.261937,-0.0357 -0.119063,0 -0.255985,0.0179 -0.130968,0.0119 -0.255984,0.0357 v 2.33362 h -0.494109 v -2.68486 z"
         style="font-style:normal;font-variant:normal;font-weight:normal;font-stretch:normal;font-size:5.95312452px;font-family:'Ubuntu Mono';-inkscape-font-specification:'Ubuntu Mono';stroke-width:4.04602098px;fill:#4d4d4d;fill-opacity:1"
         id="path4434" />
      <path
         inkscape:connector-curvature="0"
         d="m 67.025855,188.60996 q -0.05953,-0.11906 -0.148828,-0.26194 -0.08334,-0.14287 -0.184547,-0.2917 -0.101203,-0.15478 -0.214312,-0.30361 -0.107156,-0.14883 -0.214313,-0.2798 -0.107156,0.13693 -0.226218,0.28575 -0.119063,0.14883 -0.232172,0.30361 -0.107156,0.14883 -0.202406,0.29171 -0.09525,0.14287 -0.160735,0.25598 h -0.506015 q 0.196453,-0.35719 0.47625,-0.73223 0.28575,-0.381 0.559593,-0.72033 l -0.994171,-1.30969 h 0.55364 l 0.744141,0.96441 0.684609,-0.96441 h 0.523875 l -0.910828,1.27992 q 0.267891,0.35124 0.535781,0.73224 0.273844,0.381 0.464344,0.75009 z"
         style="font-style:normal;font-variant:normal;font-weight:normal;font-stretch:normal;font-size:5.95312452px;font-family:'Ubuntu Mono';-inkscape-font-specification:'Ubuntu Mono';stroke-width:4.04602098px;fill:#4d4d4d;fill-opacity:1"
         id="path4436" />
      <path
         inkscape:connector-curvature="0"
         d="m 69.448777,186.12751 q 0.160735,0.14883 0.333375,0.31551 0.172641,0.16074 0.291703,0.34528 l 0.02381,0.0298 -0.416719,0.30361 -0.02976,-0.0357 q -0.125016,-0.17859 -0.226219,-0.38695 -0.101203,-0.21432 -0.1905,-0.41077 -0.09525,0.19645 -0.196453,0.41077 -0.101203,0.20836 -0.238125,0.38695 l -0.02977,0.0298 -0.410765,-0.29766 0.02976,-0.0357 q 0.130969,-0.18455 0.297656,-0.34528 0.166688,-0.16073 0.327422,-0.30956 -0.220265,-0.0298 -0.452437,-0.0595 -0.232172,-0.0357 -0.440531,-0.10716 l -0.04167,-0.0119 0.160734,-0.48815 0.04167,0.0179 q 0.208359,0.0833 0.416719,0.18454 0.214312,0.10121 0.404812,0.20836 -0.04763,-0.21431 -0.0893,-0.44648 -0.03572,-0.23217 -0.03572,-0.45839 v -0.0417 h 0.511969 v 0.0417 q 0,0.22622 -0.04167,0.45839 -0.03572,0.23217 -0.08334,0.44648 0.1905,-0.11311 0.398859,-0.20836 0.208359,-0.1012 0.416719,-0.17859 l 0.04167,-0.0179 0.154782,0.48816 -0.03572,0.0119 q -0.214313,0.0655 -0.446484,0.10121 -0.226219,0.0357 -0.446485,0.0595 z"
         style="font-style:normal;font-variant:normal;font-weight:normal;font-stretch:normal;font-size:5.95312452px;font-family:'Ubuntu Mono';-inkscape-font-specification:'Ubuntu Mono';stroke-width:4.04602098px;fill:#4d4d4d;fill-opacity:1"
         id="path4438" />
      <path
         inkscape:connector-curvature="0"
         d="m 72.97898,188.60996 q -0.05953,-0.11906 -0.148828,-0.26194 -0.08334,-0.14287 -0.184547,-0.2917 -0.101203,-0.15478 -0.214312,-0.30361 -0.107156,-0.14883 -0.214313,-0.2798 -0.107156,0.13693 -0.226218,0.28575 -0.119063,0.14883 -0.232172,0.30361 -0.107156,0.14883 -0.202406,0.29171 -0.09525,0.14287 -0.160735,0.25598 h -0.506015 q 0.196453,-0.35719 0.47625,-0.73223 0.28575,-0.381 0.559593,-0.72033 l -0.994171,-1.30969 h 0.55364 l 0.744141,0.96441 0.684609,-0.96441 h 0.523875 l -0.910828,1.27992 q 0.267891,0.35124 0.535781,0.73224 0.273844,0.381 0.464344,0.75009 z"
         style="font-style:normal;font-variant:normal;font-weight:normal;font-stretch:normal;font-size:5.95312452px;font-family:'Ubuntu Mono';-inkscape-font-specification:'Ubuntu Mono';stroke-width:4.04602098px;fill:#4d4d4d;fill-opacity:1"
         id="path4440" />
      <path
         inkscape:connector-curvature="0"
         d="m 33.563344,193.22363 q 0.559593,0 0.863203,0.35124 0.303609,0.34528 0.303609,1.0537 v 0.17264 h -1.976437 q 0.02977,0.42863 0.279797,0.65484 0.255984,0.22027 0.714374,0.22027 0.261938,0 0.446485,-0.0417 0.184547,-0.0417 0.279797,-0.0893 l 0.06548,0.41672 q -0.0893,0.0476 -0.321469,0.1012 -0.232172,0.0536 -0.523875,0.0536 -0.357187,0 -0.631031,-0.10716 -0.26789,-0.1131 -0.446484,-0.3036 -0.178594,-0.1905 -0.267891,-0.45244 -0.0893,-0.26789 -0.0893,-0.57746 0,-0.36909 0.11311,-0.64293 0.113109,-0.27385 0.297656,-0.45244 0.184547,-0.17859 0.416719,-0.26789 0.232172,-0.0893 0.47625,-0.0893 z m 0.66675,1.17872 q 0,-0.35123 -0.184547,-0.55364 -0.184547,-0.20836 -0.488156,-0.20836 -0.172641,0 -0.315516,0.0655 -0.136922,0.0655 -0.238125,0.17264 -0.101203,0.10715 -0.160734,0.24407 -0.05953,0.13693 -0.07739,0.2798 h 1.464469 z"
         style="font-style:normal;font-variant:normal;font-weight:normal;font-stretch:normal;font-size:5.95312452px;font-family:'Ubuntu Mono';-inkscape-font-specification:'Ubuntu Mono';stroke-width:4.04602098px;fill:#4d4d4d;fill-opacity:1"
         id="path4442" />
      <path
         inkscape:connector-curvature="0"
         d="m 35.420718,193.36651 q 0.267891,-0.0655 0.529829,-0.10121 0.26789,-0.0357 0.500062,-0.0357 0.553641,0 0.833437,0.28575 0.28575,0.28575 0.28575,0.91678 v 1.61925 H 37.08164 v -1.52996 q 0,-0.26789 -0.04763,-0.43457 -0.04762,-0.16669 -0.136922,-0.25599 -0.08334,-0.0952 -0.208359,-0.13097 -0.119062,-0.0357 -0.261937,-0.0357 -0.119063,0 -0.255985,0.0179 -0.130969,0.0119 -0.255984,0.0357 v 2.33363 h -0.49411 v -2.68486 z"
         style="font-style:normal;font-variant:normal;font-weight:normal;font-stretch:normal;font-size:5.95312452px;font-family:'Ubuntu Mono';-inkscape-font-specification:'Ubuntu Mono';stroke-width:4.04602098px;fill:#4d4d4d;fill-opacity:1"
         id="path4444" />
      <path
         inkscape:connector-curvature="0"
         d="m 40.03439,193.87252 q -0.08334,-0.0774 -0.244078,-0.14287 -0.160734,-0.0714 -0.333375,-0.0714 -0.196453,0 -0.339328,0.0774 -0.136922,0.0774 -0.226219,0.21431 -0.0893,0.13097 -0.130969,0.32147 -0.04167,0.18455 -0.04167,0.39886 0,0.4822 0.226219,0.74414 0.226219,0.26194 0.58936,0.26194 0.184546,0 0.309562,-0.0179 0.130969,-0.0179 0.1905,-0.0357 v -1.75022 z m 0,-1.86332 0.494109,-0.0833 v 4.04813 q -0.160734,0.0476 -0.410765,0.0952 -0.250032,0.0476 -0.583406,0.0476 -0.297657,0 -0.541735,-0.1012 -0.244078,-0.10121 -0.416719,-0.28575 -0.17264,-0.1905 -0.26789,-0.45839 -0.09525,-0.26789 -0.09525,-0.60127 0,-0.32147 0.07739,-0.5834 0.08334,-0.2679 0.238125,-0.45839 0.154782,-0.1905 0.369094,-0.29766 0.220266,-0.10716 0.500063,-0.10716 0.220265,0 0.386953,0.0536 0.166687,0.0536 0.250031,0.11311 z"
         style="font-style:normal;font-variant:normal;font-weight:normal;font-stretch:normal;font-size:5.95312452px;font-family:'Ubuntu Mono';-inkscape-font-specification:'Ubuntu Mono';stroke-width:4.04602098px;fill:#4d4d4d;fill-opacity:1"
         id="path4446" />
      <path
         inkscape:connector-curvature="0"
         d="m 34.307484,207.11823 q -0.55364,0.42862 -0.845343,0.98822 -0.291704,0.55959 -0.291704,1.22039 0,0.33337 0.06549,0.63103 0.07144,0.29765 0.208359,0.5715 0.142875,0.27384 0.357188,0.52982 0.220265,0.25599 0.517921,0.51197 l -0.26789,0.35719 q -0.684609,-0.50601 -1.023938,-1.17276 -0.333375,-0.67271 -0.333375,-1.41685 0,-0.73819 0.339329,-1.41089 0.339328,-0.6727 1.017984,-1.16681 l 0.261937,0.35719 h -0.006 z"
         style="font-style:normal;font-variant:normal;font-weight:normal;font-stretch:normal;font-size:5.95312452px;font-family:'Ubuntu Mono';-inkscape-font-specification:'Ubuntu Mono';stroke-width:4.04602098px;fill:#4d4d4d;fill-opacity:1"
         id="path4448" />
      <path
         inkscape:connector-curvature="0"
         d="m 35.635031,210.93418 v -2.61342 q 0.607219,-0.20836 1.226344,-0.20836 0.1905,0 0.36314,0.0179 0.172641,0.0119 0.381,0.0595 l -0.0893,0.43458 q -0.1905,-0.0536 -0.339328,-0.0655 -0.142875,-0.0179 -0.315515,-0.0179 -0.363141,0 -0.738188,0.10121 v 2.29195 h -0.488156 z"
         style="font-style:normal;font-variant:normal;font-weight:normal;font-stretch:normal;font-size:5.95312452px;font-family:'Ubuntu Mono';-inkscape-font-specification:'Ubuntu Mono';stroke-width:4.04602098px;fill:#4d4d4d;fill-opacity:1"
         id="path4450" />
      <path
         inkscape:connector-curvature="0"
         d="m 39.492656,210.58294 q 0.184547,0 0.327422,-0.0119 0.148828,-0.0119 0.244078,-0.0298 v -0.82153 q -0.09525,-0.0298 -0.232172,-0.0476 -0.130969,-0.0179 -0.279797,-0.0179 -0.136922,0 -0.267891,0.0238 -0.130968,0.0179 -0.232172,0.0714 -0.101203,0.0536 -0.166687,0.14287 -0.06548,0.0833 -0.06548,0.21431 0,0.2679 0.178593,0.37505 0.184547,0.1012 0.49411,0.1012 z m -0.04762,-2.47649 q 0.309562,0 0.517921,0.0774 0.214313,0.0774 0.345282,0.21431 0.130968,0.13692 0.184547,0.33337 0.05358,0.19646 0.05358,0.42863 v 1.7264 q -0.172641,0.0298 -0.458391,0.0714 -0.279797,0.0417 -0.577453,0.0417 -0.226219,0 -0.440531,-0.0417 -0.214313,-0.0357 -0.381,-0.13097 -0.166688,-0.1012 -0.267891,-0.27384 -0.101203,-0.17264 -0.101203,-0.44053 0,-0.23813 0.101203,-0.39886 0.107156,-0.16669 0.267891,-0.26789 0.166687,-0.10121 0.375047,-0.14288 0.214312,-0.0476 0.428625,-0.0476 0.291703,0 0.5715,0.0655 v -0.13692 q 0,-0.12502 -0.02977,-0.23812 -0.02381,-0.11907 -0.101203,-0.21432 -0.07144,-0.0952 -0.202406,-0.14882 -0.125016,-0.0595 -0.327422,-0.0595 -0.255985,0 -0.446485,0.0357 -0.1905,0.0357 -0.291703,0.0714 l -0.05953,-0.40481 q 0.101203,-0.0476 0.333375,-0.0834 0.238125,-0.0357 0.506016,-0.0357 z"
         style="font-style:normal;font-variant:normal;font-weight:normal;font-stretch:normal;font-size:5.95312452px;font-family:'Ubuntu Mono';-inkscape-font-specification:'Ubuntu Mono';stroke-width:4.04602098px;fill:#4d4d4d;fill-opacity:1"
         id="path4452" />
      <path
         inkscape:connector-curvature="0"
         d="m 41.373843,208.24932 q 0.26789,-0.0655 0.529828,-0.1012 0.26789,-0.0357 0.500062,-0.0357 0.553641,0 0.833438,0.28575 0.28575,0.28575 0.28575,0.91678 v 1.61925 h -0.488156 v -1.52995 q 0,-0.26789 -0.04763,-0.43458 -0.04762,-0.16669 -0.136922,-0.25599 -0.08334,-0.0952 -0.20836,-0.13096 -0.119062,-0.0357 -0.261937,-0.0357 -0.119063,0 -0.255985,0.0179 -0.130968,0.0119 -0.255984,0.0357 v 2.33363 h -0.494109 v -2.68486 z"
         style="font-style:normal;font-variant:normal;font-weight:normal;font-stretch:normal;font-size:5.95312452px;font-family:'Ubuntu Mono';-inkscape-font-specification:'Ubuntu Mono';stroke-width:4.04602098px;fill:#4d4d4d;fill-opacity:1"
         id="path4454" />
      <path
         inkscape:connector-curvature="0"
         d="m 45.987515,208.75534 q -0.08334,-0.0774 -0.244079,-0.14288 -0.160734,-0.0714 -0.333375,-0.0714 -0.196453,0 -0.339328,0.0774 -0.136922,0.0774 -0.226218,0.21432 -0.0893,0.13096 -0.130969,0.32146 -0.04167,0.18455 -0.04167,0.39886 0,0.48221 0.226219,0.74414 0.226218,0.26194 0.589359,0.26194 0.184547,0 0.309563,-0.0179 0.130968,-0.0179 0.1905,-0.0357 v -1.75021 z m 0,-1.86333 0.494109,-0.0833 v 4.04813 q -0.160735,0.0476 -0.410766,0.0953 -0.250031,0.0476 -0.583406,0.0476 -0.297656,0 -0.541734,-0.1012 -0.244078,-0.1012 -0.416719,-0.28575 -0.172641,-0.1905 -0.267891,-0.45839 -0.09525,-0.26789 -0.09525,-0.60127 0,-0.32146 0.07739,-0.5834 0.08334,-0.26789 0.238125,-0.45839 0.154781,-0.1905 0.369094,-0.29766 0.220265,-0.10715 0.500062,-0.10715 0.220266,0 0.386953,0.0536 0.166688,0.0536 0.250032,0.11311 v -1.38112 z"
         style="font-style:normal;font-variant:normal;font-weight:normal;font-stretch:normal;font-size:5.95312452px;font-family:'Ubuntu Mono';-inkscape-font-specification:'Ubuntu Mono';stroke-width:4.04602098px;fill:#4d4d4d;fill-opacity:1"
         id="path4456" />
      <path
         inkscape:connector-curvature="0"
         d="m 49.190296,207.11823 q -0.553641,0.42862 -0.845344,0.98822 -0.291703,0.55959 -0.291703,1.22039 0,0.33337 0.06548,0.63103 0.07144,0.29765 0.20836,0.5715 0.142875,0.27384 0.357187,0.52982 0.220266,0.25599 0.517922,0.51197 l -0.267891,0.35719 q -0.684609,-0.50601 -1.023937,-1.17276 -0.333375,-0.67271 -0.333375,-1.41685 0,-0.73819 0.339328,-1.41089 0.339328,-0.6727 1.017984,-1.16681 l 0.261938,0.35719 h -0.006 z"
         style="font-style:normal;font-variant:normal;font-weight:normal;font-stretch:normal;font-size:5.95312452px;font-family:'Ubuntu Mono';-inkscape-font-specification:'Ubuntu Mono';stroke-width:4.04602098px;fill:#4d4d4d;fill-opacity:1"
         id="path4458" />
      <path
         inkscape:connector-curvature="0"
         d="m 50.09517,209.66021 q 0.101203,-0.23812 0.273844,-0.54769 0.178593,-0.30956 0.398859,-0.63698 0.220266,-0.33338 0.470297,-0.64889 0.250031,-0.32147 0.506015,-0.57745 h 0.47625 v 2.33957 h 0.434578 v 0.40482 h -0.434578 v 0.94059 h -0.47625 v -0.94059 H 50.09517 Z m 1.649015,-1.82761 q -0.160734,0.17264 -0.327421,0.381 -0.160735,0.20836 -0.315516,0.44053 -0.154781,0.22622 -0.291703,0.46435 -0.130969,0.23812 -0.238125,0.47029 h 1.172765 z"
         style="font-style:normal;font-variant:normal;font-weight:normal;font-stretch:normal;font-size:5.95312452px;font-family:'Ubuntu Mono';-inkscape-font-specification:'Ubuntu Mono';stroke-width:4.04602098px;fill:#4d4d4d;fill-opacity:1"
         id="path4460" />
      <path
         inkscape:connector-curvature="0"
         d="m 53.542029,211.57116 q 0.553641,-0.42862 0.845344,-0.98822 0.297656,-0.55959 0.297656,-1.22039 0,-0.33337 -0.07144,-0.63103 -0.06548,-0.29765 -0.20836,-0.5715 -0.142875,-0.27384 -0.36314,-0.52982 -0.214313,-0.25599 -0.511969,-0.51197 l 0.267891,-0.35719 q 0.684609,0.50601 1.017984,1.17872 0.339328,0.66675 0.339328,1.41089 0,0.36909 -0.0893,0.72628 -0.08334,0.35719 -0.255984,0.69056 -0.166688,0.32742 -0.422672,0.61913 -0.250031,0.29765 -0.589359,0.54173 l -0.261938,-0.35719 h 0.006 z"
         style="font-style:normal;font-variant:normal;font-weight:normal;font-stretch:normal;font-size:5.95312452px;font-family:'Ubuntu Mono';-inkscape-font-specification:'Ubuntu Mono';stroke-width:4.04602098px;fill:#4d4d4d;fill-opacity:1"
         id="path4462" />
      <path
         inkscape:connector-curvature="0"
         d="m 59.084389,209.16015 h 1.000125 v -1.09538 h 0.428625 v 1.09538 h 1.006078 v 0.41672 h -1.006078 v 1.10132 h -0.428625 v -1.10132 h -1.000125 z"
         style="font-style:normal;font-variant:normal;font-weight:normal;font-stretch:normal;font-size:5.95312452px;font-family:'Ubuntu Mono';-inkscape-font-specification:'Ubuntu Mono';stroke-width:4.04602098px;fill:#4d4d4d;fill-opacity:1"
         id="path4464" />
      <path
         inkscape:connector-curvature="0"
         d="m 67.26398,208.18979 q 0,0.1905 -0.07739,0.36909 -0.07144,0.1786 -0.196453,0.35124 -0.119063,0.17264 -0.273844,0.33932 -0.154781,0.16669 -0.315516,0.32743 -0.0893,0.0893 -0.208359,0.21431 -0.119063,0.12501 -0.226219,0.25598 -0.107156,0.13097 -0.178594,0.25599 -0.07144,0.12501 -0.07144,0.21431 h 1.69664 v 0.41672 h -2.232421 q -0.006,-0.0298 -0.006,-0.0595 0,-0.0357 0,-0.0655 0,-0.25003 0.08334,-0.46434 0.08334,-0.21431 0.214313,-0.40481 0.130969,-0.1905 0.291703,-0.35719 0.166687,-0.17264 0.327422,-0.33338 0.130969,-0.13096 0.250031,-0.25598 0.125016,-0.12502 0.214313,-0.25003 0.09525,-0.12502 0.148828,-0.25598 0.05953,-0.13693 0.05953,-0.2798 0,-0.16074 -0.05358,-0.27385 -0.04762,-0.1131 -0.136922,-0.18454 -0.08334,-0.0774 -0.196453,-0.11311 -0.11311,-0.0357 -0.244078,-0.0357 -0.154782,0 -0.28575,0.0417 -0.125016,0.0417 -0.226219,0.1012 -0.09525,0.0595 -0.166687,0.11907 -0.07144,0.0536 -0.107157,0.0893 l -0.244078,-0.34528 q 0.04762,-0.0536 0.142875,-0.13097 0.09525,-0.0774 0.226219,-0.14287 0.136922,-0.0714 0.303609,-0.11906 0.166688,-0.0476 0.357188,-0.0476 0.577453,0 0.851297,0.26789 0.279796,0.26194 0.279796,0.75605 z"
         style="font-style:normal;font-variant:normal;font-weight:normal;font-stretch:normal;font-size:5.95312452px;font-family:'Ubuntu Mono';-inkscape-font-specification:'Ubuntu Mono';stroke-width:4.04602098px;fill:#4d4d4d;fill-opacity:1"
         id="path4466" />
      <path
         inkscape:connector-curvature="0"
         d="m 68.42484,211.57116 q 0.55364,-0.42862 0.845344,-0.98822 0.297656,-0.55959 0.297656,-1.22039 0,-0.33337 -0.07144,-0.63103 -0.06548,-0.29765 -0.208359,-0.5715 -0.142875,-0.27384 -0.363141,-0.52982 -0.214312,-0.25599 -0.511968,-0.51197 l 0.26789,-0.35719 q 0.68461,0.50601 1.017985,1.17872 0.339328,0.66675 0.339328,1.41089 0,0.36909 -0.0893,0.72628 -0.08334,0.35719 -0.255985,0.69056 -0.166687,0.32742 -0.422671,0.61913 -0.250032,0.29765 -0.58936,0.54173 l -0.261937,-0.35719 h 0.006 z"
         style="font-style:normal;font-variant:normal;font-weight:normal;font-stretch:normal;font-size:5.95312452px;font-family:'Ubuntu Mono';-inkscape-font-specification:'Ubuntu Mono';stroke-width:4.04602098px;fill:#4d4d4d;fill-opacity:1"
         id="path4468" />
      <path
         inkscape:connector-curvature="0"
         d="m 72.645605,210.55318 q 0,0.17859 -0.119062,0.31551 -0.119063,0.13693 -0.315516,0.13693 -0.202406,0 -0.321468,-0.13693 -0.119063,-0.13692 -0.119063,-0.31551 0,-0.18455 0.119063,-0.32147 0.119062,-0.13692 0.321468,-0.13692 0.196453,0 0.315516,0.13692 0.119062,0.13692 0.119062,0.32147 z"
         style="font-style:normal;font-variant:normal;font-weight:normal;font-stretch:normal;font-size:5.95312452px;font-family:'Ubuntu Mono';-inkscape-font-specification:'Ubuntu Mono';stroke-width:4.04602098px;fill:#4d4d4d;fill-opacity:1"
         id="path4470" />
      <path
         inkscape:connector-curvature="0"
         d="m 75.139965,208.17193 h 1.166812 v 0.41077 h -1.166812 v 1.28587 q 0,0.20836 0.02976,0.33933 0.02977,0.13097 0.09525,0.21431 0.07144,0.0774 0.178594,0.10716 0.107156,0.0298 0.261938,0.0298 0.214312,0 0.345281,-0.0357 0.130969,-0.0357 0.250031,-0.0953 l 0.07144,0.41672 q -0.08334,0.0357 -0.267891,0.0953 -0.178594,0.0595 -0.446484,0.0595 -0.309563,0 -0.506016,-0.0714 -0.196453,-0.0714 -0.309562,-0.21432 -0.107157,-0.14287 -0.148829,-0.35123 -0.04167,-0.21431 -0.04167,-0.49411 v -1.28587 H 74.0684 v -0.41077 h 0.583407 v -0.77391 l 0.488156,-0.0833 v 0.85725 z"
         style="font-style:normal;font-variant:normal;font-weight:normal;font-stretch:normal;font-size:5.95312452px;font-family:'Ubuntu Mono';-inkscape-font-specification:'Ubuntu Mono';stroke-width:4.04602098px;fill:#4d4d4d;fill-opacity:1"
         id="path4472" />
      <path
         inkscape:connector-curvature="0"
         d="m 77.914121,207.7433 q -0.154781,0 -0.267891,-0.10715 -0.113109,-0.10716 -0.113109,-0.2917 0,-0.18455 0.113109,-0.29171 0.11311,-0.10715 0.267891,-0.10715 0.160734,0 0.267891,0.10715 0.113109,0.10716 0.113109,0.29171 0,0.18454 -0.113109,0.2917 -0.107157,0.10715 -0.267891,0.10715 z m -0.125016,0.8394 h -0.797718 v -0.41077 h 1.285875 v 1.69664 q 0,0.41077 0.113109,0.55364 0.113109,0.13692 0.339328,0.13692 0.172641,0 0.315516,-0.0417 0.148828,-0.0417 0.232172,-0.0893 l 0.07144,0.41672 q -0.03572,0.0179 -0.101203,0.0476 -0.06548,0.0238 -0.154781,0.0476 -0.08334,0.0238 -0.1905,0.0417 -0.101203,0.0179 -0.214313,0.0179 -0.261937,0 -0.434578,-0.0714 -0.17264,-0.0714 -0.279797,-0.21432 -0.101203,-0.14287 -0.142875,-0.35123 -0.04167,-0.21431 -0.04167,-0.49411 v -1.28587 z"
         style="font-style:normal;font-variant:normal;font-weight:normal;font-stretch:normal;font-size:5.95312452px;font-family:'Ubuntu Mono';-inkscape-font-specification:'Ubuntu Mono';stroke-width:4.04602098px;fill:#4d4d4d;fill-opacity:1"
         id="path4474" />
      <path
         inkscape:connector-curvature="0"
         d="m 79.890559,208.24932 q 0.357187,-0.13692 0.672703,-0.13692 0.17264,0 0.321468,0.0536 0.154782,0.0476 0.261938,0.15478 0.255984,-0.20836 0.547687,-0.20836 0.142875,0 0.267891,0.0536 0.130969,0.0536 0.226219,0.16073 0.101203,0.10716 0.160734,0.26789 0.05953,0.16074 0.05953,0.37505 v 1.96453 h -0.446484 v -1.97644 q 0,-0.21431 -0.09525,-0.32742 -0.09525,-0.11311 -0.238125,-0.11311 -0.07144,0 -0.148828,0.0357 -0.07739,0.0357 -0.142875,0.11311 0.03572,0.13692 0.03572,0.30361 v 0.89892 h -0.446485 v -0.90488 q 0,-0.20835 -0.06548,-0.32742 -0.06548,-0.11906 -0.255984,-0.11906 -0.119063,0 -0.267891,0.0536 v 2.36339 h -0.446484 v -2.68486 z"
         style="font-style:normal;font-variant:normal;font-weight:normal;font-stretch:normal;font-size:5.95312452px;font-family:'Ubuntu Mono';-inkscape-font-specification:'Ubuntu Mono';stroke-width:4.04602098px;fill:#4d4d4d;fill-opacity:1"
         id="path4476" />
      <path
         inkscape:connector-curvature="0"
         d="m 84.164902,208.10645 q 0.559594,0 0.863203,0.35123 0.30361,0.34528 0.30361,1.0537 v 0.17264 h -1.976438 q 0.02977,0.42863 0.279797,0.65485 0.255985,0.22026 0.714375,0.22026 0.261938,0 0.446485,-0.0417 0.184546,-0.0417 0.279796,-0.0893 l 0.06549,0.41672 q -0.0893,0.0476 -0.321469,0.10121 -0.232172,0.0536 -0.523875,0.0536 -0.357187,0 -0.631031,-0.10715 -0.267891,-0.11311 -0.446484,-0.30361 -0.178594,-0.1905 -0.267891,-0.45244 -0.0893,-0.26789 -0.0893,-0.57745 0,-0.3691 0.113109,-0.64294 0.11311,-0.27384 0.297657,-0.45244 0.184546,-0.17859 0.416718,-0.26789 0.232172,-0.0893 0.47625,-0.0893 z m 0.66675,1.17871 q 0,-0.35123 -0.184547,-0.55364 -0.184546,-0.20836 -0.488156,-0.20836 -0.17264,0 -0.315515,0.0655 -0.136922,0.0655 -0.238125,0.17264 -0.101204,0.10715 -0.160735,0.24408 -0.05953,0.13692 -0.07739,0.27979 h 1.464468 z"
         style="font-style:normal;font-variant:normal;font-weight:normal;font-stretch:normal;font-size:5.95312452px;font-family:'Ubuntu Mono';-inkscape-font-specification:'Ubuntu Mono';stroke-width:4.04602098px;fill:#4d4d4d;fill-opacity:1"
         id="path4478" />
      <path
         inkscape:connector-curvature="0"
         d="m 87.689152,210.24362 q 0,-0.14883 -0.125015,-0.24408 -0.119063,-0.0952 -0.30361,-0.16669 -0.178593,-0.0714 -0.392906,-0.13692 -0.214312,-0.0714 -0.398859,-0.17264 -0.178594,-0.1012 -0.30361,-0.25003 -0.119062,-0.14883 -0.119062,-0.38696 0,-0.33337 0.267891,-0.55364 0.273843,-0.22621 0.851296,-0.22621 0.226219,0 0.464344,0.0357 0.244078,0.0298 0.416719,0.0834 l -0.0893,0.44053 q -0.04762,-0.0238 -0.130969,-0.0476 -0.08334,-0.0298 -0.1905,-0.0476 -0.107156,-0.0238 -0.232172,-0.0357 -0.119062,-0.0119 -0.232172,-0.0119 -0.642937,0 -0.642937,0.35124 0,0.12501 0.119062,0.21431 0.125016,0.0833 0.309563,0.15478 0.184547,0.0714 0.398859,0.14883 0.214313,0.0714 0.39886,0.17859 0.184546,0.10716 0.303609,0.26194 0.125016,0.14883 0.125016,0.381 0,0.37505 -0.291703,0.58341 -0.291704,0.2024 -0.922735,0.2024 -0.28575,0 -0.523875,-0.0476 -0.238125,-0.0476 -0.452437,-0.14288 l 0.09525,-0.44648 q 0.208359,0.0952 0.434578,0.16073 0.232172,0.0595 0.494109,0.0595 0.672703,0 0.672703,-0.33932 z"
         style="font-style:normal;font-variant:normal;font-weight:normal;font-stretch:normal;font-size:5.95312452px;font-family:'Ubuntu Mono';-inkscape-font-specification:'Ubuntu Mono';stroke-width:4.04602098px;fill:#4d4d4d;fill-opacity:1"
         id="path4480" />
      <path
         inkscape:connector-curvature="0"
         d="m 92.023027,209.15419 h 0.238125 q 0.101203,0 0.178594,-0.0417 0.07739,-0.0476 0.125016,-0.11906 0.05358,-0.0774 0.07739,-0.16669 0.02977,-0.0953 0.02977,-0.1905 v -0.95845 q 0,-0.22027 0.04167,-0.38695 0.04763,-0.16669 0.154781,-0.2798 0.107156,-0.11906 0.28575,-0.17859 0.184547,-0.0595 0.458391,-0.0595 h 0.482203 v 0.38695 h -0.506016 q -0.250031,0 -0.357187,0.11311 -0.101203,0.11311 -0.101203,0.41076 v 0.82153 q 0,0.39886 -0.119063,0.58936 -0.119062,0.18455 -0.273844,0.25003 0.154782,0.0714 0.273844,0.2679 0.119063,0.19645 0.119063,0.5715 v 0.82153 q 0,0.29765 0.107156,0.41076 0.107156,0.11311 0.357187,0.11311 h 0.500063 v 0.38695 h -0.482203 q -0.273844,0 -0.458391,-0.0595 -0.178594,-0.0595 -0.28575,-0.17859 -0.107156,-0.11311 -0.154781,-0.2798 -0.04167,-0.16668 -0.04167,-0.38695 v -0.95845 q 0,-0.0893 -0.02977,-0.1786 -0.02381,-0.0952 -0.07739,-0.16668 -0.04762,-0.0774 -0.125016,-0.12502 -0.07144,-0.0476 -0.17264,-0.0476 h -0.244079 v -0.381 z"
         style="font-style:normal;font-variant:normal;font-weight:normal;font-stretch:normal;font-size:5.95312452px;font-family:'Ubuntu Mono';-inkscape-font-specification:'Ubuntu Mono';stroke-width:4.04602098px;fill:#4d4d4d;fill-opacity:1"
         id="path4482" />
      <path
         inkscape:connector-curvature="0"
         d="m 45.44578,218.02435 q 0.184547,0 0.327422,-0.0119 0.148828,-0.0119 0.244078,-0.0298 v -0.82153 q -0.09525,-0.0298 -0.232172,-0.0476 -0.130968,-0.0179 -0.279797,-0.0179 -0.136921,0 -0.26789,0.0238 -0.130969,0.0179 -0.232172,0.0714 -0.101203,0.0536 -0.166688,0.14288 -0.06548,0.0833 -0.06548,0.21431 0,0.26789 0.178594,0.37505 0.184547,0.1012 0.494109,0.1012 z m -0.04762,-2.4765 q 0.309563,0 0.517922,0.0774 0.214312,0.0774 0.345281,0.21431 0.130969,0.13693 0.184547,0.33338 0.05358,0.19645 0.05358,0.42862 v 1.72641 q -0.17264,0.0298 -0.45839,0.0714 -0.279797,0.0417 -0.577453,0.0417 -0.226219,0 -0.440532,-0.0417 -0.214312,-0.0357 -0.381,-0.13097 -0.166687,-0.1012 -0.26789,-0.27384 -0.101203,-0.17265 -0.101203,-0.44054 0,-0.23812 0.101203,-0.39886 0.107156,-0.16668 0.26789,-0.26789 0.166688,-0.1012 0.375047,-0.14287 0.214313,-0.0476 0.428625,-0.0476 0.291703,0 0.5715,0.0655 v -0.13692 q 0,-0.12502 -0.02976,-0.23813 -0.02381,-0.11906 -0.101204,-0.21431 -0.07144,-0.0953 -0.202406,-0.14883 -0.125015,-0.0595 -0.327422,-0.0595 -0.255984,0 -0.446484,0.0357 -0.1905,0.0357 -0.291703,0.0714 l -0.05953,-0.40482 q 0.101203,-0.0476 0.333375,-0.0833 0.238125,-0.0357 0.506015,-0.0357 z"
         style="font-style:normal;font-variant:normal;font-weight:normal;font-stretch:normal;font-size:5.95312452px;font-family:'Ubuntu Mono';-inkscape-font-specification:'Ubuntu Mono';stroke-width:4.04602098px;fill:#4d4d4d;fill-opacity:1"
         id="path4484" />
      <path
         inkscape:connector-curvature="0"
         d="m 50.154701,217.1671 h 2.434828 v 0.42267 h -2.434828 z m 0,-1.13109 h 2.434828 v 0.42267 h -2.434828 z"
         style="font-style:normal;font-variant:normal;font-weight:normal;font-stretch:normal;font-size:5.95312452px;font-family:'Ubuntu Mono';-inkscape-font-specification:'Ubuntu Mono';stroke-width:4.04602098px;fill:#4d4d4d;fill-opacity:1"
         id="path4486" />
      <path
         inkscape:connector-curvature="0"
         d="m 56.470967,218.37559 v -2.61343 q 0.607218,-0.20836 1.226343,-0.20836 0.1905,0 0.363141,0.0179 0.172641,0.0119 0.381,0.0595 l -0.0893,0.43457 q -0.1905,-0.0536 -0.339328,-0.0655 -0.142875,-0.0179 -0.315516,-0.0179 -0.36314,0 -0.738187,0.1012 v 2.29196 h -0.488156 z"
         style="font-style:normal;font-variant:normal;font-weight:normal;font-stretch:normal;font-size:5.95312452px;font-family:'Ubuntu Mono';-inkscape-font-specification:'Ubuntu Mono';stroke-width:4.04602098px;fill:#4d4d4d;fill-opacity:1"
         id="path4488" />
      <path
         inkscape:connector-curvature="0"
         d="m 60.328592,218.02435 q 0.184547,0 0.327422,-0.0119 0.148828,-0.0119 0.244078,-0.0298 v -0.82153 q -0.09525,-0.0298 -0.232172,-0.0476 -0.130969,-0.0179 -0.279797,-0.0179 -0.136922,0 -0.267891,0.0238 -0.130968,0.0179 -0.232171,0.0714 -0.101204,0.0536 -0.166688,0.14288 -0.06548,0.0833 -0.06548,0.21431 0,0.26789 0.178593,0.37505 0.184547,0.1012 0.49411,0.1012 z m -0.04763,-2.4765 q 0.309562,0 0.517922,0.0774 0.214312,0.0774 0.345281,0.21431 0.130969,0.13693 0.184547,0.33338 0.05358,0.19645 0.05358,0.42862 v 1.72641 q -0.172641,0.0298 -0.458391,0.0714 -0.279797,0.0417 -0.577453,0.0417 -0.226219,0 -0.440531,-0.0417 -0.214313,-0.0357 -0.381,-0.13097 -0.166688,-0.1012 -0.267891,-0.27384 -0.101203,-0.17265 -0.101203,-0.44054 0,-0.23812 0.101203,-0.39886 0.107157,-0.16668 0.267891,-0.26789 0.166687,-0.1012 0.375047,-0.14287 0.214312,-0.0476 0.428625,-0.0476 0.291703,0 0.5715,0.0655 v -0.13692 q 0,-0.12502 -0.02977,-0.23813 -0.02381,-0.11906 -0.101203,-0.21431 -0.07144,-0.0953 -0.202406,-0.14883 -0.125016,-0.0595 -0.327422,-0.0595 -0.255985,0 -0.446484,0.0357 -0.1905,0.0357 -0.291704,0.0714 l -0.05953,-0.40482 q 0.101203,-0.0476 0.333375,-0.0833 0.238125,-0.0357 0.506016,-0.0357 z"
         style="font-style:normal;font-variant:normal;font-weight:normal;font-stretch:normal;font-size:5.95312452px;font-family:'Ubuntu Mono';-inkscape-font-specification:'Ubuntu Mono';stroke-width:4.04602098px;fill:#4d4d4d;fill-opacity:1"
         id="path4490" />
      <path
         inkscape:connector-curvature="0"
         d="m 62.209779,215.69073 q 0.267891,-0.0655 0.529828,-0.10121 0.267891,-0.0357 0.500063,-0.0357 0.55364,0 0.833437,0.28575 0.28575,0.28575 0.28575,0.91679 v 1.61925 h -0.488156 v -1.52996 q 0,-0.26789 -0.04762,-0.43458 -0.04763,-0.16668 -0.136922,-0.25598 -0.08334,-0.0952 -0.208359,-0.13097 -0.119063,-0.0357 -0.261938,-0.0357 -0.119062,0 -0.255984,0.0179 -0.130969,0.0119 -0.255984,0.0357 v 2.33363 h -0.49411 v -2.68486 z"
         style="font-style:normal;font-variant:normal;font-weight:normal;font-stretch:normal;font-size:5.95312452px;font-family:'Ubuntu Mono';-inkscape-font-specification:'Ubuntu Mono';stroke-width:4.04602098px;fill:#4d4d4d;fill-opacity:1"
         id="path4492" />
      <path
         inkscape:connector-curvature="0"
         d="m 66.823449,216.19674 q -0.08334,-0.0774 -0.244078,-0.14287 -0.160734,-0.0714 -0.333375,-0.0714 -0.196453,0 -0.339328,0.0774 -0.136922,0.0774 -0.226219,0.21431 -0.0893,0.13097 -0.130969,0.32147 -0.04167,0.18455 -0.04167,0.39886 0,0.4822 0.226218,0.74414 0.226219,0.26194 0.58936,0.26194 0.184547,0 0.309562,-0.0179 0.130969,-0.0179 0.1905,-0.0357 v -1.75022 z m 0,-1.86333 0.494109,-0.0833 v 4.04812 q -0.160734,0.0476 -0.410765,0.0952 -0.250031,0.0476 -0.583406,0.0476 -0.297657,0 -0.541735,-0.1012 -0.244078,-0.10121 -0.416718,-0.28575 -0.172641,-0.1905 -0.267891,-0.45839 -0.09525,-0.26789 -0.09525,-0.60127 0,-0.32147 0.07739,-0.58341 0.08334,-0.26789 0.238125,-0.45839 0.154781,-0.1905 0.369093,-0.29765 0.220266,-0.10716 0.500063,-0.10716 0.220265,0 0.386953,0.0536 0.166687,0.0536 0.250031,0.11311 v -1.38113 z"
         style="font-style:normal;font-variant:normal;font-weight:normal;font-stretch:normal;font-size:5.95312452px;font-family:'Ubuntu Mono';-inkscape-font-specification:'Ubuntu Mono';stroke-width:4.04602098px;fill:#4d4d4d;fill-opacity:1"
         id="path4494" />
      <path
         inkscape:connector-curvature="0"
         d="m 70.02623,214.55963 q -0.55364,0.42863 -0.845343,0.98822 -0.291703,0.55959 -0.291703,1.22039 0,0.33338 0.06548,0.63103 0.07144,0.29766 0.208359,0.5715 0.142875,0.27385 0.357188,0.52983 0.220265,0.25599 0.517922,0.51197 l -0.267891,0.35719 q -0.684609,-0.50602 -1.023937,-1.17277 -0.333375,-0.6727 -0.333375,-1.41684 0,-0.73819 0.339328,-1.41089 0.339328,-0.67271 1.017984,-1.16681 l 0.261938,0.35718 h -0.006 z"
         style="font-style:normal;font-variant:normal;font-weight:normal;font-stretch:normal;font-size:5.95312452px;font-family:'Ubuntu Mono';-inkscape-font-specification:'Ubuntu Mono';stroke-width:4.04602098px;fill:#4d4d4d;fill-opacity:1"
         id="path4496" />
      <path
         inkscape:connector-curvature="0"
         d="m 71.978855,218.0184 q 0.470297,0 0.66675,-0.18455 0.202407,-0.1905 0.202407,-0.50601 0,-0.20241 -0.08334,-0.33933 -0.08334,-0.13692 -0.220266,-0.22027 -0.136922,-0.0833 -0.315515,-0.11906 -0.178594,-0.0357 -0.375047,-0.0357 h -0.125016 v -0.39886 h 0.172641 q 0.130969,0 0.26789,-0.0238 0.142875,-0.0298 0.255985,-0.0952 0.119062,-0.0714 0.1905,-0.1905 0.07144,-0.11906 0.07144,-0.30361 0,-0.30361 -0.1905,-0.42863 -0.184547,-0.13096 -0.434578,-0.13096 -0.255984,0 -0.434578,0.0774 -0.178594,0.0714 -0.297656,0.14882 l -0.1905,-0.37504 q 0.125016,-0.0893 0.375047,-0.18455 0.255984,-0.1012 0.565547,-0.1012 0.291703,0 0.500062,0.0714 0.208359,0.0714 0.339328,0.2024 0.136922,0.13097 0.202406,0.30956 0.06549,0.17264 0.06549,0.381 0,0.29171 -0.154782,0.49411 -0.148828,0.20241 -0.386953,0.30957 0.28575,0.0833 0.49411,0.32742 0.208359,0.23812 0.208359,0.63698 0,0.23813 -0.08334,0.44649 -0.07739,0.2024 -0.244078,0.35123 -0.160734,0.14883 -0.422672,0.23217 -0.255984,0.0833 -0.613171,0.0833 -0.136922,0 -0.28575,-0.0238 -0.142875,-0.0179 -0.267891,-0.0536 -0.125016,-0.0298 -0.226219,-0.0595 -0.09525,-0.0357 -0.136922,-0.0536 l 0.09525,-0.42268 q 0.09525,0.0476 0.30361,0.11311 0.208359,0.0655 0.511968,0.0655 z"
         style="font-style:normal;font-variant:normal;font-weight:normal;font-stretch:normal;font-size:5.95312452px;font-family:'Ubuntu Mono';-inkscape-font-specification:'Ubuntu Mono';stroke-width:4.04602098px;fill:#4d4d4d;fill-opacity:1"
         id="path4498" />
      <path
         inkscape:connector-curvature="0"
         d="m 75.526918,216.46463 q 0,0.15478 -0.09525,0.26789 -0.0893,0.11311 -0.238125,0.11311 -0.154781,0 -0.250031,-0.11311 -0.09525,-0.11311 -0.09525,-0.26789 0,-0.15478 0.09525,-0.27384 0.09525,-0.11906 0.250031,-0.11906 0.148828,0 0.238125,0.11906 0.09525,0.11906 0.09525,0.27384 z m -1.559719,0.0655 q 0,-0.92869 0.315516,-1.4228 0.321469,-0.50006 0.898922,-0.50006 0.583406,0 0.898921,0.50006 0.315516,0.49411 0.315516,1.4228 0,0.92868 -0.315516,1.42875 -0.315515,0.49411 -0.898921,0.49411 -0.577453,0 -0.898922,-0.49411 -0.315516,-0.50007 -0.315516,-1.42875 z m 1.928813,0 q 0,-0.30361 -0.03572,-0.5715 -0.03572,-0.27385 -0.119063,-0.47625 -0.08334,-0.20241 -0.220265,-0.32147 -0.136922,-0.11906 -0.339328,-0.11906 -0.202407,0 -0.339328,0.11906 -0.136922,0.11906 -0.220266,0.32147 -0.08334,0.2024 -0.119063,0.47625 -0.03572,0.26789 -0.03572,0.5715 0,0.30361 0.03572,0.57745 0.03572,0.26789 0.119063,0.4703 0.08334,0.2024 0.220266,0.32147 0.136921,0.11906 0.339328,0.11906 0.202406,0 0.339328,-0.11906 0.136922,-0.11907 0.220265,-0.32147 0.08334,-0.20241 0.119063,-0.4703 0.03572,-0.27384 0.03572,-0.57745 z"
         style="font-style:normal;font-variant:normal;font-weight:normal;font-stretch:normal;font-size:5.95312452px;font-family:'Ubuntu Mono';-inkscape-font-specification:'Ubuntu Mono';stroke-width:4.04602098px;fill:#4d4d4d;fill-opacity:1"
         id="path4500" />
      <path
         inkscape:connector-curvature="0"
         d="m 78.50348,216.46463 q 0,0.15478 -0.09525,0.26789 -0.0893,0.11311 -0.238125,0.11311 -0.154781,0 -0.250031,-0.11311 -0.09525,-0.11311 -0.09525,-0.26789 0,-0.15478 0.09525,-0.27384 0.09525,-0.11906 0.250031,-0.11906 0.148829,0 0.238125,0.11906 0.09525,0.11906 0.09525,0.27384 z m -1.559718,0.0655 q 0,-0.92869 0.315515,-1.4228 0.321469,-0.50006 0.898922,-0.50006 0.583406,0 0.898922,0.50006 0.315516,0.49411 0.315516,1.4228 0,0.92868 -0.315516,1.42875 -0.315516,0.49411 -0.898922,0.49411 -0.577453,0 -0.898922,-0.49411 -0.315515,-0.50007 -0.315515,-1.42875 z m 1.928812,0 q 0,-0.30361 -0.03572,-0.5715 -0.03572,-0.27385 -0.119062,-0.47625 -0.08334,-0.20241 -0.220266,-0.32147 -0.136922,-0.11906 -0.339328,-0.11906 -0.202406,0 -0.339328,0.11906 -0.136922,0.11906 -0.220266,0.32147 -0.08334,0.2024 -0.119062,0.47625 -0.03572,0.26789 -0.03572,0.5715 0,0.30361 0.03572,0.57745 0.03572,0.26789 0.119062,0.4703 0.08334,0.2024 0.220266,0.32147 0.136922,0.11906 0.339328,0.11906 0.202406,0 0.339328,-0.11906 0.136922,-0.11907 0.220266,-0.32147 0.08334,-0.20241 0.119062,-0.4703 0.03572,-0.27384 0.03572,-0.57745 z"
         style="font-style:normal;font-variant:normal;font-weight:normal;font-stretch:normal;font-size:5.95312452px;font-family:'Ubuntu Mono';-inkscape-font-specification:'Ubuntu Mono';stroke-width:4.04602098px;fill:#4d4d4d;fill-opacity:1"
         id="path4502" />
      <path
         inkscape:connector-curvature="0"
         d="m 80.33109,219.01257 q 0.55364,-0.42863 0.845344,-0.98822 0.297656,-0.55959 0.297656,-1.22039 0,-0.33337 -0.07144,-0.63103 -0.06548,-0.29766 -0.208359,-0.5715 -0.142875,-0.27384 -0.363141,-0.52983 -0.214312,-0.25598 -0.511968,-0.51197 l 0.26789,-0.35718 q 0.68461,0.50601 1.017985,1.17871 0.339328,0.66675 0.339328,1.41089 0,0.3691 -0.0893,0.72629 -0.08334,0.35718 -0.255985,0.69056 -0.166687,0.32742 -0.422671,0.61912 -0.250032,0.29766 -0.58936,0.54174 l -0.261937,-0.35719 h 0.006 z"
         style="font-style:normal;font-variant:normal;font-weight:normal;font-stretch:normal;font-size:5.95312452px;font-family:'Ubuntu Mono';-inkscape-font-specification:'Ubuntu Mono';stroke-width:4.04602098px;fill:#4d4d4d;fill-opacity:1"
         id="path4504" />
      <path
         inkscape:connector-curvature="0"
         d="m 46.160155,224.44182 q 0,-0.4822 -0.226219,-0.74414 -0.226218,-0.26789 -0.589359,-0.26789 -0.202406,0 -0.321469,0.0179 -0.113109,0.0179 -0.178593,0.0417 v 1.74427 q 0.08334,0.0774 0.244078,0.14287 0.160734,0.0655 0.333375,0.0655 0.196453,0 0.333375,-0.0774 0.142875,-0.0774 0.232172,-0.20836 0.0893,-0.13692 0.130968,-0.31551 0.04167,-0.18455 0.04167,-0.39886 z m 0.506016,0 q 0,0.31552 -0.08334,0.58341 -0.07739,0.26193 -0.232172,0.45243 -0.148828,0.1905 -0.369094,0.29766 -0.220265,0.10716 -0.500062,0.10716 -0.220266,0 -0.386953,-0.0536 -0.166688,-0.0536 -0.250031,-0.11906 v 1.08942 h -0.49411 v -3.66117 q 0.160735,-0.0476 0.410766,-0.0952 0.255984,-0.0476 0.583406,-0.0476 0.297656,0 0.541734,0.1012 0.244078,0.10121 0.416719,0.29171 0.172641,0.18454 0.267891,0.45243 0.09525,0.26789 0.09525,0.60127 z"
         style="font-style:normal;font-variant:normal;font-weight:normal;font-stretch:normal;font-size:5.95312452px;font-family:'Ubuntu Mono';-inkscape-font-specification:'Ubuntu Mono';stroke-width:4.04602098px;fill:#4d4d4d;fill-opacity:1"
         id="path4506" />
      <path
         inkscape:connector-curvature="0"
         d="m 47.54128,225.81699 v -2.61342 q 0.607219,-0.20836 1.226344,-0.20836 0.1905,0 0.36314,0.0179 0.172641,0.0119 0.381,0.0595 l -0.0893,0.43458 q -0.1905,-0.0536 -0.339329,-0.0655 -0.142874,-0.0179 -0.315515,-0.0179 -0.363141,0 -0.738188,0.1012 v 2.29195 h -0.488156 z"
         style="font-style:normal;font-variant:normal;font-weight:normal;font-stretch:normal;font-size:5.95312452px;font-family:'Ubuntu Mono';-inkscape-font-specification:'Ubuntu Mono';stroke-width:4.04602098px;fill:#4d4d4d;fill-opacity:1"
         id="path4508" />
      <path
         inkscape:connector-curvature="0"
         d="m 51.12506,222.62612 q -0.154781,0 -0.26789,-0.10716 -0.113109,-0.10716 -0.113109,-0.2917 0,-0.18455 0.113109,-0.29171 0.113109,-0.10715 0.26789,-0.10715 0.160735,0 0.267891,0.10715 0.113109,0.10716 0.113109,0.29171 0,0.18454 -0.113109,0.2917 -0.107156,0.10716 -0.267891,0.10716 z m -0.125015,0.83939 h -0.797719 v -0.41077 h 1.285875 v 1.69664 q 0,0.41077 0.113109,0.55364 0.11311,0.13692 0.339329,0.13692 0.17264,0 0.315515,-0.0417 0.148828,-0.0417 0.232172,-0.0893 l 0.07144,0.41671 q -0.03572,0.0179 -0.101204,0.0476 -0.06548,0.0238 -0.154781,0.0476 -0.08334,0.0238 -0.1905,0.0417 -0.101203,0.0179 -0.214312,0.0179 -0.261938,0 -0.434578,-0.0714 -0.172641,-0.0714 -0.279797,-0.21431 -0.101203,-0.14288 -0.142875,-0.35124 -0.04167,-0.21431 -0.04167,-0.49411 v -1.28587 z"
         style="font-style:normal;font-variant:normal;font-weight:normal;font-stretch:normal;font-size:5.95312452px;font-family:'Ubuntu Mono';-inkscape-font-specification:'Ubuntu Mono';stroke-width:4.04602098px;fill:#4d4d4d;fill-opacity:1"
         id="path4510" />
      <path
         inkscape:connector-curvature="0"
         d="m 53.280092,223.13213 q 0.26789,-0.0655 0.529828,-0.1012 0.26789,-0.0357 0.500062,-0.0357 0.553641,0 0.833438,0.28575 0.28575,0.28575 0.28575,0.91678 v 1.61925 h -0.488156 v -1.52995 q 0,-0.26789 -0.04763,-0.43458 -0.04762,-0.16669 -0.136922,-0.25598 -0.08334,-0.0953 -0.20836,-0.13097 -0.119062,-0.0357 -0.261937,-0.0357 -0.119063,0 -0.255985,0.0179 -0.130968,0.0119 -0.255984,0.0357 v 2.33362 h -0.494109 v -2.68486 z"
         style="font-style:normal;font-variant:normal;font-weight:normal;font-stretch:normal;font-size:5.95312452px;font-family:'Ubuntu Mono';-inkscape-font-specification:'Ubuntu Mono';stroke-width:4.04602098px;fill:#4d4d4d;fill-opacity:1"
         id="path4512" />
      <path
         inkscape:connector-curvature="0"
         d="m 57.280592,223.05474 h 1.166812 v 0.41077 h -1.166812 v 1.28587 q 0,0.20836 0.02977,0.33933 0.02977,0.13097 0.09525,0.21431 0.07144,0.0774 0.178594,0.10716 0.107156,0.0298 0.261938,0.0298 0.214312,0 0.345281,-0.0357 0.130969,-0.0357 0.250031,-0.0952 l 0.07144,0.41671 q -0.08334,0.0357 -0.267891,0.0952 -0.178594,0.0595 -0.446484,0.0595 -0.309563,0 -0.506016,-0.0714 -0.196453,-0.0714 -0.309562,-0.21431 -0.107157,-0.14288 -0.148829,-0.35124 -0.04167,-0.21431 -0.04167,-0.49411 v -1.28587 h -0.583407 v -0.41077 h 0.583407 v -0.7739 l 0.488156,-0.0834 v 0.85725 z"
         style="font-style:normal;font-variant:normal;font-weight:normal;font-stretch:normal;font-size:5.95312452px;font-family:'Ubuntu Mono';-inkscape-font-specification:'Ubuntu Mono';stroke-width:4.04602098px;fill:#4d4d4d;fill-opacity:1"
         id="path4514" />
      <path
         inkscape:connector-curvature="0"
         d="m 63.305154,225.46576 q 0.184547,0 0.327422,-0.0119 0.148828,-0.0119 0.244078,-0.0298 v -0.82154 q -0.09525,-0.0298 -0.232172,-0.0476 -0.130968,-0.0179 -0.279797,-0.0179 -0.136921,0 -0.26789,0.0238 -0.130969,0.0179 -0.232172,0.0714 -0.101203,0.0536 -0.166687,0.14287 -0.06548,0.0833 -0.06548,0.21432 0,0.26789 0.178594,0.37504 0.184547,0.10121 0.494109,0.10121 z m -0.04763,-2.4765 q 0.309563,0 0.517922,0.0774 0.214313,0.0774 0.345281,0.21431 0.130969,0.13692 0.184547,0.33338 0.05358,0.19645 0.05358,0.42862 v 1.72641 q -0.17264,0.0298 -0.45839,0.0714 -0.279797,0.0417 -0.577453,0.0417 -0.226219,0 -0.440532,-0.0417 -0.214312,-0.0357 -0.381,-0.13096 -0.166687,-0.10121 -0.26789,-0.27385 -0.101203,-0.17264 -0.101203,-0.44053 0,-0.23812 0.101203,-0.39886 0.107156,-0.16669 0.26789,-0.26789 0.166688,-0.1012 0.375047,-0.14287 0.214313,-0.0476 0.428625,-0.0476 0.291703,0 0.5715,0.0655 v -0.13692 q 0,-0.12501 -0.02977,-0.23812 -0.02381,-0.11906 -0.101204,-0.21431 -0.07144,-0.0952 -0.202406,-0.14883 -0.125015,-0.0595 -0.327422,-0.0595 -0.255984,0 -0.446484,0.0357 -0.1905,0.0357 -0.291703,0.0714 l -0.05953,-0.40481 q 0.101203,-0.0476 0.333375,-0.0833 0.238125,-0.0357 0.506015,-0.0357 z"
         style="font-style:normal;font-variant:normal;font-weight:normal;font-stretch:normal;font-size:5.95312452px;font-family:'Ubuntu Mono';-inkscape-font-specification:'Ubuntu Mono';stroke-width:4.04602098px;fill:#4d4d4d;fill-opacity:1"
         id="path4516" />
      <path
         inkscape:connector-curvature="0"
         d="m 65.650684,226.28729 q 0.107156,-0.0238 0.208359,-0.0476 0.107156,-0.0238 0.196453,-0.0714 0.0893,-0.0417 0.160734,-0.11311 0.07144,-0.0655 0.11311,-0.18455 -0.1905,-0.0179 -0.279797,-0.14288 -0.08334,-0.13096 -0.08334,-0.25598 0,-0.23812 0.130969,-0.35719 0.136922,-0.12501 0.309562,-0.12501 0.220266,0 0.333375,0.16073 0.11311,0.15478 0.11311,0.381 0,0.17264 -0.07144,0.35719 -0.06548,0.1905 -0.208359,0.35123 -0.136922,0.16669 -0.345281,0.2798 -0.20836,0.11906 -0.49411,0.15478 l -0.08334,-0.38695 z"
         style="font-style:normal;font-variant:normal;font-weight:normal;font-stretch:normal;font-size:5.95312452px;font-family:'Ubuntu Mono';-inkscape-font-specification:'Ubuntu Mono';stroke-width:4.04602098px;fill:#4d4d4d;fill-opacity:1"
         id="path4518" />
      <path
         inkscape:connector-curvature="0"
         d="m 68.966574,221.77482 v 0.26789 q 0,0.26194 -0.02976,0.60127 -0.02977,0.33337 -0.07739,0.61317 h -0.250031 q -0.04167,-0.2798 -0.07144,-0.61317 -0.02976,-0.33933 -0.02976,-0.60722 v -0.26194 h 0.45839 z m 0.982266,0 v 0.26789 q 0,0.26194 -0.02977,0.60127 -0.02976,0.33337 -0.07144,0.61317 h -0.250032 q -0.04762,-0.2798 -0.07739,-0.61317 -0.02977,-0.33933 -0.02977,-0.60722 v -0.26194 h 0.458391 z"
         style="font-style:normal;font-variant:normal;font-weight:normal;font-stretch:normal;font-size:5.95312452px;font-family:'Ubuntu Mono';-inkscape-font-specification:'Ubuntu Mono';stroke-width:4.04602098px;fill:#4d4d4d;fill-opacity:1"
         id="path4520" />
      <path
         inkscape:connector-curvature="0"
         d="m 72.42534,222.13201 1.02989,1.80975 -0.392906,0.2024 -0.85725,-1.50018 -0.85725,1.50018 -0.392906,-0.2024 1.029891,-1.80975 z"
         style="font-style:normal;font-variant:normal;font-weight:normal;font-stretch:normal;font-size:5.95312452px;font-family:'Ubuntu Mono';-inkscape-font-specification:'Ubuntu Mono';stroke-width:4.04602098px;fill:#4d4d4d;fill-opacity:1"
         id="path4522" />
      <path
         inkscape:connector-curvature="0"
         d="m 76.193668,223.0726 q 0,0.1905 -0.07739,0.3691 -0.07144,0.17859 -0.196453,0.35123 -0.119062,0.17264 -0.273844,0.33933 -0.154781,0.16668 -0.315515,0.32742 -0.0893,0.0893 -0.20836,0.21431 -0.119062,0.12502 -0.226218,0.25599 -0.107157,0.13096 -0.178594,0.25598 -0.07144,0.12502 -0.07144,0.21431 h 1.696641 v 0.41672 h -2.232422 q -0.006,-0.0298 -0.006,-0.0595 0,-0.0357 0,-0.0655 0,-0.25004 0.08334,-0.46435 0.08334,-0.21431 0.214312,-0.40481 0.130969,-0.1905 0.291703,-0.35719 0.166688,-0.17264 0.327422,-0.33337 0.130969,-0.13097 0.250032,-0.25599 0.125015,-0.12501 0.214312,-0.25003 0.09525,-0.12501 0.148828,-0.25598 0.05953,-0.13692 0.05953,-0.2798 0,-0.16073 -0.05358,-0.27384 -0.04762,-0.11311 -0.136922,-0.18455 -0.08334,-0.0774 -0.196453,-0.11311 -0.113109,-0.0357 -0.244078,-0.0357 -0.154781,0 -0.28575,0.0417 -0.125015,0.0417 -0.226219,0.10121 -0.09525,0.0595 -0.166687,0.11906 -0.07144,0.0536 -0.107156,0.0893 l -0.244078,-0.34528 q 0.04762,-0.0536 0.142875,-0.13097 0.09525,-0.0774 0.226218,-0.14288 0.136922,-0.0714 0.30361,-0.11906 0.166687,-0.0476 0.357187,-0.0476 0.577453,0 0.851297,0.26789 0.279797,0.26194 0.279797,0.75605 z"
         style="font-style:normal;font-variant:normal;font-weight:normal;font-stretch:normal;font-size:5.95312452px;font-family:'Ubuntu Mono';-inkscape-font-specification:'Ubuntu Mono';stroke-width:4.04602098px;fill:#4d4d4d;fill-opacity:1"
         id="path4524" />
      <path
         inkscape:connector-curvature="0"
         d="m 79.920324,224.60851 h 2.434828 v 0.42267 h -2.434828 z m 0,-1.1311 h 2.434828 v 0.42268 h -2.434828 z"
         style="font-style:normal;font-variant:normal;font-weight:normal;font-stretch:normal;font-size:5.95312452px;font-family:'Ubuntu Mono';-inkscape-font-specification:'Ubuntu Mono';stroke-width:4.04602098px;fill:#4d4d4d;fill-opacity:1"
         id="path4526" />
      <path
         inkscape:connector-curvature="0"
         d="m 86.825949,221.77482 v 0.26789 q 0,0.26194 -0.02976,0.60127 -0.02977,0.33337 -0.07739,0.61317 h -0.250031 q -0.04167,-0.2798 -0.07144,-0.61317 -0.02976,-0.33933 -0.02976,-0.60722 v -0.26194 h 0.45839 z m 0.982266,0 v 0.26789 q 0,0.26194 -0.02977,0.60127 -0.02976,0.33337 -0.07144,0.61317 h -0.250032 q -0.04762,-0.2798 -0.07739,-0.61317 -0.02977,-0.33933 -0.02977,-0.60722 v -0.26194 h 0.458391 z"
         style="font-style:normal;font-variant:normal;font-weight:normal;font-stretch:normal;font-size:5.95312452px;font-family:'Ubuntu Mono';-inkscape-font-specification:'Ubuntu Mono';stroke-width:4.04602098px;fill:#4d4d4d;fill-opacity:1"
         id="path4528" />
      <path
         inkscape:connector-curvature="0"
         d="m 89.463184,226.28729 q 0.107156,-0.0238 0.208359,-0.0476 0.107156,-0.0238 0.196453,-0.0714 0.0893,-0.0417 0.160734,-0.11311 0.07144,-0.0655 0.11311,-0.18455 -0.1905,-0.0179 -0.279797,-0.14288 -0.08334,-0.13096 -0.08334,-0.25598 0,-0.23812 0.130969,-0.35719 0.136922,-0.12501 0.309562,-0.12501 0.220266,0 0.333375,0.16073 0.11311,0.15478 0.11311,0.381 0,0.17264 -0.07144,0.35719 -0.06548,0.1905 -0.208359,0.35123 -0.136922,0.16669 -0.345281,0.2798 -0.20836,0.11906 -0.49411,0.15478 l -0.08334,-0.38695 z"
         style="font-style:normal;font-variant:normal;font-weight:normal;font-stretch:normal;font-size:5.95312452px;font-family:'Ubuntu Mono';-inkscape-font-specification:'Ubuntu Mono';stroke-width:4.04602098px;fill:#4d4d4d;fill-opacity:1"
         id="path4530" />
      <path
         inkscape:connector-curvature="0"
         d="m 96.61884,225.12643 q 0,-0.14883 -0.125016,-0.24408 -0.119062,-0.0952 -0.303609,-0.16669 -0.178594,-0.0714 -0.392906,-0.13692 -0.214313,-0.0714 -0.39886,-0.17264 -0.178593,-0.1012 -0.303609,-0.25003 -0.119063,-0.14883 -0.119063,-0.38695 0,-0.33338 0.267891,-0.55364 0.273844,-0.22622 0.851297,-0.22622 0.226219,0 0.464344,0.0357 0.244078,0.0298 0.416718,0.0833 l -0.0893,0.44053 q -0.04762,-0.0238 -0.130968,-0.0476 -0.08334,-0.0298 -0.1905,-0.0476 -0.107157,-0.0238 -0.232172,-0.0357 -0.119063,-0.0119 -0.232172,-0.0119 -0.642938,0 -0.642938,0.35123 0,0.12502 0.119063,0.21431 0.125016,0.0833 0.309562,0.15478 0.184547,0.0714 0.39886,0.14883 0.214312,0.0714 0.398859,0.1786 0.184547,0.10715 0.303609,0.26193 0.125016,0.14883 0.125016,0.381 0,0.37505 -0.291703,0.58341 -0.291703,0.20241 -0.922734,0.20241 -0.28575,0 -0.523875,-0.0476 -0.238125,-0.0476 -0.452438,-0.14287 l 0.09525,-0.44649 q 0.20836,0.0953 0.434578,0.16074 0.232172,0.0595 0.49411,0.0595 0.672703,0 0.672703,-0.33933 z"
         style="font-style:normal;font-variant:normal;font-weight:normal;font-stretch:normal;font-size:5.95312452px;font-family:'Ubuntu Mono';-inkscape-font-specification:'Ubuntu Mono';stroke-width:4.04602098px;fill:#4d4d4d;fill-opacity:1"
         id="path4532" />
      <path
         inkscape:connector-curvature="0"
         d="m 98.249992,224.44182 q 0,0.21431 0.04167,0.39886 0.04762,0.17859 0.136922,0.31551 0.0893,0.13097 0.226219,0.20836 0.142875,0.0774 0.339328,0.0774 0.17264,0 0.333375,-0.0655 0.160734,-0.0655 0.244078,-0.14287 v -1.74427 q -0.06548,-0.0238 -0.184547,-0.0417 -0.113109,-0.0179 -0.315516,-0.0179 -0.36314,0 -0.595312,0.26789 -0.226219,0.26194 -0.226219,0.74414 z m -0.506015,0 q 0,-0.33338 0.09525,-0.60127 0.09525,-0.26789 0.26789,-0.45243 0.172641,-0.1905 0.416719,-0.29171 0.250031,-0.1012 0.547687,-0.1012 0.321469,0 0.565547,0.0536 0.250032,0.0476 0.42267,0.0952 v 3.65522 h -0.494107 v -1.08942 q -0.0893,0.0595 -0.255985,0.1131 -0.166687,0.0595 -0.375046,0.0595 -0.279797,0 -0.500063,-0.10716 -0.220265,-0.10716 -0.375047,-0.29766 -0.148828,-0.1905 -0.232172,-0.45243 -0.08334,-0.26789 -0.08334,-0.58341 z"
         style="font-style:normal;font-variant:normal;font-weight:normal;font-stretch:normal;font-size:5.95312452px;font-family:'Ubuntu Mono';-inkscape-font-specification:'Ubuntu Mono';stroke-width:4.04602098px;fill:#4d4d4d;fill-opacity:1"
         id="path4534" />
      <path
         inkscape:connector-curvature="0"
         d="m 101.1194,225.81699 v -2.61342 q 0.60722,-0.20836 1.22634,-0.20836 0.1905,0 0.36314,0.0179 0.17264,0.0119 0.381,0.0595 l -0.0893,0.43458 q -0.1905,-0.0536 -0.33933,-0.0655 -0.14288,-0.0179 -0.31552,-0.0179 -0.36314,0 -0.73819,0.1012 v 2.29195 h -0.48815 z"
         style="font-style:normal;font-variant:normal;font-weight:normal;font-stretch:normal;font-size:5.95312452px;font-family:'Ubuntu Mono';-inkscape-font-specification:'Ubuntu Mono';stroke-width:4.04602098px;fill:#4d4d4d;fill-opacity:1"
         id="path4536" />
      <path
         inkscape:connector-curvature="0"
         d="m 105.74498,222.00104 q -0.55364,0.42862 -0.84535,0.98822 -0.2917,0.55959 -0.2917,1.22039 0,0.33337 0.0655,0.63103 0.0714,0.29766 0.20836,0.5715 0.14288,0.27384 0.35719,0.52983 0.22027,0.25598 0.51792,0.51197 l -0.26789,0.35718 q -0.68461,-0.50601 -1.02394,-1.17276 -0.33337,-0.67271 -0.33337,-1.41685 0,-0.73818 0.33933,-1.41089 0.33933,-0.6727 1.01798,-1.16681 l 0.26194,0.35719 h -0.006 z"
         style="font-style:normal;font-variant:normal;font-weight:normal;font-stretch:normal;font-size:5.95312452px;font-family:'Ubuntu Mono';-inkscape-font-specification:'Ubuntu Mono';stroke-width:4.04602098px;fill:#4d4d4d;fill-opacity:1"
         id="path4538" />
      <path
         inkscape:connector-curvature="0"
         d="m 107.95359,225.46576 q 0.18454,0 0.32742,-0.0119 0.14883,-0.0119 0.24408,-0.0298 v -0.82154 q -0.0953,-0.0298 -0.23218,-0.0476 -0.13096,-0.0179 -0.27979,-0.0179 -0.13692,0 -0.26789,0.0238 -0.13097,0.0179 -0.23218,0.0714 -0.1012,0.0536 -0.16668,0.14287 -0.0655,0.0833 -0.0655,0.21432 0,0.26789 0.1786,0.37504 0.18454,0.10121 0.49411,0.10121 z m -0.0476,-2.4765 q 0.30956,0 0.51792,0.0774 0.21432,0.0774 0.34528,0.21431 0.13097,0.13692 0.18455,0.33338 0.0536,0.19645 0.0536,0.42862 v 1.72641 q -0.17264,0.0298 -0.45839,0.0714 -0.2798,0.0417 -0.57745,0.0417 -0.22622,0 -0.44054,-0.0417 -0.21431,-0.0357 -0.381,-0.13096 -0.16668,-0.10121 -0.26789,-0.27385 -0.1012,-0.17264 -0.1012,-0.44053 0,-0.23812 0.1012,-0.39886 0.10716,-0.16669 0.26789,-0.26789 0.16669,-0.1012 0.37505,-0.14287 0.21431,-0.0476 0.42863,-0.0476 0.2917,0 0.5715,0.0655 v -0.13692 q 0,-0.12501 -0.0298,-0.23812 -0.0238,-0.11906 -0.1012,-0.21431 -0.0714,-0.0952 -0.20241,-0.14883 -0.12501,-0.0595 -0.32742,-0.0595 -0.25599,0 -0.44649,0.0357 -0.1905,0.0357 -0.2917,0.0714 l -0.0595,-0.40481 q 0.1012,-0.0476 0.33338,-0.0833 0.23812,-0.0357 0.50601,-0.0357 z"
         style="font-style:normal;font-variant:normal;font-weight:normal;font-stretch:normal;font-size:5.95312452px;font-family:'Ubuntu Mono';-inkscape-font-specification:'Ubuntu Mono';stroke-width:4.04602098px;fill:#4d4d4d;fill-opacity:1"
         id="path4540" />
      <path
         inkscape:connector-curvature="0"
         d="m 110.09671,226.45398 q 0.55364,-0.42863 0.84534,-0.98822 0.29766,-0.5596 0.29766,-1.22039 0,-0.33338 -0.0714,-0.63103 -0.0655,-0.29766 -0.20836,-0.5715 -0.14287,-0.27385 -0.36314,-0.52983 -0.21431,-0.25599 -0.51197,-0.51197 l 0.2679,-0.35719 q 0.6846,0.50602 1.01798,1.17872 0.33933,0.66675 0.33933,1.41089 0,0.36909 -0.0893,0.72628 -0.0833,0.35719 -0.25598,0.69056 -0.16669,0.32743 -0.42268,0.61913 -0.25003,0.29766 -0.58935,0.54173 l -0.26194,-0.35718 h 0.006 z"
         style="font-style:normal;font-variant:normal;font-weight:normal;font-stretch:normal;font-size:5.95312452px;font-family:'Ubuntu Mono';-inkscape-font-specification:'Ubuntu Mono';stroke-width:4.04602098px;fill:#4d4d4d;fill-opacity:1"
         id="path4542" />
      <path
         inkscape:connector-curvature="0"
         d="m 34.52775,231.85941 h -0.238125 q -0.101203,0 -0.178594,0.0476 -0.07144,0.0417 -0.125016,0.11906 -0.04763,0.0714 -0.07739,0.16669 -0.02381,0.0893 -0.02381,0.18455 v 0.95845 q 0,0.22026 -0.04762,0.38695 -0.04167,0.16669 -0.154781,0.2798 -0.107156,0.11906 -0.291703,0.17859 -0.178594,0.0595 -0.452437,0.0595 H 32.45607 v -0.38695 h 0.506016 q 0.250031,0 0.351234,-0.11311 0.107157,-0.11311 0.107157,-0.41076 v -0.82154 q 0,-0.39886 0.119062,-0.5834 0.119063,-0.1905 0.273844,-0.25599 -0.154781,-0.0714 -0.273844,-0.26789 -0.119062,-0.19645 -0.119062,-0.5715 v -0.82153 q 0,-0.29765 -0.107157,-0.41076 -0.107156,-0.11311 -0.357187,-0.11311 H 32.45607 v -0.38696 h 0.482204 q 0.273843,0 0.452437,0.0595 0.184547,0.0595 0.291703,0.17859 0.113109,0.11311 0.154781,0.2798 0.04762,0.16668 0.04762,0.38695 v 0.95845 q 0,0.0893 0.02381,0.18455 0.02381,0.0893 0.07144,0.16669 0.05358,0.0714 0.125016,0.11906 0.07739,0.0476 0.178594,0.0476 h 0.244078 v 0.381 z"
         style="font-style:normal;font-variant:normal;font-weight:normal;font-stretch:normal;font-size:5.95312452px;font-family:'Ubuntu Mono';-inkscape-font-specification:'Ubuntu Mono';stroke-width:4.04602098px;fill:#4d4d4d;fill-opacity:1"
         id="path4544" />
      <path
         inkscape:connector-curvature="0"
         d="m 34.253906,239.32463 q 0,-0.4822 -0.226219,-0.74414 -0.226218,-0.26789 -0.589359,-0.26789 -0.202406,0 -0.321469,0.0179 -0.113109,0.0179 -0.178593,0.0417 v 1.74427 q 0.08334,0.0774 0.244078,0.14287 0.160734,0.0655 0.333375,0.0655 0.196453,0 0.333375,-0.0774 0.142875,-0.0774 0.232171,-0.20836 0.0893,-0.13692 0.130969,-0.31552 0.04167,-0.18455 0.04167,-0.39886 z m 0.506016,0 q 0,0.31552 -0.08334,0.58341 -0.07739,0.26194 -0.232172,0.45244 -0.148828,0.1905 -0.369094,0.29765 -0.220265,0.10716 -0.500062,0.10716 -0.220266,0 -0.386953,-0.0536 -0.166688,-0.0536 -0.250031,-0.11906 v 1.08942 h -0.49411 v -3.66117 q 0.160735,-0.0476 0.410766,-0.0953 0.255984,-0.0476 0.583406,-0.0476 0.297656,0 0.541734,0.10121 0.244078,0.1012 0.416719,0.2917 0.172641,0.18455 0.267891,0.45244 0.09525,0.26789 0.09525,0.60126 z"
         style="font-style:normal;font-variant:normal;font-weight:normal;font-stretch:normal;font-size:5.95312452px;font-family:'Ubuntu Mono';-inkscape-font-specification:'Ubuntu Mono';stroke-width:4.04602098px;fill:#4d4d4d;fill-opacity:1"
         id="path4546" />
      <path
         inkscape:connector-curvature="0"
         d="m 35.635031,240.6998 v -2.61342 q 0.607219,-0.20836 1.226344,-0.20836 0.1905,0 0.36314,0.0179 0.172641,0.0119 0.381,0.0595 l -0.0893,0.43458 q -0.1905,-0.0536 -0.339328,-0.0655 -0.142875,-0.0179 -0.315515,-0.0179 -0.363141,0 -0.738188,0.1012 v 2.29195 h -0.488156 z"
         style="font-style:normal;font-variant:normal;font-weight:normal;font-stretch:normal;font-size:5.95312452px;font-family:'Ubuntu Mono';-inkscape-font-specification:'Ubuntu Mono';stroke-width:4.04602098px;fill:#4d4d4d;fill-opacity:1"
         id="path4548" />
      <path
         inkscape:connector-curvature="0"
         d="m 39.218812,237.50893 q -0.154781,0 -0.267891,-0.10716 -0.113109,-0.10715 -0.113109,-0.2917 0,-0.18455 0.113109,-0.2917 0.11311,-0.10716 0.267891,-0.10716 0.160734,0 0.267891,0.10716 0.113109,0.10715 0.113109,0.2917 0,0.18455 -0.113109,0.2917 -0.107157,0.10716 -0.267891,0.10716 z m -0.125016,0.83939 h -0.797718 v -0.41077 h 1.285875 v 1.69664 q 0,0.41077 0.113109,0.55365 0.113109,0.13692 0.339328,0.13692 0.172641,0 0.315516,-0.0417 0.148828,-0.0417 0.232171,-0.0893 l 0.07144,0.41672 q -0.03572,0.0179 -0.101203,0.0476 -0.06549,0.0238 -0.154781,0.0476 -0.08334,0.0238 -0.1905,0.0417 -0.101204,0.0179 -0.214313,0.0179 -0.261937,0 -0.434578,-0.0714 -0.172641,-0.0714 -0.279797,-0.21431 -0.101203,-0.14288 -0.142875,-0.35124 -0.04167,-0.21431 -0.04167,-0.49411 v -1.28587 z"
         style="font-style:normal;font-variant:normal;font-weight:normal;font-stretch:normal;font-size:5.95312452px;font-family:'Ubuntu Mono';-inkscape-font-specification:'Ubuntu Mono';stroke-width:4.04602098px;fill:#4d4d4d;fill-opacity:1"
         id="path4550" />
      <path
         inkscape:connector-curvature="0"
         d="m 41.373843,238.01495 q 0.26789,-0.0655 0.529828,-0.10121 0.26789,-0.0357 0.500062,-0.0357 0.553641,0 0.833438,0.28575 0.28575,0.28575 0.28575,0.91678 v 1.61925 h -0.488156 v -1.52995 q 0,-0.26789 -0.04763,-0.43458 -0.04762,-0.16668 -0.136922,-0.25598 -0.08334,-0.0952 -0.20836,-0.13097 -0.119062,-0.0357 -0.261937,-0.0357 -0.119063,0 -0.255985,0.0179 -0.130968,0.0119 -0.255984,0.0357 v 2.33362 h -0.494109 v -2.68485 z"
         style="font-style:normal;font-variant:normal;font-weight:normal;font-stretch:normal;font-size:5.95312452px;font-family:'Ubuntu Mono';-inkscape-font-specification:'Ubuntu Mono';stroke-width:4.04602098px;fill:#4d4d4d;fill-opacity:1"
         id="path4552" />
      <path
         inkscape:connector-curvature="0"
         d="m 45.374343,237.93755 h 1.166812 v 0.41077 h -1.166812 v 1.28587 q 0,0.20836 0.02976,0.33933 0.02977,0.13097 0.09525,0.21432 0.07144,0.0774 0.178594,0.10715 0.107156,0.0298 0.261938,0.0298 0.214312,0 0.345281,-0.0357 0.130968,-0.0357 0.250031,-0.0952 l 0.07144,0.41672 q -0.08334,0.0357 -0.26789,0.0952 -0.178594,0.0595 -0.446484,0.0595 -0.309563,0 -0.506016,-0.0714 -0.196453,-0.0714 -0.309563,-0.21431 -0.107156,-0.14288 -0.148828,-0.35124 -0.04167,-0.21431 -0.04167,-0.49411 v -1.28587 H 44.30278 v -0.41077 h 0.583406 v -0.7739 l 0.488157,-0.0833 v 0.85725 z"
         style="font-style:normal;font-variant:normal;font-weight:normal;font-stretch:normal;font-size:5.95312452px;font-family:'Ubuntu Mono';-inkscape-font-specification:'Ubuntu Mono';stroke-width:4.04602098px;fill:#4d4d4d;fill-opacity:1"
         id="path4554" />
      <path
         inkscape:connector-curvature="0"
         d="m 51.107201,236.65763 v 0.26789 q 0,0.26194 -0.02977,0.60127 -0.02977,0.33337 -0.07739,0.61317 H 50.75001 q -0.04167,-0.2798 -0.07144,-0.61317 -0.02976,-0.33933 -0.02976,-0.60722 v -0.26194 h 0.45839 z m 0.982266,0 v 0.26789 q 0,0.26194 -0.02977,0.60127 -0.02977,0.33337 -0.07144,0.61317 h -0.250032 q -0.04763,-0.2798 -0.07739,-0.61317 -0.02977,-0.33933 -0.02977,-0.60722 v -0.26194 h 0.458391 z"
         style="font-style:normal;font-variant:normal;font-weight:normal;font-stretch:normal;font-size:5.95312452px;font-family:'Ubuntu Mono';-inkscape-font-specification:'Ubuntu Mono';stroke-width:4.04602098px;fill:#4d4d4d;fill-opacity:1"
         id="path4556" />
      <path
         inkscape:connector-curvature="0"
         d="m 53.274139,236.53857 h 0.494109 l 1.649016,5.1435 h -0.500063 z"
         style="font-style:normal;font-variant:normal;font-weight:normal;font-stretch:normal;font-size:5.95312452px;font-family:'Ubuntu Mono';-inkscape-font-specification:'Ubuntu Mono';stroke-width:4.04602098px;fill:#4d4d4d;fill-opacity:1"
         id="path4558" />
      <path
         inkscape:connector-curvature="0"
         d="m 56.256654,238.01495 q 0.267891,-0.0655 0.529828,-0.10121 0.267891,-0.0357 0.500063,-0.0357 0.55364,0 0.833437,0.28575 0.28575,0.28575 0.28575,0.91678 v 1.61925 h -0.488156 v -1.52995 q 0,-0.26789 -0.04762,-0.43458 -0.04763,-0.16668 -0.136922,-0.25598 -0.08334,-0.0952 -0.208359,-0.13097 -0.119063,-0.0357 -0.261938,-0.0357 -0.119062,0 -0.255984,0.0179 -0.130969,0.0119 -0.255984,0.0357 v 2.33362 h -0.49411 v -2.68485 z"
         style="font-style:normal;font-variant:normal;font-weight:normal;font-stretch:normal;font-size:5.95312452px;font-family:'Ubuntu Mono';-inkscape-font-specification:'Ubuntu Mono';stroke-width:4.04602098px;fill:#4d4d4d;fill-opacity:1"
         id="path4560" />
      <path
         inkscape:connector-curvature="0"
         d="m 60.036889,236.65763 v 0.26789 q 0,0.26194 -0.02977,0.60127 -0.02977,0.33337 -0.07739,0.61317 h -0.250031 q -0.04167,-0.2798 -0.07144,-0.61317 -0.02977,-0.33933 -0.02977,-0.60722 v -0.26194 h 0.458391 z m 0.982265,0 v 0.26789 q 0,0.26194 -0.02976,0.60127 -0.02977,0.33337 -0.07144,0.61317 h -0.250031 q -0.04763,-0.2798 -0.07739,-0.61317 -0.02976,-0.33933 -0.02976,-0.60722 v -0.26194 h 0.45839 z"
         style="font-style:normal;font-variant:normal;font-weight:normal;font-stretch:normal;font-size:5.95312452px;font-family:'Ubuntu Mono';-inkscape-font-specification:'Ubuntu Mono';stroke-width:4.04602098px;fill:#4d4d4d;fill-opacity:1"
         id="path4562" />
    </g>
    <path
       sodipodi:nodetypes="ccccsccsc"
       inkscape:connector-curvature="0"
       id="path1355-3-0"
       d="m 19.751144,265.48426 c 0.01633,0.0263 0.561139,0.90462 0.727791,1.39886 0.451585,1.01234 0.25858,3.97236 0.250369,5.65885 0.02772,-0.19401 4.690513,-1.39583 7.111042,0.80464 -0.01547,-0.0273 -0.04888,-0.0804 -0.12512,-0.18628 -0.07235,-0.10046 -0.182749,-0.24915 -0.371644,-0.44224 -0.528108,-0.60452 -0.230926,-0.0845 -0.805409,-0.682 -0.496688,-0.45047 -1.569491,-1.52048 -2.867987,-2.79805 -1.241182,-1.22116 -2.686924,-2.62954 -3.919042,-3.75378 z"
       style="opacity:0.24800002;fill:#000000;fill-opacity:1;stroke:none;stroke-width:0.30000001;stroke-miterlimit:4;stroke-dasharray:none;stroke-opacity:1" />
    <path
       style="opacity:1;fill:#ffffff;fill-opacity:1;stroke:#808080;stroke-width:0.30000001;stroke-miterlimit:4;stroke-dasharray:none;stroke-opacity:1"
       d="m 19.42404,264.96145 c 0.01548,0.0249 0.53209,0.85773 0.690114,1.32635 0.428208,0.95987 0.292236,3.21802 0.28445,4.8171 0.428992,-0.0223 5.159507,-0.73701 7.328403,1.82407 -0.02928,-0.0506 -0.102779,-0.0927 -0.143771,-0.17312 -0.500768,-0.57318 -1.139582,-1.03373 -1.723521,-1.58216 -0.470975,-0.42712 -1.488241,-1.44167 -2.719516,-2.65302 -1.176928,-1.15787 -2.547826,-2.49325 -3.716159,-3.55922 z"
       id="path4753-0-5"
       inkscape:connector-curvature="0"
       sodipodi:nodetypes="ccccccsc" />
    <g
       style="stroke-width:4.08449793"
       inkscape:transform-center-y="-9.4924686"
       inkscape:transform-center-x="5.4653607"
       inkscape:label="Capa 1"
       id="layer1-4-9-22"
       transform="matrix(0.53602412,0,0,0.5372689,-234.93365,-13.7853)">
      <g
         style="stroke-width:4.08449793"
         id="layer1-3-65-0-7"
         inkscape:label="Capa 1"
         transform="translate(0.41988239,0.03484499)" />
    </g>
    <g
       style="stroke-width:4.08449793"
       inkscape:transform-center-y="-9.4924686"
       inkscape:transform-center-x="5.4653607"
       inkscape:label="Capa 1"
       id="layer1-4-3"
       transform="matrix(0.53602412,0,0,0.5372689,-234.93365,-13.7603)">
      <g
         style="stroke-width:4.08449793"
         id="layer1-3-65-7"
         inkscape:label="Capa 1"
         transform="translate(0.41988239,0.03484499)" />
    </g>
    <g
       style="stroke-width:4.08449793"
       inkscape:transform-center-y="-9.4924686"
       inkscape:transform-center-x="5.4653607"
       inkscape:label="Capa 1"
       id="layer1-4-9-2"
       transform="matrix(0.53602412,0,0,0.5372689,-267.6877,-57.38336)">
      <g
         style="stroke-width:4.08449793"
         id="layer1-3-65-0-2"
         inkscape:label="Capa 1"
         transform="translate(0.41988239,0.03484499)" />
    </g>
    <g
       style="stroke-width:4.08449793"
       inkscape:transform-center-y="-9.4924686"
       inkscape:transform-center-x="5.4653607"
       inkscape:label="Capa 1"
       id="layer1-4-7"
       transform="matrix(0.53602412,0,0,0.5372689,-267.6877,-57.35836)">
      <g
         style="stroke-width:4.08449793"
         id="layer1-3-65-3"
         inkscape:label="Capa 1"
         transform="translate(0.41988239,0.03484499)" />
    </g>
    <g
       style="stroke-width:4.08449793"
       inkscape:transform-center-y="-9.4924686"
       inkscape:transform-center-x="5.4653607"
       inkscape:label="Capa 1"
       id="layer1-4-9"
       transform="matrix(0.53602412,0,0,0.5372689,-234.93365,-13.785303)">
      <g
         style="stroke-width:4.08449793"
         id="layer1-3-65-0"
         inkscape:label="Capa 1"
         transform="translate(0.41988239,0.03484499)" />
    </g>
    <g
       style="stroke-width:4.08449793"
       inkscape:transform-center-y="-9.4924686"
       inkscape:transform-center-x="5.4653607"
       inkscape:label="Capa 1"
       id="layer1-4"
       transform="matrix(0.53602412,0,0,0.5372689,-234.93365,-13.760303)">
      <g
         style="stroke-width:4.08449793"
         id="layer1-3-65"
         inkscape:label="Capa 1"
         transform="translate(0.41988239,0.03484499)" />
    </g>
    <g
       style="font-style:normal;font-weight:normal;font-size:72.55817413px;line-height:125%;font-family:sans-serif;letter-spacing:0px;word-spacing:0px;fill:#960017;fill-opacity:1;stroke:none;stroke-width:4.04602098px;stroke-linecap:butt;stroke-linejoin:miter;stroke-opacity:1"
       id="text4718"
       transform="matrix(0.24641215,0,0,0.24790292,0.24301786,223.31927)">
      <path
         inkscape:connector-curvature="0"
         d="m 46.38819,240.45376 -12.842797,0.79814 v 3.12 h 2.974885 c 2.684653,0 3.120002,0.50791 3.120002,3.62791 v 17.3414 2.90233 c 0,2.90233 -0.79814,3.41023 -5.514422,3.41023 h -0.290232 v 2.6121 h 19.373032 v -2.6121 h -1.378605 c -4.643723,0 -5.441863,-0.5079 -5.441863,-3.41023 v -2.90233 -0.72558 c 0,-5.44186 1.015814,-10.95628 2.829769,-15.0921 1.741396,-4.06326 4.208374,-6.31256 7.255817,-6.67535 -1.015814,1.16093 -1.306047,1.88651 -1.306047,3.26512 0,2.32186 1.668838,3.9907 3.990699,3.9907 2.612095,0 4.426049,-1.95907 4.426049,-4.93396 0,-3.48279 -2.466978,-5.80465 -6.312561,-5.80465 -4.571165,0 -8.561865,3.70046 -10.883726,10.08558 z"
         style="font-style:normal;font-variant:normal;font-weight:500;font-stretch:normal;font-family:'Century Schoolbook L';-inkscape-font-specification:'Century Schoolbook L Medium';fill:#960017;fill-opacity:1;stroke-width:4.04602098px"
         id="path4565" />
      <path
         inkscape:connector-curvature="0"
         d="m 77.251488,220.79049 -12.480005,0.79814 v 3.12001 h 2.539536 c 2.684652,0 3.120001,0.5079 3.120001,3.6279 v 28.22513 c 0,9.7228 -0.362791,14.43908 -1.306047,18.72001 h 2.757211 l 3.55535,-5.65953 c 2.974885,3.91814 6.385119,5.73209 10.883726,5.73209 8.924656,0 15.60001,-7.76372 15.60001,-18.2121 0,-10.44838 -6.094889,-17.77675 -14.80187,-17.77675 -4.426048,0 -7.110701,1.52372 -9.867912,5.65953 z m 8.561865,22.27536 c 5.441863,0 8.489306,5.29675 8.489306,14.80187 0,9.14233 -2.974885,14.36652 -8.271631,14.36652 -5.732096,0 -9.14233,-5.29675 -9.14233,-14.2214 0,-9.65024 3.120001,-14.94699 8.924655,-14.94699 z"
         style="font-style:normal;font-variant:normal;font-weight:500;font-stretch:normal;font-family:'Century Schoolbook L';-inkscape-font-specification:'Century Schoolbook L Medium';fill:#960017;fill-opacity:1;stroke-width:4.04602098px"
         id="path4567" />
    </g>
  </g>
</svg>
