<?xml version="1.0" encoding="UTF-8" standalone="no"?>
<!-- Created with Inkscape (http://www.inkscape.org/) -->

<svg
   xmlns:osb="http://www.openswatchbook.org/uri/2009/osb"
   xmlns:dc="http://purl.org/dc/elements/1.1/"
   xmlns:cc="http://creativecommons.org/ns#"
   xmlns:rdf="http://www.w3.org/1999/02/22-rdf-syntax-ns#"
   xmlns:svg="http://www.w3.org/2000/svg"
   xmlns="http://www.w3.org/2000/svg"
   xmlns:xlink="http://www.w3.org/1999/xlink"
   xmlns:sodipodi="http://sodipodi.sourceforge.net/DTD/sodipodi-0.dtd"
   xmlns:inkscape="http://www.inkscape.org/namespaces/inkscape"
   width="128"
   height="128"
   viewBox="0 0 33.866666 33.866668"
   version="1.1"
   id="svg1038"
   inkscape:version="0.92.2 5c3e80d, 2017-08-06"
   sodipodi:docname="text-html copy.svg">
  <defs
     id="defs1032">
    <linearGradient
       osb:paint="solid"
       id="linearGradient6987">
      <stop
         id="stop6985"
         offset="0"
         style="stop-color:#77d2fb;stop-opacity:1;" />
    </linearGradient>
    <linearGradient
       id="linearGradient1830">
      <stop
         offset="0"
         style="stop-color:#d9d9d9;stop-opacity:1"
         id="stop1826" />
      <stop
         offset="1"
         style="stop-color:#ffffff;stop-opacity:1;"
         id="stop1828" />
    </linearGradient>
    <linearGradient
       inkscape:collect="always"
       xlink:href="#linearGradient1830"
       id="linearGradient1503"
       x1="29.203474"
       y1="263.52237"
       x2="4.5843229"
       y2="296.16849"
       gradientUnits="userSpaceOnUse"
       gradientTransform="matrix(1.0010487,0,0,1.0010383,-0.01775767,-0.29086231)" />
  </defs>
  <sodipodi:namedview
     id="base"
     pagecolor="#ffffff"
     bordercolor="#666666"
     borderopacity="1.0"
     inkscape:pageopacity="0.0"
     inkscape:pageshadow="2"
     inkscape:zoom="7.9195959"
     inkscape:cx="86.292484"
     inkscape:cy="17.903711"
     inkscape:document-units="mm"
     inkscape:current-layer="layer1"
     showgrid="false"
     inkscape:window-width="1600"
     inkscape:window-height="814"
     inkscape:window-x="0"
     inkscape:window-y="0"
     inkscape:window-maximized="1"
     units="px" />
  <metadata
     id="metadata1035">
    <rdf:RDF>
      <cc:Work
         rdf:about="">
        <dc:format>image/svg+xml</dc:format>
        <dc:type
           rdf:resource="http://purl.org/dc/dcmitype/StillImage" />
        <dc:title />
      </cc:Work>
    </rdf:RDF>
  </metadata>
  <g
     inkscape:label="Layer 1"
     inkscape:groupmode="layer"
     id="layer1"
     transform="translate(0,-263.13332)">
    <path
       style="opacity:0.25;fill:#000000;fill-opacity:1;stroke:none;stroke-width:1.87499988;stroke-miterlimit:4;stroke-dasharray:none;stroke-opacity:1"
       d="M 4.5713723,264.09818 V 296.7104 H 29.295294 v -18.3 c -0.04716,-0.8313 -0.101653,-1.57532 -0.312496,-2.32966 -0.21448,-0.76736 -0.552469,-1.49394 -0.956412,-2.18925 -0.516871,-0.8897 -1.39035,-1.46334 -2.166671,-2.19248 -0.47098,-0.42711 -1.488209,-1.44169 -2.719481,-2.65304 -1.221196,-1.20143 -2.653456,-2.59692 -3.849171,-3.68107 -0.35316,-0.3187 -0.866164,-0.64943 -1.342771,-0.84044 -0.370088,-0.14831 -0.80547,-0.24063 -1.22583,-0.30267 -0.433449,-0.064 -0.850926,-0.0958 -1.164384,-0.12361 z"
       id="path5023"
       inkscape:connector-curvature="0"
       sodipodi:nodetypes="ccccascscsscc" />
    <path
       sodipodi:nodetypes="ccccascscsscc"
       inkscape:connector-curvature="0"
       id="path4623-8"
       d="m 4.5713723,263.5729 v 32.61222 H 29.295294 v -18.3 c -0.04716,-0.83129 -0.101653,-1.57532 -0.312496,-2.32966 -0.21448,-0.76736 -0.552469,-1.49394 -0.956412,-2.18925 -0.516871,-0.88969 -1.39035,-1.46334 -2.166671,-2.19247 -0.47098,-0.42712 -1.488209,-1.4417 -2.719481,-2.65305 -1.221196,-1.20142 -2.653456,-2.59692 -3.849171,-3.68107 -0.35316,-0.3187 -0.866164,-0.64944 -1.342771,-0.84044 -0.370088,-0.14831 -0.80547,-0.24063 -1.22583,-0.30267 -0.433449,-0.064 -0.850926,-0.0958 -1.164384,-0.12361 z"
       style="opacity:1;fill:url(#linearGradient1503);fill-opacity:1;stroke:#808080;stroke-width:0.30000001;stroke-miterlimit:4;stroke-dasharray:none;stroke-opacity:1" />
    <g
       id="g2321"
       transform="translate(-82.262435,0.48151782)">
      <path
         transform="matrix(0.26458333,0,0,0.26458333,0,263.13332)"
         id="path2305"
         d="m 387.07812,73.617188 c -0.13783,-0.0012 -0.42584,0.37647 -0.77734,1.021484 -1.80748,3.317745 -4.02554,5.801021 -6.67578,7.470703 -0.59637,0.375723 -1.086,0.734954 -1.08789,0.798828 -0.006,0.277833 2.96556,-0.3732 5.08984,-1.115234 1.73647,-0.606614 3.89818,-1.70835 5.66016,-2.884766 1.5781,-1.053581 2.94922,-2.169461 2.94922,-2.400391 0,-0.339968 -4.54165,-2.886845 -5.15821,-2.890624 z"
         style="fill:#63b2f4;fill-opacity:1;stroke-width:3.7795279"
         inkscape:connector-curvature="0" />
      <path
         transform="matrix(0.26458333,0,0,0.26458333,0,263.13332)"
         id="path2303"
         d="m 362.88867,73.488281 c -0.61823,0.0096 -4.12199,1.80914 -4.99609,2.566407 l -0.47461,0.412109 0.77734,0.697265 c 0.93403,0.840076 3.03188,2.268327 4.54688,3.095704 1.92266,1.050066 4.54589,1.999595 6.96679,2.523437 0.96376,0.20863 1.71282,0.255579 1.71094,0.107422 -6.1e-4,-0.05446 -0.42531,-0.359184 -0.94336,-0.679687 -2.70682,-1.673764 -5.18458,-4.445803 -6.77148,-7.572266 -0.40192,-0.791925 -0.65929,-1.153225 -0.81641,-1.150391 z"
         style="fill:#63b2f4;fill-opacity:1;stroke-width:3.7795279"
         inkscape:connector-curvature="0" />
      <path
         transform="matrix(0.26458333,0,0,0.26458333,0,263.13332)"
         id="path2301"
         d="m 373.52539,71.613281 c -0.21232,-0.07106 -3.24886,0.130701 -4.34375,0.289063 -1.74694,0.252623 -3.15511,0.556674 -3.39258,0.732422 -0.21621,0.159911 -0.20092,0.225953 0.22071,1.005859 1.53071,2.831395 3.64999,5.132037 6.04101,6.560547 v 0.002 c 0.62214,0.371565 1.23942,0.675781 1.3711,0.675781 0.22692,0 0.23828,-0.243668 0.23828,-4.611328 0,-3.038098 -0.0455,-4.624061 -0.13477,-4.654297 z"
         style="fill:#63b2f4;fill-opacity:1;stroke-width:3.7795279"
         inkscape:connector-curvature="0" />
      <path
         transform="matrix(0.26458333,0,0,0.26458333,0,263.13332)"
         id="path2299"
         d="m 376.29492,71.595703 v 4.640625 c 0,4.397594 0.0134,4.640625 0.24024,4.640625 0.3765,0 2.3888,-1.259775 3.36914,-2.109375 1.51245,-1.310664 2.87097,-3.019426 4.02539,-5.064453 0.36737,-0.650117 0.4066,-0.797848 0.2539,-0.943359 -0.37882,-0.361285 -3.86316,-0.958568 -6.33984,-1.085938 z"
         style="fill:#63b2f4;fill-opacity:1;stroke-width:3.7795279"
         inkscape:connector-curvature="0" />
      <path
         transform="matrix(0.26458333,0,0,0.26458333,0,263.13332)"
         id="path2297"
         d="m 389.93164,58.630859 -0.0879,1.451172 c -0.23516,3.902211 -0.81685,7.331946 -1.71094,10.080078 -0.17461,0.541569 -0.2273,0.881695 -0.14453,0.964844 0.0704,0.07056 0.68488,0.379847 1.36524,0.6875 1.39846,0.632693 2.73867,1.399882 3.80468,2.175781 0.39855,0.289966 0.82488,0.531504 0.94922,0.539063 0.51923,0.026 2.9045,-3.373808 4.11524,-5.865235 1.43266,-2.948182 2.39845,-6.495945 2.48046,-9.109374 l 0.0313,-0.923829 h -5.40235 z"
         style="fill:#63b2f4;fill-opacity:1;stroke-width:3.7795279"
         inkscape:connector-curvature="0" />
      <path
         transform="matrix(0.26458333,0,0,0.26458333,0,263.13332)"
         id="path2295"
         d="m 349.08984,58.630859 0.0293,0.923829 c 0.13643,4.354393 2.39963,10.071942 5.52539,13.96289 0.39379,0.490167 0.79928,0.890625 0.90235,0.890625 0.10307,0 0.67901,-0.319492 1.27929,-0.710937 1.43609,-0.936492 2.55618,-1.545159 3.92383,-2.128907 0.6159,-0.262979 1.16119,-0.519289 1.21289,-0.570312 0.0517,-0.05102 -0.0517,-0.566554 -0.23047,-1.146485 -0.77986,-2.529977 -1.29144,-5.517224 -1.54883,-9.044921 l -0.1582,-2.175782 h -5.4668 z"
         style="fill:#63b2f4;fill-opacity:1;stroke-width:3.7795279"
         inkscape:connector-curvature="0" />
      <path
         transform="matrix(0.26458333,0,0,0.26458333,0,263.13332)"
         id="path2293"
         d="m 368.18945,58.564453 c -4.76484,0 -5.48212,0.02498 -5.54883,0.199219 -0.1266,0.330633 0.21598,4.092398 0.5586,6.138672 0.31708,1.893732 0.83439,4.020558 1.17969,4.851562 0.0981,0.235956 0.20923,0.429688 0.24804,0.429688 0.0388,0 0.94574,-0.17431 2.01563,-0.386719 1.87392,-0.372321 3.41747,-0.566817 5.86523,-0.742187 l 1.15235,-0.08398 v -5.203125 -5.203125 z"
         style="fill:#63b2f4;fill-opacity:1;stroke-width:3.7795279"
         inkscape:connector-curvature="0" />
      <path
         transform="matrix(0.26458333,0,0,0.26458333,0,263.13332)"
         id="path2291"
         d="m 376.29492,58.560547 v 5.207031 5.208984 l 0.69141,0.06641 c 0.38041,0.03742 1.43412,0.133962 2.33984,0.214843 1.49325,0.133335 5.48876,0.84019 5.65039,1 0.37206,0.372889 0.9116,-1.002606 1.51367,-3.861328 0.43488,-2.065663 0.72991,-4.481899 0.77149,-6.316406 l 0.0352,-1.451172 -5.50196,-0.0332 z"
         style="fill:#63b2f4;fill-opacity:1;stroke-width:3.7795279"
         inkscape:connector-curvature="0" />
      <path
         transform="matrix(0.26458333,0,0,0.26458333,0,263.13332)"
         id="path2289"
         d="m 364.41406,44.964844 c -0.27952,0 -1.18099,3.956363 -1.47851,6.490234 -0.25678,2.186419 -0.38392,4.160377 -0.2793,4.330078 0.0574,0.09336 1.87563,0.138672 5.54492,0.138672 h 5.45899 v -4.873047 -4.873047 l -1.28321,-0.08398 c -2.1408,-0.140787 -4.65944,-0.462262 -6.30664,-0.804688 -0.85836,-0.178393 -1.60322,-0.324218 -1.65625,-0.324218 z m 21.10547,0.0098 c -0.20661,-0.131697 -0.52477,-0.04741 -1.16797,0.117188 -1.21837,0.311773 -3.94661,0.743721 -5.42187,0.859375 -0.54342,0.04271 -1.35768,0.110705 -1.81055,0.15039 l -0.82422,0.07227 v 4.876953 4.875 l 5.5,-0.03516 5.50196,-0.0332 -0.0352,-1.453125 c -0.0573,-2.433109 -0.57134,-5.83744 -1.2461,-8.251953 -0.19536,-0.698948 -0.28948,-1.046037 -0.49609,-1.177735 z"
         style="fill:#63b2f4;fill-opacity:1;stroke-width:3.7795279"
         inkscape:connector-curvature="0" />
      <path
         transform="matrix(0.26458333,0,0,0.26458333,0,263.13332)"
         id="path2287"
         d="m 355.29492,40.660156 c -0.26429,-0.101631 -0.74899,0.460216 -1.93359,2.242188 -2.40687,3.620598 -3.80275,7.516067 -4.27344,11.923828 -0.048,0.44999 -0.0477,0.881504 0,0.958984 0.0596,0.09865 1.78256,0.128146 5.51172,0.105469 l 5.42578,-0.0332 0.1582,-2.15625 c 0.23334,-3.197858 0.51986,-5.010292 1.24805,-7.859375 0.3349,-1.3104 0.37244,-1.592831 0.22266,-1.728516 -0.0984,-0.08912 -0.65471,-0.354001 -1.23438,-0.589843 -1.29603,-0.527509 -2.72322,-1.29778 -3.98437,-2.148438 -0.52556,-0.354557 -1.03964,-0.675915 -1.14063,-0.714844 z"
         style="fill:#63b2f4;fill-opacity:1;stroke-width:3.7795279"
         inkscape:connector-curvature="0" />
      <path
         transform="matrix(0.26458333,0,0,0.26458333,0,263.13332)"
         id="path2285"
         d="m 394.57227,40.474609 c -0.0763,0 -0.64705,0.347939 -1.26954,0.773438 -1.37147,0.937436 -2.75917,1.699882 -4.14062,2.275391 -1.19875,0.499388 -1.16341,0.341322 -0.56836,2.5 0.51719,1.876422 0.98756,4.879942 1.15234,7.363281 0.0805,1.213946 0.16886,2.281582 0.19532,2.373047 0.0382,0.131111 1.18643,0.157316 5.41992,0.130859 l 5.37305,-0.0332 -0.0313,-0.859375 c -0.12045,-3.402747 -1.64698,-8.007802 -3.7871,-11.419922 -0.91752,-1.462904 -2.15705,-3.103516 -2.34375,-3.103516 z"
         style="fill:#63b2f4;fill-opacity:1;stroke-width:3.7795279"
         inkscape:connector-curvature="0" />
      <path
         transform="matrix(0.26458333,0,0,0.26458333,0,263.13332)"
         id="path2283"
         d="m 376.5293,33.742188 c -0.21974,0 -0.23438,0.294709 -0.23438,4.904296 v 4.90625 l 1.67969,-0.08594 c 2.46848,-0.126123 6.21937,-0.752142 6.49414,-1.083985 0.18111,-0.218683 -0.47562,-1.546728 -1.56836,-3.169921 -0.98649,-1.465399 -1.96208,-2.558641 -3.16016,-3.541016 -1.01355,-0.83108 -2.84205,-1.929687 -3.21093,-1.929687 z"
         style="fill:#63b2f4;fill-opacity:1;stroke-width:3.7795279"
         inkscape:connector-curvature="0" />
      <path
         transform="matrix(0.26458333,0,0,0.26458333,0,263.13332)"
         id="path2281"
         d="m 374.91406,23.744141 a 33.592832,33.592832 0 0 0 -2.37695,0.08398 33.592832,33.592832 0 0 0 -3.33399,0.404297 33.592832,33.592832 0 0 0 -3.27539,0.736328 33.592832,33.592832 0 0 0 -3.1875,1.058594 33.592832,33.592832 0 0 0 -3.06445,1.371094 33.592832,33.592832 0 0 0 -2.91211,1.671874 33.592832,33.592832 0 0 0 -2.73242,1.953126 33.592832,33.592832 0 0 0 -2.52148,2.214843 33.592832,33.592832 0 0 0 -2.28907,2.457031 33.592832,33.592832 0 0 0 -2.0332,2.673829 33.592832,33.592832 0 0 0 -1.75391,2.863281 33.592832,33.592832 0 0 0 -1.46093,3.023437 33.592832,33.592832 0 0 0 -1.15235,3.154297 33.592832,33.592832 0 0 0 -0.83008,3.253906 33.592832,33.592832 0 0 0 -0.50195,3.320313 33.592832,33.592832 0 0 0 -0.16797,3.353516 33.592832,33.592832 0 0 0 0.084,2.375 33.592832,33.592832 0 0 0 0.40429,3.333984 33.592832,33.592832 0 0 0 0.73633,3.277344 33.592832,33.592832 0 0 0 1.0586,3.185547 33.592832,33.592832 0 0 0 1.37109,3.064453 33.592832,33.592832 0 0 0 1.67187,2.914062 33.592832,33.592832 0 0 0 1.95313,2.730469 33.592832,33.592832 0 0 0 2.21484,2.523438 33.592832,33.592832 0 0 0 2.45703,2.289062 33.592832,33.592832 0 0 0 2.67383,2.03125 33.592832,33.592832 0 0 0 2.86328,1.755859 33.592832,33.592832 0 0 0 3.02344,1.458985 33.592832,33.592832 0 0 0 3.1543,1.152344 33.592832,33.592832 0 0 0 3.2539,0.830078 33.592832,33.592832 0 0 0 3.31836,0.501953 33.592832,33.592832 0 0 0 3.35547,0.167969 33.592832,33.592832 0 0 0 2.375,-0.08398 33.592832,33.592832 0 0 0 3.33399,-0.404297 33.592832,33.592832 0 0 0 3.27539,-0.736328 33.592832,33.592832 0 0 0 3.1875,-1.058594 33.592832,33.592832 0 0 0 3.06445,-1.371093 33.592832,33.592832 0 0 0 2.91406,-1.669922 33.592832,33.592832 0 0 0 2.73047,-1.953125 33.592832,33.592832 0 0 0 2.52344,-2.216797 33.592832,33.592832 0 0 0 2.28906,-2.457031 33.592832,33.592832 0 0 0 2.03125,-2.673828 33.592832,33.592832 0 0 0 1.75586,-2.861329 33.592832,33.592832 0 0 0 1.45899,-3.02539 33.592832,33.592832 0 0 0 1.15234,-3.154297 33.592832,33.592832 0 0 0 0.83008,-3.251953 33.592832,33.592832 0 0 0 0.50195,-3.320313 33.592832,33.592832 0 0 0 0.16797,-3.353515 33.592832,33.592832 0 0 0 -0.084,-2.376953 33.592832,33.592832 0 0 0 -0.4043,-3.333985 33.592832,33.592832 0 0 0 -0.73633,-3.275391 33.592832,33.592832 0 0 0 -1.05859,-3.1875 33.592832,33.592832 0 0 0 -1.3711,-3.064453 33.592832,33.592832 0 0 0 -1.67187,-2.912109 33.592832,33.592832 0 0 0 -1.95313,-2.732422 33.592832,33.592832 0 0 0 -2.21484,-2.521484 33.592832,33.592832 0 0 0 -2.45703,-2.289063 33.592832,33.592832 0 0 0 -2.67383,-2.033203 33.592832,33.592832 0 0 0 -2.86328,-1.753906 33.592832,33.592832 0 0 0 -3.02344,-1.460938 33.592832,33.592832 0 0 0 -3.1543,-1.152343 33.592832,33.592832 0 0 0 -3.25195,-0.830079 33.592832,33.592832 0 0 0 -3.32031,-0.501953 33.592832,33.592832 0 0 0 -3.35352,-0.167968 z m 0.0488,5.052734 c 7.24264,-0.0032 14.18889,2.741367 19.62109,7.917969 6.80013,6.480113 9.95735,16.05096 8.37891,25.396484 -2.09492,12.403351 -12.13241,21.985835 -24.625,23.507813 -8.48663,1.033927 -16.8473,-1.758611 -23.09766,-7.714844 -7.45911,-7.10812 -10.43957,-17.690871 -7.84765,-27.857422 2.49311,-9.778923 10.51614,-17.819714 20.27344,-20.318359 2.43471,-0.623471 4.88266,-0.93059 7.29687,-0.931641 z m -3.54101,2.880859 c 0,-0.141392 -1.4224,0.07132 -2.7793,0.416016 -4.08216,1.037065 -7.62866,2.905878 -10.88867,5.736328 -0.37951,0.329499 -0.69048,0.66975 -0.69141,0.757813 -0.003,0.315099 2.11356,1.619659 4.05273,2.496093 0.70475,0.318615 1.37153,0.57771 1.48243,0.578125 0.12434,3.78e-4 0.49308,-0.568217 0.96093,-1.484375 1.71208,-3.352705 4.00513,-5.931283 6.97266,-7.841796 0.4891,-0.31476 0.89063,-0.611337 0.89063,-0.658204 z m 7.24609,0.04297 c 0,0.06724 0.54657,0.484887 1.2168,0.927735 2.7154,1.794103 5.02221,4.489122 6.67968,7.80664 0.52226,1.044359 0.56792,1.096822 0.9043,1.013672 1.12959,-0.278854 4.93917,-2.445161 5.11719,-2.910156 0.0505,-0.131755 -0.14141,-0.393025 -0.55274,-0.75586 -2.39901,-2.116346 -5.51026,-3.958218 -8.40625,-4.974609 -2.0708,-0.726803 -4.95898,-1.371989 -4.95898,-1.107422 z m -5.24024,2.021485 c -0.36839,0 -2.19619,1.096968 -3.20703,1.925781 -1.60087,1.31263 -3.23991,3.392963 -4.33203,5.498047 -0.46233,0.891061 -0.55914,1.178388 -0.43555,1.302734 0.32926,0.331389 4.13761,0.915922 7.0879,1.087891 0.36229,0.01984 0.73749,0.01877 0.83398,-0.0039 0.0965,-0.0223 0.20023,-0.04102 0.23047,-0.04102 0.0302,0 0.0547,-2.197862 0.0547,-4.884766 0,-4.590161 -0.0128,-4.884765 -0.23243,-4.884765 z"
         style="fill:#63b2f4;fill-opacity:1;stroke-width:3.7795279"
         inkscape:connector-curvature="0" />
      <path
         transform="matrix(0.26458333,0,0,0.26458333,0,263.13332)"
         id="path4466"
         d="m 370.49805,22.566406 c -4.60019,0.629934 -9.08701,2.13523 -12.88477,4.324219 -9.56385,5.512479 -15.8695,14.951294 -17.36719,25.996094 -0.30164,2.224138 -0.30059,6.59507 0.002,8.845703 1.08069,8.038753 4.58472,15.016038 10.375,20.666016 2.76833,2.701266 5.31785,4.511519 8.81836,6.257812 4.10099,2.045896 8.43075,3.237524 12.94921,3.564453 v -0.002 c 2.14025,0.15685 2.71718,0.158364 4.76172,0.01172 4.87317,-0.349909 9.00666,-1.467057 13.23047,-3.574219 3.50053,-1.746293 6.052,-3.556546 8.82031,-6.257812 5.78631,-5.646086 9.28423,-12.613468 10.375,-20.666016 0.3035,-2.239181 0.3035,-6.606522 0,-8.845703 -0.88614,-6.541947 -3.39672,-12.440765 -7.48046,-17.578125 -5.5389,-6.968013 -13.61898,-11.488896 -22.77149,-12.742188 -2.2379,-0.306519 -6.59021,-0.306519 -8.82812,0 z m 4.41601,1.177735 a 33.592832,33.592832 0 0 1 3.35352,0.167968 33.592832,33.592832 0 0 1 3.32031,0.501953 33.592832,33.592832 0 0 1 3.25195,0.830079 33.592832,33.592832 0 0 1 3.1543,1.152343 33.592832,33.592832 0 0 1 3.02344,1.460938 33.592832,33.592832 0 0 1 2.86328,1.753906 33.592832,33.592832 0 0 1 2.67383,2.033203 33.592832,33.592832 0 0 1 2.45703,2.289063 33.592832,33.592832 0 0 1 2.21484,2.521484 33.592832,33.592832 0 0 1 1.95313,2.732422 33.592832,33.592832 0 0 1 1.67187,2.912109 33.592832,33.592832 0 0 1 1.3711,3.064453 33.592832,33.592832 0 0 1 1.05859,3.1875 33.592832,33.592832 0 0 1 0.73633,3.275391 33.592832,33.592832 0 0 1 0.4043,3.333985 33.592832,33.592832 0 0 1 0.084,2.376953 33.592832,33.592832 0 0 1 -0.16797,3.353515 33.592832,33.592832 0 0 1 -0.50195,3.320313 33.592832,33.592832 0 0 1 -0.83008,3.251953 33.592832,33.592832 0 0 1 -1.15234,3.154297 33.592832,33.592832 0 0 1 -1.45899,3.02539 33.592832,33.592832 0 0 1 -1.75586,2.861329 33.592832,33.592832 0 0 1 -2.03125,2.673828 33.592832,33.592832 0 0 1 -2.28906,2.457031 33.592832,33.592832 0 0 1 -2.52344,2.216797 33.592832,33.592832 0 0 1 -2.73047,1.953125 33.592832,33.592832 0 0 1 -2.91406,1.669922 33.592832,33.592832 0 0 1 -3.06445,1.371093 33.592832,33.592832 0 0 1 -3.1875,1.058594 33.592832,33.592832 0 0 1 -3.27539,0.736328 33.592832,33.592832 0 0 1 -3.33399,0.404297 33.592832,33.592832 0 0 1 -2.375,0.08398 33.592832,33.592832 0 0 1 -3.35547,-0.167969 33.592832,33.592832 0 0 1 -3.31836,-0.501953 33.592832,33.592832 0 0 1 -3.2539,-0.830078 33.592832,33.592832 0 0 1 -3.1543,-1.152344 33.592832,33.592832 0 0 1 -3.02344,-1.458985 33.592832,33.592832 0 0 1 -2.86328,-1.755859 33.592832,33.592832 0 0 1 -2.67383,-2.03125 33.592832,33.592832 0 0 1 -2.45703,-2.289062 33.592832,33.592832 0 0 1 -2.21484,-2.523438 33.592832,33.592832 0 0 1 -1.95313,-2.730469 33.592832,33.592832 0 0 1 -1.67187,-2.914062 33.592832,33.592832 0 0 1 -1.37109,-3.064453 33.592832,33.592832 0 0 1 -1.0586,-3.185547 33.592832,33.592832 0 0 1 -0.73633,-3.277344 33.592832,33.592832 0 0 1 -0.40429,-3.333984 33.592832,33.592832 0 0 1 -0.084,-2.375 33.592832,33.592832 0 0 1 0.16797,-3.353516 33.592832,33.592832 0 0 1 0.50195,-3.320313 33.592832,33.592832 0 0 1 0.83008,-3.253906 33.592832,33.592832 0 0 1 1.15235,-3.154297 33.592832,33.592832 0 0 1 1.46093,-3.023437 33.592832,33.592832 0 0 1 1.75391,-2.863281 33.592832,33.592832 0 0 1 2.0332,-2.673829 33.592832,33.592832 0 0 1 2.28907,-2.457031 33.592832,33.592832 0 0 1 2.52148,-2.214843 33.592832,33.592832 0 0 1 2.73242,-1.953126 33.592832,33.592832 0 0 1 2.91211,-1.671874 33.592832,33.592832 0 0 1 3.06445,-1.371094 33.592832,33.592832 0 0 1 3.1875,-1.058594 33.592832,33.592832 0 0 1 3.27539,-0.736328 33.592832,33.592832 0 0 1 3.33399,-0.404297 33.592832,33.592832 0 0 1 2.37695,-0.08398 z"
         style="fill:#317fc1;fill-opacity:1;stroke-width:3.7795279"
         inkscape:connector-curvature="0" />
    </g>
    <path
       sodipodi:nodetypes="ccccsccsc"
       inkscape:connector-curvature="0"
       id="path1355-3"
       d="m 19.751144,265.48426 c 0.01633,0.0263 0.561139,0.90462 0.727791,1.39886 0.451585,1.01234 0.25858,3.97236 0.250369,5.65885 0.02772,-0.19401 4.690513,-1.39583 7.111042,0.80464 -0.01547,-0.0273 -0.04888,-0.0804 -0.12512,-0.18628 -0.07235,-0.10046 -0.182749,-0.24915 -0.371644,-0.44224 -0.528108,-0.60452 -0.230926,-0.0845 -0.805409,-0.682 -0.496688,-0.45047 -1.569491,-1.52048 -2.867987,-2.79805 -1.241182,-1.22116 -2.686924,-2.62954 -3.919042,-3.75378 z"
       style="opacity:0.24800002;fill:#000000;fill-opacity:1;stroke:none;stroke-width:0.30000001;stroke-miterlimit:4;stroke-dasharray:none;stroke-opacity:1" />
    <path
       style="opacity:1;fill:#ffffff;fill-opacity:1;stroke:#808080;stroke-width:0.30000001;stroke-miterlimit:4;stroke-dasharray:none;stroke-opacity:1"
       d="m 19.42404,264.96145 c 0.01548,0.0249 0.53209,0.85773 0.690114,1.32635 0.428208,0.95987 0.292236,3.21802 0.28445,4.8171 0.428992,-0.0223 5.159507,-0.73701 7.328403,1.82407 -0.02928,-0.0506 -0.102779,-0.0927 -0.143771,-0.17312 -0.500768,-0.57318 -1.139582,-1.03373 -1.723521,-1.58216 -0.470975,-0.42712 -1.488241,-1.44167 -2.719516,-2.65302 -1.176928,-1.15787 -2.547826,-2.49325 -3.716159,-3.55922 z"
       id="path4753-0"
       inkscape:connector-curvature="0"
       sodipodi:nodetypes="ccccccsc" />
    <g
       style="stroke-width:4.08449793"
       inkscape:transform-center-y="-9.4924686"
       inkscape:transform-center-x="5.4653607"
       inkscape:label="Capa 1"
       id="layer1-4-9"
       transform="matrix(0.53602412,0,0,0.5372689,-234.93365,-13.785303)">
      <g
         style="stroke-width:4.08449793"
         id="layer1-3-65-0"
         inkscape:label="Capa 1"
         transform="translate(0.41988239,0.03484499)" />
    </g>
    <g
       style="stroke-width:4.08449793"
       inkscape:transform-center-y="-9.4924686"
       inkscape:transform-center-x="5.4653607"
       inkscape:label="Capa 1"
       id="layer1-4"
       transform="matrix(0.53602412,0,0,0.5372689,-234.93365,-13.760303)">
      <g
         style="stroke-width:4.08449793"
         id="layer1-3-65"
         inkscape:label="Capa 1"
         transform="translate(0.41988239,0.03484499)" />
    </g>
    <g
       aria-label="XML"
       style="font-style:normal;font-weight:normal;font-size:10.58333302px;line-height:1.25;font-family:sans-serif;letter-spacing:0px;word-spacing:0px;fill:#575757;fill-opacity:1;stroke:none;stroke-width:0.26458332"
       id="text848"
       transform="translate(-1.4998393)">
      <path
         d="m 14.187609,294.31528 h -0.863341 l 1.143083,-1.81109 -1.087617,-1.74356 h 0.887456 l 0.634243,1.15514 0.651123,-1.15514 h 0.858517 l -1.087616,1.71462 1.15514,1.84003 h -0.901926 l -0.675238,-1.21061 z"
         style="font-style:normal;font-variant:normal;font-weight:bold;font-stretch:normal;font-size:4.93888903px;font-family:Helvetica;-inkscape-font-specification:'Helvetica Bold';fill:#575757;fill-opacity:1;stroke-width:0.26458332"
         id="path850"
         inkscape:connector-curvature="0" />
      <path
         d="m 19.276015,290.76063 h 1.068324 v 3.55465 h -0.69212 v -2.40434 q 0,-0.10369 0.0024,-0.28938 0.0024,-0.18811 0.0024,-0.28939 l -0.672828,2.98311 h -0.721058 l -0.668004,-2.98311 q 0,0.10128 0.0024,0.28939 0.0024,0.18569 0.0024,0.28938 v 2.40434 h -0.69212 v -3.55465 h 1.080382 l 0.6463,2.795 z"
         style="font-style:normal;font-variant:normal;font-weight:bold;font-stretch:normal;font-size:4.93888903px;font-family:Helvetica;-inkscape-font-specification:'Helvetica Bold';fill:#575757;fill-opacity:1;stroke-width:0.26458332"
         id="path852"
         inkscape:connector-curvature="0" />
      <path
         d="m 21.03887,290.76063 h 0.742763 v 2.91558 h 1.760444 v 0.63907 H 21.03887 Z"
         style="font-style:normal;font-variant:normal;font-weight:bold;font-stretch:normal;font-size:4.93888903px;font-family:Helvetica;-inkscape-font-specification:'Helvetica Bold';fill:#575757;fill-opacity:1;stroke-width:0.26458332"
         id="path854"
         inkscape:connector-curvature="0" />
    </g>
  </g>
</svg>
