<?xml version="1.0" encoding="UTF-8" standalone="no"?>
<!-- Created with Inkscape (http://www.inkscape.org/) -->

<svg
   xmlns:osb="http://www.openswatchbook.org/uri/2009/osb"
   xmlns:dc="http://purl.org/dc/elements/1.1/"
   xmlns:cc="http://creativecommons.org/ns#"
   xmlns:rdf="http://www.w3.org/1999/02/22-rdf-syntax-ns#"
   xmlns:svg="http://www.w3.org/2000/svg"
   xmlns="http://www.w3.org/2000/svg"
   xmlns:xlink="http://www.w3.org/1999/xlink"
   xmlns:sodipodi="http://sodipodi.sourceforge.net/DTD/sodipodi-0.dtd"
   xmlns:inkscape="http://www.inkscape.org/namespaces/inkscape"
   width="128"
   height="128"
   viewBox="0 0 33.866666 33.866668"
   version="1.1"
   id="svg1038"
   inkscape:version="0.92.2 5c3e80d, 2017-08-06"
   sodipodi:docname="USER.svg">
  <defs
     id="defs1032">
    <linearGradient
       osb:paint="solid"
       id="linearGradient6987">
      <stop
         id="stop6985"
         offset="0"
         style="stop-color:#77d2fb;stop-opacity:1;" />
    </linearGradient>
    <linearGradient
       id="linearGradient1830">
      <stop
         offset="0"
         style="stop-color:#d9d9d9;stop-opacity:1"
         id="stop1826" />
      <stop
         offset="1"
         style="stop-color:#ffffff;stop-opacity:1;"
         id="stop1828" />
    </linearGradient>
    <linearGradient
       inkscape:collect="always"
       xlink:href="#linearGradient1830"
       id="linearGradient1503"
       x1="29.203474"
       y1="263.52237"
       x2="4.5843229"
       y2="296.16849"
       gradientUnits="userSpaceOnUse"
       gradientTransform="matrix(1.0010487,0,0,1.0010383,-0.01775767,-0.29086231)" />
  </defs>
  <sodipodi:namedview
     id="base"
     pagecolor="#ffffff"
     bordercolor="#666666"
     borderopacity="1.0"
     inkscape:pageopacity="0.0"
     inkscape:pageshadow="2"
     inkscape:zoom="1.979899"
     inkscape:cx="165.28731"
     inkscape:cy="104.16944"
     inkscape:document-units="mm"
     inkscape:current-layer="layer1"
     showgrid="false"
     inkscape:window-width="1600"
     inkscape:window-height="814"
     inkscape:window-x="0"
     inkscape:window-y="0"
     inkscape:window-maximized="1"
     units="px" />
  <metadata
     id="metadata1035">
    <rdf:RDF>
      <cc:Work
         rdf:about="">
        <dc:format>image/svg+xml</dc:format>
        <dc:type
           rdf:resource="http://purl.org/dc/dcmitype/StillImage" />
        <dc:title />
      </cc:Work>
    </rdf:RDF>
  </metadata>
  <g
     inkscape:label="Layer 1"
     inkscape:groupmode="layer"
     id="layer1"
     transform="translate(0,-263.13332)">
    <path
       style="opacity:0.25;fill:#000000;fill-opacity:1;stroke:none;stroke-width:1.87499988;stroke-miterlimit:4;stroke-dasharray:none;stroke-opacity:1"
       d="M 4.5713723,264.09818 V 296.7104 H 29.295294 v -18.3 c -0.04716,-0.8313 -0.101653,-1.57532 -0.312496,-2.32966 -0.21448,-0.76736 -0.552469,-1.49394 -0.956412,-2.18925 -0.516871,-0.8897 -1.39035,-1.46334 -2.166671,-2.19248 -0.47098,-0.42711 -1.488209,-1.44169 -2.719481,-2.65304 -1.221196,-1.20143 -2.653456,-2.59692 -3.849171,-3.68107 -0.35316,-0.3187 -0.866164,-0.64943 -1.342771,-0.84044 -0.370088,-0.14831 -0.80547,-0.24063 -1.22583,-0.30267 -0.433449,-0.064 -0.850926,-0.0958 -1.164384,-0.12361 z"
       id="path5023"
       inkscape:connector-curvature="0"
       sodipodi:nodetypes="ccccascscsscc" />
    <path
       sodipodi:nodetypes="ccccascscsscc"
       inkscape:connector-curvature="0"
       id="path4623-8"
       d="m 4.5713723,263.5729 v 32.61222 H 29.295294 v -18.3 c -0.04716,-0.83129 -0.101653,-1.57532 -0.312496,-2.32966 -0.21448,-0.76736 -0.552469,-1.49394 -0.956412,-2.18925 -0.516871,-0.88969 -1.39035,-1.46334 -2.166671,-2.19247 -0.47098,-0.42712 -1.488209,-1.4417 -2.719481,-2.65305 -1.221196,-1.20142 -2.653456,-2.59692 -3.849171,-3.68107 -0.35316,-0.3187 -0.866164,-0.64944 -1.342771,-0.84044 -0.370088,-0.14831 -0.80547,-0.24063 -1.22583,-0.30267 -0.433449,-0.064 -0.850926,-0.0958 -1.164384,-0.12361 z"
       style="opacity:1;fill:url(#linearGradient1503);fill-opacity:1;stroke:#808080;stroke-width:0.30000001;stroke-miterlimit:4;stroke-dasharray:none;stroke-opacity:1" />
    <path
       sodipodi:nodetypes="ccccsccsc"
       inkscape:connector-curvature="0"
       id="path1355-3"
       d="m 19.751144,265.48426 c 0.01633,0.0263 0.561139,0.90462 0.727791,1.39886 0.451585,1.01234 0.25858,3.97236 0.250369,5.65885 0.02772,-0.19401 4.690513,-1.39583 7.111042,0.80464 -0.01547,-0.0273 -0.04888,-0.0804 -0.12512,-0.18628 -0.07235,-0.10046 -0.182749,-0.24915 -0.371644,-0.44224 -0.528108,-0.60452 -0.230926,-0.0845 -0.805409,-0.682 -0.496688,-0.45047 -1.569491,-1.52048 -2.867987,-2.79805 -1.241182,-1.22116 -2.686924,-2.62954 -3.919042,-3.75378 z"
       style="opacity:0.24800002;fill:#000000;fill-opacity:1;stroke:none;stroke-width:0.30000001;stroke-miterlimit:4;stroke-dasharray:none;stroke-opacity:1" />
    <path
       style="opacity:1;fill:#ffffff;fill-opacity:1;stroke:#808080;stroke-width:0.30000001;stroke-miterlimit:4;stroke-dasharray:none;stroke-opacity:1"
       d="m 19.42404,264.96145 c 0.01548,0.0249 0.53209,0.85773 0.690114,1.32635 0.428208,0.95987 0.292236,3.21802 0.28445,4.8171 0.428992,-0.0223 5.159507,-0.73701 7.328403,1.82407 -0.02928,-0.0506 -0.102779,-0.0927 -0.143771,-0.17312 -0.500768,-0.57318 -1.139582,-1.03373 -1.723521,-1.58216 -0.470975,-0.42712 -1.488241,-1.44167 -2.719516,-2.65302 -1.176928,-1.15787 -2.547826,-2.49325 -3.716159,-3.55922 z"
       id="path4753-0"
       inkscape:connector-curvature="0"
       sodipodi:nodetypes="ccccccsc" />
    <g
       style="stroke-width:4.08449793"
       inkscape:transform-center-y="-9.4924686"
       inkscape:transform-center-x="5.4653607"
       inkscape:label="Capa 1"
       id="layer1-4-9"
       transform="matrix(0.53602412,0,0,0.5372689,-234.93365,-13.785303)">
      <g
         style="stroke-width:4.08449793"
         id="layer1-3-65-0"
         inkscape:label="Capa 1"
         transform="translate(0.41988239,0.03484499)" />
    </g>
    <g
       style="stroke-width:4.08449793"
       inkscape:transform-center-y="-9.4924686"
       inkscape:transform-center-x="5.4653607"
       inkscape:label="Capa 1"
       id="layer1-4"
       transform="matrix(0.53602412,0,0,0.5372689,-234.93365,-13.760303)">
      <g
         style="stroke-width:4.08449793"
         id="layer1-3-65"
         inkscape:label="Capa 1"
         transform="translate(0.41988239,0.03484499)" />
    </g>
    <g
       id="g1533"
       transform="translate(0.18901845)"
       style="stroke:#4d4d4d;stroke-width:0.1;stroke-miterlimit:4;stroke-dasharray:none;stroke-opacity:1">
      <path
         sodipodi:nodetypes="cssscssssccscscscssssscssccccsscccssscsssssssccccc"
         inkscape:connector-curvature="0"
         id="path1527"
         d="m 12.581338,286.91048 c -0.02104,-0.0154 -0.02071,-0.0498 0.0023,-0.23224 0.0334,-0.2654 0.07354,-0.71044 0.09906,-1.09837 0.05235,-0.79582 0.05676,-0.82128 0.178304,-1.02933 0.08884,-0.15207 0.320908,-0.37624 0.543469,-0.52497 0.235522,-0.15739 0.72978,-0.40318 1.13092,-0.5624 0.164417,-0.0652 0.639939,-0.24183 1.05672,-0.39239 1.215257,-0.439 1.550264,-0.57434 1.749267,-0.70668 0.212414,-0.14126 0.349932,-0.30603 0.540966,-0.64814 0.131266,-0.23508 0.1759,-0.27599 0.395838,-0.36279 0.159906,-0.0631 0.181902,-0.0896 0.190773,-0.22971 0.011,-0.1734 -0.01602,-0.23315 -0.129794,-0.28729 -0.238441,-0.11346 -0.350387,-0.36056 -0.444759,-0.98168 -0.06915,-0.45511 -0.06063,-0.42795 -0.136288,-0.43436 -0.146392,-0.0124 -0.243113,-0.2 -0.37692,-0.73112 -0.130265,-0.51706 -0.200087,-0.98742 -0.170428,-1.14811 0.01941,-0.10518 0.07868,-0.17865 0.144121,-0.17865 0.0193,0 0.03989,-0.0126 0.04575,-0.028 0.0059,-0.0154 -0.02248,-0.25052 -0.06301,-0.52254 -0.08974,-0.6024 -0.137015,-1.02073 -0.152805,-1.35207 -0.02118,-0.44458 0.04044,-0.88188 0.162972,-1.15652 0.06634,-0.14869 0.231264,-0.36969 0.341005,-0.45695 0.144763,-0.1151 0.352295,-0.19901 0.493487,-0.19955 0.04878,-1.2e-4 0.06556,-0.014 0.12432,-0.10249 0.308764,-0.46488 1.367133,-0.74612 2.172489,-0.57729 0.724302,0.15183 1.380354,0.5191 1.77187,0.99195 0.422855,0.51068 0.593876,1.07064 0.597509,1.9564 0.0013,0.33255 -0.0065,0.45155 -0.05874,0.88693 -0.03317,0.27656 -0.05569,0.51497 -0.05004,0.52978 0.0056,0.0148 0.03379,0.0321 0.06253,0.0385 0.131415,0.029 0.183625,0.19063 0.149477,0.46264 -0.02181,0.17367 -0.172373,0.8853 -0.236533,1.11794 -0.04668,0.16927 -0.125214,0.32596 -0.188577,0.37625 -0.03875,0.0307 -0.06573,0.0375 -0.124271,0.0309 -0.0545,-0.006 -0.08176,-7.4e-4 -0.100526,0.0206 -0.0391,0.044 -0.07593,0.19304 -0.135211,0.54706 -0.111587,0.66639 -0.157923,0.77372 -0.433262,1.00352 -0.04268,0.0356 -0.04655,0.05 -0.04655,0.17333 0,0.17372 0.01944,0.21402 0.124398,0.25789 0.110143,0.046 0.203921,0.13291 0.379678,0.3517 0.263593,0.32813 0.534631,0.5629 0.852843,0.73872 0.193054,0.10668 0.811914,0.37979 1.145515,0.50555 0.131522,0.0496 0.487417,0.17673 0.790872,0.28256 0.751444,0.26207 0.950796,0.3396 1.2677,0.49299 0.467807,0.22645 0.757351,0.44411 0.923826,0.69447 0.146315,0.22004 0.158609,0.27655 0.208104,0.95684 0.05211,0.71619 0.09103,1.1733 0.116171,1.36455 0.01153,0.0875 0.01222,0.14718 0.002,0.15757 -0.02386,0.024 -14.883784,0.029 -14.916391,0.005 z"
         style="opacity:1;fill:#808080;fill-opacity:1;stroke-width:0.1;stroke:#4d4d4d;stroke-miterlimit:4;stroke-dasharray:none;stroke-opacity:1" />
      <path
         style="opacity:1;fill:#5e5e5e;fill-opacity:1;stroke-width:0.1;stroke:#4d4d4d;stroke-miterlimit:4;stroke-dasharray:none;stroke-opacity:1"
         d="m 5.9989513,286.91048 c -0.02105,-0.0154 -0.02071,-0.0498 0.0023,-0.23224 0.0334,-0.2654 0.07354,-0.71044 0.09906,-1.09837 0.05236,-0.79582 0.05676,-0.82128 0.178305,-1.02933 0.08884,-0.15207 0.320908,-0.37624 0.543469,-0.52497 0.235522,-0.15739 0.72978,-0.40318 1.13092,-0.5624 0.164417,-0.0652 0.639939,-0.24183 1.05672,-0.39239 1.2152567,-0.439 1.5502637,-0.57434 1.7492667,-0.70668 0.212413,-0.14126 0.349932,-0.30603 0.540966,-0.64814 0.131265,-0.23508 0.1759,-0.27599 0.395838,-0.36279 0.159906,-0.0631 0.181902,-0.0896 0.190773,-0.22971 0.011,-0.1734 -0.01602,-0.23315 -0.129794,-0.28729 -0.238442,-0.11346 -0.350387,-0.36056 -0.44476,-0.98168 -0.06915,-0.45511 -0.06063,-0.42795 -0.136287,-0.43436 -0.146392,-0.0124 -0.243113,-0.2 -0.37692,-0.73112 -0.130265,-0.51706 -0.200087,-0.98742 -0.170429,-1.14811 0.01941,-0.10518 0.07868,-0.17865 0.144122,-0.17865 0.0193,0 0.03989,-0.0126 0.04575,-0.028 0.0059,-0.0154 -0.02248,-0.25052 -0.06301,-0.52254 -0.08974,-0.6024 -0.137015,-1.02073 -0.152805,-1.35207 -0.02118,-0.44458 0.04044,-0.88188 0.162972,-1.15652 0.06634,-0.14869 0.231263,-0.36969 0.341005,-0.45695 0.144763,-0.1151 0.352296,-0.19901 0.493487,-0.19955 0.04878,-1.2e-4 0.06556,-0.014 0.12432,-0.10249 0.308764,-0.46488 1.367133,-0.74612 2.172489,-0.57729 0.724302,0.15183 1.380354,0.5191 1.77187,0.99195 0.422855,0.51068 0.593876,1.07064 0.59751,1.9564 0.0013,0.33255 -0.0065,0.45155 -0.05874,0.88693 -0.03317,0.27656 -0.05569,0.51497 -0.05004,0.52978 0.0056,0.0148 0.03379,0.0321 0.06252,0.0385 0.131416,0.029 0.183625,0.19063 0.149477,0.46264 -0.02181,0.17367 -0.172372,0.8853 -0.236533,1.11794 -0.04668,0.16927 -0.125213,0.32596 -0.188577,0.37625 -0.03875,0.0307 -0.06573,0.0375 -0.124271,0.0309 -0.05449,-0.006 -0.08176,-7.4e-4 -0.100526,0.0206 -0.0391,0.044 -0.07593,0.19304 -0.135211,0.54706 -0.111587,0.66639 -0.157922,0.77372 -0.433262,1.00352 -0.04268,0.0356 -0.04655,0.05 -0.04655,0.17333 0,0.17372 0.01944,0.21402 0.124398,0.25789 0.110142,0.046 0.20392,0.13291 0.379678,0.3517 0.263593,0.32813 0.534631,0.5629 0.852843,0.73872 0.193054,0.10668 0.811912,0.37979 1.145512,0.50555 0.131523,0.0496 0.487418,0.17673 0.790873,0.28256 0.751445,0.26207 0.950797,0.3396 1.267701,0.49299 0.467808,0.22645 0.75735,0.44411 0.923827,0.69447 0.146315,0.22004 0.158606,0.27655 0.208103,0.95684 0.05211,0.71619 0.09103,1.1733 0.116171,1.36455 0.01152,0.0875 0.01222,0.14718 0.002,0.15757 -0.02385,0.024 -14.8837827,0.029 -14.9163907,0.005 z"
         id="path1529"
         inkscape:connector-curvature="0"
         sodipodi:nodetypes="cssscssssccscscscssssscssccccsscccssscsssssssccccc" />
    </g>
  </g>
</svg>
