<?xml version="1.0" encoding="UTF-8" standalone="no"?>
<!-- Created with Inkscape (http://www.inkscape.org/) -->

<svg
   xmlns:osb="http://www.openswatchbook.org/uri/2009/osb"
   xmlns:dc="http://purl.org/dc/elements/1.1/"
   xmlns:cc="http://creativecommons.org/ns#"
   xmlns:rdf="http://www.w3.org/1999/02/22-rdf-syntax-ns#"
   xmlns:svg="http://www.w3.org/2000/svg"
   xmlns="http://www.w3.org/2000/svg"
   xmlns:xlink="http://www.w3.org/1999/xlink"
   xmlns:sodipodi="http://sodipodi.sourceforge.net/DTD/sodipodi-0.dtd"
   xmlns:inkscape="http://www.inkscape.org/namespaces/inkscape"
   width="128"
   height="128"
   viewBox="0 0 33.866666 33.866668"
   version="1.1"
   id="svg1038"
   inkscape:version="0.92.2 5c3e80d, 2017-08-06"
   sodipodi:docname="application-x-bittorrent.svg">
  <defs
     id="defs1032">
    <linearGradient
       inkscape:collect="always"
       id="linearGradient1134">
      <stop
         style="stop-color:#86ec84;stop-opacity:1"
         offset="0"
         id="stop1130" />
      <stop
         style="stop-color:#23b521;stop-opacity:1"
         offset="1"
         id="stop1132" />
    </linearGradient>
    <linearGradient
       osb:paint="solid"
       id="linearGradient6987">
      <stop
         id="stop6985"
         offset="0"
         style="stop-color:#77d2fb;stop-opacity:1;" />
    </linearGradient>
    <linearGradient
       id="linearGradient1830">
      <stop
         offset="0"
         style="stop-color:#d9d9d9;stop-opacity:1"
         id="stop1826" />
      <stop
         offset="1"
         style="stop-color:#ffffff;stop-opacity:1;"
         id="stop1828" />
    </linearGradient>
    <linearGradient
       gradientTransform="matrix(1.0010487,0,0,1.0010383,-0.017758,-0.26586565)"
       gradientUnits="userSpaceOnUse"
       y2="296.16849"
       x2="4.5843229"
       y1="263.52237"
       x1="29.203474"
       id="linearGradient1503"
       xlink:href="#linearGradient1830"
       inkscape:collect="always" />
    <linearGradient
       inkscape:collect="always"
       xlink:href="#linearGradient1134"
       id="linearGradient1136"
       x1="17.896078"
       y1="221.57764"
       x2="59.118687"
       y2="325.97311"
       gradientUnits="userSpaceOnUse"
       gradientTransform="translate(184.67917)" />
  </defs>
  <sodipodi:namedview
     id="base"
     pagecolor="#ffffff"
     bordercolor="#666666"
     borderopacity="1.0"
     inkscape:pageopacity="0.0"
     inkscape:pageshadow="2"
     inkscape:zoom="4"
     inkscape:cx="75.996747"
     inkscape:cy="56.32082"
     inkscape:document-units="mm"
     inkscape:current-layer="layer1"
     showgrid="false"
     inkscape:window-width="1600"
     inkscape:window-height="814"
     inkscape:window-x="0"
     inkscape:window-y="0"
     inkscape:window-maximized="1"
     units="px" />
  <metadata
     id="metadata1035">
    <rdf:RDF>
      <cc:Work
         rdf:about="">
        <dc:format>image/svg+xml</dc:format>
        <dc:type
           rdf:resource="http://purl.org/dc/dcmitype/StillImage" />
        <dc:title />
      </cc:Work>
    </rdf:RDF>
  </metadata>
  <g
     inkscape:label="Layer 1"
     inkscape:groupmode="layer"
     id="layer1"
     transform="translate(0,-263.13332)">
    <path
       style="opacity:0.25;fill:#000000;fill-opacity:1;stroke:none;stroke-width:1.87499988;stroke-miterlimit:4;stroke-dasharray:none;stroke-opacity:1"
       d="m 4.571372,264.12318 v 32.61222 h 24.723922 v -18.3 c -0.04716,-0.8313 -0.101653,-1.57532 -0.312496,-2.32966 -0.21448,-0.76736 -0.552469,-1.49394 -0.956412,-2.18925 -0.516871,-0.8897 -1.39035,-1.46334 -2.166671,-2.19248 -0.47098,-0.42711 -1.488209,-1.44169 -2.719481,-2.65304 -1.221196,-1.20143 -2.653456,-2.59692 -3.849171,-3.68107 -0.35316,-0.3187 -0.866164,-0.64943 -1.342771,-0.84044 -0.370088,-0.14831 -0.80547,-0.24063 -1.22583,-0.30267 -0.433449,-0.064 -0.850926,-0.0958 -1.164384,-0.12361 z"
       id="path5023"
       inkscape:connector-curvature="0"
       sodipodi:nodetypes="ccccascscsscc" />
    <path
       sodipodi:nodetypes="ccccascscsscc"
       inkscape:connector-curvature="0"
       id="path4623-8"
       d="m 4.571372,263.5979 v 32.61222 h 24.723922 v -18.3 c -0.04716,-0.83129 -0.101653,-1.57532 -0.312496,-2.32966 -0.21448,-0.76736 -0.552469,-1.49394 -0.956412,-2.18925 -0.516871,-0.88969 -1.39035,-1.46334 -2.166671,-2.19247 -0.47098,-0.42712 -1.488209,-1.4417 -2.719481,-2.65305 -1.221196,-1.20142 -2.653456,-2.59692 -3.849171,-3.68107 -0.35316,-0.3187 -0.866164,-0.64944 -1.342771,-0.84044 -0.370088,-0.14831 -0.80547,-0.24063 -1.22583,-0.30267 -0.433449,-0.064 -0.850926,-0.0958 -1.164384,-0.12361 z"
       style="opacity:1;fill:url(#linearGradient1503);fill-opacity:1;stroke:#808080;stroke-width:0.30000001;stroke-miterlimit:4;stroke-dasharray:none;stroke-opacity:1" />
    <g
       id="g1155"
       transform="matrix(0.13502114,0,0,0.13502114,-13.529961,243.18985)"
       style="stroke-width:7.40624714">
      <circle
         r="62.706253"
         cy="275.83334"
         cx="225.6187"
         id="path1115"
         style="opacity:1;fill:url(#linearGradient1136);fill-opacity:1;fill-rule:nonzero;stroke:#0fb425;stroke-width:2.22187448;stroke-linecap:round;stroke-miterlimit:4;stroke-dasharray:none;stroke-dashoffset:0;stroke-opacity:1" />
      <path
         style="opacity:0.25;fill:#000000;stroke-width:7.40624714"
         d="m 225.57429,223.99182 c -1.18913,-2.7e-4 -2.36992,0.0617 -3.87832,0.18603 -4.04375,0.33374 -10.19885,1.44721 -10.81123,1.95544 -0.29049,0.24108 -0.34814,2.15621 -0.30696,10.20196 0.0419,8.1783 -0.0132,9.9483 -0.31522,10.15132 -0.21101,0.14181 -3.69417,0.21597 -8.22947,0.17518 -5.62225,-0.0506 -7.95009,0.0151 -8.16591,0.231 -0.22611,0.2261 1.51405,2.21681 6.93239,7.93181 3.97871,4.19654 10.43585,11.02382 14.34951,15.17117 9.05087,9.59128 9.7899,10.31875 10.4774,10.31875 0.30947,0 1.02084,-0.44649 1.5813,-0.99219 0.56046,-0.5457 4.16154,-4.32594 8.00209,-8.40052 3.84055,-4.07458 10.40193,-11.0158 14.58102,-15.4249 4.17908,-4.4091 7.59851,-8.18934 7.59851,-8.40052 0,-0.32729 -1.2065,-0.38396 -8.17005,-0.38396 -6.65625,0 -8.22597,-0.0679 -8.47493,-0.36793 -0.22007,-0.26517 -0.29788,-3.12502 -0.27854,-10.22108 0.0148,-5.41911 -0.071,-9.94689 -0.19017,-10.0614 -0.45032,-0.43267 -6.98531,-1.57422 -10.77453,-1.88206 -1.54031,-0.12514 -2.73777,-0.18781 -3.92689,-0.1881 z"
         id="path1138"
         inkscape:connector-curvature="0"
         sodipodi:nodetypes="ccccccccsscscssccccc" />
      <path
         sodipodi:nodetypes="ccccccccsscscssccccc"
         inkscape:connector-curvature="0"
         id="path1094"
         d="m 225.57429,221.87514 c -1.18913,-2.7e-4 -2.36992,0.0617 -3.87832,0.18603 -4.04375,0.33374 -10.19885,1.44721 -10.81123,1.95544 -0.29049,0.24108 -0.34814,2.15621 -0.30696,10.20196 0.0419,8.1783 -0.0132,9.9483 -0.31522,10.15132 -0.21101,0.14181 -3.69417,0.21597 -8.22947,0.17518 -5.62225,-0.0506 -7.95009,0.0151 -8.16591,0.231 -0.22611,0.2261 1.51405,2.21681 6.93239,7.93181 3.97871,4.19654 10.43585,11.02382 14.34951,15.17117 9.05087,9.59128 9.7899,10.31875 10.4774,10.31875 0.30947,0 1.02084,-0.44649 1.5813,-0.99219 0.56046,-0.5457 4.16154,-4.32594 8.00209,-8.40052 3.84055,-4.07458 10.40193,-11.0158 14.58102,-15.4249 4.17908,-4.4091 7.59851,-8.18934 7.59851,-8.40052 0,-0.32729 -1.2065,-0.38396 -8.17005,-0.38396 -6.65625,0 -8.22597,-0.0679 -8.47493,-0.36793 -0.22007,-0.26517 -0.29788,-3.12502 -0.27854,-10.22108 0.0148,-5.41911 -0.071,-9.94689 -0.19017,-10.0614 -0.45032,-0.43267 -6.98531,-1.57422 -10.77453,-1.88206 -1.54031,-0.12514 -2.73777,-0.18781 -3.92689,-0.1881 z"
         style="fill:#ffffff;stroke-width:7.40624714" />
      <g
         id="g1144"
         transform="translate(314.54704,2.1166667)"
         style="opacity:0.25;fill:#000000;stroke-width:7.40624714">
        <path
           inkscape:connector-curvature="0"
           id="path1140"
           d="m -103.97651,282.71249 c -2.60178,0 -4.69636,2.09457 -4.69636,4.69635 v 29.56719 c 0,2.60178 2.09458,4.69635 4.69636,4.69635 h 30.09635 c 2.60178,0 4.696354,-2.09457 4.696354,-4.69635 v -29.56719 c 0,-2.60178 -2.094574,-4.69635 -4.696354,-4.69635 z m 0.99218,6.35 h 28.376566 v 20.30677 h -28.376566 z"
           style="opacity:1;fill:#000000;fill-opacity:1;fill-rule:nonzero;stroke:none;stroke-width:2.22187424;stroke-linecap:round;stroke-miterlimit:4;stroke-dasharray:none;stroke-dashoffset:0;stroke-opacity:1" />
        <path
           inkscape:connector-curvature="0"
           id="path1142"
           d="m -97.613511,329.55341 h 17.866966 l -4.443355,-4.5369 h -9.0738 z"
           style="fill:#000000;stroke:none;stroke-width:1.95956957px;stroke-linecap:butt;stroke-linejoin:miter;stroke-opacity:1" />
      </g>
      <g
         style="fill:#ffffff;stroke-width:7.40624714"
         transform="translate(314.54704)"
         id="g1128">
        <path
           style="opacity:1;fill:#ffffff;fill-opacity:1;fill-rule:nonzero;stroke:none;stroke-width:2.22187424;stroke-linecap:round;stroke-miterlimit:4;stroke-dasharray:none;stroke-dashoffset:0;stroke-opacity:1"
           d="m -103.97651,282.71249 c -2.60178,0 -4.69636,2.09457 -4.69636,4.69635 v 29.56719 c 0,2.60178 2.09458,4.69635 4.69636,4.69635 h 30.09635 c 2.60178,0 4.696354,-2.09457 4.696354,-4.69635 v -29.56719 c 0,-2.60178 -2.094574,-4.69635 -4.696354,-4.69635 z m 0.99218,6.35 h 28.376566 v 20.30677 h -28.376566 z"
           id="rect1119"
           inkscape:connector-curvature="0" />
        <path
           style="fill:#ffffff;stroke:none;stroke-width:1.95956957px;stroke-linecap:butt;stroke-linejoin:miter;stroke-opacity:1"
           d="m -97.613511,329.55341 h 17.866966 l -4.443355,-4.5369 h -9.0738 z"
           id="path1124"
           inkscape:connector-curvature="0" />
      </g>
    </g>
    <path
       sodipodi:nodetypes="ccccsccsc"
       inkscape:connector-curvature="0"
       id="path1355"
       d="m 19.751144,265.50926 c 0.01633,0.0263 0.561139,0.90462 0.727791,1.39886 0.451585,1.01234 0.25858,3.97236 0.250369,5.65885 0.02772,-0.19401 4.690513,-1.39583 7.111042,0.80464 -0.01547,-0.0273 -0.04888,-0.0804 -0.12512,-0.18628 -0.07235,-0.10046 -0.182749,-0.24915 -0.371644,-0.44224 -0.528108,-0.60452 -0.230926,-0.0845 -0.805409,-0.682 -0.496688,-0.45047 -1.569491,-1.52048 -2.867987,-2.79805 -1.241182,-1.22116 -2.686924,-2.62954 -3.919042,-3.75378 z"
       style="opacity:0.24800002;fill:#000000;fill-opacity:1;stroke:none;stroke-width:0.30000001;stroke-miterlimit:4;stroke-dasharray:none;stroke-opacity:1" />
    <path
       style="opacity:1;fill:#ffffff;fill-opacity:1;stroke:#808080;stroke-width:0.30000001;stroke-miterlimit:4;stroke-dasharray:none;stroke-opacity:1"
       d="m 19.42404,264.98645 c 0.01548,0.0249 0.53209,0.85773 0.690114,1.32635 0.428208,0.95987 0.292236,3.21802 0.28445,4.8171 0.428992,-0.0223 5.159507,-0.73701 7.328403,1.82407 -0.02928,-0.0506 -0.102779,-0.0927 -0.143771,-0.17312 -0.500768,-0.57318 -1.139582,-1.03373 -1.723521,-1.58216 -0.470975,-0.42712 -1.488241,-1.44167 -2.719516,-2.65302 -1.176928,-1.15787 -2.547826,-2.49325 -3.716159,-3.55922 z"
       id="path4753-0"
       inkscape:connector-curvature="0"
       sodipodi:nodetypes="ccccccsc" />
    <g
       style="stroke-width:4.08449793"
       inkscape:transform-center-y="-9.4924686"
       inkscape:transform-center-x="5.4653607"
       inkscape:label="Capa 1"
       id="layer1-4"
       transform="matrix(0.53602412,0,0,0.5372689,-234.93365,-13.760306)">
      <g
         style="stroke-width:4.08449793"
         id="layer1-3-65"
         inkscape:label="Capa 1"
         transform="translate(0.41988239,0.03484499)" />
    </g>
  </g>
</svg>
