<?xml version="1.0" encoding="UTF-8" standalone="no"?>
<!-- Created with Inkscape (http://www.inkscape.org/) -->

<svg
   xmlns:osb="http://www.openswatchbook.org/uri/2009/osb"
   xmlns:dc="http://purl.org/dc/elements/1.1/"
   xmlns:cc="http://creativecommons.org/ns#"
   xmlns:rdf="http://www.w3.org/1999/02/22-rdf-syntax-ns#"
   xmlns:svg="http://www.w3.org/2000/svg"
   xmlns="http://www.w3.org/2000/svg"
   xmlns:xlink="http://www.w3.org/1999/xlink"
   xmlns:sodipodi="http://sodipodi.sourceforge.net/DTD/sodipodi-0.dtd"
   xmlns:inkscape="http://www.inkscape.org/namespaces/inkscape"
   width="128"
   height="128"
   viewBox="0 0 33.866666 33.866668"
   version="1.1"
   id="svg8"
   inkscape:version="0.92.2 5c3e80d, 2017-08-06"
   sodipodi:docname="image-x-psd.svg">
  <defs
     id="defs2">
    <linearGradient
       id="linearGradient1830">
      <stop
         id="stop1826"
         style="stop-color:#d9d9d9;stop-opacity:1"
         offset="0" />
      <stop
         id="stop1828"
         style="stop-color:#ffffff;stop-opacity:1;"
         offset="1" />
    </linearGradient>
    <linearGradient
       osb:paint="solid"
       id="linearGradient6987">
      <stop
         id="stop6985"
         offset="0"
         style="stop-color:#77d2fb;stop-opacity:1;" />
    </linearGradient>
    <linearGradient
       inkscape:collect="always"
       xlink:href="#linearGradient1830"
       id="linearGradient1503-8"
       x1="29.203474"
       y1="263.52237"
       x2="4.5843229"
       y2="296.16849"
       gradientUnits="userSpaceOnUse"
       gradientTransform="matrix(1.0010487,0,0,1.0010383,-0.01775767,-0.29086231)" />
    <radialGradient
       gradientUnits="userSpaceOnUse"
       gradientTransform="matrix(-0.25698561,-0.044253,0.0195345,-0.11343731,86.227216,347.17749)"
       r="20.131"
       cy="399.14"
       cx="416.8"
       id="radialGradient7057">
      <stop
         offset="0"
         style="stop-color:#8ae234"
         id="stop9170" />
      <stop
         offset="1"
         style="stop-color:#4db07d;stop-opacity:.88235"
         id="stop9166" />
    </radialGradient>
    <linearGradient
       gradientUnits="userSpaceOnUse"
       gradientTransform="matrix(0.72382156,0,0,0.72382156,-35.454875,262.45843)"
       y2="15.299"
       y1="21.986"
       x2="27.56"
       x1="32.027"
       id="linearGradient7067">
      <stop
         offset="0"
         style="stop-color:#bcae3e"
         id="stop7607" />
      <stop
         offset=".5"
         style="stop-color:#3b9a6a"
         id="stop7609" />
      <stop
         offset="1"
         style="stop-color:#3d8891"
         id="stop7611" />
    </linearGradient>
    <radialGradient
       gradientUnits="userSpaceOnUse"
       gradientTransform="matrix(0.18961953,-0.20673068,0.21409918,0.19638003,-177.46822,291.22391)"
       r="27.077"
       cy="392.08"
       cx="416.65"
       id="radialGradient7065">
      <stop
         offset="0"
         style="stop-color:#fce94f"
         id="stop7210" />
      <stop
         offset=".5"
         style="stop-color:#66d09a"
         id="stop8189" />
      <stop
         offset="1"
         style="stop-color:#66c6d0"
         id="stop8187" />
    </radialGradient>
    <linearGradient
       gradientUnits="userSpaceOnUse"
       gradientTransform="matrix(0.72382156,0,0,0.72382156,-35.454875,262.45843)"
       y2="21.767"
       y1="7.2514"
       x2="20.404"
       x1="13.113"
       id="linearGradient7062">
      <stop
         offset="0"
         style="stop-color:#304456"
         id="stop7615" />
      <stop
         offset="1"
         style="stop-color:#6394be"
         id="stop7617" />
    </linearGradient>
    <linearGradient
       gradientUnits="userSpaceOnUse"
       gradientTransform="matrix(0.16630524,-0.02777738,0.02777738,0.16630524,-95.305059,226.39483)"
       y2="374.92"
       y1="311.79"
       x2="393.43"
       x1="375.63"
       id="linearGradient7060">
      <stop
         offset="0"
         style="stop-color:#204a87"
         id="stop7178" />
      <stop
         offset="1"
         style="stop-color:#97bcd4"
         id="stop7180" />
    </linearGradient>
  </defs>
  <sodipodi:namedview
     id="base"
     pagecolor="#ffffff"
     bordercolor="#666666"
     borderopacity="1.0"
     inkscape:pageopacity="0.0"
     inkscape:pageshadow="2"
     inkscape:zoom="2.5600001"
     inkscape:cx="59.445342"
     inkscape:cy="7.7277016"
     inkscape:document-units="mm"
     inkscape:current-layer="layer1"
     showgrid="false"
     units="px"
     inkscape:window-width="1600"
     inkscape:window-height="814"
     inkscape:window-x="0"
     inkscape:window-y="0"
     inkscape:window-maximized="1"
     showguides="false" />
  <metadata
     id="metadata5">
    <rdf:RDF>
      <cc:Work
         rdf:about="">
        <dc:format>image/svg+xml</dc:format>
        <dc:type
           rdf:resource="http://purl.org/dc/dcmitype/StillImage" />
        <dc:title />
      </cc:Work>
    </rdf:RDF>
  </metadata>
  <g
     inkscape:label="Layer 1"
     inkscape:groupmode="layer"
     id="layer1"
     transform="translate(0,-263.13332)">
    <path
       style="opacity:0.25;fill:#000000;fill-opacity:1;stroke:none;stroke-width:1.87499988;stroke-miterlimit:4;stroke-dasharray:none;stroke-opacity:1"
       d="M 4.5713723,264.09818 V 296.7104 H 29.295294 v -18.3 c -0.04716,-0.8313 -0.101653,-1.57532 -0.312496,-2.32966 -0.21448,-0.76736 -0.552469,-1.49394 -0.956412,-2.18925 -0.516871,-0.8897 -1.39035,-1.46334 -2.166671,-2.19248 -0.47098,-0.42711 -1.488209,-1.44169 -2.719481,-2.65304 -1.221196,-1.20143 -2.653456,-2.59692 -3.849171,-3.68107 -0.35316,-0.3187 -0.866164,-0.64943 -1.342771,-0.84044 -0.370088,-0.14831 -0.80547,-0.24063 -1.22583,-0.30267 -0.433449,-0.064 -0.850926,-0.0958 -1.164384,-0.12361 z"
       id="path5023-4"
       inkscape:connector-curvature="0"
       sodipodi:nodetypes="ccccascscsscc" />
    <path
       sodipodi:nodetypes="ccccascscsscc"
       inkscape:connector-curvature="0"
       id="path4623-8"
       d="m 4.5713723,263.5729 v 32.61222 H 29.295294 v -18.3 c -0.04716,-0.83129 -0.101653,-1.57532 -0.312496,-2.32966 -0.21448,-0.76736 -0.552469,-1.49394 -0.956412,-2.18925 -0.516871,-0.88969 -1.39035,-1.46334 -2.166671,-2.19247 -0.47098,-0.42712 -1.488209,-1.4417 -2.719481,-2.65305 -1.221196,-1.20142 -2.653456,-2.59692 -3.849171,-3.68107 -0.35316,-0.3187 -0.866164,-0.64944 -1.342771,-0.84044 -0.370088,-0.14831 -0.80547,-0.24063 -1.22583,-0.30267 -0.433449,-0.064 -0.850926,-0.0958 -1.164384,-0.12361 z"
       style="opacity:1;fill:url(#linearGradient1503-8);fill-opacity:1;stroke:#808080;stroke-width:0.30000001;stroke-miterlimit:4;stroke-dasharray:none;stroke-opacity:1" />
    <g
       id="g2060"
       transform="translate(34.19888,1.507)">
      <path
         style="fill:url(#radialGradient7057);fill-rule:evenodd;stroke:#4b8748;stroke-width:0.1984375"
         d="m -18.974457,281.64196 c 1.079073,1.38511 2.465771,1.59827 4.150683,1.57786 -0.11558,0.2668 -0.23116,0.5336 -0.34674,0.8004 0.32289,-0.38569 0.563589,-0.80474 1.097458,-0.75111 -0.330287,0.47527 -0.384523,0.78282 -0.509512,1.13336 0.638903,-0.57655 1.640541,-0.77449 2.448543,-1.0056 -0.214938,-0.32807 -0.541606,-0.56492 -0.756538,-0.89298 0.37389,-0.63757 0.533384,-1.50142 0.564147,-2.26658 -0.144642,0.39862 -0.356953,0.71785 -0.557517,0.99888 0.408967,-1.01567 0.09861,-1.68774 -0.24877,-2.53533 0.03791,0.40131 0.07583,0.80264 0.113741,1.20393 -0.322382,1.182 -0.692226,1.32235 -1.404286,2.04082 -1.175197,0.29207 -2.975992,0.55586 -4.551173,-0.30358 z"
         id="path8191"
         inkscape:connector-curvature="0" />
      <path
         style="fill:url(#radialGradient7065);fill-rule:evenodd;stroke:url(#linearGradient7067);stroke-width:0.1984375"
         d="m -23.614877,275.3867 c 0.07813,3.14073 2.762103,5.00081 5.249733,6.447 1.40653,0.52763 2.674521,0.38324 4.122092,0.20568 0.894281,-1.82924 0.520478,-3.34289 -0.264195,-5.15071 -0.488971,-0.70524 -0.611065,-1.43852 -0.718871,-2.26448 -0.564175,0.52622 -0.269023,1.39061 -0.282334,2.13361 -0.337373,-1.2622 -1.119969,-2.30812 -1.803329,-3.40333 -0.507898,-1.90778 -2.394112,-3.07502 -3.89568,-4.20353 2.463889,3.84994 3.049316,4.0466 1.998472,8.6504 -2.264476,0.82146 -3.709369,-0.32302 -4.405975,-2.41503 z"
         id="path27337"
         inkscape:connector-curvature="0" />
      <path
         style="fill:url(#linearGradient7060);fill-rule:evenodd;stroke:url(#linearGradient7062);stroke-width:0.1984375"
         d="m -25.907944,272.87431 c 0.562251,2.14085 2.092279,3.88439 4.151334,4.71432 0.921932,0.19535 1.840606,0.38343 2.582378,0.1648 -0.175707,-1.36143 0.119445,-2.6612 0.236871,-4.15024 0.06068,-1.28348 0.126488,-2.42191 -0.628125,-3.47435 -1.162023,-1.5678 -2.666921,-2.158 -4.417773,-2.04704 -0.426345,0.5951 -0.85353,1.09232 -1.177368,1.60399 -0.539182,0.85194 -0.955806,2.27722 -0.277795,3.19517 0.66711,0.62374 1.541233,1.2829 2.058042,1.35948 -0.783827,0.0534 -1.314316,-0.34554 -1.954246,-0.73808 -0.191104,-0.20938 -0.3822,-0.41875 -0.573303,-0.62811 z"
         id="path24402"
         inkscape:connector-curvature="0" />
      <path
         style="fill:#2a6a28;stroke-width:0.26458332"
         d="m -9.1963514,284.83184 c -1.1426966,-0.46919 -3.7831256,-1.77423 -4.5188906,-2.23349 -0.54993,-0.34325 -0.881108,-0.42541 -1.426652,-0.35397 -0.499227,0.0654 -0.577935,0.0498 -0.264709,-0.0526 0.245173,-0.0801 0.439143,-0.18533 0.431043,-0.23379 -0.0081,-0.0485 -0.494406,-0.48137 -1.080665,-0.96204 -3.797675,-3.11337 -6.660172,-7.26861 -7.461877,-10.83126 -0.152886,-0.6796 -0.206043,-1.0169 -0.118135,-0.74952 1.253152,3.81157 2.617484,6.14496 5.172791,8.84727 1.50772,1.59444 3.876643,3.42136 4.194039,3.23462 0.150801,-0.0887 0.206702,-0.0463 0.170866,0.12967 -0.06518,0.32004 1.698881,1.39169 3.839945,2.33273 0.8258807,0.363 1.5638168,0.76573 1.6398904,0.89486 0.1724722,0.29307 0.1922615,0.29384 -0.5777905,-0.0223 z"
         id="path24368"
         inkscape:connector-curvature="0" />
    </g>
    <path
       sodipodi:nodetypes="ccccsccsc"
       inkscape:connector-curvature="0"
       id="path1355-8"
       d="m 19.751144,265.48426 c 0.01633,0.0263 0.561139,0.90462 0.727791,1.39886 0.451585,1.01234 0.25858,3.97236 0.250369,5.65885 0.02772,-0.19401 4.690513,-1.39583 7.111042,0.80464 -0.01547,-0.0273 -0.04888,-0.0804 -0.12512,-0.18628 -0.07235,-0.10046 -0.182749,-0.24915 -0.371644,-0.44224 -0.528108,-0.60452 -0.230926,-0.0845 -0.805409,-0.682 -0.496688,-0.45047 -1.569491,-1.52048 -2.867987,-2.79805 -1.241182,-1.22116 -2.686924,-2.62954 -3.919042,-3.75378 z"
       style="opacity:0.24800002;fill:#000000;fill-opacity:1;stroke:none;stroke-width:0.30000001;stroke-miterlimit:4;stroke-dasharray:none;stroke-opacity:1" />
    <path
       style="opacity:1;fill:#ffffff;fill-opacity:1;stroke:#808080;stroke-width:0.30000001;stroke-miterlimit:4;stroke-dasharray:none;stroke-opacity:1"
       d="m 19.42404,264.96145 c 0.01548,0.0249 0.53209,0.85773 0.690114,1.32635 0.428208,0.95987 0.292236,3.21802 0.28445,4.8171 0.428992,-0.0223 5.159507,-0.73701 7.328403,1.82407 -0.02928,-0.0506 -0.102779,-0.0927 -0.143771,-0.17312 -0.500768,-0.57318 -1.139582,-1.03373 -1.723521,-1.58216 -0.470975,-0.42712 -1.488241,-1.44167 -2.719516,-2.65302 -1.176928,-1.15787 -2.547826,-2.49325 -3.716159,-3.55922 z"
       id="path4753-0"
       inkscape:connector-curvature="0"
       sodipodi:nodetypes="ccccccsc" />
    <g
       style="stroke-width:4.08449793"
       inkscape:transform-center-y="-9.4924686"
       inkscape:transform-center-x="5.4653607"
       inkscape:label="Capa 1"
       id="layer1-4-3"
       transform="matrix(0.53602412,0,0,0.5372689,-234.93365,-13.785303)">
      <g
         style="stroke-width:4.08449793"
         id="layer1-3-65-9"
         inkscape:label="Capa 1"
         transform="translate(0.41988239,0.03484499)" />
    </g>
    <g
       style="stroke-width:4.08449793"
       inkscape:transform-center-y="-9.4924686"
       inkscape:transform-center-x="5.4653607"
       inkscape:label="Capa 1"
       id="layer1-4"
       transform="matrix(0.53602412,0,0,0.5372689,-234.93365,-13.7603)">
      <g
         style="stroke-width:4.08449793"
         id="layer1-3-65"
         inkscape:label="Capa 1"
         transform="translate(0.41988239,0.03484499)" />
    </g>
    <g
       aria-label="PSD"
       style="font-style:normal;font-weight:normal;font-size:10.58333302px;line-height:1.25;font-family:sans-serif;letter-spacing:0px;word-spacing:0px;fill:#575757;fill-opacity:1;stroke:none;stroke-width:0.26458332"
       id="text855"
       transform="translate(-0.12826535)">
      <path
         d="m 14.252125,291.71697 q 0,-0.27733 -0.147106,-0.3955 -0.144694,-0.11816 -0.407554,-0.11816 h -0.69212 v 1.04662 h 0.69212 q 0.26286,0 0.407554,-0.12782 0.147106,-0.12781 0.147106,-0.40514 z m 0.735528,-0.005 q 0,0.62942 -0.318327,0.88986 -0.318327,0.26045 -0.909161,0.26045 h -0.75482 v 1.27813 h -0.73794 v -3.55465 h 1.548226 q 0.535368,0 0.853695,0.27492 0.318327,0.27492 0.318327,0.85129 z"
         style="font-style:normal;font-variant:normal;font-weight:bold;font-stretch:normal;font-size:4.93888903px;font-family:Helvetica;-inkscape-font-specification:'Helvetica Bold';fill:#575757;fill-opacity:1;stroke-width:0.26458332"
         id="path857"
         inkscape:connector-curvature="0" />
      <path
         d="m 16.087328,293.04333 q 0.03376,0.24357 0.132636,0.36415 0.180867,0.21945 0.619772,0.21945 0.262861,0 0.426848,-0.0579 0.311092,-0.11093 0.311092,-0.41237 0,-0.17605 -0.15434,-0.27251 -0.154341,-0.094 -0.484725,-0.1664 l -0.376205,-0.0844 q -0.55466,-0.12541 -0.766878,-0.27251 -0.359324,-0.24598 -0.359324,-0.76929 0,-0.47749 0.347266,-0.79341 0.347266,-0.31591 1.020093,-0.31591 0.561895,0 0.957392,0.29903 0.397908,0.29662 0.417201,0.86334 h -0.713824 q -0.01929,-0.32074 -0.279742,-0.45578 -0.173632,-0.0892 -0.43167,-0.0892 -0.286976,0 -0.458198,0.11575 -0.171221,0.11576 -0.171221,0.32315 0,0.19052 0.16881,0.28457 0.10852,0.0627 0.463021,0.1471 l 0.612538,0.14711 q 0.402731,0.0965 0.607714,0.25804 0.318327,0.2508 0.318327,0.72588 0,0.48714 -0.373793,0.81029 -0.371381,0.32073 -1.051443,0.32073 -0.694531,0 -1.09244,-0.31591 -0.397908,-0.31833 -0.397908,-0.87299 z m 0.721058,-2.56591 z"
         style="font-style:normal;font-variant:normal;font-weight:bold;font-stretch:normal;font-size:4.93888903px;font-family:Helvetica;-inkscape-font-specification:'Helvetica Bold';fill:#575757;fill-opacity:1;stroke-width:0.26458332"
         id="path859"
         inkscape:connector-curvature="0" />
      <path
         d="m 19.56963,291.20331 v 2.31992 h 0.684885 q 0.525722,0 0.733117,-0.51848 0.113343,-0.28457 0.113343,-0.67765 0,-0.54261 -0.171221,-0.83199 -0.16881,-0.2918 -0.675239,-0.2918 z m 0.810287,-0.61737 q 0.330384,0.005 0.549837,0.0772 0.373793,0.12298 0.605303,0.45096 0.185691,0.26527 0.253215,0.57395 0.06752,0.30868 0.06752,0.58842 0,0.709 -0.284565,1.20096 -0.385851,0.66318 -1.191314,0.66318 h -1.531345 v -3.55465 z"
         style="font-style:normal;font-variant:normal;font-weight:bold;font-stretch:normal;font-size:4.93888903px;font-family:Helvetica;-inkscape-font-specification:'Helvetica Bold';fill:#575757;fill-opacity:1;stroke-width:0.26458332"
         id="path861"
         inkscape:connector-curvature="0" />
    </g>
  </g>
</svg>
