<?xml version="1.0" encoding="UTF-8" standalone="no"?>
<!-- Created with Inkscape (http://www.inkscape.org/) -->

<svg
   xmlns:dc="http://purl.org/dc/elements/1.1/"
   xmlns:cc="http://creativecommons.org/ns#"
   xmlns:rdf="http://www.w3.org/1999/02/22-rdf-syntax-ns#"
   xmlns:svg="http://www.w3.org/2000/svg"
   xmlns="http://www.w3.org/2000/svg"
   xmlns:sodipodi="http://sodipodi.sourceforge.net/DTD/sodipodi-0.dtd"
   xmlns:inkscape="http://www.inkscape.org/namespaces/inkscape"
   width="128"
   height="128"
   viewBox="0 0 33.866666 33.866668"
   version="1.1"
   id="svg8"
   inkscape:version="0.92.2 5c3e80d, 2017-08-06"
   sodipodi:docname="drawing.svg">
  <defs
     id="defs2" />
  <sodipodi:namedview
     id="base"
     pagecolor="#ffffff"
     bordercolor="#666666"
     borderopacity="1.0"
     inkscape:pageopacity="0.0"
     inkscape:pageshadow="2"
     inkscape:zoom="2.8"
     inkscape:cx="41.368527"
     inkscape:cy="68.292309"
     inkscape:document-units="mm"
     inkscape:current-layer="layer1"
     showgrid="false"
     units="px"
     inkscape:window-width="1600"
     inkscape:window-height="814"
     inkscape:window-x="0"
     inkscape:window-y="0"
     inkscape:window-maximized="1" />
  <metadata
     id="metadata5">
    <rdf:RDF>
      <cc:Work
         rdf:about="">
        <dc:format>image/svg+xml</dc:format>
        <dc:type
           rdf:resource="http://purl.org/dc/dcmitype/StillImage" />
        <dc:title></dc:title>
      </cc:Work>
    </rdf:RDF>
  </metadata>
  <g
     inkscape:label="Layer 1"
     inkscape:groupmode="layer"
     id="layer1"
     transform="translate(0,-263.13332)">
    <rect
       ry="0.35154164"
       y="267.08228"
       x="0.36458328"
       height="26.516283"
       width="33.137501"
       id="rect6469"
       style="opacity:0.25;fill:#000000;fill-opacity:1;fill-rule:nonzero;stroke:none;stroke-width:0.2;stroke-linecap:round;stroke-miterlimit:4;stroke-dasharray:none;stroke-opacity:1" />
    <rect
       style="opacity:1;fill:#ffffff;fill-opacity:1;fill-rule:nonzero;stroke:#808080;stroke-width:0.2;stroke-linecap:round;stroke-miterlimit:4;stroke-dasharray:none;stroke-opacity:1"
       id="rect6401"
       width="33.137501"
       height="26.516283"
       x="0.36458328"
       y="266.63477"
       ry="0.35154164" />
    <rect
       ry="0.31134748"
       y="268.15063"
       x="2.254462"
       height="23.484495"
       width="29.357742"
       id="rect6533"
       style="opacity:1;fill:#f2f2f2;fill-opacity:1;fill-rule:nonzero;stroke:#e5e5e5;stroke-width:0.19999999;stroke-linecap:round;stroke-miterlimit:4;stroke-dasharray:none;stroke-opacity:1" />
    <g
       style="stroke-width:1.36694896"
       id="g6459"
       transform="matrix(0.73142548,0,0,0.73168705,-42.714316,73.743044)">
      <path
         style="opacity:0.25;fill:#000000;fill-opacity:1;fill-rule:nonzero;stroke:none;stroke-width:0.27338979;stroke-miterlimit:4;stroke-dasharray:none;stroke-dashoffset:0;stroke-opacity:1"
         d="m 80.629306,267.89794 c -2.058897,0 -3.763957,1.45828 -4.145539,3.40219 -1.631743,-1.14141 -3.88295,-1.00127 -5.36362,0.44208 l -0.196923,0.19236 c -1.503018,1.46514 -1.681948,3.75658 -0.526313,5.42382 -1.92751,0.37425 -3.384684,2.05198 -3.409612,4.09603 l -0.0035,0.2756 c -0.02552,2.09176 1.459587,3.83343 3.445647,4.2021 -1.111135,1.62845 -0.959947,3.85571 0.471501,5.32433 l 0.192354,0.19744 c 1.451361,1.48905 3.714787,1.67943 5.377831,0.55933 0.348001,1.98612 2.069524,3.48797 4.158227,3.48797 h 0.27559 c 2.085191,0 3.804668,-1.49666 4.156704,-3.47781 1.651626,1.17061 3.940271,1.0194 5.421985,-0.46239 l 0.194894,-0.19491 c 1.468402,-1.46848 1.631768,-3.73049 0.495353,-5.37863 1.9324,-0.37043 3.394283,-2.05104 3.419255,-4.09856 l 0.0035,-0.27562 c 0.02572,-2.10947 -1.485017,-3.86252 -3.496401,-4.21072 1.148525,-1.63258 1.011611,-3.88893 -0.434451,-5.37255 l -0.192355,-0.19745 c -1.46474,-1.50277 -3.755939,-1.68172 -5.423,-0.52684 -0.379462,-1.94663 -2.084719,-3.40777 -4.145539,-3.40777 z m -0.282189,12.97988 c 0.09366,0.006 0.186918,0.0142 0.282189,0.0142 h 0.27559 c 0.08224,0 0.162559,-0.008 0.243615,-0.0122 0.0072,0.008 0.0131,0.0154 0.0203,0.0229 l 0.192355,0.19744 c 0.0805,0.0826 0.165467,0.15786 0.25072,0.23246 -0.0017,0.0409 -0.0071,0.0806 -0.0076,0.12182 l -0.0035,0.27561 c -0.0014,0.11364 0.0053,0.22559 0.01269,0.33702 -0.04043,0.0374 -0.083,0.0713 -0.122314,0.11064 l -0.194894,0.19491 c -0.04728,0.0472 -0.08839,0.0983 -0.132974,0.14719 -0.08588,-0.005 -0.171113,-0.0132 -0.258334,-0.0132 h -0.27559 c -0.03976,0 -0.07827,0.005 -0.117749,0.006 -0.03841,-0.0427 -0.07324,-0.0874 -0.113687,-0.12892 l -0.192355,-0.19744 c -0.07534,-0.0773 -0.154958,-0.14744 -0.234482,-0.21775 8.24e-4,-0.0268 0.0047,-0.0527 0.0051,-0.0797 l 0.0035,-0.27561 c 0.0015,-0.11844 -0.0051,-0.23521 -0.0132,-0.35124 0.0083,-0.008 0.01755,-0.0147 0.02589,-0.0228 l 0.197432,-0.19238 c 0.05578,-0.0543 0.105195,-0.11244 0.157336,-0.16901 z"
         id="path6343"
         inkscape:connector-curvature="0" />
      <ellipse
         style="opacity:1;fill:#ffffff;fill-opacity:1;fill-rule:nonzero;stroke:none;stroke-width:0.27338979;stroke-miterlimit:4;stroke-dasharray:none;stroke-dashoffset:0;stroke-opacity:1"
         id="ellipse6345"
         cx="80.654472"
         cy="281.16443"
         rx="1.0427284"
         ry="1.037676" />
      <rect
         ry="4.2264094"
         y="267.3782"
         x="76.403015"
         height="12.994249"
         width="8.7279787"
         id="rect6347"
         style="opacity:1;fill:#faaa32;fill-opacity:1;fill-rule:nonzero;stroke:none;stroke-width:0.27338979;stroke-miterlimit:4;stroke-dasharray:none;stroke-dashoffset:0;stroke-opacity:1" />
      <rect
         style="opacity:1;fill:#70b4e1;fill-opacity:1;fill-rule:nonzero;stroke:none;stroke-width:0.27338979;stroke-miterlimit:4;stroke-dasharray:none;stroke-dashoffset:0;stroke-opacity:1"
         id="rect6349"
         width="8.7279787"
         height="12.994249"
         x="76.403015"
         y="281.98697"
         ry="4.2264094" />
      <rect
         ry="4.2262931"
         y="256.78101"
         x="-146.03421"
         height="12.993892"
         width="8.72822"
         id="rect6351"
         style="opacity:1;fill:#6cc199;fill-opacity:1;fill-rule:nonzero;stroke:none;stroke-width:0.27338979;stroke-miterlimit:4;stroke-dasharray:none;stroke-dashoffset:0;stroke-opacity:1"
         transform="matrix(0.7070873,-0.70712626,0.7070873,0.70712626,0,0)" />
      <rect
         transform="matrix(0.01219527,-0.99992563,0.99992562,0.01219661,0,0)"
         style="opacity:1;fill:#bad753;fill-opacity:1;fill-rule:nonzero;stroke:none;stroke-width:0.27338979;stroke-miterlimit:4;stroke-dasharray:none;stroke-dashoffset:0;stroke-opacity:1"
         id="rect6353"
         width="8.7284603"
         height="12.993534"
         x="-284.42075"
         y="85.024109"
         ry="4.2261767" />
      <rect
         ry="4.2262902"
         y="-137.57733"
         x="-261.93451"
         height="12.993882"
         width="8.7282257"
         id="rect6355"
         style="opacity:1;fill:#f3e327;fill-opacity:1;fill-rule:nonzero;stroke:none;stroke-width:0.27338979;stroke-miterlimit:4;stroke-dasharray:none;stroke-dashoffset:0;stroke-opacity:1"
         transform="matrix(-0.69798573,-0.71611167,0.71607321,-0.69802519,0,0)" />
      <path
         inkscape:connector-curvature="0"
         style="opacity:1;fill:#77b019;fill-opacity:1;fill-rule:nonzero;stroke:none;stroke-width:0.27338979;stroke-miterlimit:4;stroke-dasharray:none;stroke-dashoffset:0;stroke-opacity:1"
         d="m 85.881266,276.76048 c -2.299956,-0.0281 -4.176834,1.76928 -4.269377,4.05238 1.645664,1.44019 4.131484,1.3975 5.725493,-0.15634 l 3.251771,-3.16972 c 0.193056,-0.18819 0.361625,-0.39155 0.511087,-0.604 -0.221001,-0.0382 -0.4463,-0.0641 -0.678067,-0.067 z"
         id="path6357" />
      <rect
         transform="matrix(0.71607321,-0.69802519,0.69798573,0.71611167,0,0)"
         style="opacity:1;fill:#f37560;fill-opacity:1;fill-rule:nonzero;stroke:none;stroke-width:0.27338979;stroke-miterlimit:4;stroke-dasharray:none;stroke-dashoffset:0;stroke-opacity:1"
         id="rect6359"
         width="8.7282133"
         height="12.9939"
         x="-142.88101"
         y="243.8588"
         ry="4.2262959" />
      <rect
         ry="4.2261767"
         y="70.408211"
         x="-284.599"
         height="12.993534"
         width="8.7284603"
         id="rect6361"
         style="opacity:1;fill:#d783a7;fill-opacity:1;fill-rule:nonzero;stroke:none;stroke-width:0.27338979;stroke-miterlimit:4;stroke-dasharray:none;stroke-dashoffset:0;stroke-opacity:1"
         transform="matrix(0.01219527,-0.99992563,0.99992562,0.01219661,0,0)" />
      <rect
         transform="matrix(0.69798573,0.71611167,-0.71607321,0.69802519,0,0)"
         style="opacity:1;fill:#a28ec3;fill-opacity:1;fill-rule:nonzero;stroke:none;stroke-width:0.27338979;stroke-miterlimit:4;stroke-dasharray:none;stroke-dashoffset:0;stroke-opacity:1"
         id="rect6363"
         width="8.7282257"
         height="12.993882"
         x="253.45311"
         y="139.16295"
         ry="4.2262902" />
      <path
         inkscape:connector-curvature="0"
         style="opacity:1;fill:#5f599f;fill-opacity:1;fill-rule:nonzero;stroke:none;stroke-width:0.27338979;stroke-miterlimit:4;stroke-dasharray:none;stroke-dashoffset:0;stroke-opacity:1"
         d="m 80.511557,281.99293 c -2.285903,0.0626 -4.108488,1.9187 -4.108488,4.22038 v 4.54166 c 0,0.25262 0.02594,0.49832 0.06801,0.73851 0.209555,-0.14114 0.411271,-0.30031 0.598891,-0.4832 l 3.25177,-3.16973 c 1.635091,-1.59387 1.703077,-4.1659 0.189817,-5.84762 z"
         id="path6365" />
      <path
         inkscape:connector-curvature="0"
         style="opacity:1;fill:#3a779d;fill-opacity:1;fill-rule:nonzero;stroke:none;stroke-width:0.27338979;stroke-miterlimit:4;stroke-dasharray:none;stroke-dashoffset:0;stroke-opacity:1"
         d="m 81.16323,282.00004 c -1.516398,1.66281 -1.475291,4.2215 0.132974,5.82985 l 3.210661,3.21135 c 0.173837,0.17385 0.360965,0.32505 0.554736,0.46239 0.04323,-0.24333 0.06952,-0.49253 0.06952,-0.74866 v -4.54166 c 0,-2.25421 -1.748465,-4.07997 -3.9679,-4.21327 z"
         id="path6367" />
      <path
         inkscape:connector-curvature="0"
         style="opacity:1;fill:#232260;fill-opacity:1;fill-rule:nonzero;stroke:none;stroke-width:0.27338979;stroke-miterlimit:4;stroke-dasharray:none;stroke-dashoffset:0;stroke-opacity:1"
         d="m 80.837395,282.40202 c -1.032297,1.45183 -1.039087,3.39574 -0.01879,4.85332 1.030932,-1.44835 1.040532,-3.39218 0.01879,-4.85332 z"
         id="path6369" />
      <path
         inkscape:connector-curvature="0"
         style="opacity:1;fill:#3d9753;fill-opacity:1;fill-rule:nonzero;stroke:none;stroke-width:0.27338979;stroke-miterlimit:4;stroke-dasharray:none;stroke-dashoffset:0;stroke-opacity:1"
         d="m 84.479458,280.41594 c -1.028981,0 -2.055281,0.38031 -2.866046,1.13135 0.144268,2.18435 1.934288,3.91355 4.161781,3.94071 l 4.540907,0.0553 c 0.293717,0.004 0.580513,-0.0225 0.857731,-0.0756 -0.144836,-0.21005 -0.308204,-0.41125 -0.495353,-0.59841 l -3.21066,-3.21134 c -0.827776,-0.82783 -1.908068,-1.24201 -2.98836,-1.24201 z"
         id="path6371" />
      <path
         inkscape:connector-curvature="0"
         style="opacity:1;fill:#0b520b;fill-opacity:1;fill-rule:nonzero;stroke:none;stroke-width:0.27338979;stroke-miterlimit:4;stroke-dasharray:none;stroke-dashoffset:0;stroke-opacity:1"
         d="m 84.479458,280.41594 c -0.839857,0 -1.678416,0.25339 -2.39962,0.75373 1.428587,0.93634 3.292422,0.91721 4.707377,-0.0649 -0.69998,-0.45867 -1.503631,-0.68876 -2.307757,-0.68876 z"
         id="path6373" />
      <path
         inkscape:connector-curvature="0"
         style="opacity:1;fill:#0f4325;fill-opacity:1;fill-rule:nonzero;stroke:none;stroke-width:0.27338979;stroke-miterlimit:4;stroke-dasharray:none;stroke-dashoffset:0;stroke-opacity:1"
         d="m 81.674825,282.05994 c 0.322859,1.70344 1.665244,3.03838 3.378655,3.35346 -0.324754,-1.70661 -1.667886,-3.04051 -3.378655,-3.35346 z"
         id="path6375" />
      <path
         inkscape:connector-curvature="0"
         style="opacity:1;fill:#faaa32;fill-opacity:1;fill-rule:nonzero;stroke:none;stroke-width:0.27338979;stroke-miterlimit:4;stroke-dasharray:none;stroke-dashoffset:0;stroke-opacity:1"
         d="m 85.071241,276.82951 c -1.750804,0.31509 -3.120321,1.70322 -3.407074,3.47172 1.754313,-0.31632 3.121689,-1.7065 3.407074,-3.47172 z"
         id="path6377" />
      <path
         inkscape:connector-curvature="0"
         style="opacity:1;fill:#dab408;fill-opacity:1;fill-rule:nonzero;stroke:none;stroke-width:0.27338979;stroke-miterlimit:4;stroke-dasharray:none;stroke-dashoffset:0;stroke-opacity:1"
         d="m 85.050435,270.78597 c -0.192916,0.13364 -0.37932,0.28069 -0.553213,0.45021 l -3.251771,3.17023 c -1.669204,1.62713 -1.709354,4.27577 -0.09694,5.9537 2.226415,-0.12608 3.982619,-1.95511 3.982619,-4.21429 v -4.54115 c 0,-0.28051 -0.02905,-0.55376 -0.08069,-0.8187 z"
         id="path6379" />
      <path
         inkscape:connector-curvature="0"
         style="opacity:1;fill:#f14d02;fill-opacity:1;fill-rule:nonzero;stroke:none;stroke-width:0.27338979;stroke-miterlimit:4;stroke-dasharray:none;stroke-dashoffset:0;stroke-opacity:1"
         d="m 76.483767,270.78038 c -0.05234,0.26664 -0.0807,0.54187 -0.0807,0.82429 v 4.54115 c 0,2.24616 1.735917,4.06737 3.944048,4.21225 1.515137,-1.64412 1.499177,-4.18661 -0.0807,-5.80751 l -3.169551,-3.25196 c -0.190969,-0.19592 -0.397192,-0.36719 -0.6131,-0.51822 z"
         id="path6381" />
      <path
         inkscape:connector-curvature="0"
         style="opacity:1;fill:#d11b12;fill-opacity:1;fill-rule:nonzero;stroke:none;stroke-width:0.27338979;stroke-miterlimit:4;stroke-dasharray:none;stroke-dashoffset:0;stroke-opacity:1"
         d="m 71.264286,276.76048 c -0.297203,-0.004 -0.587098,0.0238 -0.867375,0.0782 0.133455,0.19254 0.28049,0.37916 0.449676,0.55274 l 3.169551,3.25195 c 1.626117,1.66834 4.272342,1.70867 5.950327,0.099 -0.15103,-2.17769 -1.93857,-3.8994 -4.161271,-3.92651 z"
         id="path6383" />
      <path
         inkscape:connector-curvature="0"
         style="opacity:1;fill:#a83f64;fill-opacity:1;fill-rule:nonzero;stroke:none;stroke-width:0.27338979;stroke-miterlimit:4;stroke-dasharray:none;stroke-dashoffset:0;stroke-opacity:1"
         d="m 77.233396,280.3865 c -1.080204,-0.0139 -2.1658,0.38626 -3.004095,1.20343 l -3.251769,3.17023 c -0.208051,0.2028 -0.390723,0.42152 -0.548139,0.65222 0.236881,0.044 0.479347,0.0726 0.72882,0.0756 l 4.540907,0.0553 c 2.314194,0.0282 4.201136,-1.79127 4.271913,-4.0945 -0.782986,-0.69228 -1.757029,-1.04979 -2.737637,-1.06233 z"
         id="path6385" />
      <path
         inkscape:connector-curvature="0"
         style="opacity:1;fill:#7f0906;fill-opacity:1;fill-rule:nonzero;stroke:none;stroke-width:0.27338979;stroke-miterlimit:4;stroke-dasharray:none;stroke-dashoffset:0;stroke-opacity:1"
         d="m 77.233396,280.3865 c -0.892046,-0.0114 -1.785174,0.2643 -2.542239,0.8192 1.463885,0.98531 3.400883,0.95321 4.839843,-0.10151 -0.693787,-0.46707 -1.493995,-0.70741 -2.297604,-0.71769 z"
         id="path6387" />
      <path
         inkscape:connector-curvature="0"
         style="opacity:1;fill:#4d1335;fill-opacity:1;fill-rule:nonzero;stroke:none;stroke-width:0.27338979;stroke-miterlimit:4;stroke-dasharray:none;stroke-dashoffset:0;stroke-opacity:1"
         d="m 79.908098,282.05231 c -1.755822,0.30018 -3.132931,1.6734 -3.438033,3.42757 1.752733,-0.29867 3.131562,-1.66983 3.438033,-3.42757 z"
         id="path6389" />
      <path
         inkscape:connector-curvature="0"
         style="opacity:1;fill:#a54f00;fill-opacity:1;fill-rule:nonzero;stroke:none;stroke-width:0.27338979;stroke-miterlimit:4;stroke-dasharray:none;stroke-dashoffset:0;stroke-opacity:1"
         d="m 80.690716,275.06827 c -0.981094,1.44642 -0.964284,3.35975 0.05329,4.79697 0.981378,-1.44665 0.964745,-3.35961 -0.05329,-4.79697 z"
         id="path6391" />
      <path
         inkscape:connector-curvature="0"
         style="opacity:1;fill:#ad0200;fill-opacity:1;fill-rule:nonzero;stroke:none;stroke-width:0.27338979;stroke-miterlimit:4;stroke-dasharray:none;stroke-dashoffset:0;stroke-opacity:1"
         d="m 76.470572,276.88077 c 0.30587,1.75562 1.685329,3.12908 3.443617,3.42706 -0.304616,-1.75204 -1.6822,-3.12761 -3.443617,-3.42706 z"
         id="path6393" />
      <path
         inkscape:connector-curvature="0"
         style="opacity:1;fill:#528100;fill-opacity:1;fill-rule:nonzero;stroke:none;stroke-width:0.27338979;stroke-miterlimit:4;stroke-dasharray:none;stroke-dashoffset:0;stroke-opacity:1"
         d="m 85.071241,276.82951 c -1.750804,0.31509 -3.120321,1.70322 -3.407074,3.47172 1.754313,-0.31632 3.121689,-1.7065 3.407074,-3.47172 z"
         id="path6395" />
    </g>
  </g>
</svg>
