<?xml version="1.0" encoding="UTF-8" standalone="no"?>
<!-- Created with Inkscape (http://www.inkscape.org/) -->

<svg
   xmlns:osb="http://www.openswatchbook.org/uri/2009/osb"
   xmlns:dc="http://purl.org/dc/elements/1.1/"
   xmlns:cc="http://creativecommons.org/ns#"
   xmlns:rdf="http://www.w3.org/1999/02/22-rdf-syntax-ns#"
   xmlns:svg="http://www.w3.org/2000/svg"
   xmlns="http://www.w3.org/2000/svg"
   xmlns:xlink="http://www.w3.org/1999/xlink"
   xmlns:sodipodi="http://sodipodi.sourceforge.net/DTD/sodipodi-0.dtd"
   xmlns:inkscape="http://www.inkscape.org/namespaces/inkscape"
   width="128"
   height="128"
   viewBox="0 0 33.866666 33.866668"
   version="1.1"
   id="svg8"
   inkscape:version="0.92.2 5c3e80d, 2017-08-06"
   sodipodi:docname="symbol.svg">
  <defs
     id="defs2">
    <linearGradient
       id="linearGradient1830">
      <stop
         id="stop1826"
         style="stop-color:#d9d9d9;stop-opacity:1"
         offset="0" />
      <stop
         id="stop1828"
         style="stop-color:#ffffff;stop-opacity:1;"
         offset="1" />
    </linearGradient>
    <linearGradient
       osb:paint="solid"
       id="linearGradient6987">
      <stop
         id="stop6985"
         offset="0"
         style="stop-color:#77d2fb;stop-opacity:1;" />
    </linearGradient>
    <linearGradient
       inkscape:collect="always"
       xlink:href="#linearGradient1830"
       id="linearGradient1503-8"
       x1="29.203474"
       y1="263.52237"
       x2="4.5843229"
       y2="296.16849"
       gradientUnits="userSpaceOnUse"
       gradientTransform="matrix(3.7834911,0,0,3.7834518,-0.0671156,-995.61896)" />
  </defs>
  <sodipodi:namedview
     id="base"
     pagecolor="#ffffff"
     bordercolor="#666666"
     borderopacity="1.0"
     inkscape:pageopacity="0.0"
     inkscape:pageshadow="2"
     inkscape:zoom="2.5600001"
     inkscape:cx="92.268589"
     inkscape:cy="57.674828"
     inkscape:document-units="mm"
     inkscape:current-layer="layer1"
     showgrid="false"
     units="px"
     inkscape:window-width="1600"
     inkscape:window-height="814"
     inkscape:window-x="0"
     inkscape:window-y="0"
     inkscape:window-maximized="1"
     showguides="false" />
  <metadata
     id="metadata5">
    <rdf:RDF>
      <cc:Work
         rdf:about="">
        <dc:format>image/svg+xml</dc:format>
        <dc:type
           rdf:resource="http://purl.org/dc/dcmitype/StillImage" />
        <dc:title />
      </cc:Work>
    </rdf:RDF>
  </metadata>
  <g
     inkscape:label="Layer 1"
     inkscape:groupmode="layer"
     id="layer1"
     transform="translate(0,-263.13332)">
    <g
       id="g1738"
       transform="matrix(1.0014097,0,0,1.0013991,-0.02387124,-0.39394926)"
       style="stroke-width:0.99859762">
      <path
         inkscape:connector-curvature="0"
         style="opacity:0.25;fill:#000000;fill-opacity:1;stroke:none;stroke-width:0.29957929;stroke-miterlimit:4;stroke-dasharray:none;stroke-opacity:1"
         d="m 4.5712972,264.10225 v 19.54145 l 1.9693887,-1.90015 2.8504721,1.16944 1.680517,-2.26549 2.046387,1.16892 2.375049,-2.88665 3.471623,0.47542 1.936832,-1.68103 3.324862,0.80357 2.11925,-2.55747 2.880445,1.52342 c -0.04605,-0.48016 -0.113389,-0.94409 -0.243395,-1.40921 -0.214482,-0.76736 -0.55259,-1.49371 -0.956532,-2.18902 -0.516872,-0.88969 -1.389955,-1.4635 -2.166276,-2.19263 -0.47098,-0.42712 -1.488459,-1.44172 -2.719731,-2.65307 -1.221196,-1.20142 -2.653662,-2.59676 -3.849377,-3.68091 -0.35316,-0.3187 -0.865947,-0.64926 -1.342554,-0.84026 -0.370088,-0.14831 -0.805405,-0.24078 -1.225765,-0.30282 -0.433449,-0.064 -0.850812,-0.0957 -1.16427,-0.12351 z m 22.2678898,14.40739 -2.119249,2.19263 -2.759005,-1.02319 -2.429826,2.06447 -3.692281,-1.37097 -2.062923,3.38067 -2.375049,-1.05988 -1.4619259,2.08307 -2.5212932,-0.82217 -2.8463377,1.57975 v 11.1802 H 29.29537 v -17.30644 z"
         id="path1728" />
      <path
         id="path4623-8"
         transform="matrix(0.26458333,0,0,0.26458333,0,263.13332)"
         d="M 17.277344,1.6621094 V 75.519531 l 7.443359,-7.18164 10.773438,4.419921 6.351562,-8.5625 7.734375,4.417969 8.976563,-10.910156 13.121093,1.796875 7.320313,-6.353516 12.566406,3.03711 8.009766,-9.666016 10.886721,5.757813 c -0.17406,-1.814777 -0.42856,-3.568216 -0.91992,-5.326172 -0.81064,-2.900259 -2.08853,-5.645494 -3.61524,-8.273438 -1.95353,-3.362608 -5.25337,-5.531342 -8.187499,-8.287109 C 95.958199,28.77436 92.112611,24.939659 87.458984,20.361328 82.84344,15.820528 77.429394,10.546794 72.910156,6.4492188 71.575378,5.2446833 69.637287,3.9953273 67.835938,3.2734375 66.43718,2.7128958 64.791887,2.3633881 63.203125,2.1289062 61.564893,1.8870165 59.987458,1.767218 58.802734,1.6621094 Z m 84.162106,54.4531246 -8.009762,8.28711 -10.427735,-3.867188 -9.183594,7.802735 -13.955078,-5.181641 -7.796875,12.777344 -8.976562,-4.00586 -5.525391,7.873047 -9.529297,-3.107422 -10.757812,5.970703 V 124.91992 H 110.72266 V 59.509766 Z"
         style="opacity:1;fill:url(#linearGradient1503-8);fill-opacity:1;stroke:#808080;stroke-width:1.13226819;stroke-miterlimit:4;stroke-dasharray:none;stroke-opacity:1"
         inkscape:connector-curvature="0" />
      <path
         style="opacity:0.24800002;fill:#000000;fill-opacity:1;stroke:none;stroke-width:0.29957929;stroke-miterlimit:4;stroke-dasharray:none;stroke-opacity:1"
         d="m 19.751144,265.48426 c 0.01633,0.0263 0.561139,0.90462 0.727791,1.39886 0.451585,1.01234 0.25858,3.97236 0.250369,5.65885 0.02772,-0.19401 4.690513,-1.39583 7.111042,0.80464 -0.01547,-0.0273 -0.04888,-0.0804 -0.12512,-0.18628 -0.07235,-0.10046 -0.182749,-0.24915 -0.371644,-0.44224 -0.528108,-0.60452 -0.230926,-0.0845 -0.805409,-0.682 -0.496688,-0.45047 -1.569491,-1.52048 -2.867987,-2.79805 -1.241182,-1.22116 -2.686924,-2.62954 -3.919042,-3.75378 z"
         id="path1355-8"
         inkscape:connector-curvature="0"
         sodipodi:nodetypes="ccccsccsc" />
      <path
         sodipodi:nodetypes="ccccccsc"
         inkscape:connector-curvature="0"
         id="path4753-0"
         d="m 19.42404,264.96145 c 0.01548,0.0249 0.53209,0.85773 0.690114,1.32635 0.428208,0.95987 0.292236,3.21802 0.28445,4.8171 0.428992,-0.0223 5.159507,-0.73701 7.328403,1.82407 -0.02928,-0.0506 -0.102779,-0.0927 -0.143771,-0.17312 -0.500768,-0.57318 -1.139582,-1.03373 -1.723521,-1.58216 -0.470975,-0.42712 -1.488241,-1.44167 -2.719516,-2.65302 -1.176928,-1.15787 -2.547826,-2.49325 -3.716159,-3.55922 z"
         style="opacity:1;fill:#ffffff;fill-opacity:1;stroke:#808080;stroke-width:0.29957929;stroke-miterlimit:4;stroke-dasharray:none;stroke-opacity:1" />
      <g
         transform="matrix(0.53602412,0,0,0.5372689,-234.93365,-13.785303)"
         id="layer1-4-3"
         inkscape:label="Capa 1"
         inkscape:transform-center-x="5.4653607"
         inkscape:transform-center-y="-9.4924686"
         style="stroke-width:4.07876968">
        <g
           transform="translate(0.41988239,0.03484499)"
           inkscape:label="Capa 1"
           id="layer1-3-65-9"
           style="stroke-width:4.07876968" />
      </g>
      <g
         transform="matrix(0.53602412,0,0,0.5372689,-234.93365,-13.7603)"
         id="layer1-4"
         inkscape:label="Capa 1"
         inkscape:transform-center-x="5.4653607"
         inkscape:transform-center-y="-9.4924686"
         style="stroke-width:4.07876968">
        <g
           transform="translate(0.41988239,0.03484499)"
           inkscape:label="Capa 1"
           id="layer1-3-65"
           style="stroke-width:4.07876968" />
      </g>
    </g>
  </g>
</svg>
