<?xml version="1.0" encoding="UTF-8" standalone="no"?>
<!-- Created with Inkscape (http://www.inkscape.org/) -->

<svg
   xmlns:osb="http://www.openswatchbook.org/uri/2009/osb"
   xmlns:dc="http://purl.org/dc/elements/1.1/"
   xmlns:cc="http://creativecommons.org/ns#"
   xmlns:rdf="http://www.w3.org/1999/02/22-rdf-syntax-ns#"
   xmlns:svg="http://www.w3.org/2000/svg"
   xmlns="http://www.w3.org/2000/svg"
   xmlns:xlink="http://www.w3.org/1999/xlink"
   xmlns:sodipodi="http://sodipodi.sourceforge.net/DTD/sodipodi-0.dtd"
   xmlns:inkscape="http://www.inkscape.org/namespaces/inkscape"
   width="128"
   height="128"
   viewBox="0 0 33.866666 33.866668"
   version="1.1"
   id="svg8"
   inkscape:version="0.92.2 5c3e80d, 2017-08-06"
   sodipodi:docname="libreoffice-oasis-presentation.svg">
  <defs
     id="defs2">
    <linearGradient
       inkscape:collect="always"
       id="linearGradient4721">
      <stop
         style="stop-color:#fbfbfb;stop-opacity:1"
         offset="0"
         id="stop4717" />
      <stop
         style="stop-color:#b2b2b2;stop-opacity:1"
         offset="1"
         id="stop4719" />
    </linearGradient>
    <linearGradient
       id="linearGradient1830">
      <stop
         id="stop1826"
         style="stop-color:#d9d9d9;stop-opacity:1"
         offset="0" />
      <stop
         id="stop1828"
         style="stop-color:#ffffff;stop-opacity:1;"
         offset="1" />
    </linearGradient>
    <linearGradient
       osb:paint="solid"
       id="linearGradient6987">
      <stop
         id="stop6985"
         offset="0"
         style="stop-color:#77d2fb;stop-opacity:1;" />
    </linearGradient>
    <linearGradient
       inkscape:collect="always"
       xlink:href="#linearGradient1830"
       id="linearGradient1503-8"
       x1="29.203474"
       y1="263.52237"
       x2="4.5843229"
       y2="296.16849"
       gradientUnits="userSpaceOnUse"
       gradientTransform="matrix(0,-1.0141408,-1.0140923,0,300.75676,297.04985)" />
    <linearGradient
       id="linearGradient4022">
      <stop
         id="stop4024"
         offset="0"
         style="stop-color:#c04727;stop-opacity:1;" />
      <stop
         id="stop4026"
         offset="1"
         style="stop-color:#a23a1d;stop-opacity:1;" />
    </linearGradient>
    <linearGradient
       id="linearGradient3981">
      <stop
         id="stop3983"
         offset="0"
         style="stop-color:#fb9459;stop-opacity:1;" />
      <stop
         id="stop3985"
         offset="1"
         style="stop-color:#fa8144;stop-opacity:1;" />
    </linearGradient>
    <linearGradient
       y2="82.25515"
       x2="-69.705696"
       y1="114.3503"
       x1="-66.444412"
       gradientTransform="matrix(0.0361629,-0.00310521,0.00294888,0.03617598,20.473739,3.9108948)"
       gradientUnits="userSpaceOnUse"
       id="linearGradient4347"
       xlink:href="#linearGradient4758"
       inkscape:collect="always" />
    <linearGradient
       id="linearGradient4758">
      <stop
         style="stop-color:#ffffff;stop-opacity:0.58823532;"
         offset="0"
         id="stop4760" />
      <stop
         style="stop-color:#ffffff;stop-opacity:0.39215687;"
         offset="1"
         id="stop4762" />
    </linearGradient>
    <linearGradient
       y2="8.3143187"
       x2="2.7998989"
       y1="2.5693047"
       x1="2.7998989"
       gradientTransform="translate(14.46875)"
       gradientUnits="userSpaceOnUse"
       id="linearGradient4349"
       xlink:href="#linearGradient4714"
       inkscape:collect="always" />
    <linearGradient
       id="linearGradient4714">
      <stop
         id="stop4716"
         offset="0"
         style="stop-color:#ffffff;stop-opacity:0.82352942;" />
      <stop
         id="stop4718"
         offset="1"
         style="stop-color:#ffffff;stop-opacity:0.47058824;" />
    </linearGradient>
    <linearGradient
       y2="133.89374"
       x2="59.500011"
       y1="7.8088346"
       x1="59.500011"
       gradientUnits="userSpaceOnUse"
       id="linearGradient4351"
       xlink:href="#linearGradient4714"
       inkscape:collect="always" />
    <linearGradient
       inkscape:collect="always"
       xlink:href="#linearGradient3981"
       id="linearGradient2237"
       gradientUnits="userSpaceOnUse"
       gradientTransform="matrix(0,-0.98856077,-1.0036245,0,297.78882,296.44963)"
       x1="29.282345"
       y1="296.16849"
       x2="24.469234"
       y2="293.77713" />
    <linearGradient
       inkscape:collect="always"
       xlink:href="#linearGradient4022"
       id="linearGradient2244"
       gradientUnits="userSpaceOnUse"
       gradientTransform="matrix(0,-0.96018023,-0.97786258,0,290.16757,295.75087)"
       x1="25.606115"
       y1="279.01944"
       x2="23.493521"
       y2="278.91879" />
    <linearGradient
       inkscape:collect="always"
       xlink:href="#linearGradient4721"
       id="linearGradient4723"
       x1="-16.464199"
       y1="275.06439"
       x2="-16.464199"
       y2="276.47"
       gradientUnits="userSpaceOnUse"
       gradientTransform="translate(33.039582,-0.04478469)" />
    <linearGradient
       inkscape:collect="always"
       xlink:href="#linearGradient4721"
       id="linearGradient4731"
       x1="-17.149746"
       y1="286.10056"
       x2="-17.149746"
       y2="286.91907"
       gradientUnits="userSpaceOnUse"
       gradientTransform="translate(33.039582,-0.04478469)" />
    <linearGradient
       inkscape:collect="always"
       xlink:href="#linearGradient4721"
       id="linearGradient4739"
       x1="-140.99602"
       y1="244.03098"
       x2="-140.20628"
       y2="244.03098"
       gradientUnits="userSpaceOnUse"
       gradientTransform="translate(-27.729644,-19.65687)" />
    <linearGradient
       inkscape:collect="always"
       xlink:href="#linearGradient4721"
       id="linearGradient4747"
       x1="-169.31799"
       y1="224.00874"
       x2="-168.52826"
       y2="224.00874"
       gradientUnits="userSpaceOnUse"
       gradientTransform="translate(27.778522,19.584615)" />
  </defs>
  <sodipodi:namedview
     id="base"
     pagecolor="#ffffff"
     bordercolor="#666666"
     borderopacity="1.0"
     inkscape:pageopacity="0.0"
     inkscape:pageshadow="2"
     inkscape:zoom="4"
     inkscape:cx="8.72914"
     inkscape:cy="75.291188"
     inkscape:document-units="mm"
     inkscape:current-layer="layer1"
     showgrid="false"
     units="px"
     inkscape:window-width="1600"
     inkscape:window-height="814"
     inkscape:window-x="0"
     inkscape:window-y="0"
     inkscape:window-maximized="1"
     showguides="false" />
  <metadata
     id="metadata5">
    <rdf:RDF>
      <cc:Work
         rdf:about="">
        <dc:format>image/svg+xml</dc:format>
        <dc:type
           rdf:resource="http://purl.org/dc/dcmitype/StillImage" />
        <dc:title />
      </cc:Work>
    </rdf:RDF>
  </metadata>
  <g
     inkscape:label="Layer 1"
     inkscape:groupmode="layer"
     id="layer1"
     transform="translate(0,-263.13332)">
    <g
       id="g916"
       transform="translate(1.8333333e-7,3.3363136e-6)">
      <g
         transform="matrix(0.53602412,0,0,0.5372689,-233.35679,-13.760303)"
         id="layer1-4-3"
         inkscape:label="Capa 1"
         inkscape:transform-center-x="5.4653607"
         inkscape:transform-center-y="-9.4924686"
         style="stroke-width:4.08449793">
        <g
           transform="translate(0.41988239,0.03484499)"
           inkscape:label="Capa 1"
           id="layer1-3-65-9"
           style="stroke-width:4.08449793" />
      </g>
      <g
         transform="matrix(0.53602412,0,0,0.5372689,-236.26329,-13.760297)"
         id="layer1-4"
         inkscape:label="Capa 1"
         inkscape:transform-center-x="5.4653607"
         inkscape:transform-center-y="-9.4924686"
         style="stroke-width:4.08449793">
        <g
           transform="translate(0.41988239,0.03484499)"
           inkscape:label="Capa 1"
           id="layer1-3-65"
           style="stroke-width:4.08449793" />
      </g>
      <path
         sodipodi:nodetypes="ccccascscsscc"
         inkscape:connector-curvature="0"
         id="path4779"
         d="M 33.452083,292.92987 H 0.4145833 V 267.8826 H 18.953224 c 0.842131,0.0478 1.595863,0.10298 2.36004,0.31658 0.777367,0.21729 1.513422,0.55969 2.217799,0.96892 0.901292,0.52363 1.482423,1.40853 2.221061,2.19501 0.43269,0.47714 1.4605,1.50767 2.687647,2.75505 1.217087,1.23716 2.630785,2.68815 3.729073,3.89951 0.322856,0.35778 0.657909,0.87749 0.8514,1.36033 0.150244,0.37493 0.243768,0.816 0.306617,1.24186 0.06483,0.43912 0.09705,0.86206 0.125222,1.17961 z"
         style="opacity:0.25;fill:#000000;fill-opacity:1;stroke:none;stroke-width:0.30000001;stroke-miterlimit:4;stroke-dasharray:none;stroke-opacity:1" />
      <path
         style="opacity:1;fill:url(#linearGradient1503-8);fill-opacity:1;stroke:#808080;stroke-width:0.30000001;stroke-miterlimit:4;stroke-dasharray:none;stroke-opacity:1"
         d="M 33.452083,292.4007 H 0.4145833 V 267.35343 H 18.953224 c 0.842131,0.0478 1.595863,0.10298 2.36004,0.31658 0.777367,0.21729 1.513422,0.55969 2.217799,0.96892 0.901292,0.52363 1.482423,1.40853 2.221061,2.19501 0.43269,0.47714 1.4605,1.50767 2.687647,2.75505 1.217087,1.23716 2.630785,2.68815 3.729073,3.89951 0.322856,0.35778 0.657909,0.87749 0.8514,1.36033 0.150244,0.37493 0.243768,0.816 0.306617,1.24186 0.06483,0.43912 0.09705,0.86206 0.125222,1.17961 z"
         id="path4623-8"
         inkscape:connector-curvature="0"
         sodipodi:nodetypes="ccccascscsscc" />
      <g
         transform="translate(0,0.52916663)"
         style="opacity:0.25;fill:#000000"
         id="g4847">
        <rect
           transform="matrix(0.80531977,-0.59284067,0.54476382,0.83858952,0,0)"
           ry="0.37906227"
           y="241.04605"
           x="-141.51445"
           height="5.0945969"
           width="0.7396844"
           id="rect4831"
           style="opacity:1;fill:#000000;fill-opacity:1;fill-rule:nonzero;stroke:#666666;stroke-width:0.05004278;stroke-miterlimit:4;stroke-dasharray:none;stroke-opacity:1" />
        <rect
           style="opacity:1;fill:#000000;fill-opacity:1;fill-rule:nonzero;stroke:#666666;stroke-width:0.05004278;stroke-miterlimit:4;stroke-dasharray:none;stroke-opacity:1"
           id="rect4833"
           width="0.7396844"
           height="5.0945969"
           x="-168.70064"
           y="221.8268"
           ry="0.37906227"
           transform="matrix(-0.80531977,-0.59284067,-0.54476382,0.83858952,0,0)" />
        <rect
           ry="0"
           y="276.31772"
           x="8.0675707"
           height="9.8557291"
           width="16.073437"
           id="rect4835"
           style="opacity:1;fill:#000000;fill-opacity:1;fill-rule:nonzero;stroke:#666666;stroke-width:0.05;stroke-miterlimit:4;stroke-dasharray:none;stroke-opacity:1" />
        <g
           style="fill:#000000;stroke-width:1.28170776"
           transform="matrix(0.78020853,0,0,0.78020963,29.622717,61.986575)"
           id="g4841">
          <path
             id="path4837"
             d="m -17.579186,277.33784 a 3.9572045,3.9505932 0 0 0 -3.957215,3.9506 3.9572045,3.9505932 0 0 0 3.957215,3.9506 3.9572045,3.9505932 0 0 0 3.957216,-3.9506 3.9572045,3.9505932 0 0 0 -3.36e-4,-0.007 h -3.951229 v -3.9429 a 3.9572045,3.9505932 0 0 0 -0.0057,-3.4e-4 z"
             style="opacity:1;fill:#000000;fill-opacity:1;fill-rule:evenodd;stroke:#5d8499;stroke-width:0.06408539;stroke-linecap:round;stroke-linejoin:bevel;stroke-miterlimit:4;stroke-dasharray:none;stroke-opacity:1"
             inkscape:connector-curvature="0" />
          <path
             sodipodi:nodetypes="ccccccc"
             inkscape:connector-curvature="0"
             id="path4839"
             d="m -17.014577,276.81578 0.0014,3.86001 3.890506,0.005 c 0.0025,-0.0379 0.0044,-0.0758 0.0057,-0.11372 -5e-6,-2.07365 -1.68387,-3.75466 -3.760994,-3.75462 -0.04517,10e-4 -0.09154,6.7e-4 -0.136639,0.004 z"
             style="opacity:1;fill:#000000;fill-opacity:1;fill-rule:evenodd;stroke:#94b25f;stroke-width:0.06408539;stroke-linecap:round;stroke-linejoin:bevel;stroke-miterlimit:4;stroke-dasharray:none;stroke-opacity:1" />
        </g>
        <rect
           ry="0.40764436"
           y="274.97827"
           x="7.0753832"
           height="1.3063802"
           width="18.208599"
           id="rect4843"
           style="opacity:1;fill:#000000;fill-opacity:1;fill-rule:nonzero;stroke:#666666;stroke-width:0.05;stroke-miterlimit:4;stroke-dasharray:none;stroke-opacity:1" />
        <rect
           style="opacity:1;fill:#000000;fill-opacity:1;fill-rule:nonzero;stroke:#666666;stroke-width:0.05;stroke-miterlimit:4;stroke-dasharray:none;stroke-opacity:1"
           id="rect4845"
           width="17.554276"
           height="0.74200028"
           x="7.4490728"
           y="286.12912"
           ry="0.23153462" />
      </g>
      <rect
         transform="matrix(0.80531977,-0.59284067,0.54476382,0.83858952,0,0)"
         ry="0.37906227"
         y="241.04605"
         x="-141.51445"
         height="5.0945969"
         width="0.7396844"
         id="rect4713"
         style="opacity:1;fill:url(#linearGradient4747);fill-opacity:1;fill-rule:nonzero;stroke:#666666;stroke-width:0.05004278;stroke-miterlimit:4;stroke-dasharray:none;stroke-opacity:1" />
      <rect
         style="opacity:1;fill:url(#linearGradient4739);fill-opacity:1;fill-rule:nonzero;stroke:#666666;stroke-width:0.05004278;stroke-miterlimit:4;stroke-dasharray:none;stroke-opacity:1"
         id="rect4715"
         width="0.7396844"
         height="5.0945969"
         x="-168.70064"
         y="221.8268"
         ry="0.37906227"
         transform="matrix(-0.80531977,-0.59284067,-0.54476382,0.83858952,0,0)" />
      <rect
         ry="0"
         y="276.31772"
         x="8.0675707"
         height="9.8557291"
         width="16.073437"
         id="rect3683"
         style="opacity:1;fill:#fafafa;fill-opacity:1;fill-rule:nonzero;stroke:#666666;stroke-width:0.05;stroke-miterlimit:4;stroke-dasharray:none;stroke-opacity:1" />
      <g
         style="stroke-width:0.98454332"
         transform="matrix(1.0156994,0,0,1.0156993,33.702993,-4.1920878)"
         id="g4759">
        <path
           id="path2277"
           d="m -17.579186,277.33784 a 3.9572045,3.9505932 0 0 0 -3.957215,3.9506 3.9572045,3.9505932 0 0 0 3.957215,3.9506 3.9572045,3.9505932 0 0 0 3.957216,-3.9506 3.9572045,3.9505932 0 0 0 -3.36e-4,-0.007 h -3.951229 v -3.9429 a 3.9572045,3.9505932 0 0 0 -0.0057,-3.4e-4 z"
           style="opacity:1;fill:#7fb4d0;fill-opacity:1;fill-rule:evenodd;stroke:#5d8499;stroke-width:0.04922717;stroke-linecap:round;stroke-linejoin:bevel;stroke-miterlimit:4;stroke-dasharray:none;stroke-opacity:1"
           inkscape:connector-curvature="0" />
        <path
           sodipodi:nodetypes="ccccccc"
           inkscape:connector-curvature="0"
           id="path2279"
           d="m -17.014577,276.81578 0.0014,3.86001 3.890506,0.005 c 0.0025,-0.0379 0.0044,-0.0758 0.0057,-0.11372 -5e-6,-2.07365 -1.68387,-3.75466 -3.760994,-3.75462 -0.04517,10e-4 -0.09154,6.7e-4 -0.136639,0.004 z"
           style="opacity:1;fill:#bfe67b;fill-opacity:1;fill-rule:evenodd;stroke:#94b25f;stroke-width:0.04922717;stroke-linecap:round;stroke-linejoin:bevel;stroke-miterlimit:4;stroke-dasharray:none;stroke-opacity:1" />
      </g>
      <rect
         ry="0.40764436"
         y="274.97827"
         x="7.0753832"
         height="1.3063802"
         width="18.208599"
         id="rect3689"
         style="opacity:1;fill:url(#linearGradient4723);fill-opacity:1;fill-rule:nonzero;stroke:#666666;stroke-width:0.05;stroke-miterlimit:4;stroke-dasharray:none;stroke-opacity:1" />
      <rect
         style="opacity:1;fill:url(#linearGradient4731);fill-opacity:1;fill-rule:nonzero;stroke:#666666;stroke-width:0.05;stroke-miterlimit:4;stroke-dasharray:none;stroke-opacity:1"
         id="rect3691"
         width="17.554276"
         height="0.74200028"
         x="7.4490728"
         y="286.12912"
         ry="0.23153462" />
      <path
         inkscape:connector-curvature="0"
         id="path2240"
         d="m 4.3583916,267.6344 0.1345416,0.83518 3.7950701,3.1 c -0.07712,0.54296 0.6759988,0.67704 6.4101597,0.7202 4.015696,0.1208 8.092801,0.25485 11.976695,0.34689 -0.744543,-0.74123 -1.38922,-1.38436 -1.687251,-1.70705 -0.71225,-0.74464 -1.272611,-1.58216 -2.141704,-2.07792 -0.679212,-0.38746 -1.388619,-0.71165 -2.138214,-0.91738 -0.736877,-0.20224 -1.463702,-0.25467 -2.275747,-0.29992 z"
         style="opacity:1;fill:url(#linearGradient2244);fill-opacity:1;stroke:none;stroke-width:0.30000001;stroke-miterlimit:4;stroke-dasharray:none;stroke-opacity:1" />
      <path
         style="opacity:0.25;fill:#000000;fill-opacity:1;stroke:none;stroke-width:0.30000001;stroke-miterlimit:4;stroke-dasharray:none;stroke-opacity:1"
         d="m 0.54673801,267.90241 v 5.75158 l 8.98940669,-0.84777 c 4.1615053,-0.37743 9.3145353,-0.78913 13.5375543,-0.98479 l 2.840482,-0.22114 c -0.105975,-0.10971 -0.218147,-0.22557 -0.291514,-0.30526 -0.731014,-0.76664 -1.306139,-1.62892 -2.198127,-2.13934 -0.697106,-0.39891 -1.425204,-0.73268 -2.194546,-0.94449 -0.756289,-0.20821 -1.502263,-0.2622 -2.335702,-0.30879 z"
         id="path878"
         inkscape:connector-curvature="0" />
      <path
         inkscape:connector-curvature="0"
         id="path2233"
         d="m 0.54673801,267.50211 v 5.75158 l 8.98940669,-0.84777 c 4.1615053,-0.37743 9.3145353,-0.78913 13.5375543,-0.98479 l 2.840482,-0.22114 c -0.105975,-0.10971 -0.218147,-0.22557 -0.291514,-0.30526 -0.731014,-0.76664 -1.306139,-1.62892 -2.198127,-2.13934 -0.697106,-0.39891 -1.425204,-0.73268 -2.194546,-0.94449 -0.756289,-0.20821 -1.502263,-0.2622 -2.335702,-0.30879 z"
         style="opacity:1;fill:url(#linearGradient2237);fill-opacity:1;stroke:none;stroke-width:0.30000001;stroke-miterlimit:4;stroke-dasharray:none;stroke-opacity:1" />
      <path
         style="opacity:0.24800002;fill:#000000;fill-opacity:1;stroke:none;stroke-width:0.30000001;stroke-miterlimit:4;stroke-dasharray:none;stroke-opacity:1"
         d="m 32.759713,278.63392 c -0.02664,-0.0165 -0.856531,-0.58786 -1.357216,-0.75669 -1.235847,-0.69627 -4.461982,-0.32843 -5.469605,-0.13114 0.02357,-0.0504 0.10237,-0.71462 0.08924,-1.07343 -0.07962,-2.17565 0.547817,-4.73228 -1.015402,-6.4519 0.02766,0.0157 0.08145,0.0495 0.188709,0.12676 0.10177,0.0733 0.252399,0.18514 0.448007,0.3765 0.612403,0.53502 0.0856,0.23395 0.690893,0.81595 0.456345,0.50318 1.54032,1.59 2.834538,2.90549 0.97074,0.9867 2.070414,2.15566 2.984496,3.25237 0.132504,0.15898 0.250643,0.32255 0.363809,0.49234 0.09442,0.14166 0.174496,0.32028 0.242531,0.44375 z"
         id="path1355-8"
         inkscape:connector-curvature="0"
         sodipodi:nodetypes="cccacsccsssc" />
      <path
         sodipodi:nodetypes="ccccccsc"
         inkscape:connector-curvature="0"
         id="path4753-0"
         d="m 32.045425,277.35378 c -0.02522,-0.0157 -0.868915,-0.53905 -1.343646,-0.69914 -0.972387,-0.43381 -3.259985,-0.29606 -4.879917,-0.28817 0.02259,-0.4346 0.746621,-5.22698 -1.847857,-7.42424 0.05126,0.0297 0.09391,0.10412 0.175377,0.14565 0.580655,0.50731 1.047211,1.15448 1.602792,1.74606 0.43269,0.47713 1.460471,1.5077 2.687617,2.75508 1.172969,1.19232 2.525763,2.58115 3.605634,3.76476 z"
         style="opacity:1;fill:#ffffff;fill-opacity:1;stroke:#808080;stroke-width:0.30000001;stroke-miterlimit:4;stroke-dasharray:none;stroke-opacity:1" />
      <g
         transform="matrix(0.76271665,0,0,0.76056662,-10.364904,265.91235)"
         id="g4303"
         style="stroke-width:0.34738594">
        <path
           sodipodi:nodetypes="sssssssss"
           inkscape:connector-curvature="0"
           id="rect3007"
           d="m 17.484142,7.1504768 0.834092,-0.071616 c 0.350594,-0.030102 0.653255,0.1960846 0.678611,0.5071508 l 0.0036,0.044579 c 0.02536,0.3110663 -0.236301,0.5877962 -0.587067,0.6158312 l -0.833371,0.066608 c -0.350736,0.028035 -0.653946,-0.191076 -0.679303,-0.5021422 l -0.0036,-0.04458 c -0.02536,-0.3110658 0.236474,-0.5857283 0.587068,-0.6158308 z"
           style="fill:url(#linearGradient4347);fill-opacity:1;stroke:none;stroke-width:0.34738594" />
        <path
           sodipodi:nodetypes="cssssssssc"
           inkscape:connector-curvature="0"
           id="rect2999"
           d="m 17.159022,4.1053963 0.01278,-6.415e-4 c 0.357784,-0.017965 0.66084,0.2334369 0.67576,0.5638585 L 17.994367,7.92002 c 0.02195,0.4861553 -0.612631,0.3935635 -0.678309,0.3781946 l -0.03438,-0.00804 C 17.08494,8.2441328 16.715647,8.0368798 16.687702,7.5018511 L 16.543142,4.734123 c -0.01725,-0.3303079 0.258096,-0.6107477 0.61588,-0.6287122 z"
           style="fill:url(#linearGradient4349);fill-opacity:1;stroke:none;stroke-width:0.34738594" />
        <circle
           transform="matrix(0.04559933,0,0,0.04559933,14.403807,2.2201926)"
           id="path3406"
           style="fill:url(#linearGradient4351);fill-opacity:1;stroke:none;stroke-width:0.34738594"
           cx="59.5"
           cy="21.5"
           r="14.25" />
      </g>
      <path
         id="path4318"
         d="m 2.6966188,267.8613 c -0.2737146,0 -0.5005324,0.20242 -0.5005324,0.47536 0,0.27294 0.2268178,0.49912 0.5005324,0.49912 0.2737151,0 0.5005328,-0.22618 0.5005328,-0.49912 0,-0.27294 -0.2268177,-0.47536 -0.5005328,-0.47536 z m 0.023836,1.16461 c -0.2728871,0.0137 -0.4898535,0.22415 -0.4766967,0.47537 l 0.1191741,2.11533 c 0.021312,0.40692 0.3028073,0.55916 0.4528631,0.59419 l 0.023836,0.0238 c 0.020347,0.004 0.1136089,0.009 0.2145134,0 l 0.6197079,-0.0475 c 0.2675351,-0.0213 0.4722051,-0.23878 0.4528625,-0.47536 v -0.0238 c -0.019346,-0.23658 -0.2569647,-0.40317 -0.5243679,-0.38027 l -0.2621837,0.0238 -0.095343,-1.87763 c -0.011378,-0.25131 -0.2514797,-0.44149 -0.5243685,-0.42783 z"
         style="opacity:0.4;fill:none;stroke:#80381b;stroke-width:0.07937499;stroke-miterlimit:4;stroke-dasharray:none;stroke-opacity:1"
         inkscape:connector-curvature="0" />
      <g
         transform="matrix(0.53602412,0,0,0.5372689,-302.53048,-16.166553)"
         id="layer1-4-3-7"
         inkscape:label="Capa 1"
         inkscape:transform-center-x="5.4653607"
         inkscape:transform-center-y="-9.4924686"
         style="stroke-width:4.08449793">
        <g
           transform="translate(0.41988239,0.03484499)"
           inkscape:label="Capa 1"
           id="layer1-3-65-9-1"
           style="stroke-width:4.08449793" />
      </g>
      <g
         transform="matrix(0.53602412,0,0,0.5372689,-304.03105,-16.166547)"
         id="layer1-4-5"
         inkscape:label="Capa 1"
         inkscape:transform-center-x="5.4653607"
         inkscape:transform-center-y="-9.4924686"
         style="stroke-width:4.08449793">
        <g
           transform="translate(0.41988239,0.03484499)"
           inkscape:label="Capa 1"
           id="layer1-3-65-91"
           style="stroke-width:4.08449793" />
      </g>
    </g>
  </g>
</svg>
