<?xml version="1.0" encoding="UTF-8" standalone="no"?>
<!-- Created with Inkscape (http://www.inkscape.org/) -->

<svg
   xmlns:osb="http://www.openswatchbook.org/uri/2009/osb"
   xmlns:dc="http://purl.org/dc/elements/1.1/"
   xmlns:cc="http://creativecommons.org/ns#"
   xmlns:rdf="http://www.w3.org/1999/02/22-rdf-syntax-ns#"
   xmlns:svg="http://www.w3.org/2000/svg"
   xmlns="http://www.w3.org/2000/svg"
   xmlns:xlink="http://www.w3.org/1999/xlink"
   xmlns:sodipodi="http://sodipodi.sourceforge.net/DTD/sodipodi-0.dtd"
   xmlns:inkscape="http://www.inkscape.org/namespaces/inkscape"
   width="128"
   height="128"
   viewBox="0 0 33.866666 33.866668"
   version="1.1"
   id="svg8"
   inkscape:version="0.92.2 5c3e80d, 2017-08-06"
   sodipodi:docname="base.svg">
  <defs
     id="defs2">
    <linearGradient
       id="linearGradient1830">
      <stop
         id="stop1826"
         style="stop-color:#d9d9d9;stop-opacity:1"
         offset="0" />
      <stop
         id="stop1828"
         style="stop-color:#ffffff;stop-opacity:1;"
         offset="1" />
    </linearGradient>
    <linearGradient
       osb:paint="solid"
       id="linearGradient6987">
      <stop
         id="stop6985"
         offset="0"
         style="stop-color:#77d2fb;stop-opacity:1;" />
    </linearGradient>
    <linearGradient
       inkscape:collect="always"
       xlink:href="#linearGradient1830"
       id="linearGradient1503-8"
       x1="29.203474"
       y1="263.52237"
       x2="4.5843229"
       y2="296.16849"
       gradientUnits="userSpaceOnUse"
       gradientTransform="matrix(1.0010487,0,0,1.0010383,-0.0177579,-0.29085898)" />
    <linearGradient
       id="linearGradient3251">
      <stop
         offset="0"
         style="stop-color:#828282"
         id="stop3253" />
      <stop
         offset="1"
         style="stop-color:#6c6c6c"
         id="stop3255" />
    </linearGradient>
    <linearGradient
       inkscape:collect="always"
       xlink:href="#linearGradient3251"
       id="linearGradient1189"
       gradientUnits="userSpaceOnUse"
       x1="17.072"
       y1="6.0022"
       x2="17.072"
       y2="40.011"
       gradientTransform="matrix(0.71002405,0,0,0.62704546,-0.1073217,268.37128)" />
    <linearGradient
       inkscape:collect="always"
       xlink:href="#linearGradient3251"
       id="linearGradient1191"
       gradientUnits="userSpaceOnUse"
       x1="22.084"
       y1="6"
       x2="22.084"
       y2="40"
       gradientTransform="matrix(0.71002405,0,0,0.62704546,-0.1073217,268.37128)" />
    <linearGradient
       inkscape:collect="always"
       xlink:href="#linearGradient947"
       id="linearGradient1270"
       x1="7.3738756"
       y1="264.52911"
       x2="7.516078"
       y2="268.60965"
       gradientUnits="userSpaceOnUse"
       gradientTransform="translate(-1.5768595,-0.02499666)" />
    <linearGradient
       id="linearGradient947"
       inkscape:collect="always">
      <stop
         id="stop943"
         offset="0"
         style="stop-color:#8a2722;stop-opacity:1" />
      <stop
         id="stop945"
         offset="1"
         style="stop-color:#a53c3b;stop-opacity:1" />
    </linearGradient>
  </defs>
  <sodipodi:namedview
     id="base"
     pagecolor="#ffffff"
     bordercolor="#666666"
     borderopacity="1.0"
     inkscape:pageopacity="0.0"
     inkscape:pageshadow="2"
     inkscape:zoom="0.98994949"
     inkscape:cx="-8.8984376"
     inkscape:cy="-22.535683"
     inkscape:document-units="mm"
     inkscape:current-layer="layer1"
     showgrid="false"
     units="px"
     inkscape:window-width="1600"
     inkscape:window-height="814"
     inkscape:window-x="0"
     inkscape:window-y="0"
     inkscape:window-maximized="1"
     showguides="false" />
  <metadata
     id="metadata5">
    <rdf:RDF>
      <cc:Work
         rdf:about="">
        <dc:format>image/svg+xml</dc:format>
        <dc:type
           rdf:resource="http://purl.org/dc/dcmitype/StillImage" />
        <dc:title />
      </cc:Work>
    </rdf:RDF>
  </metadata>
  <g
     inkscape:label="Layer 1"
     inkscape:groupmode="layer"
     id="layer1"
     transform="translate(0,-263.13332)">
    <path
       style="opacity:0.25;fill:#000000;fill-opacity:1;stroke:none;stroke-width:1.87499988;stroke-miterlimit:4;stroke-dasharray:none;stroke-opacity:1"
       d="M 4.5713721,264.09818 V 296.7104 H 29.295294 v -18.3 c -0.04716,-0.8313 -0.101653,-1.57532 -0.312496,-2.32966 -0.21448,-0.76736 -0.552469,-1.49394 -0.956412,-2.18925 -0.516871,-0.8897 -1.39035,-1.46334 -2.166671,-2.19248 -0.47098,-0.42711 -1.488209,-1.44169 -2.719481,-2.65304 -1.221196,-1.20143 -2.653456,-2.59692 -3.849171,-3.68107 -0.35316,-0.3187 -0.866164,-0.64943 -1.342771,-0.84044 -0.370088,-0.14831 -0.80547,-0.24063 -1.22583,-0.30267 -0.433449,-0.064 -0.850925,-0.0958 -1.164384,-0.12361 z"
       id="path5023-4"
       inkscape:connector-curvature="0"
       sodipodi:nodetypes="ccccascscsscc" />
    <path
       sodipodi:nodetypes="ccccascscsscc"
       inkscape:connector-curvature="0"
       id="path4623-8"
       d="m 4.5713721,263.5729 v 32.61222 H 29.295294 v -18.3 c -0.04716,-0.83129 -0.101653,-1.57532 -0.312496,-2.32966 -0.21448,-0.76736 -0.552469,-1.49394 -0.956412,-2.18925 -0.516871,-0.88969 -1.39035,-1.46334 -2.166671,-2.19247 -0.47098,-0.42712 -1.488209,-1.4417 -2.719481,-2.65305 -1.221196,-1.20142 -2.653456,-2.59692 -3.849171,-3.68107 -0.35316,-0.3187 -0.866164,-0.64944 -1.342771,-0.84044 -0.370088,-0.14831 -0.80547,-0.24063 -1.22583,-0.30267 -0.433449,-0.064 -0.850925,-0.0958 -1.164384,-0.12361 z"
       style="opacity:1;fill:url(#linearGradient1503-8);fill-opacity:1;stroke:#808080;stroke-width:0.30000001;stroke-miterlimit:4;stroke-dasharray:none;stroke-opacity:1" />
    <rect
       style="fill:#ffffff;stroke:url(#linearGradient1191);stroke-width:0.26458332;stroke-linecap:square"
       height="20.692501"
       width="17.750601"
       y="272.44708"
       x="8.057951"
       id="rect1165" />
    <path
       style="fill:#ffd5d5;fill-opacity:1;stroke:none;stroke-width:0.26458329;stroke-linecap:square"
       d="m 8.1760238,275.59604 v 17.41358 h 3.3571232 v -17.41358 z"
       id="rect1253"
       inkscape:connector-curvature="0" />
    <path
       inkscape:connector-curvature="0"
       style="fill:#ffd5d5;fill-opacity:1;stroke:none;stroke-width:0.26458332;stroke-linecap:square"
       d="m 8.1760241,272.5654 v 3.02795 H 25.671913 v -3.02795 z"
       id="rect1244" />
    <path
       style="fill:none;stroke:#5d542c;stroke-width:0.26458332;stroke-opacity:0.32418003"
       d="m 16.062479,272.55573 v 20.51933"
       id="path1149"
       inkscape:connector-curvature="0" />
    <path
       style="fill:none;stroke:#5d542c;stroke-width:0.26458332;stroke-opacity:0.32418003"
       d="M 25.808556,278.71752 H 8.0579533"
       id="path1151"
       inkscape:connector-curvature="0" />
    <path
       style="fill:none;stroke:#5d542c;stroke-width:0.26458332;stroke-opacity:0.32418003"
       d="M 25.808556,281.85275 H 8.0579533"
       id="path1153"
       inkscape:connector-curvature="0" />
    <path
       style="fill:none;stroke:#5d542c;stroke-width:0.26458332;stroke-opacity:0.32418003"
       d="M 25.808556,284.98799 H 8.0579533"
       id="path1155"
       inkscape:connector-curvature="0" />
    <path
       style="fill:none;stroke:#5d542c;stroke-width:0.26458332;stroke-opacity:0.32418003"
       d="M 25.808556,288.12319 H 8.0579533"
       id="path1157"
       inkscape:connector-curvature="0" />
    <path
       style="fill:none;stroke:#5d542c;stroke-width:0.26458332;stroke-opacity:0.32418003"
       d="M 25.808556,291.25843 H 8.0579533"
       id="path1159"
       inkscape:connector-curvature="0" />
    <path
       style="fill:none;stroke:url(#linearGradient1189);stroke-width:0.26458332"
       d="M 25.808556,275.5823 H 8.0579533 m 3.5500507,-3.13385 v 20.69001"
       id="path1163"
       inkscape:connector-curvature="0" />
    <path
       inkscape:connector-curvature="0"
       id="path1214"
       d="m 20.824982,272.55489 v 20.52017"
       style="fill:none;stroke:#5d542c;stroke-width:0.26458332;stroke-opacity:0.32418003" />
    <path
       style="opacity:1;fill:#79221e;fill-opacity:1;stroke:none;stroke-width:0.30000001;stroke-miterlimit:4;stroke-dasharray:none;stroke-opacity:1"
       d="m 9.4291715,263.73235 -3.6225024,2.46385 0.1325493,2.38844 9.1315196,0.57009 8.89776,0.28705 c -0.305883,-0.29521 -0.581565,-0.56101 -0.929387,-0.89585 -1.214089,-1.16878 -2.637706,-2.52671 -3.826463,-3.58141 -0.351104,-0.31004 -0.861421,-0.63161 -1.335255,-0.81742 -0.367933,-0.14428 -0.800718,-0.23425 -1.218632,-0.2946 -0.430927,-0.0623 -0.84586,-0.0931 -1.157494,-0.12015 z"
       id="path1119"
       inkscape:connector-curvature="0" />
    <path
       sodipodi:nodetypes="ccccsccsc"
       inkscape:connector-curvature="0"
       id="path1355-8"
       d="m 19.751144,265.48426 c 0.01633,0.0263 0.561139,0.90462 0.727791,1.39886 0.451585,1.01234 0.25858,3.97236 0.250369,5.65885 0.02772,-0.19401 4.690513,-1.39583 7.111042,0.80464 -0.01547,-0.0273 -0.04888,-0.0804 -0.12512,-0.18628 -0.07235,-0.10046 -0.182749,-0.24915 -0.371644,-0.44224 -0.528108,-0.60452 -0.230926,-0.0845 -0.805409,-0.682 -0.496688,-0.45047 -1.569491,-1.52048 -2.867987,-2.79805 -1.241181,-1.22116 -2.686924,-2.62954 -3.919042,-3.75378 z"
       style="opacity:0.24800002;fill:#000000;fill-opacity:1;stroke:none;stroke-width:0.30000001;stroke-miterlimit:4;stroke-dasharray:none;stroke-opacity:1" />
    <path
       inkscape:connector-curvature="0"
       id="path1272"
       d="m 4.7251551,263.98792 v 6.13662 c 2.2235898,-0.32948 4.4562444,-0.59378 6.6859769,-0.8807 l 10.863694,-1.08851 c -1.032811,-1.00442 -2.133076,-2.06336 -3.095866,-2.93111 -0.346785,-0.31108 -0.850823,-0.63373 -1.318826,-0.82017 -0.363408,-0.14476 -0.790866,-0.23502 -1.203639,-0.29558 -0.425624,-0.0625 -0.835453,-0.0934 -1.143253,-0.12055 z"
       style="opacity:0.25;fill:#000000;fill-opacity:1;stroke:none;stroke-width:0.30000001;stroke-miterlimit:4;stroke-dasharray:none;stroke-opacity:1" />
    <path
       style="opacity:1;fill:url(#linearGradient1270);fill-opacity:1;stroke:none;stroke-width:0.30000001;stroke-miterlimit:4;stroke-dasharray:none;stroke-opacity:1"
       d="m 4.7251551,263.72323 v 6.13662 c 2.2235898,-0.32948 4.4562444,-0.59378 6.6859769,-0.8807 l 10.863694,-1.08851 c -1.032811,-1.00442 -2.133076,-2.06336 -3.095866,-2.93111 -0.346785,-0.31108 -0.850823,-0.63373 -1.318826,-0.82017 -0.363408,-0.14476 -0.790866,-0.23502 -1.203639,-0.29558 -0.425624,-0.0625 -0.835453,-0.0934 -1.143253,-0.12055 z"
       id="path1126"
       inkscape:connector-curvature="0" />
    <path
       style="opacity:1;fill:#ffffff;fill-opacity:1;stroke:#808080;stroke-width:0.30000001;stroke-miterlimit:4;stroke-dasharray:none;stroke-opacity:1"
       d="m 19.42404,264.96145 c 0.01548,0.0249 0.53209,0.85773 0.690115,1.32635 0.428208,0.95987 0.292235,3.21802 0.284449,4.8171 0.428993,-0.0223 5.159507,-0.73701 7.328404,1.82407 -0.02928,-0.0506 -0.10278,-0.0927 -0.143771,-0.17312 -0.500769,-0.57318 -1.139583,-1.03373 -1.723522,-1.58216 -0.470975,-0.42712 -1.48824,-1.44167 -2.719515,-2.65302 -1.176929,-1.15787 -2.547827,-2.49325 -3.71616,-3.55922 z"
       id="path4753-0"
       inkscape:connector-curvature="0"
       sodipodi:nodetypes="ccccccsc" />
    <g
       style="stroke-width:4.08449793"
       inkscape:transform-center-y="-9.4924686"
       inkscape:transform-center-x="5.4653607"
       inkscape:label="Capa 1"
       id="layer1-4-3"
       transform="matrix(0.53602412,0,0,0.5372689,-234.93365,-13.7853)">
      <g
         style="stroke-width:4.08449793"
         id="layer1-3-65-9"
         inkscape:label="Capa 1"
         transform="translate(0.41988239,0.03484499)" />
    </g>
    <g
       style="stroke-width:4.08449793"
       inkscape:transform-center-y="-9.4924686"
       inkscape:transform-center-x="5.4653607"
       inkscape:label="Capa 1"
       id="layer1-4"
       transform="matrix(0.53602412,0,0,0.5372689,-237.84015,-13.785294)">
      <g
         style="stroke-width:4.08449793"
         id="layer1-3-65"
         inkscape:label="Capa 1"
         transform="translate(0.41988239,0.03484499)" />
    </g>
    <g
       id="g3940"
       style="font-style:normal;font-variant:normal;font-weight:normal;font-stretch:normal;font-size:6.35981083px;line-height:125%;font-family:'Lucida Grande';-inkscape-font-specification:'Lucida Grande';letter-spacing:0px;word-spacing:0px;fill:#000000;fill-opacity:1;stroke:none"
       transform="matrix(0.23579897,0,0,0.23579897,-24.435199,276.50375)" />
    <g
       aria-label="B"
       style="font-style:normal;font-weight:normal;font-size:10.58333302px;line-height:1.25;font-family:sans-serif;letter-spacing:0px;word-spacing:0px;fill:#ffffff;fill-opacity:1;stroke:none;stroke-width:0.4492074;opacity:0.8"
       id="text1365"
       transform="matrix(0.58900035,0,0,0.58900035,8.0842428,115.05646)">
      <path
         d="m -1.9144997,260.44318 q -0.2432685,-0.0221 -0.3649028,-0.15481 -0.1105766,-0.14376 -0.1105766,-0.29856 0,-0.0774 0.044231,-0.18798 v -4.77692 q -0.099519,0.0332 -0.199038,0.0332 -0.1879801,0 -0.3096144,-0.12163 -0.1105766,-0.12164 -0.1105766,-0.2875 0,-0.24327 0.2653839,-0.45337 0.2653837,-0.21009 0.6413442,-0.3649 0.3759605,-0.16586 0.7740363,-0.25433 0.40913337,-0.0885 0.68557487,-0.0885 0.49759471,0 0.89567047,0.16586 0.40913344,0.16587 0.68557491,0.43125 0.28749925,0.25433 0.43124885,0.575 0.1548071,0.30961 0.1548071,0.60817 0,0.42019 -0.2211532,0.81826 -0.2100955,0.38702 -0.59711358,0.67453 0.55288308,0.27643 0.81826678,0.70768 0.2653839,0.42019 0.2653839,0.88461 0,0.30962 -0.1105766,0.60818 -0.1105766,0.28749 -0.3096144,0.54182 -0.1879803,0.25433 -0.45336409,0.45337 -0.26538389,0.18798 -0.58605604,0.2875 -0.40913342,0.13269 -0.84038218,0.16586 -0.42019108,0.0442 -0.84038219,0.0442 -0.1548072,0 -0.3096145,0 -0.1437495,0 -0.2985568,-0.0111 z m 2.42162759,-2.77548 q -0.25432619,-0.17692 -0.56394068,-0.25433 -0.29855682,-0.0884 -0.61922897,-0.12163 -0.18798022,0.0221 -0.38701814,0.0442 -0.1879802,0.0111 -0.3759604,0.0111 v 2.21153 q 0.2322109,0 0.63028661,-0.0221 0.39807577,-0.0221 0.77403623,-0.12163 0.3870181,-0.11058 0.6634596,-0.34279 0.28749918,-0.23221 0.28749918,-0.6524 0,-0.22116 -0.0995189,-0.42019 -0.099519,-0.19904 -0.3096145,-0.33173 z m -1.94614819,-1.30481 q 0.1769225,0 0.3427875,0.0111 0.17692252,0 0.35384508,0.0111 0.15480724,-0.0111 0.39807577,-0.0774 0.24326852,-0.0774 0.46442172,-0.19904 0.22115321,-0.13269 0.37596046,-0.32067 0.1658649,-0.18798 0.1658649,-0.44231 0,-0.24327 -0.12163427,-0.42019 -0.12163426,-0.17692 -0.30961448,-0.2875 -0.18798023,-0.12163 -0.43124875,-0.17693 -0.23221087,-0.0553 -0.45336407,-0.0553 -0.42019106,0 -0.78509386,0.14375 v 1.81346 z"
         style="font-style:normal;font-variant:normal;font-weight:normal;font-stretch:normal;font-family:Chalkboard;-inkscape-font-specification:Chalkboard;fill:#ffffff;stroke-width:0.4492074"
         id="path3542"
         inkscape:connector-curvature="0" />
    </g>
    <g
       style="stroke-width:4.08449793"
       inkscape:transform-center-y="-9.4924686"
       inkscape:transform-center-x="5.4653607"
       inkscape:label="Capa 1"
       id="layer1-4-3-9"
       transform="matrix(0.53602412,0,0,0.5372689,-297.49529,-30.764224)">
      <g
         style="stroke-width:4.08449793"
         id="layer1-3-65-9-29"
         inkscape:label="Capa 1"
         transform="translate(0.41988239,0.03484499)" />
    </g>
    <g
       style="stroke-width:4.08449793"
       inkscape:transform-center-y="-9.4924686"
       inkscape:transform-center-x="5.4653607"
       inkscape:label="Capa 1"
       id="layer1-4-6"
       transform="matrix(0.53602412,0,0,0.5372689,-297.49529,-30.739221)">
      <g
         style="stroke-width:4.08449793"
         id="layer1-3-65-91"
         inkscape:label="Capa 1"
         transform="translate(0.41988239,0.03484499)" />
    </g>
  </g>
</svg>
