<?xml version="1.0" encoding="UTF-8" standalone="no"?>
<!-- Created with Inkscape (http://www.inkscape.org/) -->

<svg
   xmlns:dc="http://purl.org/dc/elements/1.1/"
   xmlns:cc="http://creativecommons.org/ns#"
   xmlns:rdf="http://www.w3.org/1999/02/22-rdf-syntax-ns#"
   xmlns:svg="http://www.w3.org/2000/svg"
   xmlns="http://www.w3.org/2000/svg"
   xmlns:xlink="http://www.w3.org/1999/xlink"
   xmlns:sodipodi="http://sodipodi.sourceforge.net/DTD/sodipodi-0.dtd"
   xmlns:inkscape="http://www.inkscape.org/namespaces/inkscape"
   width="128"
   height="128"
   viewBox="0 0 33.866666 33.866668"
   version="1.1"
   id="svg8"
   inkscape:version="0.92.2 5c3e80d, 2017-08-06"
   sodipodi:docname="drawing.svg">
  <defs
     id="defs2">
    <linearGradient
       inkscape:collect="always"
       id="linearGradient850">
      <stop
         style="stop-color:#d3c8a8;stop-opacity:1"
         offset="0"
         id="stop846" />
      <stop
         style="stop-color:#ece6cd;stop-opacity:1"
         offset="1"
         id="stop848" />
    </linearGradient>
    <linearGradient
       inkscape:collect="always"
       xlink:href="#linearGradient850"
       id="linearGradient852"
       x1="-275.9075"
       y1="204.46181"
       x2="-276.78201"
       y2="174.498"
       gradientUnits="userSpaceOnUse" />
  </defs>
  <sodipodi:namedview
     id="base"
     pagecolor="#ffffff"
     bordercolor="#666666"
     borderopacity="1.0"
     inkscape:pageopacity="0.0"
     inkscape:pageshadow="2"
     inkscape:zoom="1.979899"
     inkscape:cx="-16.563491"
     inkscape:cy="47.862744"
     inkscape:document-units="mm"
     inkscape:current-layer="layer1"
     showgrid="false"
     inkscape:window-width="1600"
     inkscape:window-height="814"
     inkscape:window-x="0"
     inkscape:window-y="0"
     inkscape:window-maximized="1"
     units="px" />
  <metadata
     id="metadata5">
    <rdf:RDF>
      <cc:Work
         rdf:about="">
        <dc:format>image/svg+xml</dc:format>
        <dc:type
           rdf:resource="http://purl.org/dc/dcmitype/StillImage" />
        <dc:title></dc:title>
      </cc:Work>
    </rdf:RDF>
  </metadata>
  <g
     inkscape:label="Layer 1"
     inkscape:groupmode="layer"
     id="layer1"
     transform="translate(0,-263.13332)">
    <g
       id="g903"
       transform="matrix(1.0060906,0,0,1.0060633,-0.103135,-1.8893207)"
       style="stroke-width:0.99395972">
      <rect
         style="opacity:0.25;fill:#000000;fill-opacity:1;fill-rule:nonzero;stroke:none;stroke-width:0.29818794;stroke-linecap:round;stroke-miterlimit:4;stroke-dasharray:none;stroke-opacity:1"
         id="rect880"
         width="32.837502"
         height="31.989569"
         x="0.51458341"
         y="264.60104"
         ry="0.079515964" />
      <rect
         ry="0.079515964"
         y="264.07187"
         x="0.51458341"
         height="31.989569"
         width="32.837502"
         id="rect1004"
         style="opacity:1;fill:#efeee5;fill-opacity:1;fill-rule:nonzero;stroke:#c9c9b7;stroke-width:0.29818794;stroke-linecap:round;stroke-miterlimit:4;stroke-dasharray:none;stroke-opacity:1" />
      <rect
         ry="0.097570114"
         y="266.9325"
         x="2.7663436"
         height="25.880436"
         width="28.080133"
         id="rect1041"
         style="opacity:1;fill:#c9c8c1;fill-opacity:1;fill-rule:nonzero;stroke:#7a7a7a;stroke-width:0.19879197;stroke-linecap:round;stroke-miterlimit:4;stroke-dasharray:none;stroke-opacity:1" />
      <rect
         style="opacity:1;fill:#959592;fill-opacity:1;fill-rule:nonzero;stroke:#7a7a7a;stroke-width:0.19879197;stroke-linecap:round;stroke-miterlimit:4;stroke-dasharray:none;stroke-opacity:1"
         id="rect1039"
         width="25.735874"
         height="23.536932"
         x="4.0913587"
         y="268.20615"
         ry="0.088735022" />
      <rect
         ry="0.0795158"
         y="269.3779"
         x="5.3654103"
         height="21.091536"
         width="23.136806"
         id="rect1037"
         style="opacity:1;fill:#f3f3ed;fill-opacity:1;fill-rule:nonzero;stroke:#767676;stroke-width:0.19879197;stroke-linecap:round;stroke-miterlimit:4;stroke-dasharray:none;stroke-opacity:1" />
      <g
         id="text856"
         style="font-style:normal;font-weight:normal;font-size:3.87638927px;line-height:1.25;font-family:sans-serif;letter-spacing:0px;word-spacing:0px;fill:#828180;fill-opacity:1;stroke:#828180;stroke-width:0.09939598;stroke-miterlimit:4;stroke-dasharray:none;stroke-opacity:1"
         transform="scale(1.0001609,0.99983917)"
         aria-label="Entitlement">
        <path
           id="path849"
           style="font-style:italic;font-variant:normal;font-weight:normal;font-stretch:normal;font-size:5.38046074px;font-family:'Kunstler Script';-inkscape-font-specification:'Kunstler Script Italic';fill:#828180;fill-opacity:1;stroke:#828180;stroke-width:0.09939598;stroke-miterlimit:4;stroke-dasharray:none;stroke-opacity:1"
           d="m 10.192724,273.02904 q -0.02627,0.14187 0.03153,0.20755 l 0.06568,-0.003 q 0.202293,0 0.296871,0.0447 0.09458,0.042 0.08407,0.0972 -0.0079,0.0342 -0.04992,0.0578 -0.03941,0.0236 -0.08144,0.0236 -0.197038,0 -0.331024,-0.19441 -0.806544,0.10771 -1.4213037,0.66993 -0.6121325,0.56221 -0.6909478,0.96155 -0.036781,0.1839 0.1050871,0.31788 0.1418676,0.13399 0.4387388,0.13399 0.5595889,0 1.2006203,-0.34416 0.6436583,-0.34416 0.7251013,-0.75137 0.02627,-0.13399 -0.04992,-0.22331 -0.07619,-0.0893 -0.239074,-0.0893 -0.4072123,0 -0.9641741,0.31264 -0.5543345,0.31 -0.9142579,0.7251 l -0.015763,-0.0105 q 0.3625506,-0.41247 0.9168852,-0.72773 0.5569617,-0.31789 0.9694288,-0.31789 0.186529,0 0.273226,0.10246 0.0867,0.0998 0.06043,0.23382 -0.08407,0.41772 -0.7461181,0.76451 -0.6620489,0.34679 -1.2085019,0.34679 -0.3967039,0 -0.5464531,-0.20755 -0.1471219,-0.21017 -0.094578,-0.47552 0.094578,-0.46764 0.6095054,-0.86434 0.517554,-0.39933 1.5815607,-0.58061 -0.06043,-0.0762 -0.07882,-0.19441 -0.4466202,0.0893 -0.7224739,0.0893 -0.42823,0 -0.6226412,-0.18916 -0.1944111,-0.18916 -0.1471219,-0.4256 0.094578,-0.47027 0.6962022,-0.76977 0.6042509,-0.2995 1.3109618,-0.2995 l -0.0026,0.0184 q -0.7592546,0 -1.3162164,0.34416 -0.5543346,0.34416 -0.6331499,0.74874 -0.044662,0.2128 0.1418676,0.38094 0.1891568,0.16814 0.6121325,0.16814 0.2679722,0 0.6856942,-0.0867 -0.0079,-0.0946 0.0079,-0.17339 0.05517,-0.28111 0.349416,-0.55696 0.29687,-0.27848 0.835442,-0.52018 0.541198,-0.24433 0.864341,-0.24433 0.157631,0 0.244328,0.0683 0.0867,0.0683 0.06043,0.19441 -0.05517,0.28111 -0.683066,0.65154 -0.627896,0.37043 -1.607833,0.58586 z m 0.0079,-0.021 q 1.003582,-0.23119 1.602579,-0.58849 0.601624,-0.35729 0.656794,-0.64365 0.02102,-0.0998 -0.0578,-0.16026 -0.07619,-0.0631 -0.22331,-0.0631 -0.438738,0 -1.132314,0.5018 -0.690947,0.50179 -0.845951,0.95366 z m 0.03678,0.25221 q 0.131359,0.17602 0.307379,0.17602 0.08407,0 0.09458,-0.0578 0.01314,-0.0604 -0.09458,-0.0919 -0.107714,-0.0315 -0.210174,-0.0315 -0.03153,0 -0.0972,0.005 z"
           inkscape:connector-curvature="0" />
        <path
           id="path851"
           style="font-style:italic;font-variant:normal;font-weight:normal;font-stretch:normal;font-size:5.38046074px;font-family:'Kunstler Script';-inkscape-font-specification:'Kunstler Script Italic';fill:#828180;fill-opacity:1;stroke:#828180;stroke-width:0.09939598;stroke-miterlimit:4;stroke-dasharray:none;stroke-opacity:1"
           d="m 10.523748,274.82077 q 0.722474,-0.51755 0.945784,-0.51755 0.05254,0 0.08407,0.0368 0.03153,0.0342 0.01839,0.0946 -0.03415,0.17339 -0.304753,0.40721 l 0.0079,0.0105 q 0.725101,-0.5412 0.961547,-0.5412 0.178648,0 0.149749,0.15238 -0.02102,0.10246 -0.115596,0.21017 -0.09195,0.10772 -0.317888,0.2706 -0.22331,0.16289 -0.281108,0.21543 -0.05517,0.0499 -0.06305,0.0867 -0.0053,0.0289 0.01576,0.0499 0.02102,0.021 0.05254,0.021 0.08144,0 0.267972,-0.0841 0.189157,-0.0867 0.438739,-0.26797 l 0.199666,-0.1445 0.01314,0.0184 q -0.664677,0.50442 -0.932649,0.50442 -0.0578,0 -0.09195,-0.0447 -0.03153,-0.0473 -0.01839,-0.11559 0.01314,-0.0657 0.0578,-0.13399 0.04729,-0.0683 0.09721,-0.1156 0.05254,-0.0473 0.233819,-0.17865 l 0.139241,-0.10245 q 0.2417,-0.1734 0.254836,-0.24171 0.01314,-0.0709 -0.09195,-0.0709 -0.194412,0 -0.59637,0.27585 -0.401958,0.27323 -0.948411,0.71197 h -0.260091 l 0.869596,-0.71985 q 0.20492,-0.17076 0.215429,-0.22331 0.01051,-0.0604 -0.06305,-0.0604 -0.207547,0 -0.924767,0.51492 z"
           inkscape:connector-curvature="0" />
        <path
           id="path853"
           style="font-style:italic;font-variant:normal;font-weight:normal;font-stretch:normal;font-size:5.38046074px;font-family:'Kunstler Script';-inkscape-font-specification:'Kunstler Script Italic';fill:#828180;fill-opacity:1;stroke:#828180;stroke-width:0.09939598;stroke-miterlimit:4;stroke-dasharray:none;stroke-opacity:1"
           d="m 12.596592,274.83916 -0.01314,-0.0184 0.840697,-0.59111 0.354669,-0.2417 h -0.239074 l 0.01576,-0.0236 h 0.265345 l 0.535944,-0.46501 0.225937,-0.005 -0.522808,0.47026 h 0.378313 l -0.01314,0.0236 h -0.396703 l -1.100788,0.9668 q -0.197038,0.17339 -0.239073,0.21806 -0.04203,0.0447 -0.04992,0.0841 -0.0079,0.0394 0.01839,0.0683 0.0289,0.0263 0.06568,0.0263 0.215429,0 0.932648,-0.53069 l 0.01314,0.0184 q -0.740864,0.54383 -0.956293,0.54383 -0.06831,0 -0.107714,-0.0552 -0.03678,-0.0578 -0.02102,-0.13399 0.03941,-0.19703 0.357296,-0.47552 l 0.648913,-0.55696 -0.01051,-0.008 z"
           inkscape:connector-curvature="0" />
        <path
           id="path855"
           style="font-style:italic;font-variant:normal;font-weight:normal;font-stretch:normal;font-size:5.38046074px;font-family:'Kunstler Script';-inkscape-font-specification:'Kunstler Script Italic';fill:#828180;fill-opacity:1;stroke:#828180;stroke-width:0.09939598;stroke-miterlimit:4;stroke-dasharray:none;stroke-opacity:1"
           d="m 15.168599,273.78829 q -0.01051,0.0578 -0.06568,0.0972 -0.05517,0.0394 -0.107714,0.0394 -0.03678,0 -0.0578,-0.0263 -0.02102,-0.0289 -0.01314,-0.0683 0.01051,-0.0499 0.06305,-0.0946 0.05517,-0.0447 0.110342,-0.0447 0.03941,0 0.0578,0.0289 0.02102,0.0289 0.01314,0.0683 z m -1.500119,1.05087 -0.01314,-0.0184 q 0.149749,-0.11034 0.751373,-0.51492 h 0.254836 l -0.998327,0.81968 q -0.05517,0.0473 -0.08144,0.0946 l -0.0026,0.0184 q -0.0079,0.0342 0.01314,0.0604 0.02102,0.0263 0.06043,0.0263 0.08407,0 0.254836,-0.0841 0.170767,-0.0867 0.622641,-0.42035 l 0.01314,0.0184 q -0.68832,0.5123 -0.89324,0.5123 -0.06568,0 -0.09721,-0.042 -0.03153,-0.042 -0.01839,-0.11297 0.02102,-0.0998 0.110341,-0.21017 0.08932,-0.11297 0.609506,-0.53332 l -0.0026,-0.0131 -0.278481,0.18391 z"
           inkscape:connector-curvature="0" />
        <path
           id="path857"
           style="font-style:italic;font-variant:normal;font-weight:normal;font-stretch:normal;font-size:5.38046074px;font-family:'Kunstler Script';-inkscape-font-specification:'Kunstler Script Italic';fill:#828180;fill-opacity:1;stroke:#828180;stroke-width:0.09939598;stroke-miterlimit:4;stroke-dasharray:none;stroke-opacity:1"
           d="m 14.540703,274.83916 -0.01314,-0.0184 0.840697,-0.59111 0.35467,-0.2417 h -0.23907 l 0.01576,-0.0236 h 0.265345 l 0.535945,-0.46501 0.225937,-0.005 -0.522808,0.47026 h 0.378313 l -0.01314,0.0236 h -0.396704 l -1.100787,0.9668 q -0.197039,0.17339 -0.239073,0.21806 -0.04204,0.0447 -0.04992,0.0841 -0.0079,0.0394 0.01839,0.0683 0.0289,0.0263 0.06568,0.0263 0.215429,0 0.932648,-0.53069 l 0.01314,0.0184 q -0.740864,0.54383 -0.956293,0.54383 -0.06831,0 -0.107714,-0.0552 -0.03678,-0.0578 -0.02102,-0.13399 0.03941,-0.19703 0.357297,-0.47552 l 0.648913,-0.55696 -0.01051,-0.008 z"
           inkscape:connector-curvature="0" />
        <path
           id="path859"
           style="font-style:italic;font-variant:normal;font-weight:normal;font-stretch:normal;font-size:5.38046074px;font-family:'Kunstler Script';-inkscape-font-specification:'Kunstler Script Italic';fill:#828180;fill-opacity:1;stroke:#828180;stroke-width:0.09939598;stroke-miterlimit:4;stroke-dasharray:none;stroke-opacity:1"
           d="m 15.612592,274.83916 -0.01314,-0.0184 q 0.675185,-0.49391 0.788153,-0.56484 0.112969,-0.0709 0.173394,-0.0972 0.06305,-0.0263 0.110342,-0.0657 0.541198,-0.47815 1.024599,-0.85121 0.486028,-0.37306 0.817052,-0.57798 0.333652,-0.20755 0.528063,-0.20755 0.07093,0 0.110342,0.0447 0.03941,0.042 0.0289,0.0946 -0.03153,0.15238 -0.42823,0.45451 -0.394077,0.29949 -0.951039,0.59899 -0.556962,0.2995 -0.83807,0.37569 -0.07356,0.0709 -0.273226,0.24695 l -0.254836,0.2312 -0.328398,0.31526 q -0.341533,0.32839 -0.378313,0.41772 l -0.0053,0.0236 q -0.01576,0.0867 0.08144,0.0867 0.225937,0 0.922139,-0.52544 l 0.01314,0.0184 -0.186529,0.13662 q -0.559589,0.40721 -0.775018,0.40721 -0.06568,0 -0.105087,-0.0525 -0.03678,-0.0499 -0.02365,-0.12085 0.03941,-0.19441 0.415094,-0.56222 0.375687,-0.3678 0.472892,-0.4256 v -0.0158 q -0.102459,0.042 -0.317888,0.2023 z m 1.395031,-0.85383 q 0.223311,-0.0683 0.785527,-0.36255 0.562216,-0.29687 0.940529,-0.59111 0.380941,-0.29687 0.40984,-0.43612 0.0079,-0.042 -0.02627,-0.0736 -0.03153,-0.0342 -0.09195,-0.0342 -0.157631,0 -0.412467,0.15238 -0.254836,0.14975 -0.814425,0.63052 -0.559589,0.48077 -0.790781,0.71459 z"
           inkscape:connector-curvature="0" />
        <path
           id="path861"
           style="font-style:italic;font-variant:normal;font-weight:normal;font-stretch:normal;font-size:5.38046074px;font-family:'Kunstler Script';-inkscape-font-specification:'Kunstler Script Italic';fill:#828180;fill-opacity:1;stroke:#828180;stroke-width:0.09939598;stroke-miterlimit:4;stroke-dasharray:none;stroke-opacity:1"
           d="m 17.787896,274.82077 0.01314,0.0184 q -0.370433,0.27849 -0.656795,0.40459 -0.283735,0.12348 -0.438739,0.12348 -0.215428,0 -0.170766,-0.22069 0.0578,-0.29687 0.514927,-0.55958 0.459756,-0.26272 0.68832,-0.26272 0.04204,0 0.06831,0.0236 0.02627,0.0237 0.01839,0.0578 -0.02627,0.12873 -0.310007,0.2706 -0.281108,0.14187 -0.598997,0.17602 -0.320515,0.26797 -0.341533,0.36781 -0.0079,0.0473 0.0289,0.0893 0.03941,0.0394 0.10246,0.0394 0.136613,0 0.412467,-0.11823 0.275854,-0.12085 0.669931,-0.40984 z m -0.824934,0 q 0.07881,0 0.291616,-0.0683 0.212802,-0.0683 0.365178,-0.17602 0.155004,-0.10772 0.170767,-0.17865 0.01051,-0.0499 -0.04729,-0.0499 -0.06831,0 -0.160258,0.042 -0.09195,0.042 -0.286363,0.17339 -0.194411,0.12873 -0.333651,0.25746 z"
           inkscape:connector-curvature="0" />
        <path
           id="path863"
           style="font-style:italic;font-variant:normal;font-weight:normal;font-stretch:normal;font-size:5.38046074px;font-family:'Kunstler Script';-inkscape-font-specification:'Kunstler Script Italic';fill:#828180;fill-opacity:1;stroke:#828180;stroke-width:0.09939598;stroke-miterlimit:4;stroke-dasharray:none;stroke-opacity:1"
           d="m 17.798404,274.83916 -0.01314,-0.0184 0.30738,-0.21805 q 0.459756,-0.32314 0.625268,-0.32314 0.144495,0 0.110342,0.16288 -0.0289,0.14712 -0.304753,0.39408 l 0.01051,0.0105 q 0.782899,-0.55697 1.029853,-0.55697 0.07882,0 0.115596,0.0447 0.03678,0.0447 0.02627,0.0998 -0.03153,0.15238 -0.333652,0.41772 l 0.01051,0.005 q 0.210174,-0.16813 0.420349,-0.29949 0.212801,-0.13136 0.349414,-0.18916 0.139241,-0.0578 0.228565,-0.0578 0.173394,0 0.144495,0.14975 -0.02627,0.13136 -0.149749,0.25484 -0.120851,0.12085 -0.507046,0.38882 -0.107714,0.0762 -0.115596,0.12085 -0.01839,0.0946 0.10246,0.0946 0.118223,0 0.28899,-0.0919 0.173394,-0.0919 0.598996,-0.40722 l 0.01314,0.0184 q -0.501791,0.36518 -0.659421,0.43874 -0.157631,0.0709 -0.252209,0.0709 -0.07356,0 -0.115596,-0.0499 -0.03941,-0.0525 -0.02364,-0.12348 0.01839,-0.0972 0.112969,-0.19966 0.0972,-0.10246 0.365178,-0.28111 0.267972,-0.18128 0.286362,-0.27585 0.01576,-0.0736 -0.0867,-0.0736 -0.131359,0 -0.367805,0.11822 -0.233819,0.11559 -0.556962,0.36518 l -0.373059,0.29161 q -0.165512,0.12873 -0.257463,0.21018 l -0.244328,0.005 0.433484,-0.35729 q 0.344161,-0.28637 0.465011,-0.40196 0.12085,-0.11823 0.133986,-0.17865 0.0053,-0.0263 -0.01576,-0.0525 -0.02102,-0.0263 -0.06042,-0.0263 -0.118223,0 -0.404586,0.16289 -0.283735,0.16026 -0.609505,0.40196 l -0.593742,0.44662 -0.239073,0.005 0.115596,-0.10509 0.407212,-0.33365 q 0.320516,-0.26272 0.42823,-0.36518 0.107714,-0.10508 0.118223,-0.16288 0.01051,-0.0578 -0.0578,-0.0578 -0.0972,0 -0.299498,0.12085 -0.202293,0.11823 -0.606878,0.40721 z"
           inkscape:connector-curvature="0" />
        <path
           id="path865"
           style="font-style:italic;font-variant:normal;font-weight:normal;font-stretch:normal;font-size:5.38046074px;font-family:'Kunstler Script';-inkscape-font-specification:'Kunstler Script Italic';fill:#828180;fill-opacity:1;stroke:#828180;stroke-width:0.09939598;stroke-miterlimit:4;stroke-dasharray:none;stroke-opacity:1"
           d="m 21.812732,274.82077 0.01314,0.0184 q -0.370432,0.27849 -0.656794,0.40459 -0.283736,0.12348 -0.438739,0.12348 -0.215429,0 -0.170767,-0.22069 0.0578,-0.29687 0.514927,-0.55958 0.459756,-0.26272 0.688321,-0.26272 0.04203,0 0.06831,0.0236 0.02627,0.0237 0.01839,0.0578 -0.02627,0.12873 -0.310007,0.2706 -0.281108,0.14187 -0.598997,0.17602 -0.320516,0.26797 -0.341533,0.36781 -0.0079,0.0473 0.0289,0.0893 0.03941,0.0394 0.10246,0.0394 0.136613,0 0.412467,-0.11823 0.275853,-0.12085 0.66993,-0.40984 z m -0.824934,0 q 0.07882,0 0.291617,-0.0683 0.212801,-0.0683 0.365178,-0.17602 0.155003,-0.10772 0.170766,-0.17865 0.01051,-0.0499 -0.04729,-0.0499 -0.06831,0 -0.160258,0.042 -0.09195,0.042 -0.286362,0.17339 -0.194411,0.12873 -0.333652,0.25746 z"
           inkscape:connector-curvature="0" />
        <path
           id="path867"
           style="font-style:italic;font-variant:normal;font-weight:normal;font-stretch:normal;font-size:5.38046074px;font-family:'Kunstler Script';-inkscape-font-specification:'Kunstler Script Italic';fill:#828180;fill-opacity:1;stroke:#828180;stroke-width:0.09939598;stroke-miterlimit:4;stroke-dasharray:none;stroke-opacity:1"
           d="m 21.810105,274.82077 q 0.722474,-0.51755 0.945785,-0.51755 0.05254,0 0.08407,0.0368 0.03153,0.0342 0.01839,0.0946 -0.03415,0.17339 -0.304752,0.40721 l 0.0079,0.0105 q 0.725101,-0.5412 0.961548,-0.5412 0.178648,0 0.149749,0.15238 -0.02102,0.10246 -0.115596,0.21017 -0.09195,0.10772 -0.317889,0.2706 -0.22331,0.16289 -0.281108,0.21543 -0.05517,0.0499 -0.06305,0.0867 -0.0053,0.0289 0.01576,0.0499 0.02102,0.021 0.05254,0.021 0.08144,0 0.267972,-0.0841 0.189157,-0.0867 0.438739,-0.26797 l 0.199665,-0.1445 0.01314,0.0184 q -0.664676,0.50442 -0.932648,0.50442 -0.0578,0 -0.09195,-0.0447 -0.03153,-0.0473 -0.01839,-0.11559 0.01314,-0.0657 0.0578,-0.13399 0.04729,-0.0683 0.09721,-0.1156 0.05254,-0.0473 0.233819,-0.17865 l 0.13924,-0.10245 q 0.2417,-0.1734 0.254836,-0.24171 0.01314,-0.0709 -0.09195,-0.0709 -0.194411,0 -0.596369,0.27585 -0.401959,0.27323 -0.948412,0.71197 h -0.26009 l 0.869596,-0.71985 q 0.20492,-0.17076 0.215428,-0.22331 0.01051,-0.0604 -0.06305,-0.0604 -0.207547,0 -0.924767,0.51492 z"
           inkscape:connector-curvature="0" />
        <path
           id="path869"
           style="font-style:italic;font-variant:normal;font-weight:normal;font-stretch:normal;font-size:5.38046074px;font-family:'Kunstler Script';-inkscape-font-specification:'Kunstler Script Italic';fill:#828180;fill-opacity:1;stroke:#828180;stroke-width:0.09939598;stroke-miterlimit:4;stroke-dasharray:none;stroke-opacity:1"
           d="m 23.882949,274.83916 -0.01314,-0.0184 0.840697,-0.59111 0.354669,-0.2417 h -0.239073 l 0.01576,-0.0236 h 0.265345 l 0.535944,-0.46501 0.225938,-0.005 -0.522809,0.47026 h 0.378314 l -0.01314,0.0236 H 25.31475 l -1.100788,0.9668 q -0.197038,0.17339 -0.239073,0.21806 -0.04204,0.0447 -0.04992,0.0841 -0.0079,0.0394 0.01839,0.0683 0.0289,0.0263 0.06568,0.0263 0.215429,0 0.932649,-0.53069 l 0.01314,0.0184 q -0.740865,0.54383 -0.956293,0.54383 -0.06831,0 -0.107715,-0.0552 -0.03678,-0.0578 -0.02102,-0.13399 0.03941,-0.19703 0.357296,-0.47552 l 0.648913,-0.55696 -0.01051,-0.008 z"
           inkscape:connector-curvature="0" />
      </g>
      <rect
         ry="0"
         y="277.72028"
         x="8.7671328"
         height="0.94249612"
         width="16.448029"
         id="rect1010"
         style="opacity:1;fill:#d7d7d1;fill-opacity:1;fill-rule:nonzero;stroke:none;stroke-width:0.49697986;stroke-linecap:round;stroke-miterlimit:4;stroke-dasharray:none;stroke-opacity:1" />
      <rect
         style="opacity:1;fill:#d7d7d1;fill-opacity:1;fill-rule:nonzero;stroke:none;stroke-width:0.49697986;stroke-linecap:round;stroke-miterlimit:4;stroke-dasharray:none;stroke-opacity:1"
         id="rect1012"
         width="12.412033"
         height="0.94249612"
         x="10.767117"
         y="283.12387"
         ry="0" />
      <rect
         ry="0"
         y="280.39828"
         x="7.5692396"
         height="0.94249612"
         width="18.871483"
         id="rect1014"
         style="opacity:1;fill:#d7d7d1;fill-opacity:1;fill-rule:nonzero;stroke:none;stroke-width:0.49697986;stroke-linecap:round;stroke-miterlimit:4;stroke-dasharray:none;stroke-opacity:1" />
      <path
         transform="matrix(0.19067692,0,0,0.19061559,70.444052,253.31788)"
         inkscape:transform-center-y="-0.035971896"
         inkscape:transform-center-x="-0.090914776"
         d="m -268.64484,199.48914 0.48393,3.81218 -3.75778,-0.80374 -0.60969,3.79409 -3.37912,-1.82987 -1.65392,3.46864 -2.7267,-2.70776 -2.56415,2.86218 -1.8534,-3.36628 -3.26664,2.02383 -0.82993,-3.75208 -3.70451,1.02153 0.26077,-3.83391 -3.84224,-0.0635 1.33035,-3.60515 -3.66871,-1.14344 2.29214,-3.08431 -3.19796,-2.13071 3.06825,-2.3136 -2.46812,-2.94538 3.59578,-1.35546 -1.53834,-3.52142 3.832,-0.28751 -0.48393,-3.81217 3.75778,0.80374 0.60969,-3.7941 3.37912,1.82987 1.65391,-3.46864 2.72671,2.70776 2.56415,-2.86217 1.85339,3.36628 3.26665,-2.02384 0.82993,3.75208 3.70451,-1.02153 -0.26077,3.83392 3.84224,0.0635 -1.33035,3.60514 3.66871,1.14344 -2.29214,3.08431 3.19796,2.13072 -3.06825,2.3136 2.46812,2.94538 -3.59578,1.35545 1.53834,3.52142 z"
         inkscape:randomized="0"
         inkscape:rounded="0"
         inkscape:flatsided="false"
         sodipodi:arg2="0.82762092"
         sodipodi:arg1="0.68482125"
         sodipodi:r2="18.596476"
         sodipodi:r1="15.621038"
         sodipodi:cy="189.60829"
         sodipodi:cx="-280.74384"
         sodipodi:sides="22"
         id="path1035"
         style="opacity:1;fill:url(#linearGradient852);fill-opacity:1;fill-rule:nonzero;stroke:#807b6a;stroke-width:0.52136332;stroke-linecap:round;stroke-miterlimit:4;stroke-dasharray:none;stroke-opacity:1"
         sodipodi:type="star" />
    </g>
  </g>
</svg>
