<?xml version="1.0" encoding="UTF-8" standalone="no"?>
<!-- Created with Inkscape (http://www.inkscape.org/) -->

<svg
   xmlns:osb="http://www.openswatchbook.org/uri/2009/osb"
   xmlns:dc="http://purl.org/dc/elements/1.1/"
   xmlns:cc="http://creativecommons.org/ns#"
   xmlns:rdf="http://www.w3.org/1999/02/22-rdf-syntax-ns#"
   xmlns:svg="http://www.w3.org/2000/svg"
   xmlns="http://www.w3.org/2000/svg"
   xmlns:xlink="http://www.w3.org/1999/xlink"
   xmlns:sodipodi="http://sodipodi.sourceforge.net/DTD/sodipodi-0.dtd"
   xmlns:inkscape="http://www.inkscape.org/namespaces/inkscape"
   width="128"
   height="128"
   viewBox="0 0 33.866666 33.866668"
   version="1.1"
   id="svg8"
   inkscape:version="0.92.3 (2405546, 2018-03-11)"
   sodipodi:docname="application-vnd.openxmlformats-officedocument.spreadsheetml.sheet.svg">
  <defs
     id="defs2">
    <linearGradient
       id="linearGradient1830">
      <stop
         id="stop1826"
         style="stop-color:#d9d9d9;stop-opacity:1"
         offset="0" />
      <stop
         id="stop1828"
         style="stop-color:#ffffff;stop-opacity:1;"
         offset="1" />
    </linearGradient>
    <linearGradient
       osb:paint="solid"
       id="linearGradient6987">
      <stop
         id="stop6985"
         offset="0"
         style="stop-color:#77d2fb;stop-opacity:1;" />
    </linearGradient>
    <linearGradient
       inkscape:collect="always"
       id="linearGradient4730">
      <stop
         style="stop-color:#196138;stop-opacity:1"
         offset="0"
         id="stop4732" />
      <stop
         style="stop-color:#318358;stop-opacity:1"
         offset="1"
         id="stop4734" />
    </linearGradient>
    <linearGradient
       y2="233.70825"
       x2="46.972088"
       y1="232.64992"
       x1="-6.8459705"
       gradientTransform="matrix(0.20006137,0,0,0.19453105,45.823456,238.85125)"
       gradientUnits="userSpaceOnUse"
       id="linearGradient4614"
       xlink:href="#linearGradient4730"
       inkscape:collect="always" />
    <linearGradient
       inkscape:collect="always"
       xlink:href="#linearGradient1830"
       id="linearGradient1503-8"
       x1="29.203474"
       y1="263.52237"
       x2="4.5843229"
       y2="296.16849"
       gradientUnits="userSpaceOnUse"
       gradientTransform="matrix(1.0010487,0,0,1.0010383,1.5591016,-0.26586232)" />
  </defs>
  <sodipodi:namedview
     id="base"
     pagecolor="#ffffff"
     bordercolor="#666666"
     borderopacity="1.0"
     inkscape:pageopacity="0.0"
     inkscape:pageshadow="2"
     inkscape:zoom="1.979899"
     inkscape:cx="49.611629"
     inkscape:cy="41.334451"
     inkscape:document-units="mm"
     inkscape:current-layer="layer1"
     showgrid="false"
     units="px"
     inkscape:window-width="1600"
     inkscape:window-height="838"
     inkscape:window-x="-8"
     inkscape:window-y="-8"
     inkscape:window-maximized="1"
     showguides="false" />
  <metadata
     id="metadata5">
    <rdf:RDF>
      <cc:Work
         rdf:about="">
        <dc:format>image/svg+xml</dc:format>
        <dc:type
           rdf:resource="http://purl.org/dc/dcmitype/StillImage" />
        <dc:title />
      </cc:Work>
    </rdf:RDF>
  </metadata>
  <g
     inkscape:label="Layer 1"
     inkscape:groupmode="layer"
     id="layer1"
     transform="translate(0,-263.13332)">
    <path
       style="opacity:0.25;fill:#000000;fill-opacity:1;stroke:none;stroke-width:1.87499988;stroke-miterlimit:4;stroke-dasharray:none;stroke-opacity:1"
       d="M 6.1482316,264.12318 V 296.7354 H 30.872154 v -18.3 c -0.04716,-0.8313 -0.101653,-1.57532 -0.312496,-2.32966 -0.21448,-0.76736 -0.552469,-1.49394 -0.956412,-2.18925 -0.516871,-0.8897 -1.39035,-1.46334 -2.166671,-2.19248 -0.47098,-0.42711 -1.488209,-1.44169 -2.719481,-2.65304 -1.221196,-1.20143 -2.653456,-2.59692 -3.849171,-3.68107 -0.35316,-0.3187 -0.866164,-0.64943 -1.342771,-0.84044 -0.370088,-0.14831 -0.80547,-0.24063 -1.22583,-0.30267 -0.433449,-0.064 -0.850926,-0.0958 -1.164384,-0.12361 z"
       id="path5023-4"
       inkscape:connector-curvature="0"
       sodipodi:nodetypes="ccccascscsscc" />
    <path
       sodipodi:nodetypes="ccccascscsscc"
       inkscape:connector-curvature="0"
       id="path4623-8"
       d="m 6.1482316,263.5979 v 32.61222 H 30.872154 v -18.3 c -0.04716,-0.83129 -0.101653,-1.57532 -0.312496,-2.32966 -0.21448,-0.76736 -0.552469,-1.49394 -0.956412,-2.18925 -0.516871,-0.88969 -1.39035,-1.46334 -2.166671,-2.19247 -0.47098,-0.42712 -1.488209,-1.4417 -2.719481,-2.65305 -1.221196,-1.20142 -2.653456,-2.59692 -3.849171,-3.68107 -0.35316,-0.3187 -0.866164,-0.64944 -1.342771,-0.84044 -0.370088,-0.14831 -0.80547,-0.24063 -1.22583,-0.30267 -0.433449,-0.064 -0.850926,-0.0958 -1.164384,-0.12361 z"
       style="opacity:1;fill:url(#linearGradient1503-8);fill-opacity:1;stroke:#808080;stroke-width:0.30000001;stroke-miterlimit:4;stroke-dasharray:none;stroke-opacity:1" />
    <path
       sodipodi:nodetypes="ccccsccsc"
       inkscape:connector-curvature="0"
       id="path1355-8"
       d="m 21.328004,265.50926 c 0.01633,0.0263 0.561139,0.90462 0.727791,1.39886 0.451585,1.01234 0.25858,3.97236 0.250369,5.65885 0.02772,-0.19401 4.690513,-1.39583 7.111042,0.80464 -0.01547,-0.0273 -0.04888,-0.0804 -0.12512,-0.18628 -0.07235,-0.10046 -0.182749,-0.24915 -0.371644,-0.44224 -0.528108,-0.60452 -0.230926,-0.0845 -0.805409,-0.682 -0.496688,-0.45047 -1.569491,-1.52048 -2.867987,-2.79805 -1.241182,-1.22116 -2.686924,-2.62954 -3.919042,-3.75378 z"
       style="opacity:0.24800002;fill:#000000;fill-opacity:1;stroke:none;stroke-width:0.30000001;stroke-miterlimit:4;stroke-dasharray:none;stroke-opacity:1" />
    <path
       style="opacity:1;fill:#ffffff;fill-opacity:1;stroke:#808080;stroke-width:0.30000001;stroke-miterlimit:4;stroke-dasharray:none;stroke-opacity:1"
       d="m 21.0009,264.98645 c 0.01548,0.0249 0.53209,0.85773 0.690114,1.32635 0.428208,0.95987 0.292236,3.21802 0.28445,4.8171 0.428992,-0.0223 5.159507,-0.73701 7.328403,1.82407 -0.02928,-0.0506 -0.102779,-0.0927 -0.143771,-0.17312 -0.500768,-0.57318 -1.139582,-1.03373 -1.723521,-1.58216 -0.470975,-0.42712 -1.488241,-1.44167 -2.719516,-2.65302 -1.176928,-1.15787 -2.547826,-2.49325 -3.716159,-3.55922 z"
       id="path4753-0"
       inkscape:connector-curvature="0"
       sodipodi:nodetypes="ccccccsc" />
    <g
       style="stroke-width:4.08449793"
       inkscape:transform-center-y="-9.4924686"
       inkscape:transform-center-x="5.4653607"
       inkscape:label="Capa 1"
       id="layer1-4-3"
       transform="matrix(0.53602412,0,0,0.5372689,-233.35679,-13.760303)">
      <g
         style="stroke-width:4.08449793"
         id="layer1-3-65-9"
         inkscape:label="Capa 1"
         transform="translate(0.41988239,0.03484499)" />
    </g>
    <g
       style="stroke-width:4.08449793"
       inkscape:transform-center-y="-9.4924686"
       inkscape:transform-center-x="5.4653607"
       inkscape:label="Capa 1"
       id="layer1-4"
       transform="matrix(0.53602412,0,0,0.5372689,-236.26329,-13.760297)">
      <g
         style="stroke-width:4.08449793"
         id="layer1-3-65"
         inkscape:label="Capa 1"
         transform="translate(0.41988239,0.03484499)" />
    </g>
    <g
       id="g2092"
       transform="translate(-41.668746,-1.1022873)">
      <path
         style="opacity:1;fill:url(#linearGradient4614);fill-opacity:1;fill-rule:evenodd;stroke:none;stroke-width:0.09375;stroke-linecap:butt;stroke-linejoin:miter;stroke-miterlimit:4;stroke-dasharray:none;stroke-opacity:1"
         d="m 56.268301,275.20456 0.425195,0.0881 -0.0039,17.63635 -0.425195,0.0842 -11.801142,-1.76287 0.0089,-14.58193 c 3.907064,-0.48155 7.867638,-0.98489 11.796179,-1.46382 z"
         id="path4612"
         inkscape:connector-curvature="0"
         sodipodi:nodetypes="ccccccc" />
      <path
         sodipodi:nodetypes="cccscsccssssssccscscscsccssc"
         inkscape:connector-curvature="0"
         id="path4907"
         d="m 52.879867,280.54214 c -0.473341,0.004 -0.979806,0.0301 -1.429378,0.0779 l -0.482233,1.01282 c -0.265226,0.55705 -0.516367,1.11324 -0.558072,1.23598 -0.04171,0.12274 -0.08709,0.22316 -0.10086,0.22316 -0.01378,0 -0.05491,-0.0882 -0.09137,-0.196 -0.03646,-0.10779 -0.258563,-0.64082 -0.493653,-1.18448 l -0.42744,-0.98848 -0.475432,0.008 c -0.672755,0.0117 -1.042744,0.0424 -1.042744,0.0867 0,0.0206 0.355939,0.7278 0.790975,1.57162 0.435035,0.84382 0.790977,1.55269 0.790977,1.57521 0,0.0225 -0.38689,0.72538 -0.859756,1.56201 -0.472867,0.83664 -0.859756,1.54491 -0.859756,1.5738 0,0.0442 0.09134,0.0558 0.576035,0.074 0.316821,0.0119 0.630204,0.0285 0.696403,0.0369 0.0662,0.008 0.139107,0.004 0.162069,-0.0106 0.05465,-0.0339 0.958522,-1.88033 1.061609,-2.1686 0.04378,-0.12243 0.09395,-0.22736 0.111383,-0.23316 0.01743,-0.006 0.04851,0.0558 0.06916,0.13682 0.03458,0.13564 1.04623,2.31416 1.099847,2.36845 0.01299,0.0132 0.302173,0.0379 0.642637,0.055 0.871588,0.0436 0.973739,0.0449 0.993468,0.0131 0.0093,-0.016 -0.409164,-0.79568 -0.930333,-1.73304 l -0.947914,-1.70485 0.91519,-1.66296 c 0.5034,-0.91464 0.91532,-1.68104 0.91532,-1.70319 0,-0.0151 -0.03608,-0.0237 -0.12614,-0.0263 z"
         style="fill:#ffffff;fill-opacity:1;stroke-width:1" />
    </g>
    <g
       id="g889"
       transform="translate(33.809595)"
       style="fill:#85be9f;fill-opacity:1">
      <g
         id="text873"
         style="font-style:normal;font-weight:normal;font-size:15.58510494px;line-height:1.25;font-family:sans-serif;letter-spacing:0px;word-spacing:0px;fill:#85be9f;fill-opacity:1;stroke:none;stroke-width:0.38962761"
         aria-label="a">
        <path
           id="path879"
           style="font-style:normal;font-variant:normal;font-weight:normal;font-stretch:normal;font-family:sans-serif;-inkscape-font-specification:sans-serif;stroke-width:0.38962761;fill:#85be9f;fill-opacity:1"
           d="m -7.9429988,292.69733 h -1.423054 v -0.90558 q -0.1902478,0.12937 -0.5174742,0.36527 -0.319616,0.2283 -0.624013,0.36528 -0.357666,0.17503 -0.821871,0.28918 -0.464205,0.12175 -1.088217,0.12175 -1.149098,0 -1.948139,-0.76099 -0.799041,-0.76099 -0.799041,-1.94053 0,-0.96645 0.410936,-1.56003 0.418545,-0.60118 1.187146,-0.94363 0.776212,-0.34244 1.864429,-0.4642 1.088218,-0.12176 2.3362442,-0.18264 v -0.22069 q 0,-0.48703 -0.175028,-0.80665 -0.1674181,-0.31962 -0.4870342,-0.50225 -0.304397,-0.17503 -0.730552,-0.23591 -0.426155,-0.0609 -0.89036,-0.0609 -0.563134,0 -1.255636,0.1522 -0.692502,0.14459 -1.430664,0.42615 h -0.0761 v -1.45349 q 0.418545,-0.11415 1.209976,-0.25113 0.791431,-0.13698 1.560033,-0.13698 0.89797,0 1.560032,0.1522 0.6696727,0.14459 1.1567073,0.50226 0.4794246,0.35005 0.7305518,0.90558 0.2511271,0.55552 0.2511271,1.37739 z m -1.423054,-2.09273 v -2.36668 q -0.6544522,0.038 -1.5448122,0.11415 -0.882751,0.0761 -1.400225,0.22068 -0.616403,0.17503 -0.996898,0.54792 -0.380496,0.36527 -0.380496,1.01212 0,0.73055 0.441375,1.10343 0.441375,0.36528 1.346955,0.36528 0.753381,0 1.377394,-0.28918 0.6240132,-0.29678 1.1567072,-0.70772 z"
           inkscape:connector-curvature="0" />
      </g>
      <g
         id="text877"
         style="font-style:normal;font-weight:normal;font-size:15.58510494px;line-height:1.25;font-family:sans-serif;letter-spacing:0px;word-spacing:0px;fill:#85be9f;fill-opacity:1;stroke:none;stroke-width:0.38962761"
         aria-label=",">
        <path
           id="path882"
           style="font-style:normal;font-variant:normal;font-weight:normal;font-stretch:normal;font-size:9.87777805px;font-family:sans-serif;-inkscape-font-specification:sans-serif;stroke-width:0.38962761;fill:#85be9f;fill-opacity:1"
           d="m -5.7161304,291.223 -1.3601237,3.15915 h -0.7041776 l 0.8392253,-3.15915 z"
           inkscape:connector-curvature="0" />
      </g>
    </g>
  </g>
</svg>
