<?xml version="1.0" encoding="UTF-8" standalone="no"?>
<!-- Created with Inkscape (http://www.inkscape.org/) -->

<svg
   xmlns:osb="http://www.openswatchbook.org/uri/2009/osb"
   xmlns:dc="http://purl.org/dc/elements/1.1/"
   xmlns:cc="http://creativecommons.org/ns#"
   xmlns:rdf="http://www.w3.org/1999/02/22-rdf-syntax-ns#"
   xmlns:svg="http://www.w3.org/2000/svg"
   xmlns="http://www.w3.org/2000/svg"
   xmlns:xlink="http://www.w3.org/1999/xlink"
   xmlns:sodipodi="http://sodipodi.sourceforge.net/DTD/sodipodi-0.dtd"
   xmlns:inkscape="http://www.inkscape.org/namespaces/inkscape"
   width="128"
   height="128"
   viewBox="0 0 33.866666 33.866668"
   version="1.1"
   id="svg1038"
   inkscape:version="0.92.2 5c3e80d, 2017-08-06"
   sodipodi:docname="text-x-perl.svg">
  <defs
     id="defs1032">
    <linearGradient
       osb:paint="solid"
       id="linearGradient6987">
      <stop
         id="stop6985"
         offset="0"
         style="stop-color:#77d2fb;stop-opacity:1;" />
    </linearGradient>
    <linearGradient
       id="linearGradient1830">
      <stop
         offset="0"
         style="stop-color:#d9d9d9;stop-opacity:1"
         id="stop1826" />
      <stop
         offset="1"
         style="stop-color:#ffffff;stop-opacity:1;"
         id="stop1828" />
    </linearGradient>
    <linearGradient
       inkscape:collect="always"
       xlink:href="#linearGradient1830"
       id="linearGradient1503"
       x1="29.203474"
       y1="263.52237"
       x2="4.5843229"
       y2="296.16849"
       gradientUnits="userSpaceOnUse"
       gradientTransform="matrix(1.0010487,0,0,1.0010383,-0.01775767,-0.29086231)" />
  </defs>
  <sodipodi:namedview
     id="base"
     pagecolor="#ffffff"
     bordercolor="#666666"
     borderopacity="1.0"
     inkscape:pageopacity="0.0"
     inkscape:pageshadow="2"
     inkscape:zoom="1.7030101"
     inkscape:cx="204.33568"
     inkscape:cy="46.244922"
     inkscape:document-units="mm"
     inkscape:current-layer="layer1"
     showgrid="false"
     inkscape:window-width="1600"
     inkscape:window-height="814"
     inkscape:window-x="0"
     inkscape:window-y="0"
     inkscape:window-maximized="1"
     units="px" />
  <metadata
     id="metadata1035">
    <rdf:RDF>
      <cc:Work
         rdf:about="">
        <dc:format>image/svg+xml</dc:format>
        <dc:type
           rdf:resource="http://purl.org/dc/dcmitype/StillImage" />
        <dc:title />
      </cc:Work>
    </rdf:RDF>
  </metadata>
  <g
     inkscape:label="Layer 1"
     inkscape:groupmode="layer"
     id="layer1"
     transform="translate(0,-263.13332)">
    <path
       style="opacity:0.25;fill:#000000;fill-opacity:1;stroke:none;stroke-width:1.87499988;stroke-miterlimit:4;stroke-dasharray:none;stroke-opacity:1"
       d="M 4.5713723,264.09818 V 296.7104 H 29.295294 v -18.3 c -0.04716,-0.8313 -0.101653,-1.57532 -0.312496,-2.32966 -0.21448,-0.76736 -0.552469,-1.49394 -0.956412,-2.18925 -0.516871,-0.8897 -1.39035,-1.46334 -2.166671,-2.19248 -0.47098,-0.42711 -1.488209,-1.44169 -2.719481,-2.65304 -1.221196,-1.20143 -2.653456,-2.59692 -3.849171,-3.68107 -0.35316,-0.3187 -0.866164,-0.64943 -1.342771,-0.84044 -0.370088,-0.14831 -0.80547,-0.24063 -1.22583,-0.30267 -0.433449,-0.064 -0.850926,-0.0958 -1.164384,-0.12361 z"
       id="path5023"
       inkscape:connector-curvature="0"
       sodipodi:nodetypes="ccccascscsscc" />
    <path
       sodipodi:nodetypes="ccccascscsscc"
       inkscape:connector-curvature="0"
       id="path4623-8"
       d="m 4.5713723,263.5729 v 32.61222 H 29.295294 v -18.3 c -0.04716,-0.83129 -0.101653,-1.57532 -0.312496,-2.32966 -0.21448,-0.76736 -0.552469,-1.49394 -0.956412,-2.18925 -0.516871,-0.88969 -1.39035,-1.46334 -2.166671,-2.19247 -0.47098,-0.42712 -1.488209,-1.4417 -2.719481,-2.65305 -1.221196,-1.20142 -2.653456,-2.59692 -3.849171,-3.68107 -0.35316,-0.3187 -0.866164,-0.64944 -1.342771,-0.84044 -0.370088,-0.14831 -0.80547,-0.24063 -1.22583,-0.30267 -0.433449,-0.064 -0.850926,-0.0958 -1.164384,-0.12361 z"
       style="opacity:1;fill:url(#linearGradient1503);fill-opacity:1;stroke:#808080;stroke-width:0.30000001;stroke-miterlimit:4;stroke-dasharray:none;stroke-opacity:1" />
    <path
       inkscape:connector-curvature="0"
       style="fill:#4d4d4d;fill-opacity:1;fill-rule:evenodd;stroke:none;stroke-width:0.30000004;stroke-miterlimit:4;stroke-dasharray:none"
       d="m 20.052393,288.81141 c -0.665848,-0.088 0.117353,-0.75656 0.33839,-0.89026 0.425706,-0.25437 0.772278,-0.5446 1.039711,-1.02397 0.422979,-0.76961 0.611577,-1.79034 0.791684,-2.67408 0.120075,-0.60002 0.237113,-0.94896 -0.08217,-1.4577 -0.316551,-0.50544 0.223769,-0.92286 -0.111889,-1.45768 -0.562155,-0.8968 -0.799572,-2.08381 -1.356268,-2.97082 -0.158276,-0.25111 -0.100974,-0.4859 -0.327465,-0.51199 -0.109156,-0.0131 -0.390235,0.24784 -0.485747,0.32284 -0.275618,0.22174 -0.611276,0.3261 -0.881435,0.54133 -0.136448,0.10765 -0.395692,0.0293 -0.507578,0.13371 -0.324739,0.30327 -0.248331,1.24573 -0.215582,1.72835 0.04913,0.6881 0.510306,0.90333 0.510306,1.56532 0,0.79896 -0.120394,1.34356 0.08973,2.16208 0.120061,0.4696 0.423134,1.00442 0.472254,1.48379 0.04093,0.37828 -0.01908,0.36849 -0.111889,0.72721 -0.109155,0.4272 -0.158109,0.80873 -0.49649,1.00114 -0.193756,0.10766 -1.082341,0.15326 -1.191495,-0.10764 -0.215587,-0.512 0.605816,-0.68809 0.744988,-1.00115 0.300176,-0.67178 -0.320102,-2.41318 -0.590263,-2.9969 -0.150086,-0.31632 -0.415015,-0.57071 -0.521439,-0.89027 -0.144635,-0.43048 0.14736,-0.72396 0.100974,-1.05333 -0.09006,-0.64243 -0.316548,-1.324 -0.485742,-1.9436 -0.395691,-1.43811 -0.9442,0.7468 -1.173431,1.2979 -0.09279,0.21524 -0.158274,0.45329 -0.248329,0.67505 -0.109157,0.26089 0.130984,0.48589 0.0655,0.80874 -0.06004,0.30327 -0.354756,0.47285 -0.518493,0.70113 -0.248329,0.34894 -0.420248,0.78917 -0.553965,1.21637 -0.27835,0.89027 -0.37659,2.44254 -0.892353,3.1567 -0.07367,0.10432 -0.281078,0.0458 -0.360216,0.13696 -0.180107,0.20871 0.04638,0.44026 -0.305639,0.58048 -0.270158,0.10766 -0.952385,0.225 -1.208903,0.0391 -0.491202,-0.35547 0.122794,-0.79245 0.428439,-1.16095 0.431166,-0.51199 0.930554,-0.98156 1.266209,-1.59139 0.442087,-0.80224 0.534867,-1.70553 0.622191,-2.63167 0.04093,-0.44677 -0.362944,-0.66853 -0.01365,-1.20334 0.111889,-0.16958 0.453001,-0.14674 0.453001,-0.32284 0,-0.55764 0.01365,-1.11855 0,-1.67293 -0.01636,-0.67503 -0.01365,-1.78705 -0.55397,-2.21424 -0.717703,-0.57396 -1.629158,-0.72396 -2.314115,-1.33704 -0.682226,-0.61308 -1.307143,-1.16746 -1.7192089,-2.14578 -0.2128545,-0.51199 -0.3247394,-1.01419 -0.4966603,-1.5392 -0.1255269,-0.38807 -0.090053,-0.25764 -0.2919873,-0.4859 -0.1200742,-0.13372 -0.2974503,-0.22828 -0.4311666,-0.3783 -0.3465717,-0.39783 -0.4093365,-0.78917 -0.9933214,-0.62286 -0.2319568,0.0684 -0.614003,0.58701 -0.7449901,0.27067 -0.084588,-0.20219 -0.032742,-0.38807 0.010982,-0.59351 0.065497,-0.30654 -0.2456023,-0.40764 -0.2374143,-0.70113 0.013651,-0.50545 0.6958699,-1.03702 1.050627,-1.12179 0.4475414,-0.10767 0.9387436,0.12398 1.4135726,0.0131 0.3820474,-0.0881 0.714974,-0.33591 1.0833753,-0.44352 0.384776,-0.11735 0.731345,-0.15653 1.061545,0.12068 0.150089,0.12718 0.207396,0.35545 0.338384,0.48589 0.111888,0.10764 0.210127,0.0783 0.338384,0.18915 0.387506,0.33262 0.417522,0.82503 -0.248331,0.67503 0.28108,1.38596 1.6428,5.11335 3.162804,3.18605 0.709514,-0.90004 1.361721,-1.89792 2.033032,-2.83386 0.59217,-0.82505 0.936014,-1.75445 1.94298,-1.59465 0.99332,0.15654 1.672819,0.97179 2.442368,1.64683 0.627651,0.55438 1.367182,0.67504 2.033035,1.13485 0.706786,0.48589 1.337162,1.30442 1.580037,2.24034 0.352029,1.35335 0.150088,2.65777 0.76955,3.94262 0.373861,0.7794 0.905996,1.32398 1.378098,1.96967 0.253787,0.34895 0.422979,0.82832 0.338386,1.29465 -0.05731,0.32284 -0.248334,0.38155 -0.248334,0.75657 0,0.65547 0.04898,1.30442 0.02442,1.95991 -0.02182,0.5837 -0.06004,1.1544 -0.128252,1.7316 -0.06004,0.49895 -0.234559,0.63917 -0.370999,1.00767 -0.201945,0.5446 -0.169197,0.78266 -0.65494,0.99789 -0.275619,0.12067 -0.74499,0.36522 -1.039715,0.35219 -0.42298,-0.0228 -0.483014,-0.44026 -0.158272,-0.89026 0.210123,-0.2935 0.578666,-0.38806 0.813354,-0.7044 0.684955,-0.91636 0.979661,-3.67194 0.406591,-4.64375 -0.237414,-0.40436 -0.518619,-0.40763 -0.540449,-1.02396 -0.02183,-0.55112 0.123177,-0.74353 -0.294338,-1.24248 -1.326246,-0.80872 -1.422141,-1.38593 -1.853312,-1.10875 -0.52395,0.33915 -0.11189,2.24687 0,2.78168 0.20194,0.95877 0.99605,1.40878 0.47483,2.37731 -0.373858,0.69135 -0.54851,1.40553 -0.802298,2.21426 -0.229226,0.72722 -0.210126,1.7675 -0.575799,2.37405 -0.07095,0.11735 -0.182838,0.18261 -0.24833,0.29675 -0.04913,0.0847 -0.122795,0.32938 -0.158276,0.37828 -0.152818,0.21198 -0.185566,0.26742 -0.431166,0.3783 -0.436626,0.19892 -0.971494,0.13371 -1.443592,0.13371"
       id="path2154" />
    <path
       sodipodi:nodetypes="ccccsccsc"
       inkscape:connector-curvature="0"
       id="path1355-3"
       d="m 19.751144,265.48426 c 0.01633,0.0263 0.561139,0.90462 0.727791,1.39886 0.451585,1.01234 0.25858,3.97236 0.250369,5.65885 0.02772,-0.19401 4.690513,-1.39583 7.111042,0.80464 -0.01547,-0.0273 -0.04888,-0.0804 -0.12512,-0.18628 -0.07235,-0.10046 -0.182749,-0.24915 -0.371644,-0.44224 -0.528108,-0.60452 -0.230926,-0.0845 -0.805409,-0.682 -0.496688,-0.45047 -1.569491,-1.52048 -2.867987,-2.79805 -1.241182,-1.22116 -2.686924,-2.62954 -3.919042,-3.75378 z"
       style="opacity:0.24800002;fill:#000000;fill-opacity:1;stroke:none;stroke-width:0.30000001;stroke-miterlimit:4;stroke-dasharray:none;stroke-opacity:1" />
    <path
       style="opacity:1;fill:#ffffff;fill-opacity:1;stroke:#808080;stroke-width:0.30000001;stroke-miterlimit:4;stroke-dasharray:none;stroke-opacity:1"
       d="m 19.42404,264.96145 c 0.01548,0.0249 0.53209,0.85773 0.690114,1.32635 0.428208,0.95987 0.292236,3.21802 0.28445,4.8171 0.428992,-0.0223 5.159507,-0.73701 7.328403,1.82407 -0.02928,-0.0506 -0.102779,-0.0927 -0.143771,-0.17312 -0.500768,-0.57318 -1.139582,-1.03373 -1.723521,-1.58216 -0.470975,-0.42712 -1.488241,-1.44167 -2.719516,-2.65302 -1.176928,-1.15787 -2.547826,-2.49325 -3.716159,-3.55922 z"
       id="path4753-0"
       inkscape:connector-curvature="0"
       sodipodi:nodetypes="ccccccsc" />
    <g
       style="stroke-width:4.08449793"
       inkscape:transform-center-y="-9.4924686"
       inkscape:transform-center-x="5.4653607"
       inkscape:label="Capa 1"
       id="layer1-4-9"
       transform="matrix(0.53602412,0,0,0.5372689,-234.93365,-13.785303)">
      <g
         style="stroke-width:4.08449793"
         id="layer1-3-65-0"
         inkscape:label="Capa 1"
         transform="translate(0.41988239,0.03484499)" />
    </g>
    <g
       style="stroke-width:4.08449793"
       inkscape:transform-center-y="-9.4924686"
       inkscape:transform-center-x="5.4653607"
       inkscape:label="Capa 1"
       id="layer1-4"
       transform="matrix(0.53602412,0,0,0.5372689,-234.93365,-13.760303)">
      <g
         style="stroke-width:4.08449793"
         id="layer1-3-65"
         inkscape:label="Capa 1"
         transform="translate(0.41988239,0.03484499)" />
    </g>
    <g
       aria-label="PERL"
       style="font-style:normal;font-weight:normal;font-size:5.96926641px;line-height:1.25;font-family:sans-serif;letter-spacing:0px;word-spacing:0px;fill:#4d4d4d;fill-opacity:1;stroke:none;stroke-width:0.26458332"
       id="text834"
       transform="translate(-2.1144399)">
      <path
         d="m 13.465168,291.57324 q 0,-0.35657 -0.189136,-0.50849 -0.186035,-0.15193 -0.523999,-0.15193 h -0.889868 v 1.34565 h 0.889868 q 0.337964,0 0.523999,-0.16433 0.189136,-0.16433 0.189136,-0.5209 z m 0.945679,-0.006 q 0,0.80925 -0.409277,1.14412 -0.409278,0.33486 -1.168921,0.33486 h -0.970484 v 1.64331 h -0.948779 v -4.57026 h 1.990576 q 0.68833,0 1.097608,0.35346 0.409277,0.35347 0.409277,1.09451 z"
         style="font-style:normal;font-variant:normal;font-weight:bold;font-stretch:normal;font-size:6.3499999px;font-family:Helvetica;-inkscape-font-specification:'Helvetica Bold';fill:#4d4d4d;fill-opacity:1;stroke-width:0.26458332"
         id="path836"
         inkscape:connector-curvature="0" />
      <path
         d="m 18.512922,290.92832 h -2.418457 v 0.97048 h 2.220019 v 0.79375 h -2.220019 v 1.17513 h 2.530078 v 0.82165 h -3.463354 v -4.57026 h 3.351733 z"
         style="font-style:normal;font-variant:normal;font-weight:bold;font-stretch:normal;font-size:6.3499999px;font-family:Helvetica;-inkscape-font-specification:'Helvetica Bold';fill:#4d4d4d;fill-opacity:1;stroke-width:0.26458332"
         id="path838"
         inkscape:connector-curvature="0" />
      <path
         d="m 20.329865,290.91282 v 1.22783 h 1.082105 q 0.322461,0 0.483691,-0.0744 0.285254,-0.13023 0.285254,-0.5147 0,-0.41548 -0.275952,-0.55811 -0.155029,-0.0806 -0.465088,-0.0806 z m 1.308447,-0.79375 q 0.480591,0.009 0.73794,0.11782 0.260449,0.10852 0.440283,0.31936 0.148828,0.17363 0.235645,0.38447 0.08682,0.21084 0.08682,0.48059 0,0.32557 -0.164331,0.64182 -0.164331,0.31316 -0.542603,0.44339 0.31626,0.12712 0.446485,0.36277 0.133325,0.23254 0.133325,0.71313 v 0.30696 q 0,0.31316 0.02481,0.42478 0.03721,0.17673 0.173633,0.26045 v 0.11472 H 22.15922 Q 22.11581,294.5374 22.09721,294.44438 22.06,294.25215 22.0569,294.05061 l -0.0062,-0.42478 q -0.0062,-0.43718 -0.16123,-0.58291 -0.151929,-0.14573 -0.573608,-0.14573 h -0.985987 v 1.79214 h -0.933276 v -4.57026 z"
         style="font-style:normal;font-variant:normal;font-weight:bold;font-stretch:normal;font-size:6.3499999px;font-family:Helvetica;-inkscape-font-specification:'Helvetica Bold';fill:#4d4d4d;fill-opacity:1;stroke-width:0.26458332"
         id="path840"
         inkscape:connector-curvature="0" />
      <path
         d="m 23.963752,290.11907 h 0.95498 v 3.74861 h 2.263428 v 0.82165 h -3.218408 z"
         style="font-style:normal;font-variant:normal;font-weight:bold;font-stretch:normal;font-size:6.3499999px;font-family:Helvetica;-inkscape-font-specification:'Helvetica Bold';fill:#4d4d4d;fill-opacity:1;stroke-width:0.26458332"
         id="path842"
         inkscape:connector-curvature="0" />
    </g>
  </g>
</svg>
