<?xml version="1.0" encoding="UTF-8" standalone="no"?>
<!-- Created with Inkscape (http://www.inkscape.org/) -->

<svg
   xmlns:osb="http://www.openswatchbook.org/uri/2009/osb"
   xmlns:dc="http://purl.org/dc/elements/1.1/"
   xmlns:cc="http://creativecommons.org/ns#"
   xmlns:rdf="http://www.w3.org/1999/02/22-rdf-syntax-ns#"
   xmlns:svg="http://www.w3.org/2000/svg"
   xmlns="http://www.w3.org/2000/svg"
   xmlns:xlink="http://www.w3.org/1999/xlink"
   xmlns:sodipodi="http://sodipodi.sourceforge.net/DTD/sodipodi-0.dtd"
   xmlns:inkscape="http://www.inkscape.org/namespaces/inkscape"
   width="128"
   height="128"
   viewBox="0 0 33.866666 33.866668"
   version="1.1"
   id="svg1038"
   inkscape:version="0.92.2 5c3e80d, 2017-08-06"
   sodipodi:docname="text-x-c++.svg">
  <defs
     id="defs1032">
    <linearGradient
       osb:paint="solid"
       id="linearGradient6987">
      <stop
         id="stop6985"
         offset="0"
         style="stop-color:#77d2fb;stop-opacity:1;" />
    </linearGradient>
    <linearGradient
       id="linearGradient1830">
      <stop
         offset="0"
         style="stop-color:#d9d9d9;stop-opacity:1"
         id="stop1826" />
      <stop
         offset="1"
         style="stop-color:#ffffff;stop-opacity:1;"
         id="stop1828" />
    </linearGradient>
    <linearGradient
       inkscape:collect="always"
       xlink:href="#linearGradient1830"
       id="linearGradient1503"
       x1="29.203474"
       y1="263.52237"
       x2="4.5843229"
       y2="296.16849"
       gradientUnits="userSpaceOnUse"
       gradientTransform="matrix(1.0010487,0,0,1.0010383,-0.01775767,-0.29086231)" />
  </defs>
  <sodipodi:namedview
     id="base"
     pagecolor="#ffffff"
     bordercolor="#666666"
     borderopacity="1.0"
     inkscape:pageopacity="0.0"
     inkscape:pageshadow="2"
     inkscape:zoom="1.7030101"
     inkscape:cx="1.1338284"
     inkscape:cy="56.845937"
     inkscape:document-units="mm"
     inkscape:current-layer="layer1"
     showgrid="false"
     inkscape:window-width="1600"
     inkscape:window-height="814"
     inkscape:window-x="0"
     inkscape:window-y="0"
     inkscape:window-maximized="1"
     units="px" />
  <metadata
     id="metadata1035">
    <rdf:RDF>
      <cc:Work
         rdf:about="">
        <dc:format>image/svg+xml</dc:format>
        <dc:type
           rdf:resource="http://purl.org/dc/dcmitype/StillImage" />
        <dc:title />
      </cc:Work>
    </rdf:RDF>
  </metadata>
  <g
     inkscape:label="Layer 1"
     inkscape:groupmode="layer"
     id="layer1"
     transform="translate(0,-263.13332)">
    <path
       style="opacity:0.25;fill:#000000;fill-opacity:1;stroke:none;stroke-width:1.87499988;stroke-miterlimit:4;stroke-dasharray:none;stroke-opacity:1"
       d="M 4.5713723,264.09818 V 296.7104 H 29.295294 v -18.3 c -0.04716,-0.8313 -0.101653,-1.57532 -0.312496,-2.32966 -0.21448,-0.76736 -0.552469,-1.49394 -0.956412,-2.18925 -0.516871,-0.8897 -1.39035,-1.46334 -2.166671,-2.19248 -0.47098,-0.42711 -1.488209,-1.44169 -2.719481,-2.65304 -1.221196,-1.20143 -2.653456,-2.59692 -3.849171,-3.68107 -0.35316,-0.3187 -0.866164,-0.64943 -1.342771,-0.84044 -0.370088,-0.14831 -0.80547,-0.24063 -1.22583,-0.30267 -0.433449,-0.064 -0.850926,-0.0958 -1.164384,-0.12361 z"
       id="path5023"
       inkscape:connector-curvature="0"
       sodipodi:nodetypes="ccccascscsscc" />
    <path
       sodipodi:nodetypes="ccccascscsscc"
       inkscape:connector-curvature="0"
       id="path4623-8"
       d="m 4.5713723,263.5729 v 32.61222 H 29.295294 v -18.3 c -0.04716,-0.83129 -0.101653,-1.57532 -0.312496,-2.32966 -0.21448,-0.76736 -0.552469,-1.49394 -0.956412,-2.18925 -0.516871,-0.88969 -1.39035,-1.46334 -2.166671,-2.19247 -0.47098,-0.42712 -1.488209,-1.4417 -2.719481,-2.65305 -1.221196,-1.20142 -2.653456,-2.59692 -3.849171,-3.68107 -0.35316,-0.3187 -0.866164,-0.64944 -1.342771,-0.84044 -0.370088,-0.14831 -0.80547,-0.24063 -1.22583,-0.30267 -0.433449,-0.064 -0.850926,-0.0958 -1.164384,-0.12361 z"
       style="opacity:1;fill:url(#linearGradient1503);fill-opacity:1;stroke:#808080;stroke-width:0.30000001;stroke-miterlimit:4;stroke-dasharray:none;stroke-opacity:1" />
    <g
       transform="matrix(0.24645432,0,0,0.24790302,-1.2782761,225.3332)"
       style="font-style:normal;font-weight:normal;font-size:10.58333302px;line-height:125%;font-family:sans-serif;letter-spacing:0px;word-spacing:0px;fill:#4d4d4d;fill-opacity:1;stroke:none;stroke-width:4.04567385px;stroke-linecap:butt;stroke-linejoin:miter;stroke-opacity:1"
       id="flowRoot4678-4">
      <path
         inkscape:connector-curvature="0"
         d="m 33.932437,181.16855 h -0.446484 l 0.184547,-0.97036 h -0.660797 l -0.184547,0.97036 h -0.446484 l 0.184547,-0.97036 h -0.381 v -0.39885 h 0.45839 l 0.178594,-0.94655 h -0.636984 v -0.39291 h 0.720328 l 0.184547,-0.97631 h 0.446484 l -0.184547,0.97631 h 0.660797 l 0.178594,-0.97631 h 0.446484 l -0.178594,0.97631 h 0.381 v 0.39291 h -0.45839 l -0.184547,0.94655 h 0.642937 v 0.39885 h -0.720328 z m -0.006,-2.31576 h -0.654843 l -0.184547,0.94655 h 0.654843 z"
         style="font-style:normal;font-variant:normal;font-weight:normal;font-stretch:normal;font-size:5.95312452px;font-family:'Ubuntu Mono';-inkscape-font-specification:'Ubuntu Mono';stroke-width:4.04567385px;fill:#4d4d4d;fill-opacity:1"
         id="path4382" />
      <path
         inkscape:connector-curvature="0"
         d="m 36.24225,177.97768 q -0.154782,0 -0.267891,-0.10716 -0.113109,-0.10715 -0.113109,-0.2917 0,-0.18455 0.113109,-0.2917 0.113109,-0.10716 0.267891,-0.10716 0.160734,0 0.26789,0.10716 0.11311,0.10715 0.11311,0.2917 0,0.18455 -0.11311,0.2917 -0.107156,0.10716 -0.26789,0.10716 z m -0.125016,0.83939 h -0.797719 v -0.41077 h 1.285875 v 1.69664 q 0,0.41077 0.11311,0.55365 0.113109,0.13692 0.339328,0.13692 0.17264,0 0.315515,-0.0417 0.148828,-0.0417 0.232172,-0.0893 l 0.07144,0.41672 q -0.03572,0.0179 -0.101203,0.0476 -0.06549,0.0238 -0.154782,0.0476 -0.08334,0.0238 -0.1905,0.0417 -0.101203,0.0179 -0.214312,0.0179 -0.261938,0 -0.434578,-0.0714 -0.172641,-0.0714 -0.279797,-0.21431 -0.101203,-0.14288 -0.142875,-0.35124 -0.04167,-0.21431 -0.04167,-0.49411 v -1.28587 z"
         style="font-style:normal;font-variant:normal;font-weight:normal;font-stretch:normal;font-size:5.95312452px;font-family:'Ubuntu Mono';-inkscape-font-specification:'Ubuntu Mono';stroke-width:4.04567385px;fill:#4d4d4d;fill-opacity:1"
         id="path4384" />
      <path
         inkscape:connector-curvature="0"
         d="m 38.397281,178.4837 q 0.26789,-0.0655 0.529828,-0.10121 0.26789,-0.0357 0.500062,-0.0357 0.553641,0 0.833438,0.28575 0.28575,0.28575 0.28575,0.91678 v 1.61925 h -0.488157 v -1.52995 q 0,-0.26789 -0.04763,-0.43458 -0.04762,-0.16668 -0.136921,-0.25598 -0.08334,-0.0952 -0.20836,-0.13097 -0.119062,-0.0357 -0.261937,-0.0357 -0.119063,0 -0.255985,0.0179 -0.130968,0.0119 -0.255984,0.0357 v 2.33362 h -0.494109 v -2.68485 z"
         style="font-style:normal;font-variant:normal;font-weight:normal;font-stretch:normal;font-size:5.95312452px;font-family:'Ubuntu Mono';-inkscape-font-specification:'Ubuntu Mono';stroke-width:4.04567385px;fill:#4d4d4d;fill-opacity:1"
         id="path4386" />
      <path
         inkscape:connector-curvature="0"
         d="m 41.242874,179.79338 q 0,-0.37504 0.119063,-0.64889 0.119062,-0.27384 0.327421,-0.45244 0.20836,-0.17859 0.482203,-0.26193 0.279797,-0.0893 0.595313,-0.0893 0.202406,0 0.398859,0.0298 0.202406,0.0238 0.428625,0.0952 l -0.113109,0.42267 q -0.196453,-0.0714 -0.363141,-0.0893 -0.160734,-0.0238 -0.327422,-0.0238 -0.214312,0 -0.404812,0.0595 -0.1905,0.0536 -0.333375,0.17859 -0.136922,0.11907 -0.220266,0.31552 -0.08334,0.1905 -0.08334,0.46434 0,0.26194 0.07739,0.45244 0.07739,0.18455 0.214313,0.30956 0.142875,0.11906 0.339328,0.1786 0.196453,0.0595 0.434578,0.0595 0.1905,0 0.36314,-0.0179 0.178594,-0.0238 0.386954,-0.0953 l 0.07144,0.41076 q -0.208359,0.0774 -0.422672,0.10716 -0.214312,0.0357 -0.464343,0.0357 -0.333375,0 -0.613172,-0.0893 -0.273844,-0.0953 -0.47625,-0.27384 -0.196453,-0.1786 -0.309563,-0.44649 -0.107156,-0.27384 -0.107156,-0.63103 z"
         style="font-style:normal;font-variant:normal;font-weight:normal;font-stretch:normal;font-size:5.95312452px;font-family:'Ubuntu Mono';-inkscape-font-specification:'Ubuntu Mono';stroke-width:4.04567385px;fill:#4d4d4d;fill-opacity:1"
         id="path4388" />
      <path
         inkscape:connector-curvature="0"
         d="m 45.93989,181.23404 q -0.261938,0 -0.434579,-0.0714 -0.17264,-0.0714 -0.273843,-0.21431 -0.101203,-0.14288 -0.142875,-0.35124 -0.04167,-0.21431 -0.04167,-0.49411 v -2.61342 h -0.797719 v -0.41672 h 1.285875 v 3.03014 q 0,0.20836 0.02381,0.33933 0.02977,0.13097 0.08334,0.21432 0.05953,0.0774 0.142875,0.10715 0.08334,0.0298 0.196453,0.0298 0.172641,0 0.321469,-0.0417 0.148828,-0.0417 0.232172,-0.0893 l 0.07144,0.41672 q -0.03572,0.0179 -0.101203,0.0476 -0.06548,0.0238 -0.154781,0.0476 -0.0893,0.0238 -0.196453,0.0417 -0.101203,0.0179 -0.214312,0.0179 z"
         style="font-style:normal;font-variant:normal;font-weight:normal;font-stretch:normal;font-size:5.95312452px;font-family:'Ubuntu Mono';-inkscape-font-specification:'Ubuntu Mono';stroke-width:4.04567385px;fill:#4d4d4d;fill-opacity:1"
         id="path4390" />
      <path
         inkscape:connector-curvature="0"
         d="m 49.458186,181.09116 q -0.160734,0.0417 -0.428625,0.0893 -0.261937,0.0476 -0.619125,0.0476 -0.315515,0 -0.523875,-0.0893 -0.208359,-0.0952 -0.339328,-0.26194 -0.130968,-0.17264 -0.184546,-0.40481 -0.05358,-0.23217 -0.05358,-0.51197 v -1.55377 h 0.488157 v 1.44661 q 0,0.51197 0.148828,0.72628 0.154781,0.21432 0.511968,0.21432 0.07739,0 0.154782,-0.006 0.08334,-0.006 0.154781,-0.0119 0.07144,-0.0119 0.125016,-0.0179 0.05358,-0.0119 0.07144,-0.0179 v -2.33363 h 0.494109 v 2.68486 z"
         style="font-style:normal;font-variant:normal;font-weight:normal;font-stretch:normal;font-size:5.95312452px;font-family:'Ubuntu Mono';-inkscape-font-specification:'Ubuntu Mono';stroke-width:4.04567385px;fill:#4d4d4d;fill-opacity:1"
         id="path4392" />
      <path
         inkscape:connector-curvature="0"
         d="m 51.940639,178.98971 q -0.08334,-0.0774 -0.244079,-0.14287 -0.160734,-0.0714 -0.333375,-0.0714 -0.196453,0 -0.339328,0.0774 -0.136921,0.0774 -0.226218,0.21431 -0.0893,0.13097 -0.130969,0.32147 -0.04167,0.18455 -0.04167,0.39886 0,0.4822 0.226219,0.74414 0.226218,0.26194 0.589359,0.26194 0.184547,0 0.309563,-0.0179 0.130968,-0.0179 0.1905,-0.0357 v -1.75022 z m 0,-1.86333 0.494109,-0.0833 v 4.04812 q -0.160734,0.0476 -0.410766,0.0952 -0.250031,0.0476 -0.583406,0.0476 -0.297656,0 -0.541734,-0.1012 -0.244078,-0.10121 -0.416719,-0.28575 -0.172641,-0.1905 -0.267891,-0.4584 -0.09525,-0.26789 -0.09525,-0.60126 0,-0.32147 0.07739,-0.58341 0.08334,-0.26789 0.238125,-0.45839 0.154781,-0.1905 0.369094,-0.29765 0.220265,-0.10716 0.500062,-0.10716 0.220266,0 0.386953,0.0536 0.166688,0.0536 0.250032,0.11311 v -1.38113 z"
         style="font-style:normal;font-variant:normal;font-weight:normal;font-stretch:normal;font-size:5.95312452px;font-family:'Ubuntu Mono';-inkscape-font-specification:'Ubuntu Mono';stroke-width:4.04567385px;fill:#4d4d4d;fill-opacity:1"
         id="path4394" />
      <path
         inkscape:connector-curvature="0"
         d="m 54.399279,178.34082 q 0.559594,0 0.863203,0.35123 0.30361,0.34529 0.30361,1.05371 v 0.17264 h -1.976438 q 0.02977,0.42862 0.279797,0.65484 0.255984,0.22027 0.714375,0.22027 0.261938,0 0.446484,-0.0417 0.184547,-0.0417 0.279797,-0.0893 l 0.06548,0.41672 q -0.0893,0.0476 -0.321469,0.1012 -0.232172,0.0536 -0.523875,0.0536 -0.357188,0 -0.631031,-0.10716 -0.267891,-0.11311 -0.446485,-0.30361 -0.178593,-0.1905 -0.26789,-0.45243 -0.0893,-0.2679 -0.0893,-0.57746 0,-0.36909 0.113109,-0.64294 0.11311,-0.27384 0.297657,-0.45243 0.184546,-0.1786 0.416718,-0.26789 0.232172,-0.0893 0.47625,-0.0893 z m 0.66675,1.17872 q 0,-0.35124 -0.184547,-0.55364 -0.184547,-0.20836 -0.488156,-0.20836 -0.172641,0 -0.315516,0.0655 -0.136921,0.0655 -0.238124,0.17264 -0.101204,0.10716 -0.160735,0.24408 -0.05953,0.13692 -0.07739,0.2798 h 1.464468 z"
         style="font-style:normal;font-variant:normal;font-weight:normal;font-stretch:normal;font-size:5.95312452px;font-family:'Ubuntu Mono';-inkscape-font-specification:'Ubuntu Mono';stroke-width:4.04567385px;fill:#4d4d4d;fill-opacity:1"
         id="path4396" />
      <path
         inkscape:connector-curvature="0"
         d="m 56.673373,179.65051 1.88714,0.77986 -0.136921,0.41076 -2.297906,-0.97631 v -0.42267 l 2.297906,-0.97631 0.136921,0.41076 z"
         style="font-style:normal;font-variant:normal;font-weight:normal;font-stretch:normal;font-size:5.95312452px;font-family:'Ubuntu Mono';-inkscape-font-specification:'Ubuntu Mono';stroke-width:4.04567385px;fill:#4d4d4d;fill-opacity:1"
         id="path4398" />
      <path
         inkscape:connector-curvature="0"
         d="m 60.054748,177.97768 q -0.154781,0 -0.267891,-0.10716 -0.113109,-0.10715 -0.113109,-0.2917 0,-0.18455 0.113109,-0.2917 0.11311,-0.10716 0.267891,-0.10716 0.160734,0 0.267891,0.10716 0.113109,0.10715 0.113109,0.2917 0,0.18455 -0.113109,0.2917 -0.107157,0.10716 -0.267891,0.10716 z m -0.125016,0.83939 h -0.797718 v -0.41077 h 1.285875 v 1.69664 q 0,0.41077 0.113109,0.55365 0.113109,0.13692 0.339328,0.13692 0.172641,0 0.315516,-0.0417 0.148828,-0.0417 0.232172,-0.0893 l 0.07144,0.41672 q -0.03572,0.0179 -0.101203,0.0476 -0.06548,0.0238 -0.154781,0.0476 -0.08334,0.0238 -0.1905,0.0417 -0.101203,0.0179 -0.214313,0.0179 -0.261937,0 -0.434578,-0.0714 -0.172641,-0.0714 -0.279797,-0.21431 -0.101203,-0.14288 -0.142875,-0.35124 -0.04167,-0.21431 -0.04167,-0.49411 v -1.28587 z"
         style="font-style:normal;font-variant:normal;font-weight:normal;font-stretch:normal;font-size:5.95312452px;font-family:'Ubuntu Mono';-inkscape-font-specification:'Ubuntu Mono';stroke-width:4.04567385px;fill:#4d4d4d;fill-opacity:1"
         id="path4400" />
      <path
         inkscape:connector-curvature="0"
         d="m 64.525545,179.78743 q 0,0.32742 -0.09525,0.59531 -0.0893,0.26194 -0.255985,0.45244 -0.166687,0.1905 -0.398859,0.29766 -0.232172,0.1012 -0.506016,0.1012 -0.26789,0 -0.500062,-0.1012 -0.226219,-0.10716 -0.392906,-0.29766 -0.166688,-0.1905 -0.261938,-0.45244 -0.0893,-0.26789 -0.0893,-0.59531 0,-0.32742 0.0893,-0.59531 0.09525,-0.26789 0.261938,-0.45244 0.166687,-0.1905 0.392906,-0.2917 0.232172,-0.10716 0.500062,-0.10716 0.273844,0 0.506016,0.10716 0.232172,0.1012 0.398859,0.2917 0.166688,0.18455 0.255985,0.45244 0.09525,0.26789 0.09525,0.59531 z m -0.506016,0 q 0,-0.4703 -0.202406,-0.73819 -0.202406,-0.27384 -0.547688,-0.27384 -0.339328,0 -0.541734,0.27384 -0.196453,0.26789 -0.196453,0.73819 0,0.46434 0.196453,0.73819 0.202406,0.26789 0.541734,0.26789 0.345282,0 0.547688,-0.26789 0.202406,-0.27385 0.202406,-0.73819 z"
         style="font-style:normal;font-variant:normal;font-weight:normal;font-stretch:normal;font-size:5.95312452px;font-family:'Ubuntu Mono';-inkscape-font-specification:'Ubuntu Mono';stroke-width:4.04567385px;fill:#4d4d4d;fill-opacity:1"
         id="path4402" />
      <path
         inkscape:connector-curvature="0"
         d="m 66.853215,180.47799 q 0,-0.14883 -0.125016,-0.24408 -0.119062,-0.0953 -0.303609,-0.16668 -0.178594,-0.0714 -0.392906,-0.13693 -0.214313,-0.0714 -0.39886,-0.17264 -0.178593,-0.1012 -0.303609,-0.25003 -0.119063,-0.14883 -0.119063,-0.38695 0,-0.33338 0.267891,-0.55364 0.273844,-0.22622 0.851297,-0.22622 0.226219,0 0.464344,0.0357 0.244078,0.0298 0.416718,0.0833 l -0.0893,0.44053 q -0.04762,-0.0238 -0.130968,-0.0476 -0.08334,-0.0298 -0.1905,-0.0476 -0.107157,-0.0238 -0.232172,-0.0357 -0.119063,-0.0119 -0.232172,-0.0119 -0.642938,0 -0.642938,0.35123 0,0.12502 0.119063,0.21432 0.125016,0.0833 0.309562,0.15478 0.184547,0.0714 0.39886,0.14882 0.214312,0.0714 0.398859,0.1786 0.184547,0.10715 0.303609,0.26194 0.125016,0.14882 0.125016,0.381 0,0.37504 -0.291703,0.5834 -0.291703,0.20241 -0.922734,0.20241 -0.28575,0 -0.523875,-0.0476 -0.238125,-0.0476 -0.452438,-0.14287 l 0.09525,-0.44649 q 0.20836,0.0952 0.434578,0.16074 0.232172,0.0595 0.49411,0.0595 0.672703,0 0.672703,-0.33933 z"
         style="font-style:normal;font-variant:normal;font-weight:normal;font-stretch:normal;font-size:5.95312452px;font-family:'Ubuntu Mono';-inkscape-font-specification:'Ubuntu Mono';stroke-width:4.04567385px;fill:#4d4d4d;fill-opacity:1"
         id="path4404" />
      <path
         inkscape:connector-curvature="0"
         d="m 69.18684,178.4063 h 1.166812 v 0.41077 H 69.18684 v 1.28587 q 0,0.20836 0.02976,0.33933 0.02977,0.13097 0.09525,0.21432 0.07144,0.0774 0.178594,0.10715 0.107156,0.0298 0.261938,0.0298 0.214312,0 0.345281,-0.0357 0.130969,-0.0357 0.250031,-0.0952 l 0.07144,0.41672 q -0.08334,0.0357 -0.267891,0.0952 -0.178594,0.0595 -0.446484,0.0595 -0.309563,0 -0.506016,-0.0714 -0.196453,-0.0714 -0.309562,-0.21431 -0.107157,-0.14288 -0.148829,-0.35124 -0.04167,-0.21431 -0.04167,-0.49411 v -1.28587 h -0.583407 v -0.41077 h 0.583407 v -0.7739 l 0.488156,-0.0833 v 0.85725 z"
         style="font-style:normal;font-variant:normal;font-weight:normal;font-stretch:normal;font-size:5.95312452px;font-family:'Ubuntu Mono';-inkscape-font-specification:'Ubuntu Mono';stroke-width:4.04567385px;fill:#4d4d4d;fill-opacity:1"
         id="path4406" />
      <path
         inkscape:connector-curvature="0"
         d="m 71.353777,181.16855 v -2.61342 q 0.607219,-0.20836 1.226344,-0.20836 0.1905,0 0.363141,0.0179 0.17264,0.0119 0.381,0.0595 l -0.0893,0.43458 q -0.1905,-0.0536 -0.339328,-0.0655 -0.142875,-0.0179 -0.315516,-0.0179 -0.363141,0 -0.738187,0.1012 v 2.29195 h -0.488157 z"
         style="font-style:normal;font-variant:normal;font-weight:normal;font-stretch:normal;font-size:5.95312452px;font-family:'Ubuntu Mono';-inkscape-font-specification:'Ubuntu Mono';stroke-width:4.04567385px;fill:#4d4d4d;fill-opacity:1"
         id="path4408" />
      <path
         inkscape:connector-curvature="0"
         d="m 75.235215,178.34082 q 0.559594,0 0.863203,0.35123 0.303609,0.34529 0.303609,1.05371 v 0.17264 H 74.42559 q 0.02976,0.42862 0.279797,0.65484 0.255984,0.22027 0.714375,0.22027 0.261937,0 0.446484,-0.0417 0.184547,-0.0417 0.279797,-0.0893 l 0.06548,0.41672 q -0.0893,0.0476 -0.321468,0.1012 -0.232172,0.0536 -0.523875,0.0536 -0.357188,0 -0.631032,-0.10716 -0.26789,-0.11311 -0.446484,-0.30361 -0.178594,-0.1905 -0.267891,-0.45243 -0.0893,-0.2679 -0.0893,-0.57746 0,-0.36909 0.113109,-0.64294 0.113109,-0.27384 0.297656,-0.45243 0.184547,-0.1786 0.416719,-0.26789 0.232172,-0.0893 0.47625,-0.0893 z m 0.66675,1.17872 q 0,-0.35124 -0.184547,-0.55364 -0.184547,-0.20836 -0.488156,-0.20836 -0.172641,0 -0.315516,0.0655 -0.136922,0.0655 -0.238125,0.17264 -0.101203,0.10716 -0.160734,0.24408 -0.05953,0.13692 -0.07739,0.2798 h 1.464469 z"
         style="font-style:normal;font-variant:normal;font-weight:normal;font-stretch:normal;font-size:5.95312452px;font-family:'Ubuntu Mono';-inkscape-font-specification:'Ubuntu Mono';stroke-width:4.04567385px;fill:#4d4d4d;fill-opacity:1"
         id="path4410" />
      <path
         inkscape:connector-curvature="0"
         d="m 78.187965,180.81732 q 0.184547,0 0.327422,-0.0119 0.148828,-0.0119 0.244078,-0.0298 v -0.82153 q -0.09525,-0.0298 -0.232172,-0.0476 -0.130969,-0.0179 -0.279797,-0.0179 -0.136922,0 -0.267891,0.0238 -0.130968,0.0179 -0.232171,0.0714 -0.101204,0.0536 -0.166688,0.14288 -0.06548,0.0833 -0.06548,0.21431 0,0.26789 0.178593,0.37505 0.184547,0.1012 0.49411,0.1012 z m -0.04763,-2.4765 q 0.309562,0 0.517922,0.0774 0.214312,0.0774 0.345281,0.21431 0.130969,0.13693 0.184547,0.33338 0.05358,0.19645 0.05358,0.42862 v 1.72641 q -0.172641,0.0298 -0.458391,0.0714 -0.279797,0.0417 -0.577453,0.0417 -0.226219,0 -0.440531,-0.0417 -0.214313,-0.0357 -0.381,-0.13097 -0.166687,-0.10121 -0.267891,-0.27385 -0.101203,-0.17264 -0.101203,-0.44053 0,-0.23812 0.101203,-0.39886 0.107157,-0.16668 0.267891,-0.26789 0.166687,-0.1012 0.375047,-0.14287 0.214312,-0.0476 0.428625,-0.0476 0.291703,0 0.5715,0.0655 v -0.13692 q 0,-0.12502 -0.02977,-0.23813 -0.02381,-0.11906 -0.101203,-0.21431 -0.07144,-0.0952 -0.202406,-0.14883 -0.125016,-0.0595 -0.327422,-0.0595 -0.255984,0 -0.446484,0.0357 -0.1905,0.0357 -0.291703,0.0714 l -0.05953,-0.40482 q 0.101203,-0.0476 0.333375,-0.0833 0.238125,-0.0357 0.506016,-0.0357 z"
         style="font-style:normal;font-variant:normal;font-weight:normal;font-stretch:normal;font-size:5.95312452px;font-family:'Ubuntu Mono';-inkscape-font-specification:'Ubuntu Mono';stroke-width:4.04567385px;fill:#4d4d4d;fill-opacity:1"
         id="path4412" />
      <path
         inkscape:connector-curvature="0"
         d="m 79.890559,178.4837 q 0.357187,-0.13693 0.672703,-0.13693 0.17264,0 0.321468,0.0536 0.154782,0.0476 0.261938,0.15478 0.255984,-0.20836 0.547687,-0.20836 0.142875,0 0.267891,0.0536 0.130969,0.0536 0.226219,0.16074 0.101203,0.10715 0.160734,0.26789 0.05953,0.16073 0.05953,0.37504 v 1.96453 h -0.446484 v -1.97643 q 0,-0.21432 -0.09525,-0.32742 -0.09525,-0.11311 -0.238125,-0.11311 -0.07144,0 -0.148828,0.0357 -0.07739,0.0357 -0.142875,0.11311 0.03572,0.13693 0.03572,0.30361 v 0.89892 h -0.446485 v -0.90487 q 0,-0.20836 -0.06548,-0.32742 -0.06548,-0.11906 -0.255984,-0.11906 -0.119063,0 -0.267891,0.0536 v 2.36339 h -0.446484 v -2.68485 z"
         style="font-style:normal;font-variant:normal;font-weight:normal;font-stretch:normal;font-size:5.95312452px;font-family:'Ubuntu Mono';-inkscape-font-specification:'Ubuntu Mono';stroke-width:4.04567385px;fill:#4d4d4d;fill-opacity:1"
         id="path4414" />
      <path
         inkscape:connector-curvature="0"
         d="m 82.914746,178.8766 0.136922,-0.41076 2.297906,0.97631 v 0.42267 l -2.297906,0.97631 -0.136922,-0.41076 1.887141,-0.77986 z"
         style="font-style:normal;font-variant:normal;font-weight:normal;font-stretch:normal;font-size:5.95312452px;font-family:'Ubuntu Mono';-inkscape-font-specification:'Ubuntu Mono';stroke-width:4.04567385px;fill:#4d4d4d;fill-opacity:1"
         id="path4416" />
      <path
         inkscape:connector-curvature="0"
         d="M 33.932437,188.60996 H 33.485953 L 33.6705,187.6396 h -0.660797 l -0.184547,0.97036 h -0.446484 l 0.184547,-0.97036 h -0.381 v -0.39886 h 0.45839 l 0.178594,-0.94654 h -0.636984 v -0.39291 h 0.720328 l 0.184547,-0.97631 h 0.446484 l -0.184547,0.97631 h 0.660797 l 0.178594,-0.97631 h 0.446484 l -0.178594,0.97631 h 0.381 v 0.39291 h -0.45839 l -0.184547,0.94654 h 0.642937 v 0.39886 h -0.720328 z m -0.006,-2.31576 h -0.654843 l -0.184547,0.94654 h 0.654843 z"
         style="font-style:normal;font-variant:normal;font-weight:normal;font-stretch:normal;font-size:5.95312452px;font-family:'Ubuntu Mono';-inkscape-font-specification:'Ubuntu Mono';stroke-width:4.04567385px;fill:#4d4d4d;fill-opacity:1"
         id="path4418" />
      <path
         inkscape:connector-curvature="0"
         d="m 36.24225,185.41909 q -0.154782,0 -0.267891,-0.10716 -0.113109,-0.10716 -0.113109,-0.2917 0,-0.18455 0.113109,-0.29171 0.113109,-0.10715 0.267891,-0.10715 0.160734,0 0.26789,0.10715 0.11311,0.10716 0.11311,0.29171 0,0.18454 -0.11311,0.2917 -0.107156,0.10716 -0.26789,0.10716 z m -0.125016,0.83939 h -0.797719 v -0.41077 h 1.285875 v 1.69664 q 0,0.41077 0.11311,0.55364 0.113109,0.13692 0.339328,0.13692 0.17264,0 0.315515,-0.0417 0.148828,-0.0417 0.232172,-0.0893 l 0.07144,0.41672 q -0.03572,0.0179 -0.101203,0.0476 -0.06549,0.0238 -0.154782,0.0476 -0.08334,0.0238 -0.1905,0.0417 -0.101203,0.0179 -0.214312,0.0179 -0.261938,0 -0.434578,-0.0714 -0.172641,-0.0714 -0.279797,-0.21432 -0.101203,-0.14287 -0.142875,-0.35123 -0.04167,-0.21431 -0.04167,-0.49411 v -1.28587 z"
         style="font-style:normal;font-variant:normal;font-weight:normal;font-stretch:normal;font-size:5.95312452px;font-family:'Ubuntu Mono';-inkscape-font-specification:'Ubuntu Mono';stroke-width:4.04567385px;fill:#4d4d4d;fill-opacity:1"
         id="path4420" />
      <path
         inkscape:connector-curvature="0"
         d="m 38.397281,185.9251 q 0.26789,-0.0655 0.529828,-0.1012 0.26789,-0.0357 0.500062,-0.0357 0.553641,0 0.833438,0.28575 0.28575,0.28575 0.28575,0.91678 v 1.61925 h -0.488157 v -1.52995 q 0,-0.26789 -0.04763,-0.43458 -0.04762,-0.16669 -0.136921,-0.25599 -0.08334,-0.0952 -0.20836,-0.13096 -0.119062,-0.0357 -0.261937,-0.0357 -0.119063,0 -0.255985,0.0179 -0.130968,0.0119 -0.255984,0.0357 v 2.33362 h -0.494109 v -2.68486 z"
         style="font-style:normal;font-variant:normal;font-weight:normal;font-stretch:normal;font-size:5.95312452px;font-family:'Ubuntu Mono';-inkscape-font-specification:'Ubuntu Mono';stroke-width:4.04567385px;fill:#4d4d4d;fill-opacity:1"
         id="path4422" />
      <path
         inkscape:connector-curvature="0"
         d="m 41.242874,187.23479 q 0,-0.37505 0.119063,-0.64889 0.119062,-0.27385 0.327421,-0.45244 0.20836,-0.17859 0.482203,-0.26194 0.279797,-0.0893 0.595313,-0.0893 0.202406,0 0.398859,0.0298 0.202406,0.0238 0.428625,0.0952 l -0.113109,0.42267 q -0.196453,-0.0714 -0.363141,-0.0893 -0.160734,-0.0238 -0.327422,-0.0238 -0.214312,0 -0.404812,0.0595 -0.1905,0.0536 -0.333375,0.17859 -0.136922,0.11906 -0.220266,0.31551 -0.08334,0.1905 -0.08334,0.46435 0,0.26194 0.07739,0.45244 0.07739,0.18454 0.214313,0.30956 0.142875,0.11906 0.339328,0.17859 0.196453,0.0595 0.434578,0.0595 0.1905,0 0.36314,-0.0179 0.178594,-0.0238 0.386954,-0.0952 l 0.07144,0.41077 q -0.208359,0.0774 -0.422672,0.10716 -0.214312,0.0357 -0.464343,0.0357 -0.333375,0 -0.613172,-0.0893 -0.273844,-0.0952 -0.47625,-0.27385 -0.196453,-0.17859 -0.309563,-0.44648 -0.107156,-0.27384 -0.107156,-0.63103 z"
         style="font-style:normal;font-variant:normal;font-weight:normal;font-stretch:normal;font-size:5.95312452px;font-family:'Ubuntu Mono';-inkscape-font-specification:'Ubuntu Mono';stroke-width:4.04567385px;fill:#4d4d4d;fill-opacity:1"
         id="path4424" />
      <path
         inkscape:connector-curvature="0"
         d="m 45.93989,188.67544 q -0.261938,0 -0.434579,-0.0714 -0.17264,-0.0714 -0.273843,-0.21432 -0.101203,-0.14287 -0.142875,-0.35123 -0.04167,-0.21431 -0.04167,-0.49411 v -2.61342 h -0.797719 v -0.41672 h 1.285875 v 3.03014 q 0,0.20836 0.02381,0.33933 0.02977,0.13097 0.08334,0.21431 0.05953,0.0774 0.142875,0.10716 0.08334,0.0298 0.196453,0.0298 0.172641,0 0.321469,-0.0417 0.148828,-0.0417 0.232172,-0.0893 l 0.07144,0.41672 q -0.03572,0.0179 -0.101203,0.0476 -0.06548,0.0238 -0.154781,0.0476 -0.0893,0.0238 -0.196453,0.0417 -0.101203,0.0179 -0.214312,0.0179 z"
         style="font-style:normal;font-variant:normal;font-weight:normal;font-stretch:normal;font-size:5.95312452px;font-family:'Ubuntu Mono';-inkscape-font-specification:'Ubuntu Mono';stroke-width:4.04567385px;fill:#4d4d4d;fill-opacity:1"
         id="path4426" />
      <path
         inkscape:connector-curvature="0"
         d="m 49.458186,188.53257 q -0.160734,0.0417 -0.428625,0.0893 -0.261937,0.0476 -0.619125,0.0476 -0.315515,0 -0.523875,-0.0893 -0.208359,-0.0952 -0.339328,-0.26193 -0.130968,-0.17264 -0.184546,-0.40482 -0.05358,-0.23217 -0.05358,-0.51196 v -1.55377 h 0.488157 v 1.44661 q 0,0.51197 0.148828,0.72628 0.154781,0.21431 0.511968,0.21431 0.07739,0 0.154782,-0.006 0.08334,-0.006 0.154781,-0.0119 0.07144,-0.0119 0.125016,-0.0179 0.05358,-0.0119 0.07144,-0.0178 v -2.33363 h 0.494109 v 2.68486 z"
         style="font-style:normal;font-variant:normal;font-weight:normal;font-stretch:normal;font-size:5.95312452px;font-family:'Ubuntu Mono';-inkscape-font-specification:'Ubuntu Mono';stroke-width:4.04567385px;fill:#4d4d4d;fill-opacity:1"
         id="path4428" />
      <path
         inkscape:connector-curvature="0"
         d="m 51.940639,186.43112 q -0.08334,-0.0774 -0.244079,-0.14288 -0.160734,-0.0714 -0.333375,-0.0714 -0.196453,0 -0.339328,0.0774 -0.136921,0.0774 -0.226218,0.21431 -0.0893,0.13097 -0.130969,0.32147 -0.04167,0.18454 -0.04167,0.39886 0,0.4822 0.226219,0.74414 0.226218,0.26193 0.589359,0.26193 0.184547,0 0.309563,-0.0179 0.130968,-0.0179 0.1905,-0.0357 v -1.75022 z m 0,-1.86333 0.494109,-0.0833 v 4.04812 q -0.160734,0.0476 -0.410766,0.0953 -0.250031,0.0476 -0.583406,0.0476 -0.297656,0 -0.541734,-0.1012 -0.244078,-0.1012 -0.416719,-0.28575 -0.172641,-0.1905 -0.267891,-0.45839 -0.09525,-0.26789 -0.09525,-0.60126 0,-0.32147 0.07739,-0.58341 0.08334,-0.26789 0.238125,-0.45839 0.154781,-0.1905 0.369094,-0.29766 0.220265,-0.10715 0.500062,-0.10715 0.220266,0 0.386953,0.0536 0.166688,0.0536 0.250032,0.11311 v -1.38112 z"
         style="font-style:normal;font-variant:normal;font-weight:normal;font-stretch:normal;font-size:5.95312452px;font-family:'Ubuntu Mono';-inkscape-font-specification:'Ubuntu Mono';stroke-width:4.04567385px;fill:#4d4d4d;fill-opacity:1"
         id="path4430" />
      <path
         inkscape:connector-curvature="0"
         d="m 54.399279,185.78223 q 0.559594,0 0.863203,0.35123 0.30361,0.34528 0.30361,1.0537 v 0.17264 h -1.976438 q 0.02977,0.42863 0.279797,0.65485 0.255984,0.22026 0.714375,0.22026 0.261938,0 0.446484,-0.0417 0.184547,-0.0417 0.279797,-0.0893 l 0.06548,0.41672 q -0.0893,0.0476 -0.321469,0.10121 -0.232172,0.0536 -0.523875,0.0536 -0.357188,0 -0.631031,-0.10715 -0.267891,-0.11311 -0.446485,-0.30361 -0.178593,-0.1905 -0.26789,-0.45244 -0.0893,-0.26789 -0.0893,-0.57745 0,-0.3691 0.113109,-0.64294 0.11311,-0.27384 0.297657,-0.45244 0.184546,-0.17859 0.416718,-0.26789 0.232172,-0.0893 0.47625,-0.0893 z m 0.66675,1.17871 q 0,-0.35123 -0.184547,-0.55364 -0.184547,-0.20835 -0.488156,-0.20835 -0.172641,0 -0.315516,0.0655 -0.136921,0.0655 -0.238124,0.17264 -0.101204,0.10716 -0.160735,0.24408 -0.05953,0.13692 -0.07739,0.27979 h 1.464468 z"
         style="font-style:normal;font-variant:normal;font-weight:normal;font-stretch:normal;font-size:5.95312452px;font-family:'Ubuntu Mono';-inkscape-font-specification:'Ubuntu Mono';stroke-width:4.04567385px;fill:#4d4d4d;fill-opacity:1"
         id="path4432" />
      <path
         inkscape:connector-curvature="0"
         d="m 56.673373,187.09191 1.88714,0.77986 -0.136921,0.41077 -2.297906,-0.97631 v -0.42268 l 2.297906,-0.97631 0.136921,0.41077 z"
         style="font-style:normal;font-variant:normal;font-weight:normal;font-stretch:normal;font-size:5.95312452px;font-family:'Ubuntu Mono';-inkscape-font-specification:'Ubuntu Mono';stroke-width:4.04567385px;fill:#4d4d4d;fill-opacity:1"
         id="path4434" />
      <path
         inkscape:connector-curvature="0"
         d="m 59.102248,187.23479 q 0,-0.37505 0.119063,-0.64889 0.119062,-0.27385 0.327421,-0.45244 0.20836,-0.17859 0.482203,-0.26194 0.279797,-0.0893 0.595313,-0.0893 0.202406,0 0.398859,0.0298 0.202407,0.0238 0.428625,0.0952 l -0.113109,0.42267 q -0.196453,-0.0714 -0.363141,-0.0893 -0.160734,-0.0238 -0.327422,-0.0238 -0.214312,0 -0.404812,0.0595 -0.1905,0.0536 -0.333375,0.17859 -0.136922,0.11906 -0.220266,0.31551 -0.08334,0.1905 -0.08334,0.46435 0,0.26194 0.07739,0.45244 0.07739,0.18454 0.214313,0.30956 0.142875,0.11906 0.339328,0.17859 0.196453,0.0595 0.434578,0.0595 0.1905,0 0.363141,-0.0179 0.178593,-0.0238 0.386953,-0.0952 l 0.07144,0.41077 q -0.208359,0.0774 -0.422672,0.10716 -0.214312,0.0357 -0.464343,0.0357 -0.333375,0 -0.613172,-0.0893 -0.273844,-0.0952 -0.47625,-0.27385 -0.196453,-0.17859 -0.309563,-0.44648 -0.107156,-0.27384 -0.107156,-0.63103 z"
         style="font-style:normal;font-variant:normal;font-weight:normal;font-stretch:normal;font-size:5.95312452px;font-family:'Ubuntu Mono';-inkscape-font-specification:'Ubuntu Mono';stroke-width:4.04567385px;fill:#4d4d4d;fill-opacity:1"
         id="path4436" />
      <path
         inkscape:connector-curvature="0"
         d="m 64.525545,187.22884 q 0,0.32742 -0.09525,0.59531 -0.0893,0.26194 -0.255985,0.45244 -0.166687,0.1905 -0.398859,0.29765 -0.232172,0.1012 -0.506016,0.1012 -0.26789,0 -0.500062,-0.1012 -0.226219,-0.10715 -0.392906,-0.29765 -0.166688,-0.1905 -0.261938,-0.45244 -0.0893,-0.26789 -0.0893,-0.59531 0,-0.32743 0.0893,-0.59532 0.09525,-0.26789 0.261938,-0.45243 0.166687,-0.1905 0.392906,-0.29171 0.232172,-0.10715 0.500062,-0.10715 0.273844,0 0.506016,0.10715 0.232172,0.10121 0.398859,0.29171 0.166688,0.18454 0.255985,0.45243 0.09525,0.26789 0.09525,0.59532 z m -0.506016,0 q 0,-0.4703 -0.202406,-0.73819 -0.202406,-0.27385 -0.547688,-0.27385 -0.339328,0 -0.541734,0.27385 -0.196453,0.26789 -0.196453,0.73819 0,0.46434 0.196453,0.73818 0.202406,0.26789 0.541734,0.26789 0.345282,0 0.547688,-0.26789 0.202406,-0.27384 0.202406,-0.73818 z"
         style="font-style:normal;font-variant:normal;font-weight:normal;font-stretch:normal;font-size:5.95312452px;font-family:'Ubuntu Mono';-inkscape-font-specification:'Ubuntu Mono';stroke-width:4.04567385px;fill:#4d4d4d;fill-opacity:1"
         id="path4438" />
      <path
         inkscape:connector-curvature="0"
         d="m 65.18634,185.9251 q 0.267891,-0.0655 0.529828,-0.1012 0.267891,-0.0357 0.500062,-0.0357 0.553641,0 0.833438,0.28575 0.28575,0.28575 0.28575,0.91678 v 1.61925 h -0.488156 v -1.52995 q 0,-0.26789 -0.04762,-0.43458 -0.04763,-0.16669 -0.136922,-0.25599 -0.08334,-0.0952 -0.20836,-0.13096 -0.119062,-0.0357 -0.261937,-0.0357 -0.119063,0 -0.255984,0.0179 -0.130969,0.0119 -0.255985,0.0357 v 2.33362 h -0.494109 v -2.68486 z"
         style="font-style:normal;font-variant:normal;font-weight:normal;font-stretch:normal;font-size:5.95312452px;font-family:'Ubuntu Mono';-inkscape-font-specification:'Ubuntu Mono';stroke-width:4.04567385px;fill:#4d4d4d;fill-opacity:1"
         id="path4440" />
      <path
         inkscape:connector-curvature="0"
         d="m 68.984434,185.41909 q -0.154782,0 -0.267891,-0.10716 -0.113109,-0.10716 -0.113109,-0.2917 0,-0.18455 0.113109,-0.29171 0.113109,-0.10715 0.267891,-0.10715 0.160734,0 0.26789,0.10715 0.11311,0.10716 0.11311,0.29171 0,0.18454 -0.11311,0.2917 -0.107156,0.10716 -0.26789,0.10716 z m -0.125016,0.83939 h -0.797719 v -0.41077 h 1.285875 v 1.69664 q 0,0.41077 0.11311,0.55364 0.113109,0.13692 0.339328,0.13692 0.17264,0 0.315515,-0.0417 0.148828,-0.0417 0.232172,-0.0893 l 0.07144,0.41672 q -0.03572,0.0179 -0.101204,0.0476 -0.06548,0.0238 -0.154781,0.0476 -0.08334,0.0238 -0.1905,0.0417 -0.101203,0.0179 -0.214312,0.0179 -0.261938,0 -0.434578,-0.0714 -0.172641,-0.0714 -0.279797,-0.21432 -0.101203,-0.14287 -0.142875,-0.35123 -0.04167,-0.21431 -0.04167,-0.49411 v -1.28587 z"
         style="font-style:normal;font-variant:normal;font-weight:normal;font-stretch:normal;font-size:5.95312452px;font-family:'Ubuntu Mono';-inkscape-font-specification:'Ubuntu Mono';stroke-width:4.04567385px;fill:#4d4d4d;fill-opacity:1"
         id="path4442" />
      <path
         inkscape:connector-curvature="0"
         d="m 73.45523,187.22884 q 0,0.32742 -0.09525,0.59531 -0.0893,0.26194 -0.255984,0.45244 -0.166687,0.1905 -0.398859,0.29765 -0.232172,0.1012 -0.506016,0.1012 -0.267891,0 -0.500062,-0.1012 -0.226219,-0.10715 -0.392907,-0.29765 -0.166687,-0.1905 -0.261937,-0.45244 -0.0893,-0.26789 -0.0893,-0.59531 0,-0.32743 0.0893,-0.59532 0.09525,-0.26789 0.261937,-0.45243 0.166688,-0.1905 0.392907,-0.29171 0.232171,-0.10715 0.500062,-0.10715 0.273844,0 0.506016,0.10715 0.232172,0.10121 0.398859,0.29171 0.166687,0.18454 0.255984,0.45243 0.09525,0.26789 0.09525,0.59532 z m -0.506015,0 q 0,-0.4703 -0.202406,-0.73819 -0.202407,-0.27385 -0.547688,-0.27385 -0.339328,0 -0.541734,0.27385 -0.196453,0.26789 -0.196453,0.73819 0,0.46434 0.196453,0.73818 0.202406,0.26789 0.541734,0.26789 0.345281,0 0.547688,-0.26789 0.202406,-0.27384 0.202406,-0.73818 z"
         style="font-style:normal;font-variant:normal;font-weight:normal;font-stretch:normal;font-size:5.95312452px;font-family:'Ubuntu Mono';-inkscape-font-specification:'Ubuntu Mono';stroke-width:4.04567385px;fill:#4d4d4d;fill-opacity:1"
         id="path4444" />
      <path
         inkscape:connector-curvature="0"
         d="m 75.622168,188.22896 q 0,0.17859 -0.119063,0.31552 -0.119062,0.13692 -0.315515,0.13692 -0.202406,0 -0.321469,-0.13692 -0.119062,-0.13693 -0.119062,-0.31552 0,-0.18455 0.119062,-0.32147 0.119063,-0.13692 0.321469,-0.13692 0.196453,0 0.315515,0.13692 0.119063,0.13692 0.119063,0.32147 z"
         style="font-style:normal;font-variant:normal;font-weight:normal;font-stretch:normal;font-size:5.95312452px;font-family:'Ubuntu Mono';-inkscape-font-specification:'Ubuntu Mono';stroke-width:4.04567385px;fill:#4d4d4d;fill-opacity:1"
         id="path4446" />
      <path
         inkscape:connector-curvature="0"
         d="m 77.09259,188.60996 v -4.04217 l 0.494109,-0.0833 v 1.40493 q 0.119063,-0.0476 0.267891,-0.0714 0.148828,-0.0298 0.291703,-0.0298 0.315516,0 0.523875,0.0952 0.214312,0.0893 0.339328,0.25598 0.125016,0.16669 0.178594,0.39886 0.05358,0.23217 0.05358,0.51197 v 1.55972 h -0.488156 v -1.45256 q 0,-0.51197 -0.142875,-0.72033 -0.142875,-0.21431 -0.511969,-0.21431 -0.154781,0 -0.303609,0.0357 -0.142875,0.0298 -0.20836,0.0595 v 2.29195 h -0.494109 z"
         style="font-style:normal;font-variant:normal;font-weight:normal;font-stretch:normal;font-size:5.95312452px;font-family:'Ubuntu Mono';-inkscape-font-specification:'Ubuntu Mono';stroke-width:4.04567385px;fill:#4d4d4d;fill-opacity:1"
         id="path4448" />
      <path
         inkscape:connector-curvature="0"
         d="m 79.938184,186.31801 0.136922,-0.41077 2.297906,0.97631 v 0.42268 l -2.297906,0.97631 -0.136922,-0.41077 1.88714,-0.77986 z"
         style="font-style:normal;font-variant:normal;font-weight:normal;font-stretch:normal;font-size:5.95312452px;font-family:'Ubuntu Mono';-inkscape-font-specification:'Ubuntu Mono';stroke-width:4.04567385px;fill:#4d4d4d;fill-opacity:1"
         id="path4450" />
      <path
         inkscape:connector-curvature="0"
         d="m 33.265687,200.3019 q -0.154781,0 -0.26789,-0.10716 -0.11311,-0.10715 -0.11311,-0.2917 0,-0.18455 0.11311,-0.2917 0.113109,-0.10716 0.26789,-0.10716 0.160735,0 0.267891,0.10716 0.113109,0.10715 0.113109,0.2917 0,0.18455 -0.113109,0.2917 -0.107156,0.10716 -0.267891,0.10716 z m -0.125015,0.83939 h -0.797719 v -0.41077 h 1.285875 v 1.69664 q 0,0.41077 0.113109,0.55364 0.11311,0.13693 0.339328,0.13693 0.172641,0 0.315516,-0.0417 0.148828,-0.0417 0.232172,-0.0893 l 0.07144,0.41672 q -0.03572,0.0179 -0.101203,0.0476 -0.06548,0.0238 -0.154781,0.0476 -0.08334,0.0238 -0.1905,0.0417 -0.101203,0.0179 -0.214312,0.0179 -0.261938,0 -0.434579,-0.0714 -0.17264,-0.0714 -0.279796,-0.21431 -0.101203,-0.14288 -0.142875,-0.35124 -0.04167,-0.21431 -0.04167,-0.49411 v -1.28587 z"
         style="font-style:normal;font-variant:normal;font-weight:normal;font-stretch:normal;font-size:5.95312452px;font-family:'Ubuntu Mono';-inkscape-font-specification:'Ubuntu Mono';stroke-width:4.04567385px;fill:#4d4d4d;fill-opacity:1"
         id="path4452" />
      <path
         inkscape:connector-curvature="0"
         d="m 35.420718,200.80791 q 0.267891,-0.0655 0.529829,-0.1012 0.26789,-0.0357 0.500062,-0.0357 0.553641,0 0.833437,0.28575 0.28575,0.28575 0.28575,0.91678 v 1.61925 H 37.08164 v -1.52995 q 0,-0.26789 -0.04763,-0.43458 -0.04762,-0.16669 -0.136922,-0.25598 -0.08334,-0.0952 -0.208359,-0.13097 -0.119062,-0.0357 -0.261937,-0.0357 -0.119063,0 -0.255985,0.0179 -0.130969,0.0119 -0.255984,0.0357 v 2.33362 h -0.49411 v -2.68486 z"
         style="font-style:normal;font-variant:normal;font-weight:normal;font-stretch:normal;font-size:5.95312452px;font-family:'Ubuntu Mono';-inkscape-font-specification:'Ubuntu Mono';stroke-width:4.04567385px;fill:#4d4d4d;fill-opacity:1"
         id="path4454" />
      <path
         inkscape:connector-curvature="0"
         d="m 39.421218,200.73052 h 1.166813 v 0.41077 h -1.166813 v 1.28587 q 0,0.20836 0.02977,0.33933 0.02977,0.13097 0.09525,0.21431 0.07144,0.0774 0.178594,0.10716 0.107156,0.0298 0.261937,0.0298 0.214312,0 0.345281,-0.0357 0.130969,-0.0357 0.250031,-0.0952 l 0.07144,0.41672 q -0.08334,0.0357 -0.267891,0.0952 -0.178593,0.0595 -0.446484,0.0595 -0.309562,0 -0.506016,-0.0714 -0.196453,-0.0714 -0.309562,-0.21431 -0.107156,-0.14288 -0.148828,-0.35124 -0.04167,-0.21431 -0.04167,-0.49411 v -1.28587 h -0.583406 v -0.41077 h 0.583406 v -0.7739 l 0.488156,-0.0833 v 0.85725 z"
         style="font-style:normal;font-variant:normal;font-weight:normal;font-stretch:normal;font-size:5.95312452px;font-family:'Ubuntu Mono';-inkscape-font-specification:'Ubuntu Mono';stroke-width:4.04567385px;fill:#4d4d4d;fill-opacity:1"
         id="path4456" />
      <path
         inkscape:connector-curvature="0"
         d="m 44.171812,200.80791 q 0.357187,-0.13692 0.672703,-0.13692 0.17264,0 0.321468,0.0536 0.154782,0.0476 0.261938,0.15478 0.255984,-0.20836 0.547687,-0.20836 0.142875,0 0.267891,0.0536 0.130969,0.0536 0.226219,0.16073 0.101203,0.10716 0.160734,0.2679 0.05953,0.16073 0.05953,0.37504 v 1.96453 h -0.446484 v -1.97643 q 0,-0.21432 -0.09525,-0.32743 -0.09525,-0.11311 -0.238125,-0.11311 -0.07144,0 -0.148828,0.0357 -0.07739,0.0357 -0.142875,0.11311 0.03572,0.13692 0.03572,0.30361 v 0.89892 h -0.446485 v -0.90487 q 0,-0.20836 -0.06548,-0.32742 -0.06548,-0.11907 -0.255985,-0.11907 -0.119062,0 -0.26789,0.0536 v 2.36339 h -0.446484 v -2.68486 z"
         style="font-style:normal;font-variant:normal;font-weight:normal;font-stretch:normal;font-size:5.95312452px;font-family:'Ubuntu Mono';-inkscape-font-specification:'Ubuntu Mono';stroke-width:4.04567385px;fill:#4d4d4d;fill-opacity:1"
         id="path4458" />
      <path
         inkscape:connector-curvature="0"
         d="m 48.422343,203.14154 q 0.184547,0 0.327422,-0.0119 0.148828,-0.0119 0.244078,-0.0298 v -0.82153 q -0.09525,-0.0298 -0.232172,-0.0476 -0.130969,-0.0179 -0.279797,-0.0179 -0.136922,0 -0.267891,0.0238 -0.130968,0.0179 -0.232172,0.0714 -0.101203,0.0536 -0.166687,0.14288 -0.06548,0.0833 -0.06548,0.21431 0,0.26789 0.178593,0.37505 0.184547,0.1012 0.49411,0.1012 z m -0.04762,-2.4765 q 0.309562,0 0.517922,0.0774 0.214312,0.0774 0.345281,0.21431 0.130968,0.13692 0.184547,0.33338 0.05358,0.19645 0.05358,0.42862 v 1.72641 q -0.172641,0.0298 -0.458391,0.0714 -0.279797,0.0417 -0.577453,0.0417 -0.226219,0 -0.440531,-0.0417 -0.214313,-0.0357 -0.381,-0.13097 -0.166688,-0.10121 -0.267891,-0.27385 -0.101203,-0.17264 -0.101203,-0.44053 0,-0.23812 0.101203,-0.39886 0.107157,-0.16669 0.267891,-0.26789 0.166687,-0.1012 0.375047,-0.14287 0.214312,-0.0476 0.428625,-0.0476 0.291703,0 0.5715,0.0655 v -0.13693 q 0,-0.12501 -0.02977,-0.23812 -0.02381,-0.11906 -0.101203,-0.21431 -0.07144,-0.0952 -0.202406,-0.14883 -0.125016,-0.0595 -0.327422,-0.0595 -0.255985,0 -0.446485,0.0357 -0.1905,0.0357 -0.291703,0.0714 l -0.05953,-0.40481 q 0.101203,-0.0476 0.333375,-0.0833 0.238125,-0.0357 0.506016,-0.0357 z"
         style="font-style:normal;font-variant:normal;font-weight:normal;font-stretch:normal;font-size:5.95312452px;font-family:'Ubuntu Mono';-inkscape-font-specification:'Ubuntu Mono';stroke-width:4.04567385px;fill:#4d4d4d;fill-opacity:1"
         id="path4460" />
      <path
         inkscape:connector-curvature="0"
         d="m 51.12506,200.3019 q -0.154781,0 -0.26789,-0.10716 -0.113109,-0.10715 -0.113109,-0.2917 0,-0.18455 0.113109,-0.2917 0.113109,-0.10716 0.26789,-0.10716 0.160735,0 0.267891,0.10716 0.113109,0.10715 0.113109,0.2917 0,0.18455 -0.113109,0.2917 -0.107156,0.10716 -0.267891,0.10716 z m -0.125015,0.83939 h -0.797719 v -0.41077 h 1.285875 v 1.69664 q 0,0.41077 0.113109,0.55364 0.11311,0.13693 0.339329,0.13693 0.17264,0 0.315515,-0.0417 0.148828,-0.0417 0.232172,-0.0893 l 0.07144,0.41672 q -0.03572,0.0179 -0.101204,0.0476 -0.06548,0.0238 -0.154781,0.0476 -0.08334,0.0238 -0.1905,0.0417 -0.101203,0.0179 -0.214312,0.0179 -0.261938,0 -0.434578,-0.0714 -0.172641,-0.0714 -0.279797,-0.21431 -0.101203,-0.14288 -0.142875,-0.35124 -0.04167,-0.21431 -0.04167,-0.49411 v -1.28587 z"
         style="font-style:normal;font-variant:normal;font-weight:normal;font-stretch:normal;font-size:5.95312452px;font-family:'Ubuntu Mono';-inkscape-font-specification:'Ubuntu Mono';stroke-width:4.04567385px;fill:#4d4d4d;fill-opacity:1"
         id="path4462" />
      <path
         inkscape:connector-curvature="0"
         d="m 53.280092,200.80791 q 0.26789,-0.0655 0.529828,-0.1012 0.26789,-0.0357 0.500062,-0.0357 0.553641,0 0.833438,0.28575 0.28575,0.28575 0.28575,0.91678 v 1.61925 h -0.488156 v -1.52995 q 0,-0.26789 -0.04763,-0.43458 -0.04762,-0.16669 -0.136922,-0.25598 -0.08334,-0.0952 -0.20836,-0.13097 -0.119062,-0.0357 -0.261937,-0.0357 -0.119063,0 -0.255985,0.0179 -0.130968,0.0119 -0.255984,0.0357 v 2.33362 h -0.494109 v -2.68486 z"
         style="font-style:normal;font-variant:normal;font-weight:normal;font-stretch:normal;font-size:5.95312452px;font-family:'Ubuntu Mono';-inkscape-font-specification:'Ubuntu Mono';stroke-width:4.04567385px;fill:#4d4d4d;fill-opacity:1"
         id="path4464" />
      <path
         inkscape:connector-curvature="0"
         d="m 58.119982,199.67682 q -0.55364,0.42863 -0.845343,0.98822 -0.291703,0.55959 -0.291703,1.22039 0,0.33337 0.06548,0.63103 0.07144,0.29766 0.208359,0.5715 0.142875,0.27384 0.357188,0.52983 0.220265,0.25598 0.517922,0.51197 l -0.267891,0.35718 q -0.684609,-0.50601 -1.023937,-1.17276 -0.333375,-0.6727 -0.333375,-1.41684 0,-0.73819 0.339328,-1.41089 0.339328,-0.67271 1.017984,-1.16682 l 0.261937,0.35719 h -0.006 z"
         style="font-style:normal;font-variant:normal;font-weight:normal;font-stretch:normal;font-size:5.95312452px;font-family:'Ubuntu Mono';-inkscape-font-specification:'Ubuntu Mono';stroke-width:4.04567385px;fill:#4d4d4d;fill-opacity:1"
         id="path4466" />
      <path
         inkscape:connector-curvature="0"
         d="m 59.495154,204.12976 q 0.553641,-0.42863 0.845344,-0.98822 0.297656,-0.5596 0.297656,-1.22039 0,-0.33338 -0.07144,-0.63103 -0.06548,-0.29766 -0.20836,-0.5715 -0.142875,-0.27385 -0.36314,-0.52983 -0.214313,-0.25599 -0.511969,-0.51197 l 0.267891,-0.35719 q 0.684609,0.50602 1.017984,1.17872 0.339328,0.66675 0.339328,1.41089 0,0.3691 -0.0893,0.72628 -0.08334,0.35719 -0.255984,0.69057 -0.166688,0.32742 -0.422672,0.61912 -0.250031,0.29766 -0.589359,0.54173 l -0.261938,-0.35718 h 0.006 z"
         style="font-style:normal;font-variant:normal;font-weight:normal;font-stretch:normal;font-size:5.95312452px;font-family:'Ubuntu Mono';-inkscape-font-specification:'Ubuntu Mono';stroke-width:4.04567385px;fill:#4d4d4d;fill-opacity:1"
         id="path4468" />
      <path
         inkscape:connector-curvature="0"
         d="m 62.257404,201.71279 h 0.238125 q 0.101203,0 0.178594,-0.0417 0.07739,-0.0476 0.125016,-0.11907 0.05358,-0.0774 0.07739,-0.16668 0.02977,-0.0952 0.02977,-0.1905 v -0.95846 q 0,-0.22026 0.04167,-0.38695 0.04763,-0.16669 0.154781,-0.2798 0.107156,-0.11906 0.28575,-0.17859 0.184547,-0.0595 0.458391,-0.0595 h 0.482203 v 0.38695 h -0.506016 q -0.250031,0 -0.357187,0.11311 -0.101204,0.11311 -0.101204,0.41077 v 0.82153 q 0,0.39886 -0.119062,0.58936 -0.119063,0.18454 -0.273844,0.25003 0.154781,0.0714 0.273844,0.26789 0.119062,0.19645 0.119062,0.5715 v 0.82153 q 0,0.29766 0.107157,0.41077 0.107156,0.11311 0.357187,0.11311 h 0.500063 v 0.38695 h -0.482203 q -0.273844,0 -0.458391,-0.0595 -0.178594,-0.0595 -0.28575,-0.1786 -0.107156,-0.11311 -0.154781,-0.27979 -0.04167,-0.16669 -0.04167,-0.38696 v -0.95845 q 0,-0.0893 -0.02977,-0.17859 -0.02381,-0.0952 -0.07739,-0.16669 -0.04762,-0.0774 -0.125016,-0.12502 -0.07144,-0.0476 -0.172641,-0.0476 h -0.244078 v -0.381 z"
         style="font-style:normal;font-variant:normal;font-weight:normal;font-stretch:normal;font-size:5.95312452px;font-family:'Ubuntu Mono';-inkscape-font-specification:'Ubuntu Mono';stroke-width:4.04567385px;fill:#4d4d4d;fill-opacity:1"
         id="path4470" />
      <path
         inkscape:connector-curvature="0"
         d="m 44.219437,209.55901 q 0,-0.37505 0.119062,-0.64889 0.119063,-0.27385 0.327422,-0.45244 0.208359,-0.17859 0.482203,-0.26194 0.279797,-0.0893 0.595312,-0.0893 0.202407,0 0.39886,0.0298 0.202406,0.0238 0.428625,0.0952 l -0.11311,0.42267 q -0.196453,-0.0714 -0.36314,-0.0893 -0.160735,-0.0238 -0.327422,-0.0238 -0.214313,0 -0.404813,0.0595 -0.1905,0.0536 -0.333375,0.1786 -0.136921,0.11906 -0.220265,0.31551 -0.08334,0.1905 -0.08334,0.46435 0,0.26193 0.07739,0.45243 0.07739,0.18455 0.214312,0.30957 0.142875,0.11906 0.339328,0.17859 0.196453,0.0595 0.434578,0.0595 0.1905,0 0.363141,-0.0179 0.178594,-0.0238 0.386953,-0.0952 l 0.07144,0.41077 q -0.20836,0.0774 -0.422672,0.10715 -0.214313,0.0357 -0.464344,0.0357 -0.333375,0 -0.613172,-0.0893 -0.273844,-0.0952 -0.47625,-0.27385 -0.196453,-0.17859 -0.309562,-0.44648 -0.107156,-0.27385 -0.107156,-0.63103 z"
         style="font-style:normal;font-variant:normal;font-weight:normal;font-stretch:normal;font-size:5.95312452px;font-family:'Ubuntu Mono';-inkscape-font-specification:'Ubuntu Mono';stroke-width:4.04567385px;fill:#4d4d4d;fill-opacity:1"
         id="path4472" />
      <path
         inkscape:connector-curvature="0"
         d="m 49.642733,209.55305 q 0,0.32743 -0.09525,0.59532 -0.0893,0.26193 -0.255984,0.45243 -0.166688,0.1905 -0.398859,0.29766 -0.232172,0.1012 -0.506016,0.1012 -0.267891,0 -0.500063,-0.1012 -0.226218,-0.10716 -0.392906,-0.29766 -0.166687,-0.1905 -0.261937,-0.45243 -0.0893,-0.26789 -0.0893,-0.59532 0,-0.32742 0.0893,-0.59531 0.09525,-0.26789 0.261937,-0.45244 0.166688,-0.1905 0.392906,-0.2917 0.232172,-0.10715 0.500063,-0.10715 0.273844,0 0.506016,0.10715 0.232171,0.1012 0.398859,0.2917 0.166687,0.18455 0.255984,0.45244 0.09525,0.26789 0.09525,0.59531 z m -0.506015,0 q 0,-0.47029 -0.202407,-0.73818 -0.202406,-0.27385 -0.547687,-0.27385 -0.339328,0 -0.541734,0.27385 -0.196454,0.26789 -0.196454,0.73818 0,0.46435 0.196454,0.73819 0.202406,0.26789 0.541734,0.26789 0.345281,0 0.547687,-0.26789 0.202407,-0.27384 0.202407,-0.73819 z"
         style="font-style:normal;font-variant:normal;font-weight:normal;font-stretch:normal;font-size:5.95312452px;font-family:'Ubuntu Mono';-inkscape-font-specification:'Ubuntu Mono';stroke-width:4.04567385px;fill:#4d4d4d;fill-opacity:1"
         id="path4474" />
      <path
         inkscape:connector-curvature="0"
         d="m 52.434748,210.85679 q -0.160734,0.0417 -0.428625,0.0893 -0.261938,0.0476 -0.619125,0.0476 -0.315516,0 -0.523875,-0.0893 -0.208359,-0.0953 -0.339328,-0.26193 -0.130969,-0.17264 -0.184547,-0.40482 -0.05358,-0.23217 -0.05358,-0.51197 v -1.55376 h 0.488156 v 1.44661 q 0,0.51197 0.148828,0.72628 0.154781,0.21431 0.511969,0.21431 0.07739,0 0.154781,-0.006 0.08334,-0.006 0.154781,-0.0119 0.07144,-0.0119 0.125016,-0.0179 0.05358,-0.0119 0.07144,-0.0179 v -2.33362 h 0.494109 v 2.68486 z"
         style="font-style:normal;font-variant:normal;font-weight:normal;font-stretch:normal;font-size:5.95312452px;font-family:'Ubuntu Mono';-inkscape-font-specification:'Ubuntu Mono';stroke-width:4.04567385px;fill:#4d4d4d;fill-opacity:1"
         id="path4476" />
      <path
         inkscape:connector-curvature="0"
         d="m 54.304029,208.17193 h 1.166813 v 0.41077 h -1.166813 v 1.28587 q 0,0.20836 0.02977,0.33933 0.02976,0.13097 0.09525,0.21431 0.07144,0.0774 0.178594,0.10716 0.107156,0.0298 0.261937,0.0298 0.214313,0 0.345281,-0.0357 0.130969,-0.0357 0.250032,-0.0953 l 0.07144,0.41672 q -0.08334,0.0357 -0.267891,0.0953 -0.178593,0.0595 -0.446484,0.0595 -0.309562,0 -0.506016,-0.0714 -0.196453,-0.0714 -0.309562,-0.21432 -0.107156,-0.14287 -0.148828,-0.35123 -0.04167,-0.21431 -0.04167,-0.49411 v -1.28587 h -0.583406 v -0.41077 h 0.583406 v -0.77391 l 0.488156,-0.0833 v 0.85725 z"
         style="font-style:normal;font-variant:normal;font-weight:normal;font-stretch:normal;font-size:5.95312452px;font-family:'Ubuntu Mono';-inkscape-font-specification:'Ubuntu Mono';stroke-width:4.04567385px;fill:#4d4d4d;fill-opacity:1"
         id="path4478" />
      <path
         inkscape:connector-curvature="0"
         d="m 56.673373,209.41613 1.88714,0.77986 -0.136921,0.41077 -2.297906,-0.97632 v -0.42267 l 2.297906,-0.97631 0.136921,0.41077 z"
         style="font-style:normal;font-variant:normal;font-weight:normal;font-stretch:normal;font-size:5.95312452px;font-family:'Ubuntu Mono';-inkscape-font-specification:'Ubuntu Mono';stroke-width:4.04567385px;fill:#4d4d4d;fill-opacity:1"
         id="path4480" />
      <path
         inkscape:connector-curvature="0"
         d="m 59.649936,209.41613 1.88714,0.77986 -0.136922,0.41077 -2.297906,-0.97632 v -0.42267 l 2.297906,-0.97631 0.136922,0.41077 z"
         style="font-style:normal;font-variant:normal;font-weight:normal;font-stretch:normal;font-size:5.95312452px;font-family:'Ubuntu Mono';-inkscape-font-specification:'Ubuntu Mono';stroke-width:4.04567385px;fill:#4d4d4d;fill-opacity:1"
         id="path4482" />
      <path
         inkscape:connector-curvature="0"
         d="m 63.013451,206.89201 v 0.26789 q 0,0.26194 -0.02977,0.60126 -0.02977,0.33338 -0.07739,0.61318 H 62.65626 q -0.04167,-0.2798 -0.07144,-0.61318 -0.02976,-0.33932 -0.02976,-0.60721 v -0.26194 h 0.45839 z m 0.982266,0 v 0.26789 q 0,0.26194 -0.02977,0.60126 -0.02977,0.33338 -0.07144,0.61318 h -0.250032 q -0.04763,-0.2798 -0.07739,-0.61318 -0.02977,-0.33932 -0.02977,-0.60721 v -0.26194 h 0.458391 z"
         style="font-style:normal;font-variant:normal;font-weight:normal;font-stretch:normal;font-size:5.95312452px;font-family:'Ubuntu Mono';-inkscape-font-specification:'Ubuntu Mono';stroke-width:4.04567385px;fill:#4d4d4d;fill-opacity:1"
         id="path4484" />
      <path
         inkscape:connector-curvature="0"
         d="m 66.984184,207.2492 h 0.488156 v 3.68498 h -0.488156 v -1.7145 h -1.464469 v 1.7145 h -0.488156 v -3.68498 h 0.488156 v 1.55376 h 1.464469 z"
         style="font-style:normal;font-variant:normal;font-weight:normal;font-stretch:normal;font-size:5.95312452px;font-family:'Ubuntu Mono';-inkscape-font-specification:'Ubuntu Mono';stroke-width:4.04567385px;fill:#4d4d4d;fill-opacity:1"
         id="path4486" />
      <path
         inkscape:connector-curvature="0"
         d="m 69.28209,208.10645 q 0.559594,0 0.863203,0.35123 0.303609,0.34528 0.303609,1.0537 v 0.17264 h -1.976437 q 0.02976,0.42863 0.279797,0.65485 0.255984,0.22026 0.714375,0.22026 0.261937,0 0.446484,-0.0417 0.184547,-0.0417 0.279797,-0.0893 l 0.06548,0.41672 q -0.0893,0.0476 -0.321468,0.10121 -0.232172,0.0536 -0.523875,0.0536 -0.357188,0 -0.631032,-0.10715 -0.26789,-0.11311 -0.446484,-0.30361 -0.178594,-0.1905 -0.267891,-0.45244 -0.0893,-0.26789 -0.0893,-0.57745 0,-0.3691 0.113109,-0.64294 0.113109,-0.27384 0.297656,-0.45244 0.184547,-0.17859 0.416719,-0.26789 0.232172,-0.0893 0.47625,-0.0893 z m 0.66675,1.17871 q 0,-0.35123 -0.184547,-0.55364 -0.184547,-0.20836 -0.488156,-0.20836 -0.172641,0 -0.315516,0.0655 -0.136922,0.0655 -0.238125,0.17264 -0.101203,0.10715 -0.160734,0.24408 -0.05953,0.13692 -0.07739,0.27979 h 1.464469 z"
         style="font-style:normal;font-variant:normal;font-weight:normal;font-stretch:normal;font-size:5.95312452px;font-family:'Ubuntu Mono';-inkscape-font-specification:'Ubuntu Mono';stroke-width:4.04567385px;fill:#4d4d4d;fill-opacity:1"
         id="path4488" />
      <path
         inkscape:connector-curvature="0"
         d="m 72.728949,210.99966 q -0.261937,0 -0.434578,-0.0714 -0.172641,-0.0714 -0.273844,-0.21432 -0.101203,-0.14287 -0.142875,-0.35123 -0.04167,-0.21431 -0.04167,-0.49411 v -2.61342 h -0.797718 v -0.41672 h 1.285875 v 3.03014 q 0,0.20836 0.02381,0.33933 0.02977,0.13097 0.08334,0.21431 0.05953,0.0774 0.142875,0.10716 0.08334,0.0298 0.196453,0.0298 0.172641,0 0.321469,-0.0417 0.148828,-0.0417 0.232172,-0.0893 l 0.07144,0.41672 q -0.03572,0.0179 -0.101203,0.0476 -0.06548,0.0238 -0.154781,0.0476 -0.0893,0.0238 -0.196453,0.0417 -0.101203,0.0179 -0.214313,0.0179 z"
         style="font-style:normal;font-variant:normal;font-weight:normal;font-stretch:normal;font-size:5.95312452px;font-family:'Ubuntu Mono';-inkscape-font-specification:'Ubuntu Mono';stroke-width:4.04567385px;fill:#4d4d4d;fill-opacity:1"
         id="path4490" />
      <path
         inkscape:connector-curvature="0"
         d="m 75.705512,210.99966 q -0.261938,0 -0.434578,-0.0714 -0.172641,-0.0714 -0.273844,-0.21432 -0.101203,-0.14287 -0.142875,-0.35123 -0.04167,-0.21431 -0.04167,-0.49411 v -2.61342 h -0.797719 v -0.41672 h 1.285875 v 3.03014 q 0,0.20836 0.02381,0.33933 0.02976,0.13097 0.08334,0.21431 0.05953,0.0774 0.142875,0.10716 0.08334,0.0298 0.196454,0.0298 0.17264,0 0.321468,-0.0417 0.148828,-0.0417 0.232172,-0.0893 l 0.07144,0.41672 q -0.03572,0.0179 -0.101204,0.0476 -0.06548,0.0238 -0.154781,0.0476 -0.0893,0.0238 -0.196453,0.0417 -0.101203,0.0179 -0.214312,0.0179 z"
         style="font-style:normal;font-variant:normal;font-weight:normal;font-stretch:normal;font-size:5.95312452px;font-family:'Ubuntu Mono';-inkscape-font-specification:'Ubuntu Mono';stroke-width:4.04567385px;fill:#4d4d4d;fill-opacity:1"
         id="path4492" />
      <path
         inkscape:connector-curvature="0"
         d="m 79.408355,209.55305 q 0,0.32743 -0.09525,0.59532 -0.0893,0.26193 -0.255984,0.45243 -0.166687,0.1905 -0.398859,0.29766 -0.232172,0.1012 -0.506016,0.1012 -0.267891,0 -0.500062,-0.1012 -0.226219,-0.10716 -0.392907,-0.29766 -0.166687,-0.1905 -0.261937,-0.45243 -0.0893,-0.26789 -0.0893,-0.59532 0,-0.32742 0.0893,-0.59531 0.09525,-0.26789 0.261937,-0.45244 0.166688,-0.1905 0.392907,-0.2917 0.232171,-0.10715 0.500062,-0.10715 0.273844,0 0.506016,0.10715 0.232172,0.1012 0.398859,0.2917 0.166687,0.18455 0.255984,0.45244 0.09525,0.26789 0.09525,0.59531 z m -0.506015,0 q 0,-0.47029 -0.202406,-0.73818 -0.202407,-0.27385 -0.547688,-0.27385 -0.339328,0 -0.541734,0.27385 -0.196453,0.26789 -0.196453,0.73818 0,0.46435 0.196453,0.73819 0.202406,0.26789 0.541734,0.26789 0.345281,0 0.547688,-0.26789 0.202406,-0.27384 0.202406,-0.73819 z"
         style="font-style:normal;font-variant:normal;font-weight:normal;font-stretch:normal;font-size:5.95312452px;font-family:'Ubuntu Mono';-inkscape-font-specification:'Ubuntu Mono';stroke-width:4.04567385px;fill:#4d4d4d;fill-opacity:1"
         id="path4494" />
      <path
         inkscape:connector-curvature="0"
         d="m 83.533871,210.93418 h -0.45839 q -0.05358,-0.36314 -0.09525,-0.79772 -0.03572,-0.44053 -0.07144,-0.91678 -0.02977,-0.47625 -0.05358,-0.97631 -0.02381,-0.50007 -0.04167,-0.99417 h 0.47625 l 0.06548,3.07776 0.535782,-1.67878 h 0.428625 l 0.547687,1.67878 0.06548,-3.07776 h 0.47625 q -0.01786,0.50006 -0.04762,1.00012 -0.02381,0.50006 -0.05953,0.97631 -0.03572,0.4703 -0.07739,0.90488 -0.04167,0.43458 -0.0893,0.80367 h -0.452438 l -0.577453,-1.83356 -0.5715,1.83356 z"
         style="font-style:normal;font-variant:normal;font-weight:normal;font-stretch:normal;font-size:5.95312452px;font-family:'Ubuntu Mono';-inkscape-font-specification:'Ubuntu Mono';stroke-width:4.04567385px;fill:#4d4d4d;fill-opacity:1"
         id="path4496" />
      <path
         inkscape:connector-curvature="0"
         d="m 88.338043,209.55305 q 0,0.32743 -0.09525,0.59532 -0.0893,0.26193 -0.255985,0.45243 -0.166687,0.1905 -0.398859,0.29766 -0.232172,0.1012 -0.506015,0.1012 -0.267891,0 -0.500063,-0.1012 -0.226219,-0.10716 -0.392906,-0.29766 -0.166688,-0.1905 -0.261938,-0.45243 -0.0893,-0.26789 -0.0893,-0.59532 0,-0.32742 0.0893,-0.59531 0.09525,-0.26789 0.261938,-0.45244 0.166687,-0.1905 0.392906,-0.2917 0.232172,-0.10715 0.500063,-0.10715 0.273843,0 0.506015,0.10715 0.232172,0.1012 0.398859,0.2917 0.166688,0.18455 0.255985,0.45244 0.09525,0.26789 0.09525,0.59531 z m -0.506016,0 q 0,-0.47029 -0.202406,-0.73818 -0.202406,-0.27385 -0.547687,-0.27385 -0.339329,0 -0.541735,0.27385 -0.196453,0.26789 -0.196453,0.73818 0,0.46435 0.196453,0.73819 0.202406,0.26789 0.541735,0.26789 0.345281,0 0.547687,-0.26789 0.202406,-0.27384 0.202406,-0.73819 z"
         style="font-style:normal;font-variant:normal;font-weight:normal;font-stretch:normal;font-size:5.95312452px;font-family:'Ubuntu Mono';-inkscape-font-specification:'Ubuntu Mono';stroke-width:4.04567385px;fill:#4d4d4d;fill-opacity:1"
         id="path4498" />
      <path
         inkscape:connector-curvature="0"
         d="m 89.213152,210.93418 v -2.61342 q 0.607219,-0.20836 1.226344,-0.20836 0.1905,0 0.363141,0.0179 0.17264,0.0119 0.381,0.0595 l -0.0893,0.43458 q -0.1905,-0.0536 -0.339328,-0.0655 -0.142875,-0.0179 -0.315516,-0.0179 -0.363141,0 -0.738187,0.10121 v 2.29195 h -0.488157 z"
         style="font-style:normal;font-variant:normal;font-weight:normal;font-stretch:normal;font-size:5.95312452px;font-family:'Ubuntu Mono';-inkscape-font-specification:'Ubuntu Mono';stroke-width:4.04567385px;fill:#4d4d4d;fill-opacity:1"
         id="path4500" />
      <path
         inkscape:connector-curvature="0"
         d="m 93.564887,210.99966 q -0.261938,0 -0.434578,-0.0714 -0.172641,-0.0714 -0.273844,-0.21432 -0.101203,-0.14287 -0.142875,-0.35123 -0.04167,-0.21431 -0.04167,-0.49411 v -2.61342 h -0.797719 v -0.41672 h 1.285875 v 3.03014 q 0,0.20836 0.02381,0.33933 0.02976,0.13097 0.08334,0.21431 0.05953,0.0774 0.142875,0.10716 0.08334,0.0298 0.196454,0.0298 0.17264,0 0.321468,-0.0417 0.148828,-0.0417 0.232172,-0.0893 l 0.07144,0.41672 q -0.03572,0.0179 -0.101204,0.0476 -0.06548,0.0238 -0.154781,0.0476 -0.0893,0.0238 -0.196453,0.0417 -0.101203,0.0179 -0.214312,0.0179 z"
         style="font-style:normal;font-variant:normal;font-weight:normal;font-stretch:normal;font-size:5.95312452px;font-family:'Ubuntu Mono';-inkscape-font-specification:'Ubuntu Mono';stroke-width:4.04567385px;fill:#4d4d4d;fill-opacity:1"
         id="path4502" />
      <path
         inkscape:connector-curvature="0"
         d="m 96.589074,208.75534 q -0.08334,-0.0774 -0.244078,-0.14288 -0.160734,-0.0714 -0.333375,-0.0714 -0.196453,0 -0.339328,0.0774 -0.136922,0.0774 -0.226219,0.21432 -0.0893,0.13096 -0.130969,0.32146 -0.04167,0.18455 -0.04167,0.39886 0,0.48221 0.226218,0.74414 0.226219,0.26194 0.58936,0.26194 0.184547,0 0.309562,-0.0179 0.130969,-0.0179 0.1905,-0.0357 v -1.75021 z m 0,-1.86333 0.494109,-0.0833 v 4.04813 q -0.160734,0.0476 -0.410765,0.0953 -0.250031,0.0476 -0.583406,0.0476 -0.297657,0 -0.541735,-0.1012 -0.244078,-0.1012 -0.416718,-0.28575 -0.172641,-0.1905 -0.267891,-0.45839 -0.09525,-0.26789 -0.09525,-0.60127 0,-0.32146 0.07739,-0.5834 0.08334,-0.26789 0.238125,-0.45839 0.154781,-0.1905 0.369093,-0.29766 0.220266,-0.10715 0.500063,-0.10715 0.220265,0 0.386953,0.0536 0.166687,0.0536 0.250031,0.11311 v -1.38112 z"
         style="font-style:normal;font-variant:normal;font-weight:normal;font-stretch:normal;font-size:5.95312452px;font-family:'Ubuntu Mono';-inkscape-font-specification:'Ubuntu Mono';stroke-width:4.04567385px;fill:#4d4d4d;fill-opacity:1"
         id="path4504" />
      <path
         inkscape:connector-curvature="0"
         d="m 98.732195,206.89201 v 0.26789 q 0,0.26194 -0.02976,0.60126 -0.02977,0.33338 -0.07739,0.61318 h -0.250031 q -0.04167,-0.2798 -0.07144,-0.61318 -0.02976,-0.33932 -0.02976,-0.60721 v -0.26194 h 0.45839 z m 0.982266,0 v 0.26789 q 0,0.26194 -0.02977,0.60126 -0.02977,0.33338 -0.07144,0.61318 H 99.36322 q -0.04762,-0.2798 -0.07739,-0.61318 -0.02977,-0.33932 -0.02977,-0.60721 v -0.26194 h 0.458391 z"
         style="font-style:normal;font-variant:normal;font-weight:normal;font-stretch:normal;font-size:5.95312452px;font-family:'Ubuntu Mono';-inkscape-font-specification:'Ubuntu Mono';stroke-width:4.04567385px;fill:#4d4d4d;fill-opacity:1"
         id="path4506" />
      <path
         inkscape:connector-curvature="0"
         d="m 101.22655,211.40448 q 0.10716,-0.0238 0.20836,-0.0476 0.10716,-0.0238 0.19646,-0.0714 0.0893,-0.0417 0.16073,-0.11311 0.0714,-0.0655 0.11311,-0.18454 -0.1905,-0.0179 -0.2798,-0.14288 -0.0833,-0.13097 -0.0833,-0.25598 0,-0.23813 0.13097,-0.35719 0.13692,-0.12502 0.30956,-0.12502 0.22027,0 0.33338,0.16074 0.11311,0.15478 0.11311,0.381 0,0.17264 -0.0714,0.35719 -0.0655,0.1905 -0.20836,0.35123 -0.13692,0.16669 -0.34528,0.2798 -0.20836,0.11906 -0.49411,0.15478 l -0.0833,-0.38695 z m 1.18468,-2.77416 q 0,0.17859 -0.11907,0.31552 -0.11906,0.13692 -0.31551,0.13692 -0.20241,0 -0.32147,-0.13692 -0.11906,-0.13693 -0.11906,-0.31552 0,-0.18455 0.11906,-0.32147 0.11906,-0.13692 0.32147,-0.13692 0.19645,0 0.31551,0.13692 0.11907,0.13692 0.11907,0.32147 z"
         style="font-style:normal;font-variant:normal;font-weight:normal;font-stretch:normal;font-size:5.95312452px;font-family:'Ubuntu Mono';-inkscape-font-specification:'Ubuntu Mono';stroke-width:4.04567385px;fill:#4d4d4d;fill-opacity:1"
         id="path4508" />
      <path
         inkscape:connector-curvature="0"
         d="m 45.987515,218.1196 q -0.08334,0.0476 -0.255985,0.1012 -0.17264,0.0536 -0.398859,0.0536 -0.244078,0 -0.458391,-0.0774 -0.208359,-0.0833 -0.369093,-0.24408 -0.154782,-0.16668 -0.250032,-0.41672 -0.0893,-0.25598 -0.0893,-0.60126 0,-0.30361 0.08334,-0.55364 0.0893,-0.25599 0.250031,-0.44053 0.166688,-0.18455 0.404813,-0.28575 0.238125,-0.10716 0.541734,-0.10716 0.357188,0 0.607219,0.0536 0.255984,0.0476 0.428625,0.0952 v 2.46459 q 0,0.64294 -0.327422,0.92869 -0.321469,0.28575 -0.976312,0.28575 -0.267891,0 -0.488157,-0.0417 -0.214312,-0.0417 -0.381,-0.1012 l 0.0893,-0.43458 q 0.154781,0.0655 0.351235,0.10715 0.202406,0.0417 0.440531,0.0417 0.428625,0 0.613172,-0.17265 0.184547,-0.17264 0.184547,-0.55959 v -0.0953 z m 0,-2.07169 q -0.07144,-0.0238 -0.196454,-0.0417 -0.125015,-0.0238 -0.339328,-0.0238 -0.381,0 -0.583406,0.26194 -0.196453,0.26193 -0.196453,0.69651 0,0.23813 0.05358,0.41077 0.05953,0.16669 0.154781,0.27979 0.101203,0.10716 0.226219,0.16074 0.125016,0.0476 0.267891,0.0476 0.184547,0 0.345281,-0.0536 0.166687,-0.0536 0.267891,-0.12502 v -1.6133 z"
         style="font-style:normal;font-variant:normal;font-weight:normal;font-stretch:normal;font-size:5.95312452px;font-family:'Ubuntu Mono';-inkscape-font-specification:'Ubuntu Mono';stroke-width:4.04567385px;fill:#4d4d4d;fill-opacity:1"
         id="path4510" />
      <path
         inkscape:connector-curvature="0"
         d="m 48.446155,215.54785 q 0.559594,0 0.863203,0.35124 0.30361,0.34528 0.30361,1.0537 v 0.17264 H 47.63653 q 0.02977,0.42862 0.279797,0.65484 0.255984,0.22027 0.714375,0.22027 0.261938,0 0.446484,-0.0417 0.184547,-0.0417 0.279797,-0.0893 l 0.06549,0.41672 q -0.0893,0.0476 -0.321469,0.1012 -0.232172,0.0536 -0.523875,0.0536 -0.357188,0 -0.631031,-0.10716 -0.267891,-0.11311 -0.446485,-0.30361 -0.178593,-0.1905 -0.26789,-0.45243 -0.0893,-0.26789 -0.0893,-0.57746 0,-0.36909 0.113109,-0.64293 0.11311,-0.27385 0.297656,-0.45244 0.184547,-0.17859 0.416719,-0.26789 0.232172,-0.0893 0.47625,-0.0893 z m 0.66675,1.17872 q 0,-0.35123 -0.184547,-0.55364 -0.184547,-0.20836 -0.488156,-0.20836 -0.172641,0 -0.315516,0.0655 -0.136921,0.0655 -0.238125,0.17264 -0.101203,0.10716 -0.160734,0.24408 -0.05953,0.13692 -0.07739,0.2798 h 1.464469 z"
         style="font-style:normal;font-variant:normal;font-weight:normal;font-stretch:normal;font-size:5.95312452px;font-family:'Ubuntu Mono';-inkscape-font-specification:'Ubuntu Mono';stroke-width:4.04567385px;fill:#4d4d4d;fill-opacity:1"
         id="path4512" />
      <path
         inkscape:connector-curvature="0"
         d="m 51.327467,215.61334 h 1.166812 v 0.41076 h -1.166812 v 1.28588 q 0,0.20836 0.02977,0.33932 0.02977,0.13097 0.09525,0.21432 0.07144,0.0774 0.178594,0.10715 0.107156,0.0298 0.261938,0.0298 0.214312,0 0.345281,-0.0357 0.130969,-0.0357 0.250031,-0.0952 l 0.07144,0.41672 q -0.08334,0.0357 -0.267891,0.0952 -0.178594,0.0595 -0.446484,0.0595 -0.309563,0 -0.506016,-0.0714 -0.196453,-0.0714 -0.309562,-0.21431 -0.107157,-0.14288 -0.148829,-0.35123 -0.04167,-0.21432 -0.04167,-0.49411 v -1.28588 h -0.583407 v -0.41076 h 0.583407 v -0.77391 l 0.488156,-0.0833 v 0.85725 z"
         style="font-style:normal;font-variant:normal;font-weight:normal;font-stretch:normal;font-size:5.95312452px;font-family:'Ubuntu Mono';-inkscape-font-specification:'Ubuntu Mono';stroke-width:4.04567385px;fill:#4d4d4d;fill-opacity:1"
         id="path4514" />
      <path
         inkscape:connector-curvature="0"
         d="m 53.149123,217.00041 q 0,-0.37504 0.119063,-0.64889 0.119062,-0.27384 0.327421,-0.45243 0.20836,-0.1786 0.482203,-0.26194 0.279797,-0.0893 0.595313,-0.0893 0.202406,0 0.398859,0.0298 0.202407,0.0238 0.428625,0.0952 l -0.113109,0.42267 q -0.196453,-0.0714 -0.363141,-0.0893 -0.160734,-0.0238 -0.327422,-0.0238 -0.214312,0 -0.404812,0.0595 -0.1905,0.0536 -0.333375,0.17859 -0.136922,0.11907 -0.220266,0.31552 -0.08334,0.1905 -0.08334,0.46434 0,0.26194 0.07739,0.45244 0.07739,0.18455 0.214313,0.30956 0.142875,0.11907 0.339328,0.1786 0.196453,0.0595 0.434578,0.0595 0.1905,0 0.363141,-0.0179 0.178593,-0.0238 0.386953,-0.0952 l 0.07144,0.41076 q -0.208359,0.0774 -0.422672,0.10716 -0.214312,0.0357 -0.464343,0.0357 -0.333375,0 -0.613172,-0.0893 -0.273844,-0.0952 -0.47625,-0.27384 -0.196453,-0.17859 -0.309563,-0.44649 -0.107156,-0.27384 -0.107156,-0.63103 z"
         style="font-style:normal;font-variant:normal;font-weight:normal;font-stretch:normal;font-size:5.95312452px;font-family:'Ubuntu Mono';-inkscape-font-specification:'Ubuntu Mono';stroke-width:4.04567385px;fill:#4d4d4d;fill-opacity:1"
         id="path4516" />
      <path
         inkscape:connector-curvature="0"
         d="m 56.256654,218.37559 v -4.04218 l 0.49411,-0.0833 v 1.40494 q 0.119062,-0.0476 0.26789,-0.0714 0.148828,-0.0298 0.291703,-0.0298 0.315516,0 0.523875,0.0952 0.214313,0.0893 0.339328,0.25599 0.125016,0.16669 0.178594,0.39886 0.05358,0.23217 0.05358,0.51197 v 1.55972 h -0.488156 v -1.45257 q 0,-0.51197 -0.142875,-0.72033 -0.142875,-0.21431 -0.511969,-0.21431 -0.154781,0 -0.303609,0.0357 -0.142875,0.0298 -0.208359,0.0595 v 2.29196 h -0.49411 z"
         style="font-style:normal;font-variant:normal;font-weight:normal;font-stretch:normal;font-size:5.95312452px;font-family:'Ubuntu Mono';-inkscape-font-specification:'Ubuntu Mono';stroke-width:4.04567385px;fill:#4d4d4d;fill-opacity:1"
         id="path4518" />
      <path
         inkscape:connector-curvature="0"
         d="m 61.096545,214.55963 q -0.553641,0.42863 -0.845344,0.98822 -0.291703,0.55959 -0.291703,1.22039 0,0.33338 0.06548,0.63103 0.07144,0.29766 0.20836,0.5715 0.142875,0.27385 0.357187,0.52983 0.220266,0.25599 0.517922,0.51197 l -0.267891,0.35719 q -0.684609,-0.50602 -1.023937,-1.17277 -0.333375,-0.6727 -0.333375,-1.41684 0,-0.73819 0.339328,-1.41089 0.339328,-0.67271 1.017984,-1.16681 l 0.261938,0.35718 h -0.006 z"
         style="font-style:normal;font-variant:normal;font-weight:normal;font-stretch:normal;font-size:5.95312452px;font-family:'Ubuntu Mono';-inkscape-font-specification:'Ubuntu Mono';stroke-width:4.04567385px;fill:#4d4d4d;fill-opacity:1"
         id="path4520" />
      <path
         inkscape:connector-curvature="0"
         d="m 62.471717,219.01257 q 0.55364,-0.42863 0.845343,-0.98822 0.297657,-0.55959 0.297657,-1.22039 0,-0.33337 -0.07144,-0.63103 -0.06548,-0.29766 -0.208359,-0.5715 -0.142875,-0.27384 -0.363141,-0.52983 -0.214312,-0.25598 -0.511968,-0.51197 l 0.26789,-0.35718 q 0.684609,0.50601 1.017984,1.17871 0.339329,0.66675 0.339329,1.41089 0,0.3691 -0.0893,0.72629 -0.08334,0.35718 -0.255985,0.69056 -0.166687,0.32742 -0.422672,0.61912 -0.250031,0.29766 -0.589359,0.54174 l -0.261937,-0.35719 h 0.006 z"
         style="font-style:normal;font-variant:normal;font-weight:normal;font-stretch:normal;font-size:5.95312452px;font-family:'Ubuntu Mono';-inkscape-font-specification:'Ubuntu Mono';stroke-width:4.04567385px;fill:#4d4d4d;fill-opacity:1"
         id="path4522" />
      <path
         inkscape:connector-curvature="0"
         d="m 65.507809,218.84588 q 0.107156,-0.0238 0.208359,-0.0476 0.107156,-0.0238 0.196453,-0.0714 0.0893,-0.0417 0.160734,-0.11311 0.07144,-0.0655 0.11311,-0.18455 -0.1905,-0.0179 -0.279797,-0.14287 -0.08334,-0.13097 -0.08334,-0.25599 0,-0.23812 0.130969,-0.35718 0.136922,-0.12502 0.309562,-0.12502 0.220266,0 0.333375,0.16074 0.11311,0.15478 0.11311,0.381 0,0.17264 -0.07144,0.35718 -0.06548,0.1905 -0.208359,0.35124 -0.136922,0.16668 -0.345281,0.27979 -0.20836,0.11907 -0.49411,0.15479 l -0.08334,-0.38696 z m 1.184671,-2.77415 q 0,0.17859 -0.119062,0.31551 -0.119063,0.13692 -0.315516,0.13692 -0.202406,0 -0.321468,-0.13692 -0.119063,-0.13692 -0.119063,-0.31551 0,-0.18455 0.119063,-0.32147 0.119062,-0.13692 0.321468,-0.13692 0.196453,0 0.315516,0.13692 0.119062,0.13692 0.119062,0.32147 z"
         style="font-style:normal;font-variant:normal;font-weight:normal;font-stretch:normal;font-size:5.95312452px;font-family:'Ubuntu Mono';-inkscape-font-specification:'Ubuntu Mono';stroke-width:4.04567385px;fill:#4d4d4d;fill-opacity:1"
         id="path4524" />
      <path
         inkscape:connector-curvature="0"
         d="m 44.564718,225.81699 v -2.61342 q 0.607218,-0.20836 1.226343,-0.20836 0.1905,0 0.363141,0.0179 0.172641,0.0119 0.381,0.0595 l -0.0893,0.43458 q -0.1905,-0.0536 -0.339328,-0.0655 -0.142875,-0.0179 -0.315516,-0.0179 -0.36314,0 -0.738187,0.1012 v 2.29195 h -0.488156 z"
         style="font-style:normal;font-variant:normal;font-weight:normal;font-stretch:normal;font-size:5.95312452px;font-family:'Ubuntu Mono';-inkscape-font-specification:'Ubuntu Mono';stroke-width:4.04567385px;fill:#4d4d4d;fill-opacity:1"
         id="path4526" />
      <path
         inkscape:connector-curvature="0"
         d="m 48.446155,222.98926 q 0.559594,0 0.863203,0.35123 0.30361,0.34528 0.30361,1.0537 v 0.17265 H 47.63653 q 0.02977,0.42862 0.279797,0.65484 0.255984,0.22026 0.714375,0.22026 0.261938,0 0.446484,-0.0417 0.184547,-0.0417 0.279797,-0.0893 l 0.06549,0.41671 q -0.0893,0.0476 -0.321469,0.10121 -0.232172,0.0536 -0.523875,0.0536 -0.357188,0 -0.631031,-0.10716 -0.267891,-0.11311 -0.446485,-0.30361 -0.178593,-0.1905 -0.26789,-0.45244 -0.0893,-0.26789 -0.0893,-0.57745 0,-0.36909 0.113109,-0.64294 0.11311,-0.27384 0.297656,-0.45243 0.184547,-0.1786 0.416719,-0.2679 0.232172,-0.0893 0.47625,-0.0893 z m 0.66675,1.17872 q 0,-0.35124 -0.184547,-0.55364 -0.184547,-0.20836 -0.488156,-0.20836 -0.172641,0 -0.315516,0.0655 -0.136921,0.0655 -0.238125,0.17264 -0.101203,0.10716 -0.160734,0.24408 -0.05953,0.13692 -0.07739,0.2798 h 1.464469 z"
         style="font-style:normal;font-variant:normal;font-weight:normal;font-stretch:normal;font-size:5.95312452px;font-family:'Ubuntu Mono';-inkscape-font-specification:'Ubuntu Mono';stroke-width:4.04567385px;fill:#4d4d4d;fill-opacity:1"
         id="path4528" />
      <path
         inkscape:connector-curvature="0"
         d="m 51.327467,223.05474 h 1.166812 v 0.41077 h -1.166812 v 1.28587 q 0,0.20836 0.02977,0.33933 0.02977,0.13097 0.09525,0.21431 0.07144,0.0774 0.178594,0.10716 0.107156,0.0298 0.261938,0.0298 0.214312,0 0.345281,-0.0357 0.130969,-0.0357 0.250031,-0.0952 l 0.07144,0.41671 q -0.08334,0.0357 -0.267891,0.0952 -0.178594,0.0595 -0.446484,0.0595 -0.309563,0 -0.506016,-0.0714 -0.196453,-0.0714 -0.309562,-0.21431 -0.107157,-0.14288 -0.148829,-0.35124 -0.04167,-0.21431 -0.04167,-0.49411 v -1.28587 h -0.583407 v -0.41077 h 0.583407 v -0.7739 l 0.488156,-0.0834 v 0.85725 z"
         style="font-style:normal;font-variant:normal;font-weight:normal;font-stretch:normal;font-size:5.95312452px;font-family:'Ubuntu Mono';-inkscape-font-specification:'Ubuntu Mono';stroke-width:4.04567385px;fill:#4d4d4d;fill-opacity:1"
         id="path4530" />
      <path
         inkscape:connector-curvature="0"
         d="m 55.41131,225.7396 q -0.160734,0.0417 -0.428625,0.0893 -0.261937,0.0476 -0.619125,0.0476 -0.315515,0 -0.523874,-0.0893 -0.20836,-0.0952 -0.339329,-0.26194 -0.130968,-0.17264 -0.184546,-0.40481 -0.05358,-0.23218 -0.05358,-0.51197 v -1.55377 h 0.488157 v 1.44661 q 0,0.51197 0.148828,0.72628 0.154781,0.21431 0.511968,0.21431 0.07739,0 0.154782,-0.006 0.08334,-0.006 0.154781,-0.0119 0.07144,-0.0119 0.125016,-0.0179 0.05358,-0.0119 0.07144,-0.0179 v -2.33363 h 0.494109 v 2.68486 z"
         style="font-style:normal;font-variant:normal;font-weight:normal;font-stretch:normal;font-size:5.95312452px;font-family:'Ubuntu Mono';-inkscape-font-specification:'Ubuntu Mono';stroke-width:4.04567385px;fill:#4d4d4d;fill-opacity:1"
         id="path4532" />
      <path
         inkscape:connector-curvature="0"
         d="m 56.470967,225.81699 v -2.61342 q 0.607218,-0.20836 1.226343,-0.20836 0.1905,0 0.363141,0.0179 0.172641,0.0119 0.381,0.0595 l -0.0893,0.43458 q -0.1905,-0.0536 -0.339328,-0.0655 -0.142875,-0.0179 -0.315516,-0.0179 -0.36314,0 -0.738187,0.1012 v 2.29195 h -0.488156 z"
         style="font-style:normal;font-variant:normal;font-weight:normal;font-stretch:normal;font-size:5.95312452px;font-family:'Ubuntu Mono';-inkscape-font-specification:'Ubuntu Mono';stroke-width:4.04567385px;fill:#4d4d4d;fill-opacity:1"
         id="path4534" />
      <path
         inkscape:connector-curvature="0"
         d="m 59.233217,223.13213 q 0.26789,-0.0655 0.529828,-0.1012 0.26789,-0.0357 0.500062,-0.0357 0.553641,0 0.833438,0.28575 0.28575,0.28575 0.28575,0.91678 v 1.61925 h -0.488156 v -1.52995 q 0,-0.26789 -0.04763,-0.43458 -0.04762,-0.16669 -0.136922,-0.25598 -0.08334,-0.0953 -0.20836,-0.13097 -0.119062,-0.0357 -0.261937,-0.0357 -0.119063,0 -0.255985,0.0179 -0.130968,0.0119 -0.255984,0.0357 v 2.33362 h -0.494109 v -2.68486 z"
         style="font-style:normal;font-variant:normal;font-weight:normal;font-stretch:normal;font-size:5.95312452px;font-family:'Ubuntu Mono';-inkscape-font-specification:'Ubuntu Mono';stroke-width:4.04567385px;fill:#4d4d4d;fill-opacity:1"
         id="path4536" />
      <path
         inkscape:connector-curvature="0"
         d="m 66.59723,223.90604 q 0,0.15478 -0.09525,0.26789 -0.0893,0.11311 -0.238125,0.11311 -0.154781,0 -0.250031,-0.11311 -0.09525,-0.11311 -0.09525,-0.26789 0,-0.15478 0.09525,-0.27385 0.09525,-0.11906 0.250031,-0.11906 0.148829,0 0.238125,0.11906 0.09525,0.11907 0.09525,0.27385 z m -1.559718,0.0655 q 0,-0.92868 0.315515,-1.42279 0.321469,-0.50007 0.898922,-0.50007 0.583406,0 0.898922,0.50007 0.315516,0.49411 0.315516,1.42279 0,0.92869 -0.315516,1.42875 -0.315516,0.49411 -0.898922,0.49411 -0.577453,0 -0.898922,-0.49411 -0.315515,-0.50006 -0.315515,-1.42875 z m 1.928812,0 q 0,-0.30361 -0.03572,-0.5715 -0.03572,-0.27384 -0.119062,-0.47625 -0.08334,-0.2024 -0.220266,-0.32147 -0.136922,-0.11906 -0.339328,-0.11906 -0.202406,0 -0.339328,0.11906 -0.136922,0.11907 -0.220266,0.32147 -0.08334,0.20241 -0.119062,0.47625 -0.03572,0.26789 -0.03572,0.5715 0,0.30361 0.03572,0.57746 0.03572,0.26789 0.119062,0.47029 0.08334,0.20241 0.220266,0.32147 0.136922,0.11906 0.339328,0.11906 0.202406,0 0.339328,-0.11906 0.136922,-0.11906 0.220266,-0.32147 0.08334,-0.2024 0.119062,-0.47029 0.03572,-0.27385 0.03572,-0.57746 z"
         style="font-style:normal;font-variant:normal;font-weight:normal;font-stretch:normal;font-size:5.95312452px;font-family:'Ubuntu Mono';-inkscape-font-specification:'Ubuntu Mono';stroke-width:4.04567385px;fill:#4d4d4d;fill-opacity:1"
         id="path4538" />
      <path
         inkscape:connector-curvature="0"
         d="m 68.484371,226.28729 q 0.107156,-0.0238 0.208359,-0.0476 0.107157,-0.0238 0.196454,-0.0714 0.0893,-0.0417 0.160734,-0.11311 0.07144,-0.0655 0.113109,-0.18455 -0.1905,-0.0179 -0.279797,-0.14288 -0.08334,-0.13096 -0.08334,-0.25598 0,-0.23812 0.130968,-0.35719 0.136922,-0.12501 0.309563,-0.12501 0.220266,0 0.333375,0.16073 0.113109,0.15478 0.113109,0.381 0,0.17264 -0.07144,0.35719 -0.06548,0.1905 -0.20836,0.35123 -0.136921,0.16669 -0.345281,0.2798 -0.208359,0.11906 -0.494109,0.15478 l -0.08334,-0.38695 z m 1.184672,-2.77416 q 0,0.1786 -0.119063,0.31552 -0.119062,0.13692 -0.315515,0.13692 -0.202406,0 -0.321469,-0.13692 -0.119062,-0.13692 -0.119062,-0.31552 0,-0.18454 0.119062,-0.32147 0.119063,-0.13692 0.321469,-0.13692 0.196453,0 0.315515,0.13692 0.119063,0.13693 0.119063,0.32147 z"
         style="font-style:normal;font-variant:normal;font-weight:normal;font-stretch:normal;font-size:5.95312452px;font-family:'Ubuntu Mono';-inkscape-font-specification:'Ubuntu Mono';stroke-width:4.04567385px;fill:#4d4d4d;fill-opacity:1"
         id="path4540" />
      <path
         inkscape:connector-curvature="0"
         d="m 34.52775,231.85941 h -0.238125 q -0.101203,0 -0.178594,0.0476 -0.07144,0.0417 -0.125016,0.11906 -0.04763,0.0714 -0.07739,0.16669 -0.02381,0.0893 -0.02381,0.18455 v 0.95845 q 0,0.22026 -0.04762,0.38695 -0.04167,0.16669 -0.154781,0.2798 -0.107156,0.11906 -0.291703,0.17859 -0.178594,0.0595 -0.452437,0.0595 H 32.45607 v -0.38695 h 0.506016 q 0.250031,0 0.351234,-0.11311 0.107157,-0.11311 0.107157,-0.41076 v -0.82154 q 0,-0.39886 0.119062,-0.5834 0.119063,-0.1905 0.273844,-0.25599 -0.154781,-0.0714 -0.273844,-0.26789 -0.119062,-0.19645 -0.119062,-0.5715 v -0.82153 q 0,-0.29765 -0.107157,-0.41076 -0.107156,-0.11311 -0.357187,-0.11311 H 32.45607 v -0.38696 h 0.482204 q 0.273843,0 0.452437,0.0595 0.184547,0.0595 0.291703,0.17859 0.113109,0.11311 0.154781,0.2798 0.04762,0.16668 0.04762,0.38695 v 0.95845 q 0,0.0893 0.02381,0.18455 0.02381,0.0893 0.07144,0.16669 0.05358,0.0714 0.125016,0.11906 0.07739,0.0476 0.178594,0.0476 h 0.244078 v 0.381 z"
         style="font-style:normal;font-variant:normal;font-weight:normal;font-stretch:normal;font-size:5.95312452px;font-family:'Ubuntu Mono';-inkscape-font-specification:'Ubuntu Mono';stroke-width:4.04567385px;fill:#4d4d4d;fill-opacity:1"
         id="path4542" />
    </g>
    <path
       sodipodi:nodetypes="ccccsccsc"
       inkscape:connector-curvature="0"
       id="path1355-3"
       d="m 19.751144,265.48426 c 0.01633,0.0263 0.561139,0.90462 0.727791,1.39886 0.451585,1.01234 0.25858,3.97236 0.250369,5.65885 0.02772,-0.19401 4.690513,-1.39583 7.111042,0.80464 -0.01547,-0.0273 -0.04888,-0.0804 -0.12512,-0.18628 -0.07235,-0.10046 -0.182749,-0.24915 -0.371644,-0.44224 -0.528108,-0.60452 -0.230926,-0.0845 -0.805409,-0.682 -0.496688,-0.45047 -1.569491,-1.52048 -2.867987,-2.79805 -1.241182,-1.22116 -2.686924,-2.62954 -3.919042,-3.75378 z"
       style="opacity:0.24800002;fill:#000000;fill-opacity:1;stroke:none;stroke-width:0.30000001;stroke-miterlimit:4;stroke-dasharray:none;stroke-opacity:1" />
    <path
       style="opacity:1;fill:#ffffff;fill-opacity:1;stroke:#808080;stroke-width:0.30000001;stroke-miterlimit:4;stroke-dasharray:none;stroke-opacity:1"
       d="m 19.42404,264.96145 c 0.01548,0.0249 0.53209,0.85773 0.690114,1.32635 0.428208,0.95987 0.292236,3.21802 0.28445,4.8171 0.428992,-0.0223 5.159507,-0.73701 7.328403,1.82407 -0.02928,-0.0506 -0.102779,-0.0927 -0.143771,-0.17312 -0.500768,-0.57318 -1.139582,-1.03373 -1.723521,-1.58216 -0.470975,-0.42712 -1.488241,-1.44167 -2.719516,-2.65302 -1.176928,-1.15787 -2.547826,-2.49325 -3.716159,-3.55922 z"
       id="path4753-0"
       inkscape:connector-curvature="0"
       sodipodi:nodetypes="ccccccsc" />
    <g
       style="stroke-width:4.08449793"
       inkscape:transform-center-y="-9.4924686"
       inkscape:transform-center-x="5.4653607"
       inkscape:label="Capa 1"
       id="layer1-4-9"
       transform="matrix(0.53602412,0,0,0.5372689,-234.93365,-13.785303)">
      <g
         style="stroke-width:4.08449793"
         id="layer1-3-65-0"
         inkscape:label="Capa 1"
         transform="translate(0.41988239,0.03484499)" />
    </g>
    <g
       style="stroke-width:4.08449793"
       inkscape:transform-center-y="-9.4924686"
       inkscape:transform-center-x="5.4653607"
       inkscape:label="Capa 1"
       id="layer1-4"
       transform="matrix(0.53602412,0,0,0.5372689,-234.93365,-13.760303)">
      <g
         style="stroke-width:4.08449793"
         id="layer1-3-65"
         inkscape:label="Capa 1"
         transform="translate(0.41988239,0.03484499)" />
    </g>
    <g
       aria-label="c++"
       style="font-style:normal;font-weight:normal;font-size:13.19721413px;line-height:1.25;font-family:sans-serif;letter-spacing:0px;word-spacing:0px;fill:#451b86;fill-opacity:1;stroke:none;stroke-width:0.26458332"
       id="text915">
      <path
         d="m 10.342735,285.0481 q -0.05286,-0.40303 -0.270892,-0.72678 -0.3171413,-0.43607 -0.98446,-0.43607 -0.9514247,0 -1.3016019,0.94481 -0.1849993,0.50215 -0.1849993,1.33464 0,0.79286 0.1849993,1.27518 0.3369629,0.89856 1.2685663,0.89856 0.6607116,0 0.9382105,-0.35678 0.2774991,-0.35679 0.3369631,-0.925 h 1.922671 q -0.06607,0.85893 -0.621069,1.62535 -0.885354,1.23553 -2.6230254,1.23553 -1.7376716,0 -2.556954,-1.03071 -0.8192824,-1.03071 -0.8192824,-2.67588 0,-1.8566 0.9051749,-2.88731 0.905175,-1.03071 2.49749,-1.03071 1.3544589,0 2.2133839,0.60786 0.865532,0.60785 1.024103,2.14731 z m -1.2751734,-2.77499 z"
         style="font-style:normal;font-variant:normal;font-weight:bold;font-stretch:normal;font-size:13.53137398px;font-family:Helvetica;-inkscape-font-specification:'Helvetica Bold';fill:#451b86;fill-opacity:1;stroke-width:0.26458332"
         id="path917" />
      <path
         d="m 13.177188,286.94434 v -1.72446 h 2.708918 v -2.70891 h 1.737671 v 2.70891 h 2.708918 v 1.72446 h -2.708918 v 2.72213 h -1.737671 v -2.72213 z"
         style="font-style:normal;font-variant:normal;font-weight:bold;font-stretch:normal;font-size:13.53137398px;font-family:Helvetica;-inkscape-font-specification:'Helvetica Bold';fill:#451b86;fill-opacity:1;stroke-width:0.26458332"
         id="path919" />
      <path
         d="m 21.079299,286.94434 v -1.72446 h 2.708917 v -2.70891 h 1.737672 v 2.70891 h 2.708917 v 1.72446 h -2.708917 v 2.72213 h -1.737672 v -2.72213 z"
         style="font-style:normal;font-variant:normal;font-weight:bold;font-stretch:normal;font-size:13.53137398px;font-family:Helvetica;-inkscape-font-specification:'Helvetica Bold';fill:#451b86;fill-opacity:1;stroke-width:0.26458332"
         id="path921" />
    </g>
  </g>
</svg>
