<?xml version="1.0" encoding="UTF-8" standalone="no"?>
<!-- Created with Inkscape (http://www.inkscape.org/) -->

<svg
   xmlns:osb="http://www.openswatchbook.org/uri/2009/osb"
   xmlns:dc="http://purl.org/dc/elements/1.1/"
   xmlns:cc="http://creativecommons.org/ns#"
   xmlns:rdf="http://www.w3.org/1999/02/22-rdf-syntax-ns#"
   xmlns:svg="http://www.w3.org/2000/svg"
   xmlns="http://www.w3.org/2000/svg"
   xmlns:xlink="http://www.w3.org/1999/xlink"
   xmlns:sodipodi="http://sodipodi.sourceforge.net/DTD/sodipodi-0.dtd"
   xmlns:inkscape="http://www.inkscape.org/namespaces/inkscape"
   width="128"
   height="128"
   viewBox="0 0 33.866666 33.866668"
   version="1.1"
   id="svg8"
   inkscape:version="0.92.2 5c3e80d, 2017-08-06"
   sodipodi:docname="sql.svg">
  <defs
     id="defs2">
    <linearGradient
       id="linearGradient1830">
      <stop
         id="stop1826"
         style="stop-color:#d9d9d9;stop-opacity:1"
         offset="0" />
      <stop
         id="stop1828"
         style="stop-color:#ffffff;stop-opacity:1;"
         offset="1" />
    </linearGradient>
    <linearGradient
       osb:paint="solid"
       id="linearGradient6987">
      <stop
         id="stop6985"
         offset="0"
         style="stop-color:#77d2fb;stop-opacity:1;" />
    </linearGradient>
    <linearGradient
       inkscape:collect="always"
       xlink:href="#linearGradient1830"
       id="linearGradient1503-8"
       x1="29.203474"
       y1="263.52237"
       x2="4.5843229"
       y2="296.16849"
       gradientUnits="userSpaceOnUse"
       gradientTransform="matrix(1.0010487,0,0,1.0010383,-0.01775767,-0.29086231)" />
    <radialGradient
       gradientUnits="userSpaceOnUse"
       gradientTransform="matrix(0.42147037,0,0,0.16278299,40.353184,280.77603)"
       r="22.627"
       cy="41.636"
       cx="23.335"
       id="radialGradient2490">
      <stop
         offset="0"
         id="stop23421" />
      <stop
         offset="1"
         style="stop-opacity:0"
         id="stop23423" />
    </radialGradient>
    <linearGradient
       xlink:href="#linearGradient3858"
       gradientUnits="userSpaceOnUse"
       gradientTransform="matrix(0.73360435,0,0,0.73677466,-18.8861,269.46868)"
       y2="27.546"
       y1="22.537"
       x2="89.018"
       x1="89.018"
       id="linearGradient2479" />
    <linearGradient
       xlink:href="#linearGradient2793"
       spreadMethod="reflect"
       gradientUnits="userSpaceOnUse"
       gradientTransform="matrix(0.33586608,0,0,0.31850032,15.274186,290.43589)"
       y2="-7.6657"
       y1="-7.6657"
       x2="89.424"
       x1="103.95"
       id="linearGradient2477" />
    <linearGradient
       xlink:href="#linearGradient3858"
       gradientUnits="userSpaceOnUse"
       gradientTransform="matrix(0.73360435,0,0,0.73677466,-18.8861,265.04803)"
       y2="27.546"
       y1="22.537"
       x2="89.018"
       x1="89.018"
       id="linearGradient2473" />
    <linearGradient
       xlink:href="#linearGradient2793"
       spreadMethod="reflect"
       gradientUnits="userSpaceOnUse"
       gradientTransform="matrix(0.33586608,0,0,0.31850032,15.274186,286.01524)"
       y2="-7.6657"
       y1="-7.6657"
       x2="89.424"
       x1="103.95"
       id="linearGradient2471" />
    <linearGradient
       id="linearGradient3858">
      <stop
         offset="0"
         style="stop-color:#a0a0a0"
         id="stop3860" />
      <stop
         offset="1"
         style="stop-color:#4a4a4a"
         id="stop3862" />
    </linearGradient>
    <linearGradient
       xlink:href="#linearGradient3858"
       gradientUnits="userSpaceOnUse"
       gradientTransform="matrix(0.73360435,0,0,0.73677466,-18.8861,260.62738)"
       y2="27.546"
       y1="22.537"
       x2="89.018"
       x1="89.018"
       id="linearGradient2466" />
    <linearGradient
       id="linearGradient2793">
      <stop
         offset="0"
         style="stop-color:#868688"
         id="stop2795" />
      <stop
         offset="1"
         style="stop-color:#d9d9da"
         id="stop2797" />
    </linearGradient>
    <linearGradient
       xlink:href="#linearGradient2793"
       spreadMethod="reflect"
       gradientUnits="userSpaceOnUse"
       gradientTransform="matrix(0.33586608,0,0,0.31850032,15.274186,281.59459)"
       y2="-7.6657"
       y1="-7.6657"
       x2="89.424"
       x1="103.95"
       id="linearGradient2463" />
    <linearGradient
       gradientUnits="userSpaceOnUse"
       gradientTransform="matrix(0.33608616,0,0,0.32336303,15.253645,278.66296)"
       y2="-2.3758"
       y1="-24.911"
       x2="109.96"
       x1="109.96"
       id="linearGradient2460">
      <stop
         offset="0"
         style="stop-color:#b3b3b3"
         id="stop2511" />
      <stop
         offset="1"
         style="stop-color:#dadada"
         id="stop2513" />
    </linearGradient>
    <linearGradient
       spreadMethod="reflect"
       gradientUnits="userSpaceOnUse"
       gradientTransform="matrix(0.33608616,0,0,0.32336303,15.253645,278.66296)"
       y2="-24.582"
       y1="-2.3925"
       x2="102.31"
       x1="102.31"
       id="linearGradient2458">
      <stop
         offset="0"
         style="stop-color:#a5a6a8"
         id="stop3846" />
      <stop
         offset="1"
         style="stop-color:#e8e8e8"
         id="stop3848" />
    </linearGradient>
  </defs>
  <sodipodi:namedview
     id="base"
     pagecolor="#ffffff"
     bordercolor="#666666"
     borderopacity="1.0"
     inkscape:pageopacity="0.0"
     inkscape:pageshadow="2"
     inkscape:zoom="1.8101934"
     inkscape:cx="16.76026"
     inkscape:cy="51.963121"
     inkscape:document-units="mm"
     inkscape:current-layer="layer1"
     showgrid="false"
     units="px"
     inkscape:window-width="1600"
     inkscape:window-height="814"
     inkscape:window-x="0"
     inkscape:window-y="0"
     inkscape:window-maximized="1"
     showguides="false" />
  <metadata
     id="metadata5">
    <rdf:RDF>
      <cc:Work
         rdf:about="">
        <dc:format>image/svg+xml</dc:format>
        <dc:type
           rdf:resource="http://purl.org/dc/dcmitype/StillImage" />
        <dc:title />
      </cc:Work>
    </rdf:RDF>
  </metadata>
  <g
     inkscape:label="Layer 1"
     inkscape:groupmode="layer"
     id="layer1"
     transform="translate(0,-263.13332)">
    <path
       style="opacity:0.25;fill:#000000;fill-opacity:1;stroke:none;stroke-width:1.87499988;stroke-miterlimit:4;stroke-dasharray:none;stroke-opacity:1"
       d="M 4.5713723,264.09818 V 296.7104 H 29.295294 v -18.3 c -0.04716,-0.8313 -0.101653,-1.57532 -0.312496,-2.32966 -0.21448,-0.76736 -0.552469,-1.49394 -0.956412,-2.18925 -0.516871,-0.8897 -1.39035,-1.46334 -2.166671,-2.19248 -0.47098,-0.42711 -1.488209,-1.44169 -2.719481,-2.65304 -1.221196,-1.20143 -2.653456,-2.59692 -3.849171,-3.68107 -0.35316,-0.3187 -0.866164,-0.64943 -1.342771,-0.84044 -0.370088,-0.14831 -0.80547,-0.24063 -1.22583,-0.30267 -0.433449,-0.064 -0.850926,-0.0958 -1.164384,-0.12361 z"
       id="path5023-4"
       inkscape:connector-curvature="0"
       sodipodi:nodetypes="ccccascscsscc" />
    <path
       sodipodi:nodetypes="ccccascscsscc"
       inkscape:connector-curvature="0"
       id="path4623-8"
       d="m 4.5713723,263.5729 v 32.61222 H 29.295294 v -18.3 c -0.04716,-0.83129 -0.101653,-1.57532 -0.312496,-2.32966 -0.21448,-0.76736 -0.552469,-1.49394 -0.956412,-2.18925 -0.516871,-0.88969 -1.39035,-1.46334 -2.166671,-2.19247 -0.47098,-0.42712 -1.488209,-1.4417 -2.719481,-2.65305 -1.221196,-1.20142 -2.653456,-2.59692 -3.849171,-3.68107 -0.35316,-0.3187 -0.866164,-0.64944 -1.342771,-0.84044 -0.370088,-0.14831 -0.80547,-0.24063 -1.22583,-0.30267 -0.433449,-0.064 -0.850926,-0.0958 -1.164384,-0.12361 z"
       style="opacity:1;fill:url(#linearGradient1503-8);fill-opacity:1;stroke:#808080;stroke-width:0.30000001;stroke-miterlimit:4;stroke-dasharray:none;stroke-opacity:1" />
    <g
       id="g1024">
      <path
         style="fill:none;stroke:#4f4f4f;stroke-width:0.30000001;stroke-linecap:butt;stroke-linejoin:miter;stroke-miterlimit:4;stroke-dasharray:none;stroke-opacity:1"
         id="path997"
         d="m 7.704872,268.00872 h 1.698695 z m 1.947836,0 h 1.585448 z m 1.834589,0 h 1.404254 z m 1.630747,0 h 0.61153 z m 0.860673,0 h 1.358955 z m 1.630747,0 h 3.578582 z m -7.904592,0.87396 h 2.649963 z m 2.944403,0 h 1.268358 z m 1.494851,0 h 0.634179 z m 0.883321,0 h 1.155113 z m 1.404255,0 h 1.177762 z m 1.404254,0 h 1.879888 z m 2.12903,0 h 2.446121 z m 2.672614,0 h 1.630746 z m 1.857239,0 h 0.407687 z m -14.789967,0.86713 h 2.242276 z m 2.46877,0 h 3.66918 z m 3.895671,0 h 1.789293 z m 2.015785,0 h 1.676044 z m 1.902538,0 h 1.426903 z m 1.653397,0 2.242276,0.0136 z m 2.44612,0.0136 h 2.072661 z m -14.382281,0.86713 h 3.102947 z m 3.35209,0 h 3.352091 z m 3.578582,0 h 1.336307 z m 1.5628,0 h 3.148247 z m 3.352091,0 h 2.15168 z m 2.400822,0 h 0.860672 z m 1.087165,0 h 0.475634 z m 0.724776,0 h 1.336307 z m -16.058326,0.87397 h 1.155112 z m 1.517501,0 h 4.280709 z m -1.517501,1.74108 h 2.242276 z m 2.46877,0 h 3.66918 z m 3.895671,0 h 1.789293 z m 2.015785,0 h 1.676044 z m 1.902538,0 h 1.426903 z m 1.653397,0 2.242276,0.0137 z m 2.44612,0.0137 h 3.646532 z m -14.382281,0.86713 h 1.698695 z m 1.947836,0 h 1.562799 z m 1.834589,0 h 1.404254 z m 1.630747,0 h 0.61153 z m 0.860673,0 h 1.358955 z m 1.630747,0 h 3.555933 z m 3.805075,0 h 2.717912 z m 2.944405,0 h 0.860672 z m 1.087164,0 h 2.038433 z m -15.741236,0.87396 h 2.853806 z m 3.080298,0 h 3.057652 z m 3.284143,0 h 1.177762 z m 1.404255,0 h 2.876456 z m 3.102949,0 h 3.623881 z m 3.873023,0 h 1.336307 z m -14.744668,0.87396 h 3.102947 z m 3.35209,0 h 3.352091 z m 3.578582,0 h 1.336307 z m 1.5628,0 h 3.148247 z m 3.352091,0 h 2.15168 z m 2.400822,0 h 0.860672 z m 1.087165,0 h 0.475634 z m 0.724776,0 h 1.336307 z m -16.058326,0.87395 h 2.649963 z m 2.944403,0 h 1.268358 z m 1.494851,0 h 0.634179 z m 0.883321,0 h 1.155113 z m 1.404255,0 h 1.177762 z m 1.404254,0 h 1.879888 z m 2.12903,0 h 2.446121 z m 2.672614,0 h 1.630746 z m 1.857239,0 h 0.407687 z m -14.789967,1.74109 h 2.242276 z m 2.46877,0 h 3.66918 z m 3.895671,0 h 1.789293 z m 2.015785,0 h 1.676044 z m 1.902538,0 h 1.426903 z m 1.653397,0 2.242276,0.0137 z m 2.44612,0.0137 h 3.646532 z m -14.382281,0.86713 h 2.649963 z m 2.944403,0 h 1.268358 z m 1.494851,0 h 0.634179 z m 0.883321,0 h 1.155113 z m 1.404255,0 h 1.177762 z m 1.404254,0 h 1.879888 z m 2.12903,0 h 2.446121 z m 2.672614,0 h 1.630746 z m 1.857239,0 h 0.407687 z m -14.789967,0.87397 h 2.808508 z m 3.05765,0 h 0.88332 z m 1.109814,0 h 2.015783 z m 2.242276,0 h 2.967053 z m 3.216195,0 h 2.015784 z m 2.219628,0 h 0.430335 z m 0.656829,0 h 2.559366 z m 2.831158,0 h 1.336307 z m -15.33355,0.87395 h 2.808509 z m 3.05765,0 h 1.268358 z m 1.494851,0 h 1.993135 z m 2.219627,0 h 2.15168 z m 2.400823,0 h 0.860671 z m 1.087163,0 h 0.475635 z m 0.724777,0 h 1.336307 z"
         inkscape:connector-curvature="0"
         sodipodi:nodetypes="cccccccccccccccccccccccccccccccccccccccccccccccccccccccccccccccccccccccccccccccccccccccccccccccccccccccccccccccccccccccccccccccccccccccccccccccccccccccccccccccccccccccccccccccccccccccccccccccccccccccccccccccccccccccccccccccccccccccccccccccccccccccccccccccccccccccccccccccccccccccccccccccccccccccccccccccccc" />
      <path
         sodipodi:nodetypes="cccccccccccccccccccccccccccccccccccccccccccccccccccccccccccccccccccccccccccccccccccccccccccccccccccccccccccccccccccccccccccccccccccccccccccccccccccccccccccccccccccccccccccccccccccccccccccccccccccccccccccccccccccccccccccccc"
         inkscape:connector-curvature="0"
         d="m 7.704872,293.33306 h 3.102947 z m 3.35209,0 h 3.352091 z m -3.35209,-0.87397 h 1.155112 z m 1.517501,0 h 4.280709 z m -1.517501,-1.74108 h 2.242276 z m 2.46877,0 h 3.66918 z m 3.895671,0 h 1.789293 z m 2.015785,0 h 1.676044 z m 1.902538,0 h 1.426903 z m 1.653397,0 2.242276,-0.0137 z m 2.44612,-0.0137 h 3.646532 z M 7.704872,289.83718 h 1.698695 z m 1.947836,0 h 1.562799 z m 1.834589,0 h 1.404254 z m 1.630747,0 h 0.61153 z m 0.860673,0 h 1.358955 z m 1.630747,0 h 3.555933 z m 3.805075,0 h 2.717912 z m 2.944405,0 h 0.860672 z m 1.087164,0 h 2.038433 z M 7.704872,288.96322 h 2.853806 z m 3.080298,0 h 3.057652 z m 3.284143,0 h 1.177762 z m 1.404255,0 h 2.876456 z m 3.102949,0 h 3.623881 z m 3.873023,0 h 1.336307 z M 7.704872,288.08926 h 3.102947 z m 3.35209,0 h 3.352091 z m 3.578582,0 h 1.336307 z m 1.5628,0 h 3.148247 z m 3.352091,0 h 2.15168 z m 2.400822,0 h 0.860672 z m 1.087165,0 h 0.475634 z m 0.724776,0 h 1.336307 z M 7.704872,287.21531 h 2.649963 z m 2.944403,0 h 1.268358 z m 1.494851,0 h 0.634179 z m 0.883321,0 h 1.155113 z m 1.404255,0 h 1.177762 z m 1.404254,0 h 1.879888 z m 2.12903,0 h 2.446121 z m 2.672614,0 h 1.630746 z m 1.857239,0 h 0.407687 z M 7.704872,285.47422 h 2.242276 z m 2.46877,0 h 3.66918 z m 3.895671,0 h 1.789293 z m 2.015785,0 h 1.676044 z m 1.902538,0 h 1.426903 z m 1.653397,0 2.242276,-0.0137 z m 2.44612,-0.0137 h 3.646532 z M 7.704872,284.59339 h 2.649963 z m 2.944403,0 h 1.268358 z m 1.494851,0 h 0.634179 z m 0.883321,0 h 1.155113 z m 1.404255,0 h 1.177762 z m 1.404254,0 h 1.879888 z m 2.12903,0 h 2.446121 z m 2.672614,0 h 1.630746 z m 1.857239,0 h 0.407687 z M 7.704872,283.71942 h 2.808508 z m 3.05765,0 h 0.88332 z m 1.109814,0 h 2.015783 z m 2.242276,0 h 2.967053 z m 3.216195,0 h 2.015784 z m 2.219628,0 h 0.430335 z m 0.656829,0 h 2.559366 z m 2.831158,0 h 1.336307 z m -15.33355,-0.87395 h 2.808509 z m 3.05765,0 h 1.268358 z m 1.494851,0 h 1.993135 z m 2.219627,0 h 2.15168 z m 2.400823,0 h 0.860671 z m 1.087163,0 h 0.475635 z m 0.724777,0 h 1.336307 z"
         id="path999"
         style="fill:none;stroke:#4f4f4f;stroke-width:0.30000001;stroke-linecap:butt;stroke-linejoin:miter;stroke-miterlimit:4;stroke-dasharray:none;stroke-opacity:1" />
      <path
         style="fill:none;stroke:#4f4f4f;stroke-width:0.30000001;stroke-linecap:butt;stroke-linejoin:miter;stroke-miterlimit:4;stroke-dasharray:none;stroke-opacity:1"
         id="path1001"
         d="m 7.704872,266.41556 h 1.481599 z m 1.937448,0 h 1.77596 z"
         inkscape:connector-curvature="0"
         sodipodi:nodetypes="cccccc" />
    </g>
    <path
       sodipodi:nodetypes="ccccsccsc"
       inkscape:connector-curvature="0"
       id="path1355-8"
       d="m 19.751144,265.48426 c 0.01633,0.0263 0.561139,0.90462 0.727791,1.39886 0.451585,1.01234 0.25858,3.97236 0.250369,5.65885 0.02772,-0.19401 4.690513,-1.39583 7.111042,0.80464 -0.01547,-0.0273 -0.04888,-0.0804 -0.12512,-0.18628 -0.07235,-0.10046 -0.182749,-0.24915 -0.371644,-0.44224 -0.528108,-0.60452 -0.230926,-0.0845 -0.805409,-0.682 -0.496688,-0.45047 -1.569491,-1.52048 -2.867987,-2.79805 -1.241182,-1.22116 -2.686924,-2.62954 -3.919042,-3.75378 z"
       style="opacity:0.24800002;fill:#000000;fill-opacity:1;stroke:none;stroke-width:0.30000001;stroke-miterlimit:4;stroke-dasharray:none;stroke-opacity:1" />
    <path
       style="opacity:1;fill:#ffffff;fill-opacity:1;stroke:#808080;stroke-width:0.30000001;stroke-miterlimit:4;stroke-dasharray:none;stroke-opacity:1"
       d="m 19.42404,264.96145 c 0.01548,0.0249 0.53209,0.85773 0.690114,1.32635 0.428208,0.95987 0.292236,3.21802 0.28445,4.8171 0.428992,-0.0223 5.159507,-0.73701 7.328403,1.82407 -0.02928,-0.0506 -0.102779,-0.0927 -0.143771,-0.17312 -0.500768,-0.57318 -1.139582,-1.03373 -1.723521,-1.58216 -0.470975,-0.42712 -1.488241,-1.44167 -2.719516,-2.65302 -1.176928,-1.15787 -2.547826,-2.49325 -3.716159,-3.55922 z"
       id="path4753-0"
       inkscape:connector-curvature="0"
       sodipodi:nodetypes="ccccccsc" />
    <g
       style="stroke-width:4.08449793"
       inkscape:transform-center-y="-9.4924686"
       inkscape:transform-center-x="5.4653607"
       inkscape:label="Capa 1"
       id="layer1-4-3"
       transform="matrix(0.53602412,0,0,0.5372689,-234.93365,-13.785303)">
      <g
         style="stroke-width:4.08449793"
         id="layer1-3-65-9"
         inkscape:label="Capa 1"
         transform="translate(0.41988239,0.03484499)" />
    </g>
    <g
       style="stroke-width:4.08449793"
       inkscape:transform-center-y="-9.4924686"
       inkscape:transform-center-x="5.4653607"
       inkscape:label="Capa 1"
       id="layer1-4"
       transform="matrix(0.53602412,0,0,0.5372689,-234.93365,-13.7603)">
      <g
         style="stroke-width:4.08449793"
         id="layer1-3-65"
         inkscape:label="Capa 1"
         transform="translate(0.41988239,0.03484499)" />
    </g>
    <g
       id="g2004"
       transform="matrix(1.2298918,0,0,1.2298918,-49.199061,-61.00762)"
       style="stroke-width:0.81307966">
      <path
         style="opacity:0.3;fill:url(#radialGradient2490);fill-rule:evenodd;stroke-width:0.21512733"
         d="m 59.724741,287.55362 c 8.07e-4,2.03446 -4.269211,3.68388 -9.536857,3.68388 -5.267646,0 -9.53759,-1.64942 -9.536856,-3.68388 -8.07e-4,-2.03445 4.26921,-3.68387 9.536856,-3.68387 5.267646,0 9.537591,1.64942 9.536857,3.68387 z"
         id="path23417"
         inkscape:connector-curvature="0" />
      <path
         style="fill:url(#linearGradient2477);stroke:url(#linearGradient2479);stroke-width:0.21512733"
         d="m 58.616998,286.13018 c 0,1.80259 -3.777108,3.26553 -8.431314,3.26553 -4.653986,0 -8.431315,-1.46294 -8.431315,-3.26553 0.08397,-4.02972 -1.030494,-3.19761 8.431315,-3.26554 9.678442,-0.0701 8.31247,-0.83012 8.431314,3.26554 z"
         id="path4834"
         inkscape:connector-curvature="0" />
      <path
         style="fill:#868688;stroke:#d8d8d8;stroke-width:0.21512733"
         d="m 58.624334,283.13298 c 0,1.8311 -3.777108,3.31548 -8.43645,3.31548 -4.659341,0 -8.43645,-1.48438 -8.43645,-3.31548 0,-1.83111 3.777109,-3.31549 8.43645,-3.31549 4.659342,0 8.43645,1.48438 8.43645,3.31549 z"
         id="path4838"
         inkscape:connector-curvature="0" />
      <path
         style="fill:url(#linearGradient2471);stroke:url(#linearGradient2473);stroke-width:0.21512733"
         d="m 58.616998,281.70953 c 0,1.80259 -3.777108,3.26553 -8.431314,3.26553 -4.653986,0 -8.431315,-1.46294 -8.431315,-3.26553 0.08397,-4.02972 -1.030494,-3.1976 8.431315,-3.26554 9.678442,-0.0701 8.31247,-0.83012 8.431314,3.26554 z"
         id="path3866"
         inkscape:connector-curvature="0" />
      <path
         style="fill:#868688;stroke:#d8d8d8;stroke-width:0.21512733"
         d="m 58.624334,278.71233 c 0,1.8311 -3.777108,3.31548 -8.43645,3.31548 -4.659341,0 -8.43645,-1.48438 -8.43645,-3.31548 0,-1.83111 3.777109,-3.31549 8.43645,-3.31549 4.659342,0 8.43645,1.48438 8.43645,3.31549 z"
         id="path3868"
         inkscape:connector-curvature="0" />
      <path
         style="fill:url(#linearGradient2463);stroke:url(#linearGradient2466);stroke-width:0.21512733"
         d="m 58.616998,277.28888 c 0,1.80259 -3.777108,3.26553 -8.431314,3.26553 -4.653986,0 -8.431315,-1.46294 -8.431315,-3.26553 0.08397,-4.02972 -1.030494,-3.1976 8.431315,-3.26553 9.678442,-0.0701 8.31247,-0.83013 8.431314,3.26553 z"
         id="path3878"
         inkscape:connector-curvature="0" />
      <path
         style="fill:url(#linearGradient2458);stroke:url(#linearGradient2460);stroke-width:0.21512733"
         d="m 58.624334,274.29168 c 0,1.83111 -3.777108,3.31549 -8.43645,3.31549 -4.659341,0 -8.43645,-1.48438 -8.43645,-3.31549 0,-1.83111 3.777109,-3.31549 8.43645,-3.31549 4.659342,0 8.43645,1.48438 8.43645,3.31549 z"
         id="path3880"
         inkscape:connector-curvature="0" />
    </g>
  </g>
</svg>
