<?xml version="1.0" encoding="UTF-8" standalone="no"?>
<!-- Created with Inkscape (http://www.inkscape.org/) -->

<svg
   xmlns:osb="http://www.openswatchbook.org/uri/2009/osb"
   xmlns:dc="http://purl.org/dc/elements/1.1/"
   xmlns:cc="http://creativecommons.org/ns#"
   xmlns:rdf="http://www.w3.org/1999/02/22-rdf-syntax-ns#"
   xmlns:svg="http://www.w3.org/2000/svg"
   xmlns="http://www.w3.org/2000/svg"
   xmlns:xlink="http://www.w3.org/1999/xlink"
   xmlns:sodipodi="http://sodipodi.sourceforge.net/DTD/sodipodi-0.dtd"
   xmlns:inkscape="http://www.inkscape.org/namespaces/inkscape"
   width="128"
   height="128"
   viewBox="0 0 33.866666 33.866668"
   version="1.1"
   id="svg1038"
   inkscape:version="0.92.2 5c3e80d, 2017-08-06"
   sodipodi:docname="text-x-pascal.svg">
  <defs
     id="defs1032">
    <linearGradient
       osb:paint="solid"
       id="linearGradient6987">
      <stop
         id="stop6985"
         offset="0"
         style="stop-color:#77d2fb;stop-opacity:1;" />
    </linearGradient>
    <linearGradient
       id="linearGradient1830">
      <stop
         offset="0"
         style="stop-color:#d9d9d9;stop-opacity:1"
         id="stop1826" />
      <stop
         offset="1"
         style="stop-color:#ffffff;stop-opacity:1;"
         id="stop1828" />
    </linearGradient>
    <linearGradient
       inkscape:collect="always"
       xlink:href="#linearGradient1830"
       id="linearGradient2404"
       gradientUnits="userSpaceOnUse"
       gradientTransform="matrix(1.0010487,0,0,1.0010383,-0.01775749,-0.29085897)"
       x1="29.203474"
       y1="263.52237"
       x2="4.5843229"
       y2="296.16849" />
  </defs>
  <sodipodi:namedview
     id="base"
     pagecolor="#ffffff"
     bordercolor="#666666"
     borderopacity="1.0"
     inkscape:pageopacity="0.0"
     inkscape:pageshadow="2"
     inkscape:zoom="1.7030101"
     inkscape:cx="50.597935"
     inkscape:cy="68.834281"
     inkscape:document-units="mm"
     inkscape:current-layer="layer1"
     showgrid="false"
     inkscape:window-width="1600"
     inkscape:window-height="814"
     inkscape:window-x="0"
     inkscape:window-y="0"
     inkscape:window-maximized="1"
     units="px" />
  <metadata
     id="metadata1035">
    <rdf:RDF>
      <cc:Work
         rdf:about="">
        <dc:format>image/svg+xml</dc:format>
        <dc:type
           rdf:resource="http://purl.org/dc/dcmitype/StillImage" />
        <dc:title />
      </cc:Work>
    </rdf:RDF>
  </metadata>
  <g
     inkscape:label="Layer 1"
     inkscape:groupmode="layer"
     id="layer1"
     transform="translate(0,-263.13332)">
    <path
       style="opacity:0.25;fill:#000000;fill-opacity:1;stroke:none;stroke-width:1.87499988;stroke-miterlimit:4;stroke-dasharray:none;stroke-opacity:1"
       d="M 4.5713725,264.09818 V 296.7104 H 29.295294 v -18.3 c -0.04716,-0.8313 -0.101653,-1.57532 -0.312496,-2.32966 -0.21448,-0.76736 -0.552469,-1.49394 -0.956412,-2.18925 -0.516871,-0.8897 -1.39035,-1.46334 -2.166671,-2.19248 -0.47098,-0.42711 -1.488209,-1.44169 -2.719481,-2.65304 -1.221196,-1.20143 -2.653456,-2.59692 -3.849171,-3.68107 -0.35316,-0.3187 -0.866164,-0.64943 -1.342771,-0.84044 -0.370088,-0.14831 -0.80547,-0.24063 -1.22583,-0.30267 -0.433449,-0.064 -0.850926,-0.0958 -1.164384,-0.12361 z"
       id="path5023-3"
       inkscape:connector-curvature="0"
       sodipodi:nodetypes="ccccascscsscc" />
    <path
       sodipodi:nodetypes="ccccascscsscc"
       inkscape:connector-curvature="0"
       id="path4623-8-9"
       d="m 4.5713725,263.5729 v 32.61222 H 29.295294 v -18.3 c -0.04716,-0.83129 -0.101653,-1.57532 -0.312496,-2.32966 -0.21448,-0.76736 -0.552469,-1.49394 -0.956412,-2.18925 -0.516871,-0.88969 -1.39035,-1.46334 -2.166671,-2.19247 -0.47098,-0.42712 -1.488209,-1.4417 -2.719481,-2.65305 -1.221196,-1.20142 -2.653456,-2.59692 -3.849171,-3.68107 -0.35316,-0.3187 -0.866164,-0.64944 -1.342771,-0.84044 -0.370088,-0.14831 -0.80547,-0.24063 -1.22583,-0.30267 -0.433449,-0.064 -0.850926,-0.0958 -1.164384,-0.12361 z"
       style="opacity:1;fill:url(#linearGradient2404);fill-opacity:1;stroke:#808080;stroke-width:0.30000001;stroke-miterlimit:4;stroke-dasharray:none;stroke-opacity:1" />
    <g
       transform="matrix(0.24645432,0,0,0.24790302,-0.76435578,225.25473)"
       style="font-style:normal;font-weight:normal;font-size:10.58333302px;line-height:125%;font-family:sans-serif;letter-spacing:0px;word-spacing:0px;fill:#4d4d4d;fill-opacity:1;stroke:none;stroke-width:4.04567385px;stroke-linecap:butt;stroke-linejoin:miter;stroke-opacity:1"
       id="flowRoot4678">
      <path
         inkscape:connector-curvature="0"
         d="m 34.253906,181.02866 q 0,-0.48221 -0.226219,-0.74414 -0.226218,-0.2679 -0.589359,-0.2679 -0.202406,0 -0.321469,0.0179 -0.113109,0.0179 -0.178593,0.0417 v 1.74426 q 0.08334,0.0774 0.244078,0.14288 0.160734,0.0655 0.333375,0.0655 0.196453,0 0.333375,-0.0774 0.142875,-0.0774 0.232171,-0.20836 0.0893,-0.13692 0.130969,-0.31551 0.04167,-0.18455 0.04167,-0.39886 z m 0.506016,0 q 0,0.31551 -0.08334,0.5834 -0.07739,0.26194 -0.232172,0.45244 -0.148828,0.1905 -0.369094,0.29766 -0.220265,0.10715 -0.500062,0.10715 -0.220266,0 -0.386953,-0.0536 -0.166688,-0.0536 -0.250031,-0.11906 v 1.08942 h -0.49411 v -3.66117 q 0.160735,-0.0476 0.410766,-0.0952 0.255984,-0.0476 0.583406,-0.0476 0.297656,0 0.541734,0.1012 0.244078,0.1012 0.416719,0.2917 0.172641,0.18455 0.267891,0.45244 0.09525,0.26789 0.09525,0.60127 z"
         style="font-style:normal;font-variant:normal;font-weight:normal;font-stretch:normal;font-size:5.95312452px;line-height:150%;font-family:'Ubuntu Mono';-inkscape-font-specification:'Ubuntu Mono';fill:#4d4d4d;fill-opacity:1;stroke-width:4.04567385px"
         id="path4513" />
      <path
         inkscape:connector-curvature="0"
         d="m 35.635031,182.40383 v -2.61342 q 0.607219,-0.20836 1.226344,-0.20836 0.1905,0 0.36314,0.0179 0.172641,0.0119 0.381,0.0595 l -0.0893,0.43458 q -0.1905,-0.0536 -0.339328,-0.0655 -0.142875,-0.0179 -0.315515,-0.0179 -0.363141,0 -0.738188,0.1012 v 2.29196 h -0.488156 z"
         style="font-style:normal;font-variant:normal;font-weight:normal;font-stretch:normal;font-size:5.95312452px;line-height:150%;font-family:'Ubuntu Mono';-inkscape-font-specification:'Ubuntu Mono';fill:#4d4d4d;fill-opacity:1;stroke-width:4.04567385px"
         id="path4515" />
      <path
         inkscape:connector-curvature="0"
         d="m 40.713046,181.0227 q 0,0.32742 -0.09525,0.59532 -0.0893,0.26193 -0.255984,0.45243 -0.166688,0.1905 -0.39886,0.29766 -0.232171,0.1012 -0.506015,0.1012 -0.267891,0 -0.500063,-0.1012 -0.226218,-0.10716 -0.392906,-0.29766 -0.166687,-0.1905 -0.261937,-0.45243 -0.0893,-0.2679 -0.0893,-0.59532 0,-0.32742 0.0893,-0.59531 0.09525,-0.26789 0.261937,-0.45244 0.166688,-0.1905 0.392906,-0.2917 0.232172,-0.10716 0.500063,-0.10716 0.273844,0 0.506015,0.10716 0.232172,0.1012 0.39886,0.2917 0.166687,0.18455 0.255984,0.45244 0.09525,0.26789 0.09525,0.59531 z m -0.506015,0 q 0,-0.47029 -0.202407,-0.73818 -0.202406,-0.27385 -0.547687,-0.27385 -0.339328,0 -0.541734,0.27385 -0.196454,0.26789 -0.196454,0.73818 0,0.46435 0.196454,0.73819 0.202406,0.26789 0.541734,0.26789 0.345281,0 0.547687,-0.26789 0.202407,-0.27384 0.202407,-0.73819 z"
         style="font-style:normal;font-variant:normal;font-weight:normal;font-stretch:normal;font-size:5.95312452px;line-height:150%;font-family:'Ubuntu Mono';-inkscape-font-specification:'Ubuntu Mono';fill:#4d4d4d;fill-opacity:1;stroke-width:4.04567385px"
         id="path4517" />
      <path
         inkscape:connector-curvature="0"
         d="m 43.010952,182.14784 q -0.08334,0.0476 -0.255984,0.10121 -0.172641,0.0536 -0.39886,0.0536 -0.244078,0 -0.45839,-0.0774 -0.20836,-0.0833 -0.369094,-0.24407 -0.154781,-0.16669 -0.250031,-0.41672 -0.0893,-0.25599 -0.0893,-0.60127 0,-0.30361 0.08334,-0.55364 0.0893,-0.25598 0.250031,-0.44053 0.166687,-0.18455 0.404812,-0.28575 0.238125,-0.10716 0.541735,-0.10716 0.357187,0 0.607218,0.0536 0.255985,0.0476 0.428625,0.0952 v 2.4646 q 0,0.64293 -0.327422,0.92868 -0.321468,0.28575 -0.976312,0.28575 -0.267891,0 -0.488156,-0.0417 -0.214313,-0.0417 -0.381,-0.1012 l 0.0893,-0.43458 q 0.154781,0.0655 0.351234,0.10716 0.202406,0.0417 0.440531,0.0417 0.428625,0 0.613172,-0.17264 0.184547,-0.17264 0.184547,-0.5596 v -0.0952 z m 0,-2.07168 q -0.07144,-0.0238 -0.196453,-0.0417 -0.125016,-0.0238 -0.339328,-0.0238 -0.381,0 -0.583406,0.26194 -0.196454,0.26194 -0.196454,0.69651 0,0.23813 0.05358,0.41077 0.05953,0.16669 0.154781,0.2798 0.101203,0.10715 0.226219,0.16073 0.125015,0.0476 0.26789,0.0476 0.184547,0 0.345281,-0.0536 0.166688,-0.0536 0.267891,-0.12502 v -1.61329 z"
         style="font-style:normal;font-variant:normal;font-weight:normal;font-stretch:normal;font-size:5.95312452px;line-height:150%;font-family:'Ubuntu Mono';-inkscape-font-specification:'Ubuntu Mono';fill:#4d4d4d;fill-opacity:1;stroke-width:4.04567385px"
         id="path4519" />
      <path
         inkscape:connector-curvature="0"
         d="m 44.564718,182.40383 v -2.61342 q 0.607218,-0.20836 1.226343,-0.20836 0.1905,0 0.363141,0.0179 0.172641,0.0119 0.381,0.0595 l -0.0893,0.43458 q -0.1905,-0.0536 -0.339328,-0.0655 -0.142875,-0.0179 -0.315516,-0.0179 -0.36314,0 -0.738187,0.1012 v 2.29196 h -0.488156 z"
         style="font-style:normal;font-variant:normal;font-weight:normal;font-stretch:normal;font-size:5.95312452px;line-height:150%;font-family:'Ubuntu Mono';-inkscape-font-specification:'Ubuntu Mono';fill:#4d4d4d;fill-opacity:1;stroke-width:4.04567385px"
         id="path4521" />
      <path
         inkscape:connector-curvature="0"
         d="m 48.422343,182.05259 q 0.184547,0 0.327422,-0.0119 0.148828,-0.0119 0.244078,-0.0298 v -0.82153 q -0.09525,-0.0298 -0.232172,-0.0476 -0.130969,-0.0179 -0.279797,-0.0179 -0.136922,0 -0.267891,0.0238 -0.130968,0.0179 -0.232172,0.0714 -0.101203,0.0536 -0.166687,0.14287 -0.06548,0.0833 -0.06548,0.21431 0,0.26789 0.178593,0.37505 0.184547,0.1012 0.49411,0.1012 z m -0.04762,-2.4765 q 0.309562,0 0.517922,0.0774 0.214312,0.0774 0.345281,0.21432 0.130968,0.13692 0.184547,0.33337 0.05358,0.19645 0.05358,0.42863 v 1.7264 q -0.172641,0.0298 -0.458391,0.0714 -0.279797,0.0417 -0.577453,0.0417 -0.226219,0 -0.440531,-0.0417 -0.214313,-0.0357 -0.381,-0.13097 -0.166688,-0.1012 -0.267891,-0.27384 -0.101203,-0.17264 -0.101203,-0.44053 0,-0.23813 0.101203,-0.39886 0.107157,-0.16669 0.267891,-0.26789 0.166687,-0.10121 0.375047,-0.14288 0.214312,-0.0476 0.428625,-0.0476 0.291703,0 0.5715,0.0655 v -0.13692 q 0,-0.12502 -0.02977,-0.23813 -0.02381,-0.11906 -0.101203,-0.21431 -0.07144,-0.0952 -0.202406,-0.14883 -0.125016,-0.0595 -0.327422,-0.0595 -0.255985,0 -0.446485,0.0357 -0.1905,0.0357 -0.291703,0.0714 l -0.05953,-0.40481 q 0.101203,-0.0476 0.333375,-0.0833 0.238125,-0.0357 0.506016,-0.0357 z"
         style="font-style:normal;font-variant:normal;font-weight:normal;font-stretch:normal;font-size:5.95312452px;line-height:150%;font-family:'Ubuntu Mono';-inkscape-font-specification:'Ubuntu Mono';fill:#4d4d4d;fill-opacity:1;stroke-width:4.04567385px"
         id="path4523" />
      <path
         inkscape:connector-curvature="0"
         d="m 50.124936,179.71897 q 0.357187,-0.13692 0.672703,-0.13692 0.17264,0 0.321468,0.0536 0.154782,0.0476 0.261938,0.15479 0.255984,-0.20836 0.547687,-0.20836 0.142875,0 0.267891,0.0536 0.130969,0.0536 0.226219,0.16074 0.101203,0.10716 0.160734,0.26789 0.05953,0.16073 0.05953,0.37505 v 1.96453 h -0.446484 v -1.97644 q 0,-0.21431 -0.09525,-0.32742 -0.09525,-0.11311 -0.238125,-0.11311 -0.07144,0 -0.148828,0.0357 -0.07739,0.0357 -0.142875,0.11311 0.03572,0.13692 0.03572,0.30361 v 0.89892 h -0.446485 v -0.90488 q 0,-0.20836 -0.06548,-0.32742 -0.06548,-0.11906 -0.255984,-0.11906 -0.119063,0 -0.267891,0.0536 v 2.36339 H 50.12494 v -2.68486 z"
         style="font-style:normal;font-variant:normal;font-weight:normal;font-stretch:normal;font-size:5.95312452px;line-height:150%;font-family:'Ubuntu Mono';-inkscape-font-specification:'Ubuntu Mono';fill:#4d4d4d;fill-opacity:1;stroke-width:4.04567385px"
         id="path4525" />
      <path
         inkscape:connector-curvature="0"
         d="m 58.054498,178.71884 h 0.488156 v 3.68499 h -0.488156 v -1.7145 h -1.464469 v 1.7145 h -0.488156 v -3.68499 h 0.488156 v 1.55377 h 1.464469 z"
         style="font-style:normal;font-variant:normal;font-weight:normal;font-stretch:normal;font-size:5.95312452px;line-height:150%;font-family:'Ubuntu Mono';-inkscape-font-specification:'Ubuntu Mono';fill:#4d4d4d;fill-opacity:1;stroke-width:4.04567385px"
         id="path4527" />
      <path
         inkscape:connector-curvature="0"
         d="m 60.352404,179.57609 q 0.559594,0 0.863203,0.35124 0.30361,0.34528 0.30361,1.0537 v 0.17264 h -1.976438 q 0.02977,0.42863 0.279797,0.65485 0.255984,0.22026 0.714375,0.22026 0.261938,0 0.446484,-0.0417 0.184547,-0.0417 0.279797,-0.0893 l 0.06548,0.41672 q -0.0893,0.0476 -0.321469,0.1012 -0.232172,0.0536 -0.523875,0.0536 -0.357188,0 -0.631031,-0.10715 -0.267891,-0.11311 -0.446485,-0.30361 -0.178593,-0.1905 -0.26789,-0.45244 -0.0893,-0.26789 -0.0893,-0.57745 0,-0.3691 0.113109,-0.64294 0.11311,-0.27385 0.297657,-0.45244 0.184546,-0.17859 0.416718,-0.26789 0.232172,-0.0893 0.47625,-0.0893 z m 0.66675,1.17872 q 0,-0.35123 -0.184547,-0.55364 -0.184547,-0.20836 -0.488156,-0.20836 -0.172641,0 -0.315516,0.0655 -0.136921,0.0655 -0.238124,0.17264 -0.101204,0.10715 -0.160735,0.24408 -0.05953,0.13692 -0.07739,0.27979 h 1.464468 z"
         style="font-style:normal;font-variant:normal;font-weight:normal;font-stretch:normal;font-size:5.95312452px;line-height:150%;font-family:'Ubuntu Mono';-inkscape-font-specification:'Ubuntu Mono';fill:#4d4d4d;fill-opacity:1;stroke-width:4.04567385px"
         id="path4529" />
      <path
         inkscape:connector-curvature="0"
         d="m 63.799264,182.46931 q -0.261938,0 -0.434579,-0.0714 -0.17264,-0.0714 -0.273843,-0.21431 -0.101203,-0.14287 -0.142875,-0.35123 -0.04167,-0.21431 -0.04167,-0.49411 v -2.61342 h -0.797719 v -0.41672 h 1.285875 v 3.03014 q 0,0.20836 0.02381,0.33933 0.02976,0.13097 0.08334,0.21431 0.05953,0.0774 0.142875,0.10716 0.08334,0.0298 0.196453,0.0298 0.172641,0 0.321469,-0.0417 0.148828,-0.0417 0.232172,-0.0893 l 0.07144,0.41672 q -0.03572,0.0179 -0.101204,0.0476 -0.06548,0.0238 -0.154781,0.0476 -0.0893,0.0238 -0.196453,0.0417 -0.101203,0.0179 -0.214312,0.0179 z"
         style="font-style:normal;font-variant:normal;font-weight:normal;font-stretch:normal;font-size:5.95312452px;line-height:150%;font-family:'Ubuntu Mono';-inkscape-font-specification:'Ubuntu Mono';fill:#4d4d4d;fill-opacity:1;stroke-width:4.04567385px"
         id="path4531" />
      <path
         inkscape:connector-curvature="0"
         d="m 66.775824,182.46931 q -0.261937,0 -0.434578,-0.0714 -0.172641,-0.0714 -0.273844,-0.21431 -0.101203,-0.14287 -0.142875,-0.35123 -0.04167,-0.21431 -0.04167,-0.49411 v -2.61342 h -0.797718 v -0.41672 h 1.285875 v 3.03014 q 0,0.20836 0.02381,0.33933 0.02977,0.13097 0.08334,0.21431 0.05953,0.0774 0.142875,0.10716 0.08334,0.0298 0.196453,0.0298 0.172641,0 0.321469,-0.0417 0.148828,-0.0417 0.232172,-0.0893 l 0.07144,0.41672 q -0.03572,0.0179 -0.101203,0.0476 -0.06548,0.0238 -0.154781,0.0476 -0.0893,0.0238 -0.196453,0.0417 -0.101203,0.0179 -0.214313,0.0179 z"
         style="font-style:normal;font-variant:normal;font-weight:normal;font-stretch:normal;font-size:5.95312452px;line-height:150%;font-family:'Ubuntu Mono';-inkscape-font-specification:'Ubuntu Mono';fill:#4d4d4d;fill-opacity:1;stroke-width:4.04567385px"
         id="path4533" />
      <path
         inkscape:connector-curvature="0"
         d="m 70.478668,181.0227 q 0,0.32742 -0.09525,0.59532 -0.0893,0.26193 -0.255985,0.45243 -0.166687,0.1905 -0.398859,0.29766 -0.232172,0.1012 -0.506015,0.1012 -0.267891,0 -0.500063,-0.1012 -0.226219,-0.10716 -0.392906,-0.29766 -0.166688,-0.1905 -0.261938,-0.45243 -0.0893,-0.2679 -0.0893,-0.59532 0,-0.32742 0.0893,-0.59531 0.09525,-0.26789 0.261938,-0.45244 0.166687,-0.1905 0.392906,-0.2917 0.232172,-0.10716 0.500063,-0.10716 0.273843,0 0.506015,0.10716 0.232172,0.1012 0.398859,0.2917 0.166688,0.18455 0.255985,0.45244 0.09525,0.26789 0.09525,0.59531 z m -0.506016,0 q 0,-0.47029 -0.202406,-0.73818 -0.202406,-0.27385 -0.547687,-0.27385 -0.339329,0 -0.541735,0.27385 -0.196453,0.26789 -0.196453,0.73818 0,0.46435 0.196453,0.73819 0.202406,0.26789 0.541735,0.26789 0.345281,0 0.547687,-0.26789 0.202406,-0.27384 0.202406,-0.73819 z"
         style="font-style:normal;font-variant:normal;font-weight:normal;font-stretch:normal;font-size:5.95312452px;line-height:150%;font-family:'Ubuntu Mono';-inkscape-font-specification:'Ubuntu Mono';fill:#4d4d4d;fill-opacity:1;stroke-width:4.04567385px"
         id="path4535" />
      <path
         inkscape:connector-curvature="0"
         d="m 71.627621,182.40383 h -0.45839 q -0.05358,-0.36314 -0.09525,-0.79772 -0.03572,-0.44053 -0.07144,-0.91678 -0.02977,-0.47625 -0.05358,-0.97631 -0.02381,-0.50007 -0.04167,-0.99418 h 0.47625 l 0.06548,3.07777 0.535782,-1.67878 h 0.428625 l 0.547687,1.67878 0.06548,-3.07777 h 0.47625 q -0.01786,0.50007 -0.04762,1.00013 -0.02381,0.50006 -0.05953,0.97631 -0.03572,0.4703 -0.07739,0.90488 -0.04167,0.43457 -0.0893,0.80367 h -0.452438 l -0.577453,-1.83356 -0.5715,1.83356 z"
         style="font-style:normal;font-variant:normal;font-weight:normal;font-stretch:normal;font-size:5.95312452px;line-height:150%;font-family:'Ubuntu Mono';-inkscape-font-specification:'Ubuntu Mono';fill:#4d4d4d;fill-opacity:1;stroke-width:4.04567385px"
         id="path4537" />
      <path
         inkscape:connector-curvature="0"
         d="m 76.431793,181.0227 q 0,0.32742 -0.09525,0.59532 -0.0893,0.26193 -0.255985,0.45243 -0.166687,0.1905 -0.398859,0.29766 -0.232172,0.1012 -0.506015,0.1012 -0.267891,0 -0.500063,-0.1012 -0.226219,-0.10716 -0.392906,-0.29766 -0.166688,-0.1905 -0.261938,-0.45243 -0.0893,-0.2679 -0.0893,-0.59532 0,-0.32742 0.0893,-0.59531 0.09525,-0.26789 0.261938,-0.45244 0.166687,-0.1905 0.392906,-0.2917 0.232172,-0.10716 0.500063,-0.10716 0.273843,0 0.506015,0.10716 0.232172,0.1012 0.398859,0.2917 0.166688,0.18455 0.255985,0.45244 0.09525,0.26789 0.09525,0.59531 z m -0.506016,0 q 0,-0.47029 -0.202406,-0.73818 -0.202406,-0.27385 -0.547687,-0.27385 -0.339329,0 -0.541735,0.27385 -0.196453,0.26789 -0.196453,0.73818 0,0.46435 0.196453,0.73819 0.202406,0.26789 0.541735,0.26789 0.345281,0 0.547687,-0.26789 0.202406,-0.27384 0.202406,-0.73819 z"
         style="font-style:normal;font-variant:normal;font-weight:normal;font-stretch:normal;font-size:5.95312452px;line-height:150%;font-family:'Ubuntu Mono';-inkscape-font-specification:'Ubuntu Mono';fill:#4d4d4d;fill-opacity:1;stroke-width:4.04567385px"
         id="path4539" />
      <path
         inkscape:connector-curvature="0"
         d="m 77.306902,182.40383 v -2.61342 q 0.607219,-0.20836 1.226344,-0.20836 0.1905,0 0.363141,0.0179 0.17264,0.0119 0.381,0.0595 l -0.0893,0.43458 q -0.1905,-0.0536 -0.339328,-0.0655 -0.142875,-0.0179 -0.315516,-0.0179 -0.363141,0 -0.738187,0.1012 v 2.29196 h -0.488157 z"
         style="font-style:normal;font-variant:normal;font-weight:normal;font-stretch:normal;font-size:5.95312452px;line-height:150%;font-family:'Ubuntu Mono';-inkscape-font-specification:'Ubuntu Mono';fill:#4d4d4d;fill-opacity:1;stroke-width:4.04567385px"
         id="path4541" />
      <path
         inkscape:connector-curvature="0"
         d="m 81.658637,182.46931 q -0.261938,0 -0.434578,-0.0714 -0.172641,-0.0714 -0.273844,-0.21431 -0.101203,-0.14287 -0.142875,-0.35123 -0.04167,-0.21431 -0.04167,-0.49411 v -2.61342 h -0.797719 v -0.41672 h 1.285875 v 3.03014 q 0,0.20836 0.02381,0.33933 0.02976,0.13097 0.08334,0.21431 0.05953,0.0774 0.142875,0.10716 0.08334,0.0298 0.196454,0.0298 0.17264,0 0.321468,-0.0417 0.148828,-0.0417 0.232172,-0.0893 l 0.07144,0.41672 q -0.03572,0.0179 -0.101204,0.0476 -0.06548,0.0238 -0.154781,0.0476 -0.0893,0.0238 -0.196453,0.0417 -0.101203,0.0179 -0.214312,0.0179 z"
         style="font-style:normal;font-variant:normal;font-weight:normal;font-stretch:normal;font-size:5.95312452px;line-height:150%;font-family:'Ubuntu Mono';-inkscape-font-specification:'Ubuntu Mono';fill:#4d4d4d;fill-opacity:1;stroke-width:4.04567385px"
         id="path4543" />
      <path
         inkscape:connector-curvature="0"
         d="m 84.682824,180.22498 q -0.08334,-0.0774 -0.244078,-0.14287 -0.160734,-0.0714 -0.333375,-0.0714 -0.196453,0 -0.339328,0.0774 -0.136922,0.0774 -0.226219,0.21431 -0.0893,0.13097 -0.130969,0.32147 -0.04167,0.18455 -0.04167,0.39886 0,0.48221 0.226218,0.74414 0.226219,0.26194 0.58936,0.26194 0.184547,0 0.309562,-0.0179 0.130969,-0.0179 0.1905,-0.0357 v -1.75022 z m 0,-1.86332 0.494109,-0.0833 v 4.04813 q -0.160734,0.0476 -0.410765,0.0953 -0.250031,0.0476 -0.583406,0.0476 -0.297657,0 -0.541735,-0.1012 -0.244078,-0.1012 -0.416718,-0.28575 -0.172641,-0.1905 -0.267891,-0.45839 -0.09525,-0.26789 -0.09525,-0.60127 0,-0.32147 0.07739,-0.5834 0.08334,-0.26789 0.238125,-0.45839 0.154781,-0.1905 0.369093,-0.29766 0.220266,-0.10716 0.500063,-0.10716 0.220265,0 0.386953,0.0536 0.166687,0.0536 0.250031,0.11311 v -1.38112 z"
         style="font-style:normal;font-variant:normal;font-weight:normal;font-stretch:normal;font-size:5.95312452px;line-height:150%;font-family:'Ubuntu Mono';-inkscape-font-specification:'Ubuntu Mono';fill:#4d4d4d;fill-opacity:1;stroke-width:4.04567385px"
         id="path4545" />
      <path
         inkscape:connector-curvature="0"
         d="m 86.343746,182.87412 q 0.107156,-0.0238 0.208359,-0.0476 0.107157,-0.0238 0.196454,-0.0714 0.0893,-0.0417 0.160734,-0.11311 0.07144,-0.0655 0.113109,-0.18454 -0.1905,-0.0179 -0.279797,-0.14288 -0.08334,-0.13097 -0.08334,-0.25598 0,-0.23813 0.130968,-0.35719 0.136922,-0.12502 0.309563,-0.12502 0.220266,0 0.333375,0.16074 0.113109,0.15478 0.113109,0.381 0,0.17264 -0.07144,0.35719 -0.06548,0.1905 -0.20836,0.35123 -0.136921,0.16669 -0.345281,0.2798 -0.208359,0.11906 -0.494109,0.15478 l -0.08334,-0.38696 z m 1.184672,-2.77415 q 0,0.17859 -0.119063,0.31551 -0.119062,0.13693 -0.315515,0.13693 -0.202406,0 -0.321469,-0.13693 -0.119062,-0.13692 -0.119062,-0.31551 0,-0.18455 0.119062,-0.32147 0.119063,-0.13692 0.321469,-0.13692 0.196453,0 0.315515,0.13692 0.119063,0.13692 0.119063,0.32147 z"
         style="font-style:normal;font-variant:normal;font-weight:normal;font-stretch:normal;font-size:5.95312452px;line-height:150%;font-family:'Ubuntu Mono';-inkscape-font-specification:'Ubuntu Mono';fill:#4d4d4d;fill-opacity:1;stroke-width:4.04567385px"
         id="path4547" />
      <path
         inkscape:connector-curvature="0"
         d="m 32.938266,188.67247 q 0.0893,-0.0536 0.255984,-0.10716 0.172641,-0.0595 0.381,-0.0595 0.279797,0 0.500062,0.10716 0.220266,0.10715 0.369094,0.29765 0.154781,0.1905 0.232172,0.45839 0.08334,0.26194 0.08334,0.58341 0,0.33338 -0.09525,0.60127 -0.09525,0.26789 -0.267891,0.45839 -0.172641,0.18454 -0.416719,0.28575 -0.244078,0.1012 -0.541734,0.1012 -0.327422,0 -0.583406,-0.0476 -0.255985,-0.0476 -0.410766,-0.0952 v -3.96478 l 0.49411,-0.0833 v 1.46447 z m 0,2.23242 q 0.113109,0.0298 0.226218,0.0476 0.11311,0.0119 0.214313,0.0119 0.410765,0 0.642937,-0.25003 0.232172,-0.25598 0.232172,-0.762 0,-0.21431 -0.04167,-0.39886 -0.04167,-0.1905 -0.130969,-0.32147 -0.0893,-0.13692 -0.232171,-0.21431 -0.136922,-0.0774 -0.333375,-0.0774 -0.172641,0 -0.333375,0.0714 -0.160735,0.0655 -0.244078,0.14287 v 1.75022 z"
         style="font-style:normal;font-variant:normal;font-weight:normal;font-stretch:normal;font-size:5.95312452px;line-height:150%;font-family:'Ubuntu Mono';-inkscape-font-specification:'Ubuntu Mono';fill:#4d4d4d;fill-opacity:1;stroke-width:4.04567385px"
         id="path4549" />
      <path
         inkscape:connector-curvature="0"
         d="m 36.539906,188.50578 q 0.559594,0 0.863203,0.35124 0.303609,0.34528 0.303609,1.0537 v 0.17264 h -1.976437 q 0.02977,0.42862 0.279797,0.65484 0.255984,0.22027 0.714375,0.22027 0.261937,0 0.446484,-0.0417 0.184547,-0.0417 0.279797,-0.0893 l 0.06548,0.41672 q -0.0893,0.0476 -0.321468,0.1012 -0.232172,0.0536 -0.523875,0.0536 -0.357188,0 -0.631032,-0.10716 -0.26789,-0.11311 -0.446484,-0.30361 -0.178594,-0.1905 -0.267891,-0.45243 -0.0893,-0.26789 -0.0893,-0.57746 0,-0.36909 0.113109,-0.64293 0.113109,-0.27385 0.297656,-0.45244 0.184547,-0.1786 0.416719,-0.26789 0.232172,-0.0893 0.47625,-0.0893 z m 0.66675,1.17872 q 0,-0.35123 -0.184547,-0.55364 -0.184547,-0.20836 -0.488156,-0.20836 -0.172641,0 -0.315516,0.0655 -0.136922,0.0655 -0.238125,0.17264 -0.101203,0.10716 -0.160734,0.24408 -0.05953,0.13692 -0.07739,0.2798 h 1.464469 z"
         style="font-style:normal;font-variant:normal;font-weight:normal;font-stretch:normal;font-size:5.95312452px;line-height:150%;font-family:'Ubuntu Mono';-inkscape-font-specification:'Ubuntu Mono';fill:#4d4d4d;fill-opacity:1;stroke-width:4.04567385px"
         id="path4551" />
      <path
         inkscape:connector-curvature="0"
         d="m 40.03439,191.07753 q -0.08334,0.0476 -0.255984,0.1012 -0.172641,0.0536 -0.39886,0.0536 -0.244078,0 -0.45839,-0.0774 -0.20836,-0.0833 -0.369094,-0.24408 -0.154781,-0.16668 -0.250031,-0.41672 -0.0893,-0.25598 -0.0893,-0.60126 0,-0.30361 0.08334,-0.55364 0.0893,-0.25599 0.250031,-0.44053 0.166687,-0.18455 0.404812,-0.28575 0.238125,-0.10716 0.541735,-0.10716 0.357187,0 0.607218,0.0536 0.255985,0.0476 0.428625,0.0952 v 2.46459 q 0,0.64294 -0.327422,0.92869 -0.321468,0.28575 -0.976312,0.28575 -0.267891,0 -0.488156,-0.0417 -0.214313,-0.0417 -0.381,-0.10121 l 0.0893,-0.43457 q 0.154781,0.0655 0.351234,0.10715 0.202406,0.0417 0.440531,0.0417 0.428625,0 0.613172,-0.17264 0.184547,-0.17264 0.184547,-0.55959 v -0.0952 z m 0,-2.07169 q -0.07144,-0.0238 -0.196453,-0.0417 -0.125016,-0.0238 -0.339328,-0.0238 -0.381,0 -0.583406,0.26194 -0.196454,0.26193 -0.196454,0.69651 0,0.23813 0.05358,0.41077 0.05953,0.16669 0.154781,0.27979 0.101203,0.10716 0.226219,0.16074 0.125015,0.0476 0.26789,0.0476 0.184547,0 0.345281,-0.0536 0.166688,-0.0536 0.267891,-0.12502 v -1.6133 z"
         style="font-style:normal;font-variant:normal;font-weight:normal;font-stretch:normal;font-size:5.95312452px;line-height:150%;font-family:'Ubuntu Mono';-inkscape-font-specification:'Ubuntu Mono';fill:#4d4d4d;fill-opacity:1;stroke-width:4.04567385px"
         id="path4553" />
      <path
         inkscape:connector-curvature="0"
         d="m 42.195374,188.14264 q -0.154781,0 -0.267891,-0.10716 -0.113109,-0.10715 -0.113109,-0.2917 0,-0.18455 0.113109,-0.2917 0.11311,-0.10716 0.267891,-0.10716 0.160734,0 0.267891,0.10716 0.113109,0.10715 0.113109,0.2917 0,0.18455 -0.113109,0.2917 -0.107157,0.10716 -0.267891,0.10716 z m -0.125016,0.83939 H 41.27264 v -0.41076 h 1.285875 v 1.69664 q 0,0.41076 0.113109,0.55364 0.113109,0.13692 0.339328,0.13692 0.172641,0 0.315516,-0.0417 0.148828,-0.0417 0.232171,-0.0893 l 0.07144,0.41672 q -0.03572,0.0179 -0.101203,0.0476 -0.06549,0.0238 -0.154781,0.0476 -0.08334,0.0238 -0.1905,0.0417 -0.101203,0.0179 -0.214313,0.0179 -0.261937,0 -0.434578,-0.0714 -0.172641,-0.0714 -0.279797,-0.21431 -0.101203,-0.14288 -0.142875,-0.35123 -0.04167,-0.21432 -0.04167,-0.49411 v -1.28588 z"
         style="font-style:normal;font-variant:normal;font-weight:normal;font-stretch:normal;font-size:5.95312452px;line-height:150%;font-family:'Ubuntu Mono';-inkscape-font-specification:'Ubuntu Mono';fill:#4d4d4d;fill-opacity:1;stroke-width:4.04567385px"
         id="path4555" />
      <path
         inkscape:connector-curvature="0"
         d="m 44.350405,188.64866 q 0.267891,-0.0655 0.529828,-0.10121 0.267891,-0.0357 0.500063,-0.0357 0.55364,0 0.833437,0.28575 0.28575,0.28575 0.28575,0.91679 v 1.61925 h -0.488156 v -1.52996 q 0,-0.26789 -0.04763,-0.43458 -0.04762,-0.16668 -0.136922,-0.25598 -0.08334,-0.0952 -0.208359,-0.13097 -0.119063,-0.0357 -0.261938,-0.0357 -0.119062,0 -0.255984,0.0179 -0.130969,0.0119 -0.255984,0.0357 v 2.33363 H 44.3504 v -2.68486 z"
         style="font-style:normal;font-variant:normal;font-weight:normal;font-stretch:normal;font-size:5.95312452px;line-height:150%;font-family:'Ubuntu Mono';-inkscape-font-specification:'Ubuntu Mono';fill:#4d4d4d;fill-opacity:1;stroke-width:4.04567385px"
         id="path4557" />
      <path
         inkscape:connector-curvature="0"
         d="m 44.838561,200.2632 h -0.45839 q -0.05358,-0.36314 -0.09525,-0.79772 -0.03572,-0.44053 -0.07144,-0.91678 -0.02976,-0.47625 -0.05358,-0.97631 -0.02381,-0.50006 -0.04167,-0.99417 h 0.47625 l 0.06549,3.07776 0.535781,-1.67878 h 0.428625 l 0.547687,1.67878 0.06549,-3.07776 h 0.47625 q -0.01786,0.50006 -0.04763,1.00012 -0.02381,0.50007 -0.05953,0.97632 -0.03572,0.47029 -0.07739,0.90487 -0.04167,0.43458 -0.0893,0.80367 h -0.452437 l -0.577454,-1.83356 -0.5715,1.83356 z"
         style="font-style:normal;font-variant:normal;font-weight:normal;font-stretch:normal;font-size:5.95312452px;line-height:150%;font-family:'Ubuntu Mono';-inkscape-font-specification:'Ubuntu Mono';fill:#4d4d4d;fill-opacity:1;stroke-width:4.04567385px"
         id="path4559" />
      <path
         inkscape:connector-curvature="0"
         d="m 47.54128,200.2632 v -2.61342 q 0.607219,-0.20836 1.226344,-0.20836 0.1905,0 0.36314,0.0179 0.172641,0.0119 0.381,0.0595 l -0.0893,0.43458 q -0.1905,-0.0536 -0.339329,-0.0655 -0.142874,-0.0179 -0.315515,-0.0179 -0.363141,0 -0.738188,0.1012 v 2.29195 h -0.488156 z"
         style="font-style:normal;font-variant:normal;font-weight:normal;font-stretch:normal;font-size:5.95312452px;line-height:150%;font-family:'Ubuntu Mono';-inkscape-font-specification:'Ubuntu Mono';fill:#4d4d4d;fill-opacity:1;stroke-width:4.04567385px"
         id="path4561" />
      <path
         inkscape:connector-curvature="0"
         d="m 51.12506,197.07233 q -0.154781,0 -0.26789,-0.10716 -0.113109,-0.10715 -0.113109,-0.2917 0,-0.18455 0.113109,-0.2917 0.113109,-0.10716 0.26789,-0.10716 0.160735,0 0.267891,0.10716 0.113109,0.10715 0.113109,0.2917 0,0.18455 -0.113109,0.2917 -0.107156,0.10716 -0.267891,0.10716 z m -0.125015,0.83939 h -0.797719 v -0.41077 h 1.285875 v 1.69664 q 0,0.41077 0.113109,0.55364 0.11311,0.13693 0.339329,0.13693 0.17264,0 0.315515,-0.0417 0.148828,-0.0417 0.232172,-0.0893 l 0.07144,0.41672 q -0.03572,0.0179 -0.101204,0.0476 -0.06548,0.0238 -0.154781,0.0476 -0.08334,0.0238 -0.1905,0.0417 -0.101203,0.0179 -0.214312,0.0179 -0.261938,0 -0.434578,-0.0714 -0.172641,-0.0714 -0.279797,-0.21431 -0.101203,-0.14288 -0.142875,-0.35124 -0.04167,-0.21431 -0.04167,-0.49411 v -1.28587 z"
         style="font-style:normal;font-variant:normal;font-weight:normal;font-stretch:normal;font-size:5.95312452px;line-height:150%;font-family:'Ubuntu Mono';-inkscape-font-specification:'Ubuntu Mono';fill:#4d4d4d;fill-opacity:1;stroke-width:4.04567385px"
         id="path4563" />
      <path
         inkscape:connector-curvature="0"
         d="m 54.304029,197.50095 h 1.166813 v 0.41077 h -1.166813 v 1.28587 q 0,0.20836 0.02977,0.33933 0.02976,0.13097 0.09525,0.21431 0.07144,0.0774 0.178594,0.10716 0.107156,0.0298 0.261937,0.0298 0.214313,0 0.345281,-0.0357 0.130969,-0.0357 0.250032,-0.0952 l 0.07144,0.41672 q -0.08334,0.0357 -0.267891,0.0952 -0.178593,0.0595 -0.446484,0.0595 -0.309562,0 -0.506016,-0.0714 -0.196453,-0.0714 -0.309562,-0.21431 -0.107156,-0.14288 -0.148828,-0.35124 -0.04167,-0.21431 -0.04167,-0.49411 v -1.28587 h -0.583406 v -0.41077 h 0.583406 v -0.7739 l 0.488156,-0.0833 v 0.85725 z"
         style="font-style:normal;font-variant:normal;font-weight:normal;font-stretch:normal;font-size:5.95312452px;line-height:150%;font-family:'Ubuntu Mono';-inkscape-font-specification:'Ubuntu Mono';fill:#4d4d4d;fill-opacity:1;stroke-width:4.04567385px"
         id="path4565" />
      <path
         inkscape:connector-curvature="0"
         d="m 57.375842,197.43547 q 0.559593,0 0.863203,0.35123 0.303609,0.34528 0.303609,1.05371 v 0.17264 h -1.976437 q 0.02976,0.42862 0.279797,0.65484 0.255984,0.22027 0.714375,0.22027 0.261937,0 0.446484,-0.0417 0.184547,-0.0417 0.279797,-0.0893 l 0.06548,0.41672 q -0.0893,0.0476 -0.321469,0.1012 -0.232171,0.0536 -0.523875,0.0536 -0.357187,0 -0.631031,-0.10716 -0.26789,-0.11311 -0.446484,-0.30361 -0.178594,-0.1905 -0.267891,-0.45244 -0.0893,-0.26789 -0.0893,-0.57745 0,-0.36909 0.11311,-0.64294 0.113109,-0.27384 0.297656,-0.45243 0.184547,-0.1786 0.416719,-0.26789 0.232172,-0.0893 0.47625,-0.0893 z m 0.66675,1.17872 q 0,-0.35124 -0.184547,-0.55364 -0.184547,-0.20836 -0.488156,-0.20836 -0.172641,0 -0.315516,0.0655 -0.136922,0.0655 -0.238125,0.17264 -0.101203,0.10716 -0.160734,0.24408 -0.05953,0.13692 -0.07739,0.2798 h 1.464469 z"
         style="font-style:normal;font-variant:normal;font-weight:normal;font-stretch:normal;font-size:5.95312452px;line-height:150%;font-family:'Ubuntu Mono';-inkscape-font-specification:'Ubuntu Mono';fill:#4d4d4d;fill-opacity:1;stroke-width:4.04567385px"
         id="path4567" />
      <path
         inkscape:connector-curvature="0"
         d="m 61.548982,199.84648 v 0.41672 h -2.196703 v -3.68498 h 0.488157 v 3.26826 z"
         style="font-style:normal;font-variant:normal;font-weight:normal;font-stretch:normal;font-size:5.95312452px;line-height:150%;font-family:'Ubuntu Mono';-inkscape-font-specification:'Ubuntu Mono';fill:#4d4d4d;fill-opacity:1;stroke-width:4.04567385px"
         id="path4569" />
      <path
         inkscape:connector-curvature="0"
         d="m 62.209779,197.57834 q 0.267891,-0.0655 0.529828,-0.1012 0.267891,-0.0357 0.500063,-0.0357 0.55364,0 0.833437,0.28575 0.28575,0.28575 0.28575,0.91678 v 1.61925 h -0.488156 v -1.52995 q 0,-0.26789 -0.04762,-0.43458 -0.04763,-0.16669 -0.136922,-0.25598 -0.08334,-0.0952 -0.208359,-0.13097 -0.119063,-0.0357 -0.261938,-0.0357 -0.119062,0 -0.255984,0.0179 -0.130969,0.0119 -0.255984,0.0357 v 2.33362 h -0.49411 v -2.68486 z"
         style="font-style:normal;font-variant:normal;font-weight:normal;font-stretch:normal;font-size:5.95312452px;line-height:150%;font-family:'Ubuntu Mono';-inkscape-font-specification:'Ubuntu Mono';fill:#4d4d4d;fill-opacity:1;stroke-width:4.04567385px"
         id="path4571" />
      <path
         inkscape:connector-curvature="0"
         d="m 67.049668,196.44725 q -0.553641,0.42862 -0.845344,0.98822 -0.291703,0.55959 -0.291703,1.22039 0,0.33337 0.06548,0.63103 0.07144,0.29766 0.20836,0.5715 0.142875,0.27384 0.357187,0.52983 0.220266,0.25598 0.517922,0.51197 l -0.26789,0.35718 q -0.68461,-0.50601 -1.023938,-1.17276 -0.333375,-0.6727 -0.333375,-1.41684 0,-0.73819 0.339328,-1.4109 0.339328,-0.6727 1.017985,-1.16681 l 0.261937,0.35719 h -0.006 z"
         style="font-style:normal;font-variant:normal;font-weight:normal;font-stretch:normal;font-size:5.95312452px;line-height:150%;font-family:'Ubuntu Mono';-inkscape-font-specification:'Ubuntu Mono';fill:#4d4d4d;fill-opacity:1;stroke-width:4.04567385px"
         id="path4573" />
      <path
         inkscape:connector-curvature="0"
         d="m 69.484496,196.22103 v 0.26789 q 0,0.13097 -0.01191,0.30361 -0.006,0.16669 -0.02381,0.35124 -0.01191,0.17859 -0.02977,0.35718 -0.01786,0.17264 -0.04167,0.30957 h -0.30361 q -0.02381,-0.13693 -0.04167,-0.30957 -0.01786,-0.17859 -0.03572,-0.35718 -0.01191,-0.18455 -0.02381,-0.35719 -0.006,-0.17264 -0.006,-0.30361 v -0.26194 h 0.517922 z"
         style="font-style:normal;font-variant:normal;font-weight:normal;font-stretch:normal;font-size:5.95312452px;line-height:150%;font-family:'Ubuntu Mono';-inkscape-font-specification:'Ubuntu Mono';fill:#4d4d4d;fill-opacity:1;stroke-width:4.04567385px"
         id="path4575" />
      <path
         inkscape:connector-curvature="0"
         d="m 72.937309,196.57822 h 0.488156 v 3.68498 h -0.488156 v -1.7145 H 71.47284 v 1.7145 h -0.488156 v -3.68498 h 0.488156 v 1.55376 h 1.464469 z"
         style="font-style:normal;font-variant:normal;font-weight:normal;font-stretch:normal;font-size:5.95312452px;line-height:150%;font-family:'Ubuntu Mono';-inkscape-font-specification:'Ubuntu Mono';fill:#4d4d4d;fill-opacity:1;stroke-width:4.04567385px"
         id="path4577" />
      <path
         inkscape:connector-curvature="0"
         d="m 75.235215,197.43547 q 0.559594,0 0.863203,0.35123 0.303609,0.34528 0.303609,1.05371 v 0.17264 H 74.42559 q 0.02976,0.42862 0.279797,0.65484 0.255984,0.22027 0.714375,0.22027 0.261937,0 0.446484,-0.0417 0.184547,-0.0417 0.279797,-0.0893 l 0.06548,0.41672 q -0.0893,0.0476 -0.321468,0.1012 -0.232172,0.0536 -0.523875,0.0536 -0.357188,0 -0.631032,-0.10716 -0.26789,-0.11311 -0.446484,-0.30361 -0.178594,-0.1905 -0.267891,-0.45244 -0.0893,-0.26789 -0.0893,-0.57745 0,-0.36909 0.113109,-0.64294 0.113109,-0.27384 0.297656,-0.45243 0.184547,-0.1786 0.416719,-0.26789 0.232172,-0.0893 0.47625,-0.0893 z m 0.66675,1.17872 q 0,-0.35124 -0.184547,-0.55364 -0.184547,-0.20836 -0.488156,-0.20836 -0.172641,0 -0.315516,0.0655 -0.136922,0.0655 -0.238125,0.17264 -0.101203,0.10716 -0.160734,0.24408 -0.05953,0.13692 -0.07739,0.2798 h 1.464469 z"
         style="font-style:normal;font-variant:normal;font-weight:normal;font-stretch:normal;font-size:5.95312452px;line-height:150%;font-family:'Ubuntu Mono';-inkscape-font-specification:'Ubuntu Mono';fill:#4d4d4d;fill-opacity:1;stroke-width:4.04567385px"
         id="path4579" />
      <path
         inkscape:connector-curvature="0"
         d="m 78.682074,200.32869 q -0.261937,0 -0.434578,-0.0714 -0.172641,-0.0714 -0.273844,-0.21431 -0.101203,-0.14288 -0.142875,-0.35124 -0.04167,-0.21431 -0.04167,-0.49411 v -2.61342 h -0.797718 v -0.41672 h 1.285875 v 3.03014 q 0,0.20836 0.02381,0.33933 0.02977,0.13097 0.08334,0.21431 0.05953,0.0774 0.142875,0.10716 0.08334,0.0298 0.196453,0.0298 0.172641,0 0.321469,-0.0417 0.148828,-0.0417 0.232172,-0.0893 l 0.07144,0.41672 q -0.03572,0.0179 -0.101203,0.0476 -0.06548,0.0238 -0.154781,0.0476 -0.0893,0.0238 -0.196453,0.0417 -0.101203,0.0179 -0.214313,0.0179 z"
         style="font-style:normal;font-variant:normal;font-weight:normal;font-stretch:normal;font-size:5.95312452px;line-height:150%;font-family:'Ubuntu Mono';-inkscape-font-specification:'Ubuntu Mono';fill:#4d4d4d;fill-opacity:1;stroke-width:4.04567385px"
         id="path4581" />
      <path
         inkscape:connector-curvature="0"
         d="m 81.658637,200.32869 q -0.261938,0 -0.434578,-0.0714 -0.172641,-0.0714 -0.273844,-0.21431 -0.101203,-0.14288 -0.142875,-0.35124 -0.04167,-0.21431 -0.04167,-0.49411 v -2.61342 h -0.797719 v -0.41672 h 1.285875 v 3.03014 q 0,0.20836 0.02381,0.33933 0.02976,0.13097 0.08334,0.21431 0.05953,0.0774 0.142875,0.10716 0.08334,0.0298 0.196454,0.0298 0.17264,0 0.321468,-0.0417 0.148828,-0.0417 0.232172,-0.0893 l 0.07144,0.41672 q -0.03572,0.0179 -0.101204,0.0476 -0.06548,0.0238 -0.154781,0.0476 -0.0893,0.0238 -0.196453,0.0417 -0.101203,0.0179 -0.214312,0.0179 z"
         style="font-style:normal;font-variant:normal;font-weight:normal;font-stretch:normal;font-size:5.95312452px;line-height:150%;font-family:'Ubuntu Mono';-inkscape-font-specification:'Ubuntu Mono';fill:#4d4d4d;fill-opacity:1;stroke-width:4.04567385px"
         id="path4583" />
      <path
         inkscape:connector-curvature="0"
         d="m 85.36148,198.88208 q 0,0.32742 -0.09525,0.59531 -0.0893,0.26194 -0.255984,0.45244 -0.166687,0.1905 -0.398859,0.29765 -0.232172,0.10121 -0.506016,0.10121 -0.267891,0 -0.500062,-0.10121 -0.226219,-0.10715 -0.392907,-0.29765 -0.166687,-0.1905 -0.261937,-0.45244 -0.0893,-0.26789 -0.0893,-0.59531 0,-0.32742 0.0893,-0.59531 0.09525,-0.2679 0.261937,-0.45244 0.166688,-0.1905 0.392907,-0.29171 0.232171,-0.10715 0.500062,-0.10715 0.273844,0 0.506016,0.10715 0.232172,0.10121 0.398859,0.29171 0.166687,0.18454 0.255984,0.45244 0.09525,0.26789 0.09525,0.59531 z m -0.506015,0 q 0,-0.4703 -0.202406,-0.73819 -0.202407,-0.27384 -0.547688,-0.27384 -0.339328,0 -0.541734,0.27384 -0.196453,0.26789 -0.196453,0.73819 0,0.46434 0.196453,0.73819 0.202406,0.26789 0.541734,0.26789 0.345281,0 0.547688,-0.26789 0.202406,-0.27385 0.202406,-0.73819 z"
         style="font-style:normal;font-variant:normal;font-weight:normal;font-stretch:normal;font-size:5.95312452px;line-height:150%;font-family:'Ubuntu Mono';-inkscape-font-specification:'Ubuntu Mono';fill:#4d4d4d;fill-opacity:1;stroke-width:4.04567385px"
         id="path4585" />
      <path
         inkscape:connector-curvature="0"
         d="m 89.486996,200.2632 h -0.45839 q -0.05358,-0.36314 -0.09525,-0.79772 -0.03572,-0.44053 -0.07144,-0.91678 -0.02977,-0.47625 -0.05358,-0.97631 -0.02381,-0.50006 -0.04167,-0.99417 h 0.47625 l 0.06548,3.07776 0.535782,-1.67878 h 0.428625 l 0.547687,1.67878 0.06548,-3.07776 h 0.47625 q -0.01786,0.50006 -0.04762,1.00012 -0.02381,0.50007 -0.05953,0.97632 -0.03572,0.47029 -0.07739,0.90487 -0.04167,0.43458 -0.0893,0.80367 h -0.452438 l -0.577453,-1.83356 -0.5715,1.83356 z"
         style="font-style:normal;font-variant:normal;font-weight:normal;font-stretch:normal;font-size:5.95312452px;line-height:150%;font-family:'Ubuntu Mono';-inkscape-font-specification:'Ubuntu Mono';fill:#4d4d4d;fill-opacity:1;stroke-width:4.04567385px"
         id="path4587" />
      <path
         inkscape:connector-curvature="0"
         d="m 94.291168,198.88208 q 0,0.32742 -0.09525,0.59531 -0.0893,0.26194 -0.255985,0.45244 -0.166687,0.1905 -0.398859,0.29765 -0.232172,0.10121 -0.506015,0.10121 -0.267891,0 -0.500063,-0.10121 -0.226219,-0.10715 -0.392906,-0.29765 -0.166688,-0.1905 -0.261938,-0.45244 -0.0893,-0.26789 -0.0893,-0.59531 0,-0.32742 0.0893,-0.59531 0.09525,-0.2679 0.261938,-0.45244 0.166687,-0.1905 0.392906,-0.29171 0.232172,-0.10715 0.500063,-0.10715 0.273843,0 0.506015,0.10715 0.232172,0.10121 0.398859,0.29171 0.166688,0.18454 0.255985,0.45244 0.09525,0.26789 0.09525,0.59531 z m -0.506016,0 q 0,-0.4703 -0.202406,-0.73819 -0.202406,-0.27384 -0.547687,-0.27384 -0.339329,0 -0.541735,0.27384 -0.196453,0.26789 -0.196453,0.73819 0,0.46434 0.196453,0.73819 0.202406,0.26789 0.541735,0.26789 0.345281,0 0.547687,-0.26789 0.202406,-0.27385 0.202406,-0.73819 z"
         style="font-style:normal;font-variant:normal;font-weight:normal;font-stretch:normal;font-size:5.95312452px;line-height:150%;font-family:'Ubuntu Mono';-inkscape-font-specification:'Ubuntu Mono';fill:#4d4d4d;fill-opacity:1;stroke-width:4.04567385px"
         id="path4589" />
      <path
         inkscape:connector-curvature="0"
         d="m 95.166277,200.2632 v -2.61342 q 0.607219,-0.20836 1.226344,-0.20836 0.1905,0 0.363141,0.0179 0.17264,0.0119 0.381,0.0595 l -0.0893,0.43458 q -0.1905,-0.0536 -0.339328,-0.0655 -0.142875,-0.0179 -0.315516,-0.0179 -0.363141,0 -0.738187,0.1012 v 2.29195 h -0.488157 z"
         style="font-style:normal;font-variant:normal;font-weight:normal;font-stretch:normal;font-size:5.95312452px;line-height:150%;font-family:'Ubuntu Mono';-inkscape-font-specification:'Ubuntu Mono';fill:#4d4d4d;fill-opacity:1;stroke-width:4.04567385px"
         id="path4591" />
      <path
         inkscape:connector-curvature="0"
         d="m 99.518008,200.32869 q -0.261938,0 -0.434578,-0.0714 -0.172641,-0.0714 -0.273844,-0.21431 -0.101203,-0.14288 -0.142875,-0.35124 -0.04167,-0.21431 -0.04167,-0.49411 v -2.61342 h -0.797719 v -0.41672 h 1.285875 v 3.03014 q 0,0.20836 0.02381,0.33933 0.02977,0.13097 0.08334,0.21431 0.05953,0.0774 0.142875,0.10716 0.08334,0.0298 0.196453,0.0298 0.17264,0 0.321468,-0.0417 0.148837,-0.0417 0.232177,-0.0893 l 0.0714,0.41672 q -0.0357,0.0179 -0.10121,0.0476 -0.0655,0.0238 -0.154782,0.0476 -0.0893,0.0238 -0.196453,0.0417 -0.101203,0.0179 -0.214312,0.0179 z"
         style="font-style:normal;font-variant:normal;font-weight:normal;font-stretch:normal;font-size:5.95312452px;line-height:150%;font-family:'Ubuntu Mono';-inkscape-font-specification:'Ubuntu Mono';fill:#4d4d4d;fill-opacity:1;stroke-width:4.04567385px"
         id="path4593" />
      <path
         inkscape:connector-curvature="0"
         d="m 102.5422,198.08436 q -0.0833,-0.0774 -0.24408,-0.14288 -0.16074,-0.0714 -0.33338,-0.0714 -0.19645,0 -0.33933,0.0774 -0.13692,0.0774 -0.22621,0.21431 -0.0893,0.13097 -0.13097,0.32147 -0.0417,0.18455 -0.0417,0.39886 0,0.4822 0.22622,0.74414 0.22622,0.26194 0.58936,0.26194 0.18455,0 0.30957,-0.0179 0.13096,-0.0179 0.1905,-0.0357 v -1.75022 z m 0,-1.86333 0.4941,-0.0833 v 4.04812 q -0.16073,0.0476 -0.41076,0.0952 -0.25003,0.0476 -0.58341,0.0476 -0.29765,0 -0.54173,-0.10121 -0.24408,-0.1012 -0.41672,-0.28575 -0.17264,-0.1905 -0.26789,-0.45839 -0.0953,-0.26789 -0.0953,-0.60126 0,-0.32147 0.0774,-0.58341 0.0833,-0.26789 0.23812,-0.45839 0.15479,-0.1905 0.3691,-0.29766 0.22026,-0.10715 0.50006,-0.10715 0.22027,0 0.38695,0.0536 0.16669,0.0536 0.25004,0.11311 v -1.38113 z"
         style="font-style:normal;font-variant:normal;font-weight:normal;font-stretch:normal;font-size:5.95312452px;line-height:150%;font-family:'Ubuntu Mono';-inkscape-font-specification:'Ubuntu Mono';fill:#4d4d4d;fill-opacity:1;stroke-width:4.04567385px"
         id="path4595" />
      <path
         inkscape:connector-curvature="0"
         d="m 105.20324,196.22103 v 0.26789 q 0,0.13097 -0.0119,0.30361 -0.006,0.16669 -0.0238,0.35124 -0.0119,0.17859 -0.0298,0.35718 -0.0179,0.17264 -0.0417,0.30957 h -0.30361 q -0.0238,-0.13693 -0.0417,-0.30957 -0.0178,-0.17859 -0.0357,-0.35718 -0.0119,-0.18455 -0.0238,-0.35719 -0.006,-0.17264 -0.006,-0.30361 v -0.26194 h 0.51792 z"
         style="font-style:normal;font-variant:normal;font-weight:normal;font-stretch:normal;font-size:5.95312452px;line-height:150%;font-family:'Ubuntu Mono';-inkscape-font-specification:'Ubuntu Mono';fill:#4d4d4d;fill-opacity:1;stroke-width:4.04567385px"
         id="path4597" />
      <path
         inkscape:connector-curvature="0"
         d="m 107.12015,200.90019 q 0.55364,-0.42863 0.84534,-0.98822 0.29766,-0.5596 0.29766,-1.22039 0,-0.33338 -0.0714,-0.63103 -0.0655,-0.29766 -0.20836,-0.5715 -0.14287,-0.27385 -0.36314,-0.52983 -0.21431,-0.25599 -0.51197,-0.51197 l 0.26789,-0.35719 q 0.68461,0.50602 1.01799,1.17872 0.33933,0.66675 0.33933,1.41089 0,0.3691 -0.0893,0.72628 -0.0833,0.35719 -0.25599,0.69057 -0.16668,0.32742 -0.42267,0.61912 -0.25003,0.29766 -0.58936,0.54173 l -0.26193,-0.35718 h 0.006 z"
         style="font-style:normal;font-variant:normal;font-weight:normal;font-stretch:normal;font-size:5.95312452px;line-height:150%;font-family:'Ubuntu Mono';-inkscape-font-specification:'Ubuntu Mono';fill:#4d4d4d;fill-opacity:1;stroke-width:4.04567385px"
         id="path4599" />
      <path
         inkscape:connector-curvature="0"
         d="m 110.15624,200.7335 q 0.10716,-0.0238 0.20836,-0.0476 0.10716,-0.0238 0.19645,-0.0714 0.0893,-0.0417 0.16074,-0.11311 0.0714,-0.0655 0.11311,-0.18455 -0.1905,-0.0179 -0.2798,-0.14287 -0.0833,-0.13097 -0.0833,-0.25599 0,-0.23812 0.13097,-0.35719 0.13692,-0.12501 0.30956,-0.12501 0.22026,0 0.33337,0.16073 0.11311,0.15478 0.11311,0.381 0,0.17264 -0.0714,0.35719 -0.0655,0.1905 -0.20836,0.35123 -0.13693,0.16669 -0.34528,0.2798 -0.20836,0.11906 -0.49411,0.15478 l -0.0834,-0.38695 z m 1.18467,-2.77416 q 0,0.1786 -0.11906,0.31552 -0.11906,0.13692 -0.31551,0.13692 -0.20241,0 -0.32147,-0.13692 -0.11907,-0.13692 -0.11907,-0.31552 0,-0.18454 0.11907,-0.32147 0.11906,-0.13692 0.32147,-0.13692 0.19645,0 0.31551,0.13692 0.11906,0.13693 0.11906,0.32147 z"
         style="font-style:normal;font-variant:normal;font-weight:normal;font-stretch:normal;font-size:5.95312452px;line-height:150%;font-family:'Ubuntu Mono';-inkscape-font-specification:'Ubuntu Mono';fill:#4d4d4d;fill-opacity:1;stroke-width:4.04567385px"
         id="path4601" />
      <path
         inkscape:connector-curvature="0"
         d="m 33.563344,206.36516 q 0.559593,0 0.863203,0.35123 0.303609,0.34528 0.303609,1.0537 v 0.17264 h -1.976437 q 0.02977,0.42863 0.279797,0.65485 0.255984,0.22026 0.714374,0.22026 0.261938,0 0.446485,-0.0417 0.184547,-0.0417 0.279797,-0.0893 l 0.06548,0.41672 q -0.0893,0.0476 -0.321469,0.10121 -0.232172,0.0536 -0.523875,0.0536 -0.357187,0 -0.631031,-0.10715 -0.26789,-0.11311 -0.446484,-0.30361 -0.178594,-0.1905 -0.267891,-0.45244 -0.0893,-0.26789 -0.0893,-0.57745 0,-0.3691 0.11311,-0.64294 0.113109,-0.27384 0.297656,-0.45244 0.184547,-0.17859 0.416719,-0.26789 0.232172,-0.0893 0.47625,-0.0893 z m 0.66675,1.17871 q 0,-0.35123 -0.184547,-0.55364 -0.184547,-0.20836 -0.488156,-0.20836 -0.172641,0 -0.315516,0.0655 -0.136922,0.0655 -0.238125,0.17264 -0.101203,0.10716 -0.160734,0.24408 -0.05953,0.13692 -0.07739,0.27979 h 1.464469 z"
         style="font-style:normal;font-variant:normal;font-weight:normal;font-stretch:normal;font-size:5.95312452px;line-height:150%;font-family:'Ubuntu Mono';-inkscape-font-specification:'Ubuntu Mono';fill:#4d4d4d;fill-opacity:1;stroke-width:4.04567385px"
         id="path4603" />
      <path
         inkscape:connector-curvature="0"
         d="m 35.420718,206.50803 q 0.267891,-0.0655 0.529829,-0.1012 0.26789,-0.0357 0.500062,-0.0357 0.553641,0 0.833437,0.28575 0.28575,0.28575 0.28575,0.91678 v 1.61925 H 37.08164 v -1.52995 q 0,-0.26789 -0.04763,-0.43458 -0.04762,-0.16669 -0.136922,-0.25599 -0.08334,-0.0953 -0.208359,-0.13096 -0.119062,-0.0357 -0.261937,-0.0357 -0.119063,0 -0.255985,0.0179 -0.130969,0.0119 -0.255984,0.0357 v 2.33362 h -0.49411 v -2.68486 z"
         style="font-style:normal;font-variant:normal;font-weight:normal;font-stretch:normal;font-size:5.95312452px;line-height:150%;font-family:'Ubuntu Mono';-inkscape-font-specification:'Ubuntu Mono';fill:#4d4d4d;fill-opacity:1;stroke-width:4.04567385px"
         id="path4605" />
      <path
         inkscape:connector-curvature="0"
         d="m 40.03439,207.01405 q -0.08334,-0.0774 -0.244078,-0.14288 -0.160734,-0.0714 -0.333375,-0.0714 -0.196453,0 -0.339328,0.0774 -0.136922,0.0774 -0.226219,0.21432 -0.0893,0.13097 -0.130969,0.32147 -0.04167,0.18454 -0.04167,0.39886 0,0.4822 0.226219,0.74414 0.226219,0.26193 0.58936,0.26193 0.184546,0 0.309562,-0.0179 0.130969,-0.0179 0.1905,-0.0357 v -1.75022 z m 0,-1.86333 0.494109,-0.0833 v 4.04813 q -0.160734,0.0476 -0.410765,0.0952 -0.250032,0.0476 -0.583406,0.0476 -0.297657,0 -0.541735,-0.1012 -0.244078,-0.1012 -0.416719,-0.28575 -0.17264,-0.1905 -0.26789,-0.45839 -0.09525,-0.26789 -0.09525,-0.60126 0,-0.32147 0.07739,-0.58341 0.08334,-0.26789 0.238125,-0.45839 0.154782,-0.1905 0.369094,-0.29766 0.220266,-0.10715 0.500063,-0.10715 0.220265,0 0.386953,0.0536 0.166687,0.0536 0.250031,0.11311 v -1.38112 z"
         style="font-style:normal;font-variant:normal;font-weight:normal;font-stretch:normal;font-size:5.95312452px;line-height:150%;font-family:'Ubuntu Mono';-inkscape-font-specification:'Ubuntu Mono';fill:#4d4d4d;fill-opacity:1;stroke-width:4.04567385px"
         id="path4607" />
      <path
         inkscape:connector-curvature="0"
         d="m 42.879983,208.81189 q 0,0.17859 -0.119062,0.31552 -0.119063,0.13692 -0.315516,0.13692 -0.202406,0 -0.321469,-0.13692 -0.119062,-0.13693 -0.119062,-0.31552 0,-0.18455 0.119062,-0.32147 0.119063,-0.13692 0.321469,-0.13692 0.196453,0 0.315516,0.13692 0.119062,0.13692 0.119062,0.32147 z"
         style="font-style:normal;font-variant:normal;font-weight:normal;font-stretch:normal;font-size:5.95312452px;line-height:150%;font-family:'Ubuntu Mono';-inkscape-font-specification:'Ubuntu Mono';fill:#4d4d4d;fill-opacity:1;stroke-width:4.04567385px"
         id="path4609" />
    </g>
    <path
       sodipodi:nodetypes="ccccsccsc"
       inkscape:connector-curvature="0"
       id="path1355-3-0"
       d="m 19.751144,265.48426 c 0.01633,0.0263 0.561139,0.90462 0.727791,1.39886 0.451585,1.01234 0.25858,3.97236 0.250369,5.65885 0.02772,-0.19401 4.690513,-1.39583 7.111042,0.80464 -0.01547,-0.0273 -0.04888,-0.0804 -0.12512,-0.18628 -0.07235,-0.10046 -0.182749,-0.24915 -0.371644,-0.44224 -0.528108,-0.60452 -0.230926,-0.0845 -0.805409,-0.682 -0.496688,-0.45047 -1.569491,-1.52048 -2.867987,-2.79805 -1.241182,-1.22116 -2.686924,-2.62954 -3.919042,-3.75378 z"
       style="opacity:0.24800002;fill:#000000;fill-opacity:1;stroke:none;stroke-width:0.30000001;stroke-miterlimit:4;stroke-dasharray:none;stroke-opacity:1" />
    <path
       style="opacity:1;fill:#ffffff;fill-opacity:1;stroke:#808080;stroke-width:0.30000001;stroke-miterlimit:4;stroke-dasharray:none;stroke-opacity:1"
       d="m 19.42404,264.96145 c 0.01548,0.0249 0.53209,0.85773 0.690114,1.32635 0.428208,0.95987 0.292236,3.21802 0.28445,4.8171 0.428992,-0.0223 5.159507,-0.73701 7.328403,1.82407 -0.02928,-0.0506 -0.102779,-0.0927 -0.143771,-0.17312 -0.500768,-0.57318 -1.139582,-1.03373 -1.723521,-1.58216 -0.470975,-0.42712 -1.488241,-1.44167 -2.719516,-2.65302 -1.176928,-1.15787 -2.547826,-2.49325 -3.716159,-3.55922 z"
       id="path4753-0-5"
       inkscape:connector-curvature="0"
       sodipodi:nodetypes="ccccccsc" />
    <g
       style="stroke-width:4.08449793"
       inkscape:transform-center-y="-9.4924686"
       inkscape:transform-center-x="5.4653607"
       inkscape:label="Capa 1"
       id="layer1-4-9-22"
       transform="matrix(0.53602412,0,0,0.5372689,-234.93365,-13.7853)">
      <g
         style="stroke-width:4.08449793"
         id="layer1-3-65-0-7"
         inkscape:label="Capa 1"
         transform="translate(0.41988239,0.03484499)" />
    </g>
    <g
       style="stroke-width:4.08449793"
       inkscape:transform-center-y="-9.4924686"
       inkscape:transform-center-x="5.4653607"
       inkscape:label="Capa 1"
       id="layer1-4-3"
       transform="matrix(0.53602412,0,0,0.5372689,-234.93365,-13.7603)">
      <g
         style="stroke-width:4.08449793"
         id="layer1-3-65-7"
         inkscape:label="Capa 1"
         transform="translate(0.41988239,0.03484499)" />
    </g>
    <g
       style="stroke-width:4.08449793"
       inkscape:transform-center-y="-9.4924686"
       inkscape:transform-center-x="5.4653607"
       inkscape:label="Capa 1"
       id="layer1-4-9-2"
       transform="matrix(0.53602412,0,0,0.5372689,-267.6877,-57.38336)">
      <g
         style="stroke-width:4.08449793"
         id="layer1-3-65-0-2"
         inkscape:label="Capa 1"
         transform="translate(0.41988239,0.03484499)" />
    </g>
    <g
       style="stroke-width:4.08449793"
       inkscape:transform-center-y="-9.4924686"
       inkscape:transform-center-x="5.4653607"
       inkscape:label="Capa 1"
       id="layer1-4-7"
       transform="matrix(0.53602412,0,0,0.5372689,-267.6877,-57.35836)">
      <g
         style="stroke-width:4.08449793"
         id="layer1-3-65-3"
         inkscape:label="Capa 1"
         transform="translate(0.41988239,0.03484499)" />
    </g>
    <g
       style="stroke-width:4.08449793"
       inkscape:transform-center-y="-9.4924686"
       inkscape:transform-center-x="5.4653607"
       inkscape:label="Capa 1"
       id="layer1-4-9"
       transform="matrix(0.53602412,0,0,0.5372689,-234.93365,-13.785303)">
      <g
         style="stroke-width:4.08449793"
         id="layer1-3-65-0"
         inkscape:label="Capa 1"
         transform="translate(0.41988239,0.03484499)" />
    </g>
    <g
       style="stroke-width:4.08449793"
       inkscape:transform-center-y="-9.4924686"
       inkscape:transform-center-x="5.4653607"
       inkscape:label="Capa 1"
       id="layer1-4"
       transform="matrix(0.53602412,0,0,0.5372689,-234.93365,-13.760303)">
      <g
         style="stroke-width:4.08449793"
         id="layer1-3-65"
         inkscape:label="Capa 1"
         transform="translate(0.41988239,0.03484499)" />
    </g>
    <g
       id="g2062"
       transform="translate(36.125236)">
      <g
         transform="matrix(0.24645432,0,0,0.24790302,-35.885073,224.67107)"
         id="text4381"
         style="font-style:normal;font-weight:normal;font-size:81.59291077px;line-height:125%;font-family:sans-serif;letter-spacing:0px;word-spacing:0px;fill:#572552;fill-opacity:1;stroke:none;stroke-width:4.04567385px;stroke-linecap:butt;stroke-linejoin:miter;stroke-opacity:1">
        <path
           id="path4505"
           style="font-style:normal;font-variant:normal;font-weight:bold;font-stretch:normal;font-family:Aileron;-inkscape-font-specification:'Aileron Bold';fill:#572552;fill-opacity:1;stroke-width:4.04567385px"
           d="m 51.779447,220.46338 c -2.774159,-0.32637 -4.895575,-0.40797 -8.159291,-0.40797 H 24.11945 v 56.29911 h 11.259822 v -21.21415 h 8.240884 c 3.263716,0 5.385132,-0.0816 8.159291,-0.40797 8.159291,-0.97911 15.176281,-6.77221 15.176281,-17.13451 0,-10.3623 -6.609025,-16.1554 -15.176281,-17.13451 z m -3.345309,25.53858 c -1.223894,0.16319 -2.937345,0.24478 -4.977168,0.24478 h -8.077698 v -17.2977 h 8.077698 c 2.039823,0 3.753274,0.0816 4.977168,0.24478 3.916459,0.57115 6.690618,3.10053 6.690618,8.40407 0,5.30354 -2.774159,7.83292 -6.690618,8.40407 z"
           inkscape:connector-curvature="0" />
      </g>
      <g
         transform="matrix(0.24645432,0,0,0.24790302,-35.885073,224.67107)"
         id="text4385"
         style="font-style:normal;font-weight:normal;font-size:45.29730988px;line-height:125%;font-family:sans-serif;letter-spacing:0px;word-spacing:0px;fill:#572552;fill-opacity:1;stroke:none;stroke-width:4.04567385px;stroke-linecap:butt;stroke-linejoin:miter;stroke-opacity:1">
        <path
           id="path4508"
           style="font-style:normal;font-variant:normal;font-weight:bold;font-stretch:normal;font-family:Aileron;-inkscape-font-specification:'Aileron Bold';fill:#572552;fill-opacity:1;stroke-width:4.04567385px"
           d="m 81.201841,275.72037 h 6.115137 c -0.362378,-2.67254 -0.452973,-4.30325 -0.452973,-6.11514 v -7.79114 c 0,-1.31362 -0.0453,-2.58194 -0.135892,-3.71438 -0.362378,-4.16735 -2.899028,-7.11167 -9.648327,-7.11167 -5.752758,0 -10.146597,3.08021 -10.327787,8.51589 l 6.06984,-0.0453 c 0.181189,-2.62724 1.540109,-4.07675 4.031461,-4.07675 2.446054,0 3.53319,1.22302 3.714379,2.89902 0.0906,0.81535 0.0906,1.54011 0.0906,2.26487 v 0.49827 H 79.11817 c -8.742381,0 -13.272112,2.98962 -13.272112,8.28941 0,4.57503 3.578488,7.02108 7.74584,7.02108 2.264866,0 4.303245,-0.45297 5.979245,-1.58541 l 1.17773,-2.58194 0.452973,3.53319 z m -5.20919,-3.75968 c -2.219568,0 -3.669082,-0.99654 -3.669082,-3.12551 0,-3.17082 3.352001,-4.30325 8.334705,-3.94087 v 1.94778 c 0,3.35201 -2.128974,5.1186 -4.665623,5.1186 z"
           inkscape:connector-curvature="0" />
        <path
           id="path4510"
           style="font-style:normal;font-variant:normal;font-weight:bold;font-stretch:normal;font-family:Aileron;-inkscape-font-specification:'Aileron Bold';fill:#572552;fill-opacity:1;stroke-width:4.04567385px"
           d="m 101.2912,250.98804 c -5.752761,0 -9.557735,2.80843 -9.557735,7.42876 0,4.16735 3.080217,6.11513 7.564651,7.24756 4.167354,1.04184 5.752754,2.08368 5.752754,3.94087 0,1.7666 -1.5401,2.62724 -3.53319,2.62724 -2.174267,0 -3.986159,-1.22302 -4.484429,-3.85027 h -6.251029 c 0.67946,5.43568 4.801515,7.97233 10.644868,7.97233 5.52627,0 9.92011,-2.35546 9.92011,-7.20227 0,-4.43914 -2.89903,-6.43222 -7.83643,-7.70055 -3.986167,-0.99654 -5.480979,-1.94778 -5.480979,-3.75967 0,-1.49481 0.996541,-2.58195 2.853729,-2.58195 2.08368,0 3.30671,1.26833 3.71438,3.48789 h 6.25103 c -0.54357,-4.39383 -3.80497,-7.60994 -9.55773,-7.60994 z"
           inkscape:connector-curvature="0" />
      </g>
    </g>
  </g>
</svg>
