<?xml version="1.0" encoding="UTF-8" standalone="no"?>
<!-- Created with Inkscape (http://www.inkscape.org/) -->

<svg
   xmlns:osb="http://www.openswatchbook.org/uri/2009/osb"
   xmlns:dc="http://purl.org/dc/elements/1.1/"
   xmlns:cc="http://creativecommons.org/ns#"
   xmlns:rdf="http://www.w3.org/1999/02/22-rdf-syntax-ns#"
   xmlns:svg="http://www.w3.org/2000/svg"
   xmlns="http://www.w3.org/2000/svg"
   xmlns:xlink="http://www.w3.org/1999/xlink"
   xmlns:sodipodi="http://sodipodi.sourceforge.net/DTD/sodipodi-0.dtd"
   xmlns:inkscape="http://www.inkscape.org/namespaces/inkscape"
   width="128"
   height="128"
   viewBox="0 0 33.866666 33.866668"
   version="1.1"
   id="svg8"
   inkscape:version="0.92.2 5c3e80d, 2017-08-06"
   sodipodi:docname="empty.svg">
  <defs
     id="defs2">
    <linearGradient
       id="linearGradient1830">
      <stop
         id="stop1826"
         style="stop-color:#d9d9d9;stop-opacity:1"
         offset="0" />
      <stop
         id="stop1828"
         style="stop-color:#ffffff;stop-opacity:1;"
         offset="1" />
    </linearGradient>
    <linearGradient
       osb:paint="solid"
       id="linearGradient6987">
      <stop
         id="stop6985"
         offset="0"
         style="stop-color:#77d2fb;stop-opacity:1;" />
    </linearGradient>
    <linearGradient
       inkscape:collect="always"
       xlink:href="#linearGradient1830"
       id="linearGradient1503-8"
       x1="29.203474"
       y1="263.52237"
       x2="4.5843229"
       y2="296.16849"
       gradientUnits="userSpaceOnUse"
       gradientTransform="matrix(1.0010487,0,0,1.0010383,-0.01775767,-0.29086231)" />
  </defs>
  <sodipodi:namedview
     id="base"
     pagecolor="#ffffff"
     bordercolor="#666666"
     borderopacity="1.0"
     inkscape:pageopacity="0.0"
     inkscape:pageshadow="2"
     inkscape:zoom="3.6203868"
     inkscape:cx="90.159661"
     inkscape:cy="57.084687"
     inkscape:document-units="mm"
     inkscape:current-layer="layer1"
     showgrid="false"
     units="px"
     inkscape:window-width="1600"
     inkscape:window-height="814"
     inkscape:window-x="0"
     inkscape:window-y="0"
     inkscape:window-maximized="1"
     showguides="false" />
  <metadata
     id="metadata5">
    <rdf:RDF>
      <cc:Work
         rdf:about="">
        <dc:format>image/svg+xml</dc:format>
        <dc:type
           rdf:resource="http://purl.org/dc/dcmitype/StillImage" />
        <dc:title />
      </cc:Work>
    </rdf:RDF>
  </metadata>
  <g
     inkscape:label="Layer 1"
     inkscape:groupmode="layer"
     id="layer1"
     transform="translate(0,-263.13332)">
    <path
       style="opacity:0.25;fill:#000000;fill-opacity:1;stroke:none;stroke-width:1.87499988;stroke-miterlimit:4;stroke-dasharray:none;stroke-opacity:1"
       d="M 4.5713723,264.09818 V 296.7104 H 29.295294 v -18.3 c -0.04716,-0.8313 -0.101653,-1.57532 -0.312496,-2.32966 -0.21448,-0.76736 -0.552469,-1.49394 -0.956412,-2.18925 -0.516871,-0.8897 -1.39035,-1.46334 -2.166671,-2.19248 -0.47098,-0.42711 -1.488209,-1.44169 -2.719481,-2.65304 -1.221196,-1.20143 -2.653456,-2.59692 -3.849171,-3.68107 -0.35316,-0.3187 -0.866164,-0.64943 -1.342771,-0.84044 -0.370088,-0.14831 -0.80547,-0.24063 -1.22583,-0.30267 -0.433449,-0.064 -0.850926,-0.0958 -1.164384,-0.12361 z"
       id="path5023-4"
       inkscape:connector-curvature="0"
       sodipodi:nodetypes="ccccascscsscc" />
    <path
       sodipodi:nodetypes="ccccascscsscc"
       inkscape:connector-curvature="0"
       id="path4623-8"
       d="m 4.5713723,263.5729 v 32.61222 H 29.295294 v -18.3 c -0.04716,-0.83129 -0.101653,-1.57532 -0.312496,-2.32966 -0.21448,-0.76736 -0.552469,-1.49394 -0.956412,-2.18925 -0.516871,-0.88969 -1.39035,-1.46334 -2.166671,-2.19247 -0.47098,-0.42712 -1.488209,-1.4417 -2.719481,-2.65305 -1.221196,-1.20142 -2.653456,-2.59692 -3.849171,-3.68107 -0.35316,-0.3187 -0.866164,-0.64944 -1.342771,-0.84044 -0.370088,-0.14831 -0.80547,-0.24063 -1.22583,-0.30267 -0.433449,-0.064 -0.850926,-0.0958 -1.164384,-0.12361 z"
       style="opacity:1;fill:url(#linearGradient1503-8);fill-opacity:1;stroke:#808080;stroke-width:0.30000001;stroke-miterlimit:4;stroke-dasharray:none;stroke-opacity:1" />
    <g
       id="g944"
       transform="translate(26.004317,40.813927)">
      <path
         style="fill:#e8e8e7;stroke-width:0.99999994"
         d="m -9.979475,251.34206 c -0.629046,-0.12145 -1.083498,-0.56 -1.246611,-1.20302 -0.03213,-0.12664 -0.05842,-0.25475 -0.05842,-0.28465 0,-0.0299 -0.03693,-0.10927 -0.08208,-0.17636 -0.176735,-0.26262 -0.163452,-0.61923 0.03762,-1.01007 0.187955,-0.36533 0.450534,-0.62068 0.822681,-0.80002 0.311106,-0.14992 0.489594,-0.18907 0.862036,-0.18907 0.381271,0 0.550602,0.0388 0.896593,0.20538 0.21827,0.10509 0.27612,0.14674 0.454963,0.32753 0.341689,0.34542 0.484006,0.64584 0.489192,1.03266 0.0032,0.23921 0.0028,0.2404 -0.170202,0.53611 -0.01627,0.0278 -0.02974,0.0757 -0.02993,0.10643 -6.88e-4,0.10887 -0.100561,0.4493 -0.180305,0.6146 -0.192003,0.398 -0.558872,0.69534 -1.005347,0.81483 -0.197966,0.053 -0.583804,0.0655 -0.790199,0.0257 z m -0.45427,-5.45597 c -0.0054,-0.0165 -0.01334,-0.14438 -0.0177,-0.28426 -0.0044,-0.13988 -0.01975,-0.26918 -0.0342,-0.28735 -0.01445,-0.0182 -0.03363,-0.17309 -0.04262,-0.34431 -0.009,-0.17121 -0.03196,-0.4016 -0.05105,-0.51197 -0.0519,-0.3001 -0.04522,-0.79367 0.01473,-1.08861 0.130483,-0.64191 0.458998,-1.31946 0.953861,-1.96729 0.283792,-0.37151 0.613951,-0.72354 1.583252,-1.68815 0.575683,-0.57289 1.119081,-1.13322 1.207552,-1.24516 0.381076,-0.48219 0.688421,-1.02652 0.932902,-1.65224 0.168064,-0.43013 0.233088,-0.58479 0.256215,-0.60941 0.03241,-0.0345 0.02543,-0.31022 -0.014,-0.55332 -0.205201,-1.26516 -1.207459,-2.18996 -2.694408,-2.48617 -0.702021,-0.13984 -1.329838,-0.14377 -2.083253,-0.013 -1.094295,0.18988 -2.047228,0.62488 -2.662389,1.21532 -0.432332,0.41497 -0.654075,0.83274 -0.704092,1.32654 -0.01611,0.15904 -0.01553,0.16128 0.04836,0.18557 0.104871,0.0399 0.263738,0.0284 0.450015,-0.0324 0.286009,-0.0934 0.447304,-0.11941 0.724993,-0.11709 0.660586,0.006 1.171577,0.30337 1.478083,0.86157 0.179193,0.32634 0.211239,0.73591 0.07816,0.99894 -0.03712,0.0734 -0.07525,0.13338 -0.08475,0.13338 -0.0095,0 -0.02469,0.062 -0.03376,0.13769 -0.08625,0.71995 -0.436782,1.18163 -1.054596,1.38897 -0.182598,0.0613 -0.213978,0.0643 -0.670472,0.064 -0.452989,-2.7e-4 -0.490309,-0.004 -0.689547,-0.0654 -0.981901,-0.30334 -1.56591,-1.13425 -1.728445,-2.45918 -0.03753,-0.30595 -0.04859,-0.36018 -0.124542,-0.61061 -0.03584,-0.11817 -0.04347,-0.22656 -0.04302,-0.61061 5.08e-4,-0.42687 0.0061,-0.48896 0.0652,-0.72357 0.193076,-0.7665 0.581194,-1.42253 1.195534,-2.02077 0.359199,-0.34979 0.683767,-0.58883 1.163363,-0.8568 1.11627,-0.62371 2.59388,-0.97248 4.11974,-0.97242 1.739328,8e-5 3.353729,0.50781 4.492799,1.41299 0.86141,0.68453 1.438587,1.58111 1.65697,2.57391 0.04996,0.22711 0.05639,0.98296 0.0099,1.16135 -0.09589,0.36782 -0.112533,0.45507 -0.143887,0.75428 -0.09463,0.90305 -0.428024,1.712 -1.006612,2.44244 -0.186005,0.23482 -0.655399,0.70569 -0.945717,0.94868 -0.310616,0.25998 -0.736091,0.57997 -1.364889,1.02648 -0.952777,0.67658 -1.30003,0.95622 -1.714465,1.38067 -0.531998,0.54485 -0.830405,1.07217 -0.943191,1.66673 -0.04182,0.22048 -0.0481,0.69505 -0.01061,0.80258 0.02014,0.0578 0.01759,0.0889 -0.01197,0.14606 -0.02666,0.0516 -0.03757,0.14108 -0.03757,0.30849 0,0.15152 -0.01028,0.24613 -0.02873,0.26459 -0.04227,0.0423 -1.477285,0.0411 -1.491107,-10e-4 z"
         id="path925"
         inkscape:connector-curvature="0" />
      <path
         style="fill:#d2d2d2;stroke-width:0.99999994"
         d="m -9.859748,251.3383 c -0.02634,-0.006 -0.107156,-0.0229 -0.179591,-0.0373 -0.719628,-0.14332 -1.222398,-0.80989 -1.220801,-1.61854 2.39e-4,-0.1158 0.01639,-0.28596 0.03592,-0.37815 0.01953,-0.0922 0.0355,-0.22249 0.0355,-0.28958 0,-0.28461 0.173433,-0.59045 0.466936,-0.82342 0.688646,-0.54662 1.665587,-0.4969 2.286204,0.11635 0.221729,0.21909 0.313647,0.41033 0.338816,0.70492 0.01033,0.12095 0.02979,0.26299 0.04324,0.31568 0.04289,0.16795 0.03094,0.60575 -0.02228,0.8163 -0.144524,0.57181 -0.561235,1.0011 -1.11348,1.14713 -0.142384,0.0376 -0.578316,0.068 -0.670472,0.0466 z m -0.548261,-5.46615 c -0.007,-0.0113 -0.01983,-0.29436 -0.02848,-0.62892 -0.02253,-0.87091 0.03001,-1.38234 0.203259,-1.97858 0.0374,-0.12873 0.08181,-0.3041 0.09868,-0.3897 0.102364,-0.51951 0.445436,-1.12468 1.024896,-1.80788 0.111702,-0.1317 0.669074,-0.7028 1.238606,-1.26911 1.018024,-1.01227 1.246504,-1.26316 1.722704,-1.89169 0.129716,-0.17121 0.249671,-0.32207 0.266567,-0.33524 0.07492,-0.0584 0.201916,-0.45486 0.260787,-0.81414 0.0452,-0.27588 0.04534,-0.82416 2.7e-4,-1.10203 -0.09636,-0.59408 -0.366353,-1.11579 -0.799608,-1.54507 -0.54612,-0.54112 -1.261511,-0.87353 -2.197288,-1.021 -0.325013,-0.0512 -1.159918,-0.0572 -1.493555,-0.0106 -1.292565,0.18032 -2.374598,0.65074 -3.040836,1.32204 -0.279461,0.28158 -0.454911,0.55565 -0.570579,0.89129 -0.07632,0.22145 -0.08433,0.26976 -0.08615,0.51953 -0.0011,0.15145 0.0062,0.30458 0.01617,0.34028 l 0.01818,0.0649 0.0776,-0.0449 c 0.153626,-0.0889 0.677825,-0.2608 0.880083,-0.28858 0.472821,-0.065 0.92109,0.0728 1.255717,0.38579 0.194248,0.18171 0.326994,0.42783 0.329049,0.61008 7.31e-4,0.0648 0.01852,0.20393 0.03953,0.30929 0.05558,0.2787 0.04725,0.75895 -0.01737,1.00192 -0.147245,0.5536 -0.505246,0.91385 -1.056486,1.06313 -0.124082,0.0336 -0.247907,0.0419 -0.610608,0.0407 -0.424057,-10e-4 -0.469259,-0.006 -0.665404,-0.066 -0.474333,-0.14562 -0.82862,-0.39412 -1.120331,-0.78581 -0.521345,-0.70002 -0.73122,-1.87045 -0.536568,-2.99235 0.03575,-0.20602 0.144889,-0.65596 0.168311,-0.69386 0.0062,-0.01 0.02757,-0.11163 0.04747,-0.22574 0.163306,-0.93647 1.059294,-1.93418 2.292945,-2.55328 0.922815,-0.46311 1.881013,-0.7186 3.048309,-0.8128 0.446566,-0.036 1.455134,-0.0158 1.829726,0.0367 1.351859,0.18951 2.505659,0.66702 3.379252,1.39854 0.619984,0.51916 1.090821,1.20101 1.221734,1.7693 0.02654,0.11521 0.08456,0.34416 0.128929,0.50878 0.172099,0.63851 0.21343,0.98064 0.196447,1.62613 -0.0072,0.27404 -0.0286,0.55871 -0.05145,0.68461 -0.253022,1.39439 -0.931216,2.36789 -2.446707,3.51207 -0.130461,0.0985 -0.506588,0.37117 -0.835838,0.60595 -0.329249,0.23478 -0.734072,0.53197 -0.899605,0.66041 -0.919631,0.71362 -1.425535,1.33549 -1.662769,2.04393 -0.115948,0.34625 -0.136748,0.51141 -0.152544,1.21134 l -0.01486,0.6585 -0.72272,0.006 c -0.397496,0.003 -0.728457,-0.003 -0.735467,-0.0143 z"
         id="path923"
         inkscape:connector-curvature="0" />
      <path
         style="fill:#cacaca;stroke-width:0.99999994"
         d="m -10.078117,251.28035 c -0.291683,-0.0765 -0.500517,-0.19809 -0.715503,-0.41666 -0.315164,-0.32042 -0.451947,-0.67281 -0.451947,-1.16428 0,-0.34934 0.04686,-0.52263 0.260688,-0.96416 0.134104,-0.27691 0.178496,-0.34546 0.282915,-0.43683 0.153255,-0.13414 0.439984,-0.2856 0.641952,-0.33912 0.206363,-0.0547 0.627024,-0.0538 0.832618,0.002 0.354082,0.0957 0.729433,0.35216 0.833873,0.56975 0.33398,0.69578 0.350863,0.75192 0.351471,1.16857 3.48e-4,0.23853 -0.0104,0.3373 -0.0529,0.48632 -0.206001,0.72226 -0.783399,1.14469 -1.559108,1.14065 -0.166825,-8.6e-4 -0.311909,-0.0166 -0.424061,-0.046 z m 0.833692,-0.40072 c 0.201878,-0.0945 0.351699,-0.23212 0.443981,-0.40794 0.267473,-0.50959 0.07186,-1.0955 -0.448696,-1.34397 -0.117454,-0.0561 -0.160191,-0.0629 -0.395099,-0.0629 -0.239908,0 -0.275557,0.006 -0.399702,0.0669 -0.672812,0.33039 -0.758893,1.23955 -0.156636,1.65434 0.202426,0.13942 0.350297,0.18308 0.59267,0.17498 0.169474,-0.006 0.230919,-0.0194 0.363482,-0.0815 z m -1.154098,-5.00751 c -0.0322,-0.0107 -0.03133,-1.43246 0.0011,-1.71609 0.08505,-0.74499 0.324238,-1.38634 0.808206,-2.16706 0.460676,-0.74315 0.697014,-1.03146 1.446695,-1.76482 1.56139,-1.52739 1.817186,-1.78895 1.962339,-2.00659 0.265861,-0.39862 0.448557,-0.83432 0.551191,-1.31451 0.06894,-0.32252 0.07497,-0.99649 0.01176,-1.3141 -0.116229,-0.58402 -0.380556,-1.079 -0.79745,-1.49329 -0.561513,-0.55802 -1.370467,-0.91794 -2.330931,-1.03711 -0.293106,-0.0364 -1.06784,-0.0304 -1.375927,0.0106 -0.988235,0.13152 -1.845265,0.43705 -2.539779,0.90544 -0.127404,0.0859 -0.328087,0.25853 -0.490881,0.42219 -0.311837,0.31351 -0.461019,0.53871 -0.582826,0.8798 -0.07223,0.20227 -0.07542,0.22686 -0.07555,0.58235 -9.5e-5,0.24595 0.01049,0.40114 0.03135,0.46002 l 0.03148,0.0889 0.06923,-0.0788 c 0.08271,-0.0942 0.316059,-0.20539 0.606812,-0.28917 0.171092,-0.0493 0.264188,-0.0611 0.480549,-0.0611 0.295651,0 0.437896,0.0315 0.669182,0.14823 0.240841,0.12156 0.362398,0.25744 0.509825,0.56993 0.211463,0.44822 0.235525,0.54879 0.234937,0.98197 -5.53e-4,0.40787 -0.02985,0.56292 -0.156106,0.82612 -0.177617,0.37025 -0.521105,0.63135 -0.980798,0.74552 -0.250129,0.0621 -0.821079,0.0622 -1.086911,1.8e-4 -0.405872,-0.0947 -0.68965,-0.2461 -0.988519,-0.52737 -0.536799,-0.50519 -0.830159,-1.26716 -0.863061,-2.24173 -0.0255,-0.75539 0.111175,-1.47238 0.399737,-2.09698 0.100168,-0.21681 0.395231,-0.73526 0.571372,-1.00396 0.147798,-0.22545 0.609998,-0.68223 0.889839,-0.87939 1.155735,-0.81428 2.753764,-1.26372 4.49325,-1.26372 1.917801,0 3.725762,0.66078 4.701729,1.71841 0.253271,0.27446 0.642744,0.88777 0.8746,1.37721 0.583032,1.23079 0.582627,2.82347 -10e-4,4.05719 -0.240077,0.50747 -0.551646,0.93307 -1.039821,1.42037 -0.392669,0.39197 -0.855684,0.76474 -1.686424,1.35773 -1.125321,0.80327 -1.449907,1.0623 -1.873178,1.49482 -0.514077,0.5253 -0.774431,0.96258 -0.937527,1.5746 -0.05716,0.21447 -0.06184,0.27426 -0.07154,0.91196 -0.0057,0.37535 -0.02038,0.69285 -0.03261,0.70557 -0.0202,0.021 -1.374082,0.0369 -1.434271,0.0168 z m 0.794651,-0.38113 c 0.02547,-0.0298 0.04393,-0.15255 0.06389,-0.42504 0.03485,-0.47551 0.07592,-0.70685 0.185867,-1.04696 0.190106,-0.58806 0.485212,-1.04459 1.026871,-1.58858 0.426586,-0.42842 0.769292,-0.7046 1.699864,-1.36991 1.384063,-0.98953 1.841994,-1.38752 2.302918,-2.00146 0.520905,-0.69384 0.753951,-1.32139 0.810458,-2.18242 0.0311,-0.47388 -0.07264,-1.16311 -0.240513,-1.59796 -0.207045,-0.53634 -0.474666,-0.9407 -0.907537,-1.37127 -0.791923,-0.7877 -1.868327,-1.2829 -3.232701,-1.48722 -0.336825,-0.0504 -1.289097,-0.0704 -1.689624,-0.0355 -0.837263,0.073 -1.478978,0.21817 -2.262843,0.51174 -0.433693,0.16242 -0.966505,0.47759 -1.241544,0.73437 -0.06784,0.0633 -0.177223,0.16546 -0.243073,0.22691 l -0.119727,0.11174 0.172364,-0.1268 c 0.447807,-0.32943 1.356708,-0.72555 2.102452,-0.91629 0.65098,-0.16651 1.038059,-0.21418 1.748016,-0.21529 1.030877,-0.002 1.665972,0.12446 2.428703,0.48208 0.40934,0.19193 0.711546,0.40378 1.034009,0.72484 0.404965,0.40321 0.634178,0.77562 0.811652,1.31871 0.09548,0.29218 0.115638,0.38414 0.157202,0.71714 0.161662,1.29519 -0.195272,2.46344 -1.090368,3.56878 -0.133032,0.16428 -0.65007,0.70043 -1.2816,1.32897 -0.582233,0.57948 -1.139229,1.15058 -1.237768,1.26911 -0.639909,0.76972 -0.959573,1.37824 -1.122183,2.13622 -0.06314,0.2943 -0.09682,1.17988 -0.04716,1.23972 0.04048,0.0488 0.128324,0.0459 0.172367,-0.006 z m -2.944929,-6.57025 c 0.297203,-0.0636 0.533314,-0.23986 0.655991,-0.48971 0.06549,-0.13338 0.06954,-0.15904 0.06954,-0.44094 0,-0.27792 -0.0047,-0.30888 -0.06573,-0.43316 -0.08048,-0.16388 -0.233473,-0.322 -0.377265,-0.38992 -0.08629,-0.0408 -0.153059,-0.0509 -0.335236,-0.0509 -0.196878,-2e-5 -0.255466,0.0103 -0.435498,0.0768 -0.302817,0.11183 -0.60438,0.15959 -0.792427,0.12549 -0.35983,-0.0653 -0.478926,-0.18385 -0.557301,-0.55499 -0.05857,-0.27735 -0.04789,-1.12132 0.01683,-1.3297 0.01333,-0.0429 0.01974,-0.0914 0.01425,-0.10775 -0.0055,-0.0163 -0.02388,0.0134 -0.04087,0.0661 -0.01699,0.0527 -0.04448,0.11194 -0.06109,0.1317 -0.09679,0.11511 -0.192904,0.82268 -0.170758,1.25714 0.0503,0.98674 0.426267,1.6845 1.089333,2.02169 0.253445,0.12887 0.694407,0.18151 0.990235,0.1182 z"
         id="path921"
         inkscape:connector-curvature="0" />
      <path
         style="fill:#b8b8b8;stroke-width:0.99999994"
         d="m -9.883694,251.31221 c -0.307714,-0.0496 -0.632702,-0.19608 -0.842895,-0.38004 -0.177935,-0.15572 -0.344576,-0.41728 -0.427964,-0.67172 -0.0647,-0.19741 -0.07002,-0.24053 -0.06918,-0.56105 8.14e-4,-0.31349 0.0073,-0.36632 0.06662,-0.54391 0.169212,-0.50644 0.556741,-0.85564 1.102794,-0.99373 0.256488,-0.0649 0.711815,-0.0512 0.948852,0.0285 0.513294,0.17261 0.871645,0.55311 1.008546,1.07087 0.06791,0.25683 0.06791,0.64355 0,0.90037 -0.145042,0.54856 -0.550563,0.9586 -1.092355,1.10454 -0.146191,0.0394 -0.56398,0.0671 -0.694418,0.0461 z m 0.596117,-0.19032 c 0.499957,-0.122 0.804691,-0.54717 0.804691,-1.12274 0,-0.46959 -0.214877,-0.8449 -0.588472,-1.02783 -0.585802,-0.28684 -1.353939,-0.0706 -1.600488,0.45057 -0.129834,0.27445 -0.165915,0.60501 -0.09765,0.89457 0.153534,0.6512 0.760977,0.98135 1.481915,0.80543 z m -0.428499,-5.25376 -0.694417,-0.012 -0.0076,-0.64652 c -0.01126,-0.95247 0.04225,-1.39807 0.238489,-1.98601 0.214513,-0.6427 0.593159,-1.27426 1.142184,-1.90513 0.09742,-0.11194 0.648668,-0.67226 1.224987,-1.24516 1.287931,-1.28027 1.566779,-1.61734 1.891817,-2.28679 0.25074,-0.51642 0.333066,-0.85613 0.351075,-1.4487 0.01777,-0.58474 -0.05381,-0.98201 -0.258639,-1.43529 -0.191663,-0.42415 -0.627576,-0.92336 -1.052374,-1.20517 -1.154935,-0.76619 -2.856834,-0.89828 -4.511659,-0.35017 -1.145748,0.3795 -2.020971,1.0712 -2.313881,1.82869 -0.106171,0.27457 -0.147258,0.52769 -0.130306,0.80276 0.01365,0.22153 0.06485,0.51407 0.09529,0.54451 0.0083,0.008 0.05533,-0.009 0.104466,-0.0388 0.372189,-0.2249 0.633568,-0.29914 1.05913,-0.30083 0.277764,-10e-4 0.345813,0.007 0.483469,0.0541 0.433907,0.14993 0.741478,0.48984 0.872626,0.96437 0.05952,0.21537 0.0593,0.73638 -4.21e-4,0.96775 -0.142327,0.55144 -0.489315,0.90281 -1.044383,1.0576 -0.243604,0.0679 -0.971742,0.0613 -1.231897,-0.0113 -1.007557,-0.28091 -1.623025,-1.18298 -1.739765,-2.54992 -0.04993,-0.58463 0.04033,-1.31162 0.231207,-1.86215 0.112579,-0.32471 0.353696,-0.79051 0.555361,-1.07287 0.300913,-0.42132 0.803522,-0.88072 1.29857,-1.18695 0.893959,-0.55298 1.967459,-0.8973 3.269095,-1.04856 0.410252,-0.0477 1.67528,-0.04 2.035361,0.0124 0.931443,0.13549 1.616195,0.33905 2.30901,0.6864 1.116597,0.55982 1.892751,1.36189 2.311121,2.3883 0.226115,0.55474 0.324882,1.10265 0.324162,1.79828 -0.0014,1.33522 -0.42258,2.34976 -1.387444,3.34195 -0.452984,0.46581 -0.862482,0.79427 -2.024489,1.62383 -0.831027,0.59327 -1.181572,0.87565 -1.568707,1.26364 -0.566651,0.56791 -0.871205,1.08731 -1.005528,1.71488 -0.04196,0.19606 -0.05329,0.35218 -0.06452,0.88903 -0.0094,0.44737 -0.02196,0.65349 -0.04027,0.6585 -0.01466,0.004 -0.339143,0.002 -0.721073,-0.005 z m 0.209117,-0.18342 c 0.11295,-0.0568 0.142206,-0.15201 0.163939,-0.53356 0.02311,-0.40567 0.0684,-0.66432 0.169575,-0.9684 0.276179,-0.83002 0.869153,-1.5549 1.935721,-2.3663 0.164625,-0.12524 0.514827,-0.38179 0.778227,-0.57012 1.446598,-1.03429 2.001976,-1.53578 2.46587,-2.2266 0.804439,-1.19795 0.906153,-2.95261 0.247771,-4.27426 -0.661455,-1.32781 -2.093338,-2.22323 -4.003537,-2.50359 -0.837105,-0.12286 -1.692516,-0.11063 -2.614243,0.0374 -1.951464,0.31334 -3.380553,1.18139 -4.028439,2.44695 -0.574877,1.12294 -0.585533,2.64164 -0.02522,3.59434 0.120716,0.20525 0.430983,0.50427 0.630496,0.60763 0.656611,0.3402 1.544497,0.28372 1.910614,-0.12153 0.362733,-0.4015 0.365373,-1.22867 0.0052,-1.62735 -0.169557,-0.18768 -0.54305,-0.31186 -0.833525,-0.27713 -0.06846,0.008 -0.248382,0.0477 -0.399837,0.0878 -0.33503,0.0888 -0.590983,0.10066 -0.718363,0.0334 -0.14408,-0.076 -0.283983,-0.23084 -0.337567,-0.37349 -0.102504,-0.27287 -0.08451,-0.7567 0.0432,-1.16156 0.339269,-1.07555 1.474669,-1.95602 3.058749,-2.37196 1.881684,-0.49408 3.739624,-0.14198 4.856209,0.92032 0.928614,0.88346 1.26529,2.20669 0.900909,3.5408 -0.150714,0.55181 -0.479078,1.15515 -0.95435,1.75351 -0.118209,0.14883 -0.635401,0.68627 -1.267387,1.317 -1.051081,1.04901 -1.314049,1.33506 -1.618458,1.76055 -0.404087,0.56481 -0.67751,1.19376 -0.790907,1.81929 -0.04599,0.25369 -0.0955,1.07146 -0.07357,1.21512 0.03867,0.25333 0.261312,0.3612 0.498934,0.24173 z"
         id="path919"
         inkscape:connector-curvature="0" />
      <path
         style="fill:#a8a8a8;stroke-width:0.99999994"
         d="m -10.111305,251.23485 c -0.510468,-0.13785 -0.855584,-0.46843 -1.034557,-0.99099 -0.0691,-0.20174 -0.07579,-0.24754 -0.07609,-0.52052 -3.64e-4,-0.33416 0.03645,-0.51121 0.156762,-0.75387 0.198178,-0.3997 0.545693,-0.67494 1.001905,-0.79354 0.209457,-0.0544 0.630497,-0.0551 0.83809,-0.001 0.278392,0.0722 0.540777,0.21927 0.729069,0.40871 0.186798,0.18795 0.291242,0.36481 0.376231,0.63711 0.04764,0.15265 0.05581,0.2281 0.05447,0.50286 -0.0014,0.28336 -0.0094,0.3469 -0.06524,0.51483 -0.173177,0.52119 -0.565722,0.88671 -1.080483,1.00608 -0.09032,0.021 -0.19239,0.0337 -0.226819,0.0284 -0.055,-0.008 -0.05327,-0.0101 0.01431,-0.0133 0.124517,-0.006 0.428143,-0.11205 0.557558,-0.1951 0.624695,-0.40087 0.71411,-1.44206 0.170423,-1.98449 -0.251065,-0.25049 -0.560469,-0.37175 -0.948564,-0.37175 -0.517434,0 -0.92539,0.23297 -1.147227,0.65512 -0.206221,0.39244 -0.204898,0.91301 0.0033,1.30176 0.164463,0.30708 0.535275,0.54597 0.928409,0.59811 0.06732,0.009 0.06657,0.01 -0.01197,0.0117 -0.0461,0.001 -0.153908,-0.0168 -0.239584,-0.0399 z m -0.286748,-6.13896 c 4.88e-4,-0.80788 0.02265,-1.09065 0.116133,-1.4819 0.146169,-0.61174 0.460094,-1.25778 0.887497,-1.82641 0.29987,-0.39895 0.57135,-0.68887 1.616428,-1.72622 1.040036,-1.03234 1.27529,-1.29326 1.576098,-1.74802 0.507184,-0.76676 0.731233,-1.61917 0.641802,-2.4418 -0.08283,-0.76191 -0.348126,-1.31894 -0.882839,-1.85365 -0.210083,-0.21009 -0.215565,-0.21788 -0.07636,-0.10856 0.529175,0.41558 0.983324,1.15235 1.135331,1.84185 0.222955,1.01133 0.0071,2.04761 -0.625917,3.00515 -0.310583,0.4698 -0.587774,0.77908 -1.598825,1.78394 -0.5433,0.53997 -1.06754,1.07335 -1.164979,1.1853 -0.518547,0.59574 -0.836483,1.09208 -1.058364,1.65223 -0.216386,0.54628 -0.301594,1.02453 -0.310019,1.74006 -0.0045,0.38522 -3.42e-4,0.43634 0.04286,0.52245 0.04421,0.0881 0.08958,0.12417 0.215509,0.17126 0.05202,0.0195 -0.159209,0.0486 -0.389113,0.0538 l -0.125713,0.003 4.66e-4,-0.77224 z m 1.005241,0.74977 c -0.09855,-0.0117 -0.119644,-0.0204 -0.08381,-0.0344 0.02634,-0.0104 0.07277,-0.0288 0.10317,-0.0409 0.1002,-0.0401 0.142908,-0.19098 0.170225,-0.60138 0.0386,-0.57992 0.132156,-0.95241 0.34579,-1.37674 0.416797,-0.82786 0.973735,-1.38684 2.397939,-2.40674 1.433984,-1.0269 1.935591,-1.45504 2.399195,-2.04781 0.429328,-0.54893 0.694112,-1.14966 0.82615,-1.87432 0.06672,-0.3662 0.0736,-1.13348 0.01352,-1.50856 -0.132164,-0.82508 -0.451821,-1.522 -0.974638,-2.12492 -0.564808,-0.65134 -1.510409,-1.21901 -2.518573,-1.51197 -1.752652,-0.50931 -3.969747,-0.35648 -5.613916,0.38697 -1.768252,0.79957 -2.703792,2.24125 -2.637189,4.06394 0.04601,1.25912 0.516312,2.05972 1.39366,2.37244 0.06585,0.0235 0.108145,0.0435 0.09399,0.0444 -0.01416,9.6e-4 -0.104355,-0.025 -0.200445,-0.0577 -0.967819,-0.32918 -1.555554,-1.38396 -1.557313,-2.79484 -0.0024,-1.89704 0.984113,-3.34189 2.85181,-4.17692 1.406537,-0.62885 3.293328,-0.84656 4.929522,-0.5688 0.686848,0.1166 1.428926,0.36438 2.011911,0.67177 1.368314,0.72148 2.223787,1.85443 2.46501,3.26456 0.170089,0.9943 0.03258,2.03267 -0.382123,2.88542 -0.250168,0.51443 -0.566543,0.93637 -1.068816,1.42546 -0.402643,0.39207 -0.786885,0.69599 -1.729776,1.36819 -0.913645,0.65134 -1.281631,0.94108 -1.651464,1.30029 -0.517586,0.50272 -0.798645,0.91223 -0.98107,1.42945 -0.136057,0.38576 -0.154875,0.52456 -0.169892,1.25317 l -0.01382,0.67047 -0.143673,0.003 c -0.07902,10e-4 -0.202937,-0.004 -0.275372,-0.0131 z m -3.04556,-6.62678 c 0.01729,-0.007 0.03794,-0.006 0.0459,0.002 0.008,0.008 -0.0062,0.0136 -0.03143,0.0126 -0.0279,-10e-4 -0.03357,-0.007 -0.01447,-0.0145 z m -0.981763,-0.0239 c 0.01729,-0.007 0.03794,-0.006 0.0459,0.002 0.008,0.008 -0.0062,0.0136 -0.03143,0.0126 -0.0279,-9.9e-4 -0.03357,-0.007 -0.01447,-0.0145 z m 1.212661,-0.0414 c 0.442506,-0.16134 0.671046,-0.46538 0.735468,-0.97842 0.06476,-0.51574 -0.128152,-1.0109 -0.482411,-1.23823 -0.301507,-0.19348 -0.650711,-0.22355 -1.148691,-0.0989 -0.163939,0.041 -0.341734,0.0745 -0.395099,0.0745 -0.405693,-5.6e-4 -0.61952,-0.32604 -0.579996,-0.88286 0.01658,-0.23361 0.09945,-0.54653 0.208292,-0.78659 0.171398,-0.37801 0.593477,-0.89475 0.924373,-1.13168 0.0795,-0.0569 0.03556,-0.005 -0.138187,0.1621 -0.531965,0.51277 -0.762937,0.99677 -0.762937,1.59872 0,0.25016 0.05334,0.64654 0.09245,0.68694 0.0094,0.01 0.05856,-0.0105 0.109262,-0.045 0.152966,-0.10395 0.470111,-0.24061 0.653082,-0.28142 0.21815,-0.0487 0.623039,-0.0501 0.804552,-0.003 0.486805,0.1268 0.84871,0.51416 0.963839,1.03165 0.06233,0.28018 0.04009,0.77173 -0.04639,1.02529 -0.14432,0.42313 -0.380505,0.6799 -0.771565,0.8388 -0.07772,0.0316 -0.184345,0.0644 -0.236947,0.073 -0.0723,0.0118 -0.055,7.9e-4 0.0709,-0.0451 z"
         id="path917"
         inkscape:connector-curvature="0" />
      <path
         style="fill:#919090;stroke-width:0.99999994"
         d="m -8.327041,250.5734 c 0.0092,-0.0263 0.03887,-0.10715 0.06599,-0.17959 0.07611,-0.20333 0.06955,-0.59458 -0.01425,-0.85006 -0.118614,-0.36161 -0.36819,-0.65417 -0.693561,-0.81301 -0.234126,-0.1143 -0.417128,-0.15678 -0.675373,-0.15678 -0.40418,0 -0.750516,0.13786 -1.016159,0.40448 -0.278692,0.27972 -0.41464,0.61843 -0.414312,1.03225 1.44e-4,0.18473 0.01174,0.25881 0.0617,0.39422 0.03383,0.0917 0.05786,0.17039 0.05339,0.17486 -0.01907,0.0191 -0.11062,-0.1644 -0.170468,-0.3416 -0.08697,-0.2575 -0.107259,-0.64099 -0.04801,-0.9073 0.152443,-0.6852 0.709005,-1.1421 1.43906,-1.18136 0.799356,-0.043 1.457471,0.42362 1.628708,1.15479 0.08255,0.35249 0.03117,0.84173 -0.118597,1.12912 -0.07386,0.14174 -0.123309,0.21229 -0.09811,0.13998 z m -2.042566,-4.72746 c -0.01105,-0.008 -0.01841,-0.37471 -0.01636,-0.8159 0.0041,-0.87511 0.02116,-1.04635 0.154116,-1.54448 0.185842,-0.69625 0.533608,-1.32713 1.121967,-2.03537 0.09847,-0.11853 0.671244,-0.70579 1.272836,-1.30502 0.656084,-0.65351 1.173756,-1.19014 1.293594,-1.34095 0.407141,-0.51236 0.682422,-0.98999 0.835003,-1.44876 0.186525,-0.56084 0.225898,-1.09133 0.135066,-1.81979 -0.0262,-0.21012 0.0585,0.14133 0.09811,0.40708 0.05299,0.35554 0.03492,1.02634 -0.03634,1.3493 -0.101838,0.46152 -0.298933,0.92573 -0.570877,1.34456 -0.338844,0.52186 -0.577815,0.78939 -1.743216,1.95155 -1.307088,1.30345 -1.605576,1.66851 -1.977034,2.41798 -0.339704,0.6854 -0.476234,1.30967 -0.475915,2.17609 1.44e-4,0.38463 0.02188,0.51635 0.09775,0.59221 0.05134,0.0513 0.04173,0.0593 -0.09134,0.0757 -0.0425,0.005 -0.08631,0.003 -0.09736,-0.004 z m 1.246181,0.003 c -0.101752,-0.008 -0.132646,-0.0357 -0.06685,-0.0609 0.05897,-0.0226 0.103896,-0.25108 0.118446,-0.60233 0.0076,-0.18438 0.02484,-0.40527 0.03822,-0.49088 0.02782,-0.17791 0.09802,-0.48469 0.108473,-0.47406 0.0039,0.004 -0.008,0.12027 -0.02628,0.25855 -0.02004,0.15142 -0.03349,0.47232 -0.0338,0.80675 -2.85e-4,0.30542 -0.0086,0.55872 -0.01848,0.56288 -0.0099,0.004 -0.06376,0.004 -0.119727,5e-5 z m -2.289305,-7.368 c 0.04862,-0.12927 0.0657,-0.22592 0.07466,-0.42248 0.02109,-0.46264 -0.09493,-0.7948 -0.375803,-1.07586 -0.352509,-0.35274 -0.775017,-0.4337 -1.426384,-0.27334 -0.286047,0.0704 -0.427027,0.0699 -0.56626,-0.002 -0.112777,-0.0583 -0.136916,-0.0891 -0.189105,-0.24073 -0.05793,-0.16837 -0.06299,-0.51881 -0.01139,-0.7885 0.01949,-0.10186 0.03835,-0.18811 0.0419,-0.19167 0.0036,-0.004 0.0065,0.15696 0.0065,0.3567 0,0.35252 0.04354,0.72142 0.08843,0.74916 0.01184,0.007 0.09013,-0.0314 0.173965,-0.086 0.298196,-0.19428 0.693106,-0.3126 1.039783,-0.31153 0.507994,0.002 0.982057,0.28156 1.18719,0.70119 0.130893,0.26775 0.167077,0.43869 0.165744,0.78301 -0.0013,0.32436 -0.03862,0.52744 -0.137102,0.74522 -0.09471,0.20942 -0.14413,0.24846 -0.0721,0.0569 z m 8.080074,-0.20482 c -0.0011,-0.007 0.03594,-0.12579 0.08226,-0.26333 0.160168,-0.47561 0.191244,-0.70007 0.190452,-1.37565 -6.54e-4,-0.55765 -0.0051,-0.61922 -0.06507,-0.89937 -0.09305,-0.43481 -0.187949,-0.70857 -0.377169,-1.0881 -0.266105,-0.53373 -0.626091,-0.98773 -1.088433,-1.37268 -1.362934,-1.13479 -3.446355,-1.61218 -5.65226,-1.29516 -2.368191,0.34035 -4.036439,1.48867 -4.630156,3.18716 -0.179206,0.51267 -0.269974,1.2368 -0.221519,1.76724 0.02902,0.31767 0.10904,0.69389 0.192774,0.90633 0.06136,0.15566 0.06182,0.18564 0.0012,0.0757 -0.06842,-0.12405 -0.205907,-0.55807 -0.249002,-0.78602 -0.120511,-0.63745 -0.09083,-1.37735 0.08133,-2.02756 0.367213,-1.38686 1.394354,-2.43731 2.994289,-3.06225 1.355377,-0.52941 3.099291,-0.69789 4.594344,-0.44385 1.675988,0.28478 3.05708,1.09319 3.822937,2.23773 0.48913,0.73098 0.727791,1.55052 0.728486,2.50155 4.14e-4,0.56619 -0.06657,1.03169 -0.212462,1.47658 -0.06424,0.19588 -0.187466,0.49225 -0.191985,0.46172 z"
         id="path915"
         inkscape:connector-curvature="0" />
      <path
         style="fill:#717170;stroke-width:0.99999994"
         d="m -11.176218,249.51069 c 0.02493,-0.35649 0.214314,-0.74539 0.473322,-0.97196 0.475465,-0.41593 1.251282,-0.49508 1.844078,-0.18814 0.214653,0.11115 0.476477,0.36805 0.586043,0.57504 0.0948,0.1791 0.173656,0.47375 0.171253,0.63992 l -0.0018,0.12188 -0.04186,-0.16762 c -0.05028,-0.20135 -0.105412,-0.31217 -0.25284,-0.50829 -0.110177,-0.14657 -0.328572,-0.33024 -0.491519,-0.41337 -0.318252,-0.16236 -0.791334,-0.21348 -1.145907,-0.12381 -0.319737,0.0808 -0.490394,0.17778 -0.722453,0.41033 -0.22099,0.22146 -0.316019,0.37959 -0.388242,0.64605 l -0.04247,0.15671 0.01236,-0.17674 z m 0.874456,-5.53759 c -0.0051,-0.20489 0.187639,-0.84822 0.368458,-1.22985 0.375412,-0.79234 0.777173,-1.28403 2.132663,-2.61005 0.484655,-0.47412 0.983198,-0.98057 1.107873,-1.12544 0.439172,-0.51031 0.717543,-0.93492 0.921026,-1.40487 0.05548,-0.12814 0.10457,-0.22927 0.109091,-0.22475 0.02123,0.0212 -0.131439,0.41578 -0.269203,0.69575 -0.34637,0.70389 -0.586765,0.99771 -1.842432,2.25186 -0.554355,0.55368 -1.105083,1.11939 -1.22384,1.25713 -0.682358,0.79144 -1.035681,1.41186 -1.233554,2.16608 -0.03801,0.14488 -0.06954,0.24573 -0.07008,0.22414 z m -0.966187,-6.49145 c -0.03195,-0.18702 -0.171761,-0.43432 -0.341486,-0.60404 -0.369731,-0.36973 -0.871773,-0.47825 -1.494919,-0.32314 -0.191144,0.0476 -0.455383,0.0543 -0.497012,0.0127 -0.03817,-0.0382 0.336973,-0.23237 0.568848,-0.29448 0.243017,-0.0651 0.730275,-0.058 0.933872,0.0135 0.19059,0.067 0.376475,0.18648 0.514995,0.33105 0.202087,0.21091 0.358995,0.60834 0.342248,0.86687 l -0.0072,0.11085 z m 8.246512,-1.85219 c 0.0011,-0.0279 0.0068,-0.0336 0.01447,-0.0145 0.0069,0.0173 0.0061,0.0379 -0.0019,0.0459 -0.008,0.008 -0.01362,-0.006 -0.01258,-0.0314 z m -12.116638,-0.0271 c -0.0042,-0.0743 0.100958,-0.54249 0.167965,-0.74794 0.09606,-0.29454 0.319751,-0.75305 0.48158,-0.98714 0.747878,-1.08184 2.061356,-1.85122 3.731269,-2.18563 0.663114,-0.13279 1.0309,-0.16646 1.831385,-0.16766 0.75517,-0.001 0.897562,0.009 1.472643,0.10916 0.995672,0.17269 1.905222,0.53881 2.657943,1.06991 0.350736,0.24747 0.884406,0.79183 1.108294,1.1305 0.297363,0.44982 0.507137,0.93713 0.616716,1.43264 0.06448,0.29155 0.05609,0.37128 -0.01177,0.11184 -0.201872,-0.77183 -0.568523,-1.38725 -1.178205,-1.9776 -0.880757,-0.85284 -2.090886,-1.38291 -3.63597,-1.59269 -0.382683,-0.0519 -1.50475,-0.0602 -1.927607,-0.0142 -1.091138,0.11878 -1.998824,0.36752 -2.79886,0.76702 -1.298853,0.64857 -2.134301,1.61099 -2.445747,2.81744 -0.0374,0.14487 -0.06874,0.25032 -0.06964,0.23432 z"
         id="path913"
         inkscape:connector-curvature="0" />
    </g>
    <path
       sodipodi:nodetypes="ccccsccsc"
       inkscape:connector-curvature="0"
       id="path1355-8"
       d="m 19.751144,265.48426 c 0.01633,0.0263 0.561139,0.90462 0.727791,1.39886 0.451585,1.01234 0.25858,3.97236 0.250369,5.65885 0.02772,-0.19401 4.690513,-1.39583 7.111042,0.80464 -0.01547,-0.0273 -0.04888,-0.0804 -0.12512,-0.18628 -0.07235,-0.10046 -0.182749,-0.24915 -0.371644,-0.44224 -0.528108,-0.60452 -0.230926,-0.0845 -0.805409,-0.682 -0.496688,-0.45047 -1.569491,-1.52048 -2.867987,-2.79805 -1.241182,-1.22116 -2.686924,-2.62954 -3.919042,-3.75378 z"
       style="opacity:0.24800002;fill:#000000;fill-opacity:1;stroke:none;stroke-width:0.30000001;stroke-miterlimit:4;stroke-dasharray:none;stroke-opacity:1" />
    <path
       style="opacity:1;fill:#ffffff;fill-opacity:1;stroke:#808080;stroke-width:0.30000001;stroke-miterlimit:4;stroke-dasharray:none;stroke-opacity:1"
       d="m 19.42404,264.96145 c 0.01548,0.0249 0.53209,0.85773 0.690114,1.32635 0.428208,0.95987 0.292236,3.21802 0.28445,4.8171 0.428992,-0.0223 5.159507,-0.73701 7.328403,1.82407 -0.02928,-0.0506 -0.102779,-0.0927 -0.143771,-0.17312 -0.500768,-0.57318 -1.139582,-1.03373 -1.723521,-1.58216 -0.470975,-0.42712 -1.488241,-1.44167 -2.719516,-2.65302 -1.176928,-1.15787 -2.547826,-2.49325 -3.716159,-3.55922 z"
       id="path4753-0"
       inkscape:connector-curvature="0"
       sodipodi:nodetypes="ccccccsc" />
    <g
       style="stroke-width:4.08449793"
       inkscape:transform-center-y="-9.4924686"
       inkscape:transform-center-x="5.4653607"
       inkscape:label="Capa 1"
       id="layer1-4-3"
       transform="matrix(0.53602412,0,0,0.5372689,-234.93365,-13.785303)">
      <g
         style="stroke-width:4.08449793"
         id="layer1-3-65-9"
         inkscape:label="Capa 1"
         transform="translate(0.41988239,0.03484499)" />
    </g>
    <g
       style="stroke-width:4.08449793"
       inkscape:transform-center-y="-9.4924686"
       inkscape:transform-center-x="5.4653607"
       inkscape:label="Capa 1"
       id="layer1-4"
       transform="matrix(0.53602412,0,0,0.5372689,-234.93365,-13.7603)">
      <g
         style="stroke-width:4.08449793"
         id="layer1-3-65"
         inkscape:label="Capa 1"
         transform="translate(0.41988239,0.03484499)" />
    </g>
  </g>
</svg>
