<?xml version="1.0" encoding="UTF-8" standalone="no"?>
<!-- Created with Inkscape (http://www.inkscape.org/) -->

<svg
   xmlns:osb="http://www.openswatchbook.org/uri/2009/osb"
   xmlns:dc="http://purl.org/dc/elements/1.1/"
   xmlns:cc="http://creativecommons.org/ns#"
   xmlns:rdf="http://www.w3.org/1999/02/22-rdf-syntax-ns#"
   xmlns:svg="http://www.w3.org/2000/svg"
   xmlns="http://www.w3.org/2000/svg"
   xmlns:xlink="http://www.w3.org/1999/xlink"
   xmlns:sodipodi="http://sodipodi.sourceforge.net/DTD/sodipodi-0.dtd"
   xmlns:inkscape="http://www.inkscape.org/namespaces/inkscape"
   width="128"
   height="128"
   viewBox="0 0 33.866666 33.866668"
   version="1.1"
   id="svg868"
   inkscape:version="0.92.2 5c3e80d, 2017-08-06"
   sodipodi:docname="x-office-contact.svg">
  <defs
     id="defs862">
    <linearGradient
       id="linearGradient1418"
       inkscape:collect="always">
      <stop
         id="stop1414"
         offset="0"
         style="stop-color:#e5e5e5;stop-opacity:1" />
      <stop
         id="stop1416"
         offset="1"
         style="stop-color:#fafafa;stop-opacity:1" />
    </linearGradient>
    <linearGradient
       id="linearGradient1394"
       inkscape:collect="always">
      <stop
         id="stop1390"
         offset="0"
         style="stop-color:#666666;stop-opacity:1" />
      <stop
         id="stop1392"
         offset="1"
         style="stop-color:#333333;stop-opacity:1" />
    </linearGradient>
    <linearGradient
       id="linearGradient1384"
       inkscape:collect="always">
      <stop
         id="stop1380"
         offset="0"
         style="stop-color:#fdfdfd;stop-opacity:1" />
      <stop
         id="stop1382"
         offset="1"
         style="stop-color:#b2bdca;stop-opacity:1" />
    </linearGradient>
    <linearGradient
       osb:paint="solid"
       id="linearGradient6987">
      <stop
         id="stop6985"
         offset="0"
         style="stop-color:#77d2fb;stop-opacity:1;" />
    </linearGradient>
    <radialGradient
       gradientUnits="userSpaceOnUse"
       gradientTransform="matrix(0.20166483,0,0,0.203171,69.134773,252.9591)"
       r="35.237911"
       fy="123.45846"
       fx="-286.15668"
       cy="123.45846"
       cx="-286.15668"
       id="radialGradient1388"
       xlink:href="#linearGradient1384"
       inkscape:collect="always" />
    <radialGradient
       gradientUnits="userSpaceOnUse"
       gradientTransform="matrix(0.20165371,-0.00211973,0.00364342,0.34716898,68.544498,228.3519)"
       r="35.446533"
       fy="161.13576"
       fx="-286.57184"
       cy="161.13576"
       cx="-286.57184"
       id="radialGradient1400"
       xlink:href="#linearGradient1394"
       inkscape:collect="always" />
    <linearGradient
       gradientTransform="matrix(0.20166483,0,0,0.20182902,32.924762,265.54656)"
       gradientUnits="userSpaceOnUse"
       y2="117.36597"
       x2="-59.692326"
       y1="54.72073"
       x1="-107.93641"
       id="linearGradient1420"
       xlink:href="#linearGradient1418"
       inkscape:collect="always" />
  </defs>
  <sodipodi:namedview
     id="base"
     pagecolor="#ffffff"
     bordercolor="#666666"
     borderopacity="1.0"
     inkscape:pageopacity="0.0"
     inkscape:pageshadow="2"
     inkscape:zoom="256"
     inkscape:cx="-31685.953"
     inkscape:cy="29300.042"
     inkscape:document-units="mm"
     inkscape:current-layer="layer1"
     showgrid="false"
     units="px"
     inkscape:window-width="1600"
     inkscape:window-height="814"
     inkscape:window-x="0"
     inkscape:window-y="0"
     inkscape:window-maximized="1" />
  <metadata
     id="metadata865">
    <rdf:RDF>
      <cc:Work
         rdf:about="">
        <dc:format>image/svg+xml</dc:format>
        <dc:type
           rdf:resource="http://purl.org/dc/dcmitype/StillImage" />
        <dc:title />
      </cc:Work>
    </rdf:RDF>
  </metadata>
  <g
     inkscape:label="Layer 1"
     inkscape:groupmode="layer"
     id="layer1"
     transform="translate(0,-263.13332)">
    <path
       inkscape:connector-curvature="0"
       id="path1427"
       d="m 1.0834473,267.49594 c -0.42637993,0 -0.76961548,0.34351 -0.76961548,0.77024 v 24.18411 c 0,0.42672 0.34323555,0.77034 0.76961548,0.77034 H 7.712031 v -1.30956 H 6.726382 c -0.2647958,0 -0.4779213,-0.21341 -0.4779213,-0.47842 v -1.34534 c 0,-0.26501 0.2131255,-0.47841 0.4779213,-0.47841 h 3.351078 c 0.264796,0 0.477922,0.2134 0.477922,0.47841 v 1.34534 c 0,0.26501 -0.213126,0.47842 -0.477922,0.47842 H 9.0725324 v 1.30956 H 24.555279 v -1.30956 H 23.56963 c -0.264796,0 -0.477921,-0.21341 -0.477921,-0.47842 v -1.34534 c 0,-0.26501 0.213125,-0.47841 0.477921,-0.47841 h 3.351078 c 0.264797,0 0.477922,0.2134 0.477922,0.47841 v 1.34534 c 0,0.26501 -0.213125,0.47842 -0.477922,0.47842 h -1.004927 v 1.30956 h 6.867439 c 0.426379,0 0.769614,-0.34362 0.769614,-0.77034 v -24.18411 c 0,-0.42673 -0.343235,-0.77024 -0.769614,-0.77024 z"
       style="opacity:0.25;fill:#000000;fill-opacity:1;fill-rule:nonzero;stroke:none;stroke-width:0.52916664;stroke-linecap:round;stroke-linejoin:round;stroke-miterlimit:4;stroke-dasharray:none;stroke-opacity:1" />
    <path
       style="opacity:1;fill:url(#linearGradient1420);fill-opacity:1;fill-rule:nonzero;stroke:#999999;stroke-width:0.3;stroke-linecap:round;stroke-linejoin:round;stroke-miterlimit:4;stroke-dasharray:none;stroke-opacity:1"
       d="m 1.0834478,266.96193 c -0.42637983,0 -0.76961538,0.34352 -0.76961538,0.77024 v 24.18411 c 0,0.42672 0.34323555,0.77034 0.76961538,0.77034 h 6.6285837 v -1.30956 H 6.7263828 c -0.2647961,0 -0.4779216,-0.2134 -0.4779216,-0.47842 v -1.34534 c 0,-0.26501 0.2131255,-0.47841 0.4779216,-0.47841 h 3.3510782 c 0.264796,0 0.477921,0.2134 0.477921,0.47841 v 1.34534 c 0,0.26502 -0.213125,0.47842 -0.477921,0.47842 H 9.0725332 v 1.30956 H 24.55528 v -1.30956 h -0.985649 c -0.264796,0 -0.477921,-0.2134 -0.477921,-0.47842 v -1.34534 c 0,-0.26501 0.213125,-0.47841 0.477921,-0.47841 h 3.35108 c 0.264794,0 0.477919,0.2134 0.477919,0.47841 v 1.34534 c 0,0.26502 -0.213125,0.47842 -0.477919,0.47842 h -1.00493 v 1.30956 h 6.867442 c 0.426376,0 0.769611,-0.34362 0.769611,-0.77034 v -24.18411 c 0,-0.42672 -0.343235,-0.77024 -0.769611,-0.77024 z"
       id="rect1402"
       inkscape:connector-curvature="0" />
    <rect
       y="270.33603"
       x="3.2847381"
       height="16.423544"
       width="16.284594"
       id="rect1440"
       style="opacity:0.25;fill:#000000;fill-opacity:1;fill-rule:nonzero;stroke:none;stroke-width:0.52446204;stroke-linecap:round;stroke-linejoin:round;stroke-miterlimit:4;stroke-dasharray:none;stroke-opacity:1" />
    <path
       id="path1310"
       style="fill:#666666;fill-opacity:1;stroke-width:0.17638889"
       d="m 27.073859,273.08604 c -1.594409,0.003 -2.879299,0.53242 -3.985217,1.64249 -0.765844,0.76872 -1.170356,1.5071 -1.392286,2.54122 -0.103315,0.4814 -0.112149,1.41905 -0.01773,1.8757 0.250284,1.21025 0.885899,2.17385 1.863857,2.82543 0.690393,0.45999 1.365831,0.68939 2.517581,0.85514 v 1.1e-4 c 0.05869,0.008 0.442866,0.01 0.853715,0.004 0.821902,-0.0129 1.168313,-0.0648 1.79632,-0.26909 0.679028,-0.22093 1.814144,-0.84364 1.814144,-0.99521 0,-0.0732 -0.164371,-0.2839 -0.221453,-0.2839 -0.02049,0 -0.143147,0.0697 -0.272515,0.15478 -1.061748,0.6984 -2.233599,1.02938 -3.450399,0.97456 -0.695116,-0.0313 -1.44765,-0.21343 -1.978276,-0.47873 -0.913548,-0.45676 -1.600741,-1.23408 -1.897097,-2.14583 -0.251162,-0.77272 -0.245725,-2.0082 0.01272,-2.90073 0.49999,-1.72678 1.907643,-2.98092 3.67841,-3.27726 0.48248,-0.0807 1.433948,-0.0558 1.889904,0.0495 1.091358,0.25215 1.911848,0.87048 2.345321,1.76744 0.267421,0.55336 0.30272,0.73366 0.302115,1.54862 -5e-4,0.64764 -0.0071,0.71805 -0.09879,1.05017 -0.292455,1.05966 -1.039813,1.92142 -1.849469,2.13248 -0.260582,0.0679 -0.428158,0.0259 -0.527111,-0.13215 -0.05908,-0.0945 -0.06898,-0.16119 -0.05868,-0.39831 0.01027,-0.23611 0.09903,-0.59146 0.5194,-2.07866 0.278887,-0.98664 0.498655,-1.81568 0.488448,-1.84232 -0.01439,-0.0375 -0.124981,-0.0483 -0.490952,-0.0479 -0.259837,2.5e-4 -0.491067,0.0124 -0.51377,0.0268 -0.02271,0.0145 -0.08549,0.17441 -0.139641,0.35545 -0.05416,0.18105 -0.107611,0.32909 -0.118805,0.32906 -0.01119,-5e-5 -0.06638,-0.0883 -0.122657,-0.19608 -0.245525,-0.47027 -0.742731,-0.68142 -1.384161,-0.58782 -1.105537,0.16132 -2.122493,1.14502 -2.44818,2.36819 -0.09934,0.37303 -0.107189,1.03099 -0.01636,1.37068 0.24802,0.92759 1.043659,1.43448 1.948369,1.24136 0.425827,-0.0909 0.779694,-0.32408 1.101116,-0.7255 l 0.185607,-0.23175 0.06138,0.19858 c 0.165847,0.53645 0.550433,0.79952 1.167816,0.79851 0.602498,-0.001 1.194814,-0.29078 1.701066,-0.83241 0.649508,-0.69488 1.010351,-1.57745 1.064125,-2.60265 0.0753,-1.43564 -0.514327,-2.64926 -1.645632,-3.38729 -0.751002,-0.48992 -1.553654,-0.69831 -2.682236,-0.69629 z m -0.05356,2.90564 c 0.257811,-0.009 0.4918,0.12308 0.631426,0.39029 0.105911,0.20268 0.128142,0.77421 0.047,1.20756 -0.203884,1.08892 -0.832708,2.2177 -1.37655,2.47092 -0.31665,0.14744 -0.634846,0.1241 -0.831727,-0.061 -0.132674,-0.12474 -0.236479,-0.41206 -0.256264,-0.70923 -0.03514,-0.52791 0.15187,-1.2524 0.521171,-2.0191 0.246217,-0.51116 0.431109,-0.79398 0.653317,-0.99897 0.196091,-0.1809 0.411102,-0.2734 0.611625,-0.28046 z"
       inkscape:connector-curvature="0" />
    <rect
       style="opacity:1;fill:#ffffff;fill-opacity:1;fill-rule:nonzero;stroke:none;stroke-width:0.52446204;stroke-linecap:round;stroke-linejoin:round;stroke-miterlimit:4;stroke-dasharray:none;stroke-opacity:1"
       id="rect1294"
       width="16.284594"
       height="16.423542"
       x="3.2847388"
       y="269.83054" />
    <rect
       y="270.88297"
       x="4.3207884"
       height="14.318643"
       width="14.212495"
       id="rect1296"
       style="opacity:1;fill:url(#radialGradient1388);fill-opacity:1;fill-rule:nonzero;stroke:none;stroke-width:0.45748648;stroke-linecap:round;stroke-linejoin:round;stroke-miterlimit:4;stroke-dasharray:none;stroke-opacity:1" />
    <path
       id="path961"
       style="fill:url(#radialGradient1400);fill-opacity:1;stroke-width:0.17638889"
       d="m 11.214058,272.59465 1.07e-4,10e-5 h -2.02e-4 c -0.61806,0 -1.2193012,0.21876 -1.5248457,0.55477 -0.1323426,0.14553 -0.1560985,0.15717 -0.3192073,0.15717 -0.1589904,0 -0.1876652,0.0131 -0.2928375,0.13298 -0.2284036,0.26035 -0.5667245,1.10918 -0.5667125,1.422 4.2e-6,0.0944 0.024752,0.29987 0.054922,0.45651 0.030171,0.15665 0.070052,0.49578 0.088686,0.75366 0.018635,0.25788 0.050555,0.51257 0.070863,0.56603 0.031008,0.0816 0.024484,0.11052 -0.040746,0.18002 -0.073035,0.0778 -0.076512,0.10563 -0.056587,0.46631 0.018493,0.33501 0.089939,0.74867 0.2054036,1.19004 0.047063,0.17989 0.1380921,0.28071 0.2796043,0.30966 0.1051705,0.0215 0.1256272,0.0444 0.1645525,0.18399 0.024455,0.0877 0.063059,0.29243 0.085768,0.45494 0.058686,0.41997 0.1214207,0.57134 0.3080532,0.74282 0.213583,0.19625 0.2087733,0.30513 -0.014905,0.335 -0.1920414,0.0256 -0.2418123,0.0781 -0.4696875,0.49573 -0.1015039,0.18601 -0.211718,0.36651 -0.2449016,0.40102 -0.033184,0.0345 -0.5638933,0.24506 -1.1793805,0.46788 -0.615489,0.22283 -1.2632081,0.46454 -1.4392877,0.53714 -0.1760777,0.0726 -0.5505816,0.22623 -0.8322468,0.34137 -0.5624291,0.22992 -0.6137181,0.25811 -0.8790387,0.48352 -0.099931,0.0849 -0.191902,0.15436 -0.2044659,0.15436 -0.00307,0 -0.00569,-0.007 -0.00803,-0.0185 -0.00237,0.002 -0.00456,0.004 -0.00688,0.006 -9.994e-4,0.002 -0.00215,0.004 -0.00302,0.006 -0.00516,0.008 -0.011334,0.0149 -0.017506,0.0219 -0.011234,0.0128 -0.024554,0.023 -0.03491,0.0365 -0.00718,0.002 -0.00587,0.01 -0.0097,0.0137 -0.00583,0.006 -0.015932,0.0139 -0.023133,0.0186 -0.011899,0.008 -0.010424,0.002 -0.011052,0.01 -0.00292,0.003 -0.0055,0.006 -0.00875,0.009 -0.00142,10e-4 -0.00284,0.002 -0.00428,0.003 0.00247,0.9959 0.00563,1.76573 0.010527,1.77369 0.043162,0.0641 14.2345961,0.064 14.2741851,-5e-4 0.0052,-0.008 0.0085,-0.82715 0.01093,-1.89123 -0.0021,-10e-4 -0.0012,0 -0.0048,-0.003 -2.01e-4,-1.6e-4 -5.99e-4,-5e-4 -8.24e-4,-7.5e-4 -0.01154,-0.004 -0.02508,-0.0108 -0.0296,-0.0205 l -1.07e-4,-1.1e-4 c -3.99e-4,-10e-4 -9.99e-4,-0.002 -0.0012,-0.003 -8.24e-4,-10e-4 -0.0042,-0.005 -0.0071,-0.009 -8.24e-4,-2e-4 -0.002,-10e-4 -0.0035,-0.002 0.0014,0.002 0.0033,0.006 0.0026,0.004 -8.24e-4,-0.002 -0.003,-0.004 -0.0047,-0.006 -0.01625,-0.0111 -0.01561,-0.012 -0.02115,-0.027 1.2e-5,5e-4 4e-4,10e-4 4e-4,10e-4 -6e-4,0.003 -0.0053,-0.005 -0.0043,-0.007 -0.0014,-10e-4 3.99e-4,5e-4 -0.0018,-10e-4 -0.0059,-0.003 -0.01194,-0.008 -0.01803,-0.0125 -0.0025,1.1e-4 -0.005,5e-4 -0.0074,-5e-4 -0.0083,-0.003 -0.01394,-0.0103 -0.02074,-0.0157 -5.3e-5,2.1e-4 -1.07e-4,0.003 -2.02e-4,0.003 -0.01182,0.0118 -0.04872,0.002 -0.08202,-0.0211 -0.483336,-0.33986 -1.463457,-0.76821 -3.155264,-1.37893 -0.469542,-0.16949 -0.917811,-0.34574 -0.996069,-0.39174 -0.197303,-0.11599 -0.638255,-0.57548 -0.717404,-0.7475 -0.05445,-0.11836 -0.08645,-0.14541 -0.18977,-0.1602 -0.117171,-0.0168 -0.124962,-0.0263 -0.135166,-0.16678 -0.0087,-0.11978 0.0032,-0.15654 0.06107,-0.18752 0.150739,-0.0807 0.249622,-0.32767 0.334941,-0.83616 l 0.08202,-0.48832 0.146731,-0.0657 c 0.23327,-0.10452 0.330301,-0.35485 0.451868,-1.16554 0.07767,-0.51789 0.07273,-0.70158 -0.02126,-0.78922 -0.08379,-0.0781 -0.08522,-0.0312 0.02314,-0.7864 0.06924,-0.48259 0.04936,-1.23113 -0.04075,-1.53559 -0.07362,-0.24873 -0.585013,-1.06507 -0.762424,-1.21705 -0.229301,-0.19643 -0.694323,-0.4026 -1.29516,-0.57406 -0.51258,-0.14627 -0.605093,-0.16208 -0.943443,-0.16208 z m 7.243859,9.87076 c 5.2e-5,0.0147 1.59e-4,0.0273 2.01e-4,0.0418 4e-4,7.5e-4 8.25e-4,0.002 0.001,0.002 z m -14.1123408,0.43222 -0.0012,0.001 c 5.997e-4,5e-4 9.994e-4,10e-4 0.00142,0.002 1.23e-5,-2e-4 -1.4e-5,-5e-4 0,-7.5e-4 3.03e-5,-7.5e-4 -2.014e-4,-0.002 -2.014e-4,-0.002 z m -0.028242,0.0465 c -5.22e-5,2e-4 -1.611e-4,5e-4 -2.014e-4,7.5e-4 -2e-6,10e-4 -1.069e-4,0.003 -1.069e-4,0.004 -6e-6,-0.002 3.998e-4,-0.003 3.998e-4,-0.005 z m -0.033557,0.1649 c 3.998e-4,10e-4 9.995e-4,0.002 0.0012,0.003 4.84e-5,-10e-4 3.998e-4,-0.002 3.998e-4,-0.003 -5.997e-4,-1e-4 -0.0012,-2e-4 -0.0016,-5e-4 z m -0.0012,0.0122 c -0.00142,10e-4 -0.00257,0.003 -0.00385,0.005 0,10e-4 -4.3e-6,0.002 0,0.003 0.00142,-0.002 0.00255,-0.005 0.00385,-0.007 z m 14.1972738,0.0864 c -5.99e-4,0.002 -9.99e-4,0.003 -9.99e-4,0.006 8.24e-4,5e-4 0.0016,10e-4 0.0025,10e-4 -1.5e-5,-10e-4 -5.3e-5,-0.002 0,-0.003 -4e-4,-0.001 -0.001,-0.003 -0.0014,-0.004 z"
       inkscape:connector-curvature="0" />
  </g>
</svg>
