<?xml version="1.0" encoding="UTF-8" standalone="no"?>
<svg
   xmlns:dc="http://purl.org/dc/elements/1.1/"
   xmlns:cc="http://creativecommons.org/ns#"
   xmlns:rdf="http://www.w3.org/1999/02/22-rdf-syntax-ns#"
   xmlns:svg="http://www.w3.org/2000/svg"
   xmlns="http://www.w3.org/2000/svg"
   xmlns:sodipodi="http://sodipodi.sourceforge.net/DTD/sodipodi-0.dtd"
   xmlns:inkscape="http://www.inkscape.org/namespaces/inkscape"
   version="1.1"
   id="Layer_1"
   x="0px"
   y="0px"
   width="150px"
   height="150px"
   viewBox="0 0 150 150"
   enable-background="new 0 0 150 150"
   xml:space="preserve"
   sodipodi:docname="boot.svg"
   inkscape:version="0.92.4 (5da689c313, 2019-01-14)"><metadata
   id="metadata8"><rdf:RDF><cc:Work
       rdf:about=""><dc:format>image/svg+xml</dc:format><dc:type
         rdf:resource="http://purl.org/dc/dcmitype/StillImage" /><dc:title></dc:title></cc:Work></rdf:RDF></metadata><defs
   id="defs6" /><sodipodi:namedview
   pagecolor="#ffffff"
   bordercolor="#666666"
   borderopacity="1"
   objecttolerance="10"
   gridtolerance="10"
   guidetolerance="10"
   inkscape:pageopacity="0"
   inkscape:pageshadow="2"
   inkscape:window-width="1024"
   inkscape:window-height="654"
   id="namedview4"
   showgrid="false"
   inkscape:zoom="1.5733333"
   inkscape:cx="75"
   inkscape:cy="75"
   inkscape:window-x="0"
   inkscape:window-y="24"
   inkscape:window-maximized="1"
   inkscape:current-layer="Layer_1" />  
<path
   inkscape:connector-curvature="0"
   style="fill:#ffffff;stroke-width:0.666807"
   d="M 62.817373,144.44589 C 30.750472,135.76397 20.282582,103.94182 40.648021,77.051572 c 6.11404,-8.072895 8.623908,-13.864593 8.999867,-20.767828 1.547099,-28.407602 43.906373,-32.380057 50.293077,-4.716487 0.813085,3.521787 0.813085,3.521787 -2.30247,6.852556 -16.176532,17.294019 -5.04511,47.958487 18.083205,49.814997 4.71918,0.37881 4.64897,0.25546 3.23499,5.68408 -5.89627,22.6373 -32.28335,36.98587 -56.139317,30.527 z M 77.021942,27.819363 c -0.557431,-0.94943 0.987134,-9.078888 2.283574,-12.019017 2.551997,-5.787579 8.387818,-10.3153879 15.137445,-11.7446159 4.547574,-0.962945 2.017885,10.7877979 -3.680161,17.0948529 -3.208548,3.551482 -12.829613,8.220824 -13.740858,6.66878 z"
   id="path302" /></svg>