<?xml version="1.0" encoding="UTF-8" standalone="no"?>
<!-- Created with Inkscape (http://www.inkscape.org/) -->

<svg
   xmlns:dc="http://purl.org/dc/elements/1.1/"
   xmlns:cc="http://creativecommons.org/ns#"
   xmlns:rdf="http://www.w3.org/1999/02/22-rdf-syntax-ns#"
   xmlns:svg="http://www.w3.org/2000/svg"
   xmlns="http://www.w3.org/2000/svg"
   xmlns:sodipodi="http://sodipodi.sourceforge.net/DTD/sodipodi-0.dtd"
   xmlns:inkscape="http://www.inkscape.org/namespaces/inkscape"
   version="1.1"
   id="svg127"
   xml:space="preserve"
   width="220"
   height="260"
   viewBox="0 0 220 260"
   sodipodi:docname="boot-ori.svg"
   inkscape:export-filename="/home/mikebearly/Desktop/test.png"
   inkscape:export-xdpi="96"
   inkscape:export-ydpi="96"
   inkscape:version="0.92.4 (5da689c313, 2019-01-14)"><metadata
     id="metadata133"><rdf:RDF><cc:Work
         rdf:about=""><dc:format>image/svg+xml</dc:format><dc:type
           rdf:resource="http://purl.org/dc/dcmitype/StillImage" /><dc:title /></cc:Work></rdf:RDF></metadata><defs
     id="defs131" /><sodipodi:namedview
     pagecolor="#ffffff"
     bordercolor="#666666"
     borderopacity="1"
     objecttolerance="10"
     gridtolerance="10"
     guidetolerance="10"
     inkscape:pageopacity="0"
     inkscape:pageshadow="2"
     inkscape:window-width="1024"
     inkscape:window-height="654"
     id="namedview129"
     showgrid="false"
     inkscape:pagecheckerboard="true"
     inkscape:zoom="1.2902877"
     inkscape:cx="65.832881"
     inkscape:cy="150.36712"
     inkscape:window-x="0"
     inkscape:window-y="24"
     inkscape:window-maximized="1"
     inkscape:current-layer="g137" /><g
     id="g135"
     inkscape:groupmode="layer"
     inkscape:label="ink_ext_XXXXXX"
     transform="matrix(1.3333333,0,0,-1.3333333,0,260.00001)"><g
       id="g137"
       transform="scale(0.1)"><path
         inkscape:connector-curvature="0"
         style="fill:#ffffff;stroke-width:2.4240756"
         d="M 785.57863,691.37288 C 681.81442,726.83115 647.94172,856.7975 713.84158,966.6212 c 19.78422,32.9709 27.90582,56.6249 29.12239,84.8188 5.00621,116.0208 142.07517,132.245 162.74167,19.2628 2.63101,-14.3835 2.63101,-14.3835 -7.45048,-27.9868 -52.34511,-70.6312 -16.32529,-195.8695 58.51489,-203.4518 15.2706,-1.5471 15.0434,-1.0433 10.468,-23.2146 C 948.15845,723.59558 862.77339,664.99394 785.57863,691.37288 Z m 45.96411,476.31982 c -1.80378,3.8776 3.19423,37.0795 7.38934,49.0874 8.25792,23.6373 27.14187,42.1296 48.98276,47.9668 14.71533,3.9328 6.52963,-44.059 -11.90851,-69.8179 -10.38242,-14.5048 -41.51491,-33.5751 -44.46359,-27.2363 z"
         id="path302" /></g></g></svg>