<?xml version="1.0" encoding="UTF-8" standalone="no"?>
<!-- Created with Inkscape (http://www.inkscape.org/) -->

<svg
   xmlns:dc="http://purl.org/dc/elements/1.1/"
   xmlns:cc="http://creativecommons.org/ns#"
   xmlns:rdf="http://www.w3.org/1999/02/22-rdf-syntax-ns#"
   xmlns:svg="http://www.w3.org/2000/svg"
   xmlns="http://www.w3.org/2000/svg"
   xmlns:xlink="http://www.w3.org/1999/xlink"
   xmlns:sodipodi="http://sodipodi.sourceforge.net/DTD/sodipodi-0.dtd"
   xmlns:inkscape="http://www.inkscape.org/namespaces/inkscape"
   version="1.1"
   id="svg2"
   width="128"
   height="128"
   viewBox="0 0 128 128"
   sodipodi:docname="folder-html.svg"
   inkscape:version="0.92.4 5da689c313, 2019-01-14">
  <metadata
     id="metadata8">
    <rdf:RDF>
      <cc:Work
         rdf:about="">
        <dc:format>image/svg+xml</dc:format>
        <dc:type
           rdf:resource="http://purl.org/dc/dcmitype/StillImage" />
        <dc:title></dc:title>
      </cc:Work>
    </rdf:RDF>
  </metadata>
  <defs
     id="defs6">
    <linearGradient
       id="linearGradient895"
       inkscape:collect="always">
      <stop
         id="stop891"
         offset="0"
         style="stop-color:#5291bd;stop-opacity:1" />
      <stop
         style="stop-color:#5291bd;stop-opacity:1"
         offset="0.12336344"
         id="stop898" />
      <stop
         id="stop893"
         offset="1"
         style="stop-color:#5e99b9;stop-opacity:1" />
    </linearGradient>
    <linearGradient
       id="linearGradient1052"
       inkscape:collect="always">
      <stop
         id="stop1040"
         offset="0"
         style="stop-color:#66aed7;stop-opacity:1" />
      <stop
         style="stop-color:#6cb1d7;stop-opacity:1"
         offset="0.33128312"
         id="stop1042" />
      <stop
         style="stop-color:#76b6d7;stop-opacity:1"
         offset="0.5047847"
         id="stop1044" />
      <stop
         id="stop1046"
         offset="0.60396028"
         style="stop-color:#7bb6d5;stop-opacity:1" />
      <stop
         style="stop-color:#77b2d0;stop-opacity:1"
         offset="0.80198014"
         id="stop1048" />
      <stop
         id="stop1050"
         offset="1"
         style="stop-color:#6aa4c2;stop-opacity:1" />
    </linearGradient>
    <linearGradient
       inkscape:collect="always"
       id="linearGradient849">
      <stop
         style="stop-color:#608ea7;stop-opacity:1"
         offset="0"
         id="stop845" />
      <stop
         id="stop853"
         offset="0.16504955"
         style="stop-color:#5887a2;stop-opacity:1" />
      <stop
         style="stop-color:#4e7890;stop-opacity:1;"
         offset="0.29030523"
         id="stop1065" />
      <stop
         style="stop-color:#4a7289;stop-opacity:1"
         offset="0.34926009"
         id="stop855" />
      <stop
         id="stop861"
         offset="0.38956389"
         style="stop-color:#345a6c;stop-opacity:1" />
      <stop
         id="stop857"
         offset="0.44399697"
         style="stop-color:#33586d;stop-opacity:1" />
      <stop
         style="stop-color:#4e88a4;stop-opacity:0;"
         offset="1"
         id="stop847" />
    </linearGradient>
    <linearGradient
       inkscape:collect="always"
       xlink:href="#linearGradient1052"
       id="linearGradient828"
       x1="655.15594"
       y1="211.50072"
       x2="655.15594"
       y2="419.85751"
       gradientUnits="userSpaceOnUse"
       gradientTransform="matrix(0.39478084,0,0,0.39478084,-194.76369,-40.484262)" />
    <linearGradient
       inkscape:collect="always"
       xlink:href="#linearGradient849"
       id="linearGradient859"
       gradientUnits="userSpaceOnUse"
       gradientTransform="matrix(0.39478084,0,0,0.39478084,167.73039,-51.641922)"
       x1="-286.85046"
       y1="201.41634"
       x2="-286.85046"
       y2="326.29895" />
    <filter
       inkscape:label="Film Grain"
       inkscape:menu="Image Effects"
       inkscape:menu-tooltip="Adds a small scale graininess"
       style="color-interpolation-filters:sRGB"
       id="filter898">
      <feTurbulence
         type="fractalNoise"
         numOctaves="3"
         baseFrequency="1"
         seed="0"
         result="result0"
         id="feTurbulence888" />
      <feColorMatrix
         result="result4"
         values="0"
         type="saturate"
         id="feColorMatrix890" />
      <feComposite
         in="SourceGraphic"
         in2="result4"
         operator="arithmetic"
         k1="1.25"
         k2="0.5"
         k3="0.5"
         result="result2"
         id="feComposite892"
         k4="0" />
      <feBlend
         result="result5"
         mode="normal"
         in="result2"
         in2="SourceGraphic"
         id="feBlend894" />
      <feComposite
         in="result5"
         in2="SourceGraphic"
         operator="in"
         result="result3"
         id="feComposite896" />
    </filter>
    <filter
       inkscape:label="Film Grain"
       inkscape:menu="Image Effects"
       inkscape:menu-tooltip="Adds a small scale graininess"
       style="color-interpolation-filters:sRGB;"
       id="filter883">
      <feTurbulence
         type="fractalNoise"
         numOctaves="3"
         baseFrequency="1"
         seed="0"
         result="result0"
         id="feTurbulence873" />
      <feColorMatrix
         result="result4"
         values="0"
         type="saturate"
         id="feColorMatrix875" />
      <feComposite
         in="SourceGraphic"
         in2="result4"
         operator="arithmetic"
         k1="1.25"
         k2="0.5"
         k3="0.5"
         result="result2"
         id="feComposite877" />
      <feBlend
         result="result5"
         mode="normal"
         in="result2"
         in2="SourceGraphic"
         id="feBlend879" />
      <feComposite
         in="result5"
         in2="SourceGraphic"
         operator="in"
         result="result3"
         id="feComposite881" />
    </filter>
    <filter
       inkscape:label="Cross Noise"
       inkscape:menu="Overlays"
       inkscape:menu-tooltip="Adds a small scale screen like graininess"
       style="color-interpolation-filters:sRGB;"
       id="filter904">
      <feTurbulence
         type="fractalNoise"
         numOctaves="5"
         baseFrequency="1"
         seed="0"
         result="result0"
         id="feTurbulence892" />
      <feConvolveMatrix
         kernelMatrix="-2 0 -2 0 -10 0 -2 0 -2 "
         order="3 3"
         result="result5"
         id="feConvolveMatrix894" />
      <feColorMatrix
         result="result4"
         values="0"
         type="saturate"
         in="result5"
         id="feColorMatrix896" />
      <feComposite
         in2="result4"
         in="SourceGraphic"
         operator="arithmetic"
         k1="1.5"
         k2="0.5"
         k3="0.5"
         result="result2"
         id="feComposite898" />
      <feBlend
         result="result6"
         in2="result4"
         mode="normal"
         id="feBlend900" />
      <feComposite
         in2="SourceGraphic"
         in="result6"
         operator="in"
         result="result3"
         id="feComposite902" />
    </filter>
    <linearGradient
       inkscape:collect="always"
       xlink:href="#linearGradient895"
       id="linearGradient1027"
       x1="154.28732"
       y1="84.772476"
       x2="154.28732"
       y2="128.74101"
       gradientUnits="userSpaceOnUse"
       gradientTransform="translate(-89.996566,-22.409095)" />
    <linearGradient
       id="linearGradient3866">
      <stop
         id="stop3868"
         offset="0"
         style="stop-color:#000000;stop-opacity:0.52083331" />
      <stop
         id="stop3870"
         offset="1"
         style="stop-color:#2883c3;stop-opacity:0;" />
    </linearGradient>
    <linearGradient
       id="linearGradient3874">
      <stop
         id="stop3876"
         offset="0"
         style="stop-color:#000d0e;stop-opacity:0.84105963;" />
      <stop
         id="stop3878"
         offset="1"
         style="stop-color:#000000;stop-opacity:0;" />
    </linearGradient>
    <linearGradient
       id="linearGradient4885">
      <stop
         id="stop4881"
         offset="0"
         style="stop-color:#1296d5;stop-opacity:1;" />
      <stop
         id="stop4883"
         offset="1"
         style="stop-color:#4fb6e8;stop-opacity:1" />
    </linearGradient>
    <style
       type="text/css"
       id="current-color-scheme">
      .ColorScheme-Text {
        color:#4d4d4d;
      }
      </style>
    <style
       type="text/css"
       id="current-color-scheme-3">
      .ColorScheme-Text {
        color:#4d4d4d;
      }
      </style>
    <linearGradient
       gradientTransform="matrix(3.4414163,0,0,3.4414163,-217.59008,-162.01326)"
       gradientUnits="userSpaceOnUse"
       y2="77.951225"
       x2="40.407059"
       y1="61.076542"
       x1="40.32296"
       id="linearGradient4887"
       xlink:href="#linearGradient4885" />
  </defs>
  <sodipodi:namedview
     pagecolor="#ffffff"
     bordercolor="#666666"
     borderopacity="1"
     objecttolerance="10"
     gridtolerance="10"
     guidetolerance="10"
     inkscape:pageopacity="0"
     inkscape:pageshadow="2"
     inkscape:window-width="1920"
     inkscape:window-height="1031"
     id="namedview4"
     showgrid="false"
     inkscape:zoom="2.151625"
     inkscape:cx="70.797553"
     inkscape:cy="64.324585"
     inkscape:window-x="0"
     inkscape:window-y="26"
     inkscape:window-maximized="1"
     inkscape:current-layer="svg2" />
  <path
     style="opacity:1;fill:url(#linearGradient859);fill-opacity:1;stroke:none;stroke-width:0.78956169;stroke-linecap:round;stroke-linejoin:round;stroke-miterlimit:4;stroke-dasharray:none;stroke-dashoffset:0;stroke-opacity:0.85098039;paint-order:fill markers stroke"
     d="m 7.93424,28.214947 c -3.39101,0 -6.12143,2.72966 -6.12143,6.12064 v 27.21058 c 19.29378,15.45725 121.85448,17.08511 124.92215,4.10729 v -21.8277 c 0,-3.39099 -2.73042,-6.12065 -6.12139,-6.12065 H 48.99014 c -3.59598,0 -5.76696,-4.55304 -8.20378,-7.85362 -1.09185,-1.01636 -2.5579,-1.63654 -4.17426,-1.63654 z"
     id="rect838"
     inkscape:connector-curvature="0"
     sodipodi:nodetypes="ssccssscss" />
  <path
     style="opacity:1;fill:url(#linearGradient828);fill-opacity:1;stroke:none;stroke-width:0.78956169;stroke-linecap:round;stroke-linejoin:round;stroke-miterlimit:4;stroke-dasharray:none;stroke-dashoffset:0;stroke-opacity:0.85098039;paint-order:fill markers stroke"
     d="m 8.38437,43.357317 c -3.61237,0 -6.52083,2.90771 -6.52083,6.52005 v 27.21443 42.088113 3.24383 c 0,1.81543 1.46155,3.27699 3.27699,3.27699 h 3.24384 111.81164 3.24305 c 1.81544,0 3.27699,-1.46156 3.27699,-3.27699 v -3.24383 -42.088113 -27.21443 c 0,-3.61234 -2.90771,-6.52005 -6.52004,-6.52005 z"
     id="rect817"
     inkscape:connector-curvature="0" />
  <path
     inkscape:connector-curvature="0"
     style="opacity:1;fill:#ebf5fa;fill-opacity:0.23626374;stroke:none;stroke-width:0.78956169;stroke-linecap:round;stroke-linejoin:round;stroke-miterlimit:4;stroke-dasharray:none;stroke-dashoffset:0;stroke-opacity:0.85098039;paint-order:fill markers stroke"
     d="m 8.38402,43.357187 c -3.61236,0 -6.52082,2.90772 -6.52082,6.52005 v 0.27527 c 0,-3.61233 2.90846,-6.52005 6.52082,-6.52005 h 111.81165 c 3.61232,0 6.52005,2.90772 6.52005,6.52005 v -0.27527 c 0,-3.61233 -2.90773,-6.52005 -6.52005,-6.52005 z"
     id="path904" />
  <path
     style="fill:none;stroke:#ffffff;stroke-width:0.31582469;stroke-linecap:butt;stroke-linejoin:miter;stroke-miterlimit:4;stroke-dasharray:none;stroke-opacity:0.2527473"
     d="M 2.09504,115.95084 H 126.38613"
     id="path909"
     inkscape:connector-curvature="0" />
  <g
     id="g925"
     transform="matrix(0.39478084,0,0,0.39478084,-44.90948,-40.528782)">
    <path
       inkscape:connector-curvature="0"
       id="path919"
       d="M 118.62489,404.50427 H 433.46057"
       style="fill:none;stroke:#ffffff;stroke-width:0.80000001;stroke-linecap:butt;stroke-linejoin:miter;stroke-miterlimit:4;stroke-dasharray:none;stroke-opacity:0.18681317" />
    <path
       style="fill:none;stroke:#22394c;stroke-width:0.80000001;stroke-linecap:butt;stroke-linejoin:miter;stroke-miterlimit:4;stroke-dasharray:none;stroke-opacity:0.27472528"
       d="M 118.62489,403.68267 H 433.46057"
       id="path921"
       inkscape:connector-curvature="0" />
  </g>
  <g
     id="g931"
     transform="matrix(0.39478084,0,0,0.39478084,-44.90948,-37.088532)">
    <path
       style="fill:none;stroke:#ffffff;stroke-width:0.80000001;stroke-linecap:butt;stroke-linejoin:miter;stroke-miterlimit:4;stroke-dasharray:none;stroke-opacity:0.18681317"
       d="M 118.62489,404.50427 H 433.46057"
       id="path927"
       inkscape:connector-curvature="0" />
    <path
       inkscape:connector-curvature="0"
       id="path929"
       d="M 118.62489,403.68267 H 433.46057"
       style="fill:none;stroke:#22394c;stroke-width:0.80000001;stroke-linecap:butt;stroke-linejoin:miter;stroke-miterlimit:4;stroke-dasharray:none;stroke-opacity:0.29670332" />
  </g>
  <path
     style="opacity:1;fill:url(#linearGradient1027);fill-opacity:1;stroke-width:2.2138629"
     d="m 64.290772,60.060704 c -0.796962,0 -1.599359,0.06623 -2.375,0.144532 -1.551285,0.156607 -3.015774,0.416271 -4.458985,0.863281 -7.216064,2.23505 -12.940734,7.95972 -15.175784,15.175781 -0.44701,1.443211 -0.70668,2.909653 -0.86328,4.460938 -0.0783,0.775642 -0.14453,1.576084 -0.14453,2.373046 0,0.796961 0.0662,1.597405 0.14453,2.373047 0.15661,1.551285 0.41627,3.017727 0.86328,4.460938 2.23505,7.216058 7.95972,12.940743 15.175784,15.175783 1.44321,0.44701 2.9077,0.7067 4.458985,0.86328 0.775641,0.0783 1.578038,0.14453 2.375,0.14453 0.796962,0 1.597406,-0.0663 2.373047,-0.14453 1.551285,-0.15651 3.015773,-0.41627 4.458984,-0.86328 1.441458,-0.44833 2.867336,-1.09017 4.171875,-1.79883 5.219004,-2.82812 9.217818,-7.604104 11.005859,-13.376953 0.44701,-1.443211 0.706681,-2.909653 0.863282,-4.460938 0.0783,-0.775642 0.142578,-1.576085 0.142578,-2.373047 0,-0.794494 -0.064,-1.599283 -0.142578,-2.373046 -0.156608,-1.551285 -0.416273,-3.017727 -0.863282,-4.460938 -0.89402,-2.886425 -2.37082,-5.568044 -4.24414,-7.839844 -0.469071,-0.568383 -0.989109,-1.061373 -1.509766,-1.582031 -2.080157,-2.080157 -4.510066,-3.801252 -7.265625,-4.962891 -0.688428,-0.291181 -1.437473,-0.566846 -2.158203,-0.791015 -1.443211,-0.44701 -2.907699,-0.706681 -4.458984,-0.863281 -0.775641,-0.0783 -1.576085,-0.144532 -2.373047,-0.144532 z m 0,2.302735 c 3.483171,0 6.75768,0.854294 9.638672,2.373047 0.07614,0.04014 0.139279,0.103469 0.214843,0.144531 0.05833,0.07718 0.04209,0.15836 0.144532,0.214844 0.07527,0.04189 0.143951,0.107013 0.214843,0.144531 0.121299,0.06698 0.241885,0.169837 0.216797,0.287109 -0.03338,0.171476 -0.314484,0.161529 -0.43164,0.28711 0.01611,0.242644 -0.08192,0.198183 -0.144532,0.361328 0.03775,0.104727 0.12796,0.0894 0.144532,0.214843 -0.02072,0.13396 -0.194825,0.149078 -0.144532,0.28711 0.226027,0.17585 0.435025,0.02923 0.648438,0 0.468671,-0.05869 0.861642,0.01084 1.15039,-0.214844 -0.0305,-0.179025 0.139601,-0.229905 0.214844,-0.359375 0.152763,0.107097 0.281937,0.248298 0.431641,0.359375 -0.08792,0.03775 -0.279851,0.09435 -0.359375,0.144531 -0.117156,0.07941 -0.153083,0.199278 -0.28711,0.28711 -0.09621,0.06698 -0.331194,0.287109 -0.43164,0.287109 -0.1213,0 -0.343762,-0.10149 -0.431641,-0.07227 -0.125673,0.03775 -0.07478,0.238863 -0.216797,0.289063 -0.27618,0.100354 -0.767047,-0.271497 -0.863281,0.142578 0.117157,0.238456 0.511479,0.159408 0.720703,0.289063 0.129816,0.08378 0.325908,0.504239 0.359375,0.646484 0.03337,0.117156 0.05018,0.520996 0,0.646484 -0.129816,0.334667 -0.478322,0.297442 -0.863281,0.289063 -0.104727,0 -0.190783,0.0092 -0.287109,0 -0.648594,-0.04189 -1.291048,-0.249477 -1.583985,0.214844 0.02072,0.355589 0.07964,0.553703 0,0.863281 -0.05846,0.225796 -0.299676,0.379538 -0.287109,0.576172 0.0046,0.100354 0.191708,0.293561 0.216797,0.43164 0.01611,0.07527 -0.0336,0.220292 0,0.28711 0.10887,0.205082 0.381727,-0.03337 0.574218,0 0.184135,0.02923 0.359376,0.298917 0.359376,0.503906 0,0.146388 -0.05051,0.431974 -0.142579,0.574219 -0.184135,0.276088 -0.527379,0.210705 -0.791015,0.361328 -0.21751,0.125442 -0.301917,0.428928 -0.431641,0.646484 -0.138102,0.234266 -0.271278,0.313771 -0.216797,0.648438 -0.188279,0.372322 -0.401867,0.611115 -0.791015,0.791015 -0.113013,0.05018 -0.254763,0.139579 -0.359375,0.214844 -0.08378,0.05846 -0.169839,0.15306 -0.28711,0.28711 -0.146388,0.16319 -0.35214,0.235816 -0.43164,0.361328 -0.05869,0.09621 -0.0095,0.300009 -0.07227,0.429687 -0.09207,0.175849 -0.242219,0.328194 -0.359375,0.503906 -0.05432,0.08378 -0.158334,0.180101 -0.216797,0.289063 -0.133959,0.242645 -0.31222,0.43314 -0.287109,0.646484 0.02071,0.205081 0.274565,0.251741 0.287109,0.431641 0.01151,0.100354 -0.0764,0.178308 -0.07227,0.287109 0.0046,0.159047 0.05984,0.233863 0.07227,0.359375 0.02923,0.309578 -0.156382,0.43507 -0.214844,0.648438 -0.02923,0.100354 0.02509,0.207631 0,0.287109 -0.05018,0.154904 -0.284873,0.247575 -0.289062,0.431641 -0.0046,0.129816 0.204368,0.247666 0.216797,0.43164 0.0092,0.125443 -0.09736,0.242242 -0.07227,0.359375 0.04603,0.226027 0.472704,0.544991 0.648438,0.720704 0.238525,0.238478 0.469629,0.395461 0.574218,0.646484 0.08792,0.213367 0.124035,0.559772 0.28711,0.71875 0.121299,0.117157 0.349094,0.167832 0.503906,0.289062 0.146388,0.113013 0.349071,0.165719 0.503906,0.28711 0.255258,0.200938 0.601886,0.60352 1.007813,0.574218 0.213367,-0.01611 0.407959,-0.100917 0.646484,-0.142578 0.246879,-0.04189 0.539947,-0.169619 0.791016,-0.144531 0.192422,0.02071 0.375326,0.15719 0.576172,0.144531 0.209224,-0.01151 0.480248,-0.112299 0.71875,-0.216796 0.414282,-0.179992 1.051737,-0.519496 1.654296,-0.431641 0.460293,0.06698 0.468802,0.586026 0.791016,0.791015 0.368225,0.03338 0.642633,-0.07112 0.935547,0 0.221883,0.05432 0.482983,0.472749 0.503906,0.648438 0.02072,0.179992 -0.119443,0.318696 -0.144531,0.431641 -0.05846,0.242644 -0.102871,0.563961 -0.144531,0.71875 -0.03337,0.1213 -0.07445,0.238053 -0.07031,0.359375 0,0.10887 0.174004,0.361661 0.28711,0.503906 0.138101,0.175849 0.336527,0.311461 0.503906,0.503906 0.305481,0.3514 0.433071,0.830532 0.646484,1.294922 0.05432,0.117157 -0.05018,0.140652 0,0.287109 -0.09207,0.702846 -0.330722,1.163272 -0.791015,1.941407 -0.21751,0.250999 -0.435831,0.549537 -0.431641,0.863281 -0.01611,0.753023 0.392865,1.143159 0.359375,1.871094 -0.07527,0.978924 0.0034,1.131375 -0.07227,1.654297 0.330593,0.167332 0.168471,0.658626 0.07227,1.005859 -0.142244,0.414144 -0.279875,0.516858 -0.359375,0.792969 0.171614,0.07434 0.31583,0.09126 0.503906,0.07031 -3.768922,3.918448 -9.094763,6.330078 -14.960937,6.330078 -2.74592,0 -5.371464,-0.53949 -7.769531,-1.50977 -0.0081,-0.002 0.0081,-0.0691 0,-0.0723 0.217509,-0.0921 0.633967,0.16091 0.792968,-0.14453 0.07964,-0.14638 -0.104727,-0.42778 0,-0.57421 0.07527,-0.10036 0.563938,-0.19171 0.71875,-0.2168 0.221883,-0.0378 0.448684,0.007 0.574219,-0.0723 0.138102,-0.0879 0.314173,-0.31484 0.289063,-0.57422 -0.01151,-0.1213 -0.120817,-0.17847 -0.216797,-0.28711 -0.07941,-0.0921 -0.01806,-0.20528 -0.07227,-0.28906 -0.100354,-0.14639 -0.245264,-0.21804 -0.287109,-0.43164 0.301292,-0.0585 0.715209,0.33831 1.15039,0.2168 0.205082,-0.0587 0.552181,-0.45602 0.648438,-0.64844 0.02923,-0.0587 -0.03337,-0.288133 0,-0.35937 0.03775,-0.07941 0.129919,-0.102872 0.142578,-0.144532 0.02923,-0.113013 -0.02509,-0.144181 0,-0.214843 0.07527,-0.213367 0.306083,-0.349118 0.43164,-0.503907 0.09621,-0.117156 0.201069,-0.238052 0.289063,-0.359375 0.100354,-0.129815 0.148095,-0.174095 0.214844,-0.287109 0.06284,-0.3807 -0.234646,-0.673147 -0.142578,-1.007812 0.100354,-0.376513 0.641822,-0.619494 1.005859,-0.791016 0.125442,-0.05869 0.254763,-0.177326 0.359375,-0.214844 0.251069,-0.08793 0.556681,-0.06097 0.791016,-0.144531 0.39336,-0.142245 0.528189,-0.575792 0.720703,-0.935547 0.09207,-0.167334 0.19804,-0.310319 0.214844,-0.431641 0.01611,-0.10887 -0.02071,-0.233795 0,-0.359375 0.02071,-0.125442 0.03889,-0.221319 0.07227,-0.359375 0.04603,-0.179992 0.07227,-0.51795 0.07227,-0.71875 0,-0.167333 -0.06813,-0.208776 -0.07227,-0.359375 -0.02923,-0.543845 0.158552,-0.56627 0.359375,-0.863281 0.100354,-0.146388 0.145904,-0.39934 0.216797,-0.503906 0.338947,-0.502023 0.903173,-0.748389 0.861328,-1.509766 -0.01611,-0.251023 -0.103065,-0.783781 -0.287109,-0.863281 -0.104727,-0.04603 -0.349071,-0.01392 -0.503906,-0.07227 -0.493783,-0.184136 -0.850553,-0.749193 -1.365235,-0.791015 -0.10887,-0.0046 -0.16767,0.0046 -0.289062,0 -0.200938,-0.0046 -0.420527,-0.191708 -0.646485,-0.216797 -0.142244,-0.01611 -0.420217,0.04189 -0.503906,0 -0.129816,-0.06284 -0.110347,-0.288252 -0.214844,-0.359375 -0.08378,-0.05869 -0.229675,-0.09849 -0.359375,-0.144531 -0.205081,-0.07941 -0.337647,-0.125775 -0.576172,-0.142578 -0.07527,-0.0046 -0.275754,0.01151 -0.359375,0 -0.129816,-0.02072 -0.238028,-0.141532 -0.359375,-0.216797 -0.150531,-0.09207 -0.226294,-0.157387 -0.289062,-0.28711 0.138102,-0.451823 -0.339573,-0.527471 -0.431641,-0.791015 -0.04189,-0.121299 0.04189,-0.322863 0,-0.431641 -0.05432,-0.154904 -0.187784,-0.22972 -0.359375,-0.359375 -0.301292,-0.234289 -0.574844,-0.44954 -1.005859,-0.503906 -0.192422,-0.02071 -0.418292,0.01611 -0.648438,0 -0.242692,-0.01611 -0.534637,-0.150243 -0.71875,-0.359375 -0.175849,-0.205082 -0.204563,-0.407696 -0.359375,-0.503907 -0.146388,-0.09207 -0.403483,-0.118863 -0.503906,-0.214843 -0.04603,-0.04189 -0.03037,-0.120816 -0.07227,-0.216797 -0.07527,-0.150761 -0.234646,-0.175401 -0.142579,-0.359375 -0.167332,-0.08378 -0.109139,0.105863 -0.289062,0.07227 -0.16319,-0.23017 -0.27826,-0.358231 -0.646485,-0.287109 -0.167332,0.03338 -0.307222,0.282943 -0.503902,0.287109 -0.16319,0.0046 -0.2905,-0.257831 -0.50391,-0.287109 -0.16319,-0.02071 -0.39092,0.167666 -0.50391,0.142578 -0.17999,-0.03337 -0.19627,-0.250413 -0.35937,-0.359375 -0.1213,-0.07964 -0.36469,-0.291275 -0.43164,-0.287109 -0.20923,0.0046 -0.35776,0.441898 -0.64649,0.287109 -0.14224,-0.179992 0.23974,-0.192134 0.0723,-0.359375 -0.12544,-0.125442 -0.18857,0.0054 -0.28906,0.07227 -0.11716,0.07941 -0.22968,0.16904 -0.35938,0.214844 -0.28875,0.10887 -0.49279,0.09987 -0.71875,0.216797 -0.20922,0.108869 -0.23803,0.290539 -0.35937,0.503906 -0.0962,0.175849 -0.28519,0.421309 -0.43164,0.429687 -0.17585,0.01151 -0.34489,-0.220199 -0.50391,-0.287109 -0.48122,-0.209224 -0.75286,0.140388 -1.15039,0.144531 -0.36825,0.0046 -0.88001,-0.58829 -0.86328,-0.935547 0.0115,-0.213367 0.11944,-0.52747 0.14453,-0.791015 0.0207,-0.209224 0.21093,-0.383728 0.21484,-0.576172 0.005,-0.255189 -0.40879,-0.472653 -0.57617,-0.501953 -0.39336,-0.07112 -0.91748,0.175849 -1.36523,0 -0.0838,-0.142245 0.16466,-0.223249 0.21484,-0.361328 0.0292,-0.07941 -0.0292,-0.126919 0,-0.214844 0.0502,-0.133959 0.22632,-0.21713 0.28906,-0.359375 0.046,-0.10887 0.0243,-0.297751 0.0703,-0.431641 0.0543,-0.150761 0.20413,-0.250596 0.21679,-0.359375 0.0161,-0.142244 -0.10401,-0.339597 -0.21679,-0.431641 -0.34733,0.02072 -0.59015,0.05143 -0.79102,0.142579 -0.45191,0.205081 -0.33489,0.793325 -0.79102,0.935547 -0.1549,0.05018 -0.39846,0.1153 -0.57421,0.144531 0.29763,-1.505939 0.76035,-2.947004 1.36523,-4.316407 0.15905,0.02923 0.29356,0.131872 0.43164,0.144532 0.38498,0.02923 0.4007,-0.264308 0.71875,-0.431641 0.3264,0.04603 0.49587,-0.03338 0.79297,0 0.20094,0.02071 0.48748,0.274564 0.64648,0.287109 0.13396,0.0046 0.16156,-0.163524 0.28711,-0.142578 0.12545,0.02071 0.33846,0.279065 0.35938,0.429688 0.0207,0.188278 -0.12486,0.366994 -0.0703,0.576172 0.19679,0.200938 0.58291,0.314507 0.86328,0.43164 0.18413,-0.150761 0.0292,-0.501193 0,-0.71875 -0.005,-0.09621 0.0115,-0.201046 0,-0.289062 -0.0207,-0.150531 -0.0723,-0.300011 -0.0723,-0.429688 0,-0.598234 0.46157,-0.845788 0.86328,-1.080078 0.17148,-0.100354 0.35131,-0.284063 0.50196,-0.359375 0.21336,-0.104727 0.32814,-0.116443 0.5039,-0.216797 0.318,-0.179992 0.61638,-0.369206 0.86328,-0.574218 0.11302,-0.2719 -0.0115,-0.595549 0,-0.863282 0.11302,-0.07112 0.16588,0.01151 0.28711,0 0.19242,-0.04189 0.25251,-0.322885 0.36133,-0.43164 0.0628,-0.06284 0.28397,-0.08192 0.35938,-0.144532 0.19242,-0.150762 0.19192,-0.364683 0.35937,-0.43164 0.0587,-0.02071 0.19493,-0.04522 0.28711,-0.07031 0.12567,-0.03337 0.30306,-0.145905 0.50391,-0.216797 0.12981,-0.04603 0.45368,-0.0222 0.503902,-0.07227 0.06284,-0.06284 -0.01611,-0.335407 0,-0.431641 0.100355,-0.472722 0.800019,-0.487483 1.222657,-0.646484 0.292913,-0.113014 0.609144,-0.349878 0.935547,-0.28711 -0.06284,0.225797 -0.343476,0.157719 -0.289063,0.429688 0.07112,0.3807 0.514526,-0.08826 0.648438,-0.142578 0.255258,-0.10887 0.743343,-0.165719 1.078125,-0.28711 0.292914,-0.104496 0.780063,-0.309581 0.503906,-0.648437 -0.23017,-0.01611 -0.30306,0.203419 -0.503906,0.287109 -0.138102,0.02071 -0.170023,-0.06202 -0.28711,-0.07031 -0.113013,-0.0046 -0.174004,0.09125 -0.287109,0.07031 -0.113013,-0.02071 -0.27233,-0.225508 -0.289063,-0.359375 -0.04603,-0.3514 0.361662,-0.459372 0.503907,-0.71875 -0.09621,-0.317956 -0.523213,-0.01909 -0.791016,-0.144531 0.02923,-0.188278 0.137607,-0.393963 0.359375,-0.43164 0.179993,-0.02923 0.609949,0.05753 0.71875,0.144531 0.06284,0.05432 -0.02374,0.19907 0.07227,0.287109 0.10887,0.09621 0.289372,0.02072 0.43164,0 0.05018,-0.238455 -0.328954,-0.13232 -0.287109,-0.287109 0.284535,-0.184136 0.803065,-0.0985 1.150391,-0.144531 0.200937,-0.02923 0.396225,-0.19083 0.576171,-0.28711 0.167333,-0.09621 0.326197,-0.231329 0.501953,-0.07227 0.05018,0.171476 -0.118862,0.271519 -0.214843,0.359376 -0.322214,0.284465 -0.612212,0.605069 -0.863281,0.935546 0.154904,0.150761 0.387037,0.04304 0.646484,0.07227 0.100354,0.01151 0.256693,0.0557 0.361328,0.07227 0.125673,0.02071 0.258929,-0.02072 0.359375,0 0.175849,0.04189 0.18364,0.287109 0.359375,0.287109 0.284558,0 0.307836,-0.239196 0.144531,-0.431641 0.05018,-0.196795 0.141666,-0.365827 0.07031,-0.503906 -0.129816,-0.259378 -0.621373,0.04327 -0.646485,-0.287109 -0.01611,-0.209225 0.211752,-0.27264 0.28711,-0.431641 -0.03337,-0.4016 0.330907,-0.427049 0.289062,-0.791016 -0.02072,-0.150762 -0.184404,-0.145002 -0.289062,-0.287109 -0.05432,-0.07527 -0.07997,-0.234673 -0.142578,-0.289062 -0.21751,-0.184135 -0.623326,-0.150507 -0.648438,-0.501953 -0.01151,-0.209224 0.02923,-0.350284 0,-0.576172 -0.02923,-0.213368 -0.247597,-0.821437 -0.431641,-0.863282 -0.234334,-0.05018 -0.366115,0.374229 -0.646484,0.503907 -0.150531,0.07112 -0.42136,0.101719 -0.576172,0.07227 -0.100354,-0.02072 -0.274542,-0.09676 -0.287109,-0.289062 -0.01036,-0.110827 0.02586,-0.149246 0.07227,-0.214844 0.01082,-0.01542 -0.01128,-0.05602 0,-0.07227 1.820628,-0.523242 3.765,-0.791015 5.753907,-0.791015 z m -8.560547,1.86914 c -0.204207,0.653937 -0.794922,1.028075 -1.582032,1.007813 -0.19242,0.184135 -0.11035,0.535805 -0.21484,0.791016 -0.0879,0.213368 -0.36279,0.376131 -0.57617,0.359374 -0.15491,-0.01151 -0.43165,-0.212963 -0.43165,-0.359374 0,-0.119989 0.11671,-0.255279 0.14454,-0.359376 0.84712,-0.547736 1.734012,-1.018063 2.660152,-1.439453 z m 17.623047,0.71875 c -0.07711,0.01381 -0.146944,0.03245 -0.214844,0.07227 -0.159048,0.09621 -0.167671,0.243053 -0.289063,0.289063 -0.171476,0.06284 -0.406529,0.06017 -0.43164,0.214843 -0.02071,0.129815 0.148904,0.169999 0.144531,0.28711 -0.06284,0.154904 -0.183192,0.172934 -0.216797,0.361328 0.213367,0.347233 0.744199,0.0034 1.007813,-0.07227 0.117156,-0.03337 0.224342,0.019 0.287109,-0.07227 0.07112,-0.113015 0.01783,-0.344929 0.07227,-0.503907 0.05869,-0.17585 0.237743,-0.132343 0.216797,-0.287109 -0.01611,-0.154904 -0.316725,-0.314152 -0.576172,-0.289063 z m -22.800779,2.66211 c 0.15343,0.185194 0.28187,0.454978 0,0.576172 -0.0419,0.02071 -0.54802,0.09319 -0.64844,0.07227 -0.0312,-0.0044 -0.0423,-0.05284 -0.0703,-0.07227 0.21997,-0.213667 0.48948,-0.372371 0.71875,-0.576172 z m 0.57422,0.71875 c 0.10035,0.0046 0.17181,0.208511 0.28906,0.216797 0.11301,0.0092 0.2923,-0.09321 0.35937,-0.07227 0.17585,0.04603 0.23974,0.374205 0.0723,0.503906 -0.1381,0.01611 -0.18878,-0.165477 -0.28906,-0.144531 -0.28456,0.05018 -0.36081,0.592906 -0.57422,0.576172 -0.20094,-0.02072 -0.34968,-0.429739 -0.14453,-0.576172 0.005,-0.125673 -0.0808,-0.161552 -0.0723,-0.287109 0.0628,-0.07941 0.19191,-0.229226 0.35938,-0.216797 z m -0.9336,0.144531 c 0.0587,0 0.0494,-0.02509 0.0703,0 -0.0292,0.221653 -0.1157,0.254786 -0.2871,0.359375 -0.29711,0.179992 -0.47797,0.406127 -0.57422,0.791016 -0.0292,0.113014 -0.36164,0.460895 -0.50391,0.43164 -0.33059,-0.07112 0.13958,-0.694804 0.21484,-0.791015 0.0838,-0.104727 0.19292,-0.169839 0.28907,-0.28711 0.0962,-0.117157 0.123,-0.364707 0.21484,-0.43164 0.10035,-0.07112 0.40044,-0.08079 0.57617,-0.07227 z m 28.339846,0.576172 c 0.330569,-0.02072 0.495839,0.373396 0.646485,0.574219 0.125443,0.16319 0.513669,0.390939 0.71875,0.503906 0.117156,0.06284 0.229651,0.158334 0.359375,0.216797 0.135984,0.06065 0.343305,0.13957 0.503906,0.287109 0.160589,0.147539 0.282778,0.370039 0.289062,0.503906 0.0046,0.133958 -0.0932,0.233863 -0.07227,0.359375 0.144961,0.02359 0.219554,-0.125297 0.287109,-0.289062 0.542369,0.773664 1.005167,1.60103 1.439453,2.447266 -0.08811,0.05457 -0.126693,0.107031 -0.144531,0.214843 -0.04189,0.234266 0.134672,0.53435 -0.216797,0.576172 -0.221653,0.02923 -0.485558,-0.222221 -0.791015,-0.289062 -0.125444,-0.02923 -0.331218,0.03337 -0.431641,0 -0.23017,-0.07941 -0.162672,-0.363896 -0.359375,-0.501953 -0.113013,-0.07964 -0.394272,-0.196082 -0.574219,-0.216797 -0.113013,-0.01151 -0.171998,0.01611 -0.289062,0 -0.142245,-0.01611 -0.38675,-0.0011 -0.503907,-0.07227 -0.113013,-0.07112 -0.400387,-0.190806 -0.429687,-0.287109 -0.04603,-0.154904 0.35102,-0.374206 0.359375,-0.503907 0.0092,-0.100354 -0.123585,-0.136509 -0.144531,-0.287109 -0.01611,-0.09207 0.02072,-0.228507 0,-0.287109 -0.02923,-0.10887 -0.187853,-0.212653 -0.359375,-0.216797 -0.150761,0 -0.301918,0.07227 -0.431641,0.07227 -0.184136,0.0046 -0.56087,-0.09319 -0.791016,-0.07227 -0.138102,0.01151 -0.229652,0.06396 -0.359375,0.07227 -0.364059,0.02923 -0.578722,-0.02071 -0.863281,0 -0.205081,0.01151 -0.598525,0.12715 -0.791015,0.214844 -0.09621,0.04603 -0.163506,0.154191 -0.289063,0.216797 -0.05846,0.02923 -0.139349,0.03889 -0.214844,0.07227 -0.117156,0.05432 -0.31865,0.185612 -0.43164,0.214843 -0.16319,0.04189 -0.351335,-0.01151 -0.648438,0 -0.213367,0.01151 -0.57003,-0.03199 -0.574219,-0.287109 -0.0046,-0.389055 0.7099,-0.220267 1.078125,-0.287109 0.138103,-0.02923 0.191927,-0.192922 0.359375,-0.289063 0.07964,-0.04603 0.141531,-0.0924 0.216797,-0.142578 0.125442,-0.08792 0.338452,-0.260905 0.359375,-0.361328 0.01611,-0.09207 -0.08491,-0.220292 -0.07227,-0.28711 0.01611,-0.08792 0.174141,-0.174165 0.287109,-0.287109 0.175849,-0.17585 0.286303,-0.390962 0.503906,-0.503906 0.146387,-0.07941 0.43695,-0.09792 0.503906,-0.214844 0.01611,-0.133958 -0.0046,-0.16767 0,-0.289062 0.09207,-0.08378 0.06927,-0.126006 0.144532,-0.142579 0.226027,-0.05018 0.455137,0.08297 0.71875,0.07031 0.113013,-0.0046 0.23803,0.0099 0.359375,-0.07031 0.100354,-0.06698 0.186663,-0.166619 0.287109,-0.216796 0.10887,-0.05869 0.227277,-0.206557 0.361328,-0.214844 z m -25.726566,0.199219 c 0.0536,-0.0052 0.0982,-0.0053 0.11914,0.01563 -0.067,0.276112 -0.71794,0.172842 -0.93554,0.07227 0.006,-0.05236 0.0892,-0.06342 0.14453,-0.07227 0.0554,-0.0087 0.14782,0.0062 0.21484,0 0.0962,-0.0046 0.18445,0 0.28906,0 0.0524,0 0.11437,-0.01038 0.16797,-0.01563 z m 25.828129,0.492187 c -0.006,0.0053 -0.01042,0.01929 -0.03125,0.02734 -0.138102,0.04603 -0.205081,0.321742 0,0.359375 0.09621,-0.05846 0.09758,-0.18364 0.07227,-0.359375 -0.02716,-0.02923 -0.03503,-0.03264 -0.04102,-0.02734 z m -27.291019,0.02734 c 0.0711,0 0.13958,-0.02923 0.21485,0 -0.19242,0.16319 -0.45624,0.254786 -0.79102,0.359375 -0.15905,0.05018 -0.40234,0.103359 -0.43164,-0.07227 -0.0336,-0.21751 0.14673,-0.194129 0.28906,-0.214843 0.18414,-0.02072 0.50534,-0.06812 0.71875,-0.07227 z m 27.189456,0.576172 c -0.06698,0.02071 -0.145904,-0.0053 -0.216797,0.07031 0.0046,0.234267 0.04603,0.371183 0,0.576172 0.133959,0.259378 0.436973,0.103359 0.503907,-0.07227 0.07964,-0.43509 -0.08627,-0.628607 -0.28711,-0.574218 z m 1.796875,1.15039 c -0.184136,-0.0092 -0.322839,0.05557 -0.43164,0.142578 0.154904,0.251023 0.443689,0.298562 0.791015,0.361329 0.125442,-0.09207 0.08607,-0.344929 0.144532,-0.503907 -0.150762,0 -0.247528,0.0092 -0.431641,0 z m -36.539061,8.847657 c 0.14698,0.187289 0.30629,0.40417 0.50391,0.501953 0.10472,0.05432 0.22546,0.04304 0.35937,0.07227 0.10887,0.02071 0.18254,0.111158 0.28711,0.144532 0.22188,0.07527 0.54497,0.06317 0.7207,0.142578 0.26783,0.117156 0.41632,0.586813 0.64649,0.720703 0.0115,0.133959 -0.0419,0.258975 0,0.359375 0.10887,0.146388 0.32812,0.19099 0.5039,0.287109 0.21337,0.117156 0.30306,0.411863 0.50391,0.503906 0.0711,0.02923 0.17815,-0.03337 0.28711,0 0.27618,0.08378 0.33765,0.502741 0.57617,0.431641 0.1549,-0.04603 0.18976,-0.28104 0.21484,-0.431641 0.10473,-0.113012 0.19605,-0.287109 0.35938,-0.287109 0.25942,-0.0046 0.33538,0.319053 0.43164,0.574219 0.0543,0.142245 0.17928,0.28104 0.2168,0.43164 0.0628,0.259378 0.0543,0.995602 0,1.150391 -0.067,0.192421 -0.34489,0.294728 -0.50391,0.503906 -0.0753,0.100354 -0.15833,0.222222 -0.2168,0.289063 -0.10035,0.125443 -0.21168,0.174234 -0.28711,0.287109 -0.0419,0.06284 -0.0347,0.199278 -0.0723,0.28711 -0.12567,0.267733 -0.31953,0.46887 -0.21484,0.791015 0.0419,0.129816 0.21484,0.276875 0.21484,0.431641 0,0.184135 -0.40234,0.23084 -0.43164,0.431641 -0.0207,0.146388 0.17099,0.451804 0.2168,0.648437 0.0334,0.146388 0.27149,0.263141 0.35937,0.359375 0.14639,0.163191 0.29773,0.365041 0.43164,0.574219 0.26361,0.405789 0.38708,0.897488 0.64649,1.294922 0.1381,0.205081 0.41183,0.358637 0.5039,0.576171 0.046,0.10887 -0.0419,0.331264 0,0.431641 0.15053,0.338879 0.88371,0.695948 1.22266,0.863281 0.15905,0.07964 0.2852,0.131062 0.43164,0.214844 0.22188,0.125672 0.67805,0.379561 0.79101,0.576172 0.10036,0.175849 0.16662,0.583004 0.2168,0.863281 0.0628,0.368157 -0.0161,0.680668 0,1.078125 0.0115,0.21751 0.0703,0.358615 0.0703,0.576172 0,0.07527 0.005,0.211844 0,0.28711 -0.005,0.259377 0.0207,0.527471 0,0.791015 -0.0115,0.142245 -0.009,0.310319 0,0.431641 0.0115,0.129816 0.13625,0.174096 0.14453,0.287109 0.009,0.121299 -0.15719,0.265117 -0.14453,0.361328 0.0292,0.263567 0.31111,0.476105 0.36133,0.71875 0.0419,0.192418 0.0954,0.633178 0.0703,0.863278 -0.0161,0.1213 -0.0535,0.29778 -0.0703,0.43164 -0.0115,0.10473 0.0161,0.1909 0,0.28711 -5.73516,-3.683928 -9.5664,-10.083519 -9.56641,-17.406247 0,-0.938805 0.0939,-1.826715 0.21485,-2.732421 z m 7.91211,2.083984 c 0.20094,-0.09207 0.16319,0.263952 0,0.289063 -0.15491,0.02071 -0.15053,-0.217826 0,-0.289063 z"
     id="path980-7"
     inkscape:connector-curvature="0"
     sodipodi:nodetypes="scsssscsccscccssscscsccssscccccccccccccccsccccccccccccccsccccccccccccccccccccccccccccccccccccccccccccccccsccccccccccccccccccccccccccscccccccccccccccccccccccccccccccccccccccccccccccccccccccccccccccccccsccccccccccccccccccccccccccccccccccccccscccccccccccccccsccccscccccccccccccccccccccccccccccccccccccccccccccccccccccccccccccccccccccccccccccccccccccccsccccccccccccccccccccccccccccccccccccccccccccsccccccccccccscccccccccccccc" />
  <path
     style="opacity:1;fill:#3c749c;fill-opacity:0.17032968;stroke-width:2.2138629"
     d="M 64.291016 60.060547 C 63.494054 60.060547 62.691657 60.126776 61.916016 60.205078 C 60.364731 60.361685 58.900242 60.621349 57.457031 61.068359 C 50.240967 63.303409 44.5163 69.02808 42.28125 76.244141 C 41.83424 77.687352 41.574569 79.153793 41.417969 80.705078 C 41.339669 81.48072 41.273438 82.281163 41.273438 83.078125 C 41.273438 83.294296 41.288213 83.510444 41.296875 83.726562 C 41.320119 83.145257 41.360843 82.565887 41.417969 82 C 41.574569 80.448715 41.83424 78.982274 42.28125 77.539062 C 44.5163 70.323002 50.240967 64.598331 57.457031 62.363281 C 58.900242 61.916271 60.364731 61.656607 61.916016 61.5 C 62.691657 61.421698 63.494054 61.355469 64.291016 61.355469 C 65.087978 61.355469 65.888422 61.4217 66.664062 61.5 C 68.215347 61.6566 69.679836 61.916271 71.123047 62.363281 C 71.843777 62.58745 72.592822 62.863116 73.28125 63.154297 C 76.036809 64.315936 78.466718 66.037031 80.546875 68.117188 C 81.067532 68.637845 81.58757 69.130836 82.056641 69.699219 C 83.929961 71.971019 85.406761 74.652637 86.300781 77.539062 C 86.74779 78.982273 87.007454 80.448715 87.164062 82 C 87.221356 82.564174 87.260567 83.145417 87.283203 83.726562 C 87.291658 83.510444 87.306641 83.294296 87.306641 83.078125 C 87.306641 82.283631 87.24264 81.478841 87.164062 80.705078 C 87.007454 79.153793 86.74779 77.687352 86.300781 76.244141 C 85.406761 73.357716 83.929961 70.676097 82.056641 68.404297 C 81.58757 67.835914 81.067532 67.342924 80.546875 66.822266 C 78.466718 64.742109 76.036809 63.021014 73.28125 61.859375 C 72.592822 61.568194 71.843777 61.292528 71.123047 61.068359 C 69.679836 60.621349 68.215347 60.361678 66.664062 60.205078 C 65.888422 60.126778 65.087978 60.060547 64.291016 60.060547 z M 60.40625 64.021484 C 59.772565 64.138876 59.14607 64.274206 58.537109 64.449219 C 58.525829 64.465469 58.547929 64.506064 58.537109 64.521484 C 58.490699 64.587082 58.454484 64.625501 58.464844 64.736328 C 58.477411 64.92863 58.651599 65.004671 58.751953 65.025391 C 58.906765 65.05484 59.177594 65.024245 59.328125 64.953125 C 59.608494 64.823447 59.740275 64.399039 59.974609 64.449219 C 60.158653 64.491064 60.37702 65.099132 60.40625 65.3125 C 60.43548 65.538388 60.39474 65.679448 60.40625 65.888672 C 60.431362 66.240118 60.837178 66.20649 61.054688 66.390625 C 61.086924 66.418629 61.107308 66.481196 61.128906 66.539062 C 61.151921 66.513791 61.182742 66.493535 61.197266 66.462891 C 61.163896 66.061291 61.528173 66.035842 61.486328 65.671875 C 61.465608 65.521113 61.301924 65.526873 61.197266 65.384766 C 61.142946 65.309496 61.117295 65.150092 61.054688 65.095703 C 60.837178 64.911568 60.431362 64.945196 60.40625 64.59375 C 60.394818 64.385944 60.434345 64.244706 60.40625 64.021484 z M 72.574219 65.386719 C 72.493069 65.413177 72.430295 65.451418 72.417969 65.527344 C 72.397259 65.657159 72.566873 65.697342 72.5625 65.814453 C 72.49966 65.969357 72.379308 65.987387 72.345703 66.175781 C 72.55907 66.523014 73.089902 66.179186 73.353516 66.103516 C 73.470672 66.070146 73.577858 66.12252 73.640625 66.03125 C 73.660178 66.000179 73.658493 65.947402 73.664062 65.902344 C 73.306558 65.720364 72.943133 65.548039 72.574219 65.386719 z M 55.730469 65.527344 C 54.804329 65.948734 53.917432 66.419061 53.070312 66.966797 C 53.042482 67.070894 52.925781 67.206183 52.925781 67.326172 C 52.925781 67.472583 53.202512 67.674037 53.357422 67.685547 C 53.570802 67.702304 53.845694 67.53954 53.933594 67.326172 C 54.038084 67.070961 53.956018 66.719291 54.148438 66.535156 C 54.935547 66.555418 55.526262 66.181281 55.730469 65.527344 z M 74.289062 66.390625 C 74.268343 66.524585 74.094238 66.539702 74.144531 66.677734 C 74.33121 66.822971 74.506113 66.751967 74.681641 66.705078 C 74.642535 66.63858 74.581416 66.577956 74.503906 66.535156 C 74.433014 66.497638 74.364333 66.432515 74.289062 66.390625 z M 61.466797 67.099609 C 61.414021 67.336081 61.168913 67.4166 61.197266 67.757812 C 61.172339 67.810407 61.124028 67.848258 61.080078 67.888672 C 61.169072 67.974768 61.206873 68.117188 61.341797 68.117188 C 61.626355 68.117188 61.649633 67.877992 61.486328 67.685547 C 61.536508 67.488752 61.627997 67.31972 61.556641 67.181641 C 61.535751 67.139902 61.50297 67.117221 61.466797 67.099609 z M 74.222656 67.355469 C 74.12061 67.362938 74.033183 67.398234 74 67.541016 C 74.050334 67.643464 74.155488 67.683971 74.271484 67.710938 C 74.275477 67.700749 74.287223 67.697439 74.289062 67.685547 C 74.27249 67.560104 74.182281 67.57543 74.144531 67.470703 C 74.168548 67.408123 74.196658 67.384877 74.222656 67.355469 z M 76.158203 67.398438 C 76.08296 67.527907 75.912859 67.578788 75.943359 67.757812 C 75.660756 67.978694 75.275845 67.918415 74.820312 67.970703 C 74.922253 68.113244 75.016871 68.296375 75.056641 68.421875 C 75.065002 68.416494 75.069389 68.407508 75.080078 68.404297 C 75.167957 68.375077 75.390419 68.476562 75.511719 68.476562 C 75.612165 68.476563 75.847149 68.256433 75.943359 68.189453 C 76.077386 68.101621 76.113313 67.981754 76.230469 67.902344 C 76.309993 67.852163 76.501924 67.795563 76.589844 67.757812 C 76.44014 67.646736 76.310966 67.505534 76.158203 67.398438 z M 60.564453 67.617188 C 60.437782 67.592597 60.316906 67.685655 60.191406 67.757812 C 60.19021 67.758452 60.188697 67.75912 60.1875 67.759766 C 60.213379 67.760315 60.235217 67.754827 60.261719 67.757812 C 60.362073 67.769323 60.518412 67.813508 60.623047 67.830078 C 60.642171 67.83323 60.658401 67.829367 60.677734 67.830078 C 60.697447 67.787581 60.709577 67.740967 60.693359 67.685547 C 60.64942 67.645782 60.606677 67.625384 60.564453 67.617188 z M 57.46875 68.068359 C 57.290589 68.131505 57.196131 68.307743 57.169922 68.476562 C 57.437725 68.602004 57.864728 68.303138 57.960938 68.621094 C 57.889815 68.750783 57.752622 68.841972 57.638672 68.945312 C 57.869671 68.892724 58.115687 68.839821 58.320312 68.765625 C 58.613227 68.661129 59.100376 68.456044 58.824219 68.117188 C 58.680922 68.107158 58.592157 68.184582 58.501953 68.267578 C 58.590283 68.312205 58.789132 68.299887 58.751953 68.476562 C 58.609685 68.497282 58.429183 68.572772 58.320312 68.476562 C 58.296942 68.455132 58.303396 68.426419 58.296875 68.400391 C 58.183473 68.405764 58.141266 68.341635 58.033203 68.333984 C 57.92019 68.329384 57.859199 68.425237 57.746094 68.404297 C 57.63907 68.384684 57.498405 68.201573 57.46875 68.068359 z M 50.552734 68.908203 C 50.323464 69.112004 50.053954 69.270708 49.833984 69.484375 C 49.861984 69.503805 49.873097 69.552241 49.904297 69.556641 C 50.004717 69.577561 50.510834 69.505085 50.552734 69.484375 C 50.834604 69.363181 50.706164 69.093397 50.552734 68.908203 z M 73.003906 69.330078 C 72.725601 69.330985 72.492172 69.394793 72.345703 69.626953 C 72.366423 69.982542 72.425343 70.180656 72.345703 70.490234 C 72.287243 70.71603 72.046027 70.869772 72.058594 71.066406 C 72.063194 71.16676 72.250302 71.359968 72.275391 71.498047 C 72.291501 71.573317 72.241791 71.718338 72.275391 71.785156 C 72.287741 71.80842 72.308005 71.809372 72.324219 71.822266 C 72.329181 71.808716 72.342057 71.799238 72.345703 71.785156 C 72.425343 71.475578 72.366423 71.277464 72.345703 70.921875 C 72.63864 70.457554 73.281093 70.665141 73.929688 70.707031 C 74.026013 70.716231 74.11207 70.707031 74.216797 70.707031 C 74.601756 70.71541 74.950262 70.752636 75.080078 70.417969 C 75.130258 70.292481 75.113448 69.88864 75.080078 69.771484 C 75.058586 69.680135 74.970006 69.497817 74.875 69.339844 C 74.704868 69.426297 74.472526 69.417676 74.216797 69.412109 C 74.11207 69.412109 74.026013 69.421309 73.929688 69.412109 C 73.60539 69.391164 73.282211 69.329171 73.003906 69.330078 z M 51.126953 69.626953 C 50.968722 69.61521 50.849371 69.746425 50.783203 69.828125 C 50.957049 69.806394 51.155764 69.778588 51.320312 69.773438 C 51.255223 69.710168 51.195261 69.630084 51.126953 69.626953 z M 50.193359 69.771484 C 50.017629 69.762964 49.717537 69.77263 49.617188 69.84375 C 49.525348 69.910683 49.498544 70.158234 49.402344 70.275391 C 49.306194 70.392662 49.197081 70.457773 49.113281 70.5625 C 49.038021 70.658711 48.567847 71.282396 48.898438 71.353516 C 49.040708 71.382771 49.373144 71.034889 49.402344 70.921875 C 49.498594 70.536986 49.679452 70.310851 49.976562 70.130859 C 50.147962 70.02627 50.234472 69.993137 50.263672 69.771484 C 50.242772 69.746394 50.252059 69.771484 50.193359 69.771484 z M 51.775391 69.771484 C 51.713611 69.752196 51.55997 69.831492 51.447266 69.837891 C 51.282728 69.946224 51.0813 70.02877 50.833984 70.107422 C 50.834693 70.116617 50.840254 70.120556 50.839844 70.130859 C 50.634694 70.277292 50.783435 70.686311 50.984375 70.707031 C 51.197785 70.723765 51.274034 70.181039 51.558594 70.130859 C 51.658874 70.109913 51.709556 70.291501 51.847656 70.275391 C 52.015096 70.14569 51.951241 69.817514 51.775391 69.771484 z M 78.533203 70.347656 C 78.456495 70.352398 78.385966 70.399836 78.318359 70.453125 C 78.32636 70.663386 78.35973 70.801202 78.316406 70.994141 C 78.370932 71.099715 78.453888 71.124517 78.537109 71.119141 C 78.556732 71.097301 78.577505 71.075076 78.603516 71.066406 C 78.624346 71.058356 78.628766 71.044363 78.634766 71.039062 C 78.640756 71.033762 78.648621 71.037176 78.675781 71.066406 C 78.676221 71.069457 78.675358 71.071199 78.675781 71.074219 C 78.740076 71.034519 78.796778 70.983627 78.820312 70.921875 C 78.872277 70.637984 78.813453 70.469015 78.714844 70.392578 C 78.659057 70.366494 78.601923 70.343349 78.533203 70.347656 z M 52.806641 70.546875 C 52.753041 70.552125 52.691072 70.5625 52.638672 70.5625 C 52.534062 70.5625 52.445809 70.5579 52.349609 70.5625 C 52.282589 70.5687 52.190166 70.5538 52.134766 70.5625 C 52.079436 70.57135 51.996234 70.582406 51.990234 70.634766 C 52.207834 70.735338 52.858781 70.838612 52.925781 70.5625 C 52.904841 70.54157 52.860241 70.541675 52.806641 70.546875 z M 51.34375 71.066406 C 51.13034 71.070556 50.80914 71.117952 50.625 71.138672 C 50.48267 71.159386 50.302338 71.136006 50.335938 71.353516 C 50.365237 71.529145 50.608528 71.475961 50.767578 71.425781 C 51.102358 71.321192 51.366174 71.229596 51.558594 71.066406 C 51.483324 71.037176 51.41485 71.066406 51.34375 71.066406 z M 80.082031 71.535156 C 80.012549 71.561025 79.95174 71.597999 79.898438 71.640625 C 80.053342 71.891648 80.342127 71.939186 80.689453 72.001953 C 80.716291 71.982255 80.731772 71.951845 80.746094 71.919922 C 80.587632 71.780541 80.389825 71.701457 80.257812 71.642578 C 80.19414 71.613883 80.139991 71.573454 80.082031 71.535156 z M 77.597656 71.785156 C 77.459554 71.796666 77.368004 71.849112 77.238281 71.857422 C 76.874222 71.886652 76.659559 71.836712 76.375 71.857422 C 76.169919 71.868932 75.776474 71.984572 75.583984 72.072266 C 75.513049 72.106203 75.445533 72.174095 75.371094 72.232422 C 75.370799 72.301752 75.454635 72.417139 75.439453 72.503906 C 75.41853 72.604329 75.20552 72.777314 75.080078 72.865234 C 75.004812 72.915412 74.942921 72.961782 74.863281 73.007812 C 74.695833 73.103953 74.642009 73.267645 74.503906 73.296875 C 74.135681 73.363717 73.421181 73.194929 73.425781 73.583984 C 73.42997 73.839103 73.786633 73.882604 74 73.871094 C 74.297103 73.859584 74.485247 73.912984 74.648438 73.871094 C 74.761427 73.841863 74.962922 73.71057 75.080078 73.65625 C 75.155573 73.62287 75.236462 73.613214 75.294922 73.583984 C 75.420479 73.521378 75.487774 73.413218 75.583984 73.367188 C 75.776474 73.279494 76.169919 73.163854 76.375 73.152344 C 76.659559 73.131634 76.874222 73.181574 77.238281 73.152344 C 77.368004 73.144034 77.459554 73.091588 77.597656 73.080078 C 77.827802 73.059158 78.204536 73.156944 78.388672 73.152344 C 78.518395 73.152344 78.669551 73.080078 78.820312 73.080078 C 78.903225 73.082081 78.981196 73.108596 79.044922 73.146484 C 79.01848 73.12401 78.971232 73.101075 78.964844 73.080078 C 78.918814 72.925174 79.315864 72.705873 79.324219 72.576172 C 79.333419 72.475818 79.200633 72.439663 79.179688 72.289062 C 79.163578 72.196992 79.200407 72.060555 79.179688 72.001953 C 79.150458 71.893083 78.991834 71.7893 78.820312 71.785156 C 78.811464 71.785156 78.803769 71.788594 78.794922 71.789062 C 78.837708 71.88644 78.855593 72.024052 78.820312 72.216797 C 78.753378 72.392426 78.450365 72.54844 78.316406 72.289062 C 78.351902 72.130985 78.337699 72.002585 78.326172 71.849609 C 78.130181 71.839698 77.808796 71.765964 77.597656 71.785156 z M 72.849609 73.080078 C 72.760915 73.064702 72.655556 73.106654 72.556641 73.136719 C 72.54822 73.139278 72.539557 73.142193 72.53125 73.144531 C 72.444114 73.165912 72.354626 73.17934 72.275391 73.224609 C 72.057881 73.350051 71.973474 73.653538 71.84375 73.871094 C 71.705648 74.10536 71.572472 74.184864 71.626953 74.519531 C 71.438674 74.891853 71.225085 75.130647 70.835938 75.310547 C 70.722925 75.360727 70.581175 75.450126 70.476562 75.525391 C 70.392782 75.583851 70.306724 75.67845 70.189453 75.8125 C 70.043065 75.97569 69.837312 76.048316 69.757812 76.173828 C 69.699123 76.270038 69.748317 76.473838 69.685547 76.603516 C 69.593477 76.779365 69.443328 76.93171 69.326172 77.107422 C 69.271852 77.191202 69.167838 77.287522 69.109375 77.396484 C 68.975416 77.639129 68.797155 77.829625 68.822266 78.042969 C 68.842976 78.24805 69.096831 78.294709 69.109375 78.474609 C 69.120885 78.574963 69.032979 78.652918 69.037109 78.761719 C 69.037585 78.778172 69.043466 78.784028 69.044922 78.798828 C 69.067643 78.762317 69.08791 78.730286 69.109375 78.691406 C 69.167838 78.582444 69.271852 78.486124 69.326172 78.402344 C 69.443328 78.226632 69.593477 78.074286 69.685547 77.898438 C 69.748317 77.768759 69.699123 77.56496 69.757812 77.46875 C 69.837312 77.343238 70.043065 77.270612 70.189453 77.107422 C 70.306724 76.973372 70.392782 76.878772 70.476562 76.820312 C 70.581175 76.745047 70.722925 76.655649 70.835938 76.605469 C 71.225085 76.425569 71.438674 76.186775 71.626953 75.814453 C 71.572472 75.479786 71.705648 75.400282 71.84375 75.166016 C 71.973474 74.94846 72.057881 74.644973 72.275391 74.519531 C 72.539027 74.368908 72.882271 74.434291 73.066406 74.158203 C 73.158475 74.015958 73.208984 73.730372 73.208984 73.583984 C 73.208984 73.378995 73.033744 73.109308 72.849609 73.080078 z M 79.066406 73.164062 C 79.120748 73.202243 79.166626 73.248226 79.179688 73.296875 C 79.200407 73.355477 79.163578 73.491914 79.179688 73.583984 C 79.200633 73.734584 79.333419 73.77074 79.324219 73.871094 C 79.315864 74.000795 78.918814 74.220096 78.964844 74.375 C 78.994144 74.471303 79.281518 74.590989 79.394531 74.662109 C 79.511688 74.733279 79.756192 74.718265 79.898438 74.734375 C 80.015501 74.750485 80.074487 74.722865 80.1875 74.734375 C 80.367447 74.75509 80.648706 74.871532 80.761719 74.951172 C 80.958422 75.089229 80.890924 75.373715 81.121094 75.453125 C 81.221517 75.486495 81.42729 75.423895 81.552734 75.453125 C 81.858191 75.519966 82.122097 75.771417 82.34375 75.742188 C 82.695219 75.700366 82.518657 75.400282 82.560547 75.166016 C 82.578385 75.058204 82.616968 75.005742 82.705078 74.951172 C 82.612374 74.770531 82.509862 74.596551 82.414062 74.417969 C 82.388762 74.426965 82.378827 74.443092 82.34375 74.447266 C 82.122097 74.476496 81.858191 74.225044 81.552734 74.158203 C 81.42729 74.128973 81.221517 74.191573 81.121094 74.158203 C 80.890924 74.078793 80.958422 73.794307 80.761719 73.65625 C 80.648706 73.57661 80.367447 73.460168 80.1875 73.439453 C 80.074487 73.427943 80.015501 73.455563 79.898438 73.439453 C 79.756192 73.423343 79.511688 73.438357 79.394531 73.367188 C 79.312733 73.315711 79.166922 73.239142 79.066406 73.164062 z M 49.433594 75.460938 C 49.371892 75.58142 49.330078 75.718042 49.330078 75.886719 C 49.330078 75.923319 49.345196 75.968478 49.351562 76.007812 C 49.367679 76.014289 49.386825 76.022814 49.402344 76.029297 C 49.550491 75.907997 49.482344 75.667546 49.433594 75.460938 z M 46.164062 77.828125 C 45.816733 77.848845 45.573917 77.879554 45.373047 77.970703 C 44.921137 78.175784 45.038161 78.764028 44.582031 78.90625 C 44.51561 78.927767 44.422626 78.945746 44.335938 78.96875 C 44.212886 79.42217 44.099921 79.879655 44.007812 80.345703 C 44.183562 80.316472 44.427131 80.251352 44.582031 80.201172 C 45.038161 80.05895 44.921137 79.470706 45.373047 79.265625 C 45.54262 79.188678 45.756435 79.157872 46.023438 79.136719 C 46.04746 79.108502 46.079073 79.084057 46.09375 79.050781 C 46.13975 78.941911 46.118062 78.753031 46.164062 78.619141 C 46.218362 78.46838 46.368199 78.368545 46.380859 78.259766 C 46.396959 78.117522 46.276843 77.920169 46.164062 77.828125 z M 68.986328 79.580078 C 68.951719 79.640983 68.91378 79.699281 68.894531 79.769531 C 68.865301 79.869885 68.919621 79.977163 68.894531 80.056641 C 68.844351 80.211545 68.609658 80.304215 68.605469 80.488281 C 68.600869 80.618097 68.809837 80.735948 68.822266 80.919922 C 68.831466 81.045365 68.72491 81.162164 68.75 81.279297 C 68.759662 81.326742 68.792714 81.380143 68.830078 81.433594 C 68.851486 81.40642 68.884518 81.382472 68.894531 81.351562 C 68.919621 81.272084 68.865301 81.164807 68.894531 81.064453 C 68.952993 80.851085 69.138605 80.725594 69.109375 80.416016 C 69.096945 80.290504 69.041709 80.215688 69.037109 80.056641 C 69.032979 79.94784 69.120885 79.869885 69.109375 79.769531 C 69.103697 79.688102 69.046886 79.633959 68.986328 79.580078 z M 46.638672 79.980469 C 46.480956 79.995193 46.312846 80.019982 46.144531 80.035156 C 46.131094 80.146048 46.126848 80.267368 46.09375 80.345703 C 46.03101 80.487948 45.854887 80.571119 45.804688 80.705078 C 45.775487 80.793003 45.833888 80.840512 45.804688 80.919922 C 45.766307 81.025532 45.613062 81.097682 45.580078 81.189453 C 45.604842 81.19663 45.641124 81.197549 45.662109 81.207031 C 45.716152 81.230671 45.762617 81.275576 45.808594 81.322266 C 46.201478 81.373276 46.623956 81.221383 46.955078 81.28125 C 47.02579 81.293628 47.143441 81.353675 47.251953 81.421875 C 47.280568 81.296154 47.305074 81.183486 47.316406 81.064453 C 47.337106 80.855229 47.52734 80.680725 47.53125 80.488281 C 47.53625 80.233092 47.122458 80.015628 46.955078 79.986328 C 46.856738 79.968548 46.75012 79.970064 46.638672 79.980469 z M 51.763672 81.445312 C 51.688286 81.432325 51.633961 81.518207 51.558594 81.568359 C 51.441434 81.647769 51.328919 81.737399 51.199219 81.783203 C 50.910469 81.892073 50.706429 81.883073 50.480469 82 C 50.271249 82.108869 50.242434 82.290539 50.121094 82.503906 C 50.024894 82.679755 49.835903 82.925216 49.689453 82.933594 C 49.513603 82.945104 49.344567 82.713394 49.185547 82.646484 C 48.704327 82.43726 48.432686 82.786873 48.035156 82.791016 C 47.800646 82.793945 47.521109 82.551053 47.34375 82.287109 C 47.3368 82.311752 47.318937 82.333791 47.316406 82.359375 C 47.296396 82.569558 47.235628 82.792482 47.201172 82.990234 C 47.236646 83.025345 47.272881 83.058179 47.316406 83.078125 C 47.387506 83.107355 47.494556 83.044755 47.603516 83.078125 C 47.879696 83.161905 47.941168 83.580866 48.179688 83.509766 C 48.334587 83.463736 48.369451 83.228726 48.394531 83.078125 C 48.499261 82.965113 48.590576 82.791016 48.753906 82.791016 C 49.013326 82.786416 49.089287 83.110068 49.185547 83.365234 C 49.239847 83.507479 49.364824 83.646275 49.402344 83.796875 C 49.418292 83.862744 49.416659 83.999334 49.423828 84.109375 C 49.510531 84.176929 49.598679 84.234457 49.689453 84.228516 C 49.835903 84.220138 50.024894 83.974677 50.121094 83.798828 C 50.242434 83.585461 50.271249 83.403791 50.480469 83.294922 C 50.706429 83.177995 50.910469 83.186995 51.199219 83.078125 C 51.328919 83.032321 51.441434 82.942691 51.558594 82.863281 C 51.659084 82.796411 51.722216 82.665574 51.847656 82.791016 C 52.015096 82.958257 51.633151 82.970399 51.775391 83.150391 C 52.064121 83.30518 52.212645 82.867881 52.421875 82.863281 C 52.488825 82.859115 52.732216 83.070751 52.853516 83.150391 C 53.016616 83.259353 53.032901 83.476396 53.212891 83.509766 C 53.325881 83.534854 53.553607 83.346478 53.716797 83.367188 C 53.930207 83.396466 54.057513 83.658897 54.220703 83.654297 C 54.417383 83.650131 54.557277 83.400567 54.724609 83.367188 C 55.092834 83.296066 55.207904 83.424127 55.371094 83.654297 C 55.551017 83.68789 55.492824 83.498251 55.660156 83.582031 C 55.568089 83.766005 55.727464 83.790645 55.802734 83.941406 C 55.844634 84.037387 55.82897 84.116313 55.875 84.158203 C 55.975423 84.254183 56.232518 84.280977 56.378906 84.373047 C 56.533718 84.469258 56.562432 84.671871 56.738281 84.876953 C 56.922394 85.086085 57.214339 85.220218 57.457031 85.236328 C 57.687177 85.252438 57.913047 85.215618 58.105469 85.236328 C 58.536484 85.290694 58.810036 85.505945 59.111328 85.740234 C 59.282919 85.869889 59.416383 85.944705 59.470703 86.099609 C 59.512593 86.208387 59.428813 86.409951 59.470703 86.53125 C 59.562771 86.794794 60.040446 86.870443 59.902344 87.322266 C 59.965112 87.451989 60.040875 87.517305 60.191406 87.609375 C 60.312753 87.68464 60.420965 87.805452 60.550781 87.826172 C 60.634402 87.837682 60.834886 87.821572 60.910156 87.826172 C 61.148681 87.842975 61.281247 87.88934 61.486328 87.96875 C 61.616028 88.014791 61.761923 88.054591 61.845703 88.113281 C 61.9502 88.184404 61.930731 88.409816 62.060547 88.472656 C 62.144236 88.514546 62.422209 88.456546 62.564453 88.472656 C 62.790411 88.497745 63.009999 88.684853 63.210938 88.689453 C 63.33233 88.694053 63.39113 88.684853 63.5 88.689453 C 64.014682 88.731275 64.371451 89.296333 64.865234 89.480469 C 65.020069 89.538819 65.264414 89.506704 65.369141 89.552734 C 65.425488 89.577074 65.468913 89.650061 65.507812 89.738281 C 65.600785 89.568359 65.670456 89.379579 65.65625 89.121094 C 65.64014 88.870071 65.553185 88.337312 65.369141 88.257812 C 65.264414 88.211782 65.020069 88.243897 64.865234 88.185547 C 64.371451 88.001411 64.014682 87.436353 63.5 87.394531 C 63.39113 87.389931 63.33233 87.399131 63.210938 87.394531 C 63.009999 87.389931 62.790411 87.202823 62.564453 87.177734 C 62.422209 87.161624 62.144236 87.219624 62.060547 87.177734 C 61.930731 87.114894 61.9502 86.889482 61.845703 86.818359 C 61.761923 86.759669 61.616028 86.719869 61.486328 86.673828 C 61.281247 86.594418 61.148681 86.548053 60.910156 86.53125 C 60.834886 86.52665 60.634402 86.54276 60.550781 86.53125 C 60.420965 86.51053 60.312753 86.389718 60.191406 86.314453 C 60.040875 86.222383 59.965112 86.157067 59.902344 86.027344 C 60.040446 85.575521 59.562771 85.499872 59.470703 85.236328 C 59.428813 85.115029 59.512593 84.913465 59.470703 84.804688 C 59.416383 84.649783 59.282919 84.574967 59.111328 84.445312 C 58.810036 84.211023 58.536484 83.995772 58.105469 83.941406 C 57.913047 83.920696 57.687177 83.957516 57.457031 83.941406 C 57.214339 83.925296 56.922394 83.791163 56.738281 83.582031 C 56.562432 83.376949 56.533718 83.174336 56.378906 83.078125 C 56.232518 82.986055 55.975423 82.959261 55.875 82.863281 C 55.82897 82.821391 55.844634 82.742465 55.802734 82.646484 C 55.727464 82.495723 55.568089 82.471083 55.660156 82.287109 C 55.492824 82.203329 55.551017 82.392968 55.371094 82.359375 C 55.207904 82.129205 55.092834 82.001144 54.724609 82.072266 C 54.557277 82.105646 54.417383 82.355209 54.220703 82.359375 C 54.057513 82.363975 53.930207 82.101544 53.716797 82.072266 C 53.553607 82.051556 53.325881 82.239932 53.212891 82.214844 C 53.032901 82.181474 53.016616 81.964431 52.853516 81.855469 C 52.732216 81.775829 52.488825 81.564193 52.421875 81.568359 C 52.212645 81.572959 52.064121 82.010258 51.775391 81.855469 C 51.633151 81.675477 52.015096 81.663335 51.847656 81.496094 C 51.816296 81.464733 51.7888 81.449641 51.763672 81.445312 z M 51.703125 82.429688 C 51.904065 82.337617 51.866315 82.693639 51.703125 82.71875 C 51.548215 82.73946 51.552595 82.500924 51.703125 82.429688 z M 51.703125 83.724609 C 51.552595 83.795846 51.548215 84.034382 51.703125 84.013672 C 51.866315 83.988561 51.904065 83.632539 51.703125 83.724609 z M 43.601562 83.828125 C 43.594745 84.010191 43.576172 84.187536 43.576172 84.373047 C 43.576182 91.695775 47.407418 98.095371 53.142578 101.7793 C 53.158678 101.68309 53.131078 101.59692 53.142578 101.49219 C 53.159378 101.35833 53.196791 101.18185 53.212891 101.06055 C 53.237991 100.83045 53.184478 100.38969 53.142578 100.19727 C 53.131078 100.302 53.158678 100.38817 53.142578 100.48438 C 47.604904 96.9273 43.854131 90.835262 43.601562 83.828125 z M 49.363281 85.007812 C 49.264754 85.161819 49.039035 85.266227 48.898438 85.451172 C 48.823138 85.551526 48.740111 85.673393 48.681641 85.740234 C 48.581291 85.865677 48.469961 85.914469 48.394531 86.027344 C 48.352631 86.090184 48.359866 86.226621 48.322266 86.314453 C 48.196596 86.582186 48.002732 86.783324 48.107422 87.105469 C 48.149322 87.235285 48.322266 87.382343 48.322266 87.537109 C 48.322266 87.721244 47.919925 87.767949 47.890625 87.96875 C 47.869925 88.115138 48.061612 88.420554 48.107422 88.617188 C 48.127826 88.706618 48.218273 88.782174 48.310547 88.851562 C 48.311944 88.844203 48.322266 88.839866 48.322266 88.832031 C 48.322266 88.677265 48.149322 88.530207 48.107422 88.400391 C 48.002732 88.078246 48.196596 87.877108 48.322266 87.609375 C 48.359866 87.521543 48.352631 87.385106 48.394531 87.322266 C 48.469961 87.209391 48.581291 87.160599 48.681641 87.035156 C 48.740111 86.968315 48.823138 86.846448 48.898438 86.746094 C 49.057457 86.536916 49.335344 86.434608 49.402344 86.242188 C 49.456644 86.087399 49.465144 85.351175 49.402344 85.091797 C 49.395139 85.062878 49.375816 85.035969 49.363281 85.007812 z M 78.660156 86.027344 C 78.641932 86.126601 78.620145 86.252667 78.603516 86.314453 C 78.570146 86.435753 78.529063 86.552506 78.533203 86.673828 C 78.533203 86.752874 78.625203 86.899816 78.71875 87.033203 C 78.729337 86.980746 78.73644 86.938799 78.748047 86.890625 C 78.773135 86.77768 78.913298 86.638976 78.892578 86.458984 C 78.880292 86.355821 78.781499 86.175035 78.660156 86.027344 z M 79.818359 89.908203 C 79.686217 90.309283 79.485711 90.687739 79.179688 91.205078 C 78.962177 91.456077 78.743857 91.754615 78.748047 92.068359 C 78.741158 92.390345 78.815756 92.642651 78.896484 92.886719 C 78.976148 92.749909 79.076643 92.618909 79.179688 92.5 C 79.639981 91.721865 79.878633 91.26144 79.970703 90.558594 C 79.920523 90.412137 80.025023 90.388641 79.970703 90.271484 C 79.914476 90.149134 79.867494 90.029995 79.818359 89.908203 z M 79.074219 94.859375 C 79.074835 95.113522 79.075954 95.311813 79.035156 95.59375 C 79.063806 95.608251 79.070184 95.637187 79.091797 95.65625 C 79.096863 95.51189 79.091514 95.44127 79.107422 95.234375 C 79.113774 95.096298 79.093785 94.977926 79.074219 94.859375 z M 79.042969 96.742188 C 78.925663 97.017727 78.814931 97.160283 78.748047 97.392578 C 78.902759 97.459597 79.038784 97.474882 79.201172 97.462891 C 79.242226 97.220996 79.240608 96.992663 79.035156 96.888672 C 79.043601 96.830311 79.03794 96.792983 79.042969 96.742188 z M 79.1875 97.527344 C 75.422368 101.40711 70.124402 103.79297 64.291016 103.79297 C 61.950979 103.79297 59.70829 103.38037 57.609375 102.66406 C 57.477187 102.70022 57.348116 102.74223 57.314453 102.78711 C 57.209726 102.93354 57.394093 103.21495 57.314453 103.36133 C 57.155452 103.66677 56.738993 103.41376 56.521484 103.50586 C 56.529584 103.50906 56.513384 103.57613 56.521484 103.57812 C 58.919551 104.54841 61.545096 105.08789 64.291016 105.08789 C 70.15719 105.08789 75.483031 102.67626 79.251953 98.757812 C 79.063877 98.778762 78.919661 98.76184 78.748047 98.6875 C 78.827547 98.411389 78.965178 98.308675 79.107422 97.894531 C 79.138406 97.782697 79.161504 97.653429 79.1875 97.527344 z M 58.320312 100.91602 C 58.348775 101.06131 58.424578 101.14248 58.501953 101.22461 C 58.536081 101.21699 58.581177 101.2197 58.607422 101.20312 C 58.663856 101.16721 58.722595 101.09657 58.775391 101.02148 C 58.608347 100.95441 58.451969 100.89045 58.320312 100.91602 z "
     id="path1527" />
</svg>
