<?xml version="1.0" encoding="UTF-8" standalone="no"?>
<!-- Created with Inkscape (http://www.inkscape.org/) -->

<svg
   xmlns:dc="http://purl.org/dc/elements/1.1/"
   xmlns:cc="http://creativecommons.org/ns#"
   xmlns:rdf="http://www.w3.org/1999/02/22-rdf-syntax-ns#"
   xmlns:svg="http://www.w3.org/2000/svg"
   xmlns="http://www.w3.org/2000/svg"
   xmlns:xlink="http://www.w3.org/1999/xlink"
   xmlns:sodipodi="http://sodipodi.sourceforge.net/DTD/sodipodi-0.dtd"
   xmlns:inkscape="http://www.inkscape.org/namespaces/inkscape"
   id="svg7384"
   sodipodi:docname="user-trash-symbolic.svg"
   version="1.1"
   inkscape:version="0.91 r13725"
   height="36"
   width="36">
  <metadata
     id="metadata90">
    <rdf:RDF>
      <cc:Work
         rdf:about="">
        <dc:format>image/svg+xml</dc:format>
        <dc:type
           rdf:resource="http://purl.org/dc/dcmitype/StillImage" />
        <dc:title>Gnome Symbolic Icon Theme</dc:title>
      </cc:Work>
    </rdf:RDF>
  </metadata>
  <sodipodi:namedview
     inkscape:cy="16.864995"
     pagecolor="#ffffff"
     borderopacity="1"
     showborder="true"
     inkscape:bbox-paths="false"
     guidetolerance="10"
     inkscape:window-width="1920"
     showguides="false"
     inkscape:object-nodes="true"
     inkscape:snap-bbox="true"
     inkscape:pageshadow="2"
     inkscape:guide-bbox="true"
     inkscape:snap-nodes="true"
     bordercolor="#666666"
     objecttolerance="10"
     id="namedview88"
     showgrid="false"
     inkscape:window-maximized="1"
     inkscape:window-x="0"
     inkscape:snap-global="true"
     inkscape:window-y="26"
     gridtolerance="10"
     inkscape:window-height="1031"
     inkscape:snap-to-guides="true"
     inkscape:current-layer="layer13"
     inkscape:zoom="15.999999"
     inkscape:cx="10.131589"
     inkscape:snap-grids="true"
     inkscape:pageopacity="1">
    <inkscape:grid
       spacingx="1"
       spacingy="1"
       id="grid4866"
       empspacing="2"
       enabled="true"
       type="xygrid"
       snapvisiblegridlinesonly="true"
       visible="true"
       originx="0"
       originy="0" />
  </sodipodi:namedview>
  <title
     id="title9167">Gnome Symbolic Icon Theme</title>
  <defs
     id="defs7386">
    <linearGradient
       inkscape:collect="always"
       id="linearGradient4257">
      <stop
         style="stop-color:#7c7a7a;stop-opacity:0.53231937"
         offset="0"
         id="stop4259" />
      <stop
         id="stop4267"
         offset="0.25555554"
         style="stop-color:#7c7a7a;stop-opacity:1" />
      <stop
         style="stop-color:#7c7a7a;stop-opacity:0.64705882;"
         offset="0.36507937"
         id="stop4269" />
      <stop
         id="stop4271"
         offset="0.44444442"
         style="stop-color:#7c7a7a;stop-opacity:0.71372549;" />
      <stop
         style="stop-color:#7c7a7a;stop-opacity:1"
         offset="1"
         id="stop4261" />
    </linearGradient>
    <linearGradient
       inkscape:collect="always"
       xlink:href="#linearGradient4257"
       id="linearGradient4263"
       x1="-116.625"
       y1="-9.2500019"
       x2="-116.62501"
       y2="22.25"
       gradientUnits="userSpaceOnUse"
       gradientTransform="matrix(0.67349943,0,0,0.67349943,97.039988,18.846561)" />
  </defs>
  <g
     inkscape:label="status"
     transform="translate(-442,-156)"
     inkscape:groupmode="layer"
     id="layer9"
     style="display:inline" />
  <g
     inkscape:label="devices"
     transform="translate(-442,-156)"
     inkscape:groupmode="layer"
     id="layer10" />
  <g
     inkscape:label="apps"
     transform="translate(-442,-156)"
     inkscape:groupmode="layer"
     id="layer11" />
  <g
     inkscape:label="actions"
     transform="translate(-442,-156)"
     inkscape:groupmode="layer"
     id="layer12" />
  <g
     inkscape:label="places"
     transform="translate(-442,-156)"
     inkscape:groupmode="layer"
     id="layer13">
    <g
       id="g4286"
       transform="matrix(0.8168327,0,0,0.8168327,194.76088,44.261609)">
      <path
         id="path4235"
         transform="translate(442,156)"
         d="m -124.93555,-9.3554688 -2.40039,0 -10.74804,8.58789068 0,19.39257812 c -0.0392,1.15157 -0.008,2.292992 0.46093,3.388672 0.46926,1.09568 1.68743,2.070172 3.08594,2.138672 l 0.0371,0.002 34.15625,0 c 1.44181,-10e-4 2.773434,-0.857764 3.333984,-1.964844 0.56056,-1.10707 0.627332,-2.28204 0.638672,-3.5 l 0.002,-0.0059 0,-0.0078 0,-19.44335912 -11.015626,-8.58789068 -2.14648,0 z m -1.45312,2.5 3.95508,0 10.40234,0 3.69922,0 7.88086,6.08789068 -33.61524,0 z m -8.69531,9.0878907 35.714839,0 0,16.4296871 c -0.01,1.04574 -0.156786,1.858587 -0.316406,2.173829 -0.15961,0.315229 -0.054,0.317759 -0.660153,0.318359 l -34.04297,0 c -0.45305,-0.0222 -0.33005,0.0198 -0.47656,-0.322266 -0.14652,-0.34209 -0.25347,-1.143889 -0.22071,-2.105469 l 0.002,-0.02539 0,-16.4687501 z M -122.54492,5.625 c -1.2292,0 -2.25,1.0208 -2.25,2.25 l 0,1.75 c 0,1.2292 1.0208,2.25 2.25,2.25 l 10.625,0 c 1.2292,0 2.25,-1.0208 2.25,-2.25 l 0,-1.75 c 0,-1.2292 -1.0208,-2.25 -2.25,-2.25 z m 0,2 10.625,0 c 0.1558,0 0.25,0.0942 0.25,0.25 l 0,1.75 c 0,0.1558 -0.0942,0.25 -0.25,0.25 l -10.625,0 c -0.1558,0 -0.25,-0.0942 -0.25,-0.25 l 0,-1.75 c 0,-0.1558 0.0942,-0.25 0.25,-0.25 z"
         style="color:#000000;font-style:normal;font-variant:normal;font-weight:normal;font-stretch:normal;font-size:medium;line-height:normal;font-family:sans-serif;text-indent:0;text-align:start;text-decoration:none;text-decoration-line:none;text-decoration-style:solid;text-decoration-color:#000000;letter-spacing:normal;word-spacing:normal;text-transform:none;direction:ltr;block-progression:tb;writing-mode:lr-tb;baseline-shift:baseline;text-anchor:start;white-space:normal;clip-rule:nonzero;display:inline;overflow:visible;visibility:visible;opacity:1;isolation:auto;mix-blend-mode:normal;color-interpolation:sRGB;color-interpolation-filters:linearRGB;solid-color:#000000;solid-opacity:1;fill:#656363;fill-opacity:0.75686275;fill-rule:nonzero;stroke:none;stroke-width:3;stroke-linecap:butt;stroke-linejoin:miter;stroke-miterlimit:4;stroke-dasharray:none;stroke-dashoffset:0;stroke-opacity:1;color-rendering:auto;image-rendering:auto;shape-rendering:auto;text-rendering:auto;enable-background:accumulate"
         inkscape:connector-curvature="0"
         sodipodi:nodetypes="ccccccccscccccccccccccccccsccsccccssssssssssssssssss" />
      <path
         style="opacity:0.61100003;fill:url(#linearGradient4263);fill-opacity:1;stroke:none;stroke-width:1px;stroke-linecap:butt;stroke-linejoin:miter;stroke-opacity:1"
         d="m 11.917969,14.228516 -5.1718752,4.101562 11.7460942,0 10.894531,0 -5.308594,-4.101562 -2.490234,0 -7.007813,0 z m -5.8574221,6.121093 0,11.091797 0,0.01758 c -0.022091,0.647624 0.049763,1.187572 0.1484375,1.417969 0.098674,0.230384 0.015177,0.201845 0.3203125,0.216797 l 22.9277341,0 c 0.408243,-4.04e-4 0.337816,-0.0025 0.445313,-0.214844 0.107504,-0.212315 0.206155,-0.758585 0.21289,-1.46289 l 0,-11.066407 z m 8.4453121,3.632813 7.15625,0 c 0.104932,0 0.167969,0.06304 0.167969,0.167969 l 0,1.177734 c 0,0.104931 -0.06304,0.169922 -0.167969,0.169922 l -7.15625,0 c -0.104931,0 -0.167968,-0.06499 -0.167968,-0.169922 l 0,-1.177734 c 0,-0.104932 0.06304,-0.167969 0.167968,-0.167969 z"
         transform="matrix(1.4847823,0,0,1.4847823,297.91675,128.01696)"
         id="path4252"
         inkscape:connector-curvature="0"
         sodipodi:nodetypes="ccccccccccccccccccsssssssss" />
    </g>
  </g>
  <g
     inkscape:label="mimetypes"
     transform="translate(-442,-156)"
     inkscape:groupmode="layer"
     id="layer14" />
  <g
     inkscape:label="emblems"
     transform="translate(-442,-156)"
     inkscape:groupmode="layer"
     id="layer15"
     style="display:inline" />
</svg>
